<svg width="244" height="268" viewBox="0 0 244 268" fill="none" xmlns="http://www.w3.org/2000/svg">
<path d="M12.0716 102.115C12.0716 102.115 -12.1163 146.769 23.6075 195.889C60.8193 247.241 71.9823 262.125 92.4489 263.242C112.915 264.358 117.046 257.034 123.723 257.207C130.4 257.381 135.986 263.056 151.429 262.498C166.873 261.94 183.245 254.683 215.62 208.169C247.994 161.654 242.412 121.094 230.877 96.9058C219.341 72.7179 195.154 51.5073 151.616 61.1829C124.452 66.0203 102.125 62.6711 85.0081 60.0668C67.889 57.4608 32.9102 58.9498 12.0716 102.115Z" fill="#EB203B"/>
<path d="M96.5676 263.781C95.2655 263.781 93.8872 263.743 92.4267 263.663C72.2024 262.559 61.3959 248.752 23.2686 196.137C4.73926 170.658 2.5771 146.406 4.02633 130.546C5.57765 113.573 11.4914 102.318 11.6982 101.928C33.3933 56.9971 70.2358 57.3951 85.0707 59.6533C101.626 62.1719 124.297 65.625 151.542 60.772C200.768 49.8331 222.612 78.604 231.255 96.7276C236.045 106.771 241.473 123.158 240.133 144.194C238.76 165.735 230.63 187.341 215.964 208.41C184.944 252.98 168.279 262.31 151.445 262.919C141.74 263.266 135.915 261.186 131.24 259.513C128.513 258.536 126.158 257.692 123.712 257.628C121.429 257.571 119.411 258.442 116.863 259.547C112.668 261.365 107.095 263.781 96.5676 263.781ZM74.5618 59.7078C57.0776 59.7078 29.8503 66.2583 12.45 102.301L12.4414 102.319C12.3817 102.429 6.40739 113.632 4.85866 130.662C3.4302 146.367 5.58198 170.392 23.9478 195.645C61.8891 248.003 72.6324 261.742 92.4726 262.826C105.543 263.541 111.892 260.786 116.529 258.777C119.173 257.631 121.262 256.745 123.734 256.79C126.314 256.857 128.728 257.722 131.524 258.723C136.131 260.374 141.869 262.429 151.414 262.081C167.99 261.482 184.454 252.215 215.275 207.932C229.851 186.99 237.932 165.527 239.296 144.141C240.624 123.285 235.245 107.043 230.498 97.0892C221.963 79.1924 200.383 50.7788 151.708 61.5966C124.305 66.4755 101.556 63.0129 84.9452 60.4848C82.1774 60.0634 78.6318 59.7078 74.5618 59.7078Z" fill="#B50F46"/>
<path d="M225.699 189.977C220.372 198.516 214.548 206.793 207.872 214.339C201.487 221.557 193.784 227.798 185.106 232.047C176.804 236.112 167.592 238.21 158.338 237.582C149.215 236.964 140.153 233.841 132.703 228.527C125.468 223.366 119.741 216.378 114.777 209.08C112.231 205.338 109.866 201.476 107.55 197.589C105.047 193.387 102.571 189.174 100.338 184.821C95.754 175.89 92.037 166.507 89.5072 156.787C86.9444 146.939 85.6146 136.792 85.4467 126.62C85.3697 121.957 85.625 117.321 86.0048 112.676C86.3664 108.253 86.8873 103.829 87.8728 99.4971C89.8281 90.9003 93.8869 82.3495 102.2 78.334C110.453 74.3471 119.723 76.53 128.349 77.7595C136.721 78.9526 145.733 79.2165 153.65 75.7868C160.984 72.6089 166.642 66.7938 172.671 61.7384C173.883 60.7226 175.158 59.7847 176.483 58.929C168.999 58.5016 160.737 59.1575 151.615 61.1846C124.451 66.022 102.124 62.6728 85.0063 60.0685C67.889 57.4634 32.9102 58.9524 12.0716 102.118C12.0716 102.118 -12.1163 146.771 23.6075 195.891C60.8185 247.243 71.9823 262.127 92.4489 263.244C112.915 264.361 117.045 257.036 123.723 257.21C130.4 257.383 135.986 263.058 151.429 262.5C166.872 261.942 183.245 254.686 215.62 208.171C221.614 199.559 226.304 191.152 229.899 183.013C228.531 185.353 227.134 187.676 225.699 189.977Z" fill="#C10C2A"/>
<path d="M171.561 253.572C164.499 254.697 157.255 254.015 150.488 251.724C146.755 250.459 142.913 248.831 139.655 246.587C136.57 244.462 134.119 241.559 131.044 239.418C127.373 236.861 122.868 235.91 118.594 237.42C114.521 238.859 110.979 241.569 106.687 242.423C99.8544 243.782 92.5702 242.544 86.3571 239.503C79.958 236.372 74.5808 231.45 70.0496 226.016C65.1863 220.184 61.1682 213.683 57.5889 206.999C54.1202 200.52 51.2027 193.799 48.0811 187.155C43.4331 177.262 40.0034 166.774 38.2471 155.975C36.5564 145.581 36.4396 134.948 37.9399 124.523C38.7333 119.01 39.9706 113.563 41.6075 108.239C43.0005 103.709 44.6704 99.3096 46.9416 95.1428C50.482 88.6485 55.354 82.9372 61.5264 78.8145C67.4774 74.8397 74.297 72.4465 81.2835 71.0587C88.1023 69.7038 95.1165 69.138 102.062 69.1994C107.557 69.2478 113.058 69.221 118.536 68.7365C124.433 68.2148 130.653 67.2881 135.997 64.5991C136.963 64.1128 137.907 63.5591 138.796 62.9292C117.355 64.9555 99.3518 62.2535 85.0083 60.0714C67.8909 57.4663 32.9122 58.9553 12.0736 102.121C12.0736 102.121 -12.1143 146.774 23.6094 195.894C60.8204 247.246 71.9843 262.13 92.4508 263.247C112.917 264.363 117.047 257.039 123.725 257.212C130.402 257.386 135.988 263.061 151.431 262.503C159.288 262.219 167.389 260.197 177.713 252.155C175.701 252.751 173.656 253.239 171.561 253.572Z" fill="#C10C2A"/>
<path opacity="0.56" d="M108.537 65.6361C108.537 65.6361 117.718 71.3742 134.836 65.0625C131.201 72.8087 111.597 74.2433 108.537 65.6361Z" fill="#EB203B"/>
<path d="M181.543 71.0241C181.543 71.0241 218.444 86.2457 219.366 136.983C218.905 153.588 244.085 143.825 231.359 107.462C215.215 61.338 167.245 58.1091 181.543 71.0241Z" fill="#F44563"/>
<path d="M188.924 70.2678C188.924 70.2678 209.219 76.7257 217.983 102.556C222.134 116.393 232.38 105.975 218.905 88.2573C200.961 64.6612 181.234 66.402 188.924 70.2678Z" fill="white"/>
<path d="M129.33 65.9231C129.33 66.9319 125.208 67.7504 120.124 67.7504C115.04 67.7504 110.918 66.9328 110.918 65.9231C110.918 64.9143 115.04 65.3815 120.124 65.3815C125.208 65.3815 129.33 64.9143 129.33 65.9231Z" fill="#C10C2A"/>
<path d="M135.018 64.5391C130.835 66.4823 126.367 66.9755 121.802 67.0793C117.3 67.1823 112.422 67.3917 108.336 65.1819C108.178 65.0963 107.834 65.5029 107.974 65.5972C111.862 68.2162 116.639 68.1392 121.147 68.1401C125.818 68.1418 130.826 68.0622 134.901 65.4787C135.176 65.3048 135.677 64.2328 135.018 64.5391Z" fill="#C10C2A"/>
<path d="M125.102 67.5736C125.102 67.5736 123.452 39.3565 139.293 25.4958C145.564 20.2154 148.699 19.3908 150.019 17.74C151.34 16.0901 145.234 11.1393 139.624 7.67415C134.014 4.20898 130.053 3.38357 130.053 5.85894C130.053 8.33431 127.413 18.4002 125.928 21.7001C124.442 25 117.347 39.1912 118.997 67.5727L125.102 67.5736Z" fill="#D96F3E"/>
<path d="M125.103 67.9925H118.601L118.577 67.597C117.522 49.4397 119.798 34.0883 125.343 21.9684L125.544 21.5271C127.034 18.2151 129.633 8.25739 129.633 5.85816C129.633 4.94622 130.089 4.49977 130.47 4.28693C131.961 3.4546 135.377 4.55774 139.843 7.31604C143.625 9.65211 150.144 14.2983 150.594 16.9008C150.687 17.4381 150.51 17.7955 150.346 18.0005C149.728 18.7723 148.798 19.3442 147.39 20.2077C145.575 21.3195 143.09 22.844 139.563 25.8151C124.068 39.3738 125.505 67.2665 125.521 67.5469L125.547 67.9907H125.103V67.9925ZM119.393 67.1532H124.666C124.548 63.4812 124.294 38.0622 139.017 25.1801C142.598 22.1631 145.115 20.6195 146.951 19.4939C148.284 18.6763 149.165 18.1355 149.691 17.4779C149.745 17.4113 149.811 17.2945 149.767 17.0462C149.479 15.3781 145.023 11.5037 139.403 8.03243C134.528 5.02063 131.767 4.52833 130.88 5.0215C130.705 5.11926 130.472 5.31221 130.472 5.85989C130.472 8.32487 127.826 18.5015 126.31 21.8732L126.106 22.3188C120.66 34.2241 118.402 49.3073 119.393 67.1532Z" fill="#B7481D"/>
<path opacity="0.6" d="M125.107 62.5519C124.561 62.7345 124.014 62.5822 123.538 62.0856C122.857 61.3761 122.734 60.3145 122.651 59.38C122.378 56.3163 122.583 53.2647 123.157 50.2434C123.792 46.9089 124.902 43.6713 125.472 40.3272C125.999 37.2315 126.084 34.0579 126.925 31.0176C127.513 28.8917 128.44 26.8221 129.657 24.9818C130.82 23.222 132.368 21.5288 134.369 20.7328C135.46 20.2993 136.612 20.2552 137.772 20.2638C139.205 20.2742 140.634 20.4014 142.064 20.494C143.394 20.5805 144.726 20.6246 146.057 20.5416C148.049 19.2913 149.304 18.6338 150.019 17.74C151.34 16.0901 145.234 11.1393 139.624 7.67415C134.014 4.20898 130.053 3.38357 130.053 5.85894C130.053 8.33431 127.413 18.4002 125.928 21.7001C124.442 25 117.347 39.1912 118.997 67.5727H125.103C125.102 67.5753 124.991 65.6407 125.107 62.5519Z" fill="#D96F3E"/>
<path opacity="0.6" d="M121.373 65.1432C120.972 64.4156 120.849 63.5495 120.801 62.7319C120.722 61.3423 120.786 59.9433 120.734 58.5512C120.609 55.2011 120.407 51.8666 120.638 48.5156C120.857 45.3351 121.364 42.177 122.072 39.0692C122.798 35.8861 123.722 32.7402 124.736 29.6384C125.671 26.7797 126.579 23.8389 127.841 21.104C128.869 18.8726 130.429 16.4396 133.014 15.8928C135.571 15.352 138.283 16.469 140.644 17.3386C142.774 18.1233 144.919 18.921 147.185 19.2083C147.477 19.2455 147.776 19.2723 148.076 19.2905C148.95 18.7376 149.586 18.2816 150.019 17.74C151.34 16.0901 145.234 11.1393 139.624 7.67415C134.014 4.20898 130.053 3.38357 130.053 5.85894C130.053 8.33431 127.413 18.4002 125.928 21.7001C124.442 25 117.347 39.1912 118.997 67.5727H125.103C125.103 67.5727 125.087 67.2803 125.074 66.7517C123.651 66.7361 122.122 66.5007 121.373 65.1432Z" fill="#D96F3E"/>
<path d="M139.624 7.67553C134.233 4.34534 130.376 3.46282 130.082 5.5947C130.267 6.47203 130.833 7.57603 131.993 8.96903C136.238 14.0634 146.41 18.803 150.04 17.6981C151.236 16.011 145.191 11.1139 139.624 7.67553Z" fill="#F2A283"/>
<path d="M148.795 18.2735C144.234 18.2743 135.474 13.7977 131.672 9.23462C130.562 7.90306 129.89 6.70733 129.673 5.67946L129.658 5.60852L129.668 5.53584C129.751 4.93365 130.071 4.48461 130.594 4.23802C132.134 3.51557 135.503 4.63602 139.845 7.31731C143.581 9.62569 150.045 14.2269 150.576 16.8407C150.662 17.2672 150.598 17.6367 150.383 17.9395L150.3 18.0563L150.162 18.0978C149.768 18.2164 149.308 18.2735 148.795 18.2735ZM130.51 5.5791C130.716 6.45642 131.324 7.50506 132.316 8.69559C136.547 13.7727 146.31 18.1541 149.754 17.3373C149.775 17.2664 149.785 17.16 149.754 17.0051C149.405 15.2928 145.053 11.5179 139.404 8.02851C134.652 5.09285 131.922 4.53652 130.953 4.99335C130.706 5.11102 130.564 5.29791 130.51 5.5791Z" fill="#B7481D"/>
<g opacity="0.6">
<path d="M139.787 8.7885C136.12 6.52337 133.497 5.92292 133.297 7.37301C133.423 7.97001 133.807 8.72014 134.597 9.66755C137.484 13.1319 144.403 16.3556 146.871 15.6046C147.684 14.4574 143.572 11.1272 139.787 8.7885Z" fill="#D96F3E"/>
</g>
<path d="M131.344 14.525C125.969 23.685 122.559 34.2336 122.182 44.8887C122.168 45.2789 122.83 44.7087 122.852 44.4509C123.748 33.9412 126.507 23.7922 131.595 14.5155C131.722 14.2836 131.417 14.4012 131.344 14.525Z" fill="#B7481D"/>
<path d="M134.102 16.7853C131.267 22.121 127.581 27.0752 126.213 33.0685C125.466 36.3408 125.355 39.7246 124.725 43.0202C124.072 46.4291 123.117 49.768 122.278 53.1328C122.175 53.5464 122.76 53.099 122.823 52.894C123.817 49.6745 124.712 46.4179 125.37 43.111C126.015 39.8752 126.171 36.5683 126.82 33.3367C128.025 27.3322 131.638 22.1349 134.338 16.7351C134.448 16.5136 134.159 16.6771 134.102 16.7853Z" fill="#B7481D"/>
<path d="M135.792 19.819C132.528 23.9529 128.915 28.7289 129.086 34.2758C129.097 34.6478 129.692 34.101 129.705 33.8683C129.994 28.5074 133.014 24.1606 135.996 19.9107C136.153 19.6875 135.931 19.6433 135.792 19.819Z" fill="#B7481D"/>
<path d="M143.454 17.9043C141.547 20.0569 139.168 21.7181 136.97 23.548C134.98 25.2041 133.023 27.1179 132.125 29.6011C131.975 30.0146 132.598 29.5976 132.678 29.4297C133.856 26.963 135.779 25.1201 137.884 23.4347C139.97 21.7648 142.131 20.2282 143.664 17.9994C143.826 17.7632 143.602 17.7364 143.454 17.9043Z" fill="#B7481D"/>
<path d="M121.286 51.0742C121.411 47.1618 121.62 43.2536 121.968 39.3541C121.975 39.2736 121.825 39.4008 121.818 39.4562C121.333 43.4024 120.99 47.3694 120.864 51.3442C120.802 53.2814 120.776 55.2195 120.785 57.1567C120.795 59.1493 120.785 61.16 120.982 63.1448C121.001 63.3369 121.296 63.0566 121.296 62.938C121.32 60.9212 121.217 58.9035 121.207 56.8867C121.198 54.9495 121.224 53.0115 121.286 51.0742Z" fill="#B7481D"/>
<path d="M124.122 53.3333C124.142 53.2433 124.014 53.3428 124.002 53.3895C123.139 57.026 122.879 60.826 123.452 64.5282C123.466 64.6182 123.687 64.4339 123.678 64.3517C123.257 60.6677 123.333 56.9646 124.122 53.3333Z" fill="#B7481D"/>
<path d="M128.194 32.5684C127.803 35.6226 127.58 38.714 127.095 41.7535C126.625 44.6961 125.409 47.3419 124.271 50.0673C124.151 50.3528 124.502 50.1616 124.573 50.0189C125.909 47.3393 127.056 44.5576 127.512 41.583C127.974 38.5652 128.149 35.4894 128.373 32.4464C128.38 32.3469 128.202 32.5027 128.194 32.5684Z" fill="#B7481D"/>
<path d="M139.65 16.6591C138.318 19.2789 136.514 21.5942 134.353 23.5799C134.235 23.688 134.225 23.9095 134.412 23.7555C136.741 21.8477 138.6 19.362 139.84 16.6227C139.922 16.4419 139.695 16.57 139.65 16.6591Z" fill="#B7481D"/>
<path d="M133.841 13.2879C132.555 15.9753 131.208 18.6332 129.861 21.2894C129.715 21.5775 130.101 21.3889 130.181 21.2392C131.586 18.6349 132.853 15.9623 134.036 13.2507C134.116 13.0656 133.886 13.1936 133.841 13.2879Z" fill="#B7481D"/>
<path d="M146.961 15.8242C145.389 15.4712 143.912 15.0187 142.466 14.2989C141.103 13.6206 139.77 12.8609 138.467 12.0744C137.197 11.3087 135.951 10.4651 134.928 9.38188C133.909 8.3021 133.251 7.05619 132.844 5.63811C132.821 5.55765 132.66 5.73069 132.668 5.79558C133.053 8.78402 135.75 10.9739 138.148 12.4421C139.496 13.2675 140.877 14.0687 142.293 14.7739C143.674 15.4609 145.165 16.1175 146.725 16.1816C146.847 16.1859 147.129 15.8623 146.961 15.8242Z" fill="#B7481D"/>
<path d="M143.883 13.9138C143.259 13.4553 142.505 13.1481 141.819 12.7951C141.118 12.4343 140.414 12.0813 139.71 11.7283C138.569 11.1564 137.372 10.6078 136.56 9.58516C136.53 9.54796 136.418 9.66822 136.449 9.71408C137.173 10.8267 138.336 11.4886 139.475 12.1047C140.165 12.4776 140.853 12.8496 141.546 13.2156C142.226 13.5738 142.899 14.0012 143.625 14.2538C143.737 14.2919 143.995 13.996 143.883 13.9138Z" fill="#B7481D"/>
<path d="M143.822 11.8945C141.593 10.5837 139.296 9.41225 136.943 8.33939C136.869 8.30564 136.702 8.52973 136.77 8.56434C139.075 9.73324 141.347 10.9878 143.562 12.3211C145.475 13.4718 147.166 14.7593 148.501 16.5667C148.584 16.68 148.887 16.3573 148.823 16.2414C147.744 14.2817 145.698 12.9968 143.822 11.8945Z" fill="#B7481D"/>
<path d="M139.394 8.64734C138.86 8.19051 138.213 7.89028 137.555 7.65408C136.871 7.40922 136.155 7.28463 135.432 7.24224C135.367 7.23878 135.238 7.41182 135.311 7.4222C135.987 7.51651 136.646 7.70253 137.283 7.94739C137.944 8.20089 138.549 8.56428 139.162 8.91469C139.261 8.9718 139.484 8.72435 139.394 8.64734Z" fill="#B7481D"/>
<path d="M142.262 21.9839C137.262 25.3738 132.679 29.5856 129.733 34.9171C128.345 37.4288 127.266 40.0867 126.382 42.813C125.527 45.4493 124.498 48.3953 124.422 51.1882C124.408 51.7056 125.152 51.0351 125.222 50.8612C126.211 48.378 126.664 45.6647 127.435 43.1072C128.277 40.3134 129.322 37.5551 130.721 34.9898C133.568 29.7699 138.015 26.2312 142.29 22.2564C142.392 22.1604 142.513 21.8134 142.262 21.9839Z" fill="#D96F3E"/>
<path d="M124.608 56.3872C124.661 55.0443 124.785 53.7024 124.954 52.37C124.973 52.2194 124.808 52.267 124.733 52.2982C124.594 52.3553 124.484 52.5223 124.438 52.6572C123.947 54.084 123.644 55.5479 123.538 57.0534C123.438 58.4784 123.419 59.9449 123.766 61.3388C123.827 61.5845 124.189 61.3898 124.293 61.3145C124.495 61.1674 124.714 60.8984 124.709 60.6345C124.684 59.2173 124.552 57.8061 124.608 56.3872Z" fill="#D96F3E"/>
<path d="M230.097 118.406C230.564 121.989 228.962 125.152 226.519 125.47C224.076 125.789 221.716 123.143 221.249 119.559C220.782 115.976 222.383 112.813 224.827 112.495C227.27 112.176 229.629 114.823 230.097 118.406Z" fill="white"/>
<path d="M135.498 255.443C117.739 245.481 115.574 259.342 91.7499 259.342C75.5281 259.342 48.8796 229.698 34.627 211.055C63.294 250.253 74.1567 262.253 92.449 263.25C112.916 264.366 117.046 257.042 123.723 257.215C130.4 257.389 135.986 263.064 151.43 262.506C162.223 262.116 173.472 258.45 190.32 240.399C172.713 256.795 151.392 264.36 135.498 255.443Z" fill="#C10C2A"/>
<path d="M126.658 67.9861C124.628 68.3996 122.6 68.7812 120.521 68.7899C118.359 68.7985 116.217 68.4637 114.123 67.9497C113.866 67.8866 113.348 68.5182 113.659 68.6523C117.519 70.3187 122.394 70.509 126.319 68.9465C126.553 68.853 126.785 68.6073 126.857 68.3642C126.901 68.2084 126.91 67.935 126.658 67.9861Z" fill="#F44563"/>
</svg>
