<svg width="222" height="277" viewBox="0 0 222 277" fill="none" xmlns="http://www.w3.org/2000/svg">
<path d="M87.5574 72.3869C97.436 71.6755 106.962 69.631 116.03 65.553L122.215 62.4944C123.265 61.9456 124.267 61.3088 125.371 60.8719L125.564 60.7969C124.738 62.3496 123.575 64.2436 122.401 65.5408L116.11 68.4905C107.923 71.8814 99.623 74.1047 90.8052 74.9271C89.4898 75.0499 88.163 75.2634 86.8438 75.3084L87.5574 72.3869Z" fill="#74B706"/>
<path d="M126.002 75.2704C126.328 74.1247 127.371 72.7383 128.064 71.7656C128.67 74.8308 129.272 77.7995 130.266 80.7736C132.49 87.4316 136.225 93.5895 140.983 98.7392C142.54 100.424 144.206 102.196 146.041 103.581C146.344 104.872 146.494 105.883 146.418 107.217L146.359 107.205C146.083 106.427 144.926 105.85 144.277 105.368C143.175 104.548 142.065 103.716 141.066 102.771C133.403 95.5189 127.858 85.683 126.002 75.2704Z" fill="#74B706"/>
<path d="M125.564 60.7897L125.66 60.6977C126.66 59.7198 127.488 58.51 128.334 57.3982L132.232 52.5394C137.907 46.0005 144.194 40.0695 151.303 35.1103C154.479 32.8954 157.764 30.8332 161.382 29.4062C163.444 32.1521 164.423 35.2943 164.473 38.7182C151.981 42.9354 141.625 53.1018 133.804 63.4285C131.784 66.0954 129.75 68.8703 128.062 71.7601C127.369 72.7328 126.326 74.1193 126 75.2649C124.356 77.7126 123.096 80.4649 121.891 83.1502C118.527 90.6478 116.205 98.1298 114.736 106.228L113.817 105.858L113.814 105.847C112.179 104.899 110.144 104.429 108.318 103.99C108.751 102.772 109.209 101.517 109.424 100.24C109.75 98.3026 109.75 96.5171 109.742 94.5601C110.326 93.438 110.567 91.9132 110.947 90.6948L113.865 82.1836C115.416 78.2473 117.341 74.2829 119.411 70.5915L122.401 65.5337C123.574 64.2364 124.737 62.3424 125.564 60.7897Z" fill="#A17933"/>
<path d="M157.16 140.352C157.606 140.982 157.782 141.623 158.002 142.351L160.039 143.522C162.831 144.819 165.43 146.863 167.361 149.267C168.051 150.124 168.668 151.247 169.459 151.991L169.535 152.248C170.001 153.796 170.802 155.223 171.218 156.803C172.69 162.391 171.66 168.376 169.015 173.429C166.461 178.307 161.893 181.95 156.658 183.561C155.592 183.889 154.521 184.118 153.408 184.206L150.582 184.307C150.519 184.307 149.916 184.287 149.878 184.313C149.796 184.367 149.76 184.469 149.701 184.547C149.236 181.801 147.661 179.449 145.953 177.33C143.765 175.12 141.639 173.31 138.786 171.987C138.216 171.508 136.985 171.262 136.26 171.024C137.937 169.283 139.052 167.143 140.009 164.948C141.635 160.157 141.432 155.135 139.694 150.402C140.886 149.487 142.015 148.866 143.403 148.307C144.437 147.891 145.632 147.616 146.515 146.922C149.38 146.075 151.93 144.91 154.302 143.078L155.873 141.708L157.16 140.352Z" fill="#A852C9"/>
<path d="M157.16 140.352C157.605 140.982 157.782 141.623 158.002 142.351C157.339 142.049 156.576 141.899 155.873 141.708L157.16 140.352Z" fill="#74B706"/>
<path d="M146.516 146.922C149.381 146.075 151.931 144.91 154.303 143.078C155.818 147.623 155.38 152.34 153.233 156.609C151.55 159.958 148.627 162.829 145.028 164.032C143.389 164.58 141.716 164.754 140.01 164.948C141.636 160.157 141.433 155.135 139.695 150.402C140.887 149.487 142.016 148.866 143.404 148.307C144.438 147.891 145.632 147.616 146.516 146.922Z" fill="#BB74DC"/>
<path d="M160.039 143.523C162.832 144.82 165.431 146.864 167.362 149.268C168.051 150.125 168.668 151.248 169.46 151.992L169.535 152.249C170.001 153.797 170.803 155.224 171.219 156.804C172.69 162.392 171.66 168.377 169.015 173.43C166.461 178.309 161.893 181.952 156.658 183.562C155.592 183.89 154.522 184.119 153.409 184.207L150.582 184.308C150.519 184.309 149.916 184.288 149.878 184.314C149.797 184.368 149.761 184.47 149.702 184.548C149.236 181.802 147.662 179.45 145.953 177.331C148.275 177.097 150.423 176.703 152.597 175.816C157.577 173.785 161.969 170.026 164.081 165C166.529 159.176 166.445 152.547 162.851 147.183C162.412 146.529 161.925 145.92 161.382 145.349C160.961 144.904 160.333 144.397 160.128 143.81L160.039 143.523Z" fill="#8C3FAD"/>
<path d="M75.5508 0.30576L75.8661 0C78.4049 1.09857 80.6899 2.63202 82.8636 4.32872C88.7049 8.88834 93.1271 14.6155 96.0668 21.4265C96.8856 20.0217 97.7223 18.8766 98.8707 17.7269C103.71 20.6926 106.56 26.1423 107.844 31.53C109.67 39.1927 108.344 47.208 104.189 53.8954C101.352 58.4618 97.377 62.6911 93.1755 66.0514L88.1096 69.8202C88.1047 68.1327 88.3182 66.437 88.4105 64.751L88.5256 56.1992C88.4071 52.4797 87.9427 48.7408 87.4359 45.0558C86.1514 35.7197 83.9765 26.5151 81.3288 17.4769L77.1161 4.83907C76.6244 3.3893 75.948 1.93395 75.5849 0.451751L75.5508 0.30576Z" fill="#4B9402"/>
<path d="M124.953 118.093C125.87 116.264 126.924 114.619 128.284 113.085C131.614 109.33 136.877 107.264 141.82 107.069C143.249 107.013 144.756 107.329 146.145 107.225L146.358 107.207L146.417 107.219C146.83 107.457 147.194 107.573 147.656 107.687C149.084 108.197 150.585 108.698 151.808 109.623C156.275 112.055 159.603 116.737 161.034 121.557L161.517 123.473C162.215 128.556 161.585 133.042 159.012 137.528C158.451 138.506 157.732 139.381 157.16 140.354L155.874 141.71L154.303 143.08C151.931 144.912 149.381 146.077 146.515 146.924C145.632 147.618 144.437 147.893 143.403 148.309C142.016 148.868 140.886 149.489 139.695 150.404C139.211 149.299 138.727 148.241 138.099 147.208C137.311 146.637 136.554 145.254 135.882 144.492C134.573 143.01 132.961 141.647 131.361 140.493L130.476 139.738C129.165 139.017 127.892 138.282 126.476 137.779C124.279 136.998 122.075 136.806 119.783 136.534L121.147 136.507C121.711 135.988 122.119 135.387 122.541 134.752C124.624 131.612 125.633 128.149 125.776 124.397C125.803 123.672 125.887 122.874 125.811 122.153C125.672 120.843 125.214 119.399 124.953 118.093Z" fill="#6B2A8E"/>
<path d="M135.946 110.703C137.292 110.692 138.783 110.952 139.854 111.824C141.23 112.944 141.887 114.512 142.096 116.245L142.122 116.476L142.186 117.031C142.445 119.728 141.252 122.811 139.524 124.867C137.62 127.132 135.572 128.314 132.585 128.576C131.768 128.543 131.004 128.462 130.217 128.228C128.383 127.683 127.429 126.594 126.485 125.018C125.766 123.817 125.732 122.535 126.008 121.16C126.478 118.818 127.199 116.854 128.675 114.958C130.506 112.605 132.968 111.09 135.946 110.703Z" fill="#8C3FAD"/>
<path d="M151.808 109.625C156.275 112.057 159.604 116.739 161.035 121.559L161.517 123.475C162.216 128.558 161.586 133.044 159.012 137.53C158.452 138.507 157.733 139.383 157.161 140.356L155.874 141.712L154.303 143.082C151.931 144.914 149.381 146.079 146.516 146.925C145.632 147.62 144.438 147.895 143.404 148.311C142.016 148.87 140.887 149.491 139.695 150.406C139.212 149.3 138.728 148.243 138.099 147.21C137.311 146.639 136.555 145.255 135.882 144.494C134.574 143.011 132.961 141.649 131.362 140.495L130.477 139.74C130.8 139.737 131.09 139.83 131.391 139.944C134.139 140.988 136.913 141.086 139.812 140.709C144.208 140.137 148.666 137.318 151.319 133.829C154.649 129.45 155.766 123.94 154.997 118.542C154.684 116.348 154.199 114.265 153.187 112.272C152.751 111.415 152.106 110.707 151.845 109.768L151.808 109.625Z" fill="#53187A"/>
<path d="M138.098 147.206C140.991 147.573 143.651 147.414 146.514 146.922C145.631 147.616 144.436 147.891 143.402 148.308C142.015 148.866 140.885 149.487 139.694 150.403C139.21 149.297 138.726 148.239 138.098 147.206Z" fill="#A852C9"/>
<path d="M71.9688 203.413C74.6832 202.642 77.6479 202.714 80.3962 203.272C80.9365 203.442 83.0638 203.986 83.3368 204.326C86.4319 205.554 89.4076 207.515 91.7498 209.882C92.7939 211.037 93.6859 212.182 94.5023 213.509C95.4496 217.008 96.3238 220.469 96.0919 224.129C95.9519 226.339 95.3321 228.439 94.6553 230.529C93.2296 233.429 91.3745 235.905 88.8917 237.986C88.3061 238.225 87.8676 238.628 87.333 238.956C86.6865 239.354 85.9998 239.686 85.3155 240.013C84.8994 240.211 82.378 241.217 82.3042 241.38C79.0476 242.535 74.7493 242.428 71.4559 241.434C66.1685 239.839 62.0203 236.153 59.4174 231.338L59.3557 231.276C57.4253 228.07 56.7305 223.436 57.2077 219.792L57.2461 219.518C57.9349 214.416 60.2667 210.465 64.2124 207.189C66.2807 205.762 68.5536 204.359 71.0256 203.749C71.3957 203.657 71.6343 203.592 71.9688 203.413Z" fill="#6B2A8E"/>
<path d="M68.2142 206.996C69.306 206.874 70.4911 206.851 71.5458 207.189L71.7843 207.269C72.4856 207.501 73.1284 207.793 73.7498 208.197C75.3333 209.227 76.0493 210.626 76.5125 212.406C76.8655 213.762 76.8582 215.383 76.414 216.72L76.3366 216.942C75.8295 218.465 74.581 220.043 73.2493 220.946L72.9938 221.113C72.8217 221.231 72.6799 221.338 72.4934 221.437C72.0746 221.659 71.6486 221.904 71.1917 222.036L70.1513 222.341C69.48 222.603 68.3549 222.531 67.6563 222.391L67.4755 222.353C66.6914 222.206 66.0147 221.976 65.3141 221.585C63.5872 220.621 62.4446 218.845 61.9493 216.959C61.3067 214.513 62.0034 212.189 63.3206 210.103C64.4582 208.3 66.211 207.493 68.2142 206.996Z" fill="#8C3FAD"/>
<path d="M83.3373 204.32C86.4324 205.548 89.4081 207.509 91.7503 209.876C92.7944 211.031 93.6865 212.176 94.5029 213.503C95.4502 217.002 96.3244 220.463 96.0924 224.123C95.9525 226.333 95.3326 228.433 94.6558 230.523C93.2301 233.423 91.3751 235.899 88.8923 237.98C88.3066 238.219 87.8682 238.622 87.3335 238.95C86.6871 239.348 86.0003 239.68 85.316 240.007C84.9 240.205 82.3785 241.211 82.3047 241.374C79.0482 242.529 74.7499 242.422 71.4564 241.428C66.1691 239.833 62.0208 236.147 59.418 231.332L59.6859 230.983C60.2271 230.923 60.7215 231.345 61.1917 231.616C62.4305 232.329 63.6675 233.078 65.0128 233.579C67.1899 234.389 69.4561 234.857 71.7853 234.782C76.9118 234.616 81.5598 232.2 85.0501 228.508C88.0803 225.304 89.919 220.774 89.7614 216.337C89.6404 212.926 88.2393 208.912 85.8348 206.424C85.1064 205.671 84.2355 205.19 83.5068 204.488L83.3373 204.32Z" fill="#53187A"/>
<path d="M25.2556 125.468C25.3705 125.423 25.4766 125.327 25.6 125.332C26.1978 125.356 27.8611 126.594 28.4767 126.909C31.7297 128.574 35.2357 129.346 38.8999 129.085C44.2074 128.709 48.7633 125.648 52.1342 121.719C52.1127 122.748 51.9873 123.925 52.233 124.927L52.2675 125.053C52.6485 128.537 53.6064 131.592 55.2713 134.672L55.4848 134.906C56.4636 137.024 58.383 138.673 60.0912 140.216C60.7761 140.835 61.5849 141.44 62.1443 142.173C63.3362 142.788 64.4578 143.329 65.7157 143.8C65.2228 144.526 64.7608 145.328 64.1155 145.927C63.4986 146.681 63.0786 147.673 62.701 148.567C61.3056 151.871 60.8837 155.255 61.2581 158.817L61.4625 160.102C61.6343 160.991 62.219 162.451 62.0805 163.271C60.7716 165.147 59.2775 166.571 57.5335 168.046L53.7635 170.46C51.9471 171.291 50.1362 171.843 48.1974 172.309L45.1658 172.513C43.855 172.539 42.4722 172.438 41.1835 172.2C36.1566 171.273 31.4383 167.949 28.5612 163.773C28.3837 163.638 28.1711 163.218 28.0435 163.016C25.3436 158.745 24.6376 153.157 25.7778 148.275C26.9939 143.069 30.379 138.319 34.8928 135.485C30.4972 133.788 27.1267 129.659 25.2556 125.468Z" fill="#6B2A8E"/>
<path d="M39.5469 136.727C40.8399 136.782 42.0512 136.954 43.1337 137.751C44.4122 138.691 45.0296 140.051 45.299 141.573C45.7099 143.897 44.9667 146.494 43.6097 148.401C41.7489 151.015 39.3296 152.51 36.1607 153.016C35.1934 152.997 34.2001 152.891 33.3066 152.494C31.8386 151.841 30.7431 150.554 30.226 149.048L30.1559 148.838C30.0567 148.555 29.9796 148.308 29.944 148.007C29.6386 145.433 30.4175 142.735 32.0896 140.754C34.1012 138.37 36.4025 136.985 39.5469 136.727Z" fill="#8C3FAD"/>
<path d="M25.2539 125.468C25.3688 125.423 25.4749 125.327 25.5983 125.332C26.1961 125.356 27.8594 126.594 28.4751 126.909C31.728 128.574 35.234 129.346 38.8982 129.085C44.2057 128.709 48.7616 125.648 52.1325 121.719C52.1111 122.748 51.9856 123.925 52.2314 124.927L52.2658 125.053C52.6468 128.537 53.6047 131.592 55.2696 134.672L55.4831 134.906C56.4619 137.024 58.3813 138.673 60.0895 140.216C60.7744 140.835 61.5832 141.44 62.1426 142.173C63.3346 142.788 64.4561 143.329 65.714 143.8C65.2211 144.526 64.7591 145.328 64.1138 145.927C63.497 146.681 63.0769 147.673 62.6994 148.567C61.3039 151.871 60.8821 155.255 61.2564 158.817L61.4608 160.102C61.6326 160.991 62.2173 162.451 62.0789 163.271C60.7699 165.147 59.2758 166.571 57.5318 168.046L53.7618 170.46C51.9454 171.291 50.1345 171.843 48.1957 172.309L45.1641 172.513C43.8533 172.539 42.4705 172.438 41.1819 172.2C36.1549 171.273 31.4366 167.949 28.5595 163.773C28.8268 163.567 29.0055 163.408 29.375 163.462C29.9656 163.548 30.9785 164.208 31.5618 164.471C33.7105 165.44 36.05 165.929 38.406 165.966C43.1349 166.04 48.1056 164.213 51.5057 160.904C54.8757 157.625 57.0107 152.764 57.1193 148.067C57.2406 142.828 55.6529 137.831 52.0008 133.997C47.2483 132.209 42.1137 131.996 37.4151 134.118L34.8912 135.485C30.4956 133.788 27.125 129.659 25.2539 125.468Z" fill="#53187A"/>
<path d="M62.1445 142.172C63.3365 142.787 64.458 143.328 65.7159 143.799C65.223 144.525 64.761 145.327 64.1157 145.926C63.6343 144.585 62.9047 143.371 62.1445 142.172Z" fill="#FEFEFE"/>
<path d="M86.2016 77.674C87.7183 77.3481 89.1945 77.0227 90.752 76.9877C93.9151 76.9166 97.93 78.003 100.595 79.7664L100.859 79.9576C105.55 83.2411 108.559 87.8389 109.554 93.4803L109.745 94.5677C109.753 96.5246 109.753 98.3102 109.427 100.247C109.212 101.524 108.754 102.78 108.321 103.997C110.147 104.437 112.182 104.907 113.816 105.855L113.82 105.866L114.739 106.236C119.633 108.981 123.15 112.741 124.955 118.093C125.216 119.4 125.674 120.843 125.813 122.154C125.889 122.875 125.805 123.673 125.778 124.397C125.635 128.149 124.626 131.613 122.543 134.753C122.121 135.388 121.713 135.989 121.149 136.508L119.785 136.534C114.729 136.644 109.72 138.307 106.126 142.012L104.053 144.276C101.413 144.018 99.1272 142.923 96.8065 141.714C96.1797 141.187 95.5042 140.713 94.7939 140.305C93.9346 139.569 92.9637 138.835 91.9876 138.263L89.3702 137.272L90.1265 135.781C90.1368 135.73 90.0088 135.498 89.9956 135.47C89.4244 134.283 88.7713 133.144 88.275 131.92C87.4683 129.93 87.0574 127.991 86.7559 125.878L86.8203 125.605L86.7626 125.489C86.5303 124.897 86.53 124.005 86.491 123.371C86.267 119.705 87.2491 116.717 88.7346 113.444C88.132 112.272 87.4474 111.194 86.6043 110.181C83.2849 106.192 78.7 104.016 73.5805 103.547C72.9612 101.82 72.4466 100.159 72.1397 98.3482C72.0303 96.8611 71.8936 95.446 72.0602 93.9574C72.2876 91.9263 72.7995 90.0534 73.645 88.1896C75.2052 84.7501 77.8948 81.6649 81.1929 79.8014C82.7972 78.895 84.4841 78.3114 86.2016 77.674Z" fill="#6B2A8E"/>
<path d="M100.858 79.9609C105.548 83.2444 108.557 87.8423 109.553 93.4837L109.744 94.571C109.752 96.528 109.751 98.3135 109.426 100.251C109.211 101.527 108.752 102.783 108.32 104.001C106.401 103.53 103.618 103.456 101.711 103.915L100.182 104.281C101.279 102.174 102.392 100.084 103.055 97.7903C104.714 92.0509 103.837 86.2626 101.076 81.0612C100.821 80.5796 100.702 80.4889 100.858 79.9609Z" fill="#53187A"/>
<path d="M83.2598 81.0468C84.0792 81.0408 84.9425 80.9161 85.7475 81.1003L85.9201 81.1429C86.4347 81.2603 86.8894 81.4036 87.3464 81.6808C88.4848 82.3715 89.428 83.6263 89.7687 84.9047L89.8198 85.1043L89.8824 85.3278C90.5168 87.7313 89.7793 90.6459 88.5166 92.7392C87.0858 95.1119 84.5609 96.9432 81.8895 97.6096C80.3966 97.8799 78.8884 97.8518 77.515 97.1342C76.3285 96.5147 75.4954 95.3629 75.1356 94.089C74.49 91.8049 74.8704 89.1784 76.0149 87.1111C77.6589 84.1419 79.9727 82.0053 83.2598 81.0468Z" fill="#8C3FAD"/>
<path d="M100.346 106.309C101.503 106.169 102.659 106.448 103.666 107.033C104.967 107.788 105.683 109.176 106.025 110.588C106.584 112.898 106.022 115.516 104.769 117.523L103.947 118.749C102.13 121.059 99.7331 122.404 96.8505 122.784C95.5252 122.775 94.4805 122.639 93.2641 122.062C92.1239 121.521 91.2878 120.515 90.8608 119.336L90.7888 119.13C90.6893 118.851 90.6059 118.594 90.5645 118.298C90.2155 115.8 91.2433 113.055 92.7101 111.068C94.5292 108.602 97.3037 106.765 100.346 106.309Z" fill="#8C3FAD"/>
<path d="M113.818 105.867L114.737 106.237C119.631 108.982 123.148 112.742 124.953 118.095C125.214 119.401 125.672 120.845 125.811 122.155C125.887 122.876 125.803 123.674 125.776 124.399C125.633 128.151 124.624 131.614 122.541 134.754C122.119 135.389 121.711 135.99 121.147 136.509L119.783 136.536C114.727 136.646 109.718 138.309 106.124 142.014L104.051 144.277C101.411 144.02 99.1252 142.925 96.8045 141.716C96.1777 141.188 95.5022 140.715 94.7919 140.306C93.9326 139.571 92.9617 138.836 91.9856 138.264L89.3682 137.274L90.1245 135.783C90.1348 135.731 90.0068 135.5 89.9936 135.472C89.4224 134.284 88.7693 133.145 88.273 131.921C87.4663 129.931 87.0554 127.993 86.7539 125.88L86.8183 125.606C87.0369 125.891 87.1192 126.197 87.2196 126.54C87.4467 127.314 87.7917 127.932 88.2573 128.59L88.4134 128.807C89.0783 129.749 89.9534 130.651 90.8665 131.356C94.4067 134.088 99.0445 135.877 103.573 135.231C108.011 134.598 112.306 132.532 115.069 128.905C117.696 125.457 119.048 120.67 118.412 116.356C118.053 113.919 117.465 111.709 116.243 109.54C115.521 108.259 114.6 107.11 113.818 105.867Z" fill="#53187A"/>
<path d="M90.1235 135.773L91.9846 138.255L89.3672 137.264L90.1235 135.773Z" fill="#FEFEFE"/>
<path d="M115.488 179.031C116.991 176.593 119.058 174.385 121.546 172.948C124.679 171.137 128.443 170.039 132.082 170.243C133.505 170.323 134.887 170.668 136.261 171.022C136.986 171.26 138.217 171.507 138.787 171.986C141.64 173.308 143.766 175.119 145.954 177.328C147.662 179.448 149.237 181.8 149.702 184.546C150.921 189.797 150.398 195.019 147.527 199.642C144.893 203.884 140.649 206.925 135.784 208.048C130.921 209.171 126.693 208.211 122.243 206.201C126.524 209.332 130 213.697 130.889 219.061C131.776 224.415 130.678 229.878 127.469 234.29C124.404 238.503 119.961 241.313 114.802 242.125C112.191 242.536 109.536 242.296 106.996 241.627C107.938 242.698 109.025 243.6 109.942 244.717C113.168 248.641 114.654 253.523 114.344 258.588C114.038 263.59 111.814 268.457 108.041 271.794C103.906 275.451 98.6833 277.252 93.1638 276.869C87.7492 276.493 83.0848 273.773 79.6011 269.682C78.7149 268.641 77.8975 267.465 77.2907 266.238C76.3515 264.759 75.6521 262.734 75.25 261.031C73.8996 255.31 75.5626 248.418 79.4741 244.01C79.9636 243.459 80.5001 242.922 81.083 242.467C81.4177 242.206 82.0784 241.885 82.2605 241.515L82.3043 241.376C82.3781 241.213 84.8995 240.207 85.3156 240.008C85.9999 239.682 86.6866 239.35 87.3331 238.952C87.8677 238.624 88.3061 238.221 88.8918 237.982C91.3746 235.901 93.2297 233.425 94.6554 230.525C95.3321 228.435 95.952 226.334 96.092 224.125C96.3239 220.465 95.4497 217.004 94.5024 213.505C95.1544 212.136 96.0312 211.006 97.0275 209.872C100.154 206.767 103.504 204.382 107.914 203.525C109.076 203.3 110.239 203.3 111.387 203.093L111.652 203.043C113.014 201.708 113.944 199.942 115.086 198.422C115.005 197.841 114.339 196.838 114.06 196.263C113.376 195.077 113.12 193.63 112.861 192.301C112.482 190.361 112.407 188.217 112.701 186.262C113.077 183.76 113.974 182.02 115.008 179.734L115.488 179.031Z" fill="#53187A"/>
<path d="M115.084 198.422C116.288 200.342 117.679 202.269 119.356 203.808C120.307 204.68 121.393 205.395 122.384 206.221C121.199 205.727 120.093 205.015 118.861 204.641C118.622 204.42 117.997 204.282 117.682 204.172C115.657 203.463 113.782 203.157 111.65 203.043C113.012 201.708 113.943 199.942 115.084 198.422Z" fill="#FEFEFE"/>
<path d="M94.6543 230.523L95.5565 232.194C96.5839 234.014 98.1857 235.86 99.7447 237.243C100.465 237.882 101.277 238.407 102.011 239.029C101.167 238.677 100.341 238.407 99.4571 238.173C95.9517 237.159 92.4214 237.126 88.8906 237.981C91.3735 235.899 93.2286 233.424 94.6543 230.523Z" fill="#FEFEFE"/>
<path d="M115.488 179.031C116.991 176.593 119.058 174.385 121.547 172.948C124.68 171.137 128.443 170.039 132.082 170.243C133.505 170.323 134.887 170.668 136.261 171.022C136.986 171.26 138.218 171.507 138.787 171.986L138.746 172.206L138.926 172.366C141.896 175.059 143.602 179.185 143.73 183.154C143.893 188.241 142.535 192.427 138.979 196.176C136.314 198.986 132.614 200.88 128.783 201.389L128.492 201.43C123.861 202.058 119.059 200.163 115.461 197.313L115.014 196.926C114.772 196.711 114.376 196.324 114.061 196.263C113.376 195.077 113.121 193.63 112.861 192.3C112.483 190.361 112.407 188.217 112.701 186.262C113.078 183.76 113.974 182.02 115.008 179.734L115.488 179.031Z" fill="#6B2A8E"/>
<path d="M123.552 175.412C124.227 175.363 124.861 175.402 125.532 175.49C127.225 175.712 128.838 176.647 129.856 178.01C130.889 179.391 131.486 181.333 131.226 183.058L131.186 183.302C131.104 183.82 131.025 184.253 130.791 184.727L130.376 185.57C129.243 187.584 127.456 188.855 125.269 189.499C124.486 189.723 123.774 189.722 122.973 189.584L122.735 189.541C122.245 189.46 121.836 189.387 121.383 189.172L121.223 189.094L120.308 188.599C118.792 187.607 117.714 185.834 117.346 184.075C116.946 182.164 117.256 179.998 118.396 178.386C119.673 176.582 121.432 175.774 123.552 175.412Z" fill="#8C3FAD"/>
<path d="M111.652 203.047C113.784 203.162 115.658 203.467 117.683 204.176C117.998 204.286 118.624 204.425 118.862 204.646L118.832 204.84C118.843 205.663 120.444 206.829 121.041 207.451C121.564 207.995 122.034 208.594 122.427 209.238C125.912 214.939 125.569 222.837 121.577 228.147C118.79 231.855 114.21 234.595 109.6 235.203L108.725 235.317C105.211 235.828 101.761 234.844 98.613 233.363C97.8111 232.986 97.0712 232.465 96.2768 232.096C95.8862 231.915 95.8922 231.975 95.5572 232.2L94.6549 230.529C95.3316 228.44 95.9515 226.339 96.0915 224.13C96.3234 220.469 95.4493 217.009 94.502 213.509C95.1539 212.14 96.0308 211.011 97.0271 209.877C100.154 206.771 103.504 204.386 107.913 203.529C109.075 203.304 110.239 203.304 111.387 203.098L111.652 203.047Z" fill="#6B2A8E"/>
<path d="M105.093 209.125C106.445 209.058 107.566 209.106 108.846 209.63C110.456 210.288 111.798 211.503 112.454 213.13C113.229 215.049 113.338 217.003 112.505 218.92C111.654 220.876 110.014 222.408 108.025 223.154L107.767 223.247C107.341 223.404 106.896 223.459 106.449 223.534C105.835 223.651 104.153 223.662 103.56 223.481L103.307 223.397C102.859 223.259 102.418 223.1 102.022 222.842C100.383 221.773 99.1846 220.018 98.7718 218.108C98.3421 216.119 98.7991 213.736 99.9829 212.075C101.236 210.317 103.01 209.47 105.093 209.125Z" fill="#8C3FAD"/>
<path d="M88.8919 237.982C92.4227 237.127 95.953 237.161 99.4584 238.175L99.3767 238.641C100.018 239.378 100.848 239.864 101.531 240.563C104.094 243.193 105.623 246.364 106.181 249.983C106.739 253.604 105.932 257.622 104.114 260.787L103.975 261.035C101.825 264.793 97.7326 267.828 93.5596 268.946C89.2656 270.096 84.3403 269.805 80.4329 267.546C79.7529 267.152 78.2925 266.007 77.5773 266.159L77.2907 266.238C76.3515 264.758 75.6521 262.734 75.25 261.031C73.8996 255.31 75.5626 248.418 79.4741 244.01C79.9636 243.458 80.5001 242.921 81.083 242.467C81.4177 242.206 82.0784 241.884 82.2605 241.514L82.3043 241.375C82.3781 241.213 84.8995 240.207 85.3156 240.008C85.9999 239.682 86.6866 239.349 87.3331 238.952C87.8677 238.623 88.3062 238.221 88.8919 237.982Z" fill="#6B2A8E"/>
<path d="M86.2953 242.079C87.2626 241.958 88.4476 241.951 89.3819 242.24L89.6244 242.321C91.0422 242.782 92.2986 243.645 93.1381 244.894C94.1848 246.451 94.4277 248.724 94.056 250.536L93.8208 251.637C93.3128 253.337 91.8293 255.193 90.2824 256.046C89.9181 256.247 89.5604 256.474 89.1687 256.618L88.8778 256.722C88.4373 256.882 87.9916 256.986 87.5362 257.094C86.7004 257.115 85.7516 257.222 84.9385 257.012C84.116 256.8 83.4574 256.554 82.7348 256.1C81.2196 255.148 80.1223 253.283 79.7492 251.572C79.3058 249.54 80.014 247.176 81.1244 245.466C82.382 243.529 84.0916 242.546 86.2953 242.079Z" fill="#8C3FAD"/>
<path d="M145.046 97.9189C144.209 94.7088 144.324 90.9827 144.485 87.6971C144.833 80.6225 147.847 73.214 153.136 68.4096C157.063 64.8415 162.255 63.3472 167.481 63.5492L167.892 67.6518C172.786 65.5784 177.83 64.7826 183.128 65.1608C184.725 65.2749 186.295 65.5812 187.874 65.8294C187.932 71.7357 187.158 77.827 183.844 82.8869C183.301 83.7173 182.711 84.5469 182.075 85.3089C181.616 85.858 181.027 86.3832 180.649 86.9862C184.843 84.5593 190.709 82.0203 195.635 83.3616L196.245 83.5473L196.524 83.6286C198.614 84.2588 201.345 86.2496 202.366 88.215C202.644 88.7487 202.738 89.172 202.657 89.7629C201.945 90.9324 200.931 91.6349 199.841 92.4098L200.132 92.3705C204.146 91.8456 208.495 94.114 211.592 96.4991C215.126 99.2198 218.348 102.622 221.142 106.094C216.495 111.071 211.488 115.263 204.457 115.961C205.387 116.727 206.663 118.005 206.744 119.284C206.785 119.93 206.219 120.453 205.792 120.867C203.373 123.217 199.688 123.993 196.413 123.941C193.512 123.894 191.04 123.169 188.313 122.272C189.184 122.922 190.158 123.376 191.015 124.053C194.608 126.89 198.217 131.136 198.877 135.81L198.989 138.115C198.466 138.215 197.496 138.267 197.078 138.563C200.011 143.575 200.207 148.951 198.751 154.486C198.582 155.127 198.411 155.921 198.091 156.498C197.957 157.059 197.735 157.603 197.542 158.147C189.727 156.791 182.001 154.753 175.435 150.111L174.411 154.191L169.459 151.996C168.667 151.252 168.05 150.129 167.361 149.272C165.43 146.869 162.831 144.824 160.038 143.528L158.002 142.357C157.782 141.628 157.605 140.988 157.16 140.357C157.732 139.384 158.451 138.509 159.011 137.532C161.585 133.046 162.215 128.559 161.516 123.476L161.034 121.56C159.603 116.74 156.274 112.058 151.807 109.626C150.585 108.701 149.084 108.2 147.656 107.69C147.194 107.576 146.83 107.46 146.417 107.222C146.493 105.888 146.342 104.877 146.039 103.586L145.046 97.9189Z" fill="url(#paint0_linear_4343_7208)"/>
<path d="M145.047 97.9141C145.413 98.4955 145.411 98.6361 145.451 99.2847L145.613 99.9466C145.671 100.163 145.696 100.379 145.728 100.599C145.773 100.904 145.856 101.191 145.884 101.498C145.907 101.749 145.977 101.954 146.037 102.195L146.133 102.712C146.191 103.09 146.142 102.822 146.254 103.228C146.307 103.425 146.334 103.611 146.359 103.812C146.396 104.118 146.496 104.536 146.736 104.727L147.014 104.078C147.121 103.823 147.231 103.767 147.378 103.556L148.375 101.513C148.476 101.272 148.62 101.129 148.739 100.91L148.852 100.645L149.04 100.57C149.016 101.025 148.604 101.599 148.392 102.006L146.649 105.404L146.763 105.332C148.139 104.492 149.933 103.917 151.438 103.322C163.285 98.6367 176.275 99.259 188.427 102.409L189.46 102.709L178.825 105.225C172.809 106.507 166.983 107.487 160.831 107.831C158.735 107.948 156.594 107.987 154.497 107.891L149.494 107.527C149.125 107.502 148.391 107.342 148.061 107.417C147.903 107.452 147.791 107.596 147.656 107.686C147.195 107.572 146.831 107.455 146.417 107.217C146.494 105.883 146.343 104.872 146.04 103.581L145.047 97.9141Z" fill="#4B9402"/>
<path d="M161.517 123.477C162.89 123.953 164.106 125.285 165.165 126.272L169.727 130.46L183.763 142.082C186.207 144.088 188.83 145.973 191.076 148.202C192.312 149.43 193.412 150.808 194.458 152.199C195.431 153.494 196.5 155.71 197.874 156.552L197.973 156.407L198.091 156.498C197.957 157.059 197.736 157.603 197.543 158.147C189.728 156.791 182.001 154.753 175.435 150.112L174.411 154.191L169.46 151.996C168.668 151.253 168.051 150.13 167.362 149.272C165.431 146.869 162.832 144.824 160.039 143.528L158.002 142.357C157.782 141.628 157.606 140.988 157.16 140.357C157.732 139.385 158.451 138.509 159.012 137.532C161.585 133.046 162.215 128.559 161.517 123.477Z" fill="#4B9402"/>
<path d="M67.5578 104.012C68.4561 104.052 69.4328 103.78 70.3339 103.684C71.4049 103.569 72.5025 103.569 73.579 103.539C78.6985 104.008 83.2833 106.184 86.6028 110.173C87.4459 111.186 88.1304 112.263 88.7331 113.435C87.2475 116.709 86.2654 119.696 86.4895 123.362C86.5285 123.997 86.5288 124.889 86.761 125.48L86.8188 125.597L86.7544 125.87C87.0559 127.983 87.4668 129.921 88.2735 131.912C88.7697 133.136 89.4229 134.275 89.994 135.462C90.0074 135.49 90.1352 135.721 90.1249 135.773L89.3687 137.264L91.9861 138.254C92.9621 138.826 93.933 139.561 94.7924 140.297C95.5027 140.705 96.1782 141.178 96.805 141.706C99.1257 142.915 101.411 144.01 104.051 144.267L106.125 142.004C109.719 138.299 114.728 136.636 119.784 136.526C122.076 136.798 124.279 136.99 126.476 137.771C127.892 138.274 129.165 139.009 130.476 139.73L131.362 140.485C132.961 141.639 134.574 143.002 135.882 144.484C136.554 145.246 137.311 146.629 138.099 147.2C138.728 148.233 139.212 149.291 139.695 150.396C141.433 155.129 141.636 160.151 140.01 164.942C139.052 167.137 137.938 169.278 136.26 171.018C134.887 170.664 133.504 170.318 132.081 170.239C128.442 170.034 124.679 171.133 121.546 172.943C119.058 174.381 116.991 176.589 115.488 179.027L115.008 179.729C113.974 182.015 113.077 183.755 112.701 186.258C112.407 188.213 112.482 190.357 112.86 192.296C113.12 193.626 113.376 195.072 114.06 196.259C114.339 196.833 115.005 197.836 115.086 198.418C113.944 199.937 113.013 201.704 111.652 203.038L111.387 203.089C110.239 203.296 109.075 203.295 107.914 203.521C103.504 204.377 100.154 206.762 97.0272 209.868C96.0309 211.002 95.154 212.132 94.5021 213.501C93.6857 212.174 92.7937 211.028 91.7496 209.874C89.4074 207.507 86.4317 205.545 83.3366 204.318C83.0636 203.978 80.9363 203.433 80.396 203.263C77.6477 202.705 74.6829 202.634 71.9686 203.404C71.6342 203.583 71.3956 203.649 71.0255 203.74C68.5536 204.351 66.2807 205.754 64.2124 207.181C63.9699 207.17 64.0685 207.162 63.8302 207.203C60.9065 207.711 57.743 207.862 54.8518 207.103C50.3011 205.907 45.2072 202.797 42.817 198.66L42.7992 198.658C41.3705 196.85 40.3448 194.276 39.7724 192.055C38.3838 186.668 39.3351 180.995 42.3332 176.32C42.7925 175.604 43.2717 174.885 43.8154 174.231C44.2263 173.736 44.7957 173.232 45.095 172.665L45.1658 172.504L48.1974 172.299C50.1362 171.834 51.9471 171.282 53.7634 170.45L57.5334 168.036C59.2775 166.562 60.7715 165.137 62.0805 163.262C62.219 162.442 61.6342 160.982 61.4625 160.093L61.2581 158.808C60.8837 155.245 61.3055 151.861 62.701 148.557C63.0787 147.663 63.4987 146.672 64.1155 145.918C64.7608 145.318 65.2228 144.517 65.7157 143.791C64.4578 143.32 63.3363 142.779 62.1443 142.163C61.5849 141.431 60.776 140.825 60.0911 140.207C58.383 138.664 56.4636 137.014 55.4847 134.897L55.2713 134.663C53.6064 131.583 52.6485 128.528 52.2675 125.043C52.2662 123.655 52.1589 122.141 52.3848 120.772C53.18 115.956 54.9262 112.686 58.2203 109.148L60.7424 106.996C62.8982 105.656 65.1467 104.767 67.5578 104.012Z" fill="#8C3FAD"/>
<path d="M78.3719 180.071L77.0645 177.547L79.68 177.955C79.1802 178.646 78.752 179.304 78.3719 180.071Z" fill="#FEFEFE"/>
<path d="M96.8047 141.719C99.1254 142.928 101.411 144.023 104.051 144.28C102.952 145.709 102.015 147.419 101.341 149.088C100.766 147.412 99.6996 145.814 98.6742 144.38C98.1319 143.622 97.0236 142.591 96.8047 141.719Z" fill="#FEFEFE"/>
<path d="M98.7754 169.372L98.8773 169.234C99.8083 167.947 100.762 166.357 101.312 164.867C102.709 167.783 104.649 170.059 106.853 172.395C106.203 172.207 105.621 171.816 105.008 171.533C103.027 170.618 100.942 169.709 98.7754 169.372Z" fill="#FEFEFE"/>
<path d="M77.4347 196.492C77.6963 197.443 77.9318 198.693 78.4779 199.522C78.8009 200.205 79.1286 200.875 79.5323 201.515C79.8495 202.019 80.3206 202.57 80.47 203.148L80.395 203.274C77.6467 202.716 74.6819 202.645 71.9675 203.415L71.8574 203.265C74.1936 201.257 76.0306 199.258 77.4347 196.492Z" fill="#FEFEFE"/>
<path d="M104.052 144.28L106.125 142.017C109.719 138.312 114.729 136.649 119.784 136.539C122.076 136.812 124.28 137.003 126.477 137.784C127.893 138.287 129.166 139.022 130.477 139.743L131.362 140.498C132.002 141.761 132.722 142.986 133.212 144.319C134.724 148.434 134.783 153.318 133.401 157.47C131.796 162.291 128.361 165.976 123.816 168.2C119.756 170.188 115.031 170.395 110.768 168.921C107.723 167.868 105.556 166.261 103.075 164.277C102.664 163.948 102.134 163.7 101.784 163.316L102.536 159.571C103.07 156.113 102.453 152.369 101.342 149.089C102.016 147.419 102.953 145.709 104.052 144.28Z" fill="#A852C9"/>
<path d="M114.278 138.961C115.147 138.867 116.29 138.824 117.115 139.118L117.297 139.188C117.655 139.321 117.981 139.452 118.309 139.653C119.849 140.596 120.673 142.269 121.092 143.982C121.708 146.5 121.128 149.372 119.789 151.561C118.384 153.859 116.323 155.119 113.763 155.755C112.799 155.832 111.986 155.843 111.031 155.62C109.634 155.293 108.112 154.34 107.372 153.096C106.187 151.103 106.173 149.159 106.698 146.95C107.028 145.563 107.512 144.297 108.301 143.106C109.779 140.873 111.661 139.505 114.278 138.961Z" fill="#BB74DC"/>
<path d="M62.0805 163.266L62.5876 164.11C63.1038 165.628 63.9897 166.975 64.9573 168.24L65.052 168.353C65.8203 169.249 66.8631 169.929 67.7876 170.656C68.7101 171.381 69.5305 172.209 70.424 172.965C71.1621 173.589 72.2101 174.223 72.7668 175.007C73.7894 176.448 74.0818 179.947 73.9682 181.707C73.6017 187.366 71.2689 192.047 67.0139 195.784C63.321 199.028 57.5674 200.99 52.6596 200.621C49.5234 200.385 46.4996 199.412 43.8351 197.747C43.4493 197.506 43.8508 197.738 43.3437 197.55L43.0592 197.358L41.9404 196.679L42.9237 198.422L42.817 198.664L42.7992 198.662C41.3705 196.854 40.3448 194.28 39.7724 192.059C38.3838 186.672 39.3351 180.999 42.3332 176.324C42.7925 175.608 43.2717 174.889 43.8154 174.235C44.2263 173.74 44.7957 173.236 45.095 172.669L45.1658 172.508L48.1974 172.303C50.1362 171.838 51.9471 171.286 53.7634 170.454L57.5334 168.04C59.2775 166.566 60.7715 165.141 62.0805 163.266Z" fill="#A852C9"/>
<path d="M62.0803 163.266L62.5874 164.11C63.1035 165.628 63.9895 166.975 64.9571 168.24C64.3427 168.494 63.0113 168.214 62.3352 168.171C60.7411 168.069 59.1304 167.967 57.5332 168.04C59.2773 166.566 60.7713 165.141 62.0803 163.266Z" fill="#BB74DC"/>
<path d="M53.7636 170.461C54.9169 170.684 55.9135 170.737 56.9942 171.27C57.82 171.677 58.6591 172.427 59.0733 173.257L59.1815 173.468C60.1252 175.368 60.036 177.667 59.3602 179.645C58.3466 182.611 56.2252 184.983 53.4092 186.348C51.5127 187.268 49.3156 187.58 47.2886 186.894C45.8423 186.405 44.7495 185.443 44.0891 184.067C43.1633 182.138 43.2231 180.028 43.9283 178.039C44.7725 175.656 46.4616 174.039 48.1975 172.31C50.1364 171.844 51.9473 171.292 53.7636 170.461Z" fill="#BB74DC"/>
<path d="M98.7747 169.375C100.941 169.712 103.026 170.621 105.007 171.536C105.62 171.819 106.202 172.21 106.853 172.398L107.087 172.6C108.528 173.908 110.304 175.014 111.875 176.197C112.642 176.775 113.384 177.544 114.192 178.013L115.308 178.7L115.487 179.03L115.007 179.732C113.974 182.018 113.077 183.758 112.701 186.26C112.406 188.216 112.482 190.36 112.86 192.299C113.12 193.629 113.375 195.075 114.06 196.262C114.339 196.836 115.005 197.839 115.085 198.42C113.944 199.94 113.013 201.706 111.652 203.041L111.386 203.092C110.239 203.298 109.075 203.298 107.913 203.524C103.504 204.38 100.154 206.765 97.027 209.871C96.0307 211.005 95.1538 212.135 94.5019 213.503C93.6854 212.177 92.7935 211.031 91.7493 209.877C89.4071 207.51 86.4315 205.548 83.3363 204.321C83.0633 203.98 80.9361 203.436 80.3958 203.266L80.4708 203.14C80.3214 202.562 79.8503 202.011 79.5331 201.507C79.1295 200.867 78.8017 200.197 78.4788 199.514C77.9327 198.685 77.6971 197.436 77.4355 196.484C78.1706 194.511 78.9404 192.808 79.3943 190.711C79.8053 188.815 79.8785 186.548 79.5512 184.637L79.5153 184.437L78.372 180.07C78.7521 179.302 79.1802 178.644 79.6801 177.954L82.07 177.952C86.8152 177.844 90.7573 176.134 94.6128 173.513C96.1791 172.232 97.4775 170.922 98.7747 169.375Z" fill="#A852C9"/>
<path d="M94.6128 173.516C96.0996 176.206 96.737 179.455 95.8299 182.449C95.0159 185.136 92.9519 187.75 90.4231 189.023C88.6579 189.911 86.5147 190.331 84.5906 189.722C82.8913 189.183 81.6669 187.995 80.8944 186.419C79.8875 184.365 79.9664 182.474 80.7342 180.36C81.0511 179.487 81.514 178.693 82.0701 177.955C86.8152 177.847 90.7572 176.136 94.6128 173.516Z" fill="#BB74DC"/>
<path d="M78.4805 199.523C79.3453 199.617 79.7051 200.197 80.3727 200.715C83.8772 203.432 88.8896 204.316 93.216 203.698C94.5269 203.511 95.7711 203.279 97.0296 202.853C101.826 201.231 106.073 197.839 108.317 193.254C110.745 188.295 110.818 183.084 109.362 177.834C108.966 176.405 108.383 175.044 107.894 173.648C108.465 173.889 109.054 174.471 109.559 174.845C110.988 175.904 112.814 176.998 113.921 178.381L114.045 178.549L114.271 178.851C114.457 179.244 114.693 179.437 115.009 179.741C113.975 182.027 113.079 183.767 112.702 186.269C112.408 188.224 112.484 190.368 112.862 192.307C113.121 193.637 113.377 195.084 114.061 196.27C114.341 196.845 115.006 197.848 115.087 198.429C113.946 199.949 113.015 201.715 111.653 203.05L111.388 203.1C110.241 203.307 109.077 203.307 107.915 203.532C103.505 204.388 100.156 206.774 97.0288 209.879C96.0324 211.013 95.1556 212.143 94.5036 213.512C93.6872 212.185 92.7952 211.04 91.7511 209.885C89.4089 207.518 86.4333 205.556 83.3381 204.329C83.0651 203.989 80.9379 203.445 80.3975 203.274L80.4726 203.149C80.3232 202.571 79.8521 202.019 79.5349 201.516C79.1312 200.875 78.8034 200.206 78.4805 199.523Z" fill="#8C3FAD"/>
<path d="M91.748 209.881C93.5061 209.982 95.2695 210.093 97.0257 209.875C96.0294 211.009 95.1525 212.139 94.5006 213.508C93.6842 212.181 92.7922 211.035 91.748 209.881Z" fill="#FEFEFE"/>
<path d="M67.557 104.012C68.4553 104.052 69.432 103.78 70.333 103.684C71.4041 103.569 72.5017 103.569 73.5781 103.539C78.6976 104.008 83.2825 106.184 86.602 110.173C87.445 111.186 88.1295 112.263 88.7322 113.435C87.2467 116.709 86.2646 119.696 86.4887 123.362C86.5277 123.997 86.528 124.889 86.7602 125.48L86.8179 125.597L86.7535 125.87C87.055 127.983 87.4659 129.921 88.2727 131.912C88.7689 133.136 89.422 134.275 89.9932 135.462C90.0065 135.49 90.1344 135.721 90.1241 135.773L89.3678 137.264L91.9852 138.254C92.9613 138.826 93.9322 139.561 94.7916 140.297C95.0842 141.894 95.581 143.433 95.8085 145.05C96.6446 151.001 95.5012 157.34 92.0959 162.323C89.3458 166.349 84.562 169.176 79.7968 170.049C75.2228 170.886 69.5309 169.873 65.6609 167.185L64.6963 166.415C63.7662 165.638 63.3567 164.946 62.6453 164.018L62.5869 164.107L62.0798 163.262C62.2183 162.442 61.6335 160.982 61.4618 160.093L61.2574 158.808C60.883 155.245 61.3048 151.861 62.7003 148.558C63.078 147.663 63.498 146.672 64.1148 145.918C64.7601 145.318 65.2221 144.517 65.715 143.791C64.4571 143.32 63.3356 142.779 62.1436 142.164C61.5842 141.431 60.7754 140.826 60.0905 140.207C58.3823 138.664 56.4629 137.014 55.4841 134.897L55.2706 134.663C53.6057 131.583 52.6478 128.528 52.2668 125.043C52.2655 123.655 52.1582 122.141 52.3841 120.772C53.1793 115.956 54.9256 112.686 58.2197 109.148L60.7418 106.996C62.8974 105.656 65.1459 104.767 67.557 104.012Z" fill="#A852C9"/>
<path d="M55.4844 134.906C56.6509 135.445 57.6827 136.317 58.7984 136.973C62.002 138.855 65.1805 139.791 68.8408 140.31C67.6787 141.412 66.5929 142.45 65.7151 143.8C64.4573 143.329 63.3358 142.788 62.1438 142.173C61.5843 141.44 60.7755 140.835 60.0906 140.216C58.3826 138.673 56.4632 137.023 55.4844 134.906Z" fill="#8C3FAD"/>
<path d="M89.37 137.269C88.3241 137.155 87.2099 136.73 86.1655 136.513C82.8911 135.832 79.5726 135.901 76.332 136.752C79.5935 134.711 82.7015 132.361 84.8638 129.111C85.5584 128.067 86.0733 126.925 86.7558 125.875C87.0573 127.988 87.4681 129.926 88.2749 131.917C88.7711 133.141 89.4242 134.28 89.9954 135.467C90.0087 135.495 90.1366 135.727 90.1263 135.778L89.37 137.269Z" fill="#8C3FAD"/>
<path d="M66.4257 107.538C66.9633 107.48 67.6213 107.542 68.1571 107.639C69.8483 107.945 71.3749 109.04 72.3262 110.455C73.5094 112.214 73.5641 114.685 73.1423 116.703C72.5892 119.346 70.7826 121.99 68.5248 123.453L68.3192 123.582C66.9222 124.484 65.5633 124.965 63.9196 125.214C62.5239 125.204 61.3334 125.202 60.0589 124.533C58.4364 123.682 57.333 122.33 56.8278 120.569L56.7667 120.35C56.669 120.014 56.5792 119.698 56.5372 119.349C56.1976 116.524 57.5411 113.498 59.2679 111.321C61.0495 109.076 63.6173 107.839 66.4257 107.538Z" fill="#BB74DC"/>
<path d="M75.9649 139.283C77.3888 139.146 78.9478 139.566 80.0869 140.434C81.0974 141.205 81.7535 142.785 81.9144 144.018L81.9392 144.223L82.0063 144.747C82.2835 147.466 81.091 150.776 79.3653 152.861C77.2043 155.473 74.3986 157.001 71.0394 157.317C69.8844 157.273 68.7849 157.146 67.7484 156.592L67.5528 156.483L67.2347 156.304C65.9726 155.486 65.1266 153.912 64.8792 152.462C64.4195 149.767 65.5429 146.885 67.137 144.753C69.3266 141.826 72.3301 139.801 75.9649 139.283Z" fill="#BB74DC"/>
<path d="M75.5518 0.304688L75.5859 0.450601C75.9491 1.9328 76.6255 3.38815 77.1171 4.83792L81.3298 17.4757C83.9774 26.514 86.1524 35.7186 87.4369 45.0546C87.9437 48.7396 88.4081 52.4785 88.5267 56.198L88.4115 64.7498C88.3193 66.4358 88.1058 68.1316 88.1106 69.8191L88.0295 70.3102L87.5585 72.3824L86.8448 75.3039L86.2005 77.6691C84.483 78.3065 82.7961 78.89 81.1917 79.7966C77.8936 81.6601 75.204 84.7452 73.6438 88.1847C72.7983 90.0485 72.2864 91.9215 72.059 93.9525C71.8924 95.4411 72.0291 96.8562 72.1385 98.3433C72.4454 100.154 72.96 101.815 73.5793 103.543C72.5029 103.573 71.4052 103.573 70.3342 103.687C69.4331 103.784 68.4565 104.055 67.5582 104.016C65.1471 104.771 62.8986 105.659 60.7429 107L58.2208 109.152C54.9268 112.69 53.1806 115.96 52.3853 120.776C52.1594 122.144 52.2668 123.659 52.268 125.047L52.2335 124.921C51.9877 123.92 52.1131 122.743 52.1347 121.713C48.7638 125.643 44.208 128.704 38.9003 129.08C35.2362 129.34 31.7301 128.568 28.4772 126.903C27.8616 126.588 26.1983 125.35 25.6004 125.326C25.4771 125.321 25.3709 125.417 25.2561 125.462L25.2026 125.372C23.1171 120.586 23.3158 115.289 25.3423 110.534L20.8454 109.876C13.7051 108.473 6.88898 106.012 0.545804 102.436C0.299338 102.334 0.191429 102.222 0 102.041C0.218599 100.515 0.717573 99.0706 1.16623 97.6023C3.255 90.7704 6.96391 84.1578 12.1796 79.2255L9.98282 77.8966C10.6909 76.108 11.661 74.5375 12.9551 73.1085C16.9903 68.6527 22.0487 67.2999 27.831 67.0084C24.8542 65.8682 22.1146 64.7022 19.6612 62.6125C15.6447 59.192 13.5284 54.8264 13.1085 49.6337L18.7408 49.3271L15.5014 46.3902C10.5637 40.9731 7.89853 32.5475 8.23719 25.2479C11.8387 23.7397 15.8395 22.4342 19.7235 21.8909C26.6856 20.9167 33.3914 21.5335 39.1571 25.8662C38.423 24.0172 37.9322 22.5761 37.9367 20.5662C40.954 18.5968 45.0929 18.1399 48.5778 18.7362C55.1983 19.8692 60.2761 24.3174 64.0518 29.6416C64.0534 27.7971 64.3563 25.9955 64.6341 24.1771C65.9971 15.256 69.566 7.09435 75.5518 0.304688Z" fill="#74B706"/>
<path d="M37.1191 44.5123C37.4569 44.45 37.313 44.4455 37.6102 44.4927C40.1311 44.8915 42.6526 44.7201 45.2019 45.2393C53.9701 47.025 61.8074 50.6257 69.3661 55.3219C74.1276 58.2804 78.593 61.5583 82.7522 65.3259C83.7866 66.263 86.9546 68.8175 87.0187 70.1346L86.677 70.4009C84.9584 70.781 83.149 71.1061 81.39 70.8146L81.1587 70.7744C79.7727 70.5582 78.4234 70.1273 77.1523 69.531C73.4319 67.7863 69.9606 65.2705 66.5677 62.9619L50.997 52.4955L37.1191 44.5123Z" fill="#4B9402"/>
<path d="M88.0287 70.3125L87.5576 72.3847L86.8439 75.3062L86.1996 77.6714C84.4821 78.3088 82.7952 78.8924 81.1908 79.7989C77.8928 81.6624 75.2031 84.7476 73.6429 88.187C72.7975 90.0508 72.2856 91.9238 72.0581 93.9548C71.8916 95.4434 72.0282 96.8585 72.1376 98.3456C72.4446 100.157 72.9592 101.818 73.5784 103.545C72.502 103.575 71.4044 103.575 70.3333 103.689C69.4322 103.786 68.4556 104.057 67.5573 104.018C65.1462 104.773 62.8977 105.662 60.7421 107.002L58.22 109.154C54.9259 112.692 53.1797 115.962 52.3844 120.778C52.1585 122.147 52.2659 123.661 52.2671 125.05L52.2326 124.923C51.9868 123.922 52.1123 122.745 52.1338 121.716C48.7629 125.645 44.2071 128.706 38.8995 129.082C35.2353 129.343 31.7292 128.57 28.4763 126.906C27.8607 126.59 26.1974 125.353 25.5996 125.328C25.4762 125.324 25.37 125.419 25.2552 125.465L25.2017 125.375C23.1162 120.588 23.3149 115.292 25.3414 110.537L20.8445 109.878C13.7042 108.475 6.8881 106.014 0.544922 102.439C1.65673 101.711 3.2206 101.582 4.50417 101.257L9.09933 99.9313L22.7757 95.347L64.5055 79.2568L77.246 74.3641C80.8125 73.0653 84.5958 71.929 88.0287 70.3125Z" fill="#4B9402"/>
<path d="M72.139 98.3438C72.4459 100.155 72.9605 101.816 73.5797 103.543C72.5033 103.573 71.4057 103.573 70.3347 103.688C69.4336 103.784 68.4569 104.056 67.5586 104.016L72.139 98.3438Z" fill="#FEFEFE"/>
<path d="M25.341 110.54C26.2509 109.112 26.8828 107.613 27.8982 106.218C31.1923 101.692 36.097 98.898 41.5791 98.0498C46.6596 97.264 51.6911 98.7739 55.8085 101.761C57.229 102.816 58.5927 104.024 59.6647 105.442C60.0348 105.931 60.3244 106.57 60.7417 107.005L58.2196 109.157C54.9256 112.695 53.1794 115.965 52.3841 120.781C52.1582 122.15 52.2656 123.664 52.2667 125.052L52.2323 124.926C51.9865 123.925 52.1119 122.748 52.1335 121.718C48.7626 125.648 44.2068 128.709 38.8991 129.085C35.235 129.346 31.7289 128.573 28.476 126.908C27.8604 126.593 26.1971 125.356 25.5992 125.331C25.4759 125.326 25.3697 125.422 25.2549 125.468L25.2014 125.378C23.1158 120.591 23.3145 115.294 25.341 110.54Z" fill="#6B2A8E"/>
<path d="M55.8088 101.758C57.2294 102.813 58.5931 104.021 59.665 105.439C60.0351 105.928 60.3248 106.567 60.7421 107.002L58.22 109.154C57.6017 107.81 57.4218 106.206 56.8687 104.803C56.6147 104.159 55.8681 103.175 55.7614 102.572C55.7224 102.353 55.7952 101.99 55.8088 101.758Z" fill="#53187A"/>
<path d="M38.0843 100.73C38.869 100.655 39.7211 100.736 40.4746 100.98C41.7639 101.396 42.8461 102.278 43.4668 103.488L43.5555 103.666C44.2337 105.014 44.4015 106.515 44.1678 108L44.1278 108.239C43.8493 110.039 43.0492 111.717 41.9187 113.139C40.0742 115.457 37.7483 116.793 34.7984 117.117L33.2708 116.946C31.7834 116.665 30.4343 115.777 29.6184 114.502C28.4597 112.691 28.4137 110.832 28.8973 108.798C29.5023 106.253 31.4987 103.708 33.7299 102.351L33.9878 102.197C35.3312 101.381 36.5501 100.983 38.0843 100.73Z" fill="#8C3FAD"/>
<defs>
<linearGradient id="paint0_linear_4343_7208" x1="149.629" y1="71.1974" x2="208.022" y2="148.718" gradientUnits="userSpaceOnUse">
<stop stop-color="#3F8A01"/>
<stop offset="1" stop-color="#5BA504"/>
</linearGradient>
</defs>
</svg>
