<svg width="271" height="271" viewBox="0 0 271 271" fill="none" xmlns="http://www.w3.org/2000/svg">
<path d="M30.3222 185.366C30.7623 185.106 31.475 184.689 31.9751 184.607C32.415 184.535 33.0268 184.668 33.4706 184.717L36.3349 184.983C37.0704 186.626 37.4999 188.535 37.927 190.277C37.8178 192.421 37.3604 194.103 36.0075 195.806L35.8414 195.887C34.8079 197.088 34.0759 198.307 33.3129 199.686L32.848 200.738C31.6383 202.572 30.442 204.194 28.3481 205.081C27.3033 205.294 26.2683 205.317 25.2081 205.222C24.381 204.013 23.3619 202.751 22.8105 201.39C22.3117 200.158 23.3646 198.328 23.8749 197.145L24.6499 195.197C25.4131 193.068 26.3166 190.734 27.446 188.777C27.9863 187.221 28.8827 186.149 30.3222 185.366Z" fill="#B37A07"/>
<path d="M27.4464 188.778C27.9868 187.222 28.8832 186.151 30.3226 185.367C31.0906 185.691 31.834 186.076 32.1095 186.924C32.2593 187.385 32.2826 187.902 32.2262 188.379C32.0235 190.33 31.2997 192.197 30.5444 193.996C29.8867 195.454 29.1698 197.018 28.3017 198.36C27.7301 198.729 27.2847 199.051 26.5974 199.149C26.3689 198.983 26.0913 198.876 26.0322 198.594C25.9383 198.316 25.53 197.925 25.3323 197.68C25.2244 196.702 25.1868 195.482 25.6604 194.585C25.9147 194.103 26.2537 193.668 26.3989 193.128C26.6001 192.381 26.7869 191.986 27.3037 191.388L27.3429 191.308C27.3 190.423 27.6358 189.664 27.9246 188.843C27.5877 188.871 27.7468 188.896 27.4464 188.778Z" fill="#B37A07"/>
<path d="M27.4455 188.778C27.9859 187.222 28.8822 186.151 30.3217 185.367C31.0897 185.691 31.8331 186.076 32.1086 186.924C32.2584 187.385 32.2817 187.902 32.2253 188.379C32.0226 190.33 31.2987 192.197 30.5435 193.996C29.8858 195.454 29.1689 197.018 28.3008 198.36C27.7291 198.729 27.2837 199.051 26.5965 199.149C26.368 198.983 26.0903 198.876 26.0312 198.594C26.3109 198.537 26.5804 198.468 26.8347 198.335C28.3041 197.564 29.4589 195.463 29.8977 193.893L30.0324 193.876L31.2712 190.31C31.5475 189.471 31.4872 188.629 31.4795 187.754L31.384 187.686C31.1934 187.533 31.2834 187.599 31.1167 187.38C30.8677 187.054 30.5588 186.814 30.1388 186.777C29.7506 186.743 29.565 186.856 29.2829 187.11C28.7293 187.609 28.2728 188.185 27.9236 188.843C27.5868 188.871 27.7459 188.896 27.4455 188.778Z" fill="#7B3C02"/>
<path d="M27.342 191.305L27.5048 191.125C28.4112 190.084 28.6986 188.888 29.8384 187.949L30.1692 187.922C30.7332 188.588 30.744 189.377 30.6535 190.213C30.5593 191.084 30.2883 191.86 29.962 192.665C29.1723 194.18 28.3492 196.05 27.0027 197.15C26.6883 197.407 26.6634 197.451 26.2656 197.407L26.1618 197.258C25.6488 196.327 26.5742 194.018 26.8738 193.06C27.0423 192.522 27.2393 192.104 27.2916 191.525L27.3027 191.386L27.342 191.305Z" fill="#DDB987"/>
<path d="M29.2691 189.287L29.5102 189.242L29.7669 189.419C30.2931 190.55 28.7213 193.344 28.0825 194.354C27.7143 194.936 27.1281 195.608 27.0323 196.3L26.9212 196.47L26.729 196.511L26.6562 196.234C26.9024 195.705 26.8367 195.266 26.9511 194.71C27.326 192.887 28.022 190.705 29.2691 189.287Z" fill="#B37A07"/>
<path d="M24.6497 195.202C25.413 193.072 26.3165 190.739 27.4458 188.781C27.7462 188.899 27.5872 188.874 27.9241 188.846C27.6353 189.667 27.2995 190.426 27.3424 191.311L27.3032 191.392C26.7864 191.989 26.5995 192.384 26.3984 193.131C26.2531 193.671 25.9142 194.106 25.6599 194.588C25.1863 195.485 25.224 196.705 25.3318 197.683C25.5295 197.928 25.9378 198.319 26.0317 198.597C26.0908 198.879 26.3684 198.986 26.5969 199.152C27.2843 199.054 27.7296 198.732 28.3013 198.363C28.1557 198.918 27.8153 199.301 27.471 199.746L27.854 200.061C29.0671 199.712 30.4764 198.276 31.5773 197.563C32.5885 196.909 34.5991 195.624 35.8414 195.892C34.8079 197.093 34.0759 198.311 33.3129 199.69L32.848 200.743C31.6383 202.577 30.442 204.199 28.3481 205.086C27.3033 205.299 26.2683 205.322 25.2081 205.227C24.381 204.017 23.3619 202.755 22.8105 201.394C22.3117 200.163 23.3646 198.333 23.8749 197.15L24.6497 195.202Z" fill="#965213"/>
<path d="M23.8748 197.148C23.9699 197.264 24.0944 197.36 24.1599 197.495C24.4327 198.054 23.8882 200.321 24.9813 200.406C25.2276 200.425 25.4177 200.362 25.679 200.41C25.9352 200.457 25.9968 200.467 26.2273 200.37L26.5969 199.838C26.7216 200.025 26.7464 200.125 26.7954 200.34L26.9264 200.472C26.8682 200.788 26.7766 201.038 26.6549 201.332C26.7325 201.811 27.04 202.079 27.3409 202.439C27.7381 202.624 28.6919 202.6 29.1119 202.481L29.5081 202.302L29.7643 202.205C30.2467 202.014 30.7482 201.771 31.1656 201.461C31.5864 201.149 32.8159 199.626 33.1883 199.603L33.313 199.689L32.848 200.741C31.6383 202.575 30.442 204.197 28.3482 205.084C27.3033 205.297 26.2684 205.32 25.2081 205.225C24.381 204.016 23.3619 202.754 22.8105 201.393C22.3116 200.161 23.3646 198.331 23.8748 197.148Z" fill="#7B3C02"/>
<path d="M224.262 15.1861C224.34 14.5158 224.463 14.0834 225.029 13.6648C226.001 12.9452 228.173 13.1608 229.318 13.3399C235.554 14.316 242.178 17.7371 246.031 22.8364C246.588 23.5735 247.702 25.2035 247.549 26.1336C247.507 26.3915 247.4 26.6631 247.3 26.9045C246.718 27.8811 246.046 28.5763 245.189 29.3136L241.505 29.3007L237.456 28.471C233.661 26.9295 230.1 24.6917 227.335 21.6361C226.236 20.4218 225.298 19.0884 224.292 17.8069C224.233 16.9224 224.182 16.0706 224.262 15.1861Z" fill="#FEDA0E"/>
<path d="M224.262 15.1875C224.929 16.3233 225.395 17.5029 226.14 18.6092C228.835 22.6095 233.679 25.6717 238.316 26.8638C241.061 27.5696 244.663 28.1418 247.3 26.9059C246.718 27.8824 246.046 28.5777 245.189 29.315L241.505 29.3021L237.456 28.4724C233.661 26.9308 230.1 24.6931 227.335 21.6374C226.236 20.4232 225.298 19.0898 224.292 17.8083C224.233 16.9238 224.182 16.072 224.262 15.1875Z" fill="url(#paint0_linear_4343_7276)"/>
<path d="M227.455 13.925L228.622 13.9062C230 13.9298 231.52 14.3317 232.835 14.7364C236.986 16.0142 241.179 18.5285 244.178 21.6931C245.302 22.8791 245.989 23.6517 245.947 25.3402C245.431 25.9981 244.756 26.0477 243.967 26.1658C242.562 26.3156 240.868 26.2873 239.487 25.9835C234.738 24.9386 228.909 21.6596 226.264 17.4693C225.767 16.6822 225.327 15.6157 225.546 14.6712C226.138 14.2331 226.743 14.0781 227.455 13.925Z" fill="#FDEC82"/>
<path d="M224.292 17.8047C225.298 19.0861 226.237 20.4196 227.335 21.6338C230.1 24.6896 233.661 26.9273 237.456 28.4688L237.355 28.5167C236.262 29.0214 235.095 29.2225 234.034 29.8252C228.88 32.7532 227.167 38.6888 225.215 43.8772L221.98 53.3082L216.622 68.1589L216.027 69.9307C215.906 70.3335 215.922 70.7276 215.624 71.0555C215.623 71.3241 215.688 71.3858 215.491 71.5848L215.47 71.6928C215.397 71.985 215.219 72.2083 215.16 72.5117L215.027 72.5111L214.99 71.3792C214.938 71.8783 214.799 72.5969 215.032 73.0417L214.853 73.3055C214.061 70.7962 216.122 67.5767 214.118 65.2994C213.64 64.7561 213.107 64.7243 212.421 64.682C210.842 64.6738 209.37 65.0284 207.876 65.5098C207.184 65.7327 206.488 66.0561 205.758 66.1056L207.902 64.275C210.224 62.1615 212.053 59.4769 213.651 56.7947C220.517 45.2653 223.563 31.0949 224.292 17.8047Z" fill="#A7C714"/>
<path d="M237.456 28.4688L241.505 29.2984L245.189 29.3114C244.147 30.2686 243.072 31.2179 242.138 32.2818C240.229 34.4543 238.589 36.961 237.124 39.445C234.029 44.6938 231.405 50.5403 231.142 56.7168C230.971 60.74 231.651 64.5462 233.348 68.2139L235.246 71.9634C234.348 71.9796 232.903 70.5425 232.149 70.0008C231.541 69.458 230.704 68.9181 229.849 69.0041C229.292 69.0602 228.861 69.3495 228.532 69.7983C227.529 71.1676 228.553 72.8558 228.19 74.269L227.063 72.0941C225.954 70.4234 224.255 67.7123 222.105 67.3495C220.895 67.1452 219.754 67.6081 218.812 68.3491C217.647 69.2669 216.823 70.5457 215.974 71.7445C215.674 72.1691 215.411 72.6907 215.031 73.0416C214.798 72.5967 214.937 71.8782 214.989 71.3791L215.026 72.511L215.159 72.5115C215.218 72.2082 215.396 71.9848 215.469 71.6927L215.491 71.5847C215.688 71.3857 215.622 71.324 215.623 71.0554C215.921 70.7275 215.906 70.3334 216.026 69.9306L216.621 68.1588L221.979 53.3081L225.215 43.8771C227.166 38.6886 228.879 32.7531 234.033 29.825C235.094 29.2224 236.262 29.0213 237.354 28.5166L237.456 28.4688Z" fill="#89AC11"/>
<path d="M241.505 29.3047L245.189 29.3176C244.147 30.2749 243.072 31.2242 242.138 32.2881C240.229 34.4605 238.589 36.9673 237.124 39.4513C234.029 44.7001 231.405 50.5466 231.142 56.723C230.971 60.7462 231.651 64.5524 233.348 68.2201L235.246 71.9697C234.348 71.9858 232.903 70.5488 232.149 70.0071C231.541 69.4642 230.704 68.9243 229.849 69.0104C229.292 69.0665 228.861 69.3558 228.532 69.8046C227.529 71.1739 228.553 72.8621 228.19 74.2753L227.063 72.1004C227.246 70.9875 226.915 69.754 226.756 68.6465L226.201 64.0713C225.92 60.9945 226.176 57.7919 226.639 54.7464C227.136 51.4705 228.056 48.2408 229.17 45.1261C230.363 41.7895 231.834 38.471 233.954 35.6113C234.902 34.3325 235.967 33.0643 237.267 32.1295C238.051 31.5656 238.831 31.0217 239.661 30.5252C240.183 30.214 240.972 29.931 241.368 29.473L241.505 29.3047Z" fill="#668C0F"/>
<path d="M205.759 66.1112C206.488 66.0617 207.185 65.7383 207.877 65.5155C209.371 65.0341 210.843 64.6794 212.422 64.6876C209.004 66.8067 206.177 69.2608 203.694 72.4506C202.273 74.2758 201.091 76.3301 199.951 78.339C196.845 83.8138 194.506 89.7316 192.193 95.5743L186.305 110.097C181.976 120.279 176.779 130.196 170.339 139.208C163.196 149.204 154.306 158.062 144.569 165.521C141.239 168.072 137.825 170.557 134.244 172.748C124.941 178.437 115.11 182.752 104.769 186.164C96.2494 188.974 87.5044 190.992 78.6212 192.244C69.9267 193.47 61.3492 193.959 52.5997 193.021C47.6439 192.489 42.7767 191.405 37.9281 190.282C37.5009 188.54 37.0714 186.631 36.3359 184.988C37.1021 184.461 38.2562 184.385 39.1613 184.416C40.6754 184.468 42.2016 184.752 43.7024 184.947L49.6233 185.544C58.8186 186.34 68.0373 186.622 77.2386 185.728C91.3814 184.353 105.1 180.906 118.166 175.329C125.268 172.297 132.122 168.7 138.439 164.238C147.863 157.58 156.188 149.488 163.317 140.426C165.874 137.175 168.297 133.903 170.466 130.377C175.042 122.943 178.951 114.987 182.478 107.01C187.036 96.6965 190.611 85.9042 196.483 76.2217C197.856 73.9571 199.279 71.6981 201.096 69.7577C202.468 68.293 204.099 67.2129 205.759 66.1112Z" fill="#FEDA0E"/>
<path d="M232.151 70C232.904 70.5417 234.35 71.9788 235.247 71.9626C236.927 74.6592 238.363 77.6137 239.677 80.501C246.505 95.5026 248.436 111.815 247.061 128.135C246.583 133.8 245.796 139.424 244.503 144.966C236.534 179.12 216.443 210.723 188.175 231.608C185.262 233.761 182.298 235.896 179.218 237.802C169.455 243.843 159.063 248.51 148.125 251.997C138.22 255.155 127.887 257.321 117.47 257.655C108.213 257.951 99.009 256.874 90.003 254.74C70.9872 250.235 52.4835 240.842 39.5112 225.974C37.4541 223.616 35.6457 221.061 33.8416 218.509L26.8584 207.999L25.209 205.221C26.2693 205.316 27.3043 205.293 28.3491 205.08C31.5458 209.683 34.7115 214.544 38.4385 218.731C47.585 229.005 59.6882 236.715 72.4385 241.658C75.5754 242.874 78.7095 244.015 81.9804 244.833C88.6736 246.507 95.6471 247.81 102.527 248.332C127.879 250.256 153.701 243.229 175.381 230.183C198.374 216.347 217.531 195.523 229.837 171.736C234.565 162.598 238.378 152.95 240.832 142.945C244.107 129.597 244.507 115.674 242.708 102.085C242.371 99.5389 242.035 96.9705 241.474 94.4619C240.527 90.2275 239.118 86.0384 237.6 81.9795C236.446 78.8942 235.153 75.8269 233.598 72.9203C233.242 72.2544 232.929 71.4843 232.527 70.8526C232.394 70.6433 232.298 70.4827 232.224 70.245L232.151 70Z" fill="#C29403"/>
<path d="M228.19 74.274C228.553 72.8608 227.529 71.1726 228.532 69.8033C228.861 69.3545 229.292 69.0652 229.849 69.0091C230.704 68.9231 231.541 69.4629 232.149 70.0057L232.222 70.2508C232.296 70.4885 232.393 70.6491 232.526 70.8584C232.928 71.4901 233.241 72.2603 233.597 72.9261C235.151 75.8327 236.444 78.9 237.598 81.9853C239.116 86.0442 240.525 90.2333 241.472 94.4677C242.033 96.9763 242.369 99.5447 242.707 102.09C244.506 115.679 244.105 129.603 240.831 142.951C238.376 152.955 234.564 162.603 229.836 171.742C217.529 195.529 198.372 216.353 175.379 230.189C153.699 243.235 127.878 250.261 102.526 248.338C95.6457 247.816 88.6722 246.513 81.979 244.839C78.7082 244.021 75.5739 242.879 72.4371 241.664C59.6868 236.721 47.5836 229.011 38.4371 218.736C34.7101 214.549 31.5444 209.689 28.3477 205.086C30.4415 204.199 31.6378 202.577 32.8475 200.743C41.2704 209.64 51.1604 216.45 62.1727 221.742C65.6647 223.42 69.2989 224.72 72.9761 225.922C87.7891 230.767 103.975 232.07 119.393 229.774C125.895 228.806 132.379 227.056 138.579 224.89C156.562 218.608 173.242 208.252 186.991 195.077C194.654 187.733 201.353 179.585 207.396 170.877C212.378 163.699 216.871 156.203 220.644 148.318C229.281 130.271 233.537 110.303 231.499 90.3066C230.946 84.8845 229.995 79.4277 228.19 74.274Z" fill="#DBB005"/>
<path d="M233.338 91.5C233.581 91.8686 233.601 92.6287 233.692 93.0879C234.752 98.4455 235.07 104.049 235.184 109.496C235.487 123.918 233.093 138.593 228.159 152.158C224.676 161.732 219.758 171.08 214.059 179.521C196.705 205.223 171.681 225.627 142.163 235.588C137.348 237.213 132.38 238.696 127.388 239.661C120.163 241.057 112.537 242.002 105.174 242.082C89.0437 242.256 72.3098 238.451 58.8307 229.335L55.7891 227.265C56.036 227.123 55.914 227.12 56.1521 227.277C58.3318 228.708 60.9137 229.898 63.3027 230.947C75.4767 236.294 89.2608 238.44 102.483 238.321C111.493 238.241 120.392 237.135 129.128 234.9C153.801 228.591 175.984 214.153 193.68 196.088C197.308 192.384 200.636 188.397 203.842 184.326C210.601 175.747 216.56 166.436 221.252 156.566C223.602 151.622 225.523 146.525 227.236 141.33C230.337 131.924 232.49 122.354 233.379 112.473C233.871 107.005 233.829 101.557 233.645 96.0766C233.594 94.5482 233.353 93.0206 233.338 91.5Z" fill="#B37A07"/>
<path d="M212.421 64.6875C213.106 64.7298 213.639 64.7616 214.117 65.3049C216.121 67.5822 214.06 70.8017 214.852 73.3111L215.031 73.0472C215.412 72.6963 215.674 72.1747 215.975 71.7502C216.823 70.5513 217.647 69.2725 218.813 68.3547C219.754 67.6137 220.895 67.1508 222.106 67.3552C224.255 67.718 225.954 70.429 227.063 72.0998L228.19 74.2747C229.995 79.4284 230.947 84.8852 231.499 90.3071C233.537 110.303 229.282 130.271 220.645 148.318C216.871 156.204 212.378 163.699 207.396 170.878C201.353 179.586 194.654 187.733 186.991 195.077C173.243 208.253 156.562 218.608 138.579 224.89C132.379 227.056 125.895 228.806 119.393 229.775C103.976 232.071 87.7892 230.768 72.9763 225.923C69.2991 224.72 65.6649 223.421 62.1728 221.743C51.1605 216.451 41.2707 209.641 32.8477 200.743L33.3126 199.691C34.0756 198.312 34.8076 197.093 35.8411 195.892L36.0072 195.811C37.3601 194.108 37.8175 192.426 37.9267 190.282C42.7753 191.405 47.6425 192.489 52.5983 193.021C61.3478 193.959 69.9254 193.47 78.6199 192.244C87.5031 190.992 96.2481 188.974 104.767 186.164C115.109 182.752 124.94 178.437 134.242 172.748C137.824 170.557 141.237 168.072 144.568 165.521C154.305 158.062 163.195 149.204 170.337 139.208C176.777 130.196 181.975 120.279 186.304 110.097L192.192 95.5742C194.504 89.7316 196.844 83.8138 199.95 78.339C201.09 76.3301 202.271 74.2758 203.692 72.4506C206.176 69.2606 209.003 66.8065 212.421 64.6875Z" fill="#FEDA0E"/>
<path d="M212.421 64.6875C213.107 64.7298 213.639 64.7616 214.118 65.3049C216.121 67.5822 214.061 70.8017 214.853 73.3111C214.776 74.9797 214.428 76.7163 214.13 78.3608L212.276 87.3928C212.004 88.6117 211.628 89.8146 211.401 91.0433C211.209 92.0834 211.179 93.1634 211.032 94.2136L209.696 101.802C204.876 123.506 196.559 144.988 183.6 163.168C179.084 169.504 174.062 175.512 168.304 180.762C163.166 185.446 157.797 189.71 151.9 193.405C132.909 205.305 110.195 211.278 87.8204 210.214C84.1439 210.039 80.4508 209.552 76.8142 208.997C66.9604 207.495 57.1422 204.834 47.8847 201.133L36.0078 195.811C37.3607 194.108 37.818 192.426 37.9273 190.282C42.7759 191.405 47.6431 192.489 52.5989 193.021C61.3484 193.959 69.926 193.469 78.6205 192.244C87.5036 190.992 96.2487 188.974 104.768 186.164C115.109 182.752 124.94 178.437 134.243 172.748C137.825 170.557 141.238 168.072 144.568 165.521C154.306 158.062 163.196 149.204 170.338 139.208C176.778 130.196 181.975 120.279 186.304 110.097L192.192 95.5742C194.505 89.7316 196.844 83.8137 199.95 78.3389C201.09 76.33 202.272 74.2758 203.693 72.4505C206.176 69.2606 209.003 66.8065 212.421 64.6875Z" fill="#FDEC82"/>
<defs>
<linearGradient id="paint0_linear_4343_7276" x1="237.081" y1="19.6084" x2="232.022" y2="25.5564" gradientUnits="userSpaceOnUse">
<stop stop-color="#7E3D06"/>
<stop offset="1" stop-color="#96780E"/>
</linearGradient>
</defs>
</svg>
