<svg width="199" height="281" viewBox="0 0 199 281" fill="none" xmlns="http://www.w3.org/2000/svg">
<path d="M22.8027 117.144C25.9538 114.594 25.4301 111.046 25.2605 107.666C25.1025 104.514 24.6805 101.375 24.4011 98.229C24.3541 97.6981 24.3772 97.1702 24.0406 96.7165C23.5938 91.4938 24.1525 86.3087 24.6587 81.1253C25.3947 73.5909 27.5539 66.4298 30.4098 59.4528C31.0048 57.9997 31.8578 57.1646 33.5847 57.0642C36.3667 56.9024 39.0026 56.0126 41.504 54.7718C42.5774 54.3344 43.5765 53.747 44.5987 53.2024C44.9387 53.1012 45.2812 53.0982 45.6268 53.1691C54.9779 55.8456 64.3951 55.1173 73.8102 53.6552C85.0057 51.9167 95.3507 47.8439 105.144 42.2099C108.925 40.0348 112.584 37.6407 116.547 35.7779C118.821 34.7088 121.138 33.7789 123.563 33.1352C124.298 32.94 125.15 32.3385 125.819 33.019C126.48 33.6905 125.936 34.5435 125.698 35.2764C124.288 39.6133 124.118 44.0534 124.537 48.5457C125.192 55.3668 127.126 61.7722 130.833 67.5763C133.231 71.3313 136.15 74.6165 139.979 76.9816C141.014 77.621 141.588 78.4189 141.747 79.6337C142.029 81.7887 142.039 83.9765 142.537 86.1067C143.094 91.0791 143.575 96.0549 143.607 101.063C143.565 102.749 143.39 104.437 143.747 106.11C143.913 108.74 144.086 111.37 144.902 113.902C145.319 115.402 145.943 116.785 147.143 117.84C148.075 118.676 148.869 119.693 150.111 120.124C150.751 120.346 151.423 120.682 152.055 120.18C152.776 119.607 152.248 118.933 152.106 118.298C152.186 116.505 153.251 115.332 154.6 114.334C155.321 113.8 156.066 113.309 156.901 112.964C165.711 110.392 175.638 114.869 178.436 124.587C178.586 125.11 178.619 125.629 178.62 126.16C178.427 127.858 179.151 129.5 178.924 131.2C177.125 130.326 175.558 129.092 173.937 127.946C172.424 126.876 170.953 125.751 169.368 124.78C167.243 123.479 164.983 123.399 162.636 123.89C159.05 125.063 157.218 127.851 156.081 131.185C155.182 133.824 154.961 136.578 155.047 139.367C155.078 140.347 155.569 140.936 156.266 141.465C157.041 142.357 156.37 143.032 155.904 143.715C154.206 146.204 152.316 148.547 150.402 150.87C147.698 154.513 144.43 157.611 140.992 160.54C140.309 161.121 139.595 161.692 138.669 161.866C138.04 161.853 137.563 162.195 137.083 162.534C132.212 165.976 126.683 167.95 121.073 169.755C120.179 170.043 119.183 170.145 118.469 170.873C113.482 172.457 108.325 173.205 103.17 173.934C95.5737 175.01 87.9308 175.362 80.2661 175.215C79.3238 175.197 78.4191 175.811 77.47 175.332C77.526 175.098 77.7387 174.786 77.2893 174.741C76.0775 174.617 74.8649 174.463 73.6492 174.427C67.8127 174.253 62.0586 173.481 56.3349 172.332C51.553 171.373 46.8741 170.056 42.4138 168.147C35.5304 165.201 29.3176 161.259 24.8799 154.985C22.1257 151.09 20.2002 146.868 19.6009 142.111C19.4984 141.298 18.586 140.989 18.6411 140.163C19.0592 139.972 19.0682 139.647 19.0238 139.234C18.3797 133.284 19.5765 127.6 21.5721 122.04C21.9668 120.94 22.326 119.825 22.8583 118.776C23.1308 118.237 23.2901 117.671 22.8027 117.144Z" fill="#FCCAB1"/>
<path d="M124.186 48.6525C123.584 46.0798 123.844 43.4738 124.013 40.8943C124.163 38.6159 124.814 36.4062 125.522 34.2299C125.629 33.8993 125.992 33.5444 125.629 33.2104C125.293 32.9015 124.921 33.2432 124.585 33.3235C118.911 34.6784 113.905 37.5224 108.986 40.4953C99.6005 46.1674 89.8035 50.7972 79.0151 53.1546C71.2868 54.8435 63.4845 55.6846 55.5909 55.3189C52.1716 55.1605 48.6998 54.9324 45.4864 53.4775C45.1109 52.8564 45.4129 52.3699 45.793 51.892C46.0245 51.6006 46.3372 51.2529 46.063 50.9023C45.7379 50.4871 45.2817 50.7502 44.8935 50.8997C44.395 51.0919 43.9435 51.376 43.5219 51.7006C39.4645 54.8217 34.5519 55.9532 29.8358 57.5051C27.8662 58.153 27.1943 58.7515 25.8411 60.0782C23.9125 61.9692 22.157 64.1472 19.5762 65.2804C20.1567 61.5732 21.3646 58.0407 22.8729 54.6394C27.7961 43.5361 35.0713 34.1697 44.5009 26.5661C53.7755 19.0877 64.2525 13.903 75.791 10.7959C84.1784 8.53719 92.6786 7.30317 101.344 7.40483C108.231 7.48556 115.034 8.37658 121.656 10.3919C122.615 10.6836 123.598 10.8942 124.929 11.2338C124.482 10.1433 124.15 9.29238 123.785 8.4556C123.097 6.87816 122.654 5.24604 122.627 3.5161C122.605 2.09115 122.974 0.8221 124.406 0.236911C125.966 -0.399962 127.246 0.331737 128.264 1.42694C129.895 3.18122 131.204 5.19435 132.57 7.15794C135.536 11.4221 138.568 15.6351 142.378 19.6771C141.753 16.9284 141.17 14.5228 140.667 12.1C140.181 9.75712 139.725 7.41294 140.135 4.98377C140.397 3.43324 141.044 2.20605 142.589 1.7537C144.216 1.27744 145.583 1.86903 146.773 3.0629C149.667 5.96791 150.805 9.6499 151.429 13.5361C151.958 16.8323 151.778 20.1269 150.84 23.3403C150.416 24.7918 151.156 25.2885 152.319 25.7614C168.578 32.3749 178.454 44.9624 184.926 60.7116C185.145 61.2434 185.217 61.8359 185.357 62.3997C185.221 62.5193 185.063 62.5872 184.883 62.6069C183.838 62.4984 182.945 62.8145 182.018 63.3343C180.183 64.362 178.052 64.5128 176.05 65.0412C174.864 65.3543 173.679 65.6447 172.541 66.1056C169.703 67.2546 166.763 67.927 163.696 68.0077C163.049 68.0248 162.443 68.2183 161.826 68.3934C158.182 69.4297 154.499 69.6518 150.78 68.8419C150.198 68.715 149.623 68.6766 149.036 68.7753C148.669 68.8372 148.295 68.912 147.924 68.8573C142.633 68.079 137.245 67.4234 132.859 64.0301C130.549 62.2425 128.298 60.1858 127.727 57.0151C127.555 56.0639 127.219 55.1686 126.727 54.3331C126.259 53.5373 125.976 52.6792 125.989 51.7519C126.01 50.3474 125.503 49.2693 124.186 48.6525Z" fill="#CA8572"/>
<path d="M52.5184 229.449C51.521 227.077 51.9016 224.647 52.3258 222.254C53.1856 217.402 55.0035 212.845 56.6429 208.22C57.5954 205.532 58.583 202.851 59.6269 200.206C62.2705 193.508 64.581 186.601 69.8067 181.282C69.9903 181.095 70.2167 180.949 70.423 180.784C73.0525 183.149 76.0135 184.998 79.2619 186.376C82.3604 187.689 85.6132 188.458 88.9316 188.973C96.0265 190.075 102.835 188.641 109.46 186.352C113.93 184.808 118.068 182.442 122.283 180.283C124.877 178.954 127.524 177.705 130.266 176.688C133.903 178.751 136.513 181.888 138.548 185.387C139.838 187.606 141.059 189.995 141.482 192.633C142.353 197.158 141.926 201.733 142.015 206.288C142.096 210.406 141.478 214.449 140.657 218.466C139.012 223.881 136.508 228.777 132.302 232.714C127.012 237.666 120.82 240.903 113.847 242.728C112.934 242.967 112.059 242.977 111.235 242.444C109.492 241.775 108.346 240.545 107.292 238.984C105.652 236.556 102.67 236.716 100.816 239.032C99.685 240.444 98.9926 242.003 98.7526 243.799C98.577 245.113 98.4228 246.45 97.7488 247.638C96.9436 249.058 96.0748 249.547 94.9629 249.222C93.7319 248.863 93.2646 247.963 93.4312 246.28C93.523 245.354 93.8938 244.42 93.3522 243.34C92.4406 243.944 92.4171 244.909 92.0827 245.683C91.8114 246.31 91.7025 247.093 90.8747 247.223C90.0204 247.357 89.4891 246.749 89.0397 246.154C87.9432 244.7 87.7228 243.052 88.085 241.299C89.4387 236.62 92.9912 234.138 97.1474 232.282C97.9939 231.904 98.8077 231.488 99.3249 230.718C101.948 226.818 105.516 223.851 109.043 220.849C111.195 219.018 113.275 217.108 115.386 215.232C115.972 214.712 116.307 214.072 116.487 213.329C117.529 209.029 118.589 204.734 119.695 200.449C119.864 199.792 120.064 199.101 119.595 198.309C118.825 198.693 118.73 199.463 118.546 200.115C117.423 204.12 116.476 208.17 115.462 212.203C115.061 213.799 114.281 214.982 113.039 216.012C109.101 219.278 105.104 222.478 101.479 226.101C100.306 227.273 99.2126 228.508 98.4664 230.011C98.0909 230.767 97.4933 231.241 96.6911 231.518C94.6088 232.238 92.7191 233.31 90.964 234.648C89.2857 235.926 87.9283 235.934 86.3389 234.57C84.4462 232.945 82.8205 231.009 80.5562 229.827C79.9616 229.516 79.7331 228.886 79.631 228.22C79.0074 224.154 78.1847 220.158 76.3621 216.403C75.4727 214.571 75.5394 212.428 75.342 210.443C75.0546 207.554 74.5501 204.646 75.0144 201.693C75.3442 199.595 75.0101 197.434 75.395 195.319C75.4843 194.829 75.4766 194.232 74.6799 193.901C73.8701 195.584 73.9525 197.425 73.8402 199.169C73.5318 203.967 73.9483 208.749 74.5582 213.513C74.7146 214.735 75.0161 215.915 75.5103 217.051C77.0339 220.552 77.8899 224.23 78.2577 228.018C78.3585 229.055 78.9219 229.636 79.7036 230.166C81.9192 231.668 84.0293 233.288 85.4577 235.624C86.2069 237.005 86.6507 238.461 86.567 240.056C86.5294 240.77 86.3316 241.401 85.8716 241.966C84.3061 243.888 83.1921 243.828 81.8632 241.736C81.6194 241.352 81.4741 240.837 80.8569 240.837C80.6023 241.42 80.9953 241.87 81.1444 242.352C81.4169 243.234 81.5237 244.125 81.4002 245.034C81.2563 246.093 80.6506 246.792 79.6088 247.034C78.6268 247.263 77.8259 246.917 77.2471 246.09C76.7883 245.434 76.4154 244.727 76.0336 244.025C75.7564 243.516 75.4967 242.985 74.7936 242.64C74.5762 243.521 75.1161 244.094 75.3933 244.711C76.1839 246.472 76.1015 247.244 74.9597 248.106C73.7612 249.012 72.1551 248.971 70.983 247.997C70.614 247.69 70.2932 247.332 69.966 246.982C69.749 246.75 69.5222 246.42 69.1847 246.503C66.6676 247.125 65.7449 245.153 64.5259 243.669C64.2901 243.382 64.1406 243.032 64.0043 242.683C63.3495 240.361 62.0412 238.568 60.119 237.042C57.0043 234.569 54.5854 231.515 53.2813 227.652C52.8635 226.415 52.6047 225.212 52.6756 224.435C52.6316 225.127 52.7503 226.317 52.9122 227.51C53.0019 228.176 53.1168 228.9 52.5184 229.449Z" fill="#FCCAB0"/>
<path d="M155.925 256.64C157.53 256.563 158.879 257.354 160.284 257.943C162.573 258.902 164.843 259.86 166.833 261.432C168.868 263.039 169.68 264.493 168.974 266.36C168.469 267.693 167.343 268.619 166.192 269.341C161.967 271.996 157.248 273.391 152.44 274.567C145.691 276.218 138.853 277.391 131.983 278.346C126.953 279.045 121.886 279.497 116.829 279.988C111.751 280.481 106.64 280.413 101.553 280.694C92.2315 281.21 82.9116 280.93 73.5943 280.905C67.0231 280.888 60.4656 280.203 53.9038 279.787C49.9283 279.536 45.993 279 42.0317 278.68C38.5535 278.398 35.0893 277.877 31.6384 277.337C27.4601 276.683 23.283 275.993 19.1423 275.139C15.9767 274.487 12.9026 273.451 9.82712 272.433C7.09681 271.529 4.44637 270.542 2.16286 268.734C0.750717 267.617 -0.321415 266.304 0.0882172 264.396C0.423526 262.834 1.80406 262.011 2.96803 261.129C5.49459 259.215 8.57516 258.453 11.4584 257.299C13.363 256.536 15.3561 255.993 17.3094 255.352C18.2316 255.558 18.5703 256.346 18.7591 257.084C19.1735 258.704 20.1341 260.048 20.8077 261.533C22.2271 263.815 23.365 266.292 25.2974 268.224C26.8681 269.795 28.6967 270.899 30.9768 271.086C32.145 271.314 33.3107 271.331 34.4729 271.058C36.2008 270.584 37.8141 269.81 39.4676 269.144C40.2497 268.984 40.6883 268.288 41.347 267.933C41.4905 267.866 41.6396 267.817 41.7934 267.78C42.6741 267.682 43.5122 267.402 44.3656 267.181C44.8709 267.075 45.3809 267.033 45.8961 267.052C47.0246 267.022 48.1681 267.231 49.2718 266.832C52.0312 266.274 54.8255 265.909 57.5678 265.245C60.5758 264.517 63.5162 263.621 66.1885 262.024C67.267 261.38 68.3225 261.222 69.5356 261.57C72.8566 262.525 76.208 263.354 79.6734 263.601C80.2817 263.689 80.8711 263.909 81.4999 263.858C82.8351 263.665 83.7249 264.755 84.8906 265.033C86.2737 265.362 87.6281 265.833 89.0907 265.785C90.179 265.75 90.733 266.349 90.7403 267.461C90.7484 268.731 90.7822 270.003 90.7377 271.271C90.704 272.234 90.9107 273.049 91.7086 273.648C94.8101 277.464 99.0256 277.872 103.329 276.926C106.846 276.152 110.353 275.84 113.909 275.687C119.817 275.432 125.676 274.789 131.477 273.602C135.544 272.77 139.599 271.92 143.432 270.274C148.994 267.886 153.07 264.094 154.797 258.11C154.943 257.603 155.093 257.082 155.448 256.662C155.601 256.527 155.76 256.52 155.925 256.64Z" fill="#D2E4E0"/>
<path d="M124.186 48.6516C125.44 48.4205 126.184 48.9992 126.251 50.2076C126.359 52.1469 127.506 53.861 127.712 55.6127C128.079 58.739 130.229 60.5492 131.862 62.7038C133.138 64.3863 135.493 64.7758 137.261 65.9321C138.975 67.0534 141.045 67.155 142.946 67.7428C143.419 67.8889 143.882 67.8402 144.356 67.6996C144.706 67.5959 145.183 67.4092 145.432 67.5544C147.07 68.5087 148.916 67.9717 150.578 68.3408C154.156 69.1353 157.681 69.0639 161.104 68.079C163.479 67.3951 165.93 67.6488 168.288 66.9577C169.18 66.6963 170.152 66.5331 171 66.1559C174.122 64.7677 177.507 64.3466 180.745 63.3932C181.261 63.2411 181.827 63.1698 182.172 62.758C183.03 61.7346 183.992 61.9328 185.011 62.4013C185.427 63.3146 185.628 64.2658 185.378 65.2538C185.09 66.3922 185.81 65.9578 186.31 65.8851C186.829 66.1837 186.556 66.824 186.88 67.2063C186.996 69.5312 186.471 71.8609 186.865 74.1752C187.014 75.047 187.23 76.0947 188.585 75.815C188.947 76.319 188.854 76.8858 188.81 77.4462C188.334 78.0754 188.612 78.7721 188.614 79.45C188.619 80.6242 188.045 81.1376 186.926 81.024C186.143 80.9446 185.719 80.6289 186.059 79.7686C186.216 79.3722 186.371 78.9643 186.31 78.5286C186.182 77.6128 185.726 77.1532 184.773 77.5492C183.817 77.9464 183.068 78.5026 182.666 79.57C181.698 82.1388 179.484 82.5532 177.445 80.6242C177.213 80.4046 176.993 80.1701 176.724 79.9954C175.929 79.4777 175.307 79.5935 174.97 80.5324C174.647 81.4319 174.297 82.3234 174.495 83.3267C174.629 84.0059 174.589 84.7073 174.568 85.3988C174.512 87.2189 174.222 87.4666 172.498 87.0344C171.897 86.8836 171.335 87.0749 170.755 87.0408C170.431 87.022 169.942 86.7631 169.873 87.3607C169.827 87.7614 170.111 88.0497 170.449 88.2513C170.867 88.5003 171.372 88.5157 171.797 88.7387C172.656 89.1893 173.152 89.9197 172.741 90.833C172.269 91.8812 171.536 91.1597 170.867 90.9244C168.791 90.1931 166.626 90.0534 164.447 90.088C163.661 90.1004 163.368 90.6659 163.215 91.3357C162.718 93.5137 161.6 95.0984 159.27 95.6003C158.651 95.7336 158.088 96.0774 157.522 96.3769C156.762 96.7792 155.945 96.8433 155.221 96.42C153.817 95.6003 152.206 95.136 151.128 93.741C150.49 92.9161 149.394 92.5385 148.502 91.982C146.088 90.4746 144.734 87.9719 142.714 86.107C142.541 85.9477 142.467 85.5851 142.107 85.814C141.455 83.7184 141.571 81.5161 141.244 79.3731C141.115 78.5278 140.816 78.025 140.139 77.6158C134.145 73.9894 130.24 68.6163 127.53 62.3048C125.663 57.9522 124.349 53.4356 124.186 48.6516Z" fill="#C57868"/>
<path d="M178.62 126.159C178.017 124.649 177.541 123.073 176.79 121.641C172.931 114.282 165.399 111.606 157.648 113.17C157.389 113.222 157.125 113.257 156.864 113.3C155.051 113.77 153.509 114.96 151.634 115.271C150.606 115.25 150.132 114.591 149.869 113.71C149.641 112.941 149.487 112.156 149.542 111.348C149.918 105.803 149.579 100.286 148.902 94.7816C148.857 94.4117 148.772 94.0418 148.824 93.6693C148.945 92.7852 149.255 92.4763 150.208 92.9577C151.418 93.5685 152.116 94.7278 153.309 95.3984C156.446 97.1608 159.58 98.7344 163.272 98.954C165.736 99.1005 168.149 98.6251 170.593 98.5896C171.279 98.5798 171.964 98.4183 172.66 98.4717C173.193 98.5127 173.75 98.5875 173.985 97.9066C174.214 97.2403 174.19 96.5581 173.575 96.1818C172.176 95.3262 171.662 93.7885 170.676 92.619C170.311 92.185 169.907 91.596 170.438 91.0514C170.95 90.5281 171.415 91.0937 171.85 91.3226C175.443 93.2127 179.209 94.3186 183.32 93.9632C184.069 93.8987 184.796 94.1409 185.534 94.2328C186.981 94.4126 187.87 95.0858 187.879 96.6414C189.416 98.5234 191.676 99.0941 193.807 99.892C194.353 100.097 194.918 100.261 195.484 100.4C199.576 101.409 198.94 104.626 196.878 106.608C193.783 109.583 190.099 111.19 185.788 111.09C184.178 111.053 183.553 111.423 183.319 113.206C182.713 117.834 181.106 122.175 178.62 126.159Z" fill="#BE695D"/>
<path d="M130.265 176.684C130.238 176.969 130.109 177.148 129.825 177.275C124.647 179.595 119.656 182.305 114.534 184.729C107.672 187.975 100.431 190.01 92.7301 189.732C89.4961 189.616 86.3079 189.116 83.1761 188.206C79.1135 187.026 75.3611 185.274 72.0054 182.691C71.3352 182.176 70.5822 181.722 70.4229 180.78C72.515 178.631 74.942 176.915 77.4694 175.328C78.3814 174.652 79.4343 174.688 80.4932 174.713C85.1235 174.824 89.7541 174.721 94.3677 174.37C99.5439 173.976 104.691 173.306 109.804 172.356C112.257 171.9 114.699 171.427 117.093 170.737C117.615 170.587 118.023 170.686 118.468 170.869C122.62 172.363 126.656 174.089 130.265 176.684Z" fill="#F79281"/>
<path d="M155.925 256.635C155.82 256.641 155.716 256.648 155.612 256.656C154.623 255.575 155.384 254.18 154.95 252.867C151.78 254.604 148.597 256.213 145.258 257.44C139.475 259.563 133.511 260.911 127.318 260.942C124.717 260.954 122.136 261.457 119.508 261.001C117.538 260.659 117.4 260.716 116.869 258.677C116.694 257.215 116.254 255.787 116.622 254.268C116.814 253.474 116.37 252.692 115.825 252.102C114.271 250.421 114.491 248.262 116.974 246.847C117.388 246.611 117.811 246.388 118.201 246.111C122.133 243.917 126.078 241.744 130.113 239.739C132.423 238.591 134.876 237.979 137.413 237.633C142.029 237.69 146.306 239.074 150.454 240.963C152.84 242.533 153.89 245.018 154.934 247.508C156.17 250.453 155.913 253.558 155.925 256.635Z" fill="#FCC6AE"/>
<path d="M20.5407 261.741C19.6522 260.215 18.6984 258.732 18.2751 256.969C18.1346 256.384 17.6408 255.885 17.3085 255.346C17.0996 254.613 16.8907 253.878 16.6819 253.145C16.52 252.927 16.5383 252.678 16.5597 252.429C17.2047 250.905 17.8928 249.435 19.6245 248.807C20.0712 248.645 20.3976 248.185 20.5035 247.725C20.9093 245.966 22.1096 245.695 23.6324 245.951C25.056 246.96 26.7808 246.474 28.3344 246.874C29.0332 247.054 29.8298 247.013 30.5534 246.798C31.3692 246.556 32.0398 246.185 31.1223 245.276C30.6743 244.832 30.3338 244.368 30.7426 243.74C31.1112 243.173 31.702 243.112 32.3064 243.174C32.889 243.233 33.4639 243.352 34.0466 243.423C35.1302 243.555 35.882 244.035 35.7552 245.274C35.6672 246.132 36.1387 246.271 36.8277 246.208C38.0006 246.101 38.9229 245.488 39.7874 244.75C42.2409 243.238 45.0883 243.252 47.7874 242.769C50.8727 242.216 54.0011 241.85 57.1607 242.14C57.6882 242.189 58.2208 242.068 58.7155 241.847C59.5176 241.637 59.964 242.257 60.5155 242.627C61.6542 243.392 62.781 244.187 63.76 245.143C64.5537 245.918 65.2499 246.816 64.8211 248.074C62.2027 251.31 58.7838 253.45 55.177 255.434C52.3647 256.98 49.4733 258.125 46.4175 259.081C45.0289 259.516 43.7496 260.038 42.2499 260.192C40.7869 260.343 39.2642 260.706 38.5102 262.464C38.0421 263.556 36.8153 263.375 36.0917 262.3C34.7966 260.376 33.1342 260.326 31.6366 262.191C31.2381 262.687 30.7341 262.854 30.2317 262.573C28.9973 261.885 27.8325 262.329 26.7082 262.755C25.7723 263.109 24.854 263.208 23.8912 263.09C23.2291 263.009 22.884 262.679 22.8302 261.942C22.7349 260.638 22.3936 260.493 21.3083 261.174C21.0387 261.341 20.8444 261.616 20.5407 261.741Z" fill="#FB9C8A"/>
<path d="M187.879 96.6429C187.187 94.9825 184.966 94.1103 182.568 94.4281C180.071 94.7592 177.662 94.1646 175.328 93.3752C173.945 92.9075 172.508 92.4539 171.435 91.3296C171.251 91.1365 170.889 90.8841 170.59 91.1848C170.294 91.4838 170.537 91.8926 170.737 92.0233C172.17 92.9562 172.155 95.0526 173.967 95.7647C175.328 96.299 174.616 97.6266 174.4 98.5898C174.144 99.7362 173.311 98.8978 172.718 98.9272C170.711 99.0268 168.693 99.0644 166.701 99.3044C163.531 99.6863 160.483 99.4138 157.546 98.1152C154.914 96.9517 152.501 95.4571 150.368 93.5132C150.089 93.2586 149.804 92.6807 149.341 93.0621C149.003 93.3398 149.215 93.8528 149.274 94.2752C150.068 99.9566 150.455 105.656 149.968 111.389C149.816 113.175 150.522 114.599 151.747 114.895C151.259 116.191 151.474 117.356 152.394 118.392C152.955 118.98 153.257 119.627 152.641 120.338C152.099 120.963 151.428 120.994 150.632 120.782C149.028 120.354 147.898 119.326 146.883 118.106C146.817 117.227 146.099 116.304 147.36 115.422C146.151 115.306 145.237 115.131 144.652 114.296C143.454 111.753 143.342 109.039 143.391 106.299C143.004 104.594 143.504 102.844 143.127 101.139C143.057 96.0132 142.391 90.9272 142.109 85.816C142.3 85.681 141.966 84.7917 142.488 85.3299C143.406 86.2782 144.618 86.9762 145.242 88.1837C146.298 90.2297 148.305 91.2378 150.046 92.4547C151.531 93.4927 152.732 94.9091 154.465 95.6412C155.637 96.1371 156.642 96.701 157.849 95.7104C158.36 95.2914 159.082 95.0483 159.747 94.9125C161.613 94.5319 162.32 93.1732 162.642 91.5487C162.916 90.1644 163.424 89.3536 165.047 89.58C166.757 89.8184 168.496 89.8273 170.216 90.0033C170.538 90.0362 170.813 90.4108 171.135 90.5804C171.549 90.7991 172.017 91.4975 172.443 90.7952C172.751 90.2865 172.5 89.6637 171.977 89.2404C171.609 88.9432 171.178 88.9889 170.761 88.9389C169.416 88.7783 169.278 87.7561 169.219 86.7199C169.191 86.2124 169.555 86.0168 169.949 86.2991C170.595 86.7622 171.18 86.8779 171.828 86.3427C172.127 86.0958 172.434 86.1659 172.665 86.4512C172.941 86.7938 173.218 87.1585 173.714 86.9603C174.313 86.7216 174.07 86.1513 174.132 85.7045C174.361 84.057 173.687 82.4211 174.389 80.7172C175.163 78.8386 175.95 78.4948 177.437 79.9787C178.197 80.7373 178.823 81.4241 180.098 81.3383C181.249 81.2605 181.898 80.9098 182.147 79.7993C182.399 78.6695 182.871 77.7891 184.113 77.3573C184.861 77.0976 185.602 76.3872 186.268 77.0924C186.984 77.8485 187.19 78.8783 186.508 79.8723C186.393 80.0402 186.303 80.226 186.192 80.4208C188.133 80.8347 188.155 80.8043 188.221 78.8847C188.238 78.3542 187.945 77.6486 188.811 77.4478C189.622 83.9007 189.095 90.2887 187.879 96.6429Z" fill="#C37565"/>
<path d="M19.5766 65.2856C19.8671 64.4693 20.6693 64.1998 21.2861 63.7679C22.7153 62.768 23.5935 61.1645 25.1953 60.3452C25.845 60.0129 25.9227 59.2449 26.0026 58.5329C26.1213 57.4727 26.815 56.735 27.8312 57.0656C29.1571 57.497 30.2339 56.9917 31.3645 56.6081C34.5006 55.545 37.6538 54.5322 40.6669 53.1235C41.6942 52.6434 42.3964 51.7827 43.3592 51.2428C44.0076 50.8793 44.627 50.4692 45.342 50.2556C45.7683 50.1284 46.289 49.7516 46.6089 50.3607C46.8925 50.9002 46.9793 51.6353 46.3996 51.9382C45.6965 52.3051 45.7128 52.927 45.4868 53.4814C45.169 53.4699 44.8512 53.4584 44.5338 53.4464C43.6078 53.8625 42.6079 54.1606 41.9714 55.0422C39.1416 56.5475 36.1481 57.5594 32.927 57.5585C31.485 57.5581 31.2202 58.7007 30.922 59.4662C28.882 64.7047 26.9201 69.9761 25.9642 75.558C24.8395 82.1258 24.3021 88.7328 24.4115 95.3959C24.4187 95.8405 24.8912 96.4885 24.0403 96.7183C19.6843 95.8072 15.9403 93.9005 13.2997 90.1681C12.0721 88.4334 11.308 86.5442 11.2627 84.4016C11.2067 81.7448 12.3587 80.7982 14.9178 81.3825C15.6413 81.5479 16.3534 81.7789 17.0842 81.8947C18.9885 82.1954 19.0474 82.0386 18.8253 80.1464C18.2397 75.1582 18.3751 70.1913 19.5766 65.2856Z" fill="#BC655B"/>
<path d="M162.585 123.493C165.945 122.504 168.814 123.612 171.48 125.577C173.567 127.116 175.593 128.739 177.836 130.061C178.271 130.317 178.565 130.812 178.923 131.196C179.225 139.815 173.342 147.806 165.652 150.762C162.504 151.972 159.273 152.274 155.973 152.359C153.935 152.079 151.876 151.87 150.11 150.653C151.918 148.289 153.746 145.94 155.515 143.548C155.88 143.055 156.605 142.612 156.184 141.786C156.697 141.307 157.298 141.586 157.859 141.61C164.536 141.893 168.224 138.076 168.83 131.788C169.171 128.259 166.639 124.802 163.248 123.893C162.987 123.823 162.745 123.728 162.585 123.493Z" fill="#F89685"/>
<path d="M16.7218 252.447C16.7085 252.681 16.6957 252.914 16.6825 253.149C16.0892 251.836 15.1832 250.767 14.2012 249.719C13.1615 248.61 13.1333 246.996 14.079 245.819C14.5591 245.221 14.4161 244.615 14.4178 244.008C14.422 242.537 14.991 241.511 16.5343 241.344C17.2741 241.264 17.3061 240.844 17.4368 240.297C18.0698 237.647 18.4957 237.27 21.1906 237.114C22.038 237.065 22.3268 236.737 22.5519 235.926C23.1631 233.726 25.2074 232.113 27.2676 232.012C29.5032 231.902 31.7462 234.136 32.0016 236.914C32.1998 239.068 32.6406 241.092 34.0011 242.83C35.2009 243.003 36.2953 243.384 37.1043 244.358C37.8065 245.202 38.9914 244.412 39.738 245.122C39.0811 246.277 37.9128 246.55 36.7617 246.684C35.7528 246.802 34.4658 246.897 35.3846 245.154C35.4324 245.064 35.4798 244.948 35.4653 244.853C35.3718 244.24 34.9164 243.794 34.3936 243.895C33.2262 244.121 32.0037 242.839 30.9427 243.99C30.5519 244.414 31.0179 244.739 31.4117 244.955C31.8709 245.207 32.4672 245.398 32.2972 246.09C32.143 246.716 31.5996 247.056 31.0337 247.193C29.7326 247.51 28.3901 247.482 27.0941 247.221C26.268 247.054 25.5116 246.784 24.6291 247.001C24.0687 247.138 23.3498 247.048 23.7385 246.081C23.7859 246.024 23.8329 245.967 23.8794 245.909C24.984 245.367 26.2339 245.108 27.1518 244.225C27.1971 243.86 26.9011 243.766 26.6717 243.687C24.2165 242.836 22.9782 241.027 22.5835 238.538C22.7941 239.809 23.2374 240.994 23.7393 242.171C24.1152 243.052 24.4557 244.017 23.4971 244.794C22.5506 245.561 20.8262 245.601 19.9275 244.889C19.2637 244.363 18.7499 243.698 18.1194 242.786C18.7524 243.767 19.3555 244.428 19.9664 245.084C20.4409 245.594 20.9287 246.113 20.6502 246.91C20.3427 247.789 19.608 248.047 18.7904 248.198C17.3847 248.458 16.524 247.507 15.5681 246.763C15.3972 246.636 15.3635 246.96 15.4613 246.77C15.4758 246.742 15.5236 246.758 15.6048 246.819C17.5825 248.306 17.6816 248.567 17.0383 250.903C16.8982 251.414 17.052 251.98 16.7218 252.447Z" fill="#F9A793"/>
<path d="M39.738 245.121C38.2289 245.571 37.0439 245.2 35.9992 243.952C35.5404 243.404 34.6793 243.193 34.001 242.828C35.6775 242.759 36.6732 241.417 37.9025 240.6C42.1624 237.77 46.4129 234.949 51.185 233.033C52.1363 232.652 52.885 232.179 52.9167 231.039C53.6283 231.173 53.4694 231.707 53.4446 232.18C52.9722 233.069 53.1503 233.88 53.6642 234.706C55.0015 236.856 56.3056 239.025 58.1889 240.768C58.531 241.084 58.8971 241.414 58.9193 241.943C58.593 242.885 57.7237 242.794 57.0745 242.705C53.4309 242.208 49.8899 242.948 46.3382 243.507C44.0991 243.859 41.8109 244.065 39.738 245.121Z" fill="#FCC0A7"/>
<path d="M150.112 150.656C152.063 151.235 154.166 151.294 155.974 152.363C155.619 152.951 155.58 153.561 155.887 154.175C156.17 154.741 156.438 155.32 156.779 155.85C158.896 159.135 158.581 159.997 154.749 160.856C150.833 161.733 146.885 162.095 142.94 161.017C142.181 160.81 141.73 161.149 141.248 161.586C140.458 162.305 139.612 162.545 138.668 161.865C141.672 159.348 144.789 156.955 147.353 153.956C148.285 152.866 149.193 151.757 150.112 150.656Z" fill="#B1504A"/>
<path d="M143.418 200.32C144.349 203.14 144.587 206.1 145.163 208.992C146.445 215.429 147.666 221.88 147.937 228.463C148.152 229.031 147.992 229.624 148.051 230.202C148.122 230.887 147.843 231.323 147.186 231.529C144.439 232.39 141.622 232.968 138.827 233.638C138.408 233.738 137.977 233.641 137.634 233.328C141.216 227.567 141.928 221.065 142.647 214.524C143.085 210.535 142.88 206.563 142.922 202.582C142.93 201.804 142.763 200.966 143.418 200.32Z" fill="#F79483"/>
<path d="M150.455 240.963C150.039 241.457 149.675 241.008 149.321 240.874C145.445 239.404 141.532 238.102 137.322 238.062C137.178 237.66 137.621 237.419 137.641 237.052C134.432 236.549 131.648 237.096 129.006 239.188C125.487 241.974 121.384 243.763 117.003 244.851C116.394 245.018 115.782 245.165 115.167 245.305C112.391 245.936 111.496 245.19 111.435 242.204C112.192 242.467 112.903 242.529 113.739 242.311C121.336 240.33 128.018 236.733 133.366 230.95C135.937 228.17 138.271 225.155 139.025 221.238C139.186 220.399 139.788 219.645 140.187 218.852C140.673 219.246 140.683 219.799 140.568 220.318C139.518 225.065 138.358 229.773 135.282 233.722C134.913 234.104 134.483 234.427 134.162 234.858C134.036 235.028 133.882 235.183 133.825 235.537C134.482 235.885 135.225 235.687 135.918 235.691C138.919 235.708 141.868 236.011 144.725 237.003C146.404 237.585 148.005 238.265 149.159 239.698C149.591 240.12 150.023 240.541 150.455 240.963Z" fill="#F79782"/>
<path d="M135.097 233.581C136.3 231.194 137.823 228.953 138.548 226.347C139.233 223.88 140.076 221.442 140.187 218.848C141.746 211.246 141.537 203.546 141.522 195.852C141.52 194.777 140.721 193.701 141.482 192.625C142.363 195.129 142.976 197.701 143.419 200.316C143.531 203.129 143.718 205.99 143.579 208.751C143.373 212.845 143.175 216.98 142.383 221.065C141.644 224.875 140.475 228.515 139.26 232.17C138.954 233.091 138.074 232.739 137.648 233.248C136.871 233.916 136.046 234.225 135.097 233.581Z" fill="#E97A6B"/>
<path d="M135.097 233.584C135.947 233.473 136.798 233.362 137.648 233.251C140.959 232.869 144.135 231.879 147.318 230.976C148.503 230.639 147.611 229.286 147.938 228.461C148.381 231.393 148.57 234.344 148.516 237.307C148.499 238.184 148.572 238.999 149.159 239.697C144.591 236.588 139.432 235.98 134.092 236.132C133.721 236.143 133.348 236.116 132.976 236.1C132.935 236.098 132.896 236.05 132.725 235.937C133.593 235.2 133.778 233.872 135.097 233.584Z" fill="#F1CFC3"/>
<path d="M22.802 117.143C24.5747 116.869 23.6789 118.027 23.4521 118.541C22.5722 120.535 21.7854 122.558 21.1866 124.653C19.7932 129.526 18.7873 134.442 19.5369 139.556C19.6463 140.301 19.6018 140.946 18.6391 140.161C17.455 137.942 16.6601 135.635 16.5636 133.072C16.3291 126.836 17.8078 121.311 22.802 117.143Z" fill="#EF8A77"/>
<path d="M182.639 132.17C184.369 132.412 186.389 132.663 188.246 133.737C189.945 134.719 190.583 136.17 190.415 137.977C190.255 139.698 188.861 140.51 187.441 140.93C185.893 141.388 184.555 140.685 183.528 139.433C182.093 137.682 181.269 135.616 180.646 133.495C180.232 132.087 181.391 132.152 182.639 132.17Z" fill="#A3DBE5"/>
<path d="M11.8632 132.164C13.7871 132.151 14.0882 132.525 13.5261 134.073C12.8187 136.022 11.8115 137.843 10.6471 139.54C9.78259 140.799 8.39224 141.297 6.84854 140.956C5.34969 140.625 4.06783 139.211 4.01315 137.677C3.95506 136.042 4.64447 134.682 6.07754 133.792C7.93946 132.637 10.0615 132.426 11.8632 132.164Z" fill="#A4DBE5"/>
<path d="M53.1781 232.314C53.1534 231.878 53.3298 231.4 52.9172 231.044C52.7847 230.513 52.6519 229.983 52.5191 229.452C52.537 227.349 52.3281 225.24 52.6861 223.125C52.845 226.051 54.0739 228.581 55.4061 231.117C56.6636 233.511 58.6055 235.283 60.6177 236.874C62.5766 238.422 63.7666 240.241 64.3728 242.565C62.7966 242.427 61.4485 241.698 60.2021 240.816C57.0989 238.623 54.8316 235.716 53.1781 232.314Z" fill="#F69C87"/>
<path d="M188.587 75.8118C188.059 76.0044 188.413 76.7421 187.923 76.9437C185.892 75.0775 186.212 72.6471 186.348 70.308C186.397 69.4768 186.726 68.6828 186.366 67.8323C186.213 67.4705 186.525 67.2651 186.882 67.2031C187.722 70.0189 188.484 72.85 188.587 75.8118Z" fill="#C37565"/>
<path d="M186.312 65.8839C186 66.364 185.688 67.0441 185.019 66.7425C184.372 66.4508 184.783 65.8263 184.953 65.3594C185.312 64.3744 184.873 63.3834 185.012 62.4006C185.128 62.3997 185.243 62.3993 185.359 62.3984C185.806 63.5244 186.389 64.6136 186.312 65.8839Z" fill="#C37565"/>
<path d="M81.3378 122.556C81.9892 122.026 82.7538 122.137 83.4774 122.251C95.5677 124.152 104.426 132.858 105.862 144.5C105.973 145.391 105.91 146.305 105.927 147.208C105.405 147.575 105.006 147.224 104.641 146.941C97.8244 141.65 90.3297 141.636 82.4941 144.027C77.048 145.689 72.6476 148.754 69.4337 153.479C69.1343 153.919 68.8011 154.339 68.6371 154.858C67.6086 156.972 66.7825 159.14 66.7436 161.535C66.7359 162.017 66.6748 162.495 66.2473 162.823C62.7374 164.592 58.6445 164.047 55.7006 161.427C51.8696 158.018 50.1281 153.631 49.6283 148.631C48.8842 141.185 51.2869 134.714 56.0983 129.216C59.0798 125.809 62.9728 123.54 67.5193 122.623C70.6695 124.823 74.2229 123.878 77.6452 123.896C79.0116 123.903 80.0752 122.922 81.3378 122.556Z" fill="#AB4141"/>
<path d="M127.361 117.092C127.372 118.492 127.591 119.815 126.471 121.116C125.76 121.942 125.761 123.393 126.73 124.459C127.839 125.681 129.001 126.883 130.616 127.345C132.537 127.894 133.305 129.543 134.381 130.91C136.062 133.045 135.815 135.569 135.681 138.032C135.63 138.972 135.065 139.781 134.432 140.493C131.861 140.093 130.968 142.418 129.408 143.636C128.913 144.023 129.603 144.732 129.354 145.285C127.939 146.174 126.297 146.898 124.758 146.434C123.425 146.033 122.035 145.894 120.7 145.492C118.684 144.883 117.464 143.614 116.263 142.123C116.049 141.856 115.862 141.588 115.915 141.273C116.194 139.605 115.119 138.166 115.18 136.485C115.217 135.474 114.2 134.541 113.43 133.875C112.909 133.424 112.67 133.087 112.707 132.491C112.791 131.158 111.712 130.026 112.065 128.652C112.079 128.576 112.092 128.501 112.105 128.425C112.382 127.61 112.151 126.71 112.524 125.91C113.043 124.506 112.989 123.111 112.536 121.697C111.813 119.443 111.432 117.208 113.19 115.195C114.038 114.591 114.84 115.081 115.617 115.349C117.881 116.132 120.117 116.995 122.393 117.752C123.859 118.239 125.191 118.331 126.463 117.32C126.711 117.122 127.021 117.003 127.361 117.092Z" fill="#ADDCE5"/>
<path d="M22.1551 140.757C20.9399 137.826 20.4585 134.78 21.8903 131.875C22.5199 130.597 22.9769 128.872 24.8179 128.431C25.1699 128.347 25.6462 127.948 25.7038 127.399C26.2736 126.711 27.0874 126.502 27.8929 126.251C30.7202 125.37 31.4613 123.977 30.6408 121.138C30.4947 120.631 30.3512 120.126 30.3499 119.592C30.3486 119.164 30.3841 118.747 30.6532 118.389C34.6021 118.175 37.9731 116.156 41.5846 114.886C42.0848 114.71 42.5931 114.517 43.1049 114.868C45.0082 117.041 45.3815 120.448 43.8946 122.933C43.3394 123.861 43.6392 124.632 43.9408 125.497C44.2932 126.509 45.0842 127.502 44.2539 128.64C44.5798 131.415 43.79 133.757 41.5509 135.517C40.885 136.04 41.0554 136.749 41.0264 137.424C40.9503 139.178 41.0716 140.807 39.9367 142.528C38.6912 144.416 36.9531 145.113 35.1647 145.866C34.0473 146.336 32.832 146.761 31.5092 146.579C30.3571 146.421 29.0386 146.926 28.3013 145.475C28.2026 145.281 27.6123 145.337 27.2497 145.277C26.9686 144.609 27.6678 143.79 26.946 143.195C25.8533 142.295 24.8905 141.231 23.6544 140.512C23.1205 140.202 22.645 140.607 22.1551 140.757Z" fill="#ACDCE5"/>
<path d="M66.2466 162.82C66.1326 159.877 66.8878 157.148 68.2743 154.574C74.9467 151.508 81.491 148.028 88.9502 147.245C94.3647 146.677 99.3162 147.976 103.51 151.613C104.077 152.105 104.679 152.537 105.292 152.961C104.314 156.59 102.549 159.685 99.4845 162.001C96.6683 164.129 93.548 164.368 90.2872 163.649C88.1233 163.171 86.0196 162.429 83.8749 161.857C78.3417 160.381 72.8691 160.538 67.4725 162.533C67.0817 162.677 66.6558 162.726 66.2466 162.82Z" fill="#F67E72"/>
<path d="M127.361 117.089C125.877 118.693 124.195 118.85 122.142 118.172C119.213 117.206 116.411 115.87 113.39 115.182C111.895 115.288 110.652 114.453 109.289 114.069C106.894 113.395 104.567 112.501 102.148 111.905C101.634 111.778 101.113 111.642 100.828 111.12C99.3549 110.818 98.7373 109.73 98.5626 108.411C98.3742 106.99 98.8368 105.767 100.216 105.078C101.9 104.237 103.751 103.921 105.549 103.455C110.54 102.161 115.539 100.898 120.542 99.6546C121.523 99.4107 122.558 99.2518 123.485 99.86C124.64 100.618 125.273 101.701 125.121 103.101C124.973 104.458 124.166 105.373 122.841 105.661C119.778 106.326 116.697 106.913 113.622 107.532C112.998 107.658 112.374 107.784 111.467 107.967C115.493 109.264 119.265 110.467 123.026 111.701C123.829 111.964 124.63 112.275 125.374 112.673C127.146 113.622 127.798 115.122 127.361 117.089Z" fill="#393F50"/>
<path d="M42.9053 114.928C40.1946 115.978 37.4754 117.006 34.7776 118.088C33.4449 118.622 32.1331 118.837 30.7688 118.263C30.6279 118.288 30.4938 118.266 30.3656 118.203C29.9146 117.992 30.1008 117.445 29.8112 117.148C29.6211 114.273 29.9987 113.451 32.6948 112.361C35.9463 111.047 39.2882 109.957 42.582 108.746C43.0514 108.573 43.6374 108.613 44.0906 107.954C41.2514 107.384 38.5155 106.838 35.7805 106.287C34.6653 106.062 33.5914 105.753 32.9627 104.681C32.2519 103.47 32.2331 102.243 33.0037 101.061C33.8665 99.7367 35.2073 99.6218 36.5614 99.9122C38.7449 100.38 40.9101 100.943 43.0681 101.521C46.4058 102.416 49.7302 103.358 53.0611 104.279C53.1632 104.308 53.2738 104.307 53.3751 104.338C55.0469 104.846 56.424 105.69 56.6679 107.6C56.8708 109.188 56.0746 110.117 53.8372 111.109C51.6289 112.513 49.0647 113.026 46.6552 113.914C45.4532 114.357 44.3192 115.216 42.9053 114.928Z" fill="#3B4152"/>
<path d="M100.827 111.117C105.099 112.211 109.329 113.434 113.39 115.179C113.328 115.544 113.393 116.019 113.185 116.256C111.549 118.119 112.641 119.92 113.103 121.824C113.439 123.206 113.956 124.776 112.72 126.092C111.978 126.81 112.745 127.915 112.064 128.648L112.064 128.647C111.791 128.687 111.451 128.786 111.48 129.076C111.651 130.814 110.434 130.73 109.408 130.528C106.134 129.884 103.016 129.036 100.395 126.614C97.8306 124.245 96.4249 121.466 96.1088 118.128C95.8756 115.665 97.0524 113.53 98.3394 111.506C98.5517 111.173 98.8921 111.061 99.3175 111.218C99.8211 111.404 100.348 111.499 100.827 111.117Z" fill="#FDB59F"/>
<path d="M42.9062 114.935C46.4486 113.371 50.137 112.225 53.8377 111.116C54.2427 111.495 54.8791 111.532 55.1781 111.307C56.6496 110.201 56.9444 111.421 57.3331 112.342C58.5906 115.322 59.8045 118.331 58.6077 121.639C57.4659 124.794 55.425 127.212 52.3611 128.623C50.7474 129.367 49.2267 130.394 47.3323 130.46C46.4191 130.492 45.496 130.898 45.4431 129.409C45.4187 128.732 44.819 128.639 44.2539 128.639C44.3351 127.336 43.702 126.234 43.2236 125.098C42.8977 124.323 42.7978 123.603 43.2932 122.875C44.7327 120.761 44.6507 117.849 43.1181 115.684C42.9767 115.484 42.9737 115.187 42.9062 114.935Z" fill="#FDB69F"/>
<path d="M162.585 123.492C166.046 123.587 169.099 126.665 169.277 130.663C169.46 134.75 168.056 138.333 164.47 140.588C161.967 142.161 159.104 142.474 156.184 141.785C154.89 141.354 154.526 140.488 154.538 139.119C154.574 135.304 154.975 131.595 156.91 128.222C158.207 125.961 159.887 124.1 162.585 123.492Z" fill="#F07466"/>
<path d="M105.292 152.967C104.703 153.301 104.259 152.97 103.874 152.604C98.5718 147.569 92.3103 146.701 85.4636 148.333C80.809 149.443 76.3487 151.057 72.1533 153.381C70.9513 154.046 69.7523 154.781 68.2744 154.58C69.6421 152.023 71.578 149.997 73.7816 148.107C77.9416 144.54 82.9379 142.891 88.1196 142.262C94.2243 141.521 100.218 142.366 105.106 146.779C105.328 146.98 105.652 147.068 105.928 147.209C106.014 149.161 105.543 151.052 105.292 152.967Z" fill="#EC6F64"/>
<path d="M73.6221 116.481C72.6666 116.482 71.7081 116.531 70.756 116.472C68.3849 116.326 66.9514 113.839 68.0598 111.753C68.8313 110.301 69.9043 109.195 71.685 108.975C73.6456 108.733 75.5823 108.587 77.4908 109.272C79.2211 109.893 80.3514 111.439 80.3697 113.25C80.3898 115.193 79.1336 116.307 76.6467 116.47C75.6429 116.536 74.6306 116.48 73.6221 116.481Z" fill="#FB887B"/>
<path d="M105.608 92.7715C101.555 92.7134 98.2604 91.2363 96.0029 87.7453C95.3486 86.7334 94.93 85.6715 95.0047 84.446C95.0551 83.622 95.4336 83.0232 96.205 82.7178C97.0388 82.3876 97.8089 82.5584 98.3796 83.2333C98.8584 83.7989 99.2403 84.4481 99.6486 85.0713C101.137 87.3403 103.189 88.7016 105.912 89.0024C106.228 89.0374 106.534 89.1613 106.85 89.1929C107.998 89.3086 108.584 89.9404 108.561 91.0826C108.537 92.2606 107.653 92.5383 106.721 92.7048C106.358 92.7693 105.98 92.7514 105.608 92.7715Z" fill="#4C4453"/>
<path d="M46.9684 92.7511C46.6493 92.7511 46.3251 92.7866 46.0116 92.7447C44.9561 92.6029 43.9438 92.3154 43.9156 91.0062C43.8896 89.8013 44.743 89.3737 45.7921 89.2528C49.2238 88.8577 51.7242 87.1196 53.3705 84.0908C53.9719 82.9845 54.8228 82.1361 56.2046 82.7226C57.6671 83.3433 57.6368 84.6986 57.2417 85.8728C56.0393 89.4467 53.4046 91.5248 49.8158 92.4316C48.894 92.6644 47.9248 92.7097 46.9774 92.8412C46.974 92.8113 46.9714 92.7814 46.9684 92.7511Z" fill="#4B444E"/>
<path d="M29.8111 117.152C30.0174 117.452 30.2233 117.752 30.4296 118.052C30.5218 118.594 30.298 119.196 30.7354 119.673C30.8789 120.232 30.9921 120.8 31.1715 121.347C31.9344 123.672 31.3501 125.094 29.1721 126.187C28.067 126.741 26.9227 127.173 25.7037 127.395C25.2953 127.313 25.083 127.097 25.0177 126.652C24.5072 123.167 24.9267 119.946 27.3862 117.186C28.4126 116.034 28.6373 115.986 29.501 117.319C29.5292 117.362 29.5343 117.455 29.5608 117.46C29.8094 117.499 29.7701 117.291 29.8111 117.152Z" fill="#FAB69E"/>
<path d="M81.3375 122.553C80.3333 124.058 78.7281 124.331 77.1396 124.426C75.0184 124.551 72.8852 124.5 70.7576 124.494C69.3339 124.489 68.2366 123.87 67.5186 122.619C68.8483 121.514 70.5111 121.757 72.0279 121.655C74.5071 121.487 77.0063 121.625 79.4965 121.598C80.309 121.589 80.9582 121.781 81.3375 122.553Z" fill="#F7F9F0"/>
<path d="M129.353 145.284C128.357 144.213 128.55 143.394 129.775 142.612C130.471 142.168 131.074 141.531 131.604 140.886C132.459 139.846 133.351 139.638 134.431 140.492C134.055 142.748 131.605 145.061 129.353 145.284Z" fill="#F6F9F8"/>
<path d="M22.1543 140.752C22.6656 139.239 23.6015 139.844 24.3754 140.396C25.1892 140.977 25.8055 141.805 26.6692 142.357C27.8387 143.105 28.1877 144.076 27.2484 145.272C24.6779 144.748 23.3499 142.825 22.1543 140.752Z" fill="#F4F9F7"/>
<path d="M152.394 118.395C150.523 116.992 150.443 116.557 151.747 114.898C153.454 114.37 154.96 113.198 156.864 113.304C155.485 114.309 153.895 115.058 153.003 116.643C152.688 117.202 152.311 117.71 152.394 118.395Z" fill="#E59484"/>
<path d="M144.652 114.297C145.674 114.645 146.69 114.984 147.785 115.07C148.099 115.095 148.076 115.557 147.81 115.673C146.645 116.183 146.777 116.837 147.425 117.708C147.591 117.931 147.131 118.045 146.884 118.107C145.639 117.131 144.988 115.806 144.652 114.297Z" fill="#BE695D"/>
<path d="M41.9727 55.0412C42.3729 53.7803 43.3049 53.3737 44.5351 53.4454C43.9046 54.3369 42.8714 54.5812 41.9727 55.0412Z" fill="#CA8572"/>
<path d="M143.128 101.141C143.719 102.835 143.292 104.58 143.392 106.3C142.877 104.602 143.185 102.862 143.128 101.141Z" fill="#C57868"/>
<path d="M67.3789 22.4274C67.8031 22.4274 68.2434 22.3535 68.6484 22.4419C69.6859 22.6683 70.5786 23.1838 70.7568 24.3192C70.9251 25.3935 70.1421 25.9599 69.2912 26.3456C66.7835 27.4826 64.0643 27.5886 61.3899 27.7581C60.3554 27.8235 59.1457 27.3447 59.0175 26.0722C58.8954 24.8574 59.9466 24.1099 60.8983 23.7737C62.9819 23.0386 65.1078 22.3291 67.3789 22.4274Z" fill="#F1B79F"/>
<path d="M135.457 46.1023C134.357 46.057 133.582 45.5175 133.522 44.4232C133.455 43.2237 134.226 42.6065 135.406 42.5715C136.462 42.5403 137.224 43.1362 137.264 44.1177C137.307 45.1916 136.706 46.022 135.457 46.1023Z" fill="#E8A995"/>
<path d="M149.671 40.9531C150.58 41.0232 151.323 41.5481 151.386 42.6737C151.445 43.7373 150.769 44.2007 149.76 44.1618C148.71 44.1213 147.859 43.8073 147.884 42.5161C147.905 41.467 148.465 40.9792 149.671 40.9531Z" fill="#ECAD96"/>
<path d="M53.1776 232.305C54.4287 232.96 54.7406 234.346 55.462 235.387C57.4555 238.264 59.8988 240.515 63.1348 241.885C63.5649 242.067 63.9605 242.33 64.3723 242.555C65.0177 243.723 65.7263 244.833 66.8681 245.6C67.5647 246.069 68.1277 247.057 69.0132 245.71C69.3254 245.235 69.6214 245.952 69.8884 246.227C70.7828 247.149 71.3941 248.424 73.0382 248.334C75.2187 248.215 75.9949 247.053 75.0628 245.091C74.8117 244.563 74.5191 244.053 74.2965 243.514C74.0864 243.005 73.6148 242.377 74.3879 242C75.0449 241.681 75.499 242.206 75.8086 242.715C76.3584 243.618 76.8953 244.536 77.3523 245.488C77.8448 246.514 78.6077 246.956 79.6726 246.623C80.6264 246.324 81.0664 245.616 81.0595 244.553C81.0518 243.398 80.7255 242.361 80.2847 241.328C80.1036 240.903 79.8212 240.384 80.4286 240.087C80.9382 239.838 81.3824 240.136 81.6592 240.556C82.0082 241.086 82.2987 241.657 82.581 242.227C83.0979 243.271 83.7518 243.237 84.6189 242.615C86.1929 241.484 86.4052 239.946 85.9982 238.235C85.8034 237.415 85.4557 236.632 85.1772 235.832C85.4108 234.93 86.0165 235.283 86.5112 235.478C88.2599 236.166 89.1864 237.924 88.8605 239.799C88.7691 240.326 88.5508 240.801 88.3927 241.3C88.3026 243.191 88.3355 245.025 89.8878 246.467C90.7732 247.289 91.2315 247.103 91.5331 246.01C91.7441 245.244 92.0162 244.495 92.2315 243.731C92.4028 243.122 92.6902 242.56 93.3758 242.606C94.1541 242.658 94.2036 243.342 94.1545 243.942C94.0806 244.84 93.9478 245.732 93.8316 246.626C93.7034 247.612 93.9076 248.458 94.9306 248.836C95.9814 249.223 96.5666 248.648 97.1317 247.796C98.2786 246.066 98.1325 244.034 98.6049 242.151C99.0316 240.449 99.9688 239.027 101.217 237.934C103.469 235.962 106.308 236.427 107.932 238.952C108.669 240.098 109.096 241.441 110.775 241.544C111.007 241.559 111.216 241.973 111.435 242.201C111.601 242.467 111.793 242.72 111.927 243.001C113.055 245.374 113.056 245.393 115.629 244.716C116.141 244.581 116.638 244.447 117.168 244.464C117.711 245.034 118.015 245.763 118.462 246.397C117.763 246.863 117.046 247.303 116.369 247.799C115.065 248.755 114.875 250.058 115.864 251.34C116.765 252.51 117.302 253.672 116.95 255.271C116.725 256.293 117.093 257.446 117.195 258.54C117.395 258.827 117.322 259.155 117.327 259.468C117.333 259.783 117.369 260.146 116.957 260.243C116.583 260.331 116.375 260.066 116.2 259.786C116.058 259.559 115.944 259.314 115.875 259.058C115.634 258.169 115.14 257.828 114.219 258.176C113.667 258.384 113.065 258.332 112.479 258.349C111.123 258.389 110.341 257.715 109.815 256.492C108.92 254.412 107.475 252.786 105.428 251.749C105.042 251.554 104.657 251.34 104.402 251.003C103.635 249.988 102.669 249.552 101.378 249.61C100.561 249.647 99.8432 249.206 99.3259 248.533C98.722 247.746 98.3068 248.017 97.9287 248.749C97.5371 249.508 97.2235 250.3 96.8784 251.079C96.5956 251.718 96.2808 252.345 95.4957 252.507C95.2856 252.545 95.0383 252.621 94.8657 252.526C91.9974 250.959 88.6149 250.085 86.8768 246.96C86.4005 246.103 86.0323 245.914 85.1682 246.305C84.3964 246.655 83.4866 246.785 83.0355 247.596C81.9228 249.595 80.1215 250.279 77.976 250.359C77.656 250.371 77.3425 250.434 77.0303 250.497C75.9914 250.501 75.3225 251.187 74.6165 251.812C71.5128 252.183 68.4673 252.308 65.9625 249.924C65.3859 249.375 64.755 248.877 64.7037 247.992C64.6892 246.002 63.1036 245.137 61.8406 244.073C60.9201 243.298 59.8971 242.645 58.9198 241.937C56.3172 239.901 54.6205 237.146 52.9944 234.355C52.6369 233.742 52.0953 232.891 53.1776 232.305Z" fill="#EB7A6C"/>
<path d="M88.3916 241.3C88.8273 237.939 88.451 236.994 86.267 235.801C85.8642 235.581 85.5289 235.391 85.1761 235.833C83.5196 233.501 81.3369 231.749 78.9675 230.204C78.3738 229.817 77.8672 229.431 77.8172 228.609C77.572 224.543 76.6297 220.632 74.9575 216.92C73.9011 214.574 74.0622 212.042 73.6705 209.598C73.1293 206.22 73.2839 202.803 73.3732 199.403C73.4189 197.664 73.7615 195.934 73.937 194.197C73.9908 193.666 74.1233 193.204 74.7055 193.16C75.3423 193.112 75.6413 193.586 75.7913 194.133C75.8605 194.385 75.9164 194.673 75.866 194.921C75.3547 197.44 75.6857 200.008 75.365 202.547C75.0305 205.192 75.4999 207.855 75.7925 210.482C75.9489 211.888 76.08 213.329 76.3948 214.721C77.0488 217.611 78.7518 220.154 79.1849 223.128C79.4292 224.804 79.7992 226.463 80.0426 228.14C80.1242 228.701 80.1874 229.197 80.7517 229.455C83.1305 230.542 84.7532 232.55 86.6352 234.246C88.0362 235.509 89.2711 235.478 90.7477 234.265C92.4888 232.836 94.4336 231.75 96.5761 231.074C97.2463 230.862 97.7256 230.578 98.0122 229.954C99.3432 227.058 101.761 225.093 104.056 223.057C107.153 220.309 110.34 217.661 113.537 215.028C115.17 213.683 115.007 211.675 115.528 209.951C116.602 206.399 117.435 202.775 118.377 199.183C118.47 198.826 118.608 198.477 118.762 198.141C118.949 197.731 119.232 197.403 119.744 197.511C120.257 197.619 120.35 198.026 120.395 198.481C120.487 199.406 120.229 200.28 120.012 201.153C118.976 205.324 117.902 209.486 116.878 213.66C116.664 214.535 116.183 215.122 115.539 215.738C112.158 218.97 108.408 221.78 105.031 225.021C103.076 226.897 101.137 228.74 99.6785 231.05C99.1616 231.869 98.3184 232.335 97.3749 232.676C94.1303 233.85 91.637 236.025 89.5398 238.714C88.9336 239.493 89.1664 240.615 88.3916 241.3Z" fill="#ED8B7A"/>
<path d="M95.3994 252.172C96.5792 251.784 96.4784 250.581 96.9435 249.739C97.1234 249.413 97.2711 249.069 97.4373 248.736C98.4048 246.793 98.4257 246.777 99.7558 248.394C100.415 249.196 101.275 249.283 102.19 249.251C102.502 249.24 103.033 248.986 103.088 249.076C104.15 250.789 106.169 251.25 107.52 252.551C107.781 252.802 107.851 253.368 108.215 253.574C109.494 254.296 110.047 255.416 110.44 256.795C110.774 257.968 112.408 258.517 114.025 257.765C115.701 256.985 116.02 257.75 116.332 259.046C116.409 259.363 116.418 259.799 116.91 260.003C117.349 259.589 117.08 259.017 117.194 258.543C117.339 260.52 118.672 260.46 120.202 260.526C125.613 260.759 130.947 260.397 136.291 259.439C143.152 258.21 149.332 255.367 155.612 251.923C155.612 253.629 155.612 255.142 155.612 256.655C154.657 261.482 152.212 265.335 148.171 268.183C145.014 270.409 141.481 271.683 137.779 272.661C131.204 274.399 124.536 275.442 117.754 275.908C114.359 276.142 110.964 276.284 107.567 276.408C106.362 276.452 105.304 276.979 104.21 277.294C101.151 278.175 98.1728 277.77 95.2448 277.008C93.6609 276.596 92.4124 275.401 91.5431 273.933C90.6376 272.998 90.4633 271.86 90.436 270.599C90.3693 267.548 90.8264 264.624 92.1266 261.85C92.6832 260.499 93.1458 259.106 93.836 257.811C94.7582 256.042 94.7651 254.02 95.3994 252.172Z" fill="#FA9685"/>
<path d="M64.7039 248C67.2591 251.628 71.0184 251.784 74.9161 251.54C75.7221 252.778 75.5051 254.281 75.9929 255.624C76.9156 258.164 77.6891 260.75 79.4276 262.899C79.6574 263.183 79.8407 263.522 79.7168 263.926C77.1031 263.956 74.5671 263.49 72.0713 262.748C70.9616 262.419 69.8502 262.086 68.7234 261.824C68.0985 261.679 67.4543 261.741 66.8841 262.123C64.05 264.02 60.8571 264.953 57.5745 265.724C54.8506 266.364 52.1096 266.85 49.3395 267.201C48.1944 267.624 46.9646 267.089 45.8194 267.51C45.3005 267.522 44.7815 267.533 44.2621 267.545C43.4082 267.793 42.4668 267.647 41.6633 268.122C41.5702 268.167 41.472 268.186 41.369 268.177C40.7198 268.453 40.2969 269.028 39.7339 269.418C38.1402 270.332 36.4598 271.018 34.6526 271.378C33.3502 271.607 32.0479 271.601 30.7451 271.381C26.4506 271.158 24.34 268.048 22.2756 264.917C21.6144 263.915 21.1147 262.806 20.541 261.746C20.5854 260.405 21.6665 260.256 22.5708 260.233C23.25 260.214 23.965 260.672 23.399 261.617C22.8241 262.575 23.396 262.604 24.1529 262.742C25.7889 263.04 27.0464 261.798 28.6145 261.756C29.113 261.743 29.4662 261.413 29.9596 261.935C30.6016 262.614 31.2999 262.748 31.4187 261.48C31.499 260.621 32.0491 260.467 32.7599 260.479C33.3464 260.488 33.9341 260.506 34.5189 260.473C35.4684 260.421 36.2001 260.556 36.2864 261.757C36.3244 262.285 36.6747 262.833 37.2949 262.837C37.9326 262.84 38.3948 262.475 38.4563 261.763C38.5204 261.023 39.0107 260.495 39.6387 260.414C41.1657 260.218 42.5616 258.925 44.227 259.826C44.3518 259.893 44.6247 259.935 44.6636 259.877C46.2697 257.498 49.146 258.299 51.2672 257.226C51.5987 257.059 51.9968 256.958 52.2493 256.709C53.7947 255.188 55.8398 254.554 57.6894 253.573C58.8102 252.978 60.019 252.5 60.6824 251.291C60.8054 251.067 61.0121 250.845 61.236 250.728C62.3119 250.165 63.4464 249.706 63.8813 248.388C63.9475 248.191 64.4199 248.126 64.7039 248Z" fill="#F79182"/>
<path d="M92.5136 261.732C91.9177 264.125 90.799 266.377 90.6243 268.886C90.5013 270.654 90.7037 272.346 91.5427 273.93C90.5367 273.576 90.2552 272.821 90.2839 271.821C90.3249 270.391 90.2561 268.958 90.3091 267.528C90.3441 266.588 90.0404 266.19 89.0451 266.215C86.8778 266.271 84.7972 265.91 82.9985 264.568C82.4808 264.182 81.8687 264.379 81.3044 264.283C80.1323 263.508 79.6612 262.287 79.2622 261.031C79.1012 260.524 79.0119 259.997 79.5527 259.615C80.1751 259.321 80.782 259.488 81.4035 259.644C84.5755 260.44 87.7488 261.234 91.0502 261.272C91.5751 261.278 92.1133 261.301 92.5136 261.732Z" fill="#F3C9BF"/>
<path d="M79.362 259.873C79.6524 261.5 80.6199 262.828 81.3046 264.281C80.7369 264.327 80.1795 264.33 79.7169 263.916C76.7632 260.312 75.1601 256.184 74.9158 251.53C74.7667 249.939 75.9845 250.363 76.8273 250.234C77.7905 251.356 77.6461 252.803 77.9759 254.112C78.1437 254.778 78.2275 255.462 78.4252 256.119C78.6405 257.394 79.4538 258.521 79.362 259.873Z" fill="#DD675D"/>
<path d="M30.7451 271.378C32.0475 271.377 33.3499 271.376 34.6526 271.375C33.3503 271.883 32.0479 271.861 30.7451 271.378Z" fill="#FB9C8A"/>
<path d="M45.8193 267.513C46.9449 266.864 48.1695 267.347 49.3394 267.204C48.2075 267.775 46.9961 267.45 45.8193 267.513Z" fill="#FB9C8A"/>
<path d="M41.6631 268.116C42.3448 267.093 43.3764 267.646 44.2618 267.54C43.4533 267.992 42.5797 268.151 41.6631 268.116Z" fill="#FB9C8A"/>
<path d="M39.7344 269.411C40.0227 268.66 40.4558 268.099 41.3691 268.17C40.9347 268.729 40.566 269.375 39.7344 269.411Z" fill="#FB9C8A"/>
<path d="M178.315 77.4973C177.566 77.238 176.323 77.8898 176.262 76.8058C176.199 75.6807 177.418 75.8349 178.246 75.8447C179.027 75.8541 179.622 75.5858 179.849 74.8191C180.113 73.9302 180.465 73.9405 181.011 74.5919C181.243 74.8691 181.514 75.1288 181.812 75.333C182.177 75.5837 182.833 75.5491 182.729 76.2334C182.617 76.9723 181.96 77.0727 181.402 77.1594C180.365 77.3209 179.315 77.3927 178.315 77.4973Z" fill="#C37565"/>
<path d="M183.712 73.7253C183.713 74.216 183.649 74.5432 183.317 74.6851C182.846 74.8858 182.825 74.4612 182.715 74.1879C182.503 73.6603 181.962 73.4591 181.618 73.0692C180.95 72.311 181.276 71.1961 182.218 70.8741C182.441 70.7976 182.79 70.8382 182.763 70.9774C182.529 72.1393 183.611 72.8492 183.712 73.7253Z" fill="#C37565"/>
<path d="M118.46 246.404C117.349 246.214 117.249 245.348 117.167 244.47C119.366 243.726 121.536 242.934 123.647 241.935C125.865 240.886 127.859 239.538 129.819 238.105C131.305 237.018 132.853 236.222 134.811 236.443C136.06 236.585 137.339 236.47 138.671 236.47C138.553 237.425 137.734 237.566 137.323 238.065C133.157 238.548 129.512 240.401 125.911 242.383C123.438 243.743 120.945 245.065 118.46 246.404Z" fill="#DD6B5F"/>
<path d="M16.7216 252.45C16.5815 251.847 16.1987 251.251 16.666 250.629C17.7873 249.138 16.7382 248.211 15.775 247.282C15.5115 247.028 15.1621 246.865 14.875 246.632C14.5773 246.39 14.5337 246.033 14.8139 245.804C15.2274 245.466 15.2825 245.964 15.4615 246.17C16.4824 247.341 17.6309 248.202 19.3139 247.683C20.5056 247.316 20.7363 246.491 19.8577 245.588C18.7919 244.494 17.8296 243.353 17.3661 241.553C18.6292 242.228 18.9589 243.366 19.6411 244.154C20.7585 245.447 21.8943 245.04 23.0852 244.613C23.9655 244.298 23.8113 243.551 23.57 242.865C23.1684 241.722 22.743 240.587 22.3295 239.448C22.0715 238.738 22.0062 238.043 22.3962 237.336C22.9288 237.566 22.9562 238.008 22.9882 238.309C23.2872 241.126 24.8014 242.837 27.5352 243.522C28.5313 243.771 28.0939 244.144 27.5757 244.49C26.258 244.929 24.6669 244.709 23.7383 246.085L23.7374 246.086C23.2257 246.192 22.7148 246.382 22.2022 246.387C21.462 246.394 21.2313 246.693 21.1408 247.412C21.0408 248.204 20.6 249.008 19.8418 249.263C18.5173 249.709 17.6886 250.455 17.411 251.846C17.364 252.084 16.9603 252.251 16.7216 252.45Z" fill="#EE7C6C"/>
<path d="M145.001 96.5449C144.978 97.0131 144.901 97.4248 144.447 97.4458C143.978 97.4675 143.865 97.0131 143.851 96.6645C143.836 96.3061 143.966 95.8692 144.408 95.8448C144.886 95.8192 144.933 96.2604 145.001 96.5449Z" fill="#C57868"/>
<path d="M23.7393 246.078C24.2595 243.72 26.0706 244.469 27.5767 244.484C26.3957 245.251 25.2522 246.109 23.7393 246.078Z" fill="#FB9C8A"/>
<path d="M30.1144 245.858C30.049 246.23 29.9324 246.603 29.4762 246.578C29.0405 246.555 28.8697 246.221 28.9209 245.816C28.973 245.405 29.2511 245.16 29.659 245.181C30.0541 245.201 30.1191 245.524 30.1144 245.858Z" fill="#FB9C8A"/>
<path d="M112.063 128.649C112.321 127.808 111.394 126.661 112.719 126.094C112.453 126.934 113.271 128.052 112.063 128.649Z" fill="#FCCAB1"/>
<path d="M30.7354 119.667C29.7692 119.29 30.0716 118.674 30.4296 118.047C30.5428 118.119 30.6564 118.192 30.7696 118.263C30.758 118.731 30.7465 119.199 30.7354 119.667Z" fill="#FCCAB1"/>
<path d="M78.0932 256.367C77.4076 254.38 77.203 252.294 76.8271 250.244C77.2748 249.682 77.904 249.933 78.461 249.889C80.246 249.749 81.7756 249.198 82.6039 247.44C83.3561 245.844 85.1706 246.15 86.3888 245.372C86.7762 245.125 86.7984 245.712 86.8928 245.966C87.5929 247.844 88.5788 249.386 90.8149 249.646C91.4944 249.725 91.852 250.352 92.2966 250.795C93.1603 251.654 94.1509 252.195 95.3985 252.177C95.6694 254.246 95.0406 256.116 94.1406 257.928C93.637 256.978 92.8323 256.505 91.8007 256.211C90.3125 255.788 88.9098 255.128 87.7633 254.037C86.8685 253.185 85.8775 252.976 84.6866 253.385C83.0301 253.955 81.3685 254.556 79.5775 254.553C78.3311 254.55 78.7865 255.925 78.0932 256.367Z" fill="#F3CCC0"/>
<path d="M99.6015 244.915C99.93 243.626 99.6904 241.902 100.544 240.338C101.948 237.767 104.793 237.386 106.696 239.591C107.507 240.531 107.603 241.35 106.367 242.042C104.641 243.01 103.76 244.644 103.162 246.429C102.933 247.112 103.122 248.075 102.015 247.963C100.923 247.853 99.9812 247.364 99.6152 246.212C99.5229 245.923 99.6015 245.579 99.6015 244.915Z" fill="#FAB59B"/>
<path d="M109.216 242.535C110.587 242.219 111.128 243.452 111.553 244.362C112.016 245.351 110.911 245.768 110.209 246.191C108.954 246.947 107.905 247.888 107.261 249.227C107.004 249.759 106.796 250.311 106.025 250.245C105.205 250.174 104.825 249.618 104.558 248.959C104.031 247.657 104.779 245.13 106 243.985C106.829 243.209 108.242 242.547 109.216 242.535Z" fill="#F9B59C"/>
<path d="M108.212 250.646C108.305 248.867 110.6 246.649 112.207 246.737C113.416 246.803 114.076 247.733 114.53 248.68C114.923 249.499 114.476 250.189 113.709 250.679C112.861 251.221 112.089 251.89 111.213 252.377C110.667 252.681 110.103 253.396 109.354 252.805C108.627 252.231 107.997 251.569 108.212 250.646Z" fill="#F9AD96"/>
<path d="M114.276 251.852C115.333 251.915 115.89 252.605 116.273 253.663C116.637 254.671 116.299 255.175 115.506 255.763C114.762 256.314 114.002 256.733 113.116 256.872C111.873 257.066 110.625 255.613 110.943 254.405C111.193 253.454 113.205 251.859 114.276 251.852Z" fill="#F9A58C"/>
<path d="M78.0928 256.364C78.1756 254.189 78.1761 254.194 80.3118 254.07C82.1425 253.963 83.784 253.112 85.5388 252.695C86.2589 252.524 86.7168 252.588 87.2507 253.075C88.9264 254.604 90.8499 255.708 93.1022 256.125C94.2196 256.333 94.1649 257.113 94.1402 257.925C93.5981 259.196 93.0561 260.467 92.5136 261.737C88.5365 261.928 84.7075 261.137 80.9388 259.97C80.4105 259.807 79.8928 259.813 79.3618 259.88C78.7634 258.771 78.3196 257.607 78.0928 256.364Z" fill="#FAFBF5"/>
</svg>
