<svg width="273" height="233" viewBox="0 0 273 233" fill="none" xmlns="http://www.w3.org/2000/svg">
<path d="M220.213 98.6005C220.379 97.9857 219.44 96.5635 219.119 95.9297C219.138 96.8589 219.204 98.2031 219.563 99.0529L220.213 98.6005Z" fill="#1E3080"/>
<path d="M214.59 87.4272C214.364 87.8972 213.966 88.4794 213.934 88.9878C215.173 88.2173 216.277 87.0541 217.366 86.079L215.099 85.8359C214.987 86.4109 214.845 86.8983 214.59 87.4272Z" fill="#0C115D"/>
<path d="M198.945 112.088L197.645 112.899L194.764 114.748L195.112 115.441L199.993 112.474L199.632 112.078L198.945 112.088Z" fill="#0745AD"/>
<path d="M260.941 177.451C261.523 177.614 261.875 178.183 262.307 178.601L262.398 177.93L256.582 169.43L256.383 169.853C256.654 170.432 260.872 177.408 260.941 177.451Z" fill="#0745AD"/>
<path d="M58.5409 61.6255C58.412 60.754 58.8373 59.8385 59.373 59.1742C59.8254 58.6128 60.1233 58.4221 60.8282 58.3569L61.814 53.9453C59.8073 54.9219 58.6544 56.2408 57.9182 58.3407C57.5217 59.4727 57.3538 60.4973 57.9032 61.6193C58.1463 62.1157 58.428 62.3869 58.9035 62.6514L59.0451 62.5078C58.7925 62.2315 58.5986 62.0154 58.5409 61.6255Z" fill="#0E8CE8"/>
<path d="M217.366 86.0731C217.643 85.565 217.946 85.0248 218.118 84.4701C218.406 83.5389 218.243 82.3718 217.75 81.5388C217.026 80.3161 216.204 79.7778 214.863 79.4219L215.098 85.83L217.366 86.0731Z" fill="#F02502"/>
<path d="M202.991 91.5383C197.925 92.0793 192.916 91.9185 187.839 91.5545L187.784 92.0615L187.461 92.1867L187.476 92.2157C195.066 92.9184 203.51 93.2971 210.784 90.6806L210.585 89.7812C208.289 90.8471 205.498 91.2703 202.991 91.5383Z" fill="#0C3EAF"/>
<path d="M62.2861 50.0799C62.1667 49.3351 62.2991 48.307 62.8238 47.7245C63.1664 47.3443 63.5626 47.0091 64.088 46.9774C64.1561 46.2406 63.7637 45.9196 63.5713 45.2599C63.5102 45.0506 63.6512 44.5027 63.698 44.2892C63.9636 43.0825 64.3711 41.9105 64.7685 40.7422C63.2464 41.3362 61.8161 42.0208 61.1354 43.6392C60.4046 45.3763 60.7326 47.6155 61.4647 49.3153C61.6924 49.8442 61.9858 50.2262 62.3749 50.6423L62.4193 50.4978C62.345 50.3263 62.3198 50.2914 62.2861 50.0799Z" fill="#FE8D21"/>
<path d="M62.9269 60.2551L64.9109 52.7554L62.4167 50.4922L62.3723 50.6367L61.812 53.9426L60.8262 58.3543L62.9269 60.2551Z" fill="#0B5CCA"/>
<path d="M81.4249 19.1814C81.2984 15.3236 79.9041 11.6652 78.3689 8.17871C77.9174 7.15267 77.5697 6.01614 76.7402 5.23438C77.2732 9.41269 79.0021 13.2241 79.6271 17.3562C80.0515 20.1606 79.7822 22.714 79.6167 25.5114L81.3884 23.0802L81.4249 19.1814Z" fill="#0F9EF2"/>
<path d="M216.522 102.086C217.626 101.207 218.585 100.068 219.562 99.0496C219.203 98.1997 219.137 96.8556 219.118 95.9264C218.649 94.2968 218.514 92.2328 218.336 90.5312C217.927 90.8825 217.625 91.3503 217.222 91.7184C216.484 92.3924 215.632 92.9302 214.799 93.4769C215.286 94.6513 215.366 96.1574 215.58 97.4111L216.522 102.086Z" fill="#0B5CCA"/>
<path d="M60.7685 64.7542L60.9198 64.5114L59.0448 62.5078L58.9032 62.6514C58.9826 63.6473 58.5912 64.5925 58.3023 65.5297L57.1643 69.294L56.9735 69.3496C55.5341 69.7855 54.543 70.6544 53.853 71.9902C53.3588 72.947 53.0443 74.3864 53.2779 75.472C53.37 75.8999 53.7549 76.3621 53.9957 76.7254C54.2337 75.6031 54.5038 74.3837 55.2716 73.4944C55.646 73.3428 56.2515 73.0928 56.6356 73.2673C57.0605 73.4604 57.4523 74.0254 57.757 74.3749C57.8705 73.395 58.3102 72.2722 58.6048 71.3239L60.7685 64.7542Z" fill="url(#paint0_linear_4343_7458)"/>
<path d="M194.968 99.9738L200.559 98.4084C201.916 97.9598 203.091 97.8363 203.953 96.6023C199.141 97.1273 194.252 96.8606 189.428 96.5938C189.94 97.9512 190.576 99.6503 190.783 101.071C192.087 100.523 193.593 100.301 194.968 99.9738Z" fill="url(#paint1_linear_4343_7458)"/>
<path d="M211.939 98.219L212.094 99.6676L212.218 100.757L212.69 103.256C212.773 103.691 212.835 104.132 212.997 104.545C214.268 103.92 215.417 102.959 216.521 102.085L215.58 97.4108C215.366 96.1571 215.286 94.6509 214.798 93.4766C213.766 94.0264 212.729 94.5716 211.583 94.8467L211.477 95.3673L211.939 98.219Z" fill="#021347"/>
<path d="M181.86 65.6699C181.589 66.6178 181.67 67.9353 181.696 68.9231C181.706 69.3056 181.806 69.6276 181.717 69.9947L182.719 69.8473C182.911 69.9059 183.329 69.7197 183.523 69.6615C184.643 69.3248 185.69 68.8386 186.789 68.4533C187.186 68.3142 187.596 68.2692 188.012 68.2274L188.269 68.1077C188.739 67.4968 189.461 67.0974 190.081 66.6522C191.396 65.7076 193.496 64.1665 194.213 62.7031C190.22 64.0363 186.644 65.0396 182.408 65.2122C182.137 65.3592 181.949 65.3607 181.86 65.6699Z" fill="#0C115D"/>
<path d="M223.616 114.012C223.784 113.888 223.921 113.884 224.105 113.965C224.745 114.247 224.971 114.955 225.188 115.564L225.558 115.53L225.564 115.313C225.476 114.742 224.947 114.01 224.524 113.628C223.832 113.004 223.44 112.85 222.505 112.924L222.305 112.942L221.053 103.148L217.369 106.503L220.498 117.231L223.616 114.012Z" fill="#0B5CCA"/>
<path d="M215.36 114.669L215.553 115.396L216.697 119.554L216.973 120.388L220.498 117.228L217.369 106.5L213.863 108.667L214.774 112.436L215.36 114.669Z" fill="#021347"/>
<path d="M62.4781 76.7665C62.9054 75.537 63.3635 74.163 64.0618 73.0673C64.6232 71.9545 65.3304 70.8579 65.7589 69.6912C65.2425 69.2977 64.9365 68.7679 64.7092 68.1727C63.3793 67.1778 62.1251 65.6841 60.9202 64.5156L60.7689 64.7584C60.9072 65.4741 61.0876 66.2308 60.991 66.9616C60.8681 67.889 60.4127 68.8153 60.1512 69.715C59.6152 71.5601 59.3004 73.7333 58.4805 75.4476L61.3668 79.545C61.7891 78.8921 62.0026 78.0586 62.2821 77.3306L62.4781 76.7665Z" fill="#0C115D"/>
<path d="M60.9892 66.961C61.0858 66.2302 60.9055 65.4735 60.7672 64.7578L58.6037 71.3276C58.3091 72.2757 57.8693 73.3987 57.7559 74.3786L58.4787 75.447C59.2988 73.7327 59.6136 71.5595 60.1495 69.7144C60.4109 68.8147 60.8664 67.8885 60.9892 66.961Z" fill="#0745AD"/>
<path d="M42.2459 99.596L43.8346 100.818L49.6294 92.0407L48.6106 90.8088L48.1095 89.8231C47.8382 89.1417 47.7148 88.4869 48.0369 87.8076C48.275 87.3057 48.9484 86.6243 49.4977 86.4914C50.0784 86.3504 50.5632 86.6403 51.0429 86.9244C51.0699 86.5353 51.0338 86.0283 51.1943 85.6735C51.3126 85.412 51.2446 85.1541 51.3387 84.8719L51.8652 83.3172C51.9384 83.1022 52.0103 82.9017 52.055 82.6782L52.1613 82.2067C52.3191 81.9009 52.3061 81.9509 52.3084 81.6145C52.4788 81.3607 52.5747 81.1387 52.6967 80.8594C51.1601 80.9991 49.2956 82.2816 48.3229 83.4332C47.1627 84.8073 46.3013 86.9707 46.5056 88.7824C46.5876 89.5115 46.974 89.783 47.5296 90.1976L47.6406 90.276L47.2566 91.3501C46.3013 92.399 45.8348 93.7649 44.7892 94.7877C44.0489 95.5118 43.0418 95.882 42.1938 96.4576C40.5959 97.542 38.992 100.126 39.086 102.069L39.0955 102.219L39.6776 102.351C40.4589 101.331 41.2829 100.446 42.2459 99.596Z" fill="url(#paint2_linear_4343_7458)"/>
<path d="M53.2207 89.7991L55.4612 92.6766C55.8716 92.3129 56.2184 91.8975 56.5628 91.4728C57.2125 90.1826 57.7404 88.4861 58.6626 87.4C59.2344 86.5087 59.734 85.3896 60.1287 84.4097L57.2409 80.9297L54.2397 87.1927C53.8976 87.9743 53.3596 88.9685 53.2207 89.7991Z" fill="#0C115D"/>
<path d="M53.2213 89.8056C53.3601 88.975 53.8982 87.9809 54.2403 87.1991L57.2414 80.9361L55.9078 79.2734C54.8115 82.3502 53.5947 85.3109 51.916 88.1157L53.2213 89.8056Z" fill="#0C3EAF"/>
<path d="M52.1594 82.214L52.0531 82.6854C52.0083 82.909 51.9364 83.1094 51.8633 83.3244L51.3368 84.8791C51.2427 85.1613 51.3107 85.4192 51.1923 85.6807C51.0318 86.0355 51.0679 86.5424 51.041 86.9316L51.9146 88.1143C53.5933 85.3094 54.8101 82.3487 55.9063 79.272L54.364 77.3359C53.9681 78.4496 53.5766 79.8589 52.8627 80.7947L52.6948 80.8666C52.5728 81.1458 52.4769 81.368 52.3066 81.6218C52.3042 81.9581 52.3172 81.908 52.1594 82.214Z" fill="#0E8CE8"/>
<path d="M63.5698 45.2623C63.7622 45.9221 64.1546 46.243 64.0865 46.9798L66.443 48.6488C67.5911 44.161 68.7027 39.0938 71.046 35.0665C71.6027 34.11 72.2454 33.0176 73.0277 32.2338C73.526 31.7349 74.1754 31.3283 74.8343 31.0789C75.388 30.8695 76.0579 30.7943 76.4891 30.3617L76.6916 30.1431C75.2974 29.2651 73.9604 28.603 72.2516 28.9563C70.5462 29.3089 69.0715 30.9072 68.214 32.3463C66.6862 34.9093 65.7831 37.9419 64.7671 40.7446C64.3697 41.9128 63.9622 43.0849 63.6966 44.2916C63.6497 44.5051 63.5087 45.053 63.5698 45.2623Z" fill="#1E3080"/>
<path d="M221.275 121.196L224.996 132.362C226.043 131.116 227.053 129.787 228.408 128.863C229.22 129.749 229.835 130.574 230.014 131.787L230.22 132.136L230.631 132.131C230.683 131.644 230.53 131.217 230.343 130.774C229.789 129.459 229.051 128.642 227.737 128.126L227.537 128.05C226.288 125.702 225.033 123.027 224.472 120.409C224.406 120.098 224.147 119.07 224.221 118.794C224.3 118.498 225.143 117.708 225.347 117.362C225.695 116.769 225.758 116.324 225.594 115.66L225.558 115.523L225.188 115.558C225.178 118.122 222.486 119.231 221.275 121.196Z" fill="#0B79DF"/>
<path d="M218.404 124.777C218.659 125.234 218.833 125.642 218.963 126.151C219.059 126.437 219.155 126.711 219.211 127.008L222.127 134.854L222.48 135.074L224.997 132.361L221.276 121.195L218.271 124.292L218.404 124.777Z" fill="#021347"/>
<path d="M200.559 98.4038L194.968 99.9692C193.593 100.296 192.087 100.519 190.783 101.066L191.055 101.848C196.461 100.689 201.51 99.0416 206.713 97.1952C208.226 96.6584 209.693 95.9442 211.213 95.449L211.478 95.3644L211.584 94.8438L203.953 96.5977C203.09 97.8317 201.916 97.9552 200.559 98.4038Z" fill="#0745AD"/>
<path d="M208.146 70.9389C209.806 72.1115 211.672 73.1379 212.068 75.3058C212.413 77.1972 212.259 79.2934 212.249 81.2078L212.302 90.0122L213.931 88.979C213.964 88.4706 214.362 87.8884 214.588 87.4185C214.843 86.8896 214.985 86.4021 215.096 85.8271L214.861 79.419C214.591 78.4637 214.62 77.2976 214.471 76.3005C214.061 73.556 212.81 71.2955 210.405 69.8219C209.718 69.4011 208.903 69.1154 208.265 68.6288L208.081 68.4844C207.828 69.3176 207.757 70.1423 208.146 70.9389Z" fill="url(#paint3_linear_4343_7458)"/>
<path d="M212.07 75.3122C211.674 73.1443 209.808 72.118 208.149 70.9453L207.789 71.0135L210.584 89.7792L210.783 90.6785L212.304 90.0187L212.251 81.2144C212.261 79.2998 212.415 77.2036 212.07 75.3122Z" fill="#0C115D"/>
<path d="M193.469 105.929L203.686 107.528C204.208 107.585 205.154 107.823 205.629 107.672C206.042 107.541 206.615 107.058 207.011 106.829L212 103.821C211.943 102.878 211.672 101.557 212.22 100.762L212.096 99.6719C210.158 100.078 208.292 101.055 206.459 101.782C202.214 103.467 197.988 105.132 193.469 105.929Z" fill="#0F9EF2"/>
<path d="M211.998 103.817C212.275 103.666 212.466 103.477 212.69 103.257L212.218 100.758C211.67 101.553 211.941 102.874 211.998 103.817Z" fill="#0B79DF"/>
<path d="M211.998 103.816L207.01 106.824C206.614 107.054 206.04 107.536 205.627 107.668C205.153 107.819 204.207 107.58 203.684 107.523L193.467 105.925C197.986 105.128 202.212 103.463 206.458 101.778C208.291 101.05 210.156 100.074 212.094 99.6674L211.939 98.2188C210.513 99.4855 208.131 100.291 206.375 100.983C201.751 102.804 197.133 104.393 192.252 105.398L192.484 106.678L204.587 108.532C203.562 109.346 202.515 110.062 201.419 110.777C200.981 111.062 200.403 111.533 199.897 111.667C199.594 111.747 199.117 111.696 198.8 111.686L198.944 112.088L199.631 112.077L199.992 112.473C201.225 112.041 202.687 110.826 203.806 110.088L209.476 106.576C210.639 105.878 211.756 105.1 212.998 104.545C212.836 104.132 212.773 103.691 212.69 103.256C212.466 103.476 212.276 103.665 211.998 103.816Z" fill="#0B5CCA"/>
<path d="M74.8346 31.0764C74.1757 31.3257 73.5264 31.7323 73.028 32.2313C72.2457 33.0151 71.6031 34.1075 71.0463 35.0639C68.7031 39.0913 67.5914 44.1585 66.4434 48.6463L70.2711 51.8335C71.0443 50.5368 71.6084 48.973 72.2735 47.6019C73.5628 44.9436 74.9466 42.2859 76.0002 39.5239C76.9831 36.9479 77.6751 34.2308 78.2457 31.5357L77.951 31.2773L76.6919 30.1406L76.4894 30.3591C76.0582 30.7918 75.3884 30.867 74.8346 31.0764Z" fill="#0C115D"/>
<path d="M81.4237 19.1738L81.3873 23.0725C82.735 22.0547 83.9147 21.6055 85.6228 21.8342L86.5851 22.0562C88.4551 22.5839 89.8603 23.5502 91.529 24.4797L90.287 18.9283C88.9592 13.9674 86.2173 9.60814 81.9019 6.73336C80.3188 5.67858 78.5376 4.85802 76.8871 3.90625L76.668 4.09699L76.739 5.22668C77.5684 6.00845 77.9162 7.14498 78.3677 8.17102C79.9028 11.6575 81.2972 15.3159 81.4237 19.1738Z" fill="#0B79DF"/>
<path d="M208.97 125.846C208.591 126.182 208.24 126.61 207.777 126.813L207.279 127.066C207.529 127.281 207.771 127.481 207.989 127.728C208.26 127.599 208.616 127.21 208.854 127.01L210.942 125.265C210.783 125.05 210.673 124.829 210.546 124.594C210.015 125.001 209.471 125.403 208.97 125.846Z" fill="#0B5CCA"/>
<path d="M207.28 127.062C206.256 128.031 205.161 128.854 204.093 129.763C203.549 130.227 202.756 131.145 202.076 131.357C202.108 131.763 202.135 132.13 202.267 132.52L207.989 127.724C207.771 127.477 207.529 127.277 207.28 127.062Z" fill="#0C3EAF"/>
<path d="M215.795 127.517C215.997 127.356 216.396 126.961 216.613 126.886C217.19 126.687 218.573 126.962 219.21 127.006C219.154 126.708 219.059 126.435 218.962 126.148C218.378 126.067 217.683 126.066 217.152 125.82L218.404 124.774L218.271 124.289L202.773 136.562L203.36 137.318L213.388 129.549L215.795 127.517Z" fill="#0745AD"/>
<path d="M203.123 58.1781L203.317 58.2453C205.003 58.8444 206.258 60.2252 207.006 61.8216C207.488 62.8507 207.786 64.0787 208.323 65.0532C208.555 62.9996 208.669 60.9401 208.998 58.8965C209.97 52.8612 211.666 46.7371 213.406 40.875L213.277 40.8961C212.753 41.1238 212.2 41.5603 211.711 41.8664L208.144 44.1913C205.474 46.0255 202.759 47.91 201.394 50.9769C200.743 52.4407 200.344 54.0125 199.761 55.5047C199.316 56.6451 198.7 57.7194 198.1 58.7831C199.85 58.3099 201.289 57.5261 203.123 58.1781Z" fill="#0B5CCA"/>
<path d="M211.54 142.548C211.974 142.598 213.293 142.886 213.669 142.771C213.997 142.671 215.116 141.335 215.424 141.032L219.261 137.377C220.143 136.545 220.995 135.649 221.986 134.946L222.127 134.849L219.211 127.004C218.574 126.96 217.191 126.685 216.614 126.884C216.397 126.959 215.998 127.354 215.796 127.515L213.389 129.547L203.361 137.316L204.75 140.54C204.976 141.105 205.165 141.795 205.501 142.299C207.285 141.98 209.724 142.34 211.54 142.548Z" fill="#0F9EF2"/>
<path d="M197.146 120.484L203.939 121.802L210.205 123.163C210.545 123.239 211.316 123.555 211.624 123.527C211.964 123.496 212.71 122.751 212.991 122.517C214.064 121.623 215.114 120.708 216.339 120.027C216.585 119.89 216.579 119.798 216.7 119.552L215.555 115.394L208.304 113.822C208.027 113.767 207.315 113.52 207.069 113.559C206.916 113.583 206.46 113.923 206.306 114.017L203.361 115.852L198.548 118.617C198.118 118.86 197.594 119.011 197.19 119.266C197.024 119.37 196.995 119.413 196.877 119.539L196.949 119.933L197.094 120.32L197.146 120.484Z" fill="#0F9EF2"/>
<path d="M210.556 124.371L210.546 124.597C210.672 124.832 210.783 125.053 210.942 125.268L216.972 120.389L216.697 119.555C216.576 119.801 216.583 119.893 216.337 120.03C215.111 120.711 214.062 121.626 212.989 122.519C212.707 122.753 211.961 123.498 211.622 123.53C211.314 123.558 210.542 123.242 210.202 123.166L203.936 121.805L197.143 120.487L197.091 120.322L196.946 119.936C196.791 120.667 196.51 120.846 195.992 121.357L206.649 123.37C207.917 123.66 209.356 123.875 210.556 124.371Z" fill="#0C3EAF"/>
<path d="M197.189 119.257C197.593 119.002 198.117 118.851 198.546 118.608L203.36 115.843L206.305 114.009C206.459 113.915 206.915 113.574 207.068 113.55C207.314 113.511 208.026 113.758 208.303 113.813L215.554 115.385L215.361 114.658C214.486 114.566 213.572 114.19 212.712 113.979L207.592 112.794L209.919 111.18C211.574 111.234 213.236 111.844 214.775 112.425L213.865 108.656L196.361 119.07L196.876 119.53C196.994 119.404 197.023 119.361 197.189 119.257Z" fill="#0B5CCA"/>
<path d="M183.396 76.6483C183.77 79.0797 184.445 81.6456 184.522 84.1005C185.19 85.3889 185.943 86.6527 186.522 87.9835C186.987 89.052 187.22 90.6344 187.837 91.5528C192.914 91.9167 197.923 92.0775 202.989 91.5365C205.496 91.2685 208.287 90.8454 210.583 89.7796L207.788 71.0139C207.05 68.8984 206.697 66.369 205.7 64.381C205.512 64.0061 205.427 63.8181 205.03 63.6273C204.575 63.4091 203.749 63.4988 203.248 63.5245C199.51 63.7149 195.464 65.2954 192.005 66.6616C190.822 67.1289 189.666 67.7188 188.441 68.0611L188.267 68.1085L188.01 68.2282C187.566 68.5266 183.747 71.2614 183.671 71.2631C182.776 73.0071 183.109 74.7841 183.396 76.6483Z" fill="#0F9EF2"/>
<path d="M187.838 91.5511C187.222 90.6327 186.988 89.0503 186.523 87.9818C185.944 86.651 185.191 85.3872 184.523 84.0988L184.138 84.0155L182.216 82.1032C182.337 81.9096 182.115 79.8216 182.109 79.3913L182.242 74.9655C182.289 74.1734 182.277 73.2903 182.511 72.5266C182.716 71.8588 183.075 71.5798 183.673 71.2615C183.748 71.2597 187.567 68.525 188.011 68.2266C187.595 68.2683 187.185 68.3133 186.788 68.4525C185.689 68.8378 184.642 69.324 183.522 69.6607C183.329 69.7187 182.91 69.905 182.718 69.8464C182.205 70.1268 181.714 70.3036 181.541 70.9071C180.641 74.0427 180.026 77.2956 178.436 80.1944C179.714 81.1329 181.359 81.9638 182.303 83.2424L183.864 85.2206C184.561 86.4773 185.183 87.7382 185.672 89.0924C186.006 90.0154 186.173 91.3539 186.684 92.1585L187.46 92.1833L187.783 92.0581L187.838 91.5511Z" fill="#1E3080"/>
<path d="M183.673 71.2656C183.075 71.584 182.716 71.8628 182.511 72.5307C182.277 73.2944 182.289 74.1775 182.242 74.9696L182.109 79.3954C182.116 79.8257 182.337 81.9137 182.216 82.1073L184.138 84.0196L184.524 84.1029C184.447 81.6481 183.771 79.0821 183.397 76.6507C183.111 74.7865 182.777 73.0094 183.673 71.2656Z" fill="#0C3EAF"/>
<path d="M190.08 66.6574C189.46 67.1025 188.738 67.502 188.268 68.1129L188.442 68.0656C189.667 67.7232 190.823 67.1334 192.006 66.6661C195.464 65.2998 199.511 63.7194 203.249 63.529C203.749 63.5032 204.576 63.4135 205.031 63.6318C205.428 63.8225 205.513 64.0105 205.701 64.3854C206.698 66.3733 207.051 68.9028 207.789 71.0184L208.148 70.9502C207.759 70.1537 207.83 69.329 208.083 68.4956L208.322 65.0611C207.785 64.0866 207.487 62.8586 207.005 61.8295C206.257 60.2331 205.003 58.8523 203.317 58.2532L203.122 58.186C201.288 57.534 199.849 58.3178 198.099 58.791C196.901 60.1292 195.737 61.7348 194.212 62.7084C193.495 64.1718 191.395 65.7128 190.08 66.6574Z" fill="#0C3EAF"/>
<path d="M86.4183 56.7053L90.8302 57.1356C91.5924 57.2235 92.4873 57.403 93.2499 57.3319C94.424 54.7805 95.6482 51.9042 97.6553 49.8992C100.553 47.0034 103.568 46.7891 107.428 46.8053L108.252 44.7556C109.012 42.4564 108.526 39.9249 107.437 37.81C106.631 36.2456 105.505 34.9986 104.034 34.0287C101.253 32.1957 97.5555 31.4427 94.5031 30.0766C91.2735 28.6316 88.2495 26.3982 84.8518 25.3956C83.7383 25.0672 82.3896 25.0965 81.3771 25.708C79.4724 26.8584 78.7745 29.5236 78.2442 31.5343C77.6735 34.2293 76.9814 36.9466 75.9987 39.5225C74.9449 42.2844 73.5613 44.9422 72.2719 47.6004C71.6068 48.9715 71.0427 50.5354 70.2695 51.8321L75.3487 56.0758C78.9222 55.7894 82.8515 56.3109 86.4183 56.7053Z" fill="#0F9EF2"/>
<path d="M81.3789 25.7131C82.3914 25.1015 83.7401 25.0722 84.8536 25.4006C88.2513 26.4033 91.2753 28.6367 94.5049 30.0817C97.5574 31.4478 101.255 32.2008 104.035 34.0338C105.507 35.0036 106.633 36.2505 107.438 37.815C108.528 39.9299 109.014 42.4615 108.254 44.7606L107.43 46.8104C103.57 46.7941 100.555 47.0085 97.6571 49.9043C95.65 51.9094 94.4257 54.7856 93.2517 57.3369L93.6722 57.2612C94.6245 56.0669 95.3222 54.5931 96.2017 53.3221C97.9852 50.7443 100.618 48.3747 103.762 47.8086C106.596 47.2984 109.479 47.4883 112.34 47.5983L112.475 44.2658C112.526 40.1994 111.043 36.1994 108.202 33.2878C105.441 30.4376 101.381 29.533 97.9932 27.7862C97.451 27.5067 96.8685 27.2487 96.6826 26.6482C94.6967 26.3562 93.1915 25.5952 91.5306 24.493C89.8619 23.5634 88.4567 22.5972 86.5867 22.0695L85.6244 21.8474C83.9164 21.6188 82.7365 22.0681 81.3889 23.0858L79.6172 25.517L77.9512 31.2807L78.2459 31.5392C78.7763 29.5286 79.4742 26.8635 81.3789 25.7131Z" fill="#1E3080"/>
<path d="M144.761 16.9771L145.17 24.2997C145.236 27.9935 144.991 31.8737 143.841 35.4088C142.208 40.4236 138.635 44.4696 134.113 47.1088C131.812 48.452 129.39 49.5951 126.766 50.1314L125.301 50.3795L125.16 54.3758C125.087 55.6144 124.838 57.2268 125.179 58.4178C125.353 59.0302 125.664 59.5034 126.097 59.966C126.309 60.1925 126.528 60.3533 126.785 60.5239C128.034 60.9432 129.391 61.1951 130.708 61.2781C136.615 61.6497 141.181 59.1969 145.53 55.4198C150.318 51.2614 154.061 45.9436 157.012 40.3625C159.429 35.7915 161.307 31.2649 161.67 26.0562C160.338 23.0896 158.57 20.3312 156.743 17.6499C153.893 13.4639 150.866 9.62375 147.379 5.94531C146.187 7.74425 145.003 9.58347 144.682 11.7691C144.436 13.4432 144.64 15.2922 144.761 16.9771Z" fill="#F7451B"/>
<path d="M122.177 12.5349L126.101 8.07016C127.235 6.74534 128.772 4.48136 130.401 3.80774C131.799 3.22879 133.655 3.4237 135.047 3.91941C137.063 4.63748 139.185 5.75745 140.713 7.27151C139.91 10.8878 140.459 14.5097 140.668 18.154C141.377 25.5447 140.69 33.9923 135.794 39.9685C132.251 44.294 127.194 47.1238 121.593 47.6509C118.487 47.9432 115.444 47.7937 112.338 47.5949C109.477 47.4848 106.594 47.295 103.76 47.8052C100.617 48.3715 97.9835 50.741 96.2 53.3187C95.3206 54.5897 94.6229 56.0634 93.6705 57.2578L93.25 57.3335C94.3178 57.7013 95.667 57.701 96.7967 57.8384C97.2255 56.5252 98.0566 55.1233 98.9051 54.0374C99.635 53.1032 100.426 52.2151 101.456 51.6009C105.372 49.2653 110.623 50.8106 114.885 50.9584C118.414 51.0809 121.806 50.8221 125.301 50.3842L126.765 50.1361C129.39 49.5999 131.812 48.4568 134.113 47.1135C138.634 44.4742 142.208 40.4282 143.84 35.4135C144.991 31.8783 145.236 27.9982 145.17 24.3044L144.761 16.9818C144.64 15.2969 144.436 13.4478 144.682 11.7739C145.003 9.58827 146.186 7.74905 147.378 5.95011C147.314 5.72422 147.26 5.33686 147.148 5.14345C147.009 4.9042 146.485 4.56664 146.243 4.38658C145.267 3.65814 144.237 2.9314 143.171 2.3407C140.942 1.10586 138.568 0.435763 136.053 0.118612C133.198 -0.241496 130.228 0.169259 127.939 2.03156C125.849 3.73283 124.585 6.41868 123.289 8.71685C122.246 10.5671 121.147 12.4324 120.244 14.3532L120.469 14.2819C121.082 14.0492 121.727 13.0436 122.177 12.5349Z" fill="#0B5CCA"/>
<path d="M121.593 47.6606C127.194 47.1334 132.251 44.3037 135.795 39.9782C140.69 34.0019 141.378 25.5543 140.668 18.1637C139.26 17.8877 137.777 17.5537 136.334 17.6073C133.269 17.7213 129.904 19.4293 127.405 21.1083C125.738 22.2288 124.214 23.5884 122.63 24.8226C119.812 27.0172 116.841 29.3334 113.681 31.0133C111.884 31.9683 110.102 32.6061 108.201 33.2941C111.042 36.2056 112.525 40.2056 112.474 44.272L112.339 47.6046C115.445 47.8032 118.487 47.9528 121.593 47.6606Z" fill="#021347"/>
<path d="M97.9923 27.7833C101.381 29.5301 105.44 30.4348 108.202 33.285C110.102 32.597 111.885 31.9592 113.681 31.0042C116.841 29.3243 119.813 27.0081 122.63 24.8135C124.215 23.5793 125.738 22.2197 127.406 21.0992C129.904 19.4202 133.269 17.7122 136.335 17.5982C137.777 17.5445 139.26 17.8786 140.669 18.1546C140.46 14.5102 139.911 10.8883 140.713 7.27205C139.185 5.75799 137.064 4.63802 135.048 3.91994C133.656 3.42424 131.8 3.22944 130.401 3.80828C128.773 4.48191 127.235 6.74588 126.102 8.07069L122.178 12.5354C121.728 13.0441 121.083 14.0498 120.47 14.2822L120.245 14.3536C115.342 20.4682 107.485 25.5746 99.5775 26.4588L96.6816 26.6454C96.8677 27.2459 97.4502 27.5038 97.9923 27.7833Z" fill="#0C115D"/>
<path d="M272.515 200.764C271.959 196.288 270.558 191.94 268.519 187.921C267.68 186.266 266.653 184.754 265.667 183.186L262.398 177.941L262.306 178.613C264.192 182.168 265.749 186.241 266.39 190.223C266.641 191.786 266.788 193.543 266.522 195.113L266.482 195.332C266.26 196.639 265.865 197.75 265.096 198.837L264.964 199.02C262.268 202.812 257.14 205.588 252.797 206.973C249.633 207.981 246.489 208.296 243.187 208.401C235.119 208.656 227.39 207.122 219.687 204.842C214.394 203.275 209.202 201.42 204.295 198.871C198.558 195.891 193.048 192.856 187.905 188.908C185.59 187.13 182.746 185.096 181.909 182.146C180.569 177.419 186.464 176.052 188.198 172.782L188.69 171.888L188.821 171.291C189.11 169.937 189.136 168.451 188.945 167.079L188.907 166.83C188.361 163.065 186.76 159.56 185.319 156.073L180.862 145.449L162.918 104C162.26 104.286 159.034 110.423 158.441 111.489L158.605 112.062L159.594 114.057C160.332 114.845 160.805 115.862 161.345 116.791C162.633 119.008 163.698 121.31 164.728 123.654C165.894 126.305 167.006 129.035 167.577 131.887C167.762 132.809 167.768 133.738 167.737 134.676C167.72 135.22 167.648 135.693 167.502 136.219L167.441 136.444C167.14 137.498 166.474 138.545 165.517 139.112C165.072 139.375 164.598 139.476 164.096 139.557L163.906 139.591C161.463 139.977 158.462 138.803 156.156 138.065C155.206 137.761 154.239 137.39 153.236 137.353L172.857 165.113L175.805 168.259C176.539 168.998 177.541 169.784 178.014 170.716C177.812 170.882 177.795 170.982 177.516 170.95C176.672 170.856 174.397 168.622 173.77 167.935C173.011 167.527 172.288 166.659 171.708 166.032C170.185 164.385 168.818 162.603 167.423 160.848L156.723 146.918L153.547 142.778C152.92 141.955 152.379 141.006 151.555 140.367C150.417 145.413 153.446 149.909 156.007 153.967C161.334 162.408 166.311 171.124 170.004 180.419C170.38 181.364 171.172 182.606 171.086 183.614C176.361 191.77 183.3 198.571 190.94 204.497C196.563 208.858 202.502 212.769 209.082 215.556C212.436 216.977 216.077 218.052 219.638 218.811C224.324 219.809 229.149 220.315 233.939 220.352C236.19 220.369 238.491 220.075 240.727 220.239C242.116 219.015 243.211 217.32 244.387 215.886C245.54 214.479 246.777 213.245 248.332 212.287C252.337 209.819 257.02 208.47 261.189 206.264L263.932 204.674C264.618 204.241 265.328 203.667 266.166 203.62C267.745 203.532 268.849 205.691 269.889 206.653C270.32 207.051 271.993 206.825 272.625 206.802C272.92 204.899 272.752 202.672 272.515 200.764Z" fill="#0E8CE8"/>
<path d="M172.608 165.671L174.758 168.27L174.683 168.455L174.549 168.333C174.317 168.131 174.457 168.243 174.165 168.085L173.83 167.886L173.771 167.932C174.397 168.618 176.673 170.853 177.516 170.947C177.796 170.979 177.812 170.879 178.014 170.713C177.542 169.78 176.539 168.994 175.805 168.255L172.857 165.109L172.52 165.542L172.608 165.671Z" fill="#0C115D"/>
<path d="M149.773 132.431L144.258 124.253C143.153 122.609 142.058 120.595 140.639 119.203L140.381 119.549L150.736 135.076C151.092 135.63 152.287 137.028 152.364 137.59L172.521 165.538L172.858 165.105L153.237 137.345L152.793 136.735C151.666 135.412 150.744 133.872 149.773 132.431Z" fill="#010123"/>
<path d="M174.165 168.084C174.457 168.243 174.317 168.13 174.549 168.332L174.683 168.454L174.758 168.269L172.607 165.67L172.519 165.541L152.363 137.594C151.975 138.459 151.773 139.357 151.506 140.263L151.555 140.363C152.379 141.002 152.92 141.951 153.547 142.774L156.723 146.914L167.423 160.844C168.818 162.599 170.185 164.381 171.708 166.028C172.288 166.655 173.011 167.523 173.77 167.931L173.829 167.885L174.165 168.084Z" fill="#0C3EAF"/>
<path d="M151.506 140.265C151.774 139.359 151.976 138.461 152.363 137.596C152.286 137.034 151.091 135.636 150.735 135.082L140.38 119.555C139.768 119.754 138.673 120.697 138.252 121.198C139.978 123.541 150.212 139.886 151.506 140.265Z" fill="#0C115D"/>
<path d="M156.665 126.368L153.973 133.252C153.562 134.392 153.051 135.556 152.791 136.74L153.236 137.35C154.239 137.387 155.206 137.758 156.156 138.062C158.462 138.8 161.463 139.974 163.906 139.589L164.096 139.555C164.598 139.473 165.072 139.372 165.517 139.109C166.475 138.542 167.141 137.495 167.441 136.441L167.502 136.216C167.649 135.69 167.72 135.217 167.738 134.673C167.768 133.735 167.762 132.807 167.577 131.884C167.006 129.033 165.894 126.302 164.728 123.651C163.698 121.307 162.633 119.006 161.345 116.788C160.805 115.859 160.332 114.842 159.594 114.055L159.531 114.511C160.165 119.014 158.425 122.373 156.665 126.368Z" fill="#0B5CCA"/>
<path d="M138.437 111.121C135.45 113.874 132.621 116.785 130.04 119.924C126.959 123.672 124.221 127.686 121.416 131.641L125.564 136.109L128.751 131.698C129.063 131.175 129.41 130.746 129.82 130.297L138.251 121.191C138.672 120.69 139.767 119.747 140.379 119.548L140.638 119.202C142.056 120.594 143.151 122.608 144.256 124.252L149.772 132.43C150.742 133.871 151.665 135.411 152.791 136.733C153.051 135.55 153.562 134.386 153.973 133.245L156.665 126.362C158.425 122.367 160.165 119.007 159.531 114.505L159.21 114.165C158.709 114.188 158.357 114.164 157.878 114.013C157.752 113.536 158.397 112.558 158.605 112.053L158.441 111.48C158.029 110.761 157.607 109.896 156.922 109.407C156.586 108.696 155.886 108.133 155.335 107.581L162.073 102.018L162.917 103.991L180.862 145.441L185.319 156.065C186.76 159.551 188.361 163.056 188.907 166.821L188.945 167.071C189.136 168.442 189.11 169.928 188.821 171.282L188.689 171.879L188.768 171.859C189.11 171.514 189.087 171.142 189.177 170.671C189.57 168.625 189.372 166.423 188.846 164.419C188.11 161.614 186.93 158.906 185.819 156.235L182.279 147.634L169.015 116.739L162.463 101.621C163.573 100.782 164.56 99.6644 165.539 98.6763C169.417 94.7636 172.931 90.5211 175.679 85.7383C176.709 83.9438 177.424 81.9909 178.435 80.1908C180.026 77.2921 180.641 74.0391 181.541 70.9034C181.714 70.2999 182.204 70.1231 182.718 69.8427L181.716 69.9902C181.805 69.623 181.705 69.3011 181.695 68.9185C181.669 67.9306 181.588 66.6132 181.859 65.6654C181.947 65.3562 182.136 65.3548 182.406 65.2078L182.087 64.9505C181.869 58.0574 179.307 51.4698 174.249 46.6548C172.899 45.3705 171.48 44.1777 169.902 43.1875C171.152 44.5058 172.431 45.7543 173.544 47.2C176.385 50.8896 177.905 54.9883 177.786 59.66C177.704 62.8768 176.815 66.1232 175.708 69.1271C171.954 79.3183 165.107 87.5825 157.286 94.9444L148.391 102.756L148.28 102.862C145.167 105.778 141.587 108.217 138.437 111.121Z" fill="#021347"/>
<path d="M157.877 114.022C158.357 114.174 158.709 114.198 159.21 114.174L159.53 114.515L159.594 114.058L158.605 112.062C158.396 112.567 157.752 113.545 157.877 114.022Z" fill="#1E3080"/>
<path d="M155.336 107.587C155.887 108.139 156.588 108.702 156.923 109.413C157.608 109.901 158.03 110.766 158.442 111.486C159.035 110.421 162.261 104.283 162.919 103.997L162.074 102.023L155.336 107.587Z" fill="#1E3080"/>
<path d="M269.89 206.645C268.85 205.683 267.746 203.524 266.167 203.612C265.329 203.659 264.618 204.233 263.933 204.665L261.19 206.256C257.021 208.462 252.338 209.811 248.333 212.279C246.778 213.237 245.541 214.471 244.388 215.877C243.212 217.312 242.117 219.006 240.728 220.231C238.366 222.675 235.972 224.959 232.576 225.793C230.684 226.257 228.621 226.314 226.68 226.366C210.9 226.781 195.829 221.268 183.579 211.434C181.24 209.557 179.1 207.468 176.927 205.407C176.367 204.657 175.643 203.985 175.016 203.285L172.135 199.854C168.539 195.319 165.185 190.245 162.275 185.247L154.002 171.19C148.454 163.822 142.208 156.923 134.492 151.777C130.03 148.801 125.285 146.396 120.544 143.914C119.859 144.704 119.361 145.645 118.821 146.537L115.786 151.651C115.344 152.379 114.881 153.296 114.311 153.923C118.337 156.932 122.666 159.227 127.044 161.668L140.926 169.862C143.689 171.654 146.389 173.409 148.75 175.733C154.747 181.637 158.151 190.104 162.29 197.316C165.315 202.586 168.756 207.401 172.798 211.935C173.923 213.441 175.531 214.83 176.925 216.095C184.529 223 193.612 227.847 203.524 230.512C213.204 233.115 224.043 233.709 233.904 231.761C241.608 230.239 249.268 227.08 256.044 223.119C259.549 221.069 262.857 218.704 266.008 216.149C267.771 214.719 269.762 213.081 271.01 211.172C271.84 209.903 272.247 208.251 272.626 206.794C271.994 206.816 270.321 207.043 269.89 206.645Z" fill="#0E8CE8"/>
<path d="M269.89 206.645C268.85 205.683 267.746 203.524 266.167 203.612C265.329 203.659 264.618 204.233 263.933 204.665L261.19 206.256C257.021 208.462 252.338 209.811 248.333 212.279C246.778 213.237 245.541 214.471 244.388 215.877C243.212 217.312 242.117 219.006 240.728 220.231C238.366 222.675 235.972 224.959 232.576 225.793C230.684 226.257 228.621 226.314 226.68 226.366C210.9 226.781 195.829 221.268 183.579 211.434C181.24 209.557 179.1 207.468 176.927 205.407C176.367 204.657 175.643 203.985 175.016 203.285L172.135 199.854C168.539 195.319 165.185 190.245 162.275 185.247L154.002 171.19C148.454 163.822 142.208 156.923 134.492 151.777C130.03 148.801 125.285 146.396 120.544 143.914C119.859 144.704 119.361 145.645 118.821 146.537L115.786 151.651C115.344 152.379 114.881 153.296 114.311 153.923C118.337 156.932 122.666 159.227 127.044 161.668L140.926 169.862C143.689 171.654 146.389 173.409 148.75 175.733C154.747 181.637 158.151 190.104 162.29 197.316C165.315 202.586 168.756 207.401 172.798 211.935C173.923 213.441 175.531 214.83 176.925 216.095C184.529 223 193.612 227.847 203.524 230.512C213.204 233.115 224.043 233.709 233.904 231.761C241.608 230.239 249.268 227.08 256.044 223.119C259.549 221.069 262.857 218.704 266.008 216.149C267.771 214.719 269.762 213.081 271.01 211.172C271.84 209.903 272.247 208.251 272.626 206.794C271.994 206.816 270.321 207.043 269.89 206.645Z" fill="url(#paint4_linear_4343_7458)"/>
<path d="M138.252 121.195L129.82 130.301C132.813 131.945 135.743 133.763 138.404 135.911C140.595 137.68 142.517 139.719 144.457 141.749C146.815 144.217 148.922 146.678 150.904 149.469C151.963 150.96 152.998 152.424 153.761 154.091L153.85 154.276C154.151 154.944 154.056 155.745 154.028 156.462L153.919 156.211L153.455 156.088L162.576 170.287C163.981 172.546 165.626 174.838 166.81 177.212C168.102 179.356 169.495 181.675 171.086 183.609C171.172 182.601 170.38 181.359 170.004 180.414C166.311 171.119 161.334 162.403 156.007 153.962C153.446 149.904 150.417 145.408 151.555 140.362L151.506 140.262C150.212 139.883 139.978 123.537 138.252 121.195Z" fill="#1E3080"/>
<path d="M147.564 148.541C149.212 150.525 150.901 152.5 152.363 154.629C152.668 155.039 153.074 155.78 153.455 156.084L153.919 156.207L154.029 156.458C154.057 155.741 154.152 154.94 153.851 154.272L153.762 154.088C152.998 152.42 151.964 150.956 150.905 149.465C148.923 146.674 146.816 144.213 144.458 141.745C142.517 139.715 140.596 137.676 138.405 135.907C135.744 133.759 132.814 131.941 129.821 130.297C129.411 130.746 129.064 131.175 128.752 131.698C136.185 136.119 142.076 141.934 147.564 148.541Z" fill="#0C115D"/>
<path d="M152.105 157.502C152.142 156.618 152.019 155.435 152.364 154.634C150.902 152.505 149.213 150.53 147.565 148.546C142.077 141.939 136.186 136.124 128.753 131.703L125.565 136.114L122.7 140.576C122.045 141.64 121.387 143.017 120.545 143.919C125.286 146.401 130.031 148.805 134.493 151.781C142.209 156.928 148.454 163.827 154.002 171.194L152.901 166.846C152.21 163.693 151.969 160.726 152.105 157.502Z" fill="#6E7385"/>
<path d="M183.863 85.2214L182.301 83.2433C181.357 81.9646 179.712 81.1337 178.434 80.1953C177.422 81.9954 176.708 83.9483 175.677 85.7429C172.929 90.5256 169.415 94.7681 165.538 98.6808C164.558 99.6689 163.571 100.787 162.461 101.625L169.013 116.744L182.278 147.639L185.817 156.239C186.928 158.91 188.108 161.619 188.844 164.424C189.37 166.428 189.568 168.63 189.176 170.675C189.085 171.147 189.109 171.518 188.766 171.864L188.688 171.884L188.196 172.778C186.462 176.047 180.567 177.415 181.908 182.142C182.744 185.091 185.588 187.126 187.903 188.903C193.047 192.852 198.556 195.887 204.294 198.867C209.2 201.415 214.393 203.271 219.685 204.838C227.389 207.118 235.118 208.652 243.185 208.396C246.487 208.292 249.631 207.977 252.795 206.968C257.138 205.584 262.266 202.808 264.962 199.015L265.094 198.833C265.863 197.746 266.258 196.635 266.48 195.327L266.52 195.109C266.786 193.538 266.64 191.782 266.388 190.219C265.748 186.237 264.19 182.164 262.305 178.608C261.873 178.19 261.521 177.622 260.939 177.458L263.071 182.502C264.335 186.315 265.359 191.804 263.425 195.531C261.31 199.607 255.953 202.189 251.749 203.469C247.377 204.801 243.248 204.065 238.853 203.325C227.854 201.475 217.162 197.733 207.021 193.164C204.658 192.099 202.282 191.105 199.995 189.881C200.006 185.118 200.907 180.359 202.654 175.931C202.707 175.797 203.043 174.863 203.113 174.82C203.156 174.794 205.781 175.629 206.655 175.889C215.821 178.613 226.247 179.771 235.229 175.802C239.519 173.905 243.17 171.126 244.883 166.617C245.531 164.914 245.783 162.906 245.24 161.139C244.758 159.572 243.769 158.098 242.895 156.723L238.574 150.237C237.873 149.202 237.283 148.081 236.558 147.067C236.035 146.334 235.286 145.817 234.779 145.059C232.994 142.394 231.244 139.441 229.875 136.542C229.523 135.797 229.327 135.002 228.987 134.259L228.877 134.026C228.902 134.807 229.201 135.303 229.494 136.001L231.306 139.977C232.213 141.934 232.947 144.092 234.192 145.862C234.927 145.927 235.126 145.927 235.65 146.493C235.806 146.66 235.896 146.854 235.991 147.059L236.066 147.219C236.415 148.043 236.291 149.367 236.165 150.242C236.053 152.29 235.667 154.154 235.074 156.111C234.248 159.009 231.258 161.83 228.692 163.258C225.305 165.141 221.736 165.562 218.006 164.488C214.453 163.466 211.656 161.31 208.423 159.643L207.761 159.904C208.247 160.324 208.232 160.826 208.282 161.451C208.359 162.427 208.121 163.214 207.612 164.041C207.108 165.123 205.999 165.971 204.893 166.375C203.365 166.934 201.562 166.803 200.116 166.047C198.522 165.213 197.9 162.958 197.393 161.365C196.939 159.939 197.021 158.213 197.802 156.906C198.029 156.527 198.169 156.394 198.594 156.298L198.9 156.662C199.704 155.818 200.391 155.366 201.514 155.041L202.011 154.883C202.439 154.575 202.902 154.602 203.406 154.665C203.944 154.732 204.706 155.031 205.016 155.496C205.158 155.71 205.205 155.966 205.254 156.212L209.219 154.165L207.571 150.08C207.26 149.35 206.692 148.483 206.795 147.706C204.008 147.563 201.162 147.408 198.379 147.707L198.225 148.097L198.151 148.318C196.843 148.357 196.285 148.009 195.273 147.279L194.324 147.555C193.317 147.786 192.249 147.492 191.391 146.962C190.911 146.637 190.6 146.325 190.264 145.853C189.408 144.651 189.133 143.095 189.42 141.653C189.554 140.982 189.83 140.049 190.417 139.674C190.596 139.356 190.786 139.056 191.027 138.78C191.997 137.664 192.903 137.336 194.33 137.232L195.318 137.215C195.532 136.883 195.698 136.529 196.077 136.37C196.927 136.353 197.502 136.505 198.123 137.111C198.353 137.336 198.502 137.543 198.513 137.88C198.57 139.573 197.899 141.74 196.684 142.923C197.272 142.945 197.71 142.944 198.229 143.239C199.57 142.424 202.797 142.876 204.394 142.92C204.028 141.002 202.855 138.839 202.088 137.043C201.744 136.237 201.377 135.499 201.258 134.622L201.534 134.337C201.421 134.023 201.249 133.801 201.058 133.531C200.954 133.635 201.026 133.585 200.815 133.629C199.976 132.143 199.265 130.56 198.595 128.99C198.132 127.904 197.64 126.85 197.589 125.654L194.044 125.315L194.323 125.664C194.149 126.46 193.914 127.124 193.556 127.853C193.035 128.747 192.346 129.685 191.28 129.931C190.841 130.033 190.441 130.012 189.998 129.958L189.834 129.802C189.528 129.531 189.096 129.47 188.71 129.382L188.646 129.298C188.441 129.09 187.977 128.964 187.712 128.814C186.986 128.404 186.342 127.715 186.009 126.95C185.473 125.724 185.431 123.949 185.929 122.702C186.393 121.538 187.008 120.944 188.141 120.428L190.136 120.064L188.932 121.349C188.82 122.026 188.511 122.858 188.928 123.43L188.948 123.446C189.279 122.853 189.64 122.247 190.154 121.793C191.45 120.648 194.094 121.134 195.703 121.278C194.895 120.14 194.698 118.104 194.236 116.751C193.575 114.811 192.688 112.881 192.172 110.902L187.549 110.579C187.564 111.934 187.388 112.903 186.305 113.86C186.035 114.099 185.539 114.18 185.194 114.273L184.003 113.95C183.099 114.202 181.847 114.388 180.978 113.937L180.827 113.853C180.136 113.505 179.529 113.027 179.173 112.32C178.529 111.043 178.459 109.716 178.908 108.364C179.386 106.921 180.323 105.96 181.715 105.349C182.525 104.993 183.537 104.938 184.35 105.285C184.95 105.722 185.271 106.062 185.626 106.712L191.451 106.636L191.106 106.208C190.869 105.764 190.781 105.157 190.602 104.678L188.622 98.8652C188.403 98.151 187.946 97.2452 188.117 96.5022L180.107 95.7805C180.272 97.1225 179.97 98.0962 179.144 99.1744C178.455 100.072 177.503 100.818 176.344 100.923C175.537 100.996 174.93 100.803 174.224 100.436L174.137 100.303C173.845 99.8673 173.621 99.7646 173.24 99.4391C173.151 99.3633 173.105 99.267 173.049 99.1693L172.809 98.8877C172.1 98.0802 171.642 97.3633 171.577 96.2537C171.481 94.6286 171.858 92.7206 172.978 91.4929C173.864 90.5207 174.963 89.9225 176.282 89.8822C177.054 89.9621 177.817 90.0957 178.396 90.6476L178.402 90.9538L178.189 91.0032C177.66 91.1226 177.059 91.0175 176.636 91.3941L176.458 92.2839L177.406 91.9943L177.643 91.9393C180.359 91.2896 183.899 91.9141 186.683 92.159C186.171 91.3545 186.005 90.016 185.671 89.093C185.181 87.7391 184.559 86.4782 183.863 85.2214Z" fill="#0C3EAF"/>
<path d="M207.34 162.799C207.455 163.154 207.44 163.37 207.479 163.72C207.5 163.913 207.518 163.908 207.613 164.043C208.121 163.217 208.36 162.43 208.283 161.454C208.233 160.828 208.247 160.326 207.762 159.906L207.611 159.977C207.836 160.974 207.703 161.852 207.34 162.799Z" fill="#021289"/>
<path d="M186.28 110.644C186.425 111.378 186.169 111.965 185.747 112.585C185.278 113.273 184.745 113.605 184.004 113.954L185.195 114.277C185.54 114.184 186.036 114.103 186.306 113.864C187.389 112.907 187.565 111.938 187.55 110.583C187.094 110.55 186.728 110.548 186.28 110.644Z" fill="#1E3080"/>
<path d="M196.977 147.037C196.661 146.296 196.955 145.48 197.235 144.781C196.994 144.938 196.748 145.071 196.557 145.287L196.162 146.159C195.7 146.701 195.393 146.912 194.677 146.975C193.693 147.062 192.818 146.69 191.963 146.26C192.452 146.943 192.709 146.812 193.422 147.133C193.629 147.226 193.818 147.228 194.041 147.243C193.846 147.341 193.73 147.382 193.523 147.429L193.264 147.281C192.842 147.28 192.752 147.285 192.375 147.133L192.105 147.081L191.908 147.038L191.391 146.96C192.249 147.49 193.317 147.784 194.324 147.553L195.273 147.278C196.285 148.007 196.843 148.355 198.151 148.316L198.224 148.095L198.379 147.705L197.71 147.572C197.412 147.498 197.105 147.338 196.977 147.037Z" fill="#1E3080"/>
<path d="M193.09 126.746C192.384 127.887 191.693 128.909 190.285 129.218C189.76 129.333 189.182 129.304 188.646 129.297L188.71 129.381C189.096 129.469 189.528 129.53 189.834 129.801L189.998 129.957C190.441 130.011 190.841 130.032 191.28 129.93C192.346 129.684 193.035 128.746 193.557 127.852C193.915 127.123 194.149 126.459 194.323 125.664L194.044 125.314L193.437 125.289L193.09 126.746Z" fill="#021289"/>
<path d="M192.105 147.088L192.375 147.141C192.752 147.293 192.843 147.288 193.264 147.289L193.523 147.436C193.73 147.39 193.846 147.348 194.041 147.25C193.818 147.235 193.63 147.234 193.422 147.14C192.709 146.82 192.452 146.951 191.963 146.267C191.51 145.81 191.065 145.341 190.762 144.768C189.882 143.108 189.896 141.444 190.418 139.68C189.83 140.055 189.555 140.987 189.421 141.659C189.133 143.1 189.408 144.657 190.264 145.859C190.601 146.331 190.912 146.643 191.391 146.967L191.908 147.046L192.105 147.088Z" fill="#021289"/>
<path d="M205.499 142.302C205.164 141.798 204.975 141.108 204.749 140.543L203.36 137.318L202.773 136.563L201.534 134.336L201.258 134.621C201.377 135.497 201.744 136.236 202.088 137.042C202.855 138.837 204.028 141.001 204.394 142.919L205.462 142.982L205.499 142.302Z" fill="#021289"/>
<path d="M209.906 153.049C209.393 152.247 208.978 150.972 208.675 150.064L210.124 148.583L210.07 148.598C209.441 148.761 208.811 149.326 208.278 149.699C208.038 149.135 207.815 148.537 207.499 148.012L207.36 147.788L206.795 147.711C206.693 148.488 207.261 149.356 207.571 150.086L209.22 154.17L209.899 153.848L209.906 153.049Z" fill="#0C115D"/>
<path d="M210.379 147.942L207.361 147.789L207.5 148.014C207.817 148.539 208.039 149.137 208.28 149.7C208.813 149.327 209.443 148.763 210.072 148.599L210.126 148.585L210.721 148.176L210.379 147.942Z" fill="#0B5CCA"/>
<path d="M235.076 156.111C235.668 154.154 236.054 152.29 236.166 150.242L232.893 151.215L235.076 156.111Z" fill="#0E8CE8"/>
<path d="M190.285 129.22C191.693 128.911 192.384 127.89 193.09 126.748L193.437 125.291L192.505 125.289L192.413 125.396C192.185 125.667 192 125.92 191.821 126.224C191.433 126.883 190.918 127.188 190.23 127.479L190.383 127.59C190.626 127.785 190.787 127.926 191.085 128.028L191.339 128.112L191.118 128.406L190.821 128.481C190.511 128.637 190.57 128.627 190.229 128.631C189.92 128.832 189.573 128.815 189.215 128.746L189.043 128.705C188.654 128.623 188.343 128.564 188.003 128.337L187.785 128.185C187.296 127.878 186.98 127.527 186.71 127.013L186.589 126.776C186.432 126.495 186.301 126.355 186.283 126.023L186.281 125.814C186.155 125.15 185.999 124.311 186.225 123.632C186.429 123.021 186.528 122.508 186.9 121.951L187.044 121.742C187.224 121.476 187.13 121.564 187.359 121.381C187.769 121.052 187.975 120.953 188.141 120.43C187.008 120.946 186.393 121.54 185.929 122.704C185.431 123.95 185.473 125.725 186.009 126.952C186.342 127.717 186.986 128.406 187.712 128.816C187.977 128.966 188.441 129.092 188.646 129.3C189.182 129.306 189.76 129.335 190.285 129.22Z" fill="#F7451B"/>
<path d="M175.813 99.8792C174.775 99.9958 173.952 99.607 173.049 99.1658C173.104 99.2635 173.151 99.3597 173.24 99.4356C173.621 99.7611 173.845 99.8638 174.137 100.299L174.224 100.432C174.93 100.8 175.537 100.992 176.344 100.919C177.503 100.815 178.455 100.069 179.144 99.1709C179.97 98.0927 180.272 97.1191 180.106 95.777L179.314 95.6797C179.225 96.6569 178.97 97.3666 178.488 98.2148C177.732 99.1424 177.053 99.7394 175.813 99.8792Z" fill="#1E3080"/>
<path d="M177.852 98.4735L178.491 98.2165C178.972 97.3684 179.228 96.6586 179.316 95.6814L178.47 95.6172L177.922 96.5337L177.852 98.4735Z" fill="#F7451B"/>
<path d="M202.076 131.36C201.821 131.151 201.693 131.042 201.366 130.955C201.16 130.9 201.009 130.863 200.816 130.776C200.049 129.219 199.467 127.519 198.983 125.854L197.59 125.656C197.641 126.852 198.133 127.905 198.596 128.992C199.266 130.562 199.977 132.145 200.816 133.631C201.027 133.587 200.955 133.637 201.059 133.533L202.267 132.524C202.135 132.134 202.108 131.767 202.076 131.36Z" fill="#021289"/>
<path d="M193.953 111.806L193.677 111.123L192.172 110.906C192.688 112.885 193.575 114.815 194.236 116.755C194.698 118.108 194.895 120.144 195.703 121.282L195.992 121.356C196.51 120.844 196.791 120.666 196.946 119.934L196.874 119.54L196.36 119.08C195.77 118.125 195.287 116.546 195.11 115.445L194.762 114.752C194.661 113.801 194.225 112.728 193.953 111.806Z" fill="#021289"/>
<path d="M188.622 98.871L190.603 104.684C190.782 105.163 190.87 105.77 191.106 106.214L191.451 106.641L192.485 106.685L192.252 105.405C192.005 104.243 191.441 102.995 191.054 101.857L190.782 101.076C190.575 99.6553 189.939 97.9561 189.427 96.5987L188.118 96.5078C187.947 97.2508 188.404 98.1567 188.622 98.871Z" fill="#1E3080"/>
<path d="M190.989 140.178C190.515 141.53 190.608 143.081 191.319 144.334C191.832 145.238 192.737 146.102 193.785 146.315C194.527 146.466 195.441 146.348 196.163 146.165L196.558 145.293L195.486 145.266C194.427 145.205 193.477 144.805 192.781 143.977C192.151 143.227 191.91 142.416 192.022 141.437C192.133 140.467 192.687 139.796 193.412 139.2C194.059 138.892 194.13 138.843 194.827 138.968C194.929 138.366 195.13 137.798 195.319 137.219L194.332 137.236C192.873 137.961 191.571 138.522 190.989 140.178Z" fill="#F02502"/>
<path d="M194.672 142.706C194.263 142.194 194.774 139.733 194.826 138.962C194.128 138.837 194.057 138.886 193.411 139.194C192.685 139.79 192.131 140.461 192.021 141.431C191.909 142.41 192.149 143.221 192.78 143.971C193.475 144.799 194.426 145.199 195.485 145.26L196.557 145.287C196.748 145.07 196.994 144.937 197.235 144.781C197.609 144.314 197.909 143.745 198.229 143.237C197.71 142.942 197.272 142.943 196.684 142.921C195.969 143.032 195.362 142.894 194.672 142.706Z" fill="#021347"/>
<path d="M207.34 162.803C206.64 163.817 205.915 164.672 204.641 164.926C204.411 164.972 204.27 164.988 204.037 164.963C203.068 165.194 201.933 165.059 201.024 164.653C199.642 164.035 198.789 162.867 198.312 161.459C197.742 159.778 198.128 158.198 198.901 156.669L198.595 156.305C198.171 156.401 198.03 156.533 197.804 156.912C197.022 158.219 196.94 159.946 197.394 161.372C197.901 162.965 198.524 165.22 200.118 166.054C201.563 166.81 203.366 166.941 204.894 166.382C206 165.978 207.109 165.13 207.613 164.048C207.519 163.913 207.501 163.917 207.479 163.724C207.441 163.375 207.456 163.158 207.34 162.803Z" fill="#1E3080"/>
<path d="M187.358 121.386C187.129 121.569 187.224 121.48 187.043 121.747L186.899 121.955C186.528 122.513 186.428 123.026 186.224 123.637C185.998 124.316 186.154 125.155 186.28 125.819L186.282 126.028C186.3 126.36 186.432 126.5 186.589 126.781L186.709 127.017C186.979 127.532 187.295 127.883 187.785 128.189L188.003 128.342C188.342 128.569 188.653 128.628 189.043 128.71L189.214 128.75C189.572 128.82 189.92 128.837 190.228 128.636C190.57 128.632 190.511 128.641 190.82 128.485L191.117 128.411L191.338 128.117L191.084 128.033C190.787 127.93 190.626 127.789 190.383 127.595L190.23 127.484C189.42 127.509 188.869 127.446 188.263 126.863C187.643 126.268 187.296 125.54 187.285 124.677C187.267 123.358 188.074 122.27 188.932 121.356L190.135 120.07L188.141 120.434C187.974 120.958 187.768 121.057 187.358 121.386Z" fill="#F02502"/>
<path d="M188.265 126.859C188.872 127.442 189.422 127.504 190.233 127.479C190.92 127.188 191.436 126.883 191.823 126.224C192.002 125.92 192.188 125.667 192.415 125.397L192.507 125.289C191.822 125.287 190.971 125.361 190.313 125.171C189.922 125.057 189.575 124.83 189.39 124.455L188.951 123.448L188.93 123.432C188.513 122.86 188.822 122.028 188.934 121.352C188.076 122.265 187.27 123.354 187.287 124.673C187.299 125.536 187.646 126.264 188.265 126.859Z" fill="#021347"/>
<path d="M185.746 112.584C186.168 111.964 186.424 111.377 186.279 110.644L186.04 110.642C185.113 111.202 184.56 112.151 183.474 112.453C182.795 112.641 182.018 112.633 181.419 112.225C180.784 111.793 180.28 111.159 180.159 110.386C179.985 109.269 180.297 108.415 180.921 107.51C181.855 106.341 182.978 105.781 184.35 105.289C183.537 104.941 182.525 104.997 181.715 105.352C180.324 105.963 179.386 106.924 178.908 108.367C178.459 109.719 178.529 111.046 179.173 112.324C179.529 113.03 180.136 113.508 180.827 113.856L180.978 113.94C181.847 114.391 183.099 114.205 184.003 113.954C184.744 113.605 185.277 113.273 185.746 112.584Z" fill="#F02502"/>
<path d="M180.922 107.511C181.438 107.935 181.777 107.994 182.416 108.064L182.541 108.257C183.399 107.148 184.308 106.958 185.628 106.715C185.272 106.065 184.952 105.726 184.351 105.289C182.98 105.782 181.856 106.341 180.922 107.511Z" fill="#021289"/>
<path d="M180.923 107.508C180.299 108.413 179.987 109.267 180.161 110.384C180.282 111.156 180.787 111.79 181.421 112.223C182.02 112.631 182.797 112.638 183.476 112.45C184.562 112.149 185.115 111.199 186.042 110.639L183.346 110.628C182.997 110.467 182.742 110.347 182.546 110C182.24 109.459 182.371 108.82 182.542 108.254L182.417 108.061C181.778 107.991 181.439 107.932 180.923 107.508Z" fill="#0C115D"/>
<path d="M175.813 99.8833C177.053 99.7436 177.732 99.1466 178.489 98.2188L177.849 98.4758C176.937 98.9857 176.043 99.3644 174.974 99.1832C173.938 99.0076 173.164 98.3028 172.573 97.4846L172.377 97.1026C171.803 95.7648 172.051 94.0884 172.683 92.8133C173.237 91.6966 174.211 90.8023 175.399 90.4058C175.715 90.3004 175.922 90.1692 176.184 89.9631L176.283 89.8828C174.963 89.9231 173.864 90.5213 172.978 91.4935C171.858 92.7211 171.481 94.6291 171.577 96.2543C171.642 97.3639 172.1 98.0808 172.809 98.8883L173.049 99.1699C173.952 99.6112 174.776 100 175.813 99.8833Z" fill="#FDD88B"/>
<path d="M174.975 99.1931C176.044 99.3743 176.938 98.9956 177.851 98.4856L177.921 96.5458L177.818 96.6168C177.328 97.3702 176.684 97.9986 175.761 98.1543C175.275 98.236 174.768 98.0824 174.375 97.793C174.051 97.5534 173.808 97.2286 173.568 96.9085C173.344 96.451 173.218 96.0432 173.108 95.5469L172.574 97.4944C173.165 98.3126 173.939 99.0174 174.975 99.1931Z" fill="#F02502"/>
<path d="M174.053 95.5247C173.869 95.9929 173.873 96.4839 173.568 96.9011C173.808 97.2212 174.051 97.5461 174.376 97.7856C174.768 98.075 175.275 98.2287 175.761 98.1469C176.685 97.9911 177.329 97.3628 177.818 96.6094L177.423 96.8366C177.225 96.6077 177.117 96.454 176.82 96.354L176.608 96.2914C176.195 96.1348 176.026 95.6151 175.847 95.2452L175.405 94.4922L174.758 94.526C174.491 94.8345 174.204 95.141 174.053 95.5247Z" fill="#010123"/>
<path d="M176.607 96.2884L176.819 96.3509C177.115 96.4511 177.224 96.6047 177.422 96.8336L177.817 96.6064L177.921 96.5354L178.468 95.6189C177.556 95.5779 176.734 95.45 175.846 95.2422C176.025 95.612 176.194 96.1318 176.607 96.2884Z" fill="#0745AD"/>
<path d="M175.4 90.4056C174.211 90.8021 173.237 91.6964 172.684 92.813C172.051 94.0882 171.803 95.7645 172.377 97.1024L172.573 97.4844L173.107 95.5368C173.542 94.2819 173.468 92.9229 174.51 91.9547C175.924 90.6417 176.576 90.8531 178.402 90.9544L178.396 90.6482C177.818 90.0963 177.055 89.9627 176.283 89.8828L176.184 89.9631C175.922 90.169 175.716 90.3002 175.4 90.4056Z" fill="#F7451B"/>
<path d="M178.19 91.002L178.403 90.9525C176.576 90.8512 175.925 90.6399 174.511 91.9528C173.468 92.9212 173.542 94.2801 173.107 95.535C173.218 96.0313 173.344 96.4391 173.568 96.8966C173.872 96.4793 173.869 95.9884 174.053 95.5202C174.204 95.1365 174.491 94.83 174.757 94.5215L175.404 94.4877C175.375 94.2964 175.35 94.0903 175.364 93.897C175.421 93.143 175.912 92.7344 176.459 92.2828L176.637 91.393C177.06 91.0162 177.662 91.1214 178.19 91.002Z" fill="#021289"/>
<path d="M198.776 159.104C198.57 160.354 198.872 161.642 199.65 162.649C200.25 163.424 201.176 164.157 202.128 164.438C202.695 164.605 203.625 164.547 204.038 164.963C204.271 164.988 204.412 164.972 204.642 164.926C205.916 164.673 206.642 163.817 207.342 162.803C207.705 161.857 207.837 160.979 207.613 159.982L205.636 160.548C205.525 161.416 205.532 162.078 204.799 162.673C204.168 163.186 203.396 163.353 202.594 163.192C202.297 163.134 202.007 162.996 201.736 162.866L201.113 162.436C200.402 161.811 200.044 160.624 200.07 159.703C200.104 158.463 200.734 157.705 201.618 156.921C202.276 156.46 203.069 156.343 203.716 155.876L203.63 155.536C203.098 155.165 202.644 155.027 202.013 154.891L201.516 155.048L200.697 155.63C199.507 156.455 199.006 157.703 198.776 159.104Z" fill="#F7451B"/>
<path d="M203.715 155.869C203.068 156.336 202.275 156.453 201.617 156.914L202.266 157.794L202.191 157.95C202.08 158.214 202.06 158.443 202.026 158.726L202.137 158.615C203.093 157.623 204.103 156.946 205.256 156.212C205.206 155.965 205.159 155.71 205.017 155.496C204.707 155.031 203.945 154.732 203.407 154.665C202.903 154.602 202.44 154.575 202.012 154.883C202.643 155.019 203.097 155.158 203.629 155.529L203.715 155.869Z" fill="#0745AD"/>
<path d="M202.265 157.794L201.616 156.914C200.732 157.698 200.102 158.456 200.068 159.696C200.042 160.617 200.4 161.804 201.111 162.429L201.734 162.859C202.005 162.989 202.295 163.126 202.592 163.185C203.394 163.346 204.166 163.179 204.797 162.666C205.53 162.071 205.523 161.409 205.635 160.54C204.938 160.788 204.099 161.004 203.448 161.338L203.319 161.35C202.798 161.413 202.29 161.526 201.852 161.156C201.504 160.864 201.354 160.64 201.308 160.184C201.25 159.608 201.695 159.15 202.025 158.726C202.059 158.444 202.079 158.214 202.19 157.95L202.265 157.794Z" fill="#0C115D"/>
<path d="M193.955 111.801C194.439 111.54 196.227 111.807 196.82 111.972C197.034 112.032 197.176 112.12 197.364 112.237L197.646 112.897L198.945 112.087L198.801 111.686L193.68 111.117L193.955 111.801Z" fill="#0B79DF"/>
<path d="M196.819 111.968C196.226 111.803 194.439 111.536 193.955 111.797C194.227 112.719 194.663 113.791 194.764 114.742L197.646 112.893L197.363 112.233C197.176 112.116 197.034 112.028 196.819 111.968Z" fill="#0F9EF2"/>
<path d="M207.28 127.064L207.777 126.811C204.83 126.791 201.894 126.28 198.982 125.852C199.467 127.517 200.049 129.217 200.816 130.774C201.009 130.861 201.16 130.898 201.366 130.953C201.693 131.04 201.821 131.149 202.076 131.358C202.756 131.147 203.549 130.229 204.093 129.765C205.161 128.855 206.256 128.033 207.28 127.064Z" fill="#0E8CE8"/>
<path d="M230.091 152.067C229.775 152.164 229.185 152.262 228.918 152.436C228.928 153.358 227.314 155.161 226.66 155.835C225.486 157.041 223.968 157.977 222.359 158.463L222.122 158.537C220.324 159.066 218.013 158.822 216.204 158.424C215.696 158.312 215.025 158.199 214.577 157.936L214.131 157.573L208.424 159.639C211.657 161.305 214.455 163.462 218.007 164.484C221.737 165.557 225.306 165.137 228.693 163.253C231.26 161.826 234.249 159.004 235.076 156.107L232.893 151.211L230.091 152.067Z" fill="#0B5CCA"/>
<path d="M216.205 158.425C218.015 158.824 220.326 159.068 222.124 158.538L222.36 158.465C223.969 157.979 225.488 157.043 226.661 155.836C227.316 155.163 228.929 153.36 228.919 152.438C228.58 152.555 228.002 152.679 227.714 152.869C226.086 155.122 223.871 157.192 221.023 157.624C218.997 157.932 217.042 157.498 215.041 157.266L214.133 157.574L214.578 157.937C215.026 158.201 215.698 158.313 216.205 158.425Z" fill="#0745AD"/>
<path d="M221.023 157.638C223.871 157.205 226.086 155.135 227.714 152.883L215.041 157.279C217.042 157.511 218.997 157.946 221.023 157.638Z" fill="#0E8CE8"/>
<path d="M216.824 148.57C216.698 148.745 216.523 149.08 216.364 149.208C215.98 149.522 214.495 150.128 213.995 150.175L213.442 150.132L209.909 153.044L209.902 153.843L222.736 149.362L222.812 148.935C221.134 149.413 218.571 148.793 216.824 148.57Z" fill="#0745AD"/>
<path d="M213.993 150.179C214.493 150.132 215.977 149.526 216.362 149.212C216.52 149.084 216.696 148.749 216.822 148.574L215.386 148.391L213.439 150.136L213.993 150.179Z" fill="#0C3EAF"/>
<path d="M215.388 148.381C213.764 148.256 211.972 148.258 210.38 147.93L210.722 148.165L210.126 148.573L208.678 150.053C208.981 150.962 209.395 152.237 209.909 153.038L213.441 150.126L215.388 148.381Z" fill="#8AA1BD"/>
<path d="M226.595 145.22C225.013 144.681 223.373 144.446 221.709 144.357L221.7 144.341C221.306 144.27 221.081 144.191 220.749 143.967C220.692 143.59 220.598 143.377 220.397 143.055L219.076 144.461L221.749 145.046L225.374 145.962L227.037 146.281L226.595 145.22Z" fill="#1E3080"/>
<path d="M225.376 145.969L222.82 148.802L222.81 148.94L222.734 149.367L227.591 147.696L227.039 146.288L225.376 145.969Z" fill="#0B5CCA"/>
<path d="M221.986 134.956C220.995 135.659 220.142 136.555 219.26 137.388L215.424 141.042C215.116 141.345 213.997 142.681 213.669 142.781C213.292 142.896 211.974 142.609 211.54 142.559C209.724 142.35 207.285 141.99 205.5 142.309L205.463 142.989L214.334 143.688L222.48 135.08L222.127 134.859L221.986 134.956Z" fill="#0C3EAF"/>
<path d="M223.311 141.187L220.75 143.972C221.083 144.197 221.307 144.276 221.701 144.347L221.711 144.363C223.374 144.452 225.014 144.687 226.596 145.226L224.529 139.836C224.043 140.087 223.68 140.769 223.311 141.187Z" fill="#0B79DF"/>
<path d="M223.312 141.178C223.68 140.76 224.043 140.078 224.53 139.827C224.432 139.533 224.293 139.285 224.142 139.016L220.398 143.051C220.599 143.374 220.693 143.587 220.75 143.963L223.312 141.178Z" fill="#0745AD"/>
<path d="M224.529 139.834L226.595 145.224L227.038 146.286L227.59 147.693L229.676 147.009L226.436 136.422L224.141 139.023C224.292 139.292 224.43 139.54 224.529 139.834Z" fill="#021347"/>
<path d="M228.841 133.477L226.438 136.419L229.678 147.006L234.195 145.863C232.95 144.093 232.216 141.935 231.309 139.978L229.497 136.002C229.204 135.304 228.905 134.808 228.88 134.026L229.017 133.808L228.841 133.477Z" fill="url(#paint5_linear_4343_7458)"/>
<path d="M230.015 131.781C229.683 132.41 229.286 132.925 228.839 133.472L229.016 133.803L228.879 134.021L228.988 134.255C229.328 134.998 229.524 135.793 229.876 136.538C231.245 139.436 232.996 142.389 234.78 145.055C235.287 145.813 236.037 146.33 236.56 147.062C237.284 148.077 237.874 149.198 238.575 150.233L242.896 156.718C243.771 158.094 244.759 159.568 245.241 161.135C245.785 162.902 245.532 164.91 244.885 166.613C243.171 171.121 239.52 173.901 235.23 175.797C226.248 179.767 215.822 178.609 206.656 175.884C205.782 175.624 203.157 174.789 203.114 174.816C203.044 174.859 202.709 175.793 202.656 175.927C200.908 180.355 200.007 185.113 199.996 189.877C202.283 191.101 204.659 192.095 207.022 193.16C217.163 197.729 227.855 201.471 238.854 203.321C243.249 204.061 247.378 204.797 251.75 203.465C255.954 202.185 261.311 199.602 263.426 195.527C265.361 191.799 264.336 186.31 263.072 182.497L260.94 177.454C260.871 177.412 256.654 170.436 256.382 169.857L256.581 169.433L229.653 133.661C229.955 133.237 230.287 132.813 230.522 132.348L230.631 132.125L230.22 132.131L230.015 131.781Z" fill="#0E8CE8"/>
<path d="M2.93124 160.993C3.76921 160.444 4.67279 160.22 5.67041 160.425C7.50205 160.801 9.1922 162.177 10.8257 163.031C12.0732 163.684 13.3771 164.203 14.6767 164.742C18.3535 166.15 22.1791 167.009 25.3182 169.494C25.6621 169.479 26.0277 169.432 26.3621 169.521C26.8163 169.642 27.2768 169.554 27.7317 169.632C29.3281 169.907 31.0587 169.721 32.6177 170.051C32.9743 170.126 33.4842 170.064 33.8534 170.066C34.9825 170.072 36.1126 170.123 37.2061 169.93C38.2029 169.755 39.2876 169.953 40.3153 169.782C40.8582 169.692 41.4581 169.756 42.019 169.684L47.3071 168.804C50.0966 168.224 52.8299 167.372 55.5547 166.546C58.4497 165.668 61.3055 164.813 64.1071 163.653C67.5653 162.222 70.9879 160.453 74.3047 158.724C77.6015 157.004 80.7957 155.297 83.8761 153.195C88.0695 150.334 91.8663 147.056 95.84 143.919C96.5487 143.359 97.2191 142.417 98.0053 142.023L98.2481 141.909C98.6041 141.552 99.1418 141.109 99.3489 140.649C99.7285 139.805 100.317 139.313 100.954 138.65L103.705 135.709L107.985 130.463L116.916 117.93C121.025 112.106 125.444 106.225 130.408 101.106C131.873 99.5956 133.342 98.0278 134.952 96.6748C137.596 94.4544 140.379 92.6709 143.395 91.0129C143.934 90.7168 144.156 90.625 144.781 90.6759C145.103 90.6117 146.689 88.7887 147.013 88.4672L156.369 78.9909C157.815 77.4588 159.385 75.9775 160.581 74.2369C159.874 74.4895 159.329 75.1223 158.726 75.5656C157.152 76.722 155.31 77.9518 153.425 78.5137C152.541 78.7776 150.775 79.132 149.958 78.5514C149.646 78.3295 149.538 78.0565 149.507 77.6846C149.421 76.6325 149.838 75.483 150.299 74.5469C151.181 72.7548 152.421 71.105 153.504 69.4281C155.638 66.1228 157.814 62.7609 159.64 59.2737L163.701 51.067L166.321 45.4591C166.922 44.215 167.494 42.9551 168.385 41.8878C168.383 41.3604 167.78 40.1907 167.582 39.6557C165.88 35.0746 164.102 30.3056 161.67 26.0547C161.308 31.2635 159.429 35.7901 157.012 40.361C154.061 45.942 150.318 51.2599 145.53 55.4183C141.181 59.1954 136.615 61.6482 130.708 61.2765C129.392 61.1936 128.035 60.9417 126.785 60.5224C125.649 60.5567 124.559 60.5632 123.453 60.8608C119.502 61.9244 116.632 64.4915 114.569 67.9689C113.188 70.2964 112.168 72.8188 111.045 75.2748L104.039 90.9937L94.6324 111.421L91.6667 117.873C90.4499 120.5 89.2619 123.043 88.5681 125.868C88.0834 127.841 88.1911 129.652 89.2566 131.434C91.1185 134.549 94.1939 135.899 97.5682 136.777C93.4471 141.139 88.8583 145.046 84.0288 148.594C78.9754 152.306 73.5653 155.783 67.8696 158.437C63.9681 160.254 59.9279 161.604 55.789 162.759C49.7397 164.447 43.5605 165.644 37.2682 165.824C29.3727 166.05 14.6405 163.482 8.69959 157.775C6.60209 155.76 5.49057 153.559 5.44676 150.609C5.37431 145.736 7.81514 140.966 10.1119 136.797C10.2056 137.363 9.40549 138.725 9.1579 139.303C8.17033 141.611 7.41239 143.905 7.01937 146.393C6.62892 148.866 7.07836 151.518 8.4068 153.643L8.54123 153.861C10.8252 157.44 15.9032 159.024 19.8462 159.835C23.7431 160.637 27.777 160.667 31.7358 160.438C41.8929 159.852 52.0799 157.259 61.3651 153.109C63.4282 152.187 65.6545 151.239 67.5405 149.983C70.8325 147.792 74.038 144.834 74.7958 140.775C74.9823 139.776 74.8962 138.791 74.6608 137.812L74.6048 137.574C74.2346 136.075 73.28 134.792 71.9604 133.997C70.4433 133.083 68.9953 133.11 67.329 133.56C65.0412 134.177 62.8969 135.028 60.5436 135.463C52.4668 136.959 42.9527 135.382 35.8013 131.356C32.8309 129.683 29.7663 127.286 28.8015 123.872C28.4287 122.553 28.5691 121.107 28.9591 119.811L29.0237 119.59C29.833 116.885 31.4096 114.15 32.759 111.673C32.777 111.464 33.0939 110.995 33.209 110.775L34.9876 107.646C35.4405 106.923 35.8703 106.687 36.0693 105.789C34.4501 107.327 33.0382 109.14 31.5855 110.836L23.8989 119.79L14.1937 130.933C12.459 132.945 10.6153 134.921 9.01215 137.037C5.09285 142.208 1.7649 148.341 0.522899 154.761C0.166638 156.602 0.0706809 158.482 0.019069 160.353C-0.0300851 162.137 -0.0420528 164.551 0.736721 166.183C1.06712 165.692 0.922545 164.815 1.0932 164.199C1.37359 162.935 1.79834 161.735 2.93124 160.993ZM101.763 125.626L104.52 122.292C105.978 120.501 107.352 118.52 108.998 116.9C109.37 116.534 109.747 116.301 110.23 116.1L118.092 105.919L117.876 105.782C117.207 105.803 116.617 106.35 116.059 106.72C115.232 107.269 114.371 107.783 113.422 108.09L113.237 108.149C112.154 108.523 110.558 108.62 109.489 108.129C108.719 107.776 108.145 107.111 107.897 106.303C107.722 105.734 107.609 104.586 107.883 104.044C108.027 100.574 109.641 97.0548 110.785 93.8131L115.126 82.3394C116.162 79.8313 117.167 77.2254 118.727 74.9855C119.796 73.4508 121.075 71.9953 122.786 71.1727C124.668 70.268 126.807 69.8479 128.827 69.3678C131.38 68.761 133.908 68.1486 136.4 67.3182L143.039 64.7668C144.559 64.1225 146.191 63.1369 147.81 62.8554C148.277 63.0105 148.308 62.9883 148.566 63.3994C148.536 64.2149 148.233 64.9126 147.678 65.5048L141.392 74.4385L118.63 106.398L108.634 119.82L103.792 125.69C103.171 126.45 102.295 127.272 101.959 128.206C101.608 128.457 101.524 128.601 101.083 128.576L100.81 128.374C100.491 128.14 100.4 128.086 100.237 127.732C100.599 126.916 101.209 126.313 101.763 125.626Z" fill="#0E8CE8"/>
<path d="M5.67075 160.434C4.67314 160.229 3.76966 160.453 2.93158 161.002C1.79868 161.744 1.37393 162.944 1.09375 164.208C1.40449 164.076 1.37211 164.154 1.52855 163.821C2.07288 162.664 2.98063 161.605 4.23972 161.222C5.40564 160.868 6.82844 161.095 7.87083 161.698L8.768 162.228L9.98767 162.971C10.1829 163.097 10.347 163.158 10.5568 163.248L11.0379 163.512C11.3256 163.68 11.6641 163.834 11.9635 163.986C12.4647 164.242 13.0654 164.469 13.5928 164.667L14.1112 164.9L14.6771 164.751C13.3775 164.213 12.0735 163.693 10.8261 163.041C9.19254 162.186 7.50239 160.81 5.67075 160.434Z" fill="#021347"/>
<path d="M100.809 128.383C101.045 127.601 101.879 126.765 102.397 126.127L105.864 121.863C107.368 119.997 108.886 118.093 110.229 116.109C109.746 116.31 109.369 116.543 108.997 116.909C107.351 118.529 105.977 120.51 104.52 122.301L101.762 125.635C101.208 126.322 100.598 126.925 100.236 127.742C100.399 128.095 100.49 128.149 100.809 128.383Z" fill="#0B5CCA"/>
<path d="M102.396 126.123C101.879 126.761 101.044 127.597 100.809 128.379L101.081 128.581C101.523 128.606 101.607 128.463 101.958 128.211C102.293 127.277 103.169 126.455 103.79 125.695L108.632 119.826L118.628 106.403L141.391 74.4437L147.676 65.5099L147.682 65.3379C147.698 64.9283 147.683 64.6345 147.942 64.2928L147.765 64.2188C146.815 65.3141 146.093 66.7459 145.264 67.9544L140.456 74.8052C139.67 75.9707 138.909 77.3805 137.937 78.3885L123.999 97.7905L120.226 103.043C119.547 103.993 118.886 105.073 118.091 105.924L110.228 116.105C108.885 118.089 107.367 119.993 105.863 121.859L102.396 126.123Z" fill="#021347"/>
<path d="M46.6358 174.663C47.899 173.934 49.6191 173.57 51.0021 173.059L60.3794 169.262C67.5858 165.963 74.6431 162.144 81.0814 157.5L86.457 153.22C89.202 151.018 91.9744 148.843 94.4639 146.352C95.6282 145.186 97.6718 143.47 98.2483 141.914L98.0054 142.028C97.2193 142.422 96.5489 143.365 95.8402 143.924C91.8665 147.062 88.0697 150.339 83.8763 153.201C80.7959 155.302 77.6017 157.01 74.3049 158.729C70.988 160.459 67.5654 162.228 64.1073 163.659C61.3056 164.818 58.4499 165.673 55.5549 166.551C52.83 167.377 50.0968 168.229 47.3073 168.809L42.0191 169.689C41.4582 169.762 40.8583 169.697 40.3155 169.787C39.2877 169.958 38.203 169.76 37.2063 169.935C36.1127 170.128 34.9826 170.077 33.8536 170.071C33.4843 170.069 32.9743 170.132 32.6179 170.056C31.0588 169.726 29.3283 169.912 27.7318 169.638C27.277 169.56 26.8166 169.647 26.3622 169.527C26.0279 169.438 25.6622 169.484 25.3184 169.499L31.6554 176.304C34.4031 176.283 37.1417 175.986 39.872 175.707C42.0902 175.48 44.4963 175.284 46.6358 174.663Z" fill="#0B79DF"/>
<path d="M163.699 51.0698L159.638 59.2766C157.812 62.7637 155.637 66.1257 153.502 69.431C152.419 71.1079 151.179 72.7576 150.297 74.5497C149.836 75.4858 149.42 76.6354 149.505 77.6875C149.536 78.0594 149.645 78.3325 149.957 78.5542C150.774 79.1349 152.539 78.7804 153.424 78.5166C155.309 77.9545 157.15 76.7247 158.724 75.5684C159.328 75.1252 159.873 74.4924 160.579 74.2397C161.673 73.0905 162.652 71.7525 163.617 70.4914C165.633 67.8591 167.502 65.1333 168.959 62.1463C170.713 58.5505 171.783 54.6863 171.119 50.6689C170.621 47.6627 169.371 44.7639 168.384 41.8906C167.493 42.9578 166.921 44.2179 166.32 45.4619L163.699 51.0698Z" fill="#0C3EAF"/>
<path d="M124.001 97.7926L137.939 78.3906C136.678 78.422 135.352 78.99 134.145 79.3337C127.601 81.1994 121.346 83.8659 116.569 88.8535L115.776 89.7629C113.189 92.9045 111.223 96.7815 109.531 100.469C109.019 101.583 108.62 102.785 108.08 103.874C107.986 104.064 108.049 104.022 107.883 104.051C107.61 104.593 107.722 105.741 107.897 106.31C108.146 107.118 108.719 107.783 109.489 108.136C110.558 108.627 112.155 108.53 113.238 108.156L113.422 108.097C114.372 107.79 115.233 107.276 116.059 106.727C116.617 106.356 117.207 105.81 117.877 105.789L118.093 105.926C118.888 105.075 119.549 103.995 120.228 103.045L124.001 97.7926Z" fill="#0B79DF"/>
<path d="M108.08 103.878C108.62 102.79 109.019 101.588 109.53 100.474C111.223 96.7861 113.189 92.909 115.776 89.7675L116.569 88.8581C121.346 83.8705 127.6 81.2039 134.145 79.3383C135.352 78.9946 136.678 78.4265 137.938 78.3952C138.91 77.3872 139.671 75.9774 140.458 74.8119L145.266 67.9611C146.095 66.7526 146.816 65.3208 147.766 64.2254L147.944 64.2995C147.685 64.6412 147.7 64.935 147.683 65.3446L147.678 65.5166C148.233 64.9244 148.536 64.2267 148.566 63.4112C148.307 63.0001 148.277 63.0223 147.81 62.8672C146.191 63.1489 144.559 64.1343 143.039 64.7786L136.4 67.3301C133.907 68.1605 131.38 68.7727 128.827 69.3796C126.807 69.8596 124.667 70.2799 122.786 71.1845C121.075 72.0071 119.795 73.4626 118.727 74.9974C117.167 77.2372 116.162 79.8431 115.126 82.3513L110.785 93.8249C109.641 97.0665 108.027 100.585 107.883 104.056C108.049 104.027 107.986 104.068 108.08 103.878Z" fill="#0B5CCA"/>
<path d="M143.395 91.0222C140.378 92.6801 137.595 94.4637 134.951 96.6841C133.341 98.0371 131.872 99.6048 130.407 101.115C125.443 106.234 121.024 112.116 116.916 117.939L107.984 130.472L103.704 135.718L100.953 138.659C100.316 139.322 99.7277 139.814 99.348 140.658C99.141 141.119 98.6032 141.561 98.2473 141.918C97.6707 143.474 95.6272 145.19 94.4629 146.355C91.9734 148.847 89.201 151.022 86.456 153.224L81.0804 157.504C74.6421 162.148 67.5848 165.967 60.3784 169.266L51.001 173.063C49.6181 173.574 47.8979 173.938 46.6348 174.667L49.7455 174.06C61.7631 171.411 73.2962 166.288 83.7823 159.93C88.6769 156.962 93.5159 153.673 97.7641 149.819C105.119 143.148 111.347 135.116 116.679 126.765C116.92 126.129 117.496 125.411 117.871 124.824L120.892 120.261L128.805 108.873C133.349 102.825 138.386 97.1304 143.744 91.7937L144.78 90.6852C144.156 90.6342 143.933 90.7259 143.395 91.0222Z" fill="#0745AD"/>
<path d="M118.819 146.544C119.359 145.652 119.858 144.711 120.543 143.921C121.385 143.02 122.043 141.642 122.698 140.579L125.563 136.116L121.416 131.648L118.704 135.637C116.6 139.27 114.119 142.723 111.717 146.165C108.227 151.166 104.606 156.013 100.263 160.319C90.6697 169.828 77.6803 175.843 64.7604 179.283C57.7571 181.147 49.8432 182.165 42.6323 181.146C40.0965 180.789 37.4068 180.164 35.1801 178.858C33.9128 178.115 32.7328 177.306 31.6546 176.307L25.3176 169.501C22.1783 167.017 18.3528 166.158 14.6761 164.75L14.1102 164.898L13.5919 164.665C13.0644 164.468 12.4638 164.24 11.9625 163.985C11.6632 163.832 11.3247 163.678 11.0369 163.51L10.5558 163.246C10.3461 163.156 10.1819 163.095 9.98672 162.969L8.76705 162.226L7.86988 161.696C6.82749 161.093 5.40469 160.866 4.23878 161.22C2.97979 161.603 2.07193 162.662 1.5276 163.819C1.37116 164.152 1.40354 164.075 1.0928 164.207C0.922259 164.823 1.06684 165.7 0.736328 166.191C1.19539 167.895 2.16693 168.861 3.32323 170.123C4.58147 171.497 5.89538 172.78 7.36787 173.924C11.219 176.917 15.645 179.409 20.0214 181.547C26.2306 184.58 32.7124 187.122 39.5759 188.189C44.2339 188.914 49.1144 188.876 53.7846 188.27C65.4853 186.749 76.5417 183.086 86.9522 177.554C94.6799 173.447 101.644 168.594 107.724 162.265C110.22 159.666 112.123 156.76 114.309 153.93C114.88 153.303 115.343 152.386 115.785 151.658L118.819 146.544Z" fill="#1E3080"/>
<path d="M80.3674 84.2316L80.6635 84.2726C81.492 84.3801 82.2327 84.5553 83.0286 84.797C84.0642 85.1314 85.193 85.7607 86.233 85.9496C87.3695 85.1889 88.3641 84.784 89.761 85.0526C90.7654 85.246 91.5813 85.862 92.1599 86.6994C92.7986 87.6242 92.944 88.9733 92.6992 90.0492C92.4287 91.2369 91.764 92.231 90.7244 92.8792C90.0379 93.3073 89.1878 93.515 88.3921 93.3266C87.1247 93.0269 86.2381 92.2664 85.5994 91.1412C85.4478 90.8741 85.34 90.6629 85.3086 90.3538L85.1179 89.6949L81.56 88.8199C81.0078 90.3849 80.0886 91.8518 79.3802 93.3562C78.544 95.1327 77.8612 97.2173 76.7208 98.8137C78.4191 99.2916 80.3965 99.5871 81.3708 101.235C81.4483 101.808 81.4963 102.327 81.1019 102.812C80.7065 103.299 80.1552 103.413 79.5561 103.4C78.1614 103.37 76.6133 102.875 75.2428 102.587L69.2967 113.065C70.8865 113.874 73.6997 114.887 74.5475 116.559C74.8081 117.073 74.8117 117.631 74.6174 118.168C74.4039 118.758 73.9268 119.22 73.3435 119.447C72.7539 119.676 72.0894 119.627 71.4885 119.465C70.6852 119.249 70.0198 118.725 69.2756 118.373C68.2419 117.884 67.1284 117.525 66.0556 117.127L46.0131 109.568C45.658 109.997 45.5034 110.269 44.9067 110.346C43.9031 110.476 42.8478 110.099 41.864 110.218L42.0849 110.425C42.9416 111.201 44.0885 111.733 45.1608 112.139C47.6218 113.072 50.308 113.573 52.8399 114.296L63.6747 117.759C64.4402 117.999 66.3262 118.307 66.8794 118.793C63.7958 122.605 59.6865 125.011 54.775 125.535C49.1347 126.136 43.3521 123.626 39.0496 120.109C36.2884 117.851 33.9143 115.267 32.8065 111.808L32.7591 111.678C31.4097 114.156 29.8331 116.891 29.0238 119.596L28.9593 119.817C28.5692 121.113 28.4289 122.558 28.8016 123.878C29.7665 127.292 32.831 129.689 35.8014 131.362C42.9528 135.388 52.4669 136.965 60.5437 135.469C62.897 135.034 65.0412 134.182 67.3291 133.565C68.9954 133.116 70.4435 133.088 71.9605 134.002C73.2801 134.797 74.2347 136.08 74.6049 137.579L74.6609 137.818C74.8963 138.797 74.9824 139.782 74.796 140.781C74.0381 144.839 70.8326 147.798 67.5406 149.989C65.6546 151.244 63.4283 152.193 61.3652 153.115C52.08 157.265 41.893 159.857 31.7359 160.444C27.7771 160.673 23.7433 160.643 19.8463 159.841C15.9034 159.03 10.8253 157.446 8.54136 153.867L8.40693 153.649C7.07848 151.524 6.62904 148.872 7.0195 146.399C7.41252 143.911 8.17045 141.616 9.15803 139.309C9.40561 138.731 10.2059 137.369 10.112 136.802C7.81526 140.972 5.37444 145.741 5.44689 150.615C5.4907 153.565 6.60222 155.766 8.69972 157.78C14.6406 163.487 29.3728 166.056 37.2683 165.83C43.5606 165.649 49.7399 164.453 55.7891 162.765C59.928 161.61 63.9683 160.26 67.8697 158.442C73.5654 155.789 78.9756 152.312 84.0289 148.6C88.8584 145.052 93.4472 141.144 97.5683 136.783C94.194 135.905 91.1188 134.555 89.2567 131.44C88.1912 129.657 88.0834 127.847 88.5682 125.873C89.262 123.049 90.4501 120.506 91.6669 117.878L94.6326 111.427L104.039 90.9994L111.046 75.2806C112.168 72.8246 113.188 70.3021 114.569 67.9746C116.632 64.4973 119.503 61.9302 123.453 60.8665C124.559 60.5689 125.649 60.5624 126.785 60.5281C126.528 60.3576 126.31 60.1967 126.098 59.9702C125.664 59.5076 125.354 59.0345 125.179 58.4221C124.839 57.231 125.087 55.6187 125.161 54.38L125.302 50.3838C121.807 50.8218 118.415 51.0806 114.886 50.9579C110.623 50.8101 105.373 49.265 101.457 51.6004C100.427 52.2146 99.6358 53.1027 98.9058 54.037C98.0574 55.1229 97.2262 56.5247 96.7974 57.838L102.958 58.5602C103.416 57.7467 104.039 57.0586 104.966 56.7929C105.851 56.5391 106.734 56.649 107.525 57.1208C108.45 57.6725 109.064 58.5617 109.304 59.5975C109.61 60.9185 109.186 62.4574 108.434 63.5585C107.84 64.4279 106.933 65.1208 105.885 65.3186C104.8 65.5229 103.706 65.1697 102.834 64.5247C102.373 64.1841 101.69 63.5187 101.565 62.933L101.553 62.8098L101.618 62.4394L95.7306 61.8723C94.3284 63.9738 93.0667 66.1432 91.8961 68.3813C91.2704 69.5774 90.5671 70.833 90.1685 72.128L94.5073 72.8054L94.4857 72.6142L94.4635 72.3017C95.3135 71.5122 96.295 71.0757 97.473 71.1062C98.5891 71.1349 99.6309 71.5561 100.378 72.4086C101.143 73.2803 101.368 74.3636 101.27 75.4962C101.165 76.7041 100.551 77.9262 99.6123 78.7008C98.7707 79.3947 97.7873 79.7453 96.6912 79.5717C95.2875 79.3499 94.2472 78.3955 93.4675 77.2637L93.2605 76.9524L93.36 76.5997C93.5573 76.5203 93.4702 76.537 93.6878 76.5254C94.1824 76.4994 94.6271 76.4499 95.1116 76.3442L88.707 75.9471L85.8914 80.3132C85.1185 81.6428 84.3827 83.3461 83.2845 84.4325C82.5124 84.3111 81.5243 84.2179 80.8571 83.8036L80.749 83.148L80.3596 82.923L66.8572 82.9728C65.6784 82.6917 63.0909 78.3897 62.2807 77.3287C62.0011 78.0566 61.7876 78.8902 61.3653 79.5431C62.6079 81.3776 64.1112 83.629 65.7844 85.1117C66.1226 85.3806 66.4246 85.6439 66.7253 85.9533C71.0901 84.7932 75.813 83.6205 80.3674 84.2316ZM79.1121 119.9C78.5178 121.558 77.3244 122.939 75.7034 123.664C74.1872 124.342 72.5604 124.321 71.0247 123.724C69.4715 123.12 68.6642 122.017 68.0385 120.531L67.7599 118.487C68.5855 119.271 69.098 120.264 69.8716 121.075C70.6771 121.92 71.8488 122.51 73.0383 122.467C74.2802 122.422 75.5432 121.654 76.37 120.764C77.1929 119.879 77.6329 118.812 77.5542 117.593C77.4861 116.541 76.94 115.283 76.125 114.592C75.2515 113.851 74.33 113.867 73.2399 113.985L73.1122 114L73.0062 113.82C73.4314 113.489 74.0281 113.35 74.5345 113.176C75.186 113.084 75.9512 113.034 76.5849 113.237C77.7098 113.598 78.5316 114.563 79.0122 115.609C79.6279 116.948 79.6037 118.528 79.1121 119.9ZM84.2596 105.656C83.4177 106.438 82.4052 106.842 81.2557 106.784C79.7819 106.708 78.8415 105.983 77.8986 104.938L77.728 104.344L77.8504 104.143C78.6679 104.805 79.5087 105.335 80.5921 105.343C81.5673 105.351 82.3952 105.022 83.0683 104.301C83.6969 103.629 83.9694 102.752 83.9042 101.842C83.8465 101.037 83.4512 100.237 82.8151 99.7331C81.5447 98.7274 79.9369 99.072 78.4429 99.1929C79.3704 98.7141 80.2288 98.3543 81.2344 98.0824C82.4752 98.0637 83.4844 98.2199 84.4118 99.1008C85.2291 99.8769 85.644 101.081 85.6553 102.197C85.6677 103.431 85.1728 104.808 84.2596 105.656Z" fill="#0C3EAF"/>
<path d="M81.2349 98.0795C80.2293 98.3514 79.3709 98.7112 78.4434 99.19C79.9374 99.0691 81.5453 98.7245 82.8157 99.7302C83.4517 100.234 83.847 101.035 83.9047 101.839C83.9699 102.749 83.6974 103.626 83.0688 104.298C82.3957 105.019 81.5678 105.348 80.5926 105.341C79.5091 105.332 78.6684 104.802 77.8509 104.14L77.7285 104.341L77.8991 104.935C78.842 105.98 79.7824 106.705 81.2562 106.781C82.4057 106.839 83.4182 106.435 84.2601 105.653C85.1733 104.805 85.6682 103.428 85.6557 102.195C85.6445 101.078 85.2295 99.8742 84.4122 99.098C83.4848 98.217 82.4756 98.0609 81.2349 98.0795Z" fill="#FE8D21"/>
<path d="M84.0579 76.872C83.8249 77.6158 82.9498 79.2078 82.2898 79.5638C82.216 80.4187 81.2768 81.9085 80.8381 82.6812L80.4991 82.7967L80.3613 82.9299L80.7507 83.155L80.8589 83.8105C81.5261 84.2248 82.5142 84.3181 83.2862 84.4395C84.3845 83.353 85.1204 81.6497 85.8932 80.3202L88.7088 75.9541L84.5246 75.7578L84.0579 76.872Z" fill="#0B5CCA"/>
<path d="M76.2077 92.6595C76.0843 93.0021 75.9885 93.43 75.7605 93.7131C75.3089 94.6601 74.911 96.73 74.1484 97.3237C74.2971 97.6738 74.39 97.9734 74.4621 98.351L76.7201 98.813C77.8604 97.2165 78.5433 95.1318 79.3795 93.3555C80.0879 91.8511 81.0071 90.3842 81.5593 88.8192L78.0037 88.3516C77.5672 89.8517 76.9761 91.2956 76.2077 92.6595Z" fill="#0B5CCA"/>
<path d="M76.5848 113.243C75.9511 113.04 75.1859 113.09 74.5344 113.182C74.028 113.355 73.4313 113.495 73.0061 113.826L73.1121 114.005L73.2398 113.99C74.3299 113.873 75.2514 113.856 76.125 114.597C76.9398 115.289 77.486 116.546 77.5541 117.598C77.6328 118.818 77.1928 119.884 76.3699 120.77C75.5431 121.66 74.2801 122.428 73.0382 122.473C71.8486 122.516 70.6768 121.926 69.8715 121.081C69.0979 120.27 68.5854 119.277 67.7598 118.492L68.0384 120.536C68.6641 122.023 69.4714 123.125 71.0246 123.729C72.5603 124.327 74.1871 124.348 75.7033 123.67C77.3243 122.945 78.5177 121.564 79.112 119.905C79.6036 118.533 79.6278 116.954 79.0122 115.614C78.5315 114.569 77.7097 113.603 76.5848 113.243Z" fill="#FE8D21"/>
<path d="M89.1246 66.2592C88.7187 67.2725 88.0533 68.9373 87.3126 69.7315C87.3203 70.4273 86.7225 71.2313 86.4023 71.8669C87.6256 71.9433 88.952 72.1603 90.1679 72.1272C90.5665 70.8322 91.2698 69.5766 91.8954 68.3806C93.0659 66.1425 94.3278 63.9731 95.73 61.8715L91.5733 61.4062C90.8694 62.9621 89.469 64.5846 89.1246 66.2592Z" fill="#0B5CCA"/>
<path d="M104.059 58.2861C104.726 58.0539 105.466 58.0009 106.107 58.3311C106.77 58.6722 107.397 59.3299 107.56 60.0777C107.753 60.9626 107.568 61.8674 107.034 62.5947C106.585 63.2071 105.96 63.7593 105.17 63.8177C103.834 63.916 102.706 62.6999 101.553 62.8139L101.565 62.9371C101.69 63.5228 102.373 64.1882 102.834 64.5287C103.706 65.1737 104.8 65.527 105.885 65.3227C106.933 65.1249 107.84 64.4319 108.434 63.5625C109.186 62.4615 109.61 60.9225 109.304 59.6015C109.064 58.5657 108.45 57.6764 107.525 57.1248C106.734 56.653 105.851 56.5432 104.966 56.797C104.039 57.0626 103.416 57.7508 102.958 58.5643L103.543 58.4956L104.059 58.2861Z" fill="#FE8D21"/>
<path d="M105.17 63.8137C105.96 63.7554 106.584 63.2031 107.034 62.5907C107.568 61.8635 107.753 60.9585 107.56 60.0737C107.397 59.326 106.77 58.6683 106.107 58.3272C105.466 57.997 104.726 58.05 104.059 58.2822L103.543 58.4915C104.232 58.8912 104.824 59.2022 105.034 60.0293C105.164 60.5439 105.056 61.2929 104.751 61.7337C104.475 62.1311 104.016 62.4012 103.539 62.4548C102.91 62.5253 102.245 62.5063 101.618 62.4394L101.553 62.8099C102.706 62.6959 103.834 63.912 105.17 63.8137Z" fill="#1E3080"/>
<path d="M90.1819 86.8439C90.6933 87.2919 91.012 87.9671 91.0095 88.649C91.0066 89.5172 90.6752 90.2597 90.045 90.8519C89.4122 91.4468 88.7039 91.7351 87.8383 91.6754C86.7633 91.601 86.0429 91.1045 85.3086 90.353C85.34 90.6621 85.4477 90.8732 85.5993 91.1404C86.238 92.2657 87.1246 93.0261 88.3921 93.3257C89.1877 93.5141 90.0379 93.3065 90.7243 92.8783C91.764 92.2301 92.4288 91.236 92.6991 90.0483C92.9441 88.9725 92.7986 87.6233 92.1598 86.6986C91.5812 85.8611 90.7654 85.2452 89.7609 85.0518C88.3641 84.7833 87.3694 85.188 86.2329 85.9487L86.8634 86.2019C88.0427 86.1621 89.2228 86.0031 90.1819 86.8439Z" fill="#FE8D21"/>
<path d="M90.0463 90.8521C90.6764 90.2598 91.0078 89.5175 91.0108 88.6493C91.0131 87.9673 90.6946 87.2921 90.1832 86.8441C89.224 86.0034 88.044 86.1625 86.8649 86.2022C87.4243 86.6857 88.2104 87.2631 88.3111 88.0553C88.3685 88.5075 88.2157 88.9709 87.919 89.3167C87.5782 89.7138 87.0334 89.8338 86.5302 89.8497C86.0641 89.8648 85.5784 89.7676 85.1191 89.6942L85.3099 90.3531C86.0442 91.1046 86.7647 91.6013 87.8396 91.6756C88.7051 91.7355 89.4135 91.447 90.0463 90.8521Z" fill="#1E3080"/>
<path d="M98.4017 73.1192C98.9974 73.5637 99.3754 74.3176 99.4378 75.0523C99.492 75.6874 99.2862 76.3147 98.8755 76.8012C98.3621 77.4094 97.5012 77.7804 96.7132 77.7841C95.431 77.7903 94.4452 77.1942 93.3593 76.5966L93.2598 76.9493L93.4667 77.2606C94.2465 78.3923 95.2867 79.3467 96.6904 79.5686C97.7867 79.7421 98.7701 79.3915 99.6116 78.6977C100.551 77.9231 101.165 76.701 101.27 75.4931C101.368 74.3604 101.142 73.2772 100.378 72.4054C99.6301 71.5529 98.5884 71.1318 97.4723 71.1031C96.2943 71.0726 95.3127 71.509 94.4628 72.2986L94.485 72.611C95.8601 72.4532 97.2024 72.2246 98.4017 73.1192Z" fill="#FE8D21"/>
<path d="M96.5546 74.4495C96.6783 74.8304 96.6473 75.2873 96.4314 75.6325C96.1152 76.1386 95.6565 76.2357 95.111 76.3468C94.6265 76.4524 94.1817 76.5019 93.6872 76.528C93.4695 76.5395 93.5566 76.523 93.3594 76.6023C94.4453 77.1998 95.4311 77.796 96.7133 77.7898C97.5014 77.7862 98.3621 77.4151 98.8756 76.8069C99.2864 76.3204 99.4922 75.6931 99.4379 75.058C99.3754 74.3233 98.9976 73.5693 98.4018 73.1249C97.2025 72.2303 95.8603 72.4589 94.4853 72.6165L94.5069 72.8078C95.2932 73.1592 96.2632 73.5516 96.5546 74.4495Z" fill="#0745AD"/>
<path d="M73.5574 77.0817C73.2705 76.8647 72.6011 76.2209 72.2965 76.1468C71.9444 76.0612 71.3318 76.1249 70.9556 76.1163L62.4753 76.7666L62.2793 77.3307C63.0895 78.3917 65.677 82.6939 66.8559 82.9748L80.3582 82.925L80.4959 82.7917L73.5574 77.0817Z" fill="#0F9EF2"/>
<path d="M84.0571 76.8721L84.5237 75.7578L78.9551 75.8884C80.7609 76.1576 82.1393 76.938 84.0571 76.8721Z" fill="#0F9EF2"/>
<path d="M65.7576 69.6875C65.3291 70.8543 64.6221 71.9507 64.0605 73.0635L68.2098 72.5516C68.0698 71.9002 66.2687 70.1927 65.7576 69.6875Z" fill="#0B79DF"/>
<path d="M84.0563 76.867C82.1386 76.9327 80.7602 76.1525 78.9544 75.8833L77.584 75.8516C79.049 77.1486 80.4837 78.7571 82.2883 79.5587C82.9482 79.2029 83.8232 77.611 84.0563 76.867Z" fill="#0745AD"/>
<path d="M44.9062 110.345C45.5029 110.268 45.6575 109.996 46.0126 109.567C44.4327 108.855 43.1052 107.892 41.7532 106.82C41.4713 107.789 41.4925 108.889 41.4375 109.896C41.5915 110.062 41.6465 110.137 41.8636 110.218C42.8473 110.099 43.9027 110.475 44.9062 110.345Z" fill="#1E3080"/>
<path d="M63.2374 108.334C63.0219 108.403 62.7248 108.66 62.5267 108.683C62.1107 108.731 61.4544 108.4 61.0716 108.259C59.5162 107.688 56.8145 106.239 55.1719 106.606L66.63 111.776C66.5963 111.511 66.5334 111.362 66.4259 111.122C65.2138 110.512 64.1901 109.29 63.2374 108.334Z" fill="#0745AD"/>
<path d="M63.0552 86.5741L66.7244 85.951C66.4238 85.6415 66.1217 85.3782 65.7835 85.1094C65.4262 85.2883 65.0044 85.224 64.604 85.2844C63.6479 85.4289 62.5874 85.6546 61.7012 86.0463L62.0284 86.7191C62.1938 86.7674 62.8538 86.6048 63.0552 86.5741Z" fill="#0B79DF"/>
<path d="M62.0291 86.7181L61.7019 86.0453L60.1282 84.4062C59.7335 85.3861 59.2339 86.5051 58.6621 87.3965L62.0291 86.7181Z" fill="#0B5CCA"/>
<path d="M73.7 91.7615C74.5232 92.1366 75.3449 92.3976 76.2078 92.6596C76.9763 91.2957 77.5673 89.8517 78.0038 88.3516C75.8767 88.3957 73.6055 88.3768 71.5137 88.7851C71.8965 89.7519 72.3297 90.3533 73.0467 91.0904C73.1383 91.1847 73.6961 91.6875 73.7 91.7615Z" fill="#0F9EF2"/>
<path d="M73.123 92.0507C73.8847 92.6675 74.553 93.1399 75.4391 93.5606L75.6402 93.6596L75.7616 93.7174C75.9896 93.4343 76.0852 93.0063 76.2088 92.6637C75.3459 92.4017 74.5242 92.1408 73.7009 91.7656L73.123 92.0507Z" fill="#0B79DF"/>
<path d="M73.7001 91.7576C73.6963 91.6836 73.1384 91.1808 73.0469 91.0866C72.33 90.3495 71.8968 89.7481 71.5138 88.7812L69.5645 89.1126C70.6746 90.0741 71.8887 91.2503 73.1224 92.0427L73.7001 91.7576Z" fill="#0E8CE8"/>
<path d="M68.9533 92.6264C67.8366 91.6569 66.6852 90.5506 65.422 89.7812L57.0156 91.463C58.273 92.8423 59.5129 94.365 60.8863 95.6229C61.2126 95.9217 61.4844 96.2442 61.9429 96.2885C63.2097 96.4111 64.5964 96.3084 65.8763 96.3205C68.5352 96.3457 71.046 96.4482 73.6593 96.9752C72.2136 95.4183 70.555 94.0169 68.9533 92.6264Z" fill="#0E8CE8"/>
<path d="M33.2099 110.779C33.0947 110.998 32.7778 111.467 32.7598 111.676L32.8072 111.806C33.915 115.265 36.289 117.849 39.0503 120.106C43.3527 123.624 49.1354 126.134 54.7757 125.532C59.6872 125.008 63.7965 122.602 66.88 118.791C66.3268 118.304 64.4408 117.997 63.6754 117.757L52.8405 114.294C50.3087 113.57 47.6225 113.07 45.1615 112.137C44.0892 111.73 42.9423 111.199 42.0856 110.423L41.8647 110.216C41.6477 110.136 41.5926 110.06 41.4386 109.894C41.4937 108.888 41.4723 107.787 41.7542 106.819C41.0121 106.141 40.0874 105.39 39.6814 104.448C39.369 103.723 39.4081 103.075 39.6773 102.351L39.0951 102.219C38.3575 103.544 37.1149 104.696 36.0702 105.792C35.8712 106.69 35.4416 106.927 34.9885 107.649L33.2099 110.779Z" fill="#0B5CCA"/>
<path d="M68.508 55.6875L67.9688 58.0173L71.0573 57.5847L68.508 55.6875Z" fill="#0F9EF2"/>
<path d="M79.8809 59.645L89.1253 66.2604C89.4697 64.5859 90.87 62.9634 91.5739 61.4075C89.6553 61.1765 86.9724 61.1372 85.2457 60.3021C84.4208 59.961 83.2386 59.9926 82.3425 59.8963C81.5196 59.8082 80.7112 59.5775 79.8809 59.645Z" fill="#0F9EF2"/>
<path d="M66.3708 63.7391L66.6284 63.1305L67.0877 61.3609L67.9681 58.0143L68.5073 55.6844L64.9117 52.7578L62.9277 60.2575C63.9502 61.5176 65.1831 62.6351 66.3708 63.7391Z" fill="#0C115D"/>
<path d="M78.025 63.1346L74.5443 60.4766L67.0882 61.3608L66.6289 63.1305L66.7526 63.2214C67.2244 63.5367 67.7307 63.7183 68.1983 64.0745C71.0411 66.2401 73.4234 69.3076 75.5626 72.1516L85.9823 71.8947C84.789 70.7225 78.0807 64.2427 78.025 63.1346Z" fill="#0F9EF2"/>
<path d="M85.9828 71.9007L86.4042 71.8711C86.7243 71.2356 87.3221 70.4316 87.3145 69.7356L78.0254 63.1406C78.0811 64.2487 84.7894 70.7285 85.9828 71.9007Z" fill="#0745AD"/>
<path d="M68.1981 64.0769C67.7305 63.7206 67.2242 63.5392 66.7525 63.2237L66.6287 63.1328L66.3711 63.7414L70.4725 68.6869L73.2794 72.2836L75.5625 72.1539C73.4232 69.31 71.0408 66.2425 68.1981 64.0769Z" fill="#0C3EAF"/>
<path d="M49.8691 101.325L56.2091 99.8964L52.4406 95.2656C51.8218 95.9944 49.4779 100.23 49.5362 101.016C49.6615 101.206 49.6429 101.255 49.8691 101.325Z" fill="#021347"/>
<path d="M61.0724 108.267C61.4553 108.407 62.1115 108.739 62.5276 108.691C62.7257 108.668 63.0228 108.41 63.2383 108.341L60.2499 105.549C60.0315 105.356 59.6513 104.92 59.397 104.802C59.1074 104.668 58.5252 104.642 58.201 104.588C57.1444 104.413 56.0822 104.316 55.0115 104.395C53.9877 104.469 52.8903 104.843 51.8856 104.817C51.4304 104.806 50.9091 104.554 50.4896 104.393L50.2969 104.594L55.1729 106.613C56.8154 106.246 59.5171 107.696 61.0724 108.267Z" fill="#1E3080"/>
<path d="M69.8662 104.861C70.3432 103.967 70.9115 103.133 71.3483 102.218C68.7253 102.132 66.1452 102.161 63.5508 102.618L68.1546 107.939C68.8482 107.439 69.4268 105.685 69.8662 104.861Z" fill="#0745AD"/>
<path d="M69.8659 104.861C69.4264 105.685 68.8479 107.439 68.1543 107.939C67.7856 108.741 67.167 110.671 66.4258 111.121C66.5333 111.361 66.5961 111.511 66.6299 111.775L69.2971 113.064L75.2433 102.586L71.348 102.219C70.9113 103.134 70.343 103.967 69.8659 104.861Z" fill="#0B5CCA"/>
<path d="M74.4627 98.3565C74.3906 97.979 74.2977 97.6793 74.149 97.3292L73.6593 96.981C71.046 96.4538 68.5352 96.3514 65.8763 96.3263C64.5963 96.3142 63.2097 96.4169 61.9429 96.2943C61.4845 96.2498 61.2126 95.9275 60.8863 95.6287C59.5128 94.3708 58.273 92.8481 57.0156 91.4688L56.5625 91.4779C56.2181 91.9026 55.8714 92.318 55.4609 92.6817L61.1711 99.2329C65.6894 98.7039 69.8771 98.1596 74.4627 98.3565Z" fill="#1E3080"/>
<path d="M50.4885 104.39L48.7225 103.324L48.6387 103.276L46.2033 101.94L50.8474 93.4618L49.6288 92.0469L43.834 100.824C45.7381 102.309 48.0484 103.685 50.2957 104.591L50.4885 104.39Z" fill="#0745AD"/>
<path d="M49.5348 101.016C49.4765 100.23 51.8203 95.9943 52.4392 95.2655L50.8472 93.4609L46.2031 101.939L48.6385 103.276L48.7223 103.324C49.0137 102.546 49.2396 101.899 49.8677 101.325C49.6415 101.255 49.6601 101.206 49.5348 101.016Z" fill="#1E3080"/>
<defs>
<linearGradient id="paint0_linear_4343_7458" x1="54.9869" y1="68.2305" x2="59.0945" y2="71.9063" gradientUnits="userSpaceOnUse">
<stop stop-color="#007DF7"/>
<stop offset="1" stop-color="#0197FF"/>
</linearGradient>
<linearGradient id="paint1_linear_4343_7458" x1="193.066" y1="101.969" x2="198.223" y2="94.3411" gradientUnits="userSpaceOnUse">
<stop stop-color="#0A9CF2"/>
<stop offset="1" stop-color="#0085F5"/>
</linearGradient>
<linearGradient id="paint2_linear_4343_7458" x1="42.7341" y1="87.417" x2="49.554" y2="96.278" gradientUnits="userSpaceOnUse">
<stop stop-color="#0077EE"/>
<stop offset="1" stop-color="#0097FF"/>
</linearGradient>
<linearGradient id="paint3_linear_4343_7458" x1="216.383" y1="81.3637" x2="205.228" y2="77.5267" gradientUnits="userSpaceOnUse">
<stop stop-color="#064DC7"/>
<stop offset="1" stop-color="#0D74E2"/>
</linearGradient>
<linearGradient id="paint4_linear_4343_7458" x1="163.12" y1="121.827" x2="224.276" y2="239.721" gradientUnits="userSpaceOnUse">
<stop stop-color="#010023"/>
<stop offset="1" stop-color="#1E3780"/>
</linearGradient>
<linearGradient id="paint5_linear_4343_7458" x1="227.854" y1="140.946" x2="231.563" y2="139.653" gradientUnits="userSpaceOnUse">
<stop stop-color="#036BDF"/>
<stop offset="1" stop-color="#0690F3"/>
</linearGradient>
</defs>
</svg>
