<svg width="152" height="262" viewBox="0 0 152 262" fill="none" xmlns="http://www.w3.org/2000/svg">
<path d="M147.799 142.468H139.992V118.711H147.799C149.75 118.711 151.331 120.292 151.331 122.242V138.936C151.331 140.887 149.75 142.468 147.799 142.468Z" fill="#CAD5DD"/>
<path d="M101.147 37.3922V42.8222H43.8613V36.932L45.0362 35.1346V4.19347C45.0362 1.8775 46.9137 0 49.2296 0H96.021C98.337 0 100.214 1.8775 100.214 4.19347V35.1346L101.147 37.3922Z" fill="#6480AD"/>
<path d="M124.024 90.1584H21.2266L35.3474 40.0783C36.1722 37.1532 38.841 35.1328 41.8802 35.1328H45.0361V48.3663C45.0361 49.7626 46.1679 50.8943 47.5641 50.8943H97.6864C99.0826 50.8943 100.214 49.7626 100.214 48.3663V35.1328H103.37C106.41 35.1328 109.078 37.1531 109.903 40.0782L124.024 90.1584Z" fill="#CAD5DD"/>
<path d="M44.1035 223.789V218.359H101.39V224.25L100.215 226.047V256.988C100.215 259.304 98.3374 261.182 96.0215 261.182H49.23C46.914 261.182 45.0365 259.304 45.0365 256.988V226.047L44.1035 223.789Z" fill="#6480AD"/>
<path d="M21.2266 171.023H124.024L109.903 221.104C109.078 224.029 106.409 226.049 103.37 226.049H100.214V212.816C100.214 211.419 99.0823 210.288 97.6861 210.288H47.564C46.1677 210.288 45.0359 211.419 45.0359 212.816V226.049H41.88C38.8408 226.049 36.1721 224.029 35.3473 221.104L21.2266 171.023Z" fill="#CAD5DD"/>
<path d="M72.6254 203.22C112.735 203.22 145.251 170.704 145.251 130.594C145.251 90.4843 112.735 57.9688 72.6254 57.9688C32.5155 57.9688 0 90.4843 0 130.594C0 170.704 32.5155 203.22 72.6254 203.22Z" fill="#A7B6C1"/>
<path d="M72.6259 194.084C107.693 194.084 136.121 165.656 136.121 130.589C136.121 95.5215 107.693 67.0938 72.6259 67.0938C37.5586 67.0938 9.13086 95.5215 9.13086 130.589C9.13086 165.656 37.5586 194.084 72.6259 194.084Z" fill="#303338"/>
<path d="M72.6262 80.6117C74.0313 80.6117 75.1703 79.4727 75.1703 78.0676C75.1703 76.6625 74.0313 75.5234 72.6262 75.5234C71.2211 75.5234 70.082 76.6625 70.082 78.0676C70.082 79.4727 71.2211 80.6117 72.6262 80.6117Z" fill="white"/>
<path d="M46.3625 87.643C47.7676 87.643 48.9066 86.5039 48.9066 85.0988C48.9066 83.6937 47.7676 82.5547 46.3625 82.5547C44.9574 82.5547 43.8184 83.6937 43.8184 85.0988C43.8184 86.5039 44.9574 87.643 46.3625 87.643Z" fill="white"/>
<path d="M27.1359 106.87C28.541 106.87 29.6801 105.73 29.6801 104.325C29.6801 102.92 28.541 101.781 27.1359 101.781C25.7308 101.781 24.5918 102.92 24.5918 104.325C24.5918 105.73 25.7308 106.87 27.1359 106.87Z" fill="white"/>
<path d="M20.0988 133.135C21.5039 133.135 22.643 131.996 22.643 130.591C22.643 129.186 21.5039 128.047 20.0988 128.047C18.6937 128.047 17.5547 129.186 17.5547 130.591C17.5547 131.996 18.6937 133.135 20.0988 133.135Z" fill="white"/>
<path d="M27.1359 159.393C28.541 159.393 29.6801 158.254 29.6801 156.849C29.6801 155.444 28.541 154.305 27.1359 154.305C25.7308 154.305 24.5918 155.444 24.5918 156.849C24.5918 158.254 25.7308 159.393 27.1359 159.393Z" fill="white"/>
<path d="M46.3625 178.627C47.7676 178.627 48.9066 177.488 48.9066 176.083C48.9066 174.678 47.7676 173.539 46.3625 173.539C44.9574 173.539 43.8184 174.678 43.8184 176.083C43.8184 177.488 44.9574 178.627 46.3625 178.627Z" fill="white"/>
<path d="M72.6262 185.659C74.0313 185.659 75.1703 184.52 75.1703 183.114C75.1703 181.709 74.0313 180.57 72.6262 180.57C71.2211 180.57 70.082 181.709 70.082 183.114C70.082 184.52 71.2211 185.659 72.6262 185.659Z" fill="white"/>
<path d="M98.8879 178.627C100.293 178.627 101.432 177.488 101.432 176.083C101.432 174.678 100.293 173.539 98.8879 173.539C97.4828 173.539 96.3438 174.678 96.3438 176.083C96.3438 177.488 97.4828 178.627 98.8879 178.627Z" fill="white"/>
<path d="M118.114 159.393C119.52 159.393 120.659 158.254 120.659 156.849C120.659 155.444 119.52 154.305 118.114 154.305C116.709 154.305 115.57 155.444 115.57 156.849C115.57 158.254 116.709 159.393 118.114 159.393Z" fill="white"/>
<path d="M125.152 133.135C126.557 133.135 127.696 131.996 127.696 130.591C127.696 129.186 126.557 128.047 125.152 128.047C123.746 128.047 122.607 129.186 122.607 130.591C122.607 131.996 123.746 133.135 125.152 133.135Z" fill="white"/>
<path d="M118.114 106.87C119.52 106.87 120.659 105.73 120.659 104.325C120.659 102.92 119.52 101.781 118.114 101.781C116.709 101.781 115.57 102.92 115.57 104.325C115.57 105.73 116.709 106.87 118.114 106.87Z" fill="white"/>
<path d="M98.8879 87.643C100.293 87.643 101.432 86.5039 101.432 85.0988C101.432 83.6937 100.293 82.5547 98.8879 82.5547C97.4828 82.5547 96.3438 83.6937 96.3438 85.0988C96.3438 86.5039 97.4828 87.643 98.8879 87.643Z" fill="white"/>
<path d="M26.4155 130.298C48.7984 129.39 72.287 128.383 94.6588 127.712C96.25 127.665 97.5783 128.916 97.6259 130.507C97.6812 132.159 96.3094 133.529 94.6588 133.474C78.2455 133.012 59.977 132.223 43.4764 131.589C37.7894 131.372 32.1025 131.123 26.4155 130.888C26.2528 130.881 26.1263 130.744 26.1331 130.581C26.1394 130.427 26.2642 130.305 26.4155 130.298Z" fill="white"/>
<path d="M51.0364 154.534C59.6531 144.046 68.6715 133.018 77.3913 122.631C78.0116 121.893 79.1131 121.797 79.8519 122.417C80.621 123.058 80.6874 124.231 79.997 124.955C73.1679 132.191 65.4429 140.134 58.501 147.34C56.1094 149.824 53.7031 152.296 51.303 154.772C51.2343 154.843 51.1211 154.845 51.0502 154.776C50.9831 154.711 50.9783 154.606 51.0364 154.534Z" fill="#CE3A3A"/>
<path d="M54.6963 137.326C54.1569 135.893 54.909 134.299 56.358 133.806C70.4501 129.015 85.6778 124.025 99.5633 119.41C104.958 117.614 110.365 115.849 115.767 114.071C115.903 114.026 116.06 114.075 116.13 114.201C116.219 114.361 116.145 114.551 115.988 114.618C97.093 122.605 77.3589 130.994 58.266 138.875C56.8519 139.458 55.2354 138.757 54.6963 137.326Z" fill="white"/>
<path d="M72.6259 134.713C74.9025 134.713 76.7479 132.867 76.7479 130.591C76.7479 128.314 74.9025 126.469 72.6259 126.469C70.3494 126.469 68.5039 128.314 68.5039 130.591C68.5039 132.867 70.3494 134.713 72.6259 134.713Z" fill="#BFBFBF"/>
</svg>
