<svg width="267" height="179" viewBox="0 0 267 179" fill="none" xmlns="http://www.w3.org/2000/svg">
<path d="M103.356 2.40758C102.826 0.114225 106.012 -0.443057 107.383 0.821554C117.398 7.32664 124.108 17.961 128.087 29.0328C128.709 31.0497 129.53 33.1005 129.53 35.2303C131.949 35.1653 134.377 35.0901 136.794 35.2542C137.439 28.7525 140.502 22.7225 143.685 17.1063C147.783 10.5091 152.832 4.06538 159.771 0.318879C161.371 -0.785023 164.16 1.20122 162.625 2.85902C158.739 3.93224 155.816 6.91967 153.075 9.71934C146.129 16.9866 141.87 26.2846 138.328 35.5311C140.386 35.7363 142.352 36.389 144.337 36.9188C146.959 32.1809 151.601 29.0055 156.367 26.6947C157.577 26.1239 159.197 25.3859 160.332 26.4966C161.347 27.3784 160.417 28.9782 159.32 29.2687C154.227 30.9611 149.249 33.4593 145.407 37.2641C149.396 39.3359 153.495 42.7849 153.83 47.6592C154.169 52.6878 150.244 57.2168 145.855 59.0251C138.314 54.1916 127.899 54.202 120.382 59.0732C116.027 57.2001 112.058 52.732 112.431 47.6663C112.626 42.7472 116.755 39.261 120.799 37.2607C117.108 33.2375 111.645 30.9678 106.596 28.9579C104.617 27.9151 106.241 25.1771 108.179 25.9669C113.686 28.0862 118.971 31.6549 121.931 36.8948C123.903 36.3139 125.872 35.7017 127.93 35.4901C123.442 24.0214 117.726 12.2764 107.612 4.70484C106.401 3.55647 104.432 3.6077 103.356 2.40758Z" fill="#121013"/>
<path d="M89.9356 24.0756C88.787 23.0502 89.3544 20.0246 91.1183 21.2075C92.9301 26.5848 99.6297 24.8547 103.975 25.419C104.005 26.2051 104.009 26.9946 104.002 27.7844C99.2708 27.4869 92.6154 29.2883 89.9356 24.0756Z" fill="#121013"/>
<path d="M175.295 20.9905C177.626 20.471 177.089 23.4176 176.105 24.5389C173.179 29.1571 167.006 27.5128 162.442 27.8784C162.152 27.1027 162.315 26.2479 162.267 25.4415C166.681 24.8122 173.62 26.5829 175.295 20.9905Z" fill="#121013"/>
<path d="M0.00622049 41.3156C-0.205458 36.1401 5.02436 32.9199 9.72784 33.1524C23.4251 33.1763 37.006 36.3245 49.8623 40.9052C33.3758 38.9122 16.3458 37.6029 0.00622049 41.3156Z" fill="#121013"/>
<path d="M216.727 40.9051C229.425 36.5813 242.709 33.3268 256.181 33.1084C260.874 32.7971 266.217 35.7439 266.289 40.9327C250.048 38.1668 233.114 38.6559 216.727 40.9051Z" fill="#121013"/>
<path d="M0.00585938 41.311C16.3454 37.5983 33.3754 38.9076 49.8617 40.9006C71.5163 47.8467 91.8383 58.3919 111.573 69.5872C109.791 73.3062 108.646 77.4831 108.988 81.6196C110.865 84.4125 113.877 86.2513 116.836 87.7557C127.413 93.1634 140.676 92.8693 150.965 86.9147C153.409 85.5201 155.921 83.8586 157.306 81.3396C157.343 77.2241 156.246 73.139 154.404 69.4679C174.541 58.7313 194.934 48.0007 216.726 40.9079C233.114 38.659 250.048 38.1699 266.288 40.9352C266.124 43.8542 264.11 46.1447 262.596 48.493C249.918 64.4222 233.975 77.709 216.627 88.2854C211.667 91.3272 205.627 90.6711 200.162 89.7929C185.127 87.9913 170.07 86.3031 154.988 85.0211C154.848 85.1916 154.561 85.5336 154.418 85.7047C151.03 91.283 145.315 95.2994 138.998 96.8381C128.784 99.4461 117.138 94.7632 111.699 85.7185C111.446 85.3695 111.094 84.8876 110.598 85.0211C96.9115 86.3676 83.2213 87.7794 69.572 89.4952C64.7967 89.9534 59.9837 91.0438 55.1843 90.2509C51.3216 89.3891 48.0195 87.0611 44.6763 85.058C31.7824 76.6353 19.9073 66.6373 9.36861 55.4115C5.73133 51.1556 1.30818 46.9342 0.00585938 41.311Z" fill="#FEC525"/>
<path d="M111.573 69.5883C116.358 60.2255 127.851 55.638 137.938 57.7093C144.795 58.9365 151.088 63.312 154.404 69.4684C156.246 73.1395 157.344 77.2246 157.306 81.3401C155.921 83.8594 153.409 85.5206 150.965 86.9152C140.676 92.8698 127.413 93.1639 116.836 87.7562C113.877 86.2519 110.865 84.4133 108.988 81.6202C108.646 77.4841 109.792 73.3072 111.573 69.5883Z" fill="#121013"/>
<path d="M18.9102 61.4209C32.2792 59.4625 45.7437 57.5378 59.2872 57.7323C76.9052 58.3754 93.6242 65.0751 109.485 72.2466C109.225 73.3032 109.023 74.4037 108.569 75.3917C92.1304 69.8092 75.2744 65.1026 58.0463 62.7539C45.091 60.9629 31.828 61.5132 18.9102 61.4209Z" fill="#121013"/>
<path d="M203.662 57.9577C218.132 57.1643 232.806 59.0411 246.934 61.5157C232.796 61.2322 218.572 61.1571 204.554 63.2902C188.59 65.8096 173.092 70.5334 157.703 75.3536C157.218 74.3688 157.074 73.2477 156.824 72.1883C171.759 65.6455 187.261 59.3794 203.662 57.9577Z" fill="#121013"/>
<path d="M47.2441 81.2501C66.7082 79.2337 86.7495 74.9195 106.08 80.1155C106.815 80.4029 108.093 80.2627 108.134 81.3188C106.986 81.8657 105.625 81.6678 104.384 81.8485C85.3583 82.8739 66.2227 82.1223 47.2441 81.2501Z" fill="#121013"/>
<path d="M160.001 80.2223C168.485 77.9081 177.376 77.1017 186.14 77.8122C197 78.708 207.887 79.6585 218.658 81.2482C198.518 82.0679 178.223 83.261 158.127 81.3746C158.227 80.4925 159.361 80.5333 160.001 80.2223Z" fill="#121013"/>
<path d="M94.9829 93.4637C99.8161 89.57 105.744 87.2694 111.698 85.7247C117.137 94.7694 128.783 99.4524 138.997 96.8444C145.314 95.3059 151.03 91.2895 154.417 85.7109C160.601 87.454 166.74 89.9185 171.779 93.9963C178.127 98.885 184.618 103.619 190.825 108.671C190.012 109.359 190.227 111.29 188.853 111.068C184.225 110.886 179.614 110.408 174.982 110.309C170.985 105.031 167.215 99.5787 163.352 94.1986C162.98 93.638 162.566 93.1046 162.135 92.5921C155.671 100.994 145.898 107.219 135.216 108.193C122.883 109.092 111.503 101.739 103.864 92.6326C103.604 93.036 103.344 93.4427 103.088 93.853C99.1327 99.3156 95.2325 104.822 91.1581 110.196C86.4234 110.589 81.5662 110.948 76.7839 111.071C76.4048 110.226 75.984 109.399 75.4746 108.627C81.8328 103.394 88.3888 98.3961 94.9829 93.4637Z" fill="#121013"/>
<path d="M103.865 92.6265C111.505 101.733 122.884 109.086 135.217 108.187C145.9 107.213 155.672 100.988 162.137 92.5859C162.567 93.0985 162.981 93.6316 163.353 94.1925C163.726 97.8124 165.319 101.272 165.435 104.96C156.432 113.984 144.238 121.2 131.088 120.445C119.35 119.546 108.787 112.952 100.676 104.735C100.925 100.988 102.398 97.4808 103.089 93.8472C103.345 93.4366 103.605 93.0296 103.865 92.6265Z" fill="#FEC525"/>
<path d="M100.674 104.734C108.786 112.952 119.348 119.546 131.087 120.445C144.237 121.2 156.43 113.984 165.434 104.96C166.063 110.172 166.035 115.566 164.836 120.673C156.116 128.754 144.446 133.961 132.437 133.642C120.859 133.55 109.904 128.201 101.406 120.571C100.052 115.451 100.199 109.995 100.674 104.734Z" fill="#121013"/>
<path d="M75.6992 111.341C76.3145 111.156 76.5914 111.932 76.9399 112.291C81.9887 119.961 87.0479 127.625 91.9974 135.357C89.0168 137.866 85.8751 140.492 82.4607 142.478C79.6746 132.233 77.5315 121.787 75.6992 111.341Z" fill="#121013"/>
<path d="M174.113 135.409C179.473 127.358 184.614 119.093 190.2 111.234C190.268 111.381 190.408 111.672 190.48 111.819C188.542 122.097 186.546 132.387 183.951 142.529C180.434 140.508 177.337 137.846 174.113 135.409Z" fill="#121013"/>
<path d="M101.408 120.57C109.906 128.2 120.862 133.549 132.44 133.641C144.448 133.96 156.118 128.753 164.838 120.673C164.23 125.53 162.722 130.343 160.695 134.746C158.849 135.74 157.325 137.244 155.496 138.281C142.008 146.98 123.515 146.796 110.21 137.809C108.624 136.855 107.26 135.542 105.589 134.742L105.514 134.708C103.644 130.182 101.747 125.5 101.408 120.57Z" fill="#FEC525"/>
<path d="M105.588 134.75C107.259 135.55 108.623 136.862 110.209 137.816C123.513 146.803 142.006 146.988 155.495 138.288C157.324 137.252 158.848 135.748 160.694 134.754C155.427 148.594 145.032 159.898 133.129 168.441C121.128 159.963 111.129 148.446 105.588 134.75Z" fill="#121013"/>
<path d="M84.0836 144.827C84.8492 143.637 85.3108 141.966 86.7636 141.453C86.8216 145.534 86.4251 149.633 85.7448 153.646C81.0517 161.023 77.9616 170.177 80.7883 178.839C77.9205 176.06 77.1239 171.732 77.0215 167.869C77.3973 159.741 80.5319 152.043 84.0836 144.827Z" fill="#121013"/>
<path d="M179.666 141.594C182.599 143.837 183.467 147.914 185.057 151.138C188.502 159.724 192.283 170.885 185.699 178.922C188.362 170.298 185.258 161.218 180.623 153.845C179.752 149.859 179.69 145.682 179.666 141.594Z" fill="#121013"/>
</svg>
