<svg width="240" height="250" viewBox="0 0 240 250" fill="none" xmlns="http://www.w3.org/2000/svg">
<path d="M119.89 249.991C135.157 249.991 147.534 237.614 147.534 222.347C147.534 207.08 135.157 194.703 119.89 194.703C104.623 194.703 92.2461 207.08 92.2461 222.347C92.2461 237.614 104.623 249.991 119.89 249.991Z" fill="#E5E5E5"/>
<path d="M147.532 222.357C147.532 237.627 135.158 250.001 119.888 250.001C107.389 250.001 96.83 241.708 93.4102 230.32C98.4278 235.422 105.405 238.583 113.127 238.583C128.397 238.583 140.771 226.209 140.771 210.939C140.771 208.169 140.362 205.5 139.606 202.977C144.503 207.964 147.532 214.81 147.532 222.357Z" fill="#D1D1D1"/>
<path d="M239.78 198.645V208.591C239.78 213.867 235.501 218.146 230.225 218.146H9.55486C4.27866 218.146 0 213.867 0 208.591V198.645C0 194.805 2.30192 191.331 5.84098 189.841C12.2651 187.124 17.5657 182.623 21.2613 177.052C24.9574 171.481 27.0424 164.841 27.0424 157.87V109.902C27.0424 63.7368 60.9361 24.6989 105.064 17.4392C104.932 16.6519 104.866 15.8469 104.866 15.0236C104.866 6.72422 111.591 0 119.889 0C128.188 0 134.913 6.72484 134.913 15.0236C134.913 15.8347 134.847 16.6281 134.72 17.4032C154.419 20.5639 172.046 29.9213 185.543 43.4186C202.346 60.2209 212.736 83.4357 212.736 109.073V157.87C212.736 171.818 221.089 184.415 233.938 189.841C235.71 190.586 237.165 191.825 238.186 193.363C239.203 194.895 239.78 196.728 239.78 198.645Z" fill="#F2BE2A"/>
<path d="M239.779 198.645V208.591C239.779 213.867 235.5 218.146 230.224 218.146H14.6445L99.1506 207.659C148.609 201.524 184.425 157.336 179.985 107.697C176.662 70.546 159.895 42.4816 123.946 18.6299C128.321 6.37643 119.319 2.41011 114.097 1.15402C115.875 0.415031 117.834 0 119.89 0C128.189 0 134.913 6.72484 134.913 15.0236C134.913 15.8347 134.847 16.6281 134.721 17.4032C154.42 20.5639 172.046 29.9213 185.543 43.4186C202.346 60.2209 212.737 83.4357 212.737 109.073V157.87C212.737 171.818 221.09 184.415 233.938 189.841C235.711 190.586 237.166 191.825 238.187 193.363C239.202 194.895 239.779 196.728 239.779 198.645Z" fill="#E2AD27"/>
<path d="M98.9674 30.9087C86.1583 33.9949 50.0086 47.4018 39.0711 101.593C38.8241 102.816 39.7569 103.963 41.005 103.963H41.6285C42.3546 103.963 43.0221 103.565 43.365 102.925C47.1363 95.8796 70.1397 55.1058 101.521 46.9782C103.37 46.4996 104.607 44.7643 104.466 42.8603L103.844 34.4661C103.664 32.0291 101.344 30.336 98.9674 30.9087Z" fill="#FFD671"/>
</svg>
