<svg width="248" height="250" viewBox="0 0 248 250" fill="none" xmlns="http://www.w3.org/2000/svg">
<path d="M124.207 246.545C190.72 246.545 244.64 192.202 244.64 125.167C244.64 58.1319 190.72 3.78906 124.207 3.78906C57.6933 3.78906 3.77344 58.1319 3.77344 125.167C3.77344 192.202 57.6933 246.545 124.207 246.545Z" fill="white"/>
<path d="M209.958 39.9688C224.783 60.1412 233.554 85.1049 233.554 112.136C233.554 179.171 179.634 233.514 113.121 233.514C79.6003 233.514 49.283 219.707 27.4492 197.434C49.3937 227.23 84.5568 246.545 124.204 246.545C190.717 246.545 244.637 192.202 244.637 125.167C244.637 91.9618 231.396 61.8824 209.958 39.9688Z" fill="#EDEDED"/>
<path d="M126.973 1.03081C56.8523 -0.528187 -0.51596 57.2898 1.03055 127.961C2.47754 194.087 55.8212 247.851 121.433 249.311C191.555 250.871 248.925 193.051 247.378 122.379C245.93 56.2522 192.585 2.48963 126.973 1.03081ZM23.6142 166.139C10.3207 145.228 8.41494 122.476 8.24768 120.051C15.5576 94.0449 28.3276 80.8223 30.8588 78.3964C44.3968 80.2883 61.3368 80.9202 66.3257 81.0716C65.7732 87.7304 66.6692 108.52 82.4336 133.166C79.701 136.835 68.156 152.979 60.0479 174.133C36.7804 176.633 24.9103 167.239 23.6142 166.139ZM156.849 55.9985C160.662 68.4815 171.555 96.6952 173.381 101.409C158.612 123.234 140.155 138.336 136.784 141.004C132.502 139.747 108.913 133.104 84.9072 131.882C67.8147 105.286 68.8804 83.4009 69.1371 80.313L103.46 42.0801C108.387 42.5876 139.549 46.1318 156.849 55.9985ZM28.9983 76.3188C26.4174 78.7405 14.7286 90.6717 7.02043 114.529C9.31588 88.6422 19.8974 65.1262 36.0696 46.6981C29.2824 61.2659 28.9609 73.3503 28.9983 76.3188ZM146.148 192.728C146.086 188.197 145.433 162.254 138.71 143.029C142.686 139.859 160.836 124.807 175.496 103.237C192.028 108.585 211.433 112.065 215.498 112.764C216.91 116.49 223.354 134.979 223.423 161.893C203.912 190.464 190.76 199.312 188.838 200.509C161.212 202.234 148.636 194.501 146.148 192.728ZM234.759 165.777L226.191 161.459C226.052 133.471 219.319 114.901 217.994 111.519C223.434 98.0561 225.672 82.9735 226.3 77.9899C227.853 78.5136 230.415 79.4458 233.303 80.7739C238.82 94.4943 241.867 109.48 241.867 125.171C241.867 139.428 239.356 153.104 234.759 165.777ZM231.732 77.0467C229.033 75.9338 226.906 75.237 225.99 74.9532C210.291 51.2473 191.834 37.6366 189.261 35.8039C186.163 29.3101 181.068 23.4315 176.292 18.8592C200.832 31.1218 220.547 51.7603 231.732 77.0467ZM167.441 14.8796C172.801 19.1245 181.608 26.9878 186.269 36.0046C171.602 41.9944 160.727 50.8599 157.829 53.3535C139.876 43.3098 109.195 39.8478 103.809 39.3066C98.2085 27.6474 87.9126 17.0226 84.6144 14.0486C87.6387 12.1901 101.078 7.92173 107.412 7.79778C112.898 7.00415 118.503 6.58493 124.204 6.58493C139.462 6.58493 154.05 9.52862 167.441 14.8796ZM26.5574 191.264L25.7392 188.812C23.7084 181.772 23.2846 173.779 23.644 169.661C27.4911 172.319 36.8206 177.369 52.1937 177.369C54.7259 177.369 57.432 177.222 60.2951 176.914C61.5356 178.979 65.2134 184.902 70.4875 191.656C76.3814 199.204 85.514 209.323 95.8776 215.279C94.6081 225.872 95.4509 233.01 95.9543 235.907C93.704 236.254 88.6259 236.749 81.6255 235.718C59.0843 226.869 39.8936 211.213 26.5574 191.264ZM110.554 242.954C107.023 241.843 102.478 239.835 98.851 236.308C98.5053 234.643 97.2386 227.318 98.6174 215.706C103.546 214.698 125.534 209.573 144.763 195.172C147.784 197.297 158.584 203.559 180.925 203.559C183.139 203.559 185.474 203.493 187.917 203.36C187.982 211.574 187.256 217.714 185.663 221.257C184.609 223.601 183.296 225.818 181.81 227.911L181.067 228.956L183.997 227.264C166.464 237.734 146.02 243.756 124.204 243.756C119.587 243.757 115.034 243.478 110.554 242.954Z" fill="#333333" stroke="black" stroke-miterlimit="10"/>
</svg>
