<svg width="317" height="160" viewBox="0 0 317 160" fill="none" xmlns="http://www.w3.org/2000/svg">
<path d="M6.48544 111.243C2.61941 114.596 -1.01703 119.44 0.260475 124.395C1.33895 128.578 5.51135 131.122 9.47022 132.852C19.2612 137.129 30.0267 139.158 40.703 138.738C49.8845 138.377 59.2276 136.251 68.1394 138.489C73.3518 139.798 78.0714 142.528 82.8875 144.913C118.416 162.504 160.089 161.61 199.522 157.505C213.24 156.077 227.121 154.256 239.844 148.932C253.987 143.013 266.265 132.937 280.9 128.37C286.692 126.563 292.819 125.631 298.196 122.822C303.573 120.013 308.231 114.632 307.823 108.58C307.496 103.707 303.918 99.5267 299.647 97.159C295.377 94.7912 290.46 93.924 285.642 93.1313C216.886 81.8196 146.829 78.4385 77.304 83.0765C60.6097 84.19 16.2893 102.742 6.48544 111.243Z" fill="#64C4FF"/>
<path opacity="0.5" d="M210.762 140.604C210.171 140.955 209.538 141.374 209.349 142.035C208.947 143.444 210.728 144.422 212.158 144.742C224.658 147.536 237.876 144.9 249.619 139.785C254.266 137.76 254.68 133.962 249.706 132.259C246.019 130.996 241.702 130.409 237.838 131.011C228.442 132.476 218.934 135.756 210.762 140.604Z" fill="black"/>
<path opacity="0.5" d="M38.2637 122.943C45.8151 124.09 53.6378 122.496 61.2487 123.333C66.3904 123.898 71.2453 125.549 76.1606 126.915C89.7746 130.698 104.126 132.338 118.439 133.367C145.788 135.334 173.545 135.119 200.438 130.574C227.331 126.029 253.399 117.012 274.625 102.666C276.215 101.592 277.938 99.9278 277.012 98.4148C276.253 97.1749 274.234 96.9926 272.549 96.9727C221.065 96.3636 169.579 95.7543 118.089 95.6594C94.4483 95.6159 70.6335 95.9807 47.2901 99.4213C40.7472 100.386 31.0857 102.512 27.0904 107.296C21.2085 114.339 29.635 121.633 38.2637 122.943Z" fill="black"/>
<path d="M316.998 28.0391C316.998 28.0391 287.237 93.8454 264.501 107.154C264.501 107.154 126.973 146.527 50.9998 117.136C50.9998 117.136 26.2299 87.1907 21.9785 65.0089L169.488 70.4907L316.998 28.0391Z" fill="#A55532"/>
<path d="M286.504 83.2656C278.734 87.6907 270.246 91.6149 261.1 94.5782C219.701 107.99 139.072 126.357 44.0762 108.072C44.7523 109.006 45.394 109.877 45.9992 110.689C73.8685 115.892 100.481 117.975 125.219 117.974C184.316 117.973 232.693 106.113 261.783 96.6881C269.534 94.177 276.82 90.9884 283.603 87.3918C284.575 86.0482 285.543 84.6702 286.504 83.2656Z" fill="#844732"/>
<path d="M216.483 86.4144C255.407 77.1218 283.08 66.4941 302.567 56.6882C303.251 55.4378 303.918 54.2038 304.565 52.9922C285.067 63.2209 256.692 74.5344 215.968 84.2567C129.564 104.883 53.3097 88.901 28.2285 82.3368C28.6608 83.2174 29.1059 84.0953 29.5613 84.9698C56.6484 91.8491 131.721 106.651 216.483 86.4144Z" fill="#844732"/>
<path opacity="0.2" d="M295.153 34.3256C283.101 46.1972 270.379 57.388 257.047 67.8017C230.801 88.3034 201.567 106.103 169.069 113.389C136.571 120.674 100.312 116.286 73.9112 95.9838C63.0349 87.62 54.2502 76.9885 46.0707 65.9042L21.9785 65.0089C26.2299 87.1907 50.9998 117.136 50.9998 117.136C126.973 146.527 264.501 107.154 264.501 107.154C287.237 93.8454 316.998 28.0391 316.998 28.0391L295.153 34.3256Z" fill="black"/>
<path opacity="0.2" d="M216.776 64.2188L210.117 68.5005L214.633 118.508C217.386 117.993 220.058 117.476 222.644 116.96C220.868 99.7365 216.776 64.2188 216.776 64.2188Z" fill="black"/>
<path opacity="0.2" d="M36.6539 65.5531L21.9805 65.0078C26.2319 87.1896 51.0018 117.135 51.0018 117.135C55.6648 118.939 60.5623 120.481 65.6431 121.792C60.3265 115.04 55.5804 107.845 51.415 100.329C45.2405 89.1885 40.6454 77.5318 36.6539 65.5531Z" fill="black"/>
<path opacity="0.2" d="M306.164 31.1577C296.957 60.5911 280.113 87.6486 257.811 108.953C262.108 107.839 264.503 107.154 264.503 107.154C287.239 93.8455 317 28.0391 317 28.0391L306.164 31.1577Z" fill="black"/>
<path d="M232.337 6.60156C232.337 6.60156 307.386 28.4136 316.998 28.0441C316.998 28.0441 175.773 116.032 21.9785 65.014C21.9785 65.014 134.737 57.6199 232.337 6.60156Z" fill="#CE9E51"/>
<path opacity="0.2" d="M164.442 35.2188C140.526 43.2708 117.46 49.2132 97.1016 53.5723C104.885 59.291 113.407 64.3204 121.529 69.3788C127.396 73.0332 133.216 76.8453 139.107 80.5157C173.177 78.8687 204.4 72.42 230.864 64.5777C207.474 57.6136 185.013 48.1686 164.442 35.2188Z" fill="black"/>
<path d="M32.332 65.0137C32.332 65.0137 164.684 99.9502 300.548 30.6317L234.28 10.9453C234.28 10.9453 129.933 66.4925 32.332 65.0137Z" fill="#7C3E28"/>
<path d="M108.928 73.753C175.867 60.8832 240.819 30.0616 241.665 29.6567L240.707 27.6562C239.82 28.0819 168.208 62.0867 98.0918 73.4403C101.593 73.5868 105.212 73.6914 108.928 73.753Z" fill="#633122"/>
<path d="M251.782 40.8438C234.648 52.5555 201.286 62.74 167.197 70.7776C174.23 69.9346 181.434 68.888 188.777 67.6162C215.255 60.4939 239.278 52.0784 253.034 42.6753L251.782 40.8438Z" fill="#633122"/>
<path opacity="0.2" d="M72.3444 62.7188C59.0689 64.3518 45.6383 65.2163 32.332 65.0145C32.332 65.0145 63.0187 73.1091 109.998 73.7718C93.2594 72.0981 81.0947 67.6741 72.3444 62.7188Z" fill="black"/>
<path opacity="0.2" d="M239.348 12.4511L234.279 10.9453C234.279 10.9453 229.336 13.5762 220.603 17.675C210.696 37.5875 190.081 65.2107 150.682 72.4312C177.408 70.282 207.121 65.3599 238.134 55.8553L239.348 12.4511Z" fill="black"/>
<path d="M300.55 30.6317L234.282 10.9453C234.282 10.9453 233.426 37.7066 228.627 58.6311C251.997 52.1048 276.215 43.0479 300.55 30.6317Z" fill="#968E8B"/>
<path d="M300.55 30.6317L234.282 10.9453C234.282 10.9453 233.426 37.7066 228.627 58.6311C251.997 52.1048 276.215 43.0479 300.55 30.6317Z" fill="#968E8B"/>
<path d="M300.55 30.6317L234.282 10.9453C234.282 10.9453 233.426 37.7066 228.627 58.6311C251.997 52.1048 276.215 43.0479 300.55 30.6317Z" fill="#633122"/>
<path d="M267.91 45.3865C269.019 44.9461 270.129 44.4957 271.24 44.0426C257.994 40.2162 243.074 34.3135 232.85 31.2266C232.85 31.2266 232.647 33.1621 232.605 33.5384C234.938 34.2419 251.552 40.6383 267.91 45.3865Z" fill="#421F17"/>
<path opacity="0.2" d="M246.849 14.6793L234.279 10.9453C234.279 10.9453 233.431 37.4356 228.695 58.3125L228.997 58.5247C237.135 56.2436 245.376 53.6501 253.688 50.7199C245.552 41.1708 245.662 25.1602 246.849 14.6793Z" fill="black"/>
<path d="M199.841 26.8906L199.813 26.902C193.843 29.411 187.239 32.072 180.096 34.7787L180.074 34.7875L235.563 56.6256C245.848 53.5503 256.28 49.9723 266.801 45.8277L199.841 26.8906Z" fill="#E5AC5A"/>
<path d="M149.175 72.5418L120.844 53.5234L120.667 53.5642C115.005 54.983 109.239 56.3142 103.394 57.5328L103.197 57.5779L121.27 73.7802C130.113 73.6746 139.442 73.2899 149.175 72.5418Z" fill="#E5AC5A"/>
<path opacity="0.2" d="M128.56 58.7023L122.719 54.7812C124.287 61.0884 125.901 67.3833 127.597 73.6565C128.426 73.6343 129.272 73.6006 130.109 73.5734C129.198 68.6371 128.617 63.6685 128.56 58.7023Z" fill="white"/>
<path opacity="0.2" d="M119.566 53.8281C118.258 54.1524 116.935 54.4628 115.617 54.7773C117.511 60.9858 119.173 67.2848 120.99 73.5276L121.271 73.7792C121.689 73.7742 122.123 73.7602 122.543 73.754C121.094 67.1632 120.011 60.5127 119.566 53.8281Z" fill="white"/>
<path opacity="0.2" d="M139.963 70.3396C139.723 68.8671 139.506 67.389 139.302 65.9075L131.957 60.9766C132.765 64.2749 133.607 67.5656 134.454 70.8538C134.671 71.6934 134.892 72.538 135.116 73.3839C136.875 73.3063 138.662 73.2087 140.452 73.1075C140.282 72.1861 140.114 71.2643 139.963 70.3396Z" fill="white"/>
<path d="M180.074 34.7891L180.951 39.5053L229.102 58.499C231.511 57.8231 233.927 57.1244 236.352 56.3935L180.074 34.7891Z" fill="#B7853D"/>
<path d="M124.018 73.7448L124.019 73.7441L103.395 57.5391V62.4301L116.198 73.8186C118.761 73.8179 121.369 73.793 124.018 73.7448Z" fill="#B7853D"/>
<path d="M169.938 32.8418C167.967 30.0703 165.009 28.4115 161.853 28.6857C155.704 29.2199 154.001 34.5029 153.567 38.1719C153.372 39.8233 154.619 41.2362 155.942 40.8594C156.024 40.8361 156.106 40.8132 156.188 40.7903C156.898 40.5934 157.376 39.862 157.495 38.9805C157.882 36.1087 159.789 33.8562 162.283 33.6395C164.083 33.4833 165.767 34.4243 166.897 35.9969C167.408 36.7081 168.207 36.9911 168.935 36.7554C168.948 36.7511 168.961 36.7468 168.974 36.7425C170.357 36.2955 170.903 34.1986 169.938 32.8418Z" fill="#23130D"/>
<path opacity="0.2" d="M274.233 96.4702C237.889 110.627 198.98 115.675 159.835 115.129C140.285 118.117 119.869 116.887 101.395 110.57C95.8691 109.82 90.3608 108.997 84.8792 108.1C67.7166 105.293 49.9699 101.476 34.5664 93.8203C42.4735 106.823 51.0012 117.137 51.0012 117.137C126.974 146.529 264.502 107.156 264.502 107.156C268.721 104.686 273.182 100.406 277.65 95.0768C276.511 95.5405 275.38 96.0235 274.233 96.4702Z" fill="black"/>
<path opacity="0.2" d="M231.275 35.7767L216.236 31.5234C220.513 39.0719 224.812 46.6083 229.174 54.1074L235.563 56.6214C236.324 56.3936 237.092 56.1432 237.856 55.9098C235.663 49.1989 233.469 42.4878 231.275 35.7767Z" fill="white"/>
<path opacity="0.2" d="M212.403 30.4441L200.031 26.9453C204.209 33.8219 208.386 40.6983 212.564 47.5747L219.967 50.4882C217.339 43.8523 214.836 37.162 212.403 30.4441Z" fill="white"/>
<path opacity="0.2" d="M257.969 43.3272L250.734 41.2812C252.129 44.2803 253.556 47.2644 255.046 50.2152C256.766 49.6011 258.486 48.9834 260.212 48.3397C259.483 46.6605 258.736 44.9895 257.969 43.3272Z" fill="white"/>
<path opacity="0.2" d="M245.415 39.781L235.029 36.8438C237.473 42.7492 239.852 48.6841 242.41 54.5033C244.373 53.877 246.345 53.219 248.318 52.5549C247.222 48.3275 246.256 44.0666 245.415 39.781Z" fill="white"/>
<path d="M205.329 71.4204C183.296 76.7646 161.52 82.2441 138.751 83.0547C128.144 83.4324 117.503 83.1562 106.907 82.5797C95.5944 81.9638 84.2915 80.548 72.9559 80.946C72.7858 80.9519 72.7371 81.2107 72.9144 81.2524C94.3085 86.2779 117.914 86.9968 139.809 86.1602C162.801 85.2816 184.016 80.0392 205.543 72.1977C206.025 72.022 205.84 71.2965 205.329 71.4204Z" fill="#AF5B3E"/>
<path d="M213.417 74.3263C195.445 78.5327 177.545 82.6585 159.21 84.9855C141.422 87.2429 123.469 86.5883 105.711 88.659C105.484 88.6855 105.386 89.0372 105.652 89.0931C123.279 92.8015 142.556 90.7562 160.253 88.4115C178.423 86.0039 196.606 81.9561 213.632 75.1032C214.102 74.9139 213.935 74.2052 213.417 74.3263Z" fill="#AF5B3E"/>
<path d="M215.17 80.7564C195.86 84.1419 176.505 88.135 156.99 90.1875C156.794 90.2079 156.786 90.5093 156.99 90.4993C176.865 89.5316 196.276 87.3837 215.35 81.408C215.771 81.2762 215.593 80.6823 215.17 80.7564Z" fill="#AF5B3E"/>
<path d="M198.916 92.2646C180.485 94.8506 162.125 97.8195 143.509 98.732C125.483 99.6158 107.556 97.7473 89.5753 98.1467C89.3281 98.1521 89.2728 98.5124 89.5167 98.5808C107.102 103.508 126.444 103.223 144.568 102.318C163.038 101.395 181.584 99.0556 199.199 93.2925C199.868 93.0731 199.58 92.1713 198.916 92.2646Z" fill="#AF5B3E"/>
<path d="M193.021 98.6907C179.723 99.7735 166.579 103.193 153.255 104.499C146.907 105.121 140.537 105.529 134.166 105.818C127.133 106.137 119.928 107.026 112.919 106.967C112.648 106.965 112.656 107.36 112.919 107.383C120.079 107.996 126.918 109.102 134.166 109.042C140.897 108.987 147.617 108.566 154.313 107.901C167.129 106.63 181.267 105.164 193.218 100.146C193.91 99.8559 193.939 98.616 193.021 98.6907Z" fill="#AF5B3E"/>
<path d="M185.048 104.788C176.083 105.999 167.306 108.527 158.308 109.741C149.458 110.936 140.121 112.075 131.196 112.14C130.89 112.142 130.901 112.58 131.196 112.608C149.009 114.322 169.116 114.36 185.629 106.166C186.467 105.75 185.817 104.684 185.048 104.788Z" fill="#AF5B3E"/>
<path opacity="0.2" d="M236.989 128.709C211.689 135.817 187.135 142.917 160.654 144.054C148.016 144.597 135.371 144.065 122.804 142.665C109.656 141.2 95.7934 139.302 83.0604 135.645C82.7357 135.552 82.6093 136.037 82.9223 136.146C95.9783 140.701 108.479 144.732 122.258 146.694C135.276 148.548 148.499 149.046 161.626 148.423C187.234 147.208 214.832 142.46 237.41 129.707C237.948 129.403 237.587 128.541 236.989 128.709Z" fill="white"/>
<path opacity="0.2" d="M265.045 119.95C253.522 132.007 237.867 138.898 222.114 143.602C203.846 149.058 185.425 152.549 166.474 154.399C166.185 154.428 166.083 154.855 166.401 154.936C176.201 157.428 186.481 155.956 196.279 154.12C205.912 152.314 215.521 150.078 224.903 147.235C241.018 142.35 256.267 134.936 265.923 120.627C266.28 120.098 265.48 119.495 265.045 119.95Z" fill="white"/>
<path opacity="0.2" d="M293.368 97.3879C293.19 96.8576 292.503 96.884 292.315 97.3879C290.648 101.855 289.377 106.282 286.178 109.972C283.239 113.362 279.393 115.761 275.422 117.74C274.667 118.116 275.064 119.253 275.835 119.266C285.948 119.444 296.804 107.634 293.368 97.3879Z" fill="white"/>
<path opacity="0.2" d="M302.094 105.534C301.985 105.144 301.416 105.052 301.215 105.419C299.757 108.081 298.499 110.775 296.305 112.943C294.101 115.121 291.557 116.618 288.769 117.885C287.903 118.278 288.463 119.4 289.202 119.484C296.212 120.275 304.095 112.725 302.094 105.534Z" fill="white"/>
<path opacity="0.2" d="M27.4609 124.433C23.4047 124.508 19.5767 121.761 18.7085 117.691C17.7956 113.41 20.3821 109.115 23.6933 106.574C24.6826 105.815 23.8308 104.173 22.683 104.846C17.5048 107.881 13.2088 113.768 15.2519 120.04C16.9118 125.135 22.8798 128.524 27.815 125.74C28.4178 125.401 28.1563 124.42 27.4609 124.433Z" fill="white"/>
<path opacity="0.2" d="M19.6441 129.094C16.1297 128.227 12.3336 127.505 9.31671 125.366C6.44288 123.329 3.95421 117.623 7.85262 115.099C8.1017 114.938 7.94953 114.501 7.64227 114.601C3.10397 116.073 1.20016 120.538 3.58264 124.892C6.75105 130.681 13.6025 131.147 19.4401 130.601C20.2516 130.525 20.5403 129.316 19.6441 129.094Z" fill="white"/>
<path d="M195.018 4.00683L235.03 134.51C235.03 134.51 239.72 135.158 241.194 130.768L200.032 0.679688L195.018 4.00683Z" fill="#AF5B3E"/>
<path opacity="0.2" d="M199.335 1.14002L237.407 129.696L196.893 2.75989L195.014 4.00705L235.026 134.511C235.026 134.511 239.716 135.158 241.19 130.768L200.028 0.679688L199.335 1.14002Z" fill="black"/>
<path d="M225.909 60.1669C223.883 56.7205 220.587 54.4766 216.862 54.4766C209.605 54.4766 207.073 60.4914 206.192 64.7449C205.796 66.6593 207.113 68.4411 208.701 68.1345C208.799 68.1155 208.897 68.0969 208.996 68.0788C209.847 67.9201 210.482 67.1124 210.711 66.0919C211.457 62.7677 213.919 60.3232 216.862 60.3232C218.986 60.3232 220.864 61.5968 222.027 63.5539C222.554 64.439 223.46 64.8515 224.337 64.6498C224.353 64.6461 224.369 64.6425 224.384 64.6389C226.05 64.2549 226.902 61.8545 225.909 60.1669Z" fill="#23130D"/>
<path d="M200.031 0.68255C200.243 1.42614 196.582 6.15329 195.017 4.00992C194.376 3.13183 195.356 1.59166 196.779 0.68255C198.442 -0.380304 199.82 -0.0608142 200.031 0.68255Z" fill="#CC6B52"/>
<path d="M231.715 123.891C231.715 123.891 233.356 124.705 235.527 123.891C236.415 123.559 237.673 122.02 238.211 121.355C238.45 121.06 244.608 126.854 245.648 128.041C246.688 129.229 248.767 135.468 248.767 135.468C248.767 135.468 239.34 143.509 231.715 141.776C231.715 141.776 229.566 134.982 230.19 132.972C230.814 130.962 231.715 123.891 231.715 123.891Z" fill="#ED5656"/>
<path opacity="0.2" d="M245.644 128.041C244.604 126.854 238.446 121.06 238.208 121.355C238.015 121.593 237.728 121.944 237.4 122.311L237.401 122.31C237.401 122.31 243.356 126.412 244.258 128.687C244.83 130.133 246.102 134.128 246.953 136.85C248.08 136.046 248.763 135.468 248.763 135.468C248.763 135.468 246.684 129.229 245.644 128.041Z" fill="black"/>
<path opacity="0.2" d="M231.852 133.179C232.545 129.713 233.025 124.218 233.025 124.218L233.027 124.217C232.22 124.13 231.713 123.891 231.713 123.891C231.713 123.891 230.812 130.961 230.188 132.971C229.564 134.982 231.713 141.775 231.713 141.775C232.365 141.923 233.032 141.977 233.703 141.994C233.477 141.775 231.173 136.574 231.852 133.179Z" fill="black"/>
</svg>
