<svg width="299" height="99" viewBox="0 0 299 99" fill="none" xmlns="http://www.w3.org/2000/svg">
<path d="M293.36 49.2774C289.824 46.1619 284.773 43.2994 278.542 40.5214L294.034 36.5633L296.391 27.2185C296.391 27.2185 289.572 13.0745 233.498 5.1596C211.775 2.1284 182.56 0.0234375 143.41 0.0234375C3.64724 0.0234375 0.279169 27.8072 1.03797 28.5647C1.45856 29.071 14.1727 34.459 21.4125 37.4902C20.9919 37.6583 20.5713 37.7427 20.1494 37.9108C9.96213 41.7838 3.39475 46.2463 1.03797 51.2974C0.364217 52.8136 0.0273438 54.3292 0.0273438 55.9279C0.0273438 57.4435 0.364217 58.8754 0.95358 60.3066C8.69969 77.2293 66.1204 87.5017 151.662 87.5017C154.271 87.5017 157.05 87.5017 159.744 87.4179C223.227 86.9967 298.917 81.7755 299.002 59.5491C299.001 55.9279 296.981 52.4767 293.36 49.2774ZM159.743 81.1868C61.4042 82.0286 10.804 69.3158 5.24723 57.1917C4.82597 56.2654 4.82597 55.4236 5.33095 54.4136C7.26781 50.2037 15.6026 45.2363 31.4317 40.6888C31.5154 40.6888 31.5154 40.6888 31.5154 40.6888C55.0056 34.1228 94.746 28.5647 153.85 28.5647C159.491 28.5647 165.299 28.6497 171.278 28.7335C209.334 29.4072 239.981 34.5434 261.029 40.8583C261.703 41.0264 262.292 41.1945 262.881 41.3626C274.248 44.8988 282.752 48.6881 287.971 52.2243C291.928 54.8335 294.033 57.4441 294.033 59.5491C294.034 60.3903 292.434 80.1762 159.743 81.1868Z" fill="#402A2A"/>
<path opacity="0.3" d="M294.034 36.5593L278.543 40.5174C284.773 43.2954 289.824 46.1578 293.361 49.2734C291.593 50.2841 289.739 51.2103 287.973 52.2209C273.912 59.2926 258.925 63.8394 258.756 64.0082C258.504 64.1763 263.64 54.2415 261.03 40.8549C259.009 30.0776 252.022 17.1116 233.498 5.15625C289.572 13.0711 296.392 27.2152 296.392 27.2152L294.034 36.5593Z" fill="#402A2A"/>
<path d="M299.002 29.4925C299.002 29.4925 299.002 49.3614 299.002 59.55C298.917 81.7764 223.227 86.9969 159.744 87.4188C157.05 87.5026 154.271 87.5026 151.662 87.5026C66.1204 87.5026 8.69969 77.2309 0.953581 60.3075C0.364218 58.8763 0.0273438 57.445 0.0273438 55.9288V27.2188C0.0273438 27.2188 1.9642 32.6067 20.1494 37.911C23.3487 38.8373 27.1374 39.7628 31.4317 40.6891C31.5154 40.6891 31.5154 40.6891 31.5154 40.6891C51.3006 44.8153 83.2113 48.2671 134.822 48.2671C199.904 48.2671 239.139 45.0678 262.881 41.3628C267.596 40.6053 271.637 39.8479 275.174 39.0891C297.402 34.2918 299.002 29.4925 299.002 29.4925Z" fill="#543636"/>
<g opacity="0.1">
<path d="M298.997 32.5746C298.997 30.6869 298.997 29.4922 298.997 29.4922C298.997 29.4922 298.097 32.1812 288.32 35.5473C292.693 34.532 296.227 33.526 298.997 32.5746Z" fill="#543636"/>
<path d="M170.44 84.4355C167.745 84.5192 164.967 84.5192 162.357 84.5192C76.8161 84.5192 19.3953 74.2482 11.6492 57.3254C11.0599 55.8942 10.723 54.463 10.723 52.9467V34.5702C1.35299 30.5642 0.0234375 27.2188 0.0234375 27.2188V55.9288C0.0234375 57.4444 0.360312 58.8763 0.949675 60.3075C8.69578 77.2302 66.1165 87.5026 151.658 87.5026C154.267 87.5026 157.046 87.5026 159.74 87.4188C203.736 87.1265 253.546 84.5172 280.039 75.5518C252.157 82.1166 209.082 84.179 170.44 84.4355Z" fill="#543636"/>
</g>
<path d="M151.619 51.613C66.1013 51.613 8.68587 43.4729 0.986935 30.1162C-0.345278 27.8012 -0.328667 25.2484 1.0361 22.9216C9.79217 8.00741 78.2088 -1.15663 171.32 0.117781C233.027 0.960962 299.05 12.9695 298.985 29.4956C298.914 47.0741 223.247 51.2136 159.78 51.5884C157.038 51.6043 154.308 51.613 151.619 51.613ZM155.481 3.33038C56.3804 3.33038 10.1297 17.212 5.30782 25.4298C4.83009 26.2351 4.82278 26.8564 5.27859 27.6458C10.7835 37.1998 61.4229 47.2927 159.747 46.6389C292.443 45.8536 294.03 30.1454 294.034 29.4756C294.063 21.4624 249.09 4.49448 172.871 3.44997C172.871 3.44997 161.102 3.33038 155.481 3.33038Z" fill="#805252"/>
<g opacity="0.1">
<path d="M292.93 31.3196C295.302 29.6831 295.421 28.5263 295.423 28.3549C295.451 20.343 250.478 3.37505 174.26 2.33054C174.26 2.33054 162.49 2.21094 156.87 2.21094C62.6476 2.21094 16.2826 14.7484 7.79297 23.0473C19.1264 14.7882 65.417 3.33319 155.484 3.33319C161.103 3.33319 172.874 3.45279 172.874 3.45279C249.092 4.4973 294.065 21.4652 294.036 29.4785C294.035 29.606 293.965 30.2931 292.93 31.3196Z" fill="#F29B9B"/>
<path d="M161.167 50.4703C158.425 50.4869 155.695 50.4942 153.007 50.4942C67.4886 50.4942 10.0732 42.3541 2.3743 28.9974C1.04208 26.6831 1.05869 24.1297 2.42347 21.8034C2.89589 20.9981 3.62279 20.2174 4.43873 19.4453C2.97363 20.5715 1.74241 21.7224 1.0361 22.9257C-0.328667 25.2532 -0.345278 27.8054 0.986935 30.1203C8.68586 43.477 66.1013 51.6171 151.619 51.6171C154.308 51.6171 157.037 51.6085 159.779 51.5918C216.095 51.2596 281.891 47.9401 296.082 34.9209C279.406 47.0085 215.824 50.148 161.167 50.4703Z" fill="#F29B9B"/>
</g>
<g opacity="0.3">
<path d="M170.352 1.52574C232.059 2.36826 298.082 14.3761 298.016 30.9029C298.013 31.8404 297.688 32.7201 297.267 33.5826C298.272 32.2989 298.979 30.9607 298.985 29.4956C299.051 12.9695 233.027 0.960962 171.32 0.117781C78.2095 -1.15663 9.79284 8.00741 1.03678 22.9216C0.929805 23.1036 0.885951 23.293 0.794922 23.4777C11.6513 9.07583 79.0573 0.275257 170.352 1.52574Z" fill="#FFA3A3"/>
<path d="M4.34082 26.836C3.86441 27.6413 3.85577 28.2625 4.31225 29.0519C9.81718 38.606 60.4566 48.6989 158.781 48.0451C281.749 47.3175 292.12 33.7827 292.984 31.2672C288.736 35.5555 267.34 46.0006 159.75 46.6378C61.426 47.2916 10.7866 37.1987 5.28167 27.6446C4.92088 27.022 4.93616 26.4851 5.15676 25.8984C4.86839 26.2134 4.51756 26.5356 4.34082 26.836Z" fill="#FFA3A3"/>
</g>
<path d="M177.804 47.3274C178.167 47.4045 178.531 47.4796 178.894 47.5547C215.335 55.039 255.684 57.8788 266.501 58.1998C282.27 58.6689 295.852 97.7236 256.21 97.022C216.569 96.321 176.285 81.9165 176.285 81.9165C176.285 81.9165 140.969 39.5541 177.804 47.3274Z" fill="#805252"/>
<path d="M179.441 87.1623H167.63C167.501 87.1623 167.396 87.0573 167.396 86.9284V46.8198C167.396 46.6909 167.501 46.5859 167.63 46.5859H179.441C179.57 46.5859 179.675 46.6909 179.675 46.8198V86.9284C179.675 87.0573 179.57 87.1623 179.441 87.1623Z" fill="#97BACF"/>
<path d="M177.802 52.5695C178.165 52.6466 178.529 52.7223 178.892 52.7967C215.333 60.281 255.682 63.1209 266.499 63.4418C282.267 63.9116 296.192 99.5797 256.384 98.9318C234.809 98.5817 210.077 87.1585 176.282 87.1585C155.946 87.1585 140.967 44.7968 177.802 52.5695Z" fill="#543636"/>
<path opacity="0.3" d="M185.053 53.9997C182.992 53.6097 180.934 53.2097 178.892 52.7897C178.528 52.7153 178.166 52.6396 177.803 52.5625L176.283 87.1515C179.304 87.1515 182.172 87.3363 185.053 87.503V53.9997Z" fill="#543636"/>
<path d="M179.441 89.8654H167.63C167.501 89.8654 167.396 89.7604 167.396 89.6315V49.523C167.396 49.3934 167.501 49.2891 167.63 49.2891H179.441C179.57 49.2891 179.675 49.394 179.675 49.523V89.6315C179.675 89.7604 179.57 89.8654 179.441 89.8654Z" fill="#83A1B3"/>
<path d="M166.329 89.0861H122.975C118.37 89.0861 114.621 85.336 114.621 80.7327V53.6034C114.621 48.9995 118.37 45.25 122.975 45.25H166.329C170.934 45.25 174.682 49.0001 174.682 53.6034V80.7327C174.682 85.336 170.934 89.0861 166.329 89.0861ZM122.975 52.5748C122.406 52.5748 121.947 53.036 121.947 53.6027V80.732C121.947 81.2988 122.406 81.7593 122.975 81.7593H166.329C166.897 81.7593 167.357 81.2988 167.357 80.732V53.6027C167.357 53.036 166.897 52.5748 166.329 52.5748H122.975Z" fill="#97BACF"/>
<path d="M166.329 91.7808H122.975C118.37 91.7808 114.621 88.032 114.621 83.4274V56.2987C114.621 51.6941 118.37 47.9453 122.975 47.9453H166.329C170.934 47.9453 174.682 51.6941 174.682 56.2987V83.4274C174.682 88.032 170.934 91.7808 166.329 91.7808ZM122.975 55.2708C122.406 55.2708 121.947 55.7319 121.947 56.2987V83.4274C121.947 83.9955 122.406 84.4553 122.975 84.4553H166.329C166.897 84.4553 167.357 83.9948 167.357 83.4274V56.2987C167.357 55.7319 166.897 55.2708 166.329 55.2708H122.975Z" fill="#83A1B3"/>
<g opacity="0.3">
<path d="M168.058 80.4222V53.2929C168.058 52.7261 167.597 52.2656 167.03 52.2656H123.674C123.108 52.2656 122.646 52.7261 122.646 53.2929V55.4045C122.759 55.3613 122.846 55.2689 122.974 55.2689H166.328C166.897 55.2689 167.356 55.73 167.356 56.2968V81.3145C167.745 81.1683 168.058 80.862 168.058 80.4222Z" fill="#83A1B3"/>
<path d="M167.031 88.7748H123.675C119.071 88.7748 115.321 85.026 115.321 80.4214V53.2921C115.321 53.136 115.402 53.005 115.411 52.8516C114.927 53.9087 114.621 55.0609 114.621 56.2967V83.4254C114.621 88.03 118.37 91.7788 122.975 91.7788H166.329C170.777 91.7788 174.351 88.2559 174.593 83.8672C173.274 86.7449 170.399 88.7748 167.031 88.7748Z" fill="#83A1B3"/>
</g>
<path opacity="0.3" d="M150.587 72.1739H118.985C117.71 72.1739 116.676 71.14 116.676 69.865C116.676 68.5899 117.71 67.5547 118.985 67.5547H150.587C151.862 67.5547 152.896 68.5892 152.896 69.865C152.896 71.1407 151.862 72.1739 150.587 72.1739Z" fill="#543636"/>
<path d="M150.937 70.3991H119.334C118.059 70.3991 117.025 69.3653 117.025 68.0902C117.025 66.8151 118.059 65.7812 119.334 65.7812H150.937C152.212 65.7812 153.246 66.8151 153.246 68.0902C153.246 69.3653 152.213 70.3991 150.937 70.3991Z" fill="#83A1B3"/>
<path d="M163.854 68.0804C163.854 70.0326 162.273 71.6146 160.321 71.6146C158.368 71.6146 156.787 70.0319 156.787 68.0804C156.787 66.1296 158.368 64.5469 160.321 64.5469C162.273 64.5469 163.854 66.1296 163.854 68.0804Z" fill="#784D4D"/>
<path d="M160.321 70.7349C161.79 70.7349 162.981 69.5438 162.981 68.0745C162.981 66.6052 161.79 65.4141 160.321 65.4141C158.851 65.4141 157.66 66.6052 157.66 68.0745C157.66 69.5438 158.851 70.7349 160.321 70.7349Z" fill="#261818"/>
<path d="M107.493 67.5648C107.493 69.5169 105.911 71.099 103.96 71.099C102.008 71.099 100.426 69.5169 100.426 67.5648C100.426 65.614 102.008 64.0312 103.96 64.0312C105.911 64.0312 107.493 65.6133 107.493 67.5648Z" fill="#784D4D"/>
<path d="M106.618 67.5582C106.618 69.028 105.428 70.2186 103.959 70.2186C102.49 70.2186 101.299 69.028 101.299 67.5582C101.299 66.0891 102.49 64.8984 103.959 64.8984C105.428 64.8984 106.618 66.0891 106.618 67.5582Z" fill="#261818"/>
<path d="M83.7526 65.7764C83.7526 67.7285 82.1712 69.3099 80.2191 69.3099C78.2669 69.3099 76.6855 67.7285 76.6855 65.7764C76.6855 63.8242 78.2669 62.2422 80.2191 62.2422C82.1712 62.2422 83.7526 63.8242 83.7526 65.7764Z" fill="#784D4D"/>
<path d="M80.219 68.4303C81.6884 68.4303 82.8795 67.2391 82.8795 65.7698C82.8795 64.3005 81.6884 63.1094 80.219 63.1094C78.7497 63.1094 77.5586 64.3005 77.5586 65.7698C77.5586 67.2391 78.7497 68.4303 80.219 68.4303Z" fill="#261818"/>
<path opacity="0.1" d="M282.239 81.3047C270.562 96.9809 245.304 92.5285 218.847 87.8468C189.613 82.6735 185.052 86.4721 183.416 86.8229L183.652 87.4475C213.678 88.9179 236.43 98.6009 256.383 98.9258C276.508 99.2527 282.876 90.2993 282.239 81.3047Z" fill="#543636"/>
<path opacity="0.6" d="M162.164 48.6986C164.652 48.6986 166.669 48.084 166.669 47.3259C166.669 46.5677 164.652 45.9531 162.164 45.9531C159.677 45.9531 157.66 46.5677 157.66 47.3259C157.66 48.084 159.677 48.6986 162.164 48.6986Z" fill="#BAE5FF"/>
<path opacity="0.5" d="M171.53 49.3574C171.377 49.8205 170.361 49.9002 169.262 49.5361C168.161 49.172 167.393 48.5022 167.547 48.0391C167.7 47.5773 168.716 47.4969 169.815 47.861C170.915 48.2258 171.683 48.8956 171.53 49.3574Z" fill="#BAE5FF"/>
<path opacity="0.2" d="M221.391 56.2143C248.08 61.3471 266.469 60.2482 270.679 62.003C274.889 63.7564 277.081 65.7744 277.081 65.7744C277.081 65.7744 273.749 60.1611 267.171 59.5472C260.593 58.9339 236.476 56.6535 230.862 56.215C225.249 55.7758 212.268 54.4608 221.391 56.2143Z" fill="#FFA3A3"/>
</svg>
