<svg width="300" height="300" viewBox="0 0 300 300" fill="none" xmlns="http://www.w3.org/2000/svg">
<path d="M119.758 49.8576C121.089 49.7727 122.448 49.9326 123.694 50.4155C126.981 51.6893 129.018 54.7716 130.371 57.8686C156.007 59.1639 181.389 67.5351 200.271 85.4774C215.538 99.9843 225.185 120.401 228.944 140.969C230.514 149.558 231.073 158.194 231.298 166.905C237.08 170.272 242.641 174.44 247.955 178.487C255.6 184.31 263.062 190.312 269.866 197.114C271.612 198.86 273.465 200.601 274.927 202.597C276.417 204.63 277.583 207.702 277.14 210.232C276.839 211.949 275.895 213.455 274.442 214.428C273.379 215.141 272.23 215.429 270.959 215.398C268.333 215.336 265.605 214.193 263.123 213.398C260.143 212.443 257.059 211.451 253.971 210.91C247.494 209.774 240.83 210.541 234.393 211.583C209.876 215.55 194.351 224.952 174.346 238.891C163.461 246.038 153.131 252.222 139.512 250.561C132.039 249.649 124.522 246.509 117.863 243.109C102.1 235.062 88.3965 224.214 76.1099 211.533C73.281 208.613 70.3953 205.618 67.896 202.408C56.0741 201.436 37.2881 197.487 27.5211 190.521C25.7178 189.235 24.3736 187.94 24.0107 185.665C23.2328 180.789 23.1915 172.864 23.2372 167.879C23.309 160.059 23.7097 152.174 24.8907 144.439C27.2205 129.178 32.8329 112.734 41.8487 100.129C44.8051 95.9962 47.9598 92.0157 51.5038 88.3693C63.4983 76.0289 79.6965 66.6525 96.1654 61.7804C100.589 60.472 105.102 59.5738 109.649 58.8202C110.217 56.8228 111.178 54.8517 112.527 53.2644C114.484 50.9621 116.813 50.0841 119.758 49.8576Z" fill="#050623"/>
<path d="M183.551 157.376C184.957 157.801 187.669 156.828 189.315 156.911C189.45 158.038 189.692 159.244 189.694 160.375C187.819 160.561 185.922 160.883 184.049 161.009C183.821 159.813 183.707 158.583 183.551 157.376Z" fill="#FBFBFB"/>
<path d="M83.212 190.859C83.7376 193.494 83.7757 196.21 84.332 198.857C82.4791 199.212 80.6104 199.436 78.7261 199.529C78.5362 197.4 78.3836 195.259 78.1211 193.138C79.6823 193.069 81.5717 192.875 82.9937 192.203C83.2442 191.84 83.1877 191.302 83.212 190.859Z" fill="#A2A4AB"/>
<path d="M184.051 161.017C185.924 160.89 187.822 160.569 189.696 160.383C189.956 163.04 190.187 165.7 190.388 168.362C188.494 168.671 186.605 169.009 184.722 169.375C184.541 166.586 184.256 163.804 184.051 161.017Z" fill="#A2A4AB"/>
<path d="M123.28 63.2025C122.007 63.4328 120.724 63.5854 119.432 63.6604C117.38 63.7677 113.656 63.7472 112.071 62.2422C111.625 61.8185 111.442 61.2716 111.434 60.664C111.407 58.4858 113.026 55.6041 114.517 54.0742C115.838 52.7198 117.133 52.1442 118.994 52.0938C117.882 53.0866 117.203 53.8281 116.687 55.2405L116.588 55.5071C116.321 57.1153 116.344 58.7972 117.381 60.1639C118.863 62.1144 121.938 62.1754 123.28 63.2025Z" fill="#A31313"/>
<path d="M118.997 52.0985C120.889 51.6447 122.53 51.8979 124.199 52.944C126.334 54.2823 128.05 56.7345 128.576 59.2051C128.711 59.8347 128.746 60.7663 128.385 61.3323C128.147 61.7073 127.782 61.8922 127.404 62.0952C126.048 62.7081 124.748 62.9732 123.283 63.2073C121.941 62.1802 118.866 62.1192 117.384 60.1686C116.346 58.802 116.324 57.12 116.591 55.5119L116.69 55.2453C117.206 53.8329 117.885 53.0914 118.997 52.0985Z" fill="#D23E38"/>
<path d="M122.79 54.6203C122.945 54.6167 122.96 54.6133 123.137 54.6279C123.844 54.6874 124.359 55.041 124.81 55.5798C125.237 56.0916 125.506 56.72 125.42 57.3965C125.343 58.0044 125.076 58.2713 124.605 58.6082C123.775 58.6106 123.117 58.5403 122.485 57.9438C122.048 57.5312 121.785 57.0188 121.799 56.4092C121.819 55.5997 122.209 55.1321 122.79 54.6203Z" fill="#FBFBFB"/>
<path d="M123.283 63.2032C121.941 62.1761 118.866 62.1152 117.384 60.1646C116.346 58.7979 116.324 57.116 116.591 55.5078C117.416 57.461 118.235 59.8593 120.345 60.764C122.523 61.698 125.248 61.0247 127.404 62.0911C126.048 62.704 124.748 62.9691 123.283 63.2032Z" fill="#D80F0C"/>
<path d="M145.578 238.045C147.166 238.121 148.822 237.822 150.367 237.473C160.79 235.112 169.59 227.099 178.544 221.478C184.971 217.443 191.711 213.499 198.586 210.29C217.242 201.583 237.525 195.8 258.192 199.685C261.473 200.302 264.859 201.033 267.994 202.188C270.5 203.111 271.456 204.255 272.559 206.645C254.548 198.025 232.442 199.824 214.053 206.314C211.818 207.124 209.601 207.982 207.403 208.888C205.204 209.794 203.027 210.746 200.869 211.746C198.712 212.746 196.578 213.792 194.466 214.883C192.354 215.975 190.266 217.112 188.203 218.294C184.333 220.501 180.583 222.91 176.758 225.194L169.573 229.431C168.376 230.135 167.079 230.796 165.95 231.594C160.133 234.83 152.408 238.947 145.58 238.301L145.432 238.194L145.578 238.045Z" fill="#FBFBFB"/>
<path d="M165.949 231.591C167.078 230.793 168.375 230.132 169.571 229.428L176.757 225.191C180.582 222.907 184.332 220.498 188.202 218.29C190.265 217.109 192.353 215.972 194.465 214.88C196.577 213.788 198.711 212.743 200.868 211.743C203.026 210.743 205.203 209.79 207.402 208.885C209.6 207.979 211.817 207.121 214.052 206.311C232.441 199.821 254.547 198.022 272.558 206.642C273.078 207.511 273.357 208.646 273.084 209.643C272.915 210.262 272.527 210.794 271.945 211.081C271.157 211.469 270.282 211.294 269.465 211.102C266.565 210.422 263.774 209.234 260.876 208.494C253.154 206.524 244.717 206.326 236.82 207.181C219.019 209.107 204.4 214.911 188.978 223.753C185.184 225.929 181.691 228.755 177.847 230.797C177.807 230.802 177.767 230.806 177.727 230.812C176.556 230.969 175.382 231.373 174.237 231.667C171.536 232.362 168.637 232.404 165.949 231.591Z" fill="#58769F"/>
<path d="M128.247 63.8906C130.782 64.7071 133.203 65.8251 135.624 66.9249C149.109 73.0494 158.875 81.7318 167.22 93.9313C169.551 97.3391 171.718 100.782 173.604 104.459C182.221 121.252 186.361 138.387 189.316 156.903C187.671 156.82 184.959 157.793 183.552 157.367C181.266 141.655 177.485 126.402 170.47 112.087C162.209 95.2294 149.801 80.9923 133.64 71.3472C131.088 69.8244 127.746 67.6579 124.961 66.7069C124.318 66.1494 123.278 65.7902 122.506 65.4114C124.469 65.0171 126.355 64.5618 128.247 63.8906Z" fill="#FBFBFB"/>
<path d="M115.331 65.5904C117.273 65.6631 119.185 65.6745 121.119 65.4609C117.4 68.3282 113.946 71.1981 110.813 74.7099C89.8358 98.2204 82.2476 129.524 81.9285 160.371C81.8824 166.568 82.0191 172.761 82.3387 178.95C82.5684 182.921 82.9888 186.881 83.2106 190.852C83.1862 191.295 83.2428 191.832 82.9923 192.196C81.5703 192.867 79.6809 193.062 78.1197 193.131C77.7584 190.325 77.5836 187.469 77.3489 184.648C77.1596 182.514 77.0007 180.378 76.872 178.24C76.7432 176.102 76.6449 173.962 76.5769 171.821C76.5089 169.68 76.4714 167.539 76.4641 165.397C76.4571 163.254 76.4804 161.113 76.5342 158.971C76.5879 156.83 76.6719 154.689 76.7864 152.55C76.9009 150.411 77.0456 148.274 77.2206 146.139C77.3958 144.004 77.6013 141.872 77.837 139.743C78.0726 137.614 78.3384 135.489 78.6345 133.367C79.4882 127.633 80.5414 121.84 82.0877 116.249C82.9115 113.269 83.9899 110.304 85.0619 107.405C91.2464 90.6735 100.903 76.2712 115.331 65.5904Z" fill="#FBFBFB"/>
<path d="M74.1953 202.444C77.843 202.299 81.4828 202.041 85.1148 201.672C97.7163 215.275 119.18 232.874 137.434 237.133C139.996 237.731 142.635 237.944 145.258 238.043L145.577 238.053L145.431 238.203L145.579 238.31C152.407 238.955 160.132 234.839 165.949 231.603C168.637 232.416 171.536 232.373 174.237 231.679C175.382 231.385 176.556 230.98 177.727 230.823C177.767 230.818 177.807 230.813 177.847 230.809C175.574 232.642 173.043 234.245 170.61 235.864C161.472 241.944 151.51 247.277 140.159 246.071C119.462 243.872 87.1508 218.788 74.4395 202.764C74.3567 202.659 74.2754 202.552 74.1953 202.444Z" fill="#435779"/>
<path d="M83.6519 191.886C84.8707 191.551 86.1776 190.828 87.3477 190.326C89.5485 189.381 91.7716 188.493 93.9781 187.563C100.49 184.78 107.058 182.139 113.684 179.64C119.815 177.286 126.096 175.281 132.358 173.309C136.547 171.948 140.763 170.672 145.006 169.483C149.248 168.294 153.512 167.193 157.799 166.178C162.087 165.163 166.393 164.237 170.718 163.398C175.043 162.559 179.383 161.81 183.739 161.148C184.018 163.897 184.271 166.647 184.498 169.4C167.535 172.25 150.705 176.81 134.286 181.886C129.133 183.479 123.983 184.988 118.884 186.76C112.393 189.009 105.935 191.347 99.5082 193.774C94.6546 195.601 89.7213 198.009 84.5838 198.849C84.1892 197.108 83.4779 193.592 83.6519 191.886Z" fill="#A2A4AB"/>
<path d="M86.6855 201.229C92.3481 199.183 97.8544 196.409 103.64 194.742C104.758 196.689 109.335 200.479 111.236 202.099C123.489 212.541 138.863 223.755 154.57 228.018C157.647 228.853 160.697 229.23 163.87 229.413C158.451 233.501 151.385 236.679 144.467 236.379C124.951 235.535 99.3829 215.108 86.6855 201.229Z" fill="#A31313"/>
<path d="M169.344 174.698C173.306 173.712 177.292 172.837 181.303 172.073C185.313 171.308 189.342 170.656 193.389 170.116C197.436 169.577 201.495 169.15 205.566 168.836C209.636 168.522 213.713 168.321 217.795 168.234C220.684 168.197 225.377 167.786 227.915 169.309C231.082 171.21 234.169 173.431 237.205 175.543C247.354 182.601 257.755 190.616 266.275 199.592C252.758 195.487 238.766 195.639 225.079 198.796C222.265 199.446 219.338 200.092 216.621 201.084C216.652 199.809 216.602 198.717 215.55 197.83C213.028 195.704 202.26 192.348 198.639 190.989C192.855 188.818 172.97 179.498 169.344 174.698Z" fill="#FC7161"/>
<path d="M28.2849 185.941C28.1071 181.209 27.6228 176.515 27.5539 171.767C27.274 152.479 29.7785 131.855 38.4946 114.426C38.8434 113.732 39.2008 113.042 39.5666 112.356C39.9324 111.67 40.3067 110.989 40.6896 110.313C41.0722 109.637 41.4632 108.965 41.8626 108.299C42.2621 107.632 42.6696 106.97 43.0855 106.314C43.5011 105.657 43.9249 105.006 44.3569 104.36C44.7888 103.714 45.2286 103.073 45.6765 102.438C46.1242 101.803 46.5797 101.173 47.0432 100.549C47.5065 99.9253 47.9775 99.3074 48.4562 98.6953C48.9349 98.083 49.4212 97.4767 49.9149 96.8765C50.4085 96.2763 50.9094 95.6824 51.4179 95.0947C51.9264 94.507 52.4421 93.9257 52.9647 93.3506C53.4876 92.7756 54.0174 92.2072 54.5544 91.6453C55.0913 91.0836 55.6351 90.5285 56.1859 89.9801C56.7365 89.4316 57.2939 88.8901 57.8579 88.3555C58.422 87.821 58.9926 87.2934 59.5697 86.7729C60.1469 86.2526 60.7304 85.7394 61.3202 85.2334C61.9101 84.7275 62.506 84.229 63.1082 83.7378C63.7106 83.2466 64.3187 82.7629 64.9328 82.2867C65.547 81.8105 66.1671 81.3421 66.7929 80.8813C67.4187 80.4206 68.0501 79.9676 68.6872 79.5226C69.3241 79.0772 69.9665 78.64 70.6143 78.211C71.2621 77.7817 71.9153 77.3605 72.5737 76.9477C73.2319 76.5346 73.8952 76.1297 74.5635 75.7331C75.2319 75.3366 75.905 74.9483 76.583 74.5682C77.2609 74.1883 77.9434 73.8169 78.6305 73.4538C79.3176 73.0909 80.0092 72.7365 80.7051 72.3906C81.4011 72.0447 82.1013 71.7074 82.8053 71.3789C83.5096 71.0504 84.2179 70.7306 84.9303 70.4195C85.6423 70.1085 86.3583 69.8065 87.078 69.5133C87.7977 69.22 88.5209 68.9357 89.2477 68.6605C89.9745 68.3851 90.7044 68.1188 91.4376 67.8616C92.1711 67.6043 92.9075 67.3562 93.6469 67.1171C95.9804 66.3408 108.978 62.5046 110.292 63.1612C105.67 65.5441 100.691 67.1332 96.0384 69.4907C93.4078 70.8237 90.8971 72.411 88.3943 73.967C84.6437 76.2517 80.9978 78.693 77.4566 81.2906C73.9156 83.8884 70.4924 86.6332 67.1869 89.5248C65.9585 90.6041 64.4043 91.7303 63.4246 93.0299C63.4193 93.341 63.3912 93.2212 63.4483 93.3978C63.1122 93.7271 62.7677 94.1276 62.3658 94.3699C61.3861 94.5029 60.7161 95.5265 60.1557 96.2636C57.9572 99.1541 55.7136 102.076 53.8729 105.211C53.6346 105.627 53.4008 106.044 53.1713 106.465C52.9418 106.884 52.7166 107.307 52.4957 107.732C52.275 108.156 52.0587 108.583 51.8468 109.013C51.6351 109.442 51.4277 109.874 51.2248 110.307C51.0218 110.741 50.8235 111.176 50.6297 111.614C50.436 112.052 50.2467 112.491 50.062 112.933C49.8774 113.375 49.6974 113.818 49.522 114.264C49.3467 114.709 49.1758 115.156 49.0096 115.605C48.8436 116.054 48.6822 116.505 48.5254 116.957C48.3687 117.409 48.2167 117.863 48.0695 118.319C47.9223 118.774 47.7797 119.231 47.6418 119.69C47.5041 120.148 47.3711 120.608 47.2428 121.069C47.1147 121.53 46.9913 121.993 46.8728 122.457C46.7542 122.92 46.6405 123.385 46.5317 123.851C46.4228 124.318 46.3187 124.785 46.2194 125.253C46.1204 125.722 46.0261 126.191 45.9367 126.661C45.8472 127.131 45.7628 127.602 45.6833 128.075C45.6038 128.547 45.5292 129.019 45.4594 129.493C45.3897 129.967 45.3249 130.441 45.2649 130.916C45.2051 131.391 45.1503 131.866 45.1002 132.342C45.0502 132.818 45.0052 133.295 44.9652 133.772C44.9251 134.249 44.8901 134.726 44.86 135.204C44.83 135.682 44.8048 136.16 44.7847 136.638C44.7645 137.117 44.7492 137.595 44.739 138.074C44.7289 138.552 44.7237 139.031 44.7235 139.509C44.7233 139.988 44.7281 140.467 44.7378 140.946C44.7476 141.424 44.7623 141.902 44.7821 142.381C44.8016 142.859 44.8262 143.337 44.8559 143.815C44.8856 144.293 44.9203 144.77 44.96 145.247C44.9996 145.724 45.0441 146.201 45.0935 146.677C45.1431 147.153 45.1977 147.629 45.257 148.104C45.3164 148.579 45.3807 149.053 45.4501 149.527C46.1087 154.288 47.3002 159.181 49.0843 163.648C52.3972 171.941 58.5809 180.564 65.7305 185.961C68.7663 188.253 72.3587 190.846 75.9074 192.223C76.0683 194.477 76.3265 196.72 76.6819 198.952C62.5403 198.41 39.8177 194.592 28.2849 185.941Z" fill="#A2A4AB"/>
<path d="M110.292 63.1641C111.144 64.2393 112.035 64.6699 113.316 65.1085C112.167 65.8298 111.112 66.6073 110.064 67.4675C109.447 67.9732 108.795 68.6631 108.107 69.0454C105.66 71.3373 103.204 73.7019 100.985 76.2179C91.74 86.7015 85.3468 99.472 81.2093 112.762C80.093 116.347 79.3176 120.034 78.3317 123.656C77.3365 128.719 76.4013 133.826 75.8019 138.953C73.7717 156.315 74.1956 174.846 75.9065 192.226C72.3578 190.849 68.7654 188.256 65.7297 185.964C58.5801 180.567 52.3964 171.944 49.0835 163.651C47.2993 159.184 46.1078 154.29 45.4493 149.529C45.3799 149.056 45.3156 148.582 45.2562 148.107C45.1968 147.632 45.1423 147.156 45.0927 146.68C45.0433 146.204 44.9988 145.727 44.9591 145.25C44.9195 144.773 44.8848 144.296 44.8551 143.818C44.8256 143.34 44.801 142.862 44.7812 142.384C44.7615 141.905 44.7468 141.427 44.737 140.948C44.7272 140.47 44.7224 139.991 44.7227 139.512C44.7229 139.034 44.728 138.555 44.7382 138.076C44.7486 137.598 44.7638 137.12 44.7839 136.641C44.804 136.163 44.8291 135.685 44.8592 135.207C44.8892 134.729 44.9243 134.252 44.9644 133.775C45.0044 133.298 45.0494 132.821 45.0994 132.345C45.1494 131.869 45.2043 131.394 45.2641 130.919C45.324 130.444 45.3889 129.97 45.4586 129.496C45.5283 129.022 45.6029 128.55 45.6824 128.077C45.7619 127.605 45.8464 127.134 45.9359 126.664C46.0253 126.194 46.1196 125.724 46.2186 125.256C46.3178 124.788 46.4219 124.32 46.5309 123.854C46.6397 123.388 46.7533 122.923 46.8719 122.459C46.9904 121.996 47.1138 121.533 47.242 121.072C47.3702 120.611 47.5033 120.151 47.641 119.692C47.7788 119.234 47.9214 118.777 48.0687 118.322C48.216 117.866 48.3679 117.412 48.5245 116.96C48.6814 116.507 48.8428 116.057 49.0088 115.608C49.175 115.159 49.3458 114.712 49.5212 114.267C49.6966 113.821 49.8766 113.377 50.0611 112.936C50.2459 112.494 50.4352 112.055 50.6289 111.617C50.8226 111.179 51.021 110.744 51.2239 110.31C51.4269 109.876 51.6342 109.445 51.8459 109.016C52.0578 108.586 52.2742 108.159 52.4948 107.735C52.7158 107.31 52.9409 106.887 53.1704 106.467C53.3999 106.047 53.6338 105.63 53.8721 105.214C55.7129 102.079 57.9564 99.157 60.1548 96.2666C60.7153 95.5294 61.3853 94.5058 62.3649 94.3728C62.7669 94.1305 63.1115 93.73 63.4475 93.4007C63.3904 93.2241 63.4184 93.3439 63.4237 93.0328C64.4034 91.7332 65.9576 90.607 67.1861 89.5277C70.4915 86.6361 73.9148 83.8913 77.4558 81.2935C80.997 78.6958 84.6429 76.2546 88.3934 73.9699C90.8963 72.4139 93.407 70.8267 96.0375 69.4936C100.69 67.1361 105.67 65.547 110.292 63.1641Z" fill="#C8C7C7"/>
<path d="M63.4472 93.4008C64.4579 92.7232 65.8542 91.8642 67.1233 92.0922C67.5938 92.1768 68.0834 92.4865 68.3174 92.9136C68.6274 93.4788 68.5073 94.1901 68.2835 94.7599C67.6392 96.4009 65.7873 98.2846 64.1526 98.9257C63.6109 99.1381 62.981 99.2585 62.4235 99.0261C62.3688 99.0035 62.3154 98.9781 62.2633 98.95C62.2113 98.9217 62.1608 98.8909 62.1118 98.8577C62.0628 98.8245 62.0156 98.7889 61.9703 98.7508C61.925 98.7127 61.8817 98.6725 61.8405 98.6301C61.7991 98.5875 61.76 98.5431 61.7233 98.4968C61.6866 98.4503 61.6523 98.4021 61.6205 98.3523C61.5885 98.3023 61.5591 98.251 61.5326 98.1982C61.5059 98.1453 61.482 98.0912 61.4609 98.036C61.1489 97.2177 61.419 96.0783 61.7916 95.3254C61.9572 94.9912 62.1567 94.6818 62.3647 94.373C62.7666 94.1306 63.1111 93.7302 63.4472 93.4008Z" fill="#050623"/>
<path d="M66.033 93.8828C66.2578 93.9258 66.2692 93.9751 66.4312 94.1242C66.4265 94.1779 66.4279 94.2323 66.4168 94.2848C66.2264 95.1933 64.8398 96.1445 64.0915 96.6106C63.8513 96.5228 63.7886 96.4337 63.6187 96.2497C63.5888 95.9907 63.5446 95.9081 63.6535 95.6597C64.045 94.7681 65.1873 94.2162 66.033 93.8828Z" fill="#FBFBFB"/>
<path d="M78.3334 123.65C78.2754 123.578 78.1811 123.469 78.1298 123.385C77.7094 122.691 77.4519 121.622 77.2119 120.829C75.6703 115.738 75.7224 110.667 76.8416 105.499C79.5797 92.8558 88.2724 80.6015 99.1632 73.6139C100.635 72.6697 106.734 68.7392 108.109 69.0398C105.662 71.3317 103.206 73.6962 100.987 76.2122C91.7417 86.6958 85.3485 99.4663 81.211 112.756C80.0948 116.342 79.3193 120.028 78.3334 123.65Z" fill="#FBFBFB"/>
<path d="M103.639 194.746C111.439 191.757 119.312 188.974 127.257 186.395C135.202 183.816 143.208 181.446 151.277 179.283C157.254 177.663 163.267 175.912 169.341 174.695C172.968 179.495 192.852 188.815 198.637 190.986C202.257 192.346 213.026 195.701 215.548 197.828C216.599 198.714 216.65 199.807 216.619 201.081C203.599 204.896 189.012 212.328 177.678 219.837C173.015 222.926 168.595 226.431 163.87 229.417C160.696 229.233 157.646 228.857 154.569 228.022C138.862 223.758 123.488 212.545 111.235 202.103C109.334 200.483 104.758 196.692 103.639 194.746Z" fill="#D23E38"/>
<path d="M190.702 156.281C189.096 143.467 185.434 128.202 180.611 116.283C172.7 96.7304 161.392 79.2815 142.648 68.662C139.604 66.9372 136.357 65.3819 133.125 64.0474C132.155 63.6469 131.151 63.3583 130.184 62.9494C130.157 62.7601 130.265 62.5134 130.368 62.3585C130.569 62.0555 130.91 61.876 131.264 61.8461C132.657 61.7289 138.425 62.6617 140.223 62.8972C159.146 65.3775 176.209 71.7557 191.318 83.5532C211.624 99.4099 222.565 123.975 225.657 149.131C226.128 152.294 226.337 155.498 226.514 158.69C226.902 161.003 226.713 163.668 226.745 166.021C217.131 165.842 207.754 165.949 198.207 167.304C197.678 167.379 196.366 167.73 196.013 167.274C195.993 167.249 195.986 167.216 195.973 167.187C195.934 167.284 195.814 167.428 195.753 167.516C194.544 167.852 193.226 167.929 191.982 168.08C191.763 165.407 191.503 162.738 191.201 160.074L190.702 156.281Z" fill="#FBFBFB"/>
<path d="M181.516 78.9455C182.962 78.8219 184.111 79.187 185.337 79.9417C186.627 80.7362 188.338 82.1729 188.64 83.7104C188.747 84.2594 188.576 84.5518 188.296 84.9925C187.124 85.1281 186.148 84.6851 185.139 84.149C183.755 83.4148 181.64 82.0414 181.229 80.4433C181.08 79.8663 181.226 79.4409 181.516 78.9455Z" fill="#050623"/>
<path d="M194.998 155.172C194.687 151.351 193.92 147.565 193.159 143.812C192.673 141.294 192.128 138.789 191.525 136.296C190.922 133.804 190.261 131.327 189.543 128.866C188.824 126.404 188.049 123.96 187.217 121.535C186.385 119.109 185.497 116.704 184.553 114.32C182.958 110.259 181.168 106.053 179.096 102.217C178.53 101.171 176.973 99.0241 176.949 97.8672C177.77 98.5038 178.062 100.006 178.624 100.879C179.959 102.959 180.939 105.323 181.979 107.566C183.252 110.373 184.444 113.213 185.553 116.088C186.662 118.963 187.688 121.868 188.629 124.803C189.57 127.737 190.426 130.696 191.196 133.68C191.966 136.664 192.649 139.668 193.245 142.691C193.935 146.043 194.627 149.401 195.057 152.798C195.169 153.677 195.322 154.592 195.307 155.479C196.626 155.815 212.952 152.568 215.243 151.984C217.268 151.471 219.284 150.927 221.291 150.352C222.728 149.927 224.178 149.365 225.658 149.125C226.129 152.288 226.338 155.492 226.515 158.684C226.902 160.997 226.714 163.662 226.746 166.015C217.132 165.836 207.755 165.943 198.207 167.298C197.678 167.373 196.367 167.724 196.013 167.268C195.994 167.243 195.987 167.21 195.973 167.181C195.934 167.278 195.815 167.422 195.754 167.51C194.545 167.846 193.227 167.923 191.982 168.074C191.764 165.401 191.504 162.732 191.201 160.068L190.703 156.275C192.04 156.033 193.588 155.974 194.86 155.54L194.998 155.172Z" fill="#A2A4AB"/>
<path d="M194.998 155.18C195.158 156.515 195.481 158.166 195.337 159.497L191.201 160.075L190.703 156.282C192.04 156.041 193.589 155.982 194.86 155.547L194.998 155.18Z" fill="#FBFBFB"/>
<path d="M225.658 149.133C226.128 152.297 226.338 155.5 226.515 158.692C226.293 158.94 226.412 158.912 226.19 158.924C224.253 159.021 222.177 158.686 220.232 158.578C217.349 158.437 214.464 158.389 211.578 158.434C208.345 158.466 205.159 158.63 201.939 158.895C199.918 159.062 197.815 159.374 195.793 159.392C195.337 158.196 195.701 156.722 195.307 155.487C196.625 155.823 212.952 152.576 215.243 151.992C217.267 151.479 219.283 150.935 221.291 150.361C222.728 149.935 224.178 149.373 225.658 149.133Z" fill="#FBFBFB"/>
<path d="M84.979 130.369C89.276 109.062 96.0236 92.6752 110.047 75.9418C112.039 73.5652 119.814 65.6571 122.506 65.4219C123.278 65.8007 124.319 66.1599 124.961 66.7174C125.026 66.7894 125.083 66.8695 125.155 66.9339C125.692 67.4146 129.964 69.4809 130.9 70.018C132.874 71.125 134.808 72.2994 136.7 73.5412C138.592 74.7829 140.439 76.0889 142.24 77.4594C156.755 88.5316 167.625 104.133 174.238 121.084C176.709 127.419 178.571 133.927 180.17 140.528C181.525 146.121 182.734 151.879 183.304 157.61L183.738 161.154C179.383 161.815 175.042 162.565 170.717 163.403C166.392 164.242 162.086 165.169 157.799 166.183C153.512 167.198 149.247 168.3 145.005 169.489C140.763 170.678 136.547 171.953 132.357 173.314C126.096 175.286 119.815 177.292 113.683 179.645C107.058 182.144 100.489 184.786 93.9778 187.569C91.7712 188.499 89.5481 189.387 87.3474 190.331C86.1772 190.833 84.8703 191.557 83.6516 191.892C82.015 174.223 81.461 156.601 83.6138 138.939C83.9639 136.066 84.5173 133.225 84.979 130.369Z" fill="#FBFBFB"/>
</svg>
