<svg width="266" height="182" viewBox="0 0 266 182" fill="none" xmlns="http://www.w3.org/2000/svg">
<path d="M253.691 99.9797C251.997 82.3152 239.706 68.7222 222.446 68.7222H207.547C197.88 50.9832 178.84 17.553 166.798 6.39429C150.108 -9.07549 83.3336 7.61172 71.9403 13.7205C62.6192 18.7129 53.5742 48.4648 48.3592 68.7222H43.0975C25.835 68.7222 14.1118 82.5396 11.8469 99.9797L5.9082 150.021H258.451L253.691 99.9797Z" fill="#E23814"/>
<path d="M99.311 132.3C90.2243 132.3 79.735 132.006 71.0017 128.944C61.243 125.522 54.3024 119.425 52.7664 109.027C51.0356 97.2541 52.0451 86.7995 55.6703 75.5201C62.8606 53.1615 74.2015 32.4426 81.4367 10.0859C77.113 11.4564 73.7969 12.7256 71.9403 13.7181C62.6192 18.7105 53.5742 48.4623 48.3593 68.7197H43.0975C25.835 68.7197 14.1118 82.5372 11.8469 99.9773L5.9082 150.018H258.451L256.594 130.519C243.779 131.252 99.311 132.3 99.311 132.3Z" fill="#CA2216"/>
<path d="M265.309 151.785C265.309 157.782 260.222 162.634 253.948 162.634H11.3559C5.08662 162.634 0 157.782 0 151.785C0 145.794 5.08662 140.938 11.3559 140.938H253.948C260.222 140.938 265.309 145.794 265.309 151.785Z" fill="#B5B6BD"/>
<path d="M184.864 68.9539C177.459 54.6352 165.049 29.3057 156.891 21.2291C144.705 9.18164 95.9729 22.1798 87.6466 26.9378C81.2856 30.575 74.9499 53.4001 71.0586 68.9539H184.864Z" fill="white"/>
<path d="M184.864 68.9503L186.674 68.0122C182.98 60.8737 178.019 50.9425 172.942 41.7623C170.404 37.1719 167.839 32.7648 165.369 28.9645C162.898 25.1642 160.552 21.9866 158.325 19.7767C156.112 17.599 153.112 16.2482 149.67 15.3986C146.221 14.5516 142.292 14.2109 138.092 14.2109C128.324 14.2135 117.062 16.0801 107.447 18.3595C102.642 19.5005 98.2545 20.747 94.6717 21.9253C91.0787 23.113 88.3454 24.1945 86.6343 25.1699C84.4073 26.4885 82.7753 28.8513 81.1204 31.8861C78.688 36.4443 76.4364 42.6271 74.394 49.1758C72.3567 55.7195 70.5444 62.6057 69.0829 68.4579C68.93 69.0628 69.0659 69.712 69.4534 70.2063C69.8384 70.6975 70.4338 70.9888 71.0583 70.9888H184.864C185.572 70.9888 186.234 70.6159 186.605 70.0109C186.973 69.4085 186.997 68.6456 186.674 68.0135L184.864 68.9503V66.9105H71.0583V68.9503L73.0337 69.4465C74.9743 61.698 77.523 52.1423 80.3473 44.1543C81.7569 40.1637 83.2411 36.5562 84.7127 33.8084C86.1596 31.0555 87.7051 29.2009 88.6558 28.7047C89.8555 28.0106 92.5079 26.9246 95.9447 25.7957C106.298 22.3734 124.2 18.2697 138.092 18.2843C142.065 18.2792 145.704 18.6174 148.697 19.3557C151.694 20.0889 154.005 21.2299 155.457 22.6743C157.312 24.5017 159.571 27.5163 161.953 31.1832C169.127 42.2206 177.492 59.1297 183.053 69.8877L184.864 68.9503Z" fill="#B00F16"/>
<path d="M134.129 16.87V121.681H136.167L136.194 119.641C136.181 119.641 129.72 119.562 110.013 119.562V121.599L111.944 120.952C111.87 120.74 109.655 114.224 102.514 107.698C95.3807 101.172 83.2889 94.7537 63.9872 94.7664V96.8062L65.9626 97.3075L73.0348 69.4546C73.3117 68.3629 72.6523 67.2548 71.5607 66.9804C70.4715 66.7017 69.3628 67.3629 69.0841 68.452L62.0119 96.3049C61.8564 96.9124 61.9948 97.5666 62.3772 98.0559C62.7622 98.5521 63.3627 98.8435 63.9872 98.8435C82.3951 98.8606 93.3118 104.841 99.7663 110.713C102.991 113.651 105.085 116.582 106.369 118.76C107.008 119.853 107.448 120.749 107.72 121.362C107.856 121.67 107.952 121.905 108.011 122.056L108.07 122.222L108.081 122.249C108.359 123.081 109.14 123.639 110.014 123.639C119.859 123.639 126.395 123.659 130.469 123.679C134.54 123.698 136.136 123.719 136.143 123.719C136.689 123.726 137.215 123.514 137.598 123.131C137.988 122.75 138.208 122.227 138.208 121.681V16.8707C138.208 15.75 137.294 14.8359 136.168 14.8359C135.043 14.8359 134.129 15.7493 134.129 16.87Z" fill="#B00F16"/>
<path d="M223.572 93.7315C229.607 99.7713 253.35 98.8504 253.366 94.7069C253.405 79.2965 241.886 69.0619 227.723 69.0619C227.723 69.0619 224.625 68.7358 222.743 70.5487C218.31 74.8028 218.804 88.971 223.572 93.7315Z" fill="#FFE32F"/>
<path d="M37.0499 69.3527C22.9506 68.9431 13.5876 82.6246 12.5232 95.2865C12.2292 98.7385 29.852 97.3902 33.919 93.3308C38.2446 88.9951 40.055 69.4463 37.0499 69.3527Z" fill="#E55000"/>
<path d="M165.891 80.9277C165.891 82.9429 164.256 84.582 162.239 84.582H147.122C145.105 84.582 143.471 82.9423 143.471 80.9277C143.471 78.9056 145.105 77.2734 147.122 77.2734H162.239C164.256 77.2734 165.891 78.9056 165.891 80.9277Z" fill="#B00F16"/>
<path d="M255.99 141.117C255.568 141.848 255.116 142.544 254.622 143.196C248.506 151.332 239.699 153.002 229.774 153.002C203.635 153.002 177.494 153.135 151.365 152.94C124.865 152.744 98.3834 152.48 71.8933 152.48H32.7394C21.8107 152.48 10.8498 154.139 0.0273438 152.28C0.299154 158.038 5.25937 162.634 11.3561 162.634H253.948C260.222 162.634 265.309 157.782 265.309 151.784C265.309 146.46 261.287 142.041 255.99 141.117Z" fill="#A3A2A9"/>
<path d="M104.918 143.453C104.918 164.273 88.0337 181.155 67.2137 181.155C46.3886 181.155 29.5137 164.273 29.5137 143.453C29.5137 122.63 46.388 105.75 67.2137 105.75C88.0337 105.751 104.918 122.63 104.918 143.453Z" fill="#270E06"/>
<path d="M83.5905 143.454C83.5905 152.496 76.2592 159.824 67.2149 159.824C58.175 159.824 50.8418 152.496 50.8418 143.454C50.8418 134.404 58.1757 127.078 67.2149 127.078C76.2592 127.078 83.5905 134.404 83.5905 143.454Z" fill="#FFE32F"/>
<path d="M86.5778 111.102C92.363 116.198 96.1929 123.065 96.8276 131.942C98.0027 148.488 87.2668 165.35 70.029 167.281C61.9645 168.18 53.1446 167.145 45.764 163.685C42.1685 162.004 38.7488 159.74 36.1761 156.675C34.2721 154.396 32.5092 151.542 30.0547 149.798C33.0718 167.604 48.5541 181.16 67.2136 181.16C88.0342 181.16 104.918 164.278 104.918 143.457C104.919 129.717 97.5609 117.689 86.5778 111.102Z" fill="#160000"/>
<path d="M43.7718 143.868C45.0361 132.623 52.9477 126.275 64.1627 123.144C68.7354 122.129 75.5508 123.045 78.3903 119.63C82.9137 113.889 74.047 110.502 67.1999 110.899C60.5728 111.281 53.2934 112.914 45.9501 118.464C41.318 121.978 39.0341 126.85 37.8261 131.413C35.4355 140.441 42.885 151.752 43.7718 143.868Z" fill="#52352E"/>
<path d="M76.8346 130.219C77.4472 135.627 75.8125 141.412 72.5976 145.681C67.0716 153.024 59.4243 152.664 52.1133 149.777C54.5874 155.679 60.4098 159.826 67.2152 159.826C76.2601 159.826 83.5908 152.498 83.5908 143.456C83.5908 138.009 80.9187 133.197 76.8346 130.219Z" fill="#F8BC02"/>
<path d="M238.55 143.453C238.55 164.273 221.666 181.155 200.853 181.155C180.023 181.155 163.148 164.273 163.148 143.453C163.148 122.63 180.023 105.75 200.853 105.75C221.666 105.751 238.55 122.63 238.55 143.453Z" fill="#270E06"/>
<path d="M217.221 143.454C217.221 152.496 209.89 159.824 200.852 159.824C191.807 159.824 184.477 152.496 184.477 143.454C184.477 134.404 191.808 127.078 200.852 127.078C209.89 127.078 217.221 134.404 217.221 143.454Z" fill="#FFE32F"/>
<path d="M220.213 111.102C225.994 116.198 229.826 123.065 230.458 131.942C231.641 148.488 220.897 165.35 203.662 167.281C195.6 168.18 186.78 167.145 179.397 163.685C175.801 162.004 172.379 159.74 169.814 156.675C167.905 154.396 166.144 151.542 163.686 149.798C166.703 167.604 182.185 181.16 200.852 181.16C221.665 181.16 238.55 164.278 238.55 143.457C238.55 129.717 231.194 117.689 220.213 111.102Z" fill="#160000"/>
<path d="M177.405 143.868C178.669 132.623 186.578 126.275 197.801 123.144C202.369 122.129 209.176 123.045 212.021 119.63C216.547 113.889 207.68 110.502 200.833 110.899C194.203 111.281 186.919 112.914 179.583 118.464C174.948 121.978 172.665 126.85 171.457 131.413C169.066 140.441 176.516 151.752 177.405 143.868Z" fill="#52352E"/>
<path d="M210.466 130.219C211.078 135.627 209.443 141.412 206.234 145.681C200.705 153.024 193.055 152.664 185.744 149.777C188.213 155.679 194.051 159.826 200.853 159.826C209.89 159.826 217.222 152.498 217.222 143.456C217.221 138.009 214.549 133.197 210.466 130.219Z" fill="#F8BC02"/>
<path d="M243.205 92.6828C237.331 92.0014 231.864 89.0974 229.113 83.6011C227.014 79.4134 226.696 75.359 225.928 70.84C225.834 70.2724 225.787 69.7117 225.787 69.1484C224.804 69.309 223.631 69.6845 222.742 70.5486C218.31 74.8028 218.804 88.9716 223.572 93.7321C229.607 99.7719 253.351 98.851 253.366 94.7075C253.366 93.4824 253.292 92.2928 253.154 91.1322C250.113 92.5001 246.669 93.0924 243.205 92.6828Z" fill="#F8BC02"/>
<path d="M181.766 69.2441L196.029 98.5983L197.861 97.7044L197.85 95.6672C197.709 95.6722 190.485 95.6918 182.176 98.8132C178.023 100.376 173.593 102.727 169.684 106.282C165.778 109.838 162.42 114.623 160.478 120.905L162.424 121.505L162.422 119.468L136.006 119.522C134.878 119.522 133.966 120.435 133.969 121.564C133.974 122.687 134.887 123.598 136.011 123.596L162.429 123.542C163.317 123.542 164.105 122.959 164.369 122.109C166.097 116.538 169.004 112.425 172.429 109.296C177.562 104.612 183.94 102.185 189.054 100.97C191.607 100.365 193.839 100.054 195.417 99.8985C196.204 99.822 196.829 99.7822 197.254 99.7626L197.73 99.7455L197.866 99.743C198.567 99.743 199.217 99.3802 199.59 98.7822C199.96 98.1874 199.998 97.4466 199.694 96.817L185.431 67.4608C184.94 66.4482 183.718 66.026 182.707 66.5178C181.697 67.0121 181.278 68.2289 181.766 69.2441Z" fill="#B00F16"/>
<path d="M37.0499 69.3517C36.5904 69.339 36.1434 69.3415 35.7041 69.3592C35.4228 72.3839 34.615 75.3618 33.3659 78.0041C29.5334 86.1375 21.6396 89.8783 13.2368 90.8442C12.8911 92.3208 12.649 93.8095 12.5232 95.2861C12.2292 98.7381 29.852 97.3898 33.919 93.3303C38.2446 88.994 40.055 69.4452 37.0499 69.3517Z" fill="#E34001"/>
</svg>
