<svg width="226" height="226" viewBox="0 0 226 226" fill="none" xmlns="http://www.w3.org/2000/svg">
<path d="M112.598 216.016C169.712 216.016 216.012 169.716 216.012 112.602C216.012 55.4876 169.712 9.1875 112.598 9.1875C55.4837 9.1875 9.18359 55.4876 9.18359 112.602C9.18359 169.716 55.4837 216.016 112.598 216.016Z" fill="white"/>
<path d="M112.598 225.196C97.4023 225.196 82.6552 222.217 68.7663 216.343C55.3568 210.671 43.3163 202.554 32.9792 192.217C22.642 181.88 14.5248 169.839 8.85316 156.43C2.97867 142.541 0 127.794 0 112.598C0 97.4024 2.97867 82.6553 8.85316 68.7663C14.5249 55.3569 22.642 43.3164 32.9792 32.9791C43.3163 22.642 55.3568 14.5249 68.7663 8.85316C82.6552 2.97867 97.4023 0 112.598 0C127.794 0 142.541 2.97867 156.43 8.85316C169.839 14.5249 181.88 22.642 192.217 32.9791C202.554 43.3163 210.671 55.3568 216.343 68.7663C222.217 82.6553 225.196 97.4024 225.196 112.598C225.196 127.794 222.217 142.541 216.343 156.43C210.671 169.839 202.554 181.88 192.217 192.217C181.88 202.554 169.839 210.671 156.43 216.343C142.541 222.217 127.794 225.196 112.598 225.196ZM112.598 19.2016C99.9844 19.2016 87.7543 21.6694 76.2475 26.5362C65.1273 31.2396 55.1379 37.9755 46.5567 46.5567C37.9755 55.1379 31.2396 65.1274 26.5362 76.2475C21.6692 87.7543 19.2016 99.9844 19.2016 112.598C19.2016 125.212 21.6694 137.442 26.5362 148.949C31.2396 160.069 37.9755 170.058 46.5567 178.639C55.1379 187.221 65.1273 193.956 76.2475 198.66C87.7543 203.527 99.9844 205.995 112.598 205.995C125.212 205.995 137.442 203.527 148.949 198.66C160.069 193.956 170.058 187.221 178.639 178.639C187.221 170.058 193.956 160.069 198.66 148.949C203.527 137.442 205.995 125.212 205.995 112.598C205.995 99.9844 203.527 87.7543 198.66 76.2475C193.956 65.1274 187.221 55.1379 178.639 46.5567C170.058 37.9755 160.069 31.2396 148.949 26.5362C137.442 21.6692 125.212 19.2016 112.598 19.2016Z" fill="#C63C3C"/>
<path d="M112.598 122.79C118.229 122.79 122.794 118.225 122.794 112.594C122.794 106.963 118.229 102.398 112.598 102.398C106.967 102.398 102.402 106.963 102.402 112.594C102.402 118.225 106.967 122.79 112.598 122.79Z" fill="#C63C3C"/>
<path d="M114.458 49.4375H110.737C110.052 49.4375 109.497 48.8822 109.497 48.1972V30.9669C109.497 30.2819 110.052 29.7266 110.737 29.7266H114.458C115.143 29.7266 115.699 30.2819 115.699 30.9669V48.1972C115.699 48.8822 115.143 49.4375 114.458 49.4375Z" fill="#A3AEB7"/>
<path d="M54.8284 78.7179L54.3741 79.5049C54.1589 79.8774 53.6824 80.0051 53.3099 79.79L44.1856 74.5221C43.813 74.307 43.6853 73.8305 43.9004 73.4579L44.3547 72.6709C44.5698 72.2983 45.0463 72.1706 45.4189 72.3857L54.5432 77.6537C54.9158 77.8688 55.0435 78.3453 54.8284 78.7179Z" fill="#A3AEB7"/>
<path d="M79.5068 54.3672L78.7198 54.8215C78.3472 55.0367 77.8707 54.9089 77.6556 54.5364L72.3877 45.4121C72.1726 45.0395 72.3003 44.563 72.6729 44.3479L73.4599 43.8935C73.8324 43.6784 74.3089 43.8062 74.524 44.1787L79.792 53.303C80.0071 53.6756 79.8794 54.1521 79.5068 54.3672Z" fill="#A3AEB7"/>
<path d="M49.4366 110.74V114.461C49.4366 115.146 48.8812 115.702 48.1962 115.702H30.9659C30.2809 115.702 29.7256 115.146 29.7256 114.461V110.74C29.7256 110.055 30.2809 109.5 30.9659 109.5H48.1962C48.8813 109.5 49.4366 110.055 49.4366 110.74Z" fill="#A3AEB7"/>
<path d="M78.7198 170.37L79.5068 170.825C79.8794 171.04 80.0071 171.516 79.792 171.889L74.524 181.013C74.3089 181.386 73.8324 181.513 73.4599 181.298L72.6729 180.844C72.3003 180.629 72.1726 180.152 72.3877 179.779L77.6556 170.655C77.8707 170.283 78.3471 170.155 78.7198 170.37Z" fill="#A3AEB7"/>
<path d="M54.3741 145.687L54.8284 146.474C55.0435 146.846 54.9158 147.323 54.5432 147.538L45.4189 152.806C45.0463 153.021 44.5698 152.893 44.3547 152.52L43.9004 151.733C43.6853 151.361 43.813 150.884 44.1856 150.669L53.3099 145.401C53.6824 145.186 54.1589 145.314 54.3741 145.687Z" fill="#A3AEB7"/>
<path d="M110.737 175.758H114.458C115.143 175.758 115.699 176.313 115.699 176.998V194.228C115.699 194.913 115.143 195.469 114.458 195.469H110.737C110.052 195.469 109.497 194.913 109.497 194.228V176.998C109.497 176.313 110.052 175.758 110.737 175.758Z" fill="#A3AEB7"/>
<path d="M170.368 146.474L170.823 145.687C171.038 145.314 171.514 145.186 171.887 145.401L181.011 150.669C181.384 150.884 181.511 151.361 181.296 151.733L180.842 152.52C180.627 152.893 180.15 153.021 179.778 152.806L170.653 147.538C170.281 147.323 170.153 146.846 170.368 146.474Z" fill="#A3AEB7"/>
<path d="M145.69 170.825L146.477 170.37C146.85 170.155 147.326 170.283 147.542 170.655L152.81 179.78C153.025 180.152 152.897 180.629 152.524 180.844L151.737 181.298C151.365 181.513 150.888 181.386 150.673 181.013L145.405 171.889C145.19 171.516 145.318 171.04 145.69 170.825Z" fill="#A3AEB7"/>
<path d="M175.76 114.461V110.74C175.76 110.055 176.315 109.5 177 109.5H194.23C194.915 109.5 195.471 110.055 195.471 110.74V114.461C195.471 115.146 194.915 115.702 194.23 115.702H177C176.315 115.701 175.76 115.146 175.76 114.461Z" fill="#A3AEB7"/>
<path d="M146.477 54.8215L145.69 54.3672C145.318 54.1521 145.19 53.6756 145.405 53.303L150.673 44.1787C150.888 43.8062 151.365 43.6784 151.737 43.8935L152.524 44.3479C152.897 44.563 153.025 45.0395 152.81 45.4121L147.542 54.5364C147.326 54.9091 146.85 55.0367 146.477 54.8215Z" fill="#A3AEB7"/>
<path d="M170.823 79.5048L170.368 78.7179C170.153 78.3453 170.281 77.8688 170.653 77.6537L179.777 72.3857C180.15 72.1706 180.627 72.2983 180.842 72.6709L181.296 73.4579C181.511 73.8305 181.384 74.307 181.011 74.5221L171.887 79.79C171.514 80.005 171.038 79.8774 170.823 79.5048Z" fill="#A3AEB7"/>
<path d="M118.69 102.018C116.896 100.983 114.816 100.391 112.597 100.391C110.378 100.391 108.298 100.984 106.505 102.018L109.44 59.3779C109.554 57.7184 110.933 56.4297 112.597 56.4297C114.262 56.4297 115.641 57.7184 115.755 59.3779L118.69 102.018Z" fill="black"/>
<path d="M150.917 132.056C150.32 133.236 148.911 133.753 147.693 133.24L120.608 121.81C122.906 119.811 124.447 116.964 124.749 113.758L149.958 128.758C151.094 129.436 151.514 130.876 150.917 132.056Z" fill="black"/>
</svg>
