<svg width="289" height="269" viewBox="0 0 289 269" fill="none" xmlns="http://www.w3.org/2000/svg">
<path d="M238.416 68.5338C239.123 65.765 239.5 62.8641 239.5 59.875C239.5 40.614 223.886 25 204.625 25C199.613 25 194.85 26.0591 190.543 27.9624C176.843 10.9147 155.823 0 132.25 0C95.4641 0 64.8853 26.5723 58.659 61.5692C57.7366 61.5239 56.8087 61.5 55.875 61.5C25.0162 61.5 0 86.516 0 117.375C0 147.271 23.4788 171.683 53.003 173.177C57.5167 201.28 81.8743 222.75 111.25 222.75C132.44 222.75 151.017 211.577 161.421 194.804C168.838 200.119 177.928 203.25 187.75 203.25C207.523 203.25 224.332 190.565 230.489 172.89C232.502 173.125 234.549 173.25 236.625 173.25C265.551 173.25 289 149.801 289 120.875C289 92.5488 266.512 69.4784 238.416 68.5338Z" fill="#C7DFE5"/>
<path d="M226.762 49.8793C226.762 41.4221 223.608 33.7022 218.414 27.8281C230.816 33.1731 239.499 45.5076 239.499 59.8701C239.499 60.1008 239.521 63.9598 238.415 68.5286C238.415 68.5286 228.151 68.2703 223.821 69.6281C226.203 61.0968 226.762 52.7331 226.762 49.8793Z" fill="#B4CFD6"/>
<path d="M288.999 120.873C288.999 149.8 265.549 173.249 236.625 173.249C234.548 173.249 232.501 173.124 230.489 172.888C224.332 190.564 207.523 203.249 187.75 203.249C177.927 203.249 168.839 200.118 161.42 194.802C151.017 211.576 132.439 222.748 111.25 222.748C81.8741 222.748 57.5156 201.278 53.0016 173.176C24.0528 171.71 0.915568 148.209 0.0273438 119.111C6.05061 140.773 25.4007 156.888 48.6906 158.068C52.9998 184.9 76.2567 205.4 104.305 205.4C124.538 205.4 142.277 194.733 152.21 178.717C159.294 183.791 167.971 186.781 177.349 186.781C196.231 186.781 212.28 174.67 218.159 157.794C220.081 158.017 222.035 158.137 224.018 158.137C251.636 158.137 274.027 135.746 274.027 108.128C274.027 95.2016 269.123 83.4204 261.073 74.5469C277.682 83.3285 288.999 100.779 288.999 120.873Z" fill="#B4CFD6"/>
<path d="M144.501 268.155C180.158 268.155 209.063 264.852 209.063 260.777C209.063 256.702 180.158 253.398 144.501 253.398C108.845 253.398 79.9395 256.702 79.9395 260.777C79.9395 264.852 108.845 268.155 144.501 268.155Z" fill="#E2EBED"/>
</svg>
