<svg width="253" height="356" viewBox="0 0 253 356" fill="none" xmlns="http://www.w3.org/2000/svg">
<path d="M56.7001 234.529C53.6716 232.551 53.0391 221.22 51.834 217.976C67.2184 203.641 77.3808 191.273 77.3808 191.273C87.5654 195.275 102.692 208.072 102.692 208.072C94.4527 216.997 75.812 229.574 67.5679 236.365C63.6775 236.961 59.8267 236.568 56.7001 234.529Z" fill="#97CA46"/>
<path d="M77.3812 191.273C77.3812 191.273 75.7049 193.307 72.7254 196.647C74.3923 196.238 75.9627 196.38 77.2942 197.461C80.5188 200.08 80.3022 205.403 79.6933 209.073C78.8077 214.41 76.9606 219.632 74.0823 224.232C73.7091 224.827 72.9136 224.66 72.6795 224.049C70.4276 218.148 66.7775 212.136 61.2614 208.822C58.4085 211.703 55.2614 214.786 51.8359 217.978C53.041 221.223 53.6736 232.552 56.7021 234.53C59.8286 236.57 63.6795 236.963 67.5699 236.365C75.8156 229.574 94.4546 216.997 102.694 208.072C102.694 208.072 87.5658 195.275 77.3812 191.273Z" fill="#97CA46"/>
<path d="M54.61 202.604L55.6427 201.225C56.9601 200.146 58.5716 201.978 58.9717 202.513L67.3945 219.196C67.4783 219.39 67.578 219.575 67.6618 219.769C70.0292 225.383 69.7224 231.185 67.4673 236.458C64.2711 239.71 55.7297 242.868 50.8382 232.702C45.8978 222.442 48.5436 206.116 48.5436 206.116L54.61 202.604Z" fill="#4AA84D"/>
<path d="M23.7692 217.638C23.0417 217.196 23.3865 216.202 24.0159 215.88C26.9037 214.399 30.6517 214.273 33.7451 213.116C35.2206 212.565 36.5695 211.832 37.898 211.07C32.2553 212.516 25.7286 212.412 21.0997 209.471C20.2584 208.931 20.6933 207.844 21.3765 207.461C24.1804 205.919 27.5536 206.24 30.6406 206.322C34.5389 206.423 40.7572 204.36 40.0187 199.78C39.6344 197.405 33.6312 194.33 33.4778 191.932C33.2263 187.957 40.2021 192.27 42.3592 193.649C45.5997 195.719 49.5976 196.394 52.7779 198.558C55.479 200.396 57.7199 203.709 58.808 206.757C60.1475 210.5 59.2208 214.041 57.0842 217.264C53.1685 223.165 39.9143 227.394 34.6576 227.361C33.8289 227.354 33.307 226.559 33.7972 225.829C35.0339 224.033 38.7994 224.153 43.1437 219.81C36.8336 223.241 32.4641 223.943 30.1567 224.103C25.3744 224.431 25.1103 221.084 27.881 220.511C31.89 219.676 33.9079 218.99 36.8937 217.222C37.4346 216.904 37.9644 216.507 38.4958 216.082C37.1341 216.661 35.7598 217.154 34.4646 217.563C31.3001 218.557 25.8425 218.897 23.7692 217.638Z" fill="#F6DFC9"/>
<path d="M58.8109 206.763C58.1926 205.033 57.1963 203.23 55.9659 201.648C56.3881 202.422 56.725 203.246 56.8847 204.154C57.715 208.93 56.5099 213.398 53.6649 217.297C50.6569 221.418 45.3353 223.136 40.98 225.369C39.7686 225.991 38.5319 226.615 37.2715 227.133C43.4234 226.185 53.7139 222.353 57.0856 217.27C59.2237 214.048 60.1504 210.507 58.8109 206.763Z" fill="#F6DFC9"/>
<path d="M44.2278 202.847C44.9458 207.578 47.3021 213.571 51.4519 216.376C51.6385 216.502 52.1272 217.312 51.5831 217.1C49.5146 216.286 48.0944 213.864 46.9542 212.087C45.1055 209.204 44.0301 205.968 43.8403 202.592C43.8245 202.361 44.2072 202.715 44.2278 202.847Z" fill="#F6DFC9"/>
<path d="M40.1434 193.932C38.7185 201.343 31.5482 206.2 24.1185 204.78C16.6936 203.359 11.829 196.195 13.2507 188.786C14.6756 181.37 21.8507 176.513 29.2757 177.935C36.7053 179.355 41.5683 186.517 40.1434 193.932Z" fill="#00996F"/>
<path d="M35.6797 192.029C34.5237 198.045 28.7008 201.985 22.6707 200.83C16.6453 199.678 12.6933 193.865 13.8493 187.849C15.0053 181.832 20.8314 177.89 26.8568 179.044C32.8853 180.198 36.8342 186.012 35.6797 192.029Z" fill="#00BD7E"/>
<path d="M25.9642 183.689C25.6384 185.388 23.9937 186.502 22.2857 186.177C20.5825 185.85 19.4659 184.205 19.7933 182.507C20.1207 180.807 21.7654 179.692 23.4702 180.017C25.1766 180.346 26.2899 181.987 25.9642 183.689Z" fill="white"/>
<path d="M17.7312 188.593C17.6252 189.152 17.0844 189.518 16.5214 189.409C15.9647 189.302 15.5978 188.763 15.7038 188.206C15.8113 187.644 16.3522 187.28 16.9104 187.385C17.4718 187.494 17.8387 188.034 17.7312 188.593Z" fill="white"/>
<path d="M194.652 234.529C197.679 232.551 198.313 221.22 199.518 217.976C184.134 203.641 173.971 191.273 173.971 191.273C163.788 195.275 148.66 208.072 148.66 208.072C156.9 216.997 175.54 229.574 183.786 236.365C187.675 236.961 191.526 236.568 194.652 234.529Z" fill="#97CA46"/>
<path d="M190.343 209.075C183.912 212.881 179.744 220.068 179.136 227.547C179.073 228.33 178.159 228.56 177.708 227.932C173.791 222.507 164.998 213.452 168.67 205.946C170.355 202.495 173.889 200.358 177.526 199.375C178.415 199.135 179.405 198.849 180.416 198.633C176.312 194.118 173.971 191.273 173.971 191.273C163.788 195.275 148.66 208.072 148.66 208.072C156.9 216.997 175.54 229.574 183.786 236.365C187.676 236.963 191.527 236.57 194.654 234.53C197.681 232.552 198.315 221.222 199.52 217.978C196.192 214.879 193.131 211.885 190.343 209.075Z" fill="#97CA46"/>
<path d="M196.741 202.604L195.71 201.225C194.392 200.146 192.781 201.978 192.379 202.513L183.956 219.196C183.873 219.39 183.773 219.575 183.688 219.769C181.32 225.383 181.629 231.185 183.882 236.458C187.078 239.71 195.62 242.868 200.511 232.702C205.452 222.442 202.806 206.116 202.806 206.116L196.741 202.604Z" fill="#4AA84D"/>
<path d="M227.583 217.638C228.311 217.196 227.966 216.202 227.336 215.88C224.449 214.399 220.701 214.273 217.607 213.116C216.132 212.565 214.783 211.832 213.454 211.07C219.097 212.516 225.625 212.412 230.253 209.471C231.094 208.931 230.659 207.844 229.976 207.461C227.173 205.919 223.799 206.24 220.712 206.322C216.813 206.423 210.595 204.36 211.334 199.78C211.718 197.405 217.721 194.33 217.874 191.932C218.126 187.957 211.15 192.27 208.993 193.649C205.753 195.719 201.755 196.394 198.574 198.558C195.873 200.396 193.632 203.709 192.544 206.757C191.205 210.5 192.132 214.041 194.268 217.264C198.185 223.165 211.438 227.394 216.695 227.361C217.523 227.354 218.047 226.559 217.555 225.829C216.318 224.033 212.553 224.153 208.209 219.81C214.519 223.241 218.888 223.943 221.196 224.103C225.976 224.431 226.24 221.084 223.471 220.511C219.462 219.676 217.444 218.99 214.459 217.222C213.918 216.904 213.388 216.507 212.857 216.082C214.218 216.661 215.594 217.154 216.888 217.563C220.052 218.557 225.51 218.897 227.583 217.638Z" fill="#F6DFC9"/>
<path d="M194.236 211.6C193.53 206.586 195.398 201.855 199.791 199.134C202.575 197.412 205.426 195.898 208.164 194.125C205.086 195.83 201.488 196.576 198.57 198.562C195.869 200.4 193.628 203.713 192.54 206.761C191.201 210.504 192.128 214.045 194.264 217.268C196.905 221.246 203.786 224.458 209.601 226.124C202.451 223.538 195.24 218.755 194.236 211.6Z" fill="#F6DFC9"/>
<path d="M207.124 202.847C206.406 207.578 204.051 213.571 199.9 216.376C199.713 216.502 199.224 217.312 199.77 217.1C201.838 216.286 203.259 213.864 204.399 212.087C206.248 209.204 207.323 205.968 207.513 202.592C207.527 202.361 207.144 202.715 207.124 202.847Z" fill="#F6DFC9"/>
<path d="M96.5209 268.584C96.5209 268.584 84.1823 269.022 79.0742 272.082C79.0742 272.082 88.1281 285.487 118.783 288.985C149.438 292.481 167.785 287.891 167.785 287.891C167.785 287.891 133.087 262.898 96.5209 268.584Z" fill="#5C0000"/>
<path d="M181.694 345.194C181.427 323.14 161.189 279.585 161.189 279.585C161.189 279.585 119.143 260.98 90.4217 265.864C90.4217 265.864 67.4321 325.715 64.6187 348.001C62.3524 365.944 70.8844 408.551 72.5101 426.167C72.8296 427.01 73.187 427.837 73.6282 428.614C76.1918 433.151 83.3273 436.102 88.2156 436.309C94.0575 436.557 100.224 434.016 102.604 428.383C103.839 425.46 104.174 421.804 103.999 418.658C103.695 413.215 103.717 407.742 103.625 402.29C103.431 390.478 103.393 378.575 104.225 366.782C104.52 362.599 104.718 358.149 106.018 354.125C110.35 340.722 123.431 308.037 123.431 308.037C123.431 308.037 148.689 342.012 148.907 357.443C149.073 369.245 149.348 385.035 149.521 394.607C149.722 405.856 161.704 408.355 170.423 405.419C177.984 401.556 178.673 393.733 179.33 386.252C180.094 377.519 180.886 368.817 181.349 360.059C181.609 355.11 181.754 350.151 181.694 345.194Z" fill="#008EFF"/>
<path d="M181.694 345.194C181.427 323.14 161.189 279.585 161.189 279.585C161.189 279.585 119.143 260.98 90.4217 265.864C90.4217 265.864 67.4321 325.715 64.6187 348.001C62.3524 365.944 70.8844 408.551 72.5101 426.167C72.8296 427.01 73.187 427.837 73.6282 428.614C76.1918 433.151 83.3273 436.102 88.2156 436.309C94.0575 436.557 100.224 434.016 102.604 428.383C103.839 425.46 104.174 421.804 103.999 418.658C103.695 413.215 103.717 407.742 103.625 402.29C103.431 390.478 103.393 378.575 104.225 366.782C104.52 362.599 104.718 358.149 106.018 354.125C110.35 340.722 123.431 308.037 123.431 308.037C123.431 308.037 148.689 342.012 148.907 357.443C149.073 369.245 149.348 385.035 149.521 394.607C149.722 405.856 161.704 408.355 170.423 405.419C177.984 401.556 178.673 393.733 179.33 386.252C180.094 377.519 180.886 368.817 181.349 360.059C181.609 355.11 181.754 350.151 181.694 345.194Z" fill="#008EFF"/>
<path d="M89.3275 285.381C95.2501 282.322 101.494 281.348 108.074 280.777C115.739 280.11 123.517 279.983 131.143 281.173C145.574 283.425 159.767 290.027 169.914 300.373C165.345 288.538 161.187 279.585 161.187 279.585C161.187 279.585 119.141 260.98 90.4203 265.864C90.4203 265.864 86.0982 277.116 80.9727 291.678C83.4603 289.187 86.2294 286.982 89.3275 285.381Z" fill="#008EFF"/>
<path d="M167.666 400.481C159.131 404.642 154.007 397.595 152.851 389.851C151.382 379.999 155.372 370.018 152.976 360.231C152.756 359.334 153.869 358.981 154.379 359.642C155.233 360.75 156.161 361.78 157.113 362.785C151.891 342.652 144.547 323.216 130.418 307.489C130.132 307.17 130.121 306.723 130.418 306.407C133.244 303.384 136.87 301.432 140.21 299.078C129.381 301.689 118.63 304.322 107.42 303.976C110.52 306.579 114.758 308.294 118.688 308.48C119.217 308.505 119.715 309.132 119.351 309.631C110.324 322.016 103.93 336.982 99.7124 351.645C95.2543 367.139 94.1204 382.814 93.1225 398.82C92.7239 405.223 93.551 412.004 91.8621 418.268C91.2089 420.683 89.6433 426.175 86.172 426.009C82.1045 425.818 79.3496 421.084 77.3632 416.723C78.0844 420.555 78.989 424.352 79.5441 428.216C79.65 428.961 78.8735 429.507 78.2631 428.961C74.3474 425.474 72.7596 419.925 71.3932 415.049C71.2398 414.505 71.0754 413.966 70.9141 413.43C71.621 418.372 72.1982 422.745 72.5145 426.165C72.834 427.008 73.1914 427.835 73.6326 428.612C76.1961 433.149 83.3317 436.101 88.22 436.308C94.0619 436.555 100.228 434.014 102.608 428.382C103.843 425.458 104.178 421.802 104.003 418.656C103.699 413.213 103.721 407.741 103.63 402.288C103.435 390.476 103.397 378.574 104.229 366.78C104.525 362.597 104.722 358.147 106.022 354.124C110.354 340.72 123.436 308.035 123.436 308.035C123.436 308.035 148.693 342.01 148.912 357.442C149.078 369.243 149.353 385.033 149.525 394.605C149.726 405.854 161.709 408.353 170.427 405.417C177.756 401.673 178.627 394.208 179.272 386.942C176.78 392.514 173.296 397.739 167.666 400.481Z" fill="#008EFF"/>
<path d="M83.9022 356.199C83.7077 346.569 76.1341 336.554 66.4334 338.513C65.5905 342.101 64.9595 345.322 64.6211 347.999C63.7734 354.704 64.4345 364.854 65.6822 375.857C68.7518 375.303 71.9717 373.727 73.8078 372.466C79.0693 368.85 84.0366 362.943 83.9022 356.199Z" fill="#97CA46"/>
<path d="M156.25 349.338C157.46 361.277 170.181 365.49 181.11 363.906C181.191 362.626 181.279 361.344 181.347 360.059C181.608 355.111 181.755 350.153 181.695 345.194C181.642 340.748 180.765 335.415 179.416 329.75C167.989 328.386 154.953 336.553 156.25 349.338Z" fill="#97CA46"/>
<path d="M161.324 209.567C159.776 200.743 157.399 192.23 153.455 184.585C149.141 176.223 141.08 174.782 132.652 172.9C126.97 171.631 120.364 173.566 114.719 174.697C113.144 175.712 111.749 176.75 110.627 177.795C110.627 177.795 102.644 180.662 98.6748 196.231C95.3759 209.188 86.7316 255.574 79.0742 272.077C80.624 271.384 150.439 282.909 156.099 284.914C159.827 286.235 164.546 286.821 167.786 287.886C166.964 287.615 167.016 272.163 166.899 270.38C166.497 264.207 166.002 258.041 165.422 251.883C164.158 238.516 163.796 223.649 161.324 209.567Z" fill="#E30613"/>
<path d="M166.899 270.379C166.497 264.205 166.002 258.039 165.422 251.881C164.158 238.516 163.796 223.649 161.324 209.567C159.776 200.743 157.399 192.23 153.455 184.585C149.141 176.223 141.08 174.782 132.653 172.9C126.97 171.631 120.365 173.566 114.719 174.697C113.144 175.712 111.749 176.75 110.628 177.795C110.628 177.795 107.267 179.025 103.824 184.125C107.12 181.222 110.568 178.585 115.01 177.161C115.639 176.959 116.28 177.614 116.087 178.236C111.902 191.715 131.394 187.148 138.154 184.245C138.615 184.046 139.062 184.125 139.353 184.558C148.559 198.222 150.367 215.857 151.88 231.846C153.514 249.094 156.694 267.04 153.745 284.3C154.861 284.554 155.668 284.763 156.098 284.914C159.825 286.235 164.544 286.821 167.785 287.886C166.964 287.613 167.016 272.161 166.899 270.379Z" fill="#E30613"/>
<path d="M148.73 284.656C148.73 284.656 148.706 284.707 148.66 284.775C148.959 284.828 148.992 284.784 148.73 284.656Z" fill="#B2E2F9"/>
<path d="M249.206 167.175C249.206 174.72 243.077 180.839 235.513 180.839C227.952 180.839 221.824 174.72 221.824 167.175C221.824 159.626 227.952 153.508 235.513 153.508C243.077 153.508 249.206 159.626 249.206 167.175Z" fill="#A8004B"/>
<path d="M244.46 166.142C244.46 172.269 239.485 177.233 233.347 177.233C227.21 177.233 222.234 172.267 222.234 166.142C222.234 160.015 227.21 155.047 233.347 155.047C239.485 155.047 244.46 160.015 244.46 166.142Z" fill="#E2004B"/>
<path d="M233.348 159.783C233.348 161.517 231.942 162.918 230.204 162.918C228.469 162.918 227.064 161.515 227.064 159.783C227.064 158.052 228.47 156.648 230.204 156.648C231.942 156.647 233.348 158.052 233.348 159.783Z" fill="white"/>
<path d="M226.185 166.142C226.185 166.708 225.723 167.168 225.153 167.168C224.583 167.168 224.123 166.708 224.123 166.142C224.123 165.57 224.585 165.109 225.153 165.109C225.723 165.109 226.185 165.57 226.185 166.142Z" fill="white"/>
<path d="M30.8659 88.4108C30.8659 95.8726 24.8074 101.923 17.3302 101.923C9.85469 101.923 3.79297 95.8726 3.79297 88.4108C3.79297 80.9459 9.85469 74.8984 17.3302 74.8984C24.809 74.8969 30.8659 80.9459 30.8659 88.4108Z" fill="#244EA2"/>
<path d="M26.1771 87.3912C26.1771 93.4465 21.2572 98.3574 15.1876 98.3574C9.12267 98.3574 4.20117 93.4465 4.20117 87.3912C4.20117 81.3312 9.12267 76.4219 15.1876 76.4219C21.2572 76.4219 26.1771 81.3327 26.1771 87.3912Z" fill="#5D8DFF"/>
<path d="M15.1869 81.105C15.1869 82.813 13.7968 84.2037 12.081 84.2037C10.3651 84.2037 8.97656 82.813 8.97656 81.105C8.97656 79.3891 10.3651 78 12.081 78C13.7968 78 15.1869 79.3891 15.1869 81.105Z" fill="white"/>
<path d="M8.10686 87.3947C8.10686 87.9567 7.64982 88.4113 7.08524 88.4113C6.5254 88.4113 6.06836 87.9567 6.06836 87.3947C6.06836 86.8328 6.5254 86.375 7.08524 86.375C7.64982 86.375 8.10686 86.8328 8.10686 87.3947Z" fill="white"/>
<path d="M214.517 17.2021C216.551 24.4697 212.297 32.0088 205.016 34.0389C197.733 36.0673 190.179 31.8194 188.147 24.5502C186.113 17.2778 190.369 9.74027 197.653 7.70868C204.935 5.68182 212.485 9.93127 214.517 17.2021Z" fill="#00AB4E"/>
<path d="M209.676 17.4805C211.325 23.3795 207.868 29.498 201.956 31.146C196.047 32.7908 189.915 29.3449 188.266 23.4458C186.615 17.5452 190.072 11.4252 195.98 9.77876C201.892 8.13075 208.024 11.5799 209.676 17.4805Z" fill="#7BC143"/>
<path d="M197.255 14.3331C197.72 16.0001 196.744 17.7302 195.074 18.1943C193.402 18.6615 191.67 17.686 191.204 16.019C190.739 14.3473 191.713 12.6204 193.383 12.1547C195.055 11.6906 196.788 12.6646 197.255 14.3331Z" fill="white"/>
<path d="M192.071 22.3877C192.225 22.9339 191.902 23.5022 191.352 23.6569C190.804 23.8084 190.237 23.488 190.083 22.9434C189.93 22.3924 190.251 21.8242 190.798 21.671C191.347 21.5179 191.916 21.8384 192.071 22.3877Z" fill="white"/>
<path d="M176.933 192.116C171.13 186.686 165.099 182.122 157.874 178.267C150.009 174.071 141.371 171.767 132.464 171.247C127.148 170.941 121.809 171.123 116.52 171.743C109.81 172.88 103.247 174.868 97.0367 177.737C88.6281 181.622 80.5247 186.292 74.2637 193.15C74.8694 193.601 76.1614 194.125 76.4935 194.307C78.3296 195.303 79.4825 197.374 80.493 199.11C83.3381 203.999 84.7851 208.542 91.3719 207.742C94.7356 207.334 97.6993 205.413 101.047 204.905C104.863 204.327 108.044 210.143 110.843 212.185C115.851 215.841 122.207 213.98 127.209 211.51C128.704 210.769 130.133 209.876 131.527 208.962C134.778 206.826 136.856 207.734 139.834 209.668C142.575 211.447 145.641 212.447 148.908 212.44C150.994 212.433 153.416 211.306 154.994 210.013C158.862 206.842 161.155 202.952 166.943 204.278C168.972 204.741 171.544 205.488 173.505 204.319C176.045 202.806 176.956 200.13 178.977 198.165C179.356 197.874 179.725 197.563 180.12 197.33C180.255 197.251 180.394 197.165 180.525 197.071C179.426 195.338 178.221 193.69 176.933 192.116Z" fill="#FFEC02"/>
<path opacity="0.7" d="M149.868 182.223C155.082 185.011 160.135 188.068 165.219 191.077C167.678 192.534 170.169 193.942 172.589 195.464C174.268 196.523 176.138 198.144 178.002 199.267C178.304 198.886 178.62 198.51 178.978 198.165C179.357 197.874 179.726 197.563 180.121 197.33C180.256 197.251 180.395 197.165 180.526 197.071C179.429 195.338 178.224 193.69 176.935 192.116C171.131 186.686 165.101 182.122 157.875 178.267C150.01 174.071 141.372 171.767 132.466 171.247C127.149 170.941 121.81 171.123 116.521 171.743C109.811 172.88 103.248 174.868 97.0378 177.737C91.7131 180.199 86.5148 182.977 81.8242 186.425C85.4426 184.253 106.145 176.248 114.913 175.891C115.486 175.869 102.685 186.798 96.8243 192.146C92.3646 196.215 88.0599 200.438 83.8801 204.787C85.509 206.899 87.595 208.201 91.3715 207.742C91.4126 207.737 91.4537 207.726 91.4964 207.721C99.6204 199.177 107.89 190.768 117.518 183.879C118.044 183.502 112.701 197.148 110.151 203.552C109.397 205.447 108.644 207.342 107.879 209.23C108.916 210.384 109.901 211.497 110.842 212.185C114.581 214.915 119.071 214.567 123.186 213.191C125.08 203.92 126.878 194.626 129.82 185.614C130.046 184.922 134.692 205.32 135.07 207.751C136.628 207.762 138.075 208.523 139.834 209.668C142.574 211.447 145.641 212.447 148.908 212.44C150.994 212.433 153.415 211.306 154.994 210.013C155.987 209.199 156.874 208.338 157.745 207.532C151.546 201.109 146.452 193.754 141.146 186.586C140.635 185.895 160.015 201.491 162.877 204.248C164.043 203.95 165.357 203.915 166.941 204.278C168.034 204.529 169.285 204.85 170.514 204.921C163.44 197.639 149.099 181.811 149.868 182.223Z" fill="#F98B13"/>
<path d="M115.416 162.973L117.924 181.443C117.924 181.443 125.975 185.399 136.302 179.191L136.601 159.516L115.416 162.973Z" fill="#F6DFC9"/>
<path d="M115.416 162.973L117.924 181.443C117.924 181.443 125.975 185.399 136.302 179.191L136.601 159.516L115.416 162.973Z" fill="#F6DFC9"/>
<path d="M82.4819 92.1369C79.7602 97.5498 77.7628 107.804 77.8609 116.855C77.9542 125.908 74.4829 133.59 74.4829 133.59C71.6837 141.479 74.7549 171.868 123.856 172.094C159.007 170.447 174.627 158.164 175.274 133.893C175.274 133.893 174.673 108.298 172.162 92.2822C161.852 63.3868 92.3012 62.6228 82.4819 92.1369Z" fill="#F4D9BF"/>
<path d="M82.4819 92.1369C79.7602 97.5498 77.7628 107.804 77.8609 116.855C77.9542 125.908 74.4829 133.59 74.4829 133.59C71.6837 141.479 74.7549 171.868 123.856 172.094C159.007 170.447 174.627 158.164 175.274 133.893C175.274 133.893 174.673 108.298 172.162 92.2822C161.852 63.3868 92.3012 62.6228 82.4819 92.1369Z" fill="#F4D9BF"/>
<path d="M82.3646 114.876C82.382 114.448 82.6999 114.128 83.1316 114.112C88.6335 113.901 91.5292 107.021 91.186 102.245C91.1433 101.646 91.8629 101.316 92.3389 101.583C99.9394 105.829 109.991 98.6344 113.725 92.0961C113.897 91.7946 114.259 91.6604 114.59 91.7441C119.301 92.9517 123.546 90.7006 127.076 87.7298C127.46 87.4078 128.001 87.4425 128.281 87.8861C130.669 91.6809 135.516 91.6588 139.507 91.3336C139.855 91.3052 140.146 91.5909 140.248 91.894C143.059 100.454 151.617 103.155 159.821 101.122C160.319 100.999 160.773 101.357 160.792 101.861C161.044 108.368 162.981 113.542 169.625 115.669C170.028 115.798 170.27 116.194 170.161 116.611C168.573 122.72 170.544 128.931 175.245 132.83C175.101 127.858 174.371 106.369 172.161 92.2808C161.852 63.387 92.3009 62.623 82.4817 92.1371C79.76 97.55 77.7626 107.804 77.8606 116.856C77.954 125.909 74.4827 133.59 74.4827 133.59C74.217 134.341 74.0035 135.301 73.877 136.417C79.4832 131.067 82.0468 122.365 82.3646 114.876Z" fill="#F4D9BF"/>
<path d="M125.829 167.907C105.859 168.1 84.4775 161.294 74.2344 143.547C76.499 155.397 87.6799 171.931 123.856 172.096C148.15 170.958 163.1 164.728 170.237 152.979C159.439 164.322 140.936 167.763 125.829 167.907Z" fill="#F4D9BF"/>
<path d="M161.159 119.549C161.969 118.678 162.786 117.706 163.544 116.664C164.458 114.836 165.068 112.897 165.192 110.855C165.509 105.57 163.911 99.6787 159.952 95.9343C154.768 91.0361 146.91 89.9232 140.235 92.209C139.311 92.5263 138.373 92.8972 137.453 93.325C133.893 95.1372 130.893 97.636 129.375 101.543C128.427 103.98 128.111 106.948 128.391 109.543C128.62 111.682 129.128 114.061 129.965 116.051C130.77 117.966 131.908 120.377 133.341 121.905C137.206 126.031 143.518 128.018 149.073 126.76C153.617 125.731 158.028 122.926 161.159 119.549Z" fill="white"/>
<path d="M117.261 97.1439C109.1 89.5148 97.3983 92.574 90.5079 100.55C83.3075 108.888 85.2796 121.049 95.257 126.347C100.452 129.106 107.028 128.516 112.05 125.539C114.03 124.366 115.61 122.83 117.068 121.161C119.028 117.96 121.517 114.945 122.43 111.382C123.88 105.725 121.37 100.986 117.261 97.1439Z" fill="white"/>
<path d="M71.9455 116.45L71.7305 115.906C71.9898 115.797 72.2429 115.707 72.5054 115.633L72.6872 116.188C72.5528 116.237 72.4152 116.286 72.2713 116.335L71.9455 116.45Z" fill="#5BB354"/>
<path d="M72.5855 115.918C72.353 116.004 72.1032 116.083 71.8454 116.176C65.2365 119.084 65.8896 135.654 74.4833 133.594C74.4833 133.594 77.7838 126.273 77.8502 117.485C76.5218 115.597 74.2018 115.296 72.5855 115.918Z" fill="#F4D9BF"/>
<path d="M72.5855 115.918C72.353 116.004 72.1032 116.083 71.8454 116.176C65.2365 119.084 65.8896 135.654 74.4833 133.594C74.4833 133.594 77.7838 126.273 77.8502 117.485C76.5218 115.597 74.2018 115.296 72.5855 115.918Z" fill="#F6DFC9"/>
<path d="M183.493 119.316C180.692 114.599 176.817 115.998 174.561 117.423C174.927 123.632 175.122 128.942 175.207 131.75C181.631 135.13 186.377 125.966 183.493 119.316Z" fill="#F4D9BF"/>
<path d="M183.493 119.316C180.692 114.599 176.817 115.998 174.561 117.423C174.927 123.632 175.122 128.942 175.207 131.75C181.631 135.13 186.377 125.966 183.493 119.316Z" fill="#F6DFC9"/>
<path d="M122.289 129.408C122.289 129.408 122.063 129.301 121.658 129.14C121.261 128.98 120.658 128.783 119.967 128.677C119.611 128.634 119.236 128.611 118.881 128.674C118.509 128.732 118.19 128.911 117.93 129.165C117.65 129.41 117.506 129.801 117.351 130.199C117.342 130.23 117.309 130.338 117.313 130.319L117.275 130.497L117.212 130.859C117.165 131.106 117.206 131.269 117.196 131.474C117.206 131.678 117.237 131.896 117.277 132.103C117.348 132.303 117.383 132.522 117.495 132.707C117.682 133.099 117.897 133.468 118.194 133.781C118.756 134.425 119.44 134.89 120.084 135.178C120.408 135.309 120.712 135.414 120.993 135.471C121.277 135.519 121.539 135.553 121.734 135.507C122.165 135.482 122.382 135.316 122.387 135.343C122.387 135.343 122.338 135.376 122.249 135.443C122.15 135.52 122.004 135.642 121.795 135.694C121.572 135.793 121.294 135.834 120.973 135.855C120.65 135.869 120.28 135.836 119.896 135.74C119.507 135.64 119.097 135.489 118.702 135.263C118.302 135.039 117.889 134.777 117.533 134.401C117.347 134.234 117.179 134.035 117.026 133.823C116.847 133.615 116.719 133.38 116.605 133.127C116.466 132.898 116.398 132.617 116.304 132.36C116.238 132.088 116.186 131.803 116.162 131.523C116.178 131.238 116.162 130.893 116.225 130.66L116.3 130.295L116.338 130.125C116.371 129.97 116.385 129.96 116.425 129.889C116.529 129.632 116.605 129.37 116.784 129.13L117.024 128.795C117.117 128.691 117.225 128.601 117.326 128.499C117.748 128.126 118.311 127.934 118.794 127.923C119.289 127.882 119.719 127.997 120.095 128.107C120.853 128.355 121.376 128.721 121.746 128.963C122.108 129.226 122.289 129.408 122.289 129.408Z" fill="#C39368"/>
<path d="M119.635 120.68C119.635 120.68 120.033 121.035 120.402 121.703C120.596 122.029 120.77 122.446 120.908 122.904C121.047 123.371 121.123 123.878 121.158 124.407C121.172 124.921 121.145 125.452 121.007 125.93C120.962 126.168 120.873 126.389 120.783 126.59C120.712 126.812 120.612 126.995 120.503 127.163C120.119 127.84 119.668 128.132 119.687 128.149C119.687 128.149 119.708 128.017 119.758 127.807C119.821 127.592 119.888 127.295 119.949 126.951C120.013 126.598 120.078 126.2 120.116 125.78C120.139 125.564 120.136 125.347 120.139 125.117C120.163 124.893 120.146 124.673 120.13 124.437C120.119 123.529 119.965 122.621 119.85 121.895C119.722 121.166 119.635 120.68 119.635 120.68Z" fill="#C39368"/>
<path d="M109.462 114.194C109.341 117.274 107.914 119.577 106.279 119.35C104.64 119.103 103.431 116.428 103.56 113.353C103.673 110.273 105.112 107.972 106.741 108.204C108.381 108.442 109.601 111.129 109.462 114.194Z" fill="#673121"/>
<path d="M106.683 111.376C106.555 112.285 106.041 112.948 105.557 112.852C105.051 112.732 104.765 111.924 104.888 111.01C105.026 110.083 105.533 109.434 106.034 109.543C106.515 109.646 106.801 110.467 106.683 111.376Z" fill="white"/>
<path d="M150.356 114.194C150.234 117.274 148.806 119.577 147.173 119.35C145.533 119.103 144.321 116.428 144.451 113.353C144.565 110.273 146.004 107.972 147.633 108.204C149.274 108.442 150.495 111.129 150.356 114.194Z" fill="#673121"/>
<path d="M147.576 111.376C147.45 112.285 146.936 112.948 146.45 112.852C145.944 112.732 145.658 111.924 145.78 111.01C145.917 110.083 146.427 109.434 146.926 109.543C147.409 109.646 147.697 110.467 147.576 111.376Z" fill="white"/>
<path d="M100.734 104.34C100.734 104.34 102.789 99.8506 105.403 100.149C108.009 100.446 110.936 105.98 110.936 105.98C110.936 105.98 110.451 98.8135 106.028 98.0068C101.612 97.2144 100.734 104.34 100.734 104.34Z" fill="#5D1A00"/>
<path d="M141.262 104.402C141.262 104.402 145.103 96.8845 147.73 96.7298C150.347 96.5656 153.561 104.155 153.561 104.155C153.561 104.155 152.547 95.1481 147.546 95.0171C142.541 94.8813 141.262 104.402 141.262 104.402Z" fill="#5D1A00"/>
<path d="M182.113 124.323C182.113 124.323 182.1 124.195 182.02 123.992C181.955 123.778 181.822 123.486 181.569 123.171C181.449 123 181.295 122.857 181.098 122.7C180.891 122.561 180.641 122.415 180.337 122.381C180.054 122.34 179.7 122.347 179.428 122.486C179.113 122.59 178.914 122.793 178.661 122.972C178.474 123.174 178.31 123.392 178.144 123.6C178.016 123.812 177.906 124.045 177.791 124.262C177.677 124.468 177.63 124.694 177.56 124.888C177.49 125.098 177.422 125.299 177.386 125.482C177.242 126.216 177.25 126.724 177.25 126.724C177.25 126.724 177.577 126.325 177.936 125.709C178.137 125.409 178.356 125.06 178.583 124.694C178.707 124.528 178.843 124.353 178.966 124.178C179.092 124.022 179.235 123.851 179.372 123.714C179.521 123.603 179.66 123.441 179.804 123.401C179.951 123.31 180.089 123.288 180.244 123.275C180.4 123.278 180.552 123.313 180.717 123.365C180.875 123.439 181.028 123.502 181.172 123.595C181.734 123.963 182.113 124.323 182.113 124.323Z" fill="#C39368"/>
<path d="M180.917 127.611C180.917 127.611 180.951 127.288 180.797 126.884C180.716 126.672 180.602 126.445 180.423 126.227C180.26 125.997 180.012 125.801 179.754 125.638C179.459 125.501 179.16 125.379 178.851 125.379C178.707 125.365 178.554 125.387 178.42 125.419C178.282 125.438 178.163 125.482 178.065 125.533C177.638 125.724 177.487 126.03 177.471 125.998C177.471 126.017 177.793 126.046 178.146 126.113C178.51 126.189 178.883 126.327 179.247 126.535C179.61 126.74 179.995 127.01 180.319 127.236C180.646 127.452 180.917 127.611 180.917 127.611Z" fill="#C39368"/>
<path d="M70.1777 123.35C70.1777 123.35 70.1983 123.226 70.29 123.028C70.3691 122.821 70.5225 122.538 70.7945 122.24C70.9242 122.08 71.0871 121.945 71.2958 121.801C71.5109 121.676 71.7703 121.545 72.0723 121.531C72.3586 121.506 72.7144 121.539 72.9753 121.695C73.2806 121.818 73.4672 122.035 73.7076 122.23C73.8799 122.445 74.0317 122.669 74.1804 122.893C74.299 123.11 74.3923 123.351 74.4888 123.575C74.59 123.787 74.6248 124.016 74.6801 124.219C74.7339 124.432 74.7908 124.634 74.8161 124.818C74.9126 125.563 74.8699 126.068 74.8699 126.068C74.8699 126.068 74.5726 125.646 74.2547 125.009C74.0697 124.698 73.8768 124.335 73.6728 123.956C73.5605 123.784 73.4371 123.597 73.3233 123.414C73.2062 123.252 73.075 123.073 72.9469 122.927C72.8061 122.807 72.6764 122.636 72.5373 122.589C72.3965 122.486 72.2605 122.455 72.1071 122.432C71.9506 122.428 71.7956 122.448 71.6264 122.492C71.4666 122.552 71.3085 122.606 71.1582 122.694C70.5778 123.02 70.1777 123.35 70.1777 123.35Z" fill="#C39368"/>
<path d="M71.1564 126.71C71.1564 126.71 71.1438 126.388 71.3241 125.995C71.4174 125.788 71.5455 125.567 71.7384 125.365C71.9155 125.143 72.1749 124.964 72.4453 124.814C72.7474 124.701 73.0558 124.598 73.3626 124.62C73.5065 124.614 73.6583 124.644 73.788 124.69C73.9256 124.716 74.0394 124.765 74.1359 124.821C74.5503 125.043 74.6799 125.357 74.7005 125.326C74.6973 125.343 74.3747 125.353 74.0157 125.397C73.6472 125.447 73.2677 125.561 72.8913 125.747C72.5149 125.927 72.1148 126.177 71.7716 126.379C71.4364 126.57 71.1564 126.71 71.1564 126.71Z" fill="#C39368"/>
<path d="M98.6747 129.358C98.6937 130.82 95.8661 132.054 92.3505 132.128C88.8333 132.176 85.9614 131.039 85.9298 129.577C85.9124 128.123 88.7384 126.892 92.2588 126.831C95.7791 126.768 98.6494 127.898 98.6747 129.358Z" fill="#F9CBC0"/>
<path d="M161.853 129.356C161.873 130.815 159.042 132.045 155.53 132.119C152.005 132.179 149.138 131.028 149.108 129.573C149.085 128.109 151.916 126.891 155.433 126.831C158.951 126.768 161.826 127.899 161.853 129.356Z" fill="#F9CBC0"/>
<path d="M109.523 125.589C112.267 120.241 118.457 116.369 124.281 116.145C133.643 115.782 141.424 120.394 140.937 128.765C140.45 137.138 132.668 140.049 123.674 140.172C118.188 140.246 107.847 138.303 108.076 131.016C108.135 129.105 108.66 127.274 109.523 125.589Z" fill="#FF0000"/>
<path d="M138.304 120.953C141.513 127.319 134.274 139.324 117.527 135.465C111.433 134.061 109.283 128.598 109.412 125.836C108.622 127.452 108.135 129.196 108.076 131.015C107.847 138.301 118.188 140.245 123.674 140.17C132.669 140.049 140.45 137.136 140.937 128.764C141.117 125.6 140.12 122.977 138.304 120.953Z" fill="#B30000"/>
<path d="M135.175 120.676C135.081 121.043 134.504 121.047 133.888 120.685C133.271 120.324 132.845 119.736 132.939 119.369C133.035 119.004 133.609 119.002 134.226 119.362C134.844 119.722 135.268 120.311 135.175 120.676Z" fill="white"/>
<path d="M115.264 120.271C115.264 120.271 123.008 116.33 131.086 119.419C133.806 120.598 127.541 113.24 115.264 120.271Z" fill="white"/>
<path d="M203.439 74.6874C202.429 72.3527 199.838 69.7118 196.96 68.2848C200.454 63.355 197.552 54.4299 193.169 51.1654C191.156 49.6674 188.928 48.3209 186.529 47.5553C184.764 36.1913 168.719 26.1281 157.508 31.1968C153.696 28.5527 148.699 26.99 145.322 27.1226C143.15 27.2078 141.027 27.6198 139.039 28.3144C136.436 23.7539 129.198 22.0965 124.008 23.1194C120.682 23.7776 117.119 26.0207 115.126 29.0168C112.661 27.8866 109.909 27.2346 107.078 27.1226C103.702 26.99 98.7043 28.5527 94.8929 31.1968C83.682 26.1281 67.6349 36.1913 65.87 47.5553C63.4694 48.3209 61.2427 49.6674 59.2295 51.1654C54.8473 54.4283 51.9469 63.355 55.4403 68.2848C52.5621 69.7102 49.9716 72.3527 48.9611 74.6874C47.8351 77.2904 47.3148 80.3291 49.1351 82.7348C49.7708 83.573 50.9205 84.5912 52.0813 84.9416C51.3064 87.5273 51.2431 90.4334 51.58 92.888C51.9674 95.7105 53.8715 97.6063 56.2912 98.5992C52.7993 101.876 50.6106 106.535 50.813 111.354C51.0122 116.113 55.4087 119.254 59.7593 119.906C62.345 120.296 65.1473 118.958 67.4341 117.138C67.5464 117.277 67.6555 117.415 67.782 117.551C69.2464 119.101 71.7167 119.427 73.888 118.849C73.9624 119.597 74.1221 120.341 74.4004 121.073C75.0631 122.816 75.5201 125.485 77.7104 125.843C77.965 125.884 78.1564 125.678 78.2845 125.485C79.5117 123.654 79.0926 120.544 79.4168 118.435C79.8232 115.788 80.1364 113.097 80.2882 110.4C81.5992 110.506 82.934 110.074 84.0489 108.847C87.2577 105.325 89.1096 100.771 88.6715 96.2582C92.5635 97.6568 97.6051 97.1091 101.413 95.9409C104.851 94.8849 108.927 92.416 111.193 89.6283C111.683 89.0253 112.33 88.3355 112.983 87.5857C115.109 88.3702 117.565 88.6938 119.527 87.8351C122.172 86.678 124.308 85.6141 126.206 83.7103C128.102 85.6141 130.239 86.678 132.883 87.8351C134.845 88.6938 137.3 88.3702 139.427 87.5857C140.08 88.3355 140.727 89.0253 141.217 89.6283C143.485 92.416 147.559 94.8849 150.997 95.9409C154.803 97.1091 159.845 97.6568 163.737 96.2582C163.3 100.77 165.152 105.324 168.36 108.847C169.476 110.074 170.811 110.508 172.122 110.4C172.274 113.097 172.585 115.788 172.992 118.435C173.316 120.544 172.897 123.654 174.124 125.485C174.25 125.676 174.443 125.884 174.698 125.843C176.888 125.485 177.345 122.817 178.008 121.073C178.286 120.341 178.445 119.597 178.52 118.849C180.693 119.425 183.164 119.101 184.626 117.551C184.755 117.415 184.86 117.277 184.974 117.138C187.26 118.958 190.063 120.296 192.649 119.906C197 119.254 201.396 116.113 201.595 111.354C201.798 106.535 199.609 101.876 196.117 98.5992C198.535 97.6063 200.439 95.7105 200.827 92.888C201.164 90.4334 201.099 87.5273 200.326 84.9416C201.486 84.5896 202.636 83.573 203.272 82.7348C205.086 80.3291 204.565 77.2904 203.439 74.6874Z" fill="#FF7800"/>
<path d="M203.44 74.6908C202.98 73.6221 202.175 72.495 201.176 71.4453C200.557 74.7003 198.036 77.6885 195.01 78.6877C196.03 81.2118 196.162 83.99 194.821 86.7462C193.678 89.0982 191.749 90.2995 189.614 90.6231C191.842 94.0833 193.074 98.1528 192.022 102.257C190.89 106.677 187.339 111.815 182.078 111.239C174.414 110.405 173.514 104.401 176.032 99.1678C174.283 98.9531 172.57 98.3122 171.077 97.1993C168.261 95.1014 167.497 92.1716 167.921 89.1835C163.23 91.0982 157.972 90.2726 153.308 88.4826C147.694 86.3279 145.368 82.1195 145.034 77.3854C142.152 79.447 138.819 80.6467 135.415 80.181C130.519 79.5054 127.135 76.8881 125.443 73.2938C123.779 77.2323 120.698 80.634 116.114 80.0421C113.794 79.7437 112.117 78.6388 110.944 77.0934C108.747 82.4762 104.364 87.0919 98.724 88.4289C94.5269 89.4218 90.162 88.7336 86.4741 86.7841C87.4767 93.0414 83.1688 100.745 77.2225 102.54C70.9774 104.423 64.5029 99.2246 63.6109 93.4061C62.3221 93.7502 60.9968 93.8039 59.6858 93.4408C56.4675 92.5521 53.6193 89.2387 53.7237 85.7738C53.7759 84.0248 54.2535 82.4652 55.0157 81.065C53.5418 81.0334 52.0948 80.4999 50.8533 79.2228C49.6103 77.9458 48.984 76.4698 48.8512 74.9607C47.8043 77.5038 47.371 80.4178 49.1295 82.7398C49.7653 83.578 50.915 84.5962 52.0758 84.9466C51.3009 87.5323 51.2376 90.4384 51.5745 92.893C51.9619 95.7155 53.866 97.6113 56.2856 98.6042C52.7938 101.881 50.605 106.54 50.8075 111.359C51.0067 116.118 55.4032 119.26 59.7538 119.911C62.3394 120.301 65.1418 118.963 67.4286 117.143C67.5409 117.282 67.65 117.421 67.7765 117.556C69.2409 119.106 71.7112 119.432 73.8825 118.854C73.9568 119.602 74.1166 120.346 74.3949 121.078C75.0575 122.821 75.5146 125.49 77.7049 125.848C77.9595 125.889 78.1509 125.683 78.279 125.49C79.5062 123.659 79.0871 120.549 79.4113 118.44C79.8177 115.793 80.1308 113.102 80.2827 110.405C81.5937 110.511 82.9284 110.079 84.0434 108.852C87.2522 105.33 89.104 100.776 88.666 96.2632C92.5579 97.6618 97.5996 97.1141 101.408 95.9459C104.846 94.8899 108.921 92.4211 111.188 89.6333C111.678 89.0303 112.325 88.3405 112.978 87.5907C115.103 88.3752 117.559 88.6988 119.522 87.8401C122.166 86.683 124.303 85.6191 126.2 83.7154C128.096 85.6191 130.233 86.683 132.877 87.8401C134.84 88.6988 137.294 88.3752 139.421 87.5907C140.074 88.3405 140.721 89.0303 141.211 89.6333C143.479 92.4211 147.553 94.8899 150.991 95.9459C154.798 97.1141 159.839 97.6618 163.731 96.2632C163.295 100.775 165.147 105.329 168.354 108.852C169.471 110.079 170.805 110.513 172.116 110.405C172.268 113.102 172.58 115.793 172.986 118.44C173.31 120.549 172.891 123.659 174.118 125.49C174.245 125.681 174.438 125.889 174.693 125.848C176.883 125.49 177.34 122.822 178.003 121.078C178.281 120.346 178.439 119.602 178.515 118.854C180.688 119.43 183.158 119.106 184.621 117.556C184.749 117.421 184.855 117.282 184.969 117.143C187.254 118.963 190.058 120.301 192.644 119.911C196.994 119.26 201.391 116.118 201.59 111.359C201.792 106.54 199.604 101.881 196.112 98.6042C198.53 97.6113 200.434 95.7155 200.821 92.893C201.158 90.4384 201.093 87.5323 200.32 84.9466C201.481 84.5946 202.631 83.578 203.266 82.7398C205.087 80.3325 204.566 77.2938 203.44 74.6908Z" fill="#FF7800"/>
<path opacity="0.7" d="M175.777 200.649C174.585 202.341 173.429 203.366 171.415 203.907C169.13 204.526 166.682 202.938 164.639 202.237C160.666 200.878 157.995 202.632 155.675 205.727C153.542 208.575 151.079 211.437 147.102 210.671C141.048 209.505 137.158 203.213 130.464 206.752C125.887 209.172 121.34 213.358 115.734 211.743C113.487 211.097 111.243 210.116 109.587 208.404C107.368 206.109 105.02 202.059 101.332 202.31C96.4717 202.64 91.0236 207.61 86.3457 203.896C84.3799 202.337 82.9471 200.316 81.4479 198.327C79.7842 196.117 78.0636 194.752 75.791 193.977C76.1026 194.122 76.3651 194.24 76.49 194.308C78.3261 195.304 79.479 197.375 80.4895 199.112C83.3346 204 84.7816 208.543 91.3684 207.743C94.7321 207.336 97.6958 205.415 101.044 204.906C104.86 204.329 108.04 210.144 110.839 212.187C115.848 215.843 122.204 213.981 127.206 211.511C128.7 210.771 130.13 209.877 131.523 208.963C134.775 206.828 136.853 207.735 139.831 209.669C142.571 211.448 145.638 212.449 148.905 212.441C150.991 212.435 153.412 211.307 154.99 210.015C158.859 206.843 161.152 202.954 166.94 204.28C168.969 204.742 171.54 205.489 173.501 204.321C176.041 202.807 176.952 200.131 178.973 198.166C179.353 197.876 179.721 197.565 180.117 197.331C180.251 197.252 180.39 197.167 180.521 197.072C180.463 196.977 180.395 196.892 180.335 196.799C178.628 197.34 177.279 198.518 175.777 200.649Z" fill="#F98B13"/>
<path d="M129.794 221.433C129.794 223.812 127.861 225.741 125.478 225.741C123.096 225.741 121.162 223.812 121.162 221.433C121.162 219.052 123.095 217.125 125.478 217.125C127.861 217.127 129.794 219.054 129.794 221.433Z" fill="#008EFF"/>
<path d="M128.829 242.87C128.829 245.249 126.897 247.178 124.513 247.178C122.132 247.178 120.199 245.249 120.199 242.87C120.199 240.49 122.132 238.562 124.513 238.562C126.897 238.564 128.829 240.491 128.829 242.87Z" fill="#008EFF"/>
<path d="M127.255 267.738C127.255 270.116 125.322 272.045 122.939 272.045C120.558 272.045 118.625 270.116 118.625 267.738C118.625 265.357 120.558 263.43 122.939 263.43C125.324 263.431 127.255 265.359 127.255 267.738Z" fill="#008EFF"/>
<path d="M125.897 142.431C125.897 142.431 107.053 142.875 98.6733 140.165C98.6733 140.165 91.9521 138.092 95.1498 145.367C98.3459 152.64 102.176 166.421 121.162 166.803C140.149 167.186 151.613 158.793 155.479 148.302C158.645 139.71 157.426 133.882 149.106 137.072C140.788 140.264 125.897 142.431 125.897 142.431Z" fill="#FF0000"/>
<path d="M125.933 150.916C137.911 149.836 141.235 145.309 142.195 141.836C128.498 145.118 117.388 145.175 109.822 144.434C111.22 147.091 115.25 151.888 125.933 150.916Z" fill="white"/>
<path d="M126.708 154.198C119.765 154.632 116.82 159.079 115.715 161.534C118.773 162.222 122.219 162.364 126.121 162.078C130.282 161.774 134.153 160.784 137.629 159.209C136.154 156.95 132.978 153.801 126.708 154.198Z" fill="#ED6C73"/>
<path d="M153.23 138.609C149.386 139.927 145.707 140.982 142.193 141.834C141.235 145.307 137.909 149.834 125.931 150.914C115.248 151.887 111.219 147.089 109.821 144.434C102.592 143.727 98.5625 142.303 98.5625 142.303C102.5 154.163 107.789 159.734 115.713 161.535C116.819 159.078 119.764 154.633 126.706 154.199C132.977 153.801 136.154 156.951 137.628 159.209C145.921 155.437 151.837 148.234 153.23 138.609Z" fill="#F6B9C6"/>
<path d="M124.472 163.582C123.408 163.162 121.591 163.167 120.883 164.195C120.728 164.419 120.565 164.72 120.778 164.96C120.822 165.009 120.878 165.046 120.93 165.088C121.491 166.037 123.391 165.816 124.242 165.527C125.323 165.161 125.611 164.034 124.472 163.582Z" fill="white"/>
<path d="M127.348 163.713C126.959 163.923 126.663 164.307 127.044 164.654C127.093 164.698 127.165 164.725 127.229 164.758L127.233 164.76C127.315 164.799 127.405 164.829 127.505 164.853C127.511 164.854 127.516 164.854 127.522 164.857C128.332 165.018 129.589 164.603 129.417 163.738C129.244 162.87 127.963 163.135 127.348 163.713Z" fill="white"/>
<path d="M53.2323 73.4277C54.7758 72.2848 56.566 71.2461 58.4274 70.58C55.9461 66.5673 56.2624 60.2926 58.3847 56.4772C60.2223 53.1702 63.7316 51.1875 67.4464 50.6729C67.3452 44.5734 74.6263 37.7967 79.4924 35.8882C83.7355 34.2245 88.6633 33.7793 93.0186 34.908C95.4778 32.297 100.094 30.7895 102.938 30.1455C107.31 29.1557 111.797 29.964 115.175 32.387C119.179 28.4533 123.667 24.9915 129.78 26.5606C132.65 27.2962 134.94 28.7769 136.768 30.7185C140.119 28.7437 144.796 28.7627 148.393 29.7287C151.215 30.4849 153.841 32.3065 155.687 34.6838C160.703 32.5449 168.502 33.7572 172.229 35.4573C178.988 38.5355 182.186 43.9815 182.95 50.2151C187.194 50.2088 190.935 52.1347 193.702 55.6153C196.833 59.5522 196.504 64.5957 195.685 69.2808C198.718 70.0354 201.554 71.9044 203.324 74.4648C202.251 72.1901 199.745 69.6676 196.957 68.2848C200.45 63.355 197.548 54.4299 193.166 51.1654C191.153 49.6674 188.925 48.3209 186.525 47.5553C184.761 36.1913 168.715 26.1281 157.504 31.1968C153.693 28.5527 148.695 26.99 145.319 27.1226C143.146 27.2078 141.024 27.6198 139.036 28.3144C136.433 23.7539 129.194 22.0965 124.004 23.1194C120.678 23.7776 117.115 26.0207 115.123 29.0168C112.657 27.8866 109.905 27.2346 107.075 27.1226C103.698 26.99 98.7008 28.5527 94.8895 31.1968C83.6785 26.1281 67.6315 36.1913 65.8666 47.5553C63.4659 48.3209 61.2392 49.6674 59.226 51.1654C54.8438 54.4283 51.9434 63.355 55.4369 68.2848C52.5586 69.7102 49.9682 72.3527 48.9576 74.6874C48.042 76.8042 47.5517 79.2036 48.3677 81.322C48.8185 78.337 50.2892 75.6077 53.2323 73.4277Z" fill="#FF7800"/>
<path d="M68.1121 351.135C70.712 328.145 77.3731 305.671 83.9013 283.461C76.8765 302.929 66.4531 333.458 64.6186 347.998C63.4072 357.593 65.2813 374.238 67.5396 390.346C66.5543 377.268 66.6445 364.118 68.1121 351.135Z" fill="#008EFF"/>
<path d="M177.91 339.814C178.821 347.201 180.499 354.518 181.233 361.934C181.269 361.309 181.315 360.684 181.348 360.057C181.609 355.108 181.756 350.15 181.696 345.192C181.559 333.889 176.177 316.949 170.963 303.109C173.284 315.338 176.381 327.43 177.91 339.814Z" fill="#008EFF"/>
</svg>
