<svg width="364" height="364" viewBox="0 0 364 364" fill="none" xmlns="http://www.w3.org/2000/svg">
<path d="M81.1887 93.3594H80.1602V115.46H81.1887V93.3594Z" fill="#808080"/>
<path d="M95.7122 93.3594H94.6836V110.834H95.7122V93.3594Z" fill="#808080"/>
<path d="M109.456 93.3594H108.428V118.672H109.456V93.3594Z" fill="#808080"/>
<path d="M76.6914 90.7907L94.1664 76.015L94.4236 75.7578L94.8085 76.015L112.283 90.7907L111.641 91.5621L94.4236 77.042L77.3335 91.5621L76.6914 90.7907Z" fill="#666666"/>
<path d="M98.5361 76.3967C98.5361 78.7094 96.7376 80.5079 94.4249 80.5079C92.2399 80.5079 90.3137 78.7094 90.3137 76.3967V72.2855C90.3137 67.7878 88.5152 63.8059 85.6882 60.8495C82.7318 58.0225 78.7483 56.224 74.2522 56.224C69.8838 56.224 65.9004 58.0225 62.9456 60.8495C60.1185 63.8043 58.3201 67.7878 58.3201 72.2855V131.134C58.3201 133.447 56.3923 135.246 54.2089 135.246C51.8961 135.246 50.0977 133.447 50.0977 131.134V72.2855C50.0977 65.6044 52.7953 59.5653 57.1653 55.0676C61.5336 50.6993 67.702 48 74.2538 48C80.9349 48 87.1033 50.6977 91.4716 55.0676C95.84 59.5653 98.5377 65.6044 98.5377 72.2855V76.3967H98.5361Z" fill="#808080"/>
<path fill-rule="evenodd" clip-rule="evenodd" d="M70.1404 223.898H207.238C210.322 223.898 212.892 226.468 212.892 229.553C212.892 232.765 210.322 235.334 207.238 235.334H70.1404C67.0562 235.334 64.4863 232.765 64.4863 229.553C64.4879 226.468 67.0578 223.898 70.1404 223.898Z" fill="#F67B09"/>
<path fill-rule="evenodd" clip-rule="evenodd" d="M293.454 223.898H218.545C215.461 223.898 212.891 226.468 212.891 229.553C212.891 232.765 215.461 235.334 218.545 235.334H293.454C296.538 235.334 299.108 232.765 299.108 229.553C299.108 226.468 296.538 223.898 293.454 223.898Z" fill="#F67B09"/>
<path d="M299.108 235.336H64.4863V254.352H299.108V235.336Z" fill="#F03624"/>
<path d="M299.108 162.484H64.4863V173.278H299.108V162.484Z" fill="#607BB5"/>
<path d="M299.108 254.359H64.4863V276.588H299.108V254.359Z" fill="#607BB5"/>
<path fill-rule="evenodd" clip-rule="evenodd" d="M64.4873 290.329C61.0182 290.329 53.5656 290.329 50.0965 290.329C52.5386 235.85 54.4649 183.169 43.9297 133.828C50.7402 133.828 57.5491 133.828 64.4873 133.828C64.4873 185.996 64.4873 238.162 64.4873 290.329Z" fill="#7A95CF"/>
<path fill-rule="evenodd" clip-rule="evenodd" d="M45.9853 144.493C45.3432 140.896 44.7011 137.425 43.9297 133.828C50.7402 133.828 57.5491 133.828 64.4873 133.828V134.985C55.2379 135.499 49.8409 139.353 45.9853 144.493Z" fill="#607BB5"/>
<path d="M69.8833 162.484H64.4863V173.278H69.8833V162.484Z" fill="#536EA8"/>
<path d="M69.8833 254.359H64.4863V276.588H69.8833V254.359Z" fill="#536EA8"/>
<path d="M299.11 162.484H293.713V173.278H299.11V162.484Z" fill="#536EA8"/>
<path d="M299.11 254.359H293.713V276.588H299.11V254.359Z" fill="#536EA8"/>
<path fill-rule="evenodd" clip-rule="evenodd" d="M43.9278 128.57H64.487C65.5156 128.57 66.2855 129.342 66.2855 130.498V131.912C66.2855 132.94 65.514 133.839 64.487 133.839H43.9278C42.8992 133.839 42 132.94 42 131.912V130.498C42.0016 129.342 42.9008 128.57 43.9278 128.57Z" fill="#7A95CF"/>
<path fill-rule="evenodd" clip-rule="evenodd" d="M299.107 290.329C302.577 290.329 310.029 290.329 313.498 290.329C311.056 235.85 309.13 183.169 319.665 133.828C312.855 133.828 305.916 133.828 299.107 133.828C299.107 185.996 299.107 238.162 299.107 290.329Z" fill="#7A95CF"/>
<path fill-rule="evenodd" clip-rule="evenodd" d="M317.609 144.493C318.252 140.896 318.894 137.425 319.665 133.828C312.855 133.828 305.916 133.828 299.107 133.828V134.985C308.231 135.499 313.755 139.353 317.609 144.493Z" fill="#607BB5"/>
<path fill-rule="evenodd" clip-rule="evenodd" d="M319.667 128.57H299.109C298.081 128.57 297.182 129.342 297.182 130.498V131.912C297.182 132.94 298.081 133.839 299.109 133.839H319.667C320.696 133.839 321.595 132.94 321.595 131.912V130.498C321.595 129.342 320.696 128.57 319.667 128.57Z" fill="#7A95CF"/>
<path d="M87.3586 177.766H80.291V249.849H87.3586V177.766Z" fill="#375391"/>
<path fill-rule="evenodd" clip-rule="evenodd" d="M79.5198 173.281H88.2565C89.4129 173.281 90.4415 174.308 90.4415 175.594C90.4415 176.75 89.4129 177.779 88.2565 177.779H79.5198C78.2356 177.779 77.207 176.75 77.207 175.594C77.207 174.308 78.2356 173.281 79.5198 173.281Z" fill="#46619D"/>
<path fill-rule="evenodd" clip-rule="evenodd" d="M79.5198 249.859H88.2565C89.4129 249.859 90.4415 250.888 90.4415 252.172C90.4415 253.328 89.4129 254.357 88.2565 254.357H79.5198C78.2356 254.357 77.207 253.328 77.207 252.172C77.207 250.886 78.2356 249.859 79.5198 249.859Z" fill="#46619D"/>
<path fill-rule="evenodd" clip-rule="evenodd" d="M108.303 177.766C110.615 177.766 112.928 177.766 115.369 177.766C115.369 201.792 115.369 225.821 115.369 249.847C112.927 249.847 110.615 249.847 108.303 249.847C108.303 225.821 108.303 201.794 108.303 177.766Z" fill="#375391"/>
<path fill-rule="evenodd" clip-rule="evenodd" d="M107.4 173.281C110.355 173.281 113.311 173.281 116.137 173.281C117.421 173.281 118.45 174.308 118.45 175.594C118.45 176.75 117.421 177.779 116.137 177.779C113.31 177.779 110.355 177.779 107.4 177.779C106.244 177.779 105.217 176.75 105.217 175.594C105.215 174.308 106.244 173.281 107.4 173.281Z" fill="#46619D"/>
<path fill-rule="evenodd" clip-rule="evenodd" d="M107.4 249.859C110.355 249.859 113.311 249.859 116.137 249.859C117.421 249.859 118.45 250.888 118.45 252.172C118.45 253.328 117.421 254.357 116.137 254.357C113.31 254.357 110.355 254.357 107.4 254.357C106.244 254.357 105.217 253.328 105.217 252.172C105.215 250.886 106.244 249.859 107.4 249.859Z" fill="#46619D"/>
<path fill-rule="evenodd" clip-rule="evenodd" d="M136.311 177.766C138.623 177.766 140.936 177.766 143.249 177.766C143.249 201.792 143.249 225.821 143.249 249.847C140.936 249.847 138.623 249.847 136.311 249.847C136.311 225.821 136.311 201.794 136.311 177.766Z" fill="#375391"/>
<path fill-rule="evenodd" clip-rule="evenodd" d="M135.412 173.281C138.367 173.281 141.194 173.281 144.149 173.281C145.435 173.281 146.334 174.308 146.334 175.594C146.334 176.75 145.435 177.779 144.149 177.779C141.194 177.779 138.367 177.779 135.412 177.779C134.128 177.779 133.1 176.75 133.1 175.594C133.1 174.308 134.128 173.281 135.412 173.281Z" fill="#46619D"/>
<path fill-rule="evenodd" clip-rule="evenodd" d="M135.412 249.859C138.367 249.859 141.194 249.859 144.149 249.859C145.435 249.859 146.334 250.888 146.334 252.172C146.334 253.328 145.435 254.357 144.149 254.357C141.194 254.357 138.367 254.357 135.412 254.357C134.128 254.357 133.1 253.328 133.1 252.172C133.1 250.886 134.128 249.859 135.412 249.859Z" fill="#46619D"/>
<path fill-rule="evenodd" clip-rule="evenodd" d="M164.193 177.766C166.506 177.766 168.947 177.766 171.259 177.766C171.259 201.792 171.259 225.821 171.259 249.847C168.947 249.847 166.505 249.847 164.193 249.847C164.193 225.821 164.193 201.794 164.193 177.766Z" fill="#375391"/>
<path fill-rule="evenodd" clip-rule="evenodd" d="M163.424 173.281C166.251 173.281 169.206 173.281 172.033 173.281C173.317 173.281 174.346 174.308 174.346 175.594C174.346 176.75 173.317 177.779 172.033 177.779C169.206 177.779 166.251 177.779 163.424 177.779C162.14 177.779 161.111 176.75 161.111 175.594C161.111 174.308 162.14 173.281 163.424 173.281Z" fill="#46619D"/>
<path fill-rule="evenodd" clip-rule="evenodd" d="M163.424 249.859C166.251 249.859 169.206 249.859 172.033 249.859C173.317 249.859 174.346 250.888 174.346 252.172C174.346 253.328 173.317 254.357 172.033 254.357C169.206 254.357 166.251 254.357 163.424 254.357C162.14 254.357 161.111 253.328 161.111 252.172C161.111 250.886 162.14 249.859 163.424 249.859Z" fill="#46619D"/>
<path fill-rule="evenodd" clip-rule="evenodd" d="M192.205 177.766C194.518 177.766 196.831 177.766 199.273 177.766C199.273 201.792 199.273 225.821 199.273 249.847C196.831 249.847 194.519 249.847 192.205 249.847C192.205 225.821 192.205 201.794 192.205 177.766Z" fill="#375391"/>
<path fill-rule="evenodd" clip-rule="evenodd" d="M191.304 173.281C194.259 173.281 197.086 173.281 200.041 173.281C201.325 173.281 202.354 174.308 202.354 175.594C202.354 176.75 201.325 177.779 200.041 177.779C197.086 177.779 194.259 177.779 191.304 177.779C190.148 177.779 189.119 176.75 189.119 175.594C189.121 174.308 190.148 173.281 191.304 173.281Z" fill="#46619D"/>
<path fill-rule="evenodd" clip-rule="evenodd" d="M191.304 249.859C194.259 249.859 197.086 249.859 200.041 249.859C201.325 249.859 202.354 250.888 202.354 252.172C202.354 253.328 201.325 254.357 200.041 254.357C197.086 254.357 194.259 254.357 191.304 254.357C190.148 254.357 189.119 253.328 189.119 252.172C189.121 250.886 190.148 249.859 191.304 249.859Z" fill="#46619D"/>
<path fill-rule="evenodd" clip-rule="evenodd" d="M220.086 177.766C222.528 177.766 224.841 177.766 227.154 177.766C227.154 201.792 227.154 225.821 227.154 249.847C224.841 249.847 222.528 249.847 220.086 249.847C220.086 225.821 220.086 201.794 220.086 177.766Z" fill="#375391"/>
<path fill-rule="evenodd" clip-rule="evenodd" d="M219.319 173.281C222.146 173.281 225.1 173.281 228.055 173.281C229.212 173.281 230.24 174.308 230.24 175.594C230.24 176.75 229.212 177.779 228.055 177.779C225.1 177.779 222.144 177.779 219.319 177.779C218.034 177.779 217.006 176.75 217.006 175.594C217.006 174.308 218.033 173.281 219.319 173.281Z" fill="#46619D"/>
<path fill-rule="evenodd" clip-rule="evenodd" d="M219.319 249.859C222.146 249.859 225.1 249.859 228.055 249.859C229.212 249.859 230.24 250.888 230.24 252.172C230.24 253.328 229.212 254.357 228.055 254.357C225.1 254.357 222.144 254.357 219.319 254.357C218.034 254.357 217.006 253.328 217.006 252.172C217.006 250.886 218.033 249.859 219.319 249.859Z" fill="#46619D"/>
<path fill-rule="evenodd" clip-rule="evenodd" d="M248.098 177.766C250.41 177.766 252.853 177.766 255.165 177.766C255.165 201.792 255.165 225.821 255.165 249.847C252.853 249.847 250.412 249.847 248.098 249.847C248.098 225.821 248.098 201.794 248.098 177.766Z" fill="#375391"/>
<path fill-rule="evenodd" clip-rule="evenodd" d="M247.199 173.281C250.153 173.281 253.11 173.281 255.935 173.281C257.22 173.281 258.248 174.308 258.248 175.594C258.248 176.75 257.22 177.779 255.935 177.779C253.108 177.779 250.153 177.779 247.199 177.779C246.042 177.779 245.014 176.75 245.014 175.594C245.014 174.308 246.042 173.281 247.199 173.281Z" fill="#46619D"/>
<path fill-rule="evenodd" clip-rule="evenodd" d="M247.199 249.859C250.153 249.859 253.11 249.859 255.935 249.859C257.22 249.859 258.248 250.888 258.248 252.172C258.248 253.328 257.22 254.357 255.935 254.357C253.108 254.357 250.153 254.357 247.199 254.357C246.042 254.357 245.014 253.328 245.014 252.172C245.014 250.886 246.042 249.859 247.199 249.859Z" fill="#46619D"/>
<path d="M283.048 177.766H276.109V249.849H283.048V177.766Z" fill="#375391"/>
<path fill-rule="evenodd" clip-rule="evenodd" d="M275.209 173.281H283.946C285.23 173.281 286.259 174.308 286.259 175.594C286.259 176.75 285.23 177.779 283.946 177.779H275.209C273.925 177.779 272.896 176.75 272.896 175.594C272.896 174.308 273.923 173.281 275.209 173.281Z" fill="#46619D"/>
<path fill-rule="evenodd" clip-rule="evenodd" d="M275.209 249.859H283.946C285.23 249.859 286.259 250.888 286.259 252.172C286.259 253.328 285.23 254.357 283.946 254.357H275.209C273.925 254.357 272.896 253.328 272.896 252.172C272.896 250.886 273.923 249.859 275.209 249.859Z" fill="#46619D"/>
<path fill-rule="evenodd" clip-rule="evenodd" d="M79.5198 157.984H88.2565C89.4129 157.984 90.4415 159.013 90.4415 160.169C90.4415 161.454 89.4129 162.482 88.2565 162.482H79.5198C78.2356 162.482 77.207 161.454 77.207 160.169C77.207 159.011 78.2356 157.984 79.5198 157.984Z" fill="#46619D"/>
<path fill-rule="evenodd" clip-rule="evenodd" d="M107.4 157.984C110.355 157.984 113.311 157.984 116.137 157.984C117.421 157.984 118.45 159.013 118.45 160.169C118.45 161.454 117.421 162.482 116.137 162.482C113.31 162.482 110.355 162.482 107.4 162.482C106.244 162.482 105.217 161.454 105.217 160.169C105.215 159.011 106.244 157.984 107.4 157.984Z" fill="#46619D"/>
<path fill-rule="evenodd" clip-rule="evenodd" d="M135.412 157.984C138.367 157.984 141.194 157.984 144.149 157.984C145.435 157.984 146.334 159.013 146.334 160.169C146.334 161.454 145.435 162.482 144.149 162.482C141.194 162.482 138.367 162.482 135.412 162.482C134.128 162.482 133.1 161.454 133.1 160.169C133.1 159.011 134.128 157.984 135.412 157.984Z" fill="#46619D"/>
<path fill-rule="evenodd" clip-rule="evenodd" d="M163.424 157.984C166.251 157.984 169.206 157.984 172.033 157.984C173.317 157.984 174.346 159.013 174.346 160.169C174.346 161.454 173.317 162.482 172.033 162.482C169.206 162.482 166.251 162.482 163.424 162.482C162.14 162.482 161.111 161.454 161.111 160.169C161.111 159.011 162.14 157.984 163.424 157.984Z" fill="#46619D"/>
<path fill-rule="evenodd" clip-rule="evenodd" d="M191.304 157.984C194.259 157.984 197.086 157.984 200.041 157.984C201.325 157.984 202.354 159.013 202.354 160.169C202.354 161.454 201.325 162.482 200.041 162.482C197.086 162.482 194.259 162.482 191.304 162.482C190.148 162.482 189.119 161.454 189.119 160.169C189.121 159.011 190.148 157.984 191.304 157.984Z" fill="#46619D"/>
<path fill-rule="evenodd" clip-rule="evenodd" d="M219.319 157.984C222.146 157.984 225.1 157.984 228.055 157.984C229.212 157.984 230.24 159.013 230.24 160.169C230.24 161.454 229.212 162.482 228.055 162.482C225.1 162.482 222.144 162.482 219.319 162.482C218.034 162.482 217.006 161.454 217.006 160.169C217.006 159.011 218.033 157.984 219.319 157.984Z" fill="#46619D"/>
<path fill-rule="evenodd" clip-rule="evenodd" d="M247.199 157.984C250.153 157.984 253.11 157.984 255.935 157.984C257.22 157.984 258.248 159.013 258.248 160.169C258.248 161.454 257.22 162.482 255.935 162.482C253.108 162.482 250.153 162.482 247.199 162.482C246.042 162.482 245.014 161.454 245.014 160.169C245.014 159.011 246.042 157.984 247.199 157.984Z" fill="#46619D"/>
<path fill-rule="evenodd" clip-rule="evenodd" d="M275.209 157.984H283.946C285.23 157.984 286.259 159.013 286.259 160.169C286.259 161.454 285.23 162.482 283.946 162.482H275.209C273.925 162.482 272.896 161.454 272.896 160.169C272.896 159.011 273.923 157.984 275.209 157.984Z" fill="#46619D"/>
<path fill-rule="evenodd" clip-rule="evenodd" d="M64.3568 290.336H50.0938V312.821C50.0938 313.978 50.993 315.006 52.1494 315.006H62.2996C63.456 315.006 64.3552 313.978 64.3552 312.821L64.3568 290.336Z" fill="#40484C"/>
<path fill-rule="evenodd" clip-rule="evenodd" d="M313.498 290.336H299.107V312.821C299.107 313.978 300.007 315.006 301.163 315.006H311.443C312.599 315.006 313.498 313.978 313.498 312.821V290.336Z" fill="#40484C"/>
<path fill-rule="evenodd" clip-rule="evenodd" d="M75.5378 90.0156H113.443C114.727 90.0156 115.755 91.0442 115.755 92.3284C115.755 93.7419 114.727 94.7705 113.443 94.7705H75.5378C74.2537 94.7705 73.0957 93.7419 73.0957 92.3284C73.0973 91.0442 74.2537 90.0156 75.5378 90.0156Z" fill="#7A95CF"/>
<path fill-rule="evenodd" clip-rule="evenodd" d="M80.6776 112.375C83.3753 112.375 85.5602 114.56 85.5602 117.258C85.5602 119.955 83.3768 122.14 80.6776 122.14C77.9783 122.14 75.7949 119.955 75.7949 117.258C75.7949 114.56 77.9799 112.375 80.6776 112.375Z" fill="#F07D05"/>
<path fill-rule="evenodd" clip-rule="evenodd" d="M95.1932 104.016C97.8909 104.016 100.076 106.201 100.076 108.898C100.076 111.596 97.8909 113.781 95.1932 113.781C92.4955 113.781 90.3105 111.598 90.3105 108.898C90.3121 106.201 92.4955 104.016 95.1932 104.016Z" fill="#F03624"/>
<path fill-rule="evenodd" clip-rule="evenodd" d="M108.945 116.609C111.643 116.609 113.828 118.794 113.828 121.492C113.828 124.19 111.643 126.375 108.945 126.375C106.247 126.375 104.062 124.19 104.062 121.492C104.062 118.793 106.247 116.609 108.945 116.609Z" fill="#5F870E"/>
</svg>
