<svg width="364" height="364" viewBox="0 0 364 364" fill="none" xmlns="http://www.w3.org/2000/svg">
<path d="M196.379 130.78C196.695 130.691 196.839 130.503 197.069 130.281C196.811 131.116 196.68 131.918 196.54 132.775L196.722 132.629L196.723 132.427L197.187 132.091C197.031 132.488 196.832 132.822 196.889 133.254L195.211 134.866C195.41 133.5 195.828 132.046 196.379 130.78Z" fill="#006B5C"/>
<path d="M82.9817 191.305L83.873 196.186C83.0272 195.193 82.4152 194.133 81.8359 192.968L81.95 191.778C82.3003 192.039 82.6173 192.517 82.8918 192.864L82.9662 192.426L82.7844 192.208C82.9691 191.938 82.9499 191.625 82.9817 191.305Z" fill="#006B5C"/>
<path d="M280.209 84.2972L281.689 82.8125C281.879 83.243 281.949 83.6782 282.401 83.8885L283.022 84.0661L282.984 84.2624L282.482 84.5036C282.448 84.9473 282.503 85.3198 282.584 85.7558C282.649 86.1632 282.669 86.4789 282.643 86.8915C282.629 87.1091 282.669 87.3156 282.696 87.5309C282.827 88.5622 282.804 89.8759 282.107 90.7247L281.817 91.0409C281.489 90.9896 281.313 90.8872 281.038 90.7046L280.773 90.2942C279.856 89.1897 279.677 88.0381 279.52 86.6652C279.621 85.7681 279.817 85.111 280.209 84.2972Z" fill="#00EDCC"/>
<path d="M280.629 85.4244C280.697 85.0163 281.006 84.685 281.273 84.384C281.678 84.2528 281.651 84.2478 282.034 84.431L281.761 84.6521C281.753 85.4922 281.883 86.5929 281.736 87.4015C281.669 87.7682 281.008 88.7012 280.756 89.0075C280.724 87.8512 280.802 86.564 280.629 85.4244Z" fill="#00413A"/>
<path d="M280.209 84.2972L281.689 82.8125C281.878 83.243 281.949 83.6782 282.401 83.8885L283.022 84.0661L282.984 84.2624L282.482 84.5036C282.448 84.9473 282.503 85.3198 282.584 85.7558L282.423 85.6718C282.407 85.2092 282.22 84.8472 282.035 84.433C281.652 84.2499 281.679 84.2548 281.274 84.386C281.007 84.687 280.698 85.0184 280.63 85.4264C280.173 86.6616 280.164 87.5431 280.543 88.8057C280.694 89.308 280.753 89.7712 280.773 90.2942C279.856 89.1896 279.677 88.038 279.52 86.6651C279.621 85.7681 279.817 85.111 280.209 84.2972Z" fill="#1E1209"/>
<path d="M241.583 51.7546C243.247 48.319 245.706 44.2423 248.875 42L249.419 46.2194L250.953 53.1792C251.204 54.2825 251.353 55.4788 251.694 56.5521L251.155 57.0808L247.876 44.3224C245.493 46.4097 243.739 49.1967 242.196 51.9293C241.161 54.8092 240.713 57.5366 240.99 60.597C241.099 61.8066 241.375 63.0014 241.575 64.1984L240.897 63.5724C239.644 59.4922 239.914 55.6629 241.583 51.7546Z" fill="#721F01"/>
<path d="M81.5771 156.192C81.6914 155.9 81.7967 155.745 82.0181 155.523L82.1464 155.741L81.8701 156.178C81.9716 156.531 82.0577 156.584 81.9188 156.936C81.299 158.509 80.9432 160.245 80.5783 161.893C79.5618 166.485 79.0651 171.152 79.2684 175.854C79.3169 176.969 79.3192 178.188 79.5945 179.275C79.7737 181.547 80.0152 183.779 80.4754 186.013L81.9499 191.77L81.8358 192.961L81.6906 192.687C80.6773 190.716 79.9673 188.561 79.3315 186.444C77.253 179.523 76.3707 171.02 78.3033 163.981C78.805 162.154 79.5109 160.469 80.3497 158.776C80.7222 158.023 81.2785 157.215 81.5153 156.414L81.5771 156.192Z" fill="url(#paint0_linear_4343_10217)"/>
<path d="M211.78 90.9585L211.782 90.9702L209.07 92.5042L209.171 92.163C209.542 91.1161 210.174 90.0626 210.719 89.0969C213.373 84.395 217.136 81.0379 221.175 77.5646C223.712 75.3823 226.306 73.1699 229.34 71.7109C229.45 73.0634 227.239 75.5319 226.358 76.5621C222.993 80.5 218.994 84.0118 215.116 87.4314C214.155 88.2782 213.137 89.105 212.229 90.0063C212.175 90.0606 211.782 90.4135 211.762 90.487C211.72 90.6385 211.774 90.8013 211.78 90.9585Z" fill="#00907D"/>
<path d="M217.084 88.6188C217.673 88.2422 218.338 88.0672 218.981 87.7969L214.131 95.2565L205.527 107.853L200.142 115.142C199.815 115.622 199.428 116.138 199.38 116.732C198.805 117.47 197.912 118.141 197.219 118.783C198.099 116.236 198.9 113.685 199.982 111.212C202.57 105.296 206.459 99.5419 210.835 94.7878L215.028 90.5395C215.611 89.9856 216.548 89.4236 216.981 88.7799L217.084 88.6188Z" fill="#00907D"/>
<path d="M86.1952 169.211C86.3122 169.34 86.4834 169.437 86.5461 169.599C86.7305 170.076 86.5277 171.487 86.5014 172.038C86.3988 174.2 86.5297 176.386 86.6181 178.547L87.4237 191.288C87.6818 194.708 87.9508 198.085 87.7749 201.521C87.4572 207.731 83.8661 213.192 79.393 217.283C78.4359 218.159 77.313 218.937 76.2496 219.677C75.658 220.089 74.8714 220.444 74.4598 221.037L74.6199 221.164L71.1035 221.934C71.922 221.216 73.0408 220.69 73.9471 220.068C75.9964 218.66 77.9544 216.833 79.561 214.94C84.6192 208.982 85.1361 201.817 85.0325 194.335L84.7382 181.676C84.7439 177.664 85.1437 173.089 86.1952 169.211Z" fill="#00907D"/>
<path d="M266.086 58.9582C267.018 58.5781 267.991 58.1802 268.786 57.5496C269.873 56.6887 270.708 55.5401 271.503 54.4186C272.941 52.3921 274.261 50.1876 275.226 47.8936L277.4 42.2734C279.929 47.5951 280.466 54.1369 278.454 59.7373L277.575 61.7845L276.742 63.5666L275.191 63.1513L271.662 61.5847C270.906 60.9725 269.912 60.4521 268.999 60.1179C268.149 59.9568 267.136 59.7703 266.424 59.2704L266.086 58.9582Z" fill="#721F01"/>
<path d="M278.261 55.1986L278.295 55.0559C278.421 54.4948 278.444 53.9768 278.444 53.4037L278.613 53.1484L278.7 55.312C278.658 56.3797 278.527 57.396 278.278 58.4365L277.735 60.5388C277.67 60.7747 277.437 61.2915 277.445 61.5175C277.449 61.6175 277.533 61.6975 277.577 61.7873L276.744 63.5695L275.193 63.1541C276.959 60.7537 277.754 58.0966 278.261 55.1986Z" fill="url(#paint1_linear_4343_10217)"/>
<path d="M269 60.1201C271.607 59.4701 273.597 58.7641 275.083 56.3836C275.675 55.4348 275.861 54.2522 276.429 53.3672C276.372 54.4754 275.745 55.9291 275.238 56.9188C274.512 58.3369 273.674 59.8567 272.41 60.8664C272.137 61.0845 271.858 61.2931 271.663 61.5868C270.907 60.9747 269.913 60.4542 269 60.1201Z" fill="#4D1600"/>
<path d="M268.51 58.5486C268.813 58.2605 269.114 57.9534 269.455 57.7112C272.015 55.897 274.402 52.196 275.625 49.3092C276.272 47.7823 276.704 46.1676 277.416 44.6719C278.644 47.6572 279.282 52.1024 278.697 55.3129L278.611 53.1493L278.442 53.4046C278.442 53.9777 278.418 54.4957 278.293 55.0568L278.259 55.1995C278.212 52.7621 277.987 50.515 277.305 48.159C276.882 50.4909 275.999 52.8785 274.512 54.7419L274.375 54.9158C273.133 56.4608 270.934 58.3021 268.912 58.6454C268.774 58.6687 268.712 58.6624 268.584 58.659L268.51 58.5486Z" fill="#B84B0D"/>
<path d="M134.075 249.984C132.764 257.066 132.459 264.55 132.81 271.731C132.982 275.243 133.224 278.706 134.027 282.142C134.41 283.784 134.949 285.369 135.624 286.913C135.963 287.688 136.561 288.566 136.741 289.379C136.875 289.982 136.73 290.715 136.633 291.32C136.316 293.3 136.507 294.871 137.642 296.557C138.603 297.988 140.115 298.775 141.125 300.14L143.032 303.003C142.329 303.305 141.55 303.036 140.79 302.985C139.851 302.923 138.914 302.956 137.974 302.869C138.043 300.278 136.62 299.365 135.523 297.299C135.066 296.438 134.82 295.43 134.558 294.493C130.692 280.712 129.356 265.623 131.385 251.418L131.917 251.384C132.826 251.057 133.366 250.611 134.075 249.984Z" fill="#4D1600"/>
<path d="M166.279 297.245C168.619 297.049 171.037 296.742 173.33 296.23L177.943 295.034C178.961 294.749 179.831 294.377 180.908 294.408L180.941 294.53C181.334 295.842 182.212 297.159 182.855 298.375L185.533 303.644C180.62 305.743 174.106 306.199 169.107 304.116C168.327 303.792 168.333 303.435 168.055 302.696L166.279 297.245Z" fill="#1E1209"/>
<path d="M128.129 305.321C128.92 305.135 129.642 304.693 130.399 304.412C132.864 303.499 135.343 302.924 137.975 302.867C138.915 302.954 139.852 302.921 140.791 302.984C141.55 303.034 142.33 303.303 143.033 303.001L147.376 311.981C145.503 312.773 143.629 313.187 141.618 313.446C137.833 313.934 133.569 313.562 129.957 312.35C129.115 310.059 128.858 307.625 128.129 305.321Z" fill="#362A25"/>
<path d="M246.707 312.357C241.532 314.452 234.483 314.866 229.158 313.1C228.706 312.673 228.245 311.986 228.211 311.355C228.198 311.124 228.206 311.065 228.108 310.851L228.1 305.641C229.926 304.826 231.829 304.093 233.787 303.645C236.411 303.043 239.121 302.842 241.732 302.211L246.707 312.357Z" fill="#1E1209"/>
<path d="M233.078 319.893C229.328 321.395 225.214 321.583 221.221 321.434C219.271 321.361 217.014 321.19 215.209 320.435C214.556 319.744 212.947 314.884 212.947 313.924L212.977 313.681C216.412 312.405 219.719 310.839 223.29 309.943C224.668 309.994 225.987 309.717 227.373 309.939C227.591 310.301 227.715 310.673 228.107 310.848C228.205 311.061 228.197 311.121 228.21 311.351C228.244 311.983 228.705 312.67 229.157 313.096L233.078 319.893Z" fill="#362A25"/>
<path d="M157.373 201.852C158.849 202.116 160.474 203.613 161.767 204.438C162.792 205.093 163.859 205.665 164.937 206.225C165.474 207.46 165.683 208.864 165.914 210.186C167.241 217.802 164.999 224.419 162.516 231.49C161.849 233.388 160.671 235.825 160.693 237.855C160.721 240.363 162.555 243.603 163.657 245.828C164.047 246.613 164.356 247.47 164.84 248.202C164.703 248.567 164.478 248.91 164.288 249.251C162.696 249.07 160.726 248.507 159.383 247.591C158.535 247.012 157.695 245.94 156.692 245.726L155.358 241.086C155.017 240.06 154.403 239.029 154.212 237.971C154.137 237.552 154.172 237.156 154.321 236.757C154.743 235.631 155.526 234.609 156.124 233.571C157.072 231.925 157.924 230.166 158.623 228.402C160.561 223.511 161.458 218.141 160.74 212.902C160.215 209.068 158.906 205.386 157.373 201.852Z" fill="#8D4014"/>
<path d="M212.006 260.109C213.017 261.417 214.061 262.6 215.82 262.762C216.218 262.799 216.602 262.732 216.992 262.669L217.207 262.635C218.178 262.47 219.034 262.014 219.836 261.464C218.306 266.567 218.477 271.767 218.464 277.031C218.453 281.322 218.443 285.566 218.929 289.84C219.055 290.948 219.19 292.081 219.437 293.169C219.698 294.322 220.076 295.515 220.177 296.695C220.433 299.706 219.428 302.121 220.941 305.019C221.472 306.036 223.694 308.971 223.351 309.853L223.289 309.943C219.72 310.837 216.412 312.404 212.977 313.682C213.081 313.165 212.977 312.54 212.953 312.011C212.911 311.07 212.922 309.976 213.101 309.05C213.475 307.112 214.943 305.996 214.604 303.777C214.199 301.125 211.414 299.057 211.466 296.404C211.53 293.123 212.776 289.654 213.298 286.407C214.29 280.251 214.542 274.204 213.605 268.018L212.006 260.109Z" fill="#AF5D22"/>
<path d="M124.084 247.602C125.45 249.345 127.233 251.161 129.563 251.42C130.164 251.487 130.789 251.516 131.387 251.418C129.358 265.624 130.694 280.713 134.559 294.494C134.822 295.431 135.068 296.439 135.525 297.3C136.621 299.366 138.044 300.279 137.976 302.87C135.344 302.927 132.865 303.502 130.4 304.415C129.643 304.696 128.921 305.138 128.13 305.323C127.066 302.423 129.479 300.644 129.266 297.877C129.185 296.83 128.832 295.973 128.145 295.171C127.184 294.048 125.755 293.088 125.578 291.515C125.367 289.636 125.959 287.347 126.098 285.434L126.386 275.042L125.348 259.366L124.084 247.602Z" fill="#8D4014"/>
<path d="M241.732 302.208C239.121 302.839 236.412 303.04 233.788 303.641C231.829 304.089 229.926 304.823 228.1 305.638C228.062 305.109 227.981 304.486 228.096 303.966C228.548 301.918 229.909 300.416 229.777 298.171C229.645 295.914 228.458 295.274 226.982 293.849C226.841 293.712 226.769 293.64 226.654 293.495C226.398 293.175 226.184 292.791 226.095 292.385C225.92 291.63 226.423 290.709 226.713 290.03C228.074 286.843 228.851 283.472 229.542 280.084C231.07 272.566 231.543 264.464 231.304 256.805C232.708 258.085 233.856 258.968 235.874 258.9C236.988 258.866 238.067 258.405 239.096 258.016C238.106 260.854 237.628 263.986 237.15 266.955C236.352 271.922 235.627 276.773 235.955 281.821C236.036 283.08 236.177 284.373 236.429 285.614L237.188 288.78C237.321 289.322 237.513 289.945 237.449 290.508C237.329 291.545 236.689 292.62 236.51 293.708L236.471 293.935C236.25 295.274 236.796 296.486 237.577 297.549C238.822 299.234 240.58 300.454 241.732 302.208Z" fill="#4D1600"/>
<path d="M156.691 245.727C157.694 245.94 158.535 247.013 159.383 247.591C160.726 248.507 162.696 249.07 164.287 249.251C164.478 248.911 164.703 248.568 164.839 248.202C165.375 247.251 165.866 246.703 166.873 246.279C166.544 252.349 166.714 258.342 167.559 264.366C168.117 268.341 168.93 272.32 170.415 276.062C170.813 277.066 171.279 278.018 171.824 278.951C172.255 279.689 174.297 282.464 174.339 283.101C174.367 283.544 174.183 284.232 174.114 284.688C173.85 286.437 173.929 287.404 175.16 288.775C176.91 290.726 179.776 291.969 180.907 294.412C179.83 294.381 178.96 294.753 177.943 295.038L173.329 296.235C171.036 296.747 168.619 297.053 166.278 297.249C166.224 296.494 166.286 295.757 166.53 295.035C167.068 293.446 168.305 291.818 167.64 290.093C167.111 288.72 165.464 288.237 164.228 287.7C163.932 287.291 163.707 286.847 163.624 286.343C163.378 284.853 163.642 283.069 163.595 281.541C163.515 278.909 163.199 276.266 162.826 273.662C161.93 267.406 160.627 261.088 159.108 254.953L156.691 245.727Z" fill="#4D1600"/>
<path d="M165.227 205.961C169.878 208.966 174.998 211.165 180.259 212.868L185.038 214.235C183.194 217.764 181.345 220.978 178.682 223.977C176.911 225.971 174.857 227.713 173.022 229.649C168.668 234.245 167.404 240.175 166.874 246.279C165.867 246.703 165.375 247.251 164.84 248.202C164.356 247.471 164.047 246.614 163.658 245.828C162.555 243.604 160.721 240.364 160.694 237.855C160.672 235.826 161.85 233.389 162.516 231.491C165 224.42 167.241 217.803 165.914 210.187C165.684 208.865 165.474 207.46 164.938 206.226L165.227 205.961Z" fill="#B84B0D"/>
<path d="M266.321 52.041C266.424 51.763 266.5 51.4873 266.681 51.25C267.248 52.009 267.361 53.824 267.241 54.751C267.055 56.176 266.205 57.3033 265.066 58.126L263.41 59.3216C264.303 59.252 265.232 59.2428 266.087 58.9586L266.425 59.2707C267.137 59.7706 268.15 59.9572 269 60.1182C269.913 60.4524 270.907 60.9728 271.663 61.585L275.192 63.1516L276.743 63.567C278.226 64.2384 279.651 65.1616 280.818 66.2994L273.462 65.8668L273.388 66.0704C278.576 70.3251 284.521 75.6406 291.796 74.8759C293.131 74.7355 294.356 74.3698 295.602 73.8877C295.827 73.8004 295.737 73.8276 296.007 73.8162C295.983 74.1035 295.973 74.1528 295.814 74.412C294.692 77.3862 292.694 79.0754 289.847 80.3529C287.068 81.6004 284.403 81.6775 281.412 81.6806L281.339 81.6897C280.772 81.6783 280.251 81.6063 279.695 81.4975C273.539 80.2704 267.786 76.8902 262.849 73.1226C258.74 69.9868 254.841 66.333 251.827 62.111C251.699 61.9996 251.472 61.8998 251.322 61.8158C251.721 60.2078 251.499 58.6723 251.154 57.0802L251.693 56.5514L253.77 56.2016C256.243 55.8331 258.731 56.1785 261.216 55.586C263.462 55.0504 265.115 54.0051 266.321 52.041Z" fill="#00413A"/>
<path d="M253.771 56.2073C256.245 55.8388 258.732 56.1842 261.217 55.5917C263.463 55.0563 265.116 54.0109 266.322 52.0469C266.377 53.0949 265.828 53.9053 265.132 54.6867C263.418 56.6112 261.43 57.4219 258.874 57.5276C257.444 57.5867 255.679 57.2983 254.513 56.4262C254.246 56.2265 254.098 56.2354 253.771 56.2073Z" fill="#006B5C"/>
<path d="M295.815 74.4116C295.104 74.5172 294.18 75.8749 293.499 76.2932C292.225 77.0758 290.426 77.2373 288.966 77.2064C281.634 77.0501 275.495 74.1251 270.086 69.3175C268.009 67.4709 266.16 65.4347 264.242 63.4297C266.598 64.3919 268.904 65.5575 271.473 65.789C271.919 65.8293 272.472 65.9375 272.907 65.8231C273.137 65.7627 273.238 65.8013 273.463 65.8663L273.389 66.0699C278.577 70.3246 284.522 75.6401 291.797 74.8754C293.132 74.735 294.357 74.3693 295.603 73.8872C295.828 73.8 295.738 73.8271 296.007 73.8157C295.984 74.103 295.974 74.1523 295.815 74.4116Z" fill="#006B5C"/>
<path d="M260.638 180.799C260.356 186.273 258.577 191.389 255.543 195.959L253.952 198.203C253.649 198.6 253.158 199.104 253.005 199.586C252.744 200.396 252.68 201.339 252.523 202.184L251.546 207.351C250.731 211.353 249.574 215.313 248.418 219.23C247.326 222.929 245.982 226.646 244.561 230.23C243.503 232.905 242.299 235.487 241.54 238.269C240.938 240.453 240.499 242.911 240.712 245.176C240.853 246.691 241.386 248.095 241.706 249.571C242.235 252.012 241.284 254.828 239.957 256.863C239.692 257.269 239.406 257.648 239.095 258.02C238.067 258.408 236.987 258.869 235.874 258.903C233.855 258.971 232.707 258.088 231.304 256.808C230.216 254.802 229.618 252.656 230.036 250.361C230.356 248.598 231.193 247.062 231.675 245.364C231.914 244.515 231.991 243.606 232.085 242.732C232.379 238.367 232.012 233.933 231.726 229.581C231.381 224.397 231.018 219.11 230.203 213.978L230.681 213.756C231.615 213.905 233.569 212.894 234.414 212.412L234.435 212.335C234.581 212.117 234.491 211.733 234.563 211.396L234.734 211.58C235.366 210.944 235.788 210.043 236.27 209.288C237.448 207.432 238.621 205.64 239.658 203.694C240.055 202.943 240.315 202.103 240.819 201.42C241.937 201.429 245.243 199.376 246.28 198.728C251.673 195.366 257.075 190.164 259.273 184.084C259.917 182.292 260.083 180.611 260.506 178.789C260.77 179.318 260.612 180.193 260.638 180.799Z" fill="#DC6819"/>
<path d="M245.711 205.247L249.538 202.205C250.532 201.356 251.468 200.261 252.565 199.562C252.571 199.861 251.35 200.972 251.072 201.288L248.303 204.591C247.379 204.854 246.737 205.484 245.882 205.872C245.901 205.71 245.757 205.391 245.711 205.247Z" fill="#AE3201"/>
<path d="M245.71 205.242C245.757 205.386 245.9 205.705 245.882 205.867C242.286 208.486 238.549 210.752 234.414 212.41L234.435 212.333C234.579 212.114 234.492 211.728 234.564 211.393L234.735 211.578C235.335 211.534 236.081 211.077 236.64 210.816C239.909 209.283 242.835 207.42 245.71 205.242Z" fill="#8D4014"/>
<path d="M248.303 204.586C245.286 208.908 242.483 213.742 240.439 218.611C238.361 223.565 236.864 228.813 235.268 233.933L233.288 240.884C233.023 241.664 232.768 242.629 232.315 243.32H232.213L232.085 242.727C232.379 238.362 232.012 233.929 231.726 229.577C231.381 224.392 231.018 219.106 230.203 213.973L230.681 213.751C231.615 213.9 233.57 212.889 234.414 212.407C238.549 210.751 242.287 208.486 245.884 205.866C246.737 205.478 247.381 204.85 248.303 204.586Z" fill="#B84B0D"/>
<path d="M227.374 309.941C225.987 309.719 224.669 309.997 223.291 309.945L223.35 309.856C223.696 308.972 221.473 306.041 220.94 305.021C219.429 302.124 220.432 299.709 220.176 296.697C220.078 295.519 219.698 294.325 219.438 293.172C219.19 292.084 219.054 290.949 218.93 289.844C218.443 285.569 218.452 281.324 218.465 277.035C218.478 271.77 218.307 266.569 219.839 261.466L220.671 260.391L220.841 260.472C219.745 265.349 219.613 270.635 219.604 275.623C219.6 279.523 219.642 283.367 220.21 287.229L221.238 292.473C221.52 293.693 221.87 294.888 221.989 296.138C222.202 298.459 220.893 301.305 222.138 303.503C222.646 304.399 223.649 305.192 224.336 305.964C225.424 307.172 226.508 308.571 227.374 309.941Z" fill="#FEFEFE"/>
<path d="M227.374 309.941C225.987 309.719 224.669 309.997 223.291 309.945L223.35 309.856C223.696 308.972 221.473 306.041 220.94 305.021C219.429 302.124 220.432 299.709 220.176 296.697C220.078 295.519 219.698 294.325 219.438 293.172C219.19 292.084 219.054 290.949 218.93 289.844C218.443 285.569 218.452 281.324 218.465 277.035C218.478 271.77 218.307 266.569 219.839 261.466L220.671 260.391L220.841 260.472C219.745 265.349 219.613 270.635 219.604 275.623C219.6 279.523 219.642 283.367 220.21 287.229L221.238 292.473C221.52 293.693 221.87 294.888 221.989 296.138C222.202 298.459 220.893 301.305 222.138 303.503C222.646 304.399 223.649 305.192 224.336 305.964C225.424 307.172 226.508 308.571 227.374 309.941Z" fill="#721F01"/>
<path d="M72.9179 167.965C72.8292 168.263 72.0382 168.961 71.7949 169.231C73.5482 158.217 78.8089 147.234 86.977 139.504C91.6642 135.067 96.9756 131.941 103.189 130.159C105.129 129.603 107.118 129.082 109.135 128.911C110.429 128.801 111.777 128.898 113.076 128.934C111.709 128.435 110.163 128.204 108.738 127.905C103.619 126.832 98.6119 126.294 93.4023 125.971C99.0912 123.551 104.596 122.457 110.769 122.169C121.946 121.647 133.351 125.112 142.265 131.933C143.349 132.762 144.347 133.74 145.354 134.661C141.668 136.604 138.212 138.622 135.219 141.567L133.738 143.088C132.6 142.302 131.315 141.702 130.081 141.077C123.794 137.893 117.162 136.647 110.161 137.967C101.235 139.652 93.7824 146.209 88.853 153.531C84.8501 159.477 81.7828 166.396 80.5618 173.482L80.0922 177.194C80.0122 177.986 80.1211 178.652 79.5949 179.276C79.3195 178.189 79.3172 176.969 79.2688 175.855C79.0655 171.153 79.5622 166.486 80.5786 161.894C80.9435 160.246 81.2993 158.51 81.9192 156.937C82.058 156.584 81.972 156.531 81.8705 156.179L82.1467 155.741L82.0184 155.524C81.797 155.746 81.6918 155.901 81.5774 156.193L72.9179 167.965Z" fill="#04A790"/>
<path d="M72.9183 167.97L72.6884 167.783C72.5729 167.249 72.7243 166.888 72.929 166.393C74.5029 162.59 77.2821 158.944 79.6854 155.62C83.1491 150.829 86.6807 145.915 91.2066 142.057C93.5532 140.057 96.458 138.267 99.3199 137.115C101.913 136.072 104.714 135.118 107.484 134.687C117.18 133.175 127.301 135.792 135.219 141.572L133.739 143.093C132.6 142.307 131.315 141.708 130.081 141.082C123.794 137.898 117.162 136.652 110.162 137.972C101.235 139.657 93.7828 146.215 88.8534 153.536C84.8505 159.482 81.7832 166.401 80.5622 173.487L80.0926 177.199C80.0126 177.991 80.1215 178.657 79.5953 179.281C79.3199 178.194 79.3176 176.974 79.2691 175.86C79.0658 171.158 79.5625 166.491 80.579 161.899C80.9439 160.251 81.2997 158.515 81.9196 156.942C82.0584 156.589 81.9724 156.536 81.8709 156.184L82.1471 155.746L82.0188 155.529C81.7974 155.751 81.6921 155.906 81.5778 156.198L72.9183 167.97Z" fill="#006B5C"/>
<path d="M79.5952 179.275C80.1214 178.651 80.0126 177.985 80.0925 177.193L80.5622 173.481C81.7831 166.395 84.8504 159.476 88.8534 153.53C93.7827 146.208 101.235 139.651 110.162 137.966C117.162 136.645 123.794 137.892 130.081 141.076C131.315 141.701 132.6 142.3 133.739 143.087L132.727 144.146C132.073 144.9 131.43 145.738 130.679 146.396C128.672 146.024 126.39 146.727 124.724 147.855C120.486 150.725 118.412 156.132 117.558 160.972C117.104 163.547 117.053 166.228 117.066 168.836C117.103 175.796 118.221 182.591 119.805 189.356L122.53 200.215C123.697 205.919 123.587 212.042 122.395 217.731C122.036 219.445 121.697 221.722 120.935 223.289L120.859 223.46C121.779 217.493 121.404 211.799 119.645 206.014C119.383 205.151 119.089 203.81 118.605 203.066L118.46 202.876C120.461 215.331 118.634 229.559 111.071 239.962C109.024 242.777 106.508 245.26 103.62 247.203C104.558 245.879 105.591 244.595 106.404 243.19C107.817 240.751 108.793 237.991 109.479 235.264C103.539 244.12 94.2297 251.539 83.5858 253.648C80.2178 254.315 76.8412 254.641 73.4075 254.618C75.0196 254.085 76.5614 253.626 78.109 252.903C86.1496 249.15 92.038 242.764 95.9765 234.903C96.7696 233.321 97.6884 231.653 98.1571 229.943C97.3792 231.054 96.6042 232.207 95.6834 233.204C91.3616 237.884 85.475 240.628 79.2591 241.721L74.4832 242.138C72.2548 242.427 69.1875 241.779 67 241.199C71.3918 239.56 74.9823 237.436 78.3818 234.155C85.069 227.702 89.3961 218.095 89.5241 208.778L88.379 210.874C85.4441 215.868 80.1919 219.697 74.6206 221.159L74.4605 221.032C74.8721 220.439 75.6587 220.084 76.2503 219.672C77.3137 218.933 78.4367 218.154 79.3936 217.279C83.8668 213.187 87.4579 207.726 87.7756 201.516C87.9514 198.08 87.6825 194.704 87.4244 191.283L86.6188 178.543C86.5304 176.381 86.3995 174.195 86.5021 172.033C86.5284 171.482 86.7311 170.072 86.5468 169.595C86.4841 169.432 86.3129 169.336 86.1959 169.206L86.5792 167.291C85.7657 168.605 85.3218 170.272 84.8685 171.743C82.8527 178.284 82.3084 184.496 82.9822 191.297C82.9504 191.617 82.9697 191.93 82.7851 192.2L82.9668 192.418L82.8924 192.856C82.618 192.509 82.3009 192.031 81.9506 191.77L80.4762 186.012C80.0158 183.779 79.7743 181.546 79.5952 179.275Z" fill="#00413A"/>
<path d="M74.4841 242.147L74.1463 242.017L74.1023 241.867C74.8822 241.071 77.2644 240.741 78.3736 240.323C80.5072 239.521 82.6767 238.442 84.5852 237.193C86.521 235.926 88.2136 234.308 89.8403 232.674C98.7825 223.69 102.255 211.902 104.751 199.819C105.001 201.735 104.766 203.928 104.708 205.864C104.54 211.493 104.204 217.261 103.095 222.79L101.039 230.94C102.995 227.573 104.346 223.875 105.461 220.15C106.874 215.433 107.776 210.258 107.7 205.322C107.637 201.259 106.864 197.347 106.287 193.342C105.321 186.635 104.722 179.545 105.614 172.796C106.254 167.954 107.667 163.514 109.714 159.089C110.504 157.383 111.492 155.71 112.159 153.957C110.299 156.226 108.527 158.662 107.108 161.235C103.268 168.196 101.055 176.63 100.077 184.498L98.0976 205.111C97.8998 206.608 97.6883 208.111 97.2671 209.564C97.1332 210.025 97.0425 210.555 96.7632 210.949L96.7284 210.877C97.11 208.777 97.4652 206.703 97.6242 204.57C98.0399 198.994 97.7359 193.393 97.8631 187.809C98.1455 175.408 101.227 161.878 109.295 152.12C113.196 147.401 118.285 143.526 124.531 142.888C127.536 142.581 129.883 143.517 132.728 144.155C132.074 144.91 131.431 145.748 130.68 146.405C128.673 146.034 126.39 146.736 124.725 147.864C120.486 150.734 118.412 156.142 117.559 160.982C117.104 163.556 117.053 166.238 117.067 168.846C117.103 175.805 118.222 182.6 119.805 189.365L122.531 200.224C123.697 205.928 123.587 212.051 122.396 217.74C122.037 219.454 121.698 221.732 120.936 223.298L120.859 223.469C121.779 217.502 121.405 211.808 119.646 206.023C119.384 205.16 119.09 203.819 118.606 203.076L118.461 202.885C120.462 215.341 118.635 229.569 111.072 239.971C109.025 242.787 106.508 245.269 103.621 247.213C104.559 245.889 105.592 244.604 106.405 243.199C107.817 240.76 108.793 238 109.48 235.273C103.54 244.13 94.2304 251.548 83.5866 253.657C80.2186 254.324 76.8419 254.65 73.4082 254.628C75.0203 254.094 76.5621 253.635 78.1097 252.913C86.1504 249.16 92.0388 242.773 95.9773 234.913C96.7703 233.33 97.6891 231.662 98.1578 229.952C97.3799 231.063 96.6049 232.216 95.6841 233.213C91.3623 237.893 85.4757 240.638 79.2598 241.73L74.4841 242.147Z" fill="#011D1B"/>
<path d="M292.049 119.89L292.032 120.031C291.418 121.695 290.731 123.171 289.878 124.728L289.822 124.908C289.604 125.676 289.506 126.431 289.511 127.233C289.528 129.157 290.198 131.777 288.162 132.976L287.36 133.343L287.194 133.411L284.792 134.107L284.382 134.278C281.997 135.673 279.496 136.313 276.71 135.792L276.48 135.754C274.803 135.438 273.915 134.696 272.985 133.339C271.599 131.308 271.475 128.756 270.306 126.636C269.674 125.492 268.403 124.515 267.438 123.645C265.941 122.288 264.452 120.867 262.771 119.732C260.283 118.047 257.224 117.014 254.331 116.255C253.9 116.66 252.854 133.185 252.692 135.519L251.843 145.9C251.698 147.556 251.31 149.386 251.455 151.029V151.102C251.626 151.554 251.839 152.019 251.929 152.493C254.565 157.617 256.942 163.125 258.64 168.63C259.575 171.668 260.415 174.663 260.693 177.842C260.757 178.618 260.902 179.864 260.718 180.602L260.637 180.794C260.612 180.188 260.769 179.314 260.505 178.785C260.082 180.607 259.916 182.288 259.272 184.08C257.074 190.16 251.673 195.361 246.279 198.723C245.242 199.372 241.936 201.424 240.818 201.416C240.314 202.099 240.054 202.939 239.657 203.69C238.62 205.636 237.447 207.428 236.269 209.284C235.787 210.039 235.365 210.939 234.733 211.575L234.563 211.392C234.49 211.729 234.58 212.113 234.435 212.33L234.413 212.407C233.569 212.889 231.614 213.901 230.68 213.751L230.202 213.973L226.904 214.912C226.52 215.424 226.362 216.025 226.161 216.627C224.096 223.697 222.432 230.976 221.506 238.285C221.11 241.464 220.717 244.69 221.114 247.881C222.031 250.48 222.966 253.556 222.419 256.321C222.142 257.725 221.442 259.171 220.841 260.468L220.67 260.387L219.838 261.463C219.032 262.013 218.178 262.47 217.205 262.636L216.992 262.67C216.6 262.734 216.216 262.798 215.819 262.764C214.061 262.602 213.015 261.416 212.004 260.11C211.258 257.593 210.682 254.213 211.095 251.619L211.134 251.414C211.39 249.861 211.893 248.624 212.644 247.263C212.819 246.947 213.216 246.418 213.297 246.094C213.331 245.961 213.199 245.526 213.169 245.377L212.606 242.599L206.94 216.388H204.956C198.24 216.589 191.558 215.902 185.038 214.233L180.259 212.868C174.998 211.161 169.878 208.964 165.227 205.96L164.937 206.225C163.858 205.661 162.791 205.09 161.767 204.437C160.474 203.613 158.849 202.116 157.372 201.851L157.095 201.433C156.532 202.256 156.186 203.208 155.785 204.112L154.129 207.624L148.463 218.312L140.292 232.137C139.063 234.168 137.476 236.263 136.537 238.435C135.957 239.766 135.718 241.357 135.42 242.778L134.075 249.981C133.367 250.608 132.825 251.056 131.916 251.38L131.387 251.414C130.79 251.512 130.163 251.483 129.561 251.414C127.232 251.158 125.448 249.341 124.083 247.595C123.14 245.705 121.949 243.841 122.052 241.643C122.141 239.821 123.524 237.918 124.322 236.335L126.412 231.761C127.833 228.228 128.84 224.35 129.263 220.574C130.496 209.527 125.205 199.824 122.653 189.43C121.821 186.047 121.19 182.531 121.04 179.049C120.686 170.742 122.683 161.747 126.22 154.238C127.505 151.511 129.117 148.968 130.679 146.4C131.43 145.743 132.074 144.902 132.727 144.147L133.738 143.089L135.219 141.57C138.214 138.621 141.67 136.603 145.353 134.662L145.485 134.632C146.424 134.389 147.298 133.97 148.228 133.689C149.846 133.207 151.514 132.895 153.195 132.759C159.932 132.212 165.564 134.585 171.798 136.658C175.476 137.883 179.137 138.758 182.956 139.415C185.746 139.897 188.806 140.307 191.635 140.008C193.435 138.561 194.839 136.688 196.298 134.918C197.553 133.394 198.854 131.965 199.865 130.262L196.887 133.253C196.832 132.823 197.028 132.485 197.186 132.089L196.721 132.426V132.626L196.537 132.771C196.678 131.918 196.81 131.116 197.066 130.279C196.836 130.501 196.695 130.689 196.379 130.779C196.733 129.251 197.442 127.724 198.048 126.281C199.533 122.727 201.291 119.288 203.437 116.084L207.665 110.281L199.379 116.732C199.43 116.139 199.814 115.623 200.143 115.141L205.527 107.853L214.129 95.2574L218.981 87.7947C218.341 88.0678 217.675 88.2427 217.086 88.6182L211.778 90.9565C211.774 90.7986 211.719 90.6365 211.761 90.4828C211.783 90.4103 212.175 90.0562 212.226 90.005C213.135 89.1004 214.155 88.2769 215.115 87.4278C218.993 84.0101 222.991 80.4985 226.358 76.5603C227.237 75.5277 229.447 73.0615 229.34 71.7089L231.098 70.7403C229.217 71.0305 227.574 71.5126 225.782 72.1399L220.512 74.4226L220.666 74.1794C223.644 69.6054 228.547 65.1081 234.004 63.9092C236.381 63.3758 238.497 63.4911 240.895 63.5721L241.573 64.1951C241.373 63.0004 241.1 61.8057 240.989 60.5939C240.712 57.5346 241.16 54.8081 242.196 51.9281C243.737 49.1931 245.49 46.4068 247.875 44.3203L251.152 57.0781C251.498 58.6696 251.72 60.2056 251.323 61.8142C251.472 61.8995 251.699 61.9976 251.827 62.1086C254.839 66.3327 258.739 69.9851 262.848 73.1212C267.784 76.8889 273.54 80.2682 279.697 81.497C280.252 81.6037 280.773 81.6762 281.34 81.6889L281.413 81.6804L281.69 82.8111L280.209 84.2917C279.817 85.1066 279.621 85.7638 279.518 86.6598C279.676 88.0336 279.855 89.1857 280.773 90.2908L281.037 90.7004C280.721 93.1837 281.374 95.3853 281.451 97.8217C282.556 101.828 284.408 105.899 286.247 109.632C286.768 110.686 287.433 111.676 287.92 112.738L291.201 117.022C292.002 118.038 292.173 118.58 292.049 119.89Z" fill="#F7AE46"/>
<path d="M262.584 98.0703L262.85 98.1668C266.743 102.759 270.794 107.829 272.184 113.821C271.9 113.687 271.022 111.282 270.776 110.784C268.565 106.306 265.331 102.231 262.584 98.0703Z" fill="#B84B0D"/>
<path d="M251.791 90.7186C250.596 89.3698 250.273 87.5078 250.389 85.7554C250.428 85.1823 250.702 84.8086 251.142 84.4502C252.219 83.5716 254.041 83.2972 255.381 83.4865C257.273 83.754 258.818 84.8311 259.893 86.3822C260.868 87.7913 261.565 90.3356 261.406 92.0387C261.068 90.2192 260.542 88.1483 259.404 86.6643C258.542 85.5399 257.274 84.6806 255.859 84.4788L255.932 84.734L255.91 84.7562L255.768 84.7195L255.532 84.662C254.753 84.4604 253.968 84.3703 253.161 84.4418C252.747 84.4786 252.422 84.5424 252.134 84.863C251.65 85.0716 251.065 85.4315 250.878 85.9638C250.367 87.4174 251.16 89.4212 251.791 90.7186Z" fill="#1E1209"/>
<path d="M218.734 148.523C218.948 148.623 221.86 153.896 222.414 154.722C226.141 160.277 230.161 165.512 234.392 170.691L234.302 170.678C233.5 170.326 232.28 168.585 231.673 167.895C226.431 161.94 221.809 155.902 218.734 148.523Z" fill="#AE3201"/>
<path d="M221.507 238.282C221.111 241.46 220.718 244.686 221.115 247.878L221.034 247.972L220.906 247.767C220.462 246.832 220.236 245.305 220.244 244.272C220.266 241.384 220.974 238.346 221.478 235.504C222.634 229.023 223.841 222.593 225.881 216.32L226.162 216.623C224.097 223.693 222.433 230.973 221.507 238.282Z" fill="#DC6819"/>
<path d="M251.93 152.494C251.696 154.178 251.764 155.83 251.346 157.517C250.233 162.011 248.284 166.2 245.691 170.035L245.537 169.963C247.567 165.832 249.061 161.725 250.191 157.262L250.944 153.608C251.078 152.799 251.081 151.837 251.456 151.102C251.627 151.554 251.838 152.02 251.93 152.494Z" fill="#AE3201"/>
<path d="M287.797 113.869C284.164 108.744 281.845 102.43 280.217 96.4121C279.718 94.567 279.129 92.4646 279.029 90.5547C279.38 91.2182 279.447 92.1321 279.651 92.8557C280.126 94.5469 280.695 96.238 281.45 97.8238C282.555 101.83 284.409 105.9 286.249 109.635C286.768 110.686 287.435 111.678 287.918 112.74L291.202 117.025L290.506 117.34C289.609 116.159 288.588 115.145 287.797 113.869Z" fill="#B84B0D"/>
<path d="M256.437 77.7703C257.347 77.4757 259.034 77.6848 260.014 77.7522L260.175 78.0106C259.64 80.1752 256.081 79.9418 254.331 80.4529C253.07 80.8209 251.973 81.3798 250.854 82.0571L248.465 84.0805C248.721 83.0832 249.021 81.9958 249.638 81.1538C251.184 79.0452 253.968 78.1045 256.437 77.7703Z" fill="#1E1209"/>
<path d="M238.428 191.982C238.219 193.065 237.801 194.085 237.43 195.118C236.265 198.361 234.704 201.467 232.933 204.415L230.296 208.69C229.067 210.704 227.813 212.727 226.904 214.911C226.52 215.423 226.362 216.025 226.161 216.627L225.88 216.324C226.179 215.76 226.332 214.945 226.537 214.331C227.087 212.671 227.689 210.841 228.585 209.335L228.692 209.155C226.861 210.773 224.741 211.647 222.424 212.334C227.894 209.104 231.538 204.701 234.776 199.299C236.103 197.08 237.426 194.64 238.254 192.182L238.339 191.922L238.428 191.982Z" fill="#AE3201"/>
<path d="M239.446 201.914C239.391 201.658 241.016 197.827 241.248 197.185C242.179 194.6 243.056 191.993 243.602 189.295L244.485 184.034C244.576 183.423 244.502 182.785 244.753 182.211C244.932 183.415 244.662 184.93 244.523 186.148C243.93 191.378 242.995 196.588 240.817 201.415C240.317 202.099 240.057 202.94 239.659 203.687C238.621 205.634 237.448 207.428 236.269 209.283C235.79 210.037 235.364 210.938 234.735 211.576L234.564 211.391C234.492 211.726 234.579 212.112 234.435 212.331L234.415 212.408C233.57 212.888 231.616 213.901 230.682 213.749C232.832 212.106 234.481 209.928 236.005 207.713C237.296 205.836 238.491 203.989 239.446 201.914Z" fill="#AE3201"/>
<path d="M255.931 84.7396L255.858 84.4844C257.273 84.6862 258.541 85.5455 259.403 86.6699C260.54 88.1539 261.067 90.2248 261.405 92.0443C261.466 92.4071 261.552 92.5742 261.4 92.9225C260.008 93.6797 258.291 93.864 256.724 93.7521C254.854 93.6185 253.486 92.7484 252.307 91.3461C253.234 91.6412 254.151 91.8407 255.129 91.7141C255.747 91.6339 256.338 91.0815 256.676 90.5871C257.318 89.6461 257.422 88.1428 257.225 87.0499C257.052 86.0843 256.756 85.3201 255.931 84.7396Z" fill="#FEFEFE"/>
<path d="M252.132 84.8673C252.42 84.5468 252.745 84.4829 253.16 84.4462C253.966 84.3747 254.751 84.4648 255.53 84.6664L255.767 84.7238L255.908 84.7606L255.931 84.7384C256.755 85.3188 257.051 86.083 257.225 87.0487C257.422 88.1417 257.317 89.6449 256.675 90.5859C256.338 91.0803 255.747 91.6327 255.128 91.713C254.151 91.8396 253.233 91.6401 252.306 91.3449L251.79 90.7231C251.158 89.4257 250.365 87.4219 250.877 85.9682C251.064 85.4358 251.648 85.0759 252.132 84.8673Z" fill="url(#paint2_linear_4343_10217)"/>
<path d="M252.132 84.8641C252.396 84.8442 252.677 84.8182 252.94 84.853C253.558 84.9341 254.447 85.5291 254.781 86.0421C255.025 86.4152 255.069 86.7474 254.993 87.1788C254.856 87.9477 255.151 88.9709 254.696 89.6096C254.481 89.7759 254.369 89.7756 254.107 89.8182C253.485 89.6129 253 89.4247 252.604 88.8772C251.998 88.0381 251.841 86.9434 251.995 85.9342L252.132 84.8641Z" fill="#1E1209"/>
<path d="M199.255 194.634C198.983 190.151 199.328 185.583 199.879 181.133C199.98 180.317 199.964 179.319 200.295 178.57C200.345 179.54 200.229 180.451 200.209 181.414L200.214 186.737C200.263 190.534 200.66 194.426 201.292 198.169C201.956 202.102 202.882 206.045 204.667 209.635C205.495 211.299 206.642 212.711 207.583 214.298L205.933 212.628L206.525 215.223L206.443 215.288L206.236 214.957C205.296 213.035 204.021 211.383 203.003 209.514C200.582 205.069 199.562 199.639 199.255 194.634Z" fill="#AE3201"/>
<path d="M239.444 201.914C238.489 203.988 237.294 205.835 236.005 207.713C234.482 209.927 232.831 212.107 230.68 213.75L230.203 213.972L226.904 214.911C227.813 212.726 229.068 210.704 230.296 208.69L232.933 204.415C233.445 204.376 234.077 204.09 234.576 203.928C236.287 203.369 237.836 202.72 239.444 201.914Z" fill="#DC6819"/>
<path d="M180.233 150.997C184.453 151.614 187.786 151.596 191.891 150.258C190.876 152.13 189.799 154.184 188.386 155.781C187.019 155.719 185.656 155.779 184.293 155.612C180.549 155.153 176.487 153.357 173.676 150.875C174.121 150.817 174.831 151.067 175.291 151.152C176.488 151.374 178.961 151.654 180.049 151.098L180.233 150.997Z" fill="#E57E26"/>
<path d="M251.025 63.8181C250.515 64.8714 249.998 65.8698 249.299 66.8116C248.821 67.4553 248.186 68.0763 247.772 68.7522C247.416 69.3314 247.188 70.0837 246.9 70.709C246.351 69.9081 245.97 68.9546 245.566 68.0737C244.667 66.1131 243.852 64.0758 243.432 61.9517C242.295 56.2035 244.153 50.3623 247.332 45.5859C247.354 46.7747 247.268 47.9823 247.452 49.1601C247.84 51.6303 248.375 54.1067 248.586 56.598C248.908 60.3826 248.6 64.2835 247.789 67.9898C249.477 66.4774 250.434 63.85 251.321 61.8173C251.472 61.9013 251.699 62.0011 251.827 62.1125C251.327 62.4889 251.222 63.2286 251.025 63.8181Z" fill="#8D4014"/>
<path d="M251.025 63.8151C251.222 63.2256 251.328 62.4859 251.827 62.1094C254.841 66.3314 258.74 69.9852 262.849 73.121C267.786 76.8886 273.539 80.2688 279.695 81.4959C280.251 81.6047 280.772 81.6767 281.339 81.6881L281.412 81.679L281.689 82.8084L280.208 84.2931C279.817 85.1068 279.621 85.764 279.519 86.6612L278.986 86.5736C278.451 86.3581 277.831 86.2639 277.277 86.0786C275.977 85.6432 274.68 85.133 273.431 84.5666C268.767 82.4517 264.681 79.5124 260.816 76.1906C258.797 74.4551 256.687 72.5484 255.092 70.4069C254.046 69.0029 253.095 67.5124 252.231 65.9907C251.868 65.3539 251.614 64.6475 251.193 64.0464L251.025 63.8151Z" fill="#E57E26"/>
<path d="M279.695 81.5C280.251 81.6088 280.772 81.6808 281.339 81.6922L281.412 81.6831L281.689 82.8125L280.208 84.2972C279.817 85.1109 279.621 85.7681 279.519 86.6653L278.986 86.5777C279.012 84.8234 279.071 83.1568 279.695 81.5Z" fill="#DC6819"/>
<path d="M281.338 81.6888L281.411 81.6797L281.688 82.8091L280.207 84.2937C280.12 84.1242 280.03 83.9671 280.018 83.7711C279.987 83.2772 280.134 82.1251 280.503 81.7602C280.758 81.8203 280.864 81.8271 281.126 81.7561L281.338 81.6888Z" fill="#E57E26"/>
<path d="M184.341 145.376C179.019 145.482 173.261 144.291 168.182 142.738C162.582 141.026 157.15 137.243 151.045 138.763C147.089 139.749 143.27 141.886 140.044 144.356C132.733 149.95 128.039 158.538 125.339 167.207L123.824 172.667C123.662 173.332 123.403 174.125 123.326 174.793C123.233 175.613 123.011 176.431 122.938 177.258C122.898 177.722 122.963 178.146 122.729 178.57C122.545 177.608 122.548 175.791 122.725 174.828C123.048 173.062 123.011 171.153 123.295 169.351C124.191 163.666 126.34 157.603 129.311 152.665C133.062 146.431 138.425 141.558 144.974 138.402C146.813 137.516 148.679 136.692 150.669 136.208C157.052 134.656 162.44 138.345 168.232 140.221C171.58 141.306 175.005 141.997 178.471 142.571L184.122 143.244C185.005 143.331 186.316 143.232 187.077 143.699C186.281 144.267 185.274 145.071 184.341 145.376Z" fill="#FECC5C"/>
<path d="M243.572 68.4922C243.898 68.9752 244.139 69.4658 244.512 69.9191C244.673 70.1156 244.788 70.2933 244.92 70.5071L245.933 71.8911L245.795 72.1084C245.408 71.7271 245.062 71.4025 244.774 70.9417L244.049 70.0174C241.093 73.3553 238.185 76.9879 235.816 80.7701C229.906 90.2058 226.106 101.573 223.393 112.316L221.603 120.748C221.352 122.089 221.326 123.722 220.812 124.959C219.229 120.153 218.908 114.75 219.726 109.768C220.476 105.208 221.942 100.885 223.622 96.5944C227.897 85.6775 233.902 75.463 243.572 68.4922Z" fill="#E57E26"/>
<path d="M291.201 117.023C292.002 118.04 292.174 118.58 292.051 119.889L292.033 120.032C291.417 121.696 290.73 123.172 289.877 124.731L289.824 124.908C289.606 125.678 289.506 126.43 289.513 127.232C289.529 129.159 290.197 131.776 288.161 132.976L287.358 133.345L287.194 133.414L284.79 134.106C284.363 133.814 283.892 133.886 283.383 133.858C282.386 133.802 281.304 133.77 280.34 133.497L280.14 133.437C275.849 132.179 273.936 127.958 271.679 124.472C271.354 123.969 270.908 123.118 270.365 122.872L269.984 122.848L269.889 122.669C269.66 122.187 269.65 121.896 269.832 121.398C270.255 121.012 270.532 120.883 271.098 120.792C272.841 121.293 274.295 122.815 275.577 124.043C275.597 122.256 275.494 119.633 276.673 118.139C277.184 117.491 277.821 117.176 278.638 117.123C280.555 116.999 281.803 118.402 283.149 119.533C283.924 120.183 285.679 121.528 286.71 121.398C288.154 121.216 289.58 118.445 290.506 117.339L291.201 117.023Z" fill="#AF5D22"/>
<path d="M288.629 122.707C288.924 121.718 289.359 120.148 290.131 119.451C290.56 119.063 290.812 118.97 291.37 118.977C291.626 119.309 291.825 119.676 292.034 120.037C291.418 121.701 290.731 123.178 289.878 124.736L288.629 122.707Z" fill="#721F01"/>
<path d="M287.195 133.416C287.242 132.985 287.36 132.603 287.491 132.193C287.852 131.066 287.714 129.795 287.744 128.619C287.797 126.532 287.971 124.689 288.629 122.703L289.878 124.733L289.825 124.91C289.607 125.681 289.507 126.432 289.514 127.234C289.53 129.161 290.198 131.778 288.162 132.978L287.359 133.347L287.195 133.416Z" fill="#8D4014"/>
<path d="M279.553 118.922C279.981 118.889 280.407 118.961 280.797 119.145C281.476 119.466 282.344 120.392 282.615 121.09L282.681 121.271C282.875 121.771 282.91 122.165 282.913 122.698C282.921 123.962 282.665 124.264 281.757 125.183C281.416 125.363 281.189 125.489 280.797 125.527C280.035 124.571 279.667 122.965 279.321 121.797C279.099 121.047 278.807 120.353 278.68 119.578C279.007 119.159 279.058 119.105 279.553 118.922Z" fill="#721F01"/>
<path d="M142.922 168.957L142.847 162.07C143.224 162.685 143.078 164.148 143.154 164.9L143.724 169.176L145.911 177.135C146.025 178.626 146.719 180.113 147.201 181.534C149.988 189.759 154.723 197.009 161.318 202.702L165.227 205.955L164.937 206.22C163.859 205.66 162.792 205.088 161.767 204.433C160.474 203.608 158.849 202.111 157.372 201.847L157.095 201.431C156.53 202.251 156.188 203.204 155.785 204.11L154.13 207.623L148.463 218.308L140.292 232.134C139.064 234.164 137.478 236.26 136.536 238.429C135.956 239.764 135.718 241.352 135.421 242.776L134.076 249.977C133.368 250.604 132.827 251.051 131.918 251.377C132.107 249.067 132.605 246.745 133.049 244.472C133.66 241.345 134.273 238.199 135.441 235.223C139.585 224.671 146.684 215.115 148.151 203.635C149.663 191.801 142.537 180.979 142.913 169.193L142.922 168.957Z" fill="#DC6819"/>
<path d="M142.921 168.957L142.846 162.07C143.223 162.685 143.077 164.148 143.153 164.9L143.723 169.176L145.91 177.135C146.024 178.626 146.718 180.113 147.2 181.534C149.987 189.759 154.722 197.009 161.318 202.702L165.226 205.955L164.936 206.22C163.858 205.66 162.791 205.088 161.766 204.433C160.473 203.608 158.848 202.111 157.372 201.847L157.094 201.431C156.983 200.945 155.619 199.68 155.229 199.232C153.801 197.595 152.575 195.747 151.486 193.871C147.301 186.662 144.734 178.231 143.396 170.05C143.304 169.491 143.333 169.373 142.921 168.957Z" fill="#AE3201"/>
<path d="M252.69 135.521L252.528 135.593C251.784 133.46 251.285 131.592 250.069 129.623C246.325 123.559 239.381 118.689 238.448 111.183C237.755 114.971 237.432 118.807 237.085 122.639C236.261 131.721 235.806 140.716 236.108 149.838L236.668 157.644C236.836 159.308 237.149 161.054 237.082 162.727L237.034 162.453C236.402 159.731 236.192 156.799 235.877 154.013C234.468 141.547 234.614 128.848 235.045 116.327C235.277 109.602 235.422 102.704 236.639 96.0733C237.73 90.1205 239.557 84.8155 242.251 79.3984L242.364 79.4713C240.102 86.0332 237.799 93.552 238.641 100.564C239.164 104.913 241.599 109.248 245.079 111.919C247.983 114.148 251.838 114.752 255.402 114.233L260.888 113.17C260.012 114.023 259.273 114.659 258.123 115.123L257.939 115.195C261.268 116.479 264.05 118.412 266.878 120.548C267.859 121.289 268.769 122.2 269.851 122.782L269.983 122.85L270.364 122.873C270.907 123.12 271.353 123.971 271.679 124.474C273.935 127.959 275.848 132.181 280.139 133.438L280.34 133.498C281.304 133.771 282.386 133.804 283.382 133.86C283.891 133.888 284.362 133.815 284.789 134.108L284.383 134.278C281.996 135.676 279.495 136.313 276.712 135.796L276.481 135.755C274.802 135.44 273.915 134.697 272.987 133.34C271.598 131.312 271.476 128.76 270.305 126.64C269.673 125.496 268.4 124.518 267.44 123.648C265.94 122.29 264.45 120.868 262.771 119.733C260.281 118.051 257.221 117.015 254.331 116.256C253.898 116.664 252.855 133.189 252.69 135.521Z" fill="#B84B0D"/>
<path d="M270.365 122.875C270.908 123.122 271.355 123.973 271.68 124.476C273.937 127.961 275.85 132.183 280.14 133.44L280.341 133.501C281.305 133.773 282.387 133.806 283.384 133.862C283.892 133.89 284.364 133.817 284.791 134.11L284.384 134.28C282.781 134.114 281.243 134.442 279.658 133.971C275.772 132.815 274.39 129.749 272.524 126.488L270.365 122.875Z" fill="#4D1600"/>
<path d="M145.91 177.141L146.057 177.38C146.638 178.347 147.08 179.433 147.61 180.434C148.381 181.891 149.248 183.294 150.168 184.661C156.353 193.855 165.863 200.995 176.623 203.824C180.655 204.884 185.001 205.364 189.103 204.434C193.124 203.522 195.985 201.027 198.113 197.584L199.006 195.977C199.24 195.549 199.237 195.106 199.256 194.632C199.563 199.636 200.583 205.067 203.004 209.512C204.022 211.381 205.297 213.033 206.237 214.955L206.444 215.285L206.526 215.22C206.648 215.526 206.724 215.797 206.78 216.121C206.331 216.423 205.511 216.251 204.954 216.389C198.238 216.588 191.559 215.905 185.037 214.234L180.258 212.868C174.997 211.165 169.877 208.966 165.226 205.961L161.318 202.708C154.723 197.014 149.987 189.764 147.2 181.539C146.719 180.118 146.025 178.632 145.91 177.141Z" fill="#DC6819"/>
<path d="M241.69 64.5156C242.166 65.9026 242.797 67.2423 243.571 68.4879C233.902 75.4587 227.897 85.6732 223.622 96.5901C221.942 100.881 220.476 105.203 219.726 109.764C218.907 114.745 219.229 120.149 220.812 124.954C222.065 128.393 224.228 130.801 227.516 132.445C227.715 132.544 227.643 132.493 227.782 132.678C227.409 133.494 226.598 134.007 225.769 134.307C222.994 135.312 220.246 134.931 217.595 133.774C218.68 138.642 221.338 143.428 223.57 147.863C221.58 147.696 219.672 147.456 217.818 146.648C216.375 146.02 215.156 145.166 213.867 144.281C214.166 147.219 214.407 150.126 214.147 153.08C213.68 158.387 211.468 163.659 208.136 167.793C205.113 171.545 201.343 173.945 196.926 175.714C197.247 174.571 198.563 172.986 198.189 171.816L196.583 172.517C196.168 172.754 196.309 172.554 195.918 172.528C195.633 172.509 194.946 172.806 194.647 172.89C193.517 173.207 192.376 173.52 191.224 173.746C189.382 174.107 187.468 174.356 185.592 174.407C181.582 174.515 177.538 174.013 173.751 172.662C172.587 172.247 171.349 171.77 170.438 170.911L170.446 170.546L170.874 170.304C171.725 170.781 172.934 170.853 173.9 170.963C174.166 170.883 174.065 170.929 174.309 170.795C174.79 170.53 175.831 170.769 176.374 170.838C177.09 170.929 177.847 170.81 178.563 170.898C179.379 170.998 180.635 171.137 181.444 170.944C182.45 170.703 183.623 170.885 184.631 170.643C186.394 170.219 187.92 170.12 189.514 169.098C191.55 167.794 193.329 166.192 195.04 164.492C198.6 160.954 201.392 156.696 203.356 152.079C205.063 148.067 206.084 143.808 206.98 139.559L210.468 122.1C211.954 115.504 213.836 109.167 216.118 102.805C217.568 98.7616 219.057 94.7169 220.927 90.8458C223.324 85.8838 226.356 81.0679 229.71 76.6995C232.562 72.9853 235.905 69.2911 239.725 66.5588C240.333 66.1233 241.008 65.7969 241.64 65.3971L241.69 64.5156Z" fill="#011D1B"/>
<path d="M173.9 170.961C183.55 172.183 192.758 170.659 200.614 164.605C201.569 163.869 202.418 162.859 203.399 162.195C201.519 165.902 199.695 169.297 196.676 172.231C196.515 172.388 196.547 172.29 196.583 172.515C196.168 172.753 196.309 172.552 195.918 172.526C195.633 172.508 194.946 172.804 194.647 172.888C193.517 173.206 192.376 173.518 191.224 173.744C189.382 174.105 187.468 174.355 185.592 174.406C181.582 174.513 177.538 174.012 173.751 172.661C172.587 172.246 171.349 171.769 170.438 170.909L170.446 170.545L170.874 170.302C171.725 170.78 172.935 170.851 173.9 170.961Z" fill="#E57E26"/>
<path d="M198.188 171.811C201.877 169.956 205.31 166.965 207.68 163.585C213.377 155.458 212.249 146.234 210.683 137.06C213.302 140.589 216.012 143.203 220.306 144.499L219.689 143.581C217.345 139.814 216.091 135.486 215.161 131.19C214.509 128.18 213.926 124.593 214.609 121.539C214.99 123.09 215.437 124.562 216.232 125.956C217.976 129.014 220.708 131.49 224.16 132.391L224.416 132.456C225.533 132.757 226.636 132.693 227.781 132.674C227.409 133.489 226.598 134.002 225.769 134.302C222.994 135.307 220.246 134.926 217.595 133.769C218.68 138.637 221.337 143.423 223.569 147.858C221.579 147.691 219.671 147.452 217.818 146.644C216.375 146.015 215.156 145.161 213.867 144.276C214.166 147.215 214.407 150.121 214.147 153.076C213.68 158.382 211.468 163.654 208.136 167.789C205.112 171.54 201.343 173.94 196.926 175.709C197.247 174.566 198.563 172.981 198.188 171.811Z" fill="#E57E26"/>
<path d="M234.007 63.9156C236.381 63.3804 238.496 63.4976 240.897 63.5773L241.575 64.2032L241.69 64.5206L241.641 65.402C241.009 65.8019 240.334 66.1283 239.726 66.5637C235.906 69.2961 232.563 72.9902 229.711 76.7044C226.357 81.0728 223.325 85.8887 220.928 90.8507C219.058 94.7219 217.569 98.7665 216.118 102.809C213.837 109.172 211.955 115.509 210.469 122.105L206.981 139.564C206.084 143.813 205.064 148.071 203.357 152.084C201.393 156.7 198.601 160.959 195.041 164.497C193.33 166.197 191.55 167.799 189.515 169.103C187.921 170.125 186.395 170.223 184.632 170.648C183.624 170.89 182.451 170.708 181.445 170.949C180.636 171.142 179.38 171.003 178.564 170.903C177.848 170.815 177.091 170.934 176.375 170.843C175.832 170.774 174.791 170.535 174.31 170.799C174.066 170.934 174.167 170.888 173.901 170.967C172.935 170.858 171.726 170.786 170.875 170.309C172.239 169.61 173.647 169.034 174.991 168.283C180.57 165.164 184.658 160.885 188.386 155.784C189.8 154.187 190.877 152.133 191.891 150.26C187.787 151.598 184.454 151.617 180.233 151C177.977 150.488 175.744 149.871 173.713 148.739C177.534 148.877 181.137 147.35 184.341 145.378C185.274 145.073 186.281 144.269 187.077 143.701L191.637 140.016C193.436 138.568 194.838 136.695 196.299 134.922C197.552 133.402 198.857 131.97 199.864 130.267L196.888 133.258C196.831 132.827 197.03 132.492 197.186 132.095L196.722 132.432L196.721 132.633L196.539 132.78C196.679 131.922 196.811 131.12 197.069 130.286C196.838 130.507 196.694 130.695 196.379 130.785C196.735 129.258 197.443 127.732 198.049 126.286C199.535 122.735 201.292 119.293 203.436 116.09L207.667 110.287L199.381 116.738C199.429 116.144 199.817 115.627 200.143 115.148L205.529 107.858L214.132 95.262L218.983 87.8023C218.34 88.0727 217.675 88.2477 217.086 88.6243L211.78 90.9624C211.774 90.8051 211.719 90.6424 211.762 90.4907C211.782 90.4172 212.175 90.0643 212.229 90.01C213.136 89.1087 214.155 88.2818 215.115 87.4351C218.994 84.0155 222.993 80.5037 226.358 76.5658C227.239 75.5356 229.45 73.0672 229.34 71.7146L231.099 70.748C229.219 71.0382 227.573 71.5186 225.783 72.1484L220.511 74.4307L220.667 74.1869C223.645 69.6106 228.547 65.1132 234.007 63.9156Z" fill="#00413A"/>
<path d="M193.318 139.576C195.822 137.355 197.583 134.805 199.693 132.249C200.72 131.006 201.869 129.892 202.799 128.569C203.123 128.108 203.445 127.601 203.889 127.25C202.726 129.551 201.142 131.612 199.538 133.619C197.784 135.813 195.968 137.922 193.905 139.836L193.318 139.576Z" fill="#00907D"/>
<path d="M193.319 139.578L193.905 139.838C190.352 143.161 186.217 146.292 181.597 147.94C180.918 148.182 180.105 148.538 179.381 148.535L179.426 148.379L183.086 146.859C184.215 146.316 185.192 145.558 186.24 144.879C188.76 143.249 191.111 141.636 193.319 139.578Z" fill="#006B5C"/>
<path d="M201.243 141.086C200.762 142.53 200.002 143.872 199.308 145.222C196.344 150.996 192.65 156.648 187.636 160.862L181.189 165.748L181.117 165.718C181.37 165.284 181.886 164.939 182.271 164.615C183.024 163.981 183.787 163.352 184.493 162.666C185.878 161.319 187.179 159.917 188.42 158.436L192.445 153.256L197.306 146.869L201.243 141.086Z" fill="#006B5C"/>
<path d="M225.782 72.147L220.51 74.4293L220.666 74.1855C223.644 69.6091 228.546 65.1117 234.006 63.9141L234.23 64.3851L234.358 64.4142C235.518 64.6931 236.662 65.1624 237.75 65.6468C233.967 66.1978 230.074 67.7734 226.892 69.8694C226.155 70.355 225.334 70.8238 224.706 71.4419C224.256 71.8852 223.512 72.1789 223.334 72.7658L223.554 72.8381L223.7 72.6938L223.882 72.6199L224.023 72.5471C224.291 72.4135 224.061 72.5246 224.429 72.4021C224.606 72.3428 224.597 72.3312 224.752 72.2539C225.087 72.0866 225.421 72.135 225.782 72.147Z" fill="url(#paint3_linear_4343_10217)"/>
<path d="M197.069 130.286C197.406 129.055 197.982 127.936 198.501 126.776C199.461 124.633 200.421 122.586 201.662 120.585C202.333 119.503 203.213 118.52 204.001 117.52C205.659 115.414 207.26 113.352 209.413 111.711L200.909 126.116C199.702 128.072 198.132 130.007 197.187 132.096L196.722 132.432L196.721 132.634L196.539 132.78C196.68 131.923 196.811 131.121 197.069 130.286Z" fill="#00907D"/>
<defs>
<linearGradient id="paint0_linear_4343_10217" x1="78.1064" y1="191.4" x2="82.9115" y2="157.88" gradientUnits="userSpaceOnUse">
<stop stop-color="#028B7D"/>
<stop offset="1" stop-color="#04A996"/>
</linearGradient>
<linearGradient id="paint1_linear_4343_10217" x1="278.803" y1="59.9235" x2="276.617" y2="57.8842" gradientUnits="userSpaceOnUse">
<stop stop-color="#9B3500"/>
<stop offset="1" stop-color="#B94B06"/>
</linearGradient>
<linearGradient id="paint2_linear_4343_10217" x1="256.759" y1="88.7408" x2="250.894" y2="87.2088" gradientUnits="userSpaceOnUse">
<stop stop-color="#00D3A4"/>
<stop offset="1" stop-color="#05EAD3"/>
</linearGradient>
<linearGradient id="paint3_linear_4343_10217" x1="229.466" y1="72.3718" x2="228.405" y2="64.9933" gradientUnits="userSpaceOnUse">
<stop stop-color="#028074"/>
<stop offset="1" stop-color="#009782"/>
</linearGradient>
</defs>
</svg>
