<svg width="364" height="364" viewBox="0 0 364 364" fill="none" xmlns="http://www.w3.org/2000/svg">
<path d="M97.6878 44.047C98.1452 44.0214 98.6045 43.9964 99.0629 44.0004C109.471 44.0914 128.719 57.5109 136.86 64.1787C139.658 66.496 142.328 68.9525 144.869 71.5483C159.967 67.2092 176.743 67.7708 191.86 71.6456C199.553 62.4039 212.042 53.9067 222.858 48.7775C224.696 47.9204 226.56 47.1263 228.452 46.395C232.137 44.9394 235.841 43.4457 239.776 44.8927C241.931 45.6848 243.488 47.264 244.427 49.327C245.852 52.4584 246.693 56.9194 247.322 60.3232C251.073 80.6051 248.55 105.266 241.39 124.574C243.069 128.534 244.453 132.701 245.951 136.737C246.879 139.239 248.454 142.629 248.886 145.217C249.102 146.508 248.854 147.851 248.55 149.109C245.75 160.688 238.605 170.827 229.3 178.12C226.514 180.304 223.507 182.185 220.497 184.039C222.308 189.442 223.355 195.144 224.244 200.76C224.601 203.015 224.58 205.568 225.235 207.744C225.672 209.197 226.485 210.58 227.173 211.925C228.384 214.295 229.649 216.651 230.727 219.085C237.462 234.295 240.619 246.191 239.429 262.93C241.309 260.06 243.428 257.372 245.056 254.336C249.889 245.319 250.365 234.912 249.111 224.966C248.553 220.54 247.632 216.067 248.285 211.6C248.882 207.517 250.705 203.065 254.124 200.548C256.598 198.727 259.872 198.019 262.893 198.522C266.225 199.077 268.941 201.159 270.873 203.859C277.861 213.622 278.561 233.785 276.65 245.35C276.21 249.855 274.458 255.384 272.837 259.618C272.668 260.057 272.494 260.493 272.315 260.927C272.136 261.362 271.953 261.794 271.765 262.225C271.577 262.655 271.384 263.084 271.187 263.51C270.99 263.937 270.789 264.361 270.583 264.783C270.377 265.205 270.166 265.625 269.951 266.043C269.736 266.461 269.517 266.876 269.294 267.289C269.07 267.702 268.842 268.113 268.609 268.521C268.377 268.929 268.14 269.335 267.899 269.738C267.658 270.142 267.413 270.542 267.163 270.94C266.914 271.338 266.66 271.734 266.402 272.126C266.144 272.519 265.882 272.909 265.616 273.296C265.35 273.683 265.079 274.067 264.805 274.448C264.531 274.83 264.252 275.208 263.97 275.583C263.688 275.959 263.401 276.331 263.111 276.701C262.821 277.07 262.527 277.436 262.229 277.799C261.931 278.162 261.629 278.522 261.323 278.879C261.017 279.236 260.708 279.59 260.395 279.94C260.082 280.29 259.765 280.637 259.444 280.98C259.124 281.323 258.8 281.664 258.472 282C258.144 282.337 257.813 282.67 257.478 282.999C257.144 283.329 256.805 283.655 256.464 283.977C256.122 284.3 255.777 284.618 255.428 284.933C255.08 285.248 254.728 285.56 254.373 285.867C254.018 286.175 253.66 286.479 253.298 286.779C252.937 287.079 252.572 287.375 252.205 287.667C251.837 287.959 251.466 288.248 251.092 288.532C250.718 288.817 250.341 289.097 249.961 289.373C249.582 289.65 249.199 289.922 248.813 290.191C248.428 290.459 248.039 290.723 247.648 290.983C247.257 291.243 246.863 291.499 246.466 291.751C246.069 292.002 245.67 292.25 245.268 292.493C244.866 292.736 244.462 292.975 244.055 293.21C241.398 294.748 238.587 295.992 235.787 297.241C237.356 299.612 238.602 301.932 238.604 304.846C238.605 307.441 237.61 310.103 235.753 311.94C234.567 313.113 232.936 313.968 231.305 314.313C228.466 314.915 223.561 314.563 220.512 314.556L200.745 314.561C199.625 315.951 198.228 317.045 196.582 317.745C193.223 319.174 184.256 319.509 180.542 319.079C179.92 319.011 179.307 318.901 178.7 318.75C178.094 318.598 177.5 318.407 176.919 318.177C174.036 317.009 172.526 315.295 171.322 312.46C169.074 312.463 166.827 312.495 164.581 312.554C163.914 314.173 163.043 315.543 161.643 316.637C157.811 319.633 153.246 319.35 148.675 319.129C146.704 319.035 144.713 318.979 142.754 318.745C139.471 318.353 136.892 317.324 134.806 314.674L115.7 314.664C112.41 314.666 108.956 314.884 105.689 314.588C104.747 314.503 103.822 314.326 102.932 314.002C100.93 313.272 99.6012 311.769 98.7315 309.873C97.4776 307.139 97.5043 304.158 98.5773 301.37C100.567 296.201 104.74 293.73 109.553 291.605C104.783 286.829 101.607 282.025 99.401 275.567C93.857 259.337 96.7831 239.553 103.431 224.092C104.689 221.167 106.086 218.181 107.605 215.383C108.308 214.089 109.46 212.774 109.911 211.382C110.633 209.157 110.562 206.457 110.988 204.129C112.212 197.441 114.099 191.039 117.107 184.926C105.876 177.997 96.4725 170.142 90.8944 157.871C89.5917 155.005 87.5571 149.995 87.4187 146.873C87.2427 142.907 92.7019 128.995 94.3527 124.61C93.0287 120.914 91.9285 117.152 91.0519 113.324C86.9304 95.5506 85.2161 74.8544 89.4615 56.9437C90.2123 53.7754 91.0334 50.272 92.7914 47.5012C93.9987 45.5989 95.4923 44.544 97.6878 44.047Z" fill="#09153C"/>
<path d="M243.548 141.539C244.046 143.125 245.433 145.48 244.89 147.104L244.22 146.789C243.477 146.662 242.661 146.718 241.906 146.71C242.611 145.085 243.051 143.241 243.548 141.539Z" fill="#E27A20"/>
<path d="M101.559 306.921L105.694 306.375C105.839 308.176 106.091 309.646 107.323 311.067C105.722 310.989 104.151 311.019 102.966 309.759C102.233 308.98 101.837 307.935 101.559 306.921Z" fill="#C0C0C2"/>
<path d="M91.25 148.195L91.5724 148.2C92.3476 149 92.7984 150.365 93.3469 151.351C93.9927 152.512 97.6034 158.673 98.5085 158.949C97.6192 159.109 96.7534 159.335 95.8801 159.563C93.8578 155.902 92.3652 152.224 91.25 148.195Z" fill="#C0C0C2"/>
<path d="M174.781 307.373C174.834 307.615 174.784 307.483 174.975 307.753C175.9 307.8 178.818 306.576 179.924 306.281C178.78 308.54 178.515 311.75 179.301 314.162C179.414 314.503 179.535 314.842 179.664 315.178C177.841 314.531 175.957 313.871 175.089 311.976C174.417 310.507 174.59 308.923 174.781 307.373Z" fill="#C0C0C2"/>
<path d="M136.047 308.055C137.119 309.217 138.212 310.091 139.873 310.169C141.213 310.231 142.444 309.81 143.662 309.303C143.394 311.448 143.639 313.158 144.329 315.188C142.064 315.109 139.735 314.507 138.071 312.878C136.767 311.602 136.085 309.867 136.047 308.055Z" fill="#C0C0C2"/>
<path d="M109.759 219.359C109.736 220.938 109.699 222.516 109.649 224.093C108.385 225.597 104.947 234.214 104.099 236.535C103.503 238.169 102.625 241.787 101.479 242.994C102.496 235.275 106.312 226.329 109.759 219.359Z" fill="#FEC568"/>
<path d="M115.832 304.141C115.282 306.512 115.092 308.606 116.433 310.789L116.515 310.921C114.608 310.926 112.682 310.982 110.778 310.894C109.231 309.736 108.584 308.59 108.027 306.744C111.069 306.415 113.392 306.153 115.832 304.141Z" fill="#C0C0C2"/>
<path d="M192.652 307.102C195.088 308.001 196.719 308.201 199.304 308.054C199.277 309.575 198.852 311.061 197.905 312.27C196.402 314.187 194.282 314.826 191.973 315.105C192.029 315.003 192.085 314.899 192.139 314.796C193.394 312.382 193.485 309.665 192.652 307.102Z" fill="#C0C0C2"/>
<path d="M96.6504 160.948L99.7171 160.141C101.637 163.062 104.946 166.102 107.803 168.162C106.478 168.873 105.227 169.688 103.998 170.555C101.338 167.476 98.8992 164.343 96.6504 160.948Z" fill="#C0C0C2"/>
<path d="M241.313 148.245L244.636 148.18C243.666 152.274 242.12 156.044 240.302 159.824C238.89 159.358 237.402 158.884 235.938 158.612C238.345 155.722 240.254 151.944 241.23 148.329L241.313 148.245Z" fill="#C0C0C2"/>
<path d="M235.233 159.938C236.689 160.314 238.132 160.735 239.562 161.201C237.502 164.452 235.051 168.011 232.053 170.445C230.632 169.475 229.12 168.663 227.617 167.829C230.379 165.436 232.659 162.525 235.233 159.938Z" fill="#C0C0C2"/>
<path d="M181.87 306.523C182.227 307.536 182.824 308.465 183.807 308.965C185.451 309.8 187.659 309.463 189.343 308.863C189.908 308.662 190.444 308.363 190.972 308.081C191.052 308.549 191.078 309.052 191.077 309.529C191.073 311.233 190.718 313.121 189.425 314.338C187.861 315.808 185.57 315.611 183.591 315.545C183.578 315.536 183.565 315.526 183.552 315.517C182.828 315.027 182.318 314.548 181.877 313.785C180.553 311.495 181.264 308.901 181.87 306.523Z" fill="#C0C0C2"/>
<path d="M145.935 308.806C148.476 308.499 150.148 306.215 152.521 305.489C155.671 304.524 158.672 306.195 161.336 307.67C161.574 309.407 161.308 311.4 160.192 312.801C159.213 314.03 157.79 314.622 156.34 315.087C157.074 312.6 157.386 309.426 156.156 307.023C155.923 306.567 155.552 306.093 155.015 305.999C154.744 305.952 154.55 306.036 154.305 306.133C153.967 306.511 153.911 306.868 153.95 307.358C154.137 309.69 155.407 312.401 153.637 314.515C153.031 315.239 152.123 315.517 151.209 315.562C149.934 315.623 147.79 315.628 146.858 314.686C145.787 313.603 145.62 311.956 145.665 310.498C145.682 309.935 145.743 309.338 145.935 308.806Z" fill="#C0C0C2"/>
<path d="M101.558 306.917C101.172 305.187 101.591 303.217 102.363 301.644C104.405 297.487 108.652 295.755 112.769 294.336C114.275 295.484 115.864 296.532 117.417 297.615C117.339 299.371 117.094 301.038 116.552 302.715C116.308 303.171 115.992 303.653 115.833 304.145C113.394 306.158 111.07 306.419 108.029 306.748C107.991 305.543 108.86 303.269 108.498 302.276C108.391 301.983 108.208 301.797 107.897 301.721C107.547 301.636 107.156 301.768 106.881 301.985C106.05 302.638 105.799 305.338 105.693 306.371L101.558 306.917Z" fill="#FEFEFE"/>
<path d="M117.416 297.617C121.691 300.158 126.009 302.142 130.742 303.679C131.512 304.565 132.107 305.604 132.729 306.596C132.445 308.123 132.556 309.397 132.794 310.926C128.587 310.918 124.312 311.098 120.114 310.922C118.913 310.082 118.22 309.251 117.949 307.761C117.715 306.479 118.566 303.974 117.469 303.138C117.211 302.941 116.853 302.827 116.551 302.716C117.093 301.039 117.338 299.373 117.416 297.617Z" fill="#C0C0C2"/>
<path d="M196.117 73.2063L196.3 72.9808C197.701 71.2572 199.458 69.7429 201.095 68.2477C202.095 67.3268 203.115 66.4278 204.154 65.5508C205.192 64.6738 206.25 63.8194 207.325 62.9879C208.401 62.1564 209.494 61.3485 210.604 60.564C211.715 59.7794 212.841 59.0192 213.985 58.2833C215.128 57.5473 216.286 56.8363 217.46 56.1502C218.634 55.4641 219.822 54.8035 221.024 54.1686C222.226 53.5336 223.441 52.9248 224.67 52.3421C225.898 51.7594 227.138 51.2034 228.39 50.6741C230.726 49.6805 233.281 48.5004 235.833 48.2907C237.164 48.1814 238.847 48.4103 239.87 49.3538C242.431 51.7141 244.446 65.7684 244.693 69.6653C244.67 69.6204 244.646 69.5761 244.624 69.5309C242.777 65.6978 242.373 52.6823 238.288 51.0559C235.391 49.902 229.569 52.7259 226.812 54.0069C216.372 58.8565 206.943 66.3845 198.461 74.0696C197.676 73.7928 196.894 73.505 196.117 73.2063Z" fill="#FEC568"/>
<path d="M265.596 203.656C270.46 207.186 272.238 215.851 273.143 221.551C274.909 232.659 273.909 247.28 269.738 257.765C269.001 255.735 268.309 253.678 267.095 251.874L267.045 251.755C267.082 251.692 267.124 251.632 267.156 251.567C268.302 249.261 269.052 244.977 269.573 242.378C271.721 231.657 271.839 219.923 268.189 209.489C267.479 207.461 266.435 205.621 265.596 203.656Z" fill="#C0C0C2"/>
<path d="M241.574 75.3125C242.899 76.7649 244.181 78.3238 245.253 79.9738C245.644 91.7349 242.695 107.249 239.258 118.585C238.292 116.277 237.477 113.911 236.486 111.609C237.279 109.497 237.761 107.212 238.306 105.025C238.62 103.815 238.912 102.6 239.182 101.38C239.452 100.159 239.7 98.9341 239.926 97.7048C240.152 96.4752 240.355 95.2422 240.537 94.0054C240.718 92.7687 240.877 91.5292 241.013 90.2867C241.15 89.0442 241.264 87.7997 241.356 86.5532C241.448 85.3065 241.517 84.0587 241.564 82.8096C241.61 81.5605 241.635 80.3111 241.636 79.0612C241.638 77.8112 241.617 76.5617 241.574 75.3125Z" fill="#C26312"/>
<path d="M120.428 186.664C126.676 189.427 132.792 191.657 139.443 193.276C139.365 195.724 139.246 199.831 138.689 202.126C131.441 199.599 124.47 196.789 117.52 193.521C118.392 191.19 119.322 188.896 120.428 186.664Z" fill="#C26312"/>
<path d="M94.5215 76.4766C95.1241 87.2598 95.7714 100.497 100.897 110.27C99.3912 113.263 98.0965 116.372 96.5768 119.347C95.8363 116.757 95.1669 114.149 94.5688 111.522C93.9703 108.896 93.444 106.255 92.9894 103.6C92.535 100.945 92.1531 98.2798 91.8439 95.604C91.5347 92.9282 91.2987 90.2459 91.1355 87.5572C91.0241 85.5066 90.825 83.3845 90.9155 81.3349C91.614 81.1717 92.3999 80.5882 93.0328 80.219C93.5008 79.9639 93.9711 79.7729 94.4687 79.5834C94.4529 78.5427 94.452 77.5154 94.5215 76.4766Z" fill="#C26312"/>
<path d="M97.812 48.0563C98.3672 48.0105 98.9234 47.9926 99.4805 48.0027C107.946 48.1675 127.747 61.8607 134.509 67.395C136.646 69.1443 138.599 71.0494 140.499 73.0517C139.816 73.2491 139.144 73.4973 138.471 73.7266C129.687 66.0359 118.465 57.9531 107.773 53.2225C105.518 52.2249 102.77 50.9931 100.254 51.1383C99.1754 51.2004 98.1824 51.546 97.4594 52.3755C93.4167 57.0129 92.9089 74.0155 93.0325 80.2187C92.3996 80.5879 91.6138 81.1713 90.9152 81.3346C90.8592 73.2393 91.5527 64.9593 93.358 57.0621C94.0711 53.9428 94.9187 49.8695 97.812 48.0563Z" fill="url(#paint0_linear_4343_10174)"/>
<path d="M195.666 193.474C203.256 192.082 210.584 189.043 217.457 185.617C218.192 187.987 218.717 190.419 219.25 192.84C214.027 196.009 208.502 198.227 202.741 200.206C200.796 200.874 198.785 201.629 196.768 202.041C196.2 199.215 195.947 196.339 195.666 193.474Z" fill="#C26312"/>
<path d="M185.293 73.8828C188.75 74.6505 192.096 75.5193 195.404 76.7962C208.662 81.9138 219.825 91.8893 227.408 103.798C228.673 105.801 229.867 107.845 230.991 109.931C232.114 112.017 233.163 114.14 234.138 116.299L233.855 116.572C233.66 116.555 229.403 110.026 228.821 109.165C221.258 97.9691 210.618 87.9469 198.291 82.1943C193.593 80.0022 188.511 78.4181 183.488 77.175C184.027 76.0325 184.638 74.9627 185.293 73.8828Z" fill="#FEC568"/>
<path d="M136.048 308.059C135.873 306.172 136.723 304.107 137.83 302.611C139.884 299.835 143.292 298.095 146.671 297.621C146.899 297.59 147.127 297.563 147.355 297.542C147.584 297.521 147.813 297.506 148.042 297.497C148.271 297.487 148.5 297.483 148.73 297.485C148.96 297.486 149.189 297.494 149.418 297.507C149.647 297.519 149.876 297.538 150.104 297.562C150.332 297.586 150.56 297.616 150.787 297.651C151.013 297.686 151.239 297.727 151.464 297.774C151.689 297.82 151.912 297.872 152.134 297.929C152.356 297.986 152.577 298.049 152.796 298.117C153.016 298.185 153.233 298.259 153.449 298.338C153.664 298.417 153.878 298.5 154.089 298.59C154.3 298.679 154.509 298.773 154.716 298.873C154.923 298.973 155.127 299.077 155.329 299.187C155.531 299.296 155.729 299.411 155.925 299.53C156.122 299.649 156.315 299.773 156.504 299.902C156.694 300.031 156.881 300.164 157.065 300.302C159.465 302.141 160.953 304.666 161.337 307.665C158.672 306.19 155.672 304.519 152.522 305.484C150.149 306.21 148.476 308.494 145.936 308.801C146.103 307.981 146.232 307.235 145.814 306.474C145.627 306.36 145.581 306.267 145.348 306.324C144.876 306.438 144.456 306.926 144.23 307.339C144.041 307.683 143.977 308.08 143.885 308.456C143.815 308.741 143.736 309.024 143.663 309.308C142.445 309.815 141.215 310.236 139.874 310.174C138.213 310.096 137.121 309.221 136.048 308.059Z" fill="#FEFEFE"/>
<path d="M174.781 307.367C175.537 304.05 176.975 301.465 179.902 299.602C180.093 299.483 180.287 299.368 180.484 299.258C180.68 299.148 180.88 299.042 181.082 298.942C181.284 298.841 181.488 298.746 181.695 298.656C181.901 298.566 182.11 298.481 182.321 298.401C182.532 298.321 182.745 298.246 182.959 298.176C183.174 298.107 183.39 298.043 183.607 297.984C183.825 297.925 184.044 297.872 184.265 297.824C184.485 297.775 184.706 297.733 184.929 297.696C185.151 297.659 185.374 297.627 185.598 297.601C185.822 297.574 186.047 297.554 186.272 297.539C186.497 297.524 186.722 297.514 186.947 297.51C187.173 297.506 187.399 297.507 187.624 297.515C187.849 297.522 188.074 297.534 188.299 297.552C188.524 297.57 188.748 297.594 188.972 297.623C189.196 297.653 189.418 297.687 189.64 297.727C189.862 297.768 190.083 297.813 190.303 297.864C193.37 298.559 196.103 300.185 197.788 302.89C198.774 304.472 199.237 306.201 199.305 308.055C196.72 308.202 195.089 308.002 192.653 307.102C192.324 306.652 192.097 306.336 191.593 306.081L191.22 306.08C190.877 306.494 190.829 306.694 190.873 307.232C190.896 307.512 190.937 307.792 190.973 308.07C190.445 308.353 189.909 308.652 189.344 308.853C187.66 309.452 185.452 309.79 183.808 308.955C182.825 308.455 182.228 307.526 181.871 306.513C181.593 306.155 181.461 306.014 181.023 305.839C180.524 305.847 180.312 305.998 179.925 306.275C178.819 306.57 175.9 307.794 174.975 307.747C174.785 307.476 174.834 307.609 174.781 307.367Z" fill="#FEFEFE"/>
<path d="M99.1426 63.7588C99.5785 62.2502 100.049 60.3703 101.516 59.5305C102.552 58.9379 103.754 59.2041 104.831 59.5398C114.592 62.5792 124.028 70.0336 130.462 77.8926C127.944 79.2642 125.666 80.8222 123.316 82.4531C121.354 78.2945 116.863 73.3335 113.445 70.1902C108.987 66.0905 105.334 63.4842 99.1426 63.7588Z" fill="#C95A57"/>
<path d="M93.0337 80.2172C92.91 74.014 93.4178 57.0114 97.4605 52.3739C98.1836 51.5444 99.1767 51.199 100.255 51.1367C102.771 50.9916 105.519 52.2233 107.774 53.221C118.466 57.9516 129.688 66.0342 138.472 73.7251L133.447 76.0879C126.595 68.6347 118.766 61.5059 109.337 57.4944C107.241 56.6022 104.898 55.7316 102.597 55.6361C101.315 55.5828 99.991 55.7784 99.0281 56.6941C94.9208 60.5991 94.8034 71.0402 94.5223 76.4747C94.4529 77.5136 94.4537 78.5409 94.4696 79.5816C93.9721 79.7711 93.5017 79.9621 93.0337 80.2172Z" fill="#F98D27"/>
<path d="M206.744 78.2381C212.807 69.6302 222.163 62.2459 232.15 58.8139C233.017 58.5162 234.12 58.243 234.971 58.719C236.392 59.5145 236.886 63.7012 237.199 65.2326C236.076 64.2674 235.032 63.3686 233.457 63.4814C229.62 63.7557 225.126 69.1163 222.778 71.9669C219.867 75.5027 216.796 79.5616 214.848 83.7241C212.199 81.7658 209.553 79.962 206.744 78.2381Z" fill="#C95A57"/>
<path d="M198.459 74.0661C206.941 66.381 216.37 58.8529 226.81 54.0034C229.567 52.7224 235.389 49.8984 238.287 51.0524C242.371 52.6788 242.775 65.6941 244.622 69.5274C244.644 69.5726 244.668 69.6169 244.691 69.6618C245.322 72.0393 245.262 77.343 245.254 79.9712C244.182 78.3212 242.9 76.7623 241.575 75.3099C241.489 74.1957 241.397 73.0821 241.297 71.9692C240.948 68.0639 240.083 58.7275 236.988 56.2774C235.916 55.4287 234.561 55.1453 233.22 55.3033C230.759 55.593 228.268 56.8056 226.053 57.8724C216.455 62.4943 210.302 68.2357 203.722 76.4901C202.015 75.534 200.286 74.757 198.459 74.0661Z" fill="#F98D27"/>
<path d="M90.8359 146.561C94.1479 133.306 101.331 116.574 108.404 104.957C118.175 88.9081 132.137 78.3619 150.419 73.9141C151.063 74.9689 151.636 76.0368 152.182 77.1457C147.816 78.7161 143.312 79.7981 139.065 81.7118C120.794 89.9449 110.279 105.144 101.991 122.784C99.7415 127.572 97.8212 132.514 95.8899 137.436C94.7687 140.293 93.1926 143.539 92.7489 146.569L90.8359 146.561Z" fill="#FEC568"/>
<path d="M109.649 224.102C109.812 227.526 109.867 230.944 110.126 234.365C110.305 236.722 110.68 239.071 110.838 241.423C109.089 244.727 108.528 256.818 108.753 260.915C108.885 263.318 109.72 267.329 109.061 269.553C108.811 270.398 107.934 270.868 107.145 271.108C105.524 271.601 103.494 271.522 101.886 271.014C100.169 263.872 99.8939 256.63 100.518 249.333C100.696 247.255 100.883 245.005 101.479 243.002C102.625 241.795 103.503 238.177 104.1 236.543C104.947 234.223 108.385 225.605 109.649 224.102Z" fill="#F98D27"/>
<path d="M225.205 293.148C225.425 293.239 225.636 293.329 225.849 293.435C229.493 295.246 233.557 298.905 234.772 302.908C235.278 304.579 235.174 306.463 234.331 308.009C233.309 309.881 231.581 310.652 229.63 311.187C230.686 308.774 231.567 305.727 230.83 303.086C230.707 302.645 230.488 302.235 230.051 302.038C229.7 301.879 229.445 301.952 229.12 302.102C228.432 303.19 228.762 304.803 228.698 306.044C228.605 307.845 227.999 309.525 226.633 310.732L226.471 310.872C224.319 310.902 222.166 310.898 220.013 310.862C220.876 308.822 221.072 306.962 220.815 304.775C220.813 304.763 220.812 304.752 220.81 304.74C220.636 303.891 220.56 302.934 219.783 302.418C219.33 302.36 219.264 302.362 218.848 302.548C218.2 303.481 218.598 305.084 218.61 306.196C218.631 308.101 218.252 309.46 216.897 310.841C215.085 311 213.216 310.922 211.398 310.923C208.445 310.942 205.492 310.923 202.539 310.863C202.835 309.617 202.885 308.338 202.91 307.063C203.701 305.949 204.358 304.739 205.042 303.558C212.266 301.237 219.452 298.213 225.205 293.148Z" fill="#C0C0C2"/>
<path d="M225.595 216.219C233.706 235.423 238.852 248.705 234.537 269.873C232.591 270.742 230.231 271.514 228.103 270.861C227.27 270.606 226.295 269.922 226.121 269.013C225.739 267.017 227.116 262.165 227.368 259.783C227.971 254.076 227.13 247.984 226.387 242.334C226.206 240.965 226.151 238.917 225.496 237.701C225.765 230.521 225.656 223.397 225.595 216.219Z" fill="#F98D27"/>
<path d="M267.095 251.867C268.309 253.671 269.001 255.728 269.738 257.758C269.093 259.907 268.024 261.942 267.019 263.942C266.663 264.651 266.295 265.354 265.912 266.049C265.53 266.745 265.135 267.432 264.726 268.113C264.318 268.793 263.897 269.465 263.463 270.13C263.029 270.794 262.583 271.45 262.124 272.097C261.665 272.745 261.194 273.383 260.711 274.013C260.228 274.642 259.733 275.262 259.227 275.873C258.72 276.484 258.202 277.084 257.672 277.675C257.143 278.267 256.602 278.847 256.051 279.418C255.499 279.988 254.937 280.548 254.365 281.097C253.792 281.647 253.209 282.185 252.616 282.712C252.022 283.239 251.419 283.754 250.807 284.258C250.194 284.762 249.572 285.255 248.94 285.735C248.309 286.216 247.668 286.684 247.019 287.14C246.37 287.596 245.712 288.04 245.046 288.471C244.38 288.902 243.706 289.321 243.024 289.726C242.342 290.131 241.652 290.524 240.955 290.903C238.47 292.23 235.908 293.388 233.27 294.377C231.708 292.748 230.268 291.765 228.223 290.821C230.377 288.224 232.273 285.613 233.92 282.658C236.612 282.644 239.482 281.583 241.893 280.463C251.345 276.071 259.508 267.712 264.295 258.497C265.406 256.358 266.262 254.125 267.095 251.867Z" fill="#C26312"/>
<path d="M155.43 271.329C155.973 271.832 156.405 272.518 156.89 273.082C158.215 274.626 159.621 275.982 161.347 277.072C164.195 278.87 167.48 279.701 170.807 278.911C171.007 278.863 171.204 278.81 171.401 278.751C171.598 278.694 171.793 278.631 171.986 278.563C172.18 278.496 172.372 278.424 172.562 278.348C172.752 278.271 172.941 278.19 173.127 278.105C173.313 278.019 173.498 277.93 173.68 277.835C173.862 277.741 174.041 277.642 174.218 277.539C174.396 277.436 174.571 277.329 174.743 277.218C174.915 277.107 175.084 276.991 175.251 276.872C175.418 276.753 175.582 276.629 175.742 276.502C175.903 276.375 176.061 276.244 176.215 276.109C176.37 275.974 176.521 275.836 176.669 275.694C176.817 275.552 176.961 275.407 177.102 275.258C177.243 275.109 177.38 274.957 177.514 274.801C177.647 274.646 177.777 274.487 177.903 274.326C178.029 274.164 178.151 273.999 178.27 273.832C178.388 273.664 178.502 273.494 178.612 273.321C179.327 272.195 179.864 270.98 180.566 269.855L180.632 269.75C180.417 273.072 179.432 276.581 178.775 279.862C177.966 284.022 177.089 288.167 176.143 292.298C175.69 294.304 175.307 296.385 174.704 298.35C174.279 299.733 173.438 300.823 172.721 302.056C171.707 303.8 171.455 305.922 171.256 307.891C169.052 307.837 166.84 307.785 164.636 307.903C164.468 306.046 164.264 304.15 163.49 302.432C162.812 300.927 162.026 299.674 161.592 298.058C159.262 289.212 157.208 280.302 155.43 271.329Z" fill="#C0C0C2"/>
<path d="M110.839 241.414C111.715 246.393 112.502 251.353 113.623 256.289C114.82 261.407 116.219 266.468 117.821 271.474C119.422 276.48 121.22 281.414 123.216 286.276C124.298 288.965 125.476 291.612 126.751 294.216C127.59 295.939 128.577 297.657 129.292 299.431C118.806 295.373 108.936 288.516 104.238 277.964C103.238 275.72 102.505 273.38 101.887 271.005C103.494 271.513 105.525 271.591 107.146 271.099C107.935 270.859 108.812 270.389 109.062 269.544C109.721 267.32 108.886 263.309 108.754 260.905C108.529 256.809 109.09 244.719 110.839 241.414Z" fill="#C26312"/>
<path d="M225.497 237.703C226.152 238.919 226.207 240.967 226.387 242.337C227.131 247.986 227.972 254.078 227.368 259.786C227.116 262.167 225.739 267.02 226.121 269.016C226.295 269.924 227.27 270.608 228.103 270.864C230.231 271.516 232.592 270.744 234.537 269.875C233.702 273.949 232.394 277.755 230.469 281.439C225.662 290.635 216.386 296.817 206.648 299.902C208.471 296.038 210.529 292.31 212.244 288.388C217.414 276.566 221.215 263.808 223.619 251.135C224.131 248.49 224.548 245.831 224.868 243.156C225.08 241.391 225.18 239.593 225.473 237.841L225.497 237.703Z" fill="#C26312"/>
<path d="M251.772 247.202C254.641 245.849 257.175 245.274 260.247 246.38C263.116 247.412 265.118 249.483 267.043 251.757L267.094 251.877C266.261 254.134 265.405 256.368 264.294 258.507C259.506 267.722 251.343 276.08 241.891 280.472C239.48 281.593 236.611 282.653 233.918 282.668C234.613 281.266 235.244 279.837 235.812 278.38C236.38 276.922 236.882 275.443 237.319 273.941C237.754 272.419 237.816 270.484 238.538 269.097C239.471 267.304 241.425 265.705 242.738 264.123C247.009 258.978 249.785 253.576 251.772 247.202Z" fill="#F98D27"/>
<path d="M139.443 193.273C157.998 197.631 177.056 197.461 195.665 193.479C195.946 196.344 196.2 199.22 196.767 202.046C193.308 202.85 189.936 203.991 186.462 204.737C185.104 205.018 183.741 205.267 182.372 205.487C181.004 205.706 179.631 205.895 178.254 206.052C176.877 206.21 175.496 206.337 174.114 206.432C172.731 206.528 171.347 206.593 169.961 206.627C168.575 206.66 167.19 206.663 165.804 206.635C164.418 206.606 163.033 206.547 161.65 206.456C160.267 206.366 158.887 206.244 157.509 206.092C156.131 205.939 154.758 205.756 153.388 205.542C150.383 205.044 147.401 204.428 144.444 203.696C143.008 203.335 140.003 202.252 138.7 202.226L138.689 202.124C139.246 199.828 139.366 195.722 139.443 193.273Z" fill="#C0C0C2"/>
<path d="M214.85 83.721C216.797 79.5585 219.868 75.4997 222.78 71.9638C225.128 69.1132 229.622 63.7526 233.458 63.4784C235.033 63.3655 236.078 64.2642 237.2 65.2295C239.395 76.8895 238.5 88.8017 235.951 100.343C235.425 102.725 234.924 105.145 234.184 107.471C232.651 105.015 231.266 102.461 229.69 100.034C225.709 93.9049 220.648 88.1916 214.85 83.721Z" fill="#F3816B"/>
<path d="M99.1405 63.7542C105.332 63.4796 108.985 66.0858 113.443 70.1854C116.861 73.3288 121.352 78.2897 123.315 82.4483C122.552 83.0408 121.802 83.648 121.064 84.2698C120.325 84.8917 119.599 85.5279 118.886 86.1784C118.172 86.8286 117.472 87.4927 116.784 88.1706C116.097 88.8482 115.423 89.5391 114.762 90.2433C114.102 90.9475 113.456 91.6644 112.823 92.3938C112.191 93.1234 111.573 93.8649 110.97 94.6187C110.366 95.3723 109.778 96.1376 109.205 96.9144C108.631 97.6911 108.073 98.4787 107.531 99.2772C105.86 101.76 104.425 104.401 102.809 106.921C97.7765 95.225 96.5166 76.179 99.1405 63.7542Z" fill="#F3816B"/>
<path d="M226.731 169.062C228.225 169.819 229.612 170.718 230.969 171.698C227.269 174.999 223.464 177.966 219.193 180.502C201.793 190.835 179.991 193.813 160.07 192.67C140.787 191.564 119.283 185.603 105.314 171.538C106.46 170.655 107.656 169.849 108.949 169.195C110.251 170.553 112.017 171.719 113.571 172.787C124.712 180.445 139.472 184.745 152.766 186.497C178.229 189.852 206.035 184.962 226.731 169.062Z" fill="#C0C0C2"/>
<path d="M251.773 247.198C253.437 241.482 253.588 235.187 253.262 229.272C252.858 221.945 249.67 211.787 254.463 205.428C255.781 203.679 257.641 202.504 259.83 202.203C261.885 201.921 263.932 202.402 265.596 203.655C266.435 205.62 267.479 207.46 268.188 209.488C271.839 219.922 271.72 231.656 269.572 242.377C269.052 244.976 268.302 249.26 267.156 251.566C267.124 251.631 267.082 251.691 267.045 251.754C265.12 249.48 263.117 247.408 260.249 246.376C257.176 245.27 254.642 245.845 251.773 247.198Z" fill="#FEFEFE"/>
<path d="M219.25 192.852C221.589 205.184 222.136 216.244 222.011 228.752C221.975 232.357 222.089 236.265 221.63 239.828C219.056 238.983 216.707 238.081 214.495 236.481C203.986 228.878 198.786 214.441 196.768 202.053C198.785 201.641 200.796 200.886 202.74 200.218C208.502 198.239 214.027 196.021 219.25 192.852Z" fill="#F98D27"/>
<path d="M117.52 193.523C124.47 196.791 131.441 199.601 138.69 202.128L138.7 202.23C137.115 214.397 133.605 227.566 123.407 235.394C120.514 237.615 117.786 238.677 114.281 239.507C112.593 224.328 112.59 208.131 117.52 193.523Z" fill="#F98D27"/>
<path d="M196.768 202.055C198.786 214.443 203.986 228.88 214.496 236.483C216.707 238.083 219.056 238.985 221.631 239.83C219.847 256.397 214.796 273.725 207.978 288.946C205.98 293.408 203.517 297.634 201.468 302.066C199.253 298.265 196.055 295.668 191.763 294.553C187.397 293.419 182.929 294.041 178.935 296.053C181.828 282.956 184.524 269.67 185.763 256.299C185.876 255.078 186.539 252.082 185.798 251.084C185.585 250.797 185.445 250.768 185.123 250.741C184.448 251.16 184.179 252.961 184.004 253.724C182.787 259.031 182.007 264.49 180.634 269.754L180.568 269.859C179.866 270.984 179.329 272.199 178.614 273.325C178.504 273.498 178.39 273.668 178.272 273.836C178.153 274.003 178.031 274.168 177.905 274.33C177.779 274.491 177.649 274.65 177.516 274.805C177.382 274.961 177.245 275.113 177.104 275.262C176.963 275.411 176.819 275.556 176.671 275.698C176.523 275.84 176.372 275.978 176.217 276.113C176.063 276.248 175.905 276.379 175.744 276.506C175.584 276.633 175.42 276.757 175.253 276.876C175.087 276.995 174.917 277.111 174.745 277.222C174.573 277.333 174.398 277.44 174.221 277.543C174.043 277.646 173.864 277.745 173.682 277.839C173.5 277.933 173.316 278.023 173.129 278.109C172.943 278.194 172.755 278.275 172.564 278.352C172.374 278.428 172.182 278.5 171.989 278.567C171.795 278.635 171.6 278.698 171.403 278.755C171.207 278.813 171.009 278.867 170.81 278.915C167.482 279.705 164.197 278.874 161.349 277.076C159.623 275.986 158.217 274.63 156.892 273.086C156.407 272.522 155.975 271.836 155.432 271.333C154.152 266.701 153.467 261.782 152.696 257.038C152.419 255.331 152.233 253.55 151.848 251.867C151.78 251.568 151.692 251.303 151.455 251.093C151.293 250.948 151.156 250.996 150.953 250.992C150.818 251.103 150.797 251.105 150.69 251.277C150.063 252.276 150.523 255.836 150.626 257.117C151.68 270.279 154.204 283.381 157.401 296.178C153.641 294.342 149.739 293.594 145.575 294.278C140.874 295.05 137.243 297.466 134.484 301.287C133.833 300.091 133.195 298.888 132.572 297.678C131.948 296.467 131.338 295.25 130.742 294.026C130.146 292.801 129.564 291.57 128.996 290.333C128.428 289.095 127.874 287.851 127.335 286.601C126.795 285.351 126.27 284.094 125.759 282.832C125.249 281.57 124.752 280.302 124.27 279.028C123.788 277.755 123.321 276.476 122.869 275.192C122.416 273.908 121.978 272.618 121.554 271.324C121.131 270.03 120.723 268.731 120.329 267.427C119.936 266.124 119.557 264.816 119.193 263.504C118.83 262.192 118.481 260.876 118.147 259.555C117.813 258.235 117.495 256.911 117.191 255.584C116.888 254.257 116.599 252.926 116.326 251.592C116.053 250.258 115.795 248.921 115.553 247.581C115.31 246.241 115.083 244.898 114.871 243.553C114.659 242.208 114.463 240.861 114.281 239.512C117.786 238.681 120.515 237.619 123.407 235.398C133.606 227.57 137.115 214.401 138.701 202.235C140.004 202.261 143.008 203.344 144.445 203.704C147.402 204.437 150.383 205.052 153.389 205.551C154.758 205.765 156.132 205.948 157.51 206.1C158.887 206.253 160.268 206.374 161.651 206.465C163.034 206.555 164.418 206.615 165.804 206.643C167.19 206.672 168.576 206.669 169.962 206.635C171.347 206.602 172.731 206.537 174.114 206.441C175.497 206.345 176.877 206.218 178.254 206.061C179.631 205.903 181.004 205.715 182.373 205.495C183.742 205.276 185.105 205.026 186.462 204.746C189.936 204 193.308 202.859 196.768 202.055Z" fill="#FEFEFE"/>
<path d="M150.419 73.9122C162.152 71.8329 173.567 71.8 185.295 73.8775C184.641 74.9574 184.03 76.0271 183.491 77.1696C188.514 78.4126 193.596 79.9967 198.294 82.1889C210.62 87.9415 221.261 97.9637 228.824 109.159C229.406 110.021 233.663 116.55 233.858 116.567L234.141 116.294C236.343 121.346 238.048 126.537 239.92 131.71C241.108 134.994 242.449 138.223 243.55 141.54C243.052 143.242 242.613 145.086 241.908 146.711C242.662 146.719 243.478 146.663 244.222 146.79L244.891 147.105C244.81 147.458 244.749 147.835 244.638 148.179L241.316 148.244L241.232 148.328C240.257 151.943 238.347 155.721 235.94 158.611C229.188 157.198 222.421 156.459 215.539 157.465C214.812 157.572 213.388 157.646 212.78 158.042C212.609 158.154 212.507 158.256 212.392 158.421L212.325 158.846C212.784 159.231 213.513 159.128 214.071 159.078C214.909 159.003 215.729 158.826 216.569 158.757C222.941 158.238 228.992 158.539 235.234 159.934C232.661 162.521 230.38 165.432 227.619 167.826C225 166.544 214.946 162.61 212.453 163.15L212.2 163.384C212.203 163.575 212.14 163.755 212.3 163.888C212.897 164.384 219.194 165.927 220.687 166.446C222.75 167.164 224.841 167.963 226.732 169.061C206.037 184.96 178.231 189.85 152.768 186.495C139.474 184.743 124.714 180.443 113.572 172.785C112.019 171.717 110.253 170.551 108.951 169.193C112.051 167.447 116.856 165.634 120.314 164.617C121.475 164.275 125.172 163.789 125.803 162.882L125.713 162.607C125.557 162.535 125.516 162.51 125.366 162.463C124.569 162.215 123.368 162.6 122.575 162.776C117.439 163.91 112.512 165.825 107.804 168.155C104.947 166.095 101.638 163.055 99.7179 160.134C104.151 159.07 108.555 158.342 113.115 158.119C114.786 158.038 116.483 157.971 118.155 158.067C119.685 158.154 121.276 158.404 122.806 158.337C123.192 158.32 123.547 158.28 123.882 158.074C124.099 157.941 124.053 157.86 124.096 157.634L123.866 157.429C115.598 155.534 106.622 156.96 98.5109 158.946C97.6058 158.67 93.995 152.51 93.3493 151.348C92.8008 150.362 92.35 148.997 91.5748 148.197L91.2524 148.193L90.8359 146.559L92.7488 146.568C93.1925 143.537 94.7684 140.291 95.8897 137.434C97.8211 132.512 99.7414 127.57 101.991 122.782C110.279 105.142 120.794 89.943 139.065 81.7099C143.312 79.7963 147.816 78.7142 152.182 77.1439C151.636 76.035 151.063 74.967 150.419 73.9122Z" fill="#FEFEFE"/>
<path d="M167.039 138.99C169.035 138.865 171.303 139.159 173.241 139.637C174.589 139.969 176.09 140.503 176.809 141.782C177.281 142.623 177.274 143.57 177.007 144.474C176.097 147.544 172.366 150.711 169.638 152.182C169.606 153.441 169.492 154.787 169.73 156.027C170.049 157.688 171.216 159.207 172.621 160.116C173.884 160.933 175.306 161.263 176.797 161.245C183.199 161.167 183.979 155.361 185.862 154.982L185.989 155.374L185.856 155.23L185.946 155.083C185.956 155.247 185.971 155.418 185.959 155.582C185.802 157.694 184.073 160.294 182.424 161.588C182.292 161.691 182.158 161.791 182.021 161.887C181.884 161.983 181.745 162.076 181.603 162.166C181.462 162.255 181.318 162.341 181.173 162.423C181.027 162.506 180.879 162.585 180.73 162.66C180.58 162.735 180.428 162.806 180.275 162.874C180.122 162.941 179.967 163.005 179.811 163.065C179.654 163.125 179.497 163.181 179.338 163.233C179.179 163.285 179.018 163.333 178.857 163.377C178.695 163.421 178.533 163.461 178.369 163.498C178.206 163.534 178.042 163.566 177.877 163.594C177.712 163.622 177.546 163.646 177.38 163.666C177.213 163.685 177.047 163.701 176.88 163.712C176.713 163.724 176.546 163.731 176.378 163.735C176.211 163.738 176.043 163.737 175.876 163.732C175.709 163.727 175.542 163.718 175.375 163.705C175.208 163.691 175.041 163.674 174.875 163.653C172.335 163.316 170.273 162.066 168.712 160.055C168.542 159.815 168.528 159.802 168.24 159.676C166.865 160.468 166.47 161.898 164.504 162.802C164.348 162.875 164.19 162.943 164.031 163.008C163.871 163.072 163.71 163.133 163.548 163.189C163.385 163.246 163.222 163.299 163.057 163.347C162.891 163.395 162.725 163.439 162.558 163.479C162.39 163.519 162.222 163.555 162.053 163.586C161.884 163.618 161.714 163.645 161.543 163.668C161.373 163.691 161.202 163.709 161.03 163.724C160.859 163.738 160.687 163.748 160.515 163.754C160.343 163.759 160.171 163.761 159.999 163.758C159.827 163.755 159.655 163.748 159.484 163.736C159.312 163.724 159.141 163.708 158.97 163.688C158.799 163.668 158.629 163.643 158.459 163.615C158.289 163.586 158.121 163.553 157.953 163.516C157.785 163.478 157.618 163.437 157.452 163.391C157.286 163.345 157.121 163.296 156.958 163.242C156.795 163.188 156.633 163.13 156.472 163.068C154.341 162.261 152.107 160.397 151.232 158.251C150.87 157.365 150.338 156.014 150.716 155.084L150.908 155.085C151.719 156.069 152.305 157.195 153.184 158.135C154.896 159.965 157.067 161.24 159.637 161.27C161.586 161.293 163.696 160.489 165.053 159.071C167.051 156.983 166.827 154.94 166.806 152.295C165.513 151.666 164.323 150.815 163.238 149.876C161.487 148.358 159.024 145.838 158.911 143.387C158.906 143.287 158.906 143.187 158.911 143.086C158.915 142.986 158.925 142.886 158.94 142.787C158.955 142.688 158.975 142.59 158.999 142.492C159.024 142.395 159.054 142.299 159.088 142.205C159.122 142.111 159.161 142.019 159.205 141.928C159.248 141.838 159.296 141.75 159.348 141.664C159.401 141.579 159.457 141.496 159.518 141.416C159.579 141.336 159.643 141.26 159.712 141.186C161.371 139.371 164.743 139.135 167.039 138.99Z" fill="#09153C"/>
<path d="M166.118 140.633C166.948 140.559 167.822 140.585 168.654 140.624C169.808 140.678 171.129 140.809 171.949 141.716C171.993 141.919 172.077 142.051 171.967 142.244C171.487 143.083 170.005 143.37 169.123 143.541C168.226 143.617 167.299 143.68 166.401 143.599C165.218 143.492 163.899 143.108 163.119 142.166C163.069 141.879 162.991 141.836 163.218 141.57C163.802 140.888 165.268 140.733 166.118 140.633Z" fill="#4A6079"/>
<path d="M152.182 77.1406C159.45 90.5718 163.094 109.188 158.704 124.051C156.239 132.393 149.073 143.878 141.321 148.154C141.237 148.2 141.152 148.245 141.068 148.29C140.052 149.268 138.239 150.032 136.969 150.611C134.173 151.886 131.191 152.813 128.115 153.035C122.815 153.416 117.535 152.152 112.377 151.117C105.598 149.757 98.5136 148.229 91.5748 148.194L91.2524 148.189L90.8359 146.556L92.7488 146.564C93.1925 143.534 94.7684 140.288 95.8897 137.431C97.8211 132.509 99.7414 127.567 101.991 122.779C110.279 105.138 120.794 89.9398 139.065 81.7067C143.312 79.7929 147.816 78.711 152.182 77.1406Z" fill="#F98D27"/>
<path d="M92.7488 146.571C95.5988 146.612 98.4427 146.766 101.281 147.032C104.118 147.299 106.941 147.676 109.749 148.166C116.155 149.289 122.848 151.491 129.402 150.995C130.528 150.901 131.643 150.737 132.749 150.505C133.854 150.273 134.941 149.974 136.009 149.607C136.814 149.33 137.569 148.873 138.407 148.716C136.243 150.074 131.014 151.362 128.414 151.304C128.789 151.735 129.248 152.497 129.827 152.6C130.599 152.737 131.908 152.09 132.715 151.951C135.022 151.551 138.913 149.583 140.766 148.141C140.851 148.181 141.002 148.232 141.068 148.296C140.052 149.275 138.24 150.038 136.969 150.617C134.173 151.892 131.191 152.819 128.115 153.041C122.815 153.423 117.535 152.159 112.377 151.124C105.598 149.763 98.5136 148.235 91.5748 148.2L91.2524 148.196L90.8359 146.562L92.7488 146.571Z" fill="#C26312"/>
<path d="M132.934 114.277C136.612 113.847 140.34 114.637 143.425 116.717C143.634 116.86 143.84 117.008 144.042 117.161C144.244 117.315 144.442 117.473 144.636 117.635C144.83 117.798 145.02 117.966 145.206 118.138C145.392 118.31 145.573 118.487 145.751 118.668C145.928 118.849 146.101 119.035 146.269 119.224C146.437 119.414 146.6 119.608 146.758 119.806C146.917 120.003 147.071 120.205 147.219 120.41C147.368 120.615 147.511 120.824 147.65 121.036C147.788 121.249 147.921 121.464 148.049 121.683C148.177 121.902 148.299 122.124 148.416 122.349C148.533 122.574 148.644 122.801 148.749 123.032C148.855 123.262 148.955 123.495 149.049 123.73C149.143 123.965 149.231 124.203 149.314 124.443C149.397 124.682 149.473 124.924 149.544 125.167C149.614 125.411 149.679 125.655 149.737 125.902C149.796 126.149 149.848 126.396 149.895 126.646C149.942 126.895 149.984 127.146 150.019 127.399C150.054 127.65 150.083 127.903 150.106 128.157C150.129 128.41 150.146 128.664 150.156 128.918C150.166 129.172 150.17 129.427 150.168 129.681C150.165 129.936 150.157 130.19 150.142 130.444C150.127 130.698 150.106 130.951 150.078 131.204C150.051 131.457 150.017 131.709 149.977 131.961C149.937 132.212 149.891 132.462 149.839 132.711C149.787 132.96 149.728 133.208 149.664 133.454C149.599 133.7 149.529 133.944 149.452 134.187C149.375 134.43 149.293 134.67 149.204 134.909C149.116 135.147 149.021 135.383 148.921 135.617C148.821 135.851 148.715 136.082 148.603 136.311C148.492 136.54 148.374 136.765 148.251 136.988C148.129 137.211 148 137.431 147.867 137.647C147.733 137.864 147.594 138.077 147.45 138.286C145.064 141.719 141.554 143.838 137.469 144.583C137.407 144.594 137.346 144.606 137.284 144.617C133.547 145.268 129.315 144.121 126.238 141.968C126.035 141.823 125.836 141.673 125.64 141.519C125.444 141.364 125.253 141.204 125.065 141.04C124.877 140.876 124.693 140.707 124.513 140.534C124.334 140.36 124.158 140.183 123.987 140.001C123.816 139.819 123.65 139.633 123.488 139.443C123.326 139.253 123.169 139.059 123.017 138.861C122.865 138.664 122.717 138.462 122.575 138.258C122.432 138.053 122.295 137.844 122.163 137.633C122.031 137.421 121.904 137.206 121.782 136.988C121.66 136.77 121.544 136.549 121.433 136.326C121.322 136.102 121.217 135.876 121.117 135.647C121.017 135.418 120.923 135.187 120.835 134.954C120.747 134.721 120.664 134.485 120.587 134.248C120.51 134.01 120.439 133.771 120.374 133.53C120.309 133.289 120.25 133.047 120.196 132.803C120.143 132.559 120.096 132.314 120.055 132.068C120.008 131.81 119.967 131.552 119.933 131.292C119.899 131.032 119.871 130.772 119.85 130.511C119.829 130.25 119.815 129.988 119.807 129.726C119.8 129.464 119.799 129.202 119.804 128.94C119.81 128.679 119.822 128.417 119.841 128.156C119.86 127.895 119.885 127.634 119.917 127.374C119.949 127.114 119.987 126.855 120.032 126.597C120.078 126.339 120.129 126.082 120.187 125.827C120.245 125.571 120.31 125.317 120.381 125.065C120.452 124.813 120.529 124.563 120.612 124.314C120.696 124.066 120.786 123.82 120.882 123.576C120.978 123.333 121.08 123.092 121.188 122.853C121.296 122.615 121.41 122.379 121.53 122.146C121.651 121.913 121.776 121.684 121.908 121.457C122.04 121.231 122.177 121.008 122.32 120.788C122.463 120.569 122.612 120.353 122.766 120.141C125.211 116.757 128.871 114.915 132.934 114.277Z" fill="#09153C"/>
<path d="M132.929 116.054C136.316 115.742 139.38 116.251 142.257 118.143C142.448 118.27 142.635 118.402 142.819 118.539C143.002 118.675 143.183 118.816 143.36 118.962C143.537 119.107 143.71 119.257 143.879 119.411C144.049 119.565 144.215 119.723 144.376 119.885C144.538 120.047 144.696 120.213 144.849 120.383C145.003 120.553 145.152 120.727 145.297 120.904C145.442 121.081 145.583 121.262 145.719 121.446C145.855 121.63 145.986 121.818 146.113 122.008C146.24 122.199 146.362 122.393 146.479 122.59C146.597 122.786 146.709 122.986 146.817 123.188C146.924 123.39 147.026 123.595 147.124 123.802C147.221 124.01 147.313 124.219 147.4 124.431C147.487 124.643 147.569 124.857 147.646 125.072C147.722 125.288 147.793 125.506 147.859 125.725C147.925 125.945 147.985 126.166 148.04 126.388C148.095 126.61 148.144 126.834 148.188 127.059C148.23 127.273 148.267 127.487 148.299 127.703C148.33 127.919 148.356 128.135 148.376 128.353C148.397 128.57 148.412 128.787 148.422 129.005C148.431 129.223 148.436 129.441 148.435 129.659C148.434 129.877 148.427 130.095 148.415 130.313C148.403 130.53 148.386 130.748 148.363 130.964C148.34 131.181 148.312 131.397 148.279 131.613C148.245 131.828 148.206 132.043 148.162 132.256C148.118 132.47 148.068 132.682 148.013 132.893C147.959 133.104 147.899 133.314 147.833 133.522C147.768 133.73 147.698 133.936 147.622 134.141C147.547 134.346 147.466 134.548 147.381 134.749C147.295 134.949 147.204 135.147 147.109 135.343C147.014 135.54 146.913 135.733 146.808 135.924C146.703 136.115 146.593 136.304 146.479 136.489C146.365 136.675 146.246 136.857 146.122 137.037C143.974 140.195 140.924 142.113 137.194 142.808C136.99 142.835 136.786 142.859 136.581 142.877C136.376 142.896 136.17 142.91 135.965 142.919C135.759 142.928 135.553 142.933 135.348 142.933C135.142 142.933 134.936 142.928 134.731 142.919C134.525 142.91 134.32 142.896 134.115 142.877C133.91 142.859 133.705 142.836 133.501 142.808C133.297 142.78 133.094 142.747 132.892 142.71C132.689 142.674 132.488 142.632 132.287 142.586C132.087 142.54 131.887 142.489 131.689 142.434C131.49 142.379 131.294 142.319 131.098 142.255C130.902 142.191 130.708 142.122 130.516 142.05C130.323 141.977 130.132 141.899 129.943 141.818C129.754 141.736 129.567 141.651 129.382 141.561C129.197 141.471 129.014 141.377 128.833 141.279C128.652 141.181 128.474 141.078 128.298 140.972C128.121 140.866 127.948 140.755 127.776 140.641C127.59 140.517 127.407 140.387 127.227 140.254C127.047 140.12 126.871 139.982 126.698 139.84C126.525 139.697 126.356 139.551 126.19 139.4C126.024 139.249 125.862 139.094 125.704 138.936C125.546 138.777 125.392 138.614 125.242 138.448C125.092 138.281 124.946 138.111 124.804 137.937C124.663 137.764 124.525 137.587 124.392 137.406C124.26 137.226 124.131 137.042 124.007 136.855C123.884 136.669 123.765 136.479 123.65 136.286C123.536 136.094 123.426 135.898 123.322 135.7C123.217 135.502 123.117 135.301 123.022 135.098C122.928 134.895 122.838 134.69 122.753 134.482C122.669 134.275 122.589 134.065 122.515 133.854C122.441 133.643 122.372 133.43 122.308 133.215C122.244 133 122.186 132.783 122.133 132.566C122.08 132.348 122.032 132.129 121.99 131.909C121.947 131.69 121.91 131.471 121.878 131.25C121.846 131.029 121.82 130.808 121.798 130.586C121.777 130.364 121.761 130.142 121.751 129.919C121.741 129.697 121.736 129.474 121.736 129.251C121.737 129.028 121.743 128.805 121.754 128.583C121.765 128.36 121.782 128.138 121.804 127.916C121.827 127.694 121.854 127.473 121.887 127.252C121.92 127.032 121.959 126.813 122.002 126.594C122.046 126.375 122.095 126.158 122.149 125.942C122.203 125.725 122.263 125.511 122.327 125.297C122.392 125.084 122.462 124.872 122.537 124.662C122.612 124.452 122.692 124.245 122.777 124.038C122.863 123.832 122.953 123.629 123.048 123.427C123.143 123.225 123.243 123.026 123.348 122.83C123.453 122.633 123.562 122.439 123.677 122.247C123.791 122.056 123.91 121.867 124.033 121.682C126.171 118.491 129.218 116.775 132.929 116.054Z" fill="#17A2C7"/>
<path d="M143.224 124.069C144.054 125.42 144.773 126.719 145.048 128.301C145.075 128.462 145.099 128.623 145.118 128.784C145.138 128.946 145.153 129.108 145.165 129.27C145.176 129.432 145.184 129.595 145.187 129.758C145.191 129.92 145.19 130.083 145.186 130.245C145.182 130.408 145.173 130.571 145.16 130.733C145.148 130.895 145.132 131.057 145.111 131.218C145.091 131.38 145.067 131.541 145.039 131.701C145.01 131.861 144.978 132.021 144.942 132.18C144.906 132.338 144.866 132.496 144.823 132.653C144.779 132.81 144.731 132.965 144.68 133.119C144.628 133.274 144.573 133.427 144.514 133.579C144.455 133.73 144.393 133.881 144.327 134.029C144.261 134.178 144.191 134.325 144.117 134.47C144.044 134.615 143.967 134.758 143.886 134.9C143.806 135.041 143.722 135.181 143.635 135.318C143.548 135.455 143.457 135.59 143.363 135.723C141.808 137.926 139.384 139.281 136.742 139.71C136.581 139.737 136.419 139.761 136.257 139.78C136.094 139.799 135.932 139.815 135.768 139.826C135.605 139.837 135.442 139.844 135.278 139.847C135.115 139.85 134.951 139.849 134.788 139.844C134.624 139.839 134.461 139.83 134.298 139.816C134.135 139.803 133.972 139.786 133.81 139.764C133.648 139.743 133.486 139.717 133.325 139.688C133.165 139.658 133.005 139.625 132.846 139.587C132.686 139.55 132.528 139.508 132.371 139.463C132.214 139.417 132.058 139.368 131.903 139.315C131.749 139.262 131.595 139.204 131.443 139.143C131.292 139.083 131.142 139.018 130.993 138.95C130.844 138.881 130.698 138.809 130.553 138.733C130.408 138.658 130.265 138.578 130.124 138.496C129.983 138.413 129.844 138.326 129.707 138.237C129.57 138.147 129.436 138.054 129.304 137.957C127.054 136.286 125.523 133.61 125.143 130.842C124.773 128.144 125.457 125.118 127.131 122.957C128.761 120.853 131.127 119.324 133.801 119.02C135.176 118.864 137.228 118.968 138.316 119.918C138.384 119.977 138.449 120.04 138.515 120.102C139.283 119.813 140.076 119.928 140.815 120.271C141.731 120.697 142.684 121.797 142.988 122.76C143.118 123.176 143.167 123.639 143.224 124.069Z" fill="#09153C"/>
<path d="M132.208 134.25C132.892 134.252 133.4 134.236 133.911 134.76C134.193 135.05 134.349 135.423 134.316 135.833C134.264 136.479 133.885 136.849 133.407 137.23C132.794 137.262 132.236 137.238 131.755 136.802C131.411 136.491 131.26 136.107 131.291 135.644C131.337 134.966 131.731 134.657 132.208 134.25Z" fill="#FEFEFE"/>
<path d="M138.516 120.101C139.284 119.813 140.077 119.928 140.815 120.271C141.732 120.697 142.685 121.797 142.989 122.76C143.119 123.175 143.168 123.638 143.225 124.069C143.162 124.468 143.096 124.867 142.987 125.256C142.675 126.362 142.039 127.429 140.98 127.954C140.093 128.394 139.018 128.437 138.087 128.115C137.037 127.752 136.15 126.925 135.684 125.921C135.624 125.795 135.572 125.665 135.526 125.534C135.48 125.402 135.441 125.268 135.409 125.132C135.377 124.996 135.352 124.859 135.334 124.721C135.315 124.583 135.304 124.443 135.3 124.304C135.297 124.164 135.3 124.025 135.31 123.886C135.32 123.747 135.338 123.608 135.362 123.471C135.387 123.333 135.418 123.198 135.456 123.063C135.494 122.929 135.539 122.797 135.591 122.668C136.143 121.306 137.245 120.656 138.516 120.101Z" fill="#FEFEFE"/>
<path d="M183.49 77.1719C188.513 78.4149 193.595 79.999 198.293 82.1912C210.619 87.9437 221.26 97.966 228.822 109.162C229.405 110.023 233.662 116.552 233.857 116.569L234.139 116.296C236.342 121.348 238.047 126.539 239.918 131.712C241.106 134.997 242.448 138.225 243.548 141.542C243.05 143.244 242.611 145.088 241.906 146.713C242.661 146.721 243.477 146.665 244.22 146.793L244.89 147.107C244.809 147.46 244.748 147.837 244.636 148.181L241.314 148.246L241.231 148.33C237.936 148.512 234.584 148.91 231.35 149.572C226.876 150.489 222.538 151.767 218.019 152.523C208.952 154.04 201.358 153.3 193.671 147.823C186.881 143.642 180.465 134.733 177.752 127.264C171.863 111.053 176.406 92.2132 183.49 77.1719Z" fill="#F98D27"/>
<path d="M241.905 146.709C242.66 146.716 243.476 146.661 244.219 146.788L244.889 147.103C244.808 147.456 244.747 147.833 244.636 148.176L241.313 148.242L241.23 148.325C237.935 148.507 234.583 148.905 231.349 149.568C226.875 150.484 222.537 151.762 218.018 152.518C208.951 154.035 201.357 153.295 193.67 147.818C194.376 147.621 198.303 150.908 200.943 150.998C200.913 150.864 200.888 150.729 200.852 150.596C200.774 150.31 197.316 148.861 196.842 148.625L196.818 148.7L196.687 148.563C199.993 150.569 206.863 151.253 210.705 151.022C213.182 150.873 215.586 150.342 218.026 149.933C225.921 148.61 233.868 146.678 241.905 146.709Z" fill="#C26312"/>
<path d="M244.22 146.789L244.89 147.104C244.809 147.457 244.748 147.834 244.637 148.177L241.314 148.243C241.402 147.783 241.432 147.368 241.773 147.018C242.111 146.86 242.303 146.816 242.68 146.831C243.199 146.853 243.702 146.823 244.22 146.789Z" fill="#392D2D"/>
<path d="M200.267 113.99C203.534 113.649 207.339 114.782 209.982 116.696C210.186 116.844 210.387 116.997 210.584 117.155C210.781 117.313 210.974 117.476 211.163 117.643C211.351 117.811 211.536 117.983 211.716 118.16C211.897 118.336 212.072 118.518 212.244 118.703C212.415 118.888 212.582 119.078 212.743 119.272C212.905 119.466 213.062 119.663 213.214 119.865C213.366 120.066 213.513 120.271 213.655 120.48C213.797 120.689 213.933 120.901 214.065 121.117C214.196 121.333 214.322 121.551 214.442 121.773C214.563 121.995 214.677 122.22 214.787 122.447C214.896 122.675 214.999 122.905 215.097 123.138C215.195 123.371 215.287 123.606 215.373 123.843C215.459 124.081 215.539 124.32 215.614 124.561C215.688 124.802 215.756 125.045 215.818 125.29C215.88 125.535 215.936 125.781 215.986 126.028C216.036 126.276 216.08 126.524 216.117 126.774C216.758 130.827 215.627 135.25 213.212 138.557C210.609 142.122 206.837 143.955 202.557 144.609C198.535 144.733 194.935 143.941 191.701 141.424C191.506 141.271 191.315 141.112 191.128 140.949C190.941 140.786 190.758 140.618 190.579 140.446C190.401 140.274 190.226 140.098 190.056 139.917C189.886 139.736 189.72 139.552 189.559 139.363C189.398 139.174 189.242 138.982 189.09 138.785C188.939 138.589 188.792 138.389 188.65 138.185C188.508 137.981 188.371 137.774 188.24 137.564C188.108 137.354 187.981 137.14 187.86 136.924C187.739 136.707 187.623 136.488 187.513 136.266C187.402 136.043 187.297 135.819 187.198 135.591C187.099 135.364 187.005 135.134 186.917 134.902C186.828 134.671 186.746 134.437 186.669 134.2C186.592 133.964 186.522 133.727 186.457 133.487C186.392 133.248 186.333 133.007 186.279 132.764C186.226 132.522 186.179 132.279 186.137 132.034C186.096 131.789 186.061 131.544 186.032 131.297C185.543 127.132 186.989 122.761 189.608 119.522C192.328 116.158 196.017 114.421 200.267 113.99Z" fill="#09153C"/>
<path d="M199.424 115.927C199.624 115.901 199.825 115.88 200.026 115.864C200.226 115.847 200.428 115.836 200.629 115.829C200.831 115.821 201.032 115.819 201.234 115.821C201.435 115.823 201.637 115.83 201.838 115.841C202.039 115.853 202.24 115.869 202.44 115.889C202.641 115.91 202.841 115.935 203.04 115.965C203.239 115.995 203.438 116.029 203.636 116.068C203.834 116.108 204.03 116.151 204.226 116.199C204.422 116.247 204.616 116.3 204.809 116.357C205.003 116.414 205.195 116.475 205.385 116.541C205.576 116.607 205.765 116.677 205.952 116.751C206.139 116.826 206.325 116.905 206.509 116.988C206.692 117.071 206.874 117.158 207.053 117.249C207.233 117.341 207.41 117.436 207.586 117.536C207.761 117.635 207.934 117.739 208.104 117.847C208.275 117.954 208.443 118.065 208.608 118.181C211.45 120.151 213.631 123.246 214.233 126.678C214.273 126.906 214.307 127.135 214.336 127.365C214.365 127.595 214.388 127.826 214.405 128.057C214.423 128.288 214.434 128.519 214.44 128.751C214.446 128.982 214.447 129.214 214.441 129.446C214.436 129.678 214.425 129.909 214.408 130.14C214.391 130.371 214.369 130.602 214.34 130.832C214.312 131.062 214.278 131.291 214.239 131.519C214.2 131.748 214.155 131.975 214.104 132.201C214.053 132.427 213.997 132.652 213.935 132.875C213.874 133.099 213.807 133.32 213.734 133.541C213.662 133.76 213.584 133.979 213.5 134.195C213.417 134.411 213.328 134.625 213.234 134.837C213.14 135.049 213.042 135.258 212.937 135.465C212.833 135.672 212.724 135.877 212.61 136.078C212.496 136.28 212.376 136.479 212.252 136.674C212.128 136.87 212 137.063 211.866 137.252C209.642 140.375 206.489 142.035 202.765 142.655C199.402 142.902 196.369 142.464 193.539 140.52C193.36 140.395 193.184 140.267 193.011 140.134C192.839 140.001 192.669 139.865 192.503 139.723C192.337 139.582 192.175 139.437 192.016 139.288C191.858 139.139 191.703 138.985 191.552 138.829C191.401 138.672 191.254 138.511 191.111 138.347C190.967 138.183 190.828 138.015 190.694 137.844C190.559 137.672 190.429 137.498 190.302 137.321C190.176 137.143 190.055 136.963 189.937 136.779C189.82 136.595 189.708 136.409 189.6 136.22C189.492 136.031 189.389 135.839 189.29 135.644C189.192 135.45 189.099 135.253 189.01 135.054C188.921 134.856 188.838 134.654 188.759 134.451C188.68 134.248 188.606 134.043 188.538 133.836C188.47 133.629 188.406 133.421 188.348 133.211C188.29 133.001 188.237 132.79 188.189 132.578C188.142 132.365 188.099 132.151 188.062 131.937C188.022 131.708 187.987 131.479 187.958 131.248C187.93 131.018 187.906 130.787 187.889 130.556C187.872 130.324 187.86 130.092 187.854 129.861C187.848 129.628 187.848 129.396 187.854 129.164C187.859 128.932 187.871 128.7 187.888 128.469C187.905 128.237 187.928 128.006 187.957 127.776C187.985 127.546 188.02 127.316 188.06 127.088C188.1 126.859 188.146 126.632 188.197 126.405C188.248 126.179 188.305 125.954 188.368 125.73C188.43 125.507 188.499 125.285 188.572 125.065C188.646 124.845 188.725 124.627 188.809 124.41C188.893 124.194 188.983 123.98 189.078 123.768C189.174 123.557 189.274 123.347 189.379 123.141C189.485 122.934 189.595 122.73 189.711 122.528C189.826 122.327 189.947 122.129 190.073 121.933C190.198 121.738 190.328 121.546 190.463 121.357C192.575 118.39 195.865 116.526 199.424 115.927Z" fill="#17A2C7"/>
<path d="M196.735 119.948C198.854 118.768 201.449 118.512 203.782 119.159C203.942 119.204 204.101 119.252 204.259 119.305C204.416 119.357 204.572 119.413 204.727 119.473C204.882 119.533 205.035 119.597 205.187 119.665C205.339 119.733 205.489 119.804 205.637 119.88C205.785 119.955 205.931 120.034 206.075 120.117C206.219 120.199 206.361 120.286 206.501 120.375C206.64 120.465 206.778 120.558 206.913 120.655C207.048 120.752 207.181 120.851 207.311 120.955C207.441 121.058 207.569 121.164 207.693 121.274C207.818 121.383 207.94 121.496 208.059 121.612C208.179 121.728 208.295 121.846 208.408 121.968C208.521 122.089 208.631 122.214 208.738 122.341C208.845 122.468 208.949 122.597 209.05 122.729C209.15 122.862 209.247 122.997 209.341 123.134C209.435 123.271 209.525 123.41 209.612 123.552C209.699 123.693 209.782 123.837 209.862 123.983C211.287 126.549 211.67 129.238 210.854 132.076C210.09 134.73 208.452 137.145 205.984 138.468C203.576 139.759 200.48 140.087 197.863 139.296C195.379 138.545 193.262 136.67 192.102 134.365C190.9 131.98 190.774 129.109 191.619 126.588C191.879 125.818 192.221 125.086 192.646 124.393C192.708 123.399 192.879 122.447 193.472 121.62C194.258 120.522 195.487 120.191 196.735 119.948Z" fill="#09153C"/>
<path d="M204.269 134.281C204.942 134.259 205.437 134.253 205.961 134.74C206.269 135.027 206.432 135.408 206.42 135.829C206.403 136.476 206.044 136.861 205.596 137.279C204.963 137.31 204.351 137.367 203.852 136.892C203.533 136.589 203.413 136.324 203.394 135.884C203.365 135.2 203.818 134.727 204.269 134.281Z" fill="#FEFEFE"/>
<path d="M192.645 124.391C192.706 123.397 192.877 122.444 193.47 121.617C194.256 120.52 195.485 120.189 196.734 119.945C198.135 120.41 199.365 120.911 200.094 122.301C200.683 123.425 200.678 124.834 200.249 126.01C199.852 127.1 199.033 128.055 197.976 128.55C197.155 128.933 196.202 129.01 195.345 128.7C194.266 128.309 193.565 127.329 193.151 126.3C192.908 125.695 192.768 125.029 192.645 124.391Z" fill="#FEFEFE"/>
<defs>
<linearGradient id="paint0_linear_4343_10174" x1="106.863" y1="87.5845" x2="120.384" y2="56.1652" gradientUnits="userSpaceOnUse">
<stop stop-color="#FFA027"/>
<stop offset="1" stop-color="#FFC663"/>
</linearGradient>
</defs>
</svg>
