<svg width="349" height="352" viewBox="0 0 349 352" fill="none" xmlns="http://www.w3.org/2000/svg">
<path d="M231.918 157.053C232.256 155.958 232.631 154.872 232.927 153.764C233.532 151.5 234.106 149.227 234.67 146.952C234.903 146.01 235.229 145.193 236.392 145.189C237.376 145.186 238.245 146.011 238.409 147.15C238.883 150.444 239.333 153.742 239.795 157.038C239.843 157.382 239.906 157.723 239.962 158.066C240.071 158.071 240.181 158.076 240.291 158.08C240.579 156.852 240.888 155.629 241.151 154.395C241.585 152.361 241.979 150.319 242.411 148.284C242.68 147.018 243.303 146.472 244.264 146.599C245.377 146.747 246.239 147.794 246.037 148.967C245.723 150.791 245.35 152.611 244.889 154.404C244.164 157.22 243.402 160.029 242.542 162.806C242.148 164.077 241.517 165.391 239.872 165.325C238.185 165.257 237.672 163.899 237.341 162.539C236.966 160.998 236.697 159.431 236.385 157.875C236.305 157.48 236.235 157.083 235.906 156.659C235.618 157.485 235.372 158.329 235.033 159.133C234.446 160.521 233.938 161.969 233.148 163.237C232.038 165.021 229.969 164.858 229.353 162.861C228.646 160.569 228.271 158.155 227.953 155.766C227.539 152.656 227.326 149.519 227.022 146.394C226.884 144.973 227.402 144.117 228.478 144.009C229.542 143.902 230.535 144.766 230.653 146.015C230.892 148.538 231.066 151.068 231.285 153.593C231.384 154.737 231.527 155.878 231.65 157.02C231.739 157.031 231.828 157.042 231.918 157.053Z" fill="#D82E21"/>
<path d="M245.941 191.284C246.602 189.3 247.274 187.319 247.921 185.33C248.295 184.181 248.644 183.022 248.978 181.86C249.264 180.869 249.727 180.063 250.917 180.207C252.07 180.347 252.273 181.246 252.335 182.213C252.485 184.591 252.638 186.969 252.805 189.345C252.852 190.007 252.951 190.666 253.027 191.326C253.124 191.336 253.221 191.347 253.317 191.357C253.807 189.65 254.306 187.946 254.781 186.235C255.146 184.925 255.465 183.601 255.832 182.292C256.157 181.133 256.957 180.561 257.866 180.788C258.87 181.039 259.312 181.886 258.939 183.128C257.8 186.927 256.655 190.725 255.412 194.49C255.089 195.469 254.526 196.439 253.845 197.211C252.705 198.502 251.077 198.131 250.634 196.463C250.21 194.867 250.07 193.196 249.804 191.557C249.752 191.238 249.696 190.92 249.607 190.394C248.776 192.288 248.076 193.983 247.286 195.634C246.965 196.304 246.53 196.963 246.003 197.48C244.976 198.487 243.66 198.193 243.243 196.823C242.893 195.678 242.674 194.461 242.613 193.265C242.421 189.526 242.332 185.782 242.205 182.04C242.198 181.852 242.196 181.661 242.217 181.474C242.327 180.489 243.02 179.796 243.893 179.789C244.793 179.782 245.435 180.427 245.465 181.511C245.52 183.552 245.519 185.595 245.533 187.637C245.541 188.834 245.534 190.031 245.534 191.227C245.67 191.246 245.806 191.265 245.941 191.284Z" fill="#D82E21"/>
<path d="M256.666 167.777C250.913 167.801 246.483 162.216 247.415 156.247C248.504 149.275 255.731 147.706 260.701 151.66C264.458 154.649 265.365 160.442 262.761 164.481C261.345 166.677 259.294 167.781 256.666 167.777ZM260.693 159.089C260.647 158.409 260.647 157.99 260.588 157.581C260.258 155.272 258.575 153.499 256.367 153.115C254.314 152.757 252.355 153.721 251.435 155.541C250.073 158.235 251.191 162.057 253.801 163.631C256.679 165.366 259.448 164.286 260.333 161.057C260.531 160.335 260.606 159.579 260.693 159.089Z" fill="#D82E21"/>
<path d="M272.56 155.355C276.948 155.227 282.973 159.193 282.106 165.672C281.537 169.916 278.174 172.528 273.919 171.876C268.611 171.062 265.171 166.783 265.65 161.591C266.002 157.79 268.716 155.34 272.56 155.355ZM278.709 163.694C278.702 163.572 278.699 163.268 278.662 162.969C278.42 161.022 276.836 159.289 274.844 158.785C272.728 158.248 270.971 158.78 269.872 160.288C268.737 161.848 268.812 164.4 270.047 166.274C271.27 168.128 273.631 169.248 275.471 168.846C277.505 168.401 278.704 166.56 278.709 163.694Z" fill="#D82E21"/>
<path d="M274.969 189.448C274.933 193.657 272.417 197.076 268.601 198.1C264.368 199.236 260.518 196.918 259.772 192.611C259.205 189.345 260.088 186.417 262.693 184.239C265.027 182.287 267.729 181.898 270.577 182.961C273.43 184.026 274.995 186.401 274.969 189.448ZM262.832 190.72C262.754 192.965 264.096 194.829 266.115 195.281C268.177 195.741 270.242 194.715 271.057 192.64C271.462 191.608 271.746 190.454 271.751 189.354C271.762 186.651 269.422 184.935 266.798 185.572C264.445 186.142 262.922 188.12 262.832 190.72Z" fill="#D82E21"/>
<path d="M286.43 171.569C286.193 172.367 286.003 173.087 285.764 173.789C285.422 174.795 284.734 175.152 283.736 174.888C282.755 174.628 282.209 173.803 282.43 172.835C282.96 170.515 283.501 168.197 284.061 165.883C285.093 161.624 287.861 160.08 291.969 161.568C294.48 162.478 296.506 164.068 297.416 166.663C297.762 167.651 297.754 168.816 297.679 169.885C297.603 170.975 296.835 171.441 295.874 171.241C294.714 170.999 293.988 170.078 294.176 169.086C294.697 166.328 293.506 164.56 290.832 164.12C289.55 163.909 288.726 164.303 288.09 165.43C288.053 165.496 288.01 165.559 287.976 165.626C286.586 168.345 286.722 168.729 289.524 169.797C291.218 170.443 292.924 171.057 294.625 171.684C294.837 171.762 295.072 171.8 295.26 171.914C295.968 172.346 296.678 172.895 296.293 173.808C295.922 174.686 295.085 174.549 294.323 174.285C292.075 173.506 289.829 172.722 287.581 171.943C287.234 171.823 286.882 171.716 286.43 171.569Z" fill="#D82E21"/>
<path d="M283.371 185.977C286.815 186.222 289.512 187.244 290.881 190.281C292.503 193.877 290.167 198.433 286.186 199.672C284.213 200.286 282.231 200.264 280.292 199.544C277.615 198.551 275.936 196.114 275.971 193.365C276.011 190.184 277.95 187.428 280.912 186.47C281.797 186.183 282.747 186.097 283.371 185.977ZM283.99 188.774C281.246 188.748 279.233 190.659 279.229 193.295C279.226 195.685 281.115 197.495 283.628 197.509C286.184 197.525 288.165 195.375 288.178 192.573C288.189 190.363 286.464 188.799 283.99 188.774Z" fill="#D82E21"/>
<path d="M295.484 196.347C297.809 196.942 299.881 197.469 301.952 198.004C302.5 198.145 303.11 198.204 303.564 198.498C303.909 198.72 304.283 199.302 304.216 199.638C304.152 199.955 303.499 200.412 303.157 200.371C301.625 200.188 300.108 199.868 298.593 199.56C297.632 199.363 296.67 199.143 295.735 198.849C295.095 198.648 294.838 198.863 294.665 199.444C294.515 199.948 294.333 200.456 294.077 200.912C293.631 201.705 292.615 201.975 291.8 201.577C290.904 201.139 290.992 200.472 291.267 199.665C291.878 197.878 292.402 196.062 292.98 194.264C293.913 191.363 295.589 189.902 298.145 189.735C301.155 189.538 304.377 191.185 305.518 193.513C306.047 194.594 306.084 195.697 305.595 196.801C305.215 197.661 304.376 197.991 303.417 197.631C302.54 197.302 302.223 196.716 302.515 195.753C302.976 194.235 302.52 193.277 301.141 192.596C299.583 191.828 297.836 192.055 297.041 193.263C296.469 194.133 296.088 195.129 295.484 196.347Z" fill="#D82E21"/>
<path d="M301.731 173.962C301.452 174.81 301.148 175.662 300.696 176.418C300.166 177.304 299.246 177.136 298.472 176.728C297.69 176.315 297.173 175.698 297.519 174.692C298.194 172.731 298.839 170.759 299.502 168.794C300 167.316 300.624 166.933 301.788 167.377C303.034 167.852 303.445 168.795 302.965 170.073C302.886 170.285 302.799 170.5 302.761 170.721L301.731 173.962Z" fill="#D82E21"/>
<path d="M306.996 202.165C305.453 202.101 305.014 201.256 305.62 200.006C306.307 198.588 306.846 197.099 307.451 195.642C308.118 194.038 309.645 193.63 310.678 194.819C310.906 195.081 311.079 195.627 310.962 195.913C310.252 197.652 309.462 199.359 308.675 201.066C308.331 201.813 307.764 202.26 306.996 202.165Z" fill="#D82E21"/>
<path d="M299.047 180.227C297.577 180.211 296.153 179.288 296.319 178.556C296.407 178.172 297.022 177.69 297.443 177.642C298.503 177.522 299.908 178.601 299.758 179.356C299.681 179.745 299.197 180.054 299.047 180.227Z" fill="#D82E21"/>
<path d="M306.213 204.975C305.592 204.819 305.205 204.82 304.956 204.636C304.571 204.353 304.281 203.942 303.95 203.585C304.409 203.344 304.847 203.029 305.335 202.892C305.617 202.812 306.043 202.935 306.293 203.119C306.676 203.402 306.963 203.816 307.29 204.174C306.887 204.474 306.483 204.774 306.213 204.975Z" fill="#D82E21"/>
<path d="M0.5 7.99999C0.5 3.85786 3.85786 0.5 8 0.5H341C345.142 0.5 348.5 3.85786 348.5 8V344C348.5 348.142 345.142 351.5 341 351.5H8C3.85786 351.5 0.5 348.142 0.5 344V7.99999Z" stroke="black" stroke-opacity="0.2"/>
<path d="M153.937 168.555C154.411 167.603 154.856 166.699 155.14 165.669C155.587 165.572 156.242 165.536 156.629 165.308C157.901 164.558 161.252 160.005 162.19 158.552C162.512 158.052 163.127 157.202 162.971 156.578C162.908 156.324 162.738 156.207 162.515 156.091L162.377 156.02C162.309 155.827 162.458 154.7 162.334 154.065C170.242 156.16 179 156.404 186.289 152.149C187.876 151.222 189.84 149.856 190.344 147.976C190.546 147.218 190.5 146.484 190.1 145.8C189.568 144.889 188.604 144.293 187.684 143.832C187.761 142.824 188.092 141.127 187.623 140.22C187.398 140.055 187.272 140.001 186.99 140.051C186.449 140.146 185.919 140.366 185.39 140.513C184.475 140.766 183.513 140.927 182.568 141.017C182.574 139.679 182.61 138.306 182.183 137.02C181.12 137.18 180.076 137.436 179.015 137.598C179.786 132.908 180.816 129.274 183.074 125.082C183.499 124.294 183.902 123.431 184.442 122.715C184.627 122.652 184.671 122.672 184.861 122.695C185.68 122.792 186.615 122.501 187.416 122.327C187.689 122.628 188.425 123.605 188.814 123.602C189.59 123.598 191.4 122.634 192.273 122.362C192.926 122.79 193.549 123.242 194.171 123.712C195.358 123.492 196.461 122.975 197.59 122.564C197.763 123.55 197.909 125.318 198.303 126.187C198.481 126.3 198.551 126.361 198.775 126.289C199.966 125.906 201.792 122.226 202.301 121.094C202.695 121.463 203.068 121.762 203.535 122.038C205.693 120.091 206.848 116.039 206.98 113.224C207.079 111.119 206.814 109.115 205.971 107.175C206.159 106.578 206.297 105.882 205.993 105.297C205.783 104.892 205.288 104.734 204.876 104.619C204.446 104.498 204.001 104.456 203.571 104.332C202.748 104.094 201.95 103.764 201.12 103.548C198.022 102.742 194.522 102.638 191.416 103.434C190.981 101.304 190.167 99.4549 189.199 97.5282C191.354 97.1892 194.646 96.1913 195.999 94.3373C196.227 94.0259 196.368 93.6509 196.292 93.2621C196.171 92.6403 195.652 92.1926 195.138 91.8782C193.676 90.9879 191.806 90.4022 190.178 89.8772C184.282 87.9751 173.95 85.7565 167.878 87.3201C165.856 87.8406 163.99 89.2754 162.9 91.0509C161.947 91.1362 160.996 91.2473 160.049 91.3835C159.102 91.5198 158.159 91.6813 157.22 91.8679C156.281 92.0551 155.348 92.267 154.421 92.5034C153.493 92.7405 152.573 93.0021 151.66 93.2878C150.619 93.6096 147.309 94.9122 146.52 95.0043C145.467 95.1263 144.152 94.6843 143.077 94.5727C140.37 94.2921 134.181 94.0551 131.794 95.191C131.455 95.3525 131.182 95.613 130.94 95.8952C130.381 96.5485 129.941 97.3575 129.459 98.0727C128.809 99.0374 128.114 99.9747 127.436 100.92C125.244 103.915 122.954 106.833 120.565 109.673C119.196 111.256 117.795 112.811 116.364 114.338C115.121 115.658 112.568 117.956 111.801 119.479C111.778 119.525 111.754 119.57 111.732 119.616C111.718 119.643 111.706 119.671 111.692 119.699C112.51 121.207 114.046 121.912 115.627 122.387C120.029 123.712 126.007 123.623 130.434 122.532C130.081 123.134 129.746 123.766 129.322 124.323C128.472 123.983 127.739 123.792 126.814 123.811C126.507 124 126.231 124.193 125.971 124.444C124.964 125.418 119.997 130.96 119.778 131.955C119.692 132.345 119.752 132.831 119.765 133.231C118.538 132.93 117.234 132.429 116.061 133.157C115.033 133.795 114.074 134.852 113.179 135.675C110.794 133.626 108.642 132.104 105.62 131.068C105.137 130.903 104.408 130.611 103.893 130.668C103.658 130.694 103.59 130.752 103.448 130.933C103.388 131.443 103.735 131.932 104.04 132.314C104.275 132.605 104.515 132.891 104.761 133.172C102.024 131.629 98.0324 129.917 94.8347 130.451C96.2226 131.704 97.6654 132.846 98.8959 134.269C97.3505 133.672 92.043 132.09 90.6076 132.843C90.5263 132.886 90.4982 132.925 90.4404 132.988C90.4192 133.209 90.4192 133.234 90.5635 133.419C91.0811 134.083 91.8357 134.704 92.4357 135.298C90.3591 135.022 88.2733 134.88 86.1783 134.874C82.9039 128.85 82.4218 122.226 84.3462 115.69C87.5828 104.697 96.2501 94.051 105.138 87.02C106.917 85.6293 108.754 84.3193 110.648 83.09C112.542 81.8607 114.486 80.7168 116.481 79.6581C119.535 77.9983 122.901 76.6059 126.221 75.5861C127.779 75.1074 129.857 74.7238 131.28 74.1221C123.335 70.5677 111.59 71.0154 103.276 72.9117C104.01 72.4634 104.755 72.0357 105.512 71.6292C106.27 71.2221 107.038 70.8368 107.816 70.4726C108.595 70.1079 109.383 69.7655 110.181 69.4455C110.979 69.1249 111.785 68.8266 112.599 68.5512C113.462 68.2603 115.293 68.0319 115.937 67.7021C115.851 67.5315 115.805 67.5343 115.629 67.4765C114.148 66.9921 110.086 66.9743 108.381 67.0133C98.5352 67.4473 88.2664 69.7455 80.0159 75.3812C78.6859 76.2898 77.3679 77.2563 76.1517 78.3138C75.3014 79.053 74.5085 79.854 73.6663 80.6C75.2912 77.9754 76.8628 75.3731 78.774 72.9352C79.6924 71.7632 80.8679 70.7841 81.7485 69.5897C72.5303 73.2701 64.7013 81.7021 60.8119 90.7554C57.5546 98.3394 57.1819 105.519 58.4838 113.579C56.8853 111.243 55.573 108.86 54.3809 106.295C54.2229 105.955 54.0826 105.457 53.7151 105.353C53.4408 105.523 53.3532 105.763 53.2788 106.071C53.095 106.836 53.0595 107.679 53.0217 108.462C52.8007 113.072 54.2859 117.665 56.7536 121.53C57.1378 122.124 57.5426 122.704 57.968 123.269C58.3934 123.834 58.8382 124.383 59.3026 124.916C59.767 125.45 60.2502 125.966 60.7512 126.465C61.2527 126.964 61.7715 127.444 62.3068 127.906C61.4869 127.599 57.4132 125.667 57.1143 125.697C57.009 125.767 56.9231 125.786 56.8859 125.917C56.7656 126.341 57.1281 126.876 57.3548 127.21C61.2585 132.981 70.7417 137.986 77.5242 139.234C77.8706 139.295 78.2169 139.355 78.5633 139.412C69.2897 148.356 64.6377 161.142 64.4173 173.887C64.3296 178.924 64.881 184.16 66.4109 188.971C63.9804 189.854 63.7577 190.672 62.7236 192.882C59.1726 200.472 57.0324 208.811 57.2168 217.227C57.2558 219.025 57.2993 220.983 57.8884 222.692C57.8936 222.707 57.8993 222.722 57.9045 222.736C61.9467 225.456 68.5906 225.975 73.2953 225.037C75.3359 224.631 77.6272 224.016 79.3306 222.781C78.7895 219.831 77.2705 216.584 74.7473 214.82C72.8859 213.518 71.1059 213.623 68.9479 213.8C68.1767 208.584 68.5511 203.729 71.7992 199.363C73.4253 197.177 75.6519 195.343 77.767 193.649C80.3337 191.615 82.9205 189.606 85.5268 187.622C87.8966 185.809 90.3522 184.043 92.3757 181.833C92.8853 183.762 93.9485 185.592 94.6619 187.462C93.9943 188.557 93.1245 189.128 92.0905 189.836C94.3527 196.573 97.6305 202.792 102.232 208.234C102.853 208.969 103.641 210.159 104.504 210.602C106.681 211.722 109.633 211.856 112.032 211.816C113.189 214.101 114.419 216.344 115.724 218.547C117.028 220.75 118.404 222.908 119.851 225.02C120.419 225.85 121.022 226.92 121.772 227.593C121.996 227.795 122.279 227.923 122.561 228.021C125.294 228.972 130.783 228.378 133.628 227.713C135.074 227.375 136.538 226.886 137.862 226.208C138.322 225.973 138.986 225.616 139.112 225.068C139.299 224.258 137.247 221.368 136.697 220.696C135.384 219.093 133.767 217.669 131.783 216.99C129.778 217.559 127.998 218.385 126.173 219.381C125.482 217.6 124.767 215.83 124.221 213.996C121.896 206.186 122.205 198.299 123.365 190.314C125.892 190.108 128.228 189.606 130.665 188.921C132.453 199.016 137.018 208.737 143.031 216.998C143.856 218.133 145.178 220.169 146.279 220.955C148.26 222.368 156.016 221.796 158.54 221.303C160.144 220.99 162.313 220.442 163.641 219.478C162.973 216.598 161.048 214.02 158.771 212.185C157.795 211.455 156.758 210.607 155.454 210.791C153.719 211.036 152.019 212.269 150.623 213.252C145.048 201.41 145.577 192.434 149.943 180.295C150.371 179.103 150.762 177.662 151.414 176.589L153.937 168.555ZM104.207 193.263C104.397 193.395 104.428 193.509 104.515 193.721C105.026 194.969 105.429 196.281 105.903 197.546C106.522 199.197 107.213 200.822 107.796 202.486L107.078 201.504C105.414 199.327 103.84 196.948 102.683 194.46C103.188 194.057 103.696 193.658 104.207 193.263Z" fill="black"/>
<path d="M171.965 118.422C172.171 118.719 172.241 119.089 172.339 119.434C171.876 119.407 171.411 119.355 170.949 119.313C170.777 119.299 170.611 119.274 170.442 119.245L170.417 119.144C170.795 118.801 171.486 118.614 171.965 118.422Z" fill="#FEFEFE"/>
<path d="M183.055 93.445C183.607 93.4068 183.973 93.5144 184.465 93.7648C187.65 95.3861 189.681 100.294 190.744 103.541C190.125 103.701 189.514 103.89 188.893 104.041L188.792 103.959C188.194 101.038 187.18 97.0627 184.852 95.0503C184.338 94.6061 183.751 94.2641 183.049 94.3335C182.51 94.3872 182.122 94.6195 181.799 95.0464C181.781 95.0691 181.765 95.0924 181.748 95.1153L181.691 95.0632C181.694 95.0315 181.692 94.9993 181.698 94.9681C181.807 94.4027 182.604 93.7616 183.055 93.445Z" fill="#4D4D4D"/>
<path d="M182.966 95.2109C183.215 95.2512 183.44 95.2939 183.655 95.4349C185.992 96.9668 187.291 101.781 187.921 104.405C187.093 104.703 186.302 105.065 185.502 105.43C185.316 104.624 185.126 103.991 184.664 103.295C184.507 103.075 184.328 102.855 184.12 102.681C183.954 102.542 183.805 102.491 183.589 102.507C183.445 102.585 183.363 102.658 183.293 102.811C182.814 103.864 183.188 105.165 183.575 106.182C183.355 106.332 183.11 106.461 182.881 106.597C182.641 106.155 182.426 105.708 182.303 105.219C181.772 103.107 181.767 98.8663 182.288 96.7909C182.435 96.2056 182.655 95.723 182.966 95.2109Z" fill="#FEFEFE"/>
<path d="M200.525 105.296C201.468 105.18 204.05 105.153 204.868 105.677C204.969 105.842 205.017 105.96 205.003 106.157C204.877 107.914 201.909 111.892 200.581 113.07C199.049 112.832 197.67 112.344 196.248 111.749C194.583 111.081 191.692 109.743 190.417 108.535C193.122 106.643 197.261 105.542 200.525 105.296Z" fill="#4D4D4D"/>
<path d="M200.186 105.95C201 105.925 203.187 105.681 203.778 106.234C203.874 106.323 203.85 106.39 203.861 106.511C203.618 106.958 203.274 107.064 202.815 107.243C202.292 107.399 201.71 107.442 201.165 107.43C200.588 107.417 199.502 107.298 199.11 106.828C199.011 106.709 199.042 106.698 199.051 106.555C199.314 106.229 199.795 106.063 200.186 105.95Z" fill="#666666"/>
<path d="M174.707 117.494C176.324 117.317 179.587 117.903 181.363 118.126C187.794 118.931 194.459 120.148 200.947 119.469L201.56 120.215C200.868 121.881 200.044 123.404 199.001 124.877C198.706 123.767 198.595 122.633 198.223 121.538C197.116 121.698 195.989 122.202 194.936 122.574C194.904 122.587 194.872 122.6 194.839 122.612C194.144 122.849 193.392 121.961 192.77 121.688C191.812 121.269 189.905 122.369 188.942 122.719C188.458 122.32 188.06 121.806 187.652 121.331C186.842 121.586 186.009 121.796 185.19 122.018C185.026 121.685 184.878 121.23 184.563 121.03C183.678 121.092 182.415 121.868 181.661 122.339C180.993 121.511 180.511 120.552 179.831 119.738C178.341 120.81 176.689 123.257 175.522 124.748C174.395 122.598 173.731 120.264 172.741 118.055C173.393 117.838 174.034 117.637 174.707 117.494Z" fill="#FEFEFE"/>
<path d="M168.366 120.273C169.005 120.734 169.529 121.674 169.881 122.362C171.888 126.276 171.632 129.712 170.316 133.769C170.213 133.705 170.109 133.643 170.002 133.584C167.269 132.053 164.319 131.743 161.332 132.569C160.229 132.968 159.201 133.525 158.16 134.061C160.454 128.55 163.446 123.807 168.366 120.273Z" fill="#43201D"/>
<path d="M178.519 138.473C179.527 138.316 180.53 138.156 181.529 137.945C181.674 139.206 181.607 140.462 181.668 141.727C183.548 141.878 185.206 141.497 187.025 141.088C186.919 142.332 186.836 143.869 186.341 145.016C186.297 145.266 186.195 145.608 186.34 145.836C186.484 146.062 186.768 146.245 186.975 146.408C187.139 146.6 187.295 146.79 187.488 146.953C186.507 148.022 184.787 148.579 183.425 148.953C181.624 149.447 179.758 149.685 177.901 149.84C171.216 150.399 165.862 149.129 160.021 145.833C160.689 145.169 161.364 144.504 161.977 143.789C162.635 143.023 163.218 142.217 163.935 141.5C163.85 142.23 163.497 144.47 163.862 145.056C164.043 145.078 164.082 145.074 164.239 144.96C164.609 144.694 164.926 144.274 165.252 143.953C166.176 143.042 167.388 142.054 168.635 141.639C168.66 141.63 168.686 141.623 168.712 141.615C169.143 142.805 169.365 143.996 169.459 145.257C169.513 145.993 169.466 146.854 169.693 147.559L169.854 147.631C169.933 147.608 170.005 147.592 170.076 147.545C170.515 147.254 170.596 146.206 170.69 145.707C172.263 146.538 176.278 148.533 178.088 148.123C178.768 147.97 179.09 147.202 179.425 146.658C179.787 147.151 180.157 147.638 180.535 148.119C181.956 147.609 183.883 147.196 185.126 146.381C184.664 146.033 182.963 143.692 182.393 143.004C181.125 141.474 179.769 140.016 178.519 138.473Z" fill="#FEFEFE"/>
<path d="M170.765 87.9277C176.841 87.7818 183.173 88.8157 188.977 90.568C190.297 90.9665 194.675 92.1372 195.303 93.3104C195.328 93.5417 195.313 93.7053 195.185 93.903C194.255 95.3443 190.45 96.315 188.81 96.6858C188.601 96.3804 188.382 96.0818 188.168 95.7809C187.713 95.1578 187.206 94.55 186.656 94.0097C185.79 93.1595 184.596 92.2574 183.324 92.3059C182.503 92.337 181.924 92.7627 181.375 93.3251C176.049 91.0141 169.497 90.6359 163.77 91.0225C166.215 88.6341 167.348 88.1112 170.765 87.9277Z" fill="#4D4D4D"/>
<path d="M168.896 120C170.162 120.01 171.404 120.272 172.665 120.371C173.11 121.907 174.465 125.076 175.516 126.222C176.761 124.484 178.136 122.738 179.669 121.246C179.946 121.699 180.236 122.144 180.54 122.58C179.925 123.6 179.334 124.642 178.844 125.728C177.532 128.632 175.503 134.008 176.654 137.082C176.66 137.053 176.667 137.024 176.674 136.995C176.899 135.96 176.924 134.88 177.116 133.835C177.652 130.907 178.58 128.117 179.751 125.387C180.053 124.682 180.375 123.673 180.899 123.113C182.402 123.324 182.576 122.724 183.839 122.107C180.42 126.714 178.908 131.958 178.103 137.549L176.955 137.132L176.708 137.229L176.642 137.409C176.672 137.61 176.727 137.728 176.846 137.893C177.741 139.131 178.827 140.243 179.828 141.393C181.134 142.923 182.43 144.462 183.714 146.01C182.748 146.457 181.749 146.842 180.764 147.245C180.221 146.666 179.907 145.911 179.376 145.313C178.83 145.889 178.568 146.744 177.93 147.22C177.717 147.379 177.533 147.432 177.267 147.385C177.158 147.31 177.003 147.26 176.982 147.12C176.915 146.677 177.106 146.05 177.155 145.593C177.3 144.248 177.278 142.863 176.959 141.544C176.164 138.246 173.521 135.629 170.69 133.911C171.518 132.282 172.052 130.782 172.139 128.938C172.307 125.406 171.231 122.593 168.896 120Z" fill="#43201D"/>
<path d="M163.527 133.109C164.164 133.013 164.908 133.082 165.546 133.173C169.007 133.664 172.522 135.951 174.593 138.735C176.496 141.291 176.428 143.951 175.983 146.968C174.038 146.414 172.301 145.692 170.651 144.5C170.282 143.109 169.955 141.62 169.056 140.464C168.755 140.519 168.457 140.613 168.162 140.694C166.915 141.156 165.914 141.755 164.932 142.649C164.969 141.891 165.123 141.096 164.936 140.347C164.873 140.093 164.793 139.94 164.559 139.805C164.338 139.825 164.255 139.865 164.098 140.025C163.521 140.61 163.01 141.271 162.443 141.868C161.363 143.008 160.202 144.119 159.037 145.172C157.85 144.283 156.742 143.466 155.999 142.158C156.424 139.9 156.916 137.706 157.582 135.505C159.47 134.218 161.232 133.345 163.527 133.109Z" fill="#D78687"/>
<path d="M93.5125 182.109C94.144 182.403 94.8054 182.684 95.3982 183.05C97.7027 184.473 99.7572 186.481 102.367 187.383C102.856 189.013 103.381 190.631 103.942 192.238C103.1 192.779 102.286 193.415 101.53 194.07C102.392 196.989 105.584 201.84 107.958 203.819C106.315 204.661 105.385 205.44 104.752 207.215C105.954 206.102 107.119 205.297 108.591 204.569C108.999 205.316 109.318 206.11 109.654 206.891C110.237 208.224 110.839 209.549 111.461 210.865C109.186 210.761 107.017 210.529 104.828 209.849C100.376 204.982 95.2559 196.598 93.3687 190.264C94.3876 189.528 95.0823 188.756 95.591 187.6C95.2793 185.725 94.3565 183.798 93.5125 182.109Z" fill="#4D4D4D"/>
<path d="M158.132 98.7133C161.695 98.3538 165.222 99.7309 168.076 101.778C170.037 103.184 171.712 104.604 174.079 105.314C174.096 105.91 174.102 106.507 174.041 107.101C173.852 108.959 173.085 110.548 172.008 112.05C171.826 112.303 171.561 112.744 171.295 112.898C170.659 113.267 169.219 112.638 168.507 112.501C164.517 111.723 160.309 112.484 156.391 113.341C154.661 111.446 153.143 109.529 152.924 106.881C152.732 104.548 153.463 102.044 154.986 100.254C155.888 99.1961 156.774 98.831 158.132 98.7133Z" fill="#FEFEFE"/>
<path d="M169.017 103.797C169.277 103.802 169.495 103.832 169.707 103.993C170.499 104.594 170.838 105.871 170.991 106.813C171.194 108.067 171.185 109.624 170.417 110.69C170.054 110.668 169.82 110.625 169.539 110.374C168.595 109.531 168.281 107.731 168.244 106.515C168.215 105.54 168.324 104.537 169.017 103.797Z" fill="black"/>
<path d="M162.021 156.17C162.237 156.471 160.066 157.814 159.796 157.914C158.091 158.548 156.062 158.62 154.269 158.457C150.915 158.151 147.902 155.577 145.384 153.526C142.547 151.215 139.902 148.656 137.463 145.929C136.349 144.683 135.276 143.397 134.284 142.051C133.576 141.095 132.9 140.116 132.256 139.116C131.612 138.116 131.002 137.096 130.424 136.056C129.847 135.016 129.304 133.958 128.796 132.882C128.288 131.807 127.815 130.716 127.378 129.609C126.931 128.466 126.286 127.039 126.475 125.797C126.687 125.641 126.696 125.607 126.955 125.617C127.214 125.786 127.284 126.01 127.411 126.277L127.479 126.417L127.519 126.502C127.934 126.071 128.29 125.617 128.646 125.136L127.302 124.883C126.836 125.185 126.402 125.546 126.056 125.984C125.27 126.477 121.535 131.095 120.718 132.048C121.582 134.094 122.228 136.213 123.137 138.253C127.496 148.04 135.409 157.188 145.143 161.909C146.862 162.743 148.737 163.438 150.632 163.872C151.601 164.094 152.585 164.252 153.576 164.34C154.809 164.448 155.653 164.65 156.529 163.613C157.215 162.8 157.93 162.009 158.614 161.194C159.763 159.825 161.465 158.237 162.115 156.536C162.101 156.371 162.12 156.308 162.021 156.17Z" fill="#8CC63F"/>
<path d="M149.711 177.766C149.722 178.429 149.218 179.383 148.963 179.999C147.453 183.662 146.24 187.487 145.625 191.412C144.691 197.382 145.399 203.216 147.469 208.87C148.093 210.573 148.847 212.404 149.921 213.874C149.115 214.627 148.564 215.415 148.05 216.389C150.294 214.392 152.867 212.267 155.927 211.779C159.084 213.076 160.907 216.117 162.508 218.95L161.522 219.32C161.257 218.577 160.901 217.834 160.485 217.165C159.435 215.479 157.702 214.608 155.815 214.171C158.379 216.012 159.365 216.549 160.705 219.524C159.929 219.757 157.328 220.579 156.707 220.392C155.859 218.203 154.315 216.856 152.28 215.781C153.757 217.246 154.913 218.653 155.716 220.589C152.92 220.809 150.102 220.835 147.329 220.363C139.232 210.456 134.9 200.881 131.442 188.629C137.217 186.942 142.412 184.016 147.035 180.178C147.957 179.414 148.822 178.569 149.711 177.766Z" fill="#4D4D4D"/>
<path d="M131.978 96.0186C133.261 95.8106 134.551 95.6642 135.848 95.5794C137.145 95.4945 138.443 95.4716 139.742 95.5106C140.778 95.5451 141.813 95.6031 142.846 95.6848C144.242 95.8093 146.026 96.2622 147.382 95.9168C146.918 99.2587 145.807 102.148 144.305 105.145C143.944 105.867 143.554 106.769 143.029 107.378C143.318 105.255 143.794 103.395 143.452 101.23C142.988 102.689 142.766 104.248 142.344 105.731C141.093 110.133 138.756 115.384 135.507 118.659C132.444 121.748 127.177 122.16 123.037 122.178C120.113 122.192 114.715 121.798 112.587 119.694C113.852 118.368 115.327 117.237 116.617 115.924C118.776 113.704 120.846 111.404 122.828 109.024C124.81 106.645 126.696 104.192 128.489 101.666C129.752 99.8565 131.025 98.0158 131.978 96.0186Z" fill="#4D4D4D"/>
<path d="M147.381 95.9095C148.206 95.4018 150.188 94.949 151.16 94.663C159.157 92.3094 168.851 91.1547 177.051 93.1075C178.308 93.4131 179.55 93.7663 180.78 94.1672C179.829 96.4679 179.801 98.7293 179.913 101.182C178.906 100.5 177.861 100.099 176.691 99.7851C176.771 100.828 177.078 102.506 176.363 103.375C176.168 103.613 175.88 103.775 175.571 103.798C175.119 103.832 174.532 103.49 174.141 103.277C169.865 100.944 167.246 97.7879 162.334 96.0415C160.365 95.3415 158.417 95.0496 156.331 95.2825C155.157 95.4135 153.373 95.8916 152.481 96.7016C152.39 96.7844 152.341 96.8745 152.295 96.9861L152.339 97.1495C152.869 97.2336 153.915 96.7554 154.484 96.6365C157.759 95.9523 160.883 96.8004 163.872 98.142C161.059 97.5953 157.641 96.8842 155.078 98.6266C153.329 99.8155 152.165 102.035 151.786 104.076C151.325 106.563 151.823 109.058 153.271 111.142C153.93 112.09 154.778 112.857 155.615 113.642C154.338 114.128 152.695 114.754 151.757 115.793L151.719 115.968C151.938 115.958 152.11 115.852 152.308 115.765C153.37 115.299 154.451 114.984 155.571 114.689C158.698 113.867 162.135 113.288 165.37 113.282C166.598 113.28 167.852 113.395 169.077 113.484C164.465 114.961 158.879 117.412 155.736 121.205C159.475 118.654 163.444 116.457 167.753 115.022C169.883 114.312 173.679 113.626 175.435 112.519C174.424 112.533 173.411 112.496 172.424 112.749C174.011 110.799 175.202 108.67 174.923 106.07C174.895 105.825 174.862 105.581 174.822 105.338C175.745 105.219 176.61 105.054 177.212 104.265C177.836 103.447 177.81 102.304 177.655 101.334C177.611 101.061 177.551 100.791 177.491 100.521C180.319 102.443 181 103.903 182.284 106.981C179.872 108.435 177.541 110.129 175.934 112.478C181.282 108.339 188.435 104.654 195.294 104.269C196.663 104.192 198.044 104.339 199.401 104.508C196.963 104.863 191.625 105.895 190.058 107.893C189.864 108.14 189.71 108.455 189.748 108.777C189.828 109.451 190.54 110 191.055 110.373C192.883 111.699 198.23 114.275 200.485 113.793C202.242 113.418 203.808 111.279 204.645 109.841C204.926 109.358 205.195 108.869 205.454 108.374C206.656 112.865 205.421 116.738 203.518 120.775C202.748 120.07 201.913 119.379 201.262 118.559C195.876 118.732 190.588 118.157 185.246 117.559C182.731 117.277 176.627 116.256 174.33 116.619C170.553 117.216 166.406 119.823 163.837 122.559C159.67 126.996 156.912 132.663 155.572 138.577C155.282 139.859 154.945 141.297 155 142.61C155.033 143.412 155.202 144.061 155.816 144.604C156.971 145.623 158.452 146.411 159.8 147.144C165.675 150.339 170.628 151.439 177.346 150.892C179.758 150.696 186.29 149.898 187.672 147.936C187.801 147.752 187.816 147.583 187.763 147.367C187.723 147.203 187.626 147.049 187.486 146.955C187.293 146.792 187.137 146.603 186.973 146.411L187.226 146.268L187.236 146.053C187.21 146.008 187.179 145.966 187.157 145.918C186.961 145.485 187.184 144.977 187.344 144.571C188.002 145.16 188.929 145.553 189.247 146.445C189.442 146.994 189.318 147.578 189.062 148.086C187.822 150.543 183.531 152.31 181.006 153.115C176.293 154.618 170.936 154.577 166.091 153.741C158.247 152.387 151.334 148.838 146.924 142.017C145.24 139.412 144.016 136.521 142.753 133.7C142.507 133.15 142.037 131.787 141.494 131.508C141.138 132.503 142.535 136.158 143.007 137.253C145.986 144.165 150.381 148.207 151.472 149.082C152.771 150.124 154.136 151.1 155.626 151.851C156.347 152.214 157.099 152.547 157.885 152.739C158.69 152.935 159.538 153.017 160.27 153.435C161.908 154.369 161.01 156.223 159.685 156.901C157.556 157.989 154.981 157.468 152.848 156.68C150.467 155.799 148.402 154.41 146.449 152.804C144.508 151.207 142.644 149.516 140.878 147.726C137.342 144.142 134.199 140.156 131.682 135.789C130.951 134.521 130.274 133.223 129.655 131.897C129.344 131.23 129.048 130.557 128.767 129.877C128.678 129.662 127.849 127.925 127.968 127.808C129.681 126.12 130.956 124.036 132.297 122.053C133.024 121.741 133.739 121.402 134.441 121.037C134.624 123.737 135.113 126.646 136.432 129.034C136.388 127.757 136.175 126.461 136.036 125.191C135.851 123.529 135.718 121.863 135.636 120.192C139.497 116.573 141.359 112.259 143.029 107.371C143.553 106.762 143.943 105.86 144.305 105.138C145.807 102.141 146.918 99.2514 147.381 95.9095Z" fill="#4D4D4D"/>
<path d="M107.525 68.1932C108.792 68.085 110.118 68.152 111.391 68.1678C107.962 69.3704 99.8722 73.2639 97.5508 75.9458C98.9975 75.4244 100.278 74.4892 101.735 74.0429C104.224 73.2806 106.929 72.9317 109.517 72.7202C116.336 72.163 122.95 72.6318 129.636 74.0717C127.917 74.1785 126.084 74.789 124.442 75.2946C123.913 75.461 123.386 75.6344 122.862 75.8146C122.337 75.9949 121.815 76.1819 121.295 76.3759C120.775 76.5697 120.258 76.7704 119.744 76.9778C119.229 77.1853 118.718 77.3995 118.209 77.6203C117.7 77.8411 117.194 78.0684 116.691 78.3024C116.188 78.5365 115.688 78.7771 115.192 79.0241C114.695 79.2712 114.202 79.5248 113.712 79.7848C113.222 80.0449 112.735 80.3113 112.252 80.584C111.769 80.8568 111.289 81.1357 110.814 81.421C110.338 81.7063 109.866 81.9978 109.398 82.2953C108.93 82.5929 108.466 82.8966 108.005 83.2065C107.545 83.5162 107.089 83.8319 106.637 84.1535C106.185 84.4752 105.738 84.8027 105.294 85.1362C104.851 85.4695 104.412 85.8086 103.977 86.1536C103.543 86.4984 103.113 86.8488 102.688 87.205C102.262 87.5611 101.842 87.9227 101.426 88.2898C92.4826 96.1047 82.5832 109.274 81.807 121.567C81.5545 125.563 82.4275 131.926 85.1324 135.005C84.6606 135.1 84.1497 135.179 83.7063 135.373C82.2063 136.028 80.3179 137.873 79.0759 138.993C77.9805 138.56 76.8427 138.225 75.7402 137.805C70.6838 135.884 65.7825 133.693 61.572 130.239C60.5981 129.423 59.741 128.542 58.8996 127.594C60.4652 128.218 62.0647 129.028 63.6802 129.493C64.0659 129.604 64.4366 129.686 64.7998 129.488C64.8484 129.29 64.8757 129.233 64.7462 129.05C64.4745 128.666 63.9283 128.278 63.5843 127.932C62.9679 127.299 62.37 126.649 61.7908 125.982C56.8239 120.326 54.3809 115.847 54.1318 108.118C55.0407 109.874 56.0269 111.654 57.1673 113.272C57.6501 113.956 58.2729 114.528 58.7352 115.222C59.1848 115.897 59.4408 116.691 59.8987 117.355C60.0242 117.537 60.026 117.585 60.2482 117.623C60.2059 117.066 59.983 116.469 59.8521 115.922C59.6362 114.999 59.4635 114.068 59.3342 113.129C58.6388 107.75 58.9146 101.908 60.2189 96.6374C61.8011 90.2438 65.2629 84.191 69.7433 79.3812C70.9254 78.1124 72.2094 76.9557 73.511 75.812C75.3435 74.2019 77.2 72.6994 79.2923 71.4342C78.3403 72.546 77.3601 73.6475 76.4776 74.8158C74.5602 77.354 72.9443 80.1594 71.4787 82.9773C70.7566 84.3653 70.0136 85.7072 69.6344 87.2367C70.0267 86.5254 70.456 85.8371 70.9223 85.1718C71.3884 84.5064 71.8887 83.868 72.4235 83.2564C74.8648 80.4645 77.7778 78.1837 80.9184 76.2308C89.0523 71.1729 98.024 68.8655 107.525 68.1932Z" fill="#4D4D4D"/>
<path d="M97.5926 131.531C98.4495 131.663 99.3142 131.98 100.128 132.281C103.521 133.533 105.389 135.064 108.105 137.318C107.664 135.096 106.123 133.358 104.728 131.644C107.475 132.735 110.065 134.631 112.32 136.509C109.588 139.224 107.318 142.18 105.252 145.425C104.719 146.263 104.14 147.101 103.685 147.983C104.506 147.123 105.255 146.169 106.032 145.268C107.519 143.533 109.03 141.82 110.566 140.129C112.597 137.899 114.841 135.864 117.032 133.794C118.088 134.087 119.155 134.336 120.231 134.542C120.565 135.231 120.808 135.998 121.085 136.713C121.523 137.869 122.016 139.001 122.562 140.11C125.777 146.635 130.372 152.619 135.952 157.295C138.622 159.533 141.517 161.553 144.67 163.049C146.228 163.788 147.853 164.398 149.533 164.792C150.343 164.982 151.159 165.106 151.986 165.199C152.526 165.259 153.321 165.24 153.638 165.779C154.058 166.495 153.496 167.613 153.224 168.286C152.429 170.254 151.91 172.333 150.981 174.247C150.522 175.19 149.961 176.087 149.239 176.852C148.053 178.112 146.417 179.101 145.039 180.148C144.007 180.932 142.971 181.729 141.88 182.431C141.535 182.653 141.187 182.87 140.837 183.083C140.486 183.295 140.133 183.503 139.777 183.707C139.42 183.91 139.062 184.109 138.7 184.303C138.339 184.496 137.975 184.686 137.608 184.87C137.242 185.054 136.873 185.233 136.502 185.408C136.131 185.582 135.758 185.752 135.382 185.916C135.006 186.081 134.628 186.24 134.249 186.395C133.869 186.549 133.487 186.699 133.103 186.843C132.719 186.988 132.334 187.127 131.946 187.261C131.558 187.395 131.169 187.524 130.778 187.648C130.387 187.772 129.995 187.891 129.601 188.004C129.207 188.118 128.811 188.226 128.414 188.329C128.017 188.432 127.619 188.53 127.219 188.623C126.82 188.715 126.419 188.802 126.017 188.884C125.615 188.966 125.213 189.043 124.809 189.114C124.405 189.185 124 189.251 123.594 189.311C124.356 185.805 125.102 182.334 126.001 178.857C124.337 181.907 123.35 185.427 122.575 188.798C120.651 197.162 120.561 205.97 122.978 214.24C123.554 216.21 124.214 218.22 125.308 219.97C124.284 220.85 123.283 221.732 122.564 222.887C124.012 222.267 125.353 221.31 126.7 220.502C128.299 219.543 129.923 218.808 131.683 218.194C134.619 219.377 136.491 222.429 138.023 225.027C137.641 225.177 137.244 225.298 136.857 225.431C136.828 225.307 136.799 225.184 136.768 225.06C136.251 222.975 134.846 221.195 133.018 220.09C134.356 221.908 135.402 223.587 136.101 225.754C134.551 226.276 132.98 226.747 131.354 226.961C130.635 224.84 129.819 223.341 127.814 222.238C128.964 223.76 129.771 225.326 130.472 227.089C127.934 227.441 125.236 227.495 122.702 227.096C122.113 226.243 121.533 225.385 120.961 224.52C120.39 223.655 119.829 222.784 119.276 221.907C118.724 221.031 118.181 220.148 117.648 219.259C117.114 218.371 116.591 217.477 116.077 216.577C115.563 215.677 115.058 214.772 114.564 213.861C114.07 212.95 113.585 212.034 113.11 211.113C112.635 210.192 112.171 209.266 111.716 208.334C111.261 207.403 110.816 206.467 110.382 205.526C109.947 204.586 109.523 203.64 109.108 202.69C108.694 201.74 108.29 200.786 107.896 199.828C107.503 198.869 107.119 197.906 106.747 196.939C106.374 195.972 106.011 195.002 105.659 194.027C105.307 193.052 104.966 192.074 104.635 191.092C104.304 190.11 103.984 189.124 103.674 188.135C103.364 187.146 103.065 186.154 102.777 185.158C102.489 184.163 102.211 183.165 101.944 182.163C101.136 179.327 100.249 176.45 99.7397 173.545C99.5445 172.421 99.3836 171.292 99.2569 170.159C99.1878 169.532 99.2188 168.762 99.0433 168.163C98.81 169.168 98.8426 170.23 98.8714 171.255C99.0141 176.328 100.6 180.929 101.834 185.789C101.437 185.547 101.044 185.299 100.654 185.046C100.265 184.793 99.8787 184.534 99.4964 184.27C99.114 184.005 98.7356 183.736 98.361 183.461C97.9863 183.186 97.6155 182.906 97.2488 182.62C96.8821 182.335 96.5195 182.044 96.1609 181.749C95.8024 181.453 95.4482 181.152 95.0982 180.846C94.7482 180.541 94.4026 180.23 94.0614 179.915C93.7202 179.599 93.3835 179.279 93.0513 178.954C92.7192 178.629 92.3918 178.299 92.069 177.965C91.7462 177.631 91.4281 177.292 91.1149 176.948C90.8016 176.605 90.4934 176.258 90.1901 175.905C89.8867 175.553 89.5882 175.197 89.295 174.837C89.0016 174.476 88.7135 174.112 88.4305 173.743C88.1475 173.374 87.8699 173.002 87.5974 172.625C87.3251 172.249 87.058 171.869 86.7962 171.485C86.5347 171.101 86.2785 170.713 86.0278 170.322C86.3024 171.171 86.7266 171.97 87.1408 172.759C88.8146 175.948 90.9771 178.441 93.524 180.952C92.1462 180.294 90.7155 179.527 89.4329 178.7C88.2177 177.917 87.0612 177.05 85.8242 176.3C86.6945 177.196 87.6119 178.04 88.5765 178.834C89.5411 179.627 90.5468 180.364 91.5936 181.046C90.2713 182.476 88.4872 183.69 86.9542 184.888C84.3252 186.944 81.6637 188.954 79.057 191.039C75.2012 194.123 71.0619 197.316 68.8767 201.873C67.1699 205.433 66.7907 210.237 68.0904 213.98C65.3047 214.96 63.5377 216.313 62.1198 218.917C63.3782 217.681 64.8375 216.544 66.4631 215.835C68.3855 214.998 70.7727 214.488 72.783 215.308C75.5909 216.454 76.9323 219.549 78.0245 222.157C77.4102 222.471 76.8074 222.752 76.1477 222.958C75.931 222.041 75.7776 221.134 75.4656 220.238C74.9103 218.644 74.1602 217.062 72.5839 216.291C74.0298 218.754 74.5372 220.489 75.0236 223.306C73.1089 223.743 71.2836 224.107 69.3074 224.154C69.0048 222.228 68.5008 219.719 66.9731 218.37C66.8364 218.249 66.6711 218.067 66.4838 218.082C66.5917 218.457 66.8121 218.785 66.9349 219.159C67.4834 220.83 67.9587 222.413 68.2595 224.151C64.7802 224.125 61.9708 223.424 58.7465 222.183C58.7354 220.962 58.5956 219.743 58.575 218.52C58.5489 216.994 58.5857 215.468 58.6855 213.945C58.7852 212.421 58.9475 210.904 59.1724 209.394C59.3694 208.067 59.6091 206.748 59.8915 205.436C60.1739 204.125 60.4985 202.824 60.8652 201.534C61.2318 200.243 61.6398 198.966 62.0891 197.702C62.5385 196.438 63.0283 195.19 63.5585 193.958C63.9826 192.951 64.4227 191.694 65.1076 190.847C65.6683 190.153 66.6052 190 67.2944 189.472C67.3173 189.454 67.3394 189.436 67.362 189.418C65.7018 182.341 65.4459 174.736 66.3401 167.538C67.7809 155.942 73.6536 144.391 82.9885 137.188C83.4287 136.848 83.8717 136.562 84.4024 136.381C86.6907 135.599 90.3868 135.984 92.7839 136.416C93.875 136.613 94.9462 136.942 96.0481 137.071L96.1729 137.085C94.9557 135.912 93.5395 134.88 92.2531 133.775C93.984 133.888 95.6081 134.253 97.2538 134.8C97.9844 135.042 100.772 136.335 101.233 136.276C101.343 136.108 101.353 136.073 101.316 135.862C101.113 134.728 98.5252 132.258 97.5926 131.531Z" fill="#4D4D4D"/>
<path d="M121 338.766C75.1604 338.766 38 334.831 38 329.977C38 325.123 75.1604 321.188 121 321.188C166.84 321.188 204 325.123 204 329.977C204 334.831 166.84 338.766 121 338.766Z" fill="#C9C3C3"/>
<path d="M149.657 270.234L151.614 322.004C152.59 321.758 153.986 321.583 155.528 322.004C160.353 323.32 161.873 329.177 161.958 329.524H135.399V279.2L149.657 270.234Z" fill="#E9A262"/>
<path d="M79.9517 327.323C80.0368 328.046 80.1091 328.772 80.1869 329.525H100.415C98.758 323.653 97.6943 322.948 91.3921 322.827C91.1398 320.523 91.0036 318.251 90.6153 316.051C90.2885 314.198 90.7413 312.839 91.7618 311.668C93.4916 309.682 95.2104 307.676 97.0078 305.792C101.411 301.174 103.709 295.26 104.1 288.086C104.161 286.967 103.826 286.671 103.023 286.622C101.984 286.56 100.95 286.349 99.9127 286.217C96.6939 285.805 93.4852 285.183 90.231 285.797C89.5667 285.922 89.2085 286.133 89.0482 287C87.5278 295.226 83.7897 301.429 78.1313 305.826C77.5841 306.251 77.5118 306.702 77.5925 307.38C78.3839 314.027 79.1686 320.675 79.9517 327.323Z" fill="#E9A262"/>
<path d="M155.758 247.96C156.475 252.054 157.077 258.805 155.013 266.566C154.045 270.203 151.798 278.245 144.855 284.401C143.778 285.355 142.819 286.061 142.152 286.522L142.059 320.36C142.789 320.335 144.973 320.359 147.091 321.902C149.197 323.437 149.931 325.522 150.073 325.952C150.576 327.461 150.526 328.783 150.446 329.519H128.64L125.192 291.535L93.5999 289.607L89.1267 289.8C88.7298 292.392 87.6294 296.997 84.1875 301.175C81.0879 304.938 77.3619 306.809 75.3344 307.827C73.7731 308.611 72.4065 309.131 71.4203 309.466L67.5996 312.84L68.4383 320.456C69.056 320.313 71.3603 319.859 73.5638 321.228C75.988 322.734 76.6077 325.4 76.8254 326.337C77.1302 327.649 77.0915 328.78 77.0118 329.519H57.4418L53.8073 304.357L62.4741 294.813C61.458 289.408 60.8412 281.881 62.7537 273.411C63.2248 271.324 63.8012 269.394 64.4311 267.626C61.8164 266.574 57.591 264.478 53.5278 260.396C51.823 258.683 47.5971 254.334 45.4203 247.092C43.0278 239.133 44.5932 232.613 45.6998 228.004C45.6998 228.004 47.3803 221.005 51.874 216.181C52.906 215.073 53.8154 214.657 54.3734 214.575C55.3809 214.427 56.4034 214.607 57.4061 214.786C57.418 215.143 57.7869 215.506 57.7214 215.857C56.6489 221.599 56.3696 226.373 56.3235 229.739C56.271 233.584 56.2547 235.767 56.8827 238.705C57.3771 241.017 58.5424 246.163 62.7537 250.852C66.146 254.629 69.973 256.393 72.2592 257.214C73.7782 256.231 75.3618 255.264 77.012 254.322C86.305 249.019 92.7683 247.928 104.69 243.621C107.415 242.637 111.493 241.103 116.432 238.994L122.396 219.134L123.98 196.672C124.263 196.146 124.716 195.382 125.378 194.551C130.982 187.513 141.261 188.618 141.686 188.67C143.414 188.882 146.241 189.473 149.421 191.37L160.138 186.742H161.909C162.476 186.684 163.321 186.637 164.332 186.742C165.371 186.85 169.882 187.317 172.532 191.177C174.298 193.747 174.354 196.536 174.303 197.732C173.395 198.366 172.181 199.287 170.855 200.528C169.949 201.376 168.821 202.432 167.687 203.999C167.114 204.79 165.888 206.508 165.17 208.723C164.918 209.5 163.383 214.24 165.543 218.46C167.267 221.827 171.391 224.953 174.303 225.594C174.588 225.656 175.277 225.786 175.701 226.365C176.821 227.892 174.998 231.051 174.862 231.281C172.984 234.465 169.557 235.524 167.686 236.102C163.658 237.346 160.058 236.908 157.808 236.391L155.758 247.96Z" fill="#F8D7A2"/>
<path d="M135.527 211.371L128.802 226.828C128.544 227.42 127.978 227.617 127.544 227.265L114.406 216.603C110.25 213.23 108.871 205.828 111.34 200.153C115.594 190.376 124.933 187.13 132.092 192.94C136.749 196.719 138.294 205.013 135.527 211.371Z" fill="#E29257"/>
<path d="M122.825 222.785C122.307 222.125 121.746 221.507 121.115 220.959C120.34 220.375 119.537 219.84 118.787 219.21C118.054 218.594 117.374 217.91 116.75 217.178C114.309 214.313 112.327 210.721 111.802 206.895C111.503 204.714 111.45 202.352 112.084 200.221C112.558 198.622 113.477 197.26 114.167 195.771C114.21 195.643 114.249 195.513 114.282 195.381C114.284 195.345 114.288 195.309 114.291 195.273C113.155 196.648 112.154 198.279 111.34 200.15C108.871 205.825 110.251 213.228 114.406 216.6L123.813 224.234C123.49 223.746 123.165 223.261 122.825 222.785Z" fill="#BC723F"/>
<path d="M132.092 192.939C128.25 189.821 123.78 189.312 119.804 191.021C120.454 190.882 121.086 190.872 121.743 190.86C123.33 190.831 124.92 191.041 126.442 191.519C129.496 192.477 132.805 194.161 134.599 196.996C136.164 199.468 136.3 202.659 136.094 205.516C135.831 209.145 134.804 212.534 133.435 215.862C133.542 215.6 133.649 215.338 133.756 215.076C133.38 216.035 133.003 217.002 132.652 217.979L135.527 211.37C138.294 205.012 136.749 196.718 132.092 192.939Z" fill="#EDA16E"/>
<path d="M158.647 245.429V252.312C151.922 253.118 137.372 253.838 123.49 245.564C120.045 243.51 117.19 241.23 114.848 239.008L117.084 232.125C119.307 234.347 122.016 236.627 125.285 238.681C138.458 246.954 152.265 246.235 158.647 245.429ZM123.934 240.319C123.89 239.301 123.135 238.44 122.117 238.44C121.166 238.44 120.256 239.304 120.3 240.319C120.344 241.338 121.098 242.199 122.117 242.199C123.067 242.199 123.978 241.335 123.934 240.319ZM133.346 245.043C133.302 244.025 132.548 243.163 131.529 243.163C130.578 243.163 129.668 244.028 129.712 245.043C129.756 246.062 130.51 246.923 131.529 246.923C132.479 246.923 133.39 246.059 133.346 245.043ZM143.038 248.514C142.994 247.495 142.24 246.634 141.221 246.634C140.27 246.634 139.36 247.499 139.404 248.514C139.448 249.532 140.202 250.394 141.221 250.394C142.171 250.394 143.082 249.529 143.038 248.514ZM154.221 249.574C154.177 248.556 153.422 247.694 152.404 247.694C151.453 247.694 150.543 248.559 150.587 249.574C150.631 250.593 151.385 251.454 152.404 251.454C153.354 251.454 154.265 250.59 154.221 249.574Z" fill="#FE4D39"/>
<path d="M136.262 250.697C134.599 250.189 133.011 249.564 131.475 248.724C130.143 247.995 128.844 247.2 127.459 246.579C127.712 246.69 127.965 246.801 128.218 246.911C125.22 245.608 122.302 243.915 119.916 241.592C118.848 240.553 118.041 239.212 117.642 237.75C117.291 236.468 117.26 235.089 117.259 233.764C117.258 233.321 117.343 232.907 117.494 232.53C117.356 232.395 117.219 232.26 117.084 232.125L114.847 239.008C117.189 241.23 120.045 243.51 123.489 245.564C129.164 248.946 134.95 250.825 140.268 251.81C138.926 251.475 137.591 251.104 136.262 250.697Z" fill="#DB3A2E"/>
<path d="M136.026 243.732C137.003 244.117 138.035 244.388 139.037 244.682C140.172 245.015 141.312 245.328 142.46 245.61C144.644 246.147 146.855 246.531 149.078 246.851C150.793 247.08 152.512 247.264 154.227 247.505L153.382 247.387C154.389 247.525 155.407 247.623 156.421 247.546C156.612 247.505 156.8 247.455 156.986 247.394C157.528 247.107 158.096 246.978 158.647 246.995V245.433C153.9 246.033 145.045 246.583 135.399 243.422C135.606 243.528 135.815 243.632 136.026 243.732Z" fill="#F97167"/>
<path d="M158.948 253.819H158.718C158.269 253.819 157.901 253.439 157.901 252.974V246.759C157.901 246.294 158.269 245.914 158.718 245.914H158.948C159.397 245.914 159.765 246.294 159.765 246.759V252.974C159.765 253.439 159.397 253.819 158.948 253.819Z" fill="#DDB819"/>
<path d="M159.069 265.285H158.598C157.677 265.285 156.923 264.505 156.923 263.553V254.967C156.923 254.014 157.677 253.234 158.598 253.234H159.069C159.991 253.234 160.744 254.014 160.744 254.967V263.553C160.744 264.505 159.991 265.285 159.069 265.285Z" fill="#DDB819"/>
<path d="M169.875 196.837C169.819 196.557 169.802 196.409 169.759 196.269C169.398 195.1 169.327 193.629 168.582 192.853C167.885 192.128 166.46 192.175 165.373 191.822C164.208 191.443 163.038 191.057 161.921 190.552C161.278 190.262 160.663 189.807 160.164 189.293C159.011 188.107 159.184 187.179 160.682 186.553C162.642 185.734 164.594 184.836 166.628 184.278C169.485 183.494 170.694 184.387 171.37 187.346C171.772 189.105 171.943 190.805 170.45 192.191C170.322 192.31 170.329 192.679 170.387 192.9C170.702 194.118 171.052 195.325 171.381 196.504C172.191 196.647 172.988 196.711 173.732 196.951C174.128 197.08 174.599 197.457 174.72 197.831C174.807 198.099 174.442 198.634 174.15 198.9C173.479 199.512 172.722 200.021 172.015 200.592C168.781 203.204 166.235 206.334 165.549 210.655C164.69 216.063 166.818 220.244 170.909 223.45C171.958 224.272 173.202 224.828 174.36 225.499C174.673 225.68 175.061 225.773 175.302 226.022C175.634 226.365 176.058 226.815 176.063 227.223C176.066 227.515 175.487 227.971 175.095 228.082C173.851 228.434 172.584 228.798 171.306 228.908C166.828 229.295 162.378 229.153 158.083 227.568C151.705 225.215 148.975 218.917 151.535 212.302C153.357 207.596 156.526 203.997 160.531 201.146C163.1 199.317 165.853 197.903 168.912 197.179C169.219 197.107 169.511 196.969 169.875 196.837Z" fill="black"/>
<path d="M168.537 200.089C168.716 200.835 168.797 201.607 168.778 202.376C169.045 202.59 169.448 202.522 169.719 202.313C169.989 202.103 170.158 201.786 170.318 201.479C170.565 201.008 170.811 200.537 171.057 200.066C171.38 199.447 171.706 198.821 171.89 198.144C171.956 197.899 169.466 198.338 169.309 198.406C168.349 198.82 168.294 199.069 168.537 200.089Z" fill="#D3CFCF"/>
<mask id="mask0_4253_38832" style="mask-type:luminance" maskUnits="userSpaceOnUse" x="150" y="184" width="27" height="46">
<path d="M169.874 196.829C169.817 196.55 169.8 196.401 169.757 196.261C169.396 195.092 169.326 193.621 168.58 192.846C167.883 192.121 166.458 192.167 165.372 191.814C164.207 191.435 163.037 191.049 161.92 190.545C161.277 190.254 160.662 189.8 160.162 189.286C159.01 188.099 159.183 187.171 160.681 186.545C162.641 185.726 164.593 184.828 166.626 184.27C169.484 183.486 170.692 184.379 171.369 187.338C171.771 189.097 171.941 190.797 170.449 192.183C170.321 192.302 170.328 192.671 170.385 192.893C170.7 194.11 171.051 195.317 171.38 196.496C172.189 196.639 172.987 196.703 173.73 196.944C174.127 197.072 174.598 197.449 174.719 197.823C174.806 198.091 174.44 198.626 174.149 198.892C173.478 199.504 172.72 200.013 172.013 200.585C168.779 203.196 166.233 206.327 165.547 210.648C164.689 216.056 166.817 220.236 170.908 223.442C171.956 224.264 173.2 224.82 174.358 225.491C174.671 225.672 175.059 225.765 175.301 226.015C175.633 226.357 176.057 226.807 176.062 227.215C176.065 227.507 175.485 227.963 175.094 228.074C173.849 228.426 172.582 228.79 171.304 228.9C166.826 229.287 162.377 229.145 158.082 227.561C151.703 225.207 148.973 218.909 151.533 212.295C153.355 207.588 156.524 203.989 160.529 201.138C163.099 199.309 165.851 197.895 168.911 197.172C169.217 197.099 169.509 196.961 169.874 196.829Z" fill="white"/>
</mask>
<g mask="url(#mask0_4253_38832)">
<path d="M171.936 196.328C171.791 196.422 171.632 196.492 171.462 196.528C170.68 196.692 169.91 196.857 169.115 196.948C168.706 196.995 168.338 196.848 168.041 196.596C166.858 196.846 165.675 197.12 164.544 197.556C161.749 198.635 159.383 200.663 157.364 202.933C155.833 204.654 154.476 206.527 153.083 208.366C152.681 208.897 151.622 209.818 152.184 210.494C152.677 211.088 154.13 210.694 154.589 210.277C155.232 209.693 155.447 208.64 156.226 208.272C156.841 209.225 157.751 209.972 158.788 210.376C159.022 210.467 159.279 210.542 159.521 210.473C160.171 210.287 160.177 209.344 160.042 208.661C159.87 207.786 159.697 206.911 159.524 206.036C161.549 205.077 163.625 204.081 165.176 202.428C165.663 201.909 166.093 201.33 166.628 200.865C167.683 199.948 169.057 199.547 170.387 199.173C170.839 199.046 171.304 198.918 171.769 198.971C172.234 199.023 172.707 199.298 172.864 199.755C172.931 199.95 172.948 200.183 173.104 200.312C173.232 200.418 173.412 200.416 173.573 200.393C174.812 200.22 175.826 198.992 175.799 197.7C174.551 197.133 173.27 196.561 171.936 196.328Z" fill="white"/>
</g>
<mask id="mask1_4253_38832" style="mask-type:luminance" maskUnits="userSpaceOnUse" x="150" y="184" width="27" height="46">
<path d="M169.874 196.829C169.817 196.55 169.8 196.401 169.757 196.261C169.396 195.092 169.326 193.621 168.58 192.846C167.883 192.121 166.458 192.167 165.372 191.814C164.207 191.435 163.037 191.049 161.92 190.545C161.277 190.254 160.662 189.8 160.162 189.286C159.01 188.099 159.183 187.171 160.681 186.545C162.641 185.726 164.593 184.828 166.626 184.27C169.484 183.486 170.692 184.379 171.369 187.338C171.771 189.097 171.941 190.797 170.449 192.183C170.321 192.302 170.328 192.671 170.385 192.893C170.7 194.11 171.051 195.317 171.38 196.496C172.189 196.639 172.987 196.703 173.73 196.944C174.127 197.072 174.598 197.449 174.719 197.823C174.806 198.091 174.44 198.626 174.149 198.892C173.478 199.504 172.72 200.013 172.013 200.585C168.779 203.196 166.233 206.327 165.547 210.648C164.689 216.056 166.817 220.236 170.908 223.442C171.956 224.264 173.2 224.82 174.358 225.491C174.671 225.672 175.059 225.765 175.301 226.015C175.633 226.357 176.057 226.807 176.062 227.215C176.065 227.507 175.485 227.963 175.094 228.074C173.849 228.426 172.582 228.79 171.304 228.9C166.826 229.287 162.377 229.145 158.082 227.561C151.703 225.207 148.973 218.909 151.533 212.295C153.355 207.588 156.524 203.989 160.529 201.138C163.099 199.309 165.851 197.895 168.911 197.172C169.217 197.099 169.509 196.961 169.874 196.829Z" fill="white"/>
</mask>
<g mask="url(#mask1_4253_38832)">
<path d="M154.379 208.81C154.524 208.691 154.643 208.527 154.785 208.41C154.825 208.343 154.87 208.278 154.91 208.211C155.092 207.906 155.248 207.585 155.405 207.266C155.783 206.498 156.199 205.755 156.802 205.147C158.002 203.937 159.581 203.067 160.994 202.15C162.307 201.297 163.649 200.486 165.043 199.781C166.559 199.015 168.133 198.353 169.745 197.832C170.687 197.528 171.643 197.37 172.621 197.244C172.974 197.198 173.328 197.159 173.682 197.12C173.867 197.083 174.053 197.051 174.24 197.022C173.487 196.72 172.721 196.465 171.936 196.328C171.79 196.422 171.631 196.492 171.462 196.528C170.68 196.692 169.91 196.857 169.115 196.948C168.706 196.995 168.338 196.848 168.041 196.596C166.858 196.846 165.675 197.12 164.543 197.556C161.749 198.635 159.383 200.663 157.363 202.933C155.832 204.654 154.476 206.527 153.083 208.366C152.681 208.897 151.622 209.818 152.184 210.494C152.521 210.901 153.308 210.844 153.919 210.634C153.752 209.983 153.88 209.22 154.379 208.81Z" fill="#EFEAEA"/>
</g>
<mask id="mask2_4253_38832" style="mask-type:luminance" maskUnits="userSpaceOnUse" x="150" y="184" width="27" height="46">
<path d="M169.874 196.829C169.817 196.55 169.8 196.401 169.757 196.261C169.396 195.092 169.326 193.621 168.58 192.846C167.883 192.121 166.458 192.167 165.372 191.814C164.207 191.435 163.037 191.049 161.92 190.545C161.277 190.254 160.662 189.8 160.162 189.286C159.01 188.099 159.183 187.171 160.681 186.545C162.641 185.726 164.593 184.828 166.626 184.27C169.484 183.486 170.692 184.379 171.369 187.338C171.771 189.097 171.941 190.797 170.449 192.183C170.321 192.302 170.328 192.671 170.385 192.893C170.7 194.11 171.051 195.317 171.38 196.496C172.189 196.639 172.987 196.703 173.73 196.944C174.127 197.072 174.598 197.449 174.719 197.823C174.806 198.091 174.44 198.626 174.149 198.892C173.478 199.504 172.72 200.013 172.013 200.585C168.779 203.196 166.233 206.327 165.547 210.648C164.689 216.056 166.817 220.236 170.908 223.442C171.956 224.264 173.2 224.82 174.358 225.491C174.671 225.672 175.059 225.765 175.301 226.015C175.633 226.357 176.057 226.807 176.062 227.215C176.065 227.507 175.485 227.963 175.094 228.074C173.849 228.426 172.582 228.79 171.304 228.9C166.826 229.287 162.377 229.145 158.082 227.561C151.703 225.207 148.973 218.909 151.533 212.295C153.355 207.588 156.524 203.989 160.529 201.138C163.099 199.309 165.851 197.895 168.911 197.172C169.217 197.099 169.509 196.961 169.874 196.829Z" fill="white"/>
</mask>
<g mask="url(#mask2_4253_38832)">
<path d="M161.684 236.944C155.899 236.944 151.21 233.352 151.21 228.921C151.21 224.49 155.899 220.898 161.684 220.898C167.469 220.898 172.158 224.49 172.158 228.921C172.158 233.352 167.469 236.944 161.684 236.944Z" fill="#E2817A"/>
</g>
<mask id="mask3_4253_38832" style="mask-type:luminance" maskUnits="userSpaceOnUse" x="150" y="184" width="27" height="46">
<path d="M169.874 196.829C169.817 196.55 169.8 196.401 169.757 196.261C169.396 195.092 169.326 193.621 168.58 192.846C167.883 192.121 166.458 192.167 165.372 191.814C164.207 191.435 163.037 191.049 161.92 190.545C161.277 190.254 160.662 189.8 160.162 189.286C159.01 188.099 159.183 187.171 160.681 186.545C162.641 185.726 164.593 184.828 166.626 184.27C169.484 183.486 170.692 184.379 171.369 187.338C171.771 189.097 171.941 190.797 170.449 192.183C170.321 192.302 170.328 192.671 170.385 192.893C170.7 194.11 171.051 195.317 171.38 196.496C172.189 196.639 172.987 196.703 173.73 196.944C174.127 197.072 174.598 197.449 174.719 197.823C174.806 198.091 174.44 198.626 174.149 198.892C173.478 199.504 172.72 200.013 172.013 200.585C168.779 203.196 166.233 206.327 165.547 210.648C164.689 216.056 166.817 220.236 170.908 223.442C171.956 224.264 173.2 224.82 174.358 225.491C174.671 225.672 175.059 225.765 175.301 226.015C175.633 226.357 176.057 226.807 176.062 227.215C176.065 227.507 175.485 227.963 175.094 228.074C173.849 228.426 172.582 228.79 171.304 228.9C166.826 229.287 162.377 229.145 158.082 227.561C151.703 225.207 148.973 218.909 151.533 212.295C153.355 207.588 156.524 203.989 160.529 201.138C163.099 199.309 165.851 197.895 168.911 197.172C169.217 197.099 169.509 196.961 169.874 196.829Z" fill="white"/>
</mask>
<g mask="url(#mask3_4253_38832)">
<path d="M158.627 225.624C158.875 225.441 159.14 225.186 159.535 224.915C159.785 224.744 160.05 224.581 160.344 224.522C160.639 224.464 160.972 224.529 161.176 224.757C161.41 225.021 161.416 225.415 161.488 225.766C161.639 226.508 162.139 227.139 162.75 227.559C165.984 229.783 171.834 228.195 175.107 226.812C175.546 226.627 176.147 226.471 176.413 226.877C176.516 227.034 176.53 227.235 176.523 227.425C176.479 228.706 175.598 229.912 174.418 230.304C173.46 230.622 172.425 230.432 171.419 230.441C169.972 230.455 168.564 230.886 167.14 231.148C162.55 231.994 157.671 231.027 153.708 228.487C152.688 227.833 148.465 223.851 151.805 223.468C152.706 223.365 154.213 224.438 155.003 224.798C155.732 225.131 156.471 225.539 157.23 225.789C157.917 226.016 158.253 225.9 158.627 225.624Z" fill="white"/>
</g>
<path d="M142.413 197.11C140.386 196.475 139.089 194.783 139.514 193.331C139.939 191.878 141.926 191.216 143.952 191.85C145.979 192.485 147.276 194.177 146.851 195.63C146.426 197.082 144.439 197.745 142.413 197.11Z" fill="black"/>
<path d="M142.089 193.825C141.401 193.61 140.96 193.035 141.105 192.542C141.249 192.049 141.924 191.824 142.612 192.039C143.3 192.255 143.741 192.83 143.596 193.323C143.452 193.816 142.777 194.041 142.089 193.825Z" fill="white"/>
<path d="M157.857 189.736C157.857 189.91 157.721 190.051 157.553 190.051C157.386 190.051 157.249 189.91 157.249 189.736C157.249 189.563 157.386 189.422 157.553 189.422C157.721 189.422 157.857 189.563 157.857 189.736Z" fill="black"/>
<path d="M159.672 192.937C159.672 193.229 159.442 193.467 159.159 193.467C158.876 193.467 158.647 193.229 158.647 192.937C158.647 192.644 158.876 192.406 159.159 192.406C159.442 192.406 159.672 192.644 159.672 192.937Z" fill="black"/>
<path d="M160.045 191.545C159.839 191.545 159.672 191.372 159.672 191.159C159.672 190.946 159.839 190.773 160.045 190.773C160.251 190.773 160.417 190.946 160.417 191.159C160.417 191.372 160.251 191.545 160.045 191.545Z" fill="black"/>
<path d="M155.571 192.077C155.571 192.37 155.342 192.607 155.059 192.607C154.776 192.607 154.546 192.37 154.546 192.077C154.546 191.784 154.776 191.547 155.059 191.547C155.342 191.547 155.571 191.784 155.571 192.077Z" fill="black"/>
<path d="M156.522 264.271C156.244 264.271 155.973 264.271 155.7 264.271C155.611 263.905 155.745 263.705 156.079 263.696C156.424 263.686 156.59 263.873 156.522 264.271Z" fill="black"/>
</svg>
