<svg width="135" height="269" viewBox="0 0 135 269" fill="none" xmlns="http://www.w3.org/2000/svg">
<path d="M69.985 19.6491C69.824 21.2202 69.9686 22.6822 70.4242 24.0379C70.6015 24.5616 70.7241 25.0144 70.7952 25.3989C70.9342 26.1381 71.0271 26.5937 71.0735 26.7627C71.3245 27.652 71.3817 28.5876 71.6736 29.4439C71.9436 30.2431 72.05 31.0859 72.2546 31.9043C72.661 33.538 73.0702 35.142 73.4766 36.7131C73.5667 37.0542 73.4958 37.3186 73.5611 37.6596C75.2849 46.8026 77.9689 55.5746 80.9939 64.4885C81.7113 66.5995 82.5678 68.6891 83.4596 70.732C85.5898 75.6281 86.6483 80.5732 86.1355 85.9113C85.8955 88.4017 84.7908 88.8763 82.674 87.766C81.9076 86.2032 81.1957 84.6075 80.5328 82.9844C80.4455 82.7718 80.4755 82.548 80.3665 82.3353C80.1101 81.8416 79.8973 81.3507 79.7282 80.8623C79.5509 80.3578 79.3655 79.8585 79.1664 79.3621C78.7953 78.4347 78.4353 77.5073 78.0864 76.58C78.0236 76.4109 77.9691 76.2364 77.9282 76.059C77.8601 75.7699 77.7019 75.5217 77.459 75.3143C77.3308 75.2079 77.2925 75.2326 77.3389 75.3907C77.4454 75.7399 77.538 76.0944 77.6199 76.4573C77.6989 76.8037 77.8081 77.1556 77.9499 77.5156C78.6454 79.2695 79.2319 81.0561 79.9219 82.8154C80.3993 84.0291 80.8329 85.2567 81.2176 86.4976C82.5733 90.8617 84.0489 95.1796 85.65 99.4511C86.8748 102.716 87.9795 105.446 88.9669 107.648L94.5558 120.454C94.4057 120.484 94.3648 120.579 94.4357 120.735C96.7842 125.917 99.351 130.991 102.13 135.952C102.343 136.331 102.398 136.702 102.586 137.051C103.546 138.816 104.266 140.715 105.183 142.463C105.908 143.846 106.579 145.349 107.34 146.729C109.075 149.874 110.78 152.951 112.452 155.959C112.485 156.019 112.542 156.063 112.607 156.079C112.746 156.12 112.839 156.071 112.883 155.935C112.935 155.779 112.924 155.627 112.85 155.477C112.067 153.919 111.282 152.315 110.496 150.671C110.488 150.651 110.491 150.638 110.51 150.63C110.534 150.616 110.553 150.621 110.567 150.646C111.789 152.752 112.727 154.697 113.567 157.16C114.017 158.477 114.473 159.759 114.937 161.005C115.299 161.987 115.799 162.822 116.189 163.739C116.355 164.137 116.532 164.715 116.72 165.473C116.963 166.474 117.402 167.333 118.035 168.056L119.17 173.228L119.852 178.566L119.917 179.474C120.143 182.461 120.484 185.497 120.321 188.524C120.203 190.649 120.212 192.335 120.22 194.271C120.222 194.337 120.255 194.367 120.318 194.364L120.402 194.359C120.47 194.356 120.509 194.318 120.514 194.25L120.967 187.66C120.972 187.581 121.016 187.534 121.095 187.523C122.145 187.379 123.146 187.098 124.096 186.678C123.757 190.352 123.305 194.285 122.145 197.717C121.515 199.577 120.88 201.519 120.236 203.54C119.388 206.197 118.046 208.671 116.726 211.202C114.612 215.258 111.928 218.973 108.96 222.437C105.15 222.23 101.817 222.325 98.9608 222.726C93.3172 223.515 87.6249 224.431 81.8531 224.663C76.9353 224.859 72.2356 224.306 67.7513 222.999C62.3233 221.42 57.0208 218.979 51.8466 215.681C49.588 214.243 47.3297 212.787 45.0713 211.317C43.4265 210.245 41.6454 209.691 39.7332 209.656L36.5992 202.687C34.8999 198.309 33.5497 194.206 32.5542 190.374C30.3093 181.741 29.3057 172.805 29.5375 163.567C29.6384 159.593 30.2085 155.144 31.2504 150.221C31.9432 146.874 32.7669 143.568 33.7245 140.3C34.8673 136.403 36.1276 132.546 37.505 128.724C38.6998 125.416 39.9244 122.126 41.1819 118.856C41.8802 117.102 42.5785 115.356 43.274 113.619C45.8815 107.102 48.5301 100.466 51.2196 93.7043C53.2463 88.6172 55.1092 83.4702 57.0214 78.3231C57.4333 77.2129 57.837 76.0809 58.2323 74.9273C58.617 73.8008 59.0071 72.6634 59.4079 71.515C59.8853 70.1429 60.3681 68.7138 60.8618 67.2271C61.0719 66.5916 61.1809 65.937 61.1864 65.2687C61.1864 65.1325 61.1564 65.1242 61.0964 65.247C60.5808 66.2589 59.9644 67.6037 59.2442 69.2758C56.8766 74.7719 54.2772 80.4672 51.4432 86.3643C50.5676 88.189 49.6074 90.1421 48.5629 92.2204C46.4027 96.5219 43.5714 102.026 40.0664 108.739C38.7652 111.235 37.4124 113.75 36.0131 116.281C35.7593 116.742 35.5303 117.211 35.3257 117.694C31.8915 124.142 29.0304 129.807 26.7446 134.692C24.7453 138.961 22.8686 143.74 21.1174 149.026L20.8474 149.853C22.083 144.869 23.6787 140 25.629 135.243C26.6464 132.767 27.6774 130.265 28.7221 127.74C29.1722 126.654 29.8322 125.146 29.6904 123.954C29.6659 123.757 29.4666 123.637 29.2839 123.711C28.2965 124.101 27.1129 125.983 26.5945 126.832C24.8134 129.756 23.043 132.81 21.2838 135.999C17.7679 142.376 15.0048 149.059 12.9946 156.045C12.0372 159.38 11.1263 162.774 10.2643 166.221C8.16664 174.614 7.68675 183.062 8.82403 191.566C9.24131 194.692 9.68051 197.804 10.1361 200.906C10.3379 202.272 10.7143 203.794 11.2653 205.469C13.6193 212.624 17.2169 218.843 22.0558 224.123C27.8248 230.418 34.562 235.244 42.2675 238.596C45.5407 240.02 48.852 240.955 52.2043 241.4C58.5815 242.248 65.0104 242.415 71.4939 241.904C73.316 241.76 75.0807 241.517 76.7856 241.173C81.3353 240.254 85.184 239.068 88.3344 237.608C90.7211 236.504 92.224 235.781 92.8458 235.437C96.16 233.613 99.2722 231.504 102.18 229.107C101.942 231.283 100.739 233.105 99.2667 234.57C95.227 238.588 90.5219 241.25 85.2849 243.558C82.9309 244.594 80.5853 245.609 78.245 246.604C74.7835 248.075 72.0206 248.489 67.5664 249.354C67.0891 249.444 66.107 249.716 64.6179 250.169C55.0794 249.801 46.0127 247.512 37.4152 243.304C34.1502 240.827 30.5962 238.77 27.5167 236.081C24.2081 233.187 20.9813 229.955 17.8337 226.384C12.8667 220.749 8.92791 214.309 6.02298 207.062C5.61381 206.039 4.7765 203.642 3.51085 199.864C1.48965 193.836 0.774966 188.225 0.933345 182.124C1.05065 177.582 1.23332 173.772 1.48155 170.695C1.68061 168.221 2.24796 165.242 3.18086 161.759C4.10823 158.303 5.07388 154.847 6.07491 151.386C6.33953 150.472 6.65591 149.607 7.01868 148.792C8.05782 146.46 9.08078 144.166 10.0873 141.905C11.2546 139.281 12.7276 136.673 13.9005 134.153C15.6843 130.315 17.872 126.805 19.7239 123.057C20.4005 121.688 21.1995 120.419 21.9962 119.115C22.5143 118.267 22.869 117.332 23.2863 116.426C24.0663 114.724 25.3539 113.336 26.2676 111.696C27.8797 108.797 29.5081 105.884 31.2374 103.102C32.743 100.671 34.1315 98.1073 35.3944 95.497C35.7735 94.7142 36.1936 93.9667 36.6545 93.2575C37.4973 91.9619 38.0892 90.5163 38.8284 89.1525C39.9139 87.1422 41.0895 85.0556 42.1016 82.9963C43.7764 79.5977 45.6475 76.1526 47.0903 72.6122C48.1077 70.1137 49.046 67.9288 49.9107 66.0577C51.1791 63.3054 52.161 59.9259 53.3066 56.9473C54.0813 54.9261 54.8286 53.0005 55.546 51.1675C56.1323 49.6672 56.4679 48.1263 56.547 46.5468C58.0882 41.7599 59.2393 38.0149 59.9948 35.309C60.9576 31.8695 62.0188 27.5953 63.1834 22.492C63.7398 20.048 64.6317 15.3539 65.862 8.40931C66.0774 7.19007 66.282 5.64894 66.4757 3.79144C66.6039 2.53409 66.9367 1.30931 67.0648 0.0245101C67.0676 0.0164134 67.0593 0.00535304 67.0512 0.00258832C67.0403 -0.00274363 67.0348 -0.000174829 67.0348 0.0134513C67.0321 0.0217454 67.0321 0.0326069 67.0348 0.0407036C67.1877 1.5301 67.4712 2.98927 67.6458 4.48953C68.2339 9.58688 69.0139 14.6412 69.985 19.6491Z" fill="#18BEF5"/>
<path d="M69.9855 19.6484C72.6313 33.4639 76.7091 47.5439 82.2162 61.8939C85.5957 70.6932 89.4143 79.1734 93.6722 87.3345C96.3044 92.3752 99.3156 97.8604 102.392 103.062C106.105 109.338 109.721 115.478 113.243 121.484C120.479 133.835 127.331 146.622 131.33 160.372C133.97 169.452 134.977 178.59 134.346 187.785C133.157 205.146 124.982 221.804 112.083 233.401C110.215 235.079 107.976 236.824 105.368 238.636C93.3801 246.671 79.0354 250.575 64.6172 250.168C66.1066 249.715 67.0884 249.443 67.5657 249.353C72.0199 248.488 74.7831 248.073 78.2443 246.603C80.5846 245.608 82.9303 244.593 85.2842 243.557C90.5212 241.249 95.2264 238.587 99.266 234.569C100.739 233.104 101.942 231.282 102.179 229.106C104.642 227.068 106.901 224.845 108.96 222.436C111.928 218.972 114.612 215.257 116.725 211.201C118.046 208.67 119.388 206.196 120.236 203.539C120.88 201.518 121.515 199.576 122.145 197.716C123.304 194.284 123.757 190.351 124.095 186.677C124.728 178.369 123.932 170.17 121.706 162.082C121.272 160.421 120.675 158.577 119.914 156.545C118.127 151.785 115.989 147.312 113.493 143.131C111.475 139.748 107.462 133.491 101.453 124.362C97.7464 118.397 94.3124 112.298 91.1512 106.071C88.2298 100.01 85.3249 93.9572 82.6738 87.7656C84.7903 88.8758 85.8951 88.4011 86.1352 85.9109C86.6481 80.573 85.5897 75.6277 83.4593 70.7316C82.5675 68.6886 81.7111 66.5991 80.9936 64.488C77.9686 55.5742 75.2846 46.8021 73.5608 37.6592C73.4953 37.3182 73.5664 37.0537 73.4763 36.7127C73.0699 35.1415 72.6607 33.5378 72.2543 31.9038C72.0497 31.0855 71.9433 30.2426 71.6733 29.4434C71.3815 28.587 71.3242 27.6513 71.0732 26.7623C71.0268 26.5932 70.9342 26.1376 70.7949 25.3985C70.724 25.014 70.6012 24.5611 70.4239 24.0374C69.9691 22.6817 69.8245 21.2196 69.9855 19.6484Z" fill="#12ABE9"/>
<path d="M56.5466 46.5469C56.4674 48.1261 56.1321 49.6673 55.5456 51.1675C54.8281 53.0005 54.0808 54.9261 53.3061 56.9474C52.1606 59.9259 51.1785 63.3054 49.9103 66.0577C49.0455 67.9288 48.1073 70.1137 47.0899 72.6122C45.6469 76.1527 43.7757 79.5977 42.1011 82.9963C41.0892 85.0557 39.9136 87.1422 38.8279 89.1526C38.0887 90.5164 37.4969 91.9619 36.654 93.2576C36.1931 93.9667 35.7731 94.7142 35.3939 95.497C34.131 98.1073 32.7427 100.671 31.237 103.102C29.5076 105.884 27.8792 108.797 26.2672 111.696C25.3534 113.336 24.0661 114.724 23.2858 116.426C22.8685 117.332 22.5139 118.267 21.9957 119.115C21.1992 120.419 20.4 121.688 19.7235 123.057C17.8715 126.805 15.6838 130.315 13.9 134.153C12.7272 136.673 11.2542 139.281 10.0869 141.905C9.08031 144.166 8.05754 146.46 7.01821 148.792C6.65544 149.608 6.33909 150.472 6.07447 151.386C5.07344 154.847 4.10776 158.303 3.18039 161.759C2.2475 165.242 1.68014 168.221 1.48108 170.695C1.23285 173.772 1.05018 177.582 0.932876 182.124C0.774694 188.225 1.48937 193.836 3.51038 199.864C4.77603 203.642 5.61334 206.039 6.02252 207.062C8.92745 214.309 12.8662 220.749 17.8332 226.385C20.9808 229.955 24.2076 233.187 27.5162 236.081C30.5957 238.771 34.1498 240.827 37.4147 243.304C33.0123 241.13 28.8937 238.484 25.0614 235.364C21.6001 232.56 18.2396 229.175 14.9828 225.209C9.94487 219.074 6.14258 212.163 3.57593 204.471C2.00754 199.776 0.979264 195.186 0.488329 190.699C-0.313637 183.362 -0.128193 176.12 1.04741 168.971C1.95838 163.42 3.3196 157.978 5.12793 152.646C5.15241 152.61 5.16882 152.567 5.17968 152.515C6.94989 147.488 8.97663 142.564 11.2595 137.745C17.1758 125.258 24.2102 113.513 31.2065 101.456C32.2267 99.697 34.5315 95.532 38.1237 88.9585C45.5459 75.3724 51.6886 61.2352 56.5466 46.5469Z" fill="#12ABE9"/>
<path d="M41.1824 118.852C39.2594 118.282 37.3065 117.894 35.3262 117.69C35.5308 117.207 35.7598 116.738 36.0136 116.277C37.4129 113.746 38.7657 111.231 40.0669 108.735C43.5719 102.022 46.4032 96.5178 48.5635 92.2163C49.6081 90.1378 50.5683 88.1849 51.4437 86.3602C54.2777 80.4631 56.8772 74.7677 59.2447 69.2717C59.9648 67.5996 60.5813 66.255 61.0969 65.2429C61.157 65.12 61.187 65.1283 61.187 65.2646C61.1814 65.9329 61.0724 66.5875 60.8623 67.223C60.3686 68.7096 59.8858 70.1388 59.4085 71.5109C59.0076 72.6592 58.6175 73.7967 58.2329 74.9231C57.8373 76.077 57.4337 77.209 57.0219 78.319C55.1099 83.4661 53.2469 88.613 51.2201 93.7001C48.5307 100.462 45.8823 107.098 43.2745 113.615C42.579 115.352 41.8807 117.098 41.1824 118.852Z" fill="#74D7FA"/>
<path d="M82.6748 87.7665C85.3262 93.9582 88.2309 100.011 91.1522 106.071L88.9673 107.648C87.9799 105.447 86.8752 102.716 85.6505 99.4513C84.0493 95.1799 82.5737 90.8622 81.218 86.4978C80.8333 85.2569 80.3997 84.0294 79.9224 82.8156C79.2322 81.0563 78.6458 79.2697 77.9503 77.5159C77.8085 77.1559 77.6993 76.804 77.6203 76.4576C77.5384 76.0948 77.4457 75.7401 77.3393 75.391C77.2929 75.2328 77.331 75.2083 77.4594 75.3146C77.7021 75.5219 77.8603 75.7701 77.9286 76.0593C77.9695 76.2366 78.024 76.4112 78.0868 76.5802C78.4359 77.5076 78.7959 78.4349 79.1668 79.3623C79.3658 79.8588 79.5515 80.358 79.7286 80.8626C79.8977 81.3507 80.1106 81.8417 80.3669 82.3356C80.4759 82.5483 80.4461 82.772 80.5332 82.9847C81.1965 84.608 81.9084 86.2036 82.6748 87.7665Z" fill="#74D7FA"/>
<path d="M91.1517 106.07C94.313 112.297 97.7471 118.396 101.454 124.362C99.749 124.015 98.0007 123.857 96.2141 123.887L94.5557 120.453L88.9668 107.647L91.1517 106.07Z" fill="#C6EDFD"/>
<path d="M41.1817 118.857C39.9242 122.128 38.6996 125.417 37.5049 128.726C36.1274 132.547 34.8673 136.404 33.7243 140.302C32.7669 143.57 31.9432 146.875 31.2503 150.222C27.9362 149.669 24.5595 149.27 21.1172 149.027C22.8682 143.741 24.7449 138.963 26.7444 134.694C29.03 129.809 31.8913 124.143 35.3255 117.695C37.3058 117.9 39.2587 118.287 41.1817 118.857Z" fill="#C6EDFD"/>
<path d="M94.5561 120.453L96.2145 123.887C98.8959 129.285 101.76 134.563 104.812 139.721C106.618 142.776 108.404 145.968 110.175 149.102C112.258 152.795 114.108 156.72 115.72 160.877C116.71 163.427 117.482 165.822 118.036 168.056C117.403 167.333 116.964 166.474 116.721 165.473C116.533 164.714 116.356 164.136 116.189 163.738C115.799 162.822 115.3 161.987 114.937 161.005C114.474 159.759 114.018 158.476 113.568 157.159C112.728 154.696 111.789 152.751 110.568 150.646C110.554 150.621 110.535 150.616 110.51 150.629C110.491 150.637 110.489 150.651 110.497 150.67C111.282 152.315 112.068 153.919 112.851 155.476C112.924 155.626 112.935 155.779 112.883 155.935C112.84 156.071 112.747 156.12 112.608 156.079C112.542 156.063 112.485 156.019 112.453 155.959C110.78 152.95 109.076 149.874 107.341 146.729C106.58 145.348 105.909 143.846 105.183 142.463C104.267 140.714 103.547 138.816 102.587 137.051C102.398 136.702 102.344 136.331 102.131 135.952C99.3515 130.99 96.7848 125.917 94.4364 120.735C94.3651 120.579 94.406 120.483 94.5561 120.453Z" fill="#12ABE9"/>
<path d="M20.8479 149.851C18.5703 157.12 16.8546 164.629 16.9147 172.31C16.9747 179.97 18.1476 187.432 20.5779 194.628C21.388 197.02 22.1627 199.096 22.9074 200.855C23.4611 202.161 24.3777 204.076 25.6597 206.594C28.4965 212.052 31.8868 217.12 35.8283 221.792C35.8911 221.866 35.9593 221.869 36.0274 221.803C38.3541 219.605 40.337 217.131 41.9818 214.384C42.031 214.299 42.0335 214.215 41.9899 214.128L39.7341 209.654C41.6461 209.69 43.4274 210.243 45.0722 211.315C47.3306 212.786 49.5891 214.242 51.8475 215.68C57.0219 218.977 62.3242 221.419 67.7521 222.998C72.2363 224.304 76.9361 224.858 81.854 224.662C87.6257 224.43 93.3183 223.513 98.9617 222.725C101.817 222.324 105.151 222.228 108.961 222.436C106.902 224.844 104.643 227.067 102.18 229.105C99.2725 231.502 96.1604 233.611 92.8463 235.436C92.2244 235.779 90.7214 236.502 88.3349 237.607C85.1845 239.066 81.3358 240.253 76.786 241.172C75.0812 241.515 73.3165 241.758 71.4944 241.903C65.0107 242.413 58.5818 242.246 52.2047 241.398C48.8525 240.954 45.5412 240.018 42.2679 238.594C34.5625 235.242 27.8252 230.417 22.0563 224.121C17.2174 218.841 13.6197 212.622 11.2658 205.467C10.7148 203.792 10.3384 202.27 10.1366 200.904C9.68098 197.803 9.242 194.69 8.82453 191.564C7.68705 183.06 8.16711 174.612 10.2647 166.22C11.1267 162.772 12.0377 159.379 12.9951 156.043C15.0053 149.057 17.7684 142.375 21.2843 135.997C23.0437 132.809 24.8139 129.754 26.595 126.83C27.1131 125.981 28.297 124.099 29.2844 123.709C29.4671 123.636 29.6664 123.756 29.6908 123.952C29.8326 125.144 29.1725 126.652 28.7226 127.738C27.6779 130.264 26.6469 132.765 25.6295 135.242C23.6792 139.999 22.0835 144.868 20.8479 149.851Z" fill="#74D7FA"/>
<path d="M101.455 124.361C107.464 133.49 111.476 139.748 113.495 143.13C115.99 147.311 118.129 151.785 119.915 156.544C120.676 158.576 121.274 160.42 121.707 162.081L119.171 173.227L118.036 168.055C117.482 165.821 116.71 163.426 115.72 160.876C114.108 156.719 112.259 152.794 110.175 149.101C108.405 145.967 106.618 142.775 104.812 139.72C101.76 134.562 98.8962 129.284 96.2148 123.886C98.0016 123.857 99.7499 124.015 101.455 124.361Z" fill="#ECEFF2"/>
<path d="M31.2505 150.218C30.2086 155.141 29.6385 159.59 29.5376 163.564C29.3057 172.803 30.3095 181.738 32.5543 190.371C33.5498 194.204 34.8999 198.306 36.5992 202.684C33.0507 204.258 29.4038 205.562 25.6586 206.593C24.3766 204.075 23.4601 202.16 22.9064 200.854C22.1617 199.094 21.3872 197.019 20.5769 194.626C18.1465 187.431 16.9737 179.968 16.9136 172.309C16.8536 164.628 18.5693 157.119 20.8468 149.85L21.1168 149.023C24.5597 149.266 27.9364 149.664 31.2505 150.218Z" fill="#ECEFF2"/>
<path d="M124.096 186.673C123.147 187.093 122.146 187.374 121.095 187.519C121.016 187.53 120.973 187.576 120.967 187.655L120.514 194.245C120.509 194.313 120.471 194.352 120.403 194.354L120.318 194.36C120.255 194.363 120.223 194.333 120.22 194.267C120.212 192.33 120.204 190.645 120.321 188.52C120.485 185.492 120.143 182.456 119.917 179.47C120.155 179.18 120.253 178.913 120.212 178.67C120.187 178.515 120.067 178.477 119.852 178.561L119.17 173.223L121.707 162.078C123.932 170.166 124.729 178.365 124.096 186.673Z" fill="#74D7FA"/>
<path d="M39.7345 209.657L41.9904 214.13C42.034 214.217 42.0312 214.302 41.9823 214.386C40.3375 217.133 38.3546 219.607 36.0279 221.805C35.9597 221.871 35.8914 221.868 35.8288 221.794C31.8873 217.122 28.497 212.054 25.6602 206.596C29.4052 205.565 33.052 204.261 36.6007 202.688L39.7345 209.657Z" fill="#C6EDFD"/>
<path d="M72.3069 268.679C64.2087 269.364 56.2712 268.832 48.6421 266.579C46.5964 265.976 44.3133 265.101 42.7831 263.603C40.7593 261.617 41.7276 259.184 43.6587 257.627C45.0334 256.519 46.7437 255.636 48.7894 254.973C52.1035 253.898 55.7257 253.233 59.6508 252.976C64.4105 252.668 69.3666 252.775 74.5163 253.298C78.8615 253.74 88.509 255.112 90.5874 259.725C92.2267 263.355 87.2105 265.646 84.6822 266.416C80.9917 267.539 76.8675 268.295 72.3069 268.679Z" fill="#C6EDFD"/>
</svg>
