<svg width="176" height="253" viewBox="0 0 176 253" fill="none" xmlns="http://www.w3.org/2000/svg">
<path d="M168.06 94.1196C171.518 88.9346 174.249 80.0118 171.35 78.4771C168.451 76.9424 163.321 82.7432 160.196 85.8652C163.208 77.2778 163.208 69.0234 159.415 69.0234C155.622 69.0234 144.304 77.7235 138.948 87.9282C138.335 99.6952 137.276 147.151 140.621 155.516C150.49 153.23 158.967 146.315 161.644 140.459C164.32 134.603 161.644 132.427 157.851 132.986C161.644 130.309 168.614 125.57 171.18 118.988C173.746 112.409 169.785 111.682 164.878 113.635C168.281 110.568 174.134 103.931 174.805 98.3557C175.479 92.7827 172.354 91.9465 168.06 94.1196Z" fill="#B10600"/>
<path d="M138.605 137.741C149.891 132.471 166.638 128.861 167.229 115.867C156.646 119.715 147.791 126.325 138.43 131.975C138.475 133.956 138.532 135.886 138.605 137.741Z" fill="#DE0600"/>
<path d="M169.232 94.4715C160.44 104.438 149.078 110.294 138.298 117.445C138.288 121.19 138.305 124.986 138.363 128.671C153.334 121.235 167.595 112.084 172.58 95.1425C173.248 93.803 169.901 94.4715 169.232 94.4715Z" fill="#DE0600"/>
<path d="M160.078 69.1186C159.873 69.0585 159.655 69.0234 159.42 69.0234C155.627 69.0234 144.308 77.7235 138.953 87.9282C138.815 90.572 138.655 95.0209 138.527 100.419C149.794 92.6625 161.578 82.2275 160.078 69.1186Z" fill="#DE0600"/>
<path d="M168.998 78.4922C166.156 79.5312 162.591 83.4844 160.202 85.8753C160.385 85.3571 160.555 84.8389 160.716 84.3231C155.353 92.7778 147.056 98.8641 138.444 104.545C138.399 106.976 138.361 109.547 138.336 112.176C150.326 105.231 161.927 97.9653 169.906 85.7627C171.424 83.234 171.409 79.5562 168.998 78.4922Z" fill="#DE0600"/>
<path d="M139.773 89.3658C144.294 81.5395 152.171 73.8084 157.606 71.0469C153.09 75.0627 143.386 87.1075 140.96 90.7878C139.119 92.2925 139.773 89.3658 139.773 89.3658Z" fill="#E83434"/>
<path d="M151.167 99.8268C155.691 92.0005 163.564 84.2693 169 81.5078C164.483 85.5236 154.779 97.5685 152.353 101.249C150.516 102.756 151.167 99.8268 151.167 99.8268Z" fill="#E83434"/>
<path d="M152.085 115.155C156.609 107.329 164.483 99.5974 169.919 96.8359C165.402 100.852 155.698 112.897 153.272 116.577C151.432 118.084 152.085 115.155 152.085 115.155Z" fill="#E83434"/>
<path d="M155.851 138.618C152.103 135.338 145.403 137.964 138.736 140.751C138.967 145.302 139.305 149.231 139.775 152.06C147.86 147.428 160.347 142.551 155.851 138.618Z" fill="#DE0600"/>
<path d="M168.95 93.3484C171.494 89.1198 173.532 83.0636 172.741 79.9391C172.528 79.0954 172.112 78.5045 171.511 78.1865C171.143 77.9913 170.733 77.8936 170.29 77.8936C167.548 77.8936 163.951 81.5664 161.064 84.5207C161.034 84.5507 161.004 84.5808 160.976 84.6108C163.007 78.1765 163.282 72.2405 161.602 69.8696C161.049 69.0909 160.318 68.6953 159.424 68.6953C155.373 68.6953 143.994 77.6157 138.662 87.7779L138.624 87.9155C138.028 99.347 136.902 147.098 140.321 155.643L140.429 155.911L140.71 155.846C151.087 153.443 159.404 146.197 161.963 140.602C163.562 137.099 163.139 135.181 162.501 134.187C161.832 133.146 160.636 132.587 159.041 132.572C163.019 129.761 169.113 125.257 171.506 119.116C172.493 116.584 172.598 114.719 171.814 113.575C170.931 112.283 168.968 112.015 166.259 112.811C169.706 109.427 174.538 103.506 175.149 98.4007C175.412 96.2125 175.117 94.6227 174.27 93.6688C173.206 92.4771 171.339 92.3645 168.95 93.3484ZM174.478 98.3206C173.817 103.826 167.996 110.383 164.659 113.392L163.275 114.642L165.007 113.953C166.529 113.347 167.904 113.027 168.988 113.027C170.072 113.027 170.835 113.337 171.254 113.953C171.894 114.892 171.764 116.592 170.873 118.875C168.432 125.137 161.943 129.706 158.065 132.437L156.52 133.526L157.907 133.324C158.272 133.271 158.625 133.243 158.961 133.243C159.932 133.243 161.234 133.471 161.93 134.553C162.716 135.777 162.513 137.772 161.347 140.326C158.878 145.726 150.872 152.709 140.837 155.127C137.765 146.445 138.589 101.475 139.285 88.0232C144.675 77.8035 155.931 69.3613 159.422 69.3613C160.095 69.3613 160.628 69.6517 161.051 70.2526C162.706 72.5885 162.216 79.1078 159.885 85.7574L159.399 87.1419L160.435 86.1029C160.781 85.7574 161.149 85.3819 161.537 84.9838C164.191 82.2724 167.824 78.5595 170.285 78.5595C170.623 78.5595 170.921 78.6296 171.193 78.7749C171.622 79.0002 171.922 79.4459 172.087 80.0993C172.886 83.2489 170.457 89.9209 167.781 93.9367L167.075 94.9958L168.212 94.42C170.78 93.1206 172.771 92.9954 173.762 94.112C174.476 94.9181 174.716 96.3327 174.478 98.3206Z" fill="#6D0000"/>
<path d="M150.754 95.2186L151.242 95.6768C151.305 95.6117 157.466 89.0372 160.949 85.5773L160.478 85.1016C156.985 88.5691 150.816 95.151 150.754 95.2186Z" fill="#6D0000"/>
<path d="M153.895 106.412L154.298 106.947C154.733 106.619 165.038 98.8332 168.814 93.5781L168.27 93.1875C164.555 98.36 154.002 106.331 153.895 106.412Z" fill="#6D0000"/>
<path d="M153.939 120.33L154.247 120.926C154.32 120.888 161.478 117.171 166.545 112.509L166.092 112.016C161.092 116.615 154.012 120.293 153.939 120.33Z" fill="#6D0000"/>
<path d="M74.9992 218.723C73.4244 218.953 73.0889 223.836 74.3833 225.26C77.678 226.412 82.8755 222.952 85.2464 224.562C85.304 218.603 79.4781 216.668 74.9992 218.723Z" fill="#DBD9D9"/>
<path d="M74.9992 218.723C73.4244 218.953 73.0889 220.728 74.3833 222.153C77.678 223.305 82.9756 220.568 85.2464 224.564C85.304 218.603 79.4781 216.668 74.9992 218.723Z" fill="white"/>
<path d="M79.3953 217.647C77.8806 217.504 76.3284 217.77 74.9038 218.416C74.5158 218.491 73.9975 218.804 73.6295 219.828C73.0211 221.523 73.1113 224.369 74.1403 225.498L74.1978 225.561L74.2779 225.588C74.6109 225.706 74.9814 225.784 75.3745 225.821C76.8416 225.959 78.4965 225.531 80.0938 225.115C81.5334 224.742 82.8929 224.389 83.9619 224.489C84.4076 224.532 84.768 224.65 85.0634 224.85L85.5817 225.2L85.5867 224.577C85.6293 219.898 82.277 217.92 79.3953 217.647ZM84.022 223.828C82.8378 223.716 81.4233 224.084 79.9236 224.472C78.3814 224.872 76.7866 225.285 75.4346 225.158C75.1292 225.128 74.8413 225.073 74.5809 224.988C73.7947 224.016 73.7397 221.503 74.2604 220.055C74.4682 219.472 74.7586 219.114 75.0515 219.069L75.1417 219.041C76.4711 218.431 77.9207 218.18 79.3328 218.313C81.8163 218.548 84.6879 220.188 84.9032 224.024C84.6378 223.924 84.3475 223.858 84.022 223.828Z" fill="#969696"/>
<path d="M73.56 215.666C69.2763 214.757 66.0542 217.759 61.38 216.247C62.0309 210.531 63.3077 199.353 63.0098 191.819C62.429 187.283 52.2518 187.107 49.7957 190.575C52.9327 197.705 52.5397 209.149 51.6634 215.333C49.3801 217.729 43.2488 216.803 39.243 216.507C35.2372 216.214 30.0998 215.899 27.7038 219.033C25.3079 222.168 28.8931 226.917 31.8924 226.737C30.3902 229.746 32.7586 234.045 36.2962 234.839C39.8338 235.635 42.6529 232.035 44.6308 231.088C41.5238 237.307 47.5751 239.375 49.9209 239.15C52.2668 238.922 54.7429 236.719 55.5415 233.294C56.4829 231.619 60.8116 226.985 62.5065 223.28C65.1704 223.53 70.3528 227.38 74.6666 226.191C78.9828 225 77.8437 216.575 73.56 215.666Z" fill="#FFA019"/>
<path d="M73.5621 215.68C69.2785 214.771 62.5462 217.6 57.8695 216.088C58.5204 210.372 60.0376 198.407 59.7397 190.874C59.1589 186.337 52.2514 187.121 49.7978 190.586C52.9349 197.716 52.5418 209.16 51.6655 215.344C49.3823 217.74 43.2509 216.814 39.2451 216.518C35.2394 216.226 30.1019 215.91 27.706 219.045C26.8848 220.119 26.7772 221.378 27.0951 222.567C29.1957 224.835 32.9511 224.072 35.2995 223.163C33.5495 223.999 32.4278 225.231 31.6141 226.738C31.7068 226.741 31.8019 226.756 31.8945 226.748C31.3412 227.855 31.3162 229.134 31.6767 230.351C33.8323 232.171 36.421 232.932 39.2101 231.598C44.1247 229.372 45.9599 224.169 52.0812 223.401C54.1417 222.923 55.6638 221.05 56.5175 219.115C57.0583 220.509 56.2672 221.778 55.4735 223.05C51.7156 226.16 47.0714 228.2 44.2498 231.973C43.5563 233.768 43.6765 235.178 44.2273 236.254C46.5206 236.895 52.1738 237.949 54.2117 231.668C55.6338 227.286 59.4818 224.645 61.7851 220.284C65.5305 223.326 70.7981 224.495 74.3808 222.144C75.9606 221.178 76.3887 219.277 76.0382 217.392C75.4098 216.533 74.5761 215.895 73.5621 215.68Z" fill="#FFBB32"/>
<path d="M52.793 214.937C54.916 211.159 55.7548 199.214 52.8231 193.523C53.7294 198.781 54.4579 208.823 52.793 214.937Z" fill="#FFEBB4"/>
<path d="M35.0334 217.557C31.5258 217.344 29.8059 219.089 28.8145 220.341C32.2744 217.599 36.2226 218.308 39.307 218.558C42.3915 218.806 45.9967 218.894 47.9971 217.74C44.0764 218.333 38.5409 217.77 35.0334 217.557Z" fill="#FFEBB4"/>
<path d="M33.2969 228.512C35.838 224.905 39.8263 224.467 42.8582 223.831C45.8875 223.195 49.3701 222.258 50.9599 220.586C47.3672 222.268 41.9018 223.295 38.4744 224.083C35.0495 224.87 33.8952 227.03 33.2969 228.512Z" fill="#FFEBB4"/>
<path d="M48.0554 230.122C45.6745 231.754 45.4417 233.752 45.4316 235.064C46.2879 231.544 49.2045 230.009 51.3276 228.612C53.4507 227.215 55.8316 225.455 56.5426 223.695C54.3044 226.061 50.4339 228.49 48.0554 230.122Z" fill="#FFEBB4"/>
<path d="M73.6318 215.359C73.3214 215.294 73.0034 215.247 72.6879 215.217C71.018 215.059 69.4783 215.422 67.9862 215.775C66.504 216.126 64.9718 216.486 63.3094 216.331C62.7786 216.281 62.2629 216.183 61.7421 216.03C62.4206 210.082 63.6374 199.269 63.342 191.798C63.0741 189.715 60.8583 188.228 57.5536 187.915C54.7245 187.649 51.0016 188.313 49.5245 190.401L49.4144 190.556L49.4895 190.729C52.6491 197.912 52.1509 209.431 51.3472 215.197C49.4219 217.079 44.7201 216.666 40.9322 216.333C40.3488 216.283 39.7905 216.233 39.2672 216.196C35.3516 215.908 29.9888 215.517 27.4377 218.852C26.4613 220.129 26.3186 221.821 27.0496 223.494C27.8858 225.404 29.706 226.909 31.3909 227.081C30.9102 228.401 31.0254 229.963 31.7289 231.445C32.6402 233.363 34.3201 234.76 36.2228 235.191C38.8842 235.784 41.1425 234.059 42.9175 232.689C43.2555 232.429 43.586 232.174 43.8964 231.953C43.238 233.706 43.268 235.248 43.989 236.55C45.0581 238.475 47.3739 239.342 49.0313 239.497C49.3668 239.529 49.6773 239.532 49.9527 239.504C52.644 239.244 55.065 236.753 55.8562 233.441C56.1917 232.86 56.9552 231.891 57.8365 230.774C59.5064 228.654 61.5744 226.027 62.706 223.666C63.5648 223.807 64.6839 224.285 65.9657 224.831C67.8385 225.629 69.9615 226.536 72.0821 226.736C73.0484 226.826 73.9472 226.761 74.7584 226.536C76.6662 226.01 77.8028 224.087 77.7252 221.518C77.6476 218.87 76.2156 215.905 73.6318 215.359ZM74.5831 225.887C73.8421 226.092 73.0434 226.15 72.1471 226.065C70.1317 225.875 68.0587 224.991 66.2311 224.21C64.7815 223.591 63.5297 223.058 62.5408 222.965L62.3029 222.943L62.2028 223.158C61.1313 225.504 58.9231 228.308 57.3108 230.354C56.3544 231.568 55.6008 232.527 55.2503 233.148L55.2178 233.235C54.384 236.808 51.8704 238.643 49.8901 238.833C49.6598 238.856 49.3843 238.853 49.0964 238.826C47.4816 238.673 45.4587 237.809 44.5774 236.22C43.8363 234.883 43.954 233.213 44.9329 231.255L45.3686 230.384L44.4898 230.804C43.8864 231.092 43.2179 231.608 42.5119 232.154C40.842 233.44 38.7365 235.065 36.3731 234.532C34.6931 234.154 33.1459 232.86 32.3372 231.155C31.6362 229.678 31.5836 228.13 32.197 226.906L32.4549 226.388L31.8766 226.423C30.3068 226.516 28.4817 225.088 27.668 223.223C27.2975 222.375 26.8444 220.735 27.9735 219.255C30.3018 216.208 35.4567 216.584 39.2222 216.862C39.7429 216.899 40.2987 216.949 40.8771 216.999C44.8578 217.35 49.81 217.783 51.908 215.585L51.9831 215.507L51.9981 215.402C52.8143 209.651 53.3375 198.019 50.1829 190.644C51.3872 189.157 54.4116 188.295 57.4935 188.586C59.8244 188.806 62.4132 189.788 62.6785 191.858C62.974 199.339 61.7271 210.29 61.0511 216.236L61.0211 216.509L61.2815 216.594C61.9374 216.807 62.5808 216.939 63.2518 217.002C65.0219 217.17 66.6092 216.794 68.1439 216.431C69.6485 216.075 71.0681 215.74 72.6279 215.888C72.9183 215.915 73.2112 215.96 73.4966 216.02C75.7173 216.491 76.9917 219.218 77.0618 221.543C77.1093 223.293 76.4884 225.361 74.5831 225.887Z" fill="#BD5000"/>
<path d="M52.4616 225.013C51.5528 225.617 50.6139 226.155 49.7051 226.673C47.3792 228.005 45.1811 229.262 44.1621 231.29L44.7604 231.59C45.6868 229.743 47.7998 228.536 50.0355 227.254C50.9543 226.728 51.9033 226.185 52.8296 225.569C56.1394 223.371 56.2194 221.07 56.2194 221.07C56.2169 221.09 55.5535 222.96 52.4616 225.013Z" fill="#BD5000"/>
<path d="M45.9794 220.849C45.0005 221.132 43.7411 221.345 42.4092 221.573C38.1555 222.296 32.8604 223.195 31.3633 227.163L31.9892 227.399C33.3486 223.789 38.4335 222.925 42.5194 222.231C43.8713 222.001 45.1482 221.786 46.1622 221.49C50.3006 220.293 50.9641 218.523 50.9641 218.523C50.9566 218.536 49.8775 219.72 45.9794 220.849Z" fill="#BD5000"/>
<path d="M33.611 216.117L33.3906 216.748C37.2562 218.09 37.2687 221.748 37.2662 221.903C37.2662 221.903 37.9422 217.622 33.611 216.117Z" fill="#BD5000"/>
<path d="M40.9527 216.352L40.6172 216.93C42.4498 217.989 42.605 220.508 42.6075 220.535C42.6075 220.535 43.1033 217.596 40.9527 216.352Z" fill="#BD5000"/>
<path d="M44.4752 221.266L44.1973 221.874C46.9362 223.126 47.4896 225.797 47.4946 225.822C47.4946 225.822 47.5346 222.665 44.4752 221.266Z" fill="#BD5000"/>
<path d="M38.4502 222.391L38.2148 223.017C41.8776 224.391 42.2557 228.164 42.2682 228.324C42.2682 228.324 42.5161 223.918 38.4502 222.391Z" fill="#BD5000"/>
<path d="M46.3764 228.943C46.3588 228.94 46.3413 228.94 46.3238 228.938L46.2637 229.604C46.2812 229.606 46.2963 229.606 46.3138 229.608C50.8178 230.032 51.5614 232.806 51.5914 232.926C51.5914 232.926 51.3811 229.416 46.3764 228.943Z" fill="#BD5000"/>
<path d="M50.7789 226.141L50.7363 226.809C54.1437 227.034 55.1827 229.11 55.2253 229.197L55.5257 229.052C55.5282 229.055 54.5819 226.401 50.7789 226.141Z" fill="#BD5000"/>
<path d="M64.7681 216.359L64.4727 216.96C67.0464 218.225 66.8811 221.447 66.8786 221.479C66.8786 221.479 67.7524 217.821 64.7681 216.359Z" fill="#BD5000"/>
<path d="M70.745 215.297L70.4746 215.908C73.9121 217.433 73.0533 221.108 73.0133 221.263C73.0133 221.263 74.7007 217.049 70.745 215.297Z" fill="#BD5000"/>
<path d="M27.3617 220.917C24.9507 222.42 23.6514 225.071 23.8792 228.453C26.0148 227.184 29.1017 227.595 30.2584 226.383C31.4301 224.543 29.7351 220.672 27.3617 220.917Z" fill="#DBD9D9"/>
<path d="M27.3617 220.927C24.9507 222.429 23.6514 225.08 23.8792 228.463C25.474 225.724 27.955 225.744 29.1092 224.532C30.2834 222.689 29.7351 220.681 27.3617 220.927Z" fill="white"/>
<path d="M27.3248 220.591L27.2472 220.598L27.1821 220.638C24.6034 222.246 23.3115 225.03 23.5419 228.48L23.5794 229.023L24.0476 228.745C25.0315 228.162 26.2283 227.952 27.3849 227.749C28.6392 227.528 29.8259 227.321 30.537 226.567C31.1479 225.608 31.1128 224.103 30.4443 222.736C29.7433 221.302 28.5365 220.463 27.3248 220.591ZM30.0112 226.156C29.4904 226.7 28.4114 226.89 27.2673 227.09C26.2733 227.263 25.1667 227.458 24.1853 227.916C24.1277 224.997 25.2793 222.646 27.465 221.249C28.3913 221.189 29.2776 221.883 29.8384 223.029C30.4017 224.176 30.4543 225.453 30.0112 226.156Z" fill="#969696"/>
<path d="M31.8989 228.574C29.4879 230.076 28.1885 232.727 28.4163 236.109C30.5519 234.84 33.6388 235.251 34.7955 234.039C35.9672 232.199 34.2748 228.328 31.8989 228.574Z" fill="#DBD9D9"/>
<path d="M31.8989 228.583C29.4879 230.085 28.1885 232.736 28.4163 236.119C30.0111 233.38 32.4922 233.4 33.6488 232.188C34.8205 230.348 34.2748 228.338 31.8989 228.583Z" fill="white"/>
<path d="M31.8659 228.255L31.7883 228.262L31.7232 228.302C29.1444 229.91 27.8526 232.694 28.0829 236.144L28.1205 236.687L28.5886 236.409C29.5725 235.826 30.7693 235.616 31.9259 235.413C33.1827 235.192 34.367 234.985 35.078 234.231C35.6889 233.272 35.6538 231.768 34.9854 230.401C34.2844 228.966 33.0801 228.127 31.8659 228.255ZM34.5548 233.823C34.034 234.366 32.9549 234.556 31.8108 234.757C30.8169 234.93 29.7102 235.125 28.7288 235.583C28.6712 232.664 29.8254 230.313 32.011 228.916C32.9374 228.856 33.8237 229.549 34.3845 230.696C34.9428 231.84 34.9954 233.119 34.5548 233.823Z" fill="#969696"/>
<path d="M43.806 234.775C41.9834 236.953 41.5703 239.875 42.8372 243.019C44.472 241.149 47.5339 240.581 48.255 239.069C48.8008 236.956 45.9892 233.804 43.806 234.775Z" fill="#DBD9D9"/>
<path d="M43.806 234.784C41.9834 236.962 41.5703 239.884 42.8372 243.029C43.5006 239.929 45.864 239.178 46.5875 237.666C47.1333 235.553 45.9892 233.813 43.806 234.784Z" fill="white"/>
<path d="M43.6697 234.48L43.5996 234.512L43.5495 234.572C41.5992 236.901 41.2361 239.95 42.528 243.157L42.7333 243.663L43.0913 243.252C43.8449 242.391 44.9165 241.82 45.953 241.269C47.0771 240.671 48.1411 240.105 48.5817 239.166C48.8646 238.065 48.3639 236.645 47.3024 235.554C46.1883 234.404 44.7838 233.981 43.6697 234.48ZM47.9534 238.936C47.6279 239.614 46.6615 240.13 45.635 240.676C44.7463 241.149 43.7548 241.677 42.9636 242.418C42.0023 239.662 42.3653 237.068 44.0101 235.063C44.8739 234.717 45.9304 235.1 46.8192 236.019C47.708 236.931 48.1562 238.13 47.9534 238.936Z" fill="#969696"/>
<path d="M52.1394 199.852L51.8965 200.475C53.5539 201.118 55.041 201.429 56.3104 201.549C59.1344 201.814 60.8694 201.136 60.9746 201.093C60.9746 201.093 57.2417 201.834 52.1394 199.852Z" fill="#BD5000"/>
<path d="M52.4629 206.742L52.0898 207.298C53.7297 208.402 55.3796 208.84 56.7616 208.97C58.7144 209.153 60.134 208.723 60.2316 208.693C60.2316 208.693 56.1583 209.233 52.4629 206.742Z" fill="#BD5000"/>
<path d="M52.0481 213.266L51.7227 213.851C53.3124 214.735 54.717 215.103 55.8661 215.211C57.829 215.396 59.0407 214.823 59.1183 214.783C59.1183 214.783 56.0488 215.494 52.0481 213.266Z" fill="#BD5000"/>
<path d="M104.909 224.142C103.362 224.517 103.487 229.412 104.909 230.709C108.296 231.545 113.148 227.614 115.657 228.994C115.156 223.053 109.175 221.673 104.909 224.142Z" fill="#DBD9D9"/>
<path d="M104.911 224.142C103.364 224.517 103.196 226.317 104.618 227.614C108.006 228.45 113.025 225.231 115.659 228.994C115.158 223.053 109.177 221.673 104.911 224.142Z" fill="white"/>
<path d="M109.185 222.641C107.663 222.641 106.143 223.051 104.784 223.827C104.406 223.937 103.917 224.298 103.647 225.355C103.201 227.1 103.559 229.924 104.686 230.953L104.749 231.01L104.831 231.03C105.174 231.115 105.55 231.158 105.945 231.158C107.42 231.158 109.025 230.575 110.579 230.014C111.979 229.508 113.298 229.03 114.37 229.03C114.818 229.03 115.189 229.112 115.499 229.285L116.047 229.586L115.995 228.962C115.602 224.295 112.079 222.641 109.185 222.641ZM114.37 228.359C113.181 228.359 111.806 228.857 110.349 229.385C108.85 229.929 107.302 230.489 105.945 230.489C105.637 230.489 105.347 230.459 105.079 230.399C104.205 229.508 103.915 227.007 104.295 225.52C104.448 224.919 104.704 224.536 104.991 224.463L105.079 224.428C106.346 223.697 107.765 223.309 109.183 223.309C111.679 223.309 114.688 224.674 115.264 228.472C114.993 228.396 114.698 228.359 114.37 228.359Z" fill="#969696"/>
<path d="M103.194 221.264C98.8456 220.76 95.9164 224.053 91.122 222.986C91.2346 217.235 91.4575 205.984 90.4535 198.513C89.4496 194.052 79.3 194.833 77.1819 198.513C80.9749 205.316 81.6583 216.75 81.3654 222.986C79.3149 225.585 73.1261 225.237 69.1103 225.322C65.0945 225.404 59.9495 225.572 57.859 228.92C55.7685 232.264 59.7818 236.658 62.7536 236.198C61.5393 239.335 64.3008 243.39 67.8985 243.851C71.4962 244.312 73.9623 240.464 75.845 239.335C73.3364 245.816 79.5528 247.309 81.8662 246.863C84.1795 246.417 86.4402 243.991 86.9134 240.506C87.6945 238.749 91.5701 233.732 92.9095 229.884C95.5859 229.884 101.106 233.231 105.29 231.641C109.468 230.046 107.543 221.764 103.194 221.264Z" fill="#FFA019"/>
<path d="M103.199 221.266C98.8502 220.763 92.4109 224.213 87.614 223.144C87.7267 217.393 88.1147 205.338 87.1107 197.865C86.1068 193.403 79.3045 194.83 77.1839 198.511C80.9769 205.313 81.6604 216.747 81.3674 222.983C79.317 225.582 73.1281 225.234 69.1123 225.319C65.0965 225.402 59.9516 225.57 57.8611 228.917C57.1451 230.064 57.155 231.328 57.5831 232.482C59.889 234.543 63.5543 233.431 65.8075 232.304C64.1451 233.303 63.1437 234.633 62.4727 236.21C62.5653 236.205 62.6605 236.21 62.7531 236.195C62.3075 237.349 62.4026 238.624 62.8733 239.803C65.1916 241.413 67.8404 241.926 70.4892 240.336C75.1735 237.66 76.5129 232.307 82.5341 230.967C84.542 230.299 85.8815 228.291 86.5499 226.283C87.2184 227.62 86.5499 228.96 85.8815 230.299C82.4315 233.749 78.0001 236.215 75.5441 240.236C75.0208 242.089 75.2737 243.48 75.9221 244.502C78.2655 244.925 83.9938 245.443 85.4308 238.999C86.4348 234.503 90.0174 231.513 91.9026 226.954C95.9184 229.63 101.271 230.301 104.616 227.623C106.098 226.511 106.346 224.581 105.82 222.738C105.117 221.942 104.228 221.384 103.199 221.266Z" fill="#FFBB32"/>
<path d="M82.4511 222.472C84.2111 218.511 83.9257 206.539 80.4707 201.148C81.8677 206.298 83.5352 216.228 82.4511 222.472Z" fill="#FFEBB4"/>
<path d="M59.082 230.079C62.2691 227.027 66.2674 227.36 69.3619 227.317C72.4564 227.275 76.054 227.024 77.9367 225.688C74.0887 226.649 68.5257 226.606 65.0131 226.724C61.5006 226.842 59.9533 228.739 59.082 230.079Z" fill="#FFEBB4"/>
<path d="M64.3145 237.83C66.5076 233.999 70.4357 233.188 73.3925 232.272C76.3493 231.356 79.7291 230.096 81.1537 228.281C77.7363 230.294 72.3885 231.829 69.0537 232.935C65.7164 234.04 64.7701 236.3 64.3145 237.83Z" fill="#FFEBB4"/>
<path d="M79.1547 238.044C76.939 239.892 76.8939 241.905 77.0066 243.209C77.5298 239.624 80.2888 237.822 82.2716 236.234C84.2545 234.645 86.4577 232.667 87.001 230.852C84.9931 233.415 81.3703 236.197 79.1547 238.044Z" fill="#FFEBB4"/>
<path d="M103.234 220.932C102.919 220.897 102.598 220.877 102.28 220.877C100.603 220.877 99.1034 221.383 97.6538 221.873C96.2117 222.361 94.7171 222.865 93.0497 222.865C92.5164 222.865 91.9932 222.815 91.4624 222.714C91.5776 216.728 91.7753 205.848 90.7789 198.439C90.3182 196.392 87.9699 195.117 84.6526 195.117C81.8085 195.117 78.1682 196.129 76.8914 198.344L76.7962 198.51L76.8889 198.675C80.7094 205.53 81.2927 217.046 81.0348 222.86C79.2948 224.915 74.5755 224.945 70.7725 224.968C70.1867 224.97 69.6259 224.975 69.1027 224.985C65.177 225.068 59.7992 225.181 57.576 228.741C56.7223 230.105 56.7423 231.803 57.6261 233.397C58.6375 235.222 60.5904 236.549 62.2828 236.562C61.9273 237.921 62.1902 239.464 63.0289 240.873C64.1155 242.696 65.918 243.933 67.8533 244.178C70.5597 244.521 72.6453 242.588 74.2826 241.061C74.5956 240.77 74.8985 240.485 75.1889 240.237C74.6957 242.045 74.8709 243.577 75.7122 244.804C76.9564 246.621 79.3424 247.265 81.0073 247.265C81.3453 247.265 81.6532 247.237 81.9261 247.185C84.5799 246.672 86.7581 243.965 87.2338 240.593C87.5142 239.982 88.1826 238.945 88.9538 237.751C90.4184 235.483 92.231 232.676 93.1348 230.218C94.0011 230.278 95.1627 230.648 96.4896 231.072C98.4299 231.69 100.628 232.393 102.756 232.393C103.725 232.393 104.616 232.243 105.402 231.943C107.25 231.239 108.202 229.219 107.884 226.67C107.561 224.051 105.858 221.235 103.234 220.932ZM105.17 231.324C104.451 231.597 103.662 231.73 102.761 231.73C100.736 231.73 98.5902 231.044 96.6975 230.438C95.1953 229.96 93.8984 229.544 92.907 229.544H92.6691L92.5915 229.77C91.7453 232.206 89.81 235.202 88.3955 237.393C87.5568 238.69 86.8958 239.716 86.6079 240.367L86.5829 240.458C86.0871 244.093 83.7588 246.153 81.8035 246.531C81.5781 246.576 81.3027 246.599 81.0123 246.599C79.3925 246.599 77.297 245.928 76.268 244.428C75.4042 243.166 75.3667 241.494 76.1553 239.454L76.5083 238.545L75.6721 239.046C75.0988 239.389 74.4829 239.964 73.8295 240.575C72.2873 242.015 70.3444 243.827 67.9409 243.519C66.2335 243.302 64.5711 242.158 63.6047 240.535C62.7685 239.131 62.5707 237.593 63.0639 236.319L63.2717 235.778L62.7009 235.866C61.1462 236.104 59.1958 234.857 58.2094 233.074C57.7613 232.266 57.1554 230.673 58.1418 229.096C60.1747 225.844 65.3422 225.736 69.1152 225.656C69.6359 225.644 70.1942 225.641 70.7751 225.639C74.7708 225.614 79.743 225.581 81.6257 223.195L81.6908 223.11L81.6958 223.002C81.9687 217.202 81.4003 205.572 77.5673 198.522C78.6263 196.927 81.5556 195.786 84.6526 195.786C86.9935 195.786 89.6623 196.522 90.123 198.557C91.1194 205.978 90.9066 216.996 90.7889 222.98L90.7839 223.253L91.0518 223.313C91.7253 223.463 92.3787 223.536 93.0521 223.536C94.8297 223.536 96.377 223.012 97.8691 222.509C99.3337 222.013 100.716 221.548 102.283 221.548C102.576 221.548 102.871 221.565 103.159 221.598C105.415 221.858 106.937 224.452 107.225 226.76C107.443 228.505 107.017 230.623 105.17 231.324Z" fill="#BD5000"/>
<path d="M83.0701 232.534C82.2213 233.22 81.3376 233.843 80.4813 234.447C78.2907 235.992 76.2202 237.449 75.3965 239.562L76.0199 239.804C76.7684 237.879 78.7588 236.477 80.8669 234.993C81.7306 234.384 82.6244 233.753 83.4907 233.055C86.5801 230.556 86.4449 228.258 86.4449 228.258C86.4399 228.275 85.9567 230.198 83.0701 232.534Z" fill="#BD5000"/>
<path d="M76.2199 228.979C75.271 229.352 74.0392 229.683 72.7323 230.033C68.5638 231.153 63.3789 232.545 62.2598 236.638L62.9057 236.813C63.9222 233.09 68.9018 231.753 72.9051 230.679C74.2295 230.324 75.4788 229.988 76.4627 229.6C80.4685 228.02 80.9667 226.195 80.9667 226.195C80.9592 226.21 79.9953 227.49 76.2199 228.979Z" fill="#BD5000"/>
<path d="M63.461 225.438L63.3008 226.086C67.2765 227.06 67.6295 230.7 67.6445 230.855C67.6445 230.855 67.9149 226.529 63.461 225.438Z" fill="#BD5000"/>
<path d="M70.7896 224.977L70.5117 225.585C72.4345 226.469 72.8275 228.962 72.83 228.987C72.83 228.987 73.0479 226.013 70.7896 224.977Z" fill="#BD5000"/>
<path d="M74.7653 229.547L74.5449 230.18C77.389 231.169 78.1902 233.775 78.1977 233.803C78.1977 233.803 77.9424 230.653 74.7653 229.547Z" fill="#BD5000"/>
<path d="M68.8646 231.242L68.6895 231.888C72.4649 232.915 73.1934 236.635 73.2234 236.793C73.2234 236.793 73.0557 232.381 68.8646 231.242Z" fill="#BD5000"/>
<path d="M77.3787 237.023C77.3612 237.023 77.3437 237.023 77.3262 237.023L77.3286 237.692C77.3461 237.692 77.3612 237.692 77.3787 237.692C81.9028 237.692 82.9017 240.383 82.9442 240.498C82.9442 240.498 82.406 237.023 77.3787 237.023Z" fill="#BD5000"/>
<path d="M81.4902 233.823L81.5103 234.492C84.9227 234.397 86.1519 236.364 86.2045 236.449L86.49 236.277C86.49 236.277 85.3007 233.723 81.4902 233.823Z" fill="#BD5000"/>
<path d="M94.5088 222.773L94.2734 223.399C96.9548 224.416 97.0925 227.64 97.0925 227.673C97.0925 227.673 97.6132 223.95 94.5088 222.773Z" fill="#BD5000"/>
<path d="M100.353 221.141L100.141 221.774C103.706 222.968 103.195 226.709 103.17 226.866C103.17 226.866 104.457 222.518 100.353 221.141Z" fill="#BD5000"/>
<path d="M57.6898 230.845C55.4315 232.568 54.385 235.327 54.9283 238.674C56.9362 237.209 60.0457 237.33 61.0847 236.015C62.0837 234.072 60.0332 230.377 57.6898 230.845Z" fill="#DBD9D9"/>
<path d="M57.6898 230.867C55.4315 232.59 54.385 235.349 54.9283 238.696C56.2602 235.819 58.7313 235.607 59.7678 234.292C60.7668 232.349 60.0332 230.399 57.6898 230.867Z" fill="white"/>
<path d="M57.6244 230.531L57.5493 230.546L57.4867 230.593C55.0707 232.436 54.0443 235.33 54.5976 238.74L54.6852 239.278L55.1258 238.958C56.0496 238.284 57.2213 237.964 58.3554 237.654C59.5847 237.318 60.7464 237 61.3848 236.181C61.9031 235.17 61.7253 233.675 60.9317 232.376C60.1005 231.012 58.8211 230.288 57.6244 230.531ZM60.824 235.821C60.3584 236.412 59.2993 236.702 58.1802 237.008C57.2088 237.273 56.1248 237.571 55.1909 238.119C54.8604 235.218 55.7867 232.769 57.8322 231.174C58.751 231.026 59.6974 231.635 60.3633 232.724C61.0243 233.811 61.1971 235.077 60.824 235.821Z" fill="#969696"/>
<path d="M62.9241 238.009C60.6659 239.731 59.6194 242.49 60.1627 245.838C62.1706 244.373 65.28 244.493 66.319 243.179C67.3155 241.239 65.2675 237.543 62.9241 238.009Z" fill="#DBD9D9"/>
<path d="M62.9241 238.023C60.6659 239.745 59.6194 242.504 60.1627 245.852C61.4946 242.975 63.9631 242.762 65.0021 241.448C66.0011 239.505 65.2675 237.557 62.9241 238.023Z" fill="white"/>
<path d="M62.8574 237.678L62.7823 237.693L62.7197 237.741C60.3037 239.584 59.2772 242.478 59.833 245.888L59.9207 246.426L60.3613 246.106C61.2851 245.432 62.4568 245.112 63.591 244.801C64.8202 244.466 65.9819 244.148 66.6178 243.329C67.136 242.318 66.9608 240.823 66.1672 239.524C65.3335 238.162 64.0541 237.438 62.8574 237.678ZM66.057 242.969C65.5913 243.559 64.5323 243.85 63.4132 244.155C62.4418 244.421 61.3577 244.719 60.4239 245.267C60.0909 242.365 61.0198 239.917 63.0652 238.322C63.9841 238.174 64.9304 238.783 65.5963 239.872C66.2573 240.961 66.43 242.227 66.057 242.969Z" fill="#969696"/>
<path d="M75.366 243.084C73.7562 245.422 73.6185 248.371 75.1758 251.383C76.6279 249.368 79.6222 248.514 80.2005 246.942C80.5435 244.786 77.4465 241.912 75.366 243.084Z" fill="#DBD9D9"/>
<path d="M75.366 243.088C73.7562 245.426 73.6185 248.375 75.1758 251.387C75.5463 248.24 77.8296 247.269 78.4055 245.696C78.7485 243.541 77.4465 241.916 75.366 243.088Z" fill="white"/>
<path d="M78.9172 243.512C77.7029 242.476 76.2634 242.185 75.1993 242.786L75.1317 242.824L75.0892 242.886C73.3642 245.387 73.289 248.457 74.8763 251.529L75.1267 252.012L75.4447 251.571C76.1131 250.643 77.1271 249.974 78.1085 249.328C79.1725 248.627 80.1765 247.964 80.5295 246.987C80.7073 245.866 80.0763 244.501 78.9172 243.512ZM79.886 246.822C79.6257 247.528 78.7119 248.131 77.7405 248.772C76.8993 249.328 75.9604 249.946 75.2443 250.758C74.0276 248.104 74.1478 245.488 75.5949 243.337C76.4211 242.911 77.5101 243.194 78.4815 244.023C79.4529 244.849 80.0087 246.001 79.886 246.822Z" fill="#969696"/>
<path d="M80.3878 207.531L80.2051 208.175C81.915 208.66 83.4248 208.831 84.6991 208.831C87.5357 208.831 89.2005 207.992 89.3007 207.942C89.3007 207.942 85.6529 209.028 80.3878 207.531Z" fill="#BD5000"/>
<path d="M81.3575 214.344L81.0371 214.932C82.7746 215.879 84.457 216.159 85.844 216.159C87.8068 216.159 89.1788 215.596 89.2739 215.556C89.2739 215.556 85.2682 216.477 81.3575 214.344Z" fill="#BD5000"/>
<path d="M81.5511 220.875L81.2832 221.488C82.9481 222.219 84.3827 222.455 85.5369 222.455C87.5097 222.455 88.6588 221.771 88.7339 221.724C88.7339 221.724 85.7446 222.718 81.5511 220.875Z" fill="#BD5000"/>
<path d="M29.3163 55.2398C27.0705 60.8154 21.495 64.6083 20.824 71.3004C20.1556 77.9926 26.5123 81.5603 31.6422 79.7777C36.7721 77.9926 44.5808 60.2596 44.2453 55.2398C43.9123 50.2201 34.6865 52.3406 29.3163 55.2398Z" fill="#ED1B26"/>
<path d="M20.8246 71.2832C20.6343 73.1709 21.0074 74.8108 21.751 76.1527C20.8897 73.1133 21.0925 69.9989 23.3883 67.0446C26.6981 62.0799 31.3648 58.4747 34.0312 53.2422C32.3487 53.778 30.7038 54.474 29.3168 55.2226C27.0711 60.7981 21.4955 64.591 20.8246 71.2832Z" fill="#FF8784"/>
<path d="M39.7895 51.8828C36.3621 51.8828 31.9808 53.42 29.1592 54.9447L29.0541 55.0023L29.009 55.1149C28.1327 57.2931 26.7608 59.1608 25.3112 61.1386C23.1456 64.0904 20.9073 67.1423 20.4942 71.2658C20.2413 73.7994 20.9349 76.0526 22.5046 77.7851C24.1044 79.5527 26.4402 80.5667 28.9188 80.5667C29.8952 80.5667 30.8491 80.4064 31.7579 80.091C36.978 78.2759 44.9345 60.4502 44.584 55.2151C44.4362 53.067 42.7363 51.8828 39.7895 51.8828ZM31.5351 79.46C30.6989 79.7505 29.8177 79.8982 28.9164 79.8982C26.6281 79.8982 24.4725 78.9643 23.0003 77.337C21.5633 75.7472 20.9248 73.6717 21.1601 71.3333C21.5532 67.3926 23.7389 64.4133 25.8494 61.5342C27.2389 59.6415 28.671 57.6862 29.5823 55.478C32.3313 54.0134 36.5198 52.5538 39.7895 52.5538C42.4058 52.5538 43.7928 53.4651 43.913 55.2627C44.2435 60.2274 36.4197 77.7601 31.5351 79.46Z" fill="#6D0014"/>
<path d="M27.2012 175.399C31.1669 188.784 40.5379 203.337 58.0231 204.844C75.5058 206.349 80.0123 183.263 80.0123 183.263C80.0123 183.263 34.7696 165.695 27.2012 175.399Z" fill="#EA7921"/>
<path d="M44.7902 173.207C36.7385 171.953 29.7785 172.091 27.1973 175.398C29.6233 183.582 34.0747 192.2 41.16 198.008C41.6582 198.101 42.1864 198.151 42.7548 198.151C38.9317 189.864 40.5791 180.973 44.7902 173.207Z" fill="#F99932"/>
<path d="M36.5666 172.148C31.7546 172.148 28.515 173.175 26.9352 175.2L26.8301 175.335L26.8801 175.501C29.3487 183.833 37.3227 203.403 57.9925 205.184C58.5458 205.231 59.0991 205.256 59.6398 205.256C75.8733 205.256 80.2971 183.552 80.3397 183.335L80.3923 183.059L80.1319 182.959C79.8515 182.849 52.1165 172.148 36.5666 172.148ZM59.6373 204.585C59.1166 204.585 58.5809 204.563 58.0476 204.515C37.9236 202.783 30.0547 183.77 27.5686 175.478C29.0557 173.711 32.0802 172.817 36.5641 172.817C51.1727 172.817 76.727 182.376 79.6187 183.477C79.0579 185.973 74.3435 204.585 59.6373 204.585Z" fill="#994004"/>
<path d="M152.562 105.157C158.976 97.183 156.801 89.0488 148.992 93.3651C151.891 87.6468 149.55 82.0137 143.862 85.9719C145.702 82.2916 143.807 79.3924 140.627 83.5183C137.448 87.6443 128.137 101.755 116.703 103.369C111.851 100.748 99.6382 96.1766 88.4846 97.849C83.0768 96.6222 24.0191 92.2734 7.45775 105.155C1.93729 115.359 -1.41 126.067 1.26886 145.137C3.94522 164.21 24.4673 182.444 35.1753 184.897C41.8674 192.258 52.1272 196.384 58.8194 196.384C64.7304 205.639 73.6257 211.803 83.1319 212.332C95.7751 213.035 99.0799 208.874 100.587 205.752C104.38 204.803 106.834 202.63 107.167 199.506C109.342 199.393 111.182 198.001 111.738 195.993C122.166 196.774 134.045 193.54 132.984 182.554C138.782 180.714 144.583 174.412 140.512 168.446C146.924 164.43 149.49 156.624 145.865 154.951C147.53 153.094 149.044 148.204 146.033 147.591C152.111 143.184 157.577 134.542 151.776 131.866C156.07 128.854 160.809 118.649 154.898 119.262C160.649 112.853 162.712 102.481 152.562 105.157Z" fill="#EA7921"/>
<path d="M75.0586 198.727C75.2163 198.799 75.384 198.842 75.5493 198.842C75.384 198.807 75.2213 198.764 75.0586 198.727Z" fill="#F99932"/>
<path d="M15.9915 166.052C17.3309 166.721 15.9915 164.713 15.9915 163.376C18.6678 166.052 22.0152 167.392 25.36 168.729C25.36 167.389 25.36 165.384 25.36 164.044C30.7127 173.413 40.0812 178.097 50.1207 180.105C50.1207 177.429 52.1286 175.421 51.4577 172.745C54.099 184.634 62.6112 195.863 75.0567 198.727C74.586 198.507 74.2104 198.006 74.2104 197.503C82.9105 198.171 92.279 200.179 98.9712 192.818C98.3027 192.818 96.9633 192.818 96.2948 192.818C100.311 188.803 102.987 182.781 102.987 176.758C96.9658 176.758 90.9421 177.426 85.5894 174.75C85.5894 175.418 86.9288 176.087 86.9288 176.758C79.5682 175.418 74.8839 170.734 69.5312 166.721C69.5312 167.389 69.5312 167.389 69.5312 168.06C57.4863 163.376 48.1178 145.307 56.8179 138.615C71.5391 127.907 93.6234 133.931 109.684 145.976C115.037 150.66 123.068 148.652 130.429 148.652C130.429 150.66 128.421 151.329 128.421 153.336C135.113 154.673 141.134 149.989 145.15 144.637C143.813 143.968 142.474 145.976 141.134 145.305C145.15 143.297 145.819 139.281 147.158 135.268C146.49 135.268 145.15 135.268 144.482 135.268C143.813 134.6 144.482 132.592 145.15 131.923C149.166 129.915 150.503 126.57 151.174 122.555C150.505 122.555 149.834 122.555 149.166 122.555C153.85 119.21 153.85 111.849 154.519 106.494C152.511 106.494 150.503 108.502 148.495 107.833C152.401 103.437 154.524 97.6161 153.305 92.1908C152.163 92.0681 150.716 92.4137 148.996 93.3651C151.895 87.6468 149.554 82.0137 143.866 85.9719C145.706 82.2916 143.811 79.3924 140.631 83.5183C137.452 87.6443 128.141 101.755 116.707 103.369C111.855 100.748 99.6421 96.1766 88.4885 97.849C83.0807 96.6222 24.0231 92.2734 7.46172 105.155C1.94126 115.359 -1.40611 126.067 1.27276 145.137C1.72841 148.374 2.7048 151.587 4.05425 154.704C7.31145 159.4 11.1195 163.614 15.9915 166.052Z" fill="#F99932"/>
<path d="M125.851 129.109C125.361 129.159 124.875 129.205 124.404 129.25C124.98 129.39 125.456 129.31 125.851 129.109Z" fill="#FCA14F"/>
<path d="M115.702 106.492C129.023 105.425 136.827 93.751 143.847 81.6085C143.151 81.258 142.012 81.7212 140.628 83.5188C137.448 87.6447 128.137 101.755 116.703 103.37C111.851 100.749 99.6386 96.177 88.485 97.8494C87.3709 97.5966 83.9734 97.211 79.1465 96.8705C87.6037 100.363 96.8871 100.22 105.662 103.147C109.01 103.816 114.365 106.492 115.702 106.492Z" fill="#FCBD88"/>
<path d="M11.1105 102.922C9.74357 103.605 8.50683 104.346 7.45781 105.163C1.93735 115.367 -1.41001 126.075 1.26885 145.145C1.72451 148.382 2.70097 151.595 4.05042 154.711C4.73891 155.7 5.45241 156.667 6.19348 157.603C-1.37744 141.147 2.42301 119.679 11.1105 102.922Z" fill="#FCBD88"/>
<path d="M92.5516 117.303C92.4615 117.265 92.3714 117.233 92.2812 117.195C92.3714 117.24 92.4615 117.275 92.5516 117.303Z" fill="#FCA14F"/>
<path d="M140.461 107.169C139.124 105.829 135.108 107.837 132.432 106.5C131.763 106.5 132.432 103.824 132.432 102.484C125.071 112.521 111.687 110.513 100.979 109.177C100.979 107.837 102.318 106.5 101.647 105.832C100.546 105.556 99.3289 105.511 98.0946 105.551C94.5345 106.841 92.797 110.749 92.2788 113.863C91.6103 115.203 94.9551 114.532 96.2946 116.54C95.0453 116.54 93.7985 117.701 92.5492 117.316C103.835 121.92 115.127 123.915 127.076 125.908C127.602 125.908 127.297 128.377 125.847 129.115C133.015 128.384 141.928 126.732 143.806 119.216C142.466 119.216 141.129 119.216 140.458 119.216C139.121 115.198 144.477 109.845 140.461 107.169Z" fill="#FCA94F"/>
<path d="M46.1026 145.316C46.771 139.292 46.771 133.271 44.0947 129.255C42.7552 127.916 38.7419 133.94 37.4025 131.263C32.0498 121.895 27.3655 125.911 19.3339 125.911C16.6576 125.911 16.6575 121.226 15.3181 119.218C12.6418 117.211 12.6417 123.234 10.6339 121.895C10.043 121.304 9.71505 120.585 9.29945 120.022C6.70571 127.333 6.05724 134.986 9.29441 142.64C9.29441 142.64 9.96288 140.632 10.6339 139.963C15.3181 145.987 15.9866 154.016 22.6787 158.7C22.0103 156.692 24.0182 154.685 23.3472 152.677C28.6999 156.692 36.0605 158.7 42.0842 162.045C42.0842 160.037 41.4158 158.029 42.0842 156.021C42.7527 155.353 44.7606 156.021 46.1 156.021C45.4316 152.677 43.4237 149.329 44.0921 145.314L46.1026 145.316Z" fill="#FCA94F"/>
<path d="M159.604 106.669C159.141 105.63 158.049 104.393 155.491 104.393C154.857 104.393 154.156 104.47 153.4 104.621C156.294 100.693 157.408 96.4464 156.164 93.8501C155.153 91.7421 152.699 91.2489 149.702 92.6334C150.794 90.0196 150.879 87.4034 149.883 85.781C148.864 84.1186 146.876 83.8532 144.582 85.1326C145.028 83.8257 145.038 82.6064 144.577 81.8604C144.305 81.4172 143.876 81.1719 143.376 81.1719C142.489 81.1719 141.448 81.9155 140.366 83.32C140.051 83.7306 139.673 84.2413 139.237 84.8271C135.219 90.255 126.877 101.526 116.77 103.028C112.646 100.823 103.218 97.1599 93.4987 97.1599C91.7712 97.1599 90.0913 97.2776 88.504 97.513C85.8051 96.9296 72.8188 95.818 58.0851 95.818C40.2218 95.818 16.9032 97.3928 7.25931 104.894L7.16923 104.999C1.51357 115.454 -1.71107 126.289 0.942753 145.189C3.6792 164.682 24.6069 182.736 35.0019 185.204C41.8593 192.698 52.0214 196.651 58.6384 196.723C64.7472 206.2 73.8854 212.158 83.1162 212.674C84.0626 212.727 84.9839 212.754 85.8552 212.754C96.1024 212.754 99.262 209.201 100.822 206.047C104.675 205.043 107.023 202.845 107.466 199.828C109.574 199.618 111.337 198.258 111.983 196.355C112.884 196.418 113.793 196.448 114.684 196.448C121.795 196.448 127.635 194.508 130.707 191.125C132.718 188.91 133.607 186.111 133.344 182.801C137.277 181.471 140.647 178.415 141.781 175.13C142.557 172.884 142.279 170.618 140.98 168.555C145.699 165.471 148.04 160.669 147.847 157.647C147.767 156.375 147.261 155.421 146.382 154.863C147.482 153.414 148.516 150.672 147.917 148.87C147.704 148.231 147.306 147.763 146.743 147.49C150.901 144.298 154.935 139.03 154.552 135.107C154.412 133.67 153.688 132.566 152.404 131.825C155.511 129.324 158.745 123.36 157.852 120.529C157.631 119.833 157.07 119.009 155.648 118.921C159.188 114.69 160.881 109.525 159.604 106.669ZM154.654 119.046L154.076 119.692L154.937 119.602C156.194 119.475 156.935 119.84 157.216 120.726C158.002 123.218 154.845 129.314 151.587 131.6L151.112 131.933L151.64 132.175C153 132.804 153.758 133.81 153.891 135.167C154.251 138.865 150.08 144.253 145.842 147.327L145.226 147.775L145.972 147.928C146.645 148.066 147.076 148.441 147.286 149.077C147.805 150.64 146.816 153.404 145.621 154.735L145.318 155.073L145.729 155.264C146.836 155.774 147.129 156.864 147.181 157.687C147.366 160.616 144.858 165.341 140.339 168.17L140.043 168.355L140.239 168.643C141.593 170.628 141.898 172.736 141.147 174.91C140.053 178.077 136.734 181.023 132.885 182.245L132.628 182.328L132.653 182.598C132.966 185.83 132.142 188.549 130.209 190.677C127.262 193.922 121.604 195.782 114.682 195.782C113.718 195.782 112.736 195.745 111.765 195.672L111.492 195.652L111.42 195.917C110.906 197.768 109.191 199.082 107.153 199.187L106.868 199.202L106.838 199.485C106.528 202.384 104.279 204.5 100.509 205.441L100.356 205.479L100.289 205.621C98.8364 208.633 95.8821 212.091 85.8552 212.091C84.9964 212.091 84.0876 212.063 83.1537 212.013C74.0857 211.507 65.0952 205.604 59.1041 196.218L59.0039 196.063H58.8212C52.3343 196.063 42.2147 192.154 35.4249 184.686L35.3549 184.609L35.2522 184.586C25.05 182.248 4.31005 164.394 1.60365 145.104C-1.01763 126.425 2.15194 115.707 7.72247 105.387C17.2512 98.0412 40.3571 96.4965 58.0827 96.4965C72.884 96.4965 85.8852 97.6131 88.4164 98.1889L88.479 98.2014L88.5415 98.1914C90.1138 97.9561 91.7812 97.8359 93.4987 97.8359C103.163 97.8359 112.536 101.506 116.549 103.674L116.647 103.727L116.757 103.712C127.192 102.235 135.692 90.7507 139.778 85.2302C140.209 84.6469 140.584 84.1412 140.9 83.7331C142.209 82.0331 143.486 81.3696 144.012 82.2159C144.387 82.8242 144.397 84.1787 143.568 85.8336L142.983 87.0078L144.059 86.2567C146.395 84.6294 148.365 84.5868 149.317 86.1365C150.291 87.7238 150.043 90.5729 148.701 93.2242L148.208 94.1956L149.161 93.6674C152.201 91.985 154.622 92.1753 155.566 94.1456C156.545 96.186 155.941 100.44 152.309 104.956L151.67 105.75L152.654 105.489C155.979 104.613 158.182 105.119 159.001 106.947C160.207 109.658 158.302 114.976 154.654 119.046Z" fill="#994004"/>
<path d="M35.79 186.029L36.2957 185.59C33.3039 182.155 32.4978 178.665 32.4903 178.633C32.4903 178.633 32.678 182.461 35.79 186.029Z" fill="#994004"/>
<path d="M59.2322 197.646L59.7856 197.27C53.9021 188.638 52.803 181.255 52.793 181.18C52.793 181.18 53.2561 188.876 59.2322 197.646Z" fill="#994004"/>
<path d="M95.6055 204.883C95.6055 204.883 96.9824 206.117 99.2006 206.117C99.7939 206.117 100.435 206.077 101.111 205.972L101.008 205.311C97.9939 205.772 95.628 204.89 95.6055 204.883Z" fill="#994004"/>
<path d="M102.367 198.516C102.367 198.516 103.799 199.878 106.295 199.878C106.736 199.878 107.202 199.855 107.692 199.802L107.622 199.137C104.538 199.462 102.387 198.523 102.367 198.516Z" fill="#994004"/>
<path d="M110.533 191.719C110.546 191.736 111.805 193.359 111.347 196.155L112.008 196.263C112.516 193.158 110.533 191.719 110.533 191.719Z" fill="#994004"/>
<path d="M126.57 183.254C126.57 183.254 130.701 183.77 133.991 182.566L133.761 181.938C129.332 183.56 126.598 183.257 126.57 183.254Z" fill="#994004"/>
<path d="M136.01 169.955C136.01 169.955 138.751 170.013 141.257 168.355L140.887 167.797C138.491 169.384 136.035 169.95 136.01 169.955Z" fill="#994004"/>
<path d="M146.391 133.981C146.541 133.971 150.078 133.735 152.79 131.484L152.362 130.969C149.823 133.077 146.391 133.981 146.391 133.981Z" fill="#994004"/>
<path d="M149.904 122.47C149.904 122.47 154.153 121.141 155.948 118.534L155.397 118.156C153.702 120.615 149.942 122.452 149.904 122.47Z" fill="#994004"/>
<path d="M147.512 109.526C147.512 109.526 151.332 107.521 153.563 104.404L153.02 104.016C150.851 107.045 147.544 109.501 147.512 109.526Z" fill="#994004"/>
<path d="M145.406 97.9515C145.406 97.9515 147.915 96.3742 149.497 93.0795L148.894 92.7891C147.364 95.9737 145.426 97.9315 145.406 97.9515Z" fill="#994004"/>
<path d="M139.773 90.2475C139.773 90.2475 141.751 87.9667 144.06 86.2468L143.659 85.7109C141.231 87.5185 139.831 90.1374 139.773 90.2475Z" fill="#994004"/>
<path d="M82.6813 123.883C82.0404 126.227 84.5766 129.071 86.5018 129.321C88.4246 129.572 99.468 128.15 101.641 125.558C97.8782 121.625 90.042 121.317 82.6813 123.883Z" fill="#DE0600"/>
<path d="M85.1484 124.129C85.4939 124.379 85.8144 124.674 86.1049 125.04C90.1958 124.336 93.8335 123.796 95.8064 123.6C92.8145 123.39 89.0441 123.625 85.1484 124.129Z" fill="#E83434"/>
<path d="M91.9374 121.898C88.9556 121.898 85.7185 122.479 82.574 123.573L82.4062 123.631L82.3612 123.801C82.0733 124.855 82.3386 126.079 83.1147 127.244C83.976 128.541 85.3204 129.509 86.4621 129.66C86.6198 129.68 86.8326 129.692 87.093 129.692C89.9621 129.692 99.7838 128.303 101.902 125.779L102.095 125.549L101.887 125.333C99.7662 123.12 96.2336 121.898 91.9374 121.898ZM87.0904 129.021C86.8651 129.021 86.6824 129.014 86.5472 128.996C85.6033 128.874 84.4216 128 83.6705 126.873C83.0471 125.937 82.8017 124.975 82.967 124.147C85.9888 123.115 89.0858 122.569 91.9374 122.569C95.8982 122.569 99.1604 123.633 101.176 125.569C98.9225 127.654 90.2174 129.021 87.0904 129.021Z" fill="#6D0000"/>
<path d="M85.8678 127.42C83.0788 129.596 84.3631 138.852 91.5009 137.738C101.761 134.671 110.238 128.202 110.906 124.967C105.942 123.072 93.7291 124.967 85.8678 127.42Z" fill="#B10600"/>
<path d="M85.8674 127.42C83.0784 129.596 80.3495 133.932 87.4872 132.818C97.747 129.751 106.758 127.778 110.904 124.967C105.941 123.072 93.7287 124.967 85.8674 127.42Z" fill="#DE0600"/>
<path d="M80.1009 130.662C86.8281 127.938 99.942 125.006 107.803 125.284C102.473 125.995 84.9879 129.66 79.3873 131.871C73.7842 134.079 75.319 131.926 80.1009 130.662Z" fill="#E83434"/>
<path d="M105.176 123.867C98.942 123.867 90.9354 125.495 85.768 127.107L85.6628 127.162C84.1857 128.316 83.7275 131.26 84.6238 133.867C85.5652 136.603 87.6507 138.17 90.3471 138.17C90.7351 138.17 91.1407 138.138 91.5964 138.063C101.769 135.023 110.504 128.564 111.235 125.039L111.292 124.761L111.027 124.661C109.647 124.135 107.677 123.867 105.176 123.867ZM91.4487 137.414C91.0706 137.472 90.7001 137.502 90.3471 137.502C86.9472 137.502 85.6553 134.808 85.2573 133.649C84.4711 131.363 84.8191 128.729 86.0283 127.728C91.1507 126.135 99.0371 124.536 105.176 124.536C107.424 124.536 109.214 124.753 110.501 125.184C109.485 128.183 101.703 134.345 91.4487 137.414Z" fill="#6D0000"/>
<path d="M89.1881 135.197C86.3991 137.372 87.6834 146.628 94.8212 145.514C107.67 142.67 122.058 134.305 122.058 128.953C118.598 126.609 100.978 130.57 89.1881 135.197Z" fill="#B10600"/>
<path d="M89.1875 135.198C86.3985 137.374 84.666 142.058 91.8038 140.941C104.652 138.097 120.352 132.051 122.057 128.952C118.597 126.611 100.977 130.571 89.1875 135.198Z" fill="#DE0600"/>
<path d="M90.9712 136.883C97.4956 133.703 110.377 129.878 118.241 129.617C112.97 130.694 95.7807 135.548 90.3428 138.137C84.905 140.728 86.287 138.472 90.9712 136.883Z" fill="#E83434"/>
<path d="M118.326 127.93C111.864 127.93 99.0106 130.989 89.0638 134.892L88.9812 134.94C87.5041 136.094 87.0459 139.038 87.9422 141.644C88.8835 144.381 90.9691 145.948 93.6654 145.948C94.0535 145.948 94.4591 145.916 94.8922 145.848C107.27 143.109 122.389 134.777 122.389 128.959V128.781L122.242 128.681C121.496 128.175 120.214 127.93 118.326 127.93ZM94.767 145.19C94.389 145.247 94.0185 145.28 93.6654 145.28C90.2655 145.28 88.9737 142.586 88.5731 141.427C87.7845 139.136 88.1375 136.492 89.3543 135.498C99.2285 131.627 111.944 128.601 118.326 128.601C120.249 128.601 121.223 128.879 121.713 129.144C121.383 134.149 107.696 142.328 94.767 145.19Z" fill="#6D0000"/>
<path d="M95.1529 143.286C92.3639 145.461 93.6483 154.717 100.786 153.603C113.635 150.759 131.51 142.472 131.51 136.346C128.078 132.45 106.94 138.659 95.1529 143.286Z" fill="#B10600"/>
<path d="M95.1511 143.286C92.362 145.461 90.3617 148.856 97.4995 147.74C110.348 144.895 127.072 141.538 131.506 136.346C128.076 132.45 106.938 138.659 95.1511 143.286Z" fill="#DE0600"/>
<path d="M98.1196 144.289C104.644 141.109 117.525 137.284 125.389 137.023C120.119 138.1 102.636 143.713 97.1982 146.302C91.7629 148.891 93.4353 145.879 98.1196 144.289Z" fill="#E83434"/>
<path d="M126.926 134.789C118.832 134.789 103.414 139.689 95.0247 142.981L94.9421 143.028C93.465 144.183 93.0068 147.127 93.9031 149.733C94.8445 152.467 96.9299 154.037 99.6263 154.037C100.014 154.037 100.42 154.004 100.853 153.937C113.486 151.14 131.838 142.901 131.838 136.354V136.229L131.755 136.134C130.962 135.227 129.382 134.789 126.926 134.789ZM100.73 153.278C100.352 153.336 99.9818 153.366 99.6288 153.366C96.2314 153.366 94.9371 150.672 94.539 149.513C93.7504 147.222 94.1033 144.578 95.3201 143.584C103.672 140.312 118.944 135.458 126.928 135.458C129.054 135.458 130.481 135.803 131.169 136.482C130.916 142.122 114.4 150.251 100.73 153.278Z" fill="#6D0000"/>
<path d="M99.0659 151.743C96.2769 153.919 98.1871 165.914 105.325 164.8C118.173 161.955 136.61 153.689 136.943 143.577C133.516 139.678 110.855 147.117 99.0659 151.743Z" fill="#B10600"/>
<path d="M99.0674 151.743C96.2783 153.919 93.7271 160.03 100.865 158.916C113.713 156.072 133.262 150.767 136.944 143.577C133.517 139.678 110.857 147.117 99.0674 151.743Z" fill="#DE0600"/>
<path d="M106.246 151.664C112.77 148.484 125.652 144.659 133.515 144.398C128.245 145.475 110.763 151.088 105.327 153.677C99.8894 156.266 101.562 153.254 106.246 151.664Z" fill="#E83434"/>
<path d="M132.945 142.156C124.773 142.156 107.729 147.99 98.9462 151.44L98.8636 151.487C97.3414 152.674 97.0534 156.409 98.2226 159.809C99.4043 163.244 101.66 165.214 104.412 165.214C104.727 165.214 105.052 165.189 105.4 165.134C117.54 162.448 136.931 154.224 137.281 143.596L137.286 143.463L137.199 143.363C136.485 142.549 135.093 142.156 132.945 142.156ZM105.278 164.476C104.985 164.521 104.694 164.546 104.412 164.546C100.934 164.546 99.3692 161.081 98.856 159.594C97.8195 156.577 97.9998 153.075 99.2391 152.046C107.992 148.613 124.889 142.827 132.945 142.827C134.768 142.827 136 143.125 136.605 143.711C136.102 153.896 117.145 161.847 105.278 164.476Z" fill="#6D0000"/>
<path d="M107.336 153.674C115.701 149.16 109.888 143.882 99.6703 144.223C106.811 140.255 102.109 135.938 93.0733 135.56C99.6803 131.294 93.9521 128.157 90.2718 127.489C90.2718 123.305 81.8246 121.633 81.8246 121.633L56.478 123.445C56.478 123.445 51.2655 126.833 50.3442 137.275C49.3403 148.652 56.7284 162.955 71.4522 166.553C86.1734 170.15 103.448 169.104 111.855 163.498C120.26 157.893 114.489 153.544 107.336 153.674Z" fill="#EA7921"/>
<path d="M115.305 156.298C114.193 154.926 111.89 154.009 109.189 153.756C102.659 153.724 96.1298 154.352 89.6029 155.356C95.8119 151.631 103.175 146.756 111.154 148.211C110.218 145.8 105.716 144.035 99.6699 144.235C99.9153 144.097 100.146 143.962 100.363 143.825C94.4224 144.265 89.7131 149.167 82.9108 145.319C89.9109 144.736 96.9109 143.134 102.582 138.742C101.275 137.025 97.7597 135.768 93.0754 135.573C93.168 135.513 93.2482 135.455 93.3333 135.397C89.648 135.991 86.1204 137.656 82.2423 138.627C85.4244 133.853 91.1301 133.702 96.0247 131.179C95.519 129.239 92.5171 127.909 90.2714 127.501C90.2714 123.317 81.5989 121.367 81.5989 121.367L56.4776 123.458C56.4776 123.458 51.2651 126.845 50.3438 137.288C50.0008 141.183 50.6418 145.422 52.224 149.458C56.1347 155.614 62.2159 160.336 69.5264 161.38C68.858 160.711 68.858 160.711 68.187 160.04C74.6363 161.976 81.0856 163.904 88.1333 163.44C87.7302 163.2 87.3271 162.717 86.924 162.717C96.7507 163.295 107.068 161.868 115.305 156.298Z" fill="#F99932"/>
<path d="M88.9334 163.383C88.6655 163.408 88.4027 163.42 88.1348 163.438C88.4001 163.596 88.668 163.648 88.9334 163.383Z" fill="#F99932"/>
<path d="M108.535 153.368C111.755 151.308 111.842 149.4 111.57 148.396C110.849 145.729 106.532 143.939 100.884 143.882C103.365 142.212 103.651 140.695 103.408 139.666C102.86 137.352 99.2343 135.675 94.0619 135.292C95.872 133.937 96.6531 132.576 96.3877 131.239C95.9796 129.193 93.1505 127.746 90.5969 127.22C90.4466 125.373 88.8093 124.021 86.9942 123.079C84.6833 121.883 81.7591 121.97 81.7591 121.97C81.8417 121.988 89.9384 123.635 89.9384 127.498V127.779L90.2138 127.829C92.6348 128.269 95.3913 129.659 95.7343 131.369C95.9746 132.581 94.9932 133.935 92.8952 135.289L92.0114 135.86L93.0629 135.905C98.2754 136.123 102.264 137.733 102.759 139.823C103.072 141.14 101.918 142.602 99.5122 143.942L98.303 144.615L99.6874 144.57C106.297 144.345 110.348 146.418 110.931 148.576C111.357 150.148 110.025 151.861 107.183 153.393L105.972 154.046L107.348 154.021C111.487 153.934 114.932 155.391 115.578 157.454C116.109 159.149 114.722 161.202 111.675 163.235C103.523 168.668 86.6436 169.932 71.5368 166.242C57.1962 162.737 49.6728 148.784 50.6843 137.32C51.578 127.188 56.6178 123.775 56.6679 123.74C56.6679 123.74 50.9421 126.775 50.0183 137.26C48.9818 149.007 56.688 163.302 71.3792 166.89C77.2176 168.317 83.3263 169.008 89.1047 169.008C98.4406 169.008 106.925 167.205 112.045 163.791C116.296 160.956 116.659 158.671 116.216 157.254C115.535 155.088 112.456 153.566 108.535 153.368Z" fill="#994004"/>
<path d="M95.2949 154.847C95.3675 154.832 102.741 153.42 109.528 154.128L109.598 153.462C102.711 152.744 95.2949 154.847 95.2949 154.847Z" fill="#994004"/>
<path d="M91.8027 146.345C91.8503 146.323 96.6222 144.164 101.449 144.568L101.504 143.902C96.512 143.481 91.8027 146.345 91.8027 146.345Z" fill="#994004"/>
<path d="M86.9355 136.91C86.9681 136.897 90.2127 135.678 94.1484 135.976L94.1985 135.308C90.0976 134.997 86.9355 136.91 86.9355 136.91Z" fill="#994004"/>
<path d="M82.6387 127.399C82.6787 127.394 86.6344 126.773 90.7403 127.93L90.9231 127.287C86.667 126.087 82.6387 127.399 82.6387 127.399Z" fill="#994004"/>
<path d="M81.457 75.5852C80.3429 65.9938 84.3563 59.4143 84.3563 50.7143C84.3563 42.0142 80.8988 30.9733 76.1019 25.0623C71.3074 19.1512 58.2561 14.467 46.9923 17.8118C38.6278 22.8315 35.9514 33.0914 34.612 42.5726C33.2725 52.0537 33.1624 56.2899 32.1585 61.3096C27.3616 74.9167 4.1631 88.301 2.82617 114.509C5.44745 110.884 10.3545 107.817 13.1436 106.87C13.3664 111.277 15.8199 118.915 19.2774 122.262C21.786 118.582 28.2553 113.562 30.3734 110.218C31.6552 114.847 37.9568 123.211 42.5309 126.391C45.3199 124.438 49.4459 116.91 49.3908 111.78C55.4696 119.308 62.8853 118.154 66.901 124.168C68.4057 121.036 68.2405 114.957 67.2916 111.166C71.3625 114.233 78.688 114.401 82.804 113.452C80.6183 110.273 80.1176 104.474 80.0075 101.798C83.9106 103.248 90.425 101.916 93.1664 99.735C86.7547 95.7142 82.5711 85.1765 81.457 75.5852Z" fill="#E5A32E"/>
<path d="M77.4201 93.5962C81.208 96.1224 83.5989 97.3616 86.443 98.1678C82.5274 95.2186 79.0399 91.9789 76.2158 87.7428C77.5527 87.7428 78.2237 87.7428 79.5606 87.7428C74.2079 82.3901 69.5236 73.69 73.5369 68.3373C82.9505 53.6261 83.0481 33.2292 71.5641 21.2394C65.3551 17.4139 55.6486 15.2407 46.9936 17.8119C38.6291 22.8316 35.9527 33.0915 34.6133 42.5726C33.2738 52.0538 33.1637 56.29 32.1598 61.3097C27.4029 74.8067 4.54741 88.0933 2.875 113.888C5.20336 108.26 9.33681 103.268 13.9785 99.7877C13.1022 102.124 12.7367 104.59 12.6016 107.071C12.7893 106.996 12.9696 106.93 13.1423 106.87C13.3577 111.139 15.671 118.432 18.9607 121.925C19.2787 112.241 28.7023 105.839 28.7023 95.7719C29.924 100.656 29.4133 105.786 30.0292 110.716C30.1519 110.546 30.272 110.378 30.3747 110.215C31.6014 114.642 37.4124 122.47 41.9164 125.928C45.9071 118.077 43.1506 107.113 42.0841 99.1192C44.5001 103.951 47.7322 106.87 49.3896 111.777C55.3782 119.193 62.6612 118.189 66.7171 123.907C66.9674 115.681 63.5425 106.955 56.8078 102.464C64.6792 106.963 71.136 112.877 80.144 113.858C80.9 113.79 81.6086 113.69 82.257 113.565C80.3968 112.381 79.3403 110.285 78.8921 108.488C76.2158 102.464 74.8763 93.7665 68.1842 91.7586C71.6942 91.363 76.0806 92.9278 77.4201 93.5962Z" fill="#FFC958"/>
<path d="M23.3474 79.0514C24.0158 80.3909 22.0079 82.3962 22.6789 81.7278C31.1286 73.2781 45.0186 57.7507 33.9126 47.9141C33.1891 53.8676 32.9512 57.3552 32.1575 61.3184C27.984 73.1605 9.88294 84.8423 4.375 104.949C8.66869 95.1371 15.6362 86.3545 23.3474 79.0514Z" fill="#FFE688"/>
<path d="M81.7889 75.5525C81.1655 70.1998 82.1745 65.7234 83.1509 61.3921C83.907 58.0298 84.6931 54.5523 84.6931 50.7192C84.6931 41.8264 81.1129 30.7078 76.3636 24.8569C72.3728 19.9373 63.3699 16.3672 54.9603 16.3672C52.1387 16.3672 49.4248 16.7477 46.8986 17.4988L46.821 17.5339C38.0959 22.7689 35.5373 33.6446 34.2829 42.5349C33.6871 46.756 33.3265 50.0032 33.0386 52.6145C32.6756 55.8917 32.3877 58.483 31.8469 61.2094C30.1294 66.0814 26.0686 70.8733 21.3643 76.4238C13.3402 85.8925 3.3558 97.6744 2.49706 114.504L2.43945 115.633L3.10295 114.716C5.62408 111.229 10.2232 108.367 12.8445 107.348C13.22 112.128 15.7812 119.348 19.0509 122.513L19.3364 122.788L19.5592 122.46C20.7834 120.665 23.0042 118.507 25.1523 116.421C27.1752 114.456 29.1005 112.586 30.2671 110.986C31.937 115.781 37.8906 123.579 42.3446 126.674L42.5373 126.806L42.7276 126.674C45.3213 124.859 49.3271 117.964 49.7027 112.674C52.7471 116.139 56.1044 117.651 59.0912 118.995C62.1206 120.36 64.7393 121.536 66.627 124.365L66.9525 124.854L67.2054 124.325C68.6149 121.399 68.6074 115.846 67.8088 111.935C70.2448 113.452 73.8349 114.308 77.8307 114.308C79.6358 114.308 81.4309 114.123 82.883 113.79L83.3612 113.68L83.0833 113.274C81.0479 110.315 80.5096 104.922 80.3669 102.284C81.3883 102.594 82.5751 102.752 83.902 102.752C87.4496 102.752 91.3452 101.625 93.3757 100.01L93.7461 99.7174L93.3456 99.467C86.8062 95.3611 82.8279 84.5004 81.7889 75.5525ZM83.8995 102.073C82.4599 102.073 81.153 101.87 80.1215 101.487L79.6484 101.312L79.6684 101.815C79.7911 104.74 80.2943 109.997 82.2571 113.229C80.9427 113.49 79.3905 113.63 77.8232 113.63C73.5571 113.63 69.7917 112.636 67.4883 110.901L66.7322 110.333L66.9625 111.249C67.8588 114.837 68.0241 120.35 66.8248 123.489C64.857 120.85 62.1806 119.646 59.3566 118.377C56.1019 116.912 52.7345 115.398 49.6476 111.572L49.0417 110.823L49.0517 111.787C49.1068 116.85 45.1586 123.937 42.5223 125.98C38.0533 122.761 31.922 114.569 30.6927 110.132L30.4925 109.406L30.0893 110.045C29.0428 111.7 26.9223 113.758 24.6791 115.938C22.6361 117.924 20.5255 119.972 19.2312 121.749C16.1017 118.454 13.7032 111.369 13.4754 106.86L13.4529 106.417L13.0348 106.56C10.5587 107.401 6.08472 110.035 3.2281 113.455C4.42232 97.4441 13.6807 86.5158 21.87 76.8519C26.6169 71.2513 30.7153 66.4144 32.4853 61.3796C33.0461 58.5781 33.3341 55.9768 33.6996 52.6821C33.9875 50.0758 34.348 46.8336 34.9414 42.6226C36.1732 33.8925 38.6717 23.2221 47.1264 18.1247C49.5799 17.4012 52.2138 17.0331 54.9577 17.0331C63.1846 17.0331 71.9673 20.5006 75.8404 25.275C80.5021 31.0208 84.0197 41.9591 84.0197 50.7167C84.0197 54.4746 83.2435 57.9146 82.4949 61.2419C81.5085 65.6282 80.487 70.1622 81.1204 75.6276C82.1594 84.548 86.0927 95.3561 92.577 99.7524C90.5891 101.114 87.044 102.073 83.8995 102.073Z" fill="#825308"/>
<path d="M12.928 108.181L13.5965 108.128C13.2735 104.032 13.9145 100.85 13.922 100.82C13.922 100.82 12.5976 103.985 12.928 108.181Z" fill="#825308"/>
<path d="M30.0946 103.648C30.0946 103.648 28.8754 106.941 30.31 111.109L30.9433 110.891C29.5664 106.893 30.0896 103.678 30.0946 103.648Z" fill="#825308"/>
<path d="M76.4121 95.3984C76.4422 95.4185 79.2963 97.5441 79.7294 102.794L80.3954 102.739C79.9372 97.186 76.4121 95.3984 76.4121 95.3984Z" fill="#825308"/>
<path d="M65.6743 44.9486C74.875 31.314 69.7301 23.6179 64.5877 22.4061C59.4428 21.1944 53.5042 25.3329 48.82 29.0557C48.8625 25.8761 48.7774 19.0188 44.2183 18.3077C39.6592 17.5967 35.3104 22.7817 33.1348 28.4699C26.9459 28.8053 25.9419 34.073 29.4545 39.1778C32.6341 40.7676 43.7577 49.2148 47.105 55.4888C52.9609 69.0409 69.1042 68.2873 72.3664 61.3448C75.6286 54.3998 73.2026 47.0391 65.6743 44.9486Z" fill="#F9D98A"/>
<path d="M66.2068 44.7653C72.2005 35.6947 71.3793 29.9188 70.3403 27.265C69.3063 24.6162 67.1832 22.6809 64.6646 22.0876C64.0337 21.9398 63.3677 21.8622 62.6867 21.8622C58.1777 21.8622 53.3558 25.0794 49.1622 28.3666C49.1722 25.3297 48.8918 18.7027 44.2726 17.9841C43.9772 17.9391 43.6743 17.9141 43.3763 17.9141C38.9049 17.9141 34.9192 23.0264 32.9038 28.1563C29.6666 28.3917 28.2596 29.9063 27.6487 31.1506C26.5722 33.3413 27.1454 36.4132 29.1834 39.3725L29.2335 39.4426L29.3111 39.4802C32.4231 41.0374 43.5391 49.5096 46.8038 55.6259C50.2889 63.69 57.2864 66.5617 62.6742 66.5617C67.3009 66.5617 71.2265 64.5713 72.6736 61.4894C74.4261 57.759 74.5914 53.7883 73.1243 50.5912C71.8324 47.7846 69.4465 45.7768 66.2068 44.7653ZM72.0653 61.2115C70.7283 64.0581 67.0405 65.8982 62.6692 65.8982C57.4942 65.8982 50.767 63.1318 47.3996 55.3405C43.9447 48.8612 32.7635 40.5142 29.6816 38.9269C27.8214 36.1929 27.2831 33.4014 28.2445 31.4486C29.0281 29.8563 30.7257 28.945 33.1542 28.8123L33.3719 28.7997L33.4495 28.597C35.3548 23.6123 39.1628 18.5825 43.3738 18.5825C43.6392 18.5825 43.9071 18.6025 44.1675 18.6451C48.6139 19.3386 48.5163 26.6542 48.4837 29.0601L48.4737 29.7637L49.0245 29.3256C53.2506 25.9657 58.1802 22.5332 62.6817 22.5332C63.3126 22.5332 63.926 22.6033 64.5068 22.7385C66.8102 23.2818 68.7555 25.0644 69.7119 27.5079C70.7158 30.0766 71.4894 35.7323 65.3931 44.7678L65.1327 45.1534L65.5809 45.2785C68.8481 46.1873 71.2441 48.1201 72.5059 50.8741C73.8979 53.8935 73.7352 57.6589 72.0653 61.2115Z" fill="#825308"/>
<path d="M49.8695 51.252C46.2994 49.0113 36.0071 55.07 34.595 60.4678C35.5915 65.9457 33.188 68.5395 32.855 73.3539C32.522 78.1684 34.5123 84.6252 42.0657 84.3748C49.6191 84.1245 52.6085 78.8118 52.1103 70.9254C51.6121 63.0415 49.0383 63.2068 49.8695 51.252Z" fill="#D80E21"/>
<path d="M34.4423 66.274C33.9215 68.5472 33.0477 70.5827 32.855 73.3542C32.6722 75.9905 33.1904 79.1175 34.9329 81.3683C38.1826 82.9405 42.1784 82.2019 44.5569 79.1475C48.0444 74.1678 50.0347 67.691 45.5533 63.7078C42.0132 60.5582 38.4731 65.1724 34.4423 66.274Z" fill="#ED1B26"/>
<path d="M51.2332 64.1022C50.4446 61.233 49.701 58.5216 50.2042 51.2762L50.2167 51.0759L50.0465 50.9683C49.4857 50.6153 48.7697 50.4375 47.9134 50.4375C43.3519 50.4375 35.5255 55.5799 34.2687 60.3818L34.2487 60.4545L34.2612 60.527C34.8546 63.7893 34.2162 65.9949 33.5402 68.3308C33.1021 69.8455 32.6489 71.4127 32.5162 73.3305C32.2758 76.828 33.2598 80.1228 35.1475 82.1457C36.7398 83.8506 38.9255 84.7169 41.6419 84.7169C41.7846 84.7169 41.9273 84.7144 42.0725 84.7094C45.3372 84.6018 47.8883 83.5602 49.6534 81.6174C51.8015 79.2515 52.7379 75.6488 52.4399 70.907C52.2496 67.8025 51.7339 65.9198 51.2332 64.1022ZM49.1652 81.1668C47.5254 82.9719 45.1344 83.9383 42.0574 84.041C41.9197 84.046 41.7846 84.0484 41.6494 84.0484C39.1257 84.0484 37.1053 83.2548 35.6457 81.6901C33.8806 79.7999 32.9644 76.6929 33.1922 73.3781C33.3199 71.5329 33.763 70.0007 34.1911 68.5185C34.8846 66.1226 35.5381 63.8594 34.9397 60.4845C36.169 56.0331 43.6873 51.1109 47.9184 51.1109C48.5568 51.1109 49.0976 51.2211 49.5257 51.4415C49.0425 58.6443 49.7961 61.3833 50.5922 64.2825C51.0829 66.07 51.5912 67.9177 51.7815 70.9521C52.0669 75.5011 51.1882 78.9386 49.1652 81.1668Z" fill="#6D0014"/>
<path d="M35.8054 80.6431C34.844 76.78 34.8365 73.4176 35.8054 68.125C34.3433 71.7978 33.4044 76.4745 35.8054 80.6431Z" fill="#FF8784"/>
<path d="M61.1906 26.6883C57.8157 26.095 54.3557 29.7377 53.4594 34.8276C52.5631 39.9174 54.5735 44.524 57.9484 45.1174C61.3232 45.7107 64.7858 42.068 65.6796 36.9782C66.5759 31.8884 64.5655 27.2817 61.1906 26.6883Z" fill="#C9C7C7"/>
<path d="M61.1922 26.6883C57.8173 26.095 54.3573 29.7377 53.461 34.8276C52.5647 39.9174 64.7849 42.068 65.6812 36.9782C66.5775 31.8884 64.5671 27.2817 61.1922 26.6883Z" fill="white"/>
<path d="M61.2534 26.3491C57.7033 25.7232 54.0606 29.4962 53.1342 34.7588C52.2079 40.0214 54.3435 44.8107 57.8936 45.4366C61.4437 46.0625 65.0864 42.2896 66.0128 37.027C66.9416 31.7644 64.806 26.975 61.2534 26.3491ZM65.3543 36.9118C64.4931 41.8114 61.1983 45.339 58.0087 44.7782C54.8216 44.2174 52.9289 39.776 53.7927 34.8764C54.6539 29.9769 57.9487 26.4493 61.1383 27.0101C64.3254 27.5709 66.2181 32.0123 65.3543 36.9118Z" fill="#827F7F"/>
<path d="M60.9615 33.3638C59.1539 33.0458 57.3187 34.891 56.8631 37.4847C56.4074 40.0784 57.5015 42.4394 59.3091 42.7573C61.1168 43.0753 62.9519 41.2302 63.4075 38.6364C63.8657 36.0427 62.7691 33.6817 60.9615 33.3638Z" fill="#0016B2"/>
<path d="M56.8631 37.4688C56.4074 40.0625 57.5015 42.4234 59.3091 42.7414C61.1168 43.0594 62.9519 41.2142 63.4075 38.6205C61.3621 41.0164 57.5516 41.1165 56.8631 37.4688Z" fill="#004DF8"/>
<path d="M60.6692 35.0073C59.4976 34.802 58.3058 35.9988 58.0104 37.6812C57.715 39.3636 58.4235 40.8958 59.5977 41.1011C60.7719 41.3064 61.9611 40.1096 62.2565 38.4272C62.552 36.7448 61.8434 35.2126 60.6692 35.0073Z" fill="#00001F"/>
<path d="M60.0764 34.6649C59.4154 34.5472 58.7695 35.073 58.6343 35.8391C58.4991 36.6027 58.9272 37.3187 59.5881 37.4339C60.2491 37.5515 60.8951 37.0258 61.0303 36.2597C61.1655 35.4961 60.7373 34.7826 60.0764 34.6649Z" fill="white"/>
<path d="M58.6241 37.836C58.2936 37.7785 57.9706 38.0414 57.903 38.4219C57.8354 38.805 58.0508 39.1605 58.3813 39.218C58.7117 39.2756 59.0347 39.0127 59.1023 38.6322C59.1674 38.2516 58.9545 37.8936 58.6241 37.836Z" fill="white"/>
<path d="M61.0015 33.1478C59.0862 32.8098 57.1409 34.7376 56.6627 37.444C56.187 40.1504 57.3562 42.6265 59.274 42.9619C61.1892 43.2999 63.1345 41.3721 63.6102 38.6657C64.0884 35.9593 62.9167 33.4833 61.0015 33.1478ZM63.2097 38.5957C62.7741 41.0692 61.0415 42.8393 59.3491 42.5413C57.6566 42.2434 56.6327 39.9877 57.0683 37.5141C57.504 35.0405 59.2364 33.2705 60.9289 33.5684C62.6213 33.8664 63.6453 36.1196 63.2097 38.5957Z" fill="#00004C"/>
<path d="M42.962 20.8004C40.7138 19.9466 37.4816 22.9735 35.7416 27.5576C34.0016 32.1417 34.4122 36.5506 36.6604 37.4018C38.9087 38.2556 42.1409 35.2287 43.8809 30.6446C45.6209 26.0605 45.2103 21.6541 42.962 20.8004Z" fill="#C9C7C7"/>
<path d="M42.9628 20.8004C40.7146 19.9466 37.4824 22.9735 35.7424 27.5576C34.0024 32.1417 42.1416 35.2312 43.8816 30.6471C45.6217 26.063 45.211 21.6541 42.9628 20.8004Z" fill="white"/>
<path d="M43.0808 20.4777C42.7903 20.3675 42.4824 20.3125 42.1594 20.3125C39.826 20.3125 36.9945 23.3043 35.4297 27.4302C34.571 29.6935 34.1954 31.9918 34.3732 33.902C34.5585 35.8949 35.3296 37.2469 36.5413 37.7076C36.8317 37.8177 37.1421 37.8728 37.4626 37.8728C39.796 37.8728 42.6276 34.8785 44.1924 30.755C46.025 25.9256 45.5368 21.4115 43.0808 20.4777ZM43.5665 30.5172C42.1194 34.3277 39.4955 37.2019 37.4626 37.2019C37.2223 37.2019 36.992 37.1618 36.7792 37.0792C35.8178 36.7136 35.1994 35.5619 35.0391 33.8369C34.8714 32.0268 35.2319 29.8337 36.0556 27.663C37.5027 23.8525 40.1265 20.9784 42.1619 20.9784C42.4023 20.9784 42.6326 21.0185 42.8454 21.1011C44.8784 21.8773 45.2113 26.1884 43.5665 30.5172Z" fill="#827F7F"/>
<path d="M41.3504 26.9322C40.1462 26.4765 38.4513 27.9987 37.565 30.337C36.6787 32.6754 36.9341 34.9387 38.1383 35.3968C39.3426 35.8525 41.0375 34.3303 41.9238 31.992C42.8101 29.6536 42.5547 27.3903 41.3504 26.9322Z" fill="#0016B2"/>
<path d="M37.565 30.3281C36.6787 32.6665 36.9341 34.9298 38.1383 35.3879C39.3426 35.8436 41.0375 34.3214 41.9238 31.983C40.2213 33.6855 37.3322 32.7867 37.565 30.3281Z" fill="#004DF8"/>
<path d="M40.6394 28.7874C39.9659 28.5321 39.0196 29.3832 38.5238 30.6901C38.0281 31.997 38.1708 33.2613 38.8443 33.5167C39.5177 33.7721 40.4641 32.9209 40.9598 31.614C41.4555 30.3071 41.3104 29.0428 40.6394 28.7874Z" fill="#00001F"/>
<path d="M40.1244 28.2325C39.799 28.1098 39.3384 28.5229 39.098 29.1563C38.8577 29.7897 38.9277 30.4031 39.2532 30.5283C39.5787 30.651 40.0393 30.2403 40.2797 29.6044C40.52 28.9685 40.4524 28.3552 40.1244 28.2325Z" fill="white"/>
<path d="M38.7766 30.8478C38.5964 30.7802 38.346 31.0081 38.2133 31.3561C38.0806 31.7041 38.1207 32.042 38.2984 32.1096C38.4787 32.1772 38.7291 31.9519 38.8618 31.6039C38.9945 31.2534 38.9569 30.9154 38.7766 30.8478Z" fill="white"/>
<path d="M41.4486 26.6609C41.3309 26.6158 41.2082 26.5858 41.0831 26.5733C39.7486 26.418 38.1538 27.9578 37.2901 30.2335C36.3312 32.7572 36.6567 35.1431 38.0312 35.6663C38.1488 35.7114 38.2715 35.7415 38.3967 35.754C39.7311 35.9092 41.3259 34.3695 42.1896 32.0937C43.146 29.5675 42.8206 27.1816 41.4486 26.6609ZM41.6488 31.8884C40.8452 34.0039 39.2705 35.5186 38.2365 35.1256C37.2025 34.7325 37.0172 32.5869 37.8308 30.4388C38.5769 28.471 39.9764 27.0264 41.0154 27.1466C41.0931 27.1566 41.1707 27.1741 41.2433 27.2017C42.2773 27.5947 42.4625 29.7403 41.6488 31.8884Z" fill="#00004C"/>
<path d="M78.5621 17.6572C82.2424 11.2154 75.4276 3.94994 67.7841 11.3832C70.3628 0.507474 59.0715 -3.92393 55.2234 5.69495C51.3754 -0.579102 41.3384 -1.41528 37.6581 3.51934C33.9778 8.45396 34.7314 19.58 49.9533 20.2485C57.8973 16.8436 71.2791 18.2005 80.5649 32.8591C87.6802 28.1974 87.5125 16.2352 78.5621 17.6572Z" fill="#D30B1F"/>
<path d="M44.7663 16.8185C52.7954 16.8185 60.827 13.4737 68.856 18.8264C70.8639 20.1658 73.5403 19.4948 75.5482 18.8264C75.5482 20.8343 76.2167 23.5106 77.5561 24.8501C79.564 26.1895 82.2404 26.1895 82.9088 24.1816C83.2944 22.6369 84.1256 20.644 83.8577 18.9791C82.691 17.8525 80.9385 17.2792 78.5575 17.6572C82.2378 11.2154 75.423 3.94994 67.7795 11.3832C70.3582 0.507474 59.0669 -3.92393 55.2189 5.69495C51.3708 -0.579102 41.3339 -1.41528 37.6536 3.51934C35.851 5.93783 35.1174 9.84095 36.6246 13.2734C38.7126 15.792 41.9072 16.8185 44.7663 16.8185Z" fill="#ED1B26"/>
<path d="M56.5645 5.62242C58.0466 1.30369 64.7313 -0.341178 66.9595 5.62242C64.5034 1.54154 59.719 1.32873 56.5645 5.62242Z" fill="#FF9791"/>
<path d="M36.7422 9.86077C37.0351 3.33637 43.3643 -0.957275 50.6173 2.77811C47.0546 1.49376 38.8953 2.25981 36.7422 9.86077Z" fill="#FF9791"/>
<path d="M79.1522 17.2498C80.2062 15.0391 80.1862 12.6382 79.0721 10.7204C78.0381 8.93785 76.2555 7.91386 74.1875 7.91386C72.2748 7.91386 70.2594 8.78764 68.3141 10.4525C68.8299 7.35558 68.2615 4.59408 66.6792 2.59369C65.4124 0.99138 63.5948 0.0700626 61.6971 0.0700626C58.9907 0.0700626 56.5821 1.90025 55.1601 4.99721C53.007 1.94281 49.0914 0 44.993 0C41.7358 0 38.9642 1.2117 37.3869 3.32725C35.6019 5.7207 34.6155 9.84916 36.4306 13.6772C38.4059 17.8407 43.2029 20.2942 49.9351 20.5921L50.0126 20.5947L50.0828 20.5646C52.4136 19.5657 55.095 19.0374 57.8415 19.0374C62.9063 19.0374 72.5577 20.8575 80.2788 33.0451L80.4616 33.3331L80.7445 33.1453C85.1434 30.2611 86.6755 24.8683 85.614 21.3207C84.7678 18.4641 82.3944 16.9469 79.1522 17.2498ZM80.6619 32.3967C72.798 20.1991 63.0064 18.3665 57.844 18.3665C55.0349 18.3665 52.2885 18.9022 49.8925 19.9162C41.6507 19.5331 38.3534 16.1583 37.039 13.3868C35.3516 9.82914 36.3155 5.88348 37.9253 3.72287C39.3749 1.78007 41.951 0.665938 44.9954 0.665938C49.0963 0.665938 52.9995 2.70885 54.9398 5.87341L55.2878 6.44178L55.5357 5.82337C56.81 2.63878 59.1133 0.738522 61.6995 0.738522C63.3919 0.738522 65.0168 1.56473 66.1584 3.00681C67.7808 5.05977 68.244 8.00899 67.4604 11.3112L67.1949 12.4304L68.0187 11.6292C70.0666 9.63637 72.2022 8.58232 74.19 8.58232C76.0152 8.58232 77.5849 9.48364 78.4963 11.0559C79.5878 12.9361 79.5027 15.3421 78.2735 17.4977L77.928 18.1036L78.6164 17.9934C81.8486 17.4802 84.1644 18.772 84.9831 21.511C85.947 24.7481 84.585 29.6428 80.6619 32.3967Z" fill="#6D0014"/>
<path d="M43.8558 2.37738C43.0397 2.67281 42.3662 3.67419 42.3537 4.61305C42.3361 5.8273 43.9135 5.88494 43.9135 5.88494C43.8734 5.87493 42.9521 5.64959 42.9646 4.62061C42.9746 3.92961 43.4778 3.16597 44.0637 2.95317C45.2404 2.53006 46.1216 3.34873 46.1592 3.38378C46.1592 3.38378 45.3956 1.82158 43.8558 2.37738Z" fill="#6D0014"/>
<path d="M45.9847 14.3227C45.1686 14.6181 44.4951 15.6196 44.4826 16.5584C44.465 17.7727 46.0424 17.8303 46.0424 17.8303C46.0023 17.8202 45.081 17.5949 45.0935 16.5659C45.1035 15.8749 45.6067 15.1114 46.1926 14.8985C47.3693 14.4754 48.2505 15.2941 48.2881 15.3292C48.2881 15.3292 47.5245 13.7669 45.9847 14.3227Z" fill="#6D0014"/>
<path d="M51.1039 8.90082C50.2877 9.19624 49.6142 10.1977 49.6017 11.1366C49.5842 12.3508 51.1615 12.4084 51.1615 12.4084C51.1214 12.3984 50.2001 12.173 50.2126 11.144C50.2226 10.453 50.7259 9.68948 51.3117 9.47667C52.4884 9.05356 53.3697 9.87224 53.4072 9.90729C53.4072 9.90729 52.6436 8.34502 51.1039 8.90082Z" fill="#6D0014"/>
<path d="M73.429 14.5617C72.3049 15.0173 72.8633 16.4944 72.8633 16.4944C72.8558 16.4544 72.7055 15.5156 73.6594 15.13C74.3003 14.8696 75.1991 15.0374 75.6222 15.4955C76.4684 16.4144 76.0554 17.546 76.0379 17.5935C76.0379 17.5935 77.182 16.2841 76.0729 15.0799C75.482 14.444 74.2978 14.2111 73.429 14.5617Z" fill="#6D0014"/>
<path d="M79.7122 22.6883C78.5881 23.144 79.1465 24.6186 79.1465 24.6186C79.139 24.5786 78.9887 23.6397 79.9426 23.2542C80.5835 22.9938 81.4823 23.1615 81.9054 23.6197C82.7516 24.5385 82.3386 25.6702 82.3211 25.7178C82.3211 25.7178 83.4652 24.4084 82.3561 23.2041C81.7677 22.5682 80.5835 22.3353 79.7122 22.6883Z" fill="#6D0014"/>
<path d="M60.2789 5.22324C59.0772 5.39098 59.2599 6.95822 59.2599 6.95822C59.2624 6.91816 59.3451 5.97175 60.3641 5.82905C61.05 5.73391 61.8813 6.11448 62.1792 6.66277C62.775 7.76185 62.1016 8.75578 62.0715 8.79834C62.0715 8.79834 63.4986 7.80691 62.7175 6.36983C62.2994 5.60874 61.2078 5.09305 60.2789 5.22324Z" fill="#6D0014"/>
<path d="M59.0621 10.8505C58.2033 10.7354 57.1418 11.3137 56.6987 12.1399C56.1253 13.2089 57.4973 13.9875 57.4973 13.9875C57.4673 13.9625 56.7512 13.3366 57.2369 12.4303C57.5649 11.8194 58.3636 11.3738 58.982 11.4564C60.2213 11.6242 60.6244 12.7558 60.6419 12.8034C60.6419 12.8034 60.6819 11.0659 59.0621 10.8505Z" fill="#6D0014"/>
<path d="M49.7216 44.0859C44.7594 44.3088 31.2625 48.2119 28.4484 49.4387C26.9012 54.1655 24.0996 57.8884 21.5059 60.6474C24.9633 63.156 32.3791 64.7733 39.0162 63.156C45.6532 61.5386 48.2169 56.4638 49.3335 54.9016C54.5185 52.3379 56.3011 44.8671 49.7216 44.0859Z" fill="#F3820F"/>
<path d="M49.7216 44.0859C44.7594 44.3088 31.2625 48.2119 28.4484 49.4387C26.9012 54.1655 24.0996 57.8884 21.5059 60.6474C24.9633 63.156 30.1483 63.2962 36.7854 61.6788C43.4225 60.0615 46.3216 54.854 47.4357 53.2917C51.5342 52.1876 56.3011 44.8671 49.7216 44.0859Z" fill="#FFAF20"/>
<path d="M49.7084 43.7578C44.7537 43.9806 31.2268 47.8713 28.3151 49.1381L28.1773 49.1982L28.1298 49.3409C26.8529 53.2365 24.6072 56.8617 21.2623 60.4244L21.002 60.7023L21.3099 60.9251C24.0063 62.883 28.7531 64.1472 33.4023 64.1472C35.3852 64.1472 37.3005 63.9244 39.0931 63.4888C45.0817 62.0292 47.8331 57.8056 49.155 55.7752C49.3053 55.5449 49.438 55.3396 49.5556 55.1718C52.6701 53.592 54.7231 50.1921 54.2399 47.3906C54.0396 46.2089 53.1884 44.1659 49.7084 43.7578ZM49.1851 54.611L49.11 54.6485L49.0624 54.7162C48.9298 54.9014 48.777 55.1368 48.5993 55.4097C47.3249 57.3675 44.6686 61.4433 38.9403 62.8378C37.1978 63.2634 35.3377 63.4788 33.4074 63.4788C29.0661 63.4788 24.6547 62.3572 22.0184 60.5997C25.2481 57.0996 27.4438 53.5269 28.7231 49.6939C31.8677 48.382 44.919 44.6416 49.6883 44.4238C51.9065 44.6867 53.291 45.7807 53.5889 47.5032C54.0221 50.0519 52.0918 53.1739 49.1851 54.611Z" fill="#BA4C00"/>
<path d="M42.8925 45.2422C37.9303 45.465 31.2707 48.214 28.4542 49.4407C26.9069 54.1676 24.1055 57.8905 21.5117 60.6495C25.6953 62.1541 31.6613 61.0951 36.1778 58.6966C43.0502 55.0489 45.1558 50.2194 46.2724 48.6597C45.7717 46.8195 44.2645 45.2422 42.8925 45.2422Z" fill="#FFAF20"/>
<path d="M42.8766 44.9141C38.4002 45.1144 32.4917 47.3226 28.3207 49.1402L28.1829 49.2003L28.1354 49.343C26.8585 53.2386 24.6128 56.8638 21.2679 60.4265L20.9199 60.797L21.3981 60.9697C22.72 61.4454 24.2473 61.6883 25.9322 61.6883C29.3246 61.6883 33.115 60.7094 36.3347 58.9994C42.2182 55.8774 44.6442 51.9192 45.9485 49.7911C46.1789 49.413 46.3742 49.0976 46.5419 48.8598L46.6345 48.7296L46.5919 48.5769C46.0436 46.5565 44.3838 44.9141 42.8766 44.9141ZM45.3802 49.4406C44.1084 51.5136 41.745 55.3692 36.0217 58.4086C32.8972 60.0685 29.2194 61.0198 25.9347 61.0198C24.5302 61.0198 23.2483 60.8446 22.1117 60.5016C25.2913 57.0316 27.4569 53.4914 28.7262 49.6934C34.5721 47.1573 39.4742 45.7377 42.8916 45.5825C44.0458 45.5825 45.4003 46.952 45.906 48.6044C45.7508 48.8347 45.578 49.1152 45.3802 49.4406Z" fill="#BA4C00"/>
<path d="M30.7131 49.5719C29.7092 53.0294 27.0879 57.5459 24.2988 59.8317C31.3815 59.6089 40.6174 54.7569 42.4951 49.5719C41.2508 47.3963 34.3934 48.0648 30.7131 49.5719Z" fill="#8E1000"/>
<path d="M35.6588 48.3453C33.3254 49.6922 31.5253 51.8753 30.7141 54.3114C30.4212 55.776 30.3836 57.2406 30.7166 58.5925C36.0843 56.7899 41.1592 53.2673 42.4986 49.572C41.7125 48.2 38.7007 47.9597 35.6588 48.3453Z" fill="#FF948E"/>
<path d="M38.1361 47.8516C37.3474 47.8516 36.4987 47.9091 35.6174 48.0193L35.4923 48.0618C33.0963 49.4438 31.2386 51.6846 30.3849 54.2508C30.0619 55.8606 30.0645 57.3503 30.3924 58.6772L30.4775 59.0302L30.823 58.915C35.7226 57.2702 41.3307 53.7801 42.8128 49.6917L42.8654 49.5465L42.7878 49.4113C42.0517 48.1219 39.851 47.8516 38.1361 47.8516ZM30.9632 58.1589C30.7429 57.0198 30.7679 55.7529 31.0308 54.421C31.8144 52.0701 33.5395 49.9771 35.7677 48.6728C36.5964 48.5701 37.3925 48.5175 38.1335 48.5175C40.159 48.5175 41.596 48.9155 42.1243 49.6141C40.8524 52.8587 36.4211 56.2487 30.9632 58.1589Z" fill="#C65654"/>
<path d="M38.1325 47.8516C35.6515 47.8516 32.6922 48.4074 30.5867 49.2686L30.4364 49.3287L30.3914 49.4839C29.4826 52.6185 26.964 57.2226 24.0873 59.5785L23.3262 60.2019L24.3101 60.1718C31.0473 59.959 40.8014 55.2372 42.8118 49.6917L42.8644 49.5465L42.7868 49.4113C42.0507 48.1219 39.85 47.8516 38.1325 47.8516ZM25.244 59.4483C27.8853 56.9196 30.0759 52.8538 30.9897 49.8294C32.9826 49.0458 35.8267 48.5225 38.1325 48.5225C40.1605 48.5225 41.5975 48.9206 42.1258 49.6191C40.3232 54.1982 32.2416 58.8524 25.244 59.4483Z" fill="#BA4C00"/>
<path d="M47.7756 40.1944C47.3149 38.144 46.2709 34.5488 42.8409 33.5448C39.411 32.5409 37.348 34.7165 32.7739 34.8843C28.2023 35.052 22.1235 32.5985 16.2676 37.0023C10.4116 41.4087 7.95807 46.511 8.62654 52.2668C15.2761 46.2707 21.1747 50.274 29.2038 51.696C37.2329 53.1181 44.2805 51.7186 47.9958 49.27L50.2491 44.1652C48.5741 43.5993 48.2362 42.2449 47.7756 40.1944Z" fill="#F3820F"/>
<path d="M47.7731 40.1944C47.3124 38.144 46.2684 34.5488 42.8384 33.5448C39.4085 32.5409 37.3455 34.7165 32.7714 34.8843C28.1998 35.052 22.121 32.5985 16.2651 37.0023C10.7521 41.1508 8.25605 45.9177 8.54146 51.2654C12.5873 41.5213 24.4244 47.0644 32.0454 49.6055C37.7511 51.5083 43.4569 49.8058 48.5943 47.9131L50.2491 44.1652C48.5717 43.5993 48.2337 42.2449 47.7731 40.1944Z" fill="#FFAF20"/>
<path d="M11.3906 44.0849C13.8992 40.4046 17.4844 36.7194 22.1261 35.748C26.7678 34.7766 32.5287 37.4104 37.9665 34.9844C33.8381 38.2866 27.9821 36.2236 24.2467 36.4464C20.5088 36.6668 15.7119 39.3431 11.3906 44.0849Z" fill="#FFF0C1"/>
<path d="M48.1026 40.1292C47.7822 38.7047 46.8083 34.3659 42.9352 33.2318C40.8998 32.6359 39.3425 33.1016 37.5374 33.6398C36.2105 34.0354 34.7084 34.4861 32.7631 34.5562C31.5763 34.6012 30.2719 34.461 28.8924 34.3158C24.9467 33.8977 20.4753 33.4246 16.0665 36.7419C10.2205 41.1407 7.60674 46.3782 8.29524 52.3118L8.37034 52.9552L8.85108 52.5195C13.7932 48.0631 18.1845 49.2499 23.7426 50.7496C25.46 51.2127 27.2351 51.6934 29.1453 52.0314C34.6708 53.0103 40.2864 52.6948 44.535 51.2753C45.9095 50.8146 47.8147 48.997 47.8147 48.997C44.6902 51.055 37.9555 52.9127 29.2655 51.3729C27.3828 51.04 25.6202 50.5642 23.9203 50.1036C18.5701 48.659 13.9234 47.4022 8.90112 51.5932C8.49804 46.1754 11.0417 41.361 16.4696 37.2751C20.6681 34.1155 25.0018 34.5737 28.8224 34.9793C30.2269 35.1295 31.5538 35.2697 32.7856 35.2221C34.816 35.147 36.3632 34.6864 37.7277 34.2783C39.5003 33.75 40.8998 33.3294 42.7449 33.8702C45.877 34.7865 46.9285 37.9636 47.4492 40.2719C47.8974 42.2698 48.2504 43.8471 50.1431 44.4855L50.3584 43.8521C48.8913 43.3589 48.5758 42.2373 48.1026 40.1292Z" fill="#BA4C00"/>
<path d="M38.8806 39.2422C37.9117 39.2422 37.123 39.7279 37.123 40.3287C37.123 40.9296 37.9092 41.4154 38.8806 41.4154C39.852 41.4154 40.6381 40.9271 40.6381 40.3287C40.6381 39.7304 39.8495 39.2422 38.8806 39.2422Z" fill="#DF7B00"/>
<path d="M38.8816 38.9141C37.7099 38.9141 36.791 39.5399 36.791 40.3361C36.791 41.1347 37.7099 41.7582 38.8816 41.7582C40.0533 41.7582 40.9721 41.1347 40.9721 40.3361C40.9721 39.5399 40.0533 38.9141 38.8816 38.9141ZM38.8816 41.0897C38.0429 41.0897 37.4595 40.6941 37.4595 40.3361C37.4595 39.9806 38.0429 39.5825 38.8816 39.5825C39.7203 39.5825 40.3036 39.9781 40.3036 40.3361C40.3036 40.6941 39.7203 41.0897 38.8816 41.0897Z" fill="#BA4C00"/>
</svg>
