<svg width="288" height="159" viewBox="0 0 288 159" fill="none" xmlns="http://www.w3.org/2000/svg">
<path d="M82.9238 64.6614C87.3167 56.7021 96.3709 48.7798 103.422 43.0938C103.989 44.0611 105.019 44.7188 105.89 45.3975L101.579 48.5592L101.593 48.6619L101.025 49.1905L100.892 49.2682C99.2235 50.5064 97.6749 51.8597 96.1444 53.2632C95.7785 53.132 95.1149 52.7739 94.764 52.9011C95.0051 53.2548 95.2556 53.5612 95.5531 53.8689C93.6348 55.7878 90.8965 58.2595 89.9521 60.8434C88.385 61.8558 84.6796 64.6503 82.9238 64.6614Z" fill="#F73720"/>
<path d="M100.892 49.2625C100.339 48.9245 99.1808 48.3622 99.0195 47.6975L99.3263 47.5859C100.149 47.6669 100.871 48.1553 101.578 48.5535L101.593 48.6562L101.024 49.1848L100.892 49.2625Z" fill="#E60E0B"/>
<path d="M280.156 73.4142C281.956 72.5699 283.369 70.9264 284.59 69.4062C286.452 70.448 287.636 72.1582 286.314 74.1757C284.498 76.9459 277.348 81.0807 274.076 81.7009C276.45 81.7619 287.326 80.3709 287.087 83.85C287.049 84.5763 286.439 85.8662 285.862 86.3233C285.714 86.4401 285.547 86.5204 285.381 86.6049C280.965 86.2886 276.459 86.1806 272.249 84.6519C270.453 83.9998 268.835 82.9271 267.016 82.338C269.145 81.6061 279.423 74.8057 280.156 73.4142Z" fill="#C60A08"/>
<path d="M49.2362 63.8516C51.4339 65.7102 53.6478 67.2567 56.1907 68.606L53.8484 74.4937C53.6942 75.3172 53.5097 76.1458 53.3908 76.9745C52.7034 82.8733 52.9505 88.1985 56.3413 93.313C53.5757 94.7272 51.2761 96.3127 48.9258 98.3425C47.8083 96.9817 46.9151 95.4326 46.0447 93.9078L45.4807 92.7809C45.1534 92.0253 44.8538 91.255 44.5422 90.4923L44.2002 89.3708C43.8436 88.4761 43.6397 87.4972 43.3919 86.5665L43.1659 85.3644C43.0772 84.5278 42.9951 83.692 42.8725 82.8595L42.8372 82.3248C42.7871 81.091 42.7948 79.8989 42.9724 78.6748L43.0551 77.5961C43.2425 76.8968 43.3126 76.1111 43.435 75.3934L43.8344 74.0587C44.0366 73.3185 44.3057 72.5837 44.5411 71.8523L45.0431 70.711C45.3545 70.1473 45.5834 69.5477 45.8266 68.9525L46.5136 67.6539C47.3692 66.3513 48.3938 65.1679 49.2362 63.8516Z" fill="#C60A08"/>
<path d="M143.146 127.734C145.146 128.226 147.153 128.795 149.186 129.126L150.105 129.365C153.127 130.007 156.202 130.357 159.234 130.978C158.108 131.987 156.916 133.18 155.632 133.983C142.409 144.213 123.223 148.311 107.1 143.607C112.245 140.505 116.393 136.434 120.217 131.833C122.631 132.492 124.995 133.465 127.426 134.023C125.474 135.837 123.475 137.506 121.462 139.247L121.512 139.375C123.438 138.557 126.784 135.761 128.359 134.27C130.709 134.543 132.973 135.223 135.295 135.653C133.774 137.582 132.16 139.044 130.268 140.608C132.464 139.607 134.724 137.575 136.289 135.75L136.426 135.714C138.033 133.141 141.91 130.088 143.146 127.734Z" fill="#F73720"/>
<path d="M150.106 129.367C153.128 130.009 156.203 130.359 159.235 130.98C158.108 131.988 156.917 133.182 155.633 133.985C154.293 134.09 152.916 134.482 151.6 134.754C149.283 135.233 146.998 135.665 144.646 135.933C146.137 134.519 149.461 131.323 150.106 129.367Z" fill="#C60A08"/>
<path d="M143.146 127.734C145.145 128.226 147.153 128.795 149.186 129.126L150.105 129.365C149.46 131.321 146.137 134.517 144.646 135.931L144.243 136.112C143.292 137.088 142.386 138.029 141.284 138.842L143.657 136.017C141.194 136.058 138.859 136.149 136.426 135.714C138.033 133.141 141.91 130.088 143.146 127.734Z" fill="#C60A08"/>
<path d="M149.187 129.125L150.106 129.365C149.461 131.32 146.138 134.517 144.647 135.93L144.244 136.111C144.43 134.923 148.223 130.017 149.187 129.125Z" fill="#A30000"/>
<path d="M234.423 43.2891C242.267 44.941 281.079 63.5091 284.589 69.4026C283.368 70.9229 281.954 72.5663 280.154 73.4106L280.057 73.1598C277.317 71.8643 274.736 69.9394 272.078 68.4363C265.85 64.9149 259.324 61.632 252.648 59.0481C247.425 57.0142 242.108 55.261 236.698 53.7885C234.472 53.1767 227.549 51.7165 225.922 50.8881C227.652 49.7874 229.015 47.7963 230.584 46.4415C231.708 45.4721 233.06 44.8396 234.161 43.9163C234.434 43.6878 234.398 43.6288 234.423 43.2891Z" fill="#FC5B46"/>
<path d="M45.48 92.7891L46.0441 93.9159C46.9145 95.4407 47.8076 96.99 48.9252 98.3506C46.5342 101.009 44.5342 103.982 42.1295 106.617C34.0578 115.464 23.4486 122.288 11.2391 122.923C7.51925 123.135 3.7591 122.595 0.25 121.343C0.864376 120.096 1.51539 118.87 2.2033 117.663C2.51641 117.048 2.88479 116.457 3.23293 115.862C5.46788 116.708 8.86249 115.307 11.0775 114.63C24.2847 110.504 35.1462 101.663 45.48 92.7891Z" fill="#F73720"/>
<path d="M45.4799 92.7891L46.0439 93.9159C33.7336 104.68 19.2808 116.721 2.20312 117.663C2.51623 117.048 2.88461 116.457 3.23276 115.862C5.46771 116.708 8.86232 115.307 11.0773 114.63C24.2845 110.504 35.146 101.663 45.4799 92.7891Z" fill="#FC5B46"/>
<path d="M142.955 0C149.301 0.612402 155.284 2.95061 160.997 5.69408C170.235 10.2366 178.498 16.7429 185.081 24.6577C184.16 24.8967 180.326 23.4491 178.939 23.2344L178.099 23.1099C176.581 22.6817 173.712 22.9743 172.069 23.0271L171.989 22.9952L170.871 23.0206L170.673 22.932C168.679 23.2329 166.648 23.5568 164.626 23.4804L163.852 23.545C161.939 23.8672 159.938 24.0723 158.059 24.5409L157.839 24.6088L156.619 24.7603L156.473 24.683C153.962 20.4384 149.847 16.1158 146.519 12.4405L146.527 12.0736C146.361 7.47861 145.307 3.94903 142.955 0Z" fill="#F73720"/>
<path d="M146.528 12.0703C147.857 12.1382 149.314 14.061 150.169 15.0098C151.603 16.5967 152.983 18.2296 154.309 19.9085C155.44 21.3569 156.633 23.4131 158.06 24.5377L157.839 24.6057L156.619 24.7572L156.474 24.6798C153.962 20.4352 149.848 16.1126 146.52 12.4373L146.528 12.0703Z" fill="#E60E0B"/>
<path d="M170.674 22.9307C167.577 18.8083 164.089 14.8665 160.561 11.1049C158.983 9.42261 153.929 4.79579 153.027 3.15943C153.584 3.08997 153.815 3.35953 154.244 3.69287C160.167 9.04473 167.801 16.1853 171.989 22.994L170.872 23.0194L170.674 22.9307Z" fill="#E60E0B"/>
<path d="M78.2363 95.9375C82.0853 98.3384 85.5663 101.347 89.3944 103.801C91.1048 104.989 92.959 106.462 94.9293 107.183L95.422 107.609C97.6653 108.836 99.8947 110.147 102.117 111.415C103.888 112.37 105.684 113.316 107.499 114.184L108.407 114.691C110.411 115.63 112.577 116.868 114.7 117.474L115.474 117.928C117.088 118.671 118.761 119.549 120.452 120.085L121.6 120.565C123.971 121.501 126.382 122.382 128.76 123.303C130.92 124.16 133.563 125.475 135.888 125.603L136.309 125.861C137.924 126.348 140.819 127.499 142.408 127.432L143.146 127.734C141.91 130.087 138.034 133.14 136.426 135.713L136.289 135.749C134.724 137.574 132.463 139.606 130.268 140.607C132.16 139.043 133.773 137.581 135.295 135.653C132.973 135.222 130.709 134.543 128.359 134.27C126.784 135.76 123.438 138.556 121.512 139.374L121.462 139.246C123.475 137.506 125.473 135.837 127.426 134.023C124.995 133.464 122.631 132.491 120.216 131.832L119.24 131.537C113.782 130.005 103.623 124.023 98.7583 120.746C89.0085 114 83.0233 106.745 78.2363 95.9375Z" fill="#C60A08"/>
<path d="M95.4206 107.605C95.0648 108.422 93.7757 109.647 92.9199 108.811L92.944 108.432C93.3908 107.766 94.2052 107.459 94.9279 107.18L95.4206 107.605Z" fill="#A30000"/>
<path d="M88.5745 103.25L89.3948 103.799C88.3962 105.23 85.5579 105.959 83.9395 106.576C85.4644 105.484 86.9332 104.154 88.5745 103.25Z" fill="#A30000"/>
<path d="M107.5 114.188L108.408 114.695C107.637 115.706 106.61 116.602 105.51 117.239C104.988 117.542 104.426 117.864 103.824 117.703L103.963 117.803C103.967 117.695 103.943 117.396 103.982 117.311C104.269 116.689 106.822 114.821 107.5 114.188Z" fill="#A30000"/>
<path d="M115.473 117.93C114.841 119.153 110.919 121.909 109.637 122.283L109.49 122.161C110.136 120.696 113.221 117.874 114.699 117.477L115.473 117.93Z" fill="#A30000"/>
<path d="M142.409 127.438L143.148 127.739C141.911 130.093 138.035 133.145 136.427 135.719L136.29 135.754L135.839 135.603L135.775 135.357C136.345 134.424 141.602 128.065 142.409 127.438Z" fill="#A30000"/>
<path d="M101.023 110.789L102.119 111.412C100.871 113.14 95.5363 115.738 93.4512 116.272C94.8941 115.016 96.5432 114.032 98.1067 112.938C99.0997 112.243 100.007 111.458 101.023 110.789Z" fill="#A30000"/>
<path d="M135.89 125.602L136.311 125.86C135.155 128.457 129.938 133.152 127.395 134.577C128.675 132.545 130.634 131.005 132.311 129.315C133.523 128.093 134.643 126.791 135.89 125.602Z" fill="#A30000"/>
<path d="M127.753 122.906L128.76 123.299C127.73 125.48 122.105 130.358 119.703 131.061C121.06 129.316 123.041 127.806 124.725 126.377C125.91 125.406 126.832 124.119 127.753 122.906Z" fill="#A30000"/>
<path d="M120.452 120.086L121.601 120.565C120.897 121.958 119.585 122.861 118.456 123.884C116.632 125.537 114.555 126.909 112.32 127.94C112.859 127.389 113.38 126.88 114.01 126.433C116.412 124.52 118.421 122.385 120.452 120.086Z" fill="#A30000"/>
<path d="M180.436 132.151C188.669 132.149 196.933 131.448 205.02 129.872C206.729 129.551 214.095 127.543 215.211 127.767C215.331 128.661 214.551 129.835 214.028 130.52C213.673 130.982 213.351 131.371 212.8 131.599C212.952 132.618 212.126 133.656 211.541 134.445C201.15 147.642 188.848 155.61 172.132 158.36C170.844 158.544 169.585 158.564 168.287 158.511C169.308 155.68 170.799 153.083 172.224 150.443C175.155 144.497 177.753 138.4 180.021 132.175L180.436 132.151Z" fill="#A30000"/>
<path d="M186.951 132.125L187.179 132.343C187.476 134.109 185.208 138.972 184.514 140.783L184.333 140.6C184.069 139.158 186.246 133.532 186.951 132.125Z" fill="#880000"/>
<path d="M196.476 138.836C196.975 137.391 198.532 131.763 199.529 131.148C199.863 133.199 197.239 139.712 195.874 141.335C195.801 141.281 195.699 141.228 195.648 141.151L196.476 138.836Z" fill="#880000"/>
<path d="M202.99 137.608C204.503 136.042 204.613 133.018 206.542 131.89C207.932 131.077 210.682 131.239 212.197 131.609C211.483 132.14 210.678 132.536 209.945 133.048C208.439 134.102 204.638 137.455 202.99 137.608Z" fill="#C60A08"/>
<path d="M180.02 132.18L180.435 132.156C179.429 135.345 178.917 138.675 177.854 141.851C176.894 144.722 174.983 147.363 174.46 150.361C174.622 150.633 174.65 150.654 174.934 150.795C173.963 152.684 172.973 154.489 171.658 156.165C172.16 154.688 173.807 152.314 173.915 150.954C173.308 150.871 172.737 150.81 172.223 150.449C175.154 144.503 177.752 138.405 180.02 132.18Z" fill="#C60A08"/>
<path d="M190.96 139.442C192.811 139.052 194.584 138.853 196.477 138.844L195.648 141.159C195.269 141.742 194.783 142.652 195.165 143.336C194.856 144.154 194.434 144.904 194.013 145.668L194.634 143.365C192.742 144.582 190.741 146.089 188.545 146.684C189.125 144.224 190.114 141.822 190.96 139.442Z" fill="#C60A08"/>
<path d="M184.704 140.693C186.502 140.608 188.302 140.22 190.075 139.914C189.56 141.366 187.625 145.382 188.029 146.687L188.398 146.832C187.883 147.846 187.405 148.916 186.792 149.874L187.765 147.057L181.6 149.272C182.75 146.469 183.751 143.569 184.704 140.693Z" fill="#C60A08"/>
<path d="M179.081 140.93C180.717 141.169 182.225 141.051 183.851 140.852C183.263 142.916 180.886 147.312 181.075 149.14L181.45 149.38C180.87 150.952 179.955 152.343 179.054 153.744C179.466 152.231 180.158 150.791 180.783 149.354C178.867 149.769 176.898 150.07 175.023 150.644C175.859 147.829 177.864 143.805 179.081 140.93Z" fill="#C60A08"/>
<path d="M212.198 131.608L212.8 131.602C212.952 132.621 212.126 133.658 211.541 134.447C201.15 147.645 188.848 155.613 172.132 158.362C170.844 158.547 169.585 158.566 168.287 158.513C169.308 155.683 170.799 153.086 172.224 150.446C172.738 150.807 173.309 150.868 173.916 150.951C173.808 152.311 172.161 154.685 171.659 156.162C172.974 154.486 173.965 152.681 174.936 150.792L175.025 150.646C176.899 150.071 178.868 149.771 180.784 149.356C180.16 150.792 179.468 152.232 179.055 153.746C179.956 152.345 180.872 150.953 181.452 149.381L181.602 149.267L187.767 147.052L186.794 149.869C187.407 148.911 187.885 147.841 188.4 146.826L188.547 146.677C190.743 146.081 192.744 144.575 194.636 143.358L194.015 145.66C194.436 144.897 194.858 144.147 195.167 143.329C196.867 141.208 202.778 139.561 202.992 137.608C204.639 137.454 208.44 134.101 209.946 133.047C210.679 132.535 211.484 132.139 212.198 131.608Z" fill="#F73720"/>
<path d="M21.6227 77.0272C23.5203 76.4228 36.363 78.262 39.3764 78.6039C40.1156 78.6878 41.8904 79.0944 42.5712 78.9214C42.7192 78.8836 42.8735 78.7936 42.9713 78.6795C42.7937 79.9036 42.786 81.0957 42.8361 82.3295L42.8714 82.8642C42.9942 83.6968 43.0761 84.5325 43.1648 85.369L43.3908 86.5711C43.6386 87.5017 43.8424 88.4808 44.1991 89.3754L44.5411 90.497C44.8527 91.2597 45.1522 92.0298 45.4795 92.7856C35.1463 101.659 24.2836 110.5 11.0768 114.627C8.86309 115.305 5.46243 116.705 3.23242 115.858C5.15142 112.504 7.08979 109.162 9.04778 105.831C9.41467 105.164 9.82352 104.525 10.2287 103.881C11.8056 100.988 13.5805 98.1977 15.3361 95.4104C16.1027 94.0347 20.3898 86.9694 21.2653 85.4702L21.9636 83.758C22.6935 81.2843 22.5173 79.4369 21.6227 77.0272Z" fill="#F73720"/>
<path d="M10.2279 103.881C11.1778 104.66 14.1208 103.313 15.2601 102.962C21.4586 100.893 27.1874 98.4864 32.985 95.5015C36.5384 93.6719 40.363 90.3364 44.1982 89.375L44.5402 90.4966C34.1893 96.3756 20.9389 104.434 9.04688 105.83C9.4139 105.164 9.82262 104.524 10.2279 103.881Z" fill="#FC5B46"/>
<path d="M16.529 93.3869C18.7236 93.4651 20.8724 92.7446 22.9603 92.1477C26.0718 91.2578 29.2042 90.3276 32.2409 89.2052C35.9019 87.8518 39.3543 86.3036 43.1645 85.3672L43.3905 86.5693C43.6384 87.4999 43.8422 88.4789 44.1988 89.3736C40.3637 90.335 36.539 93.6706 32.9856 95.5001C27.188 98.485 21.4593 100.892 15.2607 102.961C14.1196 103.312 11.1814 104.658 10.2285 103.879C11.8054 100.986 13.5803 98.1957 15.336 95.4084C15.6944 94.7191 16.1305 94.0549 16.529 93.3869Z" fill="#F73720"/>
<path d="M16.529 93.3869C18.7236 93.4651 20.8725 92.7446 22.9604 92.1477C26.0719 91.2578 29.2043 90.3276 32.241 89.2052C35.902 87.8518 39.3543 86.3036 43.1646 85.3672L43.3906 86.5693C34.3252 90.1701 24.8639 93.3105 15.3359 95.4084C15.6944 94.7191 16.1306 94.0549 16.529 93.3869Z" fill="#FC5B46"/>
<path d="M21.6209 77.0272C23.5184 76.4228 36.3611 78.262 39.3745 78.6039C40.1137 78.6878 41.8885 79.0944 42.5694 78.9214C42.7173 78.8836 42.8716 78.7936 42.9694 78.6795C42.7918 79.9036 42.7841 81.0957 42.8342 82.3295L42.8695 82.8642C42.9923 83.6968 43.0742 84.5325 43.1629 85.369C39.3526 86.3053 35.9002 87.8537 32.2393 89.207C29.2027 90.3294 26.0702 91.2597 22.9587 92.1495C20.8708 92.7465 18.7218 93.467 16.5273 93.3887L21.2636 85.4701L21.9619 83.7579C22.6916 81.2843 22.5154 79.4369 21.6209 77.0272Z" fill="#F73720"/>
<path d="M21.9639 83.7574C24.9118 84.7662 38.4786 81.679 42.423 81.3828C42.7386 81.5808 42.7462 81.9747 42.8364 82.3291L42.8717 82.8637C38.133 83.8224 33.3645 84.3466 28.5541 84.7811C26.2178 84.9922 23.5361 84.9438 21.2656 85.4696L21.9639 83.7574Z" fill="#FC5B46"/>
<path d="M21.6211 77.0272C23.5186 76.4228 36.3613 78.262 39.3747 78.6039C40.1139 78.6878 41.8887 79.0944 42.5696 78.9214C42.7175 78.8836 42.8718 78.7936 42.9697 78.6795C42.792 79.9036 42.7844 81.0957 42.8345 82.3295C42.7443 81.9752 42.7366 81.5813 42.4211 81.3832C38.4768 81.6795 24.91 84.7666 21.962 83.7579C22.6918 81.2843 22.5156 79.4369 21.6211 77.0272Z" fill="#F73720"/>
<path d="M0 39.5092C17.095 35.6736 33.3193 44.0873 43.8536 57.4251C45.6084 59.5828 47.1941 61.9541 49.2347 63.8559C48.3922 65.1723 47.3677 66.3555 46.512 67.6584L45.8249 68.9569C45.5818 69.5523 45.3528 70.1519 45.0414 70.7154L44.5394 71.8567C44.304 72.5881 44.035 73.3228 43.8328 74.0632L43.4333 75.3979C43.311 76.1155 43.2409 76.9013 43.0535 77.6005L42.9708 78.6793C42.873 78.7934 42.7185 78.8833 42.5707 78.9212C41.8898 79.0942 40.1151 78.6875 39.3758 78.6036C36.3624 78.2618 23.5197 76.4226 21.6222 77.027L20.6659 75.284C19.1521 72.6545 17.6249 70.0329 16.0844 67.4188C13.7117 63.681 11.4828 59.8428 9.31212 55.9818C8.94213 55.4219 8.63125 54.7977 8.29852 54.2133C6.95281 51.514 5.25464 48.8519 3.72537 46.2475C3.34342 45.7314 3.05609 45.1451 2.74865 44.5824C1.85793 42.8775 0.941797 41.1864 0 39.5092Z" fill="#F73720"/>
<path d="M2.75 44.5781C21.0587 45.6374 33.3444 56.318 46.5133 67.654L45.8263 68.9526C36.0577 59.8218 25.1249 51.3925 12.134 47.5334C9.52294 46.7321 6.46599 45.9439 3.72658 46.2431C3.34476 45.7272 3.05743 45.1409 2.75 44.5781Z" fill="#FC5B46"/>
<path d="M3.72461 46.2524C6.46401 45.9532 9.52096 46.7414 12.1321 47.5425C25.123 51.4019 36.0555 59.8309 45.8242 68.9618C45.581 69.5572 45.352 70.1568 45.0407 70.7203L44.5387 71.8616C35.3063 66.2734 25.9047 60.8829 15.5903 57.5248C13.6967 56.8892 11.327 55.9351 9.31136 55.9866C8.94138 55.4268 8.63049 54.8025 8.29776 54.2182C6.95206 51.5188 5.25389 48.8568 3.72461 46.2524Z" fill="#F73720"/>
<path d="M8.29688 54.2109C21.9878 57.2374 33.4499 63.0447 45.0398 70.7131L44.5378 71.8544C35.3054 66.2661 25.9038 60.8757 15.5894 57.5176C13.6959 56.882 11.3261 55.9279 9.31047 55.9794C8.94061 55.4196 8.6296 54.7953 8.29688 54.2109Z" fill="#FC5B46"/>
<path d="M9.3125 55.9786C11.3281 55.927 13.6979 56.881 15.5916 57.5165C25.9058 60.8747 35.3076 66.2653 44.5399 71.8534C44.3046 72.5847 44.0355 73.3195 43.8333 74.0599L43.4338 75.3946C43.3116 76.1122 43.2414 76.8979 43.054 77.5972L42.9713 78.6759C42.8735 78.7901 42.719 78.88 42.5712 78.9179C41.8904 79.0908 40.1156 78.6842 39.3763 78.6003C36.3629 78.2585 23.5203 76.4193 21.6227 77.0237L20.6664 75.2807C19.1526 72.6512 17.6255 70.0295 16.0849 67.4155C13.7121 63.6776 11.4832 59.8395 9.3125 55.9786Z" fill="#F73720"/>
<path d="M14.7559 65.2656C24.6091 67.5521 34.3679 70.4633 43.8329 74.0561L43.4334 75.3909C38.961 74.5072 34.5928 72.5439 30.3201 70.9952C26.8906 69.7522 23.3918 68.7654 19.8667 67.8356C19.0423 67.618 17.4223 67.0223 16.6024 67.1809C16.4486 67.2107 16.2333 67.3455 16.0844 67.4119C15.5954 66.7326 15.1859 65.9836 14.7559 65.2656Z" fill="#FC5B46"/>
<path d="M16.084 67.4137C16.2329 67.3473 16.4482 67.2126 16.602 67.1828C17.4219 67.0241 19.0419 67.6199 19.8662 67.8375C23.3912 68.7672 26.8902 69.754 30.3196 70.9971C34.5924 72.5459 38.9606 74.509 43.433 75.3927C43.3107 76.1103 43.2405 76.8961 43.0531 77.5953L42.9705 78.6741C42.8726 78.7882 42.7182 78.8781 42.5704 78.916C41.8895 79.089 40.1147 78.6823 39.3755 78.5984C36.3621 78.2566 23.5194 76.4174 21.6219 77.0218L20.6655 75.2788C19.1517 72.6495 17.6245 70.0278 16.084 67.4137Z" fill="#F73720"/>
<path d="M20.666 75.2812C25.1811 75.742 29.6993 76.169 34.2207 76.5619C37.1113 76.8273 40.2207 76.9889 43.0536 77.5977L42.971 78.6765C42.8731 78.7906 42.7187 78.8805 42.5709 78.9184C41.89 79.0914 40.1152 78.6848 39.376 78.6009C36.3626 78.259 23.5199 76.4198 21.6224 77.0242L20.666 75.2812Z" fill="#FC5B46"/>
<path d="M146.519 12.4375C149.847 16.1128 153.961 20.4354 156.473 24.68L156.618 24.7573L157.838 24.6059L158.059 24.5379C159.938 24.0693 161.939 23.8642 163.852 23.542L164.625 23.4774C166.648 23.5536 168.679 23.2298 170.673 22.929L170.871 23.0176L171.989 22.9922L172.069 23.0241C173.712 22.9713 176.58 22.6787 178.098 23.1069L178.938 23.2314C180.326 23.4461 184.16 24.8937 185.08 24.6547C187.793 27.6369 190.018 31.2439 191.998 34.7424C190.226 34.6081 188.439 34.6404 186.663 34.5772L186.262 34.6415L179.5 34.5612L179.171 34.6092C177.091 34.5959 174.977 34.9791 172.919 34.9073L172.797 34.948C170.309 35.256 167.791 35.181 165.332 35.737C163.102 36.1279 158.676 36.1548 156.725 37.0561L155.918 37.0327C153.675 37.5623 151.386 37.906 149.137 38.4181L148.123 38.6227C146.092 39.0717 144.048 39.4904 142.03 39.993L140.876 40.2454C138.279 40.6987 135.771 41.6589 133.256 42.4284C131.249 42.9667 129.268 43.587 127.312 44.2894L126.497 44.5391C124.378 45.2517 122.219 45.9109 120.176 46.8218L119.495 47.0496C117.477 48.0094 114.86 48.4952 113.072 49.8133L112.245 50.0938C110.188 50.9981 108.126 51.8912 106.059 52.7728L105.82 52.844C103.831 53.7914 101.12 54.6729 99.4201 56.0613L98.7303 56.3412C95.8545 57.9673 92.9496 59.4499 89.9512 60.8364C90.8956 58.2524 93.6338 55.7807 95.5521 53.8619C95.2547 53.5543 95.0041 53.2477 94.763 52.894C95.1139 52.7669 95.7775 53.125 96.1434 53.2561C97.6739 51.8527 99.2226 50.4995 100.891 49.2612L101.024 49.1835L101.592 48.6548L101.578 48.5522L105.889 45.3905C105.018 44.7117 103.988 44.0541 103.421 43.0867L103.742 42.7694C107.573 40.1024 111.382 37.4753 115.385 35.0675L115.847 34.7703C118.111 33.7436 120.203 32.3714 122.428 31.2662C127.186 28.9031 131.976 27.2169 137.086 25.8002L138.515 25.3311C140.453 24.5581 141.829 23.3134 143.281 21.8623L143.721 21.2763C145.775 18.9767 146.27 15.4088 146.519 12.4375Z" fill="#C60A08"/>
<path d="M143.279 21.8672C144.353 22.9131 147.407 25.5932 147.67 26.9086C145.434 27.4587 143.122 28.4707 140.816 28.5793C140.432 27.6286 139.094 26.3719 138.514 25.3361C140.452 24.563 141.827 23.3184 143.279 21.8672Z" fill="#F73720"/>
<path d="M115.386 35.0703C116.08 36.457 117.323 37.1229 118.541 38.0064C116.58 38.9995 114.645 40.0549 112.677 41.0322L111.72 41.4744C110.227 42.6653 108.484 43.9292 106.743 44.7265L106.701 44.8442L106.094 45.302L105.89 45.3933C105.019 44.7145 103.989 44.0569 103.422 43.0895L103.743 42.7722C107.574 40.1052 111.383 37.478 115.386 35.0703Z" fill="#F73720"/>
<path d="M103.422 43.0907L103.743 42.7734C104.615 43.2521 106.113 43.9705 106.743 44.7278L106.701 44.8455L106.094 45.3034L105.89 45.3947C105.019 44.7158 103.989 44.0581 103.422 43.0907Z" fill="#E60E0B"/>
<path d="M146.519 12.4375C149.847 16.1128 153.962 20.4354 156.473 24.68C154.087 25.3125 151.616 25.7238 149.252 26.4055L149.133 26.4664C148.711 26.582 148.282 26.6867 147.868 26.8272L147.672 26.9035C147.409 25.588 144.355 22.9079 143.281 21.862L143.721 21.276C145.776 18.9767 146.271 15.4088 146.519 12.4375Z" fill="#F73720"/>
<path d="M143.281 21.8594L143.721 21.2734C146.291 22.0732 147.028 25.1169 149.252 26.403L149.133 26.4638C148.711 26.5794 148.282 26.6842 147.868 26.8247L147.672 26.9009C147.409 25.5854 144.355 22.9054 143.281 21.8594Z" fill="#E60E0B"/>
<path d="M137.086 25.805L138.515 25.3359C139.095 26.3717 140.432 27.6285 140.817 28.5792L140.766 28.6571L140.025 28.9117L139.885 28.912C138.553 29.5843 134.354 31.3453 133.006 31.5983L131.855 32.0901C129.827 32.8777 127.872 33.8355 125.821 34.5629L125.741 34.5656L124.94 34.9114L124.631 35.0236C122.934 35.7935 121.243 36.5754 119.556 37.3692L119.42 37.4691L118.661 37.962L118.54 38.0082C117.321 37.1248 116.078 36.4589 115.385 35.0722L115.847 34.775C118.11 33.7483 120.203 32.3761 122.428 31.2708C127.186 28.908 131.976 27.2216 137.086 25.805Z" fill="#F73720"/>
<path d="M124.631 35.0224C123.863 33.7417 122.046 33.4374 121.641 31.9272L121.821 31.8125C123.286 32.2627 124.656 33.5165 125.74 34.5644L124.94 34.9102L124.631 35.0224Z" fill="#E60E0B"/>
<path d="M115.847 34.7734C117.105 35.6079 118.341 36.4727 119.556 37.3678L119.42 37.4677L118.661 37.9605L118.54 38.0068C117.321 37.1234 116.078 36.4574 115.385 35.0708L115.847 34.7734Z" fill="#E60E0B"/>
<path d="M137.086 25.805L138.514 25.3359C139.095 26.3717 140.432 27.6285 140.817 28.5792L140.766 28.6571L140.025 28.9117L139.885 28.912C138.844 28.3253 137.614 26.8824 137.086 25.805Z" fill="#E60E0B"/>
<path d="M179.17 34.6105L179.499 34.5625L186.261 34.6428L186.662 34.5785C188.439 34.6417 190.225 34.6094 191.997 34.7437C193.996 35.5462 199.292 35.3071 201.743 35.6232C204.819 36.0202 228.723 40.2832 229.963 41.8605C230.987 41.9845 233.691 42.4043 234.37 43.1942C234.395 43.2215 234.406 43.2576 234.422 43.2891C234.397 43.6289 234.433 43.6877 234.16 43.9165C233.06 44.8397 231.708 45.4722 230.584 46.4418C229.014 47.7966 227.651 49.7877 225.921 50.8884C225.74 51.0496 225.562 51.2303 225.366 51.3723L225.245 51.0933C224.113 50.4899 222.71 50.3087 221.459 50.0824L221.478 49.8491C218.743 49.586 216.023 48.8029 213.309 48.3522C203.7 46.7249 193.98 45.6388 184.224 45.7978C169.434 45.9363 154.66 47.7373 140.269 51.1557C132.274 53.054 124.398 55.4501 116.7 58.3245C107.147 61.9533 97.794 66.1044 88.6856 70.7356C84.3571 72.9308 79.6243 76.4083 74.9605 77.5086C69.4663 78.8047 62.9481 77.1483 57.6617 75.6455C56.4022 75.2876 55.0593 74.9769 53.8457 74.495L56.188 68.6072C60.1064 70.6631 64.4892 71.8259 68.9286 71.4066C72.8393 71.0373 80.4429 67.6474 82.9221 64.6558C84.6779 64.6446 88.3831 61.85 89.9503 60.8377C92.9488 59.4511 95.8535 57.9686 98.7295 56.3425L99.4192 56.0626C101.119 54.6742 103.83 53.7928 105.819 52.8452L106.058 52.7741C108.125 51.8925 110.187 50.9994 112.244 50.0951L113.071 49.8146C114.859 48.4965 117.476 48.0107 119.494 47.0509L120.175 46.8231C122.219 45.9122 124.377 45.253 126.496 44.5404L127.311 44.2907C129.267 43.5884 131.248 42.968 133.255 42.4297C135.77 41.6601 138.278 40.7001 140.875 40.2467L142.029 39.9943C144.048 39.4917 146.091 39.073 148.122 38.624L149.136 38.4194C151.385 37.9073 153.674 37.5636 155.917 37.0339L156.725 37.0574C158.681 36.1551 163.096 36.13 165.331 35.7383C167.79 35.1823 170.308 35.2573 172.796 34.9493L172.919 34.9085C174.977 34.9803 177.091 34.5972 179.17 34.6105Z" fill="#FC5B46"/>
<path d="M229.962 41.8672C230.987 41.9912 233.691 42.411 234.369 43.2009C234.395 43.2282 234.405 43.2643 234.422 43.2958C234.397 43.6355 234.432 43.6944 234.16 43.9232C233.059 44.8464 231.707 45.4789 230.583 46.4485C229.014 47.8033 227.651 49.7944 225.921 50.8951C225.739 51.0563 225.562 51.237 225.365 51.379L225.245 51.1C224.112 50.4966 222.71 50.3153 221.459 50.0891L221.478 49.8558C223.168 48.7737 224.402 46.6016 225.879 45.2163C226.905 44.2542 229.383 42.9501 229.962 41.8672Z" fill="#E60E0B"/>
<path d="M221.46 50.0781C222.711 50.3044 224.113 50.4856 225.246 51.089L225.366 51.3681C225.563 51.2261 225.74 51.0452 225.922 50.8841C227.549 51.7125 234.471 53.1727 236.698 53.7845C242.108 55.257 247.424 57.0101 252.648 59.0441C259.324 61.628 265.85 64.9107 272.078 68.4323C274.735 69.9354 277.317 71.8605 280.057 73.1558L280.154 73.4067C279.434 74.7891 269.131 81.6061 267.014 82.3303C268.834 82.9194 270.451 83.9921 272.247 84.6442C276.457 86.1729 280.963 86.281 285.379 86.5972C285.311 88.257 279.81 93.2073 278.409 94.4994C268.339 103.8 256.267 111.231 243.847 116.957C242.066 117.778 240.163 119.067 238.213 119.393C237.645 120.182 235.029 120.992 234.049 121.152C233.819 120.471 228.168 116.57 227.164 115.678C223.752 112.641 220.55 109.23 217.957 105.464C216.878 103.893 214.29 98.3638 213.255 97.6711C213.648 96.6786 211.579 91.6642 211.26 90.311C208.098 76.4291 212.543 60.993 221.46 50.0781Z" fill="#F73720"/>
<path d="M250.455 62.8784C254.516 62.6218 258.611 64.983 259.981 68.8911C261.114 72.0088 260.491 75.7246 258.378 78.2869C256.609 80.4242 254.062 81.3463 251.377 81.6231C245.696 82.077 241.326 77.3658 241.665 71.7874C241.965 66.9291 245.707 63.417 250.455 62.8784Z" fill="#FEFEFE"/>
<path d="M251.931 69.0593C252.288 68.9878 252.63 68.9401 252.992 69.0128C253.846 69.1915 254.72 70.0124 254.329 70.9416C254.164 71.3665 253.72 71.5691 253.34 71.7539C253.121 72.0243 252.762 72.2282 252.425 72.2141C252.203 72.0436 252.043 71.8251 251.931 71.5674C251.54 70.6733 251.623 69.9527 251.931 69.0593Z" fill="#FEFEFE"/>
<path d="M221.46 50.0781C222.711 50.3044 224.113 50.4856 225.246 51.089L225.366 51.3681C225.379 52.4804 222.99 54.9157 222.299 55.9336C208.803 76.5229 213.035 99.9872 232.689 114.733C234.201 115.916 235.821 116.955 237.343 118.125C237.702 118.402 238.316 118.775 238.238 119.291C238.234 119.325 238.221 119.359 238.213 119.393C237.645 120.182 235.029 120.992 234.049 121.152C233.819 120.471 228.168 116.57 227.164 115.678C223.752 112.641 220.55 109.23 217.957 105.463C216.878 103.893 214.29 98.3635 213.255 97.6708C213.648 96.6783 211.579 91.664 211.26 90.3108C208.098 76.4291 212.543 60.993 221.46 50.0781Z" fill="#C60A08"/>
<path d="M53.3892 76.9766C90.8198 84.2283 126.716 100.209 165.334 100.693C169.652 108.595 178.646 117.433 188.05 111.692C191.165 109.737 197.516 103.824 197.968 100.196C200.318 99.9437 211.899 98.7036 213.255 97.6759C214.29 98.3686 216.878 103.898 217.958 105.468C220.55 109.235 223.753 112.646 227.165 115.683C228.168 116.575 233.819 120.476 234.05 121.157C232.989 122.463 223.611 125.233 221.399 125.846C219.787 126.294 216.494 126.797 215.209 127.772C214.094 127.547 206.727 129.555 205.018 129.876C196.932 131.452 188.668 132.154 180.434 132.155L180.02 132.179C176.532 131.516 172.435 131.958 168.862 131.751C165.653 131.566 162.459 130.848 159.235 130.977C156.202 130.356 153.127 130.005 150.106 129.364L149.186 129.124C147.154 128.793 145.146 128.224 143.147 127.733L142.409 127.431C140.819 127.498 137.924 126.347 136.309 125.86L135.888 125.602C133.563 125.475 130.921 124.159 128.76 123.302C126.382 122.382 123.971 121.5 121.601 120.564L120.452 120.085C118.762 119.548 117.088 118.67 115.474 117.927L114.701 117.473C112.577 116.867 110.411 115.629 108.407 114.69L107.5 114.183C105.684 113.315 103.888 112.369 102.118 111.415C99.8946 110.146 97.6661 108.836 95.4223 107.608L94.9297 107.183C92.9593 106.462 91.105 104.988 89.3946 103.8C85.5664 101.346 82.0855 98.3376 78.2366 95.9367C77.0664 94.3751 74.7644 93.2688 72.9819 92.5498C67.4013 90.2984 61.7636 91.0238 56.34 93.3149C52.9489 88.2005 52.7018 82.8753 53.3892 76.9766Z" fill="#F2B8AD"/>
<path d="M53.848 74.4939C55.0614 74.9758 56.4044 75.2866 57.664 75.6445C62.9503 77.1472 69.4685 78.8037 74.9628 77.5076C79.6266 76.4074 84.3594 72.9298 88.6879 70.7347C97.796 66.1034 107.15 61.9523 116.702 58.3235C124.4 55.449 132.277 53.053 140.272 51.1547C154.662 47.7363 169.436 45.9353 184.226 45.7966C193.983 45.6378 203.702 46.7238 213.311 48.351C216.025 48.8018 218.745 49.5848 221.481 49.848L221.462 50.0812C212.545 60.9964 208.1 76.4318 211.262 90.314C211.581 91.6674 213.649 96.6816 213.256 97.6741C211.9 98.7018 200.319 99.9419 197.97 100.194C197.52 103.819 191.164 109.737 188.051 111.69C178.648 117.432 169.652 108.593 165.335 100.691C126.715 100.207 90.8232 84.2269 53.3906 76.9748C53.5093 76.146 53.6937 75.3174 53.848 74.4939Z" fill="#F73720"/>
<path d="M197.271 94.2812C197.719 97.9702 189.083 106.684 186.453 108.903C186.463 108.119 196.038 95.6281 197.271 94.2812Z" fill="#FC5B46"/>
<path d="M196.137 92.7109L196.256 92.823C196.294 92.9769 196.355 93.083 196.304 93.2375C195.92 94.3839 195.011 95.4395 194.264 96.3772C190.084 101.612 184.529 105.915 178.616 109.023L178.527 108.926C182.211 105.32 192.093 96.9619 196.137 92.7109Z" fill="#FC5B46"/>
<path d="M187.685 89.9942C190.04 89.6948 192.349 89.8821 194.686 90.2072C187.69 92.0208 180.298 92.7177 173.175 93.9298C171.16 94.1611 169.197 94.6471 167.166 94.8399C173.752 92.3283 180.671 90.6937 187.685 89.9942Z" fill="#FC5B46"/>
<path d="M195.598 91.6875C195.691 91.7549 195.742 91.8871 195.801 91.9858C195.449 93.0805 193.676 94.0098 192.757 94.6979C186.392 99.361 179.894 103.326 172.544 106.266L172.377 106.158C175.069 103.238 181.654 99.9804 185.272 97.8133C188.713 95.753 192.045 93.5584 195.598 91.6875Z" fill="#FC5B46"/>
<path d="M193.821 90.8979C194.191 90.8857 194.288 90.8284 194.586 91.0616C193.471 93.038 173.412 99.6899 169.859 100.792L169.28 100.899L169.146 100.764C169.85 99.9251 171.927 99.273 172.955 98.7924C179.749 95.6176 186.446 92.503 193.821 90.8979Z" fill="#FC5B46"/>
<path d="M201.694 86.0154C202.537 85.9526 203.459 85.843 204.28 86.0993C204.973 86.3148 205.575 86.7197 205.901 87.3845C207.377 90.3036 202.417 96.9763 199.81 98.0766L199.548 98.3519L199.328 98.2611C198.697 96.9127 198.834 95.2438 198.329 93.8468C197.74 92.2207 196.508 90.7305 196.124 89.0483C195.546 86.7521 200.199 86.3577 201.694 86.0154Z" fill="#C60A08"/>
<path d="M258.647 72.6738C258.647 76.8471 255.264 80.2304 251.091 80.2304C241.067 79.8324 241.07 65.5137 251.091 65.1172C255.264 65.1172 258.647 68.5003 258.647 72.6738Z" fill="#111111"/>
<path d="M253.222 72.216C253.222 73.3925 252.268 74.3461 251.092 74.3461C248.266 74.2338 248.267 70.1977 251.092 70.0859C252.268 70.0858 253.222 71.0396 253.222 72.216Z" fill="white"/>
</svg>
