<svg width="364" height="364" viewBox="0 0 364 364" fill="none" xmlns="http://www.w3.org/2000/svg">
<path d="M170.521 204.44C169.784 152.736 140.842 95.7969 108.767 95.7969C76.6911 95.7969 47.7495 152.736 47.012 204.44C46.2745 256.143 79.6404 269.699 108.767 270.28C137.893 269.699 171.259 256.143 170.521 204.44Z" fill="#EAE5DF"/>
<path d="M111.754 95.5048C82.8273 94.0191 58.814 138.754 49.7778 180.279C40.7416 221.804 59.6578 252.727 87.2779 253.592C114.898 254.457 139.374 223.748 144.988 173.359C150.602 122.97 128.596 96.3698 111.754 95.5048Z" fill="#F7F4F0"/>
<path d="M121.128 98.5781C121.128 98.5781 137.136 104.584 152.205 132.236C167.273 159.888 173.201 196.803 169.458 220.944C165.715 245.084 149.87 269.5 108.766 270.279C67.6616 271.058 54.4961 241.302 54.4961 241.302C54.4961 241.302 65.1292 262.487 100.389 263.655C135.65 264.824 159.027 242.227 159.221 190.213C159.416 138.199 136.997 106.49 121.128 98.5781Z" fill="#D6D3D2"/>
<path d="M109.964 101.6C98.0595 98.5651 80.1387 112.522 66.4866 146.337C52.8345 180.153 56.8251 207.877 72.9976 216.909C89.1704 225.94 118.785 212.708 126.556 167.761C134.328 122.814 118.907 103.88 109.964 101.6Z" fill="#FCFCFC"/>
<path d="M103.702 106.942C95.3804 105.313 80.4275 121.57 80.617 132.461C80.8117 143.663 96.2017 142.981 103.896 129.929C111.591 116.877 108.182 107.818 103.702 106.942Z" fill="white"/>
<path d="M81.8826 142.494C76.6433 142.116 70.9732 147.754 72.272 155.611C73.5708 163.469 85.584 161.586 89.0254 155.611C92.4671 149.637 88.1812 142.949 81.8826 142.494Z" fill="white"/>
<path d="M316.502 201.642C315.764 149.939 286.823 93 254.747 93C222.672 93 193.73 149.939 192.992 201.643C192.255 253.346 225.621 266.902 254.747 267.483C283.873 266.901 317.239 253.346 316.502 201.642Z" fill="#F7F4F0"/>
<path d="M255.419 168.406C216.406 166.772 205.888 208.38 220.322 231.475C234.756 254.569 272.891 250.923 287.781 234.21C302.671 217.497 298.569 170.214 255.419 168.406Z" fill="#EA8B00"/>
<path d="M262.197 170.426C239.27 165.824 225.905 178.205 219.925 188.605C213.945 199.005 214.755 212.451 223.461 223.966C233.426 237.146 266.054 245.343 281.002 223.966C297.732 200.04 283.734 174.75 262.197 170.426Z" fill="#FFAC27"/>
<path d="M278.929 186.627C273.12 171.746 245.682 168.46 229.544 181.469C213.406 194.478 218.043 218.423 238.338 222.06C258.634 225.695 287.808 209.375 278.929 186.627Z" fill="#FFC639"/>
<path d="M253.742 93.0186C253.742 93.0186 264.717 92.2877 277.998 102.851C291.278 113.415 299.129 129.029 307.283 150.469C315.436 171.91 318.981 198.918 315.081 220.283C311.182 241.648 295.984 269.002 252.228 267.48C208.473 265.958 196.515 237.298 193.834 216.607C193.834 216.607 196.925 238.306 222.906 252.284C248.888 266.262 287.48 258.057 300.698 227.822C313.916 197.587 297.356 148.664 287.935 125.417C278.516 102.172 264.218 93.4374 253.742 93.0186Z" fill="#EAE5DF"/>
<path d="M253.75 94.4244C231.873 94.1028 215.614 124.812 211.512 133.472C207.41 142.132 196.926 163.251 195.559 193.486C194.191 223.722 207.562 232.382 211.36 231.166C215.158 229.951 204.016 213.143 214.145 183.363C224.274 153.584 263.35 157.917 277.48 162.849C291.61 167.781 295.925 158.394 292.207 146.43C289.273 136.989 274.413 94.728 253.75 94.4244Z" fill="white"/>
<path d="M266.587 170.062C266.587 170.062 282.349 172.317 291.22 190.33C300.091 208.342 296.91 230.91 279.641 240.821C262.373 250.732 241.372 250.054 229.254 240.821C217.134 231.588 208.21 210.793 217.914 190.481C217.914 190.481 212.303 205.087 218.73 221.105C225.157 237.123 246.192 247.656 264.766 242.414C283.34 237.172 295.875 223.726 292.798 200.935C289.722 178.145 266.587 170.062 266.587 170.062Z" fill="#C16000"/>
<path d="M225.278 203.937C222.734 203.089 224.187 192.705 228.913 185.676C233.639 178.648 239.985 177.778 241.72 180.24C243.455 182.702 244.281 187.081 242.381 189.725C240.481 192.369 228.748 205.093 225.278 203.937Z" fill="#FFE98F"/>
<path d="M245.436 177.991C245.518 174.769 258.243 173.447 262.043 178.487C265.844 183.527 252.872 186.915 249.567 185.427C246.262 183.94 245.436 177.991 245.436 177.991Z" fill="#FFE98F"/>
<path d="M271.49 98.3984C271.49 98.3984 283.212 103.999 295.598 124.758C307.984 145.516 314.809 171.278 316.189 190.29C317.568 209.303 316.152 234.982 298.931 252.135C281.709 269.289 245.475 272.677 223.105 260.903C223.105 260.903 248.494 274.411 284.023 258.547C319.551 242.683 314.098 196.627 311.95 177.186C309.802 157.745 292.999 110.44 271.49 98.3984Z" fill="#D6D3D2"/>
</svg>
