<svg width="364" height="364" viewBox="0 0 364 364" fill="none" xmlns="http://www.w3.org/2000/svg">
<path opacity="0.19" d="M315.333 243.998H48.0875C46.9543 243.998 46.579 241.573 47.5809 240.728L69.172 222.519C69.8988 221.906 70.8191 221.57 71.7693 221.57H291.651C292.602 221.57 293.522 221.906 294.249 222.519L315.84 240.728C316.842 241.573 316.466 243.998 315.333 243.998Z" fill="url(#paint0_linear_4343_11889)"/>
<path d="M124.421 121.078L120.44 142.175L104.376 227.077H95.7578L107.823 121.078H124.421Z" fill="#BB8C5F"/>
<path d="M120.441 142.18L104.377 227.083H100.533L112.77 144.989C112.77 144.989 116.787 143.489 120.441 142.18Z" fill="#8B6C47"/>
<path d="M259.005 227.077H267.623L255.558 121.078H238.969L259.005 227.077Z" fill="#BB8C5F"/>
<path d="M242.941 142.18L259.005 227.083H262.849L250.611 144.989C250.611 144.989 246.596 143.489 242.941 142.18Z" fill="#8B6C47"/>
<path d="M261.487 150.804C208.399 146.217 155.024 146.217 101.936 150.804V137.016H261.487V150.804Z" fill="#7C5E3D"/>
<path d="M259.764 137.016H101.936V142.169H259.764V137.016Z" fill="#664C31"/>
<path d="M104.601 137.016L84.5555 243.015H75.9375L87.434 142.048L88.0029 137.016H104.601Z" fill="#BB8C5F"/>
<path d="M104.6 137.016L84.5548 243.015H80.7109L95.0341 142.048H87.4332L88.0022 137.016H104.6Z" fill="#8B6C47"/>
<path d="M278.825 243.015H287.443L275.379 137.016H258.789L278.825 243.015Z" fill="#BB8C5F"/>
<path d="M258.789 137.016L278.835 243.015H282.678L268.355 142.048H275.956L275.387 137.016H258.789Z" fill="#8B6C47"/>
<path d="M312.573 133.502H50.8066L68.0427 120H295.338L312.573 133.502Z" fill="#F3C58C"/>
<path d="M312.573 133.508H50.8066V138.535H312.573V133.508Z" fill="#E0A171"/>
<defs>
<linearGradient id="paint0_linear_4343_11889" x1="217.287" y1="237.458" x2="483.125" y2="263.711" gradientUnits="userSpaceOnUse">
<stop stop-color="#3F3125"/>
<stop offset="1" stop-color="#3F3125"/>
</linearGradient>
</defs>
</svg>
