<svg width="282" height="200" viewBox="0 0 282 200" fill="none" xmlns="http://www.w3.org/2000/svg">
<path d="M238.958 188.613C238.787 188.77 238.598 188.902 238.398 189.008C237.87 189.157 237.427 189.31 237.05 189.459C235.243 190.194 234.996 190.933 234.996 190.933C232.561 194.264 229.054 195.679 227.193 196.222C226.414 196.448 225.925 196.524 225.925 196.524C220.389 197.212 218.456 197.901 217.908 198.147C217.77 198.211 217.72 198.245 217.72 198.245C216.628 198.937 215.669 199.332 214.845 199.532C212.088 200.203 210.807 198.674 210.807 198.674L167.184 144.913C167.962 144.14 168.121 143.52 168.121 143.154C168.121 142.908 168.054 142.772 168.054 142.772C170.623 142.776 173.104 142.305 175.397 141.583C175.397 141.583 175.397 141.583 175.401 141.583C182.748 139.267 188.134 134.394 188.134 134.394C188.146 134.377 188.159 134.364 188.171 134.352C189.799 134.645 191.845 137.168 191.845 137.168L238.49 185.767C240.046 187.058 239.578 188.036 238.958 188.613Z" fill="#AA4724"/>
<path d="M238.959 188.615C238.787 188.771 238.6 188.903 238.4 189.009C238.136 189.084 237.894 189.16 237.669 189.234C237.501 189.291 237.343 189.347 237.197 189.404C237.147 189.422 237.099 189.441 237.051 189.461C236.655 189.622 236.335 189.783 236.075 189.937C235.963 190 235.864 190.066 235.774 190.128C235.714 190.168 235.659 190.209 235.607 190.25C235.505 190.328 235.418 190.404 235.347 190.473C235.33 190.49 235.312 190.506 235.296 190.524C235.262 190.556 235.234 190.588 235.207 190.618C235.181 190.648 235.158 190.676 235.138 190.703C235.117 190.729 235.099 190.752 235.085 190.775C235.016 190.876 234.997 190.934 234.997 190.934C234.742 191.281 234.27 191.994 233.7 192.849C231.676 194.794 229.361 195.82 227.795 196.336C227.73 196.259 227.662 196.181 227.594 196.099C227.528 196.021 227.463 195.944 227.394 195.862C220.795 188.057 200.907 164.545 189.712 151.31C188.795 150.227 187.937 149.213 187.15 148.282C183.89 144.43 181.834 141.999 181.834 141.999C181.834 141.999 181.519 141.613 181.033 141.119C180.716 140.797 180.327 140.429 179.904 140.091C179.822 140.024 179.739 139.959 179.654 139.897L179.652 139.895C179.732 139.858 179.812 139.819 179.889 139.782C179.967 139.743 180.047 139.704 180.123 139.667C180.201 139.628 180.279 139.589 180.357 139.55C180.578 139.439 180.795 139.327 181.009 139.214C181.539 138.934 182.045 138.651 182.528 138.368C182.595 138.329 182.662 138.288 182.728 138.25C183.064 138.05 183.386 137.851 183.695 137.659C183.756 137.62 183.814 137.582 183.872 137.545C184.343 137.245 184.782 136.951 185.184 136.673V136.671C185.297 136.593 185.408 136.515 185.516 136.439C185.614 136.37 185.707 136.303 185.799 136.236C185.883 136.176 185.964 136.116 186.043 136.059C186.141 135.986 186.234 135.917 186.327 135.848C186.497 135.721 186.654 135.601 186.801 135.489C186.87 135.436 186.935 135.385 186.999 135.333C187.061 135.284 187.121 135.238 187.178 135.192C187.294 135.098 187.401 135.013 187.496 134.937C187.53 134.911 187.56 134.884 187.59 134.861C187.592 134.857 187.593 134.856 187.597 134.854C187.643 134.815 187.687 134.78 187.728 134.744C187.749 134.726 187.769 134.71 187.788 134.695C187.845 134.645 187.894 134.603 187.939 134.565C187.981 134.528 188.018 134.498 188.047 134.472C188.066 134.456 188.082 134.44 188.096 134.429C188.098 134.428 188.098 134.426 188.099 134.428C188.123 134.405 188.135 134.396 188.135 134.396V134.394C188.147 134.378 188.158 134.366 188.17 134.352C188.273 134.369 188.377 134.398 188.482 134.433C189.057 134.622 189.662 135.042 190.198 135.495C190.44 135.702 190.67 135.916 190.878 136.119C190.897 136.139 190.918 136.16 190.938 136.179C190.959 136.199 190.978 136.22 190.998 136.24C191.017 136.259 191.037 136.278 191.056 136.298C191.515 136.765 191.821 137.138 191.844 137.169C191.845 137.17 191.845 137.17 191.845 137.17L238.49 185.768V185.77C238.587 185.851 238.677 185.929 238.758 186.007C239.989 187.178 239.539 188.072 238.959 188.615Z" fill="#90321E"/>
<path d="M238.685 185.56L192.061 136.982C191.898 136.782 189.9 134.376 188.223 134.073L188.072 134.047L187.966 134.155C187.952 134.169 187.938 134.183 187.924 134.201C187.779 134.33 186.715 135.259 184.992 136.453C182.727 138.021 179.321 140.044 175.357 141.3L175.311 141.312C175.118 141.373 174.926 141.433 174.733 141.488C172.454 142.153 170.222 142.489 168.087 142.489H168.055L167.618 142.494L167.793 142.898C167.795 142.898 167.834 142.992 167.834 143.158C167.834 143.423 167.724 143.977 166.981 144.713L166.797 144.897L210.587 198.863C210.635 198.918 211.562 199.996 213.489 199.996C213.915 199.996 214.389 199.943 214.913 199.815C215.849 199.589 216.845 199.143 217.877 198.49C217.879 198.488 217.921 198.462 218.026 198.414C218.468 198.214 220.349 197.511 225.969 196.812C225.99 196.809 226.485 196.731 227.273 196.503C227.435 196.455 227.609 196.402 227.795 196.34C229.361 195.823 231.675 194.797 233.699 192.852C234.235 192.339 234.752 191.759 235.228 191.108L235.265 191.035C235.269 191.03 235.541 190.388 237.157 189.731C237.562 189.57 238.006 189.422 238.475 189.289L238.532 189.268C238.756 189.147 238.965 189 239.153 188.829L239.154 188.827C239.615 188.397 239.841 187.923 239.827 187.417C239.809 186.803 239.425 186.178 238.685 185.56ZM226.222 196.179C226.009 196.225 225.889 196.244 225.889 196.244C220.352 196.933 218.381 197.625 217.788 197.89C217.64 197.959 217.574 198 217.565 198.007C216.592 198.624 215.653 199.045 214.777 199.258C212.243 199.874 211.075 198.55 211.031 198.497L167.566 144.933C168.256 144.179 168.409 143.558 168.409 143.158C168.409 143.124 168.407 143.092 168.405 143.061C170.429 143.03 172.535 142.708 174.678 142.101C174.933 142.029 175.187 141.953 175.442 141.873L175.488 141.861C177.058 141.367 178.54 140.753 179.903 140.095C182.076 139.044 183.943 137.878 185.363 136.894C186.963 135.783 187.996 134.9 188.26 134.67C189.743 135.055 191.603 137.329 191.622 137.354L191.629 137.363L238.282 185.969L238.307 185.992C238.921 186.502 239.239 186.987 239.252 187.434C239.262 187.767 239.098 188.095 238.763 188.408C238.62 188.539 238.461 188.652 238.289 188.746C237.813 188.88 237.36 189.032 236.942 189.197C235.265 189.88 234.837 190.589 234.745 190.795C232.477 193.879 229.274 195.277 227.393 195.866C227.296 195.896 227.204 195.924 227.113 195.951C226.74 196.059 226.434 196.131 226.222 196.179Z" fill="#81291A"/>
<path d="M185.146 136.629L191.488 144.354C191.987 144.962 192.073 145.876 191.701 146.621L189.665 151.415C189.356 152.035 188.782 152.433 188.16 152.458L182.007 151.855C181.452 151.877 180.931 151.599 180.604 151.107L174.835 142.412C174.223 141.489 175.097 141.063 176.007 140.456L182.952 135.732C183.66 135.259 184.605 135.97 185.146 136.629Z" fill="#EADDA9"/>
<path d="M188.153 152.725L188.134 152.724L181.998 152.122C181.361 152.144 180.756 151.817 180.383 151.255L174.614 142.56C174.4 142.237 174.325 141.94 174.385 141.651C174.494 141.126 175.03 140.778 175.597 140.409C175.683 140.353 175.771 140.296 175.859 140.237L182.803 135.513C183.647 134.949 184.703 135.672 185.351 136.462L191.694 144.187C192.259 144.875 192.358 145.902 191.939 146.741L189.91 151.52C189.551 152.24 188.888 152.696 188.171 152.725L188.153 152.725ZM182.015 151.59L182.033 151.592L188.167 152.193C188.684 152.166 189.166 151.824 189.428 151.298L191.457 146.519C191.791 145.849 191.718 145.054 191.284 144.524L184.941 136.799C184.411 136.153 183.608 135.613 183.099 135.954L176.156 140.677C176.064 140.738 175.974 140.797 175.887 140.854C175.415 141.161 174.969 141.451 174.905 141.758C174.875 141.902 174.925 142.068 175.057 142.267L180.826 150.961C181.099 151.374 181.536 151.606 181.996 151.591L182.015 151.59Z" fill="#EAA936"/>
<path d="M182.523 148.177L179.221 143.2C179.004 142.874 179.091 142.435 179.414 142.215L182.867 139.866C183.173 139.658 183.586 139.718 183.821 140.003L188.057 145.162C188.225 145.367 188.266 145.649 188.162 145.894L187.103 148.387C186.981 148.675 186.687 148.849 186.376 148.819L183.048 148.493C182.834 148.472 182.642 148.356 182.523 148.177Z" fill="#FCB638"/>
<path d="M186.447 149.006C186.418 149.006 186.389 149.004 186.359 149.002L183.031 148.675C182.763 148.649 182.524 148.505 182.376 148.281L179.073 143.304C178.805 142.9 178.913 142.348 179.315 142.075L182.768 139.726C183.152 139.465 183.663 139.539 183.958 139.897L188.193 145.056C188.405 145.313 188.455 145.664 188.324 145.97L187.266 148.463C187.124 148.796 186.803 149.006 186.447 149.006ZM183.27 139.925C183.165 139.925 183.06 139.955 182.967 140.019L179.514 142.368C179.272 142.532 179.206 142.865 179.368 143.109L182.67 148.086C182.76 148.221 182.904 148.307 183.066 148.323L186.393 148.649C186.625 148.672 186.847 148.542 186.94 148.325L187.999 145.832C188.077 145.647 188.047 145.436 187.92 145.281L183.684 140.122C183.578 139.993 183.425 139.925 183.27 139.925Z" fill="#9B3F00"/>
<path d="M164.163 90.6521C175.191 90.6521 184.131 83.2465 184.131 74.1112C184.131 64.9759 175.191 57.5703 164.163 57.5703C153.135 57.5703 144.195 64.9759 144.195 74.1112C144.195 83.2465 153.135 90.6521 164.163 90.6521Z" fill="#FCB638"/>
<path d="M164.164 90.8343C153.056 90.8343 144.02 83.3347 144.02 74.1164C144.02 64.898 153.056 57.3984 164.164 57.3984C175.273 57.3984 184.309 64.898 184.309 74.1164C184.309 83.3347 175.273 90.8343 164.164 90.8343ZM164.164 57.7524C153.252 57.7524 144.373 65.0933 144.373 74.1164C144.373 83.1395 153.252 90.4803 164.164 90.4803C175.077 90.4803 183.955 83.1395 183.955 74.1164C183.955 65.0933 175.077 57.7524 164.164 57.7524Z" fill="#9B3F00"/>
<path d="M164.166 89.8318C174.021 89.8318 182.01 83.2639 182.01 75.162C182.01 67.0601 174.021 60.4922 164.166 60.4922C154.311 60.4922 146.322 67.0601 146.322 75.162C146.322 83.2639 154.311 89.8318 164.166 89.8318Z" fill="#EAA936"/>
<path opacity="0.5" d="M164.165 89.6804C173.316 89.6804 180.734 83.692 180.734 76.305C180.734 68.918 173.316 62.9297 164.165 62.9297C155.014 62.9297 147.596 68.918 147.596 76.305C147.596 83.692 155.014 89.6804 164.165 89.6804Z" fill="#EADDA9"/>
<path d="M163.804 91.0629C168.849 91.0629 172.938 88.3048 172.938 84.9025C172.938 81.5003 168.849 78.7422 163.804 78.7422C158.76 78.7422 154.67 81.5003 154.67 84.9025C154.67 88.3048 158.76 91.0629 163.804 91.0629Z" fill="#5B0829"/>
<path d="M163.804 91.2292C158.669 91.2292 154.492 88.3863 154.492 84.892C154.492 81.3976 158.669 78.5547 163.804 78.5547C168.938 78.5547 173.115 81.3975 173.115 84.892C173.115 88.3862 168.938 91.2292 163.804 91.2292ZM163.804 78.9085C158.864 78.9085 154.846 81.5927 154.846 84.892C154.846 88.1912 158.864 90.8754 163.804 90.8754C168.743 90.8754 172.761 88.1912 172.761 84.892C172.761 81.5927 168.743 78.9085 163.804 78.9085Z" fill="#894366"/>
<path d="M163.671 90.9997C168.171 90.9997 171.82 88.5391 171.82 85.5038C171.82 82.4684 168.171 80.0078 163.671 80.0078C159.17 80.0078 155.521 82.4684 155.521 85.5038C155.521 88.5391 159.17 90.9997 163.671 90.9997Z" fill="#6C0B26"/>
<path d="M163.615 91.0499C167.442 91.0499 170.545 88.9575 170.545 86.3765C170.545 83.7955 167.442 81.7031 163.615 81.7031C159.788 81.7031 156.686 83.7955 156.686 86.3765C156.686 88.9575 159.788 91.0499 163.615 91.0499Z" fill="#7F1418"/>
<path d="M136.831 118.008L134.344 118.247C134.344 118.247 131.307 120.982 132.582 126.93H135.047C135.035 126.536 135.278 120.94 136.831 118.008Z" fill="#2C150C"/>
<path d="M159.832 87.6176C160.097 90.5555 161.022 103.11 157.85 106.331C157.85 106.331 168.205 104.794 171.211 106.011C171.211 106.011 167.142 99.1982 168.208 87.6242C168.239 87.2898 167.978 87 167.643 87H160.398C160.064 87.0001 159.802 87.2852 159.832 87.6176Z" fill="#D35027"/>
<path d="M164.749 87.6242C163.845 97.438 166.632 103.826 167.501 105.543C169.042 105.554 170.396 105.682 171.21 106.011C171.21 106.011 167.141 99.1982 168.207 87.6242C168.238 87.2898 167.978 87 167.642 87H164.184C164.519 87.0001 164.78 87.2898 164.749 87.6242Z" fill="#BF3611"/>
<path d="M157.352 106.581L157.723 106.204C160.866 103.012 159.884 90.172 159.655 87.6305C159.636 87.4232 159.706 87.2163 159.846 87.0627C159.987 86.9087 160.188 86.8203 160.397 86.8203H167.642C167.85 86.8203 168.05 86.9086 168.191 87.0625C168.332 87.2178 168.403 87.4274 168.383 87.6376C167.335 99.0132 171.322 105.85 171.362 105.917L171.632 106.37L171.144 106.172C168.216 104.987 157.978 106.487 157.874 106.503L157.352 106.581ZM160.397 87.1743C160.286 87.1743 160.183 87.2195 160.108 87.3016C160.033 87.3832 159.998 87.4887 160.008 87.5989C160.321 91.0824 161.09 102.408 158.29 106.086C160.267 105.814 167.802 104.858 170.844 105.7C170.016 104.071 167.115 97.5469 168.031 87.6052C168.041 87.4923 168.005 87.3842 167.929 87.3011C167.855 87.2194 167.753 87.1743 167.642 87.1743H160.397Z" fill="#82291A"/>
<path d="M165.507 145.838C182.401 145.838 196.096 136.518 196.096 125.021C196.096 113.524 182.401 104.203 165.507 104.203C148.613 104.203 134.918 113.524 134.918 125.021C134.918 136.518 148.613 145.838 165.507 145.838Z" fill="url(#paint0_linear_4343_12354)"/>
<path d="M165.507 104.742C182.081 104.742 195.566 113.842 195.566 125.029C195.566 136.215 182.081 145.316 165.507 145.316C148.933 145.316 135.449 136.215 135.449 125.029C135.449 113.842 148.933 104.742 165.507 104.742ZM165.507 104.211C148.613 104.211 134.918 113.531 134.918 125.029C134.918 136.526 148.613 145.846 165.507 145.846C182.401 145.846 196.096 136.526 196.096 125.029C196.096 113.531 182.401 104.211 165.507 104.211Z" fill="#9B3F00"/>
<path d="M166.354 145.85C180.902 145.85 192.695 138.147 192.695 128.644C192.695 119.141 180.902 111.438 166.354 111.438C151.807 111.438 140.014 119.141 140.014 128.644C140.014 138.147 151.807 145.85 166.354 145.85Z" fill="url(#paint1_linear_4343_12354)"/>
<g opacity="0.5">
<path d="M166.409 145.42C179.52 145.42 190.148 138.478 190.148 129.913C190.148 121.349 179.52 114.406 166.409 114.406C153.298 114.406 142.67 121.349 142.67 129.913C142.67 138.478 153.298 145.42 166.409 145.42Z" fill="#DA4526"/>
</g>
<path d="M166.461 145.238C178.037 145.238 187.421 139.135 187.421 131.607C187.421 124.079 178.037 117.977 166.461 117.977C154.884 117.977 145.5 124.079 145.5 131.607C145.5 139.135 154.884 145.238 166.461 145.238Z" fill="#FCB638"/>
<path d="M166.458 118.143C177.918 118.143 187.242 124.178 187.242 131.597C187.242 139.015 177.918 145.051 166.458 145.051C154.998 145.051 145.674 139.015 145.674 131.597C145.674 124.178 154.998 118.143 166.458 118.143ZM166.458 117.789C154.784 117.789 145.32 123.971 145.32 131.597C145.32 139.222 154.784 145.404 166.458 145.404C178.132 145.404 187.596 139.222 187.596 131.597C187.596 123.971 178.132 117.789 166.458 117.789Z" fill="#9B3F00"/>
<g opacity="0.5">
<path d="M166.462 141.928C175.493 141.928 182.814 137.888 182.814 132.905C182.814 127.922 175.493 123.883 166.462 123.883C157.431 123.883 150.109 127.922 150.109 132.905C150.109 137.888 157.431 141.928 166.462 141.928Z" fill="#EA9103"/>
</g>
<path d="M166.462 138.854C169.977 138.854 172.826 136.992 172.826 134.696C172.826 132.4 169.977 130.539 166.462 130.539C162.947 130.539 160.098 132.4 160.098 134.696C160.098 136.992 162.947 138.854 166.462 138.854Z" fill="#9B3F00"/>
<path d="M166.478 136.937C168.476 136.937 170.096 136.033 170.096 134.918C170.096 133.803 168.476 132.898 166.478 132.898C164.479 132.898 162.859 133.803 162.859 134.918C162.859 136.033 164.479 136.937 166.478 136.937Z" fill="#7C3200"/>
<path d="M175.193 105.436L177.232 102.141L188.661 106.672L187.388 110.791C187.388 110.791 181.718 106.326 175.193 105.436Z" fill="#2C150C"/>
<path d="M279.929 23.1304C279.248 23.8752 278.312 24.8166 277.025 26.004C272.329 30.3337 208.233 98.1899 197.887 108.999C197.22 109.697 196.579 110.859 195.619 110.919C195.203 110.944 194.403 111.225 192.913 110.647C192.522 110.495 192.067 110.316 191.592 109.997C190.859 109.507 190.022 109.003 189.123 108.497C185.287 106.34 180.334 104.171 177.659 103.044C176.52 102.562 175.792 102.27 175.741 102.249C173.259 101.216 170.383 99.4693 172.783 97.537L245.968 2.47586C245.968 2.47586 247.697 -0.937436 253.2 0.764748C253.2 0.764748 259.58 1.61757 262.988 1.18943C262.988 1.18943 268.444 0.734659 272.377 4.33193C272.581 4.51951 272.784 4.71948 272.98 4.93182C274.166 6.20587 275.16 7.90099 275.75 10.1747C275.75 10.1747 276.746 13.5172 280.209 18.4291C281.226 19.8694 281.116 21.8281 279.929 23.1304Z" fill="#AA4724"/>
<path d="M266.302 1.42186C265.518 2.00403 265.203 2.5924 265.203 2.5924L183.029 103.059C182.157 103.72 181.905 104.361 182.06 104.961C178.652 103.409 175.846 102.285 175.741 102.24C173.261 101.209 170.384 99.4626 172.786 97.5301L245.97 2.46902C245.97 2.46902 247.698 -0.94528 253.201 0.756761C253.201 0.756761 259.583 1.60987 262.989 1.1813C262.989 1.1813 264.398 1.06411 266.302 1.42186Z" fill="#90321E"/>
<path d="M198.446 98.299L188.764 108.156C188.734 108.186 188.706 108.214 188.675 108.242C185.094 106.228 180.47 104.203 177.972 103.151C177.824 102.503 177.93 101.796 178.328 101.195L185.655 90.1238C186.128 89.4118 186.927 88.9856 187.783 88.9923L194.329 89.0501C195.299 89.0583 196.176 89.6201 196.591 90.4972L198.928 95.4529C199.379 96.4092 199.186 97.5441 198.446 98.299Z" fill="#EADDA9"/>
<path d="M188.711 108.566L188.546 108.473C184.966 106.46 180.32 104.428 177.87 103.395L177.745 103.342L177.715 103.21C177.542 102.459 177.682 101.691 178.107 101.048L185.435 89.9774C185.96 89.1869 186.837 88.711 187.786 88.727L194.333 88.7847C195.396 88.7936 196.377 89.4214 196.832 90.3836L199.169 95.3395C199.665 96.3901 199.451 97.6541 198.636 98.4847L198.636 98.4849L188.955 108.342C188.917 108.379 188.886 108.409 188.852 108.44L188.711 108.566ZM178.206 102.961C180.657 103.996 185.116 105.954 188.632 107.913L198.258 98.1132L198.257 98.1133C198.917 97.4404 199.09 96.4167 198.689 95.5659L196.352 90.6104C195.984 89.8311 195.189 89.3228 194.328 89.3155L187.782 89.2577C187.009 89.2481 186.302 89.6304 185.878 90.2706L178.55 101.341C178.23 101.824 178.11 102.395 178.206 102.961Z" fill="#EAA936"/>
<path d="M186.91 104.74C185.941 104.177 183.687 102.86 182.606 102.226C182.338 102.069 182.253 101.723 182.418 101.461C183.425 99.8583 186.212 95.4578 187.54 93.718C187.767 93.42 188.165 93.1016 188.6 93.1016L192.452 93.135C192.902 93.1389 193.31 93.4001 193.503 93.8074L194.677 96.2985C194.891 96.7523 194.799 97.2976 194.447 97.6556L187.578 104.649C187.402 104.829 187.127 104.866 186.91 104.74Z" fill="#FCB638"/>
<path d="M187.187 104.996C187.062 104.996 186.936 104.964 186.822 104.897C185.854 104.334 183.599 103.018 182.518 102.384C182.347 102.283 182.226 102.122 182.179 101.93C182.132 101.738 182.165 101.539 182.27 101.372C183.375 99.6132 186.087 95.3373 187.401 93.6157C187.654 93.284 188.102 92.9297 188.602 92.9297L192.455 92.9631C192.97 92.9677 193.445 93.2715 193.664 93.7372L194.839 96.228C195.085 96.7485 194.978 97.3742 194.575 97.7847L187.706 104.778C187.565 104.921 187.377 104.996 187.187 104.996ZM188.6 93.2834C188.231 93.2834 187.875 93.5779 187.682 93.8302C186.377 95.5403 183.672 99.8052 182.569 101.56C182.516 101.646 182.499 101.747 182.523 101.846C182.547 101.944 182.609 102.027 182.696 102.078C183.777 102.712 186.031 104.028 187 104.591C187.147 104.677 187.333 104.652 187.453 104.53L194.322 97.5363C194.622 97.2311 194.701 96.7658 194.519 96.3787L193.344 93.8877C193.182 93.5441 192.832 93.32 192.452 93.3167L188.6 93.2834Z" fill="#9B3F00"/>
<path d="M250.324 0.565955C247.315 0.565955 246.277 2.49718 246.224 2.6004L246.196 2.64503L172.99 97.7326L172.963 97.754C172.377 98.2265 172.113 98.7008 172.179 99.1634C172.305 100.045 173.609 101.044 175.851 101.977L175.919 102.004C177.726 102.738 186.981 106.557 191.751 109.753C192.203 110.055 192.635 110.224 193.017 110.374C194.18 110.824 194.87 110.725 195.327 110.659C195.432 110.644 195.523 110.631 195.601 110.626C196.196 110.59 196.688 109.983 197.164 109.397C197.332 109.19 197.506 108.977 197.68 108.794C200.672 105.668 208.06 97.8761 217.413 88.0114C239.742 64.4605 273.486 28.8702 276.83 25.7869C277.999 24.7096 278.97 23.7486 279.716 22.9304C280.802 21.7406 280.91 19.9142 279.975 18.5873C276.524 13.6931 275.516 10.3882 275.475 10.25C274.943 8.20218 274.034 6.47969 272.77 5.12085C272.592 4.92708 272.4 4.73677 272.183 4.53796C268.386 1.06478 263.065 1.46369 263.012 1.46844C259.618 1.896 253.423 1.07716 253.161 1.04203L253.115 1.03181C252.037 0.698833 251.113 0.565955 250.324 0.565955ZM194.658 111.291C194.195 111.291 193.59 111.212 192.809 110.909C192.419 110.756 191.935 110.567 191.432 110.23C186.708 107.065 177.501 103.266 175.703 102.537L175.63 102.507C173.123 101.464 171.77 100.366 171.61 99.2449C171.514 98.5757 171.839 97.9312 172.576 97.3287L245.728 2.31162C245.921 1.97273 247.882 -1.17596 253.261 0.476559C253.687 0.532128 259.723 1.30505 262.952 0.898071C263.191 0.877773 268.589 0.473246 272.571 4.11501C272.8 4.32504 273.003 4.52673 273.191 4.73158C274.52 6.15981 275.475 7.96522 276.028 10.0965C276.035 10.1196 277.053 13.4482 280.444 18.2572C281.534 19.8025 281.406 21.9309 280.14 23.3181C279.383 24.1485 278.4 25.1214 277.219 26.2099C273.89 29.2801 240.154 64.862 217.83 88.4072C208.476 98.2725 201.088 106.065 198.095 109.192C197.936 109.357 197.778 109.553 197.61 109.76C197.081 110.41 196.483 111.148 195.637 111.2C195.571 111.204 195.496 111.216 195.408 111.228C195.214 111.256 194.968 111.291 194.658 111.291Z" fill="#81291A"/>
<path d="M134.011 118.539C133.375 119.852 132.646 121.906 132.878 123.977C132.981 124.909 133.055 125.272 133.91 127.303C134.037 127.609 134.184 127.954 134.352 128.344C134.653 129.05 134.586 129.563 134.31 129.936C133.413 131.143 130.32 130.901 130.32 130.901L12.5761 123.955C11.7179 123.904 10.9076 123.552 10.2829 122.965C10.2192 122.901 10.1555 122.846 10.0954 122.786C9.30084 122.018 8.61789 121.139 8.03039 120.204C6.39544 117.603 4.83131 116.77 4.1128 116.404C3.60851 116.145 2.84409 115.618 2.41422 115.248C1.21273 114.217 0.621785 113.247 0.400662 112.38C-0.193893 110.069 1.82327 108.51 1.82327 108.51C2.70272 107.725 3.43347 106.764 3.86693 105.663C4.79764 103.306 6.95992 103.724 6.95992 103.724L132.227 115.174C135.626 115.599 134.841 117.111 134.841 117.111C134.78 117.168 134.414 117.704 134.011 118.539Z" fill="#AA4724"/>
<path d="M134.309 129.931C133.411 131.138 130.318 130.895 130.318 130.895L12.5762 123.949C11.717 123.899 10.9064 123.545 10.2818 122.958C10.2171 122.896 10.1544 122.841 10.0937 122.781C9.29923 122.012 8.61599 121.133 8.02978 120.197C6.3944 117.597 4.8297 116.762 4.11206 116.399C3.60676 116.138 2.84262 115.612 2.41204 115.242C1.21127 114.209 0.621017 113.241 0.398599 112.374C-0.195669 110.063 1.82179 108.505 1.82179 108.505C2.129 108.23 2.41808 107.934 2.68296 107.617C3.11758 107.955 3.70177 108.343 4.1122 108.553C4.82984 108.917 6.39454 109.752 8.02993 112.351C8.61613 113.287 9.29937 114.167 10.0939 114.935C10.1545 114.996 10.2173 115.05 10.2819 115.115C10.9065 115.701 11.7172 116.053 12.5763 116.103L130.319 123.049C130.319 123.049 131.665 123.155 132.837 122.882C132.823 123.241 132.835 123.605 132.876 123.971C132.997 125.045 133.076 125.364 134.352 128.338C134.652 129.043 134.584 129.557 134.309 129.931Z" fill="#90321E"/>
<path d="M132.879 123.968C132.981 124.901 133.055 125.264 133.91 127.295L115.437 126.794C115.074 126.775 114.731 126.623 114.473 126.364L110.854 122.746C110.263 122.153 110.283 121.189 110.9 120.623L115.11 116.755C115.427 116.464 115.855 116.326 116.281 116.378L134.011 118.531C133.376 119.844 132.647 121.898 132.879 123.968Z" fill="#EADDA9"/>
<path d="M134.314 127.571L115.43 127.059C114.993 127.036 114.589 126.856 114.285 126.552L110.667 122.933C110.328 122.594 110.148 122.144 110.159 121.666C110.169 121.189 110.369 120.749 110.721 120.427L114.93 116.559C115.305 116.215 115.809 116.054 116.313 116.114L134.412 118.312L134.25 118.646C133.734 119.712 132.905 121.816 133.142 123.939L133.142 123.939C133.24 124.829 133.306 125.175 134.155 127.192L134.314 127.571ZM116.105 116.632C115.804 116.632 115.513 116.744 115.289 116.95L111.08 120.818C110.835 121.042 110.697 121.347 110.689 121.678C110.682 122.01 110.807 122.323 111.042 122.558L114.66 126.176C114.872 126.388 115.152 126.513 115.451 126.529L133.507 127.018C132.779 125.264 132.712 124.886 132.614 123.998C132.393 122.024 133.002 120.107 133.615 118.75L116.249 116.641C116.201 116.635 116.153 116.632 116.105 116.632Z" fill="#EAA936"/>
<path d="M116.098 123.901L114.609 122.413C114.245 122.048 114.257 121.453 114.637 121.104L116.532 119.364C116.727 119.184 116.991 119.1 117.254 119.132L129.165 120.853C129.779 120.941 130.222 121.488 130.181 122.108L130.092 123.448C130.05 124.088 129.509 124.578 128.868 124.558L116.714 124.166C116.482 124.16 116.262 124.065 116.098 123.901Z" fill="#FCB638"/>
<path d="M128.909 124.74C128.894 124.74 128.879 124.74 128.864 124.739L116.71 124.348C116.432 124.341 116.171 124.228 115.974 124.031L114.486 122.543C114.275 122.332 114.162 122.052 114.168 121.754C114.175 121.456 114.299 121.181 114.518 120.979L116.414 119.239C116.647 119.024 116.962 118.923 117.277 118.961L129.191 120.683C129.893 120.784 130.406 121.417 130.359 122.124L130.27 123.465C130.223 124.188 129.629 124.74 128.909 124.74ZM117.145 119.307C116.965 119.307 116.789 119.374 116.653 119.499L114.758 121.239C114.61 121.375 114.527 121.56 114.522 121.761C114.518 121.962 114.594 122.15 114.736 122.293L116.225 123.781C116.357 123.914 116.533 123.989 116.72 123.994L128.875 124.386C129.425 124.403 129.881 123.989 129.917 123.441L130.006 122.101C130.041 121.577 129.661 121.108 129.141 121.032L117.231 119.311C117.202 119.308 117.173 119.307 117.145 119.307Z" fill="#9B3F00"/>
<path d="M130.955 131.204C130.585 131.204 130.331 131.185 130.296 131.182L12.558 124.236C11.6375 124.182 10.7591 123.803 10.0842 123.169C10.0483 123.133 10.0185 123.106 9.9893 123.078C9.95562 123.047 9.92266 123.016 9.89084 122.984C9.12699 122.245 8.41754 121.358 7.78585 120.351C6.15651 117.761 4.63241 116.985 3.98171 116.654C3.4767 116.395 2.68909 115.86 2.22525 115.46C1.09026 114.486 0.381981 113.471 0.12055 112.446C-0.49963 110.036 1.46645 108.419 1.63761 108.284C2.54485 107.472 3.20447 106.553 3.59849 105.553C4.55698 103.123 6.76634 103.397 6.99422 103.433L132.252 114.882C133.773 115.072 134.715 115.503 135.063 116.165C135.296 116.61 135.192 117.048 135.093 117.238L135.071 117.281L135.042 117.308C134.754 117.644 132.812 120.817 133.161 123.939C133.275 124.959 133.337 125.246 134.614 128.225C134.933 128.971 134.908 129.602 134.539 130.102C133.822 131.066 131.959 131.204 130.955 131.204ZM6.5632 103.974C5.96994 103.974 4.75664 104.182 4.13258 105.763C3.70458 106.85 2.99154 107.844 2.01319 108.719L1.99736 108.732C1.92163 108.791 0.137399 110.208 0.676673 112.303C0.908593 113.213 1.5554 114.128 2.5994 115.025C3.02768 115.394 3.78002 115.906 4.24271 116.143C4.87527 116.465 6.55788 117.321 8.27187 120.045C8.87924 121.014 9.55931 121.865 10.2932 122.575C10.3237 122.605 10.3519 122.632 10.3806 122.658C10.4144 122.69 10.4488 122.722 10.4832 122.756C11.0542 123.292 11.8052 123.616 12.5917 123.663L130.335 130.609C131.157 130.672 133.42 130.644 134.077 129.76C134.319 129.432 134.322 129.004 134.086 128.451C132.818 125.494 132.717 125.137 132.59 124.003C132.221 120.7 134.198 117.464 134.59 116.956C134.616 116.89 134.683 116.669 134.549 116.423C134.402 116.152 133.899 115.666 132.19 115.453L6.91762 104.003L6.90353 104C6.88467 103.997 6.75697 103.974 6.5632 103.974Z" fill="#81291A"/>
<defs>
<linearGradient id="paint0_linear_4343_12354" x1="134.918" y1="125.021" x2="196.096" y2="125.021" gradientUnits="userSpaceOnUse">
<stop offset="0.2305" stop-color="#F7432B"/>
<stop offset="0.4228" stop-color="#F96D30"/>
</linearGradient>
<linearGradient id="paint1_linear_4343_12354" x1="140.014" y1="128.644" x2="192.695" y2="128.644" gradientUnits="userSpaceOnUse">
<stop offset="0.5772" stop-color="#F96D30"/>
<stop offset="0.7695" stop-color="#F7432B"/>
</linearGradient>
</defs>
</svg>
