<svg width="309" height="244" viewBox="0 0 309 244" fill="none" xmlns="http://www.w3.org/2000/svg">
<path d="M152.056 119.844C131.437 100.123 100.712 99.7288 90.8337 99.6565C82.3882 99.5947 44.1268 99.3151 20.0148 123.881C-1.69437 145.998 -3.90598 180.078 18.7971 203.743C40.9089 226.793 78.3117 231.254 106.989 224.223C110.726 223.307 149.178 213.293 163.167 181.177C164.377 178.398 178.223 144.873 152.056 119.844Z" fill="#C16429"/>
<path d="M152.979 123.425C132.098 100.91 100.798 100.093 90.7348 99.8925C82.1311 99.7206 43.1533 98.9423 18.4342 126.386C-3.82167 151.095 -6.28903 189.545 16.6913 216.539C39.0732 242.83 77.1501 248.319 106.409 240.727C110.223 239.738 149.459 228.897 163.913 192.806C165.163 189.683 179.48 152 152.979 123.425Z" fill="#C16429"/>
<path opacity="0.7" d="M152.417 121.965C131.535 99.4493 100.236 98.6326 90.1723 98.4316C81.5686 98.2597 42.5908 97.4813 17.8717 124.925C-4.38417 149.634 -6.85153 188.084 16.1288 215.078C38.5107 241.369 76.5876 246.858 105.847 239.266C109.66 238.277 148.896 227.436 163.35 191.345C164.601 188.222 178.918 150.539 152.417 121.965Z" fill="#B15025"/>
<path d="M152.022 118.584C132.403 101.118 103.608 100.392 93.8804 100.147C86.7991 99.9688 43.9895 98.8904 17.9464 125.731C-3.4276 147.759 -5.68951 180.534 16.625 203.949C36.0967 224.381 69.3734 232.534 99.461 227.252C139.205 220.274 156.548 192.808 159.129 188.542C171.144 168.685 174.629 138.712 152.022 118.584ZM154.378 180.312C141.507 209.255 106.227 218.311 102.798 219.14C76.4872 225.501 42.1868 221.517 21.9343 200.775C1.1403 179.478 3.21068 148.778 23.1495 128.835C45.2952 106.684 80.3882 106.9 88.1343 106.948C97.195 107.003 125.375 107.33 144.262 125.075C168.232 147.597 155.491 177.808 154.378 180.312Z" fill="#B15025"/>
<path opacity="0.1" d="M120.495 138.716C117.582 134.382 113.395 131.48 111.724 130.399C107.038 127.368 103.326 127.532 100.999 124.382C99.585 122.469 99.4827 120.614 97.5161 120.251C96.0893 119.988 94.7181 120.701 92.9994 121.476C92.9994 121.476 92.4111 123.474 82.8238 125.123C70.8332 127.186 68.6629 125.109 62.8522 127.323C58.4585 128.997 57.7664 131.533 53.3155 131.92C50.314 132.182 47.6907 131.365 47.0269 132.104C46.4156 132.784 48.4911 133.644 48.756 135.42C49.043 137.344 46.743 137.987 45.5503 140.361C43.6759 144.093 47.1155 145.44 45.1823 148.408C43.1823 151.479 37.9598 152.402 38.5021 153.535C38.8222 154.203 40.6218 153.842 42.5216 154.532C46.0304 155.808 44.9887 158.895 47.4061 163.511C49.9369 168.344 52.6356 167.9 53.7113 171.96C54.3368 174.321 53.9032 176.125 55.6734 176.778C57.3693 177.404 59.0198 176.21 62.174 176.432C64.9155 176.624 66.36 177.77 68.0835 178.54C75.6373 181.917 85.5131 180.772 87.6032 180.53C93.5863 179.836 92.9694 178.818 100.023 178.202C104.164 177.84 106.496 178.05 109.253 176.801C110.374 176.294 111.097 175.757 114.107 172.756C119.202 167.676 118.373 167.866 119.93 166.767C124.973 163.207 129.718 162.874 129.712 161.02C129.708 159.803 127.663 159.605 125.953 157.661C124.026 155.469 124.578 153.393 124.637 151.067C124.788 145.105 121.629 140.404 120.495 138.716Z" fill="#5F0404"/>
<path opacity="0.2" d="M137.122 153.836C136.362 152.529 136.259 151.527 136.428 147.062C136.618 142.004 136.815 141.563 136.784 141.177C136.784 141.177 136.766 141.038 136.731 140.898C136.535 140.114 132.416 135.522 131.445 134.299C129.693 132.093 130.864 131.623 128.956 128.456C127.97 126.818 126.429 124.26 123.654 122.937C119.731 121.068 115.781 122.832 111.923 120.857C111.349 120.564 110.807 120.298 110.258 119.727C108.614 118.018 109.126 115.798 105.985 114.862C103.419 114.098 102.413 115.382 97.8353 115.004C92.8325 114.592 92.8389 113.353 88.5643 112.974C84.1957 112.587 82.8457 114.038 77.1128 113.421C75.8233 113.282 75.6367 113.165 73.6401 112.831C70.7553 112.348 69.2874 112.114 68.0339 112.441C66.8942 112.738 66.8599 113.102 65.1216 114.09C61.566 116.111 60.3064 115.674 56.4946 117.509C52.0815 119.632 52.3195 121.985 50.3387 123.883C49.965 124.242 49.7897 124.31 47.5536 125.535C42.8264 128.127 42.4732 128.372 42.0632 128.781C40.5732 130.266 41.2885 130.964 39.7908 133.867C37.6304 138.054 35.4318 137.979 33.8399 142.079C33.4304 143.133 32.989 144.343 32.8561 146.017C32.6813 148.217 33.2532 149.575 32.8156 151.299C32.4865 152.596 32.0543 152.417 31.4953 153.9C31.068 155.033 30.2031 157.327 31.134 159.188C31.999 160.917 34.323 162.088 35.649 162.756C35.8932 162.879 36.248 163.038 36.6402 163.388C37.5772 164.223 37.5183 165.281 39.6274 167.905C42.0036 170.861 44.4434 172.261 46.9445 175.598C48.9065 178.216 48.2067 178.56 49.6381 179.856C51.4951 181.538 53.6716 181.864 57.9466 182.21C70.0799 183.192 70.7415 182.654 73.6405 183.757C77.823 185.349 78.1705 187.269 82.6689 187.896C84.3213 188.126 86.8011 188.472 89.0167 187.649C90.1017 187.246 91.2192 186.531 94.2144 185.341C94.4019 185.266 94.6591 185.165 94.9803 185.043C99.3486 183.392 106.71 182.18 106.71 182.18C116.159 180.638 116.885 180.856 118.677 179.849C119.178 179.568 120.09 179.007 122.729 175.941C126.113 172.009 126.211 170.767 127.208 169.583C127.706 168.992 128.198 168.66 128.353 168.542C130.446 166.954 140.133 158.673 138.819 156.131C138.575 155.66 137.951 155.263 137.122 153.836Z" fill="#5F0404"/>
<path opacity="0.3" d="M115.04 159.099C115.405 157.499 114.766 157.374 114.761 153.952C114.757 150.578 115.378 150.032 115.283 148.286C115.174 146.276 114.268 145.491 109.389 139.594C104.062 133.156 103.483 132.087 101.051 131.195C99.8131 130.742 99.4583 130.834 93.0559 130.406C81.7445 129.652 81.0368 129.244 78.6888 129.869C76.0357 130.576 77.0508 131.067 69.6806 135.561C63.4879 139.337 61.3249 139.872 60.1913 142.348C59.4172 144.039 60.1426 144.409 59.1042 147.625C58.111 150.702 57.1905 151.16 56.8214 152.901C56.2276 155.703 58.1328 156.771 60.0208 160.904C63.1223 167.695 60.7758 170.933 64.2316 172.981C65.7477 173.88 66.3381 173.266 71.2321 173.903C79.5119 174.981 79.5798 176.855 84.6752 176.923C89.0163 176.98 88.3647 175.613 97.7262 174.261C101.783 173.675 103.046 173.788 104.742 172.757C107.276 171.216 106.634 169.721 109.471 165.904C112.442 161.906 114.414 161.84 115.04 159.099Z" fill="#E1C183"/>
<path opacity="0.5" d="M112.512 156.447C113.159 153.144 109.908 151.507 111.576 149.09C112.68 147.491 114.535 147.583 114.807 146.352C115.163 144.737 112.04 144.26 108.605 140.725C106.799 138.866 104.782 136.79 103.508 133.759C103.121 132.839 102.94 132.157 102.08 131.644C100.504 130.703 98.8203 131.622 94.7358 131.764C93.4999 131.807 90.292 131.898 86.8171 130.985C83.8051 130.193 83.7488 129.477 82.1862 129.534C79.8631 129.62 79.5587 131.218 74.9891 134.255C71.0866 136.848 69.1354 138.144 66.4922 138.721C65.6742 138.9 64.6602 139.052 63.913 139.749C62.7209 140.861 63.297 142.345 63.4316 143.92C63.7861 148.07 60.7324 148.839 61.0123 152.218C61.2614 155.226 63.7055 154.935 65.5804 158.949C67.9607 164.046 65.4912 167.663 68.1464 168.876C69.5259 169.506 70.2403 168.552 73.9579 168.851C75.556 168.979 77.3042 169.466 80.7353 170.435C86.0913 171.948 86.9229 172.453 88.4583 172.095C90.7475 171.56 90.3862 170.089 92.6965 169.094C97.1649 167.169 102.358 171.017 104.934 169.272C106.175 168.431 105.116 167.436 105.993 164.798C107.522 160.192 111.805 160.051 112.512 156.447Z" fill="#AB8247"/>
<path opacity="0.3" d="M101.896 145.215C98.4932 139.267 90.5176 138.467 89.2531 138.358C87.3699 138.197 80.3953 137.842 74.2534 142.008C68.5569 145.871 65.9127 152.038 67.6588 156.874C69.3653 161.6 74.697 163.482 77.8056 164.578C80.4358 165.507 83.59 166.619 87.8513 165.974C95.7358 164.78 100.23 158.655 100.724 157.96C105.317 151.491 102.147 145.654 101.896 145.215Z" fill="#5F0404"/>
<path opacity="0.2" d="M138.377 119.042C137.813 119.623 111.254 106.18 103.91 107.583C103.238 107.712 99.2378 108.632 93.9225 108.272C93.7371 108.259 93.6066 108.249 93.5118 108.242C84.8436 107.568 71.9743 107.718 71.9162 107.045C71.8627 106.426 82.5721 104.054 95.4625 104.402C110.43 104.806 120.476 108.664 122.486 109.459C132.555 113.44 138.677 118.732 138.377 119.042Z" fill="#712901"/>
<path opacity="0.2" d="M62.1004 213.826C62.2767 213.115 94.0242 215.629 99.8619 211.807C100.396 211.457 103.486 209.238 108.501 207.685C108.676 207.631 108.8 207.594 108.89 207.567C117.118 205.112 128.674 200.452 129.113 201.025C129.517 201.552 121.192 207.412 109.331 211.641C95.5591 216.551 84.2555 216.682 81.9803 216.688C70.5845 216.719 62.0063 214.205 62.1004 213.826Z" fill="#712901"/>
<path opacity="0.2" d="M57.5149 198.014C57.7351 197.315 89.2648 201.798 95.3289 198.347C95.8841 198.031 99.1059 196.009 104.208 194.771C104.386 194.728 104.512 194.699 104.603 194.677C112.968 192.738 124.791 188.806 125.194 189.405C125.565 189.957 116.891 195.287 104.79 198.77C90.7392 202.814 79.4495 202.242 77.1782 202.107C65.8026 201.429 57.3974 198.387 57.5149 198.014Z" fill="#712901"/>
<path opacity="0.2" d="M104.39 206.793C104.022 206.139 132.431 194.058 134.546 188.371C134.739 187.851 135.716 184.683 138.789 181.197C138.896 181.076 138.973 180.991 139.029 180.929C144.137 175.285 150.431 166.378 151.215 166.647C151.936 166.894 149.218 175.334 142.355 184.028C134.386 194.122 125.016 199.253 123.115 200.27C113.594 205.361 104.587 207.141 104.39 206.793Z" fill="#712901"/>
<path opacity="0.2" d="M67.1941 109.432C67.3031 109.71 57.4185 112.071 51.4665 115.328C51.048 115.557 49.6822 116.319 47.7171 117.237C45.0989 118.46 43.1084 119.168 42.5106 119.395C36.3725 121.718 32.1874 128.05 31.9433 127.926C31.722 127.813 34.173 122.102 41.0862 117.636C45.878 114.54 51.0551 113.179 58.6864 111.171C63.4684 109.914 67.1285 109.265 67.1941 109.432Z" fill="#712901"/>
<path opacity="0.2" d="M143.597 143.046C143.236 143.131 140.714 135.396 136.849 130.739C136.577 130.411 135.671 129.343 134.596 127.805C133.164 125.756 132.358 124.199 132.099 123.731C129.436 118.928 121.554 115.655 121.725 115.464C121.88 115.291 129.056 117.207 134.417 122.616C138.134 126.365 139.616 130.416 141.799 136.388C143.168 140.13 143.814 142.994 143.597 143.046Z" fill="#712901"/>
<path opacity="0.2" d="M132.523 199.474C132.355 199.144 139.279 194.872 142.896 190.02C143.151 189.679 143.976 188.547 145.218 187.141C146.872 185.267 148.197 184.117 148.59 183.755C152.632 180.037 153.959 171.607 154.185 171.728C154.39 171.838 154.215 179.262 150.22 185.746C147.45 190.24 143.861 192.633 138.571 196.161C135.255 198.371 132.624 199.673 132.523 199.474Z" fill="#DD9C59"/>
<path opacity="0.2" d="M130.697 179.499C130.49 179.245 135.684 174.257 137.907 169.385C138.063 169.042 138.566 167.909 139.378 166.46C140.459 164.531 141.39 163.289 141.663 162.902C144.466 158.932 144.04 151.391 144.259 151.454C144.456 151.51 145.691 157.966 143.445 164.321C141.887 168.725 139.229 171.465 135.311 175.504C132.856 178.035 130.822 179.653 130.697 179.499Z" fill="#DD9C59"/>
<path opacity="0.2" d="M72.6906 205.498C72.8004 205.144 80.7445 206.901 86.7195 205.938C87.1395 205.87 88.5205 205.633 90.3908 205.488C92.8829 205.296 94.6339 205.393 95.1686 205.407C100.658 205.554 107.482 200.428 107.56 200.673C107.63 200.894 102.334 206.101 94.9513 207.971C89.8339 209.267 85.5918 208.485 79.3385 207.332C75.4201 206.61 72.6245 205.711 72.6906 205.498Z" fill="#DD9C59"/>
<path opacity="0.2" d="M55.5966 219.208C55.8082 218.686 67.6177 222.364 76.792 221.669C77.437 221.621 79.5592 221.437 82.4111 221.458C86.2108 221.485 88.8508 221.856 89.6589 221.946C97.9562 222.871 108.949 215.979 109.035 216.359C109.114 216.704 100.425 223.913 89.0018 225.802C81.0839 227.111 74.7578 225.384 65.4326 222.837C59.5891 221.241 55.4692 219.523 55.5966 219.208Z" fill="#DD9C59"/>
<path opacity="0.2" d="M86.3086 104.557C86.308 105.107 74.8192 105.849 71.3678 106.43C71.2749 106.446 70.8455 106.518 70.2629 106.604C69.4458 106.724 68.2771 106.874 66.8869 106.983C65.2338 107.112 63.8479 107.137 62.8222 107.129C61.8475 107.122 61.1348 107.09 61.0551 107.087C57.1623 106.927 34.2532 115.576 34.3048 115.677C34.3408 115.747 45.6697 111.869 53.2867 106.916C54.4066 106.188 57.2828 104.242 61.3175 103.957C63.0495 103.835 63.409 104.131 65.9788 104.332C70.7694 104.708 72.1656 103.887 77.323 103.771C82.0078 103.666 86.309 104.221 86.3086 104.557Z" fill="#DD9C59"/>
<path opacity="0.2" d="M140.803 117.171C140.519 117.523 132.304 111.941 125.094 110.334C124.587 110.221 122.914 109.866 120.728 109.185C119.145 108.691 117.849 108.2 116.899 107.813C116.007 107.449 115.366 107.159 115.274 107.118C111.603 105.476 91.9301 103.904 91.9258 103.654C91.9237 103.53 96.8253 103.022 104.842 103.318C110.625 103.531 113.516 103.637 116.678 104.309C124.34 105.937 129.681 109.312 134.094 112.088C138.21 114.677 140.974 116.959 140.803 117.171Z" fill="#DD9C59"/>
<path opacity="0.2" d="M22.9681 170.848C23.3223 170.458 29.7812 179.286 36.2385 182.833C36.6924 183.082 38.1953 183.881 40.1068 185.204C42.6536 186.967 44.2803 188.52 44.7878 188.973C49.9984 193.629 60.1914 192.231 60.0956 192.625C60.0086 192.982 51.238 195.729 42.7827 192.267C36.9221 189.867 33.3638 185.364 28.1186 178.727C24.8318 174.569 22.755 171.083 22.9681 170.848Z" fill="#DD9C59"/>
<path opacity="0.2" d="M125.755 120.836C125.553 121.086 117.038 116.769 110.123 115.395C109.637 115.299 108.036 114.994 105.906 114.435C103.069 113.69 101.127 112.976 100.531 112.771C94.408 110.663 85.6127 112.394 85.5802 112.166C85.5506 111.958 92.6507 109.608 101.347 110.748C107.374 111.538 111.956 113.716 118.71 116.925C122.943 118.936 125.877 120.685 125.755 120.836Z" fill="#712901"/>
<path opacity="0.2" d="M42.2774 196.703C42.5206 196.475 50.1746 201.676 56.7612 203.78C57.2243 203.928 58.752 204.403 60.7568 205.186C63.428 206.229 65.2204 207.146 65.7734 207.414C71.4503 210.163 80.4351 209.382 80.4274 209.613C80.4204 209.822 73.0013 211.4 64.6153 209.338C58.8028 207.908 54.6588 205.254 48.5505 201.343C44.7227 198.891 42.131 196.839 42.2774 196.703Z" fill="#712901"/>
<path opacity="0.2" d="M31.8329 219.735C32.111 219.475 40.864 225.422 48.3964 227.829C48.926 227.998 50.673 228.541 52.9657 229.436C56.0205 230.629 58.0703 231.678 58.7025 231.984C65.1945 235.129 75.4694 234.235 75.4606 234.498C75.4526 234.738 66.9682 236.543 57.3782 234.184C50.731 232.55 45.9921 229.515 39.0066 225.041C34.6293 222.238 31.6655 219.891 31.8329 219.735Z" fill="#712901"/>
<path opacity="0.2" d="M78.1163 229.662C78.2361 229.3 88.7679 230.336 96.5337 228.847C97.0796 228.742 98.8734 228.383 101.315 228.072C104.568 227.659 106.87 227.599 107.572 227.565C114.777 227.221 123.372 221.521 123.491 221.757C123.598 221.971 117.011 227.614 107.461 230.131C100.842 231.875 95.2286 231.477 86.9542 230.89C81.7693 230.522 78.0441 229.879 78.1163 229.662Z" fill="#712901"/>
<path opacity="0.2" d="M119.928 215.396C119.871 215.02 129.731 211.176 135.981 206.332C136.42 205.991 137.857 204.859 139.894 203.477C142.607 201.635 144.633 200.54 145.243 200.192C151.512 196.624 156.596 187.65 156.808 187.807C157.001 187.949 153.682 195.963 146.306 202.53C141.194 207.082 136.008 209.268 128.364 212.49C123.575 214.51 119.962 215.623 119.928 215.396Z" fill="#712901"/>
<g opacity="0.7">
<path d="M102.026 138.824C99.9791 134.205 101.944 130.269 97.956 127.936C95.9453 126.759 93.5818 126.67 92.5638 126.69C85.4782 126.829 84.1951 133.449 75.6679 136.323C67.8977 138.941 63.333 135.342 59.3211 138.406C55.896 141.023 55.4007 146.566 57.8565 150.223C60.8873 154.738 67.5888 155.152 68.9728 160.242C69.1219 160.791 68.9395 160.401 69.2397 163.232C69.7587 168.126 70.044 170.603 71.3105 172.029C72.4613 173.326 75.0791 175.162 78.0896 175.065C85.2287 174.833 87.2559 163.961 95.2568 163.46C96.9895 163.351 98.8287 163.74 102.537 163.188C103.268 163.079 105.811 162.7 107.855 161.916C112.291 160.213 116.679 155.715 116.272 151.708C115.68 145.872 105.475 146.604 102.026 138.824Z" fill="#603A14"/>
<path d="M101.058 139.498C99.134 135.158 100.98 131.459 97.233 129.267C95.3435 128.161 93.1227 128.077 92.1662 128.096C85.5081 128.227 84.3024 134.448 76.2897 137.148C68.9884 139.608 64.6991 136.226 60.9292 139.106C57.7108 141.564 57.2454 146.773 59.553 150.21C62.4009 154.451 68.6981 154.84 69.9985 159.624C70.1387 160.139 69.9672 159.773 70.2493 162.433C70.7369 167.032 71.0051 169.359 72.1951 170.7C73.2764 171.918 75.7363 173.644 78.5652 173.552C85.2735 173.335 87.1784 163.118 94.6965 162.647C96.3246 162.545 98.053 162.911 101.538 162.392C102.224 162.29 104.614 161.934 106.535 161.196C110.703 159.597 114.826 155.37 114.444 151.605C113.887 146.121 104.299 146.809 101.058 139.498Z" fill="#AD8843"/>
<path d="M75.8233 137.986C72.6596 139.794 71.2799 142.354 70.0764 144.587C69.1538 146.3 66.0246 152.107 69.1475 155.091C70.5743 156.454 72.0888 156.065 76.4547 157.116C85.4946 159.291 86.4307 162.746 90.0302 162.091C93.9626 161.376 95.825 156.71 99.1462 148.389C101.194 143.259 100.812 142.177 100.616 141.729C98.2485 136.307 83.7542 133.454 75.8233 137.986Z" fill="#C2A753"/>
<path d="M80.324 144.396C79.905 144.635 78.1996 145.619 77.7582 147.343C77.1145 149.857 79.4199 152.852 82.9095 153.323C82.9095 153.323 87.4717 153.939 90.7371 149.041C91.0904 148.511 91.8226 147.358 91.4231 146.144C91.4132 146.113 91.4028 146.089 91.3933 146.067C90.3363 143.646 83.8649 142.372 80.324 144.396Z" fill="#644323"/>
<path d="M79.8689 144.305C79.5139 144.508 78.069 145.341 77.6948 146.802C77.1494 148.932 79.1029 151.47 82.0597 151.869C82.0597 151.869 85.9254 152.391 88.6923 148.241C88.9917 147.791 89.6121 146.815 89.2736 145.786C89.2652 145.76 89.2564 145.739 89.2484 145.721C88.3526 143.67 82.8693 142.59 79.8689 144.305Z" fill="#533314"/>
<path d="M87.4829 148.953C90.2567 147.423 92.8736 148.756 94.3383 147.311C95.5728 146.092 95.0699 143.807 93.631 142.539C92.2209 141.297 90.1763 141.265 86.9141 141.214C83.9803 141.168 82.4567 141.144 81.1638 141.977C78.508 143.689 79.4203 147.346 79.662 148.315C80.2148 150.531 81.9304 153.353 83.5473 153.226C85.0755 153.107 84.6846 150.496 87.4829 148.953Z" fill="#462E15"/>
<path opacity="0.51" d="M85.6123 147.886C88.0366 146.466 90.0637 147.415 91.4036 146.139C92.5329 145.063 92.3333 143.207 91.2687 142.244C90.2254 141.3 88.547 141.391 85.8692 141.536C83.4609 141.666 82.2102 141.733 81.069 142.495C78.7248 144.059 79.1325 147.023 79.2404 147.808C79.4875 149.605 80.6342 151.833 81.9757 151.636C83.2437 151.45 83.1667 149.32 85.6123 147.886Z" fill="#A67C52"/>
<path d="M87.0949 146.281C84.2216 147.259 82.2659 145.715 80.5752 146.797C79.1502 147.71 78.9745 149.809 79.9046 151.133C80.8161 152.43 82.6187 152.739 85.4947 153.233C88.0812 153.677 89.4245 153.908 90.7964 153.346C93.6146 152.19 93.8007 148.817 93.8501 147.923C93.9629 145.878 93.21 143.137 91.7433 143.027C90.3569 142.923 89.9934 145.295 87.0949 146.281Z" fill="#462E15"/>
<path opacity="0.51" d="M88.46 147.495C85.9261 148.424 84.3885 147.301 82.8545 148.251C81.5616 149.051 81.2337 150.727 81.9151 151.729C82.5828 152.71 84.0943 152.86 86.506 153.1C88.6748 153.315 89.8012 153.427 91.0192 152.908C93.5212 151.841 93.9658 149.152 94.0836 148.44C94.353 146.811 93.943 144.674 92.7012 144.664C91.5272 144.655 91.0163 146.558 88.46 147.495Z" fill="#A67C52"/>
<path d="M89.647 145.805C90.4956 147.331 89.1214 148.435 90.0691 149.318C90.8678 150.062 92.7211 150.095 93.8954 149.553C95.046 149.021 95.3289 148.037 95.7803 146.466C96.1862 145.053 96.397 144.319 95.9073 143.594C94.9014 142.103 91.922 142.102 91.1326 142.102C89.3271 142.101 86.9011 142.589 86.7964 143.386C86.6973 144.139 88.791 144.266 89.647 145.805Z" fill="#533314"/>
<path opacity="0.51" d="M90.7247 145.035C91.5318 146.378 90.5324 147.244 91.3632 148.046C92.0633 148.722 93.5423 148.849 94.4307 148.451C95.3013 148.061 95.4419 147.239 95.6661 145.927C95.8679 144.747 95.9726 144.134 95.5201 143.49C94.5906 142.168 92.2177 142.007 91.589 141.964C90.1511 141.866 88.2609 142.151 88.2462 142.824C88.2321 143.459 89.9104 143.679 90.7247 145.035Z" fill="#A67C52"/>
<path d="M82.9069 149.791C82.0523 148.268 83.4223 147.161 82.4711 146.28C81.6695 145.538 79.8158 145.509 78.6437 146.054C77.495 146.588 77.216 147.574 76.7706 149.145C76.3702 150.559 76.1623 151.293 76.6547 152.017C77.6666 153.506 80.6461 153.5 81.4357 153.498C83.2412 153.494 85.6655 153 85.7671 152.203C85.8633 151.45 83.7689 151.328 82.9069 149.791Z" fill="#533314"/>
<path opacity="0.51" d="M81.8331 150.573C81.0207 149.231 82.0168 148.363 81.1829 147.563C80.48 146.889 79.0005 146.765 78.1135 147.165C77.2444 147.557 77.107 148.38 76.8879 149.693C76.6908 150.873 76.5884 151.486 77.0434 152.128C77.9781 153.448 80.3518 153.604 80.9807 153.645C82.4191 153.739 84.3082 153.45 84.3204 152.778C84.332 152.142 82.6527 151.926 81.8331 150.573Z" fill="#A67C52"/>
<path d="M86.8316 152.154C89.806 152.003 92.1217 149.996 92.0039 147.671C91.8861 145.347 89.3795 143.584 86.4051 143.735C83.4307 143.886 81.115 145.892 81.2328 148.217C81.3506 150.542 83.8573 152.304 86.8316 152.154Z" fill="#603E2D"/>
<path opacity="0.51" d="M86.387 151.358C89.0309 151.224 91.0893 149.44 90.9846 147.374C90.8799 145.307 88.6518 143.741 86.0079 143.875C83.364 144.009 81.3056 145.792 81.4103 147.859C81.515 149.925 83.7431 151.492 86.387 151.358Z" fill="#A67C52"/>
</g>
<path opacity="0.2" d="M43.5387 115.076C44.0674 115.656 19.1415 131.846 18.4998 137.72C18.4411 138.258 18.2812 141.499 16.1377 145.375C16.0629 145.51 16.0085 145.605 15.9691 145.673C12.3673 151.97 8.42364 161.633 7.58357 161.493C6.81037 161.364 7.34968 152.71 11.9077 143.168C17.2001 132.088 25.1305 125.629 26.7455 124.343C34.8345 117.901 43.2568 114.766 43.5387 115.076Z" fill="#712901"/>
<path opacity="0.2" d="M6.66865 167.055C7.10444 166.995 8.02351 176.382 11.269 182.298C11.4971 182.714 12.264 184.074 13.1045 186.005C13.6948 187.361 14.1203 188.537 14.4169 189.431C14.7151 190.329 14.904 190.994 14.9292 191.081C15.926 194.52 26.7575 204.961 26.6666 205.083C26.5943 205.179 17.4461 201.647 11.984 192.131C8.60254 186.239 7.68502 179.941 7.0311 175.091C6.41671 170.534 6.40642 167.091 6.66865 167.055Z" fill="#712901"/>
<path opacity="0.2" d="M17.2385 183.424C17.6268 183.256 23.0394 191.575 29.0034 196.119C29.4227 196.438 30.8134 197.477 32.5503 199.017C34.8645 201.07 36.2978 202.686 36.7482 203.168C41.373 208.116 51.5202 210.286 51.3849 210.537C51.2621 210.766 42.3692 210.004 34.4361 204.899C28.9374 201.361 25.9178 197.036 21.4666 190.659C18.6773 186.664 17.0048 183.526 17.2385 183.424Z" fill="#712901"/>
<path opacity="0.2" d="M15.2377 154.531C15.6122 154.534 15.4294 162.559 17.5683 167.941C17.7187 168.319 18.228 169.559 18.7411 171.289C19.4249 173.593 19.6736 175.279 19.7649 175.79C20.7021 181.03 27.1566 186.025 26.9285 186.168C26.7215 186.298 20.4883 182.773 17.1674 176.317C14.8656 171.843 14.8078 167.602 14.7224 161.351C14.6688 157.434 15.0123 154.53 15.2377 154.531Z" fill="#712901"/>
<path opacity="0.2" d="M23.4233 153.789C23.6588 153.791 23.5438 158.837 24.8888 162.221C24.9834 162.459 25.3035 163.238 25.6263 164.326C26.0561 165.775 26.2126 166.835 26.27 167.156C26.8593 170.451 30.9179 173.592 30.7744 173.682C30.6443 173.764 26.7248 171.547 24.6367 167.488C23.1893 164.674 23.1529 162.008 23.0992 158.077C23.0656 155.614 23.2815 153.788 23.4233 153.789Z" fill="#712901"/>
<path opacity="0.2" d="M26.6251 129.707C26.8145 129.847 23.7523 133.859 22.8484 137.387C22.7849 137.635 22.5852 138.454 22.206 139.523C21.7009 140.947 21.2036 141.897 21.0612 142.19C19.5988 145.201 21.0323 150.128 20.8633 150.117C20.71 150.106 18.8451 146.008 19.5453 141.497C20.0307 138.37 21.5703 136.193 23.8398 132.983C25.2619 130.972 26.5111 129.623 26.6251 129.707Z" fill="#712901"/>
<path opacity="0.2" d="M41.0021 125.841C41.2181 126.143 35.0188 131.412 32.1768 136.755C31.977 137.131 31.3321 138.375 30.3173 139.953C28.9653 142.055 27.83 143.392 27.4956 143.809C24.0623 148.095 24.025 156.63 23.7833 156.544C23.5641 156.466 22.6142 149.101 25.5838 142.087C27.6421 137.226 30.8281 134.318 35.5246 130.031C38.4675 127.345 40.8722 125.66 41.0021 125.841Z" fill="#DD9C59"/>
<path opacity="0.2" d="M113.225 233.568C113.212 233.114 122.979 229.386 129.433 224.154C129.887 223.786 131.373 222.56 133.455 221.089C136.228 219.13 138.268 217.999 138.885 217.638C145.218 213.927 151.017 203.673 151.201 203.878C151.368 204.064 147.347 213.328 139.637 220.516C134.293 225.498 129.139 227.655 121.54 230.834C116.779 232.826 113.232 233.841 113.225 233.568Z" fill="#DD9C59"/>
<path opacity="0.2" d="M12.0278 196.942C12.3459 196.733 19.9665 204.075 26.9831 207.722C27.4764 207.978 29.1064 208.808 31.2146 210.079C34.0235 211.771 35.8663 213.152 36.4377 213.56C42.3042 217.758 52.5822 218.615 52.5289 218.874C52.4806 219.108 43.813 219.451 34.7602 215.505C28.4854 212.769 24.3283 208.976 18.2003 203.385C14.3605 199.882 11.8363 197.068 12.0278 196.942Z" fill="#712901"/>
<path d="M157.52 192.061C158.868 207.564 142.031 219.259 133.484 225.196C115.955 237.371 97.7103 239.589 89.2304 240.134C84.0986 240.464 42.2221 242.522 17.9077 213.065C16.4988 211.358 -3.07093 187.099 5.21561 170.159C5.75327 169.06 8.85123 162.727 14.7627 161.398C23.2908 159.481 29.8414 169.74 40.0345 177.235C61.6516 193.13 89.9705 189.477 95.1832 188.804C122.326 185.302 132.725 167.346 146.176 173.978C153.323 177.501 156.974 185.779 157.52 192.061Z" fill="#FC931B"/>
<path d="M157.628 192.28C157.082 185.998 153.43 177.72 146.284 174.197C132.833 167.565 122.434 185.521 95.2906 189.023C90.0779 189.695 61.759 193.349 40.1419 177.454C29.9488 169.959 23.3982 159.7 14.8701 161.617C8.95866 162.946 5.8606 169.279 5.32303 170.378C-2.96351 187.318 16.6062 211.577 18.0151 213.284C42.3294 242.741 84.2059 240.682 89.3378 240.353C97.8176 239.808 116.062 237.59 133.592 225.414C142.138 219.478 158.976 207.783 157.628 192.28ZM129.469 218.966C123.983 223.337 110.102 234.092 88.8578 236.106C65.0092 238.366 41.743 228.675 27.057 212.952C25.8078 211.615 5.09634 188.995 11.9321 174.411C12.3262 173.57 14.2108 169.549 18.1102 168.221C26.5793 165.336 37.925 177.409 42.1196 181.875C52.9547 193.414 51.1339 198.043 62.0442 210.588C68.8471 218.41 76.8413 227.603 85.7435 226.425C90.642 225.777 93.8307 222.091 100.008 214.744C111.345 201.262 109.676 195.82 118.428 187.9C124.939 182.008 136.527 175.044 142.959 179.067C147.879 182.144 147.72 190.349 147.692 191.814C147.443 204.644 136.149 213.643 129.469 218.966Z" fill="#FF852A"/>
<path opacity="0.2" d="M80.1317 215.525C74.7843 214.812 74.4797 208.928 65.0809 198.34C53.5474 185.348 41.9853 180.667 42.7294 179.246C43.5979 177.588 57.5357 187.423 75.9759 189.355C105.379 192.435 129.355 173.654 130.338 175.54C130.993 176.795 118.717 181.979 104.617 194.634C90.3906 207.403 86.9463 216.434 80.1317 215.525Z" fill="#BC3E14"/>
<path opacity="0.2" d="M77.2014 214.077C72.096 213.397 71.8052 207.779 62.8317 197.67C51.8199 185.265 40.7811 180.796 41.4915 179.44C42.3207 177.856 55.6279 187.246 73.2337 189.091C101.306 192.032 124.198 174.101 125.136 175.901C125.761 177.1 114.041 182.049 100.579 194.131C86.9962 206.322 83.7077 214.944 77.2014 214.077Z" fill="#BC3E14"/>
<path opacity="0.2" d="M80.4573 214.64C75.3518 213.959 75.0611 208.341 66.0875 198.232C55.0758 185.827 44.037 181.359 44.7474 180.002C45.5765 178.419 58.8837 187.809 76.4895 189.653C104.562 192.594 127.454 174.663 128.392 176.463C129.017 177.662 117.297 182.611 103.835 194.694C90.252 206.884 86.9636 215.507 80.4573 214.64Z" fill="#BC3E14"/>
<path opacity="0.2" d="M80.0085 213.624C75.1893 212.964 75.6039 207.247 65.6388 197.217C58.2013 189.731 52.4146 187.323 53.0611 185.766C53.8949 183.758 63.5465 187.706 76.0407 188.638C99.4809 190.386 116.663 180.304 117.645 182.621C118.21 183.956 112.186 186.542 103.386 193.678C88.393 205.836 86.0047 214.446 80.0085 213.624Z" fill="#BC3E14"/>
<path d="M224.747 28.5698C206.22 6.87166 175.691 3.38409 165.87 2.31706C157.473 1.40483 119.435 -2.72792 92.9708 19.2837C69.1438 39.1017 63.5103 72.7849 83.7137 98.6175C103.391 123.778 140.154 131.984 169.393 127.877C173.204 127.342 212.469 121.253 229.622 90.7096C231.106 88.0668 248.26 56.1074 224.747 28.5698Z" fill="#C16429"/>
<path d="M225.302 32.2261C206.795 7.7217 175.737 3.75597 165.745 2.54224C157.203 1.50454 118.501 -3.19657 91.1434 21.6173C66.5116 43.9585 60.1832 81.9641 80.3273 111.136C99.9467 139.548 137.277 148.845 167.152 144.239C171.046 143.639 211.174 136.807 229.191 102.355C230.75 99.3743 248.79 63.3251 225.302 32.2261Z" fill="#C16429"/>
<path opacity="0.7" d="M224.892 30.7182C206.385 6.21389 175.327 2.24815 165.335 1.03442C156.792 -0.003275 118.091 -4.70438 90.7332 20.1096C66.1014 42.4508 59.7731 80.4564 79.9171 109.628C99.5366 138.04 136.867 147.337 166.742 142.732C170.636 142.131 210.764 135.299 228.781 100.847C230.339 97.8665 248.38 61.8172 224.892 30.7182Z" fill="#B15025"/>
<path d="M224.441 28.9686C206.178 8.08475 176.106 4.70087 166.431 3.66508C158.161 2.77955 120.691 -1.23211 94.6396 19.9088C71.1841 38.943 65.6579 71.3282 85.5747 96.1895C104.973 120.404 141.189 128.331 169.986 124.411C173.739 123.9 212.409 118.084 229.285 88.7289C230.745 86.189 247.619 55.4728 224.441 28.9686Z" fill="#C16429"/>
<path d="M224.842 27.3021C207.082 7.94759 178.508 4.32527 168.854 3.10142C161.827 2.2106 119.343 -3.17496 90.7286 20.9054C67.2443 40.6682 61.6921 73.0489 81.5342 98.5924C98.8486 120.882 131.135 132.346 161.601 130.122C201.846 127.184 221.868 101.604 224.865 97.6202C238.82 79.0739 245.307 49.6044 224.842 27.3021ZM220.968 88.9533C205.247 116.453 169.234 121.908 165.739 122.387C138.921 126.065 105.196 118.646 87.1364 95.9694C68.5936 72.6862 73.7462 42.3508 95.5928 24.5174C119.857 4.71022 154.75 8.46056 162.452 9.28842C171.461 10.2568 199.465 13.4205 216.468 32.9784C238.047 57.7998 222.328 86.5742 220.968 88.9533Z" fill="#B15025"/>
<path opacity="0.1" d="M191.445 44.1744C188.983 39.5683 185.11 36.2596 183.556 35.0158C179.199 31.5277 175.49 31.3169 173.492 27.9488C172.278 25.9025 172.363 24.0469 170.443 23.4879C169.05 23.0824 167.614 23.6539 165.826 24.2517C165.826 24.2517 165.039 26.18 155.334 26.855C143.197 27.6993 141.247 25.4141 135.243 27.0317C130.703 28.2548 129.759 30.708 125.291 30.645C122.279 30.6026 119.751 29.5261 119.016 30.1941C118.34 30.8094 120.318 31.8735 120.403 33.6672C120.494 35.6108 118.141 36.0185 116.715 38.2608C114.474 41.7846 117.761 43.4715 115.539 46.2297C113.239 49.0834 107.95 49.4759 108.376 50.6575C108.627 51.3548 110.454 51.1762 112.274 52.0549C115.637 53.6777 114.289 56.6437 116.229 61.4801C118.261 66.5434 120.99 66.3732 121.651 70.521C122.036 72.9327 121.423 74.6839 123.118 75.5121C124.742 76.3054 126.505 75.284 129.621 75.8224C132.329 76.2904 133.651 77.5753 135.288 78.5155C142.463 82.6363 152.404 82.4918 154.507 82.4612C160.53 82.3737 160.019 81.2987 167.099 81.3967C171.255 81.4541 173.554 81.898 176.423 80.9332C177.589 80.541 178.363 80.0799 181.659 77.3977C187.241 72.8566 186.396 72.9614 188.056 72.0249C193.432 68.9919 198.187 69.1383 198.368 67.2931C198.486 66.0823 196.471 65.6787 194.966 63.5725C193.27 61.1977 194.028 59.1874 194.321 56.8794C195.073 50.9628 192.403 45.9674 191.445 44.1744Z" fill="#5F0404"/>
<path opacity="0.2" d="M206.461 60.884C205.836 59.5073 205.836 58.4998 206.453 54.0745C207.152 49.0611 207.392 48.642 207.4 48.2554C207.4 48.2554 207.397 48.1156 207.376 47.973C207.26 47.1727 203.624 42.1891 202.781 40.875C201.26 38.5029 202.473 38.154 200.894 34.8107C200.077 33.0812 198.802 30.3808 196.174 28.7858C192.46 26.5309 188.352 27.8876 184.712 25.5344C184.171 25.1847 183.659 24.8658 183.17 24.2424C181.707 22.3765 182.439 20.2189 179.409 18.9717C176.933 17.9528 175.802 19.129 171.286 18.2923C166.35 17.378 166.481 16.1465 162.267 15.3388C157.959 14.5133 156.47 15.8206 150.829 14.6291C149.56 14.3611 149.386 14.2257 147.433 13.6925C144.612 12.9218 143.175 12.5406 141.895 12.7398C140.731 12.9208 140.66 13.2794 138.831 14.0873C135.09 15.7402 133.881 15.1782 129.904 16.6192C125.299 18.2877 125.299 20.6522 123.137 22.3415C122.729 22.6603 122.548 22.7103 120.2 23.7045C115.235 25.8066 114.859 26.015 114.41 26.3802C112.778 27.7073 113.419 28.4739 111.637 31.2113C109.066 35.1598 106.886 34.8632 104.889 38.7823C104.375 39.7903 103.814 40.9496 103.513 42.6014C103.118 44.7723 103.55 46.181 102.941 47.8524C102.483 49.1095 102.071 48.888 101.365 50.3071C100.826 51.3914 99.7344 53.5868 100.473 55.5317C101.16 57.3391 103.354 58.7381 104.606 59.5362C104.836 59.6832 105.173 59.8772 105.528 60.2647C106.376 61.1905 106.211 62.2365 108.045 65.0598C110.111 68.2408 112.398 69.8788 114.55 73.4512C116.238 76.2533 115.507 76.5247 116.801 77.9588C118.479 79.8195 120.612 80.363 124.83 81.1379C136.803 83.3371 137.515 82.8684 140.288 84.2582C144.289 86.2632 144.441 88.2088 148.854 89.2856C150.475 89.6811 152.907 90.2746 155.194 89.6791C156.314 89.3874 157.498 88.7887 160.598 87.9062C160.792 87.8509 161.058 87.7759 161.39 87.6874C165.902 86.4846 173.349 86.0202 173.349 86.0202C182.905 85.4379 183.605 85.7282 185.49 84.9072C186.016 84.678 186.98 84.2115 189.915 81.4265C193.677 77.8553 193.9 76.6294 195.012 75.5523C195.566 75.0148 196.089 74.7338 196.255 74.6324C198.498 73.263 208.97 66.0001 207.918 63.3384C207.723 62.8456 207.142 62.3869 206.461 60.884Z" fill="#5F0404"/>
<path opacity="0.3" d="M183.965 63.8988C184.49 62.3428 183.867 62.1548 184.207 58.7497C184.543 55.392 185.215 54.9111 185.297 53.165C185.391 51.1541 184.569 50.2816 180.308 43.9232C175.657 36.9812 175.189 35.8592 172.859 34.7275C171.673 34.1514 171.311 34.2071 164.984 33.1371C153.806 31.2465 153.143 30.7693 150.744 31.155C148.033 31.5908 148.994 32.1818 141.208 35.9104C134.667 39.0432 132.461 39.3577 131.084 41.707C130.143 43.3114 130.827 43.7524 129.47 46.8481C128.172 49.8089 127.21 50.1714 126.668 51.8671C125.795 54.5951 127.583 55.8492 129.045 60.1519C131.446 67.22 128.786 70.205 132.017 72.5915C133.435 73.6385 134.085 73.0871 138.889 74.2139C147.019 76.1205 146.897 77.9914 151.96 78.5722C156.273 79.0671 155.763 77.6405 165.213 77.239C169.308 77.065 170.553 77.3047 172.344 76.4497C175.02 75.1718 174.532 73.6196 177.74 70.1075C181.098 66.4296 183.067 66.5625 183.965 63.8988Z" fill="#E1C183"/>
<path opacity="0.5" d="M181.717 61.0041C182.693 57.7837 179.624 55.8273 181.527 53.5911C182.787 52.1113 184.623 52.3897 185.017 51.1925C185.534 49.6216 182.475 48.8315 179.414 44.9685C177.804 42.937 176.006 40.6692 175.044 37.5253C174.752 36.5704 174.641 35.8741 173.836 35.2763C172.363 34.1817 170.596 34.9261 166.518 34.6562C165.284 34.5745 162.083 34.3416 158.718 33.0832C155.801 31.9925 155.817 31.2743 154.257 31.1739C151.937 31.0247 151.473 32.5842 146.621 35.1448C142.477 37.3316 140.405 38.4249 137.717 38.7326C136.885 38.8278 135.861 38.8769 135.047 39.4954C133.749 40.4821 134.173 42.016 134.148 43.5967C134.083 47.7611 130.967 48.2186 130.905 51.6093C130.85 54.6263 133.311 54.5831 134.772 58.766C136.627 64.0768 133.805 67.427 136.325 68.9012C137.634 69.6671 138.441 68.7893 142.109 69.4612C143.686 69.7501 145.377 70.4108 148.693 71.7205C153.869 73.7649 154.646 74.3516 156.209 74.1497C158.541 73.8486 158.329 72.3487 160.728 71.5912C165.368 70.1261 170.146 74.478 172.885 73.0012C174.205 72.2892 173.252 71.1932 174.389 68.6567C176.375 64.2277 180.651 64.5192 181.717 61.0041Z" fill="#AB8247"/>
<path opacity="0.3" d="M172.286 48.7609C169.5 42.4999 161.645 40.9006 160.398 40.6653C158.541 40.3147 151.637 39.2595 145.107 42.7849C139.05 46.0547 135.798 51.9242 137.048 56.9114C138.27 61.7856 143.385 64.1943 146.367 65.5988C148.891 66.7871 151.917 68.2121 156.221 67.9994C164.186 67.606 169.274 61.9642 169.835 61.3224C175.058 55.3498 172.492 49.2228 172.286 48.7609Z" fill="#5F0404"/>
<path opacity="0.2" d="M211.219 26.3983C210.599 26.9198 185.53 10.8688 178.081 11.5256C177.399 11.5857 173.327 12.0978 168.075 11.2045C167.892 11.1733 167.763 11.1499 167.67 11.1331C159.114 9.58961 146.295 8.4423 146.305 7.76687C146.314 7.1452 157.208 5.8646 169.997 7.5092C184.848 9.41886 194.454 14.2693 196.374 15.2627C205.991 20.2386 211.549 26.1202 211.219 26.3983Z" fill="#712901"/>
<path opacity="0.2" d="M222.659 84.3533C221.786 84.1061 229.952 60.0588 226.025 54.9653C225.666 54.4989 223.34 51.7723 222.159 47.668C222.118 47.5247 222.091 47.4236 222.071 47.3501C220.251 40.6303 216.16 31.0034 216.955 30.7552C217.687 30.5267 223.804 37.8551 227.301 47.6493C231.361 59.0217 229.754 67.7445 229.404 69.4971C227.655 78.2752 223.125 84.4852 222.659 84.3533Z" fill="#712901"/>
<path opacity="0.2" d="M125.785 113.003C126.032 112.313 157.365 118.012 163.558 114.797C164.125 114.503 167.422 112.607 172.568 111.567C172.748 111.531 172.875 111.507 172.967 111.489C181.401 109.875 193.367 106.403 193.746 107.017C194.095 107.583 185.222 112.574 172.995 115.586C158.799 119.084 147.539 118.076 145.275 117.853C133.934 116.735 125.653 113.371 125.785 113.003Z" fill="#712901"/>
<path opacity="0.2" d="M122.813 96.8187C123.102 96.1456 154.02 103.783 160.401 100.959C160.985 100.701 164.394 99.0137 169.595 98.296C169.776 98.2709 169.905 98.2547 169.998 98.2429C178.516 97.1564 190.675 94.4351 191.015 95.0719C191.328 95.658 182.161 100.088 169.771 102.334C155.385 104.941 144.21 103.235 141.964 102.872C130.714 101.051 122.658 97.1776 122.813 96.8187Z" fill="#712901"/>
<path opacity="0.2" d="M168.567 110.274C168.266 109.587 197.748 100.43 200.424 94.9848C200.669 94.4863 201.961 91.4328 205.369 88.2745C205.488 88.1644 205.573 88.0877 205.635 88.0319C211.285 82.9309 218.445 74.7038 219.198 75.0496C219.89 75.3681 216.335 83.4921 208.631 91.4497C199.686 100.69 189.847 104.851 187.853 105.671C177.868 109.777 168.727 110.641 168.567 110.274Z" fill="#712901"/>
<path opacity="0.2" d="M141.367 9.65903C141.447 9.94668 131.375 11.2991 125.125 13.9403C124.686 14.126 123.25 14.747 121.202 15.4622C118.474 16.415 116.422 16.9193 115.805 17.0843C109.464 18.7775 104.662 24.6556 104.432 24.5074C104.223 24.3729 107.237 18.9379 114.565 15.1907C119.644 12.5935 124.932 11.7604 132.727 10.5323C137.611 9.76272 141.318 9.48592 141.367 9.65903Z" fill="#712901"/>
<path opacity="0.2" d="M213.995 50.8C213.628 50.8485 211.897 42.8986 208.521 37.8758C208.283 37.5226 207.489 36.3681 206.575 34.7301C205.357 32.5476 204.712 30.9168 204.501 30.4252C202.336 25.3784 194.824 21.3279 195.013 21.155C195.185 20.9983 202.131 23.6275 206.92 29.5491C210.24 33.6535 211.306 37.8334 212.877 43.9949C213.862 47.8558 214.216 50.7707 213.995 50.8Z" fill="#712901"/>
<path opacity="0.2" d="M197.289 105.823C197.155 105.477 204.475 101.925 208.563 97.4621C208.85 97.1483 209.785 96.105 211.162 94.8311C212.997 93.1336 214.43 92.1232 214.858 91.8026C219.254 88.511 221.424 80.2569 221.637 80.4003C221.829 80.5303 220.908 87.8995 216.279 93.9478C213.071 98.1401 209.259 100.159 203.64 103.136C200.119 105.001 197.369 106.031 197.289 105.823Z" fill="#DD9C59"/>
<path opacity="0.2" d="M197.489 85.772C197.308 85.4978 202.978 81.0588 205.681 76.4349C205.871 76.1098 206.485 75.0328 207.438 73.6737C208.709 71.8628 209.76 70.7213 210.071 70.364C213.259 66.696 213.595 59.1506 213.806 59.2351C213.997 59.3116 214.575 65.8584 211.7 71.9546C209.707 76.18 206.786 78.6382 202.481 82.2619C199.783 84.5325 197.597 85.937 197.489 85.772Z" fill="#DD9C59"/>
<path opacity="0.2" d="M137.156 105.791C137.301 105.45 145.028 107.998 151.07 107.642C151.494 107.617 152.892 107.519 154.767 107.564C157.266 107.624 158.999 107.897 159.529 107.965C164.976 108.664 172.281 104.252 172.334 104.503C172.382 104.73 166.589 109.377 159.055 110.494C153.833 111.268 149.691 110.062 143.586 108.285C139.76 107.172 137.069 105.996 137.156 105.791Z" fill="#DD9C59"/>
<path opacity="0.2" d="M216.504 71.294C216.163 71.1494 218.704 63.4204 218.342 57.3792C218.317 56.9545 218.219 55.5568 218.262 53.6813C218.319 51.1825 218.59 49.4499 218.658 48.9194C219.352 43.4718 214.933 36.1704 215.184 36.1175C215.412 36.0696 220.063 41.8588 221.187 49.3916C221.966 54.6129 220.764 58.7556 218.993 64.8626C217.882 68.6892 216.709 71.381 216.504 71.294Z" fill="#DD9C59"/>
<path opacity="0.2" d="M118.768 117.716C119.031 117.217 130.41 122.066 139.608 122.299C140.255 122.316 142.384 122.347 145.22 122.655C148.997 123.065 151.587 123.7 152.381 123.871C160.543 125.627 172.174 119.877 172.222 120.264C172.265 120.615 162.895 126.913 151.339 127.641C143.33 128.146 137.21 125.79 128.189 122.317C122.536 120.141 118.61 118.016 118.768 117.716Z" fill="#DD9C59"/>
<path opacity="0.2" d="M160.873 6.73813C160.817 7.28491 149.312 6.86642 145.82 7.09639C145.726 7.10259 145.291 7.13166 144.703 7.15808C143.878 7.19507 142.7 7.22714 141.306 7.19516C139.648 7.15717 138.267 7.04191 137.247 6.9313C136.278 6.82624 135.572 6.72247 135.493 6.71117C131.636 6.15938 107.972 12.4572 108.014 12.5621C108.042 12.6355 119.704 9.91865 127.782 5.75803C128.969 5.14629 132.027 3.50031 136.07 3.62377C137.805 3.6768 138.133 4.00736 140.669 4.46648C145.398 5.32231 146.87 4.64616 152.013 5.05052C156.684 5.41799 160.907 6.40356 160.873 6.73813Z" fill="#DD9C59"/>
<path opacity="0.2" d="M213.82 24.7875C213.501 25.1091 205.891 18.7281 198.88 16.4023C198.386 16.2388 196.758 15.7175 194.651 14.8195C193.126 14.1692 191.886 13.5496 190.98 13.0687C190.129 12.6169 189.521 12.264 189.433 12.2137C185.947 10.2108 166.532 6.66416 166.553 6.41578C166.563 6.29159 171.491 6.2803 179.438 7.38177C185.17 8.17628 188.035 8.57345 191.114 9.56058C198.573 11.9525 203.546 15.8481 207.657 19.0541C211.491 22.0453 214.012 24.594 213.82 24.7875Z" fill="#DD9C59"/>
<path opacity="0.2" d="M91.1758 66.3143C91.5674 65.9618 97.1043 75.3948 103.171 79.5745C103.598 79.8683 105.013 80.8151 106.781 82.3238C109.137 84.3341 110.599 86.043 111.059 86.5452C115.774 91.7018 126.056 91.3383 125.921 91.7204C125.798 92.0669 116.795 93.9164 108.732 89.6198C103.143 86.6416 100.056 81.8037 95.5064 74.6721C92.6552 70.2033 90.9402 66.5264 91.1758 66.3143Z" fill="#DD9C59"/>
<path opacity="0.2" d="M198.478 26.9044C198.252 27.1333 190.215 21.9804 183.474 19.9169C183 19.7718 181.437 19.3068 179.375 18.5362C176.627 17.5095 174.767 16.6039 174.194 16.3395C168.315 13.6253 159.39 14.4616 159.381 14.231C159.372 14.0219 166.673 12.3986 175.21 14.409C181.127 15.8025 185.466 18.4303 191.863 22.3039C195.871 24.7311 198.614 26.7666 198.478 26.9044Z" fill="#712901"/>
<path opacity="0.2" d="M107.785 93.9816C108.05 93.7798 115.141 99.7253 121.482 102.483C121.928 102.676 123.4 103.302 125.316 104.283C127.868 105.59 129.559 106.683 130.082 107.005C135.453 110.313 144.471 110.44 144.44 110.669C144.412 110.876 136.872 111.699 128.736 108.803C123.097 106.795 119.242 103.737 113.559 99.2299C109.997 96.4055 107.625 94.103 107.785 93.9816Z" fill="#712901"/>
<path opacity="0.2" d="M95.0731 115.842C95.3761 115.611 103.485 122.41 110.737 125.563C111.247 125.785 112.93 126.501 115.121 127.623C118.04 129.117 119.974 130.367 120.572 130.735C126.714 134.518 137.027 134.664 136.992 134.925C136.96 135.162 128.336 136.103 119.033 132.791C112.584 130.495 108.175 126.998 101.676 121.844C97.6032 118.614 94.8908 115.981 95.0731 115.842Z" fill="#712901"/>
<path opacity="0.2" d="M140.123 130.388C140.278 130.041 150.652 132.133 158.529 131.433C159.082 131.384 160.903 131.207 163.364 131.144C166.642 131.06 168.938 131.233 169.64 131.27C176.843 131.654 185.969 126.849 186.063 127.095C186.148 127.319 179.026 132.27 169.271 133.811C162.51 134.88 156.965 133.918 148.792 132.501C143.671 131.612 140.029 130.598 140.123 130.388Z" fill="#712901"/>
<path opacity="0.2" d="M183.156 120.408C183.138 120.028 193.335 117.197 200.041 113.007C200.512 112.713 202.056 111.731 204.221 110.561C207.107 109.002 209.232 108.117 209.874 107.832C216.471 104.913 222.433 96.4974 222.628 96.6746C222.806 96.8354 218.696 104.475 210.696 110.265C205.151 114.279 199.772 115.931 191.843 118.367C186.874 119.894 183.167 120.637 183.156 120.408Z" fill="#712901"/>
<g opacity="0.7">
<path d="M173.06 42.4129C171.488 37.6117 173.84 33.893 170.107 31.1703C168.225 29.7974 165.882 29.4702 164.868 29.3876C157.804 28.8128 155.861 35.2698 147.087 37.2695C139.093 39.0918 134.914 35.0509 130.614 37.6957C126.943 39.9537 125.891 45.4187 127.966 49.305C130.527 54.1016 137.152 55.1885 138.017 60.393C138.11 60.9536 137.967 60.5474 137.981 63.3944C138.004 68.3161 138.039 70.8086 139.155 72.3555C140.169 73.761 142.589 75.8523 145.594 76.0585C152.72 76.5475 155.832 65.9347 163.843 66.242C165.578 66.3085 167.368 66.8806 171.114 66.7048C171.852 66.6702 174.42 66.5496 176.533 65.9749C181.117 64.7278 185.936 60.6945 185.935 56.667C185.934 50.8009 175.707 50.5015 173.06 42.4129Z" fill="#603A14"/>
<path d="M172.029 42.9843C170.552 38.4727 172.762 34.9785 169.255 32.42C167.486 31.1299 165.285 30.8225 164.332 30.7448C157.694 30.2046 155.868 36.272 147.624 38.1511C140.112 39.8634 136.185 36.0663 132.144 38.5516C128.695 40.6733 127.707 45.8086 129.657 49.4605C132.063 53.9675 138.289 54.989 139.101 59.8793C139.188 60.4061 139.054 60.0245 139.067 62.6996C139.089 67.3243 139.121 69.6664 140.17 71.1201C141.123 72.4408 143.397 74.4058 146.221 74.5996C152.917 75.0591 155.841 65.0867 163.369 65.3754C164.999 65.4379 166.681 65.9755 170.201 65.8103C170.894 65.7778 173.308 65.6645 175.293 65.1245C179.6 63.9527 184.129 60.1628 184.128 56.3783C184.126 50.8662 174.517 50.5849 172.029 42.9843Z" fill="#AD8843"/>
<path d="M147.075 38.9338C143.745 40.4137 142.115 42.8222 140.692 44.9229C139.602 46.5335 135.904 51.9961 138.71 55.2796C139.992 56.7797 141.538 56.5452 145.776 58.0303C154.551 61.1052 155.134 64.6372 158.781 64.3482C162.766 64.0325 165.089 59.5781 169.231 51.6338C171.785 46.7363 171.514 45.6216 171.365 45.1556C169.555 39.5231 155.422 35.2237 147.075 38.9338Z" fill="#C2A753"/>
<path d="M150.907 45.7676C150.466 45.9636 148.67 46.7708 148.057 48.4416C147.163 50.8776 149.155 54.0899 152.58 54.9102C152.58 54.9102 157.057 55.9827 160.799 51.4379C161.204 50.9461 162.048 49.8736 161.773 48.6248C161.767 48.5938 161.759 48.568 161.751 48.5455C160.944 46.0307 154.633 44.1112 150.907 45.7676Z" fill="#644323"/>
<path d="M150.463 45.634C150.089 45.8 148.567 46.484 148.048 47.8998C147.291 49.9639 148.979 52.6857 151.88 53.3808C151.88 53.3808 155.674 54.2895 158.845 50.4386C159.188 50.0218 159.903 49.113 159.67 48.0549C159.664 48.0287 159.658 48.0068 159.652 47.9878C158.967 45.857 153.62 44.2305 150.463 45.634Z" fill="#533314"/>
<path d="M157.572 51.026C160.486 49.7833 162.955 51.3735 164.558 50.0826C165.909 48.9946 165.639 46.6702 164.335 45.264C163.057 43.8861 161.026 43.6483 157.786 43.2687C154.871 42.9273 153.358 42.7501 151.988 43.449C149.173 44.8845 149.712 48.6151 149.855 49.6036C150.182 51.8642 151.604 54.8441 153.226 54.8811C154.758 54.9161 154.632 52.2796 157.572 51.026Z" fill="#462E15"/>
<path opacity="0.51" d="M155.819 49.7618C158.374 48.5925 160.295 49.7416 161.757 48.6068C162.989 47.6503 162.978 45.7834 162.015 44.7181C161.072 43.6742 159.393 43.5953 156.715 43.4695C154.305 43.3564 153.054 43.2977 151.842 43.9402C149.352 45.2602 149.459 48.2503 149.488 49.0426C149.553 50.8545 150.469 53.1874 151.823 53.1265C153.104 53.0688 153.242 50.9414 155.819 49.7618Z" fill="#A67C52"/>
<path d="M157.452 48.3185C154.495 49.0016 152.705 47.2684 150.913 48.1753C149.404 48.9397 149.018 51.0104 149.81 52.421C150.586 53.8033 152.348 54.2929 155.16 55.074C157.688 55.7766 159.002 56.1414 160.423 55.7201C163.343 54.8545 163.868 51.5168 164.008 50.6323C164.326 48.6098 163.853 45.806 162.405 45.549C161.036 45.3059 160.435 47.6294 157.452 48.3185Z" fill="#462E15"/>
<path opacity="0.51" d="M158.689 49.661C156.074 50.3296 154.657 49.0582 153.036 49.8482C151.669 50.5141 151.174 52.1486 151.751 53.2138C152.316 54.2577 153.805 54.5594 156.18 55.0407C158.316 55.4736 159.425 55.6985 160.69 55.3044C163.286 54.495 164 51.8648 164.188 51.1678C164.621 49.574 164.428 47.4065 163.193 47.2719C162.026 47.1448 161.326 48.9865 158.689 49.661Z" fill="#A67C52"/>
<path d="M160.04 48.1086C160.731 49.7121 159.253 50.6719 160.106 51.6458C160.826 52.4665 162.667 52.6862 163.89 52.2649C165.088 51.8521 165.469 50.901 166.076 49.3837C166.622 48.0191 166.906 47.3104 166.492 46.539C165.641 44.9545 162.677 44.6532 161.891 44.5734C160.095 44.3909 157.632 44.6324 157.448 45.4147C157.274 46.154 159.344 46.4908 160.04 48.1086Z" fill="#533314"/>
<path opacity="0.51" d="M161.191 47.4491C161.859 48.8673 160.777 49.6272 161.523 50.509C162.152 51.252 163.61 51.5282 164.534 51.2215C165.44 50.9209 165.662 50.1169 166.018 48.8342C166.337 47.6806 166.503 47.0814 166.118 46.3954C165.326 44.9862 162.982 44.5868 162.36 44.4809C160.94 44.2389 159.03 44.332 158.948 44.9994C158.87 45.6302 160.518 46.0184 161.191 47.4491Z" fill="#A67C52"/>
<path d="M152.934 51.3989C152.238 49.7969 153.712 48.8335 152.854 47.8616C152.132 47.0425 150.29 46.8272 149.069 47.2515C147.873 47.6673 147.496 48.6192 146.894 50.1382C146.353 51.5042 146.073 52.2136 146.49 52.984C147.346 54.5667 150.311 54.8609 151.097 54.9388C152.894 55.117 155.356 54.8697 155.537 54.087C155.709 53.347 153.637 53.0151 152.934 51.3989Z" fill="#533314"/>
<path opacity="0.51" d="M151.787 52.0618C151.114 50.6451 152.193 49.8824 151.444 49.0026C150.812 48.261 149.353 47.9882 148.43 48.2971C147.526 48.5999 147.306 49.4045 146.956 50.6882C146.641 51.8426 146.477 52.4422 146.865 53.1273C147.662 54.5347 150.008 54.9286 150.63 55.0329C152.051 55.2716 153.96 55.174 154.04 54.5064C154.115 53.8753 152.466 53.491 151.787 52.0618Z" fill="#A67C52"/>
<path d="M162.184 50.2159C162.301 47.8912 159.985 45.8851 157.011 45.7353C154.036 45.5855 151.53 47.3487 151.413 49.6735C151.296 51.9982 153.612 54.0043 156.587 54.1541C159.561 54.3039 162.067 52.5407 162.184 50.2159Z" fill="#603E2D"/>
<path opacity="0.51" d="M153.324 46.6557C151.304 47.9532 151.051 50.3134 152.761 51.9273C154.47 53.5412 157.493 53.7976 159.513 52.5C161.533 51.2024 161.785 48.8422 160.076 47.2283C158.367 45.6144 155.344 45.3581 153.324 46.6557Z" fill="#A67C52"/>
</g>
<path opacity="0.2" d="M117.26 12.8995C117.728 13.53 91.2975 27.1269 90.0674 32.9062C89.9548 33.4353 89.4692 36.6438 86.9462 40.284C86.8582 40.411 86.7945 40.4997 86.7485 40.5642C82.5306 46.4663 77.6337 55.6822 76.812 55.4584C76.0557 55.2523 77.464 46.6973 82.9601 37.6624C89.3419 27.1717 97.8825 21.545 99.6189 20.428C108.316 14.8335 117.011 12.5634 117.26 12.8995Z" fill="#712901"/>
<path opacity="0.2" d="M75.3424 60.8985C75.7819 60.8831 75.7508 70.3141 78.3837 76.5278C78.5688 76.9646 79.1948 78.3949 79.8364 80.4005C80.2871 81.8092 80.592 83.0219 80.797 83.9409C81.0032 84.8653 81.1242 85.545 81.1405 85.6343C81.7858 89.1563 91.5104 100.636 91.4077 100.747C91.3261 100.836 82.5802 96.3999 78.1046 86.3819C75.3339 80.1801 75.0555 73.8215 74.8935 68.9306C74.7412 64.3344 75.0779 60.9077 75.3424 60.8985Z" fill="#712901"/>
<path opacity="0.2" d="M84.2116 78.2358C84.615 78.1068 89.1619 86.9296 94.6378 92.051C95.0227 92.4111 96.3018 93.5847 97.8747 95.292C99.9703 97.5668 101.234 99.3192 101.633 99.844C105.736 105.233 115.613 108.414 115.453 108.651C115.308 108.865 106.537 107.211 99.1584 101.334C94.0441 97.2599 91.4756 92.6521 87.6894 85.8598C85.3168 81.6038 83.9689 78.3134 84.2116 78.2358Z" fill="#712901"/>
<path opacity="0.2" d="M85.1303 49.297C85.5026 49.3374 84.5122 57.3031 86.0982 62.8734C86.2097 63.265 86.5915 64.5495 86.9278 66.3222C87.3758 68.6841 87.4535 70.3863 87.4928 70.9033C87.8974 76.2113 93.8159 81.8309 93.5744 81.9506C93.3555 82.0592 87.509 77.9243 84.8554 71.1667C83.0161 66.4828 83.3857 62.258 83.9305 56.0301C84.272 52.1276 84.9062 49.2728 85.1303 49.297Z" fill="#712901"/>
<path opacity="0.2" d="M93.352 49.3829C93.5862 49.4082 92.9634 54.417 93.9606 57.9196C94.0306 58.1658 94.2707 58.9736 94.4822 60.0881C94.7639 61.5732 94.8127 62.6436 94.8375 62.9687C95.0919 66.3063 98.8134 69.8399 98.6616 69.9151C98.5239 69.9834 94.8477 67.3835 93.1792 63.1344C92.0226 60.1892 92.2551 57.5326 92.5977 53.6166C92.8122 51.1627 93.2111 49.3677 93.352 49.3829Z" fill="#712901"/>
<path opacity="0.2" d="M98.9608 25.7552C99.1352 25.9135 95.6844 29.597 94.4297 33.0157C94.3415 33.2561 94.0604 34.0504 93.5754 35.0761C92.9294 36.4426 92.339 37.3368 92.1677 37.6142C90.4095 40.4626 91.3393 45.5094 91.1722 45.4809C91.0207 45.4551 89.5782 41.1897 90.7293 36.7723C91.5272 33.7104 93.2783 31.6991 95.8596 28.7345C97.4771 26.8767 98.8559 25.6599 98.9608 25.7552Z" fill="#712901"/>
<path opacity="0.2" d="M113.653 23.3533C113.838 23.675 107.139 28.2929 103.773 33.3228C103.537 33.6764 102.77 34.849 101.601 36.3166C100.044 38.2719 98.7801 39.4874 98.4054 39.869C94.5577 43.7874 93.6608 52.2747 93.429 52.165C93.2188 52.0656 93.0157 44.6418 96.6768 37.9633C99.2144 33.3341 102.677 30.7618 107.781 26.97C110.98 24.594 113.542 23.1598 113.653 23.3533Z" fill="#DD9C59"/>
<path opacity="0.2" d="M174.658 137.803C174.691 137.35 184.785 134.624 191.733 130.069C192.222 129.749 193.823 128.68 196.043 127.426C199 125.755 201.143 124.836 201.793 124.539C208.467 121.485 215.27 111.867 215.433 112.09C215.58 112.292 210.646 121.103 202.251 127.478C196.433 131.897 191.087 133.523 183.207 135.921C178.269 137.423 174.638 138.075 174.658 137.803Z" fill="#DD9C59"/>
<path opacity="0.2" d="M77.6632 91.1747C78.0008 90.9985 84.8429 99.0716 91.4565 103.406C91.9215 103.711 93.4595 104.701 95.4291 106.178C98.0531 108.145 99.7476 109.703 100.275 110.168C105.689 114.935 115.828 116.823 115.749 117.075C115.677 117.303 107.019 116.772 98.41 111.933C92.4427 108.579 88.6888 104.387 83.1553 98.2072C79.6879 94.3347 77.46 91.2808 77.6632 91.1747Z" fill="#712901"/>
<path d="M306.545 193.812C313.679 166.187 299.012 139.186 294.248 130.531C290.176 123.132 271.726 89.6116 238.512 80.5754C208.607 72.4397 177.792 87.1603 168.235 118.532C158.927 149.086 173.308 183.901 193.454 205.487C196.08 208.3 223.603 236.957 258.46 233.472C261.476 233.171 297.492 228.872 306.545 193.812Z" fill="#C16429"/>
<path d="M303.869 196.366C313.312 167.146 298.733 139.438 293.991 130.559C289.938 122.968 271.574 88.5784 235.551 80.4187C203.118 73.0721 168.365 89.7048 156.039 122.944C144.035 155.318 157.849 191.223 178.768 213.043C181.495 215.887 210.123 244.825 248.675 239.803C252.011 239.369 291.885 233.45 303.869 196.366Z" fill="#C16429"/>
<path opacity="0.7" d="M304.869 195.163C314.312 165.943 299.733 138.235 294.991 129.356C290.938 121.765 272.574 87.3753 236.551 79.2156C204.118 71.869 169.365 88.5016 157.039 121.741C145.035 154.115 158.849 190.02 179.768 211.84C182.495 214.684 211.123 243.622 249.675 238.6C253.011 238.166 292.885 232.246 304.869 195.163Z" fill="#B15025"/>
<path d="M306.045 193.784C312.663 166.842 298.173 140.274 293.468 131.758C289.446 124.477 271.224 91.4917 238.959 82.2936C209.91 74.0121 180.219 88.0755 171.293 118.655C162.599 148.438 176.895 182.644 196.634 203.975C199.207 206.755 226.166 235.082 259.889 232.052C262.807 231.789 297.645 227.976 306.045 193.784Z" fill="#C16429"/>
<path d="M307.633 193.15C313.288 167.498 299.853 142.02 295.314 133.413C292.01 127.147 272.035 89.2678 235.892 79.658C206.23 71.7711 176.527 85.8107 167 116.72C158.686 143.692 167.83 176.711 187.139 200.382C212.645 231.65 245.083 233.363 250.066 233.531C273.262 234.312 301.117 222.71 307.633 193.15ZM254.925 225.365C223.384 228.276 198.246 201.918 195.847 199.331C177.442 179.481 164.16 147.607 172.363 119.802C180.786 91.2539 208.584 78.0612 235.727 85.7144C265.873 94.2148 282.83 124.94 286.573 131.722C290.951 139.655 304.435 164.402 298.179 189.552C290.24 221.469 257.654 225.113 254.925 225.365Z" fill="#B15025"/>
<path opacity="0.1" d="M274.656 175.502C277.015 170.843 277.501 165.772 277.628 163.786C277.983 158.216 276.027 155.058 277.638 151.488C278.616 149.32 280.185 148.324 279.54 146.431C279.073 145.057 277.781 144.21 276.265 143.088C276.265 143.088 274.234 143.551 268.111 135.992C260.453 126.538 261.205 123.629 256.434 119.641C252.827 116.625 250.276 117.261 247.764 113.566C246.069 111.075 245.5 108.387 244.531 108.169C243.639 107.968 243.903 110.199 242.483 111.298C240.944 112.488 239.259 110.796 236.605 110.915C232.433 111.103 232.938 114.762 229.404 114.525C225.747 114.281 222.39 110.175 221.667 111.202C221.24 111.807 222.435 113.201 222.76 115.196C223.362 118.881 220.159 119.48 217.313 123.845C214.332 128.414 216.038 130.552 213.021 133.474C211.267 135.173 209.481 135.676 209.776 137.54C210.059 139.325 211.907 140.182 213.254 143.043C214.426 145.529 214.132 147.349 214.302 149.229C215.046 157.47 220.87 165.527 222.103 167.232C225.631 172.114 226.218 171.078 230.202 176.932C232.541 180.368 233.497 182.506 235.933 184.301C236.924 185.031 237.746 185.4 241.834 186.56C248.756 188.523 248.186 187.892 249.905 188.714C255.475 191.375 258.084 195.353 259.699 194.441C260.758 193.843 259.932 191.962 260.793 189.521C261.764 186.768 263.845 186.235 265.903 185.15C271.179 182.37 273.738 177.316 274.656 175.502Z" fill="#5F0404"/>
<path opacity="0.2" d="M269.583 197.386C270.352 196.085 271.177 195.506 275.155 193.471C279.661 191.166 280.142 191.122 280.463 190.906C280.463 190.906 280.576 190.824 280.681 190.725C281.27 190.171 283.264 184.333 283.856 182.888C284.926 180.281 285.907 181.074 287.739 177.862C288.686 176.2 290.165 173.606 289.963 170.539C289.678 166.203 286.209 163.618 286.047 159.287C286.022 158.643 285.989 158.04 286.219 157.282C286.907 155.013 289.095 154.374 288.376 151.177C287.79 148.564 286.178 148.314 284.271 144.136C282.186 139.569 283.27 138.97 281.512 135.055C279.716 131.054 277.791 130.585 275.528 125.281C275.019 124.088 275.03 123.868 274.346 121.963C273.358 119.21 272.845 117.815 271.947 116.881C271.131 116.032 270.797 116.18 269.085 115.146C265.585 113.031 265.351 111.718 261.888 109.289C257.879 106.476 255.942 107.833 253.318 107.032C252.823 106.881 252.678 106.761 250.516 105.409C245.945 102.551 245.559 102.362 245.002 102.204C242.978 101.63 242.719 102.595 239.454 102.706C234.745 102.867 233.736 100.912 229.381 101.526C228.261 101.684 226.989 101.89 225.464 102.592C223.459 103.514 222.554 104.677 220.836 105.137C219.544 105.484 219.488 105.019 217.921 105.256C216.724 105.437 214.3 105.803 213.131 107.524C212.045 109.124 212.159 111.723 212.224 113.207C212.236 113.48 212.27 113.867 212.157 114.38C211.885 115.606 210.934 116.071 209.675 119.194C208.256 122.712 208.227 125.524 206.537 129.337C205.212 132.328 204.57 131.885 204.138 133.767C203.578 136.209 204.357 138.268 206.143 142.167C211.215 153.233 212.007 153.547 212.461 156.616C213.116 161.043 211.61 162.284 213.261 166.516C213.867 168.07 214.778 170.402 216.578 171.933C217.46 172.683 218.629 173.309 221.131 175.341C221.288 175.468 221.502 175.643 221.765 175.864C225.34 178.868 229.994 184.699 229.994 184.699C235.956 192.19 236.12 192.93 237.875 194.002C238.364 194.301 239.3 194.823 243.265 195.628C248.349 196.659 249.48 196.138 251 196.43C251.759 196.576 252.289 196.842 252.467 196.92C254.876 197.97 266.834 202.377 268.41 199.988C268.702 199.546 268.744 198.807 269.583 197.386Z" fill="#5F0404"/>
<path opacity="0.3" d="M254.207 180.694C255.782 180.23 255.578 179.612 258.562 177.936C261.504 176.283 262.284 176.558 263.76 175.623C265.461 174.545 265.704 173.372 268.465 166.233C271.48 158.44 272.13 157.412 271.719 154.855C271.51 153.553 271.257 153.288 268.501 147.493C263.634 137.255 263.644 136.438 261.951 134.695C260.038 132.726 260.106 133.851 252.584 129.616C246.263 126.058 244.74 124.432 242.026 124.653C240.172 124.803 240.204 125.617 236.89 126.282C233.72 126.919 232.871 126.339 231.171 126.868C228.436 127.719 228.435 129.903 225.751 133.57C221.342 139.594 217.37 139.128 217.271 143.144C217.228 144.906 218.052 145.122 219.887 149.703C222.992 157.454 221.39 158.429 223.82 162.907C225.891 166.724 226.766 165.487 232.519 172.994C235.012 176.248 235.531 177.405 237.259 178.381C239.841 179.839 240.832 178.549 245.549 179.159C250.489 179.799 251.51 181.487 254.207 180.694Z" fill="#E1C183"/>
<path opacity="0.5" d="M255.288 177.191C258.486 176.143 258.326 172.506 261.249 172.781C263.184 172.963 264.01 174.627 265.217 174.262C266.8 173.784 265.691 170.826 267.097 166.102C267.837 163.617 268.662 160.844 270.684 158.251C271.298 157.464 271.805 156.973 271.832 155.971C271.883 154.137 270.259 153.117 268.139 149.622C267.498 148.565 265.852 145.81 264.95 142.333C264.169 139.318 264.767 138.919 263.953 137.583C262.744 135.598 261.2 136.113 256.319 133.61C252.149 131.472 250.065 130.403 248.27 128.378C247.715 127.752 247.087 126.941 246.113 126.63C244.56 126.133 243.547 127.361 242.239 128.248C238.791 130.585 236.628 128.296 233.816 130.191C231.314 131.878 232.762 133.868 230.175 137.466C226.891 142.033 222.528 141.645 222.767 144.555C222.891 146.066 224.073 146.223 225.629 149.613C226.297 151.07 226.727 152.833 227.557 156.3C228.855 161.712 228.82 162.685 229.883 163.85C231.467 165.586 232.574 164.552 234.572 166.082C238.434 169.04 237.614 175.451 240.395 176.846C241.736 177.518 242.086 176.108 244.816 175.584C249.583 174.668 251.798 178.336 255.288 177.191Z" fill="#AB8247"/>
<path opacity="0.3" d="M259.9 162.446C263.427 156.571 260.229 149.221 259.705 148.065C258.926 146.343 255.828 140.084 249.193 136.76C243.039 133.678 236.366 134.384 232.999 138.27C229.709 142.068 230.673 147.639 231.235 150.887C231.71 153.636 232.28 156.931 234.925 160.334C239.819 166.63 247.359 167.559 248.207 167.65C256.095 168.498 259.639 162.88 259.9 162.446Z" fill="#5F0404"/>
<path opacity="0.2" d="M300.557 181.493C299.774 181.285 298.528 151.544 293.715 145.822C293.275 145.298 290.518 142.257 288.235 137.444C288.155 137.276 288.1 137.157 288.061 137.071C284.413 129.179 277.995 118.023 278.554 117.644C279.068 117.294 286.37 125.48 292.364 136.897C299.325 150.154 300.866 160.804 301.155 162.946C302.6 173.677 300.974 181.604 300.557 181.493Z" fill="#712901"/>
<path opacity="0.2" d="M259.667 224.121C259.368 223.264 283.747 216.148 285.664 210.009C285.839 209.447 286.737 205.977 289.42 202.654C289.514 202.539 289.581 202.458 289.63 202.4C294.088 197.052 299.622 188.176 300.282 188.685C300.889 189.153 298.4 198.369 292.387 206.854C285.404 216.706 277.339 220.397 275.704 221.117C267.512 224.723 259.826 224.578 259.667 224.121Z" fill="#712901"/>
<path opacity="0.2" d="M180.595 161.243C181.302 161.05 194.619 189.978 200.807 193.204C201.373 193.5 204.818 195.112 208.623 198.729C208.756 198.855 208.849 198.945 208.916 199.01C215.079 204.99 224.791 212.796 224.505 213.459C224.242 214.069 215.062 209.668 205.578 201.385C194.565 191.768 188.928 181.969 187.811 179.987C182.216 170.059 180.218 161.346 180.595 161.243Z" fill="#712901"/>
<path opacity="0.2" d="M192.15 149.516C192.867 149.367 204.36 179.068 210.334 182.672C210.881 183.002 214.22 184.826 217.792 188.672C217.917 188.807 218.004 188.902 218.067 188.972C223.846 195.323 233.053 203.718 232.727 204.362C232.427 204.955 223.538 199.991 214.587 191.134C204.194 180.85 199.177 170.72 198.186 168.673C193.22 158.416 191.767 149.596 192.15 149.516Z" fill="#712901"/>
<path opacity="0.2" d="M207.392 194.703C207.782 194.063 232.203 212.948 238.198 212.015C238.747 211.929 241.989 211.234 246.531 212.212C246.689 212.246 246.801 212.272 246.882 212.29C254.303 213.989 265.149 215.13 265.298 215.945C265.435 216.695 256.741 218.447 245.803 216.706C233.103 214.684 224.047 209.016 222.232 207.854C213.138 202.034 207.184 195.045 207.392 194.703Z" fill="#712901"/>
<path opacity="0.2" d="M274.169 114.689C273.98 114.92 267.091 107.448 261.341 103.846C260.937 103.593 259.604 102.774 257.843 101.508C255.497 99.8209 253.907 98.4303 253.417 98.0193C248.391 93.7989 240.821 93.2408 240.811 92.9671C240.801 92.7189 246.981 92.0673 254.256 95.9171C259.298 98.5856 263.015 102.437 268.495 108.115C271.929 111.673 274.283 114.55 274.169 114.689Z" fill="#712901"/>
<path opacity="0.2" d="M282.166 197.771C281.916 197.498 287.432 191.517 289.607 185.87C289.76 185.472 290.25 184.16 291.066 182.471C292.154 180.22 293.12 178.756 293.401 178.301C296.291 173.632 295.296 165.155 295.546 165.211C295.773 165.262 297.607 172.458 295.507 179.779C294.052 184.854 291.241 188.126 287.097 192.949C284.501 195.972 282.317 197.935 282.166 197.771Z" fill="#712901"/>
<path opacity="0.2" d="M227.524 215.673C227.73 215.365 234.841 219.32 240.842 220.106C241.263 220.161 242.655 220.328 244.488 220.724C246.931 221.252 248.581 221.846 249.09 222.013C254.308 223.723 262.313 220.762 262.317 221.018C262.321 221.251 255.758 224.726 248.149 224.407C242.874 224.187 239.033 222.224 233.37 219.332C229.822 217.519 227.4 215.859 227.524 215.673Z" fill="#DD9C59"/>
<path opacity="0.2" d="M244.06 204.324C244.181 204.019 251.07 206.113 256.408 205.673C256.783 205.642 258.018 205.527 259.678 205.527C261.89 205.528 263.428 205.734 263.899 205.783C268.733 206.289 275.105 202.233 275.156 202.454C275.203 202.654 270.174 206.886 263.532 208.03C258.928 208.824 255.239 207.843 249.8 206.398C246.392 205.492 243.987 204.508 244.06 204.324Z" fill="#DD9C59"/>
<path opacity="0.2" d="M193.033 166.415C193.396 166.337 195.744 174.127 199.504 178.87C199.768 179.203 200.65 180.292 201.69 181.854C203.075 183.934 203.846 185.509 204.095 185.983C206.649 190.844 214.455 194.294 214.28 194.481C214.121 194.651 206.991 192.574 201.752 187.046C198.12 183.214 196.73 179.131 194.681 173.111C193.397 169.339 192.815 166.461 193.033 166.415Z" fill="#DD9C59"/>
<path opacity="0.2" d="M266.831 211.579C266.753 211.217 274.541 208.861 279.28 205.098C279.613 204.833 280.701 203.95 282.262 202.909C284.341 201.522 285.916 200.749 286.389 200.5C291.248 197.942 294.691 190.132 294.878 190.308C295.048 190.466 292.977 197.598 287.454 202.842C283.626 206.477 279.543 207.871 273.526 209.926C269.755 211.213 266.877 211.797 266.831 211.579Z" fill="#DD9C59"/>
<path opacity="0.2" d="M172.718 158.196C173.277 158.125 175.838 170.226 180.926 177.891C181.284 178.43 182.481 180.192 183.857 182.691C185.689 186.019 186.655 188.504 186.971 189.253C190.218 196.945 201.603 203.169 201.313 203.43C201.051 203.667 190.515 199.608 183.286 190.564C178.275 184.295 176.692 177.931 174.358 168.551C172.895 162.672 172.382 158.238 172.718 158.196Z" fill="#DD9C59"/>
<path opacity="0.2" d="M287.756 128.974C287.277 129.242 281.015 119.58 278.823 116.852C278.764 116.779 278.49 116.44 278.131 115.973C277.627 115.319 276.925 114.373 276.151 113.213C275.23 111.834 274.532 110.636 274.037 109.738C273.567 108.884 273.247 108.246 273.211 108.175C271.449 104.7 252.709 88.9376 252.647 89.0317C252.603 89.0973 261.522 97.0874 269.565 101.314C270.747 101.935 273.85 103.494 276.07 106.875C277.022 108.327 276.94 108.785 278.02 111.126C280.033 115.489 281.431 116.306 284.052 120.749C286.433 124.786 288.05 128.81 287.756 128.974Z" fill="#DD9C59"/>
<path opacity="0.2" d="M303.372 182.689C302.926 182.613 303.783 172.718 301.663 165.642C301.514 165.144 301.006 163.511 300.532 161.271C300.189 159.648 299.984 158.277 299.858 157.259C299.74 156.303 299.68 155.603 299.671 155.502C299.31 151.498 291.07 133.564 291.285 133.438C291.393 133.375 294.231 137.404 297.89 144.544C300.53 149.693 301.849 152.268 302.808 155.355C305.131 162.836 304.795 169.145 304.529 174.351C304.281 179.208 303.64 182.735 303.372 182.689Z" fill="#DD9C59"/>
<path opacity="0.2" d="M198.972 106.095C199.485 106.213 194.939 116.162 194.999 123.529C195.003 124.047 195.04 125.749 194.82 128.063C194.526 131.146 193.966 133.324 193.818 133.988C192.302 140.809 198.501 149.02 198.111 149.129C197.757 149.227 191.075 142.917 189.965 133.848C189.196 127.562 191.386 122.257 194.614 114.438C196.637 109.539 198.663 106.024 198.972 106.095Z" fill="#DD9C59"/>
<path opacity="0.2" d="M292.83 171.355C292.512 171.301 292.118 161.762 289.939 155.057C289.786 154.586 289.27 153.039 288.717 150.908C287.98 148.069 287.654 146.026 287.542 145.405C286.39 139.033 280.582 132.205 280.766 132.065C280.932 131.938 286.452 136.984 289.706 145.129C291.961 150.774 292.3 155.836 292.8 163.297C293.113 167.973 293.021 171.387 292.83 171.355Z" fill="#712901"/>
<path opacity="0.2" d="M185.845 135.587C186.162 135.688 185.364 144.907 186.746 151.682C186.843 152.159 187.175 153.723 187.472 155.855C187.867 158.696 187.942 160.708 187.979 161.321C188.353 167.617 193.425 175.075 193.22 175.181C193.034 175.277 188.032 169.575 185.734 161.25C184.142 155.48 184.433 150.568 184.861 143.327C185.13 138.79 185.654 135.526 185.845 135.587Z" fill="#712901"/>
<path opacity="0.2" d="M160.65 137.712C161.013 137.828 160.1 148.371 161.68 156.119C161.791 156.663 162.171 158.453 162.51 160.891C162.962 164.139 163.048 166.44 163.09 167.141C163.518 174.342 169.318 182.87 169.084 182.991C168.871 183.101 163.151 176.58 160.524 167.06C158.702 160.462 159.035 154.844 159.525 146.564C159.832 141.375 160.432 137.642 160.65 137.712Z" fill="#712901"/>
<path opacity="0.2" d="M174.6 182.954C174.974 182.881 179.216 192.577 184.31 198.625C184.668 199.05 185.857 200.44 187.321 202.418C189.271 205.055 190.448 207.034 190.82 207.63C194.641 213.748 203.814 218.463 203.666 218.682C203.532 218.88 195.389 215.89 188.528 208.787C183.772 203.864 181.377 198.771 177.846 191.265C175.634 186.561 174.375 182.997 174.6 182.954Z" fill="#712901"/>
<path opacity="0.2" d="M207.477 212.467C207.778 212.233 215.949 218.958 223.229 222.045C223.741 222.262 225.431 222.962 227.632 224.064C230.565 225.532 232.51 226.764 233.111 227.127C239.288 230.853 249.601 230.905 249.568 231.166C249.539 231.404 240.924 232.424 231.591 229.196C225.122 226.959 220.681 223.503 214.134 218.408C210.033 215.216 207.296 212.607 207.477 212.467Z" fill="#712901"/>
<g opacity="0.7">
<path d="M265.542 159.432C268.571 155.389 272.966 155.18 273.053 150.561C273.097 148.231 272.02 146.125 271.506 145.247C267.922 139.133 261.519 141.248 254.846 135.211C248.765 129.711 249.675 123.97 245.041 121.966C241.085 120.256 236.007 122.532 234.015 126.462C231.557 131.312 234.47 137.361 230.704 141.056C230.299 141.454 230.55 141.105 228.226 142.75C224.209 145.594 222.188 147.053 221.562 148.855C220.993 150.492 220.67 153.674 222.226 156.253C225.915 162.369 236.392 158.826 240.739 165.562C241.68 167.02 242.239 168.815 244.533 171.781C244.985 172.366 246.558 174.4 248.241 175.8C251.894 178.838 257.963 180.469 261.26 178.157C266.063 174.788 260.438 166.242 265.542 159.432Z" fill="#603A14"/>
<path d="M264.481 158.917C267.328 155.119 271.457 154.922 271.539 150.582C271.58 148.393 270.569 146.414 270.085 145.589C266.717 139.844 260.701 141.831 254.43 136.159C248.716 130.99 249.572 125.595 245.217 123.713C241.5 122.106 236.728 124.245 234.856 127.937C232.547 132.495 235.284 138.179 231.745 141.651C231.364 142.025 231.6 141.696 229.417 143.242C225.642 145.915 223.743 147.286 223.155 148.979C222.62 150.517 222.316 153.507 223.778 155.93C227.245 161.677 237.09 158.348 241.174 164.678C242.059 166.048 242.584 167.735 244.74 170.522C245.164 171.071 246.642 172.982 248.224 174.298C251.656 177.153 257.359 178.686 260.457 176.513C264.97 173.348 259.685 165.317 264.481 158.917Z" fill="#AD8843"/>
<path d="M253.47 136.153C250.347 134.276 247.439 134.323 244.903 134.364C242.958 134.395 236.362 134.503 235.284 138.685C234.792 140.596 235.871 141.728 237.087 146.05C239.606 155.001 237.049 157.505 239.379 160.326C241.924 163.408 246.905 162.753 255.788 161.585C261.265 160.866 262.022 160.004 262.318 159.614C265.891 154.899 261.3 140.859 253.47 136.153Z" fill="#C2A753"/>
<path d="M250.079 143.221C249.665 142.972 247.974 141.965 246.254 142.422C243.746 143.089 242.259 146.564 243.553 149.838C243.553 149.838 245.244 154.12 251.114 154.576C251.749 154.625 253.112 154.701 253.977 153.759C253.998 153.736 254.015 153.714 254.029 153.696C255.625 151.591 253.574 145.322 250.079 143.221Z" fill="#644323"/>
<path d="M249.932 142.776C249.581 142.566 248.148 141.712 246.69 142.1C244.566 142.664 243.306 145.609 244.402 148.384C244.402 148.384 245.835 152.012 250.809 152.398C251.347 152.439 252.502 152.504 253.234 151.706C253.253 151.686 253.267 151.668 253.279 151.652C254.631 149.868 252.894 144.556 249.932 142.776Z" fill="#533314"/>
<path d="M249.608 151.685C252.298 153.358 252.413 156.293 254.39 156.864C256.057 157.346 257.805 155.791 258.208 153.916C258.603 152.079 257.632 150.279 256.083 147.408C254.69 144.825 253.966 143.484 252.607 142.763C249.816 141.283 247.071 143.865 246.343 144.55C244.68 146.115 243.056 148.99 243.956 150.339C244.807 151.614 246.894 149.998 249.608 151.685Z" fill="#462E15"/>
<path opacity="0.51" d="M249.629 149.526C252.053 150.947 252.215 153.18 253.983 153.726C255.474 154.185 256.996 153.104 257.316 151.705C257.63 150.334 256.73 148.913 255.296 146.648C254.006 144.61 253.336 143.552 252.114 142.928C249.604 141.647 247.217 143.451 246.584 143.929C245.138 145.022 243.753 147.111 244.581 148.185C245.363 149.201 247.184 148.093 249.629 149.526Z" fill="#A67C52"/>
<path d="M251.752 150.044C249.495 148.014 249.887 145.553 248.116 144.607C246.624 143.81 244.706 144.682 244.006 146.14C243.319 147.569 243.93 149.293 244.904 152.044C245.78 154.518 246.235 155.802 247.396 156.725C249.781 158.619 252.816 157.133 253.62 156.74C255.459 155.839 257.483 153.843 256.862 152.509C256.276 151.249 254.028 152.091 251.752 150.044Z" fill="#462E15"/>
<path opacity="0.51" d="M251.362 151.824C249.313 150.066 249.541 148.177 247.963 147.302C246.634 146.565 245.011 147.098 244.47 148.182C243.94 149.244 244.547 150.636 245.516 152.857C246.388 154.855 246.841 155.892 247.889 156.701C250.042 158.363 252.605 157.437 253.285 157.192C254.838 156.631 256.502 155.229 255.904 154.141C255.338 153.113 253.428 153.596 251.362 151.824Z" fill="#A67C52"/>
<path d="M253.41 152.029C252.494 153.515 250.859 152.855 250.552 154.113C250.293 155.174 251.169 156.807 252.216 157.566C253.242 158.311 254.239 158.076 255.83 157.703C257.261 157.367 258.005 157.192 258.398 156.41C259.208 154.804 257.753 152.204 257.368 151.515C256.486 149.94 254.875 148.062 254.128 148.36C253.423 148.641 254.335 150.53 253.41 152.029Z" fill="#533314"/>
<path opacity="0.51" d="M254.615 152.59C253.837 153.951 252.594 153.501 252.3 154.618C252.052 155.559 252.663 156.912 253.445 157.493C254.211 158.062 254.997 157.783 256.251 157.337C257.379 156.937 257.965 156.729 258.306 156.019C259.005 154.562 257.987 152.413 257.717 151.844C257.099 150.541 255.927 149.032 255.334 149.347C254.772 149.645 255.4 151.217 254.615 152.59Z" fill="#A67C52"/>
<path d="M246.633 148.099C247.545 146.609 249.181 147.264 249.484 146.003C249.74 144.941 248.859 143.31 247.811 142.554C246.784 141.812 245.788 142.05 244.199 142.43C242.77 142.771 242.028 142.948 241.636 143.732C240.832 145.342 242.293 147.938 242.68 148.627C243.566 150.2 245.181 152.074 245.926 151.773C246.63 151.489 245.713 149.602 246.633 148.099Z" fill="#533314"/>
<path opacity="0.51" d="M245.43 147.547C246.203 146.182 247.447 146.628 247.737 145.509C247.982 144.567 247.368 143.215 246.585 142.637C245.818 142.07 245.033 142.352 243.781 142.802C242.655 143.207 242.07 143.417 241.732 144.128C241.037 145.588 242.061 147.735 242.332 148.304C242.953 149.605 244.128 151.112 244.721 150.794C245.281 150.494 244.649 148.923 245.43 147.547Z" fill="#A67C52"/>
<path d="M252.927 154.983C254.898 153.744 255.211 150.696 253.626 148.174C252.041 145.653 249.159 144.612 247.188 145.851C245.217 147.09 244.904 150.138 246.489 152.66C248.073 155.181 250.956 156.221 252.927 154.983Z" fill="#603E2D"/>
<path opacity="0.51" d="M250.744 145.694C248.522 144.785 246.445 145.933 246.104 148.259C245.764 150.585 247.289 153.208 249.511 154.117C251.733 155.026 253.81 153.878 254.151 151.552C254.491 149.226 252.966 146.604 250.744 145.694Z" fill="#A67C52"/>
</g>
<path opacity="0.2" d="M257.681 96.8037C257.433 97.5484 231.128 83.7102 225.69 86.0201C225.192 86.2316 222.286 87.6756 217.857 87.699C217.702 87.6998 217.593 87.6986 217.514 87.6979C210.26 87.6318 199.902 88.9115 199.614 88.1102C199.349 87.3725 207.162 83.6154 217.715 82.9301C229.969 82.1344 239.479 85.8984 241.39 86.6791C250.963 90.5893 257.813 96.4066 257.681 96.8037Z" fill="#712901"/>
<path opacity="0.2" d="M194.317 90.0256C194.582 90.3766 186.842 95.7644 183.265 101.487C183.013 101.889 182.201 103.223 180.927 104.899C180.033 106.077 179.214 107.023 178.58 107.718C177.941 108.418 177.454 108.907 177.39 108.972C174.876 111.522 171.058 126.074 170.908 126.054C170.789 126.038 169.401 116.33 175.035 106.915C178.523 101.086 183.57 97.2083 187.482 94.2684C191.159 91.5054 194.158 89.8143 194.317 90.0256Z" fill="#712901"/>
<path opacity="0.2" d="M185.207 107.24C185.544 107.496 180.929 116.284 179.879 123.707C179.805 124.229 179.578 125.95 179.083 128.218C178.423 131.24 177.713 133.28 177.512 133.909C175.454 140.362 178.519 150.275 178.233 150.28C177.974 150.285 174.294 142.153 174.872 132.737C175.272 126.211 177.571 121.463 180.96 114.464C183.083 110.078 185.004 107.086 185.207 107.24Z" fill="#712901"/>
<path opacity="0.2" d="M209.433 91.3896C209.614 91.7176 202.522 95.479 198.871 99.9748C198.615 100.291 197.782 101.341 196.523 102.634C194.847 104.356 193.497 105.397 193.097 105.726C188.982 109.104 187.778 117.176 187.541 117.047C187.326 116.93 187.357 109.769 191.367 103.717C194.147 99.5228 197.818 97.4004 203.231 94.2719C206.623 92.3113 209.324 91.1922 209.433 91.3896Z" fill="#712901"/>
<path opacity="0.2" d="M214.081 98.1625C214.195 98.3688 209.736 100.734 207.44 103.561C207.279 103.76 206.755 104.42 205.964 105.233C204.909 106.316 204.061 106.97 203.809 107.177C201.222 109.301 200.464 114.377 200.316 114.296C200.181 114.222 200.2 109.719 202.721 105.914C204.469 103.277 206.778 101.942 210.181 99.9749C212.314 98.7422 214.013 98.0384 214.081 98.1625Z" fill="#712901"/>
<path opacity="0.2" d="M236.65 89.1928C236.62 89.4264 231.623 88.7149 228.104 89.6498C227.856 89.7155 227.044 89.9413 225.926 90.1329C224.436 90.3882 223.365 90.4181 223.04 90.437C219.698 90.6321 216.099 94.2904 216.027 94.1373C215.961 93.9984 218.626 90.3689 222.904 88.7759C225.869 87.6718 228.521 87.9514 232.43 88.3634C234.88 88.6216 236.668 89.0522 236.65 89.1928Z" fill="#712901"/>
<path opacity="0.2" d="M247.053 99.8452C246.896 100.181 239.269 97.3463 233.219 97.4772C232.793 97.4864 231.393 97.5315 229.52 97.417C227.025 97.2644 225.304 96.9269 224.777 96.8391C219.36 95.9375 211.895 100.075 211.852 99.8219C211.812 99.5927 217.775 95.1653 225.345 94.3298C230.592 93.7506 234.686 95.1097 240.721 97.113C244.503 98.3684 247.148 99.6433 247.053 99.8452Z" fill="#DD9C59"/>
<path opacity="0.2" d="M188.343 215.498C188.732 215.265 196.757 221.966 204.476 225.041C205.019 225.257 206.814 225.955 209.114 227.053C212.179 228.515 214.162 229.743 214.779 230.104C221.11 233.817 232.891 233.867 232.802 234.128C232.721 234.365 222.674 235.382 212.635 232.167C205.677 229.939 201.277 226.495 194.791 221.418C190.726 218.237 188.108 215.638 188.343 215.498Z" fill="#DD9C59"/>
<path opacity="0.2" d="M170.854 109.307C171.192 109.482 168.509 119.719 168.756 127.622C168.773 128.178 168.845 130.006 168.766 132.466C168.662 135.744 168.358 138.026 168.28 138.724C167.484 145.894 171.758 155.281 171.506 155.36C171.278 155.433 166.744 148.038 165.764 138.211C165.086 131.399 166.364 125.919 168.248 117.841C169.429 112.779 170.651 109.201 170.854 109.307Z" fill="#712901"/>
</svg>
