<svg width="281" height="281" viewBox="0 0 281 281" fill="none" xmlns="http://www.w3.org/2000/svg">
<path d="M102.468 52.5469C103.515 54.7757 104.565 57.1279 105.073 59.5488C105.512 61.6445 105.622 63.8758 105.041 65.9531C104.334 68.4805 102.751 70.6519 101.355 72.834C98.6353 77.0869 96.6579 81.6855 97.7852 86.7844L97.5695 86.7218C95.6832 83.8536 94.1276 80.4646 93.8732 77.0056C93.7055 74.7244 93.9261 72.5527 95.0586 70.5253C95.7916 69.2133 96.8086 68.0948 97.78 66.9596C101.986 62.043 102.969 58.9781 102.468 52.5469Z" fill="#F96D00"/>
<path d="M165.5 41.1641C165.712 41.4898 165.398 41.9651 165.266 42.3301C164.585 44.201 164.105 46.4348 164.265 48.4319C164.529 51.7112 166.228 55.0461 167.332 58.1245C168.698 61.9347 169.615 65.9209 168.58 69.9394C168.154 71.5958 167.413 73.1306 166.688 74.6711L166.08 72.1342C165.424 70.0045 164.686 68.0424 163.538 66.124C162.558 64.4873 161.375 62.9756 160.429 61.3184C158.469 57.8836 157.845 53.9727 158.939 50.1306C159.989 46.4408 162.095 43.0617 165.5 41.1641Z" fill="#F96D00"/>
<path d="M152.752 15.5469L152.898 15.8491C152.337 16.5607 151.547 17.1175 150.85 17.6932L147.515 20.4972C146.137 21.6739 144.877 23.0024 143.662 24.3444C138.851 29.6571 134.527 35.8015 131.481 42.3111C129.868 45.757 128.638 49.3721 127.62 53.0322C126.064 58.6267 125.187 64.5453 125.876 70.3513C126.234 73.3586 126.82 76.359 127.638 79.2761L130.762 89.3234C134.102 101.144 133.452 114.401 130.14 126.162L127.094 120.432C124.666 116.309 121.832 112.366 118.886 108.601C117.48 106.804 116.078 104.954 114.417 103.381C116.208 113.949 112.124 125.313 107.303 134.582C104.862 139.274 102.082 143.734 99.8773 148.554C98.3151 151.969 97.2015 155.505 96.2098 159.12C90.7053 154.735 87.3223 148.976 85.6317 142.217C85.0515 139.897 84.7453 137.54 84.4657 135.17C83.9294 130.626 84.7263 125.75 85.6256 121.306C85.9469 119.718 86.5491 117.951 86.6303 116.351L87.7065 113.026C86.9033 113.882 86.1852 115.198 85.6182 116.232C84.435 117.056 83.851 118.346 83.1219 119.552C79.2867 125.895 76.786 133.216 75.474 140.502C73.8772 149.369 73.5539 158.463 74.8675 167.388C75.3053 170.361 75.8826 173.396 76.8024 176.26C78.3597 181.11 80.6577 185.548 83.5604 189.724C84.7719 191.467 86.1643 193.043 87.6695 194.535C88.3846 195.244 89.1727 196.051 90.0256 196.584C88.5729 201.018 87.6187 205.699 87.496 210.373C87.4919 212.363 87.4282 214.408 87.6296 216.389C88.3878 223.851 91.7497 230.277 96.9932 235.556L97.9256 236.44L97.7662 236.389C96.8535 236.087 96.1213 235.503 95.3338 234.969C93.0473 233.417 91.172 231.779 89.1493 229.917C90.1397 232.911 90.981 235.914 92.2403 238.817C93.0298 240.637 94.0569 242.309 94.8931 244.093C99.1605 250.231 104.249 255.511 110.75 259.313C114.374 261.432 118.329 263.005 122.309 264.311L126.672 265.534C127.846 265.817 129.385 265.961 130.391 266.619C128.294 266.552 126.087 266.048 124.036 265.645C114.196 263.71 104.751 260.164 95.9676 255.342C93.1677 253.805 90.3344 252.179 87.725 250.333C72.0636 239.254 60.9447 223.53 57.6973 204.425C56.2854 196.119 56.8785 187.894 59.2077 179.82C59.54 178.669 59.8827 176.8 60.5726 175.827C60.79 177.749 61.1758 179.59 61.6961 181.452C64.0544 189.896 69.4142 197.501 76.4889 202.647C77.3243 203.255 78.1104 203.984 79.0088 204.489L76.1407 200.493C73.6658 196.858 71.7737 193.014 70.1382 188.94C65.1943 176.625 63.9189 163.32 66.4234 150.285C69.6763 133.356 79.204 115.193 93.7134 105.351C91.2667 108.749 90.0763 112.972 89.2975 117.037C87.7095 125.325 88.5453 134.406 93.3739 141.51L100.859 126.024C106.211 113.655 107.184 98.0405 102.191 85.4057C107.142 88.4846 111.829 92.178 115.995 96.2525L120.948 101.516C121.505 98.8259 121.352 95.8941 121.077 93.173C120.509 87.5387 118.826 82.4148 117.448 76.9782C115.325 68.602 115.699 59.8781 118.508 51.7003C121.608 42.674 127.301 35.1443 134.158 28.6281C139.775 23.289 145.758 18.939 152.752 15.5469Z" fill="#E53500"/>
<path d="M94.8921 244.086C92.8996 243.812 90.7165 242.075 89.0868 240.95C83.421 237.041 78.689 231.786 74.8041 226.143C73.0906 223.654 71.4384 221.018 70.1807 218.264C67.4152 212.208 65.7541 205.932 64.5684 199.414C69.9913 207.449 77.9471 212.373 87.3453 214.415C87.5437 213.565 87.3783 212.359 87.3741 211.471C87.3722 211.09 87.3151 210.715 87.4949 210.366C87.4907 212.356 87.4271 214.402 87.6285 216.383C88.3867 223.844 91.7485 230.27 96.992 235.55L97.9245 236.434L97.765 236.383C96.8523 236.08 96.1202 235.497 95.3326 234.962C93.0462 233.41 91.1708 231.772 89.1481 229.911C90.1385 232.905 90.9798 235.908 92.2391 238.811C93.0288 240.63 94.0559 242.302 94.8921 244.086Z" fill="#F96D00"/>
<path d="M152.752 15.5474L156.573 13.7266C149.048 23.6595 145.917 35.4517 147.612 47.8132C148.545 54.625 150.559 61.22 153.344 67.4939C154.587 70.2945 155.908 73.0324 157.535 75.6338C160.23 79.9402 163.422 83.7216 166.555 87.6968C173.171 96.0903 179.388 104.485 183.001 114.656C183.661 116.513 184.33 118.359 184.718 120.295C184.768 120.543 184.741 120.444 184.84 120.684C187.744 112.838 188.484 103.79 188.175 95.4846C188.078 92.8747 187.956 90.2134 187.553 87.6303C189.972 90.9022 191.887 94.5107 193.59 98.195C196.798 105.134 198.98 112.289 199.063 119.99C199.093 122.731 198.764 125.523 198.358 128.232C197.879 131.431 197.081 134.631 196.146 137.727C195.07 141.294 193.834 144.765 193.285 148.47C192.84 151.472 192.923 154.602 193.354 157.596C193.472 158.415 193.512 160.175 193.896 160.84L193.973 160.944C194.157 157.949 194.986 155.242 195.836 152.385C198.643 142.956 203.558 134.711 210.179 127.459C212.012 125.451 214.028 123.602 216.023 121.758C215.706 123.044 215.07 124.379 214.631 125.645C211.88 134.946 210.808 144.456 212.439 154.084C213.532 160.531 215.639 166.685 217.951 172.782C219.859 177.813 222.163 182.73 223.219 188.044C224.218 193.075 224.262 198.175 223.804 203.265C221.692 226.747 205.033 245.454 185.034 256.352C179.919 259.139 174.524 261.165 168.971 262.895C167.355 263.398 165.692 263.994 164.026 264.3C162.139 264.905 160.138 265.268 158.196 265.659C150.376 267.233 142.236 267.642 134.288 267.011C133.144 266.92 131.553 266.99 130.483 266.668L130.391 266.62C129.385 265.962 127.846 265.818 126.672 265.534L122.309 264.311C118.329 263.005 114.374 261.433 110.75 259.313C104.249 255.511 99.1605 250.232 94.8931 244.093C94.057 242.309 93.0299 240.637 92.2404 238.817C90.9811 235.915 90.1397 232.912 89.1494 229.918C91.1721 231.779 93.0474 233.417 95.3338 234.969C96.1214 235.504 96.8535 236.087 97.7662 236.39L97.9257 236.44L96.9933 235.557C91.7497 230.277 88.3879 223.851 87.6297 216.39C87.4283 214.409 87.492 212.363 87.4961 210.373C87.6188 205.7 88.5729 201.018 90.0257 196.585C89.1728 196.052 88.3847 195.244 87.6695 194.536C86.1644 193.044 84.772 191.468 83.5605 189.725C80.6578 185.548 78.3598 181.111 76.8025 176.261C75.8826 173.396 75.3053 170.361 74.8676 167.389C73.554 158.464 73.8772 149.37 75.4741 140.502C76.7861 133.216 79.2867 125.896 83.122 119.552C83.8511 118.346 84.435 117.057 85.6183 116.232C86.1852 115.199 86.9034 113.882 87.7066 113.026L86.6303 116.352C86.5491 117.951 85.947 119.719 85.6257 121.307C84.7264 125.751 83.9296 130.627 84.4657 135.171C84.7454 137.541 85.0516 139.898 85.6317 142.217C87.3224 148.977 90.7054 154.736 96.2098 159.121C97.2016 155.505 98.3152 151.97 99.8774 148.555C102.082 143.734 104.862 139.274 107.303 134.583C112.124 125.314 116.208 113.949 114.417 103.382C116.079 104.955 117.48 106.804 118.886 108.602C121.832 112.367 124.666 116.31 127.094 120.433L130.14 126.163C133.453 114.402 134.102 101.145 130.762 89.324L127.638 79.2766C126.821 76.3596 126.234 73.3592 125.877 70.3519C125.187 64.5458 126.064 58.6272 127.62 53.0328C128.639 49.3726 129.868 45.7575 131.481 42.3117C134.527 35.8021 138.851 29.6576 143.662 24.3449C144.877 23.0029 146.137 21.6745 147.515 20.4977L150.85 17.6938C151.548 17.1181 152.337 16.5612 152.898 15.8497L152.752 15.5474Z" fill="url(#paint0_linear_4253_39194)"/>
<path d="M85.618 116.23C86.1849 115.196 86.9031 113.88 87.7063 113.023L86.63 116.349L86.5603 116.446L86.4459 116.609C85.9396 117.311 85.5842 118.026 85.2687 118.829C84.4314 120.957 83.9523 123.364 83.4636 125.6C81.417 134.963 81.2084 144.362 85.1098 153.292C83.6925 151.905 82.5792 149.735 81.7266 147.951C77.7278 139.581 79.3142 130.407 82.7825 122.147C83.2613 121.006 83.7649 119.837 84.3522 118.747C84.78 117.953 85.2797 117.221 85.5747 116.361L85.618 116.23Z" fill="#F96D00"/>
<path d="M190.061 95.2109C190.391 95.4846 190.638 96.1179 190.808 96.5139C191.702 98.5959 192.21 100.872 192.731 103.073C194.328 109.816 195.585 117.287 194.82 124.226C194.584 126.365 193.89 128.39 193.154 130.396C192.907 130.835 192.558 131.642 192.102 131.859L191.887 131.654L191.964 131.105C192.099 130.2 191.961 129.082 191.971 128.141C191.989 126.478 192.095 124.811 192.025 123.147L191.636 116.355L191.165 101.194C191.087 99.9121 191.238 97.9742 190.536 96.8642C190.361 96.5865 190.406 96.7048 190.306 96.4029L190.243 96.19C190.101 95.8223 190.072 95.6064 190.061 95.2109Z" fill="#F9A301"/>
<path d="M117.2 122.836C118.15 123.398 118.852 124.272 119.528 125.13C121.349 127.439 122.789 130.058 123.521 132.916C124.773 137.809 124.444 143.628 121.814 148.029C120.145 150.822 117.812 153.107 115.962 155.765C113.926 158.69 112.715 162.035 112.107 165.529L111.257 164.494C111.527 164.123 111.42 163.374 111.445 162.914C111.574 160.499 111.971 158.03 112.815 155.754C114.445 151.357 118.004 148.137 119.916 143.869C121.455 140.432 121.617 136.628 121.248 132.932C121.087 131.324 120.801 129.594 120.125 128.112C119.323 126.352 117.915 124.744 117.248 122.968L117.2 122.836Z" fill="#F96D00"/>
<path d="M111.256 164.495C110.549 163.578 109.958 162.475 109.487 161.419C106.62 154.984 107.614 147.269 111.453 141.465C113.248 138.751 115.519 136.19 116.676 133.109C117.111 131.952 117.419 130.818 117.604 129.595C118.071 126.493 117.246 123.922 115.666 121.281L117.199 122.836L117.247 122.968C117.915 124.745 119.322 126.352 120.125 128.112C120.8 129.594 121.086 131.324 121.247 132.933C121.616 136.629 121.454 140.432 119.915 143.869C118.004 148.137 114.444 151.358 112.815 155.755C111.971 158.031 111.573 160.5 111.444 162.914C111.42 163.375 111.526 164.123 111.256 164.495Z" fill="url(#paint1_linear_4253_39194)"/>
<path d="M178.839 136.055C178.914 136.141 179.033 136.203 179.063 136.313C179.118 136.516 178.975 137.173 178.948 137.411C178.849 138.279 178.754 139.177 178.825 140.052C178.946 141.542 179.423 143.026 180.105 144.35C180.942 145.976 182.05 147.462 183.068 148.977C185.408 152.458 187.362 156 187.289 160.317C187.192 165.96 184.455 170.819 180.474 174.632L178.173 176.449C178.96 174.253 179.35 171.966 179.631 169.655C179.885 167.579 180.065 165.338 179.794 163.253C179.562 161.466 179.276 159.77 178.652 158.069C177.387 154.621 175.273 151.467 174.896 147.733C174.441 143.237 176.018 139.48 178.839 136.055Z" fill="#F96D00"/>
<path d="M177.215 141.281C177.805 141.813 177.532 143.92 177.991 144.725L180.08 148.631C181.028 150.233 182.17 151.773 182.943 153.467C184.879 157.713 183.938 162.14 182.387 166.33L181.681 168.255C181.664 164.947 181.482 161.705 180.634 158.489C179.941 155.866 178.713 153.594 177.812 151.072C177.135 149.174 176.719 147.086 176.695 145.07C176.686 144.32 176.645 143.533 176.785 142.796L176.819 142.628C176.91 142.146 177.028 141.736 177.215 141.281Z" fill="url(#paint2_linear_4253_39194)"/>
<path d="M193.974 160.944C194.157 157.949 194.986 155.241 195.836 152.385C198.644 142.955 203.558 134.711 210.179 127.459C212.012 125.451 214.028 123.602 216.023 121.758C215.707 123.043 215.071 124.379 214.631 125.645C213.319 126.437 212.714 128.168 211.946 129.461C207.402 137.117 203.45 145.555 201.304 154.233C199.302 162.327 199.147 170.551 199.372 178.836C197.05 175.359 195.041 171.651 194.28 167.497C193.9 165.424 193.878 163.188 193.986 161.092L193.974 160.944Z" fill="#E53500"/>
<path d="M208.158 140.984C208.388 141.344 208.292 147.537 208.334 148.531C208.458 151.488 208.784 154.396 209.312 157.308C209.936 160.753 211.081 164.022 212.529 167.199C215.93 174.66 220.551 181.514 220.644 190.044C220.724 197.329 217.703 205.356 212.609 210.58C211.598 211.508 210.617 212.282 209.461 213.032C210.335 210.568 211.14 207.977 211.428 205.37C212.366 196.866 208.217 188.333 206.117 180.275C203.498 170.22 203.462 159.569 205.474 149.399C206.032 146.584 206.687 143.48 208.158 140.984Z" fill="#F96D00"/>
<path d="M206.949 152.109C207.274 152.989 207.217 154.136 207.372 155.075L208.848 162.403C209.361 164.431 209.908 166.477 210.605 168.449L214.517 178.476C217.208 185.792 218.835 193.989 215.417 201.381L214.285 203.177C214.361 200.231 213.891 197.53 213.315 194.657L209.429 179.17C207.878 172.725 207.011 165.993 206.733 159.373L206.68 154.581C206.711 153.745 206.709 152.917 206.949 152.109Z" fill="#F9A301"/>
<path d="M159.936 140.626C160.438 140.138 160.402 138.938 160.515 138.239C160.957 135.495 161.398 132.8 161.434 130.013C161.564 120.133 156.595 110.097 150.872 102.293C147.531 97.7363 143.758 93.4438 140.764 88.6411C136.149 81.2357 133.238 73.3197 132.582 64.5873C132.195 59.4322 132.343 54.2188 133.776 49.2193C134.508 46.6634 135.584 44.2019 136.661 41.7764C138.868 36.8037 141.407 32.1019 144.2 27.4375C142.965 32.1815 142.006 37.2831 141.875 42.1965C141.796 45.1747 142.11 48.1104 142.513 51.0559C142.781 53.0163 143.025 54.9391 143.445 56.8767C144.717 62.7506 147.158 68.8832 150.214 74.0578C151.925 76.9542 153.937 79.6408 155.869 82.3879L161.738 91.3481C166.878 99.9076 170.458 109.554 171.904 119.444C172.296 122.122 172.667 124.827 172.702 127.539C172.721 129.053 172.587 130.579 172.497 132.091C172.322 135.026 172.021 137.986 171.302 140.844C170.428 144.315 169.353 147.724 168.086 151.07C167.28 153.198 166.185 155.628 164.724 157.382C164.154 158.065 163.895 158.79 163.132 159.317L163.063 159.398L159.936 140.626Z" fill="#F96D00"/>
<path d="M140.313 41.8984C140.247 43.8871 140.059 45.8371 140.111 47.834C140.348 56.9256 142.725 66.5224 146.639 74.7225C148.911 79.4838 151.868 83.6426 154.614 88.1133C159.172 95.5338 162.868 103.242 165.085 111.69C165.715 114.091 166.337 116.52 166.656 118.985C166.304 118.397 166.052 117.751 165.777 117.124C162.947 111.479 159.625 106.185 155.82 101.143C151.474 95.3809 146.68 89.9017 143.312 83.464C141.3 79.6181 139.491 75.2269 138.486 70.9995C136.773 63.7961 136.9 56.3612 138.307 49.1232C138.782 46.6815 139.573 44.2688 140.313 41.8984Z" fill="#F9A301"/>
<path d="M90.0245 196.585C93.1245 187.571 97.7371 179.129 103.242 171.373C104.658 169.379 106.079 167.324 107.708 165.499C107.42 166.879 107.305 168.316 107.148 169.716C106.626 174.362 106.669 178.798 107.388 183.428C107.806 186.116 108.396 188.79 109.612 191.24C110.39 188.248 111.048 185.298 112.018 182.352C115.222 172.622 120.087 163.201 125.062 154.272C129.477 146.347 134.259 138.647 137.713 130.228C141.818 120.225 144.774 107.826 140.37 97.4194L140.314 97.2891C141.614 98.4402 142.768 100.379 143.754 101.818C146.176 105.353 148.174 109.076 150.079 112.907C154.479 121.755 157.784 130.979 159.936 140.623L163.063 159.396L168.484 180.826C169.625 185.13 170.904 189.412 171.652 193.808C172.49 198.74 172.756 203.527 172.749 208.515C174.734 206.955 176.681 205.501 178.388 203.623C182.442 199.163 184.72 192.625 185.441 186.727C185.799 183.803 185.895 180.991 185.6 178.056C185.478 176.837 185.085 175.475 185.101 174.275C188.056 178.821 190.971 183.365 193.277 188.29C198.648 199.76 200.345 212.726 197.726 225.147L195.795 232.164C194.084 232.532 192.484 233.855 190.945 234.696C188.192 236.2 185.294 237.431 182.404 238.644C181.192 239.153 179.416 240.04 178.119 240.092C182.984 232.146 186.161 222.923 186.804 213.595C186.97 211.181 186.889 208.732 186.867 206.314C185.799 208.781 184.927 211.212 183.447 213.481C180.055 218.681 174.932 222.111 169.417 224.746C166.566 226.108 163.722 227.249 160.621 227.912C162.413 224.051 164.083 219.833 165.119 215.698C165.342 214.428 165.799 213.469 165.598 212.144C165.2 209.524 164.615 207.04 163.617 204.575C162.02 200.628 159.519 196.903 157.336 193.259C151.077 182.812 145.493 170.282 146.287 157.823C146.479 154.819 147.185 151.926 147.831 149C147.393 149.538 147.075 150.337 146.69 150.931L144.336 154.212L131.291 171.512L126.037 179.971C123.875 183.764 121.862 187.653 120.564 191.841C118.381 198.889 118.194 206.568 119.543 213.789C120.004 216.524 120.713 219.564 121.909 222.084C119.363 220.524 116.83 218.951 114.499 217.078C110.865 214.159 107.513 210.277 105.158 206.263C104.051 204.376 103.097 202.404 102.455 200.309C102.387 200.089 101.694 197.847 101.626 197.819C100.954 200.15 100.658 202.451 100.379 204.853C98.972 216.927 101.707 228.693 105.962 239.941C103.913 239.217 101.868 238.461 99.8989 237.539C99.2227 237.222 98.6259 236.674 97.9248 236.441L96.9924 235.558C91.7488 230.278 88.387 223.852 87.6288 216.391C87.4274 214.409 87.491 212.364 87.4952 210.374C87.6176 205.7 88.5718 201.019 90.0245 196.585Z" fill="url(#paint3_linear_4253_39194)"/>
<path d="M119.544 213.789C118.195 206.568 118.382 198.889 120.565 191.841C121.863 187.653 123.876 183.764 126.038 179.971L131.292 171.512L144.337 154.212L146.691 150.93C147.076 150.337 147.394 149.538 147.832 149C147.186 151.926 146.48 154.819 146.288 157.823C145.494 170.282 151.078 182.812 157.337 193.258C159.52 196.903 162.021 200.628 163.618 204.575C164.616 207.039 165.201 209.523 165.599 212.144C165.799 213.468 165.342 214.427 165.12 215.697C164.084 219.833 162.414 224.051 160.622 227.912C163.723 227.249 166.567 226.107 169.418 224.746C174.933 222.111 180.056 218.681 183.448 213.481C184.928 211.212 185.8 208.781 186.868 206.314C186.89 208.732 186.97 211.181 186.804 213.595C186.162 222.923 182.985 232.146 178.12 240.091C179.417 240.039 181.193 239.153 182.405 238.644C185.295 237.43 188.193 236.2 190.946 234.696C192.485 233.855 194.085 232.532 195.796 232.163C194.703 234.76 193.642 237.351 192.266 239.816C186.421 250.291 177.145 258.777 166.004 263.298C165.39 263.547 164.459 263.792 164.026 264.301C162.139 264.906 160.138 265.269 158.196 265.66C150.376 267.234 142.236 267.643 134.289 267.011C133.144 266.921 131.553 266.991 130.484 266.668L130.391 266.62C129.385 265.962 127.846 265.818 126.672 265.535L122.309 264.312C118.329 263.006 114.374 261.434 110.75 259.314C104.249 255.512 99.1606 250.232 94.8932 244.094C94.0571 242.31 93.03 240.638 92.2404 238.818C90.9811 235.915 90.1398 232.912 89.1494 229.918C91.1721 231.78 93.0474 233.418 95.3339 234.97C96.1214 235.504 96.8536 236.088 97.7663 236.39L97.9257 236.441C98.6268 236.673 99.2238 237.222 99.8998 237.539C101.869 238.461 103.914 239.216 105.963 239.941C101.708 228.693 98.9729 216.926 100.38 204.853C100.659 202.451 100.955 200.15 101.627 197.819C101.695 197.847 102.388 200.089 102.456 200.309C103.098 202.404 104.052 204.376 105.159 206.262C107.514 210.277 110.866 214.158 114.5 217.077C116.831 218.951 119.364 220.523 121.91 222.084C120.714 219.564 120.005 216.524 119.544 213.789Z" fill="url(#paint4_linear_4253_39194)"/>
<path d="M130.087 222.336C129.565 218.514 129.778 214.688 130.373 210.887C132.099 199.868 137.222 189.773 141.522 179.594C141.354 185.429 142.397 191.062 144.336 196.556L146.772 202.676C148.042 206.117 148.767 209.68 148.302 213.356C148.042 215.418 147.38 217.418 146.746 219.388L144.961 223.096L147.31 221.248C147.632 220.983 148.127 220.65 148.36 220.32C149.263 219.664 150.181 218.595 150.889 217.728C154.126 213.763 155.235 209.28 156.595 204.478L157.627 215.507C158.064 222.78 157.97 231.29 154.539 237.92C153.585 239.763 152.289 241.442 151.067 243.113L151.198 243.045C152.707 242.279 154.34 241.714 155.904 241.068C160.664 239.103 165.74 236.979 168.902 232.708C169.487 231.916 169.905 231.016 170.338 230.136C170.337 231.102 169.958 232.073 169.675 232.99C168.551 236.624 166.791 240.295 164.617 243.423L164.55 243.419C163.843 243.379 163.12 243.563 162.423 243.676L158.748 244.238C155.121 244.729 151.377 245.103 147.723 245.255C140.915 245.537 133.955 245.524 127.172 244.805L121.144 243.987C119.976 243.796 118.794 243.499 117.617 243.399L117.504 243.391L117.409 243.336C113.347 237.048 110.542 230.095 108.989 222.788C109.774 224.269 110.43 225.791 111.322 227.218C113.99 231.487 118.329 234.874 122.775 237.162C125.65 238.641 128.386 239.898 131.069 241.724C128.158 237.962 126.436 233.223 125.392 228.621C124.738 225.739 124.308 222.642 124.489 219.685C125.683 222.338 127.217 224.736 129.155 226.914C130.33 228.234 131.612 229.422 132.732 230.797C131.567 228.031 130.628 225.294 130.087 222.336Z" fill="url(#paint5_linear_4253_39194)"/>
<path d="M94.8932 244.09C94.0571 242.306 93.03 240.634 92.2404 238.814C90.9811 235.911 90.1398 232.908 89.1494 229.914C91.1721 231.776 93.0474 233.414 95.3339 234.966C96.1214 235.5 96.8536 236.084 97.7663 236.386L97.9257 236.437C98.6268 236.669 99.2238 237.218 99.8998 237.535C101.869 238.457 103.914 239.212 105.963 239.936L106.109 240.132L117.41 243.335L117.505 243.39L117.618 243.398C118.795 243.498 119.977 243.796 121.145 243.987L127.174 244.804C133.956 245.523 140.916 245.537 147.725 245.254C151.378 245.102 155.123 244.729 158.749 244.237L162.424 243.675C163.121 243.563 163.844 243.378 164.552 243.419L164.618 243.422L166.56 243.108L167.932 242.832L168.285 242.781L174.645 241.27L175.214 241.136C175.838 240.938 176.535 240.699 177.184 240.609C177.669 240.541 177.764 240.409 178.12 240.087C179.417 240.035 181.193 239.149 182.405 238.64C185.295 237.426 188.193 236.196 190.946 234.692C192.485 233.851 194.085 232.528 195.796 232.159C194.703 234.756 193.642 237.347 192.267 239.812C186.421 250.287 177.145 258.773 166.005 263.294C165.39 263.543 164.459 263.788 164.026 264.297C162.139 264.902 160.138 265.265 158.196 265.656C150.376 267.23 142.236 267.639 134.289 267.007C133.144 266.917 131.553 266.987 130.484 266.664L130.391 266.616C129.385 265.958 127.846 265.814 126.672 265.531L122.309 264.308C118.329 263.002 114.374 261.429 110.75 259.31C104.249 255.508 99.1606 250.228 94.8932 244.09Z" fill="#E88F00"/>
<path d="M106.108 240.141L117.409 243.343L117.505 243.398C118.247 244.964 119.311 246.464 120.295 247.888C122.727 251.408 125.396 254.606 128.296 257.75C129.684 259.256 131.041 260.825 132.541 262.219C133.495 263.106 134.482 263.971 135.517 264.76C136.209 265.288 137.043 265.782 137.646 266.405C136.426 266.364 134.92 265.545 133.777 265.104C122.289 260.662 111.165 251.523 106.108 240.141Z" fill="#F9A301"/>
<path d="M117.505 243.391L117.618 243.399C118.795 243.499 119.977 243.796 121.145 243.987L127.173 244.805C133.956 245.524 140.916 245.537 147.724 245.255C151.378 245.103 155.122 244.729 158.749 244.238L162.424 243.676C163.121 243.563 163.844 243.379 164.551 243.419C164.154 244.735 162.752 246.262 161.901 247.387C156.366 254.707 149.41 261.715 141.267 266.097C140.438 266.543 139.585 266.838 138.667 267.037L137.646 266.397C137.043 265.775 136.21 265.28 135.518 264.753C134.482 263.963 133.495 263.098 132.541 262.212C131.041 260.817 129.685 259.248 128.296 257.743C125.396 254.598 122.727 251.4 120.295 247.881C119.311 246.456 118.247 244.956 117.505 243.391Z" fill="#EEBA24"/>
<defs>
<linearGradient id="paint0_linear_4253_39194" x1="151.829" y1="263.524" x2="143.904" y2="14.9057" gradientUnits="userSpaceOnUse">
<stop stop-color="#EC4000"/>
<stop offset="1" stop-color="#FD5F00"/>
</linearGradient>
<linearGradient id="paint1_linear_4253_39194" x1="122.264" y1="157.426" x2="106.347" y2="130.345" gradientUnits="userSpaceOnUse">
<stop stop-color="#FB7200"/>
<stop offset="1" stop-color="#FC9A01"/>
</linearGradient>
<linearGradient id="paint2_linear_4253_39194" x1="182.825" y1="153.68" x2="178.258" y2="155.152" gradientUnits="userSpaceOnUse">
<stop stop-color="#FC8F01"/>
<stop offset="1" stop-color="#FCAE01"/>
</linearGradient>
<linearGradient id="paint3_linear_4253_39194" x1="143.005" y1="239.852" x2="144.073" y2="98.5405" gradientUnits="userSpaceOnUse">
<stop stop-color="#FE9400"/>
<stop offset="1" stop-color="#FBC265"/>
</linearGradient>
<linearGradient id="paint4_linear_4253_39194" x1="140.558" y1="246.164" x2="152.744" y2="149.931" gradientUnits="userSpaceOnUse">
<stop stop-color="#FFAA00"/>
<stop offset="1" stop-color="#FEF07F"/>
</linearGradient>
<linearGradient id="paint5_linear_4253_39194" x1="140.043" y1="245.163" x2="138.745" y2="181.159" gradientUnits="userSpaceOnUse">
<stop stop-color="#FEC95A"/>
<stop offset="1" stop-color="#FFFB9B"/>
</linearGradient>
</defs>
</svg>
