<svg width="260" height="364" viewBox="0 0 260 364" fill="none" xmlns="http://www.w3.org/2000/svg">
<path d="M20.9747 41.2122H12.6992L14.1747 37.3203H19.499L20.9747 41.2122Z" fill="url(#paint0_linear_4412_62471)"/>
<path d="M20.6216 41.2656H12.6289V374.761H20.6216V41.2656Z" fill="url(#paint1_linear_4412_62471)"/>
<mask id="mask0_4412_62471" style="mask-type:luminance" maskUnits="userSpaceOnUse" x="20" y="0" width="240" height="240">
<path d="M259.364 0H20.0215V239.343H259.364V0Z" fill="white"/>
</mask>
<g mask="url(#mask0_4412_62471)">
<path d="M259.369 93.5439H20.0254V45.4002C20.0254 43.1213 21.8734 41.2734 24.1522 41.2734H255.241C257.521 41.2734 259.369 43.1213 259.369 45.4002V93.5439Z" fill="#FF9933"/>
<path d="M255.241 198.084H24.1522C21.8734 198.084 20.0254 196.236 20.0254 193.958V145.812H259.369V193.958C259.369 196.236 257.519 198.084 255.241 198.084Z" fill="#138808"/>
<path d="M259.369 93.5391H20.0254V145.806H259.369V93.5391Z" fill="#F5F5F5"/>
<path d="M139.694 141.861C127.465 141.861 117.514 131.912 117.514 119.68C117.514 107.45 127.465 97.5 139.694 97.5C151.926 97.5 161.875 107.45 161.875 119.68C161.875 131.912 151.926 141.861 139.694 141.861ZM139.694 101.626C129.738 101.626 121.642 109.724 121.642 119.68C121.642 129.637 129.738 137.735 139.694 137.735C149.651 137.735 157.749 129.637 157.749 119.68C157.749 109.724 149.651 101.626 139.694 101.626Z" fill="#000080"/>
<path d="M139.694 122.194C141.083 122.194 142.208 121.067 142.208 119.678C142.208 118.291 141.083 117.164 139.694 117.164C138.304 117.164 137.18 118.291 137.18 119.678C137.18 121.067 138.304 122.194 139.694 122.194Z" fill="#000080"/>
<path d="M139.698 120.064L133.308 120.709L119.58 120.064V119.309L133.308 118.664L139.698 119.309V120.064Z" fill="#000080"/>
<path d="M139.697 120.064L146.087 120.709L159.815 120.064V119.309L146.087 118.664L139.697 119.309V120.064Z" fill="#000080"/>
<path d="M139.319 119.688L138.674 113.296L139.319 99.5703H140.072L140.719 113.296L140.072 119.688H139.319Z" fill="#000080"/>
<path d="M139.319 119.672L138.674 126.062L139.319 139.788H140.072L140.719 126.062L140.072 119.672H139.319Z" fill="#000080"/>
<path d="M139.433 119.946L134.457 115.883L125.207 105.72L125.74 105.188L135.903 114.438L139.965 119.411L139.433 119.946Z" fill="#000080"/>
<path d="M139.432 119.948L143.494 124.922L153.655 134.172L154.19 133.64L144.94 123.477L139.964 119.414L139.432 119.948Z" fill="#000080"/>
<path d="M139.432 119.411L143.494 114.438L153.655 105.188L154.19 105.72L144.94 115.883L139.964 119.946L139.432 119.411Z" fill="#000080"/>
<path d="M139.433 119.414L134.457 123.477L125.207 133.64L125.74 134.172L135.903 124.922L139.965 119.948L139.433 119.414Z" fill="#000080"/>
<path d="M139.842 120.025L134.184 123.067L121.255 127.723L120.967 127.028L133.401 121.177L139.552 119.328L139.842 120.025Z" fill="#000080"/>
<path d="M139.843 120.028L145.994 118.179L158.428 112.33L158.14 111.633L145.211 116.29L139.553 119.331L139.843 120.028Z" fill="#000080"/>
<path d="M139.344 119.82L136.303 114.164L131.646 101.235L132.344 100.945L138.192 113.381L140.042 119.532L139.344 119.82Z" fill="#000080"/>
<path d="M139.352 119.827L141.201 125.978L147.049 138.412L147.747 138.124L143.09 125.196L140.049 119.539L139.352 119.827Z" fill="#000080"/>
<path d="M139.552 120.028L133.401 118.179L120.967 112.33L121.255 111.633L134.184 116.29L139.842 119.331L139.552 120.028Z" fill="#000080"/>
<path d="M139.553 120.025L145.211 123.067L158.14 127.723L158.428 127.028L145.994 121.177L139.843 119.328L139.553 120.025Z" fill="#000080"/>
<path d="M139.352 119.532L141.201 113.381L147.049 100.945L147.747 101.235L143.09 114.164L140.049 119.82L139.352 119.532Z" fill="#000080"/>
<path d="M139.344 119.539L136.303 125.196L131.646 138.124L132.344 138.412L138.192 125.978L140.042 119.827L139.344 119.539Z" fill="#000080"/>
<path d="M139.695 123.066C141.57 123.066 143.088 121.547 143.088 119.674C143.088 117.801 141.57 116.281 139.695 116.281C137.823 116.281 136.305 117.801 136.305 119.674C136.305 121.547 137.823 123.066 139.695 123.066Z" fill="#F5F5F5"/>
<path d="M139.696 121.717C140.821 121.717 141.73 120.805 141.73 119.682C141.73 118.559 140.821 117.648 139.696 117.648C138.573 117.648 137.662 118.559 137.662 119.682C137.662 120.805 138.573 121.717 139.696 121.717Z" fill="#000080"/>
</g>
<path opacity="0.4" d="M52.0258 41.1953H20.1484V198.05H52.0258V41.1953Z" fill="url(#paint2_linear_4412_62471)"/>
<defs>
<linearGradient id="paint0_linear_4412_62471" x1="12.6992" y1="39.2662" x2="20.9747" y2="39.2662" gradientUnits="userSpaceOnUse">
<stop offset="0.02" stop-color="#C7C7C7"/>
<stop offset="0.48" stop-color="white"/>
<stop offset="0.73" stop-color="#ABABAB"/>
<stop offset="0.99" stop-color="#ADADAD"/>
</linearGradient>
<linearGradient id="paint1_linear_4412_62471" x1="12.6289" y1="208.014" x2="20.6216" y2="208.014" gradientUnits="userSpaceOnUse">
<stop stop-color="#AFAFAF"/>
<stop offset="0.04" stop-color="#BDBDBD"/>
<stop offset="0.08" stop-color="#CCCBCB"/>
<stop offset="0.25" stop-color="white"/>
<stop offset="0.32" stop-color="#2F2F2F"/>
<stop offset="0.35" stop-color="#646464"/>
<stop offset="0.38" stop-color="#A6A6A6"/>
<stop offset="0.41" stop-color="#D6D6D6"/>
<stop offset="0.43" stop-color="#F3F3F3"/>
<stop offset="0.44" stop-color="white"/>
<stop offset="0.61" stop-color="white"/>
<stop offset="0.63" stop-color="#D5D5D5"/>
<stop offset="0.66" stop-color="#959595"/>
<stop offset="0.69" stop-color="#676767"/>
<stop offset="0.72" stop-color="#4A4A4A"/>
<stop offset="0.73" stop-color="#404040"/>
<stop offset="0.75" stop-color="#2D2D2D"/>
<stop offset="0.79" stop-color="#1B1B1B"/>
<stop offset="0.81" stop-color="#151515"/>
<stop offset="0.88" stop-color="#D6D6D6"/>
<stop offset="0.93" stop-color="#D7D7D8"/>
<stop offset="1" stop-color="#4E4E4E"/>
</linearGradient>
<linearGradient id="paint2_linear_4412_62471" x1="20.1484" y1="119.623" x2="52.0258" y2="119.623" gradientUnits="userSpaceOnUse">
<stop stop-color="#808080"/>
<stop offset="0.66" stop-color="white"/>
</linearGradient>
</defs>
</svg>
