<svg width="159" height="278" viewBox="0 0 159 278" fill="none" xmlns="http://www.w3.org/2000/svg">
<path d="M5.89605 261.862C5.79348 261.797 5.67878 261.717 5.56786 261.655C5.48945 261.613 9.84523 252.814 10.2522 251.978C11.7271 248.959 13.2104 245.943 14.7135 242.938C17.2076 237.945 19.7399 232.968 22.4071 228.067C24.1562 224.853 25.9306 221.604 28.0305 218.607C28.5879 217.809 29.1793 216.983 29.9008 216.331C30.2012 216.06 30.6857 215.659 31.0758 215.924C31.5274 216.231 31.5356 216.97 31.5191 217.478C31.4822 218.56 31.2214 219.649 30.948 220.699C29.9796 224.388 28.555 227.979 27.1262 231.517C25.0018 236.778 22.7012 241.967 20.3505 247.131C18.9481 250.213 17.5251 253.283 16.0839 256.348C15.3169 257.981 14.5457 259.611 13.7702 261.24C13.3893 262.043 13.0056 262.846 12.6219 263.648C12.4273 264.053 12.2334 264.46 12.0388 264.865C11.9141 265.125 11.7418 265.216 12.018 265.368C12.189 265.46 12.3586 265.556 12.5268 265.654C12.9332 265.889 13.3416 266.12 13.7574 266.335C19.2294 254.953 24.7291 243.557 30.7553 232.456C32.5335 229.182 34.3345 225.885 36.4331 222.808C37.006 221.966 37.6045 221.107 38.3265 220.393C38.5892 220.135 39.1042 219.616 39.5001 219.812C39.901 220.011 39.8064 220.758 39.766 221.131C39.652 222.164 39.3503 223.193 39.046 224.188C37.9366 227.821 36.4734 231.358 35.0069 234.862C32.8102 240.114 30.4754 245.31 28.1011 250.483C26.6812 253.572 25.2459 256.654 23.7943 259.729C23.0232 261.367 22.2472 263.004 21.4676 264.637C21.0839 265.443 20.6995 266.247 20.3145 267.052C20.1192 267.458 19.9239 267.865 19.728 268.273C19.6296 268.477 19.5313 268.682 19.4337 268.885C19.6077 268.997 19.7824 269.107 19.9605 269.21C20.3358 269.426 20.754 269.568 21.1477 269.75C21.5708 268.873 21.9954 267.997 22.4214 267.121C23.2211 265.478 24.0251 263.837 24.8361 262.2C26.3624 259.113 27.9085 256.036 29.4779 252.972C32.1364 247.786 34.857 242.629 37.7323 237.559C39.7041 234.081 41.7255 230.593 44.0489 227.34C44.73 226.386 45.4411 225.43 46.2685 224.604C46.6408 224.234 47.1983 223.66 47.7518 223.679C49.8132 223.745 44.5616 236.578 44.2024 237.47C39.5354 249.053 34.188 260.379 28.7926 271.641C28.6942 271.846 28.5966 272.049 28.4983 272.254C28.3464 272.57 28.4722 272.467 28.6993 272.613C28.9329 272.723 29.1679 272.838 29.3919 272.968C29.5516 273.058 29.7107 273.154 29.8745 273.24C30.1633 273.391 30.2659 273.546 30.4381 273.227C30.7259 272.697 31.0145 272.165 31.3037 271.635C32.0081 270.339 32.716 269.043 33.4246 267.749C35.227 264.449 37.035 261.152 38.8437 257.854C43.0064 250.271 47.1755 242.689 51.3467 235.109C54.315 229.716 57.284 224.324 60.2544 218.933C60.9849 217.608 61.6828 216.387 62.064 214.896C63.0546 211.008 61.956 207.069 60.8944 203.432C59.7026 199.354 58.3916 195.22 58.5669 190.839C58.647 188.857 58.9378 186.603 59.8546 184.789C60.7171 183.084 61.6044 181.393 62.4838 179.696C64.2632 176.271 66.0475 172.846 67.8317 169.422C70.3284 164.63 72.8279 159.84 75.3294 155.049C78.3551 149.254 81.3821 143.456 84.4098 137.66C87.7755 131.219 91.1418 124.779 94.5081 118.337C98.0233 111.613 101.539 104.889 105.054 98.1657C108.531 91.5176 112.007 84.8722 115.483 78.2234C118.73 72.0137 121.978 65.8061 125.226 59.5965C128.056 54.1854 130.886 48.7758 133.717 43.3647C135.941 39.1124 138.165 34.8623 140.39 30.6106C141.818 27.8801 143.248 25.1501 144.677 22.4181C145.48 20.8844 146.566 19.3827 146.291 17.5844C145.908 15.1058 144.09 12.9418 142.217 11.5294C140.135 9.96277 137.507 9.3207 134.89 9.53286C132.934 9.68906 130.592 10.3773 129.691 12.4196C128.964 14.0683 128.238 15.7171 127.512 17.3623C125.992 20.8129 124.472 24.262 122.95 27.7105C120.798 32.5877 118.649 37.4663 116.498 42.3442C113.882 48.2785 111.266 54.2114 108.647 60.1464C105.727 66.7655 102.809 73.3832 99.8905 80.0029C96.833 86.9344 93.7756 93.8659 90.7174 100.795C87.6856 107.666 84.6552 114.538 81.622 121.408C78.7808 127.846 75.9403 134.282 73.0971 140.721C70.6103 146.356 68.1234 151.988 65.6337 157.622C63.6661 162.079 61.6957 166.534 59.7246 170.991C58.4371 173.899 57.151 176.807 55.8606 179.714C55.1255 181.367 54.5104 182.867 53.4143 184.324C50.6274 188.028 46.7129 190.304 42.6605 192.141C39.0761 193.766 35.1674 195.126 32.1695 197.884C30.6571 199.275 29.6296 200.951 28.8236 202.823C27.9847 204.779 27.1444 206.734 26.3033 208.691C23.2615 215.771 20.2169 222.849 17.1687 229.927C13.8835 237.557 10.5954 245.186 7.29255 252.809C6.57359 254.468 5.85322 256.126 5.13144 257.784C4.83211 258.476 4.52997 259.166 4.22782 259.857C4.10006 260.148 3.97229 260.439 3.84521 260.729C3.82848 260.778 5.67816 261.722 5.89605 261.862C5.0754 261.336 5.95831 261.902 5.89605 261.862Z" fill="#58595B"/>
<path d="M41.1834 191.007C46.5576 188.347 53.0008 186.242 55.7174 180.164C56.8782 177.571 58.0249 174.971 59.1744 172.372C61.2362 167.715 63.2959 163.056 65.3534 158.397C68.0919 152.199 70.8283 146 73.5667 139.802C76.752 132.582 79.9387 125.364 83.1247 118.147C86.5304 110.429 89.9334 102.713 93.3384 94.9969C96.7319 87.3045 100.125 79.6086 103.52 71.9148C106.672 64.7633 109.826 57.6125 112.98 50.4631C115.663 44.3765 118.347 38.2906 121.031 32.2061C123.014 27.7047 124.999 23.2055 126.982 18.7042C127.388 17.7839 127.793 16.8651 128.199 15.9448C131.048 17.2304 133.899 18.5132 136.751 19.7967C136.3 20.7296 135.847 21.664 135.396 22.5969C134.131 25.21 132.865 27.8239 131.599 30.4378C129.657 34.4503 127.716 38.4615 125.773 42.4733C123.29 47.6051 120.807 52.7347 118.323 57.8644C115.435 63.8317 112.547 69.8004 109.659 75.7642C106.502 82.2882 103.344 88.8102 100.187 95.3343C96.8957 102.131 93.6071 108.929 90.3172 115.726C87.0313 122.518 83.7426 129.309 80.456 136.099C77.3071 142.603 74.1596 149.107 71.0106 155.611C68.137 161.545 65.2656 167.482 62.3913 173.417C59.9287 178.503 57.4682 183.588 55.007 188.675C53.0924 192.631 51.1779 196.587 49.264 200.542C48.033 203.086 46.8007 205.629 45.5698 208.173C45.4687 208.383 44.4104 210.771 44.2686 210.704C39.333 208.402 34.3974 206.101 29.4632 203.8C29.2346 203.693 29.0046 203.586 28.7767 203.478C28.7316 203.457 28.6857 203.436 28.6392 203.414C28.6109 203.4 29.132 202.247 29.1901 202.115C29.8707 200.551 30.5506 198.991 31.5312 197.586C33.8434 194.281 37.7764 192.693 41.1834 191.007C34.1561 194.484 46.0767 188.585 41.1834 191.007Z" fill="#A7A9AC"/>
<path d="M128.201 15.9488C128.777 14.6414 129.353 13.3339 129.929 12.0251C130.161 11.5004 130.37 10.9565 130.649 10.4514C131.469 8.96569 132.766 7.79463 134.307 7.20101C136.432 6.37894 138.742 6.69126 140.778 7.4141C143.219 8.28318 145.595 9.73176 146.952 12.0585C148.124 14.0702 148.428 16.7853 147.245 18.9826C146.947 19.5378 146.644 20.0972 146.343 20.6545C144.952 23.2311 143.561 25.8057 142.17 28.3823C139.901 32.5884 137.633 36.7916 135.369 40.9983C132.436 46.4453 129.506 51.8957 126.581 57.3482C123.196 63.6552 119.819 69.9657 116.447 76.2789C112.825 83.0624 109.21 89.8493 105.605 96.6431C101.957 103.517 98.3199 110.397 94.6987 117.283C91.2358 123.866 87.7892 130.454 84.3624 137.055C81.2992 142.957 78.2522 148.869 75.2399 154.799C72.7811 159.638 70.3435 164.488 67.9694 169.368C66.3204 172.753 64.6813 176.15 63.1917 179.609C62.7451 180.643 62.3077 181.683 61.9372 182.747C61.8213 183.079 61.7118 183.416 61.6296 183.757C61.3186 185.04 60.8479 186.28 60.5996 187.585C59.5877 192.873 61.3356 198.151 62.5668 203.13C63.5587 207.147 64.2437 211.282 62.1565 215.214C60.0298 219.221 57.9194 223.234 55.7949 227.244C52.175 234.084 48.5446 240.918 44.8915 247.74C41.4072 254.248 37.9137 260.753 34.3347 267.208C33.3167 269.041 32.2937 270.874 31.2411 272.689C30.6391 273.725 30.0487 274.791 29.3498 275.765C29.3892 274.981 29.2172 274.067 28.6507 273.536C28.4631 273.359 28.9414 272.696 29.0699 272.45C29.271 272.06 29.4743 271.67 29.6768 271.281C30.0969 270.471 30.5148 269.663 30.9334 268.853C32.3232 266.167 33.7066 263.479 35.0822 260.785C37.0237 256.983 38.949 253.171 40.8072 249.329C43.9024 242.922 46.9453 236.361 49.2511 229.635C49.3951 229.216 52.0238 221.918 49.7708 222.623C49.1959 222.804 48.6823 223.229 48.2328 223.634C47.1936 224.571 46.3037 225.693 45.4693 226.822C42.671 230.607 40.4034 234.778 38.171 238.922C33.9369 246.773 29.851 254.702 25.6331 262.563C24.5834 264.52 23.5294 266.475 22.4373 268.409C22.079 269.042 21.7164 269.674 21.3361 270.296C21.2829 270.385 20.7825 271.296 20.675 271.274C20.6624 271.271 21.1018 269.518 21.1293 269.392C21.2135 269.004 21.2954 268.605 21.3032 268.209C21.3055 268.089 21.3041 267.955 21.2561 267.845C21.1471 267.594 21.4428 267.203 21.5681 266.931C23.1485 263.548 24.7001 260.152 26.2333 256.748C29.0215 250.554 31.7386 244.327 34.4366 238.093C35.6703 235.24 36.9828 232.406 37.9481 229.45C38.7043 227.128 39.1981 224.737 39.9395 222.413C40.3045 221.27 40.7092 220.113 40.8761 218.923C40.9106 218.67 41.0038 218.227 40.8531 217.998C40.6543 217.696 39.2607 219.516 39.2011 219.597C37.7103 221.608 36.4602 223.823 35.232 226.007C33.8832 228.402 32.586 230.831 31.3128 233.271C29.3319 237.062 27.3927 240.877 25.445 244.685C23.2616 248.959 21.0768 253.231 18.856 257.485C17.2449 260.567 15.6546 263.679 13.8675 266.661C13.6348 267.047 13.3999 267.431 13.1425 267.801C12.6905 268.452 11.877 267.315 11.6671 266.927C11.3829 266.402 11.7318 265.965 11.9598 265.454C13.1321 262.837 14.3086 260.218 15.4796 257.6C19.0249 249.678 22.5724 241.756 26.0106 233.79C27.8564 229.514 29.6844 225.217 31.1856 220.809C31.6883 219.333 32.1751 217.831 32.4752 216.303C32.5977 215.672 32.7527 214.933 32.6006 214.306C32.4133 213.532 31.8245 214.074 31.4733 214.447C30.8107 215.15 30.2578 215.972 29.7229 216.778C28.601 218.47 27.5777 220.231 26.5782 222C21.9346 230.223 17.8183 238.754 13.5554 247.179C11.6748 250.894 9.79502 254.612 7.86366 258.303C7.20696 259.558 6.54675 260.812 5.85404 262.048C5.63268 262.444 5.4085 262.838 5.17229 263.225C4.87728 263.702 4.68418 263.847 4.09806 263.848C5.25338 260.995 6.40938 258.141 7.56471 255.288C10.145 248.919 12.7246 242.548 15.305 236.18C17.9776 229.579 20.6495 222.98 23.3228 216.382C24.7579 212.838 26.1923 209.296 27.6274 205.752C27.9448 204.968 28.2955 204.199 28.6341 203.425C33.4364 205.665 38.2372 207.903 43.0374 210.144C43.1087 210.176 44.3356 210.757 44.3411 210.746C44.3798 210.669 44.4164 210.593 44.4544 210.513C44.6971 210.012 44.9406 209.509 45.1841 209.005C46.2848 206.729 47.3869 204.453 48.489 202.177C50.2978 198.441 52.1059 194.707 53.9133 190.97C56.2925 186.058 58.6709 181.143 61.0487 176.23C63.8612 170.42 66.6737 164.609 69.4863 158.799C72.5986 152.371 75.7074 145.944 78.8177 139.517C82.0907 132.755 85.3644 125.992 88.6374 119.23C91.9383 112.414 95.2364 105.596 98.5352 98.7805C101.725 92.1908 104.914 85.6004 108.103 79.0135C111.046 72.9319 113.99 66.8509 116.933 60.7693C119.494 55.4774 122.056 50.1854 124.618 44.892C126.662 40.6713 128.706 36.4492 130.75 32.227C132.138 29.3556 133.528 26.4849 134.919 23.6148C135.518 22.3742 136.119 21.1357 136.718 19.8952C136.732 19.8669 136.745 19.8387 136.759 19.8105C133.9 18.5187 131.05 17.2345 128.201 15.9488Z" fill="#58595B"/>
<path d="M2.86822 262.711C2.68432 263.528 3.34564 264.342 4.17007 264.087C4.51018 263.983 4.80836 263.796 4.96567 263.469C5.38945 262.587 5.81187 261.707 6.23497 260.827C7.80674 257.559 9.38415 254.294 10.9707 251.031C13.7727 245.264 16.5959 239.507 19.5009 233.79C21.692 229.475 23.9162 225.167 26.3171 220.966C27.6502 218.636 29.0022 216.046 30.8644 214.097C31.1448 213.802 31.668 213.234 32.1157 213.376C32.5985 213.532 32.6545 214.236 32.6558 214.678C32.657 215.684 32.4042 216.709 32.1458 217.684C31.7414 219.22 31.2267 220.729 30.6872 222.224C29.0956 226.633 27.2477 230.953 25.3721 235.247C22.8592 241.005 20.2455 246.72 17.6148 252.427C16.1169 255.675 14.6099 258.92 13.1029 262.165C12.7263 262.971 12.3511 263.781 11.9751 264.589C11.7841 264.997 11.5951 265.405 11.4048 265.812C11.2788 266.085 11.0646 266.401 11.0111 266.696C10.8423 267.623 11.4289 268.539 12.4238 268.257C12.7333 268.17 13.0251 267.975 13.2489 267.733C13.4327 267.535 13.5484 267.142 13.6692 266.898C13.9012 266.426 14.1326 265.955 14.3647 265.483C15.1796 263.827 15.9925 262.171 16.8088 260.515C18.3607 257.361 19.9161 254.21 21.4778 251.061C24.1859 245.601 26.9102 240.148 29.7165 234.737C31.7486 230.819 33.8031 226.9 36.0584 223.106C36.7843 221.885 37.5292 220.67 38.3577 219.517C38.8257 218.865 39.3366 218.138 39.9896 217.664C41.2788 216.731 40.873 219.065 40.7375 219.665C40.051 222.671 38.7946 225.6 37.6302 228.451C35.6848 233.208 33.5865 237.905 31.4677 242.586C28.7351 248.624 25.9398 254.634 23.1338 260.641C22.3622 262.294 21.5893 263.946 20.8156 265.6C20.4369 266.41 20.0568 267.219 19.6781 268.029C19.487 268.437 19.2946 268.845 19.1035 269.254C18.9511 269.578 18.6938 269.962 18.6153 270.31C18.4117 271.211 19.2197 272.089 20.1081 271.718C20.3273 271.627 20.5313 271.463 20.6745 271.266C21.1132 270.393 21.5511 269.521 21.9897 268.648C27.7124 257.268 33.4128 245.852 39.6242 234.731C41.5197 231.339 43.4386 227.923 45.6735 224.747C46.3009 223.853 46.9589 222.946 47.7447 222.193C48.06 221.891 48.6132 221.358 49.0794 221.526C49.5077 221.683 49.4419 222.395 49.4065 222.769C49.3146 223.781 49.0189 224.79 48.7247 225.764C47.6405 229.355 46.1907 232.85 44.7431 236.311C39.9018 247.896 34.5017 259.259 29.0912 270.585C28.7041 271.394 28.3177 272.202 27.9298 273.01C27.6803 273.529 27.1082 274.282 27.1488 274.863C27.2184 275.854 28.2551 276.538 29.135 275.939C29.3838 275.768 29.4875 275.505 29.6339 275.244C30.3576 273.933 31.0722 272.616 31.7875 271.3C34.6718 266.002 37.5504 260.697 40.4277 255.395C44.0154 248.785 47.601 242.171 51.1852 235.557C54.0141 230.338 56.8422 225.12 59.6697 219.9C60.3413 218.658 61.0157 217.417 61.6873 216.174C62.8237 214.077 63.2212 211.702 63.0773 209.369C62.8287 205.288 61.2755 201.474 60.2731 197.591C59.1617 193.284 58.7019 188.771 60.1407 184.355C60.5736 183.028 61.3524 181.786 61.9932 180.55C63.5067 177.628 65.0258 174.708 66.5471 171.791C68.8385 167.391 71.1326 162.992 73.4288 158.592C76.3097 153.073 79.1899 147.555 82.0721 142.037C85.35 135.76 88.63 129.483 91.9107 123.208C95.3993 116.532 98.8887 109.858 102.377 103.186C105.886 96.4766 109.395 89.7656 112.904 83.0546C116.245 76.6691 119.586 70.2822 122.925 63.896C125.908 58.1947 128.891 52.492 131.872 46.7922C134.307 42.136 136.742 37.4833 139.179 32.8264C140.88 29.5768 142.579 26.3286 144.279 23.0804C145.053 21.599 145.829 20.1168 146.603 18.6368C147.903 16.1519 145.958 13.1867 144.394 11.5271C142.572 9.59362 140.253 8.42916 137.605 8.18377C135.451 7.98105 132.518 8.2234 130.929 10.0937C130.562 10.5253 130.375 11.0052 130.151 11.5108C129.815 12.2767 129.477 13.0404 129.14 13.8041C127.85 16.7265 126.563 19.6482 125.276 22.5698C123.306 27.038 121.335 31.5055 119.365 35.9751C116.877 41.6167 114.389 47.2569 111.901 52.8986C109.06 59.3414 106.219 65.7862 103.376 72.2304C100.346 79.1019 97.3146 85.9749 94.2821 92.8471C91.2253 99.7772 88.1672 106.707 85.109 113.636C82.1901 120.25 79.2718 126.863 76.3516 133.48C73.7335 139.406 71.1189 145.333 68.5001 151.261C66.3513 156.128 64.1997 160.997 62.048 165.862C60.5293 169.298 59.0092 172.733 57.4877 176.167C56.7635 177.801 56.0462 179.435 55.3085 181.061C55.2713 181.142 55.2405 181.232 55.1933 181.308C53.9318 183.377 52.3091 185.189 50.4305 186.673C47.0073 189.376 42.9747 190.868 39.1049 192.65C35.589 194.269 32.0869 196.32 30.1638 199.957C29.7429 200.754 29.4139 201.605 29.055 202.432C27.0052 207.136 24.9568 211.84 22.909 216.544C19.9428 223.354 16.978 230.165 14.0153 236.979C11.3729 243.053 8.73128 249.13 6.09736 255.209C5.32636 256.987 4.55468 258.767 3.78791 260.547C3.48056 261.263 3.12556 261.977 2.86822 262.711Z" fill="url(#paint0_linear_4412_62055)"/>
<path d="M55.2325 183.389C54.0883 185.26 52.7341 187.139 51.3163 188.803C52.1602 188.489 52.9872 188.131 53.826 187.813C54.2145 187.666 54.7332 187.432 55.1377 187.592C55.533 187.749 55.7009 188.267 55.835 188.643C56.1587 189.545 56.4102 190.479 56.7089 191.394C57.0386 189.388 57.7056 187.363 58.3313 185.428C58.4294 185.123 58.5238 184.847 58.665 184.567C59.0446 183.813 59.4369 183.065 59.8264 182.316C61.6282 178.851 63.4442 175.393 65.2573 171.934C68.193 166.337 71.13 160.741 74.0685 155.145C77.8262 147.989 81.5846 140.832 85.3402 133.673C89.6132 125.531 93.8848 117.388 98.1543 109.243C102.636 100.691 107.119 92.1355 111.592 83.5794C115.979 75.19 120.362 66.7971 124.736 58.4029C128.721 50.7516 132.7 43.099 136.665 35.4382C138.409 32.0688 140.152 28.6974 141.889 25.3247C142.681 23.7856 143.474 22.2436 144.265 20.7044C144.647 19.9603 145.163 19.2162 145.127 18.3547C145.078 17.2371 144.474 16.1982 143.851 15.3481C142.327 13.2733 140.191 11.8091 137.663 11.3797C136.431 11.1736 135.134 11.1429 133.891 11.407C132.987 11.5949 131.908 11.9796 131.402 12.8657C130.85 13.8338 130.457 14.9444 130 15.9615C129.521 17.0272 129.043 18.0915 128.563 19.1551C127.579 21.345 126.593 23.5329 125.611 25.7236C121.402 35.0878 117.205 44.4561 113.011 53.8279C108.605 63.6743 104.206 73.5219 99.8094 83.3745C95.4967 93.038 91.1868 102.706 86.8791 112.374C82.9488 121.198 79.0205 130.022 75.0923 138.845C71.835 146.16 68.5792 153.479 65.3212 160.795C63.0298 165.944 60.7377 171.095 58.4427 176.24C57.4078 178.561 56.3899 180.889 55.3254 183.195C55.2955 183.257 55.2686 183.328 55.2325 183.389C54.603 184.417 55.599 182.785 55.2325 183.389Z" fill="url(#paint1_linear_4412_62055)"/>
<path opacity="0.8" d="M58.6017 185.132C57.7834 187.732 57.461 190.424 57.8971 193.074C58.278 195.38 59.1349 197.538 59.8494 199.731C60.7547 202.514 61.6892 205.421 61.974 208.382C62.1069 209.751 62.0618 211.154 61.7142 212.51C61.319 214.052 60.494 215.469 59.7747 216.883C58.6206 219.148 57.437 221.409 56.083 223.562C55.4305 224.598 54.7253 225.751 53.7776 226.538C52.5236 227.575 52.114 226.074 51.9796 225.013C51.7524 223.215 51.848 221.374 51.6935 219.567C51.6379 218.93 51.5878 218.196 51.2744 217.64C50.5985 216.433 48.3571 217.606 47.4504 217.971C46.758 218.252 45.6213 218.817 44.9356 218.328C44.2933 217.872 44.2058 216.723 44.0026 216.004C43.7252 215.023 43.2911 214.093 42.2869 213.783C41.3094 213.482 40.3631 213.871 39.4503 214.296C38.6522 214.666 37.7288 215.084 36.9054 214.65C36.0615 214.205 35.7684 212.982 35.4365 212.136C35.0396 211.129 34.3822 209.627 33.0942 210.023C31.7255 210.442 30.5916 211.548 29.1999 211.892C27.1525 212.397 28.3907 208.76 28.6668 207.885C29.0116 206.788 29.4155 205.709 29.8383 204.637C30.4276 203.147 31.0099 201.613 31.731 200.181C33.0551 197.548 35.3677 195.786 37.8588 194.462C40.3165 193.153 42.8986 192.132 45.4526 191.072C47.5399 190.205 49.5833 189.224 51.3576 187.74C52.3999 186.869 53.3315 185.863 54.1682 184.783C54.5464 184.296 54.9747 183.795 55.2559 183.238C55.5459 182.664 55.8344 182.085 56.1229 181.51C57.4183 178.925 58.7222 176.345 60.036 173.77C61.737 170.439 63.455 167.116 65.2168 163.818C66.652 161.131 68.0899 158.431 69.7025 155.844C70.1144 155.186 70.5289 154.471 71.0705 153.912C71.3165 153.656 71.5579 153.599 71.5374 154.028C71.5046 154.747 71.2188 155.498 70.9928 156.178C70.5838 157.416 70.1142 158.636 69.6368 159.85C67.0386 166.462 64.1094 172.953 61.1855 179.429C60.5745 180.784 59.9586 182.138 59.3427 183.493C59.1052 184.023 58.7778 184.574 58.6017 185.132C58.6604 184.949 56.4078 192.117 58.6017 185.132Z" fill="url(#paint2_linear_4412_62055)"/>
<path opacity="0.1" d="M140.516 10.5655C142.719 11.6239 145.037 13.9222 145.481 16.5238C145.638 17.4471 145.254 18.0771 144.834 18.8779C144.44 19.6299 144.049 20.3798 143.655 21.1304C141.95 24.3864 140.247 27.6417 138.543 30.8998C134.623 38.3897 130.703 45.8831 126.783 53.3765C122.431 61.6954 118.08 70.0121 113.729 78.3317C109.246 86.9005 104.766 95.4694 100.286 104.038C95.9767 112.281 91.6702 120.521 87.3631 128.763C83.5298 136.102 79.6958 143.438 75.8653 150.778C72.8084 156.635 69.7529 162.492 66.6996 168.352C64.7216 172.151 62.743 175.951 60.7742 179.756C60.2856 180.704 59.7936 181.652 59.3106 182.603C58.4127 184.368 58.0067 186.377 57.8588 188.323C57.4443 193.701 59.6864 198.659 60.9992 203.664C61.7355 206.477 62.3398 209.536 61.6392 212.495C61.3227 213.826 60.6852 214.969 60.0133 216.147C59.4279 217.173 58.8461 218.204 58.2664 219.237C52.8566 228.873 47.6425 238.62 42.4333 248.367C38.6397 255.467 34.8835 262.591 31.037 269.665C36.0426 259.177 41.0142 248.659 45.5804 237.973C49.4578 228.901 53.8197 219.468 53.4535 209.481C53.3604 206.952 52.9793 204.455 52.364 202.034C52.0227 200.687 51.6104 199.361 51.1424 198.061C50.659 196.721 50.0093 195.444 49.5525 194.096C48.92 192.223 49.5165 190.57 50.744 189.049C52.3155 187.098 54.1518 185.416 55.601 183.35C57.0675 181.263 57.9366 178.738 58.9666 176.417C61.3383 171.072 63.7043 165.725 66.0689 160.376C69.6398 152.3 73.2059 144.223 76.7732 136.144C81.2243 126.062 85.6726 115.979 90.1223 105.897C95.1338 94.5365 100.145 83.1763 105.156 71.814C110.41 59.9017 115.664 47.9872 120.918 36.0714C123.536 30.1343 126.154 24.1957 128.773 18.2572C129.419 16.7925 130.066 15.3242 130.712 13.856C131.19 12.7756 131.532 11.2884 132.559 10.6125C134.734 9.179 138.015 9.49216 140.197 10.4228C140.303 10.4666 140.412 10.5153 140.516 10.5655Z" fill="#F1F2F2"/>
<defs>
<linearGradient id="paint0_linear_4412_62055" x1="40.0126" y1="220.386" x2="59.2516" y2="180.328" gradientUnits="userSpaceOnUse">
<stop offset="0.2089" stop-color="#A7A9AC"/>
<stop offset="0.2929" stop-color="#C9CACC"/>
<stop offset="0.3591" stop-color="#E6E7E8"/>
<stop offset="0.5063" stop-color="#D4D6D7"/>
<stop offset="0.5248" stop-color="#D1D3D4"/>
<stop offset="0.5747" stop-color="#CDCFD1"/>
<stop offset="0.6194" stop-color="#C3C5C6"/>
<stop offset="0.6621" stop-color="#B0B2B4"/>
<stop offset="0.7034" stop-color="#97999C"/>
<stop offset="0.7086" stop-color="#939598"/>
<stop offset="0.8238" stop-color="#9A9C9F"/>
<stop offset="0.861" stop-color="#9EA0A2"/>
</linearGradient>
<linearGradient id="paint1_linear_4412_62055" x1="104.057" y1="104.492" x2="90.4857" y2="97.9717" gradientUnits="userSpaceOnUse">
<stop offset="0.0265" stop-color="#808285"/>
<stop offset="0.0763" stop-color="#8E9093"/>
<stop offset="0.1712" stop-color="#B4B6B7"/>
<stop offset="0.3004" stop-color="#F1F2F2"/>
<stop offset="0.3274" stop-color="white"/>
<stop offset="0.4455" stop-color="#EDEDEE"/>
<stop offset="0.588" stop-color="#D1D3D4"/>
<stop offset="0.6686" stop-color="#CDCFD1"/>
<stop offset="0.7409" stop-color="#C3C5C6"/>
<stop offset="0.8099" stop-color="#B0B2B4"/>
<stop offset="0.8766" stop-color="#97999C"/>
<stop offset="0.8805" stop-color="#95979A"/>
<stop offset="1" stop-color="#58595B"/>
</linearGradient>
<linearGradient id="paint2_linear_4412_62055" x1="35.0896" y1="231.417" x2="70.4334" y2="155.858" gradientUnits="userSpaceOnUse">
<stop offset="0.2066" stop-color="#A7A9AC"/>
<stop offset="0.2789" stop-color="#A7A9AC"/>
<stop offset="0.3238" stop-color="#C9CACC"/>
<stop offset="0.3591" stop-color="#E6E7E8"/>
<stop offset="0.3692" stop-color="#DEDFE0"/>
<stop offset="0.4438" stop-color="#A8AAAC"/>
<stop offset="0.4801" stop-color="#939598"/>
<stop offset="0.5883" stop-color="#8C8E91"/>
<stop offset="0.6491" stop-color="#85878A"/>
<stop offset="0.6517" stop-color="#888A8D"/>
<stop offset="0.6842" stop-color="#A5A6A9"/>
<stop offset="0.72" stop-color="#BDBEC0"/>
<stop offset="0.7609" stop-color="#CFD0D2"/>
<stop offset="0.809" stop-color="#DCDDDF"/>
<stop offset="0.8714" stop-color="#E4E5E6"/>
<stop offset="0.9996" stop-color="#E6E7E8"/>
</linearGradient>
</defs>
</svg>
