<svg width="128" height="214" viewBox="0 0 128 214" fill="none" xmlns="http://www.w3.org/2000/svg">
<path d="M121.815 10.0083C121.815 10.7315 121.162 11.4284 119.931 12.099C119.931 12.099 119.926 12.099 119.922 12.099C116.407 14.0056 108.206 15.6405 97.1738 16.7406C97.1563 16.7406 97.1388 16.745 97.1212 16.745C87.7283 17.683 76.2929 18.2309 63.9546 18.2309C53.4177 18.2309 43.5383 17.832 35.0307 17.1307C35.022 17.1307 35.0132 17.1307 35.0044 17.1264C17.7176 15.7062 6.09375 13.0501 6.09375 10.0083C6.09375 5.46302 31.9977 1.78125 63.9546 1.78125C95.9115 1.78125 121.815 5.46302 121.815 10.0083Z" fill="white"/>
<path d="M119.973 52.4321L119.96 52.5679L119.955 52.603C119.193 56.1445 94.5685 58.9891 64.3078 58.9891C49.7648 58.9891 36.5279 58.3317 26.6178 57.2578L25.3555 47.7466C35.3927 46.5894 49.1424 45.875 64.3078 45.875C95.0506 45.875 119.973 48.8117 119.973 52.4321Z" fill="#BEE3F7"/>
<path d="M16.2092 55.7412L28.4906 183.775C23.0117 184.989 19.7683 186.492 19.7683 188.123L8.64844 52.5547C8.82376 53.7162 11.5544 54.8032 16.2092 55.7412Z" fill="#79C3E7"/>
<path d="M127.766 9.98901L110.173 204.588C96.949 208.393 84.4266 210.378 75.38 211.031C59.9121 212.154 47.9507 210.825 43.4274 210.238C34.8103 209.12 27.4161 207.328 25.1676 206.767C21.9723 205.969 19.2855 205.198 17.2693 204.588H17.2649L0.0350653 9.89258C0.0350653 9.8882 0.0306813 9.87943 0.0306813 9.87504L0 9.51563V9.51125C0 9.50687 0 9.50249 0 9.49811C0 9.48934 0 9.47619 0 9.46742C0.376944 4.22966 28.8362 0 63.8832 0C99.1625 0 127.766 4.28664 127.766 9.57262C127.766 9.71726 127.744 9.8619 127.701 10.0065L127.766 9.98901ZM109.699 186.736C114.122 129.664 118.544 72.5879 122.963 15.5161C108.249 18.7113 95.4106 20.2848 85.2901 21.0957C85.2901 21.0957 58.9522 23.2039 31.019 20.1139C27.3021 19.7063 20.7713 18.9611 12.3471 16.9931C9.20444 16.2568 6.66226 15.5511 5.03614 15.0821C5.34296 20.859 5.79879 29.0422 6.41242 38.8427C7.85883 61.9459 9.24827 78.9872 11.0146 100.477C12.724 121.271 14.8323 145.553 16.1691 161.599C16.9975 171.509 17.4271 176.467 17.4183 176.887C17.3832 179.622 17.7646 181.244 18.0714 185.128C18.1678 186.359 17.9925 187.924 18.8472 189.629C19.6361 191.198 20.8239 192.114 21.3192 192.491C23.0681 193.81 24.852 194.187 25.7067 194.358C35.4809 196.322 40.1576 196.519 40.1576 196.519C58.4131 198.233 53.3507 197.615 64.8606 197.61C68.6344 197.61 73.3024 197.413 82.6339 197.049C82.6339 197.049 85.9037 196.922 100.368 194.862C100.771 194.805 102.253 194.582 104.001 193.81C105.325 193.227 108.161 191.974 109.257 189.138C109.629 188.187 109.699 187.319 109.699 186.736ZM119.929 12.0973C121.161 11.4267 121.814 10.7297 121.814 10.0065C121.814 5.4613 95.9102 1.77953 63.9533 1.77953C31.9964 1.77953 6.09246 5.4613 6.09246 10.0065C6.09246 13.0484 17.7164 15.7045 35.0032 17.1246C35.0119 17.129 35.0207 17.129 35.0295 17.129C43.537 17.8303 53.4164 18.2292 63.9533 18.2292C76.2916 18.2292 87.7271 17.6813 97.12 16.7433C97.1375 16.7433 97.155 16.7389 97.1726 16.7389C108.205 15.6388 116.405 14.0039 119.921 12.0973C119.925 12.0973 119.929 12.0973 119.929 12.0973Z" fill="#C5EBF0"/>
<path d="M119.957 52.6094L107.719 188.125C107.719 184.11 88.0303 180.858 63.7437 180.858C56.3144 180.858 49.3147 181.16 43.1784 181.699L26.6191 57.2642C36.5293 58.338 49.7661 58.9955 64.3091 58.9955C94.5698 58.9955 119.194 56.1509 119.957 52.6094Z" fill="#79C3E7"/>
<path d="M28.4918 183.773L29.3421 192.649C23.3505 191.409 19.7695 189.835 19.7695 188.121C19.7695 186.491 23.013 184.988 28.4918 183.773Z" fill="#4B9FCF"/>
<path d="M29.3406 192.649L28.4902 183.773C32.3824 182.914 37.3966 182.204 43.1779 181.695L44.9092 194.691C38.8167 194.213 33.4957 193.512 29.3406 192.649Z" fill="#79C3E7"/>
<path d="M15.5878 49.2656L16.2102 55.7438C11.5554 54.8058 8.82471 53.7188 8.64939 52.5573L8.64063 52.439C8.64062 51.2862 11.1609 50.2036 15.5878 49.2656Z" fill="#BEE3F7"/>
<path d="M63.7431 180.852C88.0296 180.852 107.718 184.104 107.718 188.119C107.718 192.134 88.0296 195.386 63.7431 195.386C57.0019 195.386 50.6158 195.136 44.9091 194.689L43.1777 181.693C49.314 181.154 56.3138 180.852 63.7431 180.852Z" fill="#4B9FCF"/>
<path d="M28.4903 183.776L16.209 55.7422C19.0229 56.3076 22.5381 56.8204 26.6188 57.2631L43.178 181.698C37.3967 182.207 32.3825 182.917 28.4903 183.776Z" fill="#BEE3F7"/>
<path d="M16.2103 55.7325L15.5879 49.2543C18.2133 48.6933 21.5138 48.1849 25.3577 47.7422L26.6201 57.2534C22.5394 56.8107 19.0242 56.2979 16.2103 55.7325Z" fill="#DAF3FD"/>
<path d="M122.962 15.5199C118.543 72.5918 114.121 129.668 109.698 186.74C109.698 187.323 109.628 188.191 109.256 189.142C108.16 191.978 105.324 193.231 104 193.814C102.252 194.586 100.77 194.809 100.367 194.866C85.9027 196.926 82.6329 197.053 82.6329 197.053C73.3014 197.417 68.6334 197.614 64.8596 197.614C53.3497 197.619 58.4121 198.237 40.1567 196.523C40.1567 196.523 35.4799 196.326 25.7057 194.362C24.851 194.191 23.0671 193.814 21.3182 192.495C20.823 192.118 19.6351 191.202 18.8462 189.633C17.9915 187.928 18.1668 186.363 18.0704 185.131C17.7636 181.248 17.3823 179.626 17.4173 176.891C17.4261 176.47 16.9965 171.513 16.1681 161.603C14.8313 145.557 12.7231 121.274 11.0137 100.481C9.24728 78.991 7.85785 61.9497 6.41144 38.8465C5.79781 29.046 5.34197 20.8628 5.03516 15.0859C6.66127 15.5549 9.20345 16.2606 12.3461 16.997C20.7704 18.965 27.3011 19.7101 31.018 20.1177C58.9512 23.2078 85.2891 21.0995 85.2891 21.0995C95.4096 20.2886 108.248 18.7151 122.962 15.5199ZM29.3393 192.653C33.4944 193.516 38.8154 194.217 44.9079 194.695C50.6147 195.142 57.0008 195.392 63.7419 195.392C88.0285 195.392 107.717 192.14 107.717 188.125L119.955 52.6094L119.959 52.5743C119.968 52.5305 119.972 52.4822 119.972 52.4384C119.972 48.818 95.0502 45.8813 64.3074 45.8813C49.1419 45.8813 35.3923 46.5958 25.355 47.7529C21.5111 48.1956 18.2107 48.704 15.5852 49.2651C11.1583 50.2031 8.63804 51.2857 8.63804 52.4384C8.63804 52.4779 8.64242 52.5173 8.6468 52.5568L19.7666 188.125C19.7666 189.839 23.3476 191.412 29.3393 192.653Z" fill="white"/>
<path d="M17.2681 204.586C19.2843 205.195 21.9711 205.967 25.1663 206.764C27.4149 207.325 34.8091 209.118 43.4262 210.236C47.9495 210.823 59.9109 212.151 75.3787 211.029C84.4254 210.376 96.9478 208.39 110.172 204.586L110.066 205.765C109.961 206.909 109.146 207.86 108.033 208.136L105.105 208.873C77.075 215.885 47.7304 215.697 19.7971 208.32C19.1221 208.145 18.5391 207.759 18.1096 207.251C17.6801 206.742 17.3995 206.102 17.3382 205.406L17.2637 204.586H17.2681Z" fill="#BBD1CF"/>
</svg>
