<svg width="198" height="315" viewBox="0 0 198 315" fill="none" xmlns="http://www.w3.org/2000/svg">
<path d="M190.79 225.563C188.377 215.921 189.292 205.811 189.407 195.985C189.524 185.91 188.374 175.821 185.992 166.032C185.027 162.061 183.588 158.299 181.991 154.534C181.187 152.639 180.314 150.762 179.181 149.039C179.172 149.025 179.162 149.013 179.153 148.999C178.806 148.152 178.442 147.308 178.009 146.5C177.291 145.16 176.146 143.529 174.413 143.844C174.101 143.901 173.719 144.184 173.635 144.507C173.211 146.139 173.143 147.785 173.312 149.42C175.647 153.211 177.774 157.134 179.585 161.204C182.451 167.644 184.345 174.507 185.265 181.495C186.221 188.753 185.704 196.082 185.63 203.373C185.559 210.369 185.571 218.194 188.777 224.581C189.053 225.132 189.358 225.666 189.675 226.193C189.986 226.707 190.914 226.058 190.79 225.563Z" fill="#F0B23B"/>
<path d="M187.544 217.804C186.701 213.465 186.599 209.025 186.716 204.62C186.842 199.857 187.187 195.104 187.32 190.341C187.467 185.065 187.355 179.78 186.915 174.519C186.644 171.284 186.245 168.056 185.69 164.857C184.738 161.316 183.431 157.925 181.993 154.534C181.189 152.639 180.316 150.762 179.183 149.039C179.174 149.025 179.164 149.013 179.155 148.999C178.808 148.152 178.444 147.308 178.011 146.5C177.293 145.16 176.148 143.529 174.415 143.844C174.103 143.901 173.721 144.184 173.637 144.507C173.213 146.139 173.145 147.785 173.314 149.42C175.649 153.211 177.776 157.134 179.587 161.204C182.453 167.644 184.347 174.507 185.267 181.495C186.223 188.753 185.707 196.082 185.632 203.373C185.561 210.369 185.573 218.194 188.779 224.581C189.055 225.132 189.36 225.666 189.677 226.193C189.824 226.436 190.109 226.418 190.356 226.279C189.057 223.595 188.115 220.746 187.544 217.804Z" fill="#D19342"/>
<path d="M193.344 224.542C192.322 222.801 191.798 220.877 191.436 218.903C191.187 217.549 191 216.183 190.708 214.837C190.492 213.847 190.185 212.83 189.419 212.119C188.738 211.485 187.738 211.275 186.843 211.504C186.11 211.692 185.497 212.178 185.015 212.751C185.007 212.83 184.998 212.908 184.992 212.986C184.561 213.894 184.149 214.809 183.839 215.765C183.408 217.091 183.259 218.467 183.317 219.841C183.619 221.193 184.117 222.504 184.763 223.699C184.954 223.575 185.102 223.387 185.092 223.195C185.069 222.702 185.107 222.183 185.204 221.672C185.206 222.122 185.218 222.57 185.257 223.019C185.374 224.345 185.703 225.619 186.128 226.876C186.924 229.229 187.866 231.878 186.805 234.296C186.587 234.794 187.316 234.716 187.531 234.509C188.176 233.888 188.598 233.158 188.9 232.373C188.847 234.531 188.6 236.661 187.542 238.578C188.116 238.648 188.696 238.571 189.241 238.318C190.715 237.632 191.693 236.113 192.381 234.7C192.52 234.412 192.653 234.116 192.778 233.815C193.331 231.22 193.139 228.592 192.324 226.06C192.904 226.537 193.585 226.856 194.408 226.902C194.587 226.912 194.852 226.79 195.031 226.615C194.335 226.051 193.763 225.258 193.344 224.542Z" fill="#6C412C"/>
<path d="M165.114 292.493C164.589 289.022 164.345 285.716 164.46 282.426C164.141 280.978 163.975 279.481 164.163 278.036C164.747 273.574 166.063 269.214 166.988 264.815C167.491 262.421 168.002 260.027 168.615 257.658C169.201 255.389 169.823 253.046 170.776 250.9C171.511 249.244 172.734 248.05 173.952 246.756C175.387 245.231 176.556 243.409 176.261 241.227C175.696 237.053 171.69 234.842 169.297 231.805C167.406 229.405 166.517 226.65 166.266 223.627C165.909 219.346 166.116 214.97 166.389 210.692C166.7 205.816 167.257 200.958 167.927 196.118C168.383 192.818 168.896 189.528 169.424 186.239C169.439 184.645 169.45 183.051 169.468 181.457C169.546 175.008 169.778 168.527 169.239 162.091C168.909 158.169 167.574 154.035 164.72 151.212C158.215 144.778 148.795 151.038 144.35 156.783C138.801 163.951 135.666 173.564 135.308 182.575C135.268 183.566 135.252 184.572 135.257 185.584C135.332 186.029 135.41 186.472 135.491 186.911C137.014 195.113 139.727 203.154 143.29 210.689C145.497 215.36 148.372 219.653 151.313 223.885C154.248 228.109 157.531 232.319 159.595 237.062C163.618 246.311 162.388 256.556 160.112 266.084C158.824 271.478 157.462 276.846 156.318 282.275C156.283 282.439 156.25 282.603 156.216 282.767C156.139 283.513 156.062 284.259 155.986 285.005C155.732 287.487 153.548 296.989 155.091 299.033C155.222 299.208 155.374 299.369 155.553 299.51C158.998 302.233 165.674 300.151 165.157 294.086C165.113 293.552 165.102 293.021 165.114 292.493Z" fill="#F0B23B"/>
<path d="M137.835 175.644C138.43 175.891 139.178 175.88 139.79 175.705C140.716 175.44 141.533 174.865 142.239 174.224C143.861 172.749 145.093 170.819 146.029 168.849C146.461 167.939 146.807 166.996 147.083 166.027C147.345 165.105 147.547 164.157 147.595 163.198C147.652 162.058 147.506 160.71 146.581 159.921C145.82 159.271 144.739 159.283 143.824 159.535C143.115 159.732 142.451 160.067 141.837 160.478C139.406 164.514 137.619 169.055 136.531 173.703C136.681 174.52 137.033 175.313 137.835 175.644Z" fill="#D19342"/>
<path d="M152.06 152.665C151.931 153.651 152.562 154.489 153.272 155.096C153.853 155.592 154.524 155.98 155.205 156.319C155.958 156.694 156.742 157.03 157.552 157.259C158.597 157.553 159.741 157.671 160.782 157.298C162.586 156.651 163.264 154.683 163.239 152.911C163.222 151.755 162.946 150.61 162.482 149.546C160.583 148.522 158.538 148.307 156.496 148.655C155.442 149.115 154.403 149.678 153.525 150.427C152.853 151.001 152.179 151.753 152.06 152.665Z" fill="#D19342"/>
<path d="M165.336 159.876C163.921 160.595 162.834 161.813 162.048 163.174C161.17 164.695 160.637 166.405 160.357 168.135C160.074 169.89 160.055 171.709 160.349 173.465C160.65 175.268 161.314 177.061 162.47 178.497C163.286 179.51 164.414 180.293 165.762 180.201C167.033 180.115 168.161 179.32 169.031 178.441C169.202 178.269 169.364 178.088 169.522 177.904C169.606 172.632 169.681 167.348 169.239 162.093C169.16 161.149 169.021 160.193 168.818 159.246C167.627 159.144 166.424 159.323 165.336 159.876Z" fill="#D19342"/>
<path d="M155.107 170.078C154.912 169.925 154.697 169.821 154.472 169.748C154.419 169.733 154.368 169.714 154.314 169.702C154.304 169.699 154.294 169.699 154.285 169.697C154.157 169.67 154.028 169.651 153.898 169.643C153.88 169.642 153.862 169.643 153.844 169.643C153.738 169.638 153.632 169.642 153.527 169.646C152.88 169.699 152.246 169.936 151.652 170.189C151.48 170.262 151.309 170.339 151.139 170.417C150.781 170.622 150.436 170.848 150.118 171.082C148.861 172.004 147.756 173.186 146.919 174.503C146.168 175.685 145.663 177.003 145.822 178.426C146.001 180.019 146.939 181.519 148.228 182.453C149.558 183.417 151.251 183.75 152.804 183.141C154.075 182.643 154.798 181.477 155.338 180.277C155.968 178.877 156.356 177.344 156.543 175.821C156.696 174.576 156.788 173.158 156.342 171.959C156.087 171.272 155.691 170.539 155.107 170.078Z" fill="#D19342"/>
<path d="M143.431 201.053C144.02 199.848 144.453 198.567 144.748 197.26C145.033 195.996 145.19 194.694 145.145 193.397C145.107 192.313 144.931 191.187 144.425 190.217C144.028 189.457 143.524 188.721 142.921 188.111C142.45 187.635 141.886 187.22 141.229 187.051C140.059 186.751 138.982 187.401 138.223 188.248C137.391 189.174 136.835 190.346 136.482 191.543C137.558 196 138.972 200.388 140.668 204.653C140.92 204.467 141.159 204.263 141.378 204.046C142.241 203.191 142.899 202.141 143.431 201.053Z" fill="#D19342"/>
<path d="M164.116 186.483C163.621 186.591 163.183 186.79 162.792 187.116C161.921 187.839 161.359 188.9 160.94 189.934C160.49 191.046 160.178 192.216 159.958 193.395C159.754 194.483 159.597 195.609 159.689 196.716C159.789 197.907 160.168 199.07 160.774 200.1C161.945 202.089 163.957 203.562 166.236 203.978C166.474 204.022 166.716 204.049 166.956 204.067C167.233 201.413 167.563 198.764 167.93 196.12C168.263 193.709 168.632 191.302 169.01 188.897C167.856 188.265 166.889 187.331 165.705 186.749C165.195 186.499 164.678 186.36 164.116 186.483Z" fill="#D19342"/>
<path d="M166.57 208.302C165.493 208.186 164.411 208.098 163.328 208.102C162.272 208.105 161.198 208.19 160.187 208.512C159.322 208.789 158.51 209.27 157.963 210.011C157.311 210.894 157.084 212.005 157.055 213.083C156.988 215.583 157.694 218.302 159.643 219.991C161.22 221.359 163.4 221.8 165.421 221.384C165.662 221.334 165.898 221.272 166.13 221.201C165.999 217.704 166.172 214.167 166.393 210.696C166.443 209.898 166.506 209.099 166.57 208.302Z" fill="#D19342"/>
<path d="M165.241 228.843C165.503 229.701 166.071 230.457 166.712 231.07C167.7 232.015 168.938 232.648 170.25 232.898C169.914 232.543 169.595 232.182 169.299 231.806C167.996 230.152 167.169 228.329 166.697 226.367C166.244 226.454 165.824 226.629 165.512 226.961C165.033 227.469 165.049 228.213 165.241 228.843Z" fill="#D19342"/>
<path d="M165.641 245.335C166.345 244.454 166.866 243.426 167.084 242.314C167.327 241.075 167.167 239.796 166.782 238.602C166.528 237.813 166.171 237.057 165.815 236.31C165.484 235.616 165.124 234.933 164.707 234.288C164.217 233.531 163.577 232.64 162.695 232.314C161.189 231.756 160.122 233.596 159.569 234.694C159.377 235.075 159.205 235.467 159.041 235.862C159.233 236.259 159.421 236.657 159.597 237.061C161.175 240.689 161.942 244.471 162.158 248.302C163.466 247.489 164.685 246.532 165.641 245.335Z" fill="#D19342"/>
<path d="M158.278 278.722C159.417 277.655 160.327 276.319 161.074 274.955C161.358 274.438 161.631 273.904 161.817 273.343C162.023 272.72 162.043 272.048 162.001 271.398C161.951 270.598 161.79 269.801 161.537 269.04C161.314 268.368 161.011 267.68 160.538 267.144C160.377 266.962 160.186 266.795 159.972 266.68C158.932 271.015 157.861 275.338 156.891 279.69C157.412 279.477 157.876 279.1 158.278 278.722Z" fill="#D19342"/>
<path d="M170.737 250.818C169.948 250.676 169.183 251.076 168.584 251.554C167.813 252.169 167.127 252.94 166.581 253.76C165.595 255.244 165.064 256.988 165.047 258.77C165.026 260.958 165.744 263.099 166.975 264.889C166.981 264.866 166.986 264.844 166.991 264.822C167.494 262.428 168.004 260.034 168.617 257.664C169.204 255.396 169.826 253.052 170.779 250.906C170.789 250.882 170.802 250.861 170.812 250.838C170.786 250.833 170.763 250.823 170.737 250.818Z" fill="#D19342"/>
<path d="M151.545 214.799C151.041 213.709 150.478 212.597 149.709 211.668C149.168 211.015 148.476 210.384 147.618 210.218C146.091 209.924 144.968 211.389 144.403 212.606C144.378 212.66 144.358 212.717 144.334 212.773C146.369 216.651 148.816 220.294 151.314 223.89C151.341 223.929 151.369 223.967 151.396 224.006C152.115 223.019 152.622 221.895 152.767 220.633C153 218.619 152.382 216.607 151.545 214.799Z" fill="#D19342"/>
<path d="M152.841 192.133C151.687 192.404 150.693 193.185 149.905 194.043C149.009 195.018 148.291 196.192 147.856 197.445C147.497 198.483 147.266 199.725 147.705 200.777C148.145 201.829 149.232 202.279 150.31 202.336C151.243 202.385 152.154 202.11 152.846 201.468C153.523 200.841 153.939 199.984 154.186 199.106C154.695 197.288 154.62 195.105 153.787 193.391C153.561 192.928 153.252 192.461 152.841 192.133Z" fill="#D19342"/>
<path d="M154.741 295.312C154.645 295.347 154.55 295.386 154.455 295.429C154.172 295.881 153.895 296.338 153.634 296.804C152.677 298.519 151.897 300.319 151.219 302.16C151.278 302.245 151.343 302.324 151.419 302.393C152.968 303.8 163.439 302.987 163.393 298.643C163.393 298.643 157.512 294.32 154.741 295.312Z" fill="#3B2920"/>
<path opacity="0.49" d="M176.262 241.23C175.697 237.057 171.691 234.846 169.299 231.809C167.407 229.408 166.518 226.654 166.267 223.63C165.91 219.35 166.118 214.974 166.39 210.695C166.701 205.819 167.258 200.961 167.928 196.121C168.384 192.821 168.897 189.531 169.425 186.242C169.44 184.648 169.451 183.054 169.47 181.46C169.547 175.011 169.779 168.53 169.24 162.094C168.91 158.172 167.575 154.038 164.721 151.215C163.494 150.002 162.164 149.242 160.782 148.844C162.055 150.184 162.775 152.01 163.179 153.803C163.751 156.342 163.804 158.975 163.79 161.567C163.712 177.184 162.131 192.745 161.944 208.359C161.898 212.23 161.937 216.109 162.028 219.979C162.103 223.155 162.492 226.345 164.176 229.108C165.727 231.652 167.923 233.723 169.603 236.172C170.405 237.343 171.082 238.622 171.398 240.014C171.713 241.397 171.552 242.808 171.281 244.186C170.637 247.449 169.26 250.516 168.123 253.625C166.907 256.947 166.251 260.411 165.565 263.875C164.777 267.859 164.094 271.866 163.574 275.896C163.345 277.672 163.182 279.375 163.333 281.165C163.476 282.851 163.755 284.521 163.977 286.197C164.333 288.872 165.205 296.85 160.314 295.85C158.6 295.5 156.512 294.085 154.671 293.872C154.452 296.173 154.467 298.211 155.089 299.036C155.221 299.211 155.372 299.372 155.552 299.513C158.996 302.236 165.672 300.154 165.156 294.089C165.111 293.556 165.1 293.024 165.111 292.497C164.587 289.025 164.343 285.72 164.457 282.43C164.139 280.982 163.972 279.485 164.161 278.041C164.745 273.578 166.06 269.219 166.986 264.82C167.489 262.426 167.999 260.032 168.612 257.662C169.199 255.394 169.821 253.051 170.774 250.904C171.509 249.249 172.731 248.055 173.95 246.761C175.388 245.235 176.557 243.413 176.262 241.23Z" fill="#D19342"/>
<path d="M143.706 210.52C141.242 204.395 139.238 198.017 138.355 191.457C138.151 189.937 138.008 188.409 137.944 186.877C137.874 185.205 137.985 183.507 138.115 181.84C138.38 178.462 138.921 175.098 139.792 171.823C141.218 166.468 143.595 161.296 146.684 156.699C148.195 154.451 149.896 152.3 151.886 150.455C152.012 150.338 152.143 150.224 152.272 150.109C149.127 151.718 146.274 154.296 144.352 156.781C138.803 163.949 135.668 173.562 135.31 182.573C135.27 183.564 135.254 184.569 135.258 185.582C135.334 186.027 135.412 186.47 135.493 186.909C137.016 195.111 139.729 203.151 143.292 210.687C144.051 212.294 144.895 213.855 145.787 215.386C145.062 213.777 144.364 212.157 143.706 210.52Z" fill="#F0B23B"/>
<path opacity="0.49" d="M176.263 241.227C175.698 237.053 171.692 234.842 169.299 231.805C167.408 229.405 166.519 226.65 166.267 223.627C165.91 219.346 166.118 214.97 166.391 210.692C166.702 205.816 167.258 200.958 167.929 196.118C168.385 192.819 168.898 189.528 169.426 186.239C169.441 184.645 169.452 183.052 169.47 181.457C169.548 175.008 169.78 168.527 169.24 162.091C168.911 158.169 167.576 154.035 164.722 151.212C158.217 144.778 148.797 151.038 144.352 156.783C138.803 163.951 135.668 173.564 135.31 182.575C135.27 183.566 135.254 184.571 135.258 185.584C135.333 186.029 135.412 186.472 135.493 186.911C137.016 195.114 139.729 203.154 143.292 210.689C145.499 215.36 148.374 219.653 151.315 223.885C154.25 228.109 157.533 232.319 159.597 237.062C163.62 246.311 162.39 256.556 160.114 266.084C158.825 271.478 157.464 276.846 156.32 282.275C156.285 282.439 156.252 282.603 156.218 282.767C156.141 283.513 156.064 284.259 155.988 285.005C155.796 286.886 154.497 292.794 154.549 296.437C155.409 296.758 156.267 297.086 157.115 297.436C158.861 298.157 160.57 298.966 162.205 299.912C164.057 298.906 165.403 296.936 165.16 294.086C165.115 293.553 165.104 293.022 165.116 292.494C164.591 289.022 164.347 285.717 164.461 282.427C164.143 280.979 163.976 279.482 164.165 278.037C164.749 273.575 166.065 269.215 166.99 264.816C167.493 262.422 168.004 260.028 168.617 257.659C169.203 255.39 169.825 253.047 170.778 250.901C171.513 249.245 172.736 248.052 173.954 246.757C175.389 245.231 176.558 243.41 176.263 241.227Z" fill="#D19342"/>
<path d="M107.064 286.344C106.985 285.436 106.6 284.673 106.193 283.955C105.733 283.146 105.224 282.357 104.868 281.452C104.468 280.435 104.241 279.278 104.069 278.167C103.696 275.765 103.632 273.31 103.411 270.887C103.01 266.48 102.448 262.084 102.287 257.659C102.208 255.474 102.222 253.278 102.431 251.126C102.635 249.018 103.104 247.119 103.643 245.16C104.142 243.342 104.544 241.435 104.496 239.44C104.446 237.348 103.956 235.324 103.457 233.334C102.355 228.939 102.417 224.48 102.654 220.018C104.927 209.342 105.667 198.318 105.96 187.435C106.186 179.047 105.454 167.742 98.3911 162.03C95.1495 159.408 90.1053 157.022 85.8946 158.437C82.0265 159.738 79.8197 164.017 78.2402 167.489C73.9461 176.93 75.1864 188.233 78.3572 197.813C80.3948 203.969 83.4444 209.71 86.1851 215.566C88.2201 219.913 90.4555 224.18 91.9711 228.714C91.9997 228.847 92.0334 228.978 92.0612 229.111C92.2809 230.192 92.499 231.309 92.5167 232.422C92.5352 233.582 92.4055 234.719 92.2801 235.853C92.1437 237.085 92.0115 238.338 92.1412 239.601C92.2717 240.866 92.6851 242.07 93.2012 243.148C94.0811 244.988 95.1487 246.586 95.5764 248.739C96.5641 253.711 96.7855 258.908 96.9017 263.975C96.9615 266.605 96.9741 269.234 96.9884 271.861C97.0019 274.294 97.0617 276.734 97.0137 279.162C96.9227 283.75 96.4234 288.27 95.4156 292.59C95.1142 293.883 94.7648 295.148 94.3833 296.393C94.3572 296.59 94.3269 296.787 94.3067 296.987C94.1232 298.818 94.2739 300.731 95.5907 301.765C97.2705 303.084 99.5901 303.354 101.627 302.681C101.312 301.13 101.25 299.538 101.512 297.971C101.991 295.114 103.505 292.585 105.262 290.333C105.66 289.824 106.072 289.328 106.491 288.837C106.639 288.151 106.814 287.475 107.015 286.817C107.035 286.753 107.057 286.688 107.079 286.624C107.075 286.53 107.072 286.436 107.064 286.344Z" fill="#F0B23B"/>
<path d="M100.357 167.696C99.7609 167.928 99.2903 168.434 98.9745 169.017C98.6032 169.703 98.4138 170.506 98.3304 171.29C98.2327 172.207 98.2647 173.14 98.3952 174.052C98.5325 175.011 98.7758 175.959 99.1311 176.862C99.457 177.689 99.8872 178.496 100.456 179.182C100.957 179.785 101.582 180.317 102.307 180.591C103.07 180.881 103.878 180.877 104.66 180.638C105.069 180.513 105.455 180.333 105.823 180.118C105.511 175.898 104.705 171.557 102.912 167.873C102.811 167.834 102.711 167.793 102.608 167.758C101.87 167.509 101.084 167.414 100.357 167.696Z" fill="#D19342"/>
<path d="M80.6241 173.714C80.6199 172.624 80.4304 171.525 80.145 170.475C79.905 169.594 79.5767 168.729 79.106 167.944C78.9477 167.681 78.7204 167.344 78.4467 167.039C78.3777 167.189 78.3078 167.34 78.2405 167.488C76.3241 171.702 75.5116 176.287 75.4805 180.925C76.655 180.568 77.742 179.955 78.6118 179.056C79.9884 177.631 80.6317 175.674 80.6241 173.714Z" fill="#D19342"/>
<path d="M86.55 158.25C86.518 158.348 86.4894 158.449 86.4658 158.552C86.1619 159.852 86.5879 161.252 87.5562 162.168C88.1548 162.734 88.8932 163.023 89.6679 163.265C90.4795 163.518 91.3661 163.67 92.2089 163.493C93.5536 163.209 94.3475 162.08 94.5142 160.761C94.5648 160.361 94.5656 159.958 94.5269 159.558C92.0026 158.322 89.1484 157.623 86.55 158.25Z" fill="#D19342"/>
<path d="M89.7904 173.571C89.2406 172.994 88.5518 172.489 87.7797 172.296C87.416 172.277 87.0489 172.293 86.6936 172.339C86.6246 172.349 86.5774 172.322 86.5479 172.281C85.6883 172.48 84.9608 173.09 84.4338 173.781C83.1455 175.465 82.5166 178.104 83.4436 180.095C83.9126 181.101 84.8194 181.858 85.9055 182.11C86.8544 182.329 87.8075 182.035 88.5594 181.438C89.3879 180.781 89.9874 179.842 90.3789 178.869C90.7847 177.86 91.0053 176.759 90.938 175.67C90.9161 175.31 90.8572 174.947 90.7553 174.599C90.6871 174.61 90.613 174.59 90.5625 174.519C90.3267 174.185 90.0724 173.867 89.7904 173.571Z" fill="#D19342"/>
<path d="M84.018 194.851C84.5055 193.921 84.689 192.88 84.6006 191.837C84.5442 191.173 84.375 190.528 84.1679 189.897C83.9447 189.217 83.6804 188.55 83.3469 187.916C82.8805 187.027 82.2633 186.151 81.3893 185.624C79.9083 184.731 78.2395 185.354 77.0161 186.391C76.6213 186.726 76.2609 187.097 75.9258 187.493C76.4124 191.04 77.2704 194.53 78.3582 197.815C78.5409 198.368 78.7346 198.916 78.9333 199.463C80.0186 198.747 81.1014 198.028 82.0823 197.173C82.8451 196.509 83.5448 195.752 84.018 194.851Z" fill="#D19342"/>
<path d="M100.715 189.75C100.621 191.49 101.376 193.147 102.384 194.525C103.277 195.747 104.362 196.782 105.518 197.745C105.732 194.304 105.87 190.862 105.962 187.434C105.982 186.717 105.99 185.973 105.992 185.219C104.908 185.231 103.832 185.474 102.897 186.037C101.57 186.834 100.798 188.213 100.715 189.75Z" fill="#D19342"/>
<path d="M100.498 202.931C99.8958 202.604 99.2265 202.424 98.5301 202.478C97.7437 202.54 96.9969 202.902 96.4016 203.411C95.3475 204.315 94.4702 205.889 94.86 207.314C95.0595 208.042 95.6093 208.49 96.2602 208.819C96.9557 209.17 97.7513 209.271 98.4998 209.037C99.9438 208.588 100.894 207.104 101.089 205.657C101.197 204.855 101.076 204.021 100.711 203.297C100.647 203.17 100.574 203.048 100.498 202.931Z" fill="#D19342"/>
<path d="M93.225 222.614C93.7571 220.841 93.502 218.789 92.0302 217.538C91.6842 217.244 91.2371 217.031 90.7833 217.184C90.3261 217.337 89.9918 217.763 89.7392 218.153C89.2416 218.92 88.8964 219.79 88.6211 220.677C89.4462 222.422 90.2402 224.179 90.9534 225.964C92.0521 225.157 92.8537 223.855 93.225 222.614Z" fill="#D19342"/>
<path d="M94.1323 231.573C94.0675 231.498 93.9993 231.426 93.9277 231.357C93.8915 231.323 93.8536 231.289 93.8157 231.256C93.798 231.241 93.7804 231.227 93.7627 231.211C93.7542 231.205 93.7458 231.199 93.7374 231.192C93.5926 231.084 93.441 230.994 93.2777 230.918L93.2768 230.917C93.2752 230.917 93.276 230.917 93.2743 230.916C93.2642 230.913 93.255 230.909 93.2449 230.904C93.2255 230.897 93.2061 230.889 93.1859 230.883C93.1506 230.87 93.1143 230.859 93.0781 230.849C93.036 230.837 92.9931 230.827 92.9493 230.818C92.93 230.814 92.9097 230.812 92.8895 230.808C92.8836 230.808 92.8845 230.808 92.8828 230.807C92.8794 230.807 92.8794 230.807 92.871 230.806C92.7885 230.798 92.7068 230.794 92.6235 230.799C92.6041 230.8 92.5839 230.802 92.5645 230.804C92.5561 230.805 92.5561 230.805 92.5528 230.805C92.5502 230.806 92.5519 230.806 92.546 230.807C92.5073 230.814 92.4677 230.821 92.429 230.83C92.4113 230.834 92.3945 230.841 92.3776 230.846C92.4542 231.368 92.509 231.893 92.5174 232.416C92.5359 233.577 92.4062 234.714 92.2808 235.848C92.2404 236.212 92.2016 236.579 92.168 236.947C92.514 236.791 92.85 236.612 93.1657 236.399C93.4301 236.221 93.6616 236.036 93.894 235.801C93.9942 235.699 94.0902 235.592 94.1794 235.481C94.1828 235.477 94.2064 235.446 94.2098 235.443C94.2182 235.433 94.2258 235.422 94.2342 235.411C94.2544 235.384 94.2737 235.357 94.2931 235.329C94.331 235.275 94.368 235.22 94.4026 235.164C94.4724 235.052 94.5364 234.936 94.5929 234.816C94.6072 234.786 94.6206 234.756 94.6341 234.725C94.6358 234.722 94.6383 234.716 94.64 234.711C94.6442 234.701 94.6484 234.691 94.6526 234.68C94.6745 234.624 94.6956 234.568 94.7149 234.511C94.7537 234.396 94.7857 234.278 94.8109 234.16C94.8236 234.099 94.8337 234.038 94.8438 233.977C94.8446 233.974 94.8454 233.964 94.8463 233.957C94.848 233.948 94.8488 233.939 94.8497 233.93C94.8522 233.907 94.8547 233.884 94.8572 233.86C94.8783 233.632 94.8724 233.403 94.8454 233.175C94.8446 233.171 94.8446 233.171 94.8446 233.171C94.8438 233.168 94.8438 233.167 94.8429 233.159C94.8404 233.146 94.8387 233.132 94.837 233.12C94.8337 233.098 94.8303 233.076 94.8261 233.054C94.8168 233.002 94.8059 232.949 94.7941 232.897C94.7697 232.79 94.7394 232.685 94.704 232.58C94.6855 232.526 94.6661 232.474 94.6459 232.421C94.6408 232.409 94.6358 232.397 94.6316 232.384C94.6307 232.382 94.6316 232.384 94.6307 232.382C94.6223 232.363 94.6139 232.343 94.6046 232.323C94.5609 232.226 94.5129 232.131 94.4598 232.039C94.4085 231.948 94.352 231.86 94.2923 231.775C94.2754 231.751 94.2586 231.728 94.2418 231.705C94.2359 231.696 94.2291 231.688 94.2232 231.679C94.1912 231.645 94.1626 231.609 94.1323 231.573Z" fill="#D19342"/>
<path d="M99.7221 232.881C98.6907 233.529 98.3691 234.789 98.4238 235.951C98.4912 237.385 99.062 238.796 99.8872 239.957C100.739 241.157 101.96 242.151 103.413 242.489C103.687 242.553 103.961 242.587 104.233 242.601C104.414 241.572 104.524 240.518 104.498 239.437C104.447 237.345 103.957 235.321 103.459 233.331C103.4 233.097 103.349 232.863 103.296 232.63C102.089 232.32 100.768 232.224 99.7221 232.881Z" fill="#D19342"/>
<path d="M98.7171 269.258C98.6851 268.724 98.4779 268.214 98.0679 267.86C97.7522 267.589 97.3615 267.439 96.9531 267.359C96.9691 268.86 96.9801 270.361 96.9876 271.861C96.9902 272.277 96.9944 272.695 96.9986 273.111C97.1131 272.998 97.2234 272.882 97.3278 272.762C98.1369 271.827 98.7928 270.525 98.7171 269.258Z" fill="#D19342"/>
<path d="M99.4991 255.433C98.8373 256.275 98.7085 257.438 98.7632 258.474C98.834 259.811 99.2432 261.1 100 262.208C100.73 263.276 101.717 264.091 102.809 264.764C102.578 262.397 102.375 260.03 102.289 257.653C102.251 256.602 102.236 255.548 102.252 254.499C101.229 254.386 100.177 254.569 99.4991 255.433Z" fill="#D19342"/>
<path d="M94.5136 244.89C94.3477 244.813 94.1751 244.756 94 244.719C94.6508 245.968 95.2739 247.215 95.577 248.738C95.6275 248.99 95.6671 249.245 95.7134 249.498C95.8111 249.317 95.8995 249.131 95.9711 248.935C96.5192 247.434 96.035 245.597 94.5136 244.89Z" fill="#D19342"/>
<path d="M100.856 216.58C99.8562 216.734 98.8804 217.153 98.5444 218.188C98.3297 218.848 98.3625 219.574 98.4627 220.252C98.5638 220.931 98.8256 221.558 99.1978 222.134C100.011 223.393 101.241 224.368 102.517 225.131C102.501 223.43 102.566 221.725 102.656 220.019C102.906 218.844 103.131 217.664 103.345 216.482C102.511 216.458 101.677 216.454 100.856 216.58Z" fill="#D19342"/>
<path d="M93.4219 185.596C91.5258 185.247 89.7416 186.57 88.4568 187.825C88.0215 188.65 87.811 189.591 87.7613 190.519C87.6897 191.848 87.912 193.184 88.3254 194.446C88.7186 195.646 89.2971 196.819 90.1003 197.799C90.7402 198.58 91.5712 199.31 92.5867 199.517C93.5995 199.725 94.5501 199.245 95.2582 198.524C96.4791 197.28 97.1047 195.505 97.3042 193.8C97.5114 192.023 97.3101 190.132 96.5742 188.49C95.9739 187.15 94.9374 185.873 93.4219 185.596Z" fill="#D19342"/>
<path d="M90.0964 167.18C89.4826 167.414 89.001 167.903 88.8174 168.574C88.6575 169.161 88.7265 169.9 89.2106 170.321C89.8026 170.836 90.8028 170.546 91.3029 170.043C91.8965 169.446 91.7425 168.526 91.2516 167.918C90.9426 167.534 90.5367 167.286 90.0964 167.18Z" fill="#D19342"/>
<path d="M94.4658 298.272C94.3791 298.305 94.2932 298.344 94.2081 298.384C93.9581 298.802 93.7156 299.223 93.4874 299.653C92.6488 301.236 91.9735 302.892 91.3926 304.582C91.4481 304.658 91.5088 304.729 91.5795 304.79C93.0184 306.043 102.546 305.092 102.417 301.134C102.417 301.134 96.9715 297.311 94.4658 298.272Z" fill="#3B2920"/>
<path opacity="0.49" d="M107.064 286.342C106.985 285.434 106.6 284.671 106.192 283.953C105.733 283.143 105.223 282.354 104.868 281.449C104.469 280.432 104.241 279.275 104.068 278.165C103.695 275.762 103.631 273.307 103.411 270.885C103.01 266.478 102.447 262.082 102.287 257.656C102.207 255.471 102.222 253.275 102.431 251.123C102.634 249.015 103.104 247.117 103.642 245.157C104.141 243.34 104.544 241.432 104.496 239.437C104.445 237.345 103.955 235.321 103.457 233.331C102.355 228.935 102.417 224.478 102.654 220.016C104.926 209.34 105.666 198.316 105.959 187.433C106.178 179.303 105.498 168.433 99.0239 162.57C100.91 165.455 102.412 168.581 103.474 171.886C106.374 180.91 106.06 190.598 105.019 199.905C103.942 209.528 101.986 219.044 101.251 228.705C101.24 228.847 101.098 228.944 100.966 228.869C99.3144 227.939 97.5513 227.258 95.7293 226.755C96.9089 228.405 97.9167 230.171 98.6173 232.08C100.997 238.561 99.1149 245.474 98.5263 252.114C99.2033 251.386 100.055 250.82 100.675 250.031C100.79 249.885 100.981 250.027 100.999 250.166C101.788 256.075 101.52 262.026 101.573 267.968C101.596 270.552 101.69 273.14 101.979 275.71C102.134 277.088 102.346 278.459 102.628 279.817C102.897 281.119 103.325 282.389 103.564 283.697C104.304 287.746 102.203 291.301 101.173 295.077C100.921 296.003 100.737 297.672 99.7489 298.132C98.7713 298.586 97.4654 298.43 96.4323 298.333C95.7015 298.264 94.969 298.165 94.2432 298.032C94.2222 299.512 94.5236 300.926 95.5895 301.764C97.2693 303.083 99.5889 303.352 101.626 302.679C101.311 301.128 101.248 299.537 101.511 297.97C101.99 295.112 103.504 292.584 105.261 290.331C105.659 289.822 106.07 289.326 106.49 288.835C106.638 288.149 106.813 287.474 107.014 286.815C107.034 286.751 107.056 286.687 107.077 286.622C107.075 286.527 107.071 286.434 107.064 286.342Z" fill="#D19342"/>
<path d="M87.2543 214.69C85.7783 210.847 84.0582 207.105 82.45 203.318C80.9311 199.743 79.4761 196.11 78.5466 192.33C78.161 190.759 78.0178 189.147 77.953 187.534C77.8671 185.419 77.9202 183.299 78.0591 181.187C78.2182 178.783 78.4961 176.385 78.9061 174.011C79.3162 171.636 79.8576 169.277 80.6162 166.988C81.2864 164.964 82.1233 162.962 83.2987 161.175C83.9226 160.228 84.6602 159.324 85.5299 158.586C81.8901 160.027 79.77 164.133 78.2418 167.493C73.9486 176.934 75.188 188.237 78.3588 197.818C80.3964 203.973 83.446 209.715 86.1867 215.57C87.4353 218.237 88.758 220.875 89.9452 223.563C89.3441 220.529 88.3598 217.569 87.2543 214.69Z" fill="#F0B23B"/>
<path opacity="0.49" d="M107.064 286.345C106.985 285.438 106.6 284.674 106.193 283.956C105.733 283.147 105.224 282.357 104.868 281.453C104.468 280.436 104.241 279.279 104.069 278.168C103.696 275.766 103.632 273.311 103.411 270.888C103.01 266.481 102.448 262.085 102.287 257.66C102.208 255.475 102.223 253.279 102.431 251.127C102.635 249.019 103.104 247.12 103.643 245.16C104.142 243.342 104.544 241.435 104.496 239.44C104.446 237.348 103.956 235.324 103.457 233.334C102.355 228.939 102.417 224.48 102.654 220.018C104.927 209.342 105.667 198.318 105.96 187.435C106.186 179.047 105.454 167.743 98.3911 162.03C95.1495 159.408 90.1053 157.022 85.8946 158.437C82.0265 159.738 79.8197 164.017 78.2402 167.489C73.9461 176.93 75.1864 188.233 78.3572 197.813C80.3948 203.97 83.4444 209.709 86.1851 215.566C88.2201 219.913 90.4555 224.18 91.9711 228.714C91.9997 228.847 92.0334 228.978 92.0612 229.111C92.2809 230.192 92.499 231.309 92.5167 232.422C92.5352 233.582 92.4055 234.719 92.2801 235.853C92.1437 237.085 92.0115 238.338 92.1412 239.601C92.2717 240.866 92.6851 242.07 93.2012 243.149C94.0811 244.988 95.1487 246.586 95.5764 248.739C96.5641 253.711 96.7863 258.908 96.9017 263.975C96.9615 266.605 96.9749 269.234 96.9884 271.861C97.001 274.294 97.0617 276.734 97.0137 279.162C96.9236 283.75 96.4234 288.27 95.4156 292.59C95.1142 293.883 94.7648 295.148 94.3833 296.393C94.3572 296.59 94.3269 296.787 94.3076 296.987C94.2318 297.745 94.2149 298.515 94.3126 299.233C94.7126 299.245 95.1116 299.293 95.5048 299.372C97.3345 299.742 99.0386 300.685 100.561 301.738C100.911 301.98 101.256 302.233 101.594 302.493C101.312 301.001 101.261 299.475 101.514 297.971C101.993 295.114 103.507 292.585 105.264 290.333C105.662 289.824 106.073 289.328 106.493 288.837C106.641 288.151 106.816 287.475 107.017 286.817C107.037 286.753 107.058 286.688 107.08 286.624C107.075 286.531 107.072 286.437 107.064 286.345Z" fill="#D19342"/>
<path d="M121.732 136.666C118.199 129.323 113.452 122.668 109.214 115.733C104.772 108.465 100.228 101.261 95.6901 94.0519C91.1544 86.8461 86.617 79.6352 82.3129 72.2878C78.0744 65.0517 74.3958 57.5103 70.3939 50.1443C68.1879 46.0847 65.662 42.1365 63.9116 37.8459C62.5779 34.5766 62.6511 30.8535 60.755 27.8034C60.3045 27.079 59.082 27.6744 58.7839 28.2351C57.7551 30.1679 57.3501 32.4203 56.7935 34.5192C56.6209 35.1711 56.301 36.9985 55.7933 38.5062C55.0826 38.5779 54.2878 39.0426 54.0942 39.761C53.9822 40.1768 53.903 40.5908 53.85 41.0032C53.626 41.2604 53.5671 41.623 53.7843 41.7883C53.674 44.2101 54.4621 46.5671 55.4767 48.8195C56.8685 51.9109 58.5356 54.8995 60.0924 57.91C63.9006 65.2701 67.8882 72.5484 72.3549 79.5315C76.9453 86.7078 82.1942 93.4278 87.3167 100.226C92.5134 107.123 97.6755 114.086 103.334 120.614C106.253 123.981 109.326 127.228 112.077 130.736C114.263 133.524 116.487 136.74 119.713 138.401C120.731 138.925 122.278 137.802 121.732 136.666Z" fill="#6C412C"/>
<path opacity="0.62" d="M121.47 136.139C116.546 131.045 112.036 125.552 107.827 119.855C102.255 112.315 97.1922 104.411 92.3273 96.3995C87.5735 88.5706 83.0976 80.5721 78.3228 72.7575C73.7037 65.1984 67.5514 58.3594 64.4327 49.9596C63.6371 47.8168 63.2557 45.7365 63.5133 43.4478C63.7002 41.784 64.0185 40.1439 64.1877 38.4826C64.0968 38.2701 63.9991 38.0601 63.9116 37.8459C62.5779 34.5766 62.6511 30.8544 60.755 27.8034C60.3045 27.079 59.082 27.6744 58.7839 28.2351C57.7551 30.1679 57.3501 32.4203 56.7935 34.5192C56.6209 35.1719 56.301 36.9985 55.7933 38.5062C55.0826 38.5779 54.2878 39.0426 54.0942 39.761C53.9822 40.1768 53.903 40.5908 53.85 41.0032C53.626 41.2604 53.5671 41.623 53.7843 41.7883C53.674 44.2101 54.4621 46.5671 55.4758 48.8195C56.8676 51.9109 58.5347 54.8995 60.0915 57.91C63.8998 65.2701 67.8874 72.5484 72.354 79.5315C76.9445 86.7078 82.1942 93.4278 87.3159 100.226C92.5125 107.123 97.6747 114.086 103.334 120.614C106.252 123.98 109.325 127.228 112.076 130.736C114.262 133.524 116.486 136.74 119.712 138.4C120.729 138.924 122.276 137.801 121.73 136.666C121.646 136.489 121.556 136.314 121.47 136.139Z" fill="#6C412C"/>
<path d="M178.533 146.475C172.45 137.781 162.553 135.621 152.011 136.034C147.154 136.223 142.322 136.801 137.465 136.985C132.57 137.17 127.492 137.019 122.824 135.377C112.925 131.894 108.108 121.335 102.391 113.377C94.9551 103.025 86.9084 93.4079 80.1675 82.512C69.7557 65.6836 61.0649 47.9546 52.342 30.2163C52.2966 30.1244 52.2511 30.0325 52.2056 29.9397C48.9135 23.2703 39.3824 26.3921 33.3438 31.5715C34.2346 33.9874 35.3485 36.3225 36.47 38.6356C37.9098 41.6064 39.2931 44.5975 40.6285 47.6164C49.7252 68.1772 56.631 89.7279 65.2764 110.496C70.756 123.66 77.3815 137.771 75.0711 152.424C74.5019 156.035 73.5101 159.567 73.0209 163.192C73.0023 163.332 72.9847 163.473 72.9678 163.614C72.8761 165.904 72.8946 168.196 73.1093 170.461C73.3501 171.471 73.6936 172.46 74.0759 173.412C76.5597 179.594 81.1855 184.66 85.0729 189.97C86.6996 192.192 88.397 194.358 90.1466 196.477C92.2406 197.487 94.4002 198.37 96.581 199.149C107.541 203.064 118.366 205.851 130.036 205.338C134.093 205.159 138.134 204.648 142.122 203.886C150.045 202.372 157.873 199.887 165.078 196.214C171.263 191.589 176.516 185.894 179.995 179.134C184.724 169.947 185.065 158.261 180.13 149.077C179.633 148.152 179.099 147.286 178.533 146.475Z" fill="#F0B23B"/>
<path opacity="0.49" d="M47.3744 57.9643C51.1978 58.3243 55.0153 56.9903 58.2097 54.9571C59.865 53.9031 61.4202 52.6297 62.7724 51.1742C59.2294 44.2256 55.7874 37.2222 52.342 30.2163C52.2966 30.1244 52.2511 30.0325 52.2056 29.9397C48.9135 23.2703 39.3824 26.3921 33.3438 31.5715C34.2346 33.9875 35.3485 36.3225 36.47 38.6356C37.9098 41.6064 39.2931 44.5975 40.6285 47.6164C42.0641 50.8614 43.4407 54.1324 44.7819 57.4195C45.6214 57.6927 46.4878 57.8808 47.3744 57.9643Z" fill="#D19342"/>
<path d="M164.002 189.839C159.31 189.461 154.933 187.796 150.529 186.243C146.2 184.716 141.854 183.185 137.353 182.24C132.726 181.268 127.807 180.864 123.12 181.648C119.118 182.317 115.423 183.964 111.874 185.877C108.479 187.707 105.171 189.714 101.577 191.141C97.8505 192.622 93.9867 193.223 90.0008 192.619C88.7842 192.435 87.5877 192.151 86.4199 191.778C87.6307 193.373 88.8743 194.939 90.1482 196.482C92.2422 197.491 94.4027 198.375 96.5825 199.153C107.542 203.069 118.368 205.856 130.037 205.343C134.094 205.164 138.136 204.653 142.123 203.891C150.047 202.376 157.875 199.892 165.08 196.219C167.94 194.08 170.597 191.71 172.975 189.114C170.075 189.799 167.08 190.088 164.002 189.839Z" fill="#FFEEBB"/>
<path d="M54.4474 75.4017C55.707 73.7278 56.2392 71.6348 56.0034 69.5578C55.8628 68.3165 55.4317 67.1275 54.9366 65.9882C54.4618 64.897 53.8867 63.8227 53.118 62.9086C52.5547 62.239 51.8668 61.6251 51.04 61.3089C50.3235 61.0348 49.5547 61.0137 48.8231 61.244C48.0653 61.4826 47.4001 61.9523 46.8242 62.4962C48.7616 67.3973 50.6316 72.3288 52.4814 77.2695C53.2249 76.7518 53.8968 76.1336 54.4474 75.4017Z" fill="#D19342"/>
<path d="M62.0145 54.0444C61.6836 55.0875 61.6288 56.1964 61.6701 57.2859C61.7206 58.5905 61.9303 59.8874 62.2342 61.1557C62.5516 62.4813 62.9735 63.785 63.5073 65.0398C63.9973 66.1926 64.5791 67.3175 65.3066 68.3387C65.8741 69.1356 66.5544 69.9098 67.398 70.3879C68.0741 70.7707 68.8117 70.8972 69.5451 70.592C69.9172 70.4368 70.2936 70.1442 70.5984 69.8271C71.0211 69.3869 71.3578 68.87 71.65 68.3362C71.6879 68.267 71.7207 68.1962 71.7578 68.1262C68.8378 62.865 66.0298 57.544 63.2875 52.1875C62.651 52.6083 62.2477 53.3065 62.0145 54.0444Z" fill="#D19342"/>
<path d="M59.3251 84.9642C59.4211 83.9978 59.1937 83.0541 58.7534 82.1957C58.3871 81.4814 57.9543 80.7023 57.3094 80.2005C56.9768 79.9425 56.5609 79.7881 56.1567 79.9694C55.7223 80.1642 55.4284 80.6078 55.2087 81.0109C54.9047 81.57 54.7026 82.183 54.5469 82.7995C55.3518 84.9566 56.1567 87.1137 56.9659 89.2682C57.514 88.6838 58.02 88.064 58.441 87.381C58.894 86.6465 59.2392 85.8294 59.3251 84.9642Z" fill="#D19342"/>
<path d="M65.2518 75.4775C64.8426 74.835 64.2566 74.2506 63.4862 74.0937C62.5626 73.9057 61.6659 74.4277 60.9864 75.0019C60.9392 75.0416 60.8862 75.0534 60.8374 75.0475C60.5982 75.6243 60.5763 76.2905 60.6344 76.901C60.7195 77.8008 61.0015 78.6929 61.4091 79.4974C61.7989 80.2657 62.3243 81.0136 63.0315 81.5204C63.6352 81.953 64.4225 82.2153 65.1584 81.9868C65.7646 81.7987 66.0509 81.1275 66.1847 80.5566C66.3784 79.7302 66.3388 78.8422 66.1906 78.0124C66.0306 77.1236 65.7376 76.2415 65.2518 75.4775Z" fill="#D19342"/>
<path d="M70.6166 76.2767C69.4463 78.6648 68.9748 81.4451 69.0784 84.0921C69.1769 86.5967 69.8429 89.4461 72.3048 90.6343C73.8986 91.4033 75.8091 91.3325 77.4543 90.7692C78.3072 90.4774 79.113 90.0541 79.7765 89.4385C80.3625 88.8946 80.8247 88.236 81.1691 87.5158C81.5168 86.7889 81.7425 86.0123 81.8856 85.2188C81.3055 84.3249 80.7296 83.426 80.1663 82.5161C78.1312 79.2264 76.1652 75.8997 74.2489 72.5469C72.613 73.1827 71.398 74.6829 70.6166 76.2767Z" fill="#D19342"/>
<path d="M83.2841 92.5854C82.6619 93.158 82.5995 94.1421 82.7511 94.9297C82.9001 95.7047 83.2975 96.4046 83.8061 97C85.0674 98.4732 86.8911 99.4345 88.6575 100.161C90.2657 100.823 91.9497 101.316 93.658 101.655C91.2146 98.4209 88.788 95.1785 86.4339 91.8695C86.3177 91.867 86.2024 91.8594 86.0862 91.8594C85.16 91.8611 84.0065 91.9209 83.2841 92.5854Z" fill="#D19342"/>
<path d="M79.7488 98.8094C78.6105 98.0184 77.3155 97.2249 75.9237 97.0099C75.3958 96.9281 74.8157 96.9525 74.3434 97.2283C73.9763 97.4425 73.7405 97.8371 73.5603 98.2099C73.0156 99.3399 72.8463 100.672 72.7807 101.912C72.7099 103.268 72.779 104.669 73.1385 105.982C73.2783 106.494 73.466 107.006 73.7725 107.443C74.0394 107.823 74.3956 108.029 74.8393 108.148C76.1064 108.489 77.5479 108.308 78.8075 108.025C79.4752 107.874 80.1403 107.674 80.76 107.38C81.2248 107.16 81.7308 106.88 82.0381 106.452C82.4221 105.917 82.4979 105.174 82.4861 104.535C82.4701 103.714 82.2891 102.9 82.0432 102.119C81.8007 101.35 81.49 100.573 81.1069 99.8365C80.6649 99.4781 80.2136 99.1324 79.7488 98.8094Z" fill="#D19342"/>
<path d="M71.5342 117.438C72.1538 116.973 72.6792 116.32 72.7609 115.525C72.867 114.489 72.2785 113.504 71.6512 112.733C71.1612 112.131 70.5162 111.466 69.7138 111.332C69.1278 111.234 68.5915 111.513 68.1764 111.908C67.6232 112.435 67.2359 113.126 66.9126 113.811C66.8679 113.904 66.8292 114.001 66.7871 114.096C67.427 115.618 68.0694 117.152 68.7001 118.697C68.807 118.669 68.9139 118.644 69.02 118.614C69.9058 118.356 70.7907 117.997 71.5342 117.438Z" fill="#D19342"/>
<path d="M78.6217 115.884C78.2454 115.874 77.8884 115.957 77.5549 116.101C76.7045 116.957 76.4663 118.332 76.4898 119.487C76.5134 120.649 76.7879 122.125 77.736 122.91C78.8145 123.802 80.2989 122.783 80.9195 121.813C81.8642 120.335 81.6932 118.245 80.565 116.909C80.0758 116.33 79.3946 115.902 78.6217 115.884Z" fill="#D19342"/>
<path d="M86.5012 108.454C86.1004 108.448 85.703 108.508 85.3494 108.688C84.8324 108.949 84.5259 109.433 84.4089 109.991C84.1218 111.351 84.771 112.889 85.5969 113.942C86.0499 114.519 86.6191 115.024 87.2935 115.324C87.8719 115.58 88.6423 115.732 89.2275 115.417C89.7891 115.115 90.0425 114.476 90.1242 113.873C90.2328 113.075 90.0855 112.244 89.8102 111.494C89.2578 109.987 88.0631 108.748 86.5012 108.454Z" fill="#D19342"/>
<path d="M96.591 108.977C96.1279 111.006 96.6399 113.176 97.3631 115.08C97.7883 116.198 98.3272 117.265 98.9208 118.303C99.6272 119.539 100.403 120.755 101.35 121.823C102.601 123.233 104.324 124.465 106.286 123.849C107.111 123.59 107.836 123.085 108.479 122.507C106.382 119.427 104.445 116.236 102.393 113.379C100.814 111.181 99.2079 109.018 97.593 106.867C97.1055 107.486 96.767 108.206 96.591 108.977Z" fill="#D19342"/>
<path d="M80.4081 134.062C80.419 132.919 80.0881 131.816 79.6141 130.786C79.2167 129.921 78.698 129.086 77.9731 128.459C77.4426 127.999 76.7825 127.67 76.0761 127.617C75.3966 127.567 74.7315 127.757 74.1471 128.099C73.5628 128.44 73.0677 128.9 72.6484 129.43C73.8045 133.125 74.7138 136.873 75.187 140.667C76.1224 140.272 77.0048 139.758 77.7811 139.115C79.3 137.855 80.3895 136.079 80.4081 134.062Z" fill="#D19342"/>
<path d="M94.431 120.785C93.8248 120.65 93.2135 120.914 92.7109 121.233C92.5037 121.365 92.3135 121.036 92.5189 120.905C92.7218 120.776 92.9424 120.661 93.1706 120.57C91.9817 120.801 90.7154 121.469 90.6455 122.81C90.5908 123.844 91.309 124.755 92.2562 125.102C92.8852 125.332 93.5705 125.341 94.2214 125.202C94.7425 125.092 95.1964 124.906 95.5054 124.448C96.056 123.631 96.0038 122.443 95.5079 121.614C95.2663 121.21 94.8975 120.89 94.431 120.785Z" fill="#D19342"/>
<path d="M78.3511 156.379C79.3454 155.787 80.3044 155.098 81.0538 154.206C81.7434 153.385 82.1997 152.384 82.2932 151.31C82.4178 149.878 82.0002 148.389 81.2702 147.162C80.6808 146.172 79.7689 145.417 78.5733 145.422C77.4796 145.427 76.4398 145.955 75.5406 146.549C75.5288 148.498 75.3831 150.457 75.0724 152.426C74.7457 154.497 74.2818 156.543 73.8516 158.596C74.2178 158.429 74.5849 158.264 74.9512 158.097C76.1055 157.571 77.2582 157.03 78.3511 156.379Z" fill="#D19342"/>
<path d="M128.76 139.488C128.829 140.785 129.036 142.115 129.597 143.297C130.144 144.449 131.027 145.367 132.172 145.929C133.565 146.614 135.238 146.816 136.77 146.65C138.047 146.513 139.268 146.024 140.257 145.197C142.297 143.49 143.27 140.8 144.082 138.347C144.282 137.746 144.469 137.136 144.657 136.523C142.261 136.712 139.866 136.9 137.464 136.991C134.594 137.099 131.663 137.09 128.786 136.734C128.732 137.65 128.711 138.568 128.76 139.488Z" fill="#D19342"/>
<path d="M151.844 141.029C152.309 142.564 153.637 143.632 154.987 144.381C156.393 145.161 157.99 145.717 159.607 145.766C160.879 145.804 162.128 145.501 163.258 144.918C165.704 143.654 167.511 141.388 169.177 139.259C169.277 139.13 169.378 139 169.477 138.871C164.556 136.566 158.816 135.857 152.84 136.013C152.639 136.376 152.452 136.746 152.287 137.127C151.759 138.344 151.45 139.727 151.844 141.029Z" fill="#D19342"/>
<path d="M146.347 147.992C144.017 148.009 142.005 149.649 140.601 151.377C139.5 152.732 138.695 154.432 138.766 156.21C138.827 157.749 139.608 159.153 140.844 160.061C142.387 161.196 144.417 161.585 146.299 161.522C147.666 161.476 148.988 160.986 150.006 160.063C151.986 158.267 152.628 155.288 152.101 152.732C151.835 151.443 151.263 150.21 150.367 149.241C149.121 148.53 147.776 147.981 146.347 147.992Z" fill="#D19342"/>
<path d="M144.148 185.977C142.633 185.988 141.326 187.054 140.414 188.177C139.699 189.056 139.176 190.162 139.222 191.317C139.261 192.317 139.769 193.23 140.572 193.82C141.575 194.557 142.893 194.81 144.117 194.769C145.004 194.74 145.864 194.421 146.525 193.822C147.812 192.655 148.229 190.718 147.886 189.058C147.714 188.221 147.342 187.419 146.76 186.79C145.951 186.326 145.077 185.97 144.148 185.977Z" fill="#D19342"/>
<path d="M144.148 185.977C142.633 185.988 141.326 187.054 140.414 188.177C139.699 189.056 139.176 190.162 139.222 191.317C139.261 192.317 139.769 193.23 140.572 193.82C141.575 194.557 142.893 194.81 144.117 194.769C145.004 194.74 145.864 194.421 146.525 193.822C147.812 192.655 148.229 190.718 147.886 189.058C147.714 188.221 147.342 187.419 146.76 186.79C145.951 186.326 145.077 185.97 144.148 185.977Z" fill="#D19342"/>
<path d="M118.966 150.713C117.765 150.309 116.32 150.509 115.182 150.907C114.412 151.176 113.655 151.577 113.071 152.155C112.614 152.607 112.244 153.219 112.331 153.887C112.44 154.716 113.18 155.383 113.849 155.8C114.55 156.237 115.382 156.432 116.201 156.287C117.693 156.023 118.994 154.81 119.449 153.373C119.658 152.714 119.682 151.98 119.388 151.341C119.28 151.106 119.134 150.899 118.966 150.713Z" fill="#D19342"/>
<path d="M113.153 160.53C112.757 160.034 112.242 159.643 111.646 159.469C110.785 159.76 109.996 160.235 109.356 160.899C108.575 161.709 108.049 162.749 107.829 163.852C107.442 165.801 108.132 168.127 110.225 168.719C111.146 168.979 112.256 168.959 113.04 168.351C113.729 167.817 114.097 166.967 114.279 166.136C114.493 165.163 114.474 164.132 114.282 163.158C114.098 162.224 113.753 161.28 113.153 160.53Z" fill="#D19342"/>
<path d="M164.863 149.035C164.156 148.887 163.409 149.033 162.757 149.322C161.597 149.837 160.508 150.83 160.036 152.027C159.852 152.494 159.756 153.029 159.936 153.514C160.169 154.14 160.86 154.504 161.46 154.69C163.08 155.193 164.606 154.169 165.378 152.778C165.943 151.762 166.126 150.554 165.842 149.457C165.549 149.259 165.224 149.11 164.863 149.035Z" fill="#D19342"/>
<path d="M143.353 167.09C141.851 166.567 140.18 166.545 138.843 167.541C137.62 168.453 136.992 170.1 137.543 171.563C137.852 172.381 138.51 173.011 139.263 173.428C139.756 173.7 140.29 173.888 140.837 174.018C141.444 174.164 142.081 174.289 142.707 174.291C143.642 174.295 144.564 173.985 145.195 173.271C145.756 172.635 145.998 171.773 145.975 170.935C145.95 170.011 145.603 169.099 145.024 168.38C144.57 167.817 143.994 167.391 143.353 167.09Z" fill="#D19342"/>
<path d="M137.122 176.656C136.861 176.626 136.598 176.622 136.333 176.661C135.656 176.76 135.042 177.114 134.612 177.645C133.899 178.527 133.742 179.837 134.357 180.811C134.715 181.378 135.299 181.755 135.928 181.957C136.541 182.154 137.222 182.25 137.828 181.976C138.891 181.497 139.183 180.171 138.974 179.119C138.757 178.024 138.062 177.158 137.122 176.656Z" fill="#D19342"/>
<path d="M127.57 175.872C127.169 174.932 126.403 174.09 125.558 173.53C125.251 173.327 124.931 173.159 124.6 173.016C124.579 173.013 124.558 173.008 124.536 172.995C124.501 172.976 124.464 172.962 124.43 172.944C123.359 172.514 122.189 172.355 121.022 172.297C119.844 172.412 118.691 172.836 117.724 173.502C116.398 174.417 115.331 175.942 115.515 177.614C115.677 179.094 116.256 180.559 116.862 181.905C117.6 183.544 118.5 185.143 119.633 186.544C120.491 187.605 121.62 188.802 123.025 189.056C124.321 189.291 125.4 188.355 126.072 187.348C126.99 185.971 127.47 184.312 127.768 182.7C128.07 181.064 128.19 179.36 128.002 177.704C127.931 177.086 127.815 176.448 127.57 175.872Z" fill="#D19342"/>
<path d="M129.622 151.367C128.991 151.048 128.324 150.867 127.642 150.795C127.631 150.794 127.62 150.797 127.606 150.793C127.604 150.792 127.601 150.792 127.599 150.792C126.739 150.705 125.857 150.79 125.001 150.98C124.755 151.12 124.527 151.299 124.331 151.53C123.716 152.254 123.474 153.267 123.386 154.198C123.275 155.389 123.39 156.599 123.631 157.767C123.881 158.975 124.266 160.165 124.812 161.273C125.271 162.205 125.848 163.128 126.653 163.799C127.273 164.315 128.041 164.609 128.809 164.386C129.861 164.08 130.601 163.038 131.126 162.127C132.211 160.245 132.838 157.936 132.547 155.758C132.301 153.918 131.308 152.219 129.622 151.367Z" fill="#D19342"/>
<path d="M173.202 141.055C172.742 141.598 172.318 142.166 171.959 142.777C171.454 143.637 171.057 144.646 171.196 145.661C171.264 146.161 171.479 146.634 171.709 147.077C171.93 147.505 172.197 147.909 172.518 148.267C173.714 149.605 175.473 150.079 177.217 150.036C178.279 150.009 179.333 149.819 180.361 149.532C180.283 149.382 180.209 149.231 180.129 149.083C179.632 148.156 179.098 147.289 178.531 146.479C176.985 144.269 175.189 142.485 173.202 141.055Z" fill="#D19342"/>
<path d="M102.608 146.113C102.023 145.823 101.375 145.702 100.724 145.688C99.5783 146.252 98.701 147.383 98.2926 148.608C97.9921 149.508 97.9104 150.505 98.2068 151.418C98.5116 152.358 99.2542 153.102 100.18 153.438C100.958 153.721 101.9 153.731 102.668 153.414C103.321 153.144 103.842 152.634 104.189 152.024C104.921 150.738 104.937 149.033 104.25 147.725C103.883 147.027 103.316 146.462 102.608 146.113Z" fill="#D19342"/>
<path d="M111.452 126.578C109.944 126.975 108.5 127.625 107.31 128.642C105.812 129.921 104.87 131.683 104.524 133.616C104.11 135.936 104.514 138.344 105.239 140.56C105.833 142.377 106.625 144.233 108.141 145.473C109.238 146.371 110.625 146.767 112.031 146.685C113.571 146.596 115.051 145.995 116.366 145.217C117.883 144.32 119.236 143.152 120.419 141.847C121.648 140.491 122.703 138.968 123.51 137.323C123.752 136.831 123.97 136.321 124.162 135.803C123.713 135.673 123.266 135.535 122.824 135.379C118.088 133.713 114.517 130.425 111.452 126.578Z" fill="#D19342"/>
<path d="M78.4823 179.392C79.4387 176.28 80.3354 172.895 79.7612 169.62C79.5145 168.212 78.9841 166.769 78.0394 165.675C77.4332 164.971 76.6223 164.483 75.6692 164.573C74.7338 164.662 73.8868 165.237 73.1997 165.841C73.1029 165.925 73.0145 166.019 72.9219 166.107C72.9219 167.566 72.9724 169.022 73.1088 170.467C73.3496 171.476 73.6931 172.465 74.0754 173.417C75.1085 175.989 76.5146 178.365 78.0815 180.648C78.2187 180.23 78.3534 179.812 78.4823 179.392Z" fill="#D19342"/>
<path d="M89.2302 153.151C88.0927 153.193 87.1261 153.816 86.3944 154.655C85.8951 155.228 85.4927 155.883 85.1517 156.568C85.1112 156.737 85.0691 156.905 85.0321 157.075C84.7711 158.255 84.5682 159.476 84.6364 160.69C84.6945 161.714 84.9967 162.834 85.928 163.398C86.3953 163.682 86.9619 163.803 87.5041 163.816C87.9807 163.827 88.4598 163.662 88.8968 163.486C90.0881 163.007 91.2063 162.262 92.1813 161.431C92.5972 161.076 93.0064 160.695 93.3382 160.258C93.648 159.85 93.8198 159.381 93.92 158.878C94.1961 157.488 93.733 156.017 92.838 154.94C91.9506 153.871 90.6464 153.099 89.2302 153.151Z" fill="#D19342"/>
<path d="M93.2625 130.97C92.3514 130.46 91.2863 130.494 90.3156 130.807C89.4155 131.097 88.592 131.587 87.8301 132.161C86.8113 133.509 85.9861 135.041 85.6763 136.713C85.3252 138.611 85.7521 140.533 86.7288 142.184C87.4874 143.466 88.5196 144.828 89.9257 145.439C90.99 145.901 92.1165 145.692 92.9779 144.925C94.1331 143.896 94.6963 142.347 95.1401 140.908C95.5484 139.582 95.7598 138.193 95.7471 136.805C95.7362 135.601 95.5594 134.377 95.1055 133.256C94.7351 132.338 94.1406 131.461 93.2625 130.97Z" fill="#D19342"/>
<path d="M68.2755 94.164C67.9673 93.142 67.5194 92.1689 66.9763 91.2522C66.5301 90.4983 66.0316 89.7622 65.4296 89.1221C64.8529 88.509 64.0639 87.8513 63.1639 87.9373C62.4061 88.009 61.8125 88.617 61.3949 89.2056C60.7676 90.0893 60.3492 91.1156 60.0023 92.136C59.6688 93.1167 59.407 94.121 59.1855 95.133C60.7769 99.3038 62.4061 103.458 64.0892 107.588C66.1234 105.335 67.8259 102.731 68.4843 99.7642C68.8952 97.909 68.8236 95.9821 68.2755 94.164Z" fill="#D19342"/>
<path opacity="0.49" d="M182.652 155.531C182.711 156.143 182.76 156.757 182.786 157.374C183.103 165.099 181.099 173.305 175.694 179.033C173.947 180.885 172.068 182.623 170.093 184.229C167.79 186.1 165.31 187.862 162.56 189.01C160.381 189.92 157.747 190.499 155.556 189.304C153.425 188.141 152.89 185.692 153.099 183.443C153.364 180.596 154.476 177.849 155.658 175.275C156.558 173.314 157.597 171.429 158.583 169.514C157.886 170.087 157.204 170.679 156.559 171.311C153.093 174.711 150.506 178.957 149.241 183.657C148.157 187.681 148.18 192.513 145.008 195.607C141.945 198.595 137.466 199.981 133.316 200.465C131.149 200.718 128.946 200.724 126.783 200.429C124.774 200.156 122.746 199.642 121.001 198.578C114.025 194.324 115.99 185.1 114.627 178.294C113.724 173.785 110.673 170.041 106.857 167.604C103.103 165.205 98.3188 163.777 93.8606 164.553C86.1321 165.898 83.8159 174.465 80.1769 180.244C80.1061 180.356 79.9748 180.361 79.8788 180.283C78.221 178.941 76.8889 177.251 75.8659 175.383C74.3453 172.606 73.4705 169.522 72.9258 166.404C72.9325 167.762 72.9847 169.117 73.1119 170.463C73.3527 171.473 73.6962 172.462 74.0784 173.414C76.5623 179.596 81.1881 184.662 85.0754 189.972C86.7021 192.194 88.3996 194.36 90.1492 196.479C92.2432 197.488 94.4037 198.372 96.5835 199.15C107.543 203.066 118.369 205.853 130.038 205.34C134.095 205.161 138.137 204.65 142.124 203.888C150.048 202.373 157.876 199.889 165.081 196.216C171.266 191.591 176.519 185.896 179.998 179.136C183.672 171.994 184.695 163.344 182.652 155.531Z" fill="#D19342"/>
<path d="M115.004 291.313C114.925 290.405 114.54 289.642 114.132 288.924C113.673 288.115 113.163 287.325 112.808 286.42C112.409 285.403 112.181 284.246 112.008 283.136C111.635 280.733 111.571 278.279 111.351 275.856C110.95 271.449 110.387 267.053 110.226 262.627C110.147 260.443 110.162 258.247 110.37 256.095C110.574 253.986 111.044 252.089 111.582 250.128C112.081 248.311 112.484 246.404 112.436 244.409C112.385 242.316 111.895 240.293 111.397 238.302C110.295 233.907 110.357 229.449 110.594 224.987C112.866 214.311 113.606 203.287 113.899 192.404C114.125 184.016 113.394 172.711 106.331 166.999C103.089 164.377 98.0448 161.991 93.8341 163.406C89.9661 164.706 87.7593 168.985 86.1797 172.458C81.8857 181.898 83.1259 193.202 86.2959 202.782C88.3335 208.938 91.3831 214.679 94.1238 220.535C96.1588 224.882 98.3942 229.149 99.9098 233.683C99.9384 233.816 99.9721 233.947 99.999 234.08C100.219 235.161 100.437 236.278 100.455 237.391C100.473 238.551 100.343 239.688 100.218 240.822C100.082 242.054 99.9494 243.306 100.079 244.57C100.21 245.835 100.623 247.039 101.139 248.117C102.019 249.956 103.087 251.554 103.514 253.707C104.502 258.679 104.723 263.877 104.84 268.944C104.899 271.574 104.912 274.202 104.926 276.83C104.939 279.263 105 281.702 104.952 284.131C104.861 288.718 104.361 293.239 103.353 297.558C103.052 298.852 102.703 300.117 102.321 301.362C102.295 301.559 102.265 301.755 102.245 301.955C102.061 303.787 102.212 305.7 103.529 306.734C105.208 308.053 107.528 308.323 109.565 307.65C109.25 306.098 109.187 304.507 109.451 302.94C109.93 300.082 111.444 297.554 113.201 295.302C113.599 294.792 114.01 294.297 114.43 293.806C114.578 293.119 114.753 292.444 114.954 291.785C114.974 291.721 114.995 291.656 115.017 291.592C115.015 291.5 115.012 291.406 115.004 291.313Z" fill="#F0B23B"/>
<path d="M108.296 172.665C107.7 172.897 107.231 173.403 106.914 173.986C106.543 174.672 106.353 175.475 106.27 176.259C106.172 177.175 106.204 178.109 106.335 179.021C106.473 179.98 106.715 180.928 107.071 181.831C107.396 182.659 107.827 183.465 108.396 184.152C108.896 184.755 109.522 185.286 110.247 185.561C111.01 185.85 111.818 185.847 112.601 185.607C113.008 185.483 113.395 185.303 113.763 185.088C113.451 180.867 112.645 176.526 110.852 172.843C110.752 172.803 110.651 172.763 110.549 172.728C109.81 172.478 109.023 172.382 108.296 172.665Z" fill="#D19342"/>
<path d="M88.5635 178.682C88.5593 177.593 88.3699 176.494 88.0845 175.444C87.8445 174.563 87.5161 173.698 87.0455 172.913C86.8872 172.65 86.6598 172.313 86.3862 172.008C86.3172 172.158 86.2473 172.309 86.1799 172.456C84.2627 176.67 83.4511 181.256 83.4199 185.894C84.5945 185.536 85.6815 184.924 86.5512 184.024C87.927 182.599 88.5703 180.643 88.5635 178.682Z" fill="#D19342"/>
<path d="M94.4874 163.219C94.4554 163.317 94.4277 163.418 94.4032 163.521C94.0993 164.821 94.5262 166.221 95.4936 167.137C96.0931 167.703 96.8306 167.993 97.6053 168.234C98.4169 168.487 99.3035 168.638 100.146 168.461C101.49 168.177 102.284 167.048 102.452 165.729C102.502 165.329 102.503 164.926 102.464 164.527C99.94 163.29 97.0858 162.591 94.4874 163.219Z" fill="#D19342"/>
<path d="M97.7298 178.54C97.1792 177.963 96.4904 177.458 95.7192 177.265C95.3555 177.246 94.9884 177.262 94.6331 177.308C94.564 177.317 94.5169 177.29 94.4874 177.25C93.6277 177.449 92.9003 178.059 92.3732 178.749C91.085 180.435 90.456 183.073 91.383 185.064C91.852 186.07 92.7588 186.827 93.845 187.078C94.7939 187.297 95.747 187.002 96.4989 186.406C97.3274 185.749 97.9269 184.811 98.3184 183.837C98.7242 182.828 98.944 181.727 98.8774 180.638C98.8556 180.279 98.7966 179.915 98.6947 179.566C98.6265 179.577 98.5524 179.558 98.5019 179.487C98.2662 179.154 98.0111 178.835 97.7298 178.54Z" fill="#D19342"/>
<path d="M91.9566 199.812C92.4441 198.883 92.6276 197.841 92.5392 196.798C92.4828 196.133 92.3136 195.489 92.1065 194.858C91.8833 194.178 91.619 193.511 91.2864 192.877C90.8191 191.988 90.2028 191.112 89.3288 190.585C87.8478 189.692 86.179 190.315 84.9556 191.352C84.5616 191.687 84.2003 192.058 83.8652 192.454C84.3519 196.001 85.2099 199.491 86.2977 202.776C86.4804 203.329 86.6741 203.877 86.8728 204.424C87.9581 203.708 89.0408 202.989 90.0217 202.134C90.7837 201.471 91.4834 200.714 91.9566 199.812Z" fill="#D19342"/>
<path d="M108.652 194.718C108.558 196.459 109.313 198.116 110.321 199.494C111.215 200.716 112.3 201.751 113.455 202.713C113.67 199.273 113.807 195.831 113.9 192.403C113.919 191.686 113.927 190.941 113.929 190.188C112.846 190.2 111.769 190.443 110.834 191.005C109.508 191.802 108.736 193.182 108.652 194.718Z" fill="#D19342"/>
<path d="M108.435 207.9C107.833 207.573 107.164 207.393 106.468 207.447C105.681 207.509 104.934 207.87 104.339 208.38C103.285 209.284 102.408 210.858 102.797 212.283C102.996 213.012 103.547 213.46 104.198 213.788C104.893 214.14 105.689 214.24 106.437 214.007C107.881 213.557 108.832 212.074 109.026 210.626C109.134 209.825 109.014 208.99 108.648 208.267C108.585 208.139 108.512 208.018 108.435 207.9Z" fill="#D19342"/>
<path d="M101.164 227.583C101.697 225.81 101.441 223.758 99.9697 222.507C99.6236 222.212 99.1766 222 98.7227 222.152C98.2655 222.306 97.9313 222.732 97.6787 223.121C97.1811 223.889 96.8367 224.759 96.5605 225.646C97.3857 227.391 98.1797 229.147 98.8928 230.933C99.9907 230.126 100.792 228.823 101.164 227.583Z" fill="#D19342"/>
<path d="M102.071 236.541C102.006 236.466 101.938 236.394 101.866 236.325C101.83 236.291 101.792 236.257 101.754 236.224C101.736 236.209 101.719 236.195 101.701 236.18C101.693 236.173 101.684 236.168 101.676 236.161C101.531 236.053 101.379 235.963 101.216 235.888L101.215 235.887C101.214 235.887 101.214 235.887 101.213 235.886C101.203 235.882 101.193 235.878 101.183 235.874C101.164 235.867 101.144 235.859 101.124 235.852C101.089 235.84 101.053 235.829 101.016 235.818C100.974 235.807 100.931 235.797 100.887 235.788C100.867 235.784 100.847 235.781 100.827 235.777C100.821 235.776 100.822 235.776 100.82 235.775C100.817 235.775 100.816 235.775 100.809 235.775C100.726 235.767 100.644 235.763 100.561 235.768C100.541 235.77 100.521 235.771 100.502 235.773C100.494 235.774 100.494 235.773 100.49 235.774C100.488 235.775 100.489 235.775 100.484 235.775C100.445 235.783 100.405 235.79 100.366 235.799C100.349 235.803 100.332 235.81 100.315 235.814C100.392 236.336 100.447 236.861 100.455 237.384C100.473 238.545 100.344 239.681 100.218 240.816C100.178 241.18 100.138 241.547 100.105 241.915C100.452 241.758 100.787 241.58 101.103 241.367C101.368 241.189 101.599 241.004 101.832 240.768C101.932 240.667 102.028 240.561 102.117 240.45C102.12 240.445 102.144 240.415 102.147 240.412C102.156 240.401 102.163 240.391 102.172 240.38C102.192 240.353 102.211 240.326 102.231 240.298C102.268 240.244 102.306 240.189 102.34 240.133C102.41 240.02 102.474 239.905 102.53 239.785C102.545 239.755 102.558 239.724 102.572 239.694C102.573 239.691 102.576 239.685 102.578 239.68C102.582 239.67 102.586 239.659 102.59 239.649C102.612 239.593 102.633 239.536 102.652 239.48C102.691 239.364 102.723 239.247 102.748 239.128C102.761 239.068 102.771 239.007 102.781 238.946C102.782 238.943 102.783 238.933 102.784 238.926C102.785 238.917 102.786 238.908 102.787 238.899C102.79 238.875 102.792 238.853 102.795 238.829C102.816 238.6 102.81 238.372 102.783 238.144C102.782 238.14 102.783 238.141 102.783 238.139C102.782 238.136 102.782 238.135 102.781 238.127C102.78 238.114 102.777 238.101 102.775 238.088C102.772 238.066 102.768 238.044 102.764 238.022C102.755 237.97 102.744 237.917 102.732 237.865C102.707 237.758 102.678 237.653 102.642 237.548C102.624 237.494 102.604 237.442 102.584 237.389C102.579 237.377 102.574 237.365 102.57 237.352C102.569 237.35 102.569 237.352 102.569 237.35C102.561 237.33 102.552 237.311 102.543 237.291C102.499 237.194 102.451 237.099 102.398 237.007C102.347 236.916 102.29 236.828 102.231 236.743C102.214 236.719 102.197 236.696 102.18 236.673C102.174 236.664 102.167 236.656 102.162 236.647C102.13 236.612 102.101 236.577 102.071 236.541Z" fill="#D19342"/>
<path d="M107.662 237.849C106.629 238.497 106.309 239.757 106.363 240.92C106.431 242.353 107.002 243.764 107.827 244.925C108.679 246.125 109.9 247.119 111.352 247.457C111.626 247.522 111.9 247.556 112.172 247.569C112.354 246.54 112.463 245.486 112.437 244.405C112.387 242.313 111.897 240.289 111.398 238.299C111.339 238.065 111.288 237.831 111.236 237.598C110.028 237.289 108.706 237.193 107.662 237.849Z" fill="#D19342"/>
<path d="M106.657 274.227C106.625 273.693 106.417 273.183 106.007 272.829C105.692 272.557 105.301 272.408 104.893 272.328C104.909 273.828 104.92 275.329 104.927 276.83C104.93 277.246 104.934 277.664 104.938 278.08C105.053 277.967 105.163 277.851 105.267 277.731C106.077 276.797 106.733 275.494 106.657 274.227Z" fill="#D19342"/>
<path d="M107.439 260.402C106.778 261.244 106.648 262.407 106.703 263.442C106.773 264.78 107.182 266.068 107.94 267.176C108.669 268.245 109.656 269.059 110.748 269.732C110.518 267.366 110.315 264.998 110.228 262.622C110.19 261.571 110.175 260.518 110.192 259.467C109.169 259.355 108.116 259.538 107.439 260.402Z" fill="#D19342"/>
<path d="M102.453 249.859C102.287 249.782 102.115 249.725 101.939 249.688C102.59 250.937 103.214 252.184 103.516 253.707C103.566 253.959 103.607 254.213 103.653 254.467C103.751 254.286 103.839 254.1 103.911 253.904C104.459 252.404 103.975 250.566 102.453 249.859Z" fill="#D19342"/>
<path d="M108.794 221.549C107.794 221.702 106.818 222.122 106.482 223.157C106.267 223.816 106.3 224.543 106.4 225.221C106.501 225.9 106.763 226.528 107.135 227.103C107.949 228.362 109.179 229.337 110.454 230.1C110.438 228.399 110.503 226.694 110.593 224.988C110.843 223.813 111.068 222.632 111.283 221.45C110.449 221.427 109.614 221.424 108.794 221.549Z" fill="#D19342"/>
<path d="M101.361 190.557C99.4652 190.208 97.6811 191.531 96.3962 192.786C95.9609 193.611 95.7504 194.552 95.7008 195.48C95.6292 196.809 95.8515 198.145 96.2649 199.407C96.6581 200.608 97.2365 201.78 98.0398 202.76C98.6797 203.541 99.5107 204.271 100.526 204.478C101.539 204.686 102.49 204.206 103.198 203.485C104.419 202.241 105.045 200.466 105.244 198.761C105.451 196.984 105.25 195.093 104.514 193.451C103.913 192.111 102.876 190.835 101.361 190.557Z" fill="#D19342"/>
<path d="M98.035 172.148C97.4212 172.383 96.9396 172.873 96.7569 173.544C96.5969 174.13 96.666 174.869 97.1501 175.29C97.742 175.806 98.7423 175.516 99.2424 175.012C99.836 174.415 99.6819 173.496 99.191 172.887C98.8812 172.502 98.4762 172.255 98.035 172.148Z" fill="#D19342"/>
<path d="M102.407 303.241C102.32 303.274 102.235 303.312 102.15 303.353C101.899 303.77 101.657 304.192 101.429 304.622C100.59 306.205 99.9149 307.861 99.334 309.552C99.3896 309.628 99.4502 309.699 99.5209 309.76C100.96 311.012 110.488 310.062 110.359 306.104C110.359 306.104 104.912 302.28 102.407 303.241Z" fill="#3B2920"/>
<path opacity="0.49" d="M115.003 291.31C114.924 290.402 114.539 289.638 114.132 288.922C113.672 288.112 113.163 287.323 112.808 286.418C112.408 285.401 112.18 284.244 112.008 283.133C111.635 280.731 111.571 278.275 111.35 275.853C110.949 271.446 110.387 267.05 110.226 262.625C110.147 260.44 110.162 258.244 110.37 256.092C110.574 253.984 111.044 252.086 111.582 250.126C112.081 248.309 112.483 246.401 112.435 244.406C112.385 242.314 111.895 240.29 111.396 238.3C110.294 233.905 110.357 229.446 110.593 224.985C112.866 214.309 113.606 203.285 113.899 192.401C114.118 184.271 113.437 173.402 106.963 167.539C108.849 170.424 110.351 173.55 111.413 176.855C114.313 185.879 114 195.567 112.958 204.874C111.881 214.497 109.926 224.012 109.19 233.674C109.179 233.816 109.037 233.912 108.905 233.838C107.254 232.908 105.491 232.227 103.669 231.724C104.848 233.373 105.856 235.139 106.557 237.048C108.936 243.53 107.054 250.443 106.466 257.083C107.143 256.355 107.995 255.789 108.614 255C108.73 254.853 108.92 254.996 108.939 255.134C109.728 261.043 109.459 266.994 109.512 272.936C109.536 275.52 109.63 278.107 109.919 280.678C110.074 282.056 110.286 283.427 110.567 284.785C110.836 286.087 111.264 287.357 111.503 288.664C112.243 292.714 110.143 296.269 109.113 300.045C108.86 300.971 108.677 302.64 107.688 303.1C106.711 303.554 105.405 303.398 104.372 303.301C103.641 303.232 102.908 303.133 102.183 303C102.162 304.48 102.463 305.894 103.529 306.732C105.209 308.05 107.528 308.32 109.565 307.647C109.25 306.096 109.188 304.504 109.451 302.938C109.93 300.08 111.444 297.553 113.201 295.3C113.598 294.791 114.01 294.295 114.429 293.804C114.577 293.118 114.752 292.442 114.954 291.784C114.974 291.72 114.995 291.656 115.017 291.591C115.014 291.496 115.012 291.403 115.003 291.31Z" fill="#D19342"/>
<path d="M95.1931 219.651C93.7171 215.808 91.9969 212.066 90.3879 208.279C88.869 204.704 87.4141 201.071 86.4845 197.29C86.0989 195.719 85.9558 194.108 85.8901 192.495C85.8042 190.38 85.8573 188.26 85.997 186.149C86.1562 183.745 86.434 181.347 86.8441 178.972C87.2541 176.597 87.7963 174.238 88.5541 171.949C89.2243 169.925 90.0612 167.923 91.2366 166.136C91.8605 165.189 92.5973 164.285 93.4679 163.547C89.828 164.988 87.7079 169.094 86.1797 172.454C81.8857 181.895 83.1259 193.198 86.2959 202.779C88.3335 208.934 91.3831 214.675 94.1238 220.531C95.3724 223.198 96.6951 225.836 97.8823 228.524C97.2837 225.49 96.2994 222.53 95.1931 219.651Z" fill="#F0B23B"/>
<path d="M180.112 297.462C179.587 293.99 179.343 290.685 179.458 287.395C179.14 285.947 178.973 284.45 179.161 283.005C179.746 278.542 181.061 274.183 181.987 269.784C182.491 267.39 183.001 264.996 183.614 262.626C184.201 260.358 184.822 258.015 185.775 255.868C186.51 254.213 187.733 253.019 188.951 251.725C190.386 250.2 191.555 248.378 191.26 246.195C190.695 242.022 186.69 239.811 184.297 236.774C182.405 234.373 181.516 231.618 181.265 228.595C180.908 224.315 181.116 219.939 181.388 215.661C181.699 210.785 182.256 205.926 182.926 201.087C183.382 197.787 183.895 194.497 184.423 191.208C184.438 189.614 184.449 188.019 184.468 186.426C184.546 179.976 184.778 173.497 184.239 167.06C183.909 163.138 182.574 159.004 179.72 156.181C173.215 149.747 163.795 156.007 159.35 161.752C153.801 168.92 150.666 178.533 150.308 187.544C150.268 188.535 150.252 189.54 150.257 190.553C150.332 190.998 150.41 191.441 150.491 191.88C152.014 200.083 154.727 208.122 158.289 215.658C160.497 220.329 163.371 224.622 166.312 228.853C169.247 233.077 172.53 237.287 174.594 242.03C178.618 251.279 177.387 261.524 175.112 271.052C173.822 276.446 172.461 281.814 171.317 287.243C171.282 287.407 171.249 287.571 171.215 287.735C171.138 288.481 171.061 289.227 170.985 289.973C170.732 292.455 168.547 301.957 170.09 304.001C170.221 304.175 170.373 304.337 170.552 304.478C173.997 307.201 180.673 305.119 180.157 299.054C180.111 298.52 180.1 297.989 180.112 297.462Z" fill="#F0B23B"/>
<path d="M152.833 180.613C153.427 180.859 154.176 180.848 154.787 180.674C155.713 180.408 156.53 179.834 157.236 179.192C158.858 177.718 160.09 175.788 161.026 173.818C161.459 172.908 161.805 171.964 162.08 170.995C162.342 170.074 162.544 169.126 162.593 168.166C162.65 167.027 162.504 165.679 161.579 164.889C160.818 164.24 159.737 164.252 158.822 164.505C158.113 164.701 157.448 165.036 156.835 165.448C154.403 169.483 152.616 174.025 151.529 178.673C151.678 179.488 152.03 180.281 152.833 180.613Z" fill="#D19342"/>
<path d="M167.058 157.634C166.929 158.62 167.56 159.458 168.27 160.065C168.851 160.56 169.522 160.949 170.203 161.288C170.956 161.663 171.74 162 172.55 162.228C173.595 162.522 174.739 162.64 175.78 162.266C177.584 161.62 178.262 159.651 178.237 157.88C178.22 156.723 177.945 155.578 177.48 154.515C175.581 153.49 173.536 153.275 171.494 153.624C170.44 154.084 169.401 154.647 168.523 155.396C167.851 155.97 167.177 156.722 167.058 157.634Z" fill="#D19342"/>
<path d="M180.334 164.845C178.919 165.564 177.832 166.782 177.046 168.142C176.168 169.664 175.634 171.374 175.355 173.103C175.072 174.859 175.053 176.679 175.347 178.434C175.648 180.237 176.312 182.03 177.469 183.465C178.285 184.478 179.413 185.262 180.761 185.17C182.032 185.084 183.16 184.288 184.029 183.41C184.2 183.238 184.363 183.056 184.52 182.873C184.604 177.6 184.679 172.317 184.238 167.062C184.159 166.118 184.02 165.161 183.816 164.214C182.624 164.113 181.422 164.293 180.334 164.845Z" fill="#D19342"/>
<path d="M170.104 175.04C169.91 174.886 169.694 174.783 169.469 174.71C169.416 174.695 169.365 174.676 169.311 174.663C169.302 174.66 169.292 174.66 169.283 174.658C169.155 174.631 169.026 174.611 168.895 174.604C168.878 174.603 168.859 174.604 168.841 174.604C168.735 174.599 168.63 174.603 168.525 174.607C167.876 174.66 167.243 174.897 166.65 175.149C166.478 175.223 166.307 175.3 166.137 175.378C165.778 175.583 165.434 175.809 165.116 176.043C163.859 176.965 162.753 178.147 161.916 179.464C161.165 180.646 160.661 181.964 160.821 183.387C160.999 184.98 161.937 186.48 163.226 187.414C164.557 188.378 166.25 188.711 167.802 188.102C169.073 187.604 169.796 186.438 170.336 185.238C170.966 183.838 171.355 182.305 171.542 180.782C171.694 179.537 171.787 178.119 171.34 176.92C171.084 176.235 170.688 175.501 170.104 175.04Z" fill="#D19342"/>
<path d="M158.429 206.021C159.018 204.816 159.451 203.535 159.746 202.228C160.032 200.963 160.188 199.661 160.143 198.365C160.105 197.281 159.929 196.155 159.423 195.185C159.027 194.425 158.522 193.689 157.919 193.079C157.448 192.602 156.883 192.188 156.227 192.02C155.057 191.72 153.98 192.37 153.221 193.216C152.389 194.143 151.833 195.315 151.48 196.513C152.556 200.969 153.97 205.358 155.666 209.622C155.919 209.437 156.157 209.233 156.376 209.016C157.24 208.158 157.897 207.108 158.429 206.021Z" fill="#D19342"/>
<path d="M179.114 191.452C178.619 191.56 178.182 191.759 177.79 192.085C176.919 192.809 176.357 193.87 175.939 194.903C175.488 196.016 175.176 197.185 174.956 198.364C174.752 199.452 174.595 200.578 174.687 201.685C174.787 202.877 175.166 204.039 175.772 205.069C176.943 207.058 178.955 208.532 181.234 208.947C181.472 208.991 181.713 209.018 181.954 209.037C182.231 206.382 182.561 203.733 182.927 201.09C183.261 198.678 183.629 196.271 184.007 193.866C182.854 193.235 181.887 192.3 180.702 191.718C180.193 191.467 179.675 191.329 179.114 191.452Z" fill="#D19342"/>
<path d="M181.568 213.271C180.492 213.155 179.41 213.067 178.326 213.07C177.27 213.074 176.197 213.159 175.185 213.481C174.32 213.758 173.508 214.239 172.961 214.98C172.309 215.862 172.082 216.974 172.053 218.052C171.985 220.552 172.692 223.271 174.641 224.96C176.219 226.328 178.398 226.768 180.419 226.353C180.659 226.303 180.896 226.241 181.128 226.17C180.997 222.673 181.17 219.136 181.391 215.664C181.44 214.867 181.504 214.069 181.568 213.271Z" fill="#D19342"/>
<path d="M180.239 233.812C180.502 234.67 181.069 235.426 181.711 236.039C182.698 236.983 183.936 237.617 185.248 237.867C184.913 237.512 184.593 237.15 184.297 236.775C182.994 235.121 182.167 233.298 181.695 231.336C181.242 231.423 180.822 231.597 180.509 231.93C180.031 232.438 180.047 233.182 180.239 233.812Z" fill="#D19342"/>
<path d="M180.638 250.304C181.342 249.422 181.864 248.395 182.082 247.283C182.324 246.043 182.164 244.765 181.78 243.571C181.526 242.782 181.169 242.026 180.813 241.279C180.482 240.585 180.122 239.903 179.705 239.257C179.215 238.5 178.575 237.609 177.693 237.283C176.188 236.725 175.12 238.564 174.567 239.663C174.375 240.044 174.202 240.436 174.039 240.831C174.231 241.227 174.419 241.626 174.594 242.029C176.173 245.658 176.94 249.44 177.155 253.271C178.463 252.457 179.682 251.501 180.638 250.304Z" fill="#D19342"/>
<path d="M173.274 283.691C174.413 282.623 175.323 281.288 176.07 279.924C176.353 279.407 176.627 278.873 176.813 278.312C177.019 277.689 177.039 277.017 176.997 276.367C176.947 275.566 176.786 274.769 176.534 274.009C176.31 273.337 176.007 272.649 175.534 272.113C175.373 271.931 175.182 271.764 174.968 271.648C173.929 275.985 172.857 280.307 171.887 284.658C172.409 284.446 172.873 284.068 173.274 283.691Z" fill="#D19342"/>
<path d="M185.735 255.787C184.946 255.645 184.181 256.045 183.582 256.523C182.81 257.138 182.125 257.909 181.579 258.729C180.593 260.213 180.062 261.957 180.045 263.739C180.024 265.927 180.742 268.068 181.973 269.858C181.978 269.835 181.984 269.813 181.989 269.79C182.492 267.396 183.002 265.002 183.615 262.633C184.202 260.364 184.824 258.021 185.777 255.875C185.787 255.851 185.799 255.83 185.81 255.806C185.784 255.8 185.76 255.791 185.735 255.787Z" fill="#D19342"/>
<path d="M166.544 219.767C166.039 218.677 165.476 217.565 164.707 216.637C164.166 215.983 163.475 215.353 162.616 215.187C161.089 214.892 159.966 216.358 159.401 217.575C159.376 217.629 159.356 217.686 159.332 217.742C161.367 221.62 163.814 225.263 166.312 228.859C166.339 228.897 166.367 228.936 166.394 228.975C167.113 227.988 167.62 226.863 167.765 225.602C167.998 223.588 167.38 221.576 166.544 219.767Z" fill="#D19342"/>
<path d="M167.84 197.102C166.685 197.373 165.691 198.154 164.903 199.012C164.007 199.987 163.289 201.16 162.854 202.413C162.494 203.451 162.264 204.694 162.704 205.746C163.143 206.798 164.23 207.248 165.308 207.304C166.242 207.354 167.152 207.078 167.845 206.437C168.521 205.81 168.938 204.952 169.184 204.075C169.694 202.256 169.619 200.074 168.785 198.36C168.56 197.897 168.251 197.429 167.84 197.102Z" fill="#D19342"/>
<path d="M169.739 300.281C169.643 300.316 169.548 300.355 169.453 300.398C169.17 300.85 168.893 301.306 168.632 301.773C167.675 303.488 166.895 305.288 166.217 307.129C166.276 307.214 166.341 307.293 166.417 307.362C167.966 308.77 178.437 307.956 178.391 303.612C178.391 303.612 172.51 299.288 169.739 300.281Z" fill="#3B2920"/>
<path opacity="0.49" d="M191.259 246.199C190.694 242.026 186.689 239.815 184.296 236.778C182.404 234.376 181.516 231.622 181.264 228.599C180.907 224.319 181.115 219.943 181.388 215.664C181.698 210.787 182.256 205.929 182.925 201.09C183.382 197.79 183.894 194.5 184.422 191.211C184.437 189.617 184.448 188.022 184.467 186.429C184.544 179.979 184.777 173.5 184.237 167.063C183.908 163.141 182.572 159.007 179.718 156.184C178.491 154.97 177.161 154.211 175.78 153.812C177.052 155.152 177.773 156.979 178.177 158.772C178.749 161.311 178.801 163.944 178.788 166.536C178.71 182.152 177.129 197.713 176.942 213.327C176.896 217.199 176.935 221.078 177.026 224.948C177.101 228.123 177.49 231.314 179.174 234.077C180.724 236.62 182.921 238.691 184.601 241.141C185.403 242.312 186.08 243.591 186.396 244.983C186.711 246.366 186.55 247.777 186.279 249.155C185.635 252.418 184.258 255.485 183.12 258.594C181.905 261.916 181.248 265.379 180.562 268.844C179.774 272.828 179.091 276.835 178.571 280.864C178.342 282.641 178.179 284.344 178.331 286.134C178.474 287.82 178.753 289.49 178.975 291.166C179.331 293.842 180.203 301.819 175.312 300.82C173.598 300.47 171.51 299.055 169.669 298.841C169.45 301.143 169.465 303.181 170.088 304.005C170.22 304.179 170.371 304.34 170.551 304.482C173.995 307.205 180.671 305.123 180.155 299.058C180.109 298.524 180.099 297.993 180.11 297.466C179.586 293.994 179.342 290.689 179.456 287.399C179.138 285.951 178.971 284.453 179.16 283.01C179.744 278.547 181.059 274.187 181.985 269.789C182.489 267.395 182.999 265.001 183.612 262.631C184.199 260.363 184.82 258.019 185.773 255.873C186.508 254.218 187.731 253.024 188.949 251.729C190.385 250.204 191.554 248.381 191.259 246.199Z" fill="#D19342"/>
<path d="M158.704 215.488C156.24 209.363 154.237 202.985 153.353 196.425C153.149 194.905 153.006 193.377 152.942 191.846C152.872 190.174 152.983 188.476 153.113 186.809C153.378 183.431 153.919 180.067 154.791 176.792C156.217 171.437 158.593 166.265 161.682 161.667C163.193 159.419 164.894 157.269 166.884 155.424C167.01 155.307 167.141 155.193 167.27 155.078C164.125 156.687 161.272 159.266 159.35 161.749C153.801 168.918 150.666 178.53 150.308 187.542C150.268 188.533 150.252 189.538 150.257 190.55C150.332 190.996 150.41 191.438 150.491 191.878C152.014 200.079 154.727 208.12 158.29 215.656C159.05 217.263 159.893 218.824 160.786 220.354C160.06 218.745 159.362 217.125 158.704 215.488Z" fill="#F0B23B"/>
<path d="M46.6109 8.59078C46.8315 8.16577 47.3527 7.97772 47.7838 7.85292C47.8781 7.82593 47.9749 7.80148 48.0717 7.77702C47.708 7.37056 47.3906 6.92616 47.0344 6.5138C46.978 6.44886 46.9586 6.35104 47.0546 6.3131C47.591 6.10481 48.2351 6.09722 48.7992 6.15709C48.8463 6.16215 48.896 6.1689 48.9457 6.17564C48.8253 5.83412 48.7125 5.48922 48.5912 5.14769C48.5634 5.06927 48.6156 5.0094 48.6923 5.00265C49.1991 4.9588 49.7456 5.09288 50.2263 5.23877C50.5539 5.33827 50.8949 5.46139 51.2055 5.63257C51.2645 5.33659 51.3462 5.04566 51.475 4.77159C51.5112 4.69485 51.6434 4.73196 51.6905 4.76738C52.1528 5.11227 52.6175 5.46561 53.0124 5.88809C53.26 6.15288 53.4932 6.45477 53.6481 6.7887C54.4244 6.27599 55.5855 6.52223 56.3879 6.83255C56.4645 6.86207 56.5176 6.94049 56.5083 7.02229C56.4797 7.266 56.3416 7.49621 56.2069 7.69522C56.073 7.89255 55.9181 8.07301 55.7547 8.24757C56.1016 8.3125 56.4805 8.42634 56.7221 8.67848C57.0606 9.03097 56.7533 9.43827 56.4755 9.71571C56.1008 10.0901 55.652 10.3886 55.2074 10.6737C55.082 10.7546 54.9532 10.8297 54.8235 10.903C54.8429 10.9148 54.8631 10.925 54.8816 10.9368C55.151 11.1029 55.5265 11.3668 55.5653 11.7117C55.5779 11.8222 55.5451 11.942 55.4499 12.0077C55.3481 12.0777 55.2116 12.0718 55.0955 12.0566C54.8471 12.0254 54.6029 11.9259 54.3714 11.8214C54.3596 11.9167 54.3469 12.0128 54.3352 12.1064C54.2947 12.4311 54.2442 12.754 54.1945 13.077C54.0076 13.6327 53.894 14.2104 53.8115 14.7905C53.7264 15.3859 53.6692 15.9838 53.5934 16.58C53.5126 17.2141 53.3989 17.844 53.3063 18.4765C53.1842 19.3172 53.0663 20.1588 52.9459 20.9996C52.1696 20.8149 51.4101 20.5433 50.6987 20.2001C49.6689 19.7026 48.6022 18.9926 48.1029 17.9216C47.9959 17.6922 47.9336 17.4612 47.9016 17.2276C48.1121 15.8623 48.3226 14.4971 48.5331 13.1318C48.6409 12.6764 48.7605 12.2228 48.8505 11.7632C48.891 11.5566 48.9272 11.3474 48.9524 11.1375C48.9221 11.14 48.891 11.1442 48.8606 11.1459C48.5112 11.1628 48.1265 11.1569 47.788 11.0565C47.7013 11.0304 47.5741 10.9283 47.6415 10.8246C47.8099 10.5666 48.0423 10.3515 48.2932 10.1753C48.3706 10.1213 48.454 10.0682 48.5407 10.021C48.4413 9.97038 48.342 9.92062 48.2435 9.8675C47.9656 9.71824 47.7139 9.54621 47.4689 9.34804C47.2297 9.15577 46.9932 8.94833 46.7161 8.81172C46.637 8.77208 46.5629 8.68438 46.6109 8.59078Z" fill="#FBB04E"/>
<path d="M46.7182 8.81003C46.9953 8.94664 47.2318 9.15409 47.471 9.34635C47.7168 9.54452 47.9677 9.71571 48.2456 9.86581C48.2751 9.88183 48.3045 9.89617 48.334 9.91135C48.1715 10.0429 48.0056 10.1694 47.849 10.3068C47.5467 10.5733 47.1165 11.0599 47.4769 11.4537C47.6486 11.6409 47.9172 11.7219 48.1572 11.7733C48.3508 11.8146 48.5403 11.834 48.7373 11.8129C49.1886 11.764 49.6668 11.6156 50.044 11.3584C50.1173 11.3087 50.188 11.253 50.2545 11.1923C50.3589 11.4141 50.4751 11.6299 50.5947 11.845C50.7269 12.0836 50.9593 12.5871 51.3146 12.4833C51.4838 12.4336 51.5832 12.2523 51.6581 12.1055C51.7482 11.9276 51.8155 11.7404 51.8543 11.5448C51.8627 11.5001 51.8703 11.4545 51.8762 11.4098C51.9562 11.5178 52.0361 11.6257 52.1178 11.7328C52.3729 12.2135 52.6912 12.668 53.1518 12.9707C53.2141 13.0121 53.289 13.023 53.3437 12.9674C53.4768 12.8308 53.5096 12.5989 53.5315 12.4184C53.5458 12.2995 53.5525 12.1798 53.5542 12.06C53.726 12.2185 53.9146 12.3585 54.1192 12.4715C54.4501 12.6545 56.0204 13.4472 56.0566 12.6351C56.0658 12.4327 55.9757 12.227 55.8899 12.049C55.7964 11.8543 55.6853 11.6687 55.564 11.49C55.4478 11.3188 55.3106 11.1661 55.1582 11.027C55.1826 11.0236 55.2079 11.0211 55.2314 11.0169C55.7711 10.9267 56.2763 10.6964 56.7116 10.3659C56.9137 10.2124 57.1267 10.0716 57.3263 9.91472C57.4812 9.79329 57.6479 9.64319 57.6403 9.42984C57.6268 9.00904 57.0956 8.71559 56.7815 8.53344C56.5811 8.41707 56.3883 8.30491 56.161 8.24925C56.0507 8.22227 55.9269 8.20962 55.8023 8.1936C55.948 8.03591 56.0869 7.87231 56.2073 7.69522C56.342 7.49621 56.4801 7.26515 56.5087 7.02229C56.518 6.94049 56.4649 6.86207 56.3883 6.83255C55.5859 6.52223 54.4248 6.27599 53.6485 6.7887C53.4928 6.45477 53.2604 6.15287 53.0128 5.88809C52.6179 5.46561 52.1532 5.11227 51.6909 4.76738C51.6438 4.73196 51.5108 4.69485 51.4754 4.77159C51.3466 5.04566 51.2641 5.33659 51.206 5.63257C50.8953 5.46223 50.5543 5.33827 50.2267 5.23877C49.746 5.09288 49.1995 4.9588 48.6927 5.00265C48.6152 5.0094 48.5638 5.06927 48.5916 5.14769C48.7129 5.48922 48.8257 5.83327 48.9461 6.17564C48.8964 6.1689 48.8459 6.16215 48.7996 6.15709C48.2355 6.09638 47.5914 6.10481 47.055 6.3131C46.959 6.3502 46.9784 6.44886 47.0348 6.5138C47.3918 6.92616 47.7092 7.37056 48.0721 7.77702C47.9753 7.80063 47.8785 7.82509 47.7842 7.85292C47.3531 7.97772 46.8319 8.16493 46.6113 8.59078C46.5625 8.68185 46.6366 8.76955 46.7182 8.81003Z" fill="#6C412C"/>
<path d="M28.7198 27.7718C28.2601 28.0687 27.7902 28.3411 27.3154 28.6033C26.5871 29.1219 25.8453 29.622 25.0858 30.0942C23.4482 31.1137 21.7255 32.0523 19.9237 32.748C18.297 33.3754 16.6055 33.8148 14.9283 34.2802C13.2047 34.7592 11.4728 35.2542 9.836 35.987C8.4257 36.6178 7.02297 37.4197 5.98314 38.5843C4.97951 39.7076 4.22341 41.0745 3.70055 42.4836C3.16842 43.918 2.84426 45.4823 3.01771 47.0154C3.09601 47.7068 3.28546 48.4354 3.65087 49.0342C3.98682 49.584 4.50632 50.0326 5.03844 50.3851C6.23741 51.1786 7.65614 51.6019 9.05044 51.8962C10.4237 52.1863 11.8231 52.3381 13.2224 52.4326C14.1107 52.4924 14.9965 52.5278 15.8864 52.4848C16.9397 52.4342 17.9871 52.3078 19.0346 52.188C20.1114 52.0649 21.1866 51.9536 22.2711 51.9443C23.3295 51.935 24.3878 51.9848 25.442 52.0759C27.5797 52.2614 29.7007 52.6164 31.8022 53.0456C35.5246 53.8046 39.2402 54.5947 43.0215 55.0012C45.7689 55.2963 48.5558 55.3975 51.3099 55.1361C53.7104 54.6149 56.0654 53.7675 58.3471 52.4663C65.1444 48.5898 68.0744 41.3823 66.5075 33.8586C65.7262 30.1043 64.2317 26.0845 62.1284 23.1018C59.4484 19.3012 56.238 18.6232 52.0289 17.715C51.299 17.5573 50.5555 17.4637 49.8103 17.4223C46.7835 17.2545 43.7279 17.9806 40.9991 19.2742C37.9798 20.7052 35.3663 22.8083 32.7436 24.8482C31.4351 25.866 30.1132 26.8712 28.7198 27.7718Z" fill="#FEC34E"/>
<path d="M45.2277 33.15C44.048 33.2925 42.7817 33.6492 41.832 34.3922C41.118 34.9512 40.4646 35.5947 39.85 36.26C39.2101 36.9532 38.5828 37.6927 38.1298 38.525C38.0322 38.7055 37.8966 38.9694 37.8301 39.2275C38.3942 38.6988 38.9827 38.1979 39.5991 37.7298C42.5578 35.4842 46.1984 33.9427 49.9444 33.9714C48.4726 33.2858 46.8594 32.9527 45.2277 33.15Z" fill="#B67E5C"/>
<path d="M51.7604 39.1327C50.9529 38.4074 49.9232 37.9942 48.8345 38.0339C47.8158 38.0718 46.8399 38.48 46.0106 39.0584C45.1686 39.6462 44.4504 40.433 43.9536 41.3336C43.5234 42.1136 43.2337 43.0438 43.3802 43.941C43.7305 46.0821 46.4425 46.8992 48.2957 46.4126C50.3147 45.8822 51.9178 44.0152 52.3666 42.004C52.5561 41.1523 52.5199 40.2205 52.0846 39.4497C51.9802 39.3401 51.8732 39.2338 51.7604 39.1327Z" fill="#D19342"/>
<path d="M38.5708 52.3762C38.5397 50.86 38.2037 49.2072 37.2186 48.008C36.2866 46.8747 34.6093 46.2068 33.1729 46.6908C31.8275 47.1437 31.2633 48.6346 31.1042 49.9299C30.9838 50.9114 31.0335 51.9563 31.2701 52.9412C31.4477 52.9766 31.6254 53.0087 31.8031 53.0441C34.0149 53.4952 36.2242 53.9557 38.4462 54.341C38.5464 53.685 38.5843 53.0196 38.5708 52.3762Z" fill="#D19342"/>
<path d="M29.4202 37.3816C29.235 37.3108 29.0396 37.2425 28.8384 37.18C28.6498 37.1514 28.4612 37.1244 28.2701 37.1117C26.4304 36.9853 23.278 37.4836 23.4607 39.9536C23.6039 41.8931 25.9984 42.5745 27.5999 42.6428C28.4705 42.6799 29.4135 42.593 30.2058 42.2026C30.9374 41.8417 31.8333 41.2834 32.0926 40.4536C32.293 39.8102 31.9849 39.1887 31.5487 38.7232C30.9728 38.1077 30.199 37.6801 29.4202 37.3816Z" fill="#D19342"/>
<path d="M26.0086 36.8828C25.5169 36.9536 25.0479 37.108 24.6328 37.3728C24.9401 37.21 25.2668 37.0793 25.5943 36.9865C25.7307 36.9477 25.8688 36.914 26.0086 36.8828Z" fill="#D19342"/>
<path d="M39.819 20.5237C40.2686 21.2025 40.991 21.6435 41.8061 21.6756C42.5478 21.7051 43.1894 21.372 43.7359 20.8888C44.3623 20.3356 44.8582 19.6433 45.2741 18.9214C45.5015 18.5268 45.7052 18.1169 45.8812 17.6953C44.193 18.0048 42.5436 18.5462 41.0003 19.2773C40.5111 19.5092 40.0362 19.7639 39.5664 20.0278C39.6329 20.199 39.7146 20.366 39.819 20.5237Z" fill="#D19342"/>
<path d="M27.3676 32.0823C30.5182 32.385 31.2617 28.3027 31.8418 26.0124C31.8906 25.8184 31.9428 25.6236 31.9967 25.4297C30.9308 26.2485 29.8488 27.0479 28.7198 27.7774C28.26 28.0742 27.7902 28.3466 27.3154 28.6088C26.587 29.1274 25.8453 29.6275 25.0858 30.0997C24.9031 30.2136 24.7195 30.3257 24.5352 30.4371C25.255 31.3056 26.2393 31.9735 27.3676 32.0823Z" fill="#D19342"/>
<path d="M51.4287 18.7108C50.1817 19.8644 49.0072 21.2263 48.2132 22.7374C47.7787 23.5655 47.5102 24.5699 47.4874 25.5059C47.4697 26.2632 47.6659 26.996 48.1265 27.604C48.5643 28.1816 49.1739 28.6083 49.7869 28.9794C50.495 29.4077 51.2376 29.7754 51.9583 30.1819C52.7228 30.6136 53.4865 31.0901 54.1399 31.6821C54.7856 32.2673 55.2538 33.0068 55.5889 33.8071C56.2439 35.3705 56.3938 37.1085 57.1373 38.6382C57.9304 40.2708 59.5419 41.4767 61.369 41.6411C63.1574 41.8022 64.9693 41.2642 66.6701 40.7785C67.0481 38.5674 67.001 36.2315 66.5084 33.8636C65.7271 30.1093 64.2326 26.0895 62.1293 23.1068C59.5478 19.447 56.4721 18.6821 52.4896 17.8203C52.12 18.0969 51.7672 18.398 51.4287 18.7108Z" fill="#D19342"/>
<path d="M23.4515 48.2385C23.1754 46.2011 22.6786 44.1916 22.0252 42.2437C21.4662 40.5765 20.7943 38.9827 19.821 37.5137C18.9445 36.1889 17.7733 34.8279 16.3933 33.875C15.9049 34.0116 15.4158 34.1457 14.9283 34.2815C13.2047 34.7604 11.4728 35.2554 9.836 35.9882C8.4257 36.619 7.02297 37.421 5.98314 38.5855C4.97951 39.7088 4.22341 41.0757 3.70055 42.4848C3.16842 43.9192 2.84426 45.4835 3.01771 47.0166C3.09601 47.7081 3.28546 48.4367 3.65087 49.0354C3.98682 49.5852 4.50632 50.0338 5.03844 50.3863C6.23741 51.1798 7.65614 51.6032 9.05044 51.8975C10.4237 52.1875 11.8231 52.3393 13.2224 52.4338C14.1107 52.4937 14.9965 52.5291 15.8864 52.4861C16.9397 52.4355 17.9871 52.309 19.0346 52.1892C20.1114 52.0661 21.1866 51.9548 22.2711 51.9455C22.7367 51.9413 23.2023 51.9506 23.6679 51.9683C23.7041 50.7202 23.6183 49.4671 23.4515 48.2385Z" fill="#FDC792"/>
<path d="M3.91273 45.0383C4.2411 43.4124 4.90541 41.8321 5.88294 40.4905C6.91604 39.0729 8.31961 37.9607 9.83853 37.1031C12.0824 35.8373 14.5536 35.1205 16.9928 34.3278C16.7974 34.1693 16.5987 34.0167 16.3933 33.875C15.9049 34.0116 15.4166 34.1482 14.9283 34.2815C13.6409 34.6323 11.6513 35.2032 9.836 35.9882C8.41728 36.6013 7.02297 37.421 5.98314 38.5855C4.97951 39.7088 4.22341 41.0757 3.70055 42.4848C3.16842 43.9192 2.84426 45.4835 3.01771 47.0166C3.09601 47.7081 3.28546 48.4367 3.65087 49.0354C3.72581 49.1577 3.81169 49.2732 3.90262 49.3853C3.59362 47.9594 3.62561 46.4651 3.91273 45.0383Z" fill="#8D92A6"/>
<path d="M44.731 30.7371C44.731 33.3622 42.6067 35.4898 39.9856 35.4898C37.3654 35.4898 35.2402 33.3622 35.2402 30.7371C35.2402 28.112 37.3645 25.9844 39.9856 25.9844C42.6067 25.9844 44.731 28.112 44.731 30.7371Z" fill="white"/>
<path d="M43.5291 30.7368C43.5291 32.6975 41.9429 34.2862 39.9853 34.2862C38.0277 34.2862 36.4414 32.6975 36.4414 30.7368C36.4414 28.7762 38.0277 27.1875 39.9853 27.1875C41.9429 27.1875 43.5291 28.7762 43.5291 30.7368Z" fill="#62493E"/>
<path d="M42.2691 30.7401C42.2691 32.0033 41.247 33.027 39.9857 33.027C38.7253 33.027 37.7031 32.0033 37.7031 30.7401C37.7031 29.4769 38.7253 28.4531 39.9857 28.4531C41.247 28.4531 42.2691 29.4769 42.2691 30.7401Z" fill="#312017"/>
<path d="M39.37 29.2888C39.37 29.7501 38.997 30.1245 38.5356 30.1245C38.0742 30.1245 37.7012 29.7509 37.7012 29.2888C37.7012 28.8275 38.075 28.4531 38.5356 28.4531C38.9961 28.4531 39.37 28.8275 39.37 29.2888Z" fill="white"/>
<path d="M8.31183 42.8961C8.31183 42.8961 7.69551 41.0679 9.03172 40.4556C10.3679 39.8426 8.83975 44.3929 8.31183 42.8961Z" fill="#6C412C"/>
<path opacity="0.33" d="M6.32634 42.2735C6.51326 41.485 6.80205 40.7075 7.16663 39.984C7.54215 39.2402 8.0448 38.4526 8.79921 38.047C9.43322 37.7063 10.3451 37.6439 10.862 38.2258C11.3521 38.7781 11.4085 39.6265 11.3672 40.3289C11.3218 41.1005 11.1618 41.9176 10.7433 42.5796C10.7214 42.6142 10.6532 42.567 10.6734 42.5307C10.8174 42.2862 10.8848 41.9944 10.9437 41.7195C11.0212 41.3552 11.0793 40.9875 11.1062 40.6156C11.1559 39.936 11.1534 39.1264 10.7863 38.5252C10.644 38.2916 10.436 38.1271 10.164 38.0791C9.802 38.015 9.41638 38.0799 9.08801 38.2427C8.37738 38.5943 7.89662 39.3018 7.53204 39.9815C7.12369 40.7438 6.85931 41.5643 6.51494 42.3545C6.47031 42.4573 6.3036 42.3688 6.32634 42.2735Z" fill="#6C412C"/>
<path d="M50.3494 27.9087C50.2374 28.3059 50.5329 28.5353 50.911 28.4704C51.2073 28.4198 51.4785 28.311 51.7327 28.1668C51.4759 28.5589 51.2334 28.9603 50.991 29.3592C50.98 29.3769 50.9733 29.3971 50.964 29.4157C53.8857 28.9865 56.83 28.5108 59.7879 28.5918C62.4957 28.6652 65.2405 28.7655 67.9096 28.214C70.3058 27.719 72.6457 26.8176 74.647 25.3924C75.6043 24.7111 76.5204 23.9032 77.226 22.957C77.9265 22.0176 78.4224 20.9475 78.7272 19.8175C79.0236 18.7204 79.1465 17.5938 79.1802 16.4596C78.4847 14.7874 76.8614 13.8952 75.1573 13.4373C70.5062 12.1876 65.4207 13.4896 61.146 15.4258C59.6751 16.0919 58.2589 16.8728 56.9353 17.7895C55.9906 18.4852 55.0872 19.2357 54.2427 20.0503C53.463 20.8025 52.7381 21.6146 52.0897 22.4806C51.955 22.6686 51.8186 22.8559 51.6923 23.0498L51.6915 23.0515C51.6696 23.0759 51.6494 23.1012 51.6275 23.1249C50.7342 24.4361 50.0244 25.8647 49.5781 27.4003C49.7221 27.4357 49.8939 27.4197 50.0075 27.3716C50.2626 27.2645 50.4984 27.1287 50.7266 26.982C50.5742 27.2805 50.4403 27.5858 50.3494 27.9087Z" fill="#FBB04E"/>
<path d="M65.882 27.265C67.7832 27.0128 69.6903 26.6266 71.4778 25.9157C73.1129 25.2656 74.6891 24.2916 75.7356 22.8454C76.2711 22.1058 76.6534 21.2701 76.8757 20.3856C77.0979 19.5001 77.2285 18.5236 76.9422 17.6382C76.437 16.0756 74.7286 15.5148 73.2493 15.3647C71.5603 15.1927 69.8132 15.4035 68.1756 15.831C65.5663 16.5116 63.1928 17.8692 61.1131 19.5684C59.0528 21.2524 57.2872 23.2434 55.6049 25.2976C54.5794 26.549 53.4739 27.9076 52.1191 28.8562C52.157 28.8444 52.1932 28.8284 52.2311 28.8166C54.9052 27.9615 57.6997 27.8696 60.4783 27.7136C62.2834 27.6124 64.0895 27.5028 65.882 27.265Z" fill="#6C412C"/>
<path d="M29.1274 46.5966C28.4614 46.4718 27.7609 46.2323 27.1892 45.8359C27.1538 45.8983 27.137 45.965 27.1521 46.0274C27.2338 46.3613 27.4519 46.6311 27.7339 46.8259C27.7853 46.9912 27.8088 47.1607 27.7979 47.3049C27.7609 47.7763 27.4266 47.9517 26.9972 47.9846C26.146 48.0504 25.2594 47.8134 24.4317 47.6448C22.7233 47.2973 21.1051 47.0781 19.4152 47.638C17.8727 48.149 16.5062 49.0556 15.0016 49.656C13.2629 50.35 11.403 50.7446 9.52962 50.7581C8.53441 50.7649 7.49794 50.721 6.53136 50.4664C6.07417 50.3458 5.63045 50.194 5.24566 49.9123C4.85499 49.6265 4.48705 49.3085 4.10311 49.0134C4.03491 48.9611 3.8783 49.08 3.94313 49.1508C4.22351 49.4586 4.44832 49.8162 4.73711 50.1164C5.05285 50.4444 5.43258 50.6713 5.8502 50.8458C6.68375 51.1941 7.65455 51.2936 8.54872 51.3408C10.5669 51.4488 12.5877 51.1056 14.4914 50.4419C16.3168 49.8052 17.9308 48.6474 19.7874 48.1052C21.9285 47.4803 23.9577 48.3194 26.0879 48.5201C26.7901 48.5859 27.6042 48.5715 28.0943 47.9812C28.2947 47.74 28.3957 47.4314 28.4041 47.1202C28.9842 47.2552 29.6208 47.143 29.9929 46.7138C29.9997 46.7062 30.0013 46.6986 30.0072 46.691C29.7092 46.6843 29.4103 46.6497 29.1274 46.5966Z" fill="#B67E5C"/>
<path d="M16.021 59.0202C16.2349 59.1914 16.4555 59.3542 16.6819 59.5034C17.3117 59.9166 17.9803 60.2792 18.6505 60.6224C19.3375 60.9749 20.0625 61.2229 20.8059 61.4033C20.7445 59.0885 19.8073 56.8066 18.5267 54.9109C18.0148 54.1537 17.4313 53.4217 16.7476 52.807C17.1198 52.8609 17.4919 52.9048 17.8632 52.9276C19.0125 52.9984 20.1492 52.8711 21.296 52.8356C22.1404 52.8095 23.0195 52.7985 23.64 52.1366C23.7065 52.0657 23.757 51.9814 23.7789 51.8929C23.5179 51.7394 23.251 51.596 22.9782 51.4636C20.9928 50.4998 18.754 50.0748 16.5565 50.0781C15.456 50.0798 14.3446 50.192 13.2635 50.4289C13.1086 50.4812 12.9486 50.5419 12.7971 50.6162C12.7626 50.5993 12.7272 50.5833 12.6935 50.5664C12.4468 50.6313 12.2026 50.7047 11.961 50.7848C11.4785 51.5615 11.1544 52.4224 10.9245 53.307C10.6938 54.1916 10.5448 55.0956 10.4118 55.9996C10.2653 56.9997 10.1398 57.9973 10.1314 59.0093C10.1179 60.5811 10.3596 62.1446 10.8984 63.611C11.0786 63.5857 11.2546 63.4592 11.3657 63.3074C12.7179 61.4505 13.5136 59.0565 13.7334 56.7796C13.7653 56.4516 13.7704 56.1244 13.7637 55.7989C14.3177 56.7881 14.9256 57.7519 15.6589 58.6197C15.776 58.7571 15.8997 58.8878 16.021 59.0202Z" fill="#5DAF77"/>
<path opacity="0.6" d="M16.7484 52.8078C16.825 52.8188 16.9016 52.8272 16.9774 52.8373C16.2449 52.3912 15.6345 51.7537 15.5233 50.8607C15.5065 50.7249 15.6572 50.6608 15.7641 50.6777C18.3162 51.0631 20.9246 52.3094 23.5035 51.7453C23.3293 51.6492 23.1567 51.5505 22.9782 51.4636C20.9928 50.4998 18.754 50.0748 16.5564 50.0781C15.456 50.0798 14.3446 50.192 13.2635 50.4289C13.1086 50.4812 12.9486 50.5419 12.797 50.6162C12.7625 50.5993 12.7271 50.5833 12.6935 50.5664C12.4468 50.6313 12.2026 50.7047 11.9609 50.7848C11.9567 50.7924 11.9525 50.8 11.9483 50.8076C12.0435 51.7579 12.0536 52.7134 11.9963 53.6671C11.7959 56.9618 10.8992 60.1983 10.8613 63.4989C10.8748 63.536 10.8857 63.5739 10.8992 63.611C11.0794 63.5857 11.2554 63.4592 11.3665 63.3074C12.7187 61.4505 13.5144 59.0565 13.7341 56.7796C13.7586 56.5275 13.7645 56.2762 13.7645 56.0258C13.4512 54.9008 13.2172 53.7624 13.2551 52.5852C13.2618 52.382 13.4992 52.3449 13.6087 52.4891C14.2242 53.2952 14.8262 54.1115 15.4257 54.9303C16.4773 56.3673 17.5348 57.7992 18.5999 59.226C19.1531 59.9672 19.7391 60.6958 20.4287 61.3021C20.5541 61.3367 20.6804 61.373 20.8076 61.4033C20.7461 59.0885 19.809 56.8066 18.5283 54.911C18.0156 54.1545 17.4312 53.4234 16.7484 52.8078Z" fill="#628E6C"/>
</svg>
