<svg width="281" height="281" viewBox="0 0 281 281" fill="none" xmlns="http://www.w3.org/2000/svg">
<g clip-path="url(#clip0_4348_14925)">
<path d="M84.8468 261.383C85.211 263.635 85.2889 265.833 84.0244 267.85C83.4032 268.098 82.8116 268.32 82.1543 268.462C82.2904 268.269 82.426 268.075 82.5571 267.878C83.7498 266.091 83.6358 264.293 83.2402 262.287C83.843 262.066 84.3224 261.742 84.8468 261.383Z" fill="#EF9015"/>
<path d="M77.3672 253.258C79.7916 253.707 81.3742 254.93 82.7581 256.925C83.648 258.207 84.5423 259.827 84.8496 261.372C84.3252 261.731 83.8458 262.055 83.2429 262.276C82.4436 258.625 80.2909 255.512 77.3672 253.258Z" fill="#F8B64E"/>
<path d="M76.5293 253.102L77.363 253.256C80.2866 255.51 82.4394 258.623 83.2388 262.275C83.6345 264.28 83.7484 266.078 82.5557 267.866C82.4245 268.062 82.289 268.256 82.1529 268.45C81.4055 268.645 80.6606 268.864 79.8942 268.967C80.1845 268.577 80.628 268.256 80.9543 267.886C82.3511 266.301 82.3001 264.598 82.147 262.638C81.5009 258.604 79.6669 255.658 76.5293 253.102Z" fill="#B94210"/>
<path d="M135.556 248.984C138.339 249.015 140.69 249.91 142.663 251.92C144.514 253.805 145.854 256.739 145.773 259.409C145.739 260.497 145.351 261.563 144.55 262.324C144.184 262.672 143.727 262.928 143.273 263.144C143.634 262.154 143.739 260.923 143.679 259.875C143.483 256.456 141.363 252.701 138.419 250.912C137.422 250.306 136.305 250.031 135.416 249.228L135.556 248.984Z" fill="#D1751C"/>
<path d="M210.705 9.25C216.144 11.0921 220.242 15.4673 222.733 20.5455C223.417 21.938 223.936 23.3824 224.348 24.8758C225.36 21.1177 225.671 16.4823 229.388 14.2943C229.468 14.2477 229.547 14.2028 229.627 14.1571C228.583 16.5539 227.74 18.8093 227.139 21.3615C230.408 19.6084 233.593 18.2071 237.226 17.364C233.952 20.6739 231.067 23.7833 228.919 27.9711C233.661 24.2737 238.336 21.7971 244.558 22.5621C244.914 22.6057 245.269 22.6556 245.623 22.7113C241.942 24.2763 237.815 26.5348 235.076 29.4821C239.311 27.7319 243.236 26.5977 247.842 26.4623C246.988 27.305 245.825 27.9323 244.833 28.6073C243.477 29.5299 242.144 30.5079 240.845 31.5081C238.884 32.7224 237.041 34 235.301 35.5225C233.856 36.787 232.393 38.437 230.751 39.4194C230.477 39.3175 230.504 39.2854 230.202 39.3681C227.074 40.223 223.894 39.5715 220.773 40.5904C221.662 39.1944 222.402 37.8534 222.899 36.2691C223.366 34.7831 223.696 33.2276 223.605 31.6628C223.339 27.0998 219.406 16.8071 216.309 13.5465C215.085 12.2578 211.352 10.7047 210.806 9.49726C210.77 9.41613 210.739 9.33242 210.705 9.25Z" fill="#8D1F0C"/>
<path d="M69.2705 253.922C71.428 253.085 74.2479 252.335 76.5307 253.098C79.6683 255.654 81.5023 258.601 82.1483 262.634C82.3014 264.594 82.3524 266.297 80.9556 267.882C80.6293 268.253 80.1859 268.573 79.8955 268.964C79.0906 269.191 78.3066 269.312 77.4801 269.421C76.8879 269.499 76.293 269.594 75.698 269.646C74.0222 269.917 72.3005 269.979 70.606 270.058L68.5628 270.147C65.9928 270.341 63.0825 270.059 60.5652 269.517C58.3175 269.033 55.9559 268.174 54.6543 266.157C55.5109 264.19 57.0047 262.579 58.5276 261.096C59.4626 260.186 63.2849 256.583 64.3633 256.6L64.4476 256.527C65.2115 255.325 67.1826 254.902 68.3442 254.157L69.2705 253.922Z" fill="#F8B64E"/>
<path d="M69.8262 254.147C71.1897 254.047 72.8192 255.214 73.8145 256.073C76.0038 257.964 77.6272 260.746 78.2084 263.579C78.4891 265.663 78.4178 267.343 77.538 269.294L77.4812 269.423C76.889 269.501 76.2941 269.596 75.6991 269.648C75.7224 269.607 75.7452 269.566 75.769 269.525C77.1331 267.206 77.148 265.117 76.6414 262.566C76.3072 261.468 75.9331 260.385 75.4186 259.356C74.2056 256.93 72.4488 255.01 69.8262 254.147Z" fill="#B94210"/>
<path d="M82.1506 262.641C82.3037 264.601 82.3547 266.304 80.958 267.889C80.6316 268.259 80.1882 268.58 79.8978 268.97C79.093 269.197 78.3089 269.319 77.4824 269.428L77.5392 269.299C78.419 267.348 78.4904 265.668 78.2097 263.584C79.2349 263.523 81.0795 263.637 81.9379 263.109C82.1363 262.987 82.1042 262.85 82.1506 262.641Z" fill="#EF9015"/>
<path d="M76.6417 262.578C77.1483 265.128 77.1334 267.218 75.7693 269.537C75.7455 269.577 75.7227 269.618 75.6994 269.659C74.0236 269.931 72.3019 269.992 70.6074 270.071C71.4781 268.401 71.8598 267.127 71.9229 265.23C73.5027 264.536 75.2549 263.597 76.6417 262.578Z" fill="#EF9015"/>
<path d="M64.4476 256.539C66.6509 256.843 68.361 257.608 69.7519 259.43C71.0565 261.139 71.6594 263.12 71.9215 265.229C71.8584 267.126 71.4767 268.4 70.606 270.071L68.5628 270.16C65.9928 270.353 63.0825 270.071 60.5652 269.529C58.3175 269.045 55.9559 268.186 54.6543 266.17C55.5109 264.202 57.0047 262.591 58.5276 261.108C59.4626 260.198 63.2849 256.595 64.3633 256.612L64.4476 256.539Z" fill="#F8B64E"/>
<path d="M64.4493 256.539C66.6526 256.843 68.3627 257.608 69.7537 259.43C71.0582 261.139 71.6612 263.12 71.9233 265.229C71.8602 267.126 71.4784 268.4 70.6078 270.071L68.5645 270.16C69.4294 269.435 69.9758 268.727 70.3422 267.646C71.0796 265.469 70.5696 262.774 69.5579 260.761C68.2605 258.178 67.0273 257.485 64.3652 256.612L64.4493 256.539Z" fill="#B94210"/>
<path d="M240.846 31.5156C240.881 31.5326 240.914 31.5544 240.952 31.5669C241.583 31.7826 242.741 31.473 243.486 31.5655C246.586 31.9499 249.017 34.8104 250.52 37.3619C252.667 41.0091 253.651 45.169 252.529 49.3223C251.625 52.6649 249.736 55.7027 246.641 57.392C246.439 57.5017 246.235 57.5931 246.025 57.6851C245.11 56.5322 244.144 55.4247 243.174 54.318C242.294 53.6482 241.756 52.7052 240.923 51.9901C240.115 50.5999 238.495 49.2529 237.363 48.094C236.124 46.8108 234.689 45.624 233.557 44.2541C231.735 43.0758 230.116 41.7139 228.217 40.6222C229.115 40.3407 229.965 39.942 230.752 39.4269C232.394 38.4444 233.857 36.7945 235.302 35.53C237.042 34.0075 238.884 32.7299 240.846 31.5156Z" fill="#EF9015"/>
<path d="M233.561 44.2516C237.101 44.2222 239.424 42.1575 242.009 40.0289C242.774 39.3999 243.572 38.7153 244.493 38.3259C245.157 38.0456 245.661 38.189 246.308 38.429C245.835 39.8746 241.987 43.0852 242.03 44.2051C240.729 45.9493 239.328 47.1163 237.366 48.0913C236.127 46.8083 234.692 45.6214 233.561 44.2516Z" fill="#B94210"/>
<path d="M246.308 38.4219C247.839 39.3297 248.757 40.6444 249.202 42.366C249.654 44.1122 249.689 46.4631 249.175 48.1949C248.866 50.1189 247.724 51.8215 246.152 52.9494C245.232 53.6099 244.262 54.01 243.177 54.3083C242.297 53.6385 241.759 52.6956 240.926 51.9804C240.118 50.5903 238.498 49.2432 237.365 48.0843C239.328 47.1093 240.728 45.9423 242.029 44.1981C241.987 43.0781 245.835 39.8674 246.308 38.4219Z" fill="#D70901"/>
<path d="M246.309 38.4219C247.839 39.3297 248.757 40.6444 249.203 42.366C249.654 44.1122 249.69 46.4631 249.176 48.1949C248.438 46.9787 248.79 45.088 247.271 43.1687C246.805 42.5807 246.209 42.1685 245.449 42.0991C243.573 41.9275 243.371 43.1396 242.18 44.0826C242.13 44.1218 242.08 44.1597 242.03 44.1981C241.988 43.0781 245.835 39.8674 246.309 38.4219Z" fill="#8D1F0C"/>
<path d="M12.0873 214.451C9.94428 212.206 9.42606 209.472 9.4871 206.447C9.57377 202.16 10.9962 198.046 14.1689 195.063C15.9094 193.426 18.0687 192.212 20.4045 191.682C24.746 190.697 32.7076 192.34 35.6811 188.462C36.1262 187.881 36.3499 187.19 36.5637 186.5C36.9728 186.88 36.9531 187.631 36.9706 188.17C37.0384 190.255 35.9888 192.062 34.572 193.547C33.2246 194.959 31.4589 195.978 29.5792 196.493C31.6911 196.425 33.5275 196.556 35.5703 197.086C31.5004 198.04 28.7267 199.783 26.4758 203.38C23.8515 207.575 22.4635 214.026 17.0221 215.514C15.0167 215.884 13.7971 215.437 12.0873 214.451Z" fill="#691106"/>
<path d="M224.314 249.475C227.483 248.823 230.552 248.676 233.357 250.54C235.865 252.207 237.466 254.965 238.029 257.887C238.414 259.888 238.436 262.34 237.233 264.077C236.522 265.103 235.578 265.679 234.444 266.149C233.578 266.361 232.713 266.586 231.843 266.778C230.417 267.068 228.96 267.266 227.512 267.408L225.674 267.607C223.317 268.286 215.777 267.43 213.211 266.9C213.165 266.343 213.342 265.708 213.331 265.124C213.286 262.79 212.606 261.103 211.547 259.048C211.805 258.678 212.013 258.292 212.248 257.909C214.759 253.827 219.712 250.602 224.314 249.475Z" fill="#D1751C"/>
<path d="M218.916 252.141C219.642 252.348 220.385 252.518 221.088 252.794C224.06 253.962 226.49 256.336 227.731 259.278C228.95 262.171 228.669 264.571 227.511 267.424L225.673 267.623L225.635 267.371C226.755 265.118 227.363 263.147 226.653 260.65C225.513 256.637 222.427 254.072 218.916 252.141Z" fill="#B94210"/>
<path d="M224.68 250.047C225.487 250.216 226.296 250.445 227.082 250.695C230.082 251.651 232.647 253.852 234.075 256.652C235.795 260.025 235.586 262.655 234.445 266.156C233.579 266.367 232.715 266.592 231.844 266.785C232.249 266.293 232.624 265.803 232.9 265.225C234.014 262.895 233.956 259.972 233.074 257.578C231.561 253.468 228.436 251.762 224.68 250.047Z" fill="#B94210"/>
<path d="M175.271 255.813C175.752 255.202 176.153 254.532 176.661 253.941C180.564 249.409 187.687 248.828 193.237 248.438C193.578 249.767 193.892 251.128 194.839 252.174L195.514 252.521C198.109 252.223 200.518 252.346 203.071 252.938C203.309 252.993 203.22 252.976 203.511 252.943L203.633 252.992C206.852 254.154 209.744 256.087 211.547 259.054C212.607 261.108 213.287 262.796 213.331 265.129C213.342 265.713 213.166 266.348 213.211 266.906C213.177 266.943 213.141 266.979 213.107 267.018C211.565 268.796 211.505 269.28 209.124 269.873C208.286 270.041 207.447 270.23 206.604 270.369C205.499 270.535 204.386 270.686 203.269 270.734C202.618 270.789 201.967 270.852 201.316 270.896C199.655 271.143 197.019 271.281 195.359 271.036L194.085 271.028C190.205 271.033 183.528 270.098 180.53 267.551C177.719 265.02 176.516 262.416 175.744 258.747L175.271 255.813Z" fill="#F8B64E"/>
<path d="M187.975 256.383C191.229 257.203 193.753 258.635 195.536 261.574C196.89 263.806 197.441 266.573 196.783 269.132C196.623 269.753 196.313 270.487 195.841 270.931L195.356 271.036L194.082 271.028C195.323 269.359 195.631 267.12 195.331 265.096C194.901 262.205 193.117 259.569 190.782 257.86C189.902 257.216 188.984 256.78 187.975 256.383Z" fill="#B94210"/>
<path d="M201.311 270.892C201.216 270.592 201.908 269.837 202.081 269.474C202.792 267.973 203.025 266.223 203.01 264.576C202.983 261.647 201.657 258.212 199.643 256.041C198.945 255.287 198.007 254.758 197.271 254.029C197.59 253.993 197.854 254.131 198.127 254.29C201.136 256.034 203.229 258.805 204.214 262.122C205.118 265.164 204.776 267.966 203.263 270.73C202.613 270.784 201.962 270.848 201.311 270.892Z" fill="#B94210"/>
<path d="M203.63 252.992C206.849 254.155 209.741 256.088 211.544 259.054C212.604 261.109 213.284 262.796 213.328 265.13C213.339 265.713 213.163 266.349 213.209 266.906C213.174 266.944 213.138 266.98 213.104 267.018C211.562 268.796 211.502 269.281 209.121 269.874C208.283 270.042 207.444 270.23 206.601 270.369L206.74 270.221C208.373 268.446 209.04 266.139 208.931 263.755C208.734 259.432 206.604 256.14 203.502 253.308L203.63 252.992Z" fill="#F8B64E"/>
<path d="M203.502 253.312C206.195 254.45 208.362 257.309 209.448 259.945C210.538 262.594 210.935 265.839 209.848 268.557C209.662 269.023 209.391 269.456 209.121 269.879C208.283 270.047 207.444 270.235 206.601 270.374L206.739 270.226C208.373 268.451 209.04 266.144 208.931 263.76C208.734 259.437 206.604 256.145 203.502 253.312Z" fill="#B94210"/>
<path d="M175.271 255.813C175.752 255.202 176.153 254.532 176.661 253.941C180.564 249.409 187.687 248.828 193.237 248.438C193.578 249.767 193.892 251.128 194.839 252.174L195.514 252.521C195.437 252.56 195.36 252.6 195.282 252.639C194.092 253.225 192.736 253.498 191.519 254.084C187.831 255.86 184.849 259.443 182.883 262.951C182.064 264.414 181.477 266.192 180.53 267.551C177.719 265.02 176.516 262.416 175.744 258.747L175.271 255.813Z" fill="#EF9015"/>
<path d="M175.271 255.813C175.752 255.202 176.153 254.532 176.661 253.941C180.564 249.409 187.687 248.828 193.237 248.438C193.578 249.767 193.892 251.128 194.839 252.174C189.571 252.275 184.752 253.537 180.159 256.121C178.704 256.94 177.269 258.118 175.744 258.748L175.271 255.813Z" fill="#D1751C"/>
<path d="M102.522 189.844C106.852 188.692 109.141 188.197 113.701 188.909C116.73 189.382 119.651 190.911 122.444 192.138L132.46 196.599C134.54 197.519 136.862 198.279 138.854 199.354C138.896 199.377 138.937 199.402 138.979 199.427C136.265 204.775 133.07 209.62 129.476 214.427C126.464 218.457 120.205 225.087 118.67 229.412C117.68 232.202 117.992 235.473 118.89 238.24C120.099 241.965 123.347 248.708 126.998 250.556C127.672 250.897 128.416 251.013 129.158 251.1C130.62 250.339 132.013 249.562 133.622 249.152C134.236 249.005 134.925 249.023 135.555 248.988L135.415 249.232C136.305 250.034 137.421 250.309 138.419 250.916C141.363 252.705 143.482 256.46 143.678 259.879C143.739 260.927 143.634 262.158 143.273 263.147C142.533 263.402 141.803 263.669 141.033 263.819C139.908 264.061 138.79 264.261 137.649 264.419L135.521 264.699C131.709 265.043 128.015 264.957 124.23 264.336C117.201 262.85 115.47 260.961 111.608 255.037C109.019 251.065 98.5231 232.7 99.5308 228.523C99.9968 226.591 101.425 224.698 102.275 222.887C103.44 220.402 104.236 217.585 104.796 214.897C106.311 207.622 105.546 198.132 101.396 191.795C101.673 191.086 102.103 190.475 102.522 189.844Z" fill="#CA5B07"/>
<path d="M130.344 252.069L130.432 251.813C131.103 251.554 131.838 251.935 132.47 252.211C134.852 253.251 136.782 255.328 137.725 257.752C138.538 259.841 138.556 262.356 137.65 264.421L135.522 264.702C135.624 264.056 135.998 263.441 136.172 262.805C136.551 261.423 136.484 259.561 136.101 258.183C135.281 255.234 132.909 253.463 130.344 252.069Z" fill="#B94210"/>
<path d="M133.623 249.149C134.236 249.001 134.926 249.019 135.556 248.984L135.416 249.228C136.305 250.031 137.422 250.306 138.419 250.912C141.363 252.701 143.483 256.456 143.679 259.875C143.739 260.923 143.634 262.154 143.273 263.144C142.534 263.398 141.804 263.665 141.034 263.815C141.054 262.672 141.829 261.428 141.802 259.658C141.745 256.065 139.551 252.542 136.503 250.683C135.748 250.223 134.34 249.907 133.757 249.297C133.711 249.249 133.667 249.198 133.623 249.149Z" fill="#B94210"/>
<path d="M124.23 264.339C124.806 261.2 128.144 254.411 130.343 252.07C132.908 253.464 135.28 255.235 136.099 258.184C136.482 259.562 136.55 261.424 136.171 262.806C135.997 263.442 135.623 264.057 135.521 264.702C131.709 265.046 128.015 264.96 124.23 264.339Z" fill="#D1751C"/>
<path d="M197.681 200.925C208.39 196.585 218.372 190.257 226.381 181.864C227.735 180.445 228.783 178.8 230.084 177.345L230.177 177.242C229.27 183.557 227.407 189.806 226.119 196.066C224.423 204.309 223.147 212.614 222.042 220.954C221.262 226.847 220.263 234.502 220.557 240.375C220.649 242.227 220.895 244.095 221.646 245.806C222.317 247.177 223.209 248.413 224.31 249.475C219.709 250.602 214.756 253.827 212.245 257.91C212.009 258.292 211.802 258.678 211.543 259.049C209.74 256.082 206.848 254.15 203.629 252.986L203.507 252.938C203.216 252.971 203.305 252.988 203.067 252.933C200.514 252.341 198.105 252.218 195.51 252.516L194.835 252.169C193.888 251.123 193.574 249.762 193.233 248.432C192.581 245.774 192.461 242.915 192.276 240.191C192.011 236.317 191.765 232.421 191.701 228.538C191.647 225.255 191.752 221.941 191.566 218.663C191.636 215.649 191.659 212.637 191.842 209.627C191.977 207.395 192.321 205.073 192.269 202.843C194.088 202.243 195.884 201.59 197.681 200.925Z" fill="#CA5B07"/>
<path d="M197.681 200.93C198.247 207.418 199.165 213.913 199.866 220.394C200.962 230.521 201.919 240.677 203.173 250.784C203.237 251.507 203.275 252.249 203.507 252.942C203.216 252.975 203.305 252.993 203.067 252.937C200.514 252.345 198.105 252.223 195.51 252.521L194.835 252.173C193.888 251.128 193.574 249.766 193.233 248.437C192.581 245.779 192.461 242.919 192.276 240.195C192.011 236.321 191.765 232.425 191.701 228.542C191.647 225.259 191.752 221.945 191.566 218.668C191.636 215.654 191.659 212.642 191.842 209.631C191.977 207.399 192.321 205.077 192.269 202.848C194.088 202.247 195.884 201.594 197.681 200.93Z" fill="#FCFAF4"/>
<path d="M208.741 8.67188C209.412 8.83504 210.07 8.97979 210.706 9.2577C210.74 9.34025 210.771 9.42396 210.808 9.50522C211.353 10.7125 215.087 12.2658 216.31 13.5545C219.407 16.815 223.34 27.1078 223.606 31.6707C223.697 33.2354 223.367 34.7911 222.9 36.2771C222.404 37.8614 221.663 39.2024 220.774 40.5983C223.895 39.5794 227.075 40.2309 230.204 39.3761C230.505 39.2935 230.478 39.3256 230.752 39.4273C229.965 39.9425 229.115 40.3412 228.217 40.6227C227.049 40.4921 224.884 39.8488 223.848 40.5312C223.829 40.5439 223.646 40.7088 223.619 40.7332C222.67 40.3663 221.893 40.6415 221.001 41.0501C217.325 42.7325 214.824 45.7815 213.178 49.3638C211.471 45.3121 208.346 42.5808 204.301 40.9154C203.239 40.4782 202.127 40.1537 201.018 39.8635C199.226 40.6398 197.708 41.6582 196.209 42.9033L196.275 42.5386C197.367 41.2381 199.131 40.2513 200.675 39.599C198.095 39.3457 193.557 38.5055 191.274 40.1135L192.088 40.6563L192.14 41.0638C187.188 44.2508 183.5 49.2868 179.386 53.4135L179.131 53.2927L178.864 53.5647C178.159 54.4472 177.193 55.1458 176.32 55.8557C174.332 54.5456 172.296 53.0408 170.886 51.1037C167.545 55.8035 164.383 60.1845 162.001 65.4681C159.719 70.5317 158.491 75.9313 156.73 81.1794C155.971 83.442 154.918 85.5113 154.025 87.7094C155.236 86.9789 156.34 86.0486 157.445 85.1678C156.545 89.203 156.548 94.2401 157.926 98.1536C158.056 98.5235 158.234 99.1811 158.475 99.4742C158.521 99.5307 158.592 99.5622 158.65 99.6062C158.959 100.557 159.69 104.262 160.231 104.73L160.295 104.595C160.312 104.639 160.332 104.683 160.347 104.729C160.412 104.93 160.419 105.061 160.439 105.265C160.924 110.197 166.848 120.146 170.521 123.437C170.726 123.62 170.827 123.68 171.089 123.721C172.174 124.482 173.252 126.071 174.258 127.027C176.763 129.409 179.695 131.396 182.648 133.176C180.551 129.016 179.058 125.442 179.416 120.681C180.381 130.209 187.724 134.797 194.033 140.848C200.617 147.163 204.147 155.592 204.336 164.704C207.535 156.08 207.459 149.195 204.941 140.424C210.449 149.369 212.475 158.295 211.823 168.727C217.327 163.667 221.123 156.154 224.318 149.49C223.277 154.915 221.939 159.918 219.688 164.973C221.119 163.816 222.652 162.792 224.075 161.622C225.758 160.237 227.317 158.706 228.878 157.188C234.036 152.176 237.418 147.867 240.467 141.291C239.317 146.839 237.968 150.788 235.695 155.97C243.24 147.49 249.36 137.353 252.005 126.248C252.355 124.781 252.866 118.75 253.21 118.16C256.551 129.04 255.151 140.668 250.051 150.79C249.787 148.326 249.196 145.987 248.602 143.587C246.678 154.002 241.771 163.105 236.603 172.206C236.289 170.09 236.349 166.211 235.279 164.456C235.007 168.371 234.082 171.036 232.006 174.331C231.406 175.284 230.677 176.249 230.178 177.252L230.085 177.355C228.784 178.809 227.736 180.454 226.382 181.873C218.373 190.266 208.391 196.595 197.682 200.935C195.885 201.6 194.089 202.253 192.27 202.853C192.322 205.083 191.977 207.405 191.843 209.637C191.66 212.647 191.637 215.659 191.567 218.673C191.378 220.134 191.5 221.784 191.486 223.263C187.212 215.087 186.646 204.086 186.918 195.007C187.151 187.261 188.198 179.421 184.968 172.092C181.189 163.515 171.67 158.188 164.871 152.234C159.556 147.578 154.671 141.471 151.993 134.872C150.777 131.877 149.006 124.974 150.274 121.974C150.231 116.82 151.415 112.038 154.238 107.688C151.787 108.463 149.467 109.355 147.245 110.67C145.002 111.998 142.881 113.598 140.517 114.709C140.372 114.081 140.27 113.435 140.248 112.79C140.131 109.378 141.927 105.4 143.916 102.709C144.844 101.454 145.962 100.315 147.017 99.1661C144.202 100.748 142.122 102.296 140.043 104.769C140.99 99.6384 144.232 95.7293 148.404 92.7567C145.648 93.3434 143.437 93.3662 140.849 92.17C142.059 91.5641 143.198 91.0567 144.287 90.2296C157.534 80.1696 153.255 56.3036 165.37 44.1915C162.755 45.5545 160.557 47.1192 158.41 49.1339C160.352 43.5477 164.033 38.7095 168.286 34.6901C166.141 35.4632 164.168 36.5465 162.161 37.6144C164.332 34.4846 167.552 31.2657 170.657 29.0936C174.488 26.4145 178.406 25.6323 182.971 26.4412C178.387 24.8062 175.74 23.3345 170.736 23.0867C172.305 22.1251 173.944 21.3737 175.693 20.7999C182.776 18.4771 188.083 21.1099 194.298 24.2524C190.337 20.1973 187.988 17.5037 182.633 15.2974C184.756 14.8259 186.883 14.4811 189.066 14.4978C196.147 14.5523 203.136 17.5087 208.098 22.5467C206.271 18.1803 203.823 14.5556 200.809 10.938C201.259 10.9973 201.708 11.0615 202.154 11.1437C208.151 12.2466 212.069 15.819 215.422 20.7159C214.342 15.9385 211.674 12.4365 208.741 8.67188Z" fill="url(#paint0_linear_4348_14925)"/>
<path d="M162.393 141.899L162.535 141.836C163.132 142.341 163.717 143.356 164.059 144.066C164.141 144.238 164.065 144.157 164.299 144.25C164.307 143.976 164.282 143.797 164.208 143.535L164.161 143.371C163.918 142.518 163.302 141.953 162.918 141.18C162.469 140.279 162.348 139.316 162.202 138.333C161.638 134.537 162.212 131.235 163.43 127.625C163.233 129.653 163.133 131.6 163.288 133.64C163.113 138.053 163.641 141.952 165.349 146.055C164.225 144.77 163.306 143.337 162.393 141.899Z" fill="#691106"/>
<path d="M173.443 33.2947C173.703 32.6286 174.168 32.3619 174.813 32.0914C176.707 31.2972 178.886 31.5956 180.719 32.399C184.612 34.1051 187.797 37.2192 191.271 39.5824C192.336 39.3113 193.412 39.0133 194.507 38.903C198.775 38.4721 203.71 39.7413 207.37 41.9394C209.139 43.0019 210.539 44.8183 211.827 45.5644L213.22 48.4883C213.624 47.5725 214.002 46.6508 214.366 45.7183C216.438 43.8952 218.372 41.9962 220.775 40.5829C223.896 39.564 227.076 40.2155 230.205 39.3607C230.507 39.2781 230.48 39.3102 230.753 39.4119C229.966 39.927 229.117 40.3257 228.218 40.6073C227.05 40.4767 224.886 39.8334 223.849 40.5158C223.83 40.5285 223.647 40.6934 223.62 40.7178C222.671 40.3509 221.895 40.6261 221.002 41.0347C217.326 42.7171 214.825 45.7661 213.179 49.3484C211.473 45.2967 208.347 42.5654 204.302 40.9C203.241 40.4628 202.129 40.1382 201.019 39.8481C199.227 40.6244 197.71 41.6428 196.21 42.8878L196.277 42.5231C197.368 41.2227 199.132 40.2359 200.676 39.5836C198.096 39.3303 193.558 38.4901 191.275 40.0981C190.175 39.5482 189.164 38.6544 188.194 37.9074C185.761 36.0337 182.265 33.0673 179.303 32.2646C177.138 31.6781 175.321 32.2176 173.443 33.2947Z" fill="#691106"/>
<path d="M208.21 15.8125C212.279 18.7291 215.218 25.4263 216.024 30.241C216.67 34.0993 216.333 37.8979 215.389 41.6761C215.058 43.0005 214.543 44.3832 214.366 45.7317C214.003 46.6642 213.625 47.5858 213.221 48.5016L211.828 45.5778C209.189 37.7369 205.388 30.3928 200.024 24.0619C198.521 22.2882 196.935 20.5279 194.969 19.262C201.231 20.4939 206.723 24.7212 210.255 29.9696C210.962 31.0201 211.556 32.1238 212.112 33.2594C212.101 29.1232 211.639 23.7445 210.163 19.8594C209.631 18.4605 208.873 17.1523 208.21 15.8125Z" fill="#B94210"/>
<path d="M173.443 33.3098C175.321 32.2327 177.138 31.6932 179.303 32.28C182.265 33.0826 185.761 36.049 188.194 37.9228C189.164 38.6697 190.175 39.5634 191.275 40.1134L192.089 40.6563L192.141 41.0637C187.189 44.2508 183.501 49.2868 179.387 53.4134L179.132 53.2926L178.865 53.5646C178.161 54.4471 177.194 55.1458 176.321 55.8556C174.334 54.5455 172.297 53.0407 170.887 51.1036C169.517 49.0444 168.889 46.4875 168.844 44.0356C168.792 41.1559 169.563 37.7696 171.338 35.4409C171.914 34.6855 172.689 34.1075 173.34 33.4222C173.375 33.3853 173.409 33.3474 173.443 33.3098Z" fill="#EF9015"/>
<path d="M175.231 37.613C177.081 37.2085 178.672 37.9467 180.204 38.9203C181.779 39.9213 183.308 41.0763 184.704 42.3156C185.506 43.0278 186.304 43.9363 187.191 44.526C188.587 43.0892 190.387 41.6987 192.088 40.6527L192.141 41.0601C187.188 44.2472 183.5 49.2832 179.387 53.4098L179.131 53.289L178.864 53.561C176.302 52.3654 173.869 51.0806 172.53 48.4649C171.407 46.2715 171.144 43.4986 171.959 41.1606C172.557 39.4475 173.613 38.3616 175.231 37.613Z" fill="#D70901"/>
<path d="M176.699 39.0234C178.052 39.6449 179.339 40.7058 180.558 41.5618C182.462 42.8991 184.36 44.2258 186.328 45.4692C186.625 45.1678 186.947 44.8761 187.19 44.5293C188.586 43.0925 190.386 41.7021 192.087 40.656L192.14 41.0635C187.187 44.2505 183.499 49.2865 179.385 53.4132L179.13 53.2924C181.034 51.1176 182.939 48.947 185.007 46.9243C184.97 46.9172 184.933 46.9102 184.896 46.9023L184.712 46.8619C181.957 46.2766 180.811 43.0876 179.14 41.1036C178.463 40.2995 177.493 39.7162 176.699 39.0234Z" fill="#691106"/>
<path d="M175.23 37.613C177.081 37.2085 178.672 37.9467 180.204 38.9203C181.779 39.9213 183.308 41.0763 184.704 42.3156C185.506 43.0278 186.303 43.9363 187.191 44.526C186.948 44.8728 186.626 45.1645 186.329 45.4658C184.361 44.2225 182.463 42.8956 180.559 41.5585C179.34 40.7026 178.053 39.6417 176.7 39.0201C176.542 38.9189 176.386 38.8157 176.23 38.7114C175.743 38.3878 175.515 38.127 175.23 37.613Z" fill="#B94210"/>
<path d="M178.189 145.352C179.711 146.411 181.094 147.756 182.493 148.977C191.305 156.666 194.823 163.695 196.884 175.112C197.49 178.466 197.385 181.869 197.653 185.256L199.244 179.265C200.647 183.673 200.473 188.561 200.138 193.128C202.027 189.969 204.017 186.394 206.083 183.4C204.917 186.877 203.533 190.21 202.151 193.603C210.338 189.309 220.1 182.381 226.096 175.266C229.247 171.528 231.447 167.239 234.138 163.201C234.374 162.846 234.574 162.468 234.958 162.266C235.155 162.764 235.427 163.968 235.281 164.451C235.009 168.365 234.084 171.031 232.008 174.326C231.408 175.278 230.679 176.244 230.179 177.246L230.086 177.349C228.786 178.804 227.737 180.449 226.383 181.868C218.374 190.261 208.393 196.589 197.683 200.929C195.887 201.594 194.091 202.247 192.272 202.848C191.964 200.462 193.106 194.625 193.51 191.89C193.954 188.884 194.345 185.895 194.532 182.86C195.121 173.268 192.655 162.84 186.747 155.14C184.477 152.181 181.676 149.663 179.204 146.873C178.864 146.367 178.519 145.864 178.189 145.352Z" fill="#691106"/>
<path d="M150.928 126.916C151.415 126.052 151.31 124.519 151.516 123.52C152.352 119.465 155.124 115.818 158.54 113.562C158.039 114.523 157.521 115.479 157.055 116.456C157.057 116.531 157.059 116.606 157.059 116.681C157.06 118.019 156.06 120.668 155.933 122.482C155.526 128.312 157.462 133.863 160.37 138.821C160.948 139.809 161.615 141.071 162.395 141.895C163.309 143.334 164.228 144.766 165.351 146.052C163.643 141.949 163.115 138.05 163.291 133.636C163.327 133.695 163.364 133.753 163.4 133.812C163.898 134.646 164.151 135.871 164.469 136.798C164.999 138.341 165.613 139.84 166.414 141.265C167.46 143.124 168.72 144.916 170.157 146.495C172.67 149.253 175.744 151.639 178.635 153.99C180.8 155.751 182.958 157.588 185.273 159.151C184.668 158.36 184.083 157.567 183.581 156.705C182.56 154.947 179.422 148.678 179.204 146.868C181.676 149.658 184.477 152.177 186.747 155.136C192.655 162.835 195.121 173.264 194.532 182.856C194.345 185.89 193.954 188.88 193.51 191.886C193.105 194.621 191.964 200.458 192.271 202.843C192.323 205.073 191.979 207.395 191.844 209.627C191.661 212.637 191.638 215.649 191.569 218.663C191.379 220.124 191.502 221.774 191.487 223.253C187.213 215.077 186.647 204.076 186.92 194.998C187.152 187.252 188.199 179.411 184.97 172.082C181.191 163.505 171.672 158.178 164.873 152.224C159.557 147.568 154.673 141.461 151.994 134.863C150.778 131.867 149.008 124.964 150.275 121.964C150.43 123.605 150.494 125.32 150.928 126.916Z" fill="#CA5B07"/>
<path d="M150.928 126.916C151.415 126.052 151.31 124.519 151.516 123.52C152.352 119.465 155.124 115.818 158.54 113.562C158.038 114.523 157.521 115.479 157.055 116.456C153.834 121.578 152.043 126.314 152.86 132.484C152.054 130.68 151.321 128.859 150.928 126.916Z" fill="#691106"/>
<path d="M191.274 40.1088C193.557 38.5007 198.096 39.341 200.675 39.5943C199.132 40.2466 197.368 41.2335 196.276 42.5339L196.21 42.8986C197.709 41.6535 199.227 40.6353 201.018 39.8589C202.128 40.1489 203.24 40.4735 204.302 40.9107C208.347 42.5761 211.472 45.3074 213.178 49.3592C214.825 45.777 217.326 42.728 221.001 41.0454C221.894 40.6368 222.671 40.3616 223.619 40.7285C223.646 40.704 223.83 40.5392 223.849 40.5266C224.885 39.8442 227.049 40.4873 228.218 40.618C230.117 41.7097 231.736 43.0716 233.558 44.2499C234.69 45.6197 236.124 46.8066 237.363 48.0898C238.496 49.2487 240.116 50.5957 240.924 51.9859C241.757 52.701 242.295 53.644 243.175 54.3137C244.144 55.4205 245.111 56.528 246.025 57.6808C252.325 64.8058 261.97 72.2623 264.306 81.7423C264.728 83.4516 264.727 85.2805 264.804 87.0325C263.037 84.0521 261.402 82.3183 258.342 80.652C261.519 85.0446 262.814 89.5688 261.945 94.968C261.459 97.9871 260.421 100.895 259.763 103.877C258.206 110.926 258.53 118.824 262.494 125.074C262.299 125.256 262.214 125.303 261.933 125.259C259.691 124.911 254.415 118.098 253.273 116.023C253.02 115.562 252.793 115.087 252.568 114.612C252.712 115.809 252.962 116.977 253.211 118.155C252.867 118.745 252.355 124.776 252.006 126.243C249.361 137.348 243.241 147.486 235.695 155.965C237.968 150.783 239.318 146.835 240.468 141.286C237.419 147.862 234.036 152.171 228.879 157.184C227.317 158.702 225.759 160.232 224.076 161.617C222.653 162.787 221.119 163.812 219.689 164.968C221.94 159.913 223.277 154.911 224.319 149.486C221.124 156.149 217.328 163.662 211.824 168.722C212.476 158.29 210.449 149.364 204.942 140.419C207.46 149.191 207.535 156.076 204.337 164.699C204.148 155.587 200.617 147.158 194.033 140.843C187.724 134.793 180.382 130.204 179.417 120.676C179.058 125.437 180.551 129.012 182.648 133.171C179.696 131.392 176.764 129.405 174.259 127.022C173.253 126.066 172.175 124.477 171.09 123.717C170.828 123.676 170.727 123.615 170.522 123.432C166.849 120.142 160.925 110.193 160.439 105.26C160.419 105.057 160.413 104.925 160.348 104.724C160.333 104.678 160.313 104.635 160.295 104.59L160.231 104.725C159.691 104.258 158.96 100.553 158.651 99.6015C158.592 99.5576 158.522 99.526 158.476 99.4695C158.235 99.1764 158.056 98.519 157.926 98.149C156.549 94.2356 156.545 89.1984 157.445 85.1631C156.341 86.0439 155.236 86.9743 154.025 87.7047C154.918 85.5067 155.972 83.4373 156.731 81.1747C158.491 75.9265 159.719 70.5269 162.002 65.4635C164.384 60.18 167.545 55.7988 170.887 51.099C172.297 53.0361 174.333 54.5409 176.32 55.851C177.194 55.1412 178.16 54.4424 178.865 53.56L179.131 53.288L179.387 53.4088C183.501 49.2821 187.188 44.2462 192.141 41.0591L192.088 40.6516L191.274 40.1088Z" fill="#B94210"/>
<path d="M162.008 97.3516C162.498 107.764 164.254 115.44 171.091 123.715C170.829 123.674 170.728 123.613 170.523 123.43C166.85 120.14 160.926 110.191 160.44 105.258C160.42 105.055 160.414 104.923 160.348 104.722C160.334 104.677 160.314 104.633 160.296 104.588C160.262 101.936 160.963 99.7645 162.008 97.3516Z" fill="#691106"/>
<path d="M170.886 51.1016C172.297 53.0387 174.333 54.5435 176.32 55.8536C177.194 55.1437 178.16 54.445 178.864 53.5626L179.131 53.2906L179.387 53.4114L179.216 53.5905C176.363 56.5575 172.805 58.9836 169.637 61.61C164.918 65.5223 162.451 70.6291 160.095 76.1366C159.291 78.0174 158.452 79.8978 157.719 81.8071C159.641 79.6891 161.559 77.7059 163.859 75.9851C159.261 81.9286 157.399 90.214 158.34 97.6246C158.424 98.2865 158.538 98.9464 158.651 99.6039C158.592 99.56 158.522 99.5285 158.476 99.4719C158.235 99.1788 158.056 98.5214 157.926 98.1514C156.549 94.238 156.545 89.2009 157.445 85.1655C156.341 86.0464 155.236 86.9767 154.025 87.7072C154.918 85.5091 155.972 83.4397 156.731 81.1772C158.491 75.929 159.719 70.5293 162.002 65.4659C164.384 60.1824 167.545 55.8014 170.886 51.1016Z" fill="#691106"/>
<path d="M191.273 40.1088C193.556 38.5007 198.095 39.341 200.674 39.5943C199.131 40.2466 197.367 41.2335 196.275 42.5339L196.209 42.8986C191.857 46.9619 187.324 51.8491 186.487 57.9881C186.144 60.5021 186.16 63.0667 185.604 65.5516C185.327 66.6234 185.005 67.6542 184.573 68.6749C183.275 71.7484 179.771 77.5827 180.926 80.8122L181.071 80.8838C181.951 81.3087 182.878 81.5912 183.772 81.9774C185.774 82.8418 187.686 84.2567 189.234 85.7789C184.893 86.2407 181.06 87.0607 177.08 88.9333C174.858 82.133 176.84 76.8086 179.211 70.4342C175.557 72.4774 172.092 73.5727 168.008 74.4002C176.168 71.3481 178.785 66.8166 182.001 59.0734C182.873 56.9727 183.727 54.7761 184.873 52.8079C187.235 48.7531 190.634 45.245 192.961 41.162L192.788 41.2037L193.042 40.9307L193 40.8621C192.613 40.7652 192.489 40.9016 192.14 41.0591L192.087 40.6516L191.273 40.1088Z" fill="#8D1F0C"/>
<path d="M180.928 80.8122L180.668 80.9976C180.401 80.8933 180.465 80.9775 180.363 80.752C179.161 78.0949 182.918 71.4006 184.043 68.9207C184.576 67.7457 184.875 66.4474 185.34 65.2422L185.535 65.2614L185.606 65.5514C185.329 66.6232 185.006 67.654 184.575 68.6747C183.277 71.7483 179.773 77.5826 180.928 80.8122Z" fill="#691106"/>
<path d="M223.621 40.7293C223.648 40.7049 223.832 40.54 223.85 40.5274C224.887 39.845 227.051 40.4881 228.219 40.6188C230.119 41.7105 231.738 43.0724 233.56 44.2507C234.692 45.6206 236.126 46.8074 237.365 48.0906C238.498 49.2495 240.118 50.5965 240.926 51.9867C240.406 51.591 239.944 51.1316 239.43 50.7348C240.437 52.2505 241.616 53.6477 242.733 55.0829C245.582 58.7449 247.975 62.3209 249.463 66.7565C248.255 65.8737 247.059 64.955 245.818 64.1193C247.398 67.2377 249.344 70.1797 250.559 73.4777C249.49 72.8407 248.438 72.1644 247.358 71.5466C249.034 73.9373 250.346 76.69 251.157 79.495C250.283 78.7187 249.402 77.9487 248.538 77.1611C249.496 79.8432 250.234 82.6585 251.33 85.2795L251.286 85.4225L250.378 84.9694C251.028 85.622 252.705 90.5084 253.276 91.7198L251.797 89.5664L251.641 96.6528C250.137 96.0455 248.662 95.4145 247.044 95.1818C246.064 94.1966 244.913 93.3887 243.779 92.5926C243.934 91.507 243.821 90.3468 243.896 89.2415C245.765 90.1108 247.18 91.5024 248.947 92.4735C247.481 90.9702 245.746 89.8987 243.914 88.8949C244.11 88.5462 244.288 88.1872 244.47 87.8316C244.88 86.6256 245.162 85.3844 246.152 84.5132C246.068 83.9349 246.048 83.3494 246.013 82.7668C246.416 82.9196 246.945 83.2006 247.371 83.2292C247.284 83.0133 246.69 82.8091 246.463 82.6968C245.144 82.2091 243.822 81.9233 242.436 81.6963C243.332 75.0434 240.264 71.7735 238.552 66.0023C237.917 63.8608 237.822 61.5857 237.445 59.3908C236.192 52.0958 230.846 45.6553 224.929 41.4702L223.621 40.7293Z" fill="#8D1F0C"/>
<path d="M246.149 84.5156C246.28 85.2955 246.311 86.1014 245.841 86.7826C245.579 87.1623 245.345 87.3737 244.932 87.5802C244.775 87.6584 244.621 87.7503 244.467 87.8341C244.876 86.628 245.159 85.3868 246.149 84.5156Z" fill="#691106"/>
<path d="M224.924 41.4735C225.503 41.3259 226.188 41.7912 226.698 42.094C229.122 43.5319 231.179 45.5324 232.983 47.6764C239.018 54.8438 238.923 59.1658 241.987 67.2964C243.302 70.788 245.285 74.1675 246.193 77.7864C246.511 79.0545 246.953 81.4926 246.458 82.7C245.139 82.2123 243.817 81.9264 242.431 81.6995C243.327 75.0466 240.259 71.7767 238.547 66.0055C237.912 63.864 237.817 61.5888 237.44 59.394C236.187 52.0991 230.841 45.6586 224.924 41.4735Z" fill="#691106"/>
<path d="M196.709 82.5173C198.375 80.2254 200.508 77.8131 202.913 76.2739C203.486 75.9075 204.225 75.4226 204.911 75.576C204.916 76.9757 205.015 78.3654 205.166 79.7567C206.213 83.2015 208.615 83.3765 211.101 85.3491C212.487 86.4495 213.689 87.7955 214.894 89.0872L214.902 90.8031C214.899 91.7795 215.104 93.6514 214.435 94.4015C213.194 95.7911 206.859 97.8105 205.029 97.7625C203.859 97.7317 202.573 97.2364 201.603 96.5806L201.489 96.7298C201.409 96.6738 201.33 96.616 201.248 96.5621C200.28 95.9276 199.649 94.9883 198.699 94.3734C198.399 94.1791 198.236 94.1914 197.902 94.2652C197.621 94.6035 197.661 94.7908 197.621 95.2205C197.573 94.8383 197.6 94.6303 197.351 94.3297C196.998 94.6231 196.896 95.3047 196.846 95.7551C196.258 94.8531 195.725 93.9382 195.212 92.9917C190.401 95.2809 187.268 98.6301 185.467 103.672C185.141 104.584 184.887 105.502 184.66 106.442C184.439 107.388 184.558 108.863 184.027 109.668L184.001 109.434L184.146 109.429L183.955 109.31C184.282 108.39 184.3 107.136 184.432 106.155C183.288 105.077 181.64 100.421 181.247 98.7728C180.48 99.7551 179.683 100.726 179.045 101.8L178.937 101.983C179.321 100.72 180.12 99.7041 180.902 98.6638C180.585 97.9397 180.391 97.0851 180.128 96.3292C179.642 94.9346 179.105 93.5573 178.576 92.1787C177.665 92.6839 176.772 93.1952 175.795 93.565C176.617 92.9797 177.505 92.5072 178.385 92.0173C178.004 91.0797 177.623 90.144 177.313 89.1794C176.502 89.6169 175.387 90.0551 174.678 90.6198C174.613 90.6714 174.555 90.7315 174.494 90.7875L174.353 90.7021L174.277 90.8042L174.576 90.5814L174.319 90.6243L174.404 90.6723C175.264 90.0203 176.142 89.4707 177.08 88.9361C181.06 87.0635 184.892 86.2436 189.234 85.7818C191.094 85.624 193.031 85.7038 194.887 85.9126C195.346 84.6901 195.971 83.5913 196.709 82.5173Z" fill="#FECB73"/>
<path d="M194.713 86.4531L195.492 86.5796C197.103 86.8101 198.385 87.3394 199.841 88.0455C198.914 87.987 197.894 87.8872 197.014 87.5779C196.379 87.4959 195.742 87.4289 195.105 87.3619C195.288 87.236 195.206 87.3207 195.329 87.087L194.713 86.4531Z" fill="#EF9015"/>
<path d="M189.51 86.1977C190.965 86.1994 192.424 86.165 193.874 86.3118L194.552 86.3793L194.712 86.4462L195.329 87.0801C195.205 87.314 195.287 87.2291 195.104 87.355L194.142 87.6435C193.124 87.651 192.038 87.7678 191.042 87.9769C190.573 87.3519 190.03 86.7803 189.51 86.1977Z" fill="#EF9015"/>
<path d="M194.554 86.3828L194.714 86.4498L195.331 87.0836C195.207 87.3175 195.289 87.2326 195.106 87.3586L194.145 87.647C194.211 87.1615 194.324 86.815 194.554 86.3828Z" fill="#EF9015"/>
<path d="M194.887 85.9029C195.346 84.6806 195.971 83.5818 196.709 82.5078C197.555 83.8801 198.089 85.4525 198.812 86.8938C197.551 86.4615 196.218 86.0334 194.887 85.9029Z" fill="#F8B64E"/>
<path d="M193.576 90.8325C195.421 90.0943 197.515 89.9014 199.473 90.1698C199.622 90.5098 199.691 90.5962 199.638 90.9577C198.533 91.9939 196.197 91.7335 194.877 92.6374C194.435 92.041 193.998 91.4438 193.576 90.8325Z" fill="#F8B64E"/>
<path d="M195.211 92.9907C196.02 92.4581 198.574 91.6534 199.544 91.8293C199.788 91.8735 199.954 91.9526 200.163 92.0785C199.869 92.3176 197.841 92.5017 197.35 92.5709L197.305 92.7463C197.534 92.9197 197.602 93.0731 197.917 93.0089C197.965 92.9987 198.193 92.8698 198.226 92.8528C198.874 92.5191 199.882 92.2612 200.601 92.473C200.826 92.5394 200.822 92.6193 200.938 92.802C200.776 93.5929 199.847 94.0641 199.227 94.4965C200.019 95.182 200.854 95.8481 201.601 96.5796L201.487 96.7288C201.407 96.6728 201.329 96.615 201.247 96.5611C200.279 95.9266 199.648 94.9873 198.698 94.3724C198.398 94.1781 198.235 94.1904 197.9 94.2642C197.62 94.6025 197.659 94.7898 197.619 95.2195C197.572 94.8373 197.599 94.6293 197.349 94.3287C196.997 94.6221 196.894 95.3037 196.844 95.7541C196.257 94.8521 195.724 93.9371 195.211 92.9907Z" fill="#F8B64E"/>
<path d="M191.324 88.3253C193.472 88.053 196.998 87.3434 198.878 88.7662C199.066 88.9084 199.233 89.0804 199.396 89.2503L199.382 89.4237C199.057 89.4713 198.735 89.5154 198.407 89.5475C196.851 89.6169 194.636 89.7006 193.24 90.4339C192.623 89.7055 191.99 89.0093 191.324 88.3253Z" fill="#F8B64E"/>
<path d="M177.316 89.1843C180.724 87.3181 185.643 86.1875 189.512 86.2113C190.032 86.7939 190.575 87.3654 191.044 87.9907C186.553 88.7744 182.476 89.9906 178.387 92.0224C178.007 91.0846 177.626 90.1489 177.316 89.1843Z" fill="#691106"/>
<path d="M178.578 92.1729C181.893 90.125 187.488 88.8125 191.323 88.3281C191.989 89.0122 192.622 89.7084 193.239 90.4368C188.355 92.2177 184.251 94.5923 180.904 98.6583C180.586 97.9341 180.393 97.0796 180.13 96.3236C179.644 94.9289 179.107 93.5516 178.578 92.1729Z" fill="#691106"/>
<path d="M181.25 98.7809C184.928 94.4781 188.457 92.8637 193.576 90.8438C193.998 91.4552 194.435 92.0522 194.877 92.6486C190.051 95.2204 186.663 98.5132 185.022 103.863C184.789 104.622 184.596 105.386 184.435 106.163C183.291 105.085 181.643 100.43 181.25 98.7809Z" fill="#691106"/>
<path d="M201.019 39.8594C202.129 40.1494 203.241 40.474 204.302 40.9113C208.347 42.5767 211.472 45.308 213.179 49.3597C214.825 45.7775 217.326 42.7285 221.002 41.046C221.895 40.6373 222.671 40.3621 223.62 40.729L224.927 41.4699C230.844 45.655 236.19 52.0955 237.443 59.3905C237.82 61.5854 237.915 63.8605 238.55 66.002C240.262 71.7732 243.33 75.0432 242.434 81.696C238.547 81.8566 234.923 82.2468 231.282 83.7429C229.903 79.8797 227.981 77.1894 224.238 75.3153C224.668 76.7776 224.999 78.1608 225.075 79.6866L225.041 80.1473C224.894 81.4577 224.558 82.1928 223.51 83.0153C222.355 83.9216 220.943 84.4499 219.779 85.3385C218.332 86.4433 217.236 87.9054 215.87 89.0818C215.871 88.8102 215.835 88.5392 215.809 88.2689C215.793 88.3068 215.773 88.3436 215.759 88.3822C215.669 88.6278 215.653 88.8809 215.622 89.1393L215.458 89.2153C215.307 89.1321 215.142 89.0567 215.006 88.9511C215.019 89.4172 215.163 90.415 214.904 90.8009L214.895 89.085C213.69 87.7933 212.489 86.4473 211.102 85.3469C208.617 83.3743 206.215 83.1993 205.167 79.7546C205.017 78.3633 204.918 76.9736 204.913 75.5738C204.227 75.4204 203.487 75.9053 202.915 76.2717C200.509 77.8109 198.377 80.2232 196.71 82.5151C195.973 83.5891 195.348 84.6879 194.888 85.9101C193.033 85.7013 191.095 85.6214 189.235 85.7793C187.688 84.2571 185.775 82.8422 183.773 81.9778C182.879 81.5917 181.953 81.3091 181.072 80.8842L180.927 80.8126C179.772 77.583 183.277 71.7487 184.574 68.6753C185.006 67.6544 185.328 66.6238 185.606 65.5519C186.161 63.0671 186.145 60.5024 186.489 57.9885C187.326 51.8497 191.858 46.9623 196.21 42.899C197.71 41.6541 199.227 40.6357 201.019 39.8594Z" fill="#EF9015"/>
<path d="M222.424 57.8594L222.543 57.9203C222.556 57.9812 222.596 58.0426 222.581 58.103C222.526 58.3256 222.09 58.8371 221.954 59.0567C221.207 60.2551 220.523 61.4891 220.247 62.885L220.177 62.9326C219.977 62.5448 220.198 61.673 220.303 61.2408C220.657 59.7907 221.089 58.6594 222.424 57.8594Z" fill="#D1751C"/>
<path d="M225.318 60.8173C225.497 60.2917 225.599 59.9962 226.131 59.7284C226.964 59.3091 227.967 59.4181 228.816 59.7268C228.953 59.7767 229.087 59.8316 229.223 59.8845L229.34 59.9295C230.13 60.8545 231.138 62.417 230.932 63.6958C230.89 63.9513 230.803 64.1027 230.663 64.3138C230.457 63.5361 230.157 62.5655 229.62 61.9511C229.421 61.7244 229.525 61.7933 229.202 61.7652C229.469 62.4287 229.472 63.0772 229.384 63.7795L229.363 63.9423L229.258 63.9675C229.329 63.515 229.385 62.992 229.273 62.5431C229.113 61.8946 228.619 61.5807 228.077 61.2715C227.152 60.8956 226.302 60.8209 225.318 60.8173Z" fill="#D1751C"/>
<path d="M226.459 52.8655C226.825 52.8298 227.195 52.789 227.562 52.7823C229.02 52.7571 230.429 53.1755 231.458 54.2488C233 55.8574 233.162 58.0095 233.09 60.1085C232.769 58.7999 232.541 57.7904 231.711 56.6948C229.537 55.0794 227.756 55.337 225.326 56.0796C224.829 56.2313 224.266 56.4402 223.741 56.3922C223.34 56.3557 223.223 56.2619 222.965 55.968C222.889 55.5885 222.841 55.378 223.034 55.0158C223.632 53.8942 225.328 53.2579 226.459 52.8655Z" fill="url(#paint1_linear_4348_14925)"/>
<path d="M196.995 52.5807C197.525 52.5349 198.078 52.5495 198.605 52.6252C200.162 52.8489 201.924 53.5494 202.821 54.9176C203.007 55.2013 203.058 55.3737 202.991 55.7002C201.795 56.7521 199.367 55.5441 198.015 55.3177C197.532 55.2367 197.016 55.2544 196.526 55.2549C194.586 55.6377 193.367 56.5963 192.051 57.9955C192.278 57.1102 192.497 56.2279 192.956 55.4289C193.884 53.8128 195.252 53.0568 196.995 52.5807Z" fill="url(#paint2_linear_4348_14925)"/>
<path d="M225.32 60.8203C226.304 60.8239 227.154 60.8985 228.079 61.2745C228.621 61.5839 229.114 61.8977 229.275 62.5461C229.387 62.995 229.331 63.518 229.26 63.9706L229.365 63.9453L229.386 63.7825C229.474 63.0803 229.471 62.4319 229.204 61.7683C229.527 61.7962 229.423 61.7273 229.621 61.9541C230.159 62.5685 230.459 63.5391 230.665 64.3168C230.764 65.3813 231.001 66.4694 230.785 67.5319C230.52 68.8354 229.821 70.1113 228.691 70.8512C227.636 71.5408 226.252 71.7604 225.033 71.4496C223.943 71.172 223.082 70.4606 222.511 69.5035C221.574 67.9335 221.416 66.0497 221.906 64.3069C222.037 63.8418 222.187 63.3967 222.626 63.1475C222.651 63.1048 222.684 63.066 222.7 63.0194C222.77 62.8168 222.766 62.6525 222.871 62.4455C223.337 61.5247 224.416 61.1394 225.32 60.8203Z" fill="url(#paint3_linear_4348_14925)"/>
<path d="M222.317 64.2635C222.921 65.4836 223.41 66.8435 224.852 67.2878C225.573 67.5101 226.333 67.3962 226.985 67.0262C228.089 66.4006 228.718 65.2233 229.417 64.2109C229.42 64.2543 229.424 64.2976 229.425 64.341C229.438 65.5655 228.982 66.8664 228.084 67.7171C227.329 68.4328 226.273 68.8249 225.232 68.7363C224.37 68.6628 223.566 68.2503 223.019 67.5771C222.243 66.6226 222.18 65.4336 222.317 64.2635Z" fill="#95C15C"/>
<path d="M225.318 60.8203C226.302 60.8239 227.152 60.8985 228.077 61.2745C228.619 61.5839 229.112 61.8977 229.273 62.5461C229.385 62.995 229.329 63.518 229.257 63.9706L229.363 63.9453L229.415 64.2145C228.715 65.2268 228.086 66.404 226.982 67.0297C226.33 67.3996 225.571 67.5136 224.849 67.2913C223.408 66.847 222.918 65.4871 222.314 64.267L222.624 63.1476C222.649 63.1049 222.682 63.0661 222.698 63.0195C222.768 62.8169 222.764 62.6526 222.869 62.4457C223.335 61.5247 224.414 61.1394 225.318 60.8203Z" fill="#260F00"/>
<path d="M228.078 61.2656C228.62 61.575 229.114 61.8888 229.275 62.5372C229.386 62.9861 229.33 63.5091 229.259 63.9617C229.126 64.1192 229 64.2284 228.83 64.3499C228.524 64.5683 228.192 64.6402 227.823 64.5686C227.388 64.4839 227.059 64.2308 226.831 63.8559C226.612 63.4956 226.536 62.9959 226.67 62.5907C226.9 61.8948 227.443 61.5559 228.078 61.2656Z" fill="#FCFAF4"/>
<path d="M193.509 63.5524C193.494 62.888 193.812 62.2654 194.202 61.7399C194.834 60.8884 195.851 60.3333 196.894 60.1837C198.183 59.9993 199.858 60.3184 200.933 61.0971C201.996 61.8229 202.331 62.5164 202.779 63.6988C203.016 64.8009 203.263 65.7114 203.063 66.8612C202.816 68.2812 201.975 69.5084 200.786 70.3133C199.589 71.1247 198.078 71.4792 196.652 71.1909C195.492 70.9563 194.485 70.2587 193.863 69.2499C192.709 67.3745 193.037 65.556 193.509 63.5524Z" fill="#260F00"/>
<path d="M200.936 61.1016C201.999 61.8274 202.335 62.5209 202.783 63.7033L202.336 63.6553C202.165 63.8868 201.952 64.1275 201.812 64.3767C201.555 64.433 201.295 64.4558 201.032 64.4418C200.628 64.4201 200.22 64.2321 199.985 63.8926C199.76 63.5694 199.711 63.1619 199.772 62.7815C199.894 62.0077 200.316 61.5368 200.936 61.1016Z" fill="#FCFAF4"/>
<path d="M196.429 67.8557C196.359 67.6191 196.413 67.6935 196.248 67.5278C195.775 67.0512 195.406 66.6367 195.176 65.9919C194.841 65.0516 194.755 63.6199 195.183 62.7031L195.397 62.9181L195.218 62.8632C195.317 63.3936 195.414 63.9293 195.541 64.4536C195.755 65.3406 196.295 66.0993 197.096 66.5519C197.753 66.9237 198.491 67.0804 199.226 66.8622C200.44 66.5017 201.264 65.5733 201.862 64.5034L201.81 64.3862C201.95 64.137 202.164 63.8963 202.334 63.6647C202.495 64.9603 202.413 65.8765 201.564 66.9336C200.952 67.6953 199.928 68.3674 198.936 68.4629C198.178 68.5356 197.023 68.3685 196.429 67.8557Z" fill="#95C15C"/>
<path d="M193.509 63.5564C194.086 62.2707 194.985 61.0317 196.337 60.4766L196.502 60.5086C195.392 62.0114 194.292 63.1041 194.594 65.1731C194.746 66.217 195.461 67.1728 196.308 67.7649C196.348 67.7924 196.387 67.8188 196.427 67.8457C197.021 68.3585 198.175 68.5256 198.934 68.4526C199.925 68.3571 200.95 67.6851 201.562 66.9233C202.411 65.8663 202.493 64.95 202.332 63.6545L202.779 63.7025C203.016 64.8046 203.263 65.7151 203.063 66.8649C202.816 68.2849 201.975 69.5121 200.786 70.317C199.588 71.1284 198.078 71.483 196.652 71.1946C195.492 70.96 194.485 70.2624 193.863 69.2536C192.709 67.3784 193.037 65.5599 193.509 63.5564Z" fill="url(#paint4_linear_4348_14925)"/>
<path d="M204.912 75.5669C205.279 74.4815 205.44 72.8867 205.862 71.5936C206.74 68.9076 208.175 65.4854 210.888 64.1811C212.375 63.4662 214.361 63.5548 215.878 64.1316C220.172 65.7652 222.535 71.3844 224.237 75.3083C224.667 76.7706 224.998 78.1537 225.074 79.6795L225.04 80.1403C224.893 81.4506 224.557 82.1857 223.509 83.0082C222.354 83.9146 220.942 84.4428 219.778 85.3314C218.331 86.4362 217.235 87.8983 215.869 89.0747C215.87 88.8031 215.834 88.5321 215.808 88.2618C215.792 88.2997 215.772 88.3365 215.758 88.3752C215.668 88.6207 215.652 88.8738 215.621 89.1323L215.457 89.2082C215.306 89.125 215.141 89.0496 215.005 88.944C215.018 89.4102 215.162 90.408 214.903 90.7938L214.894 89.0779C213.689 87.7862 212.488 86.4402 211.101 85.3398C208.616 83.3673 206.214 83.1922 205.166 79.7475C205.016 78.3563 204.917 76.9666 204.912 75.5669Z" fill="#D1751C"/>
<path d="M209.686 79.2891L209.865 79.3022C211.838 79.4605 213.767 79.972 215.752 80.0079C218.767 80.0628 222.159 78.9116 225.077 79.6791L225.043 80.1399C223.607 80.0567 222.47 80.4695 221.156 80.9744C220.941 80.7529 220.916 80.5881 220.571 80.6371C220.141 80.6983 219.569 81.0169 219.152 81.1727C217.89 81.6455 216.575 81.6894 215.246 81.5154C213.559 81.2948 210.763 80.6724 209.686 79.2891Z" fill="url(#paint5_linear_4348_14925)"/>
<path d="M205.637 79.5877C206.939 79.1798 208.334 79.2778 209.682 79.299C210.759 80.6823 213.555 81.3046 215.242 81.5256C216.571 81.6996 217.886 81.6556 219.149 81.1829C219.565 81.0271 220.138 80.7085 220.567 80.6473C220.912 80.5982 220.937 80.7631 221.153 80.9846C219.378 81.621 217.214 82.3651 216.388 84.215C215.845 85.4307 215.831 86.9578 215.808 88.2716C215.792 88.3095 215.772 88.3463 215.758 88.385C215.668 88.6306 215.652 88.8836 215.621 89.1421L215.457 89.2181C215.306 89.1349 215.141 89.0594 215.005 88.9538C215.086 87.338 215.244 85.575 214.607 84.0423C213.65 81.739 210.382 80.5454 208.094 80.119C207.397 79.989 206.5 80.006 205.86 79.7022C205.785 79.6661 205.711 79.6258 205.637 79.5877Z" fill="#260F00"/>
<path d="M221.151 80.978C222.465 80.4731 223.602 80.0603 225.038 80.1435C224.891 81.4539 224.555 82.189 223.507 83.0115C222.352 83.9178 220.941 84.4461 219.776 85.3347C218.329 86.4395 217.234 87.9016 215.867 89.078C215.868 88.8064 215.832 88.5354 215.807 88.2651C215.829 86.9511 215.843 85.4241 216.386 84.2085C217.213 82.3586 219.376 81.6143 221.151 80.978Z" fill="#691106"/>
<path d="M205.166 79.7477L205.637 79.5781C205.711 79.6162 205.785 79.6566 205.86 79.6925C206.5 79.9963 207.397 79.9793 208.094 80.1093C210.381 80.5357 213.65 81.7291 214.607 84.0327C215.244 85.5653 215.085 87.3284 215.005 88.9441C215.018 89.4103 215.162 90.4081 214.902 90.7939L214.894 89.078C213.689 87.7864 212.487 86.4403 211.101 85.3399C208.615 83.3675 206.214 83.1924 205.166 79.7477Z" fill="#691106"/>
<path d="M224.236 75.3203C227.98 77.1943 229.901 79.8847 231.28 83.7479C234.922 82.2518 238.545 81.8615 242.432 81.701C243.819 81.9279 245.141 82.214 246.46 82.7015C246.686 82.8137 247.281 83.0179 247.368 83.2339C246.942 83.2053 246.413 82.9243 246.01 82.7714C246.044 83.3541 246.065 83.9396 246.149 84.5178C245.159 85.3892 244.876 86.6302 244.467 87.8363C244.284 88.192 244.106 88.5509 243.911 88.8996C245.743 89.9035 247.478 90.975 248.943 92.4782C247.177 91.507 245.761 90.1154 243.893 89.2462C243.817 90.3515 243.931 91.5117 243.776 92.5973C244.909 93.3934 246.06 94.2013 247.041 95.1864C248.503 96.645 250.23 98.6956 250.985 100.644L250.839 100.711C249.214 98.0306 247.373 95.7238 244.769 93.9132L244.825 94.1371C245.157 95.4233 245.63 96.5034 245.722 97.8731C246.151 104.287 241.856 112.987 238.686 118.535C236.618 122.156 234.334 125.386 231.738 128.637C231.25 129.249 230.611 130.263 229.93 130.653C226.413 134.987 221.692 138.512 217.187 141.744C214.159 137.648 211.408 133.696 207.652 130.198C202.58 125.474 196.719 121.714 191.94 116.648C190.085 114.682 188.407 112.431 186.975 110.137C186.236 108.951 185.587 107.647 184.736 106.541C184.711 106.509 184.686 106.477 184.66 106.444C184.887 105.505 185.142 104.586 185.467 103.675C187.268 98.6329 190.402 95.2835 195.213 92.9945C195.726 93.9409 196.259 94.8559 196.846 95.7578C196.896 95.3075 196.999 94.6259 197.351 94.3325C197.601 94.6329 197.574 94.8409 197.621 95.2233C197.661 94.7935 197.622 94.6064 197.902 94.268C198.237 94.1942 198.4 94.1818 198.7 94.3762C199.65 94.9911 200.281 95.9304 201.249 96.5649C201.331 96.6187 201.409 96.6766 201.489 96.7326L201.603 96.5833C202.573 97.2392 203.86 97.7345 205.03 97.7653C206.859 97.8133 213.195 95.7939 214.435 94.4042C215.105 93.6542 214.899 91.7823 214.903 90.8058C215.162 90.42 215.018 89.4222 215.005 88.956C215.141 89.0616 215.306 89.1371 215.457 89.2203L215.621 89.1443C215.652 88.8858 215.667 88.6328 215.758 88.3872C215.772 88.3486 215.791 88.3117 215.808 88.2739C215.834 88.5442 215.87 88.815 215.869 89.0867C217.235 87.9103 218.331 86.4483 219.778 85.3435C220.942 84.4549 222.353 83.9266 223.508 83.0202C224.556 82.1979 224.893 81.4626 225.039 80.1523L225.073 79.6915C224.998 78.1657 224.666 76.7826 224.236 75.3203Z" fill="url(#paint6_linear_4348_14925)"/>
<path d="M196.85 95.7535C196.9 95.3031 197.002 94.6215 197.355 94.3281C197.605 94.6286 197.577 94.8366 197.625 95.2189C197.856 96.0806 198.057 96.9093 198.515 97.6848L198.094 98.2276C197.82 97.2839 197.45 96.5334 196.85 95.7535Z" fill="#EF9015"/>
<path d="M244.067 93.4375C244.295 93.5909 244.565 93.7382 244.773 93.9158L244.828 94.1397C245.161 95.4259 245.634 96.506 245.725 97.8757C246.155 104.289 241.86 112.99 238.69 118.538C236.622 122.159 234.338 125.389 231.742 128.64C231.253 129.251 230.614 130.266 229.934 130.655C229.936 130.255 234.522 124.684 235.112 123.857C238.009 119.798 240.71 114.62 242.58 110.01C242.729 109.642 243.082 109.357 243.153 108.966C243.204 108.685 243.135 108.354 243.088 108.076C242.91 107.02 242.805 105.967 242.487 104.942L242.409 104.99C241.858 109.759 237.546 115.783 234.512 119.518C234.497 118.03 234.584 116.534 234.511 115.049C234.3 115.144 234.289 115.09 234.238 115.312C233.97 116.488 233.082 119.316 232.559 120.361C232.68 119.444 232.928 118.37 233.33 117.536C233.846 116.469 234.089 115.297 234.604 114.219C234.775 115.804 234.726 117.402 234.67 118.991C237.454 115.809 240.008 111.77 241.471 107.809C241.89 106.676 242.014 105.413 242.473 104.306C242.506 104.227 242.54 104.15 242.573 104.072C242.639 104.377 242.673 104.579 242.821 104.855C242.783 104.133 242.575 103.477 242.373 102.789C242.462 102.685 242.571 102.594 242.639 102.475C242.987 101.864 244.133 94.4663 244.067 93.4375Z" fill="#8D1F0C"/>
<path d="M198.511 97.6875C198.54 97.7122 198.57 97.7361 198.599 97.7616C199.887 98.9047 200.959 100.279 202.311 101.374C206.213 104.533 211.942 106.11 216.907 105.907C221.181 105.732 223.406 104.843 226.307 101.661C226.74 101.185 227.202 100.524 227.744 100.18C227.273 101.908 226.808 103.702 225.939 105.28C224.769 107.406 222.896 108.741 220.579 109.395C215.86 110.727 208.462 110.524 204.126 108.027C200.317 105.834 199.188 102.217 198.09 98.2303L198.511 97.6875Z" fill="#F8B64E"/>
<path d="M224.238 75.3203C227.982 77.1943 229.903 79.8847 231.282 83.7479C234.924 82.2518 238.548 81.8615 242.435 81.701C243.821 81.9279 245.143 82.214 246.462 82.7015C246.689 82.8137 247.283 83.0179 247.37 83.2339C246.944 83.2053 246.415 82.9243 246.012 82.7715C246.046 83.3541 246.067 83.9396 246.151 84.5178C245.161 85.3892 244.878 86.6302 244.469 87.8363C244.286 88.192 244.108 88.5509 243.913 88.8996C245.745 89.9035 247.48 90.975 248.945 92.4782C247.179 91.507 245.763 90.1154 243.895 89.2462C243.82 90.3515 243.933 91.5117 243.778 92.5973C244.911 93.3934 246.062 94.2013 247.043 95.1864C248.505 96.645 250.232 98.6956 250.987 100.644L250.841 100.711C249.216 98.0306 247.375 95.7238 244.771 93.9132C244.563 93.7356 244.294 93.5883 244.065 93.4349C244.131 94.4637 242.985 101.861 242.637 102.473C242.569 102.592 242.46 102.682 242.371 102.787C242.573 103.475 242.781 104.131 242.819 104.852C242.671 104.577 242.637 104.374 242.571 104.07C242.215 103.185 241.833 102.313 241.407 101.46C239.182 97.0029 235.81 94.1588 231.133 92.5719C230.562 94.172 230.048 95.8127 229.296 97.3393C228.794 98.2932 228.307 99.2594 227.747 100.181C227.205 100.525 226.743 101.187 226.31 101.662C223.409 104.845 221.184 105.734 216.91 105.909C211.944 106.112 206.215 104.535 202.314 101.376C200.962 100.281 199.89 98.9064 198.602 97.7631C198.573 97.7376 198.543 97.7136 198.513 97.689C198.055 96.9135 197.854 96.0848 197.623 95.2231C197.663 94.7934 197.623 94.6063 197.904 94.2679C198.239 94.1941 198.401 94.1817 198.701 94.376C199.651 94.991 200.282 95.9303 201.251 96.5648C201.332 96.6186 201.411 96.6764 201.491 96.7325L201.605 96.5832C202.575 97.2391 203.861 97.7344 205.032 97.7652C206.861 97.8132 213.197 95.7938 214.437 94.4041C215.106 93.6541 214.901 91.7821 214.904 90.8057C215.164 90.4199 215.02 89.4221 215.007 88.9559C215.143 89.0615 215.308 89.137 215.459 89.2201L215.623 89.1442C215.653 88.8857 215.669 88.6327 215.76 88.3871C215.774 88.3484 215.793 88.3116 215.81 88.2737C215.836 88.5441 215.872 88.8149 215.87 89.0866C217.237 87.9102 218.332 86.4481 219.78 85.3433C220.944 84.4547 222.355 83.9265 223.51 83.0201C224.558 82.1977 224.895 81.4625 225.041 80.1522L225.075 79.6914C225 78.1657 224.668 76.7826 224.238 75.3203Z" fill="#FECB73"/>
<path d="M229.119 91.5744C230.071 90.9513 230.525 90.5475 231.721 90.6074L231.214 92.168L229.119 91.5744Z" fill="#F8B64E"/>
<path d="M230.073 89.7931C230.708 89.7152 231.338 89.5521 231.963 89.4141L231.803 90.3172L231.741 90.3019C231.185 90.1583 230.826 90.2044 230.266 90.314C229.577 90.7495 229.019 91.2133 228.19 91.2827L228.09 91.1405C228.625 90.4058 229.266 90.1459 230.073 89.7931Z" fill="#F8B64E"/>
<path d="M229.223 87.301C229.943 86.1188 230.846 85.1088 231.755 84.0703C232.341 84.9395 232.52 85.6548 232.609 86.6898C231.5 86.6837 230.307 87.0593 229.223 87.301Z" fill="#F8B64E"/>
<path d="M229.2 89.6708C228.859 89.7035 228.834 89.6886 228.534 89.5207C228.499 89.3137 228.439 89.2715 228.575 89.0887C229.375 88.0084 231.204 87.3915 232.466 87.1797C232.368 87.5844 232.293 88.0302 232.149 88.4189L232.218 88.929C231.232 89.3124 230.152 89.1768 229.2 89.6708Z" fill="#F8B64E"/>
<path d="M229.199 89.6749C229.315 89.4094 229.414 89.1456 229.627 88.9389C230.3 88.282 231.29 88.3786 232.148 88.423L232.217 88.9331C231.232 89.3165 230.151 89.1809 229.199 89.6749Z" fill="#F8B64E"/>
<path d="M228.391 91.8203C229.294 92.1491 230.196 92.36 231.134 92.564C230.562 94.1641 230.048 95.8048 229.297 97.3314C228.884 95.8438 229.162 94.2107 228.23 92.8718C228.023 92.9846 228.108 92.9108 227.947 93.1523C227.904 93.2159 227.864 93.2812 227.822 93.3457L227.597 93.3778L227.525 93.1526C227.766 92.6691 228.073 92.2544 228.391 91.8203Z" fill="#F8B64E"/>
<path d="M215.002 88.9478C215.138 89.0534 215.303 89.1288 215.454 89.212L215.618 89.1361C215.649 88.8776 215.665 88.6245 215.755 88.379C215.769 88.3403 215.789 88.3035 215.805 88.2656C215.831 88.5359 215.867 88.8068 215.866 89.0785C215.792 90.8787 215.867 92.6914 215.949 94.4903C219.461 96.6002 222.552 98.1899 226.701 97.2632C224.822 98.3065 223.246 98.472 221.178 97.8693C219.043 97.2472 217.074 96.0258 214.92 95.5206L214.709 95.4696L214.546 95.5257C211.013 96.7775 207.043 99.63 203.16 97.8074C202.565 97.5281 202.011 97.1167 201.486 96.7246L201.6 96.5753C202.57 97.2312 203.857 97.7265 205.027 97.7573C206.856 97.8053 213.192 95.7859 214.432 94.3962C215.102 93.6462 214.896 91.7743 214.9 90.7978C215.159 90.4118 215.015 89.414 215.002 88.9478Z" fill="#691106"/>
<path d="M231.758 84.0827C233.872 82.5005 239.651 82.1269 242.278 82.0781C240.875 84.2164 239.173 85.3338 236.683 85.8411C235.674 86.0466 234.274 86.1114 233.376 86.5848L232.612 86.7023C232.523 85.6671 232.344 84.9517 231.758 84.0827Z" fill="#EF9015"/>
<path d="M232.468 87.1797C236.303 87.3314 240.415 87.4327 243.896 89.2411C243.82 90.3464 243.933 91.5066 243.779 92.5922C240.285 90.4328 236.367 88.9222 232.22 88.929L232.15 88.4189C232.294 88.03 232.37 87.5843 232.468 87.1797Z" fill="#691106"/>
<path d="M242.277 82.0781C243.553 82.1638 244.782 82.4193 246.01 82.7726C246.044 83.3552 246.065 83.9408 246.149 84.519C245.159 85.3904 244.877 86.6314 244.467 87.8375C244.284 88.1932 244.107 88.5521 243.911 88.9008C241.597 87.6492 239.19 87.1129 236.587 86.9176C235.521 86.8375 234.415 86.8426 233.375 86.5847C234.272 86.1113 235.673 86.0465 236.682 85.841C239.171 85.3337 240.874 84.2163 242.277 82.0781Z" fill="#691106"/>
<path d="M231.962 89.4253C235.883 88.9426 240.962 91.1939 244.064 93.4348C244.13 94.4636 242.984 101.861 242.636 102.473C242.568 102.591 242.459 102.682 242.37 102.787C242.176 102.295 241.981 101.801 241.752 101.325C239.539 96.7026 235.974 93.861 231.215 92.1654L231.722 90.6048C232.63 90.8617 233.812 91.4388 234.718 91.5184C234.338 90.9819 232.464 90.578 231.802 90.3286L231.962 89.4253Z" fill="#691106"/>
<path d="M140.519 114.692C142.883 113.582 145.004 111.981 147.246 110.653C149.468 109.338 151.788 108.447 154.239 107.672C151.417 112.021 150.233 116.803 150.275 121.957C149.008 124.957 150.778 131.861 151.994 134.856C154.673 141.454 159.557 147.562 164.873 152.217C171.672 158.171 181.191 163.499 184.97 172.075C188.199 179.405 187.152 187.245 186.92 194.991C186.647 204.069 187.213 215.071 191.488 223.246C191.502 221.767 191.379 220.118 191.569 218.656C191.755 221.934 191.649 225.248 191.703 228.531C191.768 232.414 192.014 236.31 192.278 240.184C192.464 242.908 192.584 245.768 193.236 248.426C187.686 248.816 180.562 249.397 176.66 253.93C176.151 254.52 175.75 255.19 175.27 255.801C173.285 243.72 170.428 231.914 167.216 220.105C166.394 217.086 165.502 214.089 164.595 211.094C164.059 209.321 163.431 207.534 163.023 205.729C155.884 205.018 145.513 202.292 138.98 199.415C138.938 199.391 138.897 199.366 138.855 199.343C136.863 198.267 134.541 197.508 132.461 196.587L122.445 192.127C119.652 190.9 116.731 189.371 113.702 188.898C109.142 188.185 106.854 188.68 102.523 189.833C102.105 190.464 101.675 191.075 101.397 191.783C100.239 193.885 99.0985 195.996 97.7105 197.959C92.918 204.734 86.2007 210.358 80.1527 215.969C77.2749 218.639 73.764 221.466 71.6634 224.799C69.4123 228.371 68.3965 232.601 67.5149 236.681C66.7306 242.003 66.4729 249.064 68.3467 254.157C67.1851 254.902 65.214 255.326 64.45 256.527L64.3658 256.6C63.2874 256.583 59.465 260.186 58.5301 261.096C57.0071 262.579 55.5134 264.19 54.6567 266.158C54.601 266.064 54.5439 265.972 54.4937 265.875C53.6389 264.232 53.2183 262.257 52.924 260.443C51.732 253.092 50.6796 227.684 52.61 220.964C53.3128 218.518 55.2883 215.763 56.3975 213.323C59.4832 206.534 61.6835 199.616 62.99 192.273C64.1237 185.903 64.5297 179.376 64.9979 172.929C65.257 169.363 65.5711 162.736 66.6358 159.394C66.7522 158.827 66.8729 158.267 67.0326 157.71C65.958 159.45 64.8782 161.196 63.994 163.042C60.6118 170.106 58.6904 178.206 56.9555 185.814C53.6483 200.317 51.9804 222.844 38.1238 231.595C36.2518 232.777 34.3282 233.777 32.1622 234.293C27.9741 235.291 23.3835 234.82 19.7032 232.503C15.757 230.019 13.3998 225.905 12.3884 221.427C12.2179 220.673 12.0766 219.898 12.0538 219.124C11.6591 217.81 11.9678 215.785 12.0881 214.434C13.7979 215.419 15.0175 215.867 17.0227 215.496C16.6204 217.943 17.0862 220.652 18.0374 222.926C19.1185 225.511 20.9563 227.654 23.5939 228.725C26.256 229.804 29.2162 229.568 31.8195 228.431C34.879 227.094 37.1915 224.749 39.226 222.165C49.2114 209.482 48.9375 192.162 51.6097 176.937C52.7509 170.435 54.4835 164.157 56.8841 158.009C62.2981 144.143 73.2389 131.019 87.4413 125.729C90.5534 124.569 93.8577 123.865 97.1496 123.451C101.132 122.95 105.057 123.069 109.055 122.953C112.869 122.843 116.704 122.475 120.457 121.779C125.806 120.787 131.07 119.08 136.05 116.897C137.571 116.23 138.996 115.358 140.519 114.692Z" fill="#EF9015"/>
<path d="M161.32 187.992L162.64 188.054C162.897 190.956 163.139 193.868 163.067 196.784C163.004 199.378 162.607 202.186 162.851 204.756C162.455 204.681 162.086 204.52 161.709 204.379C160.907 200.869 161.222 197.694 161.33 194.141C161.392 192.093 161.357 190.041 161.32 187.992Z" fill="#B94210"/>
<path d="M152.301 159.68C153.699 160.831 154.817 162.647 155.857 164.121C161.315 171.857 161.493 175.933 162.377 184.954C162.478 185.983 162.573 187.015 162.64 188.047L161.321 187.985L159.415 187.963C159.781 185.261 160.2 182.497 160.078 179.763C159.763 172.73 155.91 165.571 152.301 159.68Z" fill="url(#paint7_linear_4348_14925)"/>
<path d="M159.416 187.961L161.321 187.983C161.357 190.031 161.393 192.083 161.33 194.132C161.222 197.684 160.908 200.859 161.709 204.369C159.943 203.923 158.094 203.649 156.303 203.31C157.515 200.718 158.967 191.11 159.331 187.996L159.416 187.961Z" fill="#D1751C"/>
<path d="M67.5148 236.692C67.388 236.518 67.2757 236.341 67.1989 236.138C66.5432 234.408 66.565 232.128 66.4789 230.28C66.3534 227.594 66.3296 224.603 67.4492 222.098C69.2628 218.041 78.4082 210.802 82.1633 208.033C84.7797 206.103 87.5599 204.346 90.0665 202.275C93.1048 199.764 97.066 195.17 99.2895 191.902C104.633 184.047 108.583 175.027 111.803 166.112C112.393 164.476 112.977 162.82 113.466 161.15C113.841 159.871 114.059 158.484 114.625 157.273C114.734 157.642 114.206 160.723 114.163 161.522C113.906 166.34 114.013 171.579 115.507 176.197C113.234 175.959 110.893 176.185 108.723 176.923C107.725 179.201 106.834 181.529 105.807 183.794C105.283 184.95 104.399 186.302 104.062 187.49C103.218 187.983 102.913 188.991 102.523 189.845C102.105 190.475 101.675 191.087 101.397 191.795C100.239 193.897 99.0985 196.008 97.7106 197.971C92.918 204.746 86.2008 210.369 80.1527 215.981C77.2749 218.651 73.764 221.478 71.6634 224.811C69.4123 228.383 68.3965 232.613 67.5148 236.692Z" fill="#B94210"/>
<path d="M12.0527 219.128C12.6022 219.932 12.7782 221.054 13.1302 221.966C13.5521 223.059 14.1006 224.113 14.7195 225.107C16.8899 228.593 19.8475 231.614 23.9682 232.552C28.1317 233.5 32.5012 232.172 36.0214 229.924C45.6995 223.744 50.2852 208.998 52.3354 198.24C53.6429 191.378 54.2497 184.413 55.7348 177.579C56.6341 173.442 57.6431 169.255 59.0646 165.263C62.8336 154.679 69.3876 144.703 77.3966 136.871C78.9835 135.32 80.5798 133.878 82.2935 132.474C83.0105 131.887 83.6611 131.222 84.4435 130.719C84.514 131.007 83.8631 131.516 83.6495 131.74C81.0099 134.509 78.4345 137.683 76.3501 140.888C73.6682 145.01 71.4148 149.461 69.2957 153.894C68.7058 155.129 67.5821 158.239 66.9531 159.117C66.905 159.183 66.8453 159.241 66.7912 159.303L66.766 159.441L66.6347 159.398C66.7512 158.831 66.8718 158.271 67.0315 157.714C65.957 159.454 64.8771 161.2 63.9929 163.046C60.6107 170.11 58.6893 178.21 56.9544 185.818C53.6472 200.321 51.9793 222.848 38.1228 231.599C36.2507 232.781 34.3271 233.781 32.1611 234.297C27.973 235.295 23.3824 234.824 19.7021 232.507C15.756 230.022 13.3988 225.909 12.3873 221.431C12.2167 220.677 12.0755 219.903 12.0527 219.128Z" fill="#B94210"/>
<path d="M108.724 176.91C110.894 176.172 113.234 175.947 115.508 176.185L115.714 176.244C119.642 177.408 123.441 179.296 127.289 180.726C135.486 183.774 144.046 186.083 152.711 187.315C154.882 187.624 157.137 187.949 159.332 187.986C158.967 191.099 157.515 200.707 156.303 203.3C158.095 203.639 159.944 203.913 161.71 204.359C162.087 204.5 162.456 204.661 162.853 204.736L163.024 205.728C155.885 205.017 145.514 202.291 138.981 199.414C138.939 199.39 138.898 199.365 138.855 199.342C136.864 198.266 134.542 197.507 132.462 196.587L122.445 192.126C119.653 190.899 116.732 189.37 113.703 188.897C109.143 188.184 106.854 188.679 102.523 189.832C102.913 188.978 103.219 187.971 104.063 187.478C104.4 186.29 105.283 184.937 105.807 183.781C106.834 181.516 107.725 179.188 108.724 176.91Z" fill="#F8B64E"/>
<path d="M104.063 187.494C106.382 186.814 108.441 186.462 110.856 186.767C114.69 187.251 118.472 189.024 122.009 190.512C128.259 193.141 134.384 196.175 140.686 198.653C145.797 200.662 151.023 201.881 156.303 203.316C158.095 203.656 159.944 203.929 161.71 204.376C162.087 204.517 162.456 204.678 162.853 204.753L163.024 205.745C155.885 205.033 145.514 202.308 138.981 199.431C138.939 199.407 138.898 199.381 138.855 199.358C136.864 198.283 134.542 197.524 132.462 196.603L122.445 192.143C119.653 190.915 116.732 189.387 113.703 188.914C109.143 188.201 106.854 188.696 102.523 189.849C102.913 188.995 103.219 187.988 104.063 187.494Z" fill="#691106"/>
</g>
<defs>
<linearGradient id="paint0_linear_4348_14925" x1="193.508" y1="192.424" x2="203.461" y2="8.7339" gradientUnits="userSpaceOnUse">
<stop stop-color="#69180B"/>
<stop offset="1" stop-color="#9E280D"/>
</linearGradient>
<linearGradient id="paint1_linear_4348_14925" x1="228.293" y1="52.9572" x2="228.022" y2="57.3423" gradientUnits="userSpaceOnUse">
<stop stop-color="#301201"/>
<stop offset="1" stop-color="#1D0805"/>
</linearGradient>
<linearGradient id="paint2_linear_4348_14925" x1="198.261" y1="52.7451" x2="197.489" y2="57.0256" gradientUnits="userSpaceOnUse">
<stop stop-color="#2E0B01"/>
<stop offset="1" stop-color="#160505"/>
</linearGradient>
<linearGradient id="paint3_linear_4348_14925" x1="228.738" y1="70.428" x2="225.084" y2="63.9195" gradientUnits="userSpaceOnUse">
<stop stop-color="#FFFFE0"/>
<stop offset="1" stop-color="#FFFFF7"/>
</linearGradient>
<linearGradient id="paint4_linear_4348_14925" x1="195.538" y1="70.4713" x2="199.651" y2="62.9753" gradientUnits="userSpaceOnUse">
<stop stop-color="#FFFFD4"/>
<stop offset="1" stop-color="#FFFFF2"/>
</linearGradient>
<linearGradient id="paint5_linear_4348_14925" x1="217.501" y1="78.7143" x2="217.115" y2="81.5347" gradientUnits="userSpaceOnUse">
<stop stop-color="#190700"/>
<stop offset="1" stop-color="#5D0D0B"/>
</linearGradient>
<linearGradient id="paint6_linear_4348_14925" x1="222.119" y1="89.918" x2="206.795" y2="138.016" gradientUnits="userSpaceOnUse">
<stop stop-color="#4B0100"/>
<stop offset="1" stop-color="#761B0D"/>
</linearGradient>
<linearGradient id="paint7_linear_4348_14925" x1="160.964" y1="173.517" x2="155.712" y2="174.037" gradientUnits="userSpaceOnUse">
<stop stop-color="#BE2F06"/>
<stop offset="1" stop-color="#DB540A"/>
</linearGradient>
<clipPath id="clip0_4348_14925">
<rect width="281" height="281" fill="white"/>
</clipPath>
</defs>
</svg>
