<svg width="222" height="277" viewBox="0 0 222 277" fill="none" xmlns="http://www.w3.org/2000/svg">
<path d="M87.5574 72.3869C97.436 71.6755 106.962 69.631 116.03 65.553L122.215 62.4944C123.265 61.9456 124.267 61.3088 125.371 60.8719L125.564 60.7969C124.738 62.3496 123.575 64.2436 122.401 65.5408L116.11 68.4905C107.923 71.8814 99.623 74.1047 90.8052 74.9271C89.4898 75.0499 88.163 75.2634 86.8438 75.3084L87.5574 72.3869Z" fill="#74B706"/>
<path d="M126 75.2704C126.326 74.1247 127.369 72.7383 128.062 71.7656C128.668 74.8308 129.27 77.7995 130.264 80.7736C132.488 87.4316 136.223 93.5895 140.981 98.7392C142.538 100.424 144.204 102.196 146.039 103.581C146.342 104.872 146.493 105.883 146.416 107.217L146.357 107.205C146.081 106.427 144.924 105.85 144.275 105.368C143.173 104.548 142.063 103.716 141.064 102.771C133.401 95.5189 127.856 85.683 126 75.2704Z" fill="#74B706"/>
<path d="M125.566 60.7897L125.662 60.6977C126.662 59.7198 127.49 58.51 128.336 57.3982L132.234 52.5394C137.909 46.0005 144.196 40.0695 151.305 35.1103C154.481 32.8954 157.766 30.8332 161.384 29.4062C163.446 32.1521 164.425 35.2943 164.475 38.7182C151.983 42.9354 141.627 53.1018 133.806 63.4285C131.786 66.0954 129.752 68.8703 128.064 71.7601C127.371 72.7328 126.328 74.1193 126.002 75.2649C124.358 77.7126 123.098 80.4649 121.893 83.1502C118.528 90.6478 116.207 98.1298 114.738 106.228L113.819 105.858L113.816 105.847C112.181 104.899 110.146 104.429 108.32 103.99C108.753 102.772 109.211 101.517 109.426 100.24C109.752 98.3026 109.752 96.5171 109.744 94.5601C110.328 93.438 110.569 91.9132 110.949 90.6948L113.867 82.1836C115.418 78.2473 117.343 74.2829 119.413 70.5915L122.402 65.5337C123.576 64.2364 124.739 62.3424 125.566 60.7897Z" fill="#A17933"/>
<path d="M157.158 140.352C157.604 140.982 157.78 141.623 158 142.351L160.037 143.522C162.829 144.819 165.429 146.863 167.36 149.267C168.049 150.124 168.666 151.247 169.457 151.991L169.533 152.248C169.999 153.796 170.8 155.223 171.216 156.803C172.688 162.391 171.658 168.376 169.013 173.429C166.459 178.307 161.891 181.95 156.656 183.561C155.59 183.889 154.519 184.118 153.406 184.206L150.58 184.307C150.517 184.307 149.914 184.287 149.876 184.313C149.794 184.367 149.758 184.469 149.7 184.547C149.234 181.801 147.659 179.449 145.951 177.33C143.763 175.12 141.637 173.31 138.784 171.987C138.214 171.508 136.983 171.262 136.258 171.024C137.935 169.283 139.05 167.143 140.008 164.948C141.633 160.157 141.43 155.135 139.692 150.402C140.884 149.487 142.014 148.866 143.401 148.307C144.435 147.891 145.63 147.616 146.513 146.922C149.378 146.075 151.928 144.91 154.3 143.078L155.871 141.708L157.158 140.352Z" fill="#A852C9"/>
<path d="M157.162 140.352C157.607 140.982 157.784 141.623 158.004 142.351C157.341 142.049 156.578 141.899 155.875 141.708L157.162 140.352Z" fill="#74B706"/>
<path d="M146.516 146.922C149.381 146.075 151.931 144.91 154.303 143.078C155.818 147.623 155.38 152.34 153.233 156.609C151.55 159.958 148.627 162.829 145.028 164.032C143.389 164.58 141.716 164.754 140.01 164.948C141.636 160.157 141.433 155.135 139.695 150.402C140.887 149.487 142.016 148.866 143.404 148.307C144.438 147.891 145.632 147.616 146.516 146.922Z" fill="#BB74DC"/>
<path d="M160.039 143.523C162.832 144.82 165.431 146.864 167.362 149.268C168.051 150.125 168.668 151.248 169.46 151.992L169.535 152.249C170.001 153.797 170.803 155.224 171.219 156.804C172.69 162.392 171.66 168.377 169.015 173.43C166.461 178.309 161.893 181.952 156.658 183.562C155.592 183.89 154.522 184.119 153.409 184.207L150.582 184.308C150.519 184.309 149.916 184.288 149.878 184.314C149.797 184.368 149.761 184.47 149.702 184.548C149.236 181.802 147.662 179.45 145.953 177.331C148.275 177.097 150.423 176.703 152.597 175.816C157.577 173.785 161.969 170.026 164.081 165C166.529 159.176 166.445 152.547 162.851 147.183C162.412 146.529 161.925 145.92 161.382 145.349C160.961 144.904 160.333 144.397 160.128 143.81L160.039 143.523Z" fill="#8C3FAD"/>
<path d="M75.5508 0.30576L75.8661 0C78.4049 1.09857 80.6899 2.63202 82.8636 4.32872C88.7049 8.88834 93.1271 14.6155 96.0668 21.4265C96.8856 20.0217 97.7223 18.8766 98.8707 17.7269C103.71 20.6926 106.56 26.1423 107.844 31.53C109.67 39.1927 108.344 47.208 104.189 53.8954C101.352 58.4618 97.377 62.6911 93.1755 66.0514L88.1096 69.8202C88.1047 68.1327 88.3182 66.437 88.4105 64.751L88.5256 56.1992C88.4071 52.4797 87.9427 48.7408 87.4359 45.0558C86.1514 35.7197 83.9765 26.5151 81.3288 17.4769L77.1161 4.83907C76.6244 3.3893 75.948 1.93395 75.5849 0.451751L75.5508 0.30576Z" fill="#4B9402"/>
<path d="M124.951 118.093C125.868 116.264 126.922 114.619 128.282 113.085C131.612 109.33 136.875 107.264 141.818 107.069C143.247 107.013 144.754 107.329 146.143 107.225L146.356 107.207L146.415 107.219C146.828 107.457 147.192 107.573 147.654 107.687C149.082 108.197 150.583 108.698 151.806 109.623C156.273 112.055 159.601 116.737 161.032 121.557L161.515 123.473C162.213 128.556 161.583 133.042 159.01 137.528C158.449 138.506 157.73 139.381 157.158 140.354L155.872 141.71L154.301 143.08C151.929 144.912 149.379 146.077 146.513 146.924C145.63 147.618 144.436 147.893 143.401 148.309C142.014 148.868 140.884 149.489 139.693 150.404C139.209 149.299 138.726 148.241 138.097 147.208C137.309 146.637 136.552 145.254 135.88 144.492C134.572 143.01 132.959 141.647 131.359 140.493L130.474 139.738C129.163 139.017 127.89 138.282 126.474 137.779C124.277 136.998 122.073 136.806 119.781 136.534L121.145 136.507C121.709 135.988 122.117 135.387 122.539 134.752C124.622 131.612 125.631 128.149 125.774 124.397C125.801 123.672 125.886 122.874 125.809 122.153C125.67 120.843 125.212 119.399 124.951 118.093Z" fill="#6B2A8E"/>
<path d="M135.946 110.703C137.292 110.692 138.783 110.952 139.854 111.824C141.23 112.944 141.887 114.512 142.096 116.245L142.122 116.476L142.186 117.031C142.445 119.728 141.252 122.811 139.524 124.867C137.62 127.132 135.572 128.314 132.585 128.576C131.768 128.543 131.004 128.462 130.217 128.228C128.383 127.683 127.429 126.594 126.485 125.018C125.766 123.817 125.732 122.535 126.008 121.16C126.478 118.818 127.199 116.854 128.675 114.958C130.506 112.605 132.968 111.09 135.946 110.703Z" fill="#8C3FAD"/>
<path d="M151.808 109.625C156.275 112.057 159.604 116.739 161.035 121.559L161.517 123.475C162.216 128.558 161.586 133.044 159.012 137.53C158.452 138.507 157.733 139.383 157.161 140.356L155.874 141.712L154.303 143.082C151.931 144.914 149.381 146.079 146.516 146.925C145.632 147.62 144.438 147.895 143.404 148.311C142.016 148.87 140.887 149.491 139.695 150.406C139.212 149.3 138.728 148.243 138.099 147.21C137.311 146.639 136.555 145.255 135.882 144.494C134.574 143.011 132.961 141.649 131.362 140.495L130.477 139.74C130.8 139.737 131.09 139.83 131.391 139.944C134.139 140.988 136.913 141.086 139.812 140.709C144.208 140.137 148.666 137.318 151.319 133.829C154.649 129.45 155.766 123.94 154.997 118.542C154.684 116.348 154.199 114.265 153.187 112.272C152.751 111.415 152.106 110.707 151.845 109.768L151.808 109.625Z" fill="#53187A"/>
<path d="M138.098 147.206C140.991 147.573 143.651 147.414 146.514 146.922C145.631 147.616 144.436 147.891 143.402 148.308C142.015 148.866 140.885 149.487 139.694 150.403C139.21 149.297 138.726 148.239 138.098 147.206Z" fill="#A852C9"/>
<path d="M71.9688 203.413C74.6832 202.642 77.6479 202.714 80.3962 203.272C80.9365 203.442 83.0638 203.986 83.3368 204.326C86.4319 205.554 89.4076 207.515 91.7498 209.882C92.7939 211.037 93.6859 212.182 94.5023 213.509C95.4496 217.008 96.3238 220.469 96.0919 224.129C95.9519 226.339 95.3321 228.439 94.6553 230.529C93.2296 233.429 91.3745 235.905 88.8917 237.986C88.3061 238.225 87.8676 238.628 87.333 238.956C86.6865 239.354 85.9998 239.686 85.3155 240.013C84.8994 240.211 82.378 241.217 82.3042 241.38C79.0476 242.535 74.7493 242.428 71.4559 241.434C66.1685 239.839 62.0203 236.153 59.4174 231.338L59.3557 231.276C57.4253 228.07 56.7305 223.436 57.2077 219.792L57.2461 219.518C57.9349 214.416 60.2667 210.465 64.2124 207.189C66.2807 205.762 68.5536 204.359 71.0256 203.749C71.3957 203.657 71.6343 203.592 71.9688 203.413Z" fill="#6B2A8E"/>
<path d="M68.2142 206.996C69.306 206.874 70.4911 206.851 71.5458 207.189L71.7843 207.269C72.4856 207.501 73.1284 207.793 73.7498 208.197C75.3333 209.227 76.0493 210.626 76.5125 212.406C76.8655 213.762 76.8582 215.383 76.414 216.72L76.3366 216.942C75.8295 218.465 74.581 220.043 73.2493 220.946L72.9938 221.113C72.8217 221.231 72.6799 221.338 72.4934 221.437C72.0746 221.659 71.6486 221.904 71.1917 222.036L70.1513 222.341C69.48 222.603 68.3549 222.531 67.6563 222.391L67.4755 222.353C66.6914 222.206 66.0147 221.976 65.3141 221.585C63.5872 220.621 62.4446 218.845 61.9493 216.959C61.3067 214.513 62.0034 212.189 63.3206 210.103C64.4582 208.3 66.211 207.493 68.2142 206.996Z" fill="#8C3FAD"/>
<path d="M83.3373 204.32C86.4324 205.548 89.4081 207.509 91.7503 209.876C92.7944 211.031 93.6865 212.176 94.5029 213.503C95.4502 217.002 96.3244 220.463 96.0924 224.123C95.9525 226.333 95.3326 228.433 94.6558 230.523C93.2301 233.423 91.3751 235.899 88.8923 237.98C88.3066 238.219 87.8682 238.622 87.3335 238.95C86.6871 239.348 86.0003 239.68 85.316 240.007C84.9 240.205 82.3785 241.211 82.3047 241.374C79.0482 242.529 74.7499 242.422 71.4564 241.428C66.1691 239.833 62.0208 236.147 59.418 231.332L59.6859 230.983C60.2271 230.923 60.7215 231.345 61.1917 231.616C62.4305 232.329 63.6675 233.078 65.0128 233.579C67.1899 234.389 69.4561 234.857 71.7853 234.782C76.9118 234.616 81.5598 232.2 85.0501 228.508C88.0803 225.304 89.919 220.774 89.7614 216.337C89.6404 212.926 88.2393 208.912 85.8348 206.424C85.1064 205.671 84.2355 205.19 83.5068 204.488L83.3373 204.32Z" fill="#53187A"/>
<path d="M25.2556 125.468C25.3705 125.423 25.4766 125.327 25.6 125.332C26.1978 125.356 27.8611 126.594 28.4767 126.909C31.7297 128.574 35.2357 129.346 38.8999 129.085C44.2074 128.709 48.7633 125.648 52.1342 121.719C52.1127 122.748 51.9873 123.925 52.233 124.927L52.2675 125.053C52.6485 128.537 53.6064 131.592 55.2713 134.672L55.4848 134.906C56.4636 137.024 58.383 138.673 60.0912 140.216C60.7761 140.835 61.5849 141.44 62.1443 142.173C63.3362 142.788 64.4578 143.329 65.7157 143.8C65.2228 144.526 64.7608 145.328 64.1155 145.927C63.4986 146.681 63.0786 147.673 62.701 148.567C61.3056 151.871 60.8837 155.255 61.2581 158.817L61.4625 160.102C61.6343 160.991 62.219 162.451 62.0805 163.271C60.7716 165.147 59.2775 166.571 57.5335 168.046L53.7635 170.46C51.9471 171.291 50.1362 171.843 48.1974 172.309L45.1658 172.513C43.855 172.539 42.4722 172.438 41.1835 172.2C36.1566 171.273 31.4383 167.949 28.5612 163.773C28.3837 163.638 28.1711 163.218 28.0435 163.016C25.3436 158.745 24.6376 153.157 25.7778 148.275C26.9939 143.069 30.379 138.319 34.8928 135.485C30.4972 133.788 27.1267 129.659 25.2556 125.468Z" fill="#6B2A8E"/>
<path d="M39.5469 136.727C40.8399 136.782 42.0512 136.954 43.1337 137.751C44.4122 138.691 45.0296 140.051 45.299 141.573C45.7099 143.897 44.9667 146.494 43.6097 148.401C41.7489 151.015 39.3296 152.51 36.1607 153.016C35.1934 152.997 34.2001 152.891 33.3066 152.494C31.8386 151.841 30.7431 150.554 30.226 149.048L30.1559 148.838C30.0567 148.555 29.9796 148.308 29.944 148.007C29.6386 145.433 30.4175 142.735 32.0896 140.754C34.1012 138.37 36.4025 136.985 39.5469 136.727Z" fill="#8C3FAD"/>
<path d="M25.2539 125.468C25.3688 125.423 25.4749 125.327 25.5983 125.332C26.1961 125.356 27.8594 126.594 28.4751 126.909C31.728 128.574 35.234 129.346 38.8982 129.085C44.2057 128.709 48.7616 125.648 52.1325 121.719C52.1111 122.748 51.9856 123.925 52.2314 124.927L52.2658 125.053C52.6468 128.537 53.6047 131.592 55.2696 134.672L55.4831 134.906C56.4619 137.024 58.3813 138.673 60.0895 140.216C60.7744 140.835 61.5832 141.44 62.1426 142.173C63.3346 142.788 64.4561 143.329 65.714 143.8C65.2211 144.526 64.7591 145.328 64.1138 145.927C63.497 146.681 63.0769 147.673 62.6994 148.567C61.3039 151.871 60.8821 155.255 61.2564 158.817L61.4608 160.102C61.6326 160.991 62.2173 162.451 62.0789 163.271C60.7699 165.147 59.2758 166.571 57.5318 168.046L53.7618 170.46C51.9454 171.291 50.1345 171.843 48.1957 172.309L45.1641 172.513C43.8533 172.539 42.4705 172.438 41.1819 172.2C36.1549 171.273 31.4366 167.949 28.5595 163.773C28.8268 163.567 29.0055 163.408 29.375 163.462C29.9656 163.548 30.9785 164.208 31.5618 164.471C33.7105 165.44 36.05 165.929 38.406 165.966C43.1349 166.04 48.1056 164.213 51.5057 160.904C54.8757 157.625 57.0107 152.764 57.1193 148.067C57.2406 142.828 55.6529 137.831 52.0008 133.997C47.2483 132.209 42.1137 131.996 37.4151 134.118L34.8912 135.485C30.4956 133.788 27.125 129.659 25.2539 125.468Z" fill="#53187A"/>
<path d="M62.1445 142.172C63.3365 142.787 64.458 143.328 65.7159 143.799C65.223 144.525 64.761 145.327 64.1157 145.926C63.6343 144.585 62.9047 143.371 62.1445 142.172Z" fill="#FEFEFE"/>
<path d="M86.2035 77.674C87.7203 77.3481 89.1964 77.0227 90.754 76.9877C93.9171 76.9166 97.932 78.003 100.597 79.7664L100.861 79.9576C105.552 83.2411 108.56 87.8389 109.556 93.4803L109.747 94.5677C109.755 96.5246 109.755 98.3102 109.429 100.247C109.214 101.524 108.756 102.78 108.323 103.997C110.149 104.437 112.184 104.907 113.818 105.855L113.822 105.866L114.741 106.236C119.635 108.981 123.152 112.741 124.957 118.093C125.218 119.4 125.676 120.843 125.815 122.154C125.891 122.875 125.807 123.673 125.779 124.397C125.637 128.149 124.628 131.613 122.545 134.753C122.123 135.388 121.715 135.989 121.151 136.508L119.787 136.534C114.731 136.644 109.722 138.307 106.128 142.012L104.055 144.276C101.415 144.018 99.1292 142.923 96.8085 141.714C96.1816 141.187 95.5062 140.713 94.7959 140.305C93.9365 139.569 92.9657 138.835 91.9895 138.263L89.3722 137.272L90.1284 135.781C90.1387 135.73 90.0108 135.498 89.9975 135.47C89.4263 134.283 88.7732 133.144 88.277 131.92C87.4702 129.93 87.0594 127.991 86.7579 125.878L86.8223 125.605L86.7645 125.489C86.5323 124.897 86.532 124.005 86.493 123.371C86.269 119.705 87.251 116.717 88.7366 113.444C88.1339 112.272 87.4493 111.194 86.6063 110.181C83.2868 106.192 78.702 104.016 73.5824 103.547C72.9632 101.82 72.4486 100.159 72.1417 98.3482C72.0322 96.8611 71.8955 95.446 72.0622 93.9574C72.2895 91.9263 72.8015 90.0534 73.6469 88.1896C75.2072 84.7501 77.8968 81.6649 81.1948 79.8014C82.7992 78.895 84.486 78.3114 86.2035 77.674Z" fill="#6B2A8E"/>
<path d="M100.856 79.9609C105.546 83.2444 108.555 87.8423 109.551 93.4837L109.742 94.571C109.75 96.528 109.749 98.3135 109.424 100.251C109.209 101.527 108.75 102.783 108.318 104.001C106.399 103.53 103.616 103.456 101.709 103.915L100.18 104.281C101.277 102.174 102.39 100.084 103.053 97.7903C104.712 92.0509 103.835 86.2626 101.074 81.0612C100.819 80.5796 100.7 80.4889 100.856 79.9609Z" fill="#53187A"/>
<path d="M83.2578 81.0468C84.0773 81.0408 84.9405 80.9161 85.7455 81.1003L85.9181 81.1429C86.4327 81.2603 86.8875 81.4036 87.3444 81.6808C88.4829 82.3715 89.426 83.6263 89.7668 84.9047L89.8178 85.1043L89.8805 85.3278C90.5148 87.7313 89.7774 90.6459 88.5146 92.7392C87.0838 95.1119 84.5589 96.9432 81.8875 97.6096C80.3947 97.8799 78.8864 97.8518 77.513 97.1342C76.3265 96.5147 75.4935 95.3629 75.1337 94.089C74.4881 91.8049 74.8685 89.1784 76.0129 87.1111C77.6569 84.1419 79.9707 82.0053 83.2578 81.0468Z" fill="#8C3FAD"/>
<path d="M100.346 106.309C101.503 106.169 102.659 106.448 103.666 107.033C104.967 107.788 105.683 109.176 106.025 110.588C106.584 112.898 106.022 115.516 104.769 117.523L103.947 118.749C102.13 121.059 99.7331 122.404 96.8505 122.784C95.5252 122.775 94.4805 122.639 93.2641 122.062C92.1239 121.521 91.2878 120.515 90.8608 119.336L90.7888 119.13C90.6893 118.851 90.6059 118.594 90.5645 118.298C90.2155 115.8 91.2433 113.055 92.7101 111.068C94.5292 108.602 97.3037 106.765 100.346 106.309Z" fill="#8C3FAD"/>
<path d="M113.818 105.867L114.737 106.237C119.631 108.982 123.148 112.742 124.953 118.095C125.214 119.401 125.672 120.845 125.811 122.155C125.887 122.876 125.803 123.674 125.776 124.399C125.633 128.151 124.624 131.614 122.541 134.754C122.119 135.389 121.711 135.99 121.147 136.509L119.783 136.536C114.727 136.646 109.718 138.309 106.124 142.014L104.051 144.277C101.411 144.02 99.1252 142.925 96.8045 141.716C96.1777 141.188 95.5022 140.715 94.7919 140.306C93.9326 139.571 92.9617 138.836 91.9856 138.264L89.3682 137.274L90.1245 135.783C90.1348 135.731 90.0068 135.5 89.9936 135.472C89.4224 134.284 88.7693 133.145 88.273 131.921C87.4663 129.931 87.0554 127.993 86.7539 125.88L86.8183 125.606C87.0369 125.891 87.1192 126.197 87.2196 126.54C87.4467 127.314 87.7917 127.932 88.2573 128.59L88.4134 128.807C89.0783 129.749 89.9534 130.651 90.8665 131.356C94.4067 134.088 99.0445 135.877 103.573 135.231C108.011 134.598 112.306 132.532 115.069 128.905C117.696 125.457 119.048 120.67 118.412 116.356C118.053 113.919 117.465 111.709 116.243 109.54C115.521 108.259 114.6 107.11 113.818 105.867Z" fill="#53187A"/>
<path d="M90.1235 135.773L91.9846 138.255L89.3672 137.264L90.1235 135.773Z" fill="#FEFEFE"/>
<path d="M115.49 179.031C116.993 176.593 119.06 174.385 121.548 172.948C124.681 171.137 128.445 170.039 132.084 170.243C133.507 170.323 134.889 170.668 136.263 171.022C136.988 171.26 138.219 171.507 138.789 171.986C141.642 173.308 143.768 175.119 145.956 177.328C147.664 179.448 149.239 181.8 149.704 184.546C150.923 189.797 150.4 195.019 147.529 199.642C144.895 203.884 140.651 206.925 135.786 208.048C130.923 209.171 126.695 208.211 122.245 206.201C126.526 209.332 130.002 213.697 130.891 219.061C131.778 224.415 130.679 229.878 127.471 234.29C124.406 238.503 119.963 241.313 114.804 242.125C112.193 242.536 109.538 242.296 106.998 241.627C107.94 242.698 109.026 243.6 109.944 244.717C113.17 248.641 114.656 253.523 114.346 258.588C114.04 263.59 111.816 268.457 108.043 271.794C103.908 275.451 98.6852 277.252 93.1658 276.869C87.7512 276.493 83.0867 273.773 79.6031 269.682C78.7168 268.641 77.8995 267.465 77.2926 266.238C76.3534 264.759 75.654 262.734 75.2519 261.031C73.9015 255.31 75.5646 248.418 79.4761 244.01C79.9656 243.459 80.502 242.922 81.085 242.467C81.4197 242.206 82.0804 241.885 82.2624 241.515L82.3062 241.376C82.38 241.213 84.9015 240.207 85.3176 240.008C86.0018 239.682 86.6885 239.35 87.335 238.952C87.8696 238.624 88.308 238.221 88.8938 237.982C91.3766 235.901 93.2316 233.425 94.6573 230.525C95.334 228.435 95.9539 226.334 96.0939 224.125C96.3259 220.465 95.4517 217.004 94.5044 213.505C95.1563 212.136 96.0332 211.006 97.0295 209.872C100.156 206.767 103.506 204.382 107.916 203.525C109.078 203.3 110.241 203.3 111.389 203.093L111.654 203.043C113.016 201.708 113.946 199.942 115.088 198.422C115.007 197.841 114.341 196.838 114.062 196.263C113.378 195.077 113.122 193.63 112.863 192.301C112.484 190.361 112.409 188.217 112.703 186.262C113.079 183.76 113.976 182.02 115.01 179.734L115.49 179.031Z" fill="#53187A"/>
<path d="M115.082 198.422C116.286 200.342 117.677 202.269 119.354 203.808C120.305 204.68 121.392 205.395 122.382 206.221C121.197 205.727 120.091 205.015 118.859 204.641C118.62 204.42 117.995 204.282 117.68 204.172C115.655 203.463 113.78 203.157 111.648 203.043C113.01 201.708 113.941 199.942 115.082 198.422Z" fill="#FEFEFE"/>
<path d="M94.6543 230.523L95.5565 232.194C96.5839 234.014 98.1857 235.86 99.7447 237.243C100.465 237.882 101.277 238.407 102.011 239.029C101.167 238.677 100.341 238.407 99.4571 238.173C95.9517 237.159 92.4214 237.126 88.8906 237.981C91.3735 235.899 93.2286 233.424 94.6543 230.523Z" fill="#FEFEFE"/>
<path d="M115.49 179.031C116.993 176.593 119.06 174.385 121.549 172.948C124.682 171.137 128.445 170.039 132.084 170.243C133.507 170.323 134.889 170.668 136.263 171.022C136.988 171.26 138.22 171.507 138.789 171.986L138.748 172.206L138.928 172.366C141.898 175.059 143.604 179.185 143.732 183.154C143.895 188.241 142.537 192.427 138.981 196.176C136.316 198.986 132.616 200.88 128.785 201.389L128.494 201.43C123.863 202.058 119.061 200.163 115.463 197.313L115.016 196.926C114.774 196.711 114.378 196.324 114.063 196.263C113.378 195.077 113.123 193.63 112.863 192.3C112.485 190.361 112.409 188.217 112.703 186.262C113.08 183.76 113.976 182.02 115.01 179.734L115.49 179.031Z" fill="#6B2A8E"/>
<path d="M123.552 175.412C124.227 175.363 124.861 175.402 125.532 175.49C127.225 175.712 128.838 176.647 129.856 178.01C130.889 179.391 131.486 181.333 131.226 183.058L131.186 183.302C131.104 183.82 131.025 184.253 130.791 184.727L130.376 185.57C129.243 187.584 127.456 188.855 125.269 189.499C124.486 189.723 123.774 189.722 122.973 189.584L122.735 189.541C122.245 189.46 121.836 189.387 121.383 189.172L121.223 189.094L120.308 188.599C118.792 187.607 117.714 185.834 117.346 184.075C116.946 182.164 117.256 179.998 118.396 178.386C119.673 176.582 121.432 175.774 123.552 175.412Z" fill="#8C3FAD"/>
<path d="M111.65 203.047C113.782 203.162 115.657 203.467 117.682 204.176C117.996 204.286 118.622 204.425 118.86 204.646L118.83 204.84C118.841 205.663 120.442 206.829 121.039 207.451C121.563 207.995 122.032 208.594 122.425 209.238C125.91 214.939 125.567 222.837 121.575 228.147C118.788 231.855 114.208 234.595 109.598 235.203L108.723 235.317C105.209 235.828 101.759 234.844 98.611 233.363C97.8092 232.986 97.0692 232.465 96.2749 232.096C95.8842 231.915 95.8902 231.975 95.5552 232.2L94.653 230.529C95.3297 228.44 95.9495 226.339 96.0896 224.13C96.3215 220.469 95.4473 217.009 94.5 213.509C95.1519 212.14 96.0288 211.011 97.0251 209.877C100.152 206.771 103.502 204.386 107.912 203.529C109.073 203.304 110.237 203.304 111.385 203.098L111.65 203.047Z" fill="#6B2A8E"/>
<path d="M105.093 209.125C106.445 209.058 107.566 209.106 108.846 209.63C110.456 210.288 111.798 211.503 112.454 213.13C113.229 215.049 113.338 217.003 112.505 218.92C111.654 220.876 110.014 222.408 108.025 223.154L107.767 223.247C107.341 223.404 106.896 223.459 106.449 223.534C105.835 223.651 104.153 223.662 103.56 223.481L103.307 223.397C102.859 223.259 102.418 223.1 102.022 222.842C100.383 221.773 99.1846 220.018 98.7718 218.108C98.3421 216.119 98.7991 213.736 99.9829 212.075C101.236 210.317 103.01 209.47 105.093 209.125Z" fill="#8C3FAD"/>
<path d="M88.8939 237.982C92.4247 237.127 95.9549 237.161 99.4603 238.175L99.3787 238.641C100.02 239.378 100.85 239.864 101.532 240.563C104.096 243.193 105.625 246.364 106.183 249.983C106.741 253.604 105.933 257.622 104.116 260.787L103.977 261.035C101.827 264.793 97.7346 267.828 93.5616 268.946C89.2675 270.096 84.3422 269.805 80.4349 267.546C79.7549 267.152 78.2944 266.007 77.5793 266.159L77.2926 266.238C76.3534 264.758 75.654 262.734 75.2519 261.031C73.9015 255.31 75.5646 248.418 79.4761 244.01C79.9656 243.458 80.502 242.921 81.085 242.467C81.4197 242.206 82.0804 241.884 82.2624 241.514L82.3062 241.375C82.38 241.213 84.9015 240.207 85.3176 240.008C86.0018 239.682 86.6885 239.349 87.335 238.952C87.8697 238.623 88.3081 238.221 88.8939 237.982Z" fill="#6B2A8E"/>
<path d="M86.2972 242.079C87.2645 241.958 88.4496 241.951 89.3839 242.24L89.6264 242.321C91.0442 242.782 92.3006 243.645 93.14 244.894C94.1868 246.451 94.4296 248.724 94.058 250.536L93.8227 251.637C93.3147 253.337 91.8313 255.193 90.2844 256.046C89.92 256.247 89.5623 256.474 89.1707 256.618L88.8798 256.722C88.4393 256.882 87.9936 256.986 87.5382 257.094C86.7024 257.115 85.7535 257.222 84.9404 257.012C84.118 256.8 83.4594 256.554 82.7367 256.1C81.2215 255.148 80.1242 253.283 79.7511 251.572C79.3078 249.54 80.016 247.176 81.1263 245.466C82.384 243.529 84.0936 242.546 86.2972 242.079Z" fill="#8C3FAD"/>
<path d="M145.046 97.9189C144.209 94.7088 144.324 90.9827 144.485 87.6971C144.833 80.6225 147.847 73.214 153.136 68.4096C157.063 64.8415 162.255 63.3472 167.481 63.5492L167.892 67.6518C172.786 65.5784 177.83 64.7826 183.128 65.1608C184.725 65.2749 186.295 65.5812 187.874 65.8294C187.932 71.7357 187.158 77.827 183.844 82.8869C183.301 83.7173 182.711 84.5469 182.075 85.3089C181.616 85.858 181.027 86.3832 180.649 86.9862C184.843 84.5593 190.709 82.0203 195.635 83.3616L196.245 83.5473L196.524 83.6286C198.614 84.2588 201.345 86.2496 202.366 88.215C202.644 88.7487 202.738 89.172 202.657 89.7629C201.945 90.9324 200.931 91.6349 199.841 92.4098L200.132 92.3705C204.146 91.8456 208.495 94.114 211.592 96.4991C215.126 99.2198 218.348 102.622 221.142 106.094C216.495 111.071 211.488 115.263 204.457 115.961C205.387 116.727 206.663 118.005 206.744 119.284C206.785 119.93 206.219 120.453 205.792 120.867C203.373 123.217 199.688 123.993 196.413 123.941C193.512 123.894 191.04 123.169 188.313 122.272C189.184 122.922 190.158 123.376 191.015 124.053C194.608 126.89 198.217 131.136 198.877 135.81L198.989 138.115C198.466 138.215 197.496 138.267 197.078 138.563C200.011 143.575 200.207 148.951 198.751 154.486C198.582 155.127 198.411 155.921 198.091 156.498C197.957 157.059 197.735 157.603 197.542 158.147C189.727 156.791 182.001 154.753 175.435 150.111L174.411 154.191L169.459 151.996C168.667 151.252 168.05 150.129 167.361 149.272C165.43 146.869 162.831 144.824 160.038 143.528L158.002 142.357C157.782 141.628 157.605 140.988 157.16 140.357C157.732 139.384 158.451 138.509 159.011 137.532C161.585 133.046 162.215 128.559 161.516 123.476L161.034 121.56C159.603 116.74 156.274 112.058 151.807 109.626C150.585 108.701 149.084 108.2 147.656 107.69C147.194 107.576 146.83 107.46 146.417 107.222C146.493 105.888 146.342 104.877 146.039 103.586L145.046 97.9189Z" fill="url(#paint0_linear_4412_63008)"/>
<path d="M145.047 97.9141C145.413 98.4955 145.411 98.6361 145.451 99.2847L145.613 99.9466C145.671 100.163 145.696 100.379 145.728 100.599C145.773 100.904 145.856 101.191 145.884 101.498C145.907 101.749 145.977 101.954 146.037 102.195L146.133 102.712C146.191 103.09 146.142 102.822 146.254 103.228C146.307 103.425 146.334 103.611 146.359 103.812C146.396 104.118 146.496 104.536 146.736 104.727L147.014 104.078C147.121 103.823 147.231 103.767 147.378 103.556L148.375 101.513C148.476 101.272 148.62 101.129 148.739 100.91L148.852 100.645L149.04 100.57C149.016 101.025 148.604 101.599 148.392 102.006L146.649 105.404L146.763 105.332C148.139 104.492 149.933 103.917 151.438 103.322C163.285 98.6367 176.275 99.259 188.427 102.409L189.46 102.709L178.825 105.225C172.809 106.507 166.983 107.487 160.831 107.831C158.735 107.948 156.594 107.987 154.497 107.891L149.494 107.527C149.125 107.502 148.391 107.342 148.061 107.417C147.903 107.452 147.791 107.596 147.656 107.686C147.195 107.572 146.831 107.455 146.417 107.217C146.494 105.883 146.343 104.872 146.04 103.581L145.047 97.9141Z" fill="#4B9402"/>
<path d="M161.517 123.477C162.89 123.953 164.106 125.285 165.165 126.272L169.727 130.46L183.763 142.082C186.207 144.088 188.83 145.973 191.076 148.202C192.312 149.43 193.412 150.808 194.458 152.199C195.431 153.494 196.5 155.71 197.874 156.552L197.973 156.407L198.091 156.498C197.957 157.059 197.736 157.603 197.543 158.147C189.728 156.791 182.001 154.753 175.435 150.112L174.411 154.191L169.46 151.996C168.668 151.253 168.051 150.13 167.362 149.272C165.431 146.869 162.832 144.824 160.039 143.528L158.002 142.357C157.782 141.628 157.606 140.988 157.16 140.357C157.732 139.385 158.451 138.509 159.012 137.532C161.585 133.046 162.215 128.559 161.517 123.477Z" fill="#4B9402"/>
<path d="M67.5598 104.012C68.4581 104.052 69.4348 103.78 70.3358 103.684C71.4068 103.569 72.5045 103.569 73.5809 103.539C78.7004 104.008 83.2853 106.184 86.6048 110.173C87.4478 111.186 88.1323 112.263 88.735 113.435C87.2495 116.709 86.2673 119.696 86.4914 123.362C86.5304 123.997 86.5308 124.889 86.763 125.48L86.8207 125.597L86.7563 125.87C87.0578 127.983 87.4687 129.921 88.2755 131.912C88.7716 133.136 89.4248 134.275 89.996 135.462C90.0093 135.49 90.1372 135.721 90.1269 135.773L89.3706 137.264L91.988 138.254C92.964 138.826 93.935 139.561 94.7943 140.297C95.5046 140.705 96.1801 141.178 96.8069 141.706C99.1276 142.915 101.413 144.01 104.053 144.267L106.127 142.004C109.721 138.299 114.73 136.636 119.786 136.526C122.077 136.798 124.281 136.99 126.478 137.771C127.894 138.274 129.167 139.009 130.478 139.73L131.364 140.485C132.963 141.639 134.576 143.002 135.884 144.484C136.556 145.246 137.313 146.629 138.101 147.2C138.73 148.233 139.214 149.291 139.697 150.396C141.435 155.129 141.638 160.151 140.012 164.942C139.054 167.137 137.94 169.278 136.262 171.018C134.888 170.664 133.506 170.318 132.083 170.239C128.444 170.034 124.681 171.133 121.548 172.943C119.06 174.381 116.992 176.589 115.49 179.027L115.01 179.729C113.976 182.015 113.079 183.755 112.703 186.258C112.408 188.213 112.484 190.357 112.862 192.296C113.122 193.626 113.378 195.072 114.062 196.259C114.341 196.833 115.007 197.836 115.088 198.418C113.946 199.937 113.015 201.704 111.654 203.038L111.389 203.089C110.241 203.296 109.077 203.295 107.916 203.521C103.506 204.377 100.156 206.762 97.0292 209.868C96.0329 211.002 95.156 212.132 94.5041 213.501C93.6877 212.174 92.7957 211.028 91.7515 209.874C89.4093 207.507 86.4337 205.545 83.3385 204.318C83.0655 203.978 80.9383 203.433 80.398 203.263C77.6497 202.705 74.6849 202.634 71.9705 203.404C71.6361 203.583 71.3976 203.649 71.0275 203.74C68.5555 204.351 66.2826 205.754 64.2143 207.181C63.9718 207.17 64.0704 207.162 63.8321 207.203C60.9084 207.711 57.745 207.862 54.8537 207.103C50.303 205.907 45.2092 202.797 42.8189 198.66L42.8011 198.658C41.3724 196.85 40.3468 194.276 39.7743 192.055C38.3858 186.668 39.337 180.995 42.3351 176.32C42.7945 175.604 43.2737 174.885 43.8173 174.231C44.2282 173.736 44.7976 173.232 45.097 172.665L45.1677 172.504L48.1993 172.299C50.1381 171.834 51.949 171.282 53.7654 170.45L57.5354 168.036C59.2795 166.562 60.7735 165.137 62.0825 163.262C62.2209 162.442 61.6361 160.982 61.4644 160.093L61.26 158.808C60.8857 155.245 61.3075 151.861 62.703 148.557C63.0806 147.663 63.5007 146.672 64.1174 145.918C64.7627 145.318 65.2248 144.517 65.7176 143.791C64.4597 143.32 63.3382 142.779 62.1462 142.163C61.5868 141.431 60.778 140.825 60.0931 140.207C58.3849 138.664 56.4655 137.014 55.4867 134.897L55.2732 134.663C53.6083 131.583 52.6504 128.528 52.2694 125.043C52.2682 123.655 52.1609 122.141 52.3868 120.772C53.182 115.956 54.9282 112.686 58.2223 109.148L60.7444 106.996C62.9002 105.656 65.1487 104.767 67.5598 104.012Z" fill="#8C3FAD"/>
<path d="M78.37 180.071L77.0625 177.547L79.678 177.955C79.1782 178.646 78.7501 179.304 78.37 180.071Z" fill="#FEFEFE"/>
<path d="M96.8047 141.719C99.1254 142.928 101.411 144.023 104.051 144.28C102.952 145.709 102.015 147.419 101.341 149.088C100.766 147.412 99.6996 145.814 98.6742 144.38C98.1319 143.622 97.0236 142.591 96.8047 141.719Z" fill="#FEFEFE"/>
<path d="M98.7734 169.372L98.8754 169.234C99.8064 167.947 100.76 166.357 101.31 164.867C102.707 167.783 104.647 170.059 106.851 172.395C106.201 172.207 105.619 171.816 105.006 171.533C103.025 170.618 100.94 169.709 98.7734 169.372Z" fill="#FEFEFE"/>
<path d="M77.4367 196.492C77.6982 197.443 77.9338 198.693 78.4799 199.522C78.8028 200.205 79.1306 200.875 79.5343 201.515C79.8515 202.019 80.3226 202.57 80.4719 203.148L80.3969 203.274C77.6486 202.716 74.6838 202.645 71.9694 203.415L71.8594 203.265C74.1955 201.257 76.0325 199.258 77.4367 196.492Z" fill="#FEFEFE"/>
<path d="M104.054 144.28L106.127 142.017C109.721 138.312 114.73 136.649 119.786 136.539C122.078 136.812 124.282 137.003 126.479 137.784C127.895 138.287 129.168 139.022 130.479 139.743L131.364 140.498C132.004 141.761 132.724 142.986 133.214 144.319C134.726 148.434 134.785 153.318 133.403 157.47C131.798 162.291 128.363 165.976 123.818 168.2C119.758 170.188 115.033 170.395 110.77 168.921C107.725 167.868 105.558 166.261 103.077 164.277C102.666 163.948 102.136 163.7 101.786 163.316L102.538 159.571C103.072 156.113 102.455 152.369 101.344 149.089C102.018 147.419 102.955 145.709 104.054 144.28Z" fill="#A852C9"/>
<path d="M114.278 138.961C115.147 138.867 116.29 138.824 117.115 139.118L117.297 139.188C117.655 139.321 117.981 139.452 118.309 139.653C119.849 140.596 120.673 142.269 121.092 143.982C121.708 146.5 121.128 149.372 119.789 151.561C118.384 153.859 116.323 155.119 113.763 155.755C112.799 155.832 111.986 155.843 111.031 155.62C109.634 155.293 108.112 154.34 107.372 153.096C106.187 151.103 106.173 149.159 106.698 146.95C107.028 145.563 107.512 144.297 108.301 143.106C109.779 140.873 111.661 139.505 114.278 138.961Z" fill="#BB74DC"/>
<path d="M62.0825 163.266L62.5896 164.11C63.1057 165.628 63.9917 166.975 64.9592 168.24L65.0539 168.353C65.8223 169.249 66.8651 169.929 67.7895 170.656C68.7121 171.381 69.5324 172.209 70.4259 172.965C71.164 173.589 72.212 174.223 72.7688 175.007C73.7914 176.448 74.0838 179.947 73.9701 181.707C73.6037 187.366 71.2708 192.047 67.0158 195.784C63.3229 199.028 57.5694 200.99 52.6616 200.621C49.5253 200.385 46.5016 199.412 43.8371 197.747C43.4513 197.506 43.8528 197.738 43.3457 197.55L43.0611 197.358L41.9424 196.679L42.9257 198.422L42.8189 198.664L42.8011 198.662C41.3724 196.854 40.3468 194.28 39.7743 192.059C38.3858 186.672 39.337 180.999 42.3351 176.324C42.7945 175.608 43.2737 174.889 43.8173 174.235C44.2282 173.74 44.7976 173.236 45.097 172.669L45.1677 172.508L48.1993 172.303C50.1381 171.838 51.949 171.286 53.7654 170.454L57.5354 168.04C59.2795 166.566 60.7735 165.141 62.0825 163.266Z" fill="#A852C9"/>
<path d="M62.0783 163.266L62.5854 164.11C63.1016 165.628 63.9875 166.975 64.9551 168.24C64.3407 168.494 63.0093 168.214 62.3332 168.171C60.7391 168.069 59.1284 167.967 57.5312 168.04C59.2753 166.566 60.7694 165.141 62.0783 163.266Z" fill="#BB74DC"/>
<path d="M53.7656 170.461C54.9188 170.684 55.9154 170.737 56.9961 171.27C57.8219 171.677 58.661 172.427 59.0752 173.257L59.1834 173.468C60.1271 175.368 60.0379 177.667 59.3622 179.645C58.3486 182.611 56.2272 184.983 53.4112 186.348C51.5147 187.268 49.3176 187.58 47.2905 186.894C45.8442 186.405 44.7515 185.443 44.0911 184.067C43.1652 182.138 43.2251 180.028 43.9302 178.039C44.7745 175.656 46.4636 174.039 48.1994 172.31C50.1384 171.844 51.9492 171.292 53.7656 170.461Z" fill="#BB74DC"/>
<path d="M98.7766 169.375C100.943 169.712 103.028 170.621 105.009 171.536C105.622 171.819 106.204 172.21 106.855 172.398L107.089 172.6C108.53 173.908 110.306 175.014 111.877 176.197C112.643 176.775 113.386 177.544 114.194 178.013L115.31 178.7L115.489 179.03L115.009 179.732C113.975 182.018 113.079 183.758 112.702 186.26C112.408 188.216 112.484 190.36 112.862 192.299C113.122 193.629 113.377 195.075 114.062 196.262C114.341 196.836 115.007 197.839 115.087 198.42C113.946 199.94 113.015 201.706 111.654 203.041L111.388 203.092C110.241 203.298 109.077 203.298 107.915 203.524C103.505 204.38 100.156 206.765 97.0289 209.871C96.0326 211.005 95.1557 212.135 94.5038 213.503C93.6874 212.177 92.7954 211.031 91.7513 209.877C89.4091 207.51 86.4334 205.548 83.3383 204.321C83.0653 203.98 80.938 203.436 80.3977 203.266L80.4727 203.14C80.3233 202.562 79.8522 202.011 79.5351 201.507C79.1314 200.867 78.8037 200.197 78.4807 199.514C77.9346 198.685 77.6991 197.436 77.4375 196.484C78.1726 194.511 78.9424 192.808 79.3963 190.711C79.8073 188.815 79.8804 186.548 79.5532 184.637L79.5172 184.437L78.374 180.07C78.754 179.302 79.1822 178.644 79.682 177.954L82.072 177.952C86.8171 177.844 90.7592 176.134 94.6147 173.513C96.1811 172.232 97.4795 170.922 98.7766 169.375Z" fill="#A852C9"/>
<path d="M94.6128 173.516C96.0996 176.206 96.737 179.455 95.8299 182.449C95.0159 185.136 92.9519 187.75 90.4231 189.023C88.6579 189.911 86.5147 190.331 84.5906 189.722C82.8913 189.183 81.6669 187.995 80.8944 186.419C79.8875 184.365 79.9664 182.474 80.7342 180.36C81.0511 179.487 81.514 178.693 82.0701 177.955C86.8152 177.847 90.7572 176.136 94.6128 173.516Z" fill="#BB74DC"/>
<path d="M78.4805 199.523C79.3453 199.617 79.7051 200.197 80.3727 200.715C83.8772 203.432 88.8896 204.316 93.216 203.698C94.5269 203.511 95.7711 203.279 97.0296 202.853C101.826 201.231 106.073 197.839 108.317 193.254C110.745 188.295 110.818 183.084 109.362 177.834C108.966 176.405 108.383 175.044 107.894 173.648C108.465 173.889 109.054 174.471 109.559 174.845C110.988 175.904 112.814 176.998 113.921 178.381L114.045 178.549L114.271 178.851C114.457 179.244 114.693 179.437 115.009 179.741C113.975 182.027 113.079 183.767 112.702 186.269C112.408 188.224 112.484 190.368 112.862 192.307C113.121 193.637 113.377 195.084 114.061 196.27C114.341 196.845 115.006 197.848 115.087 198.429C113.946 199.949 113.015 201.715 111.653 203.05L111.388 203.1C110.241 203.307 109.077 203.307 107.915 203.532C103.505 204.388 100.156 206.774 97.0288 209.879C96.0324 211.013 95.1556 212.143 94.5036 213.512C93.6872 212.185 92.7952 211.04 91.7511 209.885C89.4089 207.518 86.4333 205.556 83.3381 204.329C83.0651 203.989 80.9379 203.445 80.3975 203.274L80.4726 203.149C80.3232 202.571 79.8521 202.019 79.5349 201.516C79.1312 200.875 78.8034 200.206 78.4805 199.523Z" fill="#8C3FAD"/>
<path d="M91.75 209.881C93.508 209.982 95.2714 210.093 97.0277 209.875C96.0313 211.009 95.1545 212.139 94.5025 213.508C93.6861 212.181 92.7942 211.035 91.75 209.881Z" fill="#FEFEFE"/>
<path d="M67.5589 104.012C68.4572 104.052 69.434 103.78 70.335 103.684C71.406 103.569 72.5036 103.569 73.5801 103.539C78.6996 104.008 83.2845 106.184 86.6039 110.173C87.447 111.186 88.1315 112.263 88.7342 113.435C87.2487 116.709 86.2665 119.696 86.4906 123.362C86.5296 123.997 86.5299 124.889 86.7622 125.48L86.8199 125.597L86.7555 125.87C87.057 127.983 87.4679 129.921 88.2746 131.912C88.7708 133.136 89.424 134.275 89.9952 135.462C90.0085 135.49 90.1364 135.721 90.1261 135.773L89.3698 137.264L91.9872 138.254C92.9632 138.826 93.9341 139.561 94.7935 140.297C95.0862 141.894 95.583 143.433 95.8104 145.05C96.6465 151.001 95.5032 157.34 92.0979 162.323C89.3478 166.349 84.5639 169.176 79.7988 170.049C75.2248 170.886 69.5329 169.873 65.6628 167.185L64.6982 166.415C63.7681 165.638 63.3587 164.946 62.6472 164.018L62.5889 164.107L62.0818 163.262C62.2203 162.442 61.6354 160.982 61.4638 160.093L61.2593 158.808C60.885 155.245 61.3068 151.861 62.7023 148.558C63.08 147.663 63.5 146.672 64.1168 145.918C64.762 145.318 65.2241 144.517 65.7169 143.791C64.4591 143.32 63.3376 142.779 62.1456 142.164C61.5861 141.431 60.7773 140.826 60.0924 140.207C58.3842 138.664 56.4648 137.014 55.486 134.897L55.2725 134.663C53.6076 131.583 52.6497 128.528 52.2687 125.043C52.2675 123.655 52.1602 122.141 52.3861 120.772C53.1813 115.956 54.9275 112.686 58.2216 109.148L60.7437 106.996C62.8994 105.656 65.1478 104.767 67.5589 104.012Z" fill="#A852C9"/>
<path d="M55.4844 134.906C56.6509 135.445 57.6827 136.317 58.7984 136.973C62.002 138.855 65.1805 139.791 68.8408 140.31C67.6787 141.412 66.5929 142.45 65.7151 143.8C64.4573 143.329 63.3358 142.788 62.1438 142.173C61.5843 141.44 60.7755 140.835 60.0906 140.216C58.3826 138.673 56.4632 137.023 55.4844 134.906Z" fill="#8C3FAD"/>
<path d="M89.37 137.269C88.3241 137.155 87.2099 136.73 86.1655 136.513C82.8911 135.832 79.5726 135.901 76.332 136.752C79.5935 134.711 82.7015 132.361 84.8638 129.111C85.5584 128.067 86.0733 126.925 86.7558 125.875C87.0573 127.988 87.4681 129.926 88.2749 131.917C88.7711 133.141 89.4242 134.28 89.9954 135.467C90.0087 135.495 90.1366 135.727 90.1263 135.778L89.37 137.269Z" fill="#8C3FAD"/>
<path d="M66.4257 107.538C66.9633 107.48 67.6213 107.542 68.1571 107.639C69.8483 107.945 71.3749 109.04 72.3262 110.455C73.5094 112.214 73.5641 114.685 73.1423 116.703C72.5892 119.346 70.7826 121.99 68.5248 123.453L68.3192 123.582C66.9222 124.484 65.5633 124.965 63.9196 125.214C62.5239 125.204 61.3334 125.202 60.0589 124.533C58.4364 123.682 57.333 122.33 56.8278 120.569L56.7667 120.35C56.669 120.014 56.5792 119.698 56.5372 119.349C56.1976 116.524 57.5411 113.498 59.2679 111.321C61.0495 109.076 63.6173 107.839 66.4257 107.538Z" fill="#BB74DC"/>
<path d="M75.963 139.283C77.3869 139.146 78.9459 139.566 80.0849 140.434C81.0955 141.205 81.7516 142.785 81.9124 144.018L81.9372 144.223L82.0043 144.747C82.2816 147.466 81.089 150.776 79.3634 152.861C77.2023 155.473 74.3966 157.001 71.0375 157.317C69.8824 157.273 68.783 157.146 67.7464 156.592L67.5508 156.483L67.2328 156.304C65.9706 155.486 65.1246 153.912 64.8772 152.462C64.4176 149.767 65.5409 146.885 67.1351 144.753C69.3246 141.826 72.3281 139.801 75.963 139.283Z" fill="#BB74DC"/>
<path d="M75.5518 0.304688L75.5859 0.450601C75.9491 1.9328 76.6255 3.38815 77.1171 4.83792L81.3298 17.4757C83.9774 26.514 86.1524 35.7186 87.4369 45.0546C87.9437 48.7396 88.4081 52.4785 88.5267 56.198L88.4115 64.7498C88.3193 66.4358 88.1058 68.1316 88.1106 69.8191L88.0295 70.3102L87.5585 72.3824L86.8448 75.3039L86.2005 77.6691C84.483 78.3065 82.7961 78.89 81.1917 79.7966C77.8936 81.6601 75.204 84.7452 73.6438 88.1847C72.7983 90.0485 72.2864 91.9215 72.059 93.9525C71.8924 95.4411 72.0291 96.8562 72.1385 98.3433C72.4454 100.154 72.96 101.815 73.5793 103.543C72.5029 103.573 71.4052 103.573 70.3342 103.687C69.4331 103.784 68.4565 104.055 67.5582 104.016C65.1471 104.771 62.8986 105.659 60.7429 107L58.2208 109.152C54.9268 112.69 53.1806 115.96 52.3853 120.776C52.1594 122.144 52.2668 123.659 52.268 125.047L52.2335 124.921C51.9877 123.92 52.1131 122.743 52.1347 121.713C48.7638 125.643 44.208 128.704 38.9003 129.08C35.2362 129.34 31.7301 128.568 28.4772 126.903C27.8616 126.588 26.1983 125.35 25.6004 125.326C25.4771 125.321 25.3709 125.417 25.2561 125.462L25.2026 125.372C23.1171 120.586 23.3158 115.289 25.3423 110.534L20.8454 109.876C13.7051 108.473 6.88898 106.012 0.545804 102.436C0.299338 102.334 0.191429 102.222 0 102.041C0.218599 100.515 0.717573 99.0706 1.16623 97.6023C3.255 90.7704 6.96391 84.1578 12.1796 79.2255L9.98282 77.8966C10.6909 76.108 11.661 74.5375 12.9551 73.1085C16.9903 68.6527 22.0487 67.2999 27.831 67.0084C24.8542 65.8682 22.1146 64.7022 19.6612 62.6125C15.6447 59.192 13.5284 54.8264 13.1085 49.6337L18.7408 49.3271L15.5014 46.3902C10.5637 40.9731 7.89853 32.5475 8.23719 25.2479C11.8387 23.7397 15.8395 22.4342 19.7235 21.8909C26.6856 20.9167 33.3914 21.5335 39.1571 25.8662C38.423 24.0172 37.9322 22.5761 37.9367 20.5662C40.954 18.5968 45.0929 18.1399 48.5778 18.7362C55.1983 19.8692 60.2761 24.3174 64.0518 29.6416C64.0534 27.7971 64.3563 25.9955 64.6341 24.1771C65.9971 15.256 69.566 7.09435 75.5518 0.304688Z" fill="#74B706"/>
<path d="M37.1172 44.5123C37.4549 44.45 37.311 44.4455 37.6083 44.4927C40.1291 44.8915 42.6507 44.7201 45.1999 45.2393C53.9682 47.025 61.8055 50.6257 69.3642 55.3219C74.1257 58.2804 78.5911 61.5583 82.7503 65.3259C83.7847 66.263 86.9527 68.8175 87.0168 70.1346L86.6751 70.4009C84.9564 70.781 83.147 71.1061 81.3881 70.8146L81.1568 70.7744C79.7707 70.5582 78.4215 70.1273 77.1503 69.531C73.4299 67.7863 69.9587 65.2705 66.5657 62.9619L50.995 52.4955L37.1172 44.5123Z" fill="#4B9402"/>
<path d="M88.0306 70.3125L87.5595 72.3847L86.8459 75.3062L86.2016 77.6714C84.484 78.3088 82.7972 78.8924 81.1927 79.7989C77.8947 81.6624 75.2051 84.7476 73.6449 88.187C72.7994 90.0508 72.2875 91.9238 72.0601 93.9548C71.8935 95.4434 72.0301 96.8585 72.1396 98.3456C72.4465 100.157 72.9611 101.818 73.5804 103.545C72.5039 103.575 71.4063 103.575 70.3353 103.689C69.4342 103.786 68.4575 104.057 67.5592 104.018C65.1481 104.773 62.8997 105.662 60.744 107.002L58.2219 109.154C54.9278 112.692 53.1817 115.962 52.3864 120.778C52.1605 122.147 52.2679 123.661 52.269 125.05L52.2346 124.923C51.9887 123.922 52.1142 122.745 52.1357 121.716C48.7649 125.645 44.209 128.706 38.9014 129.082C35.2372 129.343 31.7312 128.57 28.4783 126.906C27.8627 126.59 26.1993 125.353 25.6015 125.328C25.4781 125.324 25.372 125.419 25.2571 125.465L25.2036 125.375C23.1182 120.588 23.3168 115.292 25.3434 110.537L20.8464 109.878C13.7062 108.475 6.89005 106.014 0.546875 102.439C1.65868 101.711 3.22255 101.582 4.50613 101.257L9.10128 99.9313L22.7777 95.347L64.5074 79.2568L77.248 74.3641C80.8144 73.0653 84.5977 71.929 88.0306 70.3125Z" fill="#4B9402"/>
<path d="M72.139 98.3438C72.4459 100.155 72.9605 101.816 73.5797 103.543C72.5033 103.573 71.4057 103.573 70.3347 103.688C69.4336 103.784 68.4569 104.056 67.5586 104.016L72.139 98.3438Z" fill="#FEFEFE"/>
<path d="M25.341 110.54C26.2509 109.112 26.8828 107.613 27.8982 106.218C31.1923 101.692 36.097 98.898 41.5791 98.0498C46.6596 97.264 51.6911 98.7739 55.8085 101.761C57.229 102.816 58.5927 104.024 59.6647 105.442C60.0348 105.931 60.3244 106.57 60.7417 107.005L58.2196 109.157C54.9256 112.695 53.1794 115.965 52.3841 120.781C52.1582 122.15 52.2656 123.664 52.2667 125.052L52.2323 124.926C51.9865 123.925 52.1119 122.748 52.1335 121.718C48.7626 125.648 44.2068 128.709 38.8991 129.085C35.235 129.346 31.7289 128.573 28.476 126.908C27.8604 126.593 26.1971 125.356 25.5992 125.331C25.4759 125.326 25.3697 125.422 25.2549 125.468L25.2014 125.378C23.1158 120.591 23.3145 115.294 25.341 110.54Z" fill="#6B2A8E"/>
<path d="M55.8088 101.758C57.2294 102.813 58.5931 104.021 59.665 105.439C60.0351 105.928 60.3248 106.567 60.7421 107.002L58.22 109.154C57.6017 107.81 57.4218 106.206 56.8687 104.803C56.6147 104.159 55.8681 103.175 55.7614 102.572C55.7224 102.353 55.7952 101.99 55.8088 101.758Z" fill="#53187A"/>
<path d="M38.0862 100.73C38.8709 100.655 39.723 100.736 40.4765 100.98C41.7658 101.396 42.848 102.278 43.4688 103.488L43.5574 103.666C44.2357 105.014 44.4035 106.515 44.1697 108L44.1298 108.239C43.8512 110.039 43.0512 111.717 41.9206 113.139C40.0762 115.457 37.7503 116.793 34.8004 117.117L33.2728 116.946C31.7854 116.665 30.4363 115.777 29.6204 114.502C28.4617 112.691 28.4157 110.832 28.8993 108.798C29.5043 106.253 31.5006 103.708 33.7318 102.351L33.9897 102.197C35.3331 101.381 36.552 100.983 38.0862 100.73Z" fill="#8C3FAD"/>
<defs>
<linearGradient id="paint0_linear_4412_63008" x1="149.629" y1="71.1974" x2="208.022" y2="148.718" gradientUnits="userSpaceOnUse">
<stop stop-color="#3F8A01"/>
<stop offset="1" stop-color="#5BA504"/>
</linearGradient>
</defs>
</svg>
