<svg width="257" height="169" viewBox="0 0 257 169" fill="none" xmlns="http://www.w3.org/2000/svg">
<path d="M247.553 4.77344H225.121C222.981 4.77344 221.248 6.50832 221.248 8.64556V44.5715C221.248 46.7111 222.984 48.4436 225.121 48.4436H247.553C249.693 48.4436 251.426 46.7111 251.426 44.5715V8.64556C251.426 6.50832 249.693 4.77344 247.553 4.77344Z" fill="#76C642"/>
<path d="M255.151 9.52344H246.677V30.1668H255.151C256.171 30.1668 257 29.3384 257 28.3183V11.3719C257 10.3518 256.174 9.52344 255.151 9.52344Z" fill="#76C642"/>
<path d="M130.605 79.1987L121.896 81.5625L112.912 48.4733L121.621 46.1095L130.605 79.1987Z" fill="#FE5D05"/>
<path d="M122.006 67.4922H90.2402V61.9349H122.006V67.4922Z" fill="#FE5D05"/>
<path d="M226.98 3.92418V50.2854C226.98 52.3682 225.354 54.0865 223.276 54.2001L180.154 56.5954C173.931 56.9409 168.581 61.1207 166.742 67.0733L160.871 86.0646C158.144 94.8881 150.076 100.98 140.842 101.191L104.403 102.019C93.9374 102.256 85.084 109.825 83.2209 120.126L76.9928 154.579C75.5535 162.539 68.6222 168.328 60.531 168.328H15.5986C5.41483 168.328 -1.8573 158.463 1.16092 148.738L24.0449 74.9713C25.7043 69.6176 23.5715 63.8165 18.837 60.8154C9.93387 55.1705 6.87778 43.6276 11.8182 34.3189L24.3077 10.7903C27.8325 4.15139 34.7353 0 42.2536 0H223.058C225.224 0.00236682 226.98 1.75617 226.98 3.92418ZM144.305 52.4061H114.045C103.958 52.4061 95.7791 60.5811 95.7791 70.6685C95.7791 80.7559 103.958 88.9308 114.045 88.9308H139.239C143.614 88.9308 147.475 86.0717 148.748 81.8848L153.816 65.239C155.758 58.8533 150.981 52.4061 144.305 52.4061Z" fill="#76C642"/>
<path d="M15.6136 161.985C12.7989 161.985 10.2281 160.685 8.5592 158.42C6.8903 156.155 6.40976 153.313 7.24303 150.626L30.1271 76.8621C32.6316 68.7889 29.3932 59.9867 22.2536 55.4614C16.1935 51.62 14.0796 43.6439 17.4458 37.3055L29.9353 13.777C32.3641 9.20193 37.0891 6.35938 42.271 6.35938H220.646V47.9893L179.821 50.2568C170.987 50.7467 163.3 56.7537 160.689 65.2032L154.821 84.1946C153.621 88.0714 150.969 91.1956 147.565 93.0346C150.981 91.0181 153.618 87.7637 154.845 83.7401L159.913 67.0919C161.43 62.1051 160.521 56.8412 157.415 52.6496C154.31 48.4603 149.54 46.058 144.325 46.058H114.062C100.488 46.058 89.4427 57.0992 89.4427 70.6729C89.4427 84.2466 100.486 95.2878 114.062 95.2878H121.308L104.278 95.6736C90.8536 95.979 79.3773 105.789 76.9888 118.999L70.7606 153.452C69.8681 158.394 65.574 161.982 60.5507 161.982H15.6136V161.985Z" fill="#89D359"/>
<path d="M26.7946 7.26951L13.4258 33.4297L9.89063 31.6237L23.2595 5.46354L26.7946 7.26951Z" fill="#FE5D05"/>
<path d="M18.3152 153.253H61.7231C63.9814 153.253 65.9178 151.644 66.3321 149.426L79.7259 77.5413C80.2372 74.7981 78.1327 72.2656 75.3417 72.2656H38.7065C36.1759 72.2656 34.2584 74.5496 34.6988 77.0442C35.7072 82.7577 35.1912 88.6345 33.2027 94.083L13.9145 146.962C12.7971 150.018 15.0602 153.253 18.3152 153.253Z" fill="#6FB741"/>
<path d="M230.941 48.4453H226.98V3.93256H230.941V48.4453Z" fill="#66AF37"/>
<path d="M253.535 30.1797H251.426V9.5363H253.535V30.1797Z" fill="#66AF37"/>
<g opacity="0.7">
<path d="M47.3498 6.75C93.409 6.75 139.471 6.75 185.53 6.75C188.084 6.75 188.089 10.7192 185.53 10.7192C139.471 10.7192 93.409 10.7192 47.3498 10.7192C44.7956 10.7192 44.7908 6.75 47.3498 6.75Z" fill="white"/>
</g>
<g opacity="0.7">
<path d="M213.312 6.86571C216.115 7.12606 218.252 8.75679 219.322 11.3437C219.732 12.3354 218.88 13.5259 217.935 13.7863C216.794 14.0987 215.904 13.3958 215.492 12.3993C215.17 11.623 214.096 10.9082 213.31 10.8349C212.242 10.7354 211.324 9.99464 211.324 8.8491C211.328 7.85503 212.24 6.7663 213.312 6.86571Z" fill="white"/>
</g>
<g opacity="0.7">
<path d="M21.5266 38.9109C21.3325 42.3381 22.457 45.4244 24.8928 47.8622C26.7014 49.6728 23.8939 52.4799 22.0853 50.6693C18.9629 47.5427 17.3082 43.3321 17.5568 38.9109C17.6988 36.3713 21.671 36.3548 21.5266 38.9109Z" fill="white"/>
</g>
<g opacity="0.7">
<path d="M32.7336 100.536C28.2856 112.969 23.8399 125.404 19.3919 137.837C18.5373 140.225 14.7 139.196 15.564 136.782C20.0121 124.349 24.4577 111.913 28.9058 99.4805C29.758 97.0924 33.5976 98.1219 32.7336 100.536Z" fill="white"/>
</g>
</svg>
