<svg width="364" height="364" viewBox="0 0 364 364" fill="none" xmlns="http://www.w3.org/2000/svg">
<path d="M324.258 277.821C324.506 278.046 324.636 278.373 324.606 278.706C324.265 282.455 322.817 291.947 315.267 300.586C307.203 309.812 297.183 312.341 293.508 313.049C293.179 313.113 292.84 313.016 292.592 312.791C245.208 269.885 197.825 226.978 150.442 184.071C140.563 175.125 130.684 166.18 120.805 157.234C120.787 156.852 120.328 155.963 120.914 155.562C122.866 154.226 125.971 151.602 127.981 147.22C130.376 142.002 129.91 137.146 129.416 134.639C129.285 133.974 129.789 133.359 130.467 133.358C133.466 133.352 139.084 132.803 144.462 129.02C147.543 126.853 149.543 124.329 150.778 122.403C151.134 121.848 151.903 121.749 152.392 122.192C162.012 130.903 171.632 139.614 181.252 148.325C228.921 191.49 276.589 234.656 324.258 277.821Z" fill="#DAB899"/>
<path d="M324.259 277.82C324.389 277.94 324.47 278.084 324.47 278.084C324.57 278.262 324.6 278.443 324.603 278.509C324.604 278.521 324.607 278.602 324.607 278.706C324.594 278.835 324.582 278.964 324.569 279.094C324.46 280.096 324.276 281.446 323.947 283.021C323.017 287.479 321.561 290.698 321.062 291.759C319.3 295.499 317.163 298.424 315.267 300.585C253.374 244.995 191.481 189.405 129.588 133.816C132.173 133.764 136.542 133.322 141.175 130.971C142.685 130.204 145.835 128.566 148.679 125.186C149.442 124.279 150.008 123.454 150.398 122.84C150.482 122.724 150.607 122.568 150.779 122.403C150.967 122.222 151.128 122.067 151.328 121.991C151.773 121.821 152.253 122.102 152.393 122.191C209.25 173.675 323.978 277.561 324.259 277.82Z" fill="#DEC3AF"/>
<path d="M140.486 133.475C140.429 134.406 140.104 137.899 137.254 140.838C134.743 143.427 131.776 144.035 130.779 144.195C130.755 144.221 130.627 144.358 130.413 144.368C130.277 144.375 130.139 144.33 130.031 144.232L40.6272 63.2742C40.4104 63.0781 40.3939 62.7432 40.59 62.5264L50.2966 51.8069C50.4931 51.5901 50.8277 51.5736 51.0445 51.7697L140.448 132.727C140.665 132.924 140.682 133.259 140.486 133.475Z" fill="#DA4826"/>
<path d="M56.4043 69.9344C56.3855 69.9551 56.3671 69.9742 56.348 69.9939C56.1108 70.2389 55.6322 70.5408 54.6776 71.1424C54.3944 71.3207 54.1669 71.4569 53.9773 71.5702C53.5019 71.8549 53.2867 71.9853 53.045 72.2685C52.7515 72.616 52.5438 73.0406 52.4276 73.5299C52.4033 73.6337 52.2985 73.6985 52.1943 73.6739C52.0898 73.649 52.0254 73.5444 52.0503 73.4402C52.1804 72.8911 52.4156 72.4128 52.7489 72.018C53.0292 71.6847 53.2803 71.5352 53.7783 71.2372C53.9656 71.1249 54.1906 70.9903 54.4698 70.8146C55.3989 70.2292 55.8648 69.9354 56.0694 69.724C56.2282 69.5571 56.3538 69.3966 57.2178 67.7776C57.3909 67.453 57.5236 67.2013 57.6288 67.0026C57.9721 66.3515 58.0249 66.2518 58.2061 66.0451C58.6274 65.5639 59.0811 65.2836 59.9884 64.7203C60.3117 64.5193 60.5547 64.3811 60.7483 64.2708C61.121 64.0585 61.287 63.9643 61.5081 63.7174C61.8339 63.3498 62.0546 62.8825 62.1633 62.3285C62.1834 62.2231 62.2857 62.1551 62.3912 62.1755C62.4963 62.1959 62.5649 62.2981 62.5442 62.4033C62.4219 63.0259 62.1711 63.5547 61.7987 63.9747C61.5401 64.2643 61.3268 64.3882 60.9405 64.608C60.7502 64.716 60.5114 64.8523 60.1936 65.0497C59.3189 65.593 58.8733 65.8668 58.4983 66.301C58.3472 66.4735 58.3044 66.5541 57.9724 67.1835C57.8673 67.3828 57.7339 67.6349 57.5605 67.9601C56.7589 69.4619 56.5726 69.7486 56.4043 69.9344Z" fill="#145E74"/>
<path d="M57.5566 70.9806C57.5379 71.0013 57.5194 71.0204 57.5003 71.0402C57.2631 71.2851 56.7845 71.587 55.8299 72.1886C55.5468 72.3669 55.3193 72.5031 55.13 72.6167C54.6546 72.9012 54.4394 73.0319 54.1974 73.315C53.9039 73.6626 53.6961 74.0871 53.5799 74.5764C53.5557 74.6803 53.4508 74.745 53.3466 74.7204C53.2421 74.6958 53.1777 74.591 53.2026 74.4871C53.3327 73.938 53.568 73.4597 53.9013 73.0649C54.1815 72.7316 54.4326 72.5821 54.9306 72.2841C55.118 72.1718 55.3429 72.0372 55.6222 71.8614C56.5512 71.2761 57.0172 70.9822 57.2217 70.7709C57.3806 70.6039 57.5061 70.4434 58.3702 68.8245C58.5433 68.4999 58.6763 68.2482 58.7811 68.0495C59.1245 67.3984 59.1772 67.2987 59.3587 67.0919C59.7797 66.6108 60.2337 66.3308 61.1411 65.7671C61.4644 65.5662 61.7071 65.428 61.9009 65.3177C62.2737 65.1054 62.4397 65.0112 62.6607 64.7643C62.9866 64.3967 63.2073 63.9294 63.316 63.3754C63.3361 63.2699 63.4383 63.202 63.5438 63.2224C63.649 63.2427 63.7176 63.345 63.6969 63.4502C63.5746 64.0731 63.3238 64.6015 62.9513 65.0219C62.6928 65.3115 62.4795 65.4354 62.0931 65.6552C61.9029 65.7632 61.6644 65.8995 61.3463 66.0969C60.4716 66.6402 60.026 66.914 59.6509 67.3482C59.4998 67.5204 59.4571 67.6013 59.1251 68.2307C59.0199 68.43 58.8866 68.6821 58.7132 69.0073C57.911 70.5082 57.7246 70.7949 57.5566 70.9806Z" fill="#145E74"/>
<path d="M58.7051 72.0119C58.6863 72.0326 58.6678 72.0517 58.6488 72.0714C58.4116 72.3164 57.9326 72.6183 56.9783 73.2199C56.6952 73.3982 56.4677 73.5344 56.2784 73.648C55.803 73.9327 55.5878 74.0631 55.3458 74.3463C55.0523 74.6938 54.8445 75.1184 54.7284 75.6077C54.7041 75.7116 54.5993 75.7763 54.4951 75.7517C54.3905 75.7271 54.3261 75.6222 54.3511 75.5184C54.4811 74.9692 54.7164 74.4906 55.0497 74.0962C55.3299 73.7628 55.5811 73.6133 56.0791 73.3153C56.2664 73.203 56.4913 73.0684 56.7706 72.8927C57.6996 72.3073 58.1656 72.0135 58.3701 71.8022C58.529 71.6352 58.6546 71.4747 59.5189 69.8557C59.692 69.5312 59.8247 69.2794 59.9299 69.0807C60.2732 68.4296 60.326 68.33 60.5072 68.1232C60.9282 67.642 61.3822 67.3621 62.2896 66.7984C62.6128 66.5974 62.8555 66.4593 63.0494 66.3489C63.4221 66.1366 63.5881 66.0425 63.8092 65.7956C64.135 65.4279 64.3557 64.9607 64.4645 64.4067C64.4845 64.3012 64.5868 64.2332 64.6923 64.2536C64.7974 64.274 64.866 64.3763 64.8453 64.4814C64.723 65.1043 64.4722 65.6328 64.0998 66.0528C63.8412 66.3424 63.628 66.4664 63.2416 66.6861C63.0513 66.7942 62.8128 66.9304 62.4947 67.1278C61.62 67.6711 61.1744 67.9449 60.7994 68.3792C60.6483 68.5516 60.6056 68.6322 60.2735 69.2619C60.1684 69.4609 60.035 69.7134 59.8616 70.0386C59.0594 71.5394 58.873 71.8261 58.7051 72.0119Z" fill="#145E74"/>
<path d="M59.8558 73.0591C59.837 73.0798 59.8186 73.0989 59.7995 73.1186C59.5623 73.3636 59.0837 73.6655 58.1291 74.2671C57.8459 74.4454 57.6184 74.5816 57.4288 74.6952C56.9534 74.9796 56.7382 75.1103 56.4962 75.3935C56.2027 75.741 55.9949 76.1656 55.8788 76.6549C55.8545 76.7588 55.7496 76.8235 55.6455 76.7989C55.5409 76.7743 55.4765 76.6694 55.5014 76.5652C55.6315 76.0161 55.8668 75.5378 56.2001 75.143C56.4803 74.8097 56.7314 74.6602 57.2295 74.3622C57.4168 74.2499 57.6417 74.1153 57.921 73.9396C58.85 73.3542 59.316 73.0604 59.5205 72.849C59.6794 72.6821 59.805 72.5216 60.669 70.9026C60.8421 70.578 60.9748 70.3263 61.0799 70.1276C61.4233 69.4765 61.476 69.3768 61.6572 69.1701C62.0786 68.6889 62.5323 68.4086 63.4396 67.8453C63.7629 67.6443 64.0056 67.5061 64.1994 67.3958C64.5722 67.1835 64.7382 67.0893 64.9592 66.8424C65.2851 66.4748 65.5058 66.0075 65.6145 65.4535C65.6346 65.3481 65.7368 65.2801 65.8423 65.3005C65.9475 65.3209 66.0161 65.4231 65.9954 65.5283C65.8731 66.1509 65.6223 66.6797 65.2498 67.0997C64.9913 67.3893 64.778 67.5132 64.3916 67.733C64.2014 67.841 63.9629 67.9773 63.6448 68.1744C62.7704 68.7177 62.3245 68.9914 61.9495 69.4257C61.7983 69.5982 61.7556 69.6788 61.4233 70.3085C61.3181 70.5075 61.1848 70.7599 61.0113 71.0851C60.2101 72.5869 60.0237 72.8736 59.8558 73.0591Z" fill="#145E74"/>
<path d="M61.0062 74.1059C60.9874 74.1266 60.969 74.1457 60.9499 74.1655C60.7127 74.4104 60.2341 74.7124 59.2794 75.3139C58.9963 75.4922 58.7688 75.6285 58.5792 75.7417C58.1038 76.0265 57.8886 76.1569 57.6466 76.44C57.3531 76.7876 57.1453 77.2121 57.0292 77.7014C57.0049 77.8053 56.9 77.87 56.7958 77.8454C56.6913 77.8208 56.6269 77.716 56.6518 77.6121C56.7819 77.063 57.0172 76.5844 57.3505 76.1899C57.6307 75.8566 57.8818 75.7071 58.3798 75.4091C58.5672 75.2968 58.7921 75.1622 59.0714 74.9864C60.0004 74.4011 60.4664 74.1072 60.6709 73.8959C60.8298 73.7289 60.9554 73.5684 61.8194 71.9495C61.9925 71.6249 62.1252 71.3732 62.2303 71.1745C62.5737 70.5237 62.6264 70.4237 62.8076 70.2169C63.229 69.7358 63.6826 69.4558 64.59 68.8921C64.9133 68.6912 65.156 68.553 65.3498 68.4427C65.7226 68.2304 65.8886 68.1362 66.1096 67.8893C66.4355 67.5217 66.6562 67.0544 66.7649 66.5004C66.785 66.3949 66.8872 66.327 66.9924 66.3474C67.0976 66.3677 67.1662 66.47 67.1455 66.5752C67.0231 67.1981 66.7724 67.7265 66.3999 68.1466C66.1413 68.4362 65.9281 68.5601 65.5417 68.7798C65.3514 68.8879 65.1126 69.0242 64.7948 69.2216C63.9205 69.7649 63.4746 70.0386 63.0995 70.4729C62.9484 70.6454 62.9057 70.726 62.5733 71.3557C62.4682 71.5547 62.3349 71.8071 62.1614 72.1323C61.3605 73.6335 61.1741 73.9202 61.0062 74.1059Z" fill="#145E74"/>
<path d="M62.1566 75.1453C62.1378 75.166 62.1193 75.1851 62.1003 75.2049C61.8631 75.4498 61.3841 75.7517 60.4298 76.3533C60.1467 76.5316 59.9192 76.6678 59.7296 76.7811C59.2542 77.0659 59.039 77.1963 58.797 77.4794C58.5035 77.827 58.2957 78.2515 58.1795 78.7408C58.1553 78.8447 58.0504 78.9094 57.9462 78.8848C57.8417 78.8599 57.7773 78.7554 57.8022 78.6512C57.9323 78.102 58.1676 77.6238 58.5009 77.229C58.7811 76.8957 59.0322 76.7462 59.5302 76.4481C59.7176 76.3358 59.9425 76.2012 60.2218 76.0255C61.1508 75.4401 61.6168 75.1463 61.8213 74.935C61.9802 74.768 62.1058 74.6075 62.9698 72.9885C63.1429 72.664 63.2756 72.4122 63.3807 72.2135C63.7241 71.5628 63.7768 71.4628 63.958 71.256C64.3793 70.7748 64.833 70.4949 65.7404 69.9312C66.0637 69.7302 66.3064 69.5921 66.5002 69.4817C66.873 69.2694 67.039 69.1753 67.26 68.9284C67.5859 68.5608 67.8066 68.0935 67.9153 67.5395C67.9354 67.434 68.0376 67.366 68.1431 67.3864C68.2483 67.4068 68.3169 67.5091 68.2962 67.6142C68.1739 68.2368 67.9231 68.7656 67.5506 69.1856C67.2921 69.4752 67.0788 69.5992 66.6924 69.8189C66.5021 69.927 66.2633 70.0632 65.9456 70.2606C65.0709 70.8039 64.6253 71.0777 64.2502 71.512C64.0991 71.6844 64.0564 71.765 63.7241 72.3944C63.6189 72.5938 63.4856 72.8458 63.3121 73.1711C62.5109 74.6729 62.3248 74.9596 62.1566 75.1453Z" fill="#145E74"/>
<path d="M63.3066 76.1915C63.2879 76.2123 63.2694 76.2313 63.2503 76.2511C63.0131 76.4961 62.5342 76.798 61.5799 77.3995C61.2968 77.5778 61.0693 77.7141 60.8796 77.8277C60.4043 78.1121 60.1891 78.2428 59.9474 78.526C59.6539 78.8735 59.4461 79.2981 59.3299 79.7874C59.3057 79.8912 59.2008 79.956 59.0966 79.9314C58.9921 79.9068 58.9277 79.8019 58.9526 79.698C59.083 79.1489 59.318 78.6706 59.6513 78.2758C59.9315 77.9425 60.1826 77.793 60.6806 77.495C60.868 77.3827 61.0929 77.2481 61.3722 77.0724C62.3012 76.487 62.7672 76.1932 62.9717 75.9819C63.1306 75.8149 63.2561 75.6544 64.1201 74.0354C64.2933 73.7108 64.4259 73.4591 64.5311 73.2604C64.8745 72.6096 64.9272 72.5097 65.1084 72.3029C65.5297 71.8217 65.9834 71.5418 66.8908 70.9781C67.2141 70.7771 67.4568 70.6389 67.6506 70.5286C68.0234 70.3163 68.1894 70.2221 68.4104 69.9752C68.7363 69.6076 68.957 69.1404 69.0657 68.5864C69.0858 68.4809 69.188 68.4129 69.2935 68.4333C69.3987 68.4537 69.4673 68.5559 69.4466 68.6611C69.3242 69.284 69.0735 69.8125 68.701 70.2325C68.4424 70.5221 68.2292 70.6461 67.8428 70.8658C67.6525 70.9739 67.414 71.1101 67.096 71.3075C66.2213 71.8508 65.7757 72.1246 65.4006 72.5588C65.2495 72.7313 65.2068 72.8119 64.8745 73.4413C64.7693 73.6406 64.636 73.8927 64.4625 74.2179C63.661 75.7191 63.4749 76.0058 63.3066 76.1915Z" fill="#145E74"/>
<path d="M64.459 77.2306C64.4402 77.2513 64.4218 77.2704 64.4027 77.2902C64.1655 77.5351 63.6865 77.837 62.7323 78.4386C62.4491 78.6169 62.2216 78.7531 62.0323 78.8667C61.5569 79.1515 61.3418 79.2819 61.0997 79.565C60.8062 79.9126 60.5985 80.3371 60.4823 80.8264C60.458 80.9303 60.3532 80.995 60.249 80.9704C60.1444 80.9458 60.08 80.841 60.105 80.7371C60.2351 80.188 60.4703 79.7097 60.8036 79.3149C61.0838 78.9816 61.335 78.8321 61.833 78.5341C62.0203 78.4218 62.2452 78.2872 62.5245 78.1114C63.4536 77.5261 63.9195 77.2322 64.124 77.0209C64.2829 76.8539 64.4085 76.6934 65.2725 75.0745C65.4456 74.7499 65.5783 74.4982 65.6835 74.2995C66.0268 73.6484 66.0795 73.5487 66.2611 73.3419C66.6821 72.8607 67.1361 72.5808 68.0435 72.0171C68.3667 71.8162 68.6094 71.678 68.8033 71.5677C69.1761 71.3554 69.3421 71.2612 69.5631 71.0143C69.8889 70.6467 70.1096 70.1794 70.2184 69.6254C70.2384 69.5199 70.3407 69.452 70.4462 69.4724C70.5513 69.4927 70.6199 69.595 70.5992 69.7002C70.4769 70.3228 70.2261 70.8515 69.8537 71.2716C69.5951 71.5612 69.3819 71.6851 68.9955 71.9048C68.8052 72.0129 68.5667 72.1492 68.2486 72.3466C67.3739 72.8899 66.9283 73.1636 66.5533 73.5979C66.4022 73.7704 66.3595 73.851 66.0271 74.4807C65.922 74.6797 65.7886 74.9321 65.6152 75.2573C64.8133 76.7582 64.6272 77.0449 64.459 77.2306Z" fill="#145E74"/>
<path d="M65.6077 78.2697C65.589 78.2904 65.5705 78.3095 65.5514 78.3292C65.3142 78.5742 64.8353 78.8761 63.881 79.4777C63.5979 79.656 63.3704 79.7922 63.1807 79.9058C62.7054 80.1902 62.4902 80.321 62.2481 80.6041C61.9546 80.9516 61.7469 81.3762 61.6307 81.8655C61.6064 81.9694 61.5016 82.0341 61.3974 82.0095C61.2929 81.9849 61.2285 81.8801 61.2534 81.7762C61.3835 81.227 61.6187 80.7488 61.9521 80.354C62.2323 80.0207 62.4834 79.8712 62.9814 79.5731C63.1688 79.4608 63.3937 79.3262 63.6729 79.1505C64.6017 78.5651 65.068 78.2713 65.2725 78.06C65.4314 77.893 65.5569 77.7325 66.4213 76.1135C66.5944 75.789 66.7271 75.5372 66.8322 75.3385C67.1756 74.6875 67.2283 74.5878 67.4095 74.381C67.8305 73.8998 68.2845 73.6199 69.1919 73.0562C69.5152 72.8552 69.7579 72.7171 69.9517 72.6067C70.3245 72.3944 70.4905 72.3003 70.7115 72.0534C71.0374 71.6858 71.2581 71.2185 71.3668 70.6645C71.3869 70.559 71.4891 70.491 71.5946 70.5114C71.6998 70.5321 71.7684 70.6341 71.7477 70.7392C71.6254 71.3622 71.3746 71.8906 71.0021 72.311C70.7435 72.6006 70.5303 72.7245 70.1439 72.9442C69.9536 73.0523 69.7152 73.1885 69.3971 73.3856C68.5224 73.9289 68.0768 74.2027 67.7017 74.637C67.5506 74.8094 67.5079 74.89 67.1756 75.5197C67.0704 75.7188 66.9371 75.9712 66.7636 76.2964C65.9624 77.7972 65.776 78.0839 65.6077 78.2697Z" fill="#145E74"/>
<path d="M66.7581 79.3091C66.7394 79.3298 66.7209 79.3489 66.7018 79.3686C66.4646 79.6136 65.9857 79.9155 65.0314 80.517C64.7483 80.6954 64.5208 80.8316 64.3311 80.9448C63.8558 81.2296 63.6406 81.36 63.3985 81.6432C63.105 81.9907 62.8973 82.4153 62.7811 82.9046C62.7568 83.0084 62.652 83.0731 62.5478 83.0486C62.4433 83.0236 62.3789 82.9191 62.4038 82.8152C62.5342 82.2661 62.7691 81.7875 63.1024 81.393C63.3827 81.0597 63.6338 80.9102 64.1318 80.6122C64.3192 80.4999 64.5441 80.3653 64.8233 80.1896C65.7524 79.6042 66.2184 79.3104 66.4229 79.099C66.5818 78.9321 66.7073 78.7716 67.5713 77.1526C67.7444 76.828 67.8771 76.5763 67.9823 76.3776C68.3256 75.7268 68.3784 75.6268 68.5596 75.4201C68.9809 74.9389 69.4346 74.659 70.342 74.0953C70.6652 73.8943 70.9079 73.7561 71.1018 73.6458C71.4746 73.4335 71.6406 73.3393 71.8616 73.0924C72.1874 72.7248 72.4081 72.2575 72.5169 71.7035C72.5369 71.5981 72.6392 71.5301 72.7447 71.5505C72.8498 71.5712 72.9184 71.6731 72.8977 71.7783C72.7754 72.4012 72.5246 72.9297 72.1522 73.3497C71.8936 73.6393 71.6804 73.7632 71.294 73.983C71.1037 74.091 70.8652 74.2273 70.5471 74.4247C69.6728 74.968 69.2268 75.2418 68.8518 75.676C68.7007 75.8485 68.658 75.9291 68.3256 76.5588C68.2205 76.7578 68.0871 77.0102 67.9137 77.3354C67.1125 78.8366 66.9261 79.1233 66.7581 79.3091Z" fill="#145E74"/>
<path d="M67.9085 80.3556C67.8897 80.3763 67.8713 80.3954 67.8522 80.4152C67.615 80.6601 67.1364 80.962 66.1818 81.5636C65.8986 81.7419 65.6711 81.8781 65.4815 81.9917C65.0061 82.2762 64.791 82.4069 64.5489 82.69C64.2554 83.0376 64.0477 83.4621 63.9315 83.9514C63.9072 84.0553 63.8024 84.12 63.6982 84.0954C63.594 84.0708 63.5292 83.966 63.5542 83.8621C63.6846 83.313 63.9195 82.8347 64.2528 82.4399C64.533 82.1066 64.7842 81.9571 65.2822 81.6591C65.4695 81.5468 65.6944 81.4122 65.9737 81.2364C66.9028 80.6507 67.3687 80.3572 67.5732 80.1459C67.7321 79.9789 67.8577 79.8184 68.7217 78.1995C68.8948 77.8749 69.0275 77.6232 69.1327 77.4245C69.476 76.7734 69.5287 76.6737 69.71 76.4669C70.1313 75.9857 70.585 75.7055 71.4923 75.1421C71.8156 74.9412 72.0583 74.803 72.2521 74.6927C72.6249 74.4804 72.7909 74.3862 73.0119 74.1393C73.3378 73.7717 73.5585 73.3044 73.6672 72.7504C73.6873 72.6449 73.7896 72.577 73.895 72.5974C74.0002 72.6177 74.0688 72.72 74.0481 72.8252C73.9258 73.4478 73.675 73.9765 73.3025 74.3966C73.044 74.6862 72.8307 74.8101 72.4444 75.0298C72.2541 75.1379 72.0153 75.2742 71.6975 75.4716C70.8231 76.0149 70.3772 76.2886 70.0022 76.7229C69.8511 76.8954 69.8083 76.976 69.476 77.6054C69.3708 77.8047 69.2375 78.0568 69.0641 78.382C68.2628 79.8832 68.0764 80.1702 67.9085 80.3556Z" fill="#145E74"/>
<path d="M69.0589 81.3947C69.0401 81.4154 69.0217 81.4345 69.0026 81.4542C68.7654 81.6992 68.2868 82.0011 67.3322 82.6027C67.049 82.781 66.8215 82.9172 66.6319 83.0308C66.1565 83.3155 65.9413 83.446 65.6993 83.7291C65.4058 84.0766 65.198 84.5012 65.0819 84.9905C65.0576 85.0944 64.9528 85.1591 64.8486 85.1345C64.7444 85.1099 64.6796 85.005 64.7046 84.9012C64.835 84.352 65.0699 83.8738 65.4032 83.479C65.6834 83.1457 65.9346 82.9962 66.4326 82.6981C66.6199 82.5858 66.8448 82.4512 67.1241 82.2755C68.0531 81.6901 68.5191 81.3963 68.7236 81.185C68.8825 81.018 69.0081 80.8575 69.8721 79.2385C70.0452 78.914 70.1779 78.6622 70.2831 78.4635C70.6264 77.8128 70.6791 77.7128 70.8604 77.506C71.2817 77.0248 71.7354 76.7449 72.6427 76.1812C72.966 75.9802 73.2087 75.8421 73.4025 75.7317C73.7753 75.5194 73.9413 75.4253 74.1623 75.1784C74.4882 74.8108 74.7089 74.3435 74.8176 73.7895C74.8377 73.684 74.9399 73.616 75.0454 73.6364C75.1506 73.6568 75.2192 73.7591 75.1985 73.8642C75.0762 74.4872 74.8254 75.0156 74.4529 75.4356C74.1944 75.7252 73.9811 75.8492 73.5948 76.0689C73.4045 76.177 73.1657 76.3132 72.8479 76.5106C71.9732 77.0539 71.5276 77.3277 71.1526 77.762C71.0014 77.9344 70.9587 78.015 70.6264 78.6447C70.5212 78.8441 70.3879 79.0962 70.2145 79.4214C69.4132 80.9222 69.2268 81.2089 69.0589 81.3947Z" fill="#145E74"/>
<path d="M70.2109 82.4344C70.1922 82.4551 70.1737 82.4745 70.1546 82.4939C69.9174 82.7389 69.4385 83.0408 68.4842 83.6424C68.2011 83.8207 67.9736 83.9569 67.7843 84.0702C67.3089 84.3549 67.0937 84.4853 66.8517 84.7685C66.5582 85.116 66.3504 85.5406 66.2342 86.0299C66.21 86.1337 66.1051 86.1985 66.0009 86.1739C65.8964 86.1493 65.832 86.0444 65.8569 85.9402C65.9873 85.3911 66.2223 84.9128 66.5556 84.518C66.8358 84.1847 67.0869 84.0352 67.5849 83.7372C67.7723 83.6249 67.9975 83.4903 68.2765 83.3146C69.2055 82.7292 69.6715 82.4354 69.876 82.224C70.0349 82.0571 70.1604 81.8966 71.0244 80.2776C71.1976 79.953 71.3306 79.7013 71.4354 79.5026C71.7788 78.8515 71.8315 78.7518 72.013 78.5451C72.434 78.0639 72.888 77.784 73.7954 77.2203C74.1187 77.0193 74.3614 76.8811 74.5552 76.7708C74.928 76.5585 75.094 76.4643 75.315 76.2174C75.6409 75.8498 75.8616 75.3825 75.9703 74.8285C75.9904 74.7231 76.0926 74.6551 76.1981 74.6755C76.3033 74.6959 76.3719 74.7981 76.3512 74.9033C76.2289 75.5259 75.9781 76.0547 75.6056 76.4747C75.3471 76.7643 75.1338 76.8882 74.7474 77.108C74.5572 77.216 74.3187 77.3523 74.0006 77.5497C73.1259 78.093 72.6803 78.3668 72.3052 78.801C72.1541 78.9735 72.1114 79.0541 71.7791 79.6835C71.6739 79.8825 71.5406 80.1349 71.3671 80.4601C70.5653 81.9619 70.3789 82.2486 70.2109 82.4344Z" fill="#145E74"/>
<path d="M71.3613 83.4806C71.3425 83.5013 71.3241 83.5204 71.305 83.5402C71.0678 83.7851 70.5889 84.087 69.6346 84.6886C69.3514 84.8669 69.124 85.0031 68.9347 85.1167C68.4593 85.4012 68.2441 85.5319 68.002 85.815C67.7085 86.1626 67.5008 86.5871 67.3846 87.0764C67.3604 87.1803 67.2555 87.245 67.1513 87.2204C67.0468 87.1958 66.9824 87.091 67.0073 86.9871C67.1374 86.438 67.3726 85.9597 67.706 85.5649C67.9862 85.2316 68.2373 85.0821 68.7353 84.7841C68.9227 84.6718 69.1479 84.5372 69.4268 84.3614C70.3559 83.7761 70.8219 83.4822 71.0264 83.2709C71.1853 83.1039 71.3108 82.9434 72.1748 81.3245C72.348 80.9999 72.4806 80.7482 72.5858 80.5495C72.9291 79.8984 72.9819 79.7987 73.1631 79.5919C73.5841 79.1107 74.0381 78.8308 74.9455 78.2671C75.2688 78.0662 75.5115 77.928 75.7053 77.8177C76.0781 77.6054 76.2441 77.5112 76.4651 77.2643C76.791 76.8967 77.0116 76.4294 77.1204 75.8754C77.1404 75.7699 77.2427 75.702 77.3482 75.7224C77.4534 75.7431 77.522 75.845 77.5013 75.9502C77.3789 76.5731 77.1281 77.1015 76.7557 77.5216C76.4971 77.8112 76.2839 77.9351 75.8975 78.1548C75.7072 78.2629 75.4687 78.3992 75.1506 78.5966C74.276 79.1399 73.8304 79.4136 73.4553 79.8479C73.3042 80.0204 73.2615 80.101 72.9291 80.7304C72.824 80.9294 72.6906 81.1818 72.5172 81.507C71.7157 83.0082 71.5293 83.2949 71.3613 83.4806Z" fill="#145E74"/>
<path d="M72.5101 84.52C72.4913 84.5407 72.4729 84.5598 72.4538 84.5795C72.2166 84.8245 71.7376 85.1264 70.7834 85.728C70.5002 85.9063 70.2727 86.0425 70.0831 86.1558C69.6077 86.4406 69.3925 86.571 69.1505 86.8541C68.857 87.2017 68.6492 87.6262 68.5331 88.1155C68.5088 88.2194 68.4039 88.2841 68.2997 88.2595C68.1952 88.2346 68.1308 88.1301 68.1557 88.0262C68.2858 87.477 68.5211 86.9984 68.8544 86.604C69.1346 86.2707 69.3857 86.1212 69.8838 85.8231C70.0711 85.7108 70.2963 85.5762 70.5753 85.4005C71.504 84.8151 71.9703 84.5213 72.1748 84.31C72.3337 84.143 72.4593 83.9825 73.3236 82.3635C73.4967 82.039 73.6294 81.7872 73.7346 81.5885C74.0779 80.9375 74.1307 80.8378 74.3119 80.631C74.7332 80.1498 75.1869 79.8699 76.0942 79.3062C76.4175 79.1052 76.6602 78.9671 76.854 78.8567C77.2268 78.6444 77.3928 78.5503 77.6139 78.3034C77.9397 77.9358 78.1604 77.4685 78.2691 76.9145C78.2892 76.809 78.3915 76.741 78.497 76.7614C78.6021 76.7821 78.6707 76.8841 78.65 76.9892C78.5277 77.6118 78.2769 78.1406 77.9044 78.5606C77.6459 78.8502 77.4326 78.9742 77.0463 79.1939C76.856 79.302 76.6175 79.4382 76.2994 79.6356C75.425 80.1789 74.9791 80.4527 74.6041 80.887C74.453 81.0594 74.4102 81.14 74.0779 81.7697C73.9727 81.9688 73.8394 82.2212 73.666 82.5464C72.8644 84.0475 72.6783 84.3346 72.5101 84.52Z" fill="#145E74"/>
<path d="M73.6605 85.5587C73.6417 85.5794 73.6233 85.5985 73.6042 85.6183C73.367 85.8632 72.8884 86.1652 71.9337 86.7667C71.6506 86.945 71.4231 87.0813 71.2335 87.1948C70.7581 87.4793 70.5429 87.61 70.3009 87.8932C70.0074 88.2407 69.7996 88.6653 69.6835 89.1545C69.6592 89.2584 69.5543 89.3231 69.4501 89.2986C69.3456 89.274 69.2812 89.1691 69.3061 89.0652C69.4362 88.5161 69.6715 88.0378 70.0048 87.643C70.285 87.3097 70.5361 87.1602 71.0341 86.8622C71.2215 86.7499 71.4464 86.6153 71.7257 86.4396C72.6547 85.8542 73.1207 85.5604 73.3252 85.349C73.4841 85.1821 73.6097 85.0216 74.4737 83.4026C74.6468 83.078 74.7795 82.8263 74.8846 82.6276C75.228 81.9765 75.2807 81.8768 75.4619 81.6701C75.8833 81.1889 76.3369 80.909 77.2443 80.3453C77.5676 80.1443 77.8103 80.0061 78.0041 79.8958C78.3769 79.6835 78.5429 79.5893 78.7639 79.3424C79.0898 78.9748 79.3105 78.5075 79.4192 77.9535C79.4393 77.8481 79.5415 77.7801 79.647 77.8005C79.7522 77.8209 79.8208 77.9231 79.8001 78.0283C79.6778 78.6512 79.427 79.1797 79.0545 79.6C78.796 79.8896 78.5827 80.0136 78.1963 80.2333C78.0061 80.3414 77.7676 80.4776 77.4495 80.675C76.5751 81.2183 76.1292 81.4921 75.7541 81.9264C75.603 82.0988 75.5603 82.1794 75.228 82.8091C75.1228 83.0081 74.9895 83.2605 74.816 83.5858C74.0148 85.0863 73.8287 85.373 73.6605 85.5587Z" fill="#145E74"/>
<path d="M74.8109 86.6063C74.7921 86.627 74.7736 86.6461 74.7545 86.6658C74.5174 86.9108 74.0388 87.2127 73.0841 87.8142C72.801 87.9926 72.5735 88.1288 72.3839 88.242C71.9085 88.5268 71.6933 88.6572 71.4513 88.9404C71.1578 89.2879 70.95 89.7125 70.8338 90.2017C70.8096 90.3056 70.7047 90.3703 70.6005 90.3458C70.496 90.3208 70.4316 90.2163 70.4565 90.1121C70.5866 89.563 70.8219 89.0847 71.1552 88.6899C71.4354 88.3566 71.6865 88.2071 72.1845 87.9091C72.3719 87.7968 72.5968 87.6622 72.8761 87.4864C73.8051 86.9011 74.2711 86.6072 74.4756 86.3959C74.6345 86.2289 74.76 86.0684 75.6241 84.4495C75.7972 84.1249 75.9299 83.8732 76.035 83.6745C76.3784 83.0234 76.4311 82.9237 76.6123 82.7169C77.0336 82.2358 77.4873 81.9558 78.3947 81.3921C78.718 81.1912 78.9607 81.053 79.1545 80.9427C79.5273 80.7304 79.6933 80.6362 79.9143 80.3893C80.2402 80.0217 80.4609 79.5544 80.5696 79.0004C80.5897 78.8949 80.6919 78.827 80.7974 78.8474C80.9026 78.8677 80.9712 78.97 80.9505 79.0752C80.8282 79.6981 80.5774 80.2265 80.2049 80.6466C79.9463 80.9362 79.7331 81.0601 79.3467 81.2798C79.1564 81.3879 78.9176 81.5242 78.5999 81.7216C77.7252 82.2649 77.2796 82.5386 76.9045 82.9729C76.7534 83.1454 76.7107 83.226 76.3784 83.8557C76.2732 84.0547 76.1399 84.3071 75.9664 84.6323C75.1655 86.1338 74.9791 86.4205 74.8109 86.6063Z" fill="#145E74"/>
<path d="M75.9629 87.6447C75.9441 87.6654 75.9256 87.6845 75.9065 87.7042C75.6694 87.9492 75.1908 88.2511 74.2361 88.8527C73.953 89.031 73.7255 89.1672 73.5359 89.2808C73.0605 89.5652 72.8453 89.696 72.6036 89.9791C72.3101 90.3266 72.1023 90.7512 71.9862 91.2405C71.9619 91.3444 71.8571 91.4091 71.7529 91.3845C71.6487 91.3599 71.5839 91.255 71.6089 91.1512C71.7393 90.602 71.9742 90.1238 72.3075 89.729C72.5877 89.3957 72.8388 89.2462 73.3369 88.9481C73.5242 88.8358 73.7491 88.7012 74.0284 88.5255C74.9574 87.9401 75.4234 87.6463 75.6279 87.435C75.7868 87.268 75.9124 87.1075 76.7764 85.4885C76.9495 85.164 77.0822 84.9122 77.1874 84.7135C77.5307 84.0624 77.5834 83.9628 77.7646 83.756C78.186 83.2748 78.6397 82.9949 79.547 82.4312C79.8703 82.2302 80.113 82.0921 80.3068 81.9817C80.6796 81.7694 80.8456 81.6753 81.0666 81.4284C81.3925 81.0608 81.6132 80.5935 81.7219 80.0395C81.742 79.934 81.8442 79.866 81.9497 79.8864C82.0549 79.9068 82.1235 80.0091 82.1028 80.1142C81.9805 80.7368 81.7297 81.2656 81.3572 81.6856C81.0987 81.9752 80.8854 82.0992 80.499 82.3189C80.3088 82.427 80.07 82.5632 79.7522 82.7606C78.8775 83.3039 78.4319 83.5777 78.0569 84.012C77.9057 84.1844 77.863 84.265 77.5307 84.8944C77.4255 85.0938 77.2922 85.3458 77.1187 85.671C76.3175 87.1722 76.1311 87.4589 75.9629 87.6447Z" fill="#145E74"/>
<path d="M77.1132 88.6837C77.0945 88.7044 77.076 88.7235 77.0569 88.7433C76.8197 88.9882 76.3411 89.2902 75.3865 89.8917C75.1034 90.07 74.8759 90.2063 74.6866 90.3198C74.2112 90.6043 73.996 90.735 73.754 91.0182C73.4605 91.3657 73.2527 91.7903 73.1366 92.2796C73.1123 92.3834 73.0074 92.4481 72.9032 92.4236C72.799 92.399 72.7343 92.2941 72.7592 92.1902C72.8897 91.6411 73.1246 91.1625 73.4579 90.768C73.7381 90.4347 73.9892 90.2852 74.4873 89.9872C74.6746 89.8749 74.8998 89.7403 75.1788 89.5646C76.1078 88.9792 76.5738 88.6854 76.7783 88.474C76.9372 88.3071 77.0628 88.1466 77.9268 86.5276C78.0999 86.203 78.2326 85.9513 78.3377 85.7526C78.6811 85.1018 78.7338 85.0018 78.9154 84.7951C79.3364 84.3139 79.7904 84.034 80.6977 83.4703C81.021 83.2693 81.2637 83.1311 81.4575 83.0208C81.8303 82.8085 81.9963 82.7143 82.2174 82.4674C82.5432 82.0998 82.7639 81.6325 82.8726 81.0785C82.8927 80.9731 82.995 80.9051 83.1004 80.9255C83.2056 80.9462 83.2742 81.0481 83.2535 81.1533C83.1312 81.7762 82.8804 82.3047 82.5079 82.7247C82.2494 83.0143 82.0361 83.1382 81.6498 83.358C81.4595 83.466 81.221 83.6023 80.9029 83.7997C80.0282 84.343 79.5826 84.6168 79.2076 85.051C79.0565 85.2235 79.0137 85.3041 78.6817 85.9338C78.5766 86.1331 78.4432 86.3852 78.2698 86.7104C77.4676 88.2113 77.2812 88.4983 77.1132 88.6837Z" fill="#145E74"/>
<path d="M78.2637 89.7309C78.2449 89.7516 78.2264 89.7707 78.2074 89.7905C77.9702 90.0354 77.4916 90.3374 76.5369 90.9389C76.2538 91.1172 76.0263 91.2535 75.837 91.367C75.3616 91.6515 75.1464 91.7819 74.9044 92.0654C74.6109 92.4129 74.4031 92.8375 74.287 93.3268C74.2627 93.4306 74.1579 93.4953 74.0537 93.4708C73.9491 93.4462 73.8847 93.3413 73.9097 93.2371C74.0397 92.688 74.275 92.2097 74.6083 91.8149C74.8885 91.4816 75.1396 91.3321 75.6377 91.0341C75.825 90.9218 76.0503 90.7872 76.3292 90.6114C77.2582 90.0261 77.7242 89.7322 77.9287 89.5209C78.0876 89.3539 78.2132 89.1934 79.0775 87.5745C79.2506 87.2499 79.3833 86.9982 79.4885 86.7995C79.8318 86.1484 79.8846 86.0487 80.0658 85.8419C80.4868 85.3608 80.9408 85.0805 81.8481 84.5171C82.1714 84.3162 82.4141 84.178 82.608 84.0677C82.9807 83.8554 83.1467 83.7612 83.3678 83.5143C83.6936 83.1467 83.9143 82.6794 84.023 82.1254C84.0431 82.0199 84.1454 81.952 84.2509 81.9724C84.356 81.9927 84.4246 82.095 84.4039 82.2002C84.2816 82.8228 84.0308 83.3515 83.6584 83.7716C83.3998 84.0612 83.1865 84.1851 82.8002 84.4048C82.6099 84.5129 82.3714 84.6492 82.0533 84.8466C81.1786 85.3899 80.733 85.6636 80.358 86.0979C80.2069 86.2704 80.1641 86.351 79.8321 86.9807C79.727 87.1797 79.5936 87.4321 79.4202 87.7573C78.618 89.2585 78.4316 89.5452 78.2637 89.7309Z" fill="#145E74"/>
<path d="M79.4124 90.77C79.3936 90.7907 79.3752 90.8098 79.3561 90.8295C79.1189 91.0745 78.6403 91.3764 77.6857 91.978C77.4026 92.1563 77.1751 92.2925 76.9854 92.4061C76.5101 92.6905 76.2949 92.8213 76.0528 93.1044C75.7593 93.452 75.5516 93.8765 75.4354 94.3658C75.4111 94.4697 75.3063 94.5344 75.2021 94.5098C75.0976 94.4852 75.0332 94.3804 75.0581 94.2762C75.1882 93.727 75.4234 93.2488 75.7567 92.854C76.037 92.5207 76.2881 92.3712 76.7861 92.0731C76.9735 91.9608 77.1987 91.8262 77.4776 91.6505C78.4067 91.0651 78.8727 90.7713 79.0772 90.56C79.2361 90.393 79.3616 90.2325 80.2256 88.6135C80.3987 88.289 80.5314 88.0372 80.6366 87.8385C80.9799 87.1874 81.0327 87.0878 81.2139 86.881C81.6352 86.3998 82.0889 86.1199 82.9963 85.5562C83.3195 85.3552 83.5622 85.2171 83.7561 85.1067C84.1289 84.8944 84.2949 84.8003 84.5159 84.5534C84.8417 84.1858 85.0624 83.7185 85.1712 83.1645C85.1912 83.059 85.2935 82.991 85.399 83.0114C85.5041 83.0321 85.5727 83.1341 85.552 83.2392C85.4297 83.8622 85.1789 84.3906 84.8065 84.8106C84.5479 85.1002 84.3347 85.2242 83.9483 85.4439C83.758 85.552 83.5195 85.6882 83.2014 85.8856C82.3271 86.4289 81.8811 86.7027 81.5061 87.137C81.355 87.3094 81.3123 87.39 80.9799 88.0197C80.8748 88.2188 80.7414 88.4712 80.568 88.7964C79.7668 90.2975 79.5804 90.5843 79.4124 90.77Z" fill="#145E74"/>
<path d="M80.5628 91.8094C80.544 91.8301 80.5256 91.8492 80.5065 91.8689C80.2693 92.1139 79.7904 92.4158 78.8361 93.0174C78.5529 93.1957 78.3255 93.3319 78.1358 93.4452C77.6605 93.7299 77.4453 93.8603 77.2032 94.1435C76.9097 94.491 76.702 94.9156 76.5858 95.4049C76.5615 95.5087 76.4567 95.5735 76.3525 95.5489C76.248 95.524 76.1836 95.4194 76.2085 95.3152C76.3386 94.7661 76.5738 94.2878 76.9071 93.893C77.1874 93.5597 77.4385 93.4102 77.9365 93.1122C78.1239 92.9999 78.3488 92.8653 78.628 92.6896C79.5571 92.1042 80.023 91.8104 80.2276 91.599C80.3864 91.4321 80.512 91.2716 81.3763 89.6526C81.5495 89.328 81.6821 89.0763 81.7873 88.8776C82.1306 88.2268 82.1834 88.1268 82.3646 87.9201C82.7859 87.4389 83.2396 87.159 84.147 86.5953C84.4702 86.3943 84.7129 86.2561 84.9068 86.1458C85.2796 85.9335 85.4456 85.8393 85.6666 85.5924C85.9925 85.2248 86.2131 84.7575 86.3219 84.2035C86.3419 84.0981 86.4442 84.0301 86.5494 84.0505C86.6545 84.0712 86.7231 84.1731 86.7024 84.2783C86.5801 84.9012 86.3293 85.4297 85.9569 85.8497C85.6983 86.1393 85.485 86.2632 85.0987 86.483C84.9084 86.591 84.6696 86.7273 84.3518 86.9247C83.4774 87.468 83.0315 87.7418 82.6565 88.176C82.5054 88.3485 82.4626 88.4291 82.1303 89.0588C82.0251 89.2578 81.8918 89.5102 81.7184 89.8354C80.9171 91.3369 80.7308 91.6236 80.5628 91.8094Z" fill="#145E74"/>
<path d="M81.7151 92.8478C81.6964 92.8685 81.6779 92.8876 81.6588 92.9073C81.4216 93.1523 80.9427 93.4542 79.9884 94.0558C79.7053 94.2341 79.4778 94.3703 79.2882 94.4839C78.8128 94.7684 78.5976 94.8991 78.3555 95.1822C78.062 95.5298 77.8543 95.9543 77.7381 96.4436C77.7139 96.5475 77.609 96.6122 77.5048 96.5876C77.4006 96.563 77.3359 96.4582 77.3608 96.3543C77.4909 95.8052 77.7261 95.3269 78.0595 94.9321C78.3397 94.5988 78.5908 94.4493 79.0888 94.1513C79.2762 94.039 79.5011 93.9043 79.7803 93.7286C80.7094 93.1432 81.1754 92.8494 81.3799 92.6381C81.5388 92.4711 81.6643 92.3106 82.5283 90.6917C82.7015 90.3671 82.8341 90.1153 82.9393 89.9167C83.2826 89.2659 83.3354 89.1659 83.5166 88.9591C83.9379 88.4779 84.3916 88.198 85.299 87.6343C85.6223 87.4334 85.8649 87.2952 86.0588 87.1848C86.4316 86.9726 86.5976 86.8784 86.8186 86.6315C87.1445 86.2639 87.3651 85.7966 87.4739 85.2426C87.4939 85.1371 87.5962 85.0692 87.7017 85.0895C87.8069 85.1099 87.8755 85.2122 87.8548 85.3174C87.7324 85.9403 87.4816 86.4687 87.1092 86.8887C86.8506 87.1784 86.6374 87.3023 86.251 87.522C86.0607 87.6301 85.8219 87.7663 85.5041 87.9637C84.6295 88.5071 84.1839 88.7808 83.8088 89.2151C83.6577 89.3876 83.615 89.4681 83.2826 90.0975C83.1775 90.2969 83.0442 90.549 82.8707 90.8742C82.0695 92.3757 81.8834 92.6624 81.7151 92.8478Z" fill="#145E74"/>
<path d="M82.8652 93.8947C82.8464 93.9154 82.828 93.9345 82.8089 93.9542C82.5717 94.1992 82.0931 94.5011 81.1385 95.1027C80.8553 95.281 80.6278 95.4172 80.4382 95.5308C79.9629 95.8156 79.7477 95.946 79.5059 96.2291C79.2124 96.5766 79.0047 97.0012 78.8885 97.4905C78.8642 97.5944 78.7594 97.6591 78.6552 97.6345C78.551 97.6099 78.4863 97.5051 78.5112 97.4012C78.6416 96.852 78.8765 96.3734 79.2098 95.979C79.4901 95.6457 79.7412 95.4962 80.2392 95.1981C80.4266 95.0858 80.6515 94.9512 80.9307 94.7755C81.8598 94.1901 82.3258 93.8963 82.5303 93.685C82.6892 93.518 82.8147 93.3575 83.6787 91.7385C83.8518 91.414 83.9845 91.1622 84.0897 90.9635C84.433 90.3124 84.4858 90.2128 84.667 90.006C85.0883 89.5248 85.542 89.2449 86.4494 88.6812C86.7726 88.4802 87.0153 88.3421 87.2092 88.2317C87.582 88.0194 87.748 87.9253 87.969 87.6784C88.2948 87.3108 88.5155 86.8435 88.6243 86.2895C88.6443 86.184 88.7466 86.116 88.8521 86.1364C88.9572 86.1568 89.0259 86.2591 89.0051 86.3642C88.8828 86.9872 88.632 87.5156 88.2596 87.9356C88.001 88.2252 87.7878 88.3492 87.4014 88.5689C87.2111 88.677 86.9726 88.8132 86.6545 89.0106C85.7798 89.5539 85.3342 89.8277 84.9592 90.262C84.8081 90.4344 84.7654 90.515 84.433 91.1447C84.3279 91.3438 84.1945 91.5962 84.0211 91.9214C83.2195 93.4222 83.0335 93.7089 82.8652 93.8947Z" fill="#145E74"/>
<path d="M84.0156 94.9419C83.9968 94.9626 83.9784 94.9817 83.9593 95.0014C83.7221 95.2464 83.2435 95.5483 82.2889 96.1499C82.0057 96.3282 81.7782 96.4644 81.5889 96.578C81.1136 96.8624 80.8984 96.9932 80.6563 97.2763C80.3628 97.6238 80.1551 98.0484 80.0389 98.5377C80.0146 98.6416 79.9098 98.7063 79.8056 98.6817C79.7014 98.6571 79.6367 98.5522 79.6616 98.4481C79.7917 97.8989 80.0269 97.4206 80.3602 97.0258C80.6405 96.6925 80.8916 96.543 81.3896 96.245C81.577 96.1327 81.8019 95.9981 82.0811 95.8224C83.0102 95.237 83.4762 94.9432 83.6807 94.7319C83.8396 94.5649 83.9651 94.4044 84.8291 92.7854C85.0022 92.4608 85.1349 92.2091 85.2401 92.0104C85.5834 91.3593 85.6362 91.2597 85.8177 91.0529C86.239 90.5717 86.6927 90.2915 87.6001 89.7281C87.9234 89.5271 88.1661 89.3889 88.3599 89.2786C88.7327 89.0663 88.8987 88.9721 89.1197 88.7252C89.4456 88.3576 89.6663 87.8904 89.775 87.3364C89.795 87.2309 89.8973 87.1629 90.0028 87.1833C90.108 87.2037 90.1766 87.3059 90.1559 87.4111C90.0335 88.0337 89.7827 88.5625 89.4103 88.9825C89.1517 89.2721 88.9385 89.3961 88.5521 89.6158C88.3618 89.7239 88.1233 89.8601 87.8052 90.0575C86.9306 90.6008 86.485 90.8746 86.1099 91.3088C85.9588 91.4813 85.9161 91.5619 85.5837 92.1916C85.4786 92.3906 85.3453 92.643 85.1718 92.9683C84.3699 94.4694 84.1839 94.7561 84.0156 94.9419Z" fill="#145E74"/>
<path d="M85.166 95.9731C85.1472 95.9938 85.1288 96.0129 85.1097 96.0327C84.8725 96.2776 84.3939 96.5795 83.4393 97.1811C83.1561 97.3594 82.9286 97.4956 82.7393 97.6092C82.264 97.8937 82.0488 98.0244 81.8067 98.3076C81.5132 98.6551 81.3055 99.0797 81.1893 99.5689C81.165 99.6728 81.0602 99.7375 80.956 99.7129C80.8515 99.6883 80.7871 99.5835 80.812 99.4793C80.9421 98.9302 81.1773 98.4519 81.5106 98.0571C81.7909 97.7238 82.042 97.5743 82.54 97.2763C82.7274 97.164 82.9523 97.0293 83.2315 96.8536C84.1606 96.2682 84.6266 95.9744 84.8311 95.7631C84.99 95.5961 85.1155 95.4356 85.9798 93.8167C86.153 93.4921 86.2857 93.2403 86.3908 93.0417C86.7342 92.3909 86.7869 92.2909 86.9681 92.0841C87.3894 91.6029 87.8431 91.323 88.7505 90.7593C89.0738 90.5584 89.3165 90.4202 89.5103 90.3098C89.8831 90.0976 90.0491 90.0034 90.2701 89.7565C90.596 89.3889 90.8167 88.9216 90.9254 88.3676C90.9455 88.2621 91.0477 88.1942 91.1532 88.2145C91.2584 88.2353 91.327 88.3372 91.3063 88.4424C91.1839 89.0653 90.9332 89.5937 90.5607 90.0137C90.3021 90.3034 90.0889 90.4273 89.7025 90.647C89.5122 90.7551 89.2737 90.8913 88.9557 91.0887C88.081 91.6321 87.6354 91.9058 87.2603 92.3401C87.1092 92.5126 87.0665 92.5931 86.7342 93.2229C86.629 93.4219 86.4957 93.6743 86.3222 93.9995C85.5207 95.5007 85.3343 95.7874 85.166 95.9731Z" fill="#145E74"/>
<path d="M86.3167 97.0203C86.2979 97.041 86.2795 97.0604 86.2604 97.0799C86.0232 97.3248 85.5443 97.6267 84.59 98.2283C84.3068 98.4066 84.0794 98.5428 83.8897 98.6561C83.4144 98.9409 83.1992 99.0713 82.9571 99.3544C82.6636 99.702 82.4559 100.127 82.3397 100.616C82.3154 100.72 82.2106 100.784 82.1064 100.76C82.0019 100.735 81.9375 100.63 81.9624 100.526C82.0925 99.977 82.3277 99.4988 82.661 99.104C82.9413 98.7707 83.1924 98.6212 83.6904 98.3231C83.8778 98.2108 84.1027 98.0762 84.3819 97.9005C85.311 97.3151 85.777 97.0213 85.9815 96.81C86.1404 96.643 86.2659 96.4825 87.1299 94.8635C87.303 94.539 87.4357 94.2872 87.5409 94.0885C87.8842 93.4378 87.937 93.3378 88.1182 93.131C88.5395 92.6498 88.9932 92.3699 89.9006 91.8062C90.2238 91.6052 90.4665 91.4671 90.6604 91.3567C91.0331 91.1444 91.1992 91.0503 91.4202 90.8034C91.746 90.4358 91.9667 89.9685 92.0755 89.4145C92.0955 89.309 92.1978 89.241 92.3033 89.2614C92.4084 89.2821 92.477 89.3841 92.4563 89.4892C92.334 90.1118 92.0832 90.6406 91.7108 91.0606C91.4522 91.3502 91.239 91.4742 90.8526 91.6939C90.6623 91.802 90.4238 91.9382 90.1057 92.1356C89.2314 92.6789 88.7854 92.9527 88.4104 93.387C88.2593 93.5594 88.2166 93.64 87.8842 94.2694C87.7791 94.4688 87.6457 94.7208 87.4723 95.0461C86.6714 96.5482 86.485 96.8349 86.3167 97.0203Z" fill="#145E74"/>
<path d="M87.4671 98.0666C87.4483 98.0873 87.4299 98.1063 87.4108 98.1261C87.1736 98.3711 86.6947 98.673 85.7404 99.2745C85.4572 99.4528 85.2298 99.5891 85.0401 99.7027C84.5648 99.9871 84.3496 100.118 84.1075 100.401C83.814 100.749 83.6063 101.173 83.4901 101.662C83.4658 101.766 83.361 101.831 83.2568 101.806C83.1523 101.782 83.0879 101.677 83.1128 101.573C83.2429 101.024 83.4781 100.546 83.8114 100.151C84.0917 99.8175 84.3428 99.668 84.8408 99.37C85.0281 99.2577 85.2531 99.1231 85.5323 98.9474C86.4614 98.362 86.9273 98.0682 87.1319 97.8569C87.2907 97.6899 87.4163 97.5294 88.2803 95.9104C88.4534 95.5858 88.5861 95.3341 88.6913 95.1354C89.0346 94.4847 89.0874 94.3847 89.2686 94.1779C89.6899 93.6967 90.1436 93.4168 91.051 92.8531C91.3742 92.6521 91.6169 92.5139 91.8108 92.4036C92.1835 92.1913 92.3495 92.0971 92.5706 91.8502C92.8964 91.4826 93.1171 91.0154 93.2258 90.4614C93.2459 90.3559 93.3482 90.2879 93.4537 90.3083C93.5588 90.3287 93.6274 90.4309 93.6067 90.5361C93.4844 91.159 93.2336 91.6875 92.8612 92.1075C92.6026 92.3971 92.3893 92.5211 92.003 92.7408C91.8127 92.8489 91.5739 92.9851 91.2561 93.1825C90.3817 93.7258 89.9358 93.9996 89.5608 94.4338C89.4097 94.6063 89.3669 94.6869 89.0346 95.3163C88.9294 95.5156 88.7961 95.7677 88.6227 96.0929C87.8214 97.5941 87.6351 97.8808 87.4671 98.0666Z" fill="#145E74"/>
<path d="M88.6175 99.0978C88.5987 99.1185 88.5803 99.1376 88.5612 99.1573C88.324 99.4023 87.8451 99.7042 86.8908 100.306C86.6076 100.484 86.3801 100.62 86.1905 100.734C85.7151 101.019 85.4999 101.149 85.2579 101.432C84.9644 101.78 84.7566 102.204 84.6405 102.694C84.6162 102.797 84.5114 102.862 84.4072 102.838C84.303 102.813 84.2382 102.708 84.2632 102.604C84.3932 102.055 84.6285 101.577 84.9618 101.182C85.242 100.849 85.4931 100.699 85.9912 100.401C86.1785 100.289 86.4034 100.154 86.6827 99.9786C87.6117 99.3932 88.0777 99.0994 88.2822 98.8881C88.4411 98.7211 88.5667 98.5606 89.4307 96.9417C89.6038 96.6171 89.7368 96.3653 89.8417 96.1667C90.185 95.5156 90.2377 95.4159 90.4189 95.2091C90.8403 94.7279 91.294 94.448 92.2013 93.8843C92.5246 93.6834 92.7673 93.5452 92.9611 93.4348C93.3339 93.2226 93.4999 93.1284 93.7209 92.8815C94.0468 92.5139 94.2675 92.0466 94.3762 91.4926C94.3963 91.3871 94.4985 91.3192 94.604 91.3395C94.7092 91.3599 94.7778 91.4622 94.7571 91.5674C94.6348 92.1903 94.384 92.7187 94.0115 93.1388C93.753 93.4284 93.5397 93.5523 93.1533 93.772C92.9631 93.8801 92.7243 94.0163 92.4065 94.2137C91.5318 94.7571 91.0862 95.0308 90.7112 95.4651C90.56 95.6376 90.5173 95.7181 90.185 96.3479C90.0798 96.5469 89.9465 96.7993 89.773 97.1245C88.9718 98.6254 88.7854 98.9121 88.6175 99.0978Z" fill="#145E74"/>
<path d="M89.7675 100.144C89.7488 100.165 89.7303 100.184 89.7112 100.204C89.474 100.449 88.9951 100.751 88.0408 101.352C87.7577 101.531 87.5302 101.667 87.3409 101.781C86.8655 102.065 86.6503 102.196 86.4083 102.479C86.1148 102.826 85.907 103.251 85.7909 103.74C85.7666 103.844 85.6621 103.909 85.5575 103.884C85.4533 103.86 85.3886 103.755 85.4135 103.651C85.5436 103.102 85.7789 102.624 86.1122 102.229C86.3924 101.895 86.6435 101.746 87.1416 101.448C87.3289 101.336 87.5541 101.201 87.8331 101.025C88.7621 100.44 89.2281 100.146 89.4326 99.9348C89.5915 99.7678 89.7171 99.6073 90.5811 97.9883C90.7542 97.6637 90.8872 97.412 90.992 97.2133C91.3354 96.5622 91.3881 96.4625 91.5697 96.2558C91.9907 95.7746 92.4447 95.4947 93.352 94.931C93.6753 94.73 93.918 94.5918 94.1118 94.4815C94.4846 94.2692 94.6506 94.175 94.8717 93.9281C95.1975 93.5605 95.4182 93.0933 95.5269 92.5393C95.547 92.4341 95.6493 92.3658 95.7547 92.3865C95.8599 92.4069 95.9285 92.5092 95.9078 92.614C95.7855 93.2369 95.5347 93.7654 95.1622 94.1857C94.9037 94.4753 94.6904 94.5993 94.3041 94.819C94.1138 94.9271 93.8753 95.0633 93.5572 95.2604C92.6825 95.8037 92.2369 96.0775 91.8619 96.5117C91.7107 96.6842 91.668 96.7648 91.3357 97.3945C91.2305 97.5935 91.0972 97.8459 90.9238 98.1711C90.1219 99.672 89.9355 99.9587 89.7675 100.144Z" fill="#145E74"/>
<path d="M90.9179 101.192C90.8992 101.213 90.8807 101.232 90.8616 101.252C90.6244 101.496 90.1455 101.798 89.1912 102.4C88.9081 102.578 88.6806 102.714 88.491 102.828C88.0156 103.113 87.8004 103.243 87.5587 103.526C87.2652 103.874 87.0574 104.298 86.9412 104.787C86.917 104.891 86.8121 104.956 86.7079 104.931C86.6037 104.907 86.539 104.802 86.5639 104.698C86.694 104.149 86.9293 103.67 87.2626 103.276C87.5428 102.943 87.7939 102.793 88.2919 102.495C88.4793 102.383 88.7045 102.248 88.9835 102.072C89.9125 101.487 90.3785 101.193 90.583 100.982C90.7419 100.815 90.8675 100.654 91.7315 99.0355C91.9046 98.7109 92.0376 98.4592 92.1424 98.2605C92.4858 97.6097 92.5385 97.5097 92.7197 97.303C93.1407 96.8218 93.5947 96.5419 94.5021 95.9782C94.8254 95.7772 95.0681 95.639 95.2619 95.5287C95.6347 95.3164 95.8007 95.2222 96.0217 94.9753C96.3476 94.6077 96.5683 94.1404 96.677 93.5864C96.6971 93.481 96.7993 93.4127 96.9048 93.4334C97.01 93.4541 97.0786 93.556 97.0579 93.6612C96.9356 94.2841 96.6848 94.8126 96.3123 95.2326C96.0538 95.5222 95.8405 95.6461 95.4541 95.8659C95.2638 95.974 95.0254 96.1102 94.7073 96.3076C93.8326 96.8509 93.387 97.1247 93.0119 97.5589C92.8608 97.7314 92.8181 97.812 92.4858 98.4417C92.3806 98.6407 92.2473 98.8931 92.0738 99.2183C91.2723 100.72 91.0859 101.007 90.9179 101.192Z" fill="#145E74"/>
<path d="M92.0687 102.223C92.0499 102.244 92.0315 102.263 92.0124 102.282C91.7752 102.527 91.2962 102.829 90.3419 103.431C90.0588 103.609 89.8313 103.745 89.6417 103.859C89.1663 104.143 88.9511 104.274 88.7091 104.557C88.4156 104.905 88.2078 105.329 88.0917 105.819C88.0674 105.922 87.9625 105.987 87.8583 105.963C87.7538 105.938 87.6894 105.833 87.7143 105.729C87.8444 105.18 88.0797 104.702 88.413 104.307C88.6932 103.974 88.9443 103.824 89.4423 103.526C89.6297 103.414 89.8546 103.279 90.1339 103.104C91.0626 102.518 91.5289 102.224 91.7334 102.013C91.8923 101.846 92.0179 101.686 92.8822 100.067C93.0553 99.7421 93.188 99.4903 93.2932 99.2917C93.6365 98.6409 93.6892 98.5409 93.8705 98.3341C94.2918 97.8529 94.7455 97.5727 95.6528 97.0093C95.9761 96.8084 96.2188 96.6702 96.4126 96.5598C96.7854 96.3476 96.9514 96.2534 97.1724 96.0065C97.4983 95.6389 97.719 95.1716 97.8277 94.6176C97.8478 94.5121 97.9501 94.4442 98.0555 94.4645C98.1607 94.4849 98.2293 94.5872 98.2086 94.6924C98.0863 95.315 97.8355 95.8437 97.463 96.2637C97.2045 96.5534 96.9912 96.6773 96.6049 96.897C96.4146 97.0051 96.1761 97.1413 95.858 97.3387C94.9836 97.8821 94.5377 98.1558 94.1627 98.5901C94.0115 98.7626 93.9688 98.8431 93.6365 99.4725C93.5313 99.6719 93.398 99.924 93.2246 100.249C92.423 101.75 92.2369 102.037 92.0687 102.223Z" fill="#145E74"/>
<path d="M93.2191 103.27C93.2003 103.29 93.1818 103.309 93.1628 103.329C92.9256 103.574 92.447 103.876 91.4923 104.478C91.2092 104.656 90.9817 104.792 90.7921 104.906C90.3167 105.19 90.1015 105.321 89.8595 105.604C89.566 105.952 89.3582 106.376 89.242 106.865C89.2178 106.969 89.1129 107.034 89.0087 107.009C88.9042 106.985 88.8398 106.88 88.8647 106.776C88.9951 106.227 89.2301 105.749 89.5634 105.354C89.8436 105.021 90.0947 104.871 90.5927 104.573C90.7801 104.461 91.005 104.326 91.2843 104.151C92.2133 103.565 92.6793 103.271 92.8838 103.06C93.0427 102.893 93.1683 102.733 94.0323 101.114C94.2054 100.789 94.3381 100.537 94.4432 100.339C94.7866 99.6878 94.8393 99.5878 95.0205 99.381C95.4419 98.8998 95.8955 98.6199 96.8029 98.0562C97.1262 97.8552 97.3689 97.7171 97.5627 97.6067C97.9355 97.3944 98.1015 97.3003 98.3225 97.0534C98.6484 96.6858 98.8691 96.2185 98.9778 95.6645C98.9979 95.559 99.1001 95.491 99.2056 95.5114C99.3108 95.5318 99.3794 95.6341 99.3587 95.7392C99.2364 96.3622 98.9856 96.8906 98.6131 97.3106C98.3546 97.6002 98.1413 97.7242 97.7549 97.9439C97.5647 98.052 97.3262 98.1882 97.0081 98.3856C96.1337 98.9289 95.6878 99.2027 95.3127 99.637C95.1616 99.8094 95.1189 99.89 94.7866 100.52C94.6814 100.719 94.5481 100.971 94.3746 101.296C93.5734 102.797 93.3873 103.084 93.2191 103.27Z" fill="#145E74"/>
<path d="M94.3694 104.317C94.3507 104.338 94.3322 104.357 94.3131 104.376C94.0759 104.621 93.5973 104.923 92.6427 105.525C92.3596 105.703 92.1321 105.839 91.9425 105.953C91.4671 106.238 91.2519 106.368 91.0099 106.651C90.7164 106.999 90.5086 107.423 90.3924 107.913C90.3682 108.017 90.2633 108.081 90.1591 108.057C90.0546 108.032 89.9902 107.927 90.0151 107.823C90.1455 107.274 90.3805 106.796 90.7138 106.401C90.994 106.068 91.2451 105.918 91.7431 105.62C91.9305 105.508 92.1554 105.373 92.4347 105.197C93.3637 104.612 93.8297 104.318 94.0342 104.107C94.1931 103.94 94.3186 103.779 95.1826 102.16C95.3558 101.836 95.4884 101.584 95.5936 101.385C95.937 100.734 95.9897 100.635 96.1709 100.428C96.5922 99.9467 97.0459 99.6668 97.9533 99.1031C98.2766 98.9021 98.5193 98.7639 98.7131 98.6536C99.0859 98.4413 99.2519 98.3471 99.4729 98.1002C99.7988 97.7326 100.019 97.2654 100.128 96.7114C100.148 96.6059 100.251 96.5379 100.356 96.5583C100.461 96.5787 100.53 96.6809 100.509 96.7861C100.387 97.4087 100.136 97.9375 99.7635 98.3575C99.5049 98.6471 99.2917 98.7711 98.9053 98.9908C98.715 99.0989 98.4762 99.2351 98.1585 99.4325C97.2838 99.9758 96.8382 100.25 96.4631 100.684C96.312 100.856 96.2693 100.937 95.937 101.566C95.8318 101.765 95.6988 102.018 95.525 102.343C94.7241 103.844 94.5377 104.131 94.3694 104.317Z" fill="#145E74"/>
<path d="M95.5195 105.356C95.5007 105.376 95.4823 105.395 95.4632 105.415C95.226 105.66 94.7474 105.962 93.7928 106.564C93.5097 106.742 93.2822 106.878 93.0925 106.992C92.6172 107.276 92.402 107.407 92.1603 107.69C91.8667 108.038 91.659 108.462 91.5428 108.951C91.5186 109.055 91.4137 109.12 91.3095 109.095C91.205 109.071 91.1406 108.966 91.1655 108.862C91.2959 108.313 91.5309 107.835 91.8642 107.44C92.1444 107.107 92.3955 106.957 92.8935 106.659C93.0809 106.547 93.3061 106.412 93.5851 106.236C94.5141 105.651 94.9801 105.357 95.1846 105.146C95.3435 104.979 95.469 104.818 96.333 103.199C96.5062 102.875 96.6388 102.623 96.744 102.424C97.0873 101.773 97.1401 101.674 97.3213 101.467C97.7426 100.986 98.1963 100.706 99.1037 100.142C99.427 99.9412 99.6697 99.803 99.8635 99.6927C100.236 99.4804 100.402 99.3862 100.623 99.1393C100.949 98.7717 101.17 98.3044 101.279 97.7504C101.299 97.6449 101.401 97.577 101.506 97.5974C101.612 97.6181 101.68 97.72 101.659 97.8252C101.537 98.4481 101.286 98.9765 100.914 99.3966C100.655 99.6862 100.442 99.8101 100.056 100.03C99.8654 100.138 99.6266 100.274 99.3088 100.471C98.4342 101.015 97.9886 101.288 97.6135 101.723C97.4624 101.895 97.4197 101.976 97.0877 102.605C96.9825 102.804 96.8492 103.056 96.6757 103.382C95.8742 104.883 95.6878 105.17 95.5195 105.356Z" fill="#145E74"/>
<path d="M96.6719 106.395C96.6531 106.416 96.6346 106.435 96.6156 106.455C96.3784 106.699 95.8998 107.001 94.9451 107.603C94.662 107.781 94.4345 107.918 94.2452 108.031C93.7698 108.316 93.5546 108.446 93.3126 108.729C93.0191 109.077 92.8113 109.501 92.6952 109.99C92.6709 110.094 92.5661 110.159 92.4619 110.134C92.3573 110.11 92.2929 110.005 92.3179 109.901C92.4483 109.352 92.6832 108.873 93.0165 108.479C93.2967 108.146 93.5478 107.996 94.0459 107.698C94.2332 107.586 94.4585 107.451 94.7374 107.276C95.6664 106.69 96.1324 106.396 96.3369 106.185C96.4958 106.018 96.6214 105.858 97.4854 104.239C97.6585 103.914 97.7912 103.662 97.8964 103.464C98.2397 102.812 98.2924 102.713 98.474 102.506C98.895 102.025 99.349 101.745 100.256 101.181C100.58 100.98 100.822 100.842 101.016 100.732C101.389 100.519 101.555 100.425 101.776 100.178C102.102 99.8108 102.323 99.3435 102.431 98.7895C102.451 98.684 102.554 98.616 102.659 98.6364C102.764 98.6571 102.833 98.7591 102.812 98.8642C102.69 99.4872 102.439 100.016 102.067 100.436C101.808 100.725 101.595 100.849 101.208 101.069C101.018 101.177 100.78 101.313 100.462 101.511C99.5868 102.054 99.1412 102.328 98.7662 102.762C98.6151 102.934 98.5723 103.015 98.2403 103.645C98.1352 103.844 98.0018 104.096 97.8284 104.421C97.0262 105.923 96.8398 106.209 96.6719 106.395Z" fill="#145E74"/>
<path d="M97.8203 107.442C97.8015 107.462 97.7831 107.481 97.764 107.501C97.5268 107.746 97.0482 108.048 96.0936 108.65C95.8104 108.828 95.5829 108.964 95.3936 109.078C94.9183 109.362 94.7031 109.493 94.461 109.776C94.1675 110.124 93.9598 110.548 93.8436 111.037C93.8193 111.141 93.7145 111.206 93.6103 111.181C93.5058 111.157 93.4414 111.052 93.4663 110.948C93.5964 110.399 93.8316 109.921 94.1649 109.526C94.4452 109.193 94.6963 109.043 95.1943 108.745C95.3817 108.633 95.6069 108.498 95.8858 108.322C96.8149 107.737 97.2809 107.443 97.4854 107.232C97.6443 107.065 97.7698 106.904 98.6341 105.285C98.8073 104.961 98.9399 104.709 99.0451 104.51C99.3885 103.859 99.4412 103.76 99.6224 103.553C100.043 103.072 100.497 102.791 101.405 102.228C101.728 102.027 101.971 101.889 102.165 101.779C102.537 101.566 102.703 101.472 102.924 101.225C103.25 100.858 103.471 100.39 103.58 99.8364C103.6 99.7309 103.702 99.6629 103.807 99.6833C103.913 99.7037 103.981 99.8059 103.961 99.9111C103.838 100.534 103.587 101.062 103.215 101.483C102.956 101.772 102.743 101.896 102.357 102.116C102.167 102.224 101.928 102.36 101.61 102.558C100.735 103.101 100.29 103.375 99.9146 103.809C99.7635 103.982 99.7208 104.062 99.3888 104.692C99.2836 104.891 99.1503 105.143 98.9768 105.469C98.1746 106.969 97.9882 107.256 97.8203 107.442Z" fill="#145E74"/>
<path d="M98.971 108.481C98.9522 108.501 98.9338 108.52 98.9147 108.54C98.6775 108.785 98.1989 109.087 97.2443 109.689C96.9612 109.867 96.7337 110.003 96.544 110.117C96.0687 110.401 95.8535 110.532 95.6114 110.815C95.3179 111.163 95.1102 111.587 94.994 112.076C94.9697 112.18 94.8649 112.245 94.7607 112.22C94.6562 112.196 94.5918 112.091 94.6167 111.987C94.7468 111.438 94.982 110.959 95.3153 110.565C95.5956 110.232 95.8467 110.082 96.3447 109.784C96.5321 109.672 96.7573 109.537 97.0362 109.361C97.9653 108.776 98.4313 108.482 98.6358 108.271C98.7947 108.104 98.9202 107.943 99.7842 106.324C99.9573 106 100.09 105.748 100.195 105.549C100.539 104.898 100.591 104.799 100.772 104.592C101.194 104.111 101.647 103.831 102.555 103.267C102.878 103.066 103.121 102.928 103.315 102.818C103.687 102.605 103.853 102.511 104.074 102.264C104.4 101.897 104.621 101.429 104.73 100.875C104.75 100.77 104.852 100.702 104.958 100.722C105.063 100.743 105.131 100.845 105.111 100.95C104.988 101.573 104.738 102.102 104.365 102.522C104.107 102.811 103.893 102.935 103.507 103.155C103.317 103.263 103.078 103.399 102.76 103.597C101.886 104.14 101.44 104.414 101.065 104.848C100.914 105.02 100.871 105.101 100.539 105.731C100.433 105.93 100.3 106.182 100.127 106.507C99.3254 108.008 99.139 108.295 98.971 108.481Z" fill="#145E74"/>
<path d="M100.121 109.52C100.103 109.54 100.084 109.559 100.065 109.579C99.8279 109.824 99.3493 110.126 98.3947 110.728C98.1115 110.906 97.884 111.042 97.6944 111.156C97.2191 111.44 97.0039 111.571 96.7618 111.854C96.4683 112.202 96.2606 112.626 96.1444 113.115C96.1201 113.219 96.0153 113.284 95.9111 113.259C95.8066 113.235 95.7422 113.13 95.7671 113.026C95.8972 112.477 96.1324 111.999 96.4657 111.604C96.746 111.271 96.9971 111.121 97.4951 110.823C97.6824 110.711 97.9073 110.576 98.1866 110.401C99.1157 109.815 99.5816 109.521 99.7862 109.31C99.945 109.143 100.071 108.983 100.935 107.364C101.108 107.039 101.24 106.787 101.346 106.589C101.689 105.937 101.742 105.838 101.923 105.631C102.344 105.15 102.798 104.87 103.705 104.306C104.029 104.105 104.271 103.967 104.465 103.857C104.838 103.644 105.004 103.55 105.225 103.303C105.551 102.936 105.771 102.468 105.88 101.914C105.9 101.809 106.002 101.741 106.108 101.761C106.213 101.782 106.281 101.884 106.261 101.989C106.138 102.612 105.888 103.141 105.515 103.561C105.257 103.85 105.043 103.974 104.657 104.194C104.467 104.302 104.228 104.438 103.91 104.636C103.036 105.179 102.59 105.453 102.215 105.887C102.064 106.059 102.021 106.14 101.689 106.769C101.583 106.968 101.45 107.221 101.277 107.546C100.476 109.048 100.289 109.334 100.121 109.52Z" fill="#145E74"/>
<path d="M101.272 110.567C101.253 110.587 101.235 110.606 101.215 110.626C100.978 110.871 100.5 111.173 99.5451 111.775C99.2619 111.953 99.0344 112.089 98.8448 112.203C98.3694 112.487 98.1542 112.618 97.9122 112.901C97.6187 113.249 97.4109 113.673 97.2948 114.162C97.2705 114.266 97.1656 114.331 97.0615 114.306C96.9573 114.282 96.8925 114.177 96.9174 114.073C97.0475 113.524 97.2828 113.046 97.6161 112.651C97.8963 112.318 98.1474 112.168 98.6455 111.87C98.8328 111.758 99.0577 111.623 99.337 111.447C100.266 110.862 100.732 110.568 100.937 110.357C101.095 110.19 101.221 110.029 102.085 108.41C102.258 108.086 102.391 107.834 102.496 107.635C102.839 106.985 102.892 106.885 103.073 106.678C103.495 106.197 103.948 105.917 104.856 105.353C105.179 105.152 105.422 105.014 105.615 104.904C105.988 104.691 106.154 104.597 106.375 104.35C106.701 103.983 106.922 103.515 107.031 102.961C107.051 102.856 107.153 102.788 107.258 102.808C107.364 102.829 107.432 102.931 107.411 103.036C107.289 103.659 107.038 104.187 106.666 104.607C106.407 104.897 106.194 105.021 105.808 105.241C105.617 105.349 105.379 105.485 105.061 105.682C104.186 106.226 103.741 106.5 103.365 106.934C103.214 107.106 103.172 107.187 102.839 107.817C102.734 108.016 102.601 108.268 102.427 108.593C101.626 110.094 101.44 110.381 101.272 110.567Z" fill="#145E74"/>
<path d="M102.422 111.606C102.403 111.627 102.385 111.646 102.366 111.665C102.128 111.91 101.65 112.212 100.695 112.814C100.412 112.992 100.184 113.128 99.9949 113.242C99.5195 113.526 99.3043 113.657 99.0626 113.94C98.7691 114.288 98.5613 114.712 98.4452 115.202C98.4209 115.306 98.316 115.37 98.2118 115.346C98.1076 115.321 98.0429 115.216 98.0678 115.112C98.1982 114.563 98.4332 114.085 98.7665 113.69C99.0467 113.357 99.2978 113.207 99.7959 112.909C99.9832 112.797 100.208 112.662 100.487 112.486C101.416 111.901 101.882 111.607 102.087 111.396C102.246 111.229 102.371 111.068 103.235 109.449C103.408 109.125 103.541 108.873 103.646 108.674C103.99 108.023 104.042 107.924 104.224 107.717C104.645 107.236 105.099 106.956 106.006 106.392C106.33 106.191 106.572 106.053 106.766 105.943C107.139 105.73 107.305 105.636 107.526 105.389C107.852 105.022 108.073 104.554 108.181 104C108.201 103.895 108.304 103.827 108.409 103.847C108.514 103.868 108.583 103.97 108.562 104.075C108.44 104.698 108.189 105.227 107.817 105.647C107.558 105.936 107.345 106.06 106.958 106.28C106.768 106.388 106.53 106.524 106.211 106.722C105.337 107.265 104.891 107.539 104.516 107.973C104.365 108.145 104.322 108.226 103.99 108.856C103.885 109.055 103.752 109.307 103.578 109.632C102.776 111.133 102.59 111.42 102.422 111.606Z" fill="#145E74"/>
<path d="M103.574 112.645C103.555 112.665 103.537 112.684 103.518 112.704C103.281 112.949 102.802 113.251 101.847 113.853C101.564 114.031 101.337 114.167 101.148 114.281C100.672 114.565 100.457 114.696 100.215 114.979C99.9214 115.327 99.7137 115.751 99.5975 116.24C99.5732 116.344 99.4684 116.409 99.3642 116.384C99.26 116.36 99.1953 116.255 99.2202 116.151C99.3503 115.602 99.5855 115.124 99.9188 114.729C100.199 114.396 100.45 114.246 100.948 113.948C101.136 113.836 101.36 113.701 101.64 113.526C102.569 112.94 103.035 112.646 103.239 112.435C103.398 112.268 103.524 112.108 104.388 110.489C104.561 110.164 104.694 109.912 104.799 109.714C105.142 109.063 105.195 108.963 105.376 108.756C105.797 108.275 106.251 107.995 107.159 107.431C107.482 107.23 107.725 107.092 107.918 106.982C108.291 106.769 108.457 106.675 108.678 106.428C109.004 106.061 109.225 105.593 109.334 105.039C109.354 104.934 109.456 104.866 109.561 104.886C109.667 104.907 109.735 105.009 109.714 105.114C109.592 105.737 109.341 106.266 108.969 106.686C108.71 106.975 108.497 107.099 108.111 107.319C107.92 107.427 107.682 107.563 107.364 107.761C106.489 108.304 106.044 108.578 105.669 109.012C105.517 109.184 105.475 109.265 105.142 109.894C105.037 110.094 104.904 110.346 104.73 110.671C103.929 112.172 103.742 112.459 103.574 112.645Z" fill="#145E74"/>
<path d="M104.723 113.692C104.704 113.712 104.685 113.731 104.666 113.751C104.429 113.996 103.951 114.298 102.996 114.9C102.713 115.078 102.485 115.214 102.296 115.328C101.821 115.612 101.605 115.743 101.363 116.026C101.07 116.374 100.862 116.798 100.746 117.287C100.722 117.391 100.617 117.456 100.513 117.431C100.408 117.407 100.344 117.302 100.369 117.198C100.499 116.649 100.734 116.17 101.067 115.776C101.348 115.443 101.599 115.293 102.097 114.995C102.284 114.883 102.509 114.748 102.788 114.572C103.717 113.987 104.183 113.693 104.388 113.482C104.547 113.315 104.672 113.154 105.536 111.535C105.71 111.211 105.842 110.959 105.947 110.76C106.291 110.109 106.344 110.01 106.525 109.803C106.946 109.322 107.4 109.042 108.307 108.478C108.63 108.277 108.873 108.139 109.067 108.029C109.44 107.816 109.606 107.722 109.827 107.475C110.153 107.108 110.373 106.64 110.482 106.086C110.502 105.981 110.604 105.913 110.71 105.933C110.815 105.954 110.884 106.056 110.863 106.161C110.741 106.784 110.49 107.312 110.117 107.732C109.859 108.022 109.646 108.146 109.259 108.366C109.069 108.474 108.83 108.61 108.512 108.807C107.638 109.351 107.192 109.625 106.817 110.059C106.666 110.231 106.623 110.312 106.291 110.942C106.186 111.141 106.052 111.393 105.879 111.718C105.077 113.219 104.891 113.506 104.723 113.692Z" fill="#145E74"/>
<path d="M105.873 114.731C105.855 114.751 105.836 114.77 105.817 114.79C105.58 115.035 105.101 115.337 104.147 115.939C103.863 116.117 103.636 116.253 103.446 116.367C102.971 116.651 102.756 116.782 102.514 117.065C102.22 117.413 102.013 117.837 101.896 118.326C101.872 118.43 101.767 118.495 101.663 118.47C101.559 118.446 101.494 118.341 101.519 118.237C101.649 117.688 101.884 117.21 102.218 116.815C102.498 116.482 102.749 116.332 103.247 116.034C103.434 115.922 103.659 115.787 103.939 115.611C104.868 115.026 105.334 114.732 105.538 114.521C105.697 114.354 105.823 114.193 106.687 112.574C106.86 112.25 106.992 111.998 107.098 111.799C107.441 111.148 107.494 111.049 107.675 110.842C108.096 110.361 108.55 110.081 109.457 109.517C109.78 109.316 110.023 109.178 110.217 109.068C110.59 108.855 110.756 108.761 110.977 108.514C111.303 108.147 111.523 107.679 111.632 107.125C111.652 107.02 111.754 106.952 111.86 106.972C111.965 106.993 112.034 107.095 112.013 107.2C111.891 107.823 111.64 108.352 111.267 108.772C111.009 109.061 110.796 109.185 110.409 109.405C110.219 109.513 109.98 109.649 109.662 109.846C108.788 110.39 108.342 110.663 107.967 111.098C107.816 111.27 107.773 111.351 107.441 111.98C107.336 112.18 107.202 112.432 107.029 112.757C106.228 114.258 106.042 114.545 105.873 114.731Z" fill="#145E74"/>
<path d="M107.024 115.77C107.005 115.791 106.987 115.81 106.967 115.83C106.73 116.075 106.251 116.376 105.297 116.978C105.014 117.156 104.786 117.293 104.597 117.406C104.121 117.691 103.906 117.821 103.664 118.104C103.371 118.452 103.163 118.876 103.047 119.365C103.022 119.469 102.918 119.534 102.813 119.509C102.709 119.485 102.645 119.38 102.669 119.276C102.8 118.727 103.035 118.248 103.368 117.854C103.648 117.521 103.899 117.371 104.397 117.073C104.585 116.961 104.81 116.826 105.089 116.651C106.018 116.065 106.484 115.771 106.688 115.56C106.847 115.393 106.973 115.233 107.837 113.614C108.01 113.289 108.143 113.037 108.248 112.839C108.591 112.187 108.644 112.088 108.825 111.881C109.247 111.4 109.7 111.12 110.608 110.556C110.931 110.355 111.174 110.217 111.367 110.107C111.74 109.894 111.906 109.8 112.127 109.553C112.453 109.186 112.674 108.718 112.782 108.164C112.803 108.059 112.905 107.991 113.01 108.011C113.115 108.032 113.184 108.134 113.163 108.239C113.041 108.862 112.79 109.391 112.417 109.811C112.159 110.1 111.946 110.224 111.559 110.444C111.369 110.552 111.13 110.688 110.812 110.886C109.938 111.429 109.492 111.703 109.117 112.137C108.966 112.309 108.923 112.39 108.591 113.02C108.486 113.219 108.352 113.471 108.179 113.796C107.378 115.298 107.192 115.584 107.024 115.77Z" fill="#145E74"/>
<path d="M108.174 116.817C108.155 116.838 108.137 116.857 108.118 116.876C107.881 117.121 107.402 117.423 106.447 118.025C106.164 118.203 105.937 118.339 105.747 118.453C105.272 118.737 105.057 118.868 104.815 119.151C104.521 119.499 104.313 119.923 104.197 120.413C104.173 120.517 104.068 120.581 103.964 120.557C103.86 120.532 103.795 120.427 103.82 120.323C103.95 119.774 104.185 119.296 104.518 118.901C104.799 118.568 105.05 118.418 105.548 118.12C105.735 118.008 105.96 117.873 106.239 117.697C107.168 117.112 107.634 116.818 107.839 116.607C107.998 116.44 108.123 116.279 108.988 114.66C109.161 114.336 109.293 114.084 109.399 113.885C109.742 113.234 109.795 113.135 109.976 112.928C110.397 112.447 110.851 112.166 111.758 111.603C112.082 111.402 112.324 111.264 112.518 111.154C112.891 110.941 113.057 110.847 113.278 110.6C113.604 110.233 113.824 109.765 113.933 109.211C113.953 109.106 114.056 109.038 114.161 109.058C114.266 109.079 114.335 109.181 114.314 109.286C114.192 109.909 113.941 110.437 113.568 110.857C113.31 111.147 113.097 111.271 112.71 111.491C112.52 111.599 112.281 111.735 111.963 111.932C111.089 112.476 110.643 112.75 110.268 113.184C110.117 113.356 110.074 113.437 109.742 114.067C109.637 114.266 109.504 114.518 109.33 114.843C108.528 116.344 108.342 116.631 108.174 116.817Z" fill="#145E74"/>
<path d="M109.325 117.856C109.306 117.876 109.287 117.895 109.268 117.915C109.031 118.16 108.552 118.462 107.598 119.064C107.315 119.242 107.087 119.378 106.898 119.492C106.422 119.776 106.207 119.907 105.965 120.19C105.671 120.538 105.464 120.962 105.347 121.451C105.323 121.555 105.219 121.62 105.114 121.595C105.01 121.571 104.945 121.466 104.97 121.362C105.1 120.813 105.336 120.334 105.669 119.94C105.949 119.607 106.2 119.457 106.698 119.159C106.886 119.047 107.111 118.912 107.39 118.736C108.319 118.151 108.785 117.857 108.989 117.646C109.148 117.479 109.274 117.318 110.138 115.699C110.311 115.375 110.444 115.123 110.549 114.924C110.892 114.274 110.945 114.174 111.126 113.967C111.547 113.486 112.001 113.206 112.909 112.642C113.232 112.441 113.475 112.303 113.668 112.193C114.041 111.98 114.207 111.886 114.428 111.639C114.754 111.272 114.975 110.804 115.084 110.25C115.104 110.145 115.206 110.077 115.311 110.097C115.417 110.118 115.485 110.22 115.464 110.325C115.342 110.948 115.091 111.477 114.719 111.897C114.46 112.186 114.247 112.31 113.861 112.53C113.67 112.638 113.432 112.774 113.114 112.972C112.239 113.515 111.794 113.789 111.419 114.223C111.267 114.395 111.225 114.476 110.893 115.106C110.787 115.305 110.654 115.557 110.481 115.882C109.679 117.383 109.492 117.67 109.325 117.856Z" fill="#145E74"/>
<path d="M110.475 118.895C110.456 118.916 110.437 118.935 110.418 118.955C110.181 119.2 109.702 119.501 108.748 120.103C108.465 120.281 108.237 120.418 108.048 120.531C107.573 120.816 107.357 120.946 107.115 121.229C106.822 121.577 106.614 122.002 106.498 122.491C106.474 122.595 106.369 122.659 106.265 122.635C106.16 122.61 106.096 122.505 106.121 122.401C106.251 121.852 106.486 121.374 106.819 120.979C107.099 120.646 107.351 120.496 107.849 120.198C108.036 120.086 108.261 119.951 108.54 119.776C109.469 119.19 109.935 118.896 110.14 118.685C110.299 118.518 110.424 118.358 111.288 116.739C111.461 116.414 111.594 116.162 111.699 115.964C112.042 115.312 112.095 115.213 112.276 115.006C112.698 114.525 113.151 114.245 114.059 113.681C114.382 113.48 114.625 113.342 114.819 113.232C115.191 113.019 115.357 112.925 115.578 112.678C115.904 112.311 116.125 111.843 116.234 111.289C116.254 111.184 116.356 111.116 116.461 111.136C116.567 111.157 116.635 111.259 116.615 111.364C116.492 111.987 116.241 112.516 115.869 112.936C115.61 113.225 115.397 113.349 115.011 113.569C114.82 113.677 114.582 113.813 114.264 114.011C113.389 114.554 112.944 114.828 112.569 115.262C112.417 115.434 112.375 115.515 112.043 116.145C111.938 116.344 111.804 116.596 111.631 116.921C110.829 118.423 110.643 118.709 110.475 118.895Z" fill="#145E74"/>
<path d="M111.625 119.942C111.607 119.963 111.588 119.982 111.569 120.001C111.332 120.246 110.853 120.548 109.899 121.15C109.615 121.328 109.388 121.464 109.198 121.578C108.723 121.862 108.508 121.993 108.266 122.276C107.972 122.624 107.764 123.048 107.648 123.538C107.624 123.642 107.519 123.706 107.415 123.682C107.31 123.657 107.246 123.552 107.271 123.448C107.401 122.899 107.636 122.421 107.97 122.026C108.25 121.693 108.501 121.543 108.999 121.245C109.186 121.133 109.412 120.998 109.691 120.822C110.619 120.237 111.086 119.943 111.29 119.732C111.449 119.565 111.575 119.404 112.439 117.785C112.612 117.461 112.745 117.209 112.85 117.01C113.193 116.359 113.246 116.26 113.427 116.053C113.848 115.572 114.302 115.292 115.209 114.728C115.533 114.527 115.775 114.389 115.969 114.279C116.342 114.066 116.508 113.972 116.729 113.725C117.055 113.358 117.276 112.89 117.384 112.336C117.404 112.231 117.507 112.163 117.612 112.183C117.717 112.204 117.786 112.306 117.765 112.411C117.643 113.034 117.392 113.562 117.02 113.982C116.761 114.272 116.548 114.396 116.162 114.616C115.971 114.724 115.733 114.86 115.415 115.057C114.54 115.601 114.094 115.875 113.719 116.309C113.568 116.481 113.525 116.562 113.193 117.192C113.088 117.391 112.955 117.643 112.782 117.968C111.98 119.469 111.794 119.756 111.625 119.942Z" fill="#145E74"/>
<path d="M112.776 120.981C112.757 121.001 112.738 121.02 112.719 121.04C112.482 121.285 112.004 121.587 111.049 122.189C110.766 122.367 110.538 122.503 110.349 122.617C109.873 122.901 109.658 123.032 109.416 123.315C109.123 123.663 108.915 124.087 108.799 124.576C108.774 124.68 108.67 124.745 108.565 124.72C108.461 124.696 108.396 124.591 108.421 124.487C108.551 123.938 108.787 123.459 109.12 123.065C109.4 122.732 109.651 122.582 110.149 122.284C110.337 122.172 110.562 122.037 110.841 121.861C111.77 121.276 112.236 120.982 112.44 120.771C112.599 120.604 112.725 120.443 113.589 118.824C113.762 118.5 113.895 118.248 114 118.049C114.343 117.399 114.396 117.299 114.577 117.092C114.998 116.611 115.452 116.331 116.36 115.767C116.683 115.566 116.926 115.428 117.119 115.318C117.492 115.105 117.658 115.011 117.879 114.764C118.205 114.397 118.426 113.929 118.534 113.375C118.554 113.27 118.657 113.202 118.762 113.222C118.867 113.243 118.936 113.345 118.915 113.45C118.793 114.073 118.542 114.602 118.17 115.022C117.911 115.311 117.698 115.435 117.312 115.655C117.121 115.763 116.883 115.899 116.565 116.097C115.69 116.64 115.244 116.914 114.869 117.348C114.718 117.52 114.676 117.601 114.343 118.231C114.238 118.43 114.105 118.682 113.931 119.007C113.13 120.508 112.944 120.795 112.776 120.981Z" fill="#145E74"/>
<path d="M113.926 122.027C113.907 122.048 113.889 122.067 113.87 122.087C113.633 122.332 113.154 122.634 112.199 123.235C111.916 123.414 111.689 123.55 111.499 123.664C111.024 123.948 110.809 124.079 110.567 124.362C110.273 124.709 110.065 125.134 109.949 125.623C109.925 125.727 109.82 125.792 109.716 125.767C109.611 125.743 109.547 125.638 109.572 125.534C109.702 124.985 109.937 124.507 110.27 124.112C110.551 123.778 110.802 123.629 111.3 123.331C111.487 123.219 111.712 123.084 111.991 122.908C112.92 122.323 113.386 122.029 113.591 121.818C113.75 121.651 113.875 121.49 114.739 119.871C114.912 119.547 115.045 119.295 115.15 119.096C115.494 118.446 115.546 118.346 115.728 118.139C116.149 117.658 116.603 117.378 117.51 116.814C117.833 116.613 118.076 116.475 118.27 116.365C118.643 116.152 118.809 116.058 119.03 115.811C119.355 115.444 119.576 114.976 119.685 114.422C119.705 114.317 119.807 114.249 119.913 114.269C120.018 114.29 120.086 114.392 120.066 114.497C119.943 115.12 119.693 115.648 119.32 116.068C119.062 116.358 118.848 116.482 118.462 116.702C118.272 116.81 118.033 116.946 117.715 117.143C116.84 117.687 116.395 117.961 116.02 118.395C115.869 118.567 115.826 118.648 115.494 119.277C115.388 119.477 115.255 119.729 115.082 120.054C114.281 121.555 114.094 121.842 113.926 122.027Z" fill="#145E74"/>
<path d="M115.076 123.059C115.057 123.079 115.039 123.099 115.02 123.118C114.783 123.363 114.304 123.665 113.349 124.267C113.066 124.445 112.839 124.581 112.649 124.695C112.174 124.979 111.959 125.11 111.717 125.393C111.423 125.741 111.216 126.165 111.099 126.655C111.075 126.758 110.97 126.823 110.866 126.799C110.762 126.774 110.697 126.669 110.722 126.565C110.852 126.016 111.087 125.537 111.421 125.143C111.701 124.81 111.952 124.66 112.45 124.362C112.638 124.25 112.863 124.115 113.142 123.94C114.071 123.354 114.537 123.06 114.741 122.849C114.9 122.682 115.026 122.522 115.89 120.903C116.063 120.578 116.195 120.326 116.301 120.128C116.644 119.477 116.697 119.377 116.878 119.17C117.299 118.689 117.753 118.409 118.66 117.845C118.984 117.644 119.227 117.506 119.42 117.396C119.793 117.184 119.959 117.089 120.18 116.842C120.506 116.475 120.726 116.008 120.835 115.454C120.855 115.348 120.958 115.28 121.063 115.3C121.168 115.321 121.237 115.423 121.216 115.528C121.094 116.151 120.843 116.68 120.471 117.1C120.212 117.389 119.999 117.513 119.612 117.733C119.422 117.841 119.183 117.977 118.865 118.175C117.991 118.718 117.545 118.992 117.17 119.426C117.019 119.599 116.976 119.679 116.644 120.309C116.539 120.508 116.406 120.76 116.232 121.085C115.43 122.586 115.244 122.873 115.076 123.059Z" fill="#145E74"/>
<path d="M116.227 124.098C116.208 124.119 116.189 124.138 116.17 124.158C115.933 124.403 115.454 124.705 114.5 125.306C114.217 125.484 113.989 125.621 113.8 125.734C113.325 126.019 113.109 126.149 112.867 126.433C112.574 126.78 112.366 127.205 112.25 127.694C112.226 127.798 112.121 127.863 112.017 127.838C111.912 127.813 111.848 127.709 111.873 127.604C112.003 127.055 112.238 126.577 112.571 126.182C112.851 125.849 113.103 125.699 113.601 125.401C113.788 125.289 114.013 125.154 114.292 124.979C115.221 124.393 115.687 124.099 115.892 123.888C116.05 123.721 116.176 123.561 117.04 121.942C117.213 121.617 117.346 121.365 117.451 121.167C117.794 120.516 117.847 120.416 118.029 120.209C118.45 119.728 118.904 119.448 119.811 118.884C120.134 118.683 120.377 118.545 120.571 118.435C120.944 118.223 121.11 118.128 121.331 117.881C121.656 117.514 121.877 117.047 121.986 116.493C122.006 116.387 122.108 116.319 122.214 116.34C122.319 116.36 122.388 116.462 122.367 116.567C122.244 117.19 121.994 117.719 121.621 118.139C121.363 118.428 121.149 118.552 120.763 118.772C120.573 118.88 120.334 119.016 120.016 119.213C119.142 119.757 118.696 120.031 118.321 120.465C118.17 120.637 118.127 120.718 117.795 121.348C117.69 121.547 117.556 121.799 117.383 122.124C116.581 123.626 116.394 123.912 116.227 124.098Z" fill="#145E74"/>
<path d="M117.377 125.152C117.358 125.173 117.34 125.192 117.321 125.212C117.084 125.457 116.605 125.759 115.651 126.36C115.367 126.539 115.14 126.675 114.95 126.789C114.475 127.073 114.26 127.204 114.018 127.487C113.724 127.834 113.516 128.259 113.4 128.748C113.376 128.852 113.271 128.917 113.167 128.892C113.062 128.868 112.998 128.763 113.023 128.659C113.153 128.11 113.388 127.631 113.722 127.237C114.002 126.903 114.253 126.754 114.751 126.456C114.938 126.344 115.164 126.209 115.442 126.033C116.372 125.448 116.837 125.154 117.042 124.943C117.201 124.776 117.326 124.615 118.191 122.996C118.364 122.672 118.497 122.42 118.602 122.221C118.945 121.571 118.998 121.471 119.179 121.264C119.6 120.783 120.054 120.503 120.961 119.939C121.285 119.738 121.527 119.6 121.721 119.49C122.094 119.277 122.26 119.183 122.481 118.936C122.807 118.569 123.028 118.101 123.136 117.547C123.156 117.442 123.259 117.374 123.364 117.394C123.469 117.415 123.538 117.517 123.517 117.622C123.395 118.245 123.144 118.773 122.772 119.193C122.513 119.483 122.3 119.607 121.913 119.827C121.723 119.935 121.485 120.071 121.167 120.268C120.292 120.811 119.846 121.085 119.471 121.519C119.32 121.692 119.277 121.773 118.945 122.402C118.84 122.602 118.707 122.854 118.533 123.179C117.732 124.68 117.545 124.967 117.377 125.152Z" fill="#145E74"/>
<path d="M118.528 126.184C118.509 126.205 118.49 126.224 118.471 126.244C118.234 126.489 117.756 126.791 116.801 127.392C116.518 127.571 116.29 127.707 116.101 127.82C115.625 128.105 115.41 128.235 115.168 128.518C114.875 128.866 114.667 129.291 114.551 129.78C114.526 129.884 114.422 129.948 114.317 129.924C114.213 129.899 114.148 129.794 114.173 129.69C114.303 129.141 114.539 128.663 114.872 128.268C115.152 127.935 115.403 127.785 115.901 127.487C116.089 127.375 116.314 127.24 116.593 127.065C117.522 126.479 117.988 126.185 118.192 125.974C118.351 125.807 118.477 125.647 119.341 124.028C119.514 123.703 119.647 123.451 119.752 123.253C120.095 122.602 120.148 122.502 120.329 122.295C120.75 121.814 121.204 121.534 122.111 120.97C122.435 120.769 122.677 120.631 122.871 120.521C123.244 120.308 123.41 120.214 123.631 119.967C123.957 119.6 124.178 119.133 124.286 118.579C124.306 118.473 124.409 118.405 124.514 118.425C124.619 118.446 124.688 118.548 124.667 118.653C124.545 119.276 124.294 119.805 123.922 120.225C123.663 120.514 123.45 120.638 123.064 120.858C122.873 120.966 122.635 121.102 122.317 121.3C121.442 121.843 120.996 122.117 120.621 122.551C120.47 122.724 120.427 122.804 120.095 123.434C119.99 123.633 119.857 123.885 119.683 124.21C118.882 125.712 118.696 125.999 118.528 126.184Z" fill="#145E74"/>
<path d="M119.678 127.231C119.659 127.251 119.641 127.27 119.622 127.29C119.385 127.535 118.906 127.837 117.951 128.439C117.668 128.617 117.441 128.753 117.251 128.867C116.776 129.151 116.561 129.282 116.318 129.565C116.025 129.913 115.817 130.337 115.701 130.826C115.677 130.93 115.572 130.995 115.468 130.97C115.363 130.946 115.299 130.841 115.324 130.737C115.454 130.188 115.689 129.71 116.022 129.315C116.303 128.982 116.554 128.832 117.052 128.534C117.239 128.422 117.464 128.287 117.743 128.111C118.672 127.526 119.138 127.232 119.343 127.021C119.502 126.854 119.627 126.693 120.491 125.074C120.664 124.75 120.797 124.498 120.902 124.299C121.246 123.648 121.298 123.549 121.48 123.342C121.901 122.861 122.355 122.581 123.262 122.017C123.585 121.816 123.828 121.678 124.022 121.568C124.394 121.355 124.56 121.261 124.781 121.014C125.107 120.647 125.328 120.179 125.437 119.625C125.457 119.52 125.559 119.452 125.664 119.472C125.769 119.493 125.838 119.595 125.817 119.7C125.695 120.323 125.444 120.852 125.072 121.272C124.813 121.561 124.6 121.685 124.214 121.905C124.023 122.013 123.784 122.149 123.467 122.347C122.592 122.89 122.146 123.164 121.771 123.598C121.62 123.77 121.578 123.851 121.245 124.481C121.14 124.68 121.007 124.932 120.833 125.257C120.032 126.758 119.846 127.045 119.678 127.231Z" fill="#145E74"/>
<path d="M120.828 128.277C120.81 128.298 120.791 128.317 120.772 128.337C120.535 128.582 120.056 128.884 119.102 129.485C118.819 129.664 118.591 129.8 118.401 129.914C117.926 130.198 117.711 130.329 117.469 130.612C117.175 130.959 116.968 131.384 116.851 131.873C116.827 131.977 116.722 132.042 116.618 132.017C116.514 131.992 116.449 131.888 116.474 131.784C116.604 131.235 116.839 130.756 117.173 130.362C117.453 130.028 117.704 129.879 118.202 129.581C118.389 129.469 118.614 129.334 118.894 129.158C119.823 128.573 120.289 128.279 120.493 128.068C120.652 127.901 120.778 127.74 121.642 126.121C121.815 125.797 121.947 125.545 122.053 125.346C122.396 124.695 122.449 124.596 122.63 124.389C123.051 123.908 123.505 123.628 124.412 123.064C124.736 122.863 124.978 122.725 125.172 122.615C125.545 122.402 125.711 122.308 125.932 122.061C126.258 121.694 126.478 121.226 126.587 120.672C126.607 120.567 126.709 120.499 126.815 120.519C126.92 120.54 126.989 120.642 126.968 120.747C126.846 121.37 126.595 121.898 126.222 122.318C125.964 122.608 125.751 122.732 125.364 122.952C125.174 123.06 124.935 123.196 124.617 123.393C123.743 123.937 123.297 124.211 122.922 124.645C122.771 124.817 122.728 124.898 122.396 125.528C122.291 125.727 122.158 125.979 121.984 126.304C121.183 127.805 120.997 128.092 120.828 128.277Z" fill="#145E74"/>
<path d="M121.978 129.309C121.96 129.329 121.941 129.349 121.922 129.368C121.685 129.613 121.206 129.915 120.252 130.517C119.969 130.695 119.741 130.831 119.552 130.945C119.076 131.229 118.861 131.36 118.619 131.643C118.326 131.991 118.118 132.415 118.002 132.905C117.978 133.008 117.873 133.073 117.768 133.049C117.664 133.024 117.6 132.919 117.624 132.815C117.755 132.266 117.99 131.788 118.323 131.393C118.603 131.06 118.854 130.91 119.352 130.612C119.54 130.5 119.765 130.365 120.044 130.19C120.973 129.604 121.439 129.31 121.644 129.099C121.802 128.932 121.928 128.772 122.792 127.153C122.965 126.828 123.098 126.576 123.203 126.378C123.546 125.727 123.599 125.627 123.78 125.42C124.202 124.939 124.655 124.659 125.563 124.095C125.886 123.894 126.129 123.756 126.322 123.646C126.695 123.433 126.861 123.339 127.082 123.092C127.408 122.725 127.629 122.258 127.738 121.704C127.758 121.598 127.86 121.53 127.965 121.55C128.071 121.571 128.139 121.673 128.118 121.778C127.996 122.401 127.745 122.929 127.373 123.35C127.114 123.639 126.901 123.763 126.515 123.983C126.324 124.091 126.086 124.227 125.768 124.425C124.893 124.968 124.448 125.242 124.072 125.676C123.921 125.849 123.879 125.929 123.546 126.559C123.441 126.758 123.308 127.01 123.134 127.335C122.333 128.837 122.147 129.123 121.978 129.309Z" fill="#145E74"/>
<path d="M123.129 130.356C123.11 130.376 123.092 130.395 123.073 130.415C122.835 130.66 122.356 130.962 121.402 131.564C121.119 131.742 120.892 131.878 120.702 131.992C120.227 132.276 120.012 132.407 119.77 132.69C119.476 133.038 119.268 133.462 119.152 133.951C119.128 134.055 119.023 134.12 118.919 134.095C118.814 134.071 118.75 133.966 118.775 133.862C118.905 133.313 119.14 132.834 119.474 132.44C119.754 132.107 120.005 131.957 120.503 131.659C120.69 131.547 120.915 131.412 121.194 131.236C122.123 130.651 122.589 130.357 122.794 130.146C122.953 129.979 123.078 129.818 123.942 128.199C124.116 127.875 124.248 127.623 124.353 127.424C124.697 126.774 124.749 126.674 124.931 126.467C125.352 125.986 125.806 125.706 126.713 125.142C127.036 124.941 127.279 124.803 127.473 124.693C127.846 124.48 128.012 124.386 128.233 124.139C128.559 123.772 128.779 123.304 128.888 122.75C128.908 122.645 129.01 122.577 129.116 122.597C129.221 122.618 129.29 122.72 129.269 122.825C129.147 123.448 128.896 123.977 128.523 124.397C128.265 124.686 128.051 124.81 127.665 125.03C127.475 125.138 127.236 125.274 126.918 125.472C126.044 126.015 125.598 126.289 125.223 126.723C125.072 126.895 125.029 126.976 124.697 127.606C124.592 127.805 124.459 128.057 124.285 128.382C123.483 129.883 123.297 130.17 123.129 130.356Z" fill="#145E74"/>
<path d="M124.28 131.403C124.261 131.424 124.242 131.443 124.223 131.462C123.986 131.707 123.507 132.009 122.553 132.611C122.27 132.789 122.042 132.925 121.853 133.039C121.377 133.323 121.162 133.454 120.92 133.737C120.626 134.085 120.419 134.509 120.303 134.999C120.278 135.103 120.173 135.167 120.069 135.143C119.965 135.118 119.9 135.013 119.925 134.909C120.055 134.36 120.291 133.882 120.624 133.487C120.904 133.153 121.155 133.004 121.653 132.706C121.841 132.594 122.066 132.459 122.345 132.283C123.274 131.698 123.74 131.404 123.944 131.193C124.103 131.026 124.229 130.865 125.093 129.246C125.266 128.922 125.399 128.67 125.504 128.471C125.847 127.82 125.9 127.721 126.081 127.514C126.502 127.033 126.956 126.752 127.864 126.189C128.187 125.988 128.43 125.85 128.624 125.74C128.996 125.527 129.162 125.433 129.383 125.186C129.709 124.819 129.93 124.351 130.039 123.797C130.059 123.692 130.161 123.624 130.266 123.644C130.372 123.665 130.44 123.767 130.42 123.872C130.297 124.495 130.046 125.023 129.674 125.443C129.415 125.733 129.202 125.857 128.816 126.077C128.626 126.185 128.387 126.321 128.069 126.518C127.194 127.062 126.749 127.336 126.374 127.77C126.222 127.942 126.18 128.023 125.847 128.653C125.742 128.852 125.609 129.104 125.435 129.429C124.634 130.93 124.448 131.217 124.28 131.403Z" fill="#145E74"/>
<path d="M125.43 132.434C125.411 132.454 125.393 132.474 125.374 132.493C125.136 132.738 124.658 133.04 123.703 133.642C123.42 133.82 123.193 133.956 123.003 134.07C122.528 134.354 122.312 134.485 122.07 134.768C121.777 135.116 121.569 135.54 121.453 136.03C121.429 136.133 121.324 136.198 121.22 136.174C121.115 136.149 121.051 136.044 121.076 135.94C121.206 135.391 121.441 134.913 121.774 134.518C122.055 134.185 122.306 134.035 122.804 133.737C122.991 133.625 123.216 133.49 123.495 133.315C124.424 132.729 124.89 132.435 125.095 132.224C125.254 132.057 125.379 131.897 126.243 130.278C126.416 129.953 126.549 129.701 126.654 129.503C126.998 128.852 127.05 128.752 127.231 128.545C127.653 128.064 128.106 127.784 129.014 127.22C129.337 127.019 129.58 126.881 129.774 126.771C130.146 126.559 130.312 126.464 130.533 126.217C130.859 125.85 131.08 125.383 131.189 124.829C131.209 124.723 131.311 124.655 131.417 124.675C131.522 124.696 131.59 124.798 131.57 124.903C131.447 125.526 131.197 126.055 130.824 126.475C130.565 126.764 130.352 126.888 129.966 127.108C129.776 127.216 129.537 127.352 129.219 127.55C128.344 128.093 127.899 128.367 127.524 128.801C127.373 128.974 127.33 129.054 126.997 129.684C126.892 129.883 126.759 130.135 126.586 130.46C125.784 131.961 125.598 132.248 125.43 132.434Z" fill="#145E74"/>
<path d="M126.58 133.481C126.562 133.502 126.543 133.521 126.524 133.54C126.287 133.785 125.808 134.087 124.854 134.689C124.571 134.867 124.343 135.003 124.153 135.117C123.678 135.401 123.463 135.532 123.221 135.815C122.927 136.163 122.72 136.587 122.603 137.077C122.579 137.181 122.474 137.245 122.37 137.221C122.266 137.196 122.201 137.091 122.226 136.987C122.356 136.438 122.591 135.96 122.925 135.565C123.205 135.232 123.456 135.082 123.954 134.784C124.141 134.672 124.366 134.537 124.646 134.361C125.575 133.776 126.041 133.482 126.245 133.271C126.404 133.104 126.53 132.943 127.394 131.324C127.567 131 127.699 130.748 127.805 130.549C128.148 129.898 128.201 129.799 128.382 129.592C128.803 129.111 129.257 128.831 130.164 128.267C130.488 128.066 130.73 127.928 130.924 127.818C131.297 127.605 131.463 127.511 131.684 127.264C132.01 126.897 132.23 126.429 132.339 125.875C132.359 125.77 132.461 125.702 132.567 125.722C132.672 125.743 132.741 125.845 132.72 125.95C132.598 126.573 132.347 127.102 131.974 127.522C131.716 127.811 131.503 127.935 131.116 128.155C130.926 128.263 130.687 128.399 130.369 128.597C129.495 129.14 129.049 129.414 128.674 129.848C128.523 130.02 128.48 130.101 128.148 130.73C128.043 130.93 127.909 131.182 127.736 131.507C126.935 133.008 126.748 133.296 126.58 133.481Z" fill="#145E74"/>
<path d="M127.733 134.527C127.714 134.548 127.696 134.567 127.676 134.587C127.439 134.832 126.961 135.134 126.006 135.735C125.723 135.914 125.495 136.05 125.306 136.164C124.83 136.448 124.615 136.579 124.373 136.862C124.08 137.209 123.872 137.634 123.756 138.123C123.731 138.227 123.627 138.292 123.522 138.267C123.418 138.243 123.353 138.138 123.378 138.034C123.509 137.485 123.744 137.007 124.077 136.612C124.357 136.278 124.608 136.129 125.106 135.831C125.294 135.719 125.519 135.584 125.798 135.408C126.727 134.823 127.193 134.529 127.397 134.318C127.556 134.151 127.682 133.99 128.546 132.371C128.719 132.047 128.852 131.795 128.957 131.596C129.3 130.945 129.353 130.846 129.534 130.639C129.956 130.158 130.409 129.878 131.317 129.314C131.64 129.113 131.883 128.975 132.076 128.865C132.449 128.652 132.615 128.558 132.836 128.311C133.162 127.944 133.383 127.476 133.491 126.922C133.512 126.817 133.614 126.749 133.719 126.769C133.824 126.79 133.893 126.892 133.872 126.997C133.75 127.62 133.499 128.148 133.127 128.568C132.868 128.858 132.655 128.982 132.269 129.202C132.078 129.31 131.84 129.446 131.522 129.643C130.647 130.187 130.201 130.461 129.826 130.895C129.675 131.067 129.633 131.148 129.301 131.777C129.195 131.977 129.062 132.229 128.889 132.554C128.087 134.055 127.901 134.342 127.733 134.527Z" fill="#145E74"/>
<path d="M128.881 135.567C128.862 135.588 128.844 135.607 128.825 135.626C128.587 135.871 128.109 136.173 127.154 136.775C126.871 136.953 126.643 137.089 126.454 137.203C125.979 137.487 125.764 137.618 125.522 137.901C125.228 138.249 125.02 138.673 124.904 139.162C124.88 139.266 124.775 139.331 124.671 139.306C124.566 139.282 124.502 139.177 124.527 139.073C124.657 138.524 124.892 138.045 125.225 137.651C125.506 137.318 125.757 137.168 126.255 136.87C126.442 136.758 126.667 136.623 126.946 136.447C127.875 135.862 128.341 135.568 128.546 135.357C128.705 135.19 128.83 135.029 129.694 133.41C129.868 133.086 130 132.834 130.105 132.635C130.449 131.984 130.501 131.885 130.683 131.678C131.104 131.197 131.558 130.917 132.465 130.353C132.788 130.152 133.031 130.014 133.225 129.904C133.598 129.691 133.764 129.597 133.985 129.35C134.31 128.983 134.531 128.515 134.64 127.961C134.66 127.856 134.762 127.788 134.868 127.808C134.973 127.829 135.041 127.931 135.021 128.036C134.898 128.659 134.648 129.187 134.275 129.607C134.017 129.897 133.803 130.021 133.417 130.241C133.227 130.349 132.988 130.485 132.67 130.682C131.795 131.226 131.35 131.5 130.975 131.934C130.824 132.106 130.781 132.187 130.449 132.817C130.344 133.016 130.211 133.268 130.037 133.593C129.235 135.094 129.049 135.381 128.881 135.567Z" fill="#145E74"/>
<path d="M130.031 136.606C130.012 136.626 129.994 136.645 129.975 136.665C129.738 136.91 129.259 137.212 128.305 137.814C128.021 137.992 127.794 138.128 127.604 138.242C127.129 138.526 126.914 138.657 126.672 138.94C126.378 139.288 126.171 139.712 126.055 140.201C126.03 140.305 125.925 140.37 125.821 140.345C125.717 140.321 125.652 140.216 125.677 140.112C125.807 139.563 126.043 139.085 126.376 138.69C126.656 138.357 126.907 138.207 127.405 137.909C127.593 137.797 127.818 137.662 128.097 137.486C129.026 136.901 129.492 136.607 129.696 136.396C129.855 136.229 129.981 136.068 130.845 134.449C131.018 134.125 131.151 133.873 131.256 133.674C131.599 133.023 131.652 132.924 131.833 132.717C132.254 132.236 132.708 131.956 133.615 131.392C133.939 131.191 134.181 131.053 134.375 130.943C134.748 130.73 134.914 130.636 135.135 130.389C135.461 130.022 135.682 129.554 135.79 129C135.81 128.895 135.913 128.827 136.018 128.847C136.123 128.868 136.192 128.97 136.171 129.075C136.049 129.698 135.798 130.227 135.426 130.647C135.167 130.936 134.954 131.06 134.567 131.28C134.377 131.388 134.139 131.524 133.821 131.722C132.946 132.265 132.5 132.539 132.125 132.973C131.974 133.146 131.931 133.226 131.599 133.856C131.494 134.055 131.361 134.307 131.187 134.633C130.386 136.133 130.199 136.42 130.031 136.606Z" fill="#145E74"/>
<path d="M131.182 137.645C131.163 137.666 131.145 137.685 131.126 137.705C130.888 137.95 130.41 138.251 129.455 138.853C129.172 139.031 128.945 139.168 128.755 139.281C128.28 139.566 128.064 139.696 127.822 139.979C127.529 140.327 127.321 140.751 127.205 141.24C127.181 141.344 127.076 141.409 126.972 141.384C126.867 141.36 126.803 141.255 126.828 141.151C126.958 140.602 127.193 140.123 127.526 139.729C127.807 139.396 128.058 139.246 128.556 138.948C128.743 138.836 128.968 138.701 129.247 138.526C130.176 137.94 130.642 137.646 130.847 137.435C131.006 137.268 131.131 137.108 131.995 135.489C132.169 135.164 132.301 134.912 132.406 134.714C132.75 134.063 132.803 133.963 132.984 133.756C133.405 133.275 133.859 132.995 134.766 132.431C135.089 132.23 135.332 132.092 135.526 131.982C135.899 131.769 136.065 131.675 136.286 131.428C136.612 131.061 136.832 130.593 136.941 130.039C136.961 129.934 137.063 129.866 137.169 129.886C137.274 129.907 137.343 130.009 137.322 130.114C137.2 130.737 136.949 131.266 136.576 131.686C136.318 131.975 136.105 132.099 135.718 132.319C135.528 132.427 135.289 132.563 134.971 132.761C134.097 133.304 133.651 133.578 133.276 134.012C133.125 134.184 133.082 134.265 132.75 134.895C132.645 135.094 132.512 135.346 132.338 135.671C131.536 137.173 131.35 137.46 131.182 137.645Z" fill="#145E74"/>
<path d="M132.332 138.692C132.314 138.713 132.295 138.732 132.276 138.751C132.039 138.996 131.56 139.298 130.606 139.9C130.322 140.078 130.095 140.214 129.905 140.328C129.43 140.612 129.215 140.743 128.973 141.026C128.679 141.374 128.472 141.798 128.355 142.288C128.331 142.392 128.226 142.456 128.122 142.432C128.017 142.407 127.953 142.302 127.978 142.198C128.108 141.649 128.343 141.171 128.677 140.776C128.957 140.443 129.208 140.293 129.706 139.995C129.893 139.883 130.118 139.748 130.398 139.572C131.327 138.987 131.793 138.693 131.997 138.482C132.156 138.315 132.282 138.154 133.146 136.535C133.319 136.211 133.451 135.959 133.557 135.76C133.9 135.109 133.953 135.01 134.134 134.803C134.555 134.322 135.009 134.041 135.916 133.478C136.239 133.277 136.482 133.139 136.676 133.029C137.049 132.816 137.215 132.722 137.436 132.475C137.762 132.108 137.982 131.64 138.091 131.086C138.111 130.981 138.213 130.913 138.319 130.933C138.424 130.954 138.493 131.056 138.472 131.161C138.35 131.784 138.099 132.312 137.726 132.732C137.468 133.022 137.255 133.146 136.868 133.366C136.678 133.474 136.439 133.61 136.121 133.807C135.247 134.351 134.801 134.625 134.426 135.059C134.275 135.231 134.232 135.312 133.9 135.942C133.795 136.141 133.661 136.393 133.488 136.718C132.687 138.219 132.501 138.506 132.332 138.692Z" fill="#145E74"/>
<path d="M133.483 139.731C133.464 139.751 133.446 139.77 133.426 139.79C133.189 140.035 132.711 140.337 131.756 140.939C131.473 141.117 131.245 141.253 131.056 141.367C130.58 141.651 130.365 141.782 130.123 142.065C129.83 142.413 129.622 142.837 129.506 143.326C129.481 143.43 129.377 143.495 129.272 143.47C129.168 143.446 129.103 143.341 129.128 143.237C129.258 142.688 129.494 142.209 129.827 141.815C130.107 141.482 130.358 141.332 130.856 141.034C131.044 140.922 131.269 140.787 131.548 140.611C132.477 140.026 132.943 139.732 133.147 139.521C133.306 139.354 133.432 139.193 134.296 137.574C134.469 137.25 134.602 136.998 134.707 136.799C135.05 136.149 135.103 136.049 135.284 135.842C135.706 135.361 136.159 135.081 137.067 134.517C137.39 134.316 137.633 134.178 137.826 134.068C138.199 133.855 138.365 133.761 138.586 133.514C138.912 133.147 139.133 132.679 139.241 132.125C139.262 132.02 139.364 131.952 139.469 131.972C139.574 131.993 139.643 132.095 139.622 132.2C139.5 132.823 139.249 133.352 138.877 133.772C138.618 134.061 138.405 134.185 138.019 134.405C137.828 134.513 137.59 134.649 137.272 134.847C136.397 135.39 135.951 135.664 135.576 136.098C135.425 136.27 135.383 136.351 135.05 136.981C134.945 137.18 134.812 137.432 134.638 137.757C133.837 139.258 133.651 139.545 133.483 139.731Z" fill="#145E74"/>
<path d="M63.2516 58.5729C64.2551 59.4815 64.5942 60.918 64.0891 62.1738C63.2636 64.2258 61.9077 66.8269 59.6697 69.3946C57.1437 72.2934 54.4022 74.1078 52.2836 75.2177C51.0792 75.8488 49.6114 75.6604 48.6034 74.7476L40.0665 67.0171C39.2724 66.2981 38.8854 65.2357 39.0297 64.1743C39.3371 61.9137 40.3086 58.1645 43.429 54.8628C46.3142 51.81 49.668 50.5878 51.7872 50.0872C52.8276 49.8415 53.9191 50.1221 54.7113 50.8395L63.2516 58.5729Z" fill="#145E74"/>
<path d="M140.458 133.472C140.427 134.35 140.209 137.714 137.535 140.638C134.909 143.509 131.653 144.052 130.77 144.171C130.746 144.198 130.614 144.338 130.394 144.349C130.255 144.356 130.113 144.31 130.002 144.209L125.488 140.121C126.865 139.631 129.66 138.429 132.155 135.668C134.639 132.92 135.555 130.035 135.906 128.617L140.42 132.705C140.642 132.906 140.659 133.25 140.458 133.472Z" fill="#52B1CD"/>
</svg>
