<svg width="256" height="189" viewBox="0 0 256 189" fill="none" xmlns="http://www.w3.org/2000/svg">
<path d="M45.1026 89.4101C45.1026 89.4101 46.0563 55.549 44.1489 41.7182C42.241 27.8873 39.8565 20.2567 50.3487 13.5798C60.8409 6.90293 88.9793 0.703125 131.902 0.703125C174.824 0.703125 219.178 7.85705 221.085 18.8259C222.993 29.7952 219.178 51.7333 218.224 64.133C217.27 76.5331 218.701 107.056 220.131 112.302C220.131 112.302 235.87 117.071 239.208 117.071C242.547 117.071 250.654 114.686 253.039 118.024C255.423 121.363 255.9 122.793 254.947 126.132C253.993 129.471 239.208 140.917 225.377 149.501C211.547 158.085 176.255 172.87 138.102 181.455C99.9481 190.039 88.5021 188.609 88.5021 188.609C88.5021 188.609 50.3488 188.132 24.5953 172.87C-1.15811 157.609 2.18006 148.548 3.13379 135.194C4.08752 121.84 19.3488 105.625 26.9798 99.9019C34.6104 94.1792 45.1026 89.4101 45.1026 89.4101Z" fill="#253243"/>
<path d="M46.0567 21.2146C40.7338 28.3115 65.1336 39.3374 130.471 39.3374C195.809 39.3374 218.241 22.5011 215.84 18.353C210.594 9.29162 181.025 24.0762 133.333 24.0762C85.641 24.0762 51.7799 13.584 46.0567 21.2146Z" fill="#1E2937"/>
<path d="M45.102 89.4141L42.2404 139.491C42.2404 139.491 16.4869 144.737 42.2404 166.675C42.2404 166.675 11.2409 165.244 7.42561 141.398C3.6103 117.552 45.102 89.4141 45.102 89.4141Z" fill="#1E2937"/>
<path d="M46.5332 32.6562C46.5332 32.6562 48.9177 63.1791 49.3947 77.4866C49.8718 91.7941 48.9177 109.917 48.9177 109.917C48.9177 109.917 57.5021 118.978 79.9172 121.84C79.9172 121.84 84.6862 49.3483 78.4864 44.1022C78.4864 44.1022 53.2101 39.8102 46.5332 32.6562Z" fill="#3D4B63"/>
<path d="M153.841 45.0608C153.841 45.0608 202.486 42.1992 218.702 26.4609C218.702 26.4609 213.933 57.4605 213.933 79.8756C213.933 102.291 215.363 112.783 215.363 112.783C215.363 112.783 202.963 126.614 184.841 129.952C166.718 133.291 152.41 134.721 152.41 134.721L153.841 45.0608Z" fill="#1E2937"/>
<path d="M43.1959 108.484L42.2422 142.823C42.2422 142.823 49.7755 156.952 88.5034 163.33C130.508 170.248 153.882 163.235 153.882 163.235L221.563 122.792L219.656 108.484C219.656 108.484 207.732 131.376 129.041 131.376C50.3499 131.377 43.1959 108.484 43.1959 108.484Z" fill="#E28E26"/>
<path d="M47.6973 148.463C53.6969 153.127 65.6834 159.574 88.5005 163.333C90.0623 163.59 91.5956 163.826 93.1056 164.045V129.414C67.4968 126.266 54.8745 119.947 48.7531 115.07L47.6973 148.463Z" fill="#EDC594"/>
<path d="M142.295 131.143L144.235 165.094C150.58 164.225 153.879 163.235 153.879 163.235L221.56 122.792L219.653 108.484C219.653 108.484 209.09 128.748 142.295 131.143Z" fill="#CE7B20"/>
<path d="M45.1019 89.4141C45.1019 89.4141 34.6097 94.1831 26.9791 99.9062C19.3485 105.629 3.13314 122.321 1.22568 136.152C-0.6038 149.414 4.56393 160.475 24.5946 172.875C50.0478 188.631 88.5014 188.613 88.5014 188.613C88.5014 188.613 90.4419 188.854 95.3797 188.542C110.473 185.961 130.593 180.909 140.009 175.259C151.932 168.106 205.823 140.921 226.331 131.382C241.03 124.546 250.827 124.57 255.198 125.132C255.773 122.475 255.168 121.011 253.038 118.029C251.239 115.509 246.18 116.249 242.372 116.764C240.446 117.087 238.289 117.503 235.869 118.029C213.931 122.798 171.008 146.167 154.793 154.274C138.578 162.382 113.227 174.936 94.2246 176.689C66.8418 179.217 7.42543 167.628 7.90249 139.49C8.37955 111.352 46.056 91.3211 46.056 91.3211L45.1019 89.4141Z" fill="#3D4B63"/>
</svg>
