<svg width="364" height="140" viewBox="0 0 364 140" fill="none" xmlns="http://www.w3.org/2000/svg">
<path d="M0 137.482H364L310.598 0H53.4024L0 137.482Z" fill="#BF734C"/>
<path d="M22.9609 124.048H339.914L302.652 10.7656H60.2228L22.9609 124.048Z" fill="#FFA85A"/>
<path d="M182.001 10.7656L319.162 60.9543L181.439 124.048L44.625 58.1901L182.001 10.7656Z" fill="#FF6D50"/>
<path d="M181.439 16.7656L301.875 59.6941L182 112.679L61.8867 58.1094L181.439 16.7656Z" fill="#FFA85A"/>
<path d="M313.608 71.3516L329.341 115.405L217.006 117.293L313.608 71.3516Z" fill="#BF734C"/>
<path d="M309.37 50.6274L298.081 15.5078H212.791L309.37 50.6274Z" fill="#BF734C"/>
<path d="M157.288 15.5078L65.0986 16.7686L51.6152 49.3732L157.288 15.5078Z" fill="#BF734C"/>
<path d="M153.213 118.983L48.7951 68.7422L30.9219 117.294L153.213 118.983Z" fill="#BF734C"/>
<path d="M151.564 58.7581C151.564 65.7136 165.618 71.3519 182.954 71.3519C200.291 71.3519 214.345 65.7135 214.345 58.7581C214.345 51.8027 200.291 46.1641 182.954 46.1641C165.618 46.1641 151.564 51.8026 151.564 58.7581Z" fill="#FF6D50"/>
<path d="M217.79 56.9451C220.956 57.3503 226.348 58.7874 225.109 63.1832C224.654 64.7979 223.207 66.0162 221.694 66.6C220.449 67.08 219.075 67.1516 217.76 67.1297C217.303 67.122 216.47 67.3704 216.276 66.8372C216.326 66.9763 217.881 67.7363 218.045 67.8535C220.8 69.8168 220.986 73.206 217.613 74.583C213.371 76.315 207.827 74.4953 204.055 72.4168C204.177 72.2591 204.299 72.1013 204.42 71.9436C206.877 74.2345 207.736 79.3626 203.359 79.8617C198.758 80.3864 193.798 77.8177 190.472 74.8634C190.658 74.7553 190.844 74.647 191.03 74.5387C193.125 80.1903 183.418 81.523 179.922 81.403C177.605 81.3235 174.595 81.1527 173.04 79.1547C171.97 77.78 171.965 76.0708 173.024 74.7374C173.194 74.907 173.363 75.0766 173.533 75.2463C169.836 79.0055 163.788 79.2976 158.842 78.5806C156.933 78.304 154.713 77.4759 154.041 75.4523C153.447 73.6655 154.448 71.939 156.259 71.5549C156.293 71.8072 156.327 72.0596 156.362 72.3119C150.861 72.9537 144.491 72.058 139.825 68.8488C138.56 67.9782 137.855 66.7703 138.386 65.2192C139.151 62.9848 141.675 62.4558 143.712 62.1316C143.751 62.415 143.789 62.6983 143.827 62.9815C140.706 62.6952 137.415 62.2616 134.465 61.155C132.927 60.5778 131.443 59.6213 131.489 57.791C131.617 52.7048 140.041 51.6259 143.68 51.9298C143.6 52.2247 143.52 52.5194 143.441 52.8142C142.303 52.0027 140.442 51.6178 140.112 50.0346C139.841 48.7354 140.773 47.5224 141.754 46.7968C145.81 43.7969 152.117 45.8825 156.351 47.234C156.262 47.5572 156.173 47.8805 156.084 48.2038C154.69 47.7326 151.791 46.5031 151.931 44.6065C152.026 43.3165 153.454 42.8668 154.51 42.4982C159.856 40.6343 165.649 42.3426 170.662 44.4076C170.495 44.6949 170.327 44.9824 170.16 45.2698C169.087 44.1448 169.003 42.5366 169.978 41.2795C171.291 39.5878 173.8 39.6173 175.703 39.8466C177.379 40.0484 180.905 40.5112 182.06 41.9814C182.752 42.8629 182.566 43.9561 181.319 44.0195C180.852 44.0432 180.623 43.3064 181.071 43.1054C184.098 41.7491 187.361 41.0697 190.685 41.266C192.541 41.3757 195.782 41.4184 196.425 43.5664C196.469 43.7146 196.399 43.93 196.249 43.9985C195.677 44.26 195.106 44.5215 194.535 44.7831C194.436 44.5505 194.338 44.3176 194.24 44.085C199.093 42.4703 205.214 42.0427 209.975 44.2868C213.575 45.9832 211.317 48.9041 208.44 49.6478C208.374 49.4069 208.307 49.1658 208.241 48.925C214.031 47.8509 219.799 49.4239 224.238 53.2957C224.432 53.4652 224.343 53.748 224.163 53.8764C222.364 55.164 220.474 55.9324 218.288 56.2634C217.825 56.3333 217.625 55.625 218.092 55.554C219.058 55.4069 222.895 54.8015 223.148 53.698C223.37 52.7253 220.184 51.3263 219.346 50.9393C215.922 49.3582 212.131 48.961 208.44 49.6479C207.973 49.735 207.768 49.0477 208.241 48.9251C209.788 48.5241 209.928 48.532 210.081 46.7732C210.248 44.838 209.902 45.0091 208.333 44.503C206.772 43.9997 205.101 43.7239 203.469 43.6058C200.393 43.3833 197.36 43.8495 194.443 44.8217C194.039 44.9565 193.753 44.3055 194.149 44.1237C196.22 43.1742 193.704 42.435 192.668 42.2567C191.455 42.048 190.234 41.974 189.006 42.0121C186.379 42.0934 183.92 42.8111 181.566 43.9528C181.484 43.6479 181.401 43.3433 181.319 43.0387C181.103 42.4686 180.702 42.1333 180.114 42.0325C179.642 41.8192 179.158 41.6394 178.661 41.4924C178.02 41.2898 177.362 41.1298 176.7 41.0117C175.858 40.8612 174.97 40.7227 174.112 40.7383C173.87 40.746 173.628 40.7538 173.386 40.7615C171.236 40.7655 170.404 42.0252 170.89 44.5403C171.217 44.8813 170.893 45.6088 170.388 45.4026C167.424 44.1918 164.348 43.1363 161.142 42.8335C159.546 42.6827 157.937 42.7166 156.363 43.049C155.935 43.1396 153.928 43.4791 153.748 43.8959C153.981 44.7157 154.214 45.5356 154.447 46.3554C155.034 46.7455 155.669 47.0384 156.351 47.2342C156.959 47.4414 156.705 48.4038 156.084 48.204C153.184 47.27 150.13 46.2591 147.045 46.3508C145.665 46.3921 142.552 46.5887 141.815 48.0124C141.832 48.9547 141.849 49.8969 141.866 50.8392C142.037 50.9317 142.21 51.024 142.381 51.1165C142.77 51.4522 143.486 51.684 143.92 51.995C144.262 52.2403 144.196 52.9238 143.68 52.8793C141.764 52.7144 139.864 52.8153 138.004 53.3371C137.105 53.5892 136.217 53.9189 135.394 54.3591C133.401 55.4238 133.276 55.5502 133.457 57.8372C133.629 60.0166 133.568 59.9071 135.33 60.4915C136.156 60.7657 137.029 60.972 137.875 61.1708C139.838 61.631 141.821 61.9254 143.827 62.1164C144.271 62.1588 144.463 62.8855 143.943 62.9664C143.16 63.0882 142.315 63.1724 141.568 63.4582C139.793 63.7821 139.28 64.733 140.03 66.3105C139.674 67.4029 139.915 68.1134 140.752 68.4422C142.109 69.5834 144.249 70.1667 145.916 70.6726C149.317 71.7051 152.843 71.9416 156.362 71.5416C156.792 71.4927 156.887 72.2101 156.464 72.2988C154.5 73.9906 154.227 75.3454 155.646 76.363C156.116 76.9719 156.734 77.3631 157.502 77.5365C158.342 77.8204 159.248 77.8828 160.125 77.9544C161.472 78.0646 162.836 78.0979 164.186 78.0444C167.473 77.9148 170.653 77.1401 173.024 74.7377C173.358 74.4001 173.815 74.8933 173.533 75.2466C171.372 77.9548 174.891 80.0165 176.964 80.4212C178.453 80.7119 180.055 80.768 181.571 80.7107C184.426 80.6031 192.076 79.3015 190.387 74.7165C190.263 74.3809 190.717 74.1886 190.944 74.3918C193.254 76.452 195.942 77.9707 198.955 78.7332C200.307 79.0754 201.833 79.4425 203.224 79.2031C207.376 78.4893 205.881 74.148 203.994 72.3698C203.742 72.1315 204.064 71.732 204.36 71.8967C207.591 73.7001 211.397 74.878 215.139 74.5929C217.236 74.4332 220.357 73.3475 219.64 70.5173C219.188 68.7317 216.936 67.6605 215.439 66.9699C215.23 66.8734 215.33 66.5139 215.557 66.5325C218.671 66.7872 223.641 66.9745 224.714 63.0744C225.844 58.9627 220.684 57.5575 217.776 57.0485C217.718 57.0382 217.731 56.9377 217.79 56.9451Z" fill="#FF6D50"/>
<path d="M227.74 56.4389C231.275 56.929 235.534 58.8195 235.026 63.1096C234.512 67.4464 228.388 67.39 225.127 67.244C224.723 67.2259 224.718 66.6147 225.127 66.6134C228.106 66.6044 234.084 66.8235 234.389 62.8068C234.677 59.03 230.766 57.3143 227.675 56.6753C227.517 56.6428 227.588 56.4179 227.74 56.4389Z" fill="#FF6D50"/>
<path d="M133.595 51.7964C130.805 52.1368 128.09 53.2316 125.954 55.0828C125.552 55.4312 125.17 55.8022 124.815 56.1986C123.932 57.1818 123.66 57.5845 123.746 58.9655C123.844 60.5397 124.453 60.7927 125.857 61.2723C126.718 61.5664 127.609 61.7025 128.511 61.809C128.892 61.8539 128.894 62.3607 128.511 62.4046C125.07 62.7967 120.743 60.4289 123.424 56.7409C125.776 53.5054 129.664 51.7307 133.595 51.6563C133.687 51.6545 133.682 51.7856 133.595 51.7964Z" fill="#FF6D50"/>
<path d="M191.94 82.6782C191.531 87.4505 184.433 87.158 180.986 86.9798C178.186 86.8352 175.413 86.3076 172.764 85.3876C171.083 84.8041 168.054 84.0097 167.038 82.5039C166.867 82.2508 167.031 81.8377 167.333 81.7775C167.374 81.7694 167.414 81.7615 167.454 81.7533C167.704 81.7034 167.946 81.823 168.023 82.0764C168.032 82.1055 168.04 82.1348 168.049 82.1638C168.18 82.5956 167.625 82.8805 167.317 82.59C167.483 82.5947 167.648 82.5993 167.814 82.6039C167.814 82.3709 167.814 82.1377 167.814 81.9046C168.815 83.1396 171.651 83.9629 173.022 84.4517C174.71 85.0537 176.46 85.5104 178.223 85.8305C181.599 86.4435 190.993 87.6673 191.59 82.6781C191.616 82.4593 191.96 82.4506 191.94 82.6782Z" fill="#FF6D50"/>
<path d="M190.092 40.0495C191.524 38.1038 187.068 36.5419 186.012 36.2773C184.538 35.9079 182.974 35.8321 181.459 35.8215C180.024 35.8113 172.402 35.7191 172.537 38.0282C172.559 38.3944 172.062 38.4789 171.884 38.205C171.824 38.1121 171.764 38.0193 171.704 37.9266C171.625 37.8048 171.62 37.6064 171.704 37.4853C173.944 34.2683 180.749 34.8 184.085 35.2626C185.658 35.4808 192.539 37.4727 190.312 40.2193C190.213 40.3418 189.997 40.1781 190.092 40.0495Z" fill="#FF6D50"/>
<path d="M349.83 131.221C347.244 127.489 342.915 131.12 340.122 132.266C338.178 133.064 336.374 133.026 334.423 132.299C331.963 131.382 329.764 129.702 327.08 129.467C324.094 129.206 321.247 130.636 318.559 131.72C316.458 132.568 314.223 133.391 311.916 133.251C309.568 133.109 307.534 131.935 305.429 131.009C301.854 129.435 299.345 129.91 296.102 131.916C294.12 133.142 292.197 134.241 289.795 134.199C284.666 134.109 280.576 129.921 275.398 129.994C270.05 130.069 265.598 134.223 260.194 133.983C254.652 133.737 250.397 128.383 244.636 130.215C239.869 131.731 236.654 134.893 231.381 133.324C228.678 132.52 226.135 131.02 223.238 131.062C220.124 131.107 217.375 132.812 214.527 133.844C209.397 135.703 205.734 133.703 201 131.837C197.789 130.571 194.962 130.578 191.687 131.667C188.936 132.582 186.299 133.935 183.383 134.265C178.265 134.844 173.882 131.79 168.999 130.93C162.966 129.867 157.902 134.609 151.875 133.6C149.389 133.184 147.099 132.077 144.768 131.173C141.419 129.874 138.358 129.346 134.801 130.24C130.242 131.387 125.597 134.166 120.749 133.046C118.107 132.437 115.986 130.456 113.273 130.118C110.32 129.75 107.525 131.211 104.853 132.25C102.665 133.101 100.319 133.881 97.9421 133.462C95.0947 132.961 93.093 130.624 90.3481 129.907C85.0612 128.526 80.9243 134.636 75.4596 133.559C73.0594 133.085 71.0217 131.608 68.8845 130.512C67.5415 129.823 66.0881 129.17 64.5423 129.23C62.6914 129.301 61.3403 130.53 59.8314 131.416C55.5827 133.911 50.2299 133.093 46.9059 129.457C46.3894 128.892 47.2297 128.047 47.7481 128.614C49.8921 130.96 53.0662 132.152 56.2313 131.565C58.8647 131.077 60.6544 128.936 63.1816 128.255C67.6673 127.046 71.1389 131.265 75.1579 132.295C80.1916 133.585 83.7276 128.79 88.5391 128.585C90.8306 128.487 92.644 129.642 94.5368 130.772C97.4492 132.512 100.026 132.768 103.236 131.673C107.715 130.146 111.693 127.762 116.388 129.947C119.294 131.299 121.74 132.579 125.054 132.046C127.934 131.583 130.633 130.347 133.416 129.526C135.564 128.893 137.759 128.484 140.001 128.747C142.77 129.072 145.298 130.305 147.865 131.308C151.004 132.534 153.953 133.15 157.3 132.227C159.986 131.487 162.506 130.161 165.298 129.817C170.992 129.114 175.787 133.025 181.33 133.357C187.054 133.7 191.86 129.19 197.633 129.928C203.343 130.659 207.504 135.18 213.586 133.233C215.965 132.471 218.16 131.194 220.588 130.573C223.212 129.902 225.548 130.306 228.065 131.212C230.774 132.187 233.42 133.49 236.379 132.853C238.91 132.307 241.064 130.724 243.442 129.782C248.839 127.645 252.491 131.043 257.425 132.657C263.361 134.598 268.226 130.198 273.885 129.385C278.813 128.677 282.659 131.758 287.174 133.048C291.155 134.186 293.65 132.477 296.96 130.594C299.109 129.372 301.196 128.887 303.612 129.59C306.683 130.485 309.282 132.718 312.619 132.649C315.756 132.584 318.595 130.989 321.481 129.948C323.767 129.123 326.148 128.593 328.553 129.21C331.536 129.974 334.039 132.384 337.206 132.451C340.914 132.531 346.859 126.371 349.982 131.132C350.044 131.228 349.894 131.312 349.83 131.221Z" fill="#FFA85A"/>
<path d="M49.697 131.4C47.5866 129.806 45.0051 127.561 42.1457 128.289C40.4989 128.708 39.2947 130.039 37.9898 131.03C35.6045 132.844 33.3138 133.021 30.571 131.873C28.937 131.189 27.4134 130.155 25.6656 129.768C23.0163 129.183 20.8549 130.775 18.5468 131.759C16.0654 132.816 13.3817 133.16 11.2003 131.329C10.4229 130.676 11.5437 129.562 12.3149 130.214C15.7609 133.123 20.1478 128.434 23.7836 128.116C27.2406 127.815 29.7278 130.468 32.9606 131.049C36.5789 131.699 38.5728 127.922 41.8643 127.269C45.0597 126.634 47.8566 128.998 49.8881 131.152C50.005 131.276 49.8458 131.512 49.697 131.4Z" fill="#FFA85A"/>
<path d="M308.151 4.24251C303.68 11.3847 315.525 9.93596 313.26 15.6939C313.002 16.3501 312.507 16.8221 312.068 17.3541C311.007 18.6422 310.103 19.1966 311.544 21.3384C311.836 21.7717 312.736 22.3677 313.026 22.5579C314.775 23.7037 317.064 24.3734 318.157 26.3149C319.107 28.0001 318.369 29.3223 317.575 30.8681C315.704 34.5074 316.903 37.3454 320.037 39.6725C321.075 40.4429 322.304 41.2993 322.556 42.6543C322.682 43.3305 322.515 43.9342 322.192 44.5364C321.27 46.2532 319.922 47.1672 320.438 49.4274C321.158 52.5855 324.045 54.2936 326.416 56.1264C327.799 57.1955 329.727 58.5933 330.118 60.4441C330.613 62.7852 328.369 64.5294 328.533 66.9095C328.77 70.3465 331.496 72.8947 333.877 75.0538C336.644 77.5632 340.927 81.2434 339.121 85.4295C338.467 86.9474 337.693 88.0114 337.631 89.7488C337.577 91.2762 337.984 92.8266 338.671 94.1838C339.974 96.7599 342.536 97.8069 344.142 100.04C345.257 101.59 345.105 103.134 344.32 104.799C343.464 106.616 342.337 108.38 342.245 110.453C342.118 113.291 343.622 114.617 345.968 115.672C350.506 117.711 350.569 122.099 349.963 126.533C349.908 126.94 349.189 126.848 349.241 126.436C349.566 123.833 349.92 120.592 348.269 118.346C346.714 116.229 343.69 116.403 342.219 114.146C341.146 112.5 341.068 110.462 341.538 108.6C341.84 107.407 342.385 106.333 342.906 105.227C343.999 102.908 344.112 101.226 341.995 99.4182C338.783 96.6748 336.024 93.4824 336.596 88.9185C336.721 87.9234 337.032 87.0622 337.447 86.1632C338.415 84.0649 338.674 82.628 337.487 80.5811C336.028 78.0634 333.487 76.3309 331.445 74.3313C329.948 72.8655 328.611 71.1656 327.9 69.1708C327.049 66.785 327.641 65.3665 328.319 63.135C329.643 58.7833 325.747 57.2161 322.979 54.9499C321.133 53.4383 319.522 51.5039 319.2 49.0528C318.978 47.3565 319.478 46.1112 320.491 44.808C322.799 41.8409 318.335 40.4483 316.817 38.4561C315.679 36.9633 315.162 34.997 315.424 33.1371C315.534 32.3525 315.772 31.6511 316.117 30.9422C316.737 29.6661 317.965 28.7076 317.089 26.9393C316.654 26.0599 315.61 25.4403 314.812 24.961C312.994 23.8696 310.653 23.0387 309.841 20.8627C309.009 18.6358 310.681 17.7678 311.714 16.1412C314.233 12.1756 308.054 11.5305 306.616 9.00489C305.553 7.1381 306.631 5.44529 307.986 4.11499C308.07 4.03331 308.216 4.13926 308.151 4.24251Z" fill="#FFA85A"/>
<path d="M306.547 4.64656C303.893 3.95861 301.136 3.81094 298.473 4.55361C296.445 5.11903 294.515 6.50274 292.341 6.42506C290.759 6.36829 289.323 5.62844 287.897 5.0225C285.179 3.86717 282.844 3.79458 280.05 4.71308C276.913 5.74447 273.667 7.71278 270.24 7.13577C268.667 6.87109 267.362 6.00156 266.043 5.15619C265.082 4.5405 264.021 3.74886 262.856 3.64724C260.924 3.47855 260.244 4.77223 259.071 5.85866C256.775 7.98688 253.969 7.35082 251.258 6.43828C249.439 5.82594 247.537 4.9796 245.587 4.92965C242.941 4.86226 240.963 6.52993 238.58 7.35732C234.831 8.65923 231.202 7.07369 227.638 5.92659C225.229 5.15099 222.865 4.66465 220.345 5.19378C218.211 5.64187 216.225 6.60057 214.104 7.09178C212.55 7.45147 210.993 7.55298 209.43 7.1817C206.781 6.55182 204.554 4.79585 201.69 5.43971C199.698 5.88748 197.984 7.13208 196.008 7.6364C194.344 8.06109 192.675 7.92155 191.036 7.45699C187.047 6.3269 183.358 3.30565 179.01 4.32837C175.11 5.24589 172.33 7.78168 168.134 6.60133C166.095 6.02778 164.219 4.93875 162.108 4.62381C159.34 4.21093 157.138 5.72226 154.568 6.40502C149.714 7.69447 144.612 5.89701 139.741 5.61522C134.463 5.30981 129.128 5.56214 123.844 5.60656C118.405 5.65206 112.959 5.62346 107.522 5.74967C104.51 5.81944 102.24 6.7348 99.4292 7.5441C97.7142 8.03769 96.1266 7.86142 94.4785 7.2207C92.4739 6.44109 90.6574 5.03745 88.5096 4.66953C85.5824 4.16824 84.2053 6.77445 81.7619 7.6766C80.1329 8.27788 78.4606 7.86391 76.8911 7.27856C73.769 6.11434 71.538 5.41729 68.1324 6.10795C64.6825 6.8075 60.7908 7.71289 58.3147 4.50247C57.8893 3.95091 58.8334 3.40315 59.2525 3.95416C62.5071 8.23346 68.9771 3.8273 73.3067 4.85771C75.119 5.28901 76.7389 6.29722 78.5471 6.73426C81.6352 7.48094 82.8813 5.34557 85.2732 4.13206C88.2146 2.6399 91.0091 4.47809 93.6446 5.74046C95.9858 6.86188 97.8118 7.10261 100.276 6.17111C102.274 5.41577 104.149 4.9095 106.288 4.79239C111.631 4.49954 117.034 4.6782 122.384 4.63974C127.532 4.60258 132.697 4.43898 137.844 4.58004C143.223 4.72771 149.027 6.85853 154.318 5.49702C156.213 5.00928 157.93 3.94474 159.885 3.66414C161.739 3.39795 163.45 3.88862 165.171 4.53497C167.441 5.38695 169.667 6.43784 172.155 5.91001C174.349 5.44437 176.258 4.13899 178.41 3.53782C181.738 2.60826 184.788 3.92405 187.805 5.24254C189.675 6.06006 191.71 7.00933 193.8 7.01594C196.347 7.02407 198.394 5.53722 200.735 4.79369C204.963 3.45071 208.282 6.92808 212.459 6.48606C216.596 6.04826 220.087 3.58137 224.384 4.22144C228.574 4.84558 232.58 7.63738 236.921 6.90273C239.144 6.52647 240.936 5.09021 243.064 4.4392C244.585 3.97377 246.089 4.05265 247.624 4.40626C249.37 4.80875 251.015 5.55054 252.732 6.05183C255.363 6.82007 257.171 6.53221 259.144 4.58557C262.07 1.70027 264.229 3.14086 267.366 5.06226C272.109 7.96695 276.145 4.96172 280.833 3.68537C282.555 3.21648 284.301 3.06231 286.041 3.53067C288.654 4.23401 290.903 6.1684 293.761 5.55607C295.955 5.08588 297.716 3.81798 300.01 3.57595C302.315 3.33262 304.443 3.71408 306.561 4.61471C306.579 4.6224 306.565 4.65133 306.547 4.64656Z" fill="#FFA85A"/>
<path d="M55.6865 4.92631C57.7809 5.41655 59.3842 7.2451 58.9509 9.49812C58.7446 10.5721 58.1125 11.4977 57.2012 12.0911C56.6179 12.4708 55.9119 12.5219 55.313 12.8244C54.3064 13.3321 50.9594 12.6234 53.0897 16.0208C53.3188 16.3862 53.8843 16.5914 54.166 16.9411C55.6458 18.7789 53.8932 20.6975 52.2595 21.679C51.5839 22.0852 50.8324 22.3402 50.1543 22.7415C49.7084 23.0054 48.8752 23.4729 48.6751 23.8519C48.4139 24.3462 48.6988 26.5932 48.8908 27.0084C49.3221 27.9421 49.9316 28.3387 49.6969 29.4937C49.1118 32.376 45.7027 32.77 43.5978 33.9576C38.8141 36.6561 43.5473 39.5873 45.0636 42.4874C45.9235 44.1321 45.5557 45.8333 44.0825 46.9634C41.8545 48.6726 36.9316 48.7386 38.3188 52.7637C39.0853 54.9877 43.2109 56.7539 41.4817 59.6884C39.7117 62.6918 33.4764 60.0157 34.5724 65.5063C35.0113 67.7051 39.0855 71.4457 37.514 73.7911C36.9519 74.6301 35.6659 74.7388 34.7881 74.9303C31.9923 75.5403 27.6207 77.1334 29.6622 80.8543C30.6394 82.6356 33.1926 84.3563 32.4495 86.6844C31.7473 88.8842 29.0739 88.7225 27.2318 88.9958C20.4396 90.0038 26.6398 96.7609 26.5456 100.435C26.4848 102.795 24.753 104.094 22.7712 104.99C21.5736 105.531 20.2615 105.896 19.1426 106.595C16.2777 108.386 17.9663 110.797 19.3163 113.033C20.4321 114.88 20.9179 117.741 18.3061 118.497C17.5962 118.702 16.38 118.341 15.7947 118.647C15.5942 119.08 15.3938 119.513 15.1933 119.947C14.3627 120.671 14.313 121.252 15.0439 121.69C15.122 121.9 15.3799 122.078 15.5044 122.27C16.2019 123.344 16.4361 124.681 16.161 125.929C15.5403 128.745 12.5766 130.03 9.97431 129.146C9.50888 128.988 9.69891 128.26 10.1791 128.403C13.0659 129.258 16.2954 126.937 15.2707 123.735C14.8439 122.401 13.0458 121.561 12.9332 120.14C12.7689 118.067 15.0943 118.026 16.4886 117.809C17.7582 117.612 16.7407 118.384 18.2565 116.449C19.3981 114.993 19.5824 115.229 18.7527 113.724C18.3578 113.007 17.8094 112.386 17.3975 111.679C16.881 110.792 16.4689 109.827 16.5829 108.777C16.787 106.897 18.4455 105.943 20.0097 105.242C23.6579 103.608 27.0552 102.398 24.9091 97.4413C23.9814 95.2985 22.3456 92.7195 23.4878 90.316C24.4923 88.2024 26.9227 88.253 28.915 87.987C34.7697 87.2052 29.461 82.9331 28.5324 80.4322C27.7121 78.2224 29.0755 76.2183 31.0232 75.1948C32.3812 74.481 34.0154 74.5941 35.3572 73.9709C38.4951 72.5137 34.9215 68.7957 34.2003 67.0217C33.4625 65.2078 33.3271 62.7854 35.0236 61.4463C35.7992 60.8341 36.8046 60.6985 37.7449 60.5276C38.3708 60.4137 39.6712 60.3836 40.1613 59.8993C40.8155 59.2532 40.8252 57.8111 40.6229 57.0849C40.3771 56.2032 39.5806 55.6023 39.001 54.9381C37.7123 53.4608 36.3476 51.5607 37.6986 49.6605C38.8499 48.0414 41.1698 47.7224 42.8006 46.8197C48.8996 43.4447 37.7073 39.0609 41.4386 34.5843C43.784 31.7698 50.7035 32.4169 47.96 27.1101C46.9205 25.0996 47.1725 23.8262 49.2069 22.437C49.9512 21.9287 50.7826 21.6469 51.5635 21.2144C53.1618 20.3292 54.1933 18.4631 53.0119 16.898C52.4294 16.1265 51.5885 15.8797 51.7059 14.7269C51.8074 13.7292 52.6787 12.9969 53.5184 12.5883C54.7711 11.9784 55.6996 12.0471 56.8641 11.1649C59.2321 9.37137 58.4753 6.0629 55.6119 5.19597C55.4391 5.14418 55.5103 4.88503 55.6865 4.92631Z" fill="#FFA85A"/>
<path d="M71.1758 58.6731L181.061 19.8233L181.315 19.7344L293.526 60.594L182.189 108.501L181.887 108.631L71.1758 58.6731ZM181.308 21.3225L75.1831 58.8422L181.902 106.998L289.476 60.7092L181.308 21.3225Z" fill="#FF6D50"/>
<path d="M310.982 76.8438L311.243 77.6738C321.216 109.309 320.962 109.653 320.671 110.052L320.439 110.353L320.07 110.362C319.138 110.385 239.187 114.075 238.379 114.112L234.793 114.277L310.982 76.8438ZM310.079 78.9534L241.897 112.453C257.721 111.723 311.656 109.236 319.185 108.905C318.297 105.329 313.509 89.8494 310.079 78.9534Z" fill="#FF6D50"/>
<path d="M227.672 18.3598L295.841 17L305.163 47.0061L227.672 18.3598ZM235.6 19.6959L302.836 44.5509L294.747 18.516L235.6 19.6959Z" fill="#FF6D50"/>
<path d="M66.7811 19.796L143.815 18.0234L57.5488 44.3352L66.7811 19.796ZM67.8242 21.2672L60.0164 42.0187L132.97 19.7682L67.8242 21.2672Z" fill="#FF6D50"/>
<path d="M36.4414 113.396L51.2008 74.7031L142.037 116.628L36.4414 113.396ZM38.5853 111.966L134.746 114.908L52.0281 76.7302L38.5853 111.966Z" fill="#FF6D50"/>
<path d="M183.161 67.4011C196.243 67.4011 206.848 63.3641 206.848 58.3842C206.848 53.4042 196.243 49.3672 183.161 49.3672C170.08 49.3672 159.475 53.4042 159.475 58.3842C159.475 63.3641 170.08 67.4011 183.161 67.4011Z" fill="#BF734C"/>
<path d="M0.0170288 139.625L364 139.625V137.485L0.0170288 137.485V139.625Z" fill="#93523B"/>
</svg>
