<svg width="281" height="289" viewBox="0 0 281 289" fill="none" xmlns="http://www.w3.org/2000/svg">
<path d="M80.1191 240.952C81.1674 240.276 82.1359 239.381 83.106 238.594C83.4436 242.4 83.6867 246.22 83.9667 250.031C84.131 252.271 84.218 254.51 84.5934 256.727L82.8504 258.432C81.6137 252.674 81.0647 246.762 80.1191 240.952Z" fill="#1D6171"/>
<path d="M177.195 58.0938C176.996 59.1039 175.109 60.6053 174.36 61.3545C165.914 69.7967 155.285 78.0038 145.366 84.6683C144.618 85.1714 143.657 85.9827 142.794 86.2217C142.403 86.2404 142 86.2029 141.607 86.1864C148.469 81.2335 155.254 76.0915 161.845 70.783C162.947 70.1311 164.03 69.0614 165.015 68.2366L172.475 61.8832C173.944 60.6253 175.515 59.0418 177.195 58.0938Z" fill="#144058"/>
<path d="M194.521 18.2578C194.187 19.0219 193.878 19.7986 193.429 20.5042C191.249 20.9967 182.941 34.4102 179.788 36.6304L179.659 36.6155C178.355 35.8456 176.8 35.6457 175.334 35.3761C178.633 33.1259 181.425 30.1746 184.335 27.4652C187.685 24.3466 191.128 21.329 194.521 18.2578Z" fill="#F4B733"/>
<path d="M75.4212 185.469C74.3193 187.001 72.8793 188.411 71.5759 189.776C69.8071 190.04 67.9436 190.821 66.2634 191.428C59.5922 193.838 53.1652 196.9 46.6482 199.694C44.9173 200.436 42.8921 201.775 41.0176 201.932C45.6755 197.613 58.6519 192.603 64.8099 190.01L75.4212 185.469Z" fill="#7FB3BE"/>
<path d="M85.8922 159.559L86.1787 159.448C86.4758 159.573 86.7206 159.696 87.0466 159.716C87.3014 159.732 87.3641 159.593 87.5472 159.438C89.746 161.411 92.8945 162.764 95.3856 164.398C93.8565 165.968 92.3597 167.692 90.7312 169.153C88.5482 168.022 86.4205 166.802 84.2893 165.577C83.5084 165.05 82.6525 164.594 81.8418 164.11C83.3487 162.653 84.8387 161.191 86.4926 159.898L85.8922 159.559Z" fill="#062E4B"/>
<path d="M86.4926 159.906L86.7119 160.042C86.1241 161.979 84.568 163.481 84.2893 165.585C83.5084 165.058 82.6525 164.602 81.8418 164.118C83.3486 162.661 84.8386 161.199 86.4926 159.906Z" fill="#196F93"/>
<path d="M179.789 36.6262C182.942 34.406 191.25 20.9925 193.431 20.5C191.913 24.3301 189.998 28.044 188.303 31.8033C186.808 35.1203 185.484 38.6494 183.777 41.8558L183.387 41.1098C182.992 39.2408 181.192 37.7792 179.789 36.6262Z" fill="#E68506"/>
<path d="M265.386 243.211L266.526 245.762C260.217 252.205 254.332 259.068 247.931 265.418C247.446 264.61 247.155 263.732 246.832 262.851C249.353 259.936 263.366 244.231 265.386 243.211Z" fill="#062E4B"/>
<path d="M258.317 94.5773C259.372 93.9251 260.37 92.1175 261.164 91.0928C262.96 88.7724 271.748 77.194 273.47 76.1094C270.703 82.2412 267.477 88.2143 264.468 94.2338C263.138 96.8918 262.044 99.6837 260.686 102.317C260.309 99.7416 259.749 96.8162 258.299 94.6187L258.317 94.5773Z" fill="#E68506"/>
<path d="M232.632 164.648C234.302 169.047 235.826 173.531 237.598 177.884C236.002 179.379 234.275 180.757 232.531 182.075C231.894 180.881 231.437 179.514 230.917 178.261L227.693 170.485C229.42 168.769 231.269 166.66 232.632 164.648Z" fill="#4F9882"/>
<path d="M252.477 91.29C259.639 85.4647 266.927 79.7335 274.467 74.4062C274.162 74.9915 273.882 75.5924 273.472 76.1123C271.75 77.1968 262.961 88.7753 261.165 91.0958C260.372 92.1205 259.374 93.928 258.319 94.5802C256.732 92.6613 254.729 92.064 252.477 91.29Z" fill="#F4B733"/>
<path d="M251.713 211.625C254.03 216.838 256.182 222.122 258.484 227.341C260.762 232.506 263.238 237.635 265.24 242.916C262.901 241.997 260.553 240.254 258.437 238.882C254.966 231.149 251.252 223.508 247.676 215.822C249.053 214.449 250.419 213.078 251.713 211.625Z" fill="#4F9882"/>
<path d="M61.3704 145.812L78.7477 155.474C80.7221 156.598 83.9 158.874 85.8926 159.568L86.493 159.907C84.8391 161.2 83.3491 162.661 81.8422 164.119C73.099 159.279 64.5594 153.997 55.7227 149.337C57.6448 148.244 59.5681 147.094 61.3704 145.812Z" fill="#57BAC5"/>
<path d="M258.436 238.883C260.552 240.254 262.9 241.997 265.239 242.916L265.387 243.206C263.366 244.227 249.353 259.931 246.833 262.847C245.763 260.42 244.592 258.084 242.992 255.96C246.534 251.749 250.427 247.83 254.158 243.787C255.523 242.307 257.477 240.632 258.436 238.883Z" fill="#196F93"/>
<path d="M219.733 242.945C224.872 245.798 229.918 248.831 235.017 251.758C237.498 253.182 240.268 255.123 242.992 255.961C244.592 258.085 245.763 260.422 246.833 262.848C247.156 263.728 247.447 264.607 247.931 265.415C246.768 265.112 245.409 264.161 244.337 263.579C240.485 261.489 236.705 259.301 232.923 257.087L215.523 247.07C216.839 245.619 218.315 244.297 219.733 242.945Z" fill="#4F9882"/>
<path d="M237.598 177.883C241.806 189.34 246.752 200.478 251.712 211.625C250.417 213.078 249.052 214.448 247.674 215.822L247.23 215.116C246.711 213.591 245.885 212.095 245.232 210.614C243.641 207.004 242.028 203.42 240.353 199.847C237.608 193.991 235.08 188.018 232.531 182.074C234.275 180.755 236.002 179.377 237.598 177.883Z" fill="#57BAC5"/>
<path d="M175.336 35.375C176.802 35.6447 178.357 35.8445 179.661 36.6144C175.722 40.2988 172.06 44.2722 168.413 48.243C164.728 52.2545 161.036 56.3 157.602 60.5312L157.481 60.5441C157.013 61.1355 156.57 61.6969 156.007 62.203C153.863 60.3039 151.755 59.1858 149.154 58.044L149.227 57.8781C154.654 50.9398 160.709 45.0114 167.739 39.7057C170.093 37.9292 172.393 35.9933 175.336 35.375Z" fill="#57BAC5"/>
<path d="M149.227 57.8737C152.274 57.4123 154.41 58.264 156.842 60.0564C157.057 60.2152 157.27 60.3755 157.481 60.5398C157.013 61.1312 156.57 61.6926 156.007 62.1987C153.863 60.2996 151.755 59.1814 149.154 58.0397L149.227 57.8737Z" fill="#A9EEF1"/>
<path d="M176.023 223.795C177.081 222.177 178.519 220.982 179.943 219.703C180.57 220.057 181.198 220.404 181.805 220.791L181.838 220.875L203.896 233.816C209.164 236.87 214.506 239.819 219.734 242.939C218.316 244.291 216.84 245.612 215.524 247.064C213.028 245.971 209.168 243.156 206.578 241.66L177.103 224.424C176.736 224.23 176.381 224.005 176.023 223.795Z" fill="#57BAC5"/>
<path d="M176.023 223.795C177.081 222.177 178.519 220.982 179.943 219.703C180.57 220.057 181.198 220.404 181.805 220.791L181.838 220.875C180.231 222.01 178.649 223.208 177.103 224.424C176.736 224.23 176.381 224.005 176.023 223.795Z" fill="#4F9882"/>
<path d="M103.095 222.727L98.2576 236.282C97.3221 238.951 95.8347 244.269 94.3249 246.429C93.3574 247.813 91.9922 249.043 90.8214 250.259L84.5928 256.721C84.2174 254.504 84.1305 252.264 83.9662 250.025C83.6862 246.213 83.4431 242.393 83.1055 238.587C87.7402 234.743 92.4586 231 97.1867 227.271C99.0598 225.794 101.026 223.871 103.095 222.727Z" fill="#287B8E"/>
<path d="M41.0187 201.929C42.8932 201.773 44.9184 200.434 46.6493 199.692C53.1663 196.898 59.5933 193.836 66.2645 191.425C67.9447 190.819 69.8082 190.038 71.577 189.773C69.7138 191.898 67.6812 193.851 65.8726 196.029C63.9402 198.355 62.2035 201.019 60.113 203.18C58.9502 204.531 53.8265 211.448 53.1763 211.806C46.4069 210.557 39.5151 210.027 32.7715 208.587L33.9595 207.582C35.9542 205.592 38.5388 203.271 41.0187 201.929Z" fill="#287B8E"/>
<path d="M33.9595 207.58C35.975 207.486 38.05 207.016 40.0454 206.701C43.6343 206.135 47.2395 205.61 50.8022 204.893C52.9668 204.457 58.3129 203.004 60.113 203.178C58.9502 204.53 53.8265 211.447 53.1763 211.805C46.4069 210.556 39.5151 210.026 32.7715 208.585L33.9595 207.58Z" fill="#144058"/>
<path d="M238.003 120.013C239.532 118.259 240.912 116.316 242.373 114.497L253.042 101.129C254.602 99.1645 256.497 96.2262 258.3 94.6172C259.75 96.8147 260.31 99.7402 260.687 102.315C258.457 107.316 254.789 115.03 251.516 119.23C248.654 122.903 245.158 126.055 241.767 129.227L239.911 130.907C239.514 127.464 238.717 124.596 236.369 121.972L236.332 121.875C236.923 121.334 237.499 120.642 237.883 119.936L238.003 120.013Z" fill="#0B6F66"/>
<path d="M237.883 119.938L238.003 120.014C240.155 123.076 241.382 125.46 241.767 129.229L239.911 130.909C239.514 127.466 238.717 124.597 236.369 121.973L236.332 121.877C236.923 121.336 237.499 120.643 237.883 119.938Z" fill="#7FB3BE"/>
<path d="M252.633 15.6335C258.992 11.0777 272.879 2.06174 280.363 0L280.575 0.165402L280.416 0.720669C279.678 4.17092 278.248 7.49114 276.897 10.7368C274.152 17.3285 271.048 23.8919 267.586 30.1412C266.857 27.8871 265.845 25.8208 264.635 23.7892L263.892 22.7062L262.914 21.4219C260.122 18.868 256.763 16.9903 253.229 15.6962L252.633 15.6335Z" fill="#B2171E"/>
<path d="M252.633 15.6335C258.992 11.0777 272.879 2.06174 280.363 0L280.575 0.165402L280.416 0.720669C280.048 0.663405 279.999 0.65086 279.683 0.888097C278.119 2.06384 276.665 4.45545 275.453 6.02222C272.073 10.3942 268.468 15.4501 264.851 19.5797C262.385 17.5671 258.095 14.8654 254.754 15.2658C254.373 15.3117 253.523 15.4485 253.229 15.6962L252.633 15.6335Z" fill="#E64234"/>
<path d="M232.742 29.0997C238.621 23.5088 246.036 20.1954 252.632 15.6328L253.228 15.6955C256.762 16.9896 260.121 18.8673 262.913 21.4212L263.891 22.7056C259.229 28.2104 253.544 32.9806 248.451 38.0848C248.065 37.5978 247.636 37.1765 247.191 36.7432L247.182 36.6614C243.367 32.848 238.236 29.5698 232.742 29.0997Z" fill="#BFDEE6"/>
<path d="M262.914 21.4219L263.892 22.7062C259.231 28.211 253.546 32.9812 248.452 38.0855C248.066 37.5984 247.638 37.1771 247.193 36.7438L247.184 36.662C252.54 31.7253 257.79 26.6001 262.914 21.4219Z" fill="#7FB3BE"/>
<path d="M252.477 91.2891C254.729 92.0632 256.733 92.6604 258.319 94.5792L258.301 94.6206C256.498 96.2296 254.603 99.168 253.043 101.132L242.374 114.501C240.914 116.32 239.533 118.263 238.004 120.016L237.884 119.939C237.501 120.645 236.925 121.338 236.333 121.879L235.346 120.997C232.614 118.59 229.794 117.705 226.188 117.937L227.371 116.057C229.752 111.429 235.684 105.123 239.21 101.102C239.37 100.919 239.43 100.745 239.481 100.512C240.208 100.329 240.801 99.7137 241.379 99.2578C244.979 96.4171 248.588 93.7301 252.477 91.2891Z" fill="#57BAC5"/>
<path d="M227.371 116.053C231.189 115.78 234.308 116.738 237.206 119.299C237.438 119.505 237.664 119.716 237.884 119.935C237.501 120.641 236.925 121.333 236.333 121.874L235.346 120.993C232.614 118.585 229.794 117.7 226.188 117.933L227.371 116.053Z" fill="#A9EEF1"/>
<path d="M179.66 36.6094L179.789 36.6243C181.192 37.7773 182.992 39.2389 183.387 41.1079L183.777 41.8539L179.643 51.209C178.971 52.7504 178.401 54.4209 177.603 55.896L177.472 56.6142C175.61 57.638 171.366 61.7666 169.492 63.4021C167.491 65.1476 165.378 66.7813 163.4 68.5483C162.891 68.9736 162.392 69.454 161.818 69.7868C160.52 67.0496 158.222 64.2907 156.002 62.2428L156.006 62.1979C156.569 61.6919 157.012 61.1304 157.48 60.539L157.601 60.5261C161.035 56.2949 164.727 52.2495 168.412 48.2379C172.059 44.2671 175.721 40.2937 179.66 36.6094Z" fill="#0B6F66"/>
<path d="M183.386 41.1094L183.776 41.8554L179.642 51.2104C178.97 52.7519 178.4 54.4224 177.602 55.8975C177.584 55.7238 177.563 55.5506 177.557 55.3763C177.512 54.1084 182.487 42.1092 183.386 41.1094Z" fill="#3E8F95"/>
<path d="M157.601 60.5312C160.671 63.2833 161.369 65.2038 163.4 68.5534C162.891 68.9787 162.392 69.4591 161.818 69.7919C160.52 67.0547 158.222 64.2958 156.002 62.2479L156.006 62.203C156.569 61.6969 157.012 61.1355 157.48 60.5441L157.601 60.5312Z" fill="#7FB3BE"/>
<path d="M149.154 58.0391C151.754 59.1808 153.862 60.299 156.006 62.1981L156.002 62.243C158.222 64.2908 160.521 67.0498 161.819 69.787L161.284 70.2523C154.372 75.4098 147.746 81.2448 140.52 85.9393C139.724 85.8559 138.932 85.7543 138.13 85.7644L135.72 85.7337C134.934 85.5038 133.915 85.6108 133.094 85.6031C135.261 80.9011 137.935 76.2545 140.524 71.775C143.224 67.1009 145.938 62.3843 149.154 58.0391Z" fill="#E64234"/>
<path d="M138.131 85.7636L137.041 85.523C138.107 83.9113 139.567 82.3874 140.797 80.8851L149.058 70.8254C151.084 68.3491 153.86 64.279 156.003 62.2422C158.223 64.29 160.521 67.0489 161.819 69.7861L161.284 70.2514C154.372 75.409 147.746 81.2439 140.52 85.9385C139.724 85.8551 138.932 85.7535 138.131 85.7636Z" fill="#B2171E"/>
<path d="M248.452 38.0824C253.545 32.9781 259.23 28.2079 263.892 22.7031L264.634 23.7861C265.845 25.8177 266.856 27.884 267.585 30.1381C263.051 38.4261 259.291 44.5925 253.142 51.8626C251.532 54.1577 249.429 56.3123 247.518 58.3627C247.41 54.8915 245.933 51.5706 244.306 48.5695L244.197 48.4886C243.349 47.1512 242.501 45.8506 241.52 44.6041C240.998 44.0272 240.45 43.4716 240.043 42.8056C242.504 40.8858 244.904 38.8639 247.192 36.7407C247.637 37.174 248.066 37.5953 248.452 38.0824Z" fill="#7FB3BE"/>
<path d="M248.451 38.0824C253.544 32.9781 259.229 28.2079 263.891 22.7031L264.633 23.7861C264.553 24.3339 264.478 24.9133 264.228 25.4132C262.543 28.7716 253.718 38.6482 250.76 41.6548C250.043 40.415 249.294 39.2399 248.451 38.0824Z" fill="#BFDEE6"/>
<path d="M247.192 36.7422C247.637 37.1754 248.066 37.5968 248.452 38.0838C249.295 39.2414 250.044 40.4165 250.761 41.6562L250.742 41.739C252.426 44.7737 252.906 48.4548 253.142 51.864C251.532 54.1592 249.429 56.3137 247.518 58.3641C247.41 54.8929 245.933 51.572 244.306 48.5709L244.197 48.49C243.349 47.1526 242.501 45.8521 241.52 44.6055C240.998 44.0287 240.45 43.4731 240.043 42.807C242.504 40.8872 244.904 38.8653 247.192 36.7422Z" fill="#144058"/>
<path d="M247.192 36.7422C247.637 37.1754 248.066 37.5968 248.452 38.0838C249.295 39.2414 250.044 40.4165 250.761 41.6562L250.742 41.739C249.322 43.2213 245.241 47.1666 244.306 48.5709L244.197 48.49C243.349 47.1526 242.501 45.8521 241.52 44.6055C240.998 44.0287 240.45 43.4731 240.043 42.807C242.504 40.8872 244.904 38.8653 247.192 36.7422Z" fill="#1D6171"/>
<path d="M130.099 190.305C132.643 191.601 135.157 192.95 137.639 194.361C139.488 195.41 144.789 198.864 146.416 199.233C149.4 200.329 152.092 202.312 154.875 203.838C164.081 208.884 173.16 214.207 182.201 219.542L182.72 219.874C182.41 220.172 182.073 220.46 181.804 220.795C181.197 220.409 180.569 220.061 179.942 219.707C178.518 220.986 177.08 222.182 176.022 223.799C174.502 222.981 173.054 222.003 171.569 221.12L163.846 216.607L146.218 206.46C139.412 202.527 132.721 198.386 125.787 194.679C126.234 193.574 129.114 191.234 130.099 190.305Z" fill="#287B8E"/>
<path d="M130.099 190.305C132.643 191.601 135.157 192.95 137.639 194.361C139.488 195.41 144.789 198.864 146.416 199.233C149.4 200.329 152.092 202.312 154.875 203.838C164.081 208.884 173.16 214.207 182.201 219.542L182.72 219.874C182.41 220.172 182.073 220.46 181.804 220.795C181.197 220.409 180.569 220.061 179.942 219.707C178.903 218.901 177.502 218.272 176.354 217.614L168.499 213.107L156.115 205.955C152.816 204.037 149.55 202.064 146.121 200.382C146.255 202.41 146.273 204.429 146.218 206.46C139.412 202.527 132.721 198.386 125.787 194.679C126.234 193.574 129.114 191.234 130.099 190.305Z" fill="#062E4B"/>
<path d="M217.58 148.376C220.031 146.537 222.398 144.586 224.879 142.789C225.658 145.209 226.548 147.589 227.429 149.974C229.102 154.889 230.77 159.804 232.633 164.651C231.27 166.663 229.421 168.771 227.694 170.487L230.918 178.263C231.437 179.516 231.895 180.883 232.532 182.077C235.081 188.022 237.609 193.994 240.354 199.851C242.029 203.423 243.642 207.007 245.233 210.617C245.886 212.098 246.712 213.594 247.231 215.12L247.675 215.825C251.251 223.511 254.965 231.152 258.436 238.885C257.477 240.635 255.523 242.31 254.158 243.789C250.427 247.833 246.534 251.751 242.992 255.962C240.268 255.124 237.498 253.183 235.017 251.759C229.918 248.832 224.873 245.799 219.733 242.946C214.506 239.826 209.164 236.877 203.895 233.824L181.837 220.882L181.805 220.799C182.074 220.463 182.411 220.176 182.721 219.877L182.852 219.899C191.959 224.958 200.917 230.302 209.935 235.518C213.593 237.634 217.211 239.88 220.948 241.848L242.208 254.148C247.183 249.167 251.891 243.842 256.708 238.703C253.931 233.211 251.329 227.662 248.791 222.058C248.064 220.449 246.981 218.723 246.492 217.046C246.132 216.288 245.815 215.514 245.495 214.738C243.814 212.007 242.59 208.413 241.243 205.45C237.878 198.046 234.499 190.641 231.402 183.12C231.043 181.886 230.363 180.615 229.858 179.427C228.787 176.906 227.728 174.383 226.703 171.843C226.245 170.031 225.062 167.876 224.347 166.094C222.852 162.363 221.493 158.572 220.105 154.799C219.561 153.669 218.587 151.661 218.427 150.447C217.946 149.818 217.745 149.139 217.58 148.376Z" fill="#062E4B"/>
<path d="M217.578 148.376C220.029 146.537 222.396 144.586 224.877 142.789C225.657 145.209 226.546 147.589 227.428 149.974C225.293 151.21 223.304 152.691 221.167 153.917C221.365 154.431 221.614 154.962 221.757 155.492L221.656 155.75C221.635 155.707 221.612 155.667 221.593 155.624C220.861 153.923 219.773 152.399 219.021 150.705C218.757 150.109 218.487 148.923 218.024 148.532C217.899 149.063 218.281 149.636 218.377 150.17L218.425 150.448C217.944 149.818 217.743 149.139 217.578 148.376Z" fill="#144058"/>
<path d="M227.428 149.969C229.101 154.884 230.769 159.798 232.632 164.645C231.269 166.657 229.42 168.766 227.693 170.482C225.647 165.515 224.049 160.351 221.757 155.487C221.615 154.956 221.366 154.426 221.168 153.912C223.304 152.686 225.294 151.205 227.428 149.969Z" fill="#287B8E"/>
<path d="M16.0057 103.273C20.5492 102.78 25.0862 102.042 29.6103 101.39L49.2135 98.5699L85.9525 93.3047L86.0036 93.5507C83.8759 95.1762 81.8452 96.9802 79.6777 98.5392C69.5767 99.8006 59.5199 101.377 49.4293 102.69L29.8658 105.263C27.5687 105.577 23.1881 105.848 21.2325 106.686C19.1737 107.568 10.7211 115.092 9.08877 116.896C17.4152 122.095 26.3603 126.48 34.9638 131.216C33.2801 132.3 31.4001 133.378 29.8532 134.638C26.4165 133.023 23.0681 130.884 19.7424 129.024L0 118.027L10.1213 108.691C12.0727 106.885 13.9595 104.968 16.0057 103.273Z" fill="#287B8E"/>
<path d="M246.491 217.039C246.98 218.717 248.063 220.442 248.791 222.051C251.328 227.656 253.93 233.205 256.707 238.696C251.89 243.835 247.182 249.16 242.207 254.141L220.947 241.842C229.099 233.259 237.917 225.2 246.491 217.039Z" fill="#4F9882"/>
<path d="M248.81 234.773C248.965 234.854 249.189 234.951 249.326 235.067C249.686 235.376 249.728 235.466 249.793 235.909C248.572 237.745 246.582 239.44 245.047 241.05C242.852 243.352 240.69 245.914 238.3 248.002C237.986 247.9 237.801 247.838 237.555 247.605C237.321 247.382 237.384 247.311 237.365 247.011C238.345 245.51 239.951 244.123 241.192 242.813L248.81 234.773Z" fill="#062E4B"/>
<path d="M182.852 219.896C183.766 218.669 189.811 214.708 191.401 213.486L218.83 192.496C222.962 189.379 227.048 185.898 231.401 183.117C234.499 190.638 237.878 198.043 241.243 205.447C242.59 208.41 243.814 212.004 245.494 214.735C245.814 215.511 246.132 216.285 246.491 217.043C237.918 225.203 229.099 233.263 220.948 241.845C217.21 239.877 213.593 237.631 209.935 235.515C200.917 230.299 191.958 224.955 182.852 219.896Z" fill="#57BAC5"/>
<path d="M148.754 196.84C150.803 196.109 153.814 193.316 155.545 191.912C171.438 179.016 182.145 165.046 193.729 148.377C196.439 144.478 198.959 140.453 201.708 136.581C212.886 120.835 224.099 105.15 234.653 88.9718C236.428 86.2514 238.192 83.4625 239.779 80.6283C240.763 78.8709 241.66 76.6532 242.849 75.0688C243.033 74.8247 243.269 74.7192 243.538 74.5938C242.992 78.6461 242.149 82.6657 241.548 86.7138C240.869 91.291 240.437 95.9871 239.48 100.512C239.43 100.746 239.37 100.92 239.21 101.102C235.684 105.124 229.751 111.429 227.371 116.058L226.187 117.938C229.794 117.705 232.614 118.59 235.346 120.998L236.333 121.879L236.37 121.975C238.718 124.6 239.515 127.468 239.912 130.911C236.41 133.836 232.847 136.717 229.232 139.499C227.829 140.579 226.381 141.862 224.878 142.788C222.398 144.585 220.03 146.537 217.579 148.375C217.744 149.138 217.946 149.818 218.426 150.447C218.587 151.66 219.56 153.668 220.105 154.799C221.492 158.571 222.851 162.363 224.347 166.093C225.061 167.876 226.244 170.03 226.702 171.842C227.727 174.382 228.786 176.906 229.857 179.426C230.363 180.615 231.043 181.885 231.401 183.119C227.048 185.9 222.962 189.381 218.83 192.498L191.401 213.488C189.811 214.71 183.766 218.671 182.851 219.898L182.721 219.877L182.201 219.545C173.16 214.209 164.081 208.887 154.876 203.841C152.092 202.315 149.4 200.331 146.416 199.235L148.754 196.84Z" fill="#287B8E"/>
<path d="M213.487 151.048C214.422 150.136 216.442 149.155 217.578 148.367C217.743 149.13 217.945 149.81 218.425 150.439C218.586 151.652 219.559 153.66 220.104 154.791C219.177 155.142 218.23 155.964 217.413 156.539C215.587 157.823 210.308 161.775 208.289 161.764C207.994 161.763 208.104 161.788 207.877 161.572C207.935 160.934 212.71 152.267 213.487 151.048Z" fill="#0E4956"/>
<path d="M226.702 171.844C227.727 174.384 228.786 176.908 229.858 179.428C230.363 180.616 231.043 181.887 231.401 183.121C227.048 185.902 222.962 189.383 218.83 192.5L191.401 213.49C189.811 214.712 183.766 218.673 182.851 219.9L182.721 219.878L182.201 219.547C182.739 218.642 186.777 215.285 187.842 214.235C190.94 211.181 193.94 208.038 196.918 204.867C204.08 197.243 210.994 189.369 217.975 181.579C220.866 178.354 223.64 174.899 226.702 171.844Z" fill="#4F9882"/>
<path d="M226.187 117.934C229.793 117.702 232.613 118.587 235.345 120.994L236.332 121.876L236.369 121.972C238.717 124.596 239.514 127.465 239.912 130.908C236.409 133.832 232.847 136.713 229.231 139.496C227.828 140.575 226.38 141.859 224.878 142.785C222.397 144.582 220.03 146.533 217.579 148.372C216.443 149.16 214.422 150.14 213.487 151.052C212.908 151.1 212.357 151.073 211.777 151.036C211.678 148.449 212.912 145.75 213.815 143.365C217.186 134.459 221.582 126.241 226.187 117.934Z" fill="url(#paint0_linear_4410_49949)"/>
<path d="M236.37 121.969C238.717 124.593 239.515 127.462 239.912 130.904C236.409 133.829 232.847 136.71 229.231 139.493C227.829 140.572 226.38 141.856 224.878 142.782C222.397 144.579 220.03 146.53 217.579 148.369C216.443 149.157 214.422 150.137 213.487 151.049C212.908 151.097 212.357 151.07 211.777 151.033C215.165 147.503 218.084 143.461 221.291 139.756L229.214 130.624C231.687 127.795 234.18 125.03 236.37 121.969Z" fill="#B2171E"/>
<path d="M210.276 47.5C210.351 47.9986 210.137 48.1541 209.835 48.5551C207.539 51.6067 204.764 54.4583 202.192 57.2839C196.515 63.5215 190.695 69.5631 184.742 75.5355L156.491 103.947L110.066 149.797C107.123 152.661 104.129 155.486 101.242 158.405C99.2924 160.376 97.4273 162.535 95.3856 164.401C92.8944 162.766 89.7459 161.413 87.5471 159.44C87.3641 159.595 87.3014 159.735 87.0465 159.719C86.7205 159.698 86.4758 159.575 86.1786 159.45L85.8921 159.562C83.8996 158.868 80.7216 156.592 78.7472 155.468L61.37 145.806C59.5676 147.088 57.6442 148.238 55.7222 149.331L29.8523 134.633C31.3992 133.372 33.2792 132.294 34.9629 131.21C26.3594 126.474 17.4143 122.09 9.08789 116.891C10.7202 115.086 19.1727 107.562 21.2316 106.68C23.1873 105.842 27.5678 105.571 29.8649 105.258L49.4284 102.684C59.5191 101.371 69.5758 99.7947 79.6768 98.5333C81.8443 96.9744 83.875 95.1703 86.0027 93.5448L85.9516 93.2988C88.7414 92.6767 91.6346 92.3808 94.4649 91.9785C98.0399 91.4706 101.607 90.9011 105.175 90.3459L120.943 87.9431C125.314 87.2989 129.463 86.6096 133.898 86.5258C136.296 86.5258 139.28 86.791 141.606 86.1882C141.998 86.2048 142.401 86.2422 142.793 86.2235C143.656 85.9845 144.616 85.1732 145.365 84.6701C155.284 78.0056 165.913 69.7986 174.358 61.3563C175.107 60.6071 176.995 59.1057 177.194 58.0956L177.119 57.9274C180.061 56.6198 183.576 55.9741 186.679 55.0648C191.541 53.64 196.379 52.1342 201.205 50.5902C204.238 49.6196 207.326 48.7013 210.276 47.5Z" fill="#57BAC5"/>
<path d="M79.6769 98.5347C94.6251 96.7443 109.578 94.3107 124.44 91.9152C129.768 91.0567 135.106 90.2826 140.449 89.5253C144.222 88.9904 148.081 88.2635 151.899 88.3065C149.331 89.079 146.579 89.4596 143.942 89.9369C140.241 90.6065 136.546 91.3011 132.837 91.9261C119.863 94.1133 106.833 96.0997 93.8183 98.0331L84.5512 99.373C82.5292 99.6521 79.8658 99.6766 78.0006 100.427C72.306 100.891 66.6343 101.777 60.9826 102.601L43.4421 105.031L28.6 107.002C26.5956 107.278 23.9391 107.328 22.0688 108.074C20.1387 108.844 13.5923 114.842 11.627 116.571C17.0963 119.927 22.9406 122.778 28.5615 125.879C30.935 127.188 34.0564 129.368 36.4366 130.329C39.3177 131.823 42.087 133.515 44.9154 135.104L55.3439 140.847C57.5447 142.072 60.3702 143.949 62.6502 144.848L78.6991 153.756C81.6688 155.442 84.9037 157.1 87.537 159.285L87.5471 159.441C87.3641 159.597 87.3014 159.736 87.0465 159.72C86.7205 159.7 86.4758 159.577 86.1786 159.452L85.8921 159.563C83.8996 158.87 80.7216 156.593 78.7472 155.47L61.37 145.808C59.5676 147.089 57.6442 148.24 55.7222 149.333L29.8523 134.634C31.3992 133.374 33.2792 132.296 34.9629 131.212C26.3594 126.475 17.4143 122.091 9.08789 116.892C10.7202 115.087 19.1727 107.564 21.2316 106.681C23.1873 105.843 27.5678 105.573 29.8649 105.259L49.4284 102.686C59.5191 101.372 69.5759 99.7962 79.6769 98.5347Z" fill="#144058"/>
<path d="M34.9643 131.211L53.6967 141.599C56.2331 143.001 58.906 144.291 61.3712 145.807C59.5688 147.089 57.6455 148.239 55.7234 149.332L29.8535 134.633C31.4005 133.373 33.2805 132.295 34.9643 131.211Z" fill="#4F9882"/>
<path d="M11.627 116.574C13.5923 114.845 20.1387 108.847 22.0688 108.077C23.9391 107.331 26.5954 107.281 28.6 107.005L43.4421 105.034L60.9827 102.604C66.6343 101.781 72.306 100.894 78.0006 100.43C77.0888 101.27 76.163 102.1 75.268 102.958L48.4842 121.723C45.6607 123.718 42.8061 125.668 40.0022 127.691C38.8281 128.538 37.5085 129.368 36.4366 130.332C34.0564 129.371 30.935 127.191 28.5615 125.881C22.9405 122.781 17.0962 119.931 11.627 116.574Z" fill="#287B8E"/>
<path d="M210.277 47.5C210.351 47.9986 210.137 48.1541 209.835 48.5551C207.539 51.6067 204.764 54.4583 202.192 57.2839C196.515 63.5215 190.695 69.5631 184.742 75.5355L156.491 103.947L110.066 149.797C107.123 152.661 104.129 155.486 101.242 158.405C99.2924 160.376 97.4273 162.535 95.3856 164.401C92.8944 162.766 89.7459 161.413 87.5472 159.44L87.5371 159.283C89.0873 158.431 91.9988 155.581 93.5781 154.23C101.986 147.04 110.089 139.453 118.265 131.999L208.168 49.2995C201.858 53.3903 195.344 57.1057 189.081 61.2964C179.915 67.4302 170.755 73.4854 161.464 79.4258C158.62 81.2441 153.837 84.8504 150.877 85.9437C148.611 86.7805 145.218 86.224 142.793 86.2234C143.656 85.9844 144.616 85.1731 145.365 84.67C155.284 78.0056 165.913 69.7985 174.358 61.3562C175.107 60.6071 176.995 59.1057 177.194 58.0955L177.119 57.9273C180.061 56.6197 183.576 55.974 186.679 55.0647C191.541 53.64 196.379 52.1341 201.205 50.5901C204.238 49.6196 207.326 48.7013 210.277 47.5Z" fill="url(#paint1_linear_4410_49949)"/>
<path d="M75.2688 102.959C82.4942 102.275 89.7106 101.096 96.9179 100.209C111.722 98.3858 126.617 96.5986 141.329 94.1562C120.191 107.835 99.2206 121.772 77.8625 135.105C72.7635 138.288 67.8365 141.82 62.6511 144.852C60.3711 143.953 57.5456 142.076 55.3448 140.851L44.9162 135.108C42.0879 133.519 39.3186 131.827 36.4375 130.333C37.5095 129.369 38.829 128.539 40.0031 127.692C42.807 125.669 45.6616 123.719 48.4851 121.724L75.2688 102.959Z" fill="#4F9882"/>
<path d="M232.744 29.1016C238.238 29.5718 243.368 32.8499 247.184 36.6633L247.193 36.7451C244.905 38.8682 242.504 40.8902 240.043 42.81C240.451 43.4761 240.998 44.0316 241.52 44.6085C242.502 45.8551 243.35 47.1556 244.198 48.493L244.306 48.5739C245.933 51.575 247.411 54.8958 247.518 58.3671C246.909 58.9779 246.307 59.4459 246.132 60.3319L244.388 69.8441C244.109 71.379 244.003 73.1223 243.539 74.5922C243.269 74.7177 243.033 74.8231 242.85 75.0672C241.66 76.6517 240.764 78.8693 239.78 80.6268C238.193 83.461 236.429 86.2499 234.654 88.9703C224.1 105.148 212.886 120.833 201.709 136.579C198.96 140.452 196.439 144.477 193.73 148.376C182.145 165.044 171.439 179.015 155.546 191.91C153.815 193.315 150.803 196.107 148.755 196.838L146.417 199.234C144.791 198.865 139.489 195.411 137.641 194.361C135.158 192.951 132.644 191.602 130.1 190.306C129.115 191.235 126.235 193.574 125.788 194.68C125.331 194.87 125.031 195.118 124.658 195.441C120.885 198.707 117.297 202.219 113.613 205.589C111.896 207.16 108.439 209.867 107.211 211.601C105.851 215.316 104.522 219.042 103.097 222.733C101.028 223.877 99.0616 225.8 97.1884 227.277C92.4603 231.006 87.7418 234.749 83.1071 238.593C82.1371 239.38 81.1686 240.275 80.1203 240.951L79.0959 233.821L78.921 233.65C76.4343 235.158 74.0774 237.257 71.7327 239.011L54.9941 251.586C50.5829 254.878 45.9974 257.978 41.5023 261.157L19.5532 276.677C15.0317 279.844 10.504 283.064 5.79011 285.94C4.46533 286.748 3.05921 287.722 1.60938 288.276C6.98681 282.191 13.0213 276.543 18.7609 270.794L53.0955 236.601C50.3754 233.326 46.7508 230.321 42.4729 229.48C42.2329 229.433 42.0577 229.401 41.8303 229.299C41.7806 229.277 41.734 229.248 41.6858 229.222L41.0249 229.158C42.3154 227.546 43.4171 225.759 44.629 224.084C45.8261 222.429 53.1414 213.158 53.1766 211.808C53.8269 211.45 58.9505 204.533 60.1133 203.181C62.2038 201.02 63.9406 198.357 65.873 196.03C67.6815 193.853 69.7141 191.9 71.5773 189.775C72.8807 188.41 74.3207 187 75.4226 185.468C75.4362 185.462 75.4498 185.456 75.464 185.45C77.4452 184.68 88.8484 171.618 90.7329 169.16C92.3613 167.698 93.8581 165.975 95.3874 164.404C97.4291 162.539 99.2942 160.38 101.243 158.409C104.13 155.49 107.125 152.665 110.068 149.801L156.493 103.951L184.744 75.5393C190.697 69.5669 196.517 63.5252 202.194 57.2877C204.765 54.4622 207.541 51.6105 209.837 48.5589C210.139 48.158 210.353 48.0024 210.278 47.5038C211.733 46.3629 213.093 45.0146 214.483 43.7897C216.804 41.7442 219.169 39.7591 221.584 37.8264C222.733 36.9068 223.917 35.8342 225.187 35.0915C227.76 33.1911 230.1 30.88 232.744 29.1016Z" fill="#7FB3BE"/>
<path d="M79.9316 202.192C81.8372 200.183 84.1693 198.405 86.1925 196.489C90.0291 192.858 93.7358 189.018 97.7209 185.555C98.8436 188.661 98.1147 191.721 96.7408 194.619C94.1303 200.124 90.1704 204.32 85.9106 208.54C85.2725 209.172 84.2491 210.452 83.4576 210.831C83.3962 210.86 83.3269 210.87 83.2616 210.89C83.2622 207.525 81.9151 204.843 79.9316 202.192Z" fill="#0A101B"/>
<path d="M79.0957 233.821C79.3385 233.378 105.723 212.234 107.21 211.602C105.851 215.317 104.522 219.043 103.097 222.733C101.027 223.878 99.0614 225.801 97.1882 227.278C92.46 231.006 87.7415 234.75 83.1069 238.594C82.1368 239.381 81.1684 240.276 80.1201 240.952L79.0957 233.821Z" fill="#144058"/>
<path d="M80.0136 187.556C84.4949 185.34 88.9159 182.241 94.2083 183.288C95.6654 183.576 96.8925 184.313 97.7225 185.553C93.7375 189.016 90.0308 192.857 86.1942 196.488C84.1709 198.403 81.8388 200.181 79.9333 202.19C78.8944 201.058 77.8234 200.151 76.5426 199.302L74.2939 198.246C72.7719 197.55 71.1344 197.071 69.5299 196.604L69.5156 196.467C72.0454 193.349 76.6577 189.838 80.0136 187.556Z" fill="#0E4956"/>
<path d="M74.293 198.248C75.2527 194.328 79.0706 190.713 82.4386 188.668C83.9358 187.758 87.5153 185.986 89.3216 186.344C89.4729 186.374 89.5285 186.402 89.6834 186.459C89.8499 186.752 89.88 186.802 89.781 187.148C89.0173 189.822 79.0669 197.418 76.5415 199.304L74.293 198.248Z" fill="#3E8F95"/>
<path d="M69.5298 196.602C71.1343 197.068 72.7718 197.547 74.2939 198.244L76.5425 199.3C77.8234 200.149 78.8943 201.056 79.9332 202.188C81.9167 204.839 83.2638 207.521 83.2632 210.886C83.0414 211.216 83.0647 211.33 82.6666 211.442C82.0788 212.28 81.1825 213.001 80.4196 213.688C75.7345 217.906 69.6066 221.221 63.5171 222.792C61.295 223.263 59.3494 223.321 57.2107 222.464C56.7131 222.004 56.3926 221.589 56.1717 220.939C55.1344 217.889 56.8508 213.603 58.1995 210.89C60.3961 206.472 63.5992 202.503 67.0065 198.961C67.5054 198.442 68.2323 197.5 68.8984 197.277C69.1372 197.067 69.3222 196.843 69.5298 196.602Z" fill="#0E4956"/>
<path d="M72.9745 198.688C73.9462 199.16 74.9392 199.608 75.8643 200.168C74.8917 200.713 73.4414 201.697 72.2929 201.525C72.0565 201.489 72.0151 201.359 71.8715 201.19C71.767 200.279 72.4888 199.403 72.9745 198.688Z" fill="#3E8F95"/>
<path d="M69.5298 196.602C71.1343 197.068 72.7718 197.547 74.2939 198.244L76.5425 199.3C77.8234 200.149 78.8943 201.056 79.9332 202.188C81.9167 204.839 83.2638 207.521 83.2632 210.886C83.0414 211.216 83.0647 211.33 82.6666 211.442C82.2175 208.091 81.1022 205.291 78.9639 202.665C78.0048 201.722 77.0118 200.869 75.8649 200.163C74.9397 199.603 73.9467 199.155 72.975 198.682C71.6709 198.091 70.2578 197.724 68.8984 197.276C69.1372 197.067 69.3222 196.843 69.5298 196.602Z" fill="white"/>
<path d="M57.209 222.472C58.6398 220.79 62.6288 217.771 64.4629 216.101L74.0417 207.221C75.6689 205.701 77.2442 204.087 78.9622 202.672C81.1006 205.298 82.2158 208.098 82.665 211.449C82.0771 212.288 81.1808 213.009 80.418 213.695C75.7328 217.914 69.6049 221.229 63.5154 222.8C61.2934 223.271 59.3477 223.328 57.209 222.472Z" fill="#0A101B"/>
<path d="M244.523 61.8487C244.948 61.2592 245.347 60.5801 245.938 60.1484L246.132 60.3292L244.387 69.8414C244.108 71.3764 244.003 73.1196 243.538 74.5896C243.269 74.715 243.033 74.8205 242.849 75.0646C241.66 76.649 240.764 78.8666 239.78 80.6241C238.192 83.4583 236.429 86.2472 234.654 88.9676C224.1 105.146 212.886 120.831 201.709 136.577C198.96 140.449 196.439 144.474 193.729 148.373C182.145 165.041 171.439 179.012 155.545 191.908C153.815 193.312 150.803 196.105 148.754 196.835L146.417 199.231C144.79 198.863 139.489 195.409 137.64 194.359C135.158 192.949 132.644 191.599 130.1 190.303C141.081 179.938 151.779 169.204 162.346 158.416C171.548 149.022 180.728 139.603 189.35 129.667C195.106 123.035 200.612 116.223 206.196 109.451C211.116 103.485 216.112 97.5854 220.924 91.5312C228.789 81.6362 236.457 71.5827 244.523 61.8487Z" fill="#144058"/>
<path d="M244.523 61.8487C244.947 61.2592 245.346 60.5801 245.937 60.1484L246.131 60.3292L244.387 69.8414C244.108 71.3764 244.002 73.1196 243.538 74.5896C243.268 74.715 243.032 74.8205 242.849 75.0646C241.659 76.649 240.763 78.8666 239.779 80.6241C238.192 83.4583 236.428 86.2472 234.653 88.9676C224.099 105.146 212.885 120.831 201.708 136.577C198.959 140.449 196.438 144.474 193.729 148.373C182.144 165.041 171.438 179.012 155.545 191.908C153.814 193.312 150.802 196.105 148.754 196.835C149.706 194.741 155.637 188.053 157.438 185.798C160.708 181.702 163.817 177.462 166.995 173.293L209.715 116.401C215.856 108.1 222.029 99.8562 227.972 91.4076C234.043 82.7774 240.108 73.9906 244.02 64.1249C244.303 63.4108 244.836 62.5743 244.523 61.8487Z" fill="#1D6171"/>
<path d="M232.742 29.1016C238.236 29.5718 243.367 32.8499 247.182 36.6633L247.191 36.7451C244.903 38.8682 242.503 40.8902 240.042 42.81C240.449 43.4761 240.997 44.0316 241.519 44.6085C242.5 45.8551 243.348 47.1556 244.196 48.493C241.431 51.7486 238.43 54.8196 235.596 58.0188L212.045 84.5027L141.257 162.353L109.646 196.19C107.262 198.717 104.918 201.278 102.588 203.854C100.9 205.721 99.2472 207.743 97.3248 209.37C95.6683 210.771 93.7634 211.935 91.9212 213.075C88.2961 215.321 84.5515 217.423 80.8129 219.473C78.7697 220.594 76.6613 221.62 74.6928 222.869C77.2285 220.63 79.9134 218.559 82.411 216.278C85.1857 213.744 87.7609 210.998 90.5253 208.456C92.1172 206.992 94.6817 205.228 95.8713 203.478C95.685 202.699 96.9119 201.294 97.3746 200.573C99.4515 197.338 101.347 193.283 101.77 189.422C102.034 187.002 101.584 184.639 100.041 182.698C96.3492 179.993 91.7987 179.719 87.4841 180.921C86.4089 181.22 85.2144 181.927 84.1315 182.066C84.0523 182.076 83.9724 182.083 83.8929 182.092C83.8496 182.179 83.8013 182.264 83.7626 182.353C83.7357 182.414 83.7251 182.482 83.6966 182.543C82.9947 184.054 77.6427 187.136 75.9567 190.007C77.0293 189.359 78.7273 188.209 79.6705 187.408C79.9838 187.515 79.8887 187.435 80.0119 187.557C76.6561 189.839 72.0438 193.35 69.5142 196.468L69.5284 196.605C69.3208 196.846 69.1358 197.07 68.8969 197.28C68.2308 197.503 67.5039 198.445 67.0049 198.964C63.5977 202.507 60.3946 206.476 58.198 210.894C56.8492 213.607 55.1328 217.892 56.1702 220.943C56.3911 221.592 56.7115 222.008 57.2091 222.468C59.3478 223.324 61.2935 223.267 63.5156 222.796C62.6082 226.581 56.2387 233.215 53.5674 236.399C50.7859 233.349 46.2395 229.269 41.8945 229.02L41.6843 229.222L41.0234 229.158C42.3139 227.546 43.4157 225.759 44.6276 224.083C45.8246 222.429 53.1399 213.157 53.1752 211.808C53.8254 211.45 58.949 204.533 60.1118 203.181C62.2023 201.02 63.9391 198.357 65.8715 196.03C67.68 193.853 69.7126 191.9 71.5758 189.775C72.8793 188.41 74.3192 187 75.4212 185.468C75.4347 185.462 75.4483 185.455 75.4625 185.45C77.4437 184.68 88.847 171.618 90.7314 169.16C92.3598 167.698 93.8567 165.974 95.3859 164.404C97.4276 162.538 99.2927 160.38 101.242 158.409C104.129 155.49 107.123 152.664 110.066 149.8L156.491 103.951L184.743 75.5391C190.696 69.5667 196.516 63.5251 202.193 57.2875C204.764 54.462 207.54 51.6104 209.836 48.5588C210.138 48.1578 210.351 48.0023 210.277 47.5036C211.732 46.3628 213.092 45.0144 214.482 43.7896C216.802 41.744 219.167 39.759 221.582 37.8263C222.732 36.9066 223.916 35.834 225.186 35.0913C227.758 33.1911 230.099 30.88 232.742 29.1016Z" fill="#BFDEE6"/>
<path d="M211.531 70.9822C211.839 71.2351 212.111 71.5281 212.523 71.5717C217.521 66.2803 222.71 61.1674 227.851 56.0156C227.779 56.5789 227.755 56.6666 227.408 57.0979C225.873 59.0034 223.872 60.746 222.145 62.4944C218.63 66.0507 215.188 69.6092 211.475 72.9573C211.104 73.2913 210.637 73.9163 210.222 74.1566C210.127 74.2112 210.017 74.2303 209.914 74.2672L209.434 73.6522C209.759 73.5465 210.062 73.3919 210.338 73.1888C211.141 72.5974 211.381 71.94 211.531 70.9822Z" fill="#A9EEF1"/>
<path d="M134.259 148.344C134.938 148.737 135.466 149.21 136.035 149.741L136.226 150.117C136.031 150.583 135.69 150.865 135.331 151.205C133.213 153.666 130.977 156.03 128.803 158.441C126.928 160.518 125.105 162.684 123.12 164.652C122.774 164.614 122.749 164.47 122.536 164.209C122.402 164.045 122.45 164.112 122.344 163.934C124.866 162.183 132.838 152.761 134.995 150.075C134.633 149.484 134.349 149.038 134.259 148.344Z" fill="#196F93"/>
<path d="M239.942 42.7734L240.043 42.809C240.45 43.4752 240.998 44.0307 241.52 44.6075C238.945 46.0726 233.792 50.6142 231.413 52.7477L229.986 51.7275C231.602 50.4108 239.236 43.9718 239.942 42.7734Z" fill="#7FB3BE"/>
<path d="M134.098 148.289L134.259 148.339C134.349 149.033 134.634 149.48 134.996 150.07C132.838 152.757 124.866 162.179 122.344 163.929C121.797 163.198 121.2 162.636 120.5 162.059C122.171 160.188 124.061 158.481 125.846 156.716C128.643 153.95 131.389 151.141 134.098 148.289Z" fill="#E64234"/>
<path d="M192.046 89.2344L192.334 89.3605L193.29 90.6262C188.299 96.1746 183.036 101.563 177.86 106.942C177.577 106.726 177.306 106.509 177.042 106.27C176.755 105.975 176.382 105.818 176.021 105.624C181.255 100.063 186.664 94.6512 192.046 89.2344Z" fill="#E64234"/>
<path d="M210.592 70.386L221.532 59.182C223.377 57.2942 225.212 55.1474 227.247 53.4705C227.501 53.454 227.535 53.4182 227.768 53.5468C228.175 53.9701 228.492 54.1932 228.648 54.7662C228.424 55.2266 228.159 55.606 227.851 56.0144C222.709 61.1661 217.521 66.2791 212.523 71.5705C212.11 71.5268 211.838 71.2339 211.531 70.981L210.592 70.386Z" fill="#E64234"/>
<path d="M135.171 143.278C137.075 141.094 139.335 139.124 141.408 137.099C145.176 133.417 148.923 129.691 152.583 125.901L212.16 65.3555C213.799 63.6727 226.746 49.9702 227.519 49.7969L227.844 50.0274C224.936 53.5426 221.378 56.7668 218.179 60.0347L195.308 83.0755C175.514 103.162 156.061 123.611 136.031 143.463C131.84 147.38 127.781 151.469 123.7 155.502C121.981 157.201 120.324 159.009 118.526 160.621L118.42 160.214C118.924 158.975 133.751 144.462 135.171 143.278Z" fill="#7FB3BE"/>
<path d="M232.742 29.1016C238.236 29.5718 243.367 32.8499 247.182 36.6633L247.191 36.7451C244.903 38.8682 242.502 40.8902 240.042 42.81L239.941 42.7744C235.949 38.5688 230.904 35.9221 225.186 35.0915C227.758 33.1911 230.099 30.88 232.742 29.1016Z" fill="#287B8E"/>
<path d="M83.8926 182.091C88.8057 176.389 94.2762 171.062 99.5337 165.673C101.782 163.367 105.071 159.576 107.466 157.734C111.545 158.108 114.542 159.463 117.84 161.816C118.412 162.299 119.039 162.752 119.416 163.412C118.189 164.128 116.923 165.807 115.9 166.831L106.507 176.34C104.389 178.496 102.159 180.542 100.041 182.697C96.3489 179.992 91.7984 179.717 87.4838 180.919C86.4086 181.219 85.2141 181.926 84.1312 182.064C84.052 182.074 83.9721 182.082 83.8926 182.091Z" fill="#2ED7E5"/>
<path d="M119.415 163.414L119.811 163.613C122.761 167.371 124.875 170.848 125.405 175.712C115.565 184.901 105.4 193.98 95.8707 203.478C95.6844 202.699 96.9112 201.294 97.3739 200.574C99.4509 197.338 101.346 193.283 101.769 189.423C102.034 187.002 101.584 184.64 100.04 182.698C102.159 180.544 104.389 178.498 106.507 176.342L115.9 166.833C116.923 165.808 118.188 164.129 119.415 163.414Z" fill="#57BAC5"/>
<path d="M227.844 50.0234C228.645 50.4374 229.253 51.1099 229.886 51.7379C229.211 52.414 228.585 53.0397 227.767 53.5454C227.535 53.4167 227.501 53.4527 227.247 53.4692C225.212 55.1461 223.377 57.2928 221.531 59.1806L210.592 70.3846L211.53 70.9796C211.381 71.9374 211.14 72.5948 210.337 73.1862C210.061 73.3893 209.758 73.5438 209.433 73.6496L209.913 74.2646C208.199 75.5846 196.314 88.1764 195.901 88.2822C195.828 88.3009 195.75 88.2702 195.675 88.2644L194.858 87.5268C194.893 88.0937 194.995 88.6453 194.726 89.1675C193.985 89.6076 193.162 89.3069 192.333 89.3593L192.046 89.2331C186.663 94.65 181.254 100.062 176.021 105.623C176.381 105.817 176.754 105.973 177.041 106.268C177.019 106.331 176.993 106.394 176.973 106.458C176.871 106.787 176.907 106.668 176.885 107.02C176.865 107.33 176.784 107.933 176.528 108.137C176.091 108.487 175.353 108.429 174.827 108.402L175.277 109.032C174.936 110.062 165.302 119.504 163.67 121.144C162.523 122.296 160.546 123.834 159.903 125.299C159.707 126.144 158.402 127.169 157.73 127.728L157.384 127.656C155.688 129.044 154.164 130.843 152.625 132.415L143.136 142.18C141.926 143.428 139.341 145.603 138.503 146.926C138.017 147.952 136.828 148.914 136.035 149.737C135.465 149.207 134.937 148.734 134.258 148.341L134.097 148.29C131.388 151.143 128.641 153.951 125.845 156.717C124.06 158.483 122.17 160.19 120.499 162.061C120.173 162.496 120.06 162.769 119.94 163.298C119.89 163.517 119.927 163.427 119.811 163.608L119.416 163.409C119.039 162.749 118.413 162.296 117.84 161.813C117.908 161.36 118.181 160.906 118.527 160.617C120.324 159.005 121.982 157.197 123.7 155.498C127.781 151.465 131.84 147.376 136.031 143.459C156.061 123.607 175.514 103.158 195.308 83.0716L218.179 60.0308C221.378 56.7629 224.936 53.5387 227.844 50.0234Z" fill="white"/>
<path d="M158.197 123.812L159.905 125.306C159.708 126.151 158.403 127.176 157.732 127.736L157.385 127.664C157.048 127.079 156.549 126.688 156.049 126.248C156.699 126.113 157.38 126.051 157.907 125.622C158.237 125.063 158.183 124.442 158.197 123.812Z" fill="#A9EEF1"/>
<path d="M208.193 72.6875L209.434 73.6541L209.914 74.2691C208.2 75.589 196.314 88.1809 195.901 88.2866C195.828 88.3054 195.751 88.2746 195.676 88.2688L194.859 87.5313L194.227 86.9715C195.967 85.4618 197.538 83.6387 199.143 81.9818L208.193 72.6875Z" fill="#E64234"/>
<path d="M158.195 123.808C160.055 121.827 172.809 108.532 173.899 108.066C174.136 107.965 174.595 108.291 174.827 108.405L175.277 109.034C174.936 110.064 165.303 119.506 163.671 121.146C162.524 122.298 160.547 123.836 159.903 125.302L158.195 123.808Z" fill="#E64234"/>
<path d="M156.048 126.242C156.547 126.683 157.047 127.074 157.384 127.658C155.688 129.046 154.164 130.845 152.626 132.417L143.137 142.182C141.927 143.43 139.341 145.605 138.504 146.928C137.866 146.432 137.364 145.885 136.838 145.28C138.679 143.943 140.392 141.871 142.005 140.249C146.64 135.59 151.126 130.597 156.048 126.242Z" fill="#E64234"/>
<defs>
<linearGradient id="paint0_linear_4410_49949" x1="226.667" y1="137.662" x2="217.912" y2="132.57" gradientUnits="userSpaceOnUse">
<stop stop-color="#D62C27"/>
<stop offset="1" stop-color="#F06B52"/>
</linearGradient>
<linearGradient id="paint1_linear_4410_49949" x1="138.182" y1="90.6515" x2="156.567" y2="112.615" gradientUnits="userSpaceOnUse">
<stop stop-color="#0A748D"/>
<stop offset="1" stop-color="#1496AF"/>
</linearGradient>
</defs>
</svg>
