<svg width="269" height="233" viewBox="0 0 269 233" fill="none" xmlns="http://www.w3.org/2000/svg">
<path d="M34.7148 52.4219L50.6988 213.466C50.6988 222.251 91.9238 229.373 142.778 229.373C193.632 229.373 234.857 222.251 234.857 213.466L250.859 52.4219H34.7148Z" fill="#FEE746"/>
<path opacity="0.5" d="M185.35 83.4141C176.388 83.4141 169.124 90.6781 169.124 99.6401C169.124 102.211 169.738 104.633 170.802 106.794C153.372 124.586 131.997 140.102 111.414 149.627C93.3322 157.997 68.1742 165.329 44.6582 157.539C44.9482 160.725 45.3282 163.904 45.7242 167.084C52.3022 168.873 59.0422 169.726 65.8692 169.726C106.125 169.722 149.113 141.106 176.658 113.327C179.172 114.927 182.148 115.867 185.35 115.867C194.311 115.867 201.576 108.603 201.576 99.6411C201.576 90.6781 194.311 83.4141 185.35 83.4141Z" fill="#9559A4"/>
<path d="M83.9618 209.56C83.9618 209.56 81.8328 183.311 77.5748 75.4459C178.499 84.1999 229.327 72.0349 249.638 64.6969L250.858 52.4219H34.7148L50.6988 213.466C50.6988 222.251 91.9238 229.373 142.778 229.373C193.632 229.373 234.857 222.251 234.857 213.466L236.149 200.465C180.235 226.347 83.9618 209.56 83.9618 209.56Z" fill="#FEC246"/>
<path d="M250.062 60.4429L250.859 52.4219H34.7148L35.5858 61.1999C58.8448 66.9529 135.84 81.6669 250.062 60.4429Z" fill="#FEC246"/>
<path d="M206.584 24.5914C188.013 22.6214 166.166 21.4844 142.777 21.4844C119.388 21.4844 97.5409 22.6214 78.9699 24.5914H20.6309V42.5864C20.6309 54.2404 75.3179 63.6884 142.777 63.6884C210.236 63.6884 264.923 54.2414 264.923 42.5864V24.5914H206.584Z" fill="#FEAC46"/>
<path d="M142.777 45.6962C210.236 45.6962 264.923 36.2485 264.923 24.5942C264.923 12.9399 210.236 3.49219 142.777 3.49219C75.3175 3.49219 20.6309 12.9399 20.6309 24.5942C20.6309 36.2485 75.3175 45.6962 142.777 45.6962Z" fill="#FEE746"/>
<path d="M183.31 111.444C192.271 111.444 199.536 104.18 199.536 95.2182C199.536 86.2568 192.271 78.9922 183.31 78.9922C174.349 78.9922 167.084 86.2568 167.084 95.2182C167.084 104.18 174.349 111.444 183.31 111.444Z" fill="#FEE746"/>
<path d="M194.464 97.8667C195.917 91.7098 192.105 85.5402 185.948 84.0863C179.791 82.6325 173.621 86.4451 172.168 92.602C170.714 98.7589 174.526 104.929 180.683 106.382C186.84 107.836 193.01 104.024 194.464 97.8667Z" fill="#FEB746"/>
<path d="M185.533 90.1634C183.669 88.6044 180.898 88.8584 179.341 90.7204C160.503 113.282 134.349 133.65 109.376 145.206C88.3278 154.948 57.6868 163.346 31.2168 148.045C21.3168 142.322 15.5458 134.635 13.5728 124.547C8.82177 100.252 27.9658 69.7004 35.3718 59.0224C35.0438 56.6474 34.9838 54.8034 34.7148 52.4234C33.3518 52.0294 31.8268 51.4544 30.3838 50.8594C25.0958 57.9724 -1.11823 95.1824 4.93477 126.216C7.38777 138.778 14.7488 148.685 26.8128 155.66C38.4878 162.408 51.0148 165.306 63.8298 165.305C110.225 165.301 160.265 127.289 186.091 96.3584C187.649 94.4924 187.4 91.7194 185.533 90.1634Z" fill="#999999"/>
<path d="M12.9151 114.168C13.9321 92.1737 28.9911 68.2247 35.3721 59.0237C35.1931 57.7267 35.0941 56.5847 34.9971 55.4297C28.0071 65.5957 12.0191 91.5047 12.9151 114.168Z" fill="#999999"/>
<path d="M186.091 92.2176C160.265 123.15 110.226 161.161 63.83 161.165C51.016 161.166 38.488 158.268 26.813 151.52C14.75 144.545 7.39 134.638 4.936 122.076C4.433 119.496 4.171 116.871 4.083 114.226C3.924 118.274 4.171 122.298 4.936 126.221C7.39 138.783 14.75 148.69 26.814 155.665C38.489 162.413 51.016 165.311 63.831 165.31C110.226 165.306 160.266 127.294 186.092 96.3626C187.274 94.9466 187.41 93.0096 186.593 91.4766C186.453 91.7356 186.286 91.9836 186.091 92.2176Z" fill="#999999"/>
<path d="M235.689 33.0018C243.331 30.4878 247.677 27.6278 247.677 24.5907C247.677 14.5817 200.713 6.46875 142.779 6.46875C84.8449 6.46875 37.8809 14.5817 37.8809 24.5907C37.8809 27.6278 42.2269 30.4878 49.8689 33.0018C67.4129 27.2298 102.424 23.2908 142.78 23.2908C183.133 23.2908 218.144 27.2298 235.689 33.0018Z" fill="#FEAC46"/>
<path d="M235.689 33.0001C218.145 27.2281 183.134 23.2891 142.778 23.2891C102.423 23.2891 67.4122 27.2281 49.8672 33.0001C67.4112 38.7721 102.422 42.7111 142.778 42.7111C183.133 42.7111 218.144 38.7721 235.689 33.0001Z" fill="#75D0F2"/>
<path d="M245.591 72.3421C242.6 98.1541 239.86 123.984 237.277 149.842C236.926 153.358 236.574 156.875 236.223 160.391C235.852 164.099 235.285 167.853 235.235 171.582C235.21 173.439 237.188 171.106 237.333 170.277C238.436 163.935 238.701 157.368 239.315 150.962C239.929 144.557 240.545 138.151 241.141 131.744C242.332 118.956 243.549 106.17 244.683 93.3771C245.317 86.2171 245.756 79.0491 246.326 71.8851C246.375 71.2681 245.629 72.0151 245.591 72.3421Z" fill="white"/>
<path d="M235.661 176.29C235.641 175.774 235.624 175.278 235.503 174.774C235.44 174.513 235.228 174.498 235.019 174.624C234.742 174.791 234.517 175.128 234.436 175.438C234.145 176.559 234 177.733 233.879 178.885C233.823 179.416 233.781 179.948 233.732 180.48C233.679 181.059 233.591 181.646 233.675 182.226C233.743 182.69 234.187 182.702 234.517 182.488C234.687 182.377 234.839 182.204 234.988 182.034C234.96 182.097 235.002 182.05 235.079 181.946C235.125 181.888 235.161 181.837 235.202 181.775C235.215 181.757 235.217 181.755 235.231 181.735C235.363 181.527 235.464 181.305 235.534 181.069C235.581 180.88 235.617 180.683 235.648 180.491C235.694 180.204 235.686 179.913 235.689 179.624C235.695 179.079 235.7 178.534 235.706 177.99C235.71 177.422 235.683 176.857 235.661 176.29Z" fill="white"/>
<path d="M142.777 23.2969C102.422 23.2969 67.4112 27.2359 49.8672 33.0079C67.4112 38.7799 102.422 42.7189 142.777 42.7189C183.132 42.7189 218.144 38.7799 235.688 33.0079C218.143 27.2359 183.132 23.2969 142.777 23.2969ZM144.3 39.2899C108.739 39.2899 67.5052 34.8789 67.5052 31.8999C67.5052 28.9209 108.74 25.0019 144.3 25.0019C179.86 25.0019 219.243 28.9199 219.243 31.8999C219.243 34.8799 179.861 39.2899 144.3 39.2899Z" fill="#75D0F2"/>
<path d="M27.1953 59.0923C16.7273 74.8013 9.00125 93.3443 7.18325 112.26C7.05525 113.587 8.61225 111.921 8.72925 111.298C10.4403 102.181 12.5163 93.2173 15.6123 84.4613C18.7033 75.7213 22.6903 67.2083 27.4423 59.2473C27.6243 58.9413 27.3933 58.7943 27.1953 59.0923Z" fill="white"/>
<path d="M8.64779 116.184C8.63379 115.718 8.62079 115.252 8.60779 114.787C8.60479 114.687 8.51679 114.578 8.41179 114.578C8.29879 114.577 8.20079 114.636 8.11479 114.702C7.87879 114.882 7.63779 115.225 7.62879 115.533C7.61479 116.019 7.60179 116.506 7.58779 116.992C7.57379 117.497 7.53479 118.001 7.60579 118.502C7.64879 118.803 7.94679 118.724 8.12179 118.591C8.38679 118.39 8.59179 118.054 8.63079 117.721C8.66379 117.439 8.67579 117.167 8.66679 116.883C8.66079 116.65 8.65479 116.417 8.64779 116.184Z" fill="white"/>
</svg>
