<svg width="364" height="364" viewBox="0 0 364 364" fill="none" xmlns="http://www.w3.org/2000/svg">
<path d="M132.978 46.0609C155.43 45.4212 192.637 49.8119 212.366 59.6872C218.068 62.5415 222.96 66.23 225.03 72.4524C233.885 68.0166 243.352 64.6967 253.419 65.5189C264.019 66.3847 272.552 71.7866 279.269 79.7655C295.585 99.1476 301.816 130.405 299.688 155.12C296.998 186.348 284.261 216.157 263.106 239.381C257.606 245.419 251.512 250.8 245.27 256.048C240.92 272.782 234.529 285.559 221.454 297.145C221.288 298.815 220.744 300.541 219.912 301.999C216.333 308.277 207.374 310.874 200.854 312.639C185.863 316.272 170.607 317.192 155.235 317.105C142.287 317.031 112.757 314.914 103.399 305.327C100.889 302.755 100.399 300.334 100.444 296.839C99.9329 296.434 99.4266 296.023 98.9367 295.593C96.457 293.412 94.2284 290.978 92.0992 288.459C81.2427 275.612 75.3533 259.863 73.2633 243.282C72.4652 236.948 72.3683 230.539 72.535 224.163C73.2401 197.189 79.7643 168.768 89.663 143.722C92.0682 137.636 94.5919 131.512 97.6714 125.73C99.3831 122.516 101.905 119.587 103.171 116.181C104.047 113.825 104.363 111.246 104.188 108.744C103.159 94.0371 88.3844 82.4202 77.1619 74.7118L70.6502 70.3037C69.1593 69.3065 67.5547 68.3628 66.2072 67.1766C64.544 65.7132 63.1115 63.7114 63.006 61.4287C62.9352 59.891 63.4923 58.4946 64.5615 57.3972C65.8061 56.1197 67.4886 55.3432 69.1407 54.7399C72.576 53.4859 76.2609 52.8558 79.8343 52.1215C92.1939 49.582 104.87 47.9387 117.442 46.8821C122.618 46.4468 127.786 46.1996 132.978 46.0609Z" fill="#032734"/>
<path d="M220.59 90.8151C221.221 90.9969 223.116 89.7557 223.77 89.4188C227.665 87.412 231.85 85.6975 236.163 84.8411C239.546 84.1696 243.25 84.157 246.647 84.7483C248.102 85.0016 253.357 86.2785 254.124 87.3791C245.698 84.8936 238.987 87.2446 231.51 91.3209C229.07 92.6514 226.638 94.0423 224.295 95.5386C222.42 96.7363 220.585 98.0652 218.66 99.1769C219.117 96.3892 219.727 93.5052 220.59 90.8151Z" fill="#D89408"/>
<path d="M197.656 294.983C206.282 293.137 214.63 291.034 222.828 287.727C220.557 290.202 217.998 292.07 215.378 294.128C215.424 296.539 215.605 298.316 213.788 300.198C211.757 302.3 208.885 303.561 206.208 304.614C192.704 309.923 173.642 311.085 159.082 311.229C154.548 311.274 149.992 310.992 145.467 310.698C143.788 310.589 141.864 310.63 140.236 310.258C138.294 310.313 136.106 309.847 134.176 309.589C134.546 309.458 134.904 309.363 135.298 309.335C137.257 309.197 139.355 309.406 141.324 309.446C143.682 309.493 146.038 309.415 148.395 309.404C160.427 309.057 174.143 308.22 185.522 304.025C190.003 302.373 195.545 299.561 197.656 294.983Z" fill="#D89408"/>
<path d="M134.176 309.598C134.546 309.466 134.904 309.371 135.298 309.344C137.257 309.205 139.355 309.414 141.324 309.454C143.682 309.502 146.038 309.423 148.395 309.412C145.265 310.201 141.814 309.311 138.62 309.827L138.599 310.267L138.926 309.891C139.243 309.941 139.504 309.928 139.759 310.129L139.784 310.06C139.835 310.073 139.884 310.091 139.935 310.1C140.381 310.181 140.917 310.088 141.371 310.049C141.061 310.305 140.62 310.252 140.236 310.266C138.294 310.321 136.106 309.855 134.176 309.598Z" fill="#E7AE06"/>
<path d="M71.8223 60.054C77.6703 57.9805 86.0789 56.856 92.2686 55.8556C105.539 53.7108 119.021 52.2205 132.465 51.9417C154.007 51.4949 189.721 55.2521 208.94 64.3954C212.685 66.1774 217.603 68.8001 219.078 72.975C219.498 74.1623 219.586 75.4125 219 76.56C218.372 77.7886 217.167 78.7306 216.066 79.5255C215.921 76.7933 215.245 74.803 213.245 72.8559C202.396 62.2927 165.446 57.6537 150.286 56.6039C142.917 56.0936 135.377 55.9015 128.006 56.3408C118.894 56.8838 109.728 57.7589 100.675 58.9078C96.2946 59.4636 91.8564 60.6865 87.4381 60.7454C82.2794 60.648 76.9334 60.8034 71.8223 60.054Z" fill="#BBB5AD"/>
<path d="M271.932 192.601C272.239 192.549 272.3 192.518 272.547 192.342C274.425 191.005 276.187 188.597 277.576 186.771C286.342 175.248 291.538 160.628 293.885 146.445C294.198 180.206 278.899 214.939 255.373 238.886C252.788 241.517 250.062 244.589 247.047 246.709C247.194 244.086 247.613 241.481 247.838 238.863C248.157 235.142 248.245 231.419 248.24 227.686C250.368 226.206 251.998 223.921 253.652 221.943C261.45 212.626 267.05 203.706 271.932 192.601Z" fill="#D89408"/>
<path d="M99.6562 287.891C103.878 289.58 108.105 291.2 112.486 292.434C135.533 298.926 160.276 299.477 183.966 296.855C188.553 296.347 193.112 295.814 197.654 294.983C195.543 299.561 190.001 302.373 185.521 304.025C174.142 308.22 160.426 309.057 148.394 309.404C146.036 309.415 143.681 309.493 141.323 309.446C139.354 309.406 137.255 309.197 135.297 309.335C134.903 309.363 134.545 309.458 134.175 309.589C127.48 308.847 112.79 306.14 107.931 301.442C106.028 299.602 106.411 297.355 106.341 294.934C105.17 293.163 101.322 289.699 99.6562 287.891Z" fill="#FDD251"/>
<path d="M194.775 91.8876C201.847 91.1825 209.244 89.4201 215.722 86.4609C213.068 95.1016 209.432 112.013 213.78 120.211C214.869 122.266 216.347 124.107 217.533 126.107C219.625 129.634 221.452 133.354 223.211 137.057C216.974 139.362 210.741 141.423 204.203 142.715C202.675 138.852 201.122 135.015 199.386 131.24C197.653 127.473 195.623 123.687 194.395 119.723C192.011 112.024 192.639 99.6449 194.775 91.8876Z" fill="#D89408"/>
<path d="M224.899 79.219C224.938 79.1906 224.977 79.1618 225.017 79.134C226.481 78.0951 228.198 77.2592 229.809 76.4684C237.107 72.8856 246.097 70.0505 254.261 71.3675C262.289 71.8546 269.601 77.48 274.733 83.2902C287.714 97.9865 295.143 126.348 293.942 145.602L293.885 146.454C291.538 160.637 286.342 175.256 277.576 186.78C276.187 188.606 274.425 191.014 272.547 192.351C272.3 192.527 272.24 192.557 271.932 192.61C281.929 166.867 283.727 136.629 273.316 110.678C270.411 103.438 266.101 95.4035 259.809 90.5982C258.032 89.2413 256.173 88.2654 254.124 87.387C253.357 86.2864 248.101 85.0093 246.646 84.7562C243.25 84.1649 239.546 84.1775 236.162 84.849C231.85 85.7052 227.665 87.4199 223.77 89.4268C223.116 89.7636 221.221 91.0046 220.59 90.823C221.012 89.2884 221.513 87.7783 222.003 86.2642C222.867 83.8765 223.885 81.5448 224.899 79.219Z" fill="#FDD251"/>
<path d="M224.898 79.219C224.937 79.1906 224.976 79.1618 225.016 79.134C226.48 78.0951 228.197 77.2592 229.808 76.4684C237.106 72.8856 246.096 70.0505 254.26 71.3675C254.335 71.4191 254.41 71.4723 254.486 71.5227C255.448 72.1547 256.947 72.435 258.037 72.8501C260.298 73.7123 262.53 74.8444 264.539 76.1883C276.871 84.4396 284.807 100.574 288.111 114.643C289.962 122.523 290.747 130.336 290.125 138.421C289.934 140.908 289.547 143.369 289.263 145.846C286.95 127.73 282.404 108.504 271.56 93.4598C269.342 90.3826 266.884 87.3368 263.879 84.9948C259.631 81.6844 252.44 77.0806 246.897 77.8127C241.575 78.5158 233.894 81.3941 228.853 83.4819C226.7 84.3735 224.278 85.8064 222.002 86.2634C222.866 83.8765 223.884 81.5448 224.898 79.219Z" fill="#FEEEAE"/>
<path d="M87.4375 60.7507C91.8558 60.6915 96.2939 59.4689 100.674 58.913C109.728 57.7642 118.894 56.8893 128.005 56.346C135.376 55.9068 142.916 56.0989 150.285 56.6092C165.445 57.6592 202.395 62.298 213.244 72.8612C215.244 74.8083 215.92 76.7986 216.066 79.5308C211.395 82.9091 205.185 84.4146 199.557 85.3538C184.974 87.7874 170.107 85.4578 156.264 80.5893C150.76 78.6533 145.423 76.2652 140.037 74.0284C132.227 70.7843 124.179 67.6162 116.084 65.163C109.511 63.1706 102.755 62.0086 95.921 61.3661C93.1011 61.1007 90.2459 61.0698 87.4375 60.7507Z" fill="#8D8D88"/>
<path d="M205.828 148.486C212.576 147.334 219.155 144.94 225.571 142.609C226.98 145.555 228.051 148.662 229.118 151.744C231.281 157.987 233.116 164.289 234.71 170.698C241.004 196.005 245.102 222.942 240.609 248.884C239.733 253.94 238.637 258.88 236.925 263.722C235.845 266.776 232.603 275.4 230.47 277.472C229.284 278.625 227.156 279.457 225.664 280.168C202.483 291.227 174.78 293.521 149.408 292.295C145.5 292.106 141.586 291.807 137.699 291.362C136.249 291.196 134.653 291.096 133.246 290.717C134.984 290.356 136.983 290.441 138.764 290.313C160.59 288.739 178.935 279.742 193.251 263.17C209.453 244.414 217.032 219.419 215.198 194.819C214.85 190.142 214.308 185.502 213.549 180.874C212.943 177.176 212.234 173.494 211.45 169.829C211.003 167.737 206.662 149.284 205.79 148.533L205.828 148.486Z" fill="#1A7F87"/>
<path d="M74.8203 66.1094C87.7663 66.4656 100.189 66.8287 112.781 70.3174C117.327 71.5768 121.723 73.2396 126.13 74.9105C130.352 76.5121 134.576 78.1279 138.737 79.8825C144.509 82.3163 150.223 84.818 156.167 86.821C163.757 89.3795 171.774 91.095 179.753 91.7964C184.7 92.2317 189.831 92.395 194.776 91.8854C192.64 99.643 192.012 112.022 194.396 119.721C195.623 123.685 197.654 127.471 199.387 131.238C201.123 135.013 202.676 138.85 204.204 142.713L204.013 142.787C183.879 147.065 163.096 147.876 142.617 146.083C137.773 145.659 132.761 145.2 127.979 144.316L127.904 144.341C122.477 143.091 116.925 142.422 111.504 141.081L111.421 141.083C107.062 139.895 102.735 138.728 98.4296 137.346C100.063 133.616 101.894 129.837 103.907 126.298C104.932 124.496 106.194 122.836 107.236 121.043C109.38 117.357 110.204 112.944 109.964 108.717C109.096 93.4334 96.2524 81.2443 84.6334 72.7975C82.6513 71.3565 80.6026 70.022 78.5487 68.686C77.3574 67.9111 75.9578 67.1551 74.911 66.195C74.8801 66.1668 74.8504 66.1376 74.8203 66.1094Z" fill="#FDD251"/>
<path d="M100.633 76.0405C103.999 76.0038 107.203 76.6785 110.369 77.8043C112.174 78.4463 113.92 79.2293 115.641 80.0673C120.422 82.3959 125.027 85.0523 129.767 87.4564C130.916 88.0392 137.355 90.7865 137.752 91.349C138.577 92.5172 137.908 111.066 137.681 113.836C137.496 116.091 137.198 118.346 136.695 120.554C135.618 125.29 133.616 130.001 131.87 134.533C130.625 137.766 129.028 141.025 127.977 144.312L127.901 144.337C122.475 143.087 116.923 142.418 111.501 141.077L111.551 140.932C113.038 136.687 116.425 130.762 118.67 126.655C120.101 124.036 122.03 121.25 122.626 118.29C123.277 115.06 122.795 111.618 122.071 108.443C121.268 104.914 120.184 101.411 118.629 98.1383C114.409 89.2552 107.919 82.4932 100.633 76.0405Z" fill="#FEEEAE"/>
<path d="M111.419 141.08L111.502 141.078C116.923 142.419 122.476 143.088 127.902 144.338L127.978 144.313C132.759 145.197 137.771 145.656 142.615 146.08C163.094 147.873 183.877 147.062 204.011 142.784C204.842 144.074 205.693 146.968 205.828 148.481L205.791 148.529C206.663 149.279 211.004 167.732 211.451 169.825C212.235 173.489 212.943 177.171 213.55 180.869C214.309 185.497 214.85 190.137 215.199 194.814C217.032 219.414 209.454 244.408 193.252 263.165C178.936 279.737 160.591 288.735 138.765 290.308C136.984 290.436 134.985 290.351 133.247 290.712C130.788 290.654 128.196 290.112 125.786 289.64C118.072 288.132 110.527 285.99 103.215 283.098C99.6987 281.707 92.1366 278.351 89.8173 275.484C88.2473 273.542 86.7685 269.867 85.7537 267.519C83.0123 261.177 80.862 254.469 79.6703 247.655C74.795 219.783 81.8719 184.245 90.6681 157.639C92.3388 152.586 94.2404 147.649 96.2034 142.704C100.38 144.244 104.894 145.394 109.228 146.433L109.305 146.376C109.925 144.581 110.755 142.861 111.419 141.08Z" fill="#38B2C1"/>
<path d="M204.011 142.789C204.843 144.078 205.693 146.973 205.828 148.486L205.791 148.533C200.225 149.536 194.733 150.634 189.113 151.34C168.319 153.952 146.816 153.344 126.17 149.817C126.521 147.979 127.283 146.109 127.902 144.342L127.978 144.317C132.759 145.202 137.772 145.66 142.615 146.085C163.095 147.877 183.877 147.067 204.011 142.789Z" fill="#032734"/>
<path d="M111.419 141.08L111.502 141.078C116.923 142.419 122.475 143.088 127.902 144.338C127.283 146.105 126.52 147.974 126.169 149.813C124.138 156.545 121.927 163.155 120.237 169.991C114.204 194.394 111.476 225.167 116.569 249.865C118.353 258.512 120.638 264.999 123.834 273.179C115.81 272.832 110.271 270.815 103.617 266.434C93.8515 244.276 93.2068 220.824 96.2221 197.123C97.5865 186.4 99.7225 175.546 102.751 165.164C104.609 158.795 106.853 152.625 109.228 146.433L109.304 146.376C109.925 144.581 110.755 142.861 111.419 141.08Z" fill="#A4E2E9"/>
<path d="M111.419 141.08L111.502 141.078C116.923 142.419 122.476 143.088 127.902 144.338C127.283 146.105 126.521 147.974 126.17 149.813C124.207 149.177 121.878 148.984 119.837 148.606C116.309 147.951 112.795 147.209 109.305 146.376C109.925 144.581 110.756 142.861 111.419 141.08Z" fill="#8D8D88"/>
</svg>
