<svg width="364" height="364" viewBox="0 0 364 364" fill="none" xmlns="http://www.w3.org/2000/svg">
<g clip-path="url(#clip0_4350_20826)">
<path d="M77.8766 152.953C75.0128 155.641 71.4745 157.573 67.6055 158.501C77.5018 179.052 89.2592 199.537 102.387 218.884C102.413 218.922 102.438 218.959 102.464 218.997C102.743 219.409 103.023 219.82 103.304 220.231C103.326 220.262 103.348 220.294 103.369 220.326C104.508 221.99 105.656 223.645 106.815 225.291C106.886 225.394 106.959 225.496 107.031 225.598C107.266 225.931 107.501 226.264 107.736 226.596C107.841 226.744 107.946 226.892 108.051 227.039C108.276 227.356 108.501 227.672 108.727 227.988C108.831 228.133 108.935 228.279 109.039 228.424C109.768 229.442 110.502 230.456 111.238 231.466C111.385 231.667 111.531 231.868 111.677 232.068C111.865 232.325 112.053 232.581 112.241 232.836C112.404 233.058 112.567 233.279 112.73 233.499C112.909 233.743 113.089 233.986 113.268 234.228C113.451 234.475 113.635 234.722 113.818 234.968C113.982 235.188 114.145 235.407 114.309 235.627C114.527 235.919 114.746 236.21 114.965 236.501C115.097 236.678 115.229 236.854 115.362 237.031C115.697 237.474 116.032 237.917 116.368 238.359C116.517 238.555 116.666 238.75 116.815 238.945C117.028 239.225 117.242 239.505 117.456 239.785C117.603 239.976 117.749 240.167 117.896 240.358C118.117 240.644 118.337 240.931 118.559 241.217C118.703 241.403 118.847 241.59 118.992 241.776C119.225 242.077 119.459 242.377 119.692 242.677C119.819 242.838 119.944 243 120.071 243.162C120.431 243.622 120.822 244.065 121.184 244.523C127.478 246.953 133.981 248.783 140.575 249.974C116.375 222.632 94.1153 188.252 77.8766 152.953Z" fill="#F5AC18"/>
<path d="M140.576 249.975C133.983 248.783 127.48 246.953 121.186 244.523C129.454 254.998 138.095 264.943 147.031 274.126C149.775 271.557 152.545 268.843 155.582 265.764C150.522 260.828 145.509 255.548 140.576 249.975Z" fill="#F0921D"/>
<path d="M279.378 194.376C279.349 194.252 279.321 194.127 279.294 194.001C279.24 193.75 279.19 193.498 279.144 193.244C279.075 192.864 279.016 192.481 278.967 192.096C278.951 191.968 278.935 191.839 278.921 191.71C278.835 190.936 278.789 190.153 278.784 189.363C278.782 189.1 278.785 188.836 278.793 188.571C278.823 187.512 278.927 186.442 279.109 185.367C279.136 185.209 279.165 185.05 279.195 184.893L279.222 184.758L279.29 184.425L279.329 184.248L279.393 183.965L279.443 183.76L279.505 183.511L279.563 183.29L279.626 183.059L279.69 182.831L279.754 182.615L279.827 182.376L279.889 182.182L279.974 181.922L280.027 181.766L280.129 181.475L280.169 181.365L280.289 181.04L280.308 180.992C280.359 180.86 280.411 180.729 280.465 180.598C280.487 180.544 280.509 180.49 280.532 180.435C280.564 180.357 280.597 180.279 280.631 180.201C280.657 180.139 280.683 180.079 280.71 180.018C280.739 179.952 280.768 179.887 280.797 179.822C280.887 179.622 280.979 179.423 281.074 179.227C277.277 175.888 273.394 172.688 269.459 169.655C263.868 165.345 258.105 161.355 252.194 157.688C251.719 163.677 250.814 169.645 249.427 175.554C243.443 201.034 228.69 224.809 206.066 238.626C193.743 246.151 180.056 250.264 166.1 251.33C164.585 255.874 163.272 259.73 162.225 262.766C162.31 263.103 162.393 263.438 162.477 263.769C201.56 249.875 244.159 224.538 279.385 194.401L279.378 194.376Z" fill="#F0921D"/>
<path d="M287.208 206.875C287.06 206.754 286.914 206.632 286.769 206.508C286.576 206.343 286.385 206.175 286.198 206.004C285.917 205.747 285.643 205.484 285.376 205.214C285.109 204.944 284.849 204.668 284.596 204.385C284.259 204.009 283.934 203.621 283.623 203.223L283.392 202.923C283.24 202.722 283.091 202.518 282.945 202.312L282.73 202.001C282.375 201.479 282.041 200.943 281.73 200.393C281.289 199.613 280.893 198.806 280.546 197.977C245.124 228.051 202.473 253.292 163.324 267.156C164.381 271.389 165.321 275.178 166.259 278.825C168.431 278.005 170.604 277.158 172.779 276.286L172.802 276.277C173.155 276.135 173.507 275.993 173.861 275.85L173.879 275.842C213.681 259.72 253.719 235.033 287.649 207.223C287.501 207.108 287.354 206.993 287.208 206.875Z" fill="#F0921D"/>
<path d="M228.918 62.1193C233.046 69.4729 236.729 77.0795 239.832 85.0213C240.208 85.9835 240.577 86.9494 240.94 87.9186C262.63 114.161 278.279 141.567 288.26 170.712C291.594 168.32 295.572 166.825 299.801 166.508C299.755 166.383 299.708 166.258 299.662 166.133C299.567 165.878 299.471 165.623 299.375 165.369L299.315 165.212C299.177 164.846 299.037 164.479 298.897 164.114L298.837 163.956C298.692 163.579 298.547 163.203 298.401 162.828L298.384 162.783C298.153 162.189 297.92 161.594 297.685 161.002C297.262 159.938 296.833 158.878 296.398 157.821C296.287 157.55 296.175 157.279 296.062 157.008C280.913 120.519 258.384 88.3366 231.515 59.7109C230.696 60.5612 229.829 61.3655 228.918 62.1193Z" fill="#F0921D"/>
<path d="M145.985 250.807C151.429 251.497 156.912 251.75 162.369 251.545C170.716 226.599 185.733 179.147 195.45 133.452C187.261 131.349 178.954 129.761 170.572 128.695C164.983 140.278 160.717 152.504 158.659 165.18C156.682 177.355 156.6 190.325 150.394 200.985C148.525 204.196 145.814 207.302 142.157 207.962C136.987 208.894 132.394 204.684 129.167 200.54C114.546 181.765 108.553 155.869 115.187 133.234C115.6 131.823 116.063 130.424 116.576 129.04C105.996 130.516 95.4524 132.827 85.0335 135.985C85.0565 137.376 84.9528 138.79 84.7106 140.212C84.6871 140.349 84.6625 140.486 84.6368 140.622L84.6208 140.703L84.558 141.018L84.5335 141.136L84.4704 141.423L84.4448 141.537L84.3625 141.881L84.3516 141.926C84.3184 142.058 84.2848 142.189 84.2495 142.32L84.2263 142.404L84.1429 142.702L84.1042 142.835L84.0315 143.077L83.9853 143.227L83.9089 143.466L83.8643 143.603C83.824 143.724 83.7831 143.844 83.7412 143.964L83.7134 144.041L83.6122 144.321L83.5483 144.49L83.4751 144.681L83.4046 144.86L83.3349 145.031L83.2561 145.222L83.1909 145.375C83.1303 145.516 83.068 145.657 83.0047 145.797L82.9665 145.882L82.8618 146.106L82.8095 146.217L82.6999 146.442L82.6481 146.546L82.5295 146.782L82.495 146.848C82.3962 147.039 82.295 147.228 82.1911 147.416C82.0872 147.603 81.9806 147.789 81.8716 147.973L81.8566 147.998L81.6886 148.277L81.6862 148.281C81.6199 148.389 81.5521 148.497 81.4837 148.604C81.4728 148.621 81.4616 148.638 81.4506 148.656C81.1226 149.168 80.7758 149.665 80.4102 150.146C97.182 186.987 120.612 222.897 145.985 250.807Z" fill="#F5AC18"/>
<path d="M239.832 85.0192C236.729 77.0774 233.046 69.4708 228.918 62.1172C226.749 63.9125 224.334 65.4204 221.73 66.5827C228.592 73.6147 234.993 80.7217 240.94 87.9164C240.577 86.9473 240.208 85.9814 239.832 85.0192Z" fill="#F5AC18"/>
<path d="M252.443 153.767C253.354 134.87 250.107 115.823 244.339 97.7261C236.511 87.6256 227.797 77.7018 218.175 67.9219C215.271 68.8122 212.187 69.2911 208.99 69.2911C208.666 69.2911 208.343 69.2861 208.02 69.2762C207.335 87.5522 204.059 108.99 199.508 130.935C217.951 135.987 235.766 143.624 252.443 153.767Z" fill="#F5AC18"/>
<path d="M249.427 175.559C250.814 169.65 251.719 163.683 252.194 157.692C235.411 147.28 217.429 139.47 198.792 134.344C189.2 179.415 174.533 226.035 166.1 251.335C180.055 250.269 193.743 246.156 206.065 238.631C228.69 224.814 243.443 201.039 249.427 175.559Z" fill="#F5AC18"/>
<path d="M118.317 124.818C122.974 114.63 130.241 105.863 138.678 98.5714C148.16 90.3767 170.727 71.915 181.908 87.722C188.791 97.453 179.735 111.534 175.023 120.084C174.055 121.839 173.114 123.612 172.204 125.4C180.272 126.474 188.272 128.024 196.164 130.045C200.675 108.269 203.91 87.0318 204.563 68.9767C201.763 68.58 199.082 67.8128 196.571 66.7256C196.39 66.6471 196.21 66.567 196.03 66.4852C195.761 66.3623 195.493 66.2363 195.228 66.1062C195.052 66.0193 194.876 65.9309 194.701 65.8412C194.526 65.7512 194.352 65.6595 194.179 65.5666C194.006 65.4734 193.834 65.3785 193.663 65.2824C192.808 64.8013 191.978 64.2809 191.175 63.724C191.015 63.6126 190.856 63.4998 190.697 63.3855C190.301 63.1 189.912 62.8051 189.531 62.5016C189.302 62.3197 189.076 62.1343 188.852 61.946L188.686 61.8047C145.495 78.0888 110.946 100.195 83.7793 128.922C84.1776 130.066 84.4853 131.248 84.6971 132.456C95.7255 129.152 106.889 126.782 118.088 125.328C118.163 125.158 118.24 124.988 118.317 124.818Z" fill="#F5AC18"/>
<path d="M76.1802 118.361L76.5167 118.626C78.8687 120.516 80.8171 122.852 82.2543 125.481C109.307 97.2152 143.468 75.3496 185.923 59.1323L185.705 58.893C185.575 58.7479 185.446 58.6018 185.319 58.4546C185 58.0863 184.689 57.7101 184.388 57.3268C184.207 57.0968 184.029 56.8644 183.854 56.6294L183.681 56.3932C183.508 56.1566 183.339 55.9172 183.173 55.6755C182.952 55.3533 182.737 55.0266 182.527 54.6959C182.214 54.1999 181.913 53.6942 181.627 53.1795C181.532 53.008 181.438 52.8354 181.346 52.6621C181.253 52.4887 181.163 52.314 181.074 52.1388C180.539 51.0863 180.063 49.9997 179.648 48.8828C178.016 49.5418 176.394 50.2109 174.782 50.8902C173.585 51.3972 172.389 51.9042 171.203 52.411C168.029 53.7899 164.866 55.1992 161.733 56.6593C160.516 57.2269 159.31 57.7948 158.103 58.3726C156.897 58.9402 155.7 59.5284 154.504 60.1167C151.24 61.7186 148.005 63.3611 144.801 65.0643C143.777 65.6017 142.763 66.1493 141.739 66.6967C139.965 67.6698 138.191 68.6435 136.437 69.6369C135.403 70.2248 134.358 70.8232 133.334 71.4213C132.584 71.8572 131.844 72.2932 131.103 72.7291C130.424 73.1245 129.755 73.5299 129.076 73.9357C123.682 77.17 118.39 80.5665 113.199 84.1251C112.134 84.8551 111.079 85.5849 110.035 86.3251C109.853 86.4469 109.68 86.5685 109.508 86.7004C108.23 87.6028 106.953 88.5153 105.696 89.4379L105.412 89.6406C104.469 90.3402 103.526 91.0398 102.583 91.7496C102.006 92.1855 101.428 92.6215 100.86 93.0574C99.8662 93.8176 98.8725 94.5781 97.8791 95.3589C96.7636 96.2308 95.6486 97.1129 94.5432 98.0152C94.4118 98.1269 94.2697 98.2383 94.1276 98.3499C93.0326 99.2421 91.9377 100.144 90.8527 101.047C89.6463 102.061 88.4397 103.085 87.2534 104.119C86.26 104.971 85.2663 105.842 84.2929 106.715C83.9379 107.019 83.5933 107.333 83.2487 107.647C82.3058 108.499 81.3629 109.351 80.4402 110.213C80.2679 110.375 80.0852 110.537 79.9129 110.699C78.8383 111.693 77.7738 112.697 76.7192 113.711C75.6951 114.684 74.6813 115.677 73.6777 116.681C73.9275 116.826 74.1746 116.975 74.4179 117.129C75.0273 117.513 75.6149 117.924 76.1802 118.361Z" fill="#F5AC18"/>
<path d="M145.986 250.805C149.953 255.168 153.967 259.337 158.011 263.282C158.198 263.09 158.385 262.897 158.574 262.702C159.576 259.81 160.864 256.042 162.37 251.543C156.913 251.748 151.43 251.495 145.986 250.805Z" fill="#F0921D"/>
<path d="M188.685 61.7995C188.148 61.3406 187.626 60.8638 187.12 60.3699C186.981 60.2339 186.843 60.0963 186.706 59.9574C186.44 59.6874 186.178 59.4125 185.922 59.1328C143.467 75.3501 109.307 97.2157 82.2539 125.481C82.8541 126.579 83.3651 127.728 83.7789 128.917C110.946 100.19 145.495 78.0836 188.685 61.7995Z" fill="#964115"/>
<path d="M155.581 265.761C156.371 264.96 157.18 264.134 158.01 263.28C153.966 259.335 149.952 255.166 145.985 250.803C120.612 222.893 97.1819 186.982 80.4095 150.141C80.3697 150.193 80.3289 150.244 80.2885 150.296C80.2869 150.298 80.2853 150.301 80.2837 150.303C79.5494 151.25 78.7448 152.135 77.877 152.95C94.1156 188.249 116.375 222.629 140.576 249.971C145.508 255.544 150.522 260.825 155.581 265.761Z" fill="#964115"/>
<path d="M170.57 128.693C178.952 129.758 187.259 131.346 195.448 133.449C185.731 179.144 170.714 226.597 162.367 251.542C160.861 256.042 159.573 259.81 158.571 262.702C159.501 261.743 160.459 260.748 161.452 259.712C161.717 260.758 161.974 261.774 162.224 262.765C163.271 259.729 164.584 255.873 166.099 251.33C174.533 226.03 189.2 179.41 198.791 134.339C217.428 139.465 235.41 147.276 252.193 157.687C258.105 161.355 263.868 165.345 269.458 169.654C273.393 172.688 277.276 175.888 281.073 179.227C281.115 179.142 281.157 179.058 281.2 178.973L281.206 178.959C281.695 177.987 282.248 177.058 282.862 176.177C279.169 172.948 275.398 169.849 271.578 166.904C265.396 162.139 259.007 157.757 252.442 153.764C235.765 143.621 217.95 135.984 199.507 130.931C204.058 108.987 207.333 87.5488 208.019 69.2728C206.85 69.2373 205.696 69.1371 204.562 68.9766C203.908 87.0317 200.674 108.269 196.162 130.045C188.271 128.024 180.271 126.474 172.202 125.4C154.359 123.025 136.178 122.98 118.086 125.328C106.888 126.782 95.724 129.152 84.6953 132.456C84.8973 133.609 85.011 134.787 85.0308 135.982C95.4497 132.823 105.994 130.513 116.574 129.036C134.613 126.52 152.758 126.427 170.57 128.693Z" fill="#964115"/>
<path d="M162.478 263.767C162.395 263.436 162.311 263.101 162.226 262.764C161.976 261.773 161.72 260.756 161.454 259.711C160.462 260.747 159.504 261.742 158.574 262.701C158.385 262.895 158.197 263.089 158.011 263.28C157.18 264.134 156.372 264.96 155.581 265.761C152.545 268.839 149.775 271.554 147.031 274.123L147.026 274.127L147.025 274.128C140.521 280.216 134.161 285.485 124.75 292.829C127.481 296.107 131.35 298.445 135.54 299.858C142.877 302.332 151.365 301.131 156.348 294.825C160.931 289.026 162.177 281.345 162.8 274.179C163.029 271.55 163.12 268.896 163.097 266.24C162.894 265.427 162.691 264.616 162.478 263.767Z" fill="#EA551D"/>
<path d="M75.3169 133.02C73.5202 128.915 69.5999 126.28 65.147 125.934L64.7922 125.922L63.9046 126.885C62.8705 128.011 61.8464 129.156 60.8324 130.312C60.3254 130.88 59.8286 131.458 59.3317 132.036C58.5512 132.938 57.7704 133.851 57 134.763C57.1838 135.211 57.3689 135.658 57.5545 136.106C57.6277 136.283 57.7017 136.46 57.7755 136.637C57.9015 136.94 58.0279 137.243 58.155 137.547C58.2111 137.68 58.267 137.813 58.3231 137.947C58.4844 138.331 58.6463 138.714 58.8089 139.098L58.8819 139.27C59.0729 139.719 59.2649 140.169 59.4575 140.618C59.5922 140.932 59.7271 141.246 59.8625 141.56C59.8945 141.635 59.9269 141.709 59.9594 141.784C62.363 147.344 64.9162 152.921 67.6048 158.498C69.1864 158.119 70.7082 157.563 72.1557 156.866C74.7938 153.449 76.5288 149.404 76.9225 144.829C77.2567 140.947 76.8878 136.61 75.3169 133.02Z" fill="#18A638"/>
<path d="M225.43 53.316C223.258 51.0986 221.061 48.9023 218.841 46.7277C218.635 46.5268 218.43 46.3257 218.225 46.1251L218.032 45.937C217.152 45.0787 216.267 44.2237 215.378 43.3721L215.178 43.1798C214.768 42.7874 214.357 42.3955 213.946 42.0042L213.737 41.8068L213.638 41.7127C213.2 41.2968 212.761 40.8817 212.321 40.4674C211.444 39.642 210.564 38.8193 209.681 38C208.866 38.2637 208.052 38.5302 207.239 38.7979C206.825 38.9341 206.411 39.0706 205.997 39.2082L205.84 39.2606C204.965 39.5517 204.092 39.8461 203.22 40.1421C202.048 40.5401 200.877 40.9426 199.708 41.35C199.361 41.4707 199.014 41.592 198.668 41.7138C197.668 42.0648 196.67 42.4195 195.674 42.7775C195.376 42.8843 195.079 42.9909 194.782 43.0983L194.515 43.1945C193.494 43.5642 192.476 43.9387 191.458 44.3158C190.562 44.6481 189.666 44.9826 188.772 45.3208C188.41 45.4578 188.048 45.5959 187.686 45.734C185.455 46.5848 183.237 47.4636 181.023 48.3502C182.698 52.7422 186.207 56.4504 190.251 58.9066C201.786 65.913 216.32 62.2563 226.483 54.3987L225.43 53.316Z" fill="#18A638"/>
<path d="M181.346 52.6712C181.439 52.8448 181.533 53.0174 181.628 53.1886C181.914 53.7034 182.214 54.209 182.528 54.7051C182.737 55.036 182.953 55.3625 183.174 55.6846C183.34 55.9264 183.509 56.1657 183.682 56.4024L183.855 56.6385C184.03 56.8733 184.207 57.106 184.389 57.336C184.69 57.7193 185.001 58.0951 185.32 58.4638C185.447 58.6112 185.576 58.7573 185.706 58.9021L185.924 59.1414C186.18 59.4211 186.441 59.6957 186.707 59.9661C186.844 60.1047 186.982 60.2423 187.122 60.3785C187.627 60.8724 188.149 61.3492 188.687 61.8081L188.853 61.9494C189.077 62.1378 189.303 62.3229 189.532 62.5051C189.913 62.8085 190.303 63.1034 190.698 63.389C190.857 63.5033 191.016 63.6163 191.176 63.7274C191.979 64.2844 192.809 64.8047 193.664 65.2858C193.835 65.382 194.007 65.4768 194.18 65.57C194.353 65.663 194.527 65.7546 194.702 65.8446C194.877 65.9344 195.053 66.0231 195.229 66.1096C195.495 66.2397 195.762 66.366 196.031 66.4887C196.211 66.5704 196.391 66.6508 196.572 66.7291C199.083 67.8163 201.764 68.5832 204.564 68.9801C205.698 69.1409 206.852 69.2408 208.022 69.2763C208.344 69.2862 208.667 69.2913 208.991 69.2913C212.188 69.2913 215.273 68.8124 218.177 67.922C219.396 67.5486 220.582 67.1022 221.733 66.5888C224.336 65.4266 226.751 63.9187 228.92 62.1233C229.83 61.3695 230.698 60.5652 231.516 59.7144L231.54 59.6901C230.708 58.8041 229.872 57.9218 229.031 57.0427C229.024 57.036 229.018 57.0296 229.012 57.0229C228.172 56.1459 227.329 55.2719 226.483 54.4011C216.319 62.2588 201.786 65.9154 190.251 58.9091C186.207 56.4529 182.697 52.7444 181.023 48.3516C180.574 48.5313 180.122 48.7018 179.674 48.8826L179.65 48.892V48.8922C180.065 50.0091 180.541 51.0957 181.075 52.1482C181.164 52.3231 181.254 52.4976 181.346 52.6712Z" fill="#198C2F"/>
<path d="M252.443 153.768C259.009 157.761 265.397 162.143 271.579 166.908C275.399 169.853 279.17 172.952 282.864 176.181C283.627 175.088 284.481 174.069 285.414 173.134C276.533 146.709 262.936 121.719 244.34 97.7266C250.107 115.824 253.354 134.871 252.443 153.768Z" fill="#F0921D"/>
<path d="M307.25 189.653C307.177 189.385 307.104 189.117 307.031 188.849L306.962 188.602C306.902 188.386 306.842 188.17 306.782 187.955C306.612 187.351 306.439 186.749 306.262 186.147C306.137 185.695 306.011 185.251 305.88 184.802L305.795 184.515C305.679 184.116 305.56 183.718 305.44 183.319C305.163 182.4 304.879 181.48 304.589 180.561C304.302 179.621 304.009 178.686 303.709 177.753L303.625 177.494C303.528 177.195 303.431 176.895 303.332 176.597L303.238 176.308C303.162 176.07 303.087 175.831 303.007 175.593C302.728 174.755 302.444 173.921 302.156 173.089C302.005 172.653 301.853 172.217 301.7 171.78C301.558 171.375 301.416 170.969 301.274 170.564C301.193 170.332 301.111 170.102 301.029 169.871C300.701 168.946 300.367 168.023 300.027 167.106C299.956 166.914 299.885 166.711 299.804 166.508H299.802C298.977 166.57 298.169 166.673 297.366 166.824C293.337 169.55 290.035 173.418 288.228 177.868C285.125 185.513 288.228 195.353 296.216 198.616C296.604 198.775 296.994 198.9 297.385 199.011C300.785 196.059 304.121 193.081 307.367 190.081C307.328 189.938 307.289 189.796 307.25 189.653Z" fill="#18A638"/>
<path d="M280.797 179.825C280.768 179.89 280.738 179.955 280.71 180.02C280.683 180.081 280.657 180.142 280.631 180.203C280.597 180.281 280.564 180.359 280.532 180.438C280.509 180.492 280.487 180.546 280.464 180.601C280.411 180.732 280.359 180.863 280.308 180.995L280.289 181.043L280.169 181.368L280.128 181.478L280.027 181.768L279.973 181.925L279.888 182.184L279.827 182.378L279.754 182.618L279.69 182.834L279.626 183.061L279.562 183.293L279.505 183.514L279.443 183.763L279.393 183.968L279.329 184.25L279.29 184.428L279.222 184.761L279.195 184.896C279.165 185.053 279.136 185.211 279.109 185.37C278.927 186.445 278.822 187.514 278.792 188.574C278.785 188.838 278.782 189.102 278.784 189.366C278.789 190.156 278.835 190.939 278.92 191.713C278.935 191.842 278.95 191.971 278.967 192.099C279.016 192.484 279.075 192.867 279.144 193.247C279.19 193.501 279.24 193.753 279.294 194.004C279.321 194.129 279.349 194.254 279.378 194.379C279.385 194.408 279.392 194.437 279.399 194.465C279.452 194.686 279.507 194.905 279.566 195.123C279.699 195.617 279.849 196.105 280.015 196.586C280.097 196.826 280.184 197.065 280.274 197.303C280.361 197.529 280.451 197.753 280.544 197.976C280.892 198.805 281.288 199.612 281.729 200.392C282.04 200.942 282.373 201.478 282.728 202L282.944 202.311C283.09 202.517 283.238 202.721 283.391 202.923L283.622 203.223C283.933 203.62 284.258 204.008 284.595 204.385C284.848 204.667 285.108 204.943 285.375 205.213C285.642 205.483 285.916 205.747 286.197 206.003C286.384 206.174 286.574 206.343 286.767 206.508C286.912 206.632 287.059 206.754 287.207 206.874C287.355 206.994 287.505 207.112 287.656 207.229C290.961 204.523 294.205 201.782 297.389 199.017C296.996 198.905 296.604 198.779 296.214 198.62C288.227 195.357 285.123 185.517 288.227 177.872C290.035 173.419 293.331 169.554 297.365 166.828C290.414 168.117 284.398 172.616 281.207 178.962L281.2 178.976C281.06 179.255 280.926 179.538 280.797 179.825Z" fill="#198C2F"/>
<path d="M139.828 319.172C139.414 319.032 139.005 318.891 138.6 318.746C138.459 318.696 138.319 318.646 138.179 318.595L137.943 318.509C137.806 318.459 137.669 318.409 137.534 318.358C137.345 318.288 137.157 318.218 136.971 318.147C136.795 318.08 136.62 318.013 136.446 317.945C136.433 317.94 136.42 317.935 136.407 317.93L135.882 318.99C131.544 327.8 127.363 337.332 126.147 347.339C124.94 357.276 126.68 367.272 128.362 376.938C130.447 388.918 132.416 400.232 129.218 411.347C126.16 421.976 118.528 431.162 111.146 440.046C109.393 442.156 107.644 444.261 105.954 446.383C93.6811 461.79 89.0102 475.058 91.6761 486.947L95.742 486.035C93.3699 475.457 97.7766 463.336 109.213 448.979C110.886 446.879 112.617 444.796 114.351 442.709C122.007 433.494 129.922 423.967 133.223 412.498C136.685 400.463 134.542 388.141 132.468 376.224C130.837 366.855 129.151 357.167 130.284 347.841C131.425 338.452 135.445 329.31 139.62 320.83L140.354 319.347C140.328 319.338 140.301 319.33 140.275 319.321C140.125 319.272 139.976 319.222 139.828 319.172Z" fill="#F4A619"/>
<path d="M157.959 323.052C157.718 323.028 157.478 323.004 157.239 322.979C157.188 322.973 157.137 322.968 157.085 322.962C156.849 322.937 156.613 322.91 156.379 322.883C156.359 322.881 156.34 322.879 156.321 322.877C156.069 322.847 155.818 322.816 155.569 322.785C155.526 322.78 155.484 322.774 155.441 322.769C155.193 322.737 154.945 322.704 154.699 322.671C154.67 322.667 154.642 322.663 154.614 322.659C154.495 322.642 154.376 322.626 154.258 322.609C152.659 330.636 151.599 339 152.551 347.206C153.705 357.149 157.736 366.46 161.636 375.464C166.468 386.622 171.031 397.161 170.525 408.715C170.041 419.764 164.772 430.482 159.677 440.847C158.467 443.309 157.259 445.766 156.112 448.225C147.788 466.078 146.355 480.072 151.731 491.005L155.47 489.166C150.687 479.438 152.133 466.622 159.889 449.986C161.023 447.552 162.219 445.122 163.416 442.685C168.701 431.935 174.166 420.819 174.688 408.897C175.236 396.385 170.266 384.907 165.459 373.808C161.68 365.082 157.773 356.058 156.69 346.725C155.788 338.95 156.844 330.876 158.411 323.095C158.322 323.087 158.233 323.078 158.144 323.07C158.083 323.063 158.021 323.058 157.959 323.052Z" fill="#F4A619"/>
<path d="M146.899 321.209L146.738 321.171C146.538 321.122 146.338 321.074 146.139 321.024L145.992 320.988C145.752 320.927 145.513 320.866 145.275 320.804C145.265 320.802 145.255 320.799 145.245 320.797C143.26 327.371 141.68 334.288 141.694 341.311C141.71 349.901 144.088 358.319 146.389 366.459C149.25 376.583 151.953 386.145 150.485 395.966C149.084 405.341 143.877 413.831 138.841 422.04C137.645 423.99 136.452 425.936 135.307 427.891C127.015 442.053 124.587 453.765 127.883 463.696C128.125 464.425 128.803 464.886 129.531 464.886C129.712 464.886 129.897 464.858 130.077 464.797C130.988 464.495 131.481 463.513 131.178 462.603C128.216 453.675 130.546 442.894 138.303 429.645C139.436 427.71 140.617 425.785 141.801 423.856C147.018 415.349 152.414 406.553 153.919 396.478C155.496 385.919 152.565 375.546 149.731 365.515C147.494 357.6 145.181 349.416 145.166 341.304C145.153 334.639 146.697 327.968 148.63 321.6C148.504 321.573 148.378 321.546 148.252 321.518C147.797 321.419 147.346 321.315 146.899 321.209Z" fill="#964115"/>
<path d="M130.111 315.168C129.932 315.079 129.753 314.99 129.577 314.902L129.305 314.764C129.129 314.675 128.954 314.586 128.781 314.496C128.601 314.403 128.423 314.31 128.247 314.217L128.003 314.088L127.729 313.942L127.495 313.815C127.373 313.749 127.251 313.683 127.13 313.617C125.041 317.049 123.209 320.657 121.865 324.476C119.013 332.578 118.445 341.307 117.896 349.748C117.213 360.247 116.568 370.163 111.906 378.93C107.455 387.3 99.7118 393.564 92.2232 399.622C90.4455 401.06 88.6708 402.495 86.9398 403.956C74.3957 414.537 68.1964 424.767 67.9867 435.229C67.968 436.187 68.7293 436.98 69.6882 437H69.7235C70.6664 437 71.44 436.245 71.459 435.298C71.6463 425.894 77.4431 416.51 89.1783 406.61C90.8916 405.165 92.6472 403.744 94.4067 402.321C102.165 396.045 110.188 389.555 114.972 380.56C119.984 371.133 120.684 360.376 121.36 349.974C121.895 341.767 122.447 333.281 125.14 325.629C126.42 321.994 128.191 318.532 130.22 315.222C130.189 315.207 130.158 315.191 130.127 315.176C130.122 315.173 130.117 315.171 130.111 315.168Z" fill="#964115"/>
<path d="M280.015 196.581C279.85 196.1 279.7 195.612 279.567 195.119C279.508 194.9 279.452 194.681 279.4 194.46C279.395 194.44 279.39 194.419 279.385 194.398C244.158 224.536 201.56 249.873 162.477 263.767C162.768 264.928 163.05 266.054 163.324 267.151C202.472 253.286 245.124 228.045 280.545 197.971C280.452 197.748 280.362 197.524 280.275 197.298C280.185 197.061 280.098 196.822 280.015 196.581Z" fill="#964115"/>
<path d="M285.412 173.132C286.295 172.248 287.247 171.439 288.259 170.713C278.278 141.568 262.629 114.162 240.939 87.9197C234.993 80.725 228.592 73.6179 221.73 66.5859C220.579 67.0996 219.393 67.546 218.174 67.9191C227.795 77.6993 236.509 87.6229 244.338 97.7234C262.934 121.717 276.531 146.706 285.412 173.132Z" fill="#964115"/>
<path d="M181.909 87.7192C170.728 71.9125 148.161 90.3741 138.678 98.5687C130.242 105.86 122.975 114.627 118.318 124.815C118.241 124.985 118.164 125.155 118.088 125.326C136.18 122.977 154.361 123.022 172.204 125.397C173.115 123.609 174.056 121.837 175.023 120.081C179.736 111.531 188.792 97.4502 181.909 87.7192Z" fill="#FECD4A"/>
<path d="M116.575 129.032C116.062 130.416 115.599 131.815 115.185 133.226C108.552 155.861 114.545 181.757 129.166 200.532C132.393 204.677 136.986 208.886 142.156 207.954C145.813 207.294 148.524 204.189 150.393 200.977C156.598 190.317 156.68 177.347 158.658 165.172C160.716 152.497 164.982 140.27 170.571 128.687C152.759 126.422 134.614 126.515 116.575 129.032Z" fill="#FECD4A"/>
<path d="M65.1466 125.935C69.5995 126.281 73.5201 128.916 75.3165 133.022C76.8874 136.611 77.2563 140.949 76.9224 144.83C76.5286 149.409 74.7908 153.459 72.1478 156.878C75.3189 155.351 78.1132 153.102 80.2825 150.305C80.2841 150.302 80.2857 150.3 80.2873 150.298C80.6976 149.769 81.0852 149.22 81.4488 148.653C81.4597 148.636 81.471 148.618 81.4819 148.601C81.5503 148.494 81.6179 148.386 81.6844 148.278L81.6868 148.274L81.8548 147.996L81.8698 147.97C81.9787 147.786 82.0853 147.601 82.1893 147.413C82.2932 147.225 82.3944 147.036 82.4932 146.845L82.5277 146.779L82.6463 146.544L82.6981 146.439L82.8076 146.214L82.86 146.103L82.9647 145.879L83.0029 145.794C83.0662 145.654 83.1285 145.513 83.1891 145.372L83.2543 145.219L83.3331 145.028L83.4028 144.857L83.4733 144.678L83.5465 144.487L83.6103 144.319L83.7116 144.038L83.7394 143.961C83.7816 143.841 83.8222 143.721 83.8625 143.6L83.9071 143.464L83.9835 143.224L84.0297 143.074L84.1024 142.832L84.1411 142.699L84.2244 142.401L84.2477 142.317C84.2827 142.187 84.3166 142.055 84.3497 141.923L84.3607 141.878L84.443 141.534L84.4686 141.421L84.5316 141.133L84.5562 141.016L84.619 140.7L84.635 140.619C84.6607 140.483 84.6855 140.346 84.7088 140.209C84.951 138.787 85.0549 137.373 85.0317 135.982C85.0119 134.788 84.8981 133.61 84.6962 132.457C84.4846 131.248 84.1766 130.067 83.7784 128.923C83.3646 127.733 82.8533 126.585 82.2534 125.487C80.816 122.858 78.8678 120.522 76.5158 118.633L76.1793 118.368C75.614 117.931 75.0264 117.519 74.4178 117.135C74.1745 116.982 73.9274 116.832 73.6777 116.688C73.5558 116.809 73.4343 116.931 73.3128 117.052C73.0542 117.306 72.7961 117.561 72.5389 117.817C72.2817 118.073 72.0252 118.33 71.7701 118.587C71.2594 119.103 70.7524 119.623 70.2505 120.145C69.7945 120.609 69.3393 121.077 68.8863 121.548C68.5839 121.862 68.2823 122.178 67.9813 122.495C67.8309 122.653 67.6805 122.812 67.5301 122.971C67.2296 123.289 66.9301 123.607 66.631 123.927L66.6056 123.954C65.992 124.602 65.3928 125.264 64.791 125.924L65.1466 125.935Z" fill="#198C2F"/>
<path d="M162.799 274.182C162.175 281.348 160.93 289.028 156.347 294.828C151.364 301.134 142.875 302.334 135.539 299.861C131.349 298.448 127.48 296.109 124.749 292.831C121.061 295.708 116.907 298.902 112.09 302.591C112.09 302.591 113.25 303.85 115.518 305.751L115.54 305.769C116.054 306.199 116.625 306.662 117.251 307.15L117.312 307.197C118.188 307.879 119.173 308.609 120.265 309.369L120.355 309.432C120.574 309.583 120.796 309.736 121.023 309.889L121.124 309.958C121.285 310.066 121.448 310.176 121.613 310.285L121.722 310.357L122.045 310.569L122.16 310.644C122.575 310.914 123.003 311.187 123.444 311.461L123.661 311.596L123.934 311.764L124.109 311.871L124.383 312.037L124.531 312.126L124.874 312.33L125.029 312.422C125.429 312.658 125.839 312.894 126.257 313.13C126.397 313.209 126.537 313.288 126.679 313.367C126.828 313.449 126.978 313.532 127.129 313.616C127.25 313.682 127.371 313.748 127.494 313.814L127.728 313.94L128.002 314.087L128.246 314.215C128.423 314.308 128.601 314.401 128.78 314.494C128.954 314.584 129.128 314.674 129.304 314.763L129.576 314.9C129.753 314.989 129.931 315.078 130.11 315.166C130.116 315.169 130.121 315.172 130.127 315.174C130.308 315.263 130.49 315.352 130.674 315.441L130.942 315.57C131.133 315.661 131.326 315.753 131.52 315.844L131.785 315.968C131.983 316.059 132.182 316.151 132.383 316.242L132.646 316.361C133.379 316.691 134.13 317.016 134.901 317.334C135.064 317.401 135.228 317.468 135.392 317.535C135.578 317.61 135.765 317.685 135.953 317.759C136.116 317.824 136.281 317.888 136.446 317.953C136.62 318.02 136.795 318.088 136.971 318.155C137.158 318.226 137.345 318.296 137.534 318.366C137.67 318.417 137.806 318.467 137.943 318.517L138.18 318.603C138.319 318.654 138.459 318.704 138.6 318.754C139.005 318.898 139.415 319.04 139.828 319.18C139.977 319.23 140.126 319.28 140.275 319.329C140.342 319.351 140.409 319.373 140.477 319.396C140.572 319.427 140.668 319.458 140.764 319.489C140.828 319.51 140.891 319.53 140.955 319.551C141.108 319.6 141.262 319.649 141.417 319.698C141.673 319.778 141.932 319.858 142.192 319.937C142.481 320.025 142.771 320.111 143.064 320.196L143.246 320.249C143.448 320.307 143.65 320.364 143.853 320.421C143.909 320.437 143.965 320.452 144.021 320.468C144.185 320.513 144.35 320.558 144.515 320.603C144.56 320.615 144.605 320.628 144.651 320.64C144.858 320.695 145.067 320.751 145.276 320.805C145.514 320.867 145.753 320.928 145.993 320.988L146.141 321.025C146.34 321.075 146.539 321.123 146.739 321.171L146.9 321.21C147.348 321.316 147.799 321.42 148.254 321.52C148.379 321.547 148.505 321.575 148.631 321.602L148.705 321.618C148.833 321.645 148.961 321.672 149.09 321.699C149.475 321.779 149.863 321.858 150.255 321.933C150.907 322.06 151.567 322.179 152.234 322.291C152.476 322.332 152.718 322.371 152.962 322.41C153.007 322.417 153.051 322.424 153.096 322.431C153.338 322.469 153.58 322.506 153.825 322.542C153.852 322.547 153.88 322.55 153.908 322.555C154.142 322.589 154.377 322.622 154.613 322.655C154.642 322.659 154.67 322.663 154.698 322.667C154.945 322.701 155.192 322.733 155.441 322.765C155.484 322.771 155.526 322.776 155.569 322.781C155.818 322.813 156.069 322.844 156.321 322.873C156.34 322.875 156.359 322.877 156.378 322.879C156.613 322.907 156.849 322.933 157.085 322.958C157.136 322.964 157.187 322.969 157.239 322.975C157.478 323 157.718 323.024 157.959 323.048C158.02 323.054 158.082 323.06 158.144 323.066C158.389 323.089 158.635 323.112 158.883 323.133C160.168 323.243 161.479 323.326 162.814 323.379L162.847 323.38C163.886 323.421 164.938 323.443 166.006 323.446C166.159 323.446 166.313 323.446 166.467 323.446C167.275 323.444 168.091 323.431 168.916 323.406C169.466 323.389 170.019 323.367 170.577 323.34C171.134 323.313 171.695 323.281 172.259 323.243C172.824 323.205 173.392 323.161 173.964 323.112C174.25 323.087 174.537 323.062 174.825 323.034C176.552 322.87 178.311 322.654 180.104 322.383C179.975 322.03 179.848 321.682 179.721 321.336L179.62 321.057L179.531 320.813C179.477 320.667 179.425 320.521 179.372 320.377C179.324 320.244 179.275 320.111 179.227 319.978L179.186 319.866C179.058 319.512 178.931 319.162 178.805 318.814L178.681 318.47L178.56 318.135L178.499 317.964C178.445 317.815 178.391 317.666 178.338 317.518L178.3 317.414C178.104 316.867 177.911 316.327 177.721 315.795L177.7 315.738L177.591 315.431L177.487 315.14L177.361 314.785L177.285 314.571C177.234 314.428 177.184 314.286 177.133 314.144L177.081 313.996L176.956 313.643L176.875 313.414C176.693 312.898 176.514 312.387 176.337 311.884L176.321 311.838C175.892 310.611 175.48 309.423 175.085 308.27L175.069 308.223C175.016 308.069 174.964 307.915 174.911 307.762L174.899 307.726C174.846 307.569 174.792 307.412 174.739 307.256L174.732 307.235C174.682 307.088 174.633 306.943 174.583 306.797L174.535 306.654C174.387 306.219 174.242 305.788 174.099 305.363L174.079 305.304C173.875 304.694 173.675 304.095 173.479 303.504L173.44 303.386C173.394 303.248 173.349 303.11 173.304 302.973L173.302 302.969C173.252 302.817 173.202 302.666 173.153 302.515L173.152 302.513C173.055 302.216 172.958 301.92 172.863 301.627L172.845 301.573C172.706 301.147 172.57 300.726 172.435 300.309L172.427 300.282C172.152 299.428 171.886 298.592 171.628 297.771L171.561 297.556L171.492 297.338L171.408 297.068L171.358 296.906L171.317 296.776C171.162 296.276 171.009 295.781 170.859 295.29L170.836 295.215L170.74 294.899L170.704 294.781L170.625 294.522L170.579 294.369L170.493 294.085L170.434 293.889L170.387 293.733L170.312 293.485L170.245 293.259L170.217 293.165C170.109 292.805 170.003 292.446 169.897 292.09L169.886 292.05C169.778 291.687 169.673 291.326 169.568 290.966L169.529 290.834L169.474 290.642L169.409 290.419L169.343 290.19L169.302 290.048L169.222 289.77L169.2 289.693L169.112 289.385L169.082 289.279L169 288.992L168.941 288.783L168.896 288.625L168.799 288.281L168.757 288.132L168.668 287.816C168.607 287.598 168.546 287.379 168.485 287.161L168.455 287.053L168.385 286.802L168.347 286.665L168.283 286.433L168.236 286.262L168.166 286.01L168.127 285.868L168.071 285.663L168.009 285.435L167.965 285.274C167.82 284.743 167.677 284.214 167.535 283.685L167.51 283.591L167.425 283.272L167.402 283.189L167.312 282.849L167.301 282.807L167.206 282.448L167.19 282.388L167.1 282.048L167.083 281.985C167.019 281.742 166.955 281.499 166.892 281.256C166.884 281.228 166.877 281.2 166.87 281.173C166.806 280.93 166.743 280.687 166.679 280.443C166.673 280.418 166.666 280.394 166.66 280.369C166.595 280.12 166.531 279.871 166.466 279.621C166.466 279.619 166.465 279.617 166.465 279.615C165.39 275.464 164.326 271.158 163.097 266.242C163.118 268.898 163.027 271.552 162.799 274.182Z" fill="#DC3910"/>
</g>
<defs>
<clipPath id="clip0_4350_20826">
<rect width="364" height="364" rx="48" fill="white"/>
</clipPath>
</defs>
</svg>
