<svg width="79" height="271" viewBox="0 0 79 271" fill="none" xmlns="http://www.w3.org/2000/svg">
<path d="M78.3912 188.699L78.4073 175.361C78.4073 175.361 75.6987 175.774 75.6987 173.498C75.6987 170.796 78.3987 169.076 78.3987 169.076L78.3409 153.434C78.3409 153.434 75.6987 153.007 75.6987 150.876C75.6987 148.744 78.3096 147.977 78.3096 147.977L78.2518 139.564C78.2518 139.564 75.6992 139.173 75.6992 137.148C75.6992 135.123 78.2079 134.107 78.2079 134.107L78.1316 125.693C78.1316 125.693 75.6992 125.296 75.6992 123.079C75.6992 120.862 78.0766 120.236 78.0766 120.236L75.6992 112.644H41.5924V113.091L2.71179 112.602L0.334393 120.193C0.334393 120.193 2.71179 120.819 2.71179 123.036C2.71179 125.253 0.279467 125.65 0.279467 125.65L0.203148 134.063C0.203148 134.063 2.71179 135.079 2.71179 137.105C2.71179 139.13 0.159206 139.521 0.159206 139.521L0.100813 147.933C0.100813 147.933 2.71179 148.701 2.71179 150.833C2.71179 152.965 0.0695915 153.391 0.0695915 153.391L0.00773155 170.433C0.00773155 170.433 2.71179 170.753 2.71179 173.455C2.71179 175.731 0.00195312 175.899 0.00195312 175.899L0.0192972 188.656C0.0192972 188.656 2.7112 190.368 2.7112 192.926C2.7112 194.745 0.0441577 194.692 0.0441577 194.692L0.948979 202.198L0.125673 205.952C0.125673 205.952 2.78174 206.939 2.74879 209.242C2.72277 211.044 0.18696 211.436 0.18696 211.436L1.09063 221.519L0.411286 224.624C0.411286 224.624 2.71063 225.531 2.71063 228.288C2.71063 230.33 0.556408 230.442 0.556408 230.442L3.81896 239.339L47.8435 238.771V238.461L74.5886 239.382L77.8511 230.484C77.8511 230.484 75.6969 230.372 75.6969 228.331C75.6969 225.574 77.9963 224.667 77.9963 224.667L77.3169 221.562L78.2102 212.181C78.2102 212.181 75.6969 212.416 75.6969 210.115C75.6969 207.812 78.279 206.154 78.279 206.154L77.4592 202.242L78.364 194.736C78.364 194.736 75.6969 194.788 75.6969 192.969C75.6992 190.411 78.3912 188.699 78.3912 188.699Z" fill="#5AA6E5"/>
<path d="M78.4057 175.414C68.9887 180.284 58.387 181.781 48.9462 181.781C41.7996 181.781 35.3201 180.928 30.5231 180.045C20.6892 178.234 8.86932 176.068 0.000351873 175.953C-0.00138261 180.124 0.00324324 184.281 0.0153846 188.389C11.6474 187.793 22.378 189.477 34.9125 191.748C48.7751 194.257 64.4837 195.694 78.389 188.752C78.4029 184.35 78.4081 179.888 78.4057 175.414Z" fill="url(#paint0_radial_4350_26162)"/>
<path d="M0.000351873 175.953C-0.00138261 180.124 0.00324324 184.282 0.0153846 188.389C1.3914 188.319 2.75124 188.295 4.10529 188.29L4.07812 176.14C2.66972 176.042 1.29601 175.97 0.000351873 175.953Z" fill="#8DCEF7"/>
<path d="M0.000351873 175.953C-0.00138261 180.124 0.00324324 184.282 0.0153846 188.389C1.00751 188.338 1.98518 188.33 2.964 188.318L2.93682 176.072C1.93082 176.013 0.941018 175.965 0.000351873 175.953Z" fill="#7FC1F6"/>
<path d="M0.000351873 175.953C-0.00138261 180.124 0.00324324 184.282 0.0153846 188.389C0.61378 188.359 1.20234 188.356 1.79322 188.347L1.68916 176.021C1.12198 175.996 0.541509 175.96 0.000351873 175.953Z" fill="#71B3F5"/>
<path d="M78.4063 175.414C77.1598 176.059 75.4866 176.813 74.2031 177.341L74.3569 190.496C75.7156 189.985 77.0627 189.415 78.3902 188.753C78.4035 184.35 78.4087 179.888 78.4063 175.414Z" fill="#8DCEF7"/>
<path d="M78.4075 175.414C77.4778 175.895 76.3116 176.436 75.2461 176.899L75.2941 190.12C76.3348 189.704 77.3697 189.262 78.3907 188.752C78.4046 184.35 78.4098 179.888 78.4075 175.414Z" fill="#7FC1F6"/>
<path d="M78.4051 175.414C77.7356 175.76 76.9429 176.137 76.1543 176.495L76.2173 189.734C76.9458 189.429 77.6714 189.111 78.3883 188.753C78.4022 184.35 78.4074 179.888 78.4051 175.414Z" fill="#71B3F5"/>
<path d="M33.9404 197.119C21.673 194.898 11.21 193.26 0.0371094 193.859C0.057345 197.994 0.0862488 202.055 0.124985 206.008C8.68464 205.135 20.615 206.067 35.6807 208.795C49.2518 211.252 64.5927 212.666 78.2795 206.209C78.3165 202.491 78.3448 198.675 78.3645 194.79C70.7189 198.108 62.7362 199.294 54.8536 199.294C47.6884 199.295 40.61 198.326 33.9404 197.119Z" fill="url(#paint1_radial_4350_26162)"/>
<path d="M0.0371094 193.861C0.057345 197.996 0.0862488 202.057 0.124985 206.01C1.37959 205.882 2.73885 205.81 4.14436 205.763L4.11776 193.758C2.76487 193.762 1.40735 193.787 0.0371094 193.861Z" fill="#8DCEF7"/>
<path d="M0.0371094 193.855C0.057345 197.991 0.0862488 202.052 0.124985 206.004C1.03327 205.912 2.00748 205.854 3.00249 205.809L2.97647 193.781C1.99938 193.794 1.02403 193.803 0.0371094 193.855Z" fill="#7FC1F6"/>
<path d="M0.0371094 193.858C0.057345 197.994 0.0862488 202.055 0.124985 206.007C0.705458 205.948 1.31831 205.906 1.94099 205.869L1.83924 193.812C1.24026 193.823 0.642443 193.826 0.0371094 193.858Z" fill="#71B3F5"/>
<path d="M78.3642 194.789C77.0026 195.38 75.6289 195.889 74.2477 196.344L74.0332 207.932C75.463 207.433 76.8806 206.867 78.2792 206.207C78.3162 202.49 78.3445 198.674 78.3642 194.789Z" fill="#8DCEF7"/>
<path d="M78.3635 194.789C77.3534 195.227 76.3347 195.609 75.3125 195.969L75.3541 207.436C76.3353 207.06 77.3129 206.663 78.2779 206.208C78.3155 202.49 78.3438 198.674 78.3635 194.789Z" fill="#7FC1F6"/>
<path d="M78.3645 194.789C77.662 195.094 76.9549 195.365 76.2461 195.627L76.3004 207.059C76.9636 206.793 77.6244 206.516 78.2789 206.207C78.3165 202.49 78.3448 198.674 78.3645 194.789Z" fill="#71B3F5"/>
<path d="M0.201172 134.163H78.2071C78.1828 131.282 78.1573 128.471 78.1307 125.75H0.278065C0.251469 128.471 0.225455 131.283 0.201172 134.163Z" fill="url(#paint2_radial_4350_26162)"/>
<path d="M0.277482 125.75C0.250887 128.471 0.225455 131.282 0.201172 134.163H4.96232L4.98255 125.75H0.277482Z" fill="#8DCEF7"/>
<path d="M0.277482 125.75C0.250887 128.471 0.225455 131.282 0.201172 134.163H3.35099L3.38914 125.75H0.277482Z" fill="#7FC1F6"/>
<path d="M0.277482 125.75C0.250887 128.471 0.225455 131.282 0.201172 134.163H2.03972L2.02931 125.75H0.277482Z" fill="#71B3F5"/>
<path d="M78.1271 125.75H73.6504L73.6909 134.163H78.2034C78.1791 131.283 78.1537 128.471 78.1271 125.75Z" fill="#8DCEF7"/>
<path d="M78.1273 125.75H75.0156L75.0989 134.163H78.2036C78.1793 131.283 78.1539 128.471 78.1273 125.75Z" fill="#7FC1F6"/>
<path d="M78.1281 125.75H76.1543L76.267 134.163H78.2039C78.1802 131.283 78.1547 128.471 78.1281 125.75Z" fill="#71B3F5"/>
<path d="M34.7075 214.155C19.7933 211.456 8.20809 210.563 0.185547 211.483C0.245097 216.185 0.320261 220.692 0.413922 224.92C11.1145 222.959 23.3969 222.769 34.8219 224.446C36.3246 224.666 37.9267 224.925 39.6103 225.198C50.5745 226.974 65.0146 229.292 77.996 224.714C78.0827 220.77 78.1527 216.584 78.2099 212.228C70.8465 215.249 63.187 216.331 55.6207 216.331C48.4555 216.331 41.3771 215.362 34.7075 214.155Z" fill="url(#paint3_radial_4350_26162)"/>
<path d="M0.185547 211.491C0.245097 216.193 0.320252 220.7 0.413914 224.928C1.64482 224.703 2.9133 224.524 4.18467 224.35L4.15576 211.219C2.75719 211.271 1.41125 211.351 0.185547 211.491Z" fill="#8DCEF7"/>
<path d="M0.185547 211.489C0.245097 216.19 0.320252 220.697 0.413914 224.926C1.2719 224.768 2.15996 224.649 3.04281 224.522L3.0139 211.273C2.02988 211.324 1.06955 211.387 0.185547 211.489Z" fill="#7FC1F6"/>
<path d="M0.185547 211.496C0.245097 216.197 0.320252 220.705 0.413914 224.933C0.963744 224.832 1.53323 224.756 2.09867 224.674L1.98651 211.344C1.36557 211.384 0.756769 211.43 0.185547 211.496Z" fill="#71B3F5"/>
<path d="M78.212 212.234C76.7943 212.816 75.364 213.315 73.9272 213.756L73.7012 225.973C75.1466 225.632 76.5816 225.22 77.9986 224.72C78.0848 220.777 78.1547 216.59 78.212 212.234Z" fill="#8DCEF7"/>
<path d="M78.211 212.234C77.1876 212.654 76.1556 213.019 75.1213 213.362L74.9473 225.645C75.9706 225.373 76.9893 225.076 77.9971 224.72C78.0838 220.777 78.1537 216.59 78.211 212.234Z" fill="#7FC1F6"/>
<path d="M78.2116 212.234C77.4999 212.526 76.7835 212.786 76.066 213.036L75.9082 225.375C76.6084 225.175 77.3062 224.964 77.9977 224.72C78.0844 220.777 78.1543 216.59 78.2116 212.234Z" fill="#71B3F5"/>
<path d="M60.8406 232.88C52.8747 232.88 45.2343 231.642 38.7393 230.591C37.0846 230.322 35.5102 230.067 34.0324 229.851C23.0393 228.239 10.802 228.498 0.554688 230.477C0.71715 236.291 0.921244 241.446 1.17563 245.688C1.39418 249.333 1.6873 253.249 4.98455 259.672C7.87477 265.304 10.1452 267.052 12.8886 267.444C14.989 267.744 17.3335 265.527 18.9962 265.527C20.659 265.527 23.4302 270.771 28.4607 270.984C35.0558 271.264 36.2485 265.868 39.2041 265.954C42.1602 266.039 43.353 271.264 49.9474 270.984C54.978 270.771 56.0863 265.783 59.4119 265.527C62.7375 265.272 62.3108 267.659 65.5196 267.444C68.2849 267.259 70.4195 265.244 73.4236 259.672C76.5503 253.874 77.014 249.333 77.2325 245.688C77.4858 241.461 77.6893 236.327 77.8518 230.537C72.2124 232.26 66.4458 232.88 60.8406 232.88Z" fill="url(#paint4_radial_4350_26162)"/>
<path d="M73.937 231.565C73.937 231.565 74.2857 241.567 72.9698 249.609C71.6521 257.661 69.0764 263.648 65.8786 264.9C63.6429 265.776 61.0741 264.08 59.6114 264.161C56.5419 264.332 53.6425 267.856 49.7202 268.311C47.2295 268.6 45.1666 267.956 41.8474 266.094C41.1028 265.676 39.6695 264.545 38.9202 264.616C35.3391 264.957 34.1452 269.107 28.2335 268.709C25.6185 269.05 22.3218 265.014 18.7974 264.502C17.108 264.257 14.8185 265.526 12.5446 264.787C9.25831 263.718 5.48119 255.95 4.64344 248.302C3.87448 241.281 4.06123 229.898 4.06123 229.898C2.81125 230.072 1.88735 230.226 0.554688 230.483C0.71715 236.298 0.921244 241.452 1.17563 245.694C1.39418 249.338 1.6873 253.255 4.98455 259.678C7.87535 265.31 10.1452 267.059 12.8886 267.45C14.989 267.75 17.3335 265.533 18.9962 265.533C20.659 265.533 23.4302 270.777 28.4607 270.991C35.0558 271.27 36.2485 265.874 39.2041 265.96C42.1602 266.046 43.353 271.27 49.9474 270.991C54.978 270.777 56.0863 265.789 59.4119 265.533C62.7375 265.278 62.3108 267.665 65.5196 267.45C68.2849 267.265 70.4195 265.25 73.4236 259.678C76.5503 253.88 77.014 249.339 77.2325 245.694C77.4858 241.467 77.6893 236.333 77.8518 230.544C76.6879 230.899 75.1095 231.3 73.937 231.565Z" fill="#8DCEF7"/>
<path d="M74.8031 231.361C74.8031 231.361 75.209 241.859 73.8937 249.901C72.576 257.953 69.3326 264.543 66.1342 265.794C63.8984 266.67 61.1163 264.477 59.6542 264.558C56.5847 264.729 53.728 268.765 49.8058 269.219C47.3151 269.508 44.9967 268.183 41.6769 266.32C40.9322 265.902 39.673 265.061 38.9202 265.069C36.4191 265.098 34.1845 269.261 28.2618 269.446C25.626 269.529 22.4635 265.325 18.9396 264.813C17.2502 264.568 14.7913 266.512 12.5446 265.694C7.89732 264.003 4.4723 256.474 3.63454 248.826C2.86501 241.805 2.81124 230.07 2.81124 230.07C1.56126 230.244 1.88735 230.224 0.554688 230.481C0.71715 236.296 0.921244 241.451 1.17563 245.693C1.39418 249.337 1.6873 253.253 4.98455 259.677C7.87535 265.309 10.1452 267.057 12.8886 267.448C14.989 267.748 17.3335 265.532 18.9962 265.532C20.659 265.532 23.4302 270.776 28.4607 270.989C35.0558 271.269 36.2485 265.873 39.2041 265.958C42.1602 266.044 43.353 271.269 49.9474 270.989C54.978 270.776 56.0863 265.788 59.4119 265.532C62.7375 265.276 62.3108 267.663 65.5196 267.448C68.2849 267.263 70.4195 265.248 73.4236 259.677C76.5503 253.878 77.014 249.338 77.2325 245.693C77.4858 241.466 77.6893 236.331 77.8518 230.542C76.6879 230.898 75.9756 231.096 74.8031 231.361Z" fill="#7FC1F6"/>
<path d="M75.9795 231.076C75.9795 231.076 76.1038 242.401 74.7879 250.443C73.4702 258.495 69.5873 265.091 66.3889 266.343C64.1532 267.219 61.1577 264.792 59.6956 264.872C56.6261 265.043 53.9013 269.834 49.9536 269.924C46.2233 270.01 44.9594 268.462 41.6402 266.599C40.8956 266.181 39.6861 265.418 38.9327 265.426C36.4316 265.455 34.2826 270.212 28.3599 270.052C24.9412 269.96 22.4621 265.661 18.9376 265.149C17.2482 264.904 14.7044 267.161 12.4576 266.343C7.81037 264.652 3.66092 256.597 2.82259 248.948C2.05363 241.928 1.88539 230.219 1.88539 230.219C0.635407 230.392 1.88539 230.219 0.552734 230.476C0.715197 236.291 0.919291 241.445 1.17368 245.687C1.39223 249.332 1.68535 253.248 4.9826 259.671C7.87339 265.303 10.1432 267.052 12.8866 267.443C14.9871 267.743 17.3315 265.526 18.9943 265.526C20.6571 265.526 23.4282 270.77 28.4588 270.984C35.0538 271.263 36.2466 265.868 39.2021 265.953C42.1583 266.039 43.351 271.263 49.9455 270.984C54.9761 270.77 56.0844 265.782 59.41 265.526C62.7355 265.271 62.3089 267.658 65.5177 267.443C68.283 267.258 70.4175 265.243 73.4217 259.671C76.5484 253.873 77.012 249.332 77.2306 245.687C77.4838 241.46 77.6873 236.326 77.8498 230.537C76.6871 230.893 76.575 230.937 75.9795 231.076Z" fill="#71B3F5"/>
<path d="M0.332031 120.29H78.0749C77.8638 100.196 77.6302 86.1266 77.6302 86.1266C77.6302 86.1266 77.8847 76.2863 75.2442 69.8942C73.0518 64.5861 53.3516 37.2796 52.8804 34.549C52.308 31.2275 52.3225 21.0328 52.3225 21.0328L39.2034 20.8125L27.2037 21.2791C27.2037 21.2791 26.3608 32.0924 25.7884 35.4139C25.3178 38.1446 6.11999 62.2446 3.16213 69.8942C0.667944 76.3453 0.776061 86.1266 0.776061 86.1266C0.776061 86.1266 0.54306 100.196 0.332031 120.29Z" fill="#E8F1FF"/>
<path d="M75.2448 69.8986C74.2636 67.5235 69.7777 60.7451 65.0778 53.7344L13.1874 53.9396C8.69742 60.2959 4.43234 66.614 3.1627 69.8986C0.668518 76.3497 0.776634 86.131 0.776634 86.131C0.776634 86.131 0.54306 100.2 0.332031 120.294H78.0749C77.8638 100.2 77.6303 86.131 77.6303 86.131C77.6303 86.131 77.8852 76.2913 75.2448 69.8986Z" fill="url(#paint5_radial_4350_26162)"/>
<path d="M77.6314 86.1284C77.6314 86.1284 77.8858 76.2882 75.2453 69.896C73.0529 64.588 53.3527 37.2815 52.8815 34.5508C52.3091 31.2293 52.3236 21.0346 52.3236 21.0346L50.1046 20.9062C50.0427 24.222 50.4081 34.3282 50.6591 35.018C53.7285 43.4591 69.7586 62.1325 72.2313 72.7909C72.4782 73.8541 73.3437 77.1514 73.5102 81.6587C74.0236 95.579 73.5224 120.291 73.5224 120.291H78.076C77.8649 100.197 77.6314 86.1284 77.6314 86.1284Z" fill="#8DCEF7"/>
<path d="M77.6303 86.1288C77.6303 86.1288 77.8847 76.2885 75.2443 69.8964C73.0519 64.5883 53.3517 37.2818 52.8805 34.5511C52.3081 31.2296 52.3225 21.0349 52.3225 21.0349L50.7754 20.9453C50.9263 21.7553 51.2026 34.1013 51.4536 34.7905C54.523 43.2322 71.8233 63.9725 73.5942 72.109C73.8266 73.1751 74.991 77.3506 75.1575 81.8579C75.6709 95.7783 74.9159 120.292 74.9159 120.292H78.0743C77.8639 100.198 77.6303 86.1288 77.6303 86.1288Z" fill="#7FC1F6"/>
<path d="M77.6295 86.1257C77.6295 86.1257 77.8839 76.2854 75.2435 69.8933C73.0511 64.5852 53.3509 37.2787 52.8797 34.548C52.3073 31.2265 52.3217 21.0318 52.3217 21.0318L51.3105 21.0312C51.4614 21.8413 51.7418 33.9277 51.9928 34.6168C55.0622 43.0586 72.7319 63.4867 74.5034 71.6225C74.7353 72.6892 75.7725 77.2336 75.939 81.7409C76.4524 95.6607 75.9292 120.289 75.9292 120.289H78.0741C77.8631 100.195 77.6295 86.1257 77.6295 86.1257Z" fill="#71B3F5"/>
<path d="M29.0579 21.2578L27.2037 21.2838C27.2037 21.2838 26.3608 32.0977 25.7884 35.4187C25.3178 38.1493 6.12056 62.2493 3.1627 69.899C0.668518 76.3501 0.776634 86.1314 0.776634 86.1314C0.776634 86.1314 0.54306 100.2 0.332031 120.294H4.91221C5.29611 116.791 4.44332 78.898 6.83054 71.5144C10.8048 59.2233 25.0351 46.1904 27.9767 36.5264C28.8509 33.6582 29.0168 28.0026 29.0579 21.2578Z" fill="#8DCEF7"/>
<path d="M28.3768 21.2266L27.2037 21.2722C27.2037 21.2722 26.3608 32.0861 25.7884 35.4071C25.3178 38.1377 6.12056 62.2377 3.1627 69.8874C0.668518 76.3385 0.776634 86.1198 0.776634 86.1198C0.776634 86.1198 0.54306 100.189 0.332031 120.283H3.46276C2.99387 108.082 3.19276 79.2906 5.49499 71.5028C9.16631 59.0845 22.6958 47.7427 27.3234 35.8332C27.9923 34.1132 28.0785 27.2452 28.3768 21.2266Z" fill="#7FC1F6"/>
<path d="M27.8698 21.2578L27.2037 21.2838C27.2037 21.2838 26.3608 32.0977 25.7884 35.4187C25.3178 38.1493 6.12057 62.2493 3.16271 69.899C0.668527 76.3501 0.776634 86.1314 0.776634 86.1314C0.776634 86.1314 0.54306 100.2 0.332031 120.294H2.26887C1.79998 108.094 2.1411 78.9188 4.44333 71.131C8.11464 58.7127 22.0917 47.5277 26.7192 35.6176C27.3876 33.897 27.5714 27.2765 27.8698 21.2578Z" fill="#71B3F5"/>
<path d="M78.3082 148.03C78.2909 145.181 78.2712 142.375 78.2504 139.617H0.156049C0.135235 142.375 0.115579 145.181 0.0976562 148.03H78.3082Z" fill="url(#paint6_radial_4350_26162)"/>
<path d="M0.156049 139.617C0.135235 142.375 0.115579 145.181 0.0976562 148.03H4.9276L4.94784 139.617H0.156049Z" fill="#8DCEF7"/>
<path d="M0.156049 139.617C0.135235 142.375 0.115579 145.181 0.0976562 148.03H3.28679L3.32494 139.617H0.156049Z" fill="#7FC1F6"/>
<path d="M0.156049 139.617C0.135235 142.375 0.115579 145.181 0.0976562 148.03H2.05589L2.04548 139.617H0.156049Z" fill="#71B3F5"/>
<path d="M78.2492 139.617H73.7188L73.7592 148.03H78.3076C78.2897 145.181 78.27 142.375 78.2492 139.617Z" fill="#8DCEF7"/>
<path d="M78.2511 139.617H75.1562L75.2395 148.03H78.3095C78.2916 145.181 78.272 142.375 78.2511 139.617Z" fill="#7FC1F6"/>
<path d="M78.2497 139.617H76.3418L76.4545 148.03H78.3081C78.2902 145.181 78.2705 142.375 78.2497 139.617Z" fill="#71B3F5"/>
<path d="M31.5115 174.676C42.5179 176.702 62.9374 178.559 78.3968 169.126C78.3858 163.87 78.3662 158.631 78.339 153.484H0.0665725C0.0370863 159.074 0.0162662 164.773 0.00585938 170.484C9.26624 170.582 20.9659 172.732 31.5115 174.676Z" fill="url(#paint7_radial_4350_26162)"/>
<path d="M0.0665725 153.484C0.0370864 159.075 0.0162662 164.773 0.00585938 170.485C1.56284 170.501 3.19326 170.58 4.87282 170.704L4.91387 153.484H0.0665725Z" fill="#8DCEF7"/>
<path d="M0.0665725 153.484C0.0370864 159.075 0.0162662 164.773 0.00585938 170.485C1.03267 170.496 2.10111 170.542 3.18516 170.602L3.26206 153.484H0.0665725Z" fill="#7FC1F6"/>
<path d="M0.0665725 153.484C0.0370864 159.075 0.0162663 164.773 0.00585938 170.485C0.677103 170.492 1.38477 170.53 2.08434 170.561L2.06238 153.484H0.0665725Z" fill="#71B3F5"/>
<path d="M78.3387 153.484H73.7852L73.8713 171.474C75.4121 170.776 76.9327 170.019 78.396 169.126C78.3856 163.87 78.3659 158.631 78.3387 153.484Z" fill="#8DCEF7"/>
<path d="M78.3404 153.484H75.293L75.4629 170.711C76.4574 170.222 77.442 169.71 78.3977 169.126C78.3873 163.87 78.3676 158.631 78.3404 153.484Z" fill="#7FC1F6"/>
<path d="M78.3393 153.484H76.5273L76.7494 170.053C77.305 169.76 77.856 169.456 78.3971 169.126C78.3861 163.87 78.3665 158.631 78.3393 153.484Z" fill="#71B3F5"/>
<path d="M52.3687 25.5686H26.8418L27.1529 21.5938H52.3687V25.5686Z" fill="#379CE4"/>
<path d="M55.438 25.5769C55.438 26.4782 54.6887 27.2084 53.7636 27.2084H25.106C24.1815 27.2084 23.4316 26.4782 23.4316 25.5769C23.4316 24.6761 24.1815 23.9453 25.106 23.9453H53.7636C54.6887 23.9453 55.438 24.6761 55.438 25.5769Z" fill="url(#paint8_linear_4350_26162)"/>
<path d="M54.6279 18.5234H24.3965V22.1942H54.6279V18.5234Z" fill="url(#paint9_linear_4350_26162)"/>
<path opacity="0.8" d="M54.6279 18.5234H24.3965V20.8488H54.6279V18.5234Z" fill="url(#paint10_linear_4350_26162)"/>
<path d="M55.9745 17.1557C55.9745 18.4144 55.3923 19.3423 53.4821 19.3423L25.3702 19.4348C23.46 19.4348 22.7344 18.415 22.7344 17.1563V2.63062C22.7344 1.37197 24.2833 0.403556 26.1929 0.3521C29.4832 0.263641 32.7284 0 39.3541 0C42.6456 0 49.2303 0.143962 52.5154 0.3521C54.7205 0.491436 55.9739 1.37197 55.9739 2.63062V17.1557H55.9745Z" fill="url(#paint11_linear_4350_26162)"/>
<path d="M52.5173 0.3521C49.2322 0.143962 42.6476 0 39.3561 0C32.7298 0 29.4852 0.263642 26.1949 0.3521C24.2858 0.403556 22.7363 1.37197 22.7363 2.63062V3.0469H55.9765V2.63062C55.9759 1.37255 54.7219 0.492015 52.5173 0.3521Z" fill="url(#paint12_linear_4350_26162)"/>
<path opacity="0.8" d="M52.1129 16.9422C52.1129 17.4966 51.6972 17.9458 51.1844 17.9458C50.6715 17.9458 50.2559 17.4966 50.2559 16.9422V4.74587C50.2559 4.19142 50.6715 3.74219 51.1844 3.74219C51.6972 3.74219 52.1129 4.19142 52.1129 4.74587V16.9422Z" fill="#2975AB"/>
<path opacity="0.8" d="M54.6285 16.9422C54.6285 17.4966 54.2128 17.9458 53.7 17.9458C53.1872 17.9458 52.7715 17.4966 52.7715 16.9422V4.74587C52.7715 4.19142 53.1872 3.74219 53.7 3.74219C54.2128 3.74219 54.6285 4.19142 54.6285 4.74587V16.9422Z" fill="#2975AB"/>
<path opacity="0.8" d="M49.4762 16.9422C49.4762 17.4966 49.0605 17.9458 48.5477 17.9458C48.0348 17.9458 47.6191 17.4966 47.6191 16.9422V4.74587C47.6191 4.19142 48.0348 3.74219 48.5477 3.74219C49.0605 3.74219 49.4762 4.19142 49.4762 4.74587V16.9422Z" fill="#2975AB"/>
<path opacity="0.8" d="M46.8414 16.9422C46.8414 17.4966 46.4257 17.9458 45.9129 17.9458C45.4001 17.9458 44.9844 17.4966 44.9844 16.9422V4.74587C44.9844 4.19142 45.4001 3.74219 45.9129 3.74219C46.4257 3.74219 46.8414 4.19142 46.8414 4.74587V16.9422Z" fill="#2975AB"/>
<path opacity="0.8" d="M44.2067 16.9422C44.2067 17.4966 43.791 17.9458 43.2781 17.9458C42.7653 17.9458 42.3496 17.4966 42.3496 16.9422V4.74587C42.3496 4.19142 42.7653 3.74219 43.2781 3.74219C43.791 3.74219 44.2067 4.19142 44.2067 4.74587V16.9422Z" fill="#2975AB"/>
<path opacity="0.8" d="M41.5719 16.9422C41.5719 17.4966 41.1562 17.9458 40.6434 17.9458C40.1305 17.9458 39.7148 17.4966 39.7148 16.9422V4.74587C39.7148 4.19142 40.1305 3.74219 40.6434 3.74219C41.1562 3.74219 41.5719 4.19142 41.5719 4.74587V16.9422Z" fill="#2975AB"/>
<path opacity="0.8" d="M38.9352 16.9422C38.9352 17.4966 38.5195 17.9458 38.0067 17.9458C37.4938 17.9458 37.0781 17.4966 37.0781 16.9422V4.74587C37.0781 4.19142 37.4938 3.74219 38.0067 3.74219C38.5195 3.74219 38.9352 4.19142 38.9352 4.74587V16.9422Z" fill="#2975AB"/>
<path opacity="0.8" d="M36.2985 16.9422C36.2985 17.4966 35.8828 17.9458 35.3699 17.9458C34.8571 17.9458 34.4414 17.4966 34.4414 16.9422V4.74587C34.4414 4.19142 34.8571 3.74219 35.3699 3.74219C35.8828 3.74219 36.2985 4.19142 36.2985 4.74587V16.9422Z" fill="#2975AB"/>
<path opacity="0.8" d="M33.6656 16.9422C33.6656 17.4966 33.25 17.9458 32.7371 17.9458C32.2243 17.9458 31.8086 17.4966 31.8086 16.9422V4.74587C31.8086 4.19142 32.2243 3.74219 32.7371 3.74219C33.25 3.74219 33.6656 4.19142 33.6656 4.74587V16.9422Z" fill="#2975AB"/>
<path opacity="0.8" d="M31.0289 16.9422C31.0289 17.4966 30.6132 17.9458 30.1004 17.9458C29.5876 17.9458 29.1719 17.4966 29.1719 16.9422V4.74587C29.1719 4.19142 29.5876 3.74219 30.1004 3.74219C30.6132 3.74219 31.0289 4.19142 31.0289 4.74587V16.9422Z" fill="#2975AB"/>
<path opacity="0.8" d="M28.3785 16.9422C28.3785 17.4966 27.9628 17.9458 27.45 17.9458C26.9372 17.9458 26.5215 17.4966 26.5215 16.9422V4.74587C26.5215 4.19142 26.9372 3.74219 27.45 3.74219C27.9628 3.74219 28.3785 4.19142 28.3785 4.74587V16.9422Z" fill="#2975AB"/>
<path opacity="0.8" d="M25.7418 16.9422C25.7418 17.4966 25.3261 17.9458 24.8133 17.9458C24.3005 17.9458 23.8848 17.4966 23.8848 16.9422V4.74587C23.8848 4.19142 24.3005 3.74219 24.8133 3.74219C25.3261 3.74219 25.7418 4.19142 25.7418 4.74587V16.9422Z" fill="#2975AB"/>
<path d="M62.1808 53.6662C62.1808 53.9391 52.1289 54.1605 39.7297 54.1605C27.3299 54.1605 17.1387 54.1287 17.1387 53.8558C17.1387 53.5829 27.3299 53.1719 39.7297 53.1719C52.1289 53.1719 62.1808 53.3933 62.1808 53.6662Z" fill="#5AA6E5"/>
<path d="M60.8045 54.4389C60.8045 54.8233 51.1874 55.1356 39.3241 55.1356C27.4609 55.1356 17.8438 54.8233 17.8438 54.4389C17.8438 54.0538 27.4609 53.7422 39.3241 53.7422C51.1874 53.7422 60.8045 54.0538 60.8045 54.4389Z" fill="url(#paint13_radial_4350_26162)"/>
<defs>
<radialGradient id="paint0_radial_4350_26162" cx="0" cy="0" r="1" gradientUnits="userSpaceOnUse" gradientTransform="translate(39.203 184.617) scale(39.1673 39.1672)">
<stop stop-color="#E3ECFB"/>
<stop offset="0.2505" stop-color="#D6E9FC"/>
<stop offset="0.7136" stop-color="#B3E1FE"/>
<stop offset="1" stop-color="#9BDCFF"/>
</radialGradient>
<radialGradient id="paint1_radial_4350_26162" cx="0" cy="0" r="1" gradientUnits="userSpaceOnUse" gradientTransform="translate(39.201 202.297) scale(39.3389 39.3389)">
<stop stop-color="#E3ECFB"/>
<stop offset="0.2505" stop-color="#D6E9FC"/>
<stop offset="0.7136" stop-color="#B3E1FE"/>
<stop offset="1" stop-color="#9BDCFF"/>
</radialGradient>
<radialGradient id="paint2_radial_4350_26162" cx="0" cy="0" r="1" gradientUnits="userSpaceOnUse" gradientTransform="translate(39.2042 129.957) scale(38.8251 38.8251)">
<stop stop-color="#E3ECFB"/>
<stop offset="0.2505" stop-color="#D6E9FC"/>
<stop offset="0.7136" stop-color="#B3E1FE"/>
<stop offset="1" stop-color="#9BDCFF"/>
</radialGradient>
<radialGradient id="paint3_radial_4350_26162" cx="0" cy="0" r="1" gradientUnits="userSpaceOnUse" gradientTransform="translate(39.1978 219.259) scale(38.6616 38.6616)">
<stop stop-color="#E3ECFB"/>
<stop offset="0.2505" stop-color="#D6E9FC"/>
<stop offset="0.7136" stop-color="#B3E1FE"/>
<stop offset="1" stop-color="#9BDCFF"/>
</radialGradient>
<radialGradient id="paint4_radial_4350_26162" cx="0" cy="0" r="1" gradientUnits="userSpaceOnUse" gradientTransform="translate(39.2031 249.896) scale(37.4631 37.4631)">
<stop stop-color="#E3ECFB"/>
<stop offset="0.2505" stop-color="#D6E9FC"/>
<stop offset="0.7136" stop-color="#B3E1FE"/>
<stop offset="1" stop-color="#9BDCFF"/>
</radialGradient>
<radialGradient id="paint5_radial_4350_26162" cx="0" cy="0" r="1" gradientUnits="userSpaceOnUse" gradientTransform="translate(39.204 87.0143) scale(51.0836 51.0836)">
<stop stop-color="#E3ECFB"/>
<stop offset="0.2505" stop-color="#D6E9FC"/>
<stop offset="0.7136" stop-color="#B3E1FE"/>
<stop offset="1" stop-color="#9BDCFF"/>
</radialGradient>
<radialGradient id="paint6_radial_4350_26162" cx="0" cy="0" r="1" gradientUnits="userSpaceOnUse" gradientTransform="translate(39.203 143.824) scale(38.9957 38.9956)">
<stop stop-color="#E3ECFB"/>
<stop offset="0.2505" stop-color="#D6E9FC"/>
<stop offset="0.7136" stop-color="#B3E1FE"/>
<stop offset="1" stop-color="#9BDCFF"/>
</radialGradient>
<radialGradient id="paint7_radial_4350_26162" cx="0" cy="0" r="1" gradientUnits="userSpaceOnUse" gradientTransform="translate(39.2013 164.9) scale(38.9996 38.9996)">
<stop stop-color="#E3ECFB"/>
<stop offset="0.2505" stop-color="#D6E9FC"/>
<stop offset="0.7136" stop-color="#B3E1FE"/>
<stop offset="1" stop-color="#9BDCFF"/>
</radialGradient>
<linearGradient id="paint8_linear_4350_26162" x1="39.435" y1="23.9892" x2="39.435" y2="27.2863" gradientUnits="userSpaceOnUse">
<stop stop-color="#64ABDB"/>
<stop offset="0.5" stop-color="#CEDEF8"/>
<stop offset="0.5257" stop-color="#C5D8F5"/>
<stop offset="0.6827" stop-color="#92B7E6"/>
<stop offset="0.8197" stop-color="#6D9FDA"/>
<stop offset="0.9301" stop-color="#5690D4"/>
<stop offset="1" stop-color="#4E8BD1"/>
</linearGradient>
<linearGradient id="paint9_linear_4350_26162" x1="22.2648" y1="20.3588" x2="56.4567" y2="20.3588" gradientUnits="userSpaceOnUse">
<stop stop-color="#45B1F4"/>
<stop offset="0.2742" stop-color="#C6DDF4"/>
<stop offset="0.6344" stop-color="#45B1F4"/>
<stop offset="1" stop-color="#3485B7"/>
</linearGradient>
<linearGradient id="paint10_linear_4350_26162" x1="39.5232" y1="20.819" x2="39.501" y2="18.5162" gradientUnits="userSpaceOnUse">
<stop stop-color="white"/>
<stop offset="0.1986" stop-color="#D8EAF3"/>
<stop offset="0.4495" stop-color="#ADD3E5"/>
<stop offset="0.6757" stop-color="#8EC2DB"/>
<stop offset="0.8669" stop-color="#7BB8D5"/>
<stop offset="1" stop-color="#74B4D3"/>
</linearGradient>
<linearGradient id="paint11_linear_4350_26162" x1="22.2655" y1="9.71719" x2="56.4573" y2="9.71719" gradientUnits="userSpaceOnUse">
<stop stop-color="#45B1F4"/>
<stop offset="0.2742" stop-color="#9DD3F4"/>
<stop offset="0.6344" stop-color="#45B1F4"/>
<stop offset="1" stop-color="#3485B7"/>
</linearGradient>
<linearGradient id="paint12_linear_4350_26162" x1="22.7359" y1="1.52362" x2="55.9757" y2="1.52362" gradientUnits="userSpaceOnUse">
<stop stop-color="#B0DCF8"/>
<stop offset="1" stop-color="#45B1F4"/>
</linearGradient>
<radialGradient id="paint13_radial_4350_26162" cx="0" cy="0" r="1" gradientUnits="userSpaceOnUse" gradientTransform="translate(39.3239 54.4388) scale(21.4745 0.696843)">
<stop stop-color="#E3ECFB"/>
<stop offset="0.1053" stop-color="#DFE7F6"/>
<stop offset="0.2301" stop-color="#D1DAE8"/>
<stop offset="0.3648" stop-color="#BCC3D0"/>
<stop offset="0.5065" stop-color="#9EA4AE"/>
<stop offset="0.6538" stop-color="#777B83"/>
<stop offset="0.8057" stop-color="#474A4F"/>
<stop offset="0.9587" stop-color="#101112"/>
<stop offset="1"/>
</radialGradient>
</defs>
</svg>
