<svg width="364" height="364" viewBox="0 0 364 364" fill="none" xmlns="http://www.w3.org/2000/svg">
<path d="M90.549 317.436C90.4356 317.355 90.3091 317.257 90.1858 317.179C90.0987 317.125 95.6315 307.315 96.1493 306.383C98.0251 303.015 99.9104 299.653 101.818 296.303C104.983 290.738 108.191 285.193 111.549 279.744C113.751 276.17 115.984 272.558 118.575 269.255C119.262 268.375 119.991 267.465 120.858 266.763C121.218 266.471 121.798 266.041 122.229 266.37C122.727 266.75 122.691 267.596 122.64 268.177C122.531 269.414 122.165 270.645 121.787 271.831C120.45 275.998 118.597 280.023 116.742 283.987C113.983 289.882 111.028 295.685 108.016 301.455C106.219 304.898 104.4 308.327 102.56 311.749C101.58 313.572 100.596 315.392 99.6072 317.209C99.1213 318.106 98.6322 319.002 98.1431 319.897C97.8952 320.349 97.648 320.803 97.4 321.255C97.2411 321.545 97.0382 321.639 97.3452 321.83C97.5353 321.946 97.7236 322.066 97.9103 322.189C98.3612 322.483 98.8148 322.773 99.2779 323.046C106.249 310.345 113.252 297.63 120.841 285.287C123.08 281.646 125.346 277.981 127.94 274.586C128.648 273.657 129.387 272.71 130.258 271.936C130.575 271.657 131.197 271.095 131.638 271.343C132.085 271.596 131.931 272.446 131.862 272.871C131.667 274.047 131.258 275.207 130.848 276.328C129.353 280.421 127.458 284.382 125.562 288.306C122.722 294.186 119.726 299.994 116.687 305.773C114.87 309.224 113.036 312.665 111.183 316.098C110.198 317.926 109.208 319.754 108.215 321.577C107.725 322.476 107.235 323.373 106.745 324.271C106.496 324.725 106.247 325.178 105.997 325.634C105.872 325.862 105.747 326.09 105.622 326.317C105.815 326.455 106.008 326.592 106.206 326.721C106.622 326.992 107.093 327.181 107.532 327.414C108.071 326.435 108.612 325.457 109.154 324.481C110.171 322.648 111.194 320.818 112.224 318.992C114.163 315.551 116.124 312.122 118.111 308.709C121.476 302.932 124.911 297.194 128.518 291.564C130.991 287.701 133.522 283.83 136.384 280.248C137.223 279.196 138.097 278.145 139.096 277.251C139.545 276.85 140.219 276.226 140.852 276.282C143.209 276.486 136.401 290.861 135.934 291.861C129.873 304.841 123.049 317.484 116.173 330.052C116.047 330.28 115.923 330.507 115.798 330.735C115.604 331.088 115.755 330.978 116.006 331.159C116.267 331.3 116.529 331.445 116.777 331.608C116.955 331.722 117.131 331.841 117.313 331.95C117.635 332.14 117.743 332.324 117.96 331.97C118.322 331.38 118.686 330.789 119.05 330.2C119.937 328.759 120.827 327.318 121.719 325.879C123.987 322.211 126.262 318.546 128.537 314.879C133.774 306.45 139.018 298.022 144.264 289.598C147.997 283.603 151.731 277.61 155.466 271.618C156.385 270.145 157.26 268.79 157.789 267.105C159.163 262.713 158.148 258.133 157.157 253.901C156.043 249.156 154.797 244.341 155.268 239.332C155.482 237.067 155.955 234.503 157.117 232.482C158.21 230.582 159.331 228.7 160.443 226.81C162.693 222.997 164.948 219.184 167.203 215.371C170.359 210.037 173.518 204.704 176.679 199.371C180.503 192.919 184.329 186.465 188.155 180.013C192.408 172.842 196.661 165.674 200.915 158.502C205.357 151.017 209.799 143.532 214.241 136.048C218.634 128.647 223.026 121.249 227.418 113.848C231.522 106.935 235.626 100.025 239.729 93.1127C243.306 87.0893 246.881 81.0674 250.458 75.0439C253.268 70.3103 256.078 65.5791 258.889 60.8464C260.694 57.8067 262.5 54.7679 264.306 51.7267C265.32 50.0194 266.657 48.3663 266.453 46.2894C266.167 43.4265 264.219 40.8355 262.16 39.1019C259.872 37.1788 256.902 36.2811 253.891 36.3625C251.64 36.4206 248.915 37.0643 247.756 39.3481C246.823 41.1919 245.889 43.0356 244.956 44.8754C243.001 48.7341 241.047 52.5912 239.091 56.4474C236.325 61.9013 233.562 67.3569 230.797 72.8116C227.433 79.4477 224.07 86.0822 220.704 92.719C216.951 100.121 213.199 107.521 209.448 114.924C205.517 122.675 201.587 130.426 197.656 138.174C193.759 145.858 189.863 153.542 185.965 161.224C182.313 168.423 178.662 175.621 175.007 182.82C171.811 189.122 168.614 195.419 165.414 201.719C162.885 206.703 160.353 211.685 157.82 216.669C156.166 219.92 154.513 223.172 152.855 226.422C151.911 228.27 151.114 229.951 149.768 231.552C146.347 235.623 141.723 237.988 136.967 239.841C132.761 241.482 128.2 242.798 124.595 245.773C122.777 247.272 121.497 249.129 120.458 251.224C119.376 253.413 118.293 255.6 117.209 257.79C113.287 265.712 109.362 273.632 105.434 281.552C101.199 290.089 96.9618 298.624 92.7077 307.152C91.7817 309.008 90.8541 310.863 89.925 312.718C89.5394 313.491 89.1507 314.264 88.7619 315.036C88.5976 315.361 88.4333 315.687 88.2698 316.011C88.2476 316.067 90.3081 317.263 90.549 317.436C89.6415 316.782 90.6179 317.486 90.549 317.436Z" fill="#58595B"/>
<path d="M135.346 238.443C141.666 235.727 149.177 233.713 152.664 226.92C154.154 224.021 155.628 221.113 157.105 218.207C159.754 213.001 162.401 207.791 165.046 202.581C168.565 195.65 172.083 188.719 175.602 181.787C179.697 173.714 183.793 165.643 187.888 157.572C192.266 148.942 196.64 140.314 201.017 131.685C205.379 123.083 209.742 114.477 214.105 105.874C218.158 97.8763 222.212 89.88 226.266 81.8852C229.715 75.0788 233.166 68.2732 236.615 61.4692C239.165 56.4355 241.716 51.4042 244.267 46.3706C244.788 45.3414 245.309 44.3139 245.83 43.2848C249.015 44.9334 252.201 46.5789 255.389 48.2252C254.814 49.266 254.239 50.3083 253.663 51.3491C252.054 54.2643 250.442 57.1803 248.83 60.0963C246.358 64.5726 243.887 69.0475 241.414 73.523C238.253 79.248 235.091 84.9706 231.929 90.6932C228.253 97.3503 224.576 104.009 220.9 110.662C216.88 117.94 212.86 125.216 208.841 132.494C204.651 140.076 200.465 147.66 196.276 155.243C192.093 162.821 187.907 170.396 183.723 177.971C179.714 185.227 175.707 192.483 171.698 199.738C168.04 206.358 164.384 212.982 160.725 219.603C157.59 225.277 154.458 230.95 151.325 236.625C148.887 241.038 146.45 245.452 144.013 249.863C142.446 252.701 140.877 255.539 139.31 258.377C139.182 258.611 137.822 261.281 137.664 261.196C132.152 258.254 126.641 255.313 121.131 252.372C120.875 252.236 120.619 252.1 120.364 251.962C120.314 251.934 120.262 251.908 120.211 251.88C120.179 251.863 120.847 250.574 120.922 250.426C121.798 248.676 122.673 246.931 123.883 245.383C126.736 241.74 131.339 240.164 135.346 238.443C127.081 241.991 141.101 235.97 135.346 238.443Z" fill="#A7A9AC"/>
<path d="M245.832 43.2869C246.573 41.8248 247.313 40.3627 248.055 38.899C248.352 38.3123 248.625 37.7022 248.976 37.1408C250.007 35.4896 251.566 34.2283 253.368 33.6435C255.853 32.8331 258.479 33.3334 260.766 34.2871C263.51 35.4334 266.141 37.2394 267.552 39.9884C268.77 42.3652 268.951 45.4941 267.461 47.9381C267.085 48.5556 266.703 49.1776 266.324 49.7974C264.572 52.663 262.819 55.5262 261.067 58.3918C258.207 63.0697 255.35 67.7444 252.497 72.4233C248.801 78.4816 245.108 84.5441 241.421 90.6091C237.154 97.6248 232.896 104.645 228.644 111.668C224.076 119.215 219.515 126.766 214.967 134.326C210.364 141.974 205.772 149.631 201.199 157.295C196.826 164.621 192.471 171.955 188.138 179.305C184.265 185.877 180.41 192.46 176.593 199.067C173.478 204.458 170.386 209.863 167.365 215.306C165.267 219.082 163.18 222.872 161.26 226.742C160.684 227.899 160.119 229.064 159.629 230.26C159.476 230.633 159.33 231.012 159.214 231.397C158.779 232.848 158.163 234.24 157.798 235.719C156.313 241.714 157.989 247.868 159.092 253.647C159.98 258.31 160.509 263.088 157.875 267.464C155.192 271.923 152.527 276.389 149.846 280.851C145.277 288.463 140.696 296.066 136.09 303.656C131.697 310.895 127.294 318.13 122.796 325.304C121.516 327.341 120.231 329.377 118.913 331.391C118.16 332.541 117.418 333.725 116.557 334.798C116.651 333.903 116.51 332.844 115.894 332.201C115.69 331.987 116.279 331.257 116.441 330.983C116.696 330.549 116.952 330.115 117.209 329.681C117.74 328.78 118.268 327.88 118.798 326.978C120.556 323.987 122.306 320.993 124.048 317.993C126.507 313.757 128.948 309.51 131.314 305.223C135.255 298.076 139.146 290.748 142.202 283.185C142.393 282.714 145.855 274.518 143.23 275.186C142.561 275.357 141.946 275.813 141.406 276.248C140.158 277.258 139.069 278.488 138.044 279.73C134.605 283.893 131.75 288.53 128.937 293.139C123.602 301.871 118.432 310.702 113.115 319.446C111.792 321.623 110.464 323.798 109.093 325.945C108.644 326.648 108.189 327.35 107.715 328.038C107.649 328.137 107.019 329.15 106.898 329.118C106.883 329.114 107.495 327.133 107.534 326.99C107.655 326.551 107.773 326.099 107.806 325.646C107.816 325.508 107.823 325.354 107.775 325.226C107.666 324.932 108.028 324.502 108.189 324.199C110.208 320.421 112.195 316.627 114.161 312.821C117.738 305.898 121.235 298.934 124.71 291.96C126.299 288.767 127.978 285.603 129.266 282.276C130.276 279.662 130.989 276.954 131.982 274.338C132.471 273.051 133.006 271.751 133.27 270.398C133.325 270.111 133.459 269.609 133.301 269.338C133.092 268.979 131.383 270.977 131.31 271.066C129.478 273.278 127.909 275.738 126.368 278.164C124.675 280.824 123.039 283.526 121.43 286.243C118.926 290.463 116.469 294.714 114.003 298.956C111.238 303.716 108.472 308.475 105.665 313.211C103.63 316.642 101.616 320.108 99.3845 323.413C99.094 323.842 98.8013 324.267 98.4835 324.675C97.9257 325.393 97.0641 324.039 96.8476 323.583C96.5545 322.963 96.9811 322.484 97.2737 321.913C98.7782 318.987 100.288 316.06 101.791 313.134C106.341 304.279 110.894 295.423 115.324 286.51C117.702 281.726 120.062 276.917 122.053 271.96C122.72 270.3 123.371 268.61 123.809 266.878C123.988 266.163 124.211 265.327 124.076 264.599C123.909 263.7 123.201 264.285 122.776 264.691C121.973 265.455 121.289 266.362 120.627 267.253C119.237 269.121 117.956 271.075 116.702 273.04C110.875 282.172 105.633 291.691 100.23 301.078C97.8464 305.218 95.4635 309.36 93.0233 313.468C92.1936 314.865 91.3598 316.262 90.49 317.635C90.212 318.074 89.9309 318.512 89.6364 318.941C89.2691 319.468 89.0389 319.623 88.3674 319.588C89.867 316.392 91.3674 313.193 92.867 309.996C96.216 302.861 99.5643 295.722 102.913 288.587C106.382 281.191 109.85 273.797 113.32 266.403C115.183 262.433 117.045 258.464 118.907 254.493C119.319 253.615 119.768 252.755 120.204 251.89C125.567 254.752 130.928 257.613 136.288 260.475C136.368 260.517 137.737 261.258 137.744 261.245C137.793 261.159 137.84 261.074 137.888 260.986C138.197 260.426 138.507 259.865 138.817 259.304C140.219 256.764 141.622 254.225 143.025 251.686C145.327 247.518 147.629 243.352 149.93 239.184C152.959 233.704 155.987 228.221 159.014 222.74C162.594 216.258 166.175 209.776 169.755 203.293C173.717 196.123 177.675 188.952 181.635 181.783C185.802 174.239 189.969 166.694 194.136 159.151C198.338 151.547 202.537 143.941 206.736 136.337C210.798 128.986 214.857 121.634 218.917 114.285C222.663 107.501 226.411 100.717 230.158 93.9323C233.419 88.0286 236.68 82.1249 239.942 76.2197C242.543 71.5111 245.145 66.8009 247.748 62.0907C249.515 58.8873 251.284 55.6847 253.055 52.483C253.818 51.099 254.582 49.7173 255.346 48.3333C255.363 48.3018 255.38 48.2703 255.397 48.2388C252.203 46.5826 249.017 44.9355 245.832 43.2869Z" fill="#58595B"/>
<path d="M87.0295 318.219C86.7684 319.144 87.4756 320.117 88.4358 319.876C88.8318 319.778 89.1849 319.582 89.3853 319.217C89.9252 318.233 90.4634 317.251 91.0024 316.269C93.0046 312.623 95.0131 308.98 97.032 305.341C100.598 298.908 104.187 292.487 107.868 286.118C110.644 281.31 113.458 276.513 116.468 271.848C118.138 269.262 119.847 266.379 122.101 264.261C122.44 263.941 123.074 263.322 123.578 263.513C124.122 263.721 124.142 264.531 124.117 265.037C124.056 266.19 123.703 267.349 123.347 268.45C122.789 270.184 122.106 271.881 121.396 273.56C119.3 278.512 116.917 283.346 114.503 288.149C111.269 294.59 107.922 300.975 104.556 307.35C102.64 310.978 100.713 314.602 98.7869 318.226C98.3057 319.126 97.8259 320.03 97.3454 320.932C97.1013 321.389 96.8597 321.844 96.6165 322.298C96.4553 322.603 96.1905 322.952 96.111 323.287C95.8603 324.338 96.4757 325.423 97.6327 325.163C97.9927 325.082 98.3389 324.876 98.6102 324.613C98.8331 324.397 98.9898 323.955 99.1432 323.682C99.4382 323.156 99.7323 322.631 100.027 322.105C101.063 320.257 102.096 318.411 103.134 316.565C105.106 313.048 107.082 309.535 109.066 306.023C112.505 299.937 115.962 293.858 119.511 287.834C122.081 283.47 124.676 279.109 127.494 274.902C128.401 273.547 129.329 272.203 130.349 270.933C130.926 270.215 131.556 269.413 132.333 268.911C133.867 267.922 133.258 270.57 133.066 271.249C132.094 274.65 130.474 277.928 128.964 281.121C126.442 286.451 123.749 291.701 121.032 296.932C117.529 303.68 113.956 310.392 110.371 317.099C109.385 318.945 108.398 320.79 107.41 322.637C106.926 323.541 106.44 324.444 105.957 325.349C105.712 325.805 105.467 326.26 105.223 326.716C105.028 327.079 104.71 327.502 104.598 327.896C104.309 328.915 105.181 329.971 106.221 329.602C106.478 329.511 106.722 329.335 106.898 329.119C107.454 328.145 108.01 327.174 108.566 326.201C115.824 313.519 123.059 300.793 130.861 288.438C133.241 284.67 135.65 280.876 138.407 277.375C139.18 276.39 139.99 275.392 140.937 274.577C141.316 274.251 141.983 273.674 142.507 273.896C142.988 274.103 142.868 274.914 142.805 275.34C142.637 276.493 142.236 277.632 141.839 278.729C140.375 282.775 138.499 286.689 136.627 290.565C130.366 303.535 123.478 316.218 116.581 328.858C116.088 329.761 115.595 330.663 115.101 331.564C114.783 332.143 114.081 332.971 114.092 333.638C114.111 334.777 115.256 335.625 116.301 334.993C116.596 334.813 116.731 334.519 116.915 334.228C117.825 332.771 118.725 331.306 119.626 329.844C123.257 323.953 126.882 318.054 130.505 312.159C135.023 304.808 139.538 297.453 144.053 290.098C147.615 284.295 151.177 278.492 154.738 272.688C155.584 271.306 156.433 269.926 157.279 268.544C158.711 266.212 159.313 263.516 159.292 260.835C159.259 256.144 157.715 251.68 156.807 247.17C155.8 242.168 155.552 236.97 157.473 232.001C158.05 230.507 159.019 229.133 159.83 227.756C161.744 224.502 163.664 221.252 165.587 218.004C168.483 213.105 171.383 208.208 174.285 203.31C177.926 197.166 181.565 191.023 185.208 184.88C189.35 177.893 193.495 170.904 197.64 163.919C202.049 156.487 206.458 149.058 210.866 141.631C215.299 134.162 219.733 126.691 224.168 119.22C228.388 112.112 232.61 105.003 236.829 97.8934C240.598 91.5469 244.367 85.1987 248.134 78.8538C251.211 73.6706 254.288 68.4913 257.367 63.3074C259.515 59.69 261.663 56.0742 263.81 52.4584C264.788 50.8093 265.769 49.1594 266.747 47.5118C268.389 44.7457 266.344 41.229 264.656 39.2315C262.687 36.9041 260.103 35.4271 257.085 34.9825C254.631 34.6173 251.255 34.7137 249.32 36.7581C248.873 37.2298 248.629 37.7679 248.341 38.3333C247.909 39.1898 247.475 40.0438 247.041 40.8978C245.384 44.1657 243.729 47.4329 242.074 50.7001C239.542 55.6967 237.008 60.6925 234.475 65.6906C231.277 71.9994 228.079 78.3066 224.881 84.6154C221.228 91.82 217.575 99.027 213.922 106.233C210.026 113.917 206.13 121.603 202.232 129.288C198.302 137.037 194.371 144.786 190.44 152.535C186.688 159.931 182.937 167.325 179.183 174.725C175.818 181.352 172.457 187.979 169.092 194.608C166.33 200.05 163.564 205.494 160.799 210.934C158.848 214.776 156.894 218.617 154.939 222.458C154.009 224.285 153.086 226.112 152.141 227.929C152.093 228.019 152.052 228.12 151.994 228.204C150.421 230.497 148.45 232.472 146.207 234.056C142.118 236.941 137.407 238.401 132.864 240.203C128.737 241.841 124.599 243.974 122.171 248.022C121.64 248.908 121.21 249.863 120.748 250.787C118.11 256.049 115.473 261.312 112.837 266.573C109.018 274.191 105.202 281.809 101.387 289.432C97.9853 296.227 94.5841 303.025 91.1916 309.825C90.1987 311.815 89.2048 313.806 88.2166 315.798C87.8203 316.599 87.3696 317.394 87.0295 318.219Z" fill="url(#paint0_linear_4350_19757)"/>
<path d="M151.913 230.589C150.487 232.662 148.82 234.731 147.093 236.549C148.079 236.242 149.048 235.882 150.029 235.57C150.483 235.426 151.092 235.19 151.545 235.398C151.988 235.602 152.148 236.206 152.279 236.644C152.594 237.698 152.824 238.783 153.11 239.85C153.612 237.572 154.501 235.294 155.337 233.116C155.468 232.773 155.593 232.462 155.772 232.151C156.254 231.311 156.749 230.478 157.242 229.644C159.519 225.787 161.813 221.938 164.104 218.087C167.812 211.857 171.522 205.628 175.233 199.4C179.98 191.435 184.727 183.468 189.471 175.499C194.868 166.437 200.264 157.374 205.658 148.307C211.32 138.787 216.983 129.264 222.636 119.739C228.179 110.4 233.718 101.057 239.246 91.7117C244.283 83.1934 249.313 74.6731 254.329 66.1426C256.534 62.3908 258.739 58.6365 260.937 54.8804C261.939 53.1662 262.942 51.4489 263.944 49.7347C264.427 48.9059 265.064 48.0853 265.076 47.0962C265.09 45.813 264.462 44.5858 263.8 43.5735C262.183 41.1028 259.826 39.2936 256.957 38.6457C255.559 38.3335 254.075 38.2183 252.634 38.444C251.588 38.6034 250.328 38.9774 249.694 39.9613C249.002 41.0362 248.483 42.2841 247.897 43.4208C247.282 44.612 246.669 45.8016 246.053 46.9903C244.791 49.4381 243.527 51.8835 242.266 54.3321C236.866 64.7988 231.48 75.2709 226.098 85.7471C220.443 96.7539 214.796 107.763 209.151 118.777C203.614 129.58 198.08 140.389 192.549 151.197C187.502 161.062 182.457 170.927 177.413 180.791C173.23 188.969 169.048 197.152 164.865 205.332C161.922 211.088 158.978 216.847 156.032 222.599C154.703 225.193 153.393 227.797 152.031 230.373C151.993 230.442 151.958 230.522 151.913 230.589C151.129 231.728 152.37 229.92 151.913 230.589Z" fill="url(#paint1_linear_4350_19757)"/>
<path opacity="0.8" d="M155.665 232.798C154.567 235.726 154.032 238.79 154.368 241.852C154.662 244.517 155.51 247.041 156.193 249.597C157.058 252.842 157.949 256.229 158.093 259.639C158.16 261.215 158.022 262.819 157.54 264.351C156.992 266.093 155.96 267.665 155.048 269.24C153.586 271.763 152.091 274.28 150.407 276.663C149.596 277.81 148.717 279.087 147.583 279.93C146.082 281.041 145.706 279.296 145.617 278.071C145.468 275.998 145.691 273.896 145.626 271.815C145.601 271.083 145.589 270.239 145.265 269.583C144.565 268.159 141.925 269.363 140.864 269.726C140.053 270.004 138.716 270.582 137.961 269.979C137.254 269.417 137.224 268.096 137.036 267.259C136.779 266.118 136.339 265.027 135.208 264.609C134.107 264.204 132.999 264.592 131.927 265.022C130.99 265.397 129.906 265.819 128.99 265.271C128.051 264.709 127.79 263.29 127.462 262.3C127.07 261.122 126.41 259.361 124.91 259.735C123.316 260.13 121.949 261.327 120.334 261.635C117.957 262.087 119.6 257.998 119.97 257.013C120.433 255.777 120.962 254.566 121.513 253.364C122.28 251.693 123.042 249.972 123.956 248.376C125.635 245.442 128.393 243.566 131.329 242.204C134.225 240.857 137.245 239.847 140.237 238.79C142.681 237.926 145.082 236.929 147.206 235.338C148.454 234.404 149.583 233.309 150.608 232.124C151.072 231.589 151.593 231.042 151.95 230.422C152.317 229.782 152.684 229.136 153.05 228.495C154.693 225.615 156.346 222.74 158.01 219.871C160.164 216.161 162.337 212.461 164.559 208.791C166.369 205.802 168.183 202.798 170.19 199.935C170.702 199.206 171.221 198.413 171.876 197.805C172.174 197.528 172.454 197.477 172.404 197.968C172.322 198.789 171.948 199.631 171.647 200.396C171.102 201.789 170.489 203.157 169.867 204.519C166.483 211.932 162.726 219.187 158.977 226.425C158.194 227.939 157.404 229.452 156.615 230.965C156.311 231.558 155.901 232.17 155.665 232.798C155.744 232.591 152.721 240.664 155.665 232.798Z" fill="url(#paint2_linear_4350_19757)"/>
<path opacity="0.1" d="M260.269 37.9045C262.727 39.253 265.241 42.0287 265.588 45.0362C265.711 46.1036 265.232 46.8016 264.702 47.6929C264.204 48.53 263.709 49.3648 263.212 50.2003C261.058 53.8247 258.906 57.4484 256.753 61.0753C251.8 69.4128 246.848 77.7543 241.895 86.0958C236.395 95.3562 230.899 104.614 225.4 113.875C219.736 123.414 214.075 132.953 208.414 142.492C202.969 151.667 197.527 160.841 192.084 170.016C187.24 178.185 182.396 186.352 177.555 194.524C173.691 201.044 169.83 207.564 165.97 214.088C163.47 218.318 160.969 222.548 158.479 226.785C157.86 227.841 157.238 228.897 156.626 229.957C155.489 231.922 154.9 234.199 154.61 236.418C153.803 242.554 156.065 248.371 157.26 254.185C157.93 257.453 158.433 260.995 157.448 264.341C157.003 265.846 156.202 267.115 155.36 268.423C154.626 269.563 153.896 270.707 153.168 271.855C146.376 282.559 139.802 293.402 133.233 304.245C128.449 312.145 123.706 320.073 118.863 327.938C125.245 316.234 131.589 304.493 137.479 292.534C142.481 282.381 148.06 271.845 148.257 260.383C148.307 257.48 148.024 254.597 147.469 251.785C147.161 250.221 146.771 248.677 146.315 247.159C145.844 245.593 145.179 244.092 144.739 242.519C144.13 240.335 144.915 238.477 146.415 236.811C148.336 234.673 150.543 232.86 152.331 230.583C154.14 228.283 155.291 225.445 156.614 222.85C159.661 216.873 162.701 210.894 165.74 204.913C170.329 195.883 174.913 186.851 179.498 177.816C185.219 166.543 190.938 155.267 196.657 143.993C203.099 131.29 209.541 118.586 215.983 105.88C222.737 92.5593 229.49 79.2359 236.245 65.9109C239.61 59.2717 242.976 52.6309 246.343 45.9901C247.173 44.3522 248.005 42.7103 248.836 41.0684C249.449 39.8603 249.934 38.1779 251.151 37.467C253.732 35.9593 257.47 36.5206 259.913 37.7214C260.031 37.7781 260.153 37.8406 260.269 37.9045Z" fill="#F1F2F2"/>
<defs>
<linearGradient id="paint0_linear_4350_19757" x1="132.191" y1="272.03" x2="156.703" y2="227.333" gradientUnits="userSpaceOnUse">
<stop offset="0.2089" stop-color="#A7A9AC"/>
<stop offset="0.2929" stop-color="#C9CACC"/>
<stop offset="0.3591" stop-color="#E6E7E8"/>
<stop offset="0.5063" stop-color="#D4D6D7"/>
<stop offset="0.5248" stop-color="#D1D3D4"/>
<stop offset="0.5747" stop-color="#CDCFD1"/>
<stop offset="0.6194" stop-color="#C3C5C6"/>
<stop offset="0.6621" stop-color="#B0B2B4"/>
<stop offset="0.7034" stop-color="#97999C"/>
<stop offset="0.7086" stop-color="#939598"/>
<stop offset="0.8238" stop-color="#9A9C9F"/>
<stop offset="0.861" stop-color="#9EA0A2"/>
</linearGradient>
<linearGradient id="paint1_linear_4350_19757" x1="212.713" y1="143.229" x2="197.569" y2="134.922" gradientUnits="userSpaceOnUse">
<stop offset="0.0265" stop-color="#808285"/>
<stop offset="0.0763" stop-color="#8E9093"/>
<stop offset="0.1712" stop-color="#B4B6B7"/>
<stop offset="0.3004" stop-color="#F1F2F2"/>
<stop offset="0.3274" stop-color="white"/>
<stop offset="0.4455" stop-color="#EDEDEE"/>
<stop offset="0.588" stop-color="#D1D3D4"/>
<stop offset="0.6686" stop-color="#CDCFD1"/>
<stop offset="0.7409" stop-color="#C3C5C6"/>
<stop offset="0.8099" stop-color="#B0B2B4"/>
<stop offset="0.8766" stop-color="#97999C"/>
<stop offset="0.8805" stop-color="#95979A"/>
<stop offset="1" stop-color="#58595B"/>
</linearGradient>
<linearGradient id="paint2_linear_4350_19757" x1="125.875" y1="284.364" x2="171.026" y2="199.996" gradientUnits="userSpaceOnUse">
<stop offset="0.2066" stop-color="#A7A9AC"/>
<stop offset="0.2789" stop-color="#A7A9AC"/>
<stop offset="0.3238" stop-color="#C9CACC"/>
<stop offset="0.3591" stop-color="#E6E7E8"/>
<stop offset="0.3692" stop-color="#DEDFE0"/>
<stop offset="0.4438" stop-color="#A8AAAC"/>
<stop offset="0.4801" stop-color="#939598"/>
<stop offset="0.5883" stop-color="#8C8E91"/>
<stop offset="0.6491" stop-color="#85878A"/>
<stop offset="0.6517" stop-color="#888A8D"/>
<stop offset="0.6842" stop-color="#A5A6A9"/>
<stop offset="0.72" stop-color="#BDBEC0"/>
<stop offset="0.7609" stop-color="#CFD0D2"/>
<stop offset="0.809" stop-color="#DCDDDF"/>
<stop offset="0.8714" stop-color="#E4E5E6"/>
<stop offset="0.9996" stop-color="#E6E7E8"/>
</linearGradient>
</defs>
</svg>
