<svg width="190" height="284" viewBox="0 0 190 284" fill="none" xmlns="http://www.w3.org/2000/svg">
<path d="M76.6429 26.6328C61.6412 31.1684 32.8437 30.6377 33.0203 46.642C33.0938 53.2945 37.6748 58.0341 45.3928 57.949C56.6994 57.8242 75.2176 46.7607 82.0086 42.19C80.3057 37.263 77.5218 31.5688 76.6429 26.6328Z" fill="url(#paint0_linear_4350_20823)"/>
<path opacity="0.21" d="M35.0037 45.0083C34.8944 46.2157 35.0704 47.1923 35.1381 48.4003C35.3225 49.5884 35.5569 50.7764 35.7426 51.9648C36.4606 42.7222 42.9422 36.9531 42.9422 36.9531C40.4481 36.9528 36.055 39.2348 35.0037 45.0083Z" fill="white"/>
<path d="M112.929 77.883L84.0831 78.2015L83.6875 42.3495L112.534 42.0312L112.929 77.883Z" fill="url(#paint1_linear_4350_20823)"/>
<path opacity="0.32" d="M91.4063 42.3516H86.4609V78.2881H91.4063V42.3516Z" fill="#CBC9D6"/>
<path d="M127.922 77.5182C127.922 77.5147 127.921 77.5115 127.92 77.5079C127.875 77.406 127.827 77.3064 127.804 77.1952H127.793C126.409 72.5591 114.043 69.0407 99.0241 69.1922C84.0054 69.3437 71.7132 73.1113 70.4229 77.7745L70.2969 77.7758L70.4371 91.6568L128.06 91.0749L127.928 78.0331L127.922 77.5182Z" fill="url(#paint2_linear_4350_20823)"/>
<path opacity="0.32" d="M87.7072 79.5171C88.0973 76.1886 88.5935 73.0288 89.0062 69.8438C87.407 70.0237 86.1091 70.2725 84.6473 70.5334C84.439 77.5811 83.4528 84.4134 83.4934 91.4688H87.2849C86.9438 87.4411 87.2371 83.5268 87.7072 79.5171Z" fill="#CBC9D6"/>
<path d="M127.92 77.5129C127.92 77.5094 127.919 77.5061 127.918 77.5026C127.873 77.4007 127.825 77.3011 127.802 77.1899H127.791C126.86 74.0726 120.96 71.463 112.631 70.1328C112.518 76.7459 109.041 84.0328 104.5 88.5735C103.496 89.5775 102.391 90.5002 101.215 91.3407L128.058 91.0696L127.926 78.0278L127.92 77.5129Z" fill="#746F87"/>
<path d="M99.3261 99.875C115.237 99.7143 128.095 95.4999 128.044 90.4619C127.993 85.424 115.053 81.4701 99.1419 81.6309C83.2306 81.7916 70.3733 86.006 70.4242 91.044C70.4751 96.082 83.4149 100.036 99.3261 99.875Z" fill="#21405E"/>
<path d="M188.749 152.041C188.749 136.023 180.879 122.874 170.833 121.447V121.312H140.844V182.768H170.833V182.634C180.879 181.208 188.749 168.058 188.749 152.041Z" fill="url(#paint3_linear_4350_20823)"/>
<path d="M171.329 121.447V121.312H167.744C169.248 122.857 170.56 124.614 171.707 126.406C173.217 128.766 174.33 131.425 175.264 134.053C175.986 136.081 176.498 138.182 176.853 140.305C177.688 145.309 178.054 150.343 177.661 155.406C177.397 158.807 176.892 162.26 175.92 165.538C175.014 168.596 173.74 171.586 172.265 174.411C170.73 177.353 168.865 180.099 166.895 182.768H171.329V182.634C181.375 181.207 189.245 168.058 189.245 152.04C189.245 136.022 181.375 122.874 171.329 121.447Z" fill="#5F5E68"/>
<path d="M139.866 182.769C152.015 182.769 161.864 169.011 161.864 152.041C161.864 135.07 152.015 121.312 139.866 121.312C127.716 121.312 117.867 135.07 117.867 152.041C117.867 169.011 127.716 182.769 139.866 182.769Z" fill="#21405E"/>
<path d="M72.533 90.4063C79.9511 84.6366 86.9569 83.8125 97.2599 83.8125C110.448 83.8125 118.69 85.0489 125.696 89.5822C127.07 103.045 125.165 122.702 143.829 125.574C150.325 126.573 158.612 135.623 158.612 151.186C158.612 163.768 150.873 179.882 139.581 179.882C134.939 179.882 133.002 178.476 125.347 178.476C118.873 178.476 112.432 179.505 106.091 179.505C90.5904 179.505 80.1575 171.387 75.6242 170.151C71.5571 169.042 71.1325 171.661 71.1325 172.857C71.1325 175.516 73.1514 178.805 74.4787 181.36C75.0764 182.511 79.9118 188.696 77.6847 188.696C74.134 188.696 58.2052 181.69 50.4849 181.69C50.4849 181.69 26.79 181.896 26.7884 181.896C24.3236 182.096 22.1178 182.995 19.645 182.995C16.0589 182.995 12.604 184.189 9.09983 184.189C8.16261 184.189 1.85547 184.267 1.85547 183.338C1.85547 180.019 10.1741 176.62 11.1281 167.472C18.1342 100.297 72.6626 125.94 72.6626 101.874C72.6626 99.5799 72.5333 97.6451 72.5333 95.3516C72.533 94.1877 72.533 93.2911 72.533 90.4063Z" fill="url(#paint4_linear_4350_20823)"/>
<path opacity="0.32" d="M91.9564 112.225C92.5538 111.118 93.1012 109.986 93.531 108.805C94.5027 106.136 94.6852 103.411 94.8 100.596C95.0276 95.0193 94.8993 89.3676 94.1365 83.8281C91.8832 83.8307 88.9206 84.018 86.6184 84.4323C86.5394 84.4465 86.4601 84.4545 86.3814 84.4584L86.7918 92.8344C86.7918 95.1283 86.1325 101.214 86.1325 103.508C86.1325 127.574 19.0401 108.289 25.3866 164.955C26.4105 174.096 13.9297 180.304 13.9297 183.624C13.9297 184.553 22.2238 182.799 23.161 182.799C24.6028 182.799 25.1851 182.873 26.623 182.635C27.5089 181.024 29.4736 178.028 30.4437 176.467C31.4074 174.915 32.461 173.435 33.258 171.795C33.8373 170.202 34.1859 168.553 34.4393 166.879C35.1105 161.252 33.4498 154.281 35.195 148.841C36.6055 144.444 38.606 140.08 41.2942 136.313C44.1893 132.256 49.3516 129.68 53.8946 127.464C56.3532 126.264 58.9225 125.41 61.6006 124.877C63.9016 124.419 66.2332 124.148 68.5519 123.8C69.5192 123.654 70.4809 123.484 71.4374 123.291C72.1622 123.111 72.8915 122.941 73.6269 122.784C73.8638 122.733 74.1011 122.683 74.3384 122.632C77.4067 121.862 80.4196 120.874 83.3782 119.737C83.8299 119.464 84.2793 119.188 84.7262 118.911C85.6808 118.32 86.6203 117.706 87.5437 117.068C88.801 115.968 89.9929 114.798 91.1094 113.556C91.3999 113.119 91.6807 112.674 91.9564 112.225Z" fill="#CBC9D6"/>
<path d="M143.829 125.365C125.165 122.494 127.07 102.836 125.696 89.3733C121.302 86.5303 116.152 85.1408 109.87 84.3828C111.159 86.0825 112.661 87.6691 113.753 89.4906C116.978 94.8693 119.416 100.862 121.426 106.775C123.392 112.561 124.168 118.487 124.876 124.556C125.065 126.17 125.185 127.793 125.126 129.419C124.977 133.53 124.37 137.733 123.407 141.741C122.393 145.965 120.471 150.115 118.66 153.994C117.759 155.923 116.689 157.761 115.447 159.491C111.517 164.964 107.478 169.991 102.195 174.152C100.385 175.578 98.6718 177.255 96.8477 178.597C99.7167 179.204 102.563 179.421 105.914 179.421C112.255 179.421 118.81 178.597 125.284 178.597C132.939 178.597 133.938 180.245 139.708 180.245C151 180.245 159.077 163.567 159.077 150.985C159.077 135.422 150.325 126.364 143.829 125.365Z" fill="#746F87"/>
<path d="M82.2631 12.8312C77.5535 15.9743 75.7967 21.43 75.8087 26.9689C75.8296 36.8311 83.6598 46.7218 83.6598 46.7218C88.1931 44.661 91.44 43.8369 97.6717 43.8369C104.678 43.8369 109.677 44.5385 112.593 47.3911C116.59 41.8693 119.113 35.5628 119.039 28.8282C118.89 15.3721 110.377 8.82087 98.567 8.80475C90.4815 8.79347 86.061 10.2968 82.2631 12.8312Z" fill="url(#paint5_linear_4350_20823)"/>
<path opacity="0.21" d="M88.2374 42.1789C86.5012 39.2725 84.6519 36.1091 83.9884 32.7809C83.1963 28.808 82.4838 25.0571 83.164 21.0768C83.6276 18.3644 84.7664 15.8826 86.1314 13.4939C86.7907 12.34 88.3308 10.9359 89.2636 9.86719C88.365 10.3098 87.3598 10.6335 86.5483 11.1752C81.8386 14.3183 80.0819 19.7739 80.0938 25.3125C80.1148 35.1748 87.9449 45.0654 87.9449 45.0654C88.5265 44.801 89.3748 44.7091 89.9232 44.4847C89.4322 43.7803 88.6752 42.9121 88.2374 42.1789Z" fill="white"/>
<path d="M98.6797 8.80469C99.9142 9.67098 101.102 10.623 102.232 11.6605C107.676 16.6581 110.031 24.0949 110.353 31.2651C110.549 35.6591 109.152 40.4484 106.873 44.5916C109.263 45.1284 111.175 46.0034 112.591 47.3888C116.588 41.867 119.111 35.5605 119.036 28.8258C118.888 15.4142 110.429 8.86369 98.6797 8.80469Z" fill="url(#paint6_linear_4350_20823)"/>
<path d="M149.171 0.000978786C144.326 0.0544975 136.165 2.63919 113.909 16.9635C112.196 18.0664 110.936 19.7532 110.37 21.7109C110.268 22.0639 110.175 22.3918 110.034 22.8167C109.291 28.3859 110.89 31.2791 113.536 34.9825C114.567 36.0045 114.979 36.0045 116.002 36.1522C123.668 35.7021 130.697 35.4158 137.19 34.7533C150.775 33.367 162.981 30.1774 163.803 18.7983C164.518 8.89862 159.028 -0.107993 149.171 0.000978786Z" fill="url(#paint7_linear_4350_20823)"/>
<path d="M79.9525 180.658C77.167 177.163 60.4234 174.477 40.1811 174.477C22.2794 174.477 7.11329 176.578 1.91843 179.481C1.74304 179.643 1.57346 179.811 1.41613 179.99C1.41581 180.004 1.15144 180.349 1.14757 180.355C0.597876 181.218 0.436673 181.84 0.412816 182.722C0.426034 182.739 0.437319 182.756 0.451183 182.772L0.0820312 207.03L80.3623 206.622V180.658H79.9525Z" fill="url(#paint8_linear_4350_20823)"/>
<path d="M79.9497 180.655C78.1875 178.445 70.8386 176.557 60.5531 175.469C60.4496 175.796 60.348 176.124 60.2455 176.452C60.8277 179.391 61.234 182.384 61.4377 185.358C61.4835 186.027 61.4941 186.699 61.4516 187.368C61.3687 188.672 61.1263 190.023 60.957 191.284C60.7961 192.48 60.6814 193.843 60.4128 195.079C59.896 197.457 58.4046 200.39 57.5944 202.194C57.3236 202.797 57.0202 203.375 56.6439 203.92C55.8856 205.018 55.0651 206.099 54.2266 207.158L80.3598 206.619V180.655H79.9497Z" fill="#746F87"/>
<path d="M1.91488 179.483C1.74079 179.644 1.57281 179.81 1.41612 179.989C1.4158 180.003 1.15144 180.348 1.14757 180.354C0.597872 181.216 0.436668 181.838 0.412811 182.721C0.426029 182.737 0.437314 182.754 0.451178 182.771L0.0820312 206.369L6.82442 208.137C7.61688 201.721 8.68886 195.354 10.2206 189.068C11.2555 184.821 12.2111 180.561 13.2911 176.328C8.08049 177.171 4.10754 178.255 1.91488 179.483Z" fill="#746F87"/>
<path d="M40.1812 214.041C62.3727 214.041 80.3625 210.812 80.3625 206.829C80.3625 202.846 62.3727 199.617 40.1812 199.617C17.9898 199.617 0 202.846 0 206.829C0 210.812 17.9898 214.041 40.1812 214.041Z" fill="#666172"/>
<path d="M76.6536 207.028C76.6536 210.214 56.4922 212.797 38.7388 212.797C20.9854 212.797 3.29688 210.214 3.29688 207.028C3.29688 203.841 20.9858 201.258 38.7388 201.258C56.4922 201.258 76.6536 203.841 76.6536 207.028Z" fill="#3A3A3A"/>
<path d="M41.4507 266.631C41.4507 276.223 34.767 283.999 26.5222 283.999C18.2775 283.999 11.5938 276.223 11.5938 266.631C11.5938 257.039 26.5222 233.742 26.5222 233.742C26.5222 233.742 41.4507 257.039 41.4507 266.631Z" fill="#77C5E6"/>
<path d="M39.8032 259.266C37.2368 269.786 27.6109 277.787 16.3913 277.787C15.9416 277.787 15.4954 277.772 15.0508 277.746C17.7896 281.568 21.9112 284.001 26.5218 284.001C34.7666 284.001 41.4503 276.225 41.4503 266.633C41.4503 264.653 40.8129 262.088 39.8032 259.266Z" fill="#29ABE2"/>
<g opacity="0.5">
<path d="M25.3079 244.508C25.3079 244.508 24.2936 245.86 22.9998 248.025C22.6855 248.571 22.3276 249.152 21.9914 249.79C21.8189 250.107 21.6422 250.432 21.4613 250.764C21.2921 251.102 21.1186 251.447 20.9429 251.798C20.5786 252.493 20.2627 253.24 19.9183 253.985C19.5853 254.737 19.2906 255.517 18.9788 256.286C18.7164 257.075 18.4163 257.85 18.1903 258.631C18.0797 259.023 17.9704 259.411 17.8617 259.794C17.8076 259.985 17.7537 260.175 17.7009 260.364C17.6596 260.555 17.6186 260.745 17.5783 260.934C17.4984 261.309 17.42 261.68 17.343 262.041C17.3053 262.222 17.2682 262.4 17.2314 262.577C17.2076 262.756 17.1844 262.932 17.1611 263.106C17.1147 263.452 17.0696 263.789 17.0264 264.115C16.9832 264.441 16.9309 264.754 16.93 265.058C16.9029 265.661 16.8778 266.214 16.8555 266.705C16.8433 267.193 16.8977 267.616 16.9077 267.964C16.9458 268.658 16.9674 269.055 16.9674 269.055L16.9748 269.183C17.0125 269.868 17.9633 275.896 17.2791 275.934C16.5947 275.971 14.3775 274.644 14.4968 269.319C14.4978 269.282 14.4946 269.244 14.4959 269.209C14.4959 269.209 14.511 268.763 14.5378 267.983C14.5613 267.595 14.5484 267.12 14.6106 266.585C14.6835 266.053 14.766 265.453 14.856 264.799C14.8892 264.47 14.9753 264.139 15.053 263.794C15.1313 263.45 15.2126 263.094 15.2967 262.729C15.3383 262.547 15.3805 262.362 15.4237 262.174C15.4798 261.991 15.5362 261.806 15.5936 261.619C15.709 261.245 15.8277 260.864 15.9476 260.477C16.0086 260.283 16.0701 260.089 16.1317 259.892C16.2056 259.701 16.2794 259.508 16.3542 259.313C16.5031 258.926 16.6543 258.534 16.8062 258.138C17.1154 257.351 17.4968 256.581 17.8404 255.799C18.2328 255.038 18.6071 254.271 19.0153 253.539C19.435 252.812 19.8252 252.087 20.2581 251.417C20.4683 251.079 20.6747 250.747 20.8771 250.422C21.0899 250.104 21.2982 249.793 21.501 249.49C21.8982 248.88 22.3122 248.329 22.6774 247.81C24.1744 245.76 25.3079 244.508 25.3079 244.508Z" fill="white"/>
</g>
<path d="M65.5783 233.895C65.5783 241.087 60.5669 246.918 54.3849 246.918C48.2028 246.918 43.1914 241.087 43.1914 233.895C43.1914 226.702 54.3849 209.234 54.3849 209.234C54.3849 209.234 65.5783 226.703 65.5783 233.895Z" fill="#77C5E6"/>
<path d="M64.341 228.367C62.925 242.805 56.6397 245.464 46.7865 242.255C46.466 242.15 46.1146 242.243 45.7812 242.224C47.8349 245.09 50.9252 246.914 54.3823 246.914C60.5643 246.914 65.5757 241.083 65.5757 233.891C65.5757 232.407 65.098 230.484 64.341 228.367Z" fill="#29ABE2"/>
<g opacity="0.5">
<path d="M51.1556 221.141C51.1556 221.141 50.5163 221.981 49.7374 223.289C49.5497 223.619 49.3331 223.97 49.1367 224.351C49.0352 224.541 48.9314 224.735 48.825 224.934C48.7276 225.134 48.6277 225.339 48.5268 225.547C48.3146 225.961 48.1425 226.398 47.9493 226.836C47.7649 227.277 47.6115 227.729 47.4441 228.177C47.3152 228.63 47.1572 229.079 47.0547 229.524C47.0053 229.746 46.9567 229.967 46.9077 230.185C46.8835 230.293 46.8593 230.401 46.8358 230.509C46.8209 230.616 46.8064 230.722 46.7922 230.828C46.7642 231.038 46.7368 231.245 46.7097 231.448C46.6968 231.549 46.6842 231.649 46.6717 231.748C46.6688 231.846 46.6662 231.943 46.6633 232.039C46.6578 232.23 46.652 232.416 46.6472 232.596C46.6423 232.775 46.6294 232.949 46.6539 233.111C46.6839 233.438 46.7113 233.737 46.7355 234.002C46.7671 234.265 46.8425 234.485 46.879 234.671C46.9647 235.038 47.0137 235.248 47.0137 235.248L47.0298 235.316C47.1146 235.679 48.3194 238.799 47.8159 238.898C47.3119 238.997 45.5587 238.54 45.2051 235.674C45.2025 235.654 45.1973 235.634 45.1951 235.615C45.1951 235.615 45.1693 235.374 45.1245 234.954C45.1096 234.743 45.0606 234.49 45.0626 234.196C45.0726 233.903 45.0838 233.572 45.0961 233.211C45.0932 233.031 45.1296 232.843 45.1586 232.65C45.1883 232.457 45.2189 232.257 45.2508 232.051C45.2666 231.949 45.2824 231.845 45.2989 231.74C45.3253 231.635 45.3517 231.53 45.3785 231.423C45.433 231.209 45.4891 230.992 45.5462 230.77C45.5752 230.659 45.6048 230.548 45.6339 230.436C45.6729 230.325 45.7115 230.213 45.7509 230.1C45.8292 229.876 45.9085 229.648 45.9882 229.419C46.152 228.962 46.3705 228.506 46.5601 228.047C46.7877 227.594 47.0012 227.141 47.243 226.701C47.4938 226.264 47.7224 225.831 47.9877 225.422C48.1154 225.217 48.2408 225.015 48.3636 224.818C48.4952 224.623 48.6235 224.432 48.7486 224.247C48.9923 223.874 49.2531 223.532 49.4807 223.211C50.4196 221.941 51.1556 221.141 51.1556 221.141Z" fill="white"/>
</g>
<defs>
<linearGradient id="paint0_linear_4350_20823" x1="33.0196" y1="42.2914" x2="82.0087" y2="42.2914" gradientUnits="userSpaceOnUse">
<stop stop-color="#EF7B5A"/>
<stop offset="0.5" stop-color="#E30613"/>
<stop offset="1" stop-color="#CB181A"/>
</linearGradient>
<linearGradient id="paint1_linear_4350_20823" x1="83.6874" y1="60.1163" x2="112.929" y2="60.1163" gradientUnits="userSpaceOnUse">
<stop stop-color="#B3B8CC"/>
<stop offset="0.6854" stop-color="#707B9B"/>
<stop offset="1" stop-color="#5C619A"/>
</linearGradient>
<linearGradient id="paint2_linear_4350_20823" x1="70.2966" y1="80.4223" x2="128.059" y2="80.4223" gradientUnits="userSpaceOnUse">
<stop stop-color="#B3B8CC"/>
<stop offset="0.6854" stop-color="#707B98"/>
<stop offset="1" stop-color="#5C6888"/>
</linearGradient>
<linearGradient id="paint3_linear_4350_20823" x1="140.844" y1="152.041" x2="188.749" y2="152.041" gradientUnits="userSpaceOnUse">
<stop stop-color="#B3B8CC"/>
<stop offset="0.6854" stop-color="#707B98"/>
<stop offset="1" stop-color="#5C6888"/>
</linearGradient>
<linearGradient id="paint4_linear_4350_20823" x1="1.85511" y1="136.254" x2="158.612" y2="136.254" gradientUnits="userSpaceOnUse">
<stop stop-color="#B4B9CD"/>
<stop offset="0.5" stop-color="#8A92AD"/>
<stop offset="1" stop-color="#78829F"/>
</linearGradient>
<linearGradient id="paint5_linear_4350_20823" x1="75.8087" y1="28.0979" x2="119.04" y2="28.0979" gradientUnits="userSpaceOnUse">
<stop stop-color="#EF7B5A"/>
<stop offset="0.5" stop-color="#E30613"/>
<stop offset="1" stop-color="#CB181A"/>
</linearGradient>
<linearGradient id="paint6_linear_4350_20823" x1="75.8064" y1="28.097" x2="119.038" y2="28.097" gradientUnits="userSpaceOnUse">
<stop stop-color="#EF7B5A"/>
<stop offset="0.5" stop-color="#E30613"/>
<stop offset="1" stop-color="#75181A"/>
</linearGradient>
<linearGradient id="paint7_linear_4350_20823" x1="145.964" y1="35.9595" x2="129.516" y2="7.47037" gradientUnits="userSpaceOnUse">
<stop stop-color="#EF7B5A"/>
<stop offset="0.5" stop-color="#E30613"/>
<stop offset="1" stop-color="#A3181A"/>
</linearGradient>
<linearGradient id="paint8_linear_4350_20823" x1="-0.33261" y1="190.753" x2="80.3626" y2="190.753" gradientUnits="userSpaceOnUse">
<stop stop-color="#B3B8CC"/>
<stop offset="0.6854" stop-color="#707B98"/>
<stop offset="1" stop-color="#5C6888"/>
</linearGradient>
</defs>
</svg>
