<svg width="364" height="364" viewBox="0 0 364 364" fill="none" xmlns="http://www.w3.org/2000/svg">
<path d="M91.9276 326.253C106.469 267.423 177.336 162.86 177.336 162.86L211.285 183.852L213.768 189.525C142.37 304.309 91.9276 326.253 91.9276 326.253Z" fill="url(#paint0_linear_4350_19737)"/>
<path d="M92.0315 326.439L91.6182 326.619L91.7236 326.19C104.637 273.962 161.828 185.84 174.615 166.544C176.248 164.081 177.157 162.74 177.157 162.74L177.26 162.587L211.448 183.726L214.003 189.56L213.952 189.642C209.58 196.671 205.286 203.352 201.077 209.701C136.549 307.056 92.0703 326.423 92.0315 326.439ZM93.8475 325.056C95.1849 324.339 97.1695 323.207 99.7527 321.542C104.92 318.213 112.486 312.76 122.069 304.264C141.233 287.274 168.466 258.118 200.715 209.461C204.906 203.14 209.182 196.489 213.535 189.493L211.123 183.98L177.413 163.136C177.132 163.551 176.289 164.803 174.977 166.783C162.233 186.006 105.331 273.709 92.2438 325.876C92.5794 325.715 93.1155 325.448 93.8475 325.056Z" fill="#B2B4B6"/>
<path d="M93.1115 320.759C92.6345 322.426 92.1943 324.063 91.7984 325.665C91.7984 325.665 142.241 303.721 213.639 188.937L211.582 184.236C152.392 279.044 107.758 311.81 93.1115 320.759Z" fill="url(#paint1_linear_4350_19737)"/>
<path d="M91.9004 325.85L91.4876 326.029L91.5929 325.6C91.9901 323.996 92.4304 322.356 92.9072 320.688L92.9262 320.622L92.9854 320.586C106.538 312.305 145.885 283.549 198.717 203.839C202.863 197.585 207.092 191.017 211.398 184.12L211.604 183.79L213.872 188.972L213.821 189.053C209.449 196.082 205.155 202.763 200.947 209.112C136.419 306.467 91.9393 325.834 91.9004 325.85ZM93.7174 324.467C95.0548 323.75 97.0388 322.617 99.6226 320.952C104.791 317.624 112.356 312.171 121.938 303.675C141.103 286.685 168.335 257.528 200.585 208.872C204.776 202.55 209.051 195.899 213.405 188.903L211.558 184.683C207.321 191.461 203.16 197.922 199.079 204.079C146.299 283.711 106.954 312.537 93.2947 320.896C92.8702 322.385 92.4742 323.85 92.1129 325.286C92.4486 325.126 92.9848 324.859 93.7174 324.467Z" fill="#B2B4B6"/>
<path d="M96.9632 314.726C122.378 248.91 177.552 165.668 177.552 165.668L190.055 173.491C154.022 211.371 96.9632 314.726 96.9632 314.726Z" fill="white"/>
<path d="M211.588 184.215C205.375 171.566 216.444 158.005 216.444 158.005C219.652 153.166 230.044 146.122 230.044 146.122C253.062 132.586 267.173 88.5345 267.173 88.5345C268.721 83.0592 280.146 79.9509 280.146 79.9509C284.962 78.9637 287.712 70.1054 287.712 70.1054C285.859 61.9117 262.202 43.4447 262.202 43.4447C257.503 40.3302 242.747 62.5927 242.747 62.5927C209.585 110.27 177.389 162.769 177.389 162.769L211.588 184.215Z" fill="#663411"/>
<path d="M280.297 80.3385C280.296 80.339 279.732 80.4922 278.827 80.7959C277.922 81.0988 276.682 81.5503 275.353 82.1403C272.694 83.3139 269.683 85.0628 268.272 87.2041C267.958 87.6789 267.721 88.1702 267.575 88.6883C267.568 88.7047 260.995 109.233 249.475 126.615C244.11 134.708 237.676 142.124 230.308 146.458C230.303 146.463 227.721 148.212 224.733 150.571C221.746 152.923 218.358 155.895 216.805 158.245L216.795 158.259L216.784 158.273C216.784 158.275 216.251 158.925 215.479 160.09C212.753 164.181 207.229 174.494 211.964 184.076L212.556 185.281L176.819 162.869L177.021 162.539C177.022 162.537 196.073 131.471 219.964 95.4268C227.131 84.6135 234.734 73.3529 242.385 62.3531C242.387 62.349 245.215 58.0825 248.797 53.5363C252.397 48.9877 256.665 44.1728 259.832 42.9964C260.738 42.663 261.649 42.6188 262.415 43.1227L262.434 43.135L262.445 43.1445C262.451 43.1492 268.372 47.7712 274.535 53.4273C280.696 59.1073 287.103 65.7144 288.121 70.0611L288.144 70.1617L288.115 70.256C288.108 70.2723 287.115 73.4814 285.249 76.2985C284.001 78.1709 282.375 79.9032 280.297 80.3385ZM280.016 79.5576C281.766 79.2097 283.332 77.6322 284.527 75.8192C285.425 74.4639 286.123 72.9933 286.594 71.8642C286.969 70.9646 287.199 70.2879 287.277 70.0492C286.585 67.1736 282.899 62.6926 278.536 58.3306C274.125 53.9021 269.034 49.5335 265.671 46.7507C263.564 45.0072 262.141 43.8901 261.973 43.7586C261.564 43.4927 260.992 43.4662 260.2 43.7519C259.411 44.0374 258.471 44.6306 257.468 45.4416C255.458 47.0624 253.181 49.5414 251.051 52.12C246.789 57.2783 243.115 62.8213 243.103 62.8391C235.453 73.8392 227.852 85.0961 220.687 95.9059C202.774 122.932 187.581 147.159 181.105 157.583C179.462 160.228 178.382 161.981 177.958 162.67L210.691 183.196C206.709 173.461 212.114 163.616 214.756 159.611C215.481 158.518 216.006 157.858 216.09 157.753C219.398 152.801 229.761 145.805 229.797 145.774C237.032 141.521 243.423 134.18 248.752 126.136C257.341 113.179 263.187 98.4103 265.567 91.8447C266.361 89.6556 266.768 88.3846 266.766 88.3931C266.931 87.805 267.202 87.2492 267.549 86.7248C270.688 82.0499 279.964 79.5897 280.016 79.5576Z" fill="#35121F"/>
<path d="M190.119 142.379C182.116 155.043 177.177 163.097 177.177 163.097L211.376 184.544C206.742 175.11 211.72 165.172 214.551 160.727C207.348 157.325 194.841 150.514 190.119 142.379Z" fill="url(#paint2_linear_4350_19737)"/>
<path d="M176.892 163.15L176.993 162.985C176.993 162.984 181.933 154.929 189.935 142.265L190.115 141.981L190.299 142.299C192.756 146.535 197.383 150.442 202.268 153.678C206.646 156.58 211.229 158.946 214.627 160.551L214.853 160.658L214.733 160.846C211.908 165.273 206.979 175.168 211.563 184.476L211.86 185.08L176.892 163.15ZM210.911 184.026C206.769 174.783 211.453 165.259 214.248 160.801C210.86 159.192 206.364 156.858 202.054 154.001C197.257 150.821 192.685 146.998 190.124 142.779C186.204 148.982 183.032 154.062 180.83 157.604C178.964 160.608 177.798 162.503 177.462 163.05L210.911 184.026Z" fill="#939598"/>
<path d="M206.864 181.703L211.011 184.304C206.378 174.871 211.356 164.932 214.187 160.487C213.037 159.944 211.752 159.314 210.386 158.606C207.408 163.939 203.905 172.829 206.864 181.703Z" fill="url(#paint3_linear_4350_19737)"/>
<path d="M206.762 181.869L206.689 181.823L206.664 181.746C203.679 172.779 207.211 163.852 210.198 158.499L210.287 158.338L210.47 158.433C211.833 159.139 213.115 159.768 214.262 160.31L214.488 160.417L214.368 160.605C211.543 165.032 206.614 174.926 211.199 184.235L211.496 184.838L206.762 181.869ZM210.546 183.784C206.406 174.542 211.088 165.017 213.884 160.56C212.843 160.065 211.696 159.502 210.483 158.877C207.543 164.191 204.179 172.916 207.038 181.585L210.546 183.784Z" fill="#939598"/>
<path d="M247.465 56.6225C255.436 62.5444 268.813 73.986 269.738 84.661L270.043 85.0048C273.799 81.4866 280.934 79.5434 280.934 79.5434C285.75 78.5562 288.5 69.6979 288.5 69.6979C286.647 61.5041 262.989 43.0372 262.989 43.0372C259.842 40.9508 252.18 50.2539 247.465 56.6225Z" fill="url(#paint4_linear_4350_19737)"/>
<path d="M281.01 79.7424C281.006 79.7442 279.238 80.2244 276.996 81.1462C274.754 82.0659 272.046 83.427 270.198 85.1608L270.043 85.3046L269.534 84.7308L269.528 84.6624C268.638 74.1352 255.31 62.684 247.347 56.782L247.176 56.6542L247.289 56.5011C250.836 51.7171 256.013 45.2889 259.78 43.2121C261.033 42.5261 262.181 42.2856 263.112 42.8915C263.114 42.8944 269.033 47.5142 275.187 53.1619C281.341 58.8232 287.732 65.459 288.705 69.6805L288.717 69.7308L288.702 69.7786C288.698 69.7864 287.706 72.9853 285.857 75.776C284.622 77.6339 283.012 79.327 281.01 79.7424ZM280.87 79.352C282.707 78.9804 284.288 77.3649 285.496 75.5364C287.184 72.991 288.154 70.0766 288.283 69.675C287.36 65.6964 281.026 59.0356 274.913 53.4382C268.776 47.8045 262.88 43.2026 262.882 43.2041C262.225 42.7558 261.234 42.8962 260.017 43.5664C258.808 44.2296 257.414 45.3875 255.973 46.8113C253.133 49.6152 250.094 53.4494 247.754 56.6012C255.736 62.5651 268.939 73.8766 269.941 84.6016L270.043 84.7166C273.891 81.2451 280.845 79.3612 280.87 79.352Z" fill="#939598"/>
<path d="M286.581 66.0447C286.581 66.0447 283.38 76.3537 277.775 77.5026C277.775 77.5026 273.174 78.7571 269.018 81.0868C269.309 82.096 269.505 83.1036 269.592 84.1043L269.897 84.4481C273.653 80.9299 280.788 78.9867 280.788 78.9867C285.604 77.9995 288.354 69.1412 288.354 69.1412C288.077 67.9166 287.31 66.4613 286.211 64.8737C286.369 65.2803 286.496 65.6725 286.581 66.0447Z" fill="url(#paint5_linear_4350_19737)"/>
<path d="M280.863 79.1774C280.86 79.1789 279.092 79.6594 276.85 80.5809C274.607 81.5007 271.901 82.8621 270.051 84.5956L269.897 84.7389L269.388 84.1651L269.382 84.0968C269.296 83.1105 269.103 82.1151 268.816 81.1177L268.774 80.9769L268.898 80.9075C273.079 78.5637 277.69 77.3083 277.71 77.3022C279.863 76.8667 281.706 74.9801 283.115 72.8497C285.092 69.8662 286.223 66.4508 286.363 66.0132C286.283 65.6689 286.163 65.3027 286.015 64.9226L286.382 64.7718C287.489 66.3739 288.27 67.8456 288.558 69.115L288.569 69.1651L288.555 69.2133C288.553 69.2213 287.56 72.4205 285.711 75.2111C284.476 77.0684 282.866 78.7624 280.863 79.1774ZM280.723 78.7865C282.561 78.4149 284.142 76.7991 285.349 74.9707C287.037 72.4258 288.008 69.5123 288.137 69.1099C287.931 68.2332 287.46 67.2169 286.784 66.1096L286.782 66.1165C286.779 66.1249 285.625 69.846 283.476 73.0888C282.041 75.2495 280.167 77.2138 277.851 77.693C277.848 77.694 276.709 78.0047 275.046 78.6063C273.416 79.1971 271.289 80.0666 269.26 81.191C269.526 82.1416 269.709 83.0915 269.795 84.0362L269.897 84.1518C273.745 80.6795 280.699 78.796 280.723 78.7865Z" fill="#939598"/>
<path d="M268.193 66.0841C268.675 69.4114 271.871 72.0463 275.332 71.9692C278.791 71.8926 281.206 69.1337 280.724 65.8064C280.242 62.4798 277.046 59.845 273.585 59.9215C270.125 59.9982 267.712 62.7581 268.193 66.0841Z" fill="url(#paint6_linear_4350_19737)"/>
<path d="M275.341 72.0641C273.855 72.0968 272.418 71.6379 271.217 70.8416C269.578 69.7552 268.378 68.0401 268.095 66.0905C267.888 64.663 268.207 63.3373 268.909 62.277C269.868 60.8306 271.543 59.8778 273.57 59.8325C275.055 59.7999 276.492 60.2589 277.693 61.0548C279.332 62.1413 280.533 63.8573 280.816 65.8066C281.022 67.2343 280.704 68.5602 280.001 69.6198C279.043 71.0668 277.367 72.0191 275.341 72.0641ZM271.315 70.6941C272.481 71.4669 273.874 71.9125 275.316 71.8804C277.284 71.8366 278.906 70.9134 279.836 69.5102C280.517 68.4825 280.826 67.1981 280.626 65.8125C280.352 63.9213 279.187 62.2577 277.595 61.2022C276.429 60.4293 275.036 59.9841 273.594 60.0164C271.628 60.0599 270.005 60.9837 269.075 62.3867C268.394 63.4146 268.084 64.6987 268.285 66.084C268.559 67.9755 269.723 69.6392 271.315 70.6941Z" fill="#636467"/>
<path d="M270.411 66.4282C270.775 68.9397 273.188 70.9287 275.801 70.8708C278.413 70.8134 280.236 68.7297 279.872 66.218C279.507 63.7062 277.095 61.717 274.483 61.7747C271.869 61.8329 270.047 63.9152 270.411 66.4282Z" fill="white"/>
<path d="M275.805 70.9118C274.69 70.9365 273.612 70.5922 272.711 69.9953C271.481 69.1802 270.581 67.8938 270.37 66.4318C270.213 65.3603 270.452 64.3659 270.979 63.5709C271.699 62.4858 272.955 61.7722 274.476 61.738C275.589 61.7132 276.667 62.0575 277.568 62.6549C278.798 63.4696 279.698 64.7564 279.911 66.2191C280.066 67.2897 279.827 68.2841 279.3 69.0788C278.581 70.164 277.325 70.8785 275.805 70.9118ZM272.753 69.9327C273.639 70.52 274.698 70.8585 275.794 70.8342C277.29 70.8009 278.523 70.0991 279.23 69.0322C279.748 68.2509 279.983 67.2747 279.83 66.2217C279.621 64.7842 278.736 63.5192 277.527 62.7177C276.641 62.1301 275.581 61.792 274.486 61.8155C272.991 61.8496 271.757 62.5507 271.05 63.6175C270.532 64.3989 270.297 65.3756 270.45 66.4289C270.659 67.8661 271.543 69.1309 272.753 69.9327Z" fill="#939598"/>
<path d="M265.852 84.8693C255.775 92.8783 234.962 113.051 217.028 153.76C221.267 149.286 228.662 144.274 228.662 144.274C251.68 130.739 265.791 86.6868 265.791 86.6868C265.931 86.191 266.154 85.7155 266.44 85.2593L265.852 84.8693Z" fill="#704121"/>
<path d="M245.692 76.099C246.101 78.9206 248.811 81.1546 251.746 81.0899C254.679 81.0248 256.727 78.6851 256.318 75.8641C255.909 73.0424 253.199 70.8081 250.264 70.8728C247.33 70.9381 245.284 73.2787 245.692 76.099Z" fill="#231F20"/>
<path d="M245.987 76.0284C246.368 78.6538 248.89 80.7329 251.621 80.672C254.352 80.6117 256.257 78.4336 255.877 75.8093C255.496 73.1828 252.974 71.1039 250.243 71.1643C247.512 71.2253 245.607 73.4019 245.987 76.0284Z" fill="url(#paint7_radial_4350_19737)"/>
<path d="M203.344 139.982C203.753 142.803 206.463 145.037 209.398 144.973C212.331 144.908 214.379 142.568 213.97 139.747C213.561 136.925 210.851 134.691 207.916 134.756C204.982 134.821 202.936 137.161 203.344 139.982Z" fill="#231F20"/>
<path d="M203.64 139.911C204.02 142.537 206.543 144.616 209.274 144.555C212.004 144.495 213.909 142.316 213.529 139.692C213.148 137.066 210.626 134.987 207.896 135.047C205.164 135.108 203.26 137.285 203.64 139.911Z" fill="url(#paint8_radial_4350_19737)"/>
<path d="M202.873 151.788C193.638 148.453 191.505 141.467 191.505 141.467L237.203 73.3063C188.924 143.007 202.873 151.788 202.873 151.788Z" fill="#704121"/>
<path d="M258.046 68.5439C254.763 61.7238 246.892 57.9001 246.892 57.9001C242.747 62.5833 235.064 76.5304 235.064 76.5304C246.347 62.6471 258.046 68.5439 258.046 68.5439Z" fill="#704121"/>
<defs>
<linearGradient id="paint0_linear_4350_19737" x1="164.912" y1="263.871" x2="127.013" y2="238.752" gradientUnits="userSpaceOnUse">
<stop stop-color="white"/>
<stop offset="1" stop-color="#C6C8CA"/>
</linearGradient>
<linearGradient id="paint1_linear_4350_19737" x1="102.115" y1="332.503" x2="203.805" y2="179.081" gradientUnits="userSpaceOnUse">
<stop stop-color="white"/>
<stop offset="1" stop-color="#C6C8CA"/>
</linearGradient>
<linearGradient id="paint2_linear_4350_19737" x1="183.373" y1="152.556" x2="217.559" y2="175.215" gradientUnits="userSpaceOnUse">
<stop stop-color="white"/>
<stop offset="1" stop-color="#231F20"/>
</linearGradient>
<linearGradient id="paint3_linear_4350_19737" x1="204.677" y1="167.219" x2="216.946" y2="175.351" gradientUnits="userSpaceOnUse">
<stop stop-color="white"/>
<stop offset="1" stop-color="#231F20"/>
</linearGradient>
<linearGradient id="paint4_linear_4350_19737" x1="249.873" y1="52.9897" x2="285.185" y2="76.3948" gradientUnits="userSpaceOnUse">
<stop stop-color="#C6C8CA"/>
<stop offset="1" stop-color="#231F20"/>
</linearGradient>
<linearGradient id="paint5_linear_4350_19737" x1="274.735" y1="72.4612" x2="283.449" y2="78.2368" gradientUnits="userSpaceOnUse">
<stop stop-color="#C6C8CA"/>
<stop offset="1" stop-color="#231F20"/>
</linearGradient>
<linearGradient id="paint6_linear_4350_19737" x1="271.266" y1="70.7628" x2="277.651" y2="61.1283" gradientUnits="userSpaceOnUse">
<stop stop-color="white"/>
<stop offset="1" stop-color="#231F20"/>
</linearGradient>
<radialGradient id="paint7_radial_4350_19737" cx="0" cy="0" r="1" gradientUnits="userSpaceOnUse" gradientTransform="translate(250.932 75.9181) rotate(-1.26876) scale(4.94612 4.7678)">
<stop stop-color="#D1D3D4"/>
<stop offset="0.1664" stop-color="#CCCECF"/>
<stop offset="0.3668" stop-color="#BDBFC1"/>
<stop offset="0.5845" stop-color="#A5A7A9"/>
<stop offset="0.813" stop-color="#848588"/>
<stop offset="1" stop-color="#636467"/>
</radialGradient>
<radialGradient id="paint8_radial_4350_19737" cx="0" cy="0" r="1" gradientUnits="userSpaceOnUse" gradientTransform="translate(208.584 139.801) rotate(-1.26875) scale(4.9461 4.76778)">
<stop stop-color="#D1D3D4"/>
<stop offset="0.1664" stop-color="#CCCECF"/>
<stop offset="0.3668" stop-color="#BDBFC1"/>
<stop offset="0.5845" stop-color="#A5A7A9"/>
<stop offset="0.813" stop-color="#848588"/>
<stop offset="1" stop-color="#636467"/>
</radialGradient>
</defs>
</svg>
