<svg width="238" height="85" viewBox="0 0 238 85" fill="none" xmlns="http://www.w3.org/2000/svg">
<path d="M145.704 0H-1V84.482H145.704V0Z" fill="#332631"/>
<path d="M142.497 3.02344H1.89844V80.9014H142.497V3.02344Z" fill="#24454E"/>
<path d="M139.044 9.5625H5.35156V20.9095H139.044V9.5625Z" fill="#5BB994"/>
<path d="M133.925 24.1172H29.7705V28.0642H133.925V24.1172Z" fill="#FEC749"/>
<path d="M133.925 31.4531H29.7705V35.4001H133.925V31.4531Z" fill="#332631"/>
<path d="M133.925 38.7969H29.7705V42.7439H133.925V38.7969Z" fill="#332631"/>
<path d="M133.925 46.1328H29.7705V50.0798H133.925V46.1328Z" fill="#332631"/>
<path d="M133.925 53.4688H29.7705V57.4157H133.925V53.4688Z" fill="#FF8C6D"/>
<path d="M133.925 60.8047H29.7705V64.7517H133.925V60.8047Z" fill="#332631"/>
<path d="M133.925 68.1484H29.7705V72.0954H133.925V68.1484Z" fill="#332631"/>
<path d="M25.4543 24.1172H9.1123V28.0642H25.4543V24.1172Z" fill="#FEC749"/>
<path d="M25.4543 31.4531H9.1123V35.4001H25.4543V31.4531Z" fill="#C197E1"/>
<path d="M25.4543 38.7969H9.1123V42.7439H25.4543V38.7969Z" fill="#F3EBBD"/>
<path d="M25.4543 46.1328H9.1123V50.0798H25.4543V46.1328Z" fill="#B3DCCC"/>
<path d="M25.4543 53.4688H9.1123V57.4157H25.4543V53.4688Z" fill="#FF8C6D"/>
<path d="M25.4543 60.8047H9.1123V64.7517H25.4543V60.8047Z" fill="#B3DCCC"/>
<path d="M25.4543 68.1484H9.1123V72.0954H25.4543V68.1484Z" fill="#DDC4EE"/>
<path d="M163.464 35.6406H145.704V41.6836H163.464V35.6406Z" fill="#231922"/>
<path d="M199.334 77.2785C220.449 77.2785 237.567 60.161 237.567 39.0455C237.567 17.93 220.449 0.8125 199.334 0.8125C178.218 0.8125 161.101 17.93 161.101 39.0455C161.101 60.161 178.218 77.2785 199.334 77.2785Z" fill="#231922"/>
<path d="M199.334 72.9548C218.062 72.9548 233.245 57.7723 233.245 39.0438C233.245 20.3153 218.062 5.13281 199.334 5.13281C180.605 5.13281 165.423 20.3153 165.423 39.0438C165.423 57.7723 180.605 72.9548 199.334 72.9548Z" fill="#24454E"/>
<path d="M221.26 44.6818C224.149 32.5726 216.674 20.4149 204.564 17.5267C192.455 14.6385 180.297 22.1136 177.409 34.2228C174.521 46.332 181.996 58.4898 194.105 61.3779C206.215 64.2661 218.372 56.791 221.26 44.6818Z" fill="#21735D"/>
<path d="M199.316 40.4531H199.223C198.692 40.4531 198.261 40.0221 198.261 39.4911V12.0001C198.261 11.4691 198.691 11.0391 199.223 11.0391H199.316C199.847 11.0391 200.278 11.4701 200.278 12.0001V39.4921C200.278 40.0231 199.848 40.4531 199.316 40.4531Z" fill="white"/>
<path d="M219.054 39.3985V39.4915C219.054 40.0225 218.623 40.4535 218.092 40.4535H199.027C198.496 40.4535 198.065 40.0225 198.065 39.4915V39.3985C198.065 38.8675 198.496 38.4375 199.027 38.4375H218.092C218.624 38.4365 219.054 38.8675 219.054 39.3985Z" fill="white"/>
<path d="M199.334 43.7026C201.905 43.7026 203.99 41.6181 203.99 39.0466C203.99 36.4752 201.905 34.3906 199.334 34.3906C196.762 34.3906 194.678 36.4752 194.678 39.0466C194.678 41.6181 196.762 43.7026 199.334 43.7026Z" fill="#C197E1"/>
</svg>
