<svg width="310" height="148" viewBox="0 0 310 148" fill="none" xmlns="http://www.w3.org/2000/svg">
<path d="M143.994 9.35296C143.429 8.9714 142.868 8.59393 142.314 8.22656C142.868 8.59393 143.43 8.97071 143.994 9.35296Z" fill="#EE76A4"/>
<path d="M144.017 9.36651C144.009 9.36182 144.002 9.35625 143.994 9.35156C144.002 9.35643 144.009 9.36182 144.017 9.36651Z" fill="#EE76A4"/>
<path d="M266.61 39.7946C254.258 31.5164 245.307 24.2677 233.119 15.7769C202.327 -5.67462 177.573 -4.62638 156.155 19.7961C157.005 18.826 151.522 14.5523 145.711 10.5284C139.702 9.16748 133.637 8.95026 127.35 10.3233C127.35 10.3233 108.932 8.76264 65.8867 53.3211C65.8867 53.3211 89.1453 46.673 139.075 72.0387C164.194 79.4778 178.638 62.1698 202.336 55.982C225.837 49.8463 243.757 60.7434 281.586 59.001C287.157 58.7444 292.785 59.1867 298.423 59.0872C298.438 59.0952 298.453 59.1039 298.469 59.112C287.631 53.094 276.406 46.3583 266.61 39.7946Z" fill="#EE76A4"/>
<path d="M267.636 75.8147C261.326 76.1248 255.147 76.1943 248.843 75.6764C235.389 74.5748 221.025 71.8062 208.101 77.1248C201.113 80.0022 195.255 84.9032 188.639 88.4629C176.263 95.1224 160.071 94.3087 146.444 94.4416C135.22 94.5505 120.832 86.0391 110.158 91.5387C101.793 95.8471 104.335 108.186 106.97 115.055C115.22 136.565 139.91 142.979 160.136 147.72C160.214 147.739 160.293 147.754 160.369 147.772C166.619 147.724 172.847 147.475 179.006 147.083C204.082 145.479 222.206 137.958 241.218 121.055C248.497 114.584 271.412 90.4029 290.246 74.7383C287.178 77.2887 271.891 75.6076 267.636 75.8147Z" fill="#EE76A4"/>
<path d="M275.628 67.595C264.273 67.4934 252.919 67.3632 241.563 67.257C231.525 67.1635 220.771 66.0412 210.8 67.3492C203.773 68.2719 197.123 70.7758 190.784 73.8791C188.222 75.1324 185.688 76.4379 183.163 77.7613C181.192 78.7942 178.956 80.435 176.807 81.0162C167.045 83.6584 156.415 83.9244 146.383 83.0945C135.604 82.2026 125.495 79.5116 115.369 75.7777C104.18 71.6523 92.9349 67.2964 80.9106 66.5067C56.6612 64.916 32.3523 66.3049 8.07812 66.4472C26.1859 74.6178 40.422 92.6687 53.5411 106.723C67.7486 121.946 84.4073 135.622 104.812 141.285C106.155 141.658 107.507 142.006 108.862 142.342C109.269 142.444 109.676 142.539 110.083 142.637C111.083 142.877 112.087 143.107 113.092 143.328C113.499 143.417 113.906 143.508 114.313 143.594C115.663 143.88 117.015 144.155 118.373 144.407C118.411 144.414 118.45 144.42 118.488 144.428C119.838 144.678 121.193 144.908 122.55 145.126C122.973 145.195 123.397 145.258 123.82 145.325C124.831 145.48 125.844 145.628 126.859 145.767C127.282 145.825 127.705 145.885 128.129 145.94C129.494 146.118 130.86 146.287 132.23 146.437C132.288 146.444 132.347 146.448 132.404 146.455C133.758 146.602 135.116 146.733 136.474 146.853C136.91 146.892 137.347 146.927 137.782 146.963C138.796 147.046 139.81 147.124 140.825 147.193C141.26 147.223 141.695 147.255 142.131 147.282C143.501 147.368 144.872 147.447 146.244 147.509C146.319 147.513 146.396 147.515 146.473 147.519C147.821 147.579 149.172 147.625 150.522 147.664C150.963 147.676 151.405 147.685 151.847 147.696C152.859 147.719 153.872 147.737 154.885 147.749C155.323 147.753 155.764 147.76 156.202 147.763C157.577 147.773 158.95 147.775 160.323 147.766C160.339 147.766 160.355 147.766 160.371 147.766C160.293 147.746 160.213 147.731 160.135 147.712C139.908 142.971 115.218 136.556 106.969 115.047C104.334 108.178 101.791 95.8386 110.157 91.5302C120.831 86.0306 135.218 94.5418 146.443 94.4331C160.07 94.3002 176.262 95.1138 188.637 88.4544C195.254 84.8948 201.111 79.9937 208.099 77.1163C221.023 71.7977 235.387 74.5663 248.841 75.6679C255.145 76.1856 261.325 76.1162 267.634 75.8063C271.889 75.5992 287.177 77.28 290.245 74.73H290.246C291.556 73.6404 292.844 72.5955 294.107 71.5967C294.31 71.4358 294.514 71.2754 294.716 71.117C295.036 70.8664 295.353 70.62 295.668 70.3768C296.112 70.0347 296.552 69.7 296.989 69.372C297.194 69.2177 297.398 69.0667 297.602 68.915C298.059 68.5764 298.511 68.2462 298.957 67.9242C299.048 67.858 299.141 67.7939 299.231 67.7284C291.364 67.72 283.495 67.6659 275.628 67.595Z" fill="#D95694"/>
<path d="M5.06469 63.9101C15.1113 63.8967 25.1547 63.6462 35.1985 63.4551C48.0057 63.2112 60.8382 62.9869 73.6408 63.5567C85.3336 64.0772 96.1638 66.0934 107.196 70.0632C118.209 74.0256 129.053 78.5131 140.762 79.9381C151.266 81.2162 162.449 81.6196 172.853 79.3521C178.771 78.0621 184.061 74.2674 189.492 71.6765C194.379 69.3442 199.438 67.1008 204.736 65.8808C214.554 63.6186 225.022 64.5607 235.031 64.6455C256.773 64.8312 278.514 65.1706 300.257 65.1786C301.042 65.1793 301.449 65.7586 301.488 66.3657C304.195 65.9494 306.863 65.5126 309.473 65.049C307.69 64.1163 305.875 63.1522 304.04 62.1628C304.008 62.1449 303.975 62.1267 303.941 62.1088C302.135 61.1341 300.308 60.1339 298.47 59.1137C298.454 59.1057 298.439 59.097 298.424 59.0889C292.786 59.1885 287.158 58.7462 281.587 59.0027C243.758 60.7452 225.838 49.848 202.337 55.9837C178.639 62.1716 164.195 79.4796 139.076 72.0405C89.1463 46.6748 65.8877 53.3228 65.8877 53.3228C108.933 8.76438 127.351 10.325 127.351 10.325C133.639 8.95149 139.706 9.16921 145.715 10.5301C142.68 8.42831 139.555 6.39392 137.195 4.93555C137.179 4.92426 137.162 4.91485 137.145 4.90408C136.907 4.75648 136.676 4.61487 136.454 4.47993C136.408 4.45257 136.369 4.42844 136.325 4.40176C136.13 4.2841 135.941 4.16934 135.76 4.06245C135.704 4.0291 135.652 3.99899 135.597 3.96564C135.44 3.87277 135.285 3.78059 135.14 3.69712C135.062 3.65163 134.994 3.61298 134.919 3.57022C134.808 3.50608 134.694 3.4399 134.592 3.3838C134.502 3.33232 134.425 3.29094 134.342 3.24613C134.27 3.20611 134.19 3.16197 134.125 3.12657C134.032 3.07714 133.957 3.039 133.878 2.99967C133.836 2.97829 133.786 2.95161 133.749 2.93279C133.64 2.87995 133.547 2.83856 133.474 2.80983C124.398 -0.751006 114.592 -0.692337 105.228 1.66941C79.8834 8.05889 62.3883 28.5817 41.9863 43.3804C29.0175 52.787 14.0851 57.682 0 65.049C1.29743 65.2788 2.6082 65.5025 3.93026 65.7204C3.62907 64.9657 4.00448 63.9108 5.06469 63.9101Z" fill="#D95694"/>
<path d="M300.258 65.1827C278.514 65.1746 256.773 64.8353 235.031 64.6496C225.022 64.5647 214.554 63.6227 204.737 65.8849C199.439 67.1048 194.38 69.3482 189.492 71.6806C184.061 74.2713 178.771 78.0661 172.854 79.3562C162.45 81.6237 151.266 81.2201 140.762 79.9421C129.053 78.5171 118.209 74.0297 107.196 70.0672C96.1642 66.0975 85.3339 64.0812 73.6412 63.5608C60.8387 62.9909 48.0061 63.2153 35.1989 63.4592C25.1548 63.6502 15.1117 63.9008 5.06505 63.9141C4.00484 63.9148 3.62926 64.9697 3.93061 65.7246C4.0989 66.1456 4.4738 66.4743 5.06505 66.4736C6.06984 66.4722 7.07464 66.4649 8.07944 66.4589C32.3536 66.3166 56.6626 64.9276 80.912 66.5184C92.9362 67.308 104.181 71.664 115.37 75.7894C125.496 79.5233 135.605 82.2143 146.384 83.1062C156.416 83.936 167.046 83.6701 176.808 81.0278C178.957 80.4467 181.193 78.8058 183.164 77.773C185.69 76.4496 188.224 75.1441 190.785 73.8908C197.125 70.7875 203.774 68.2836 210.802 67.3609C220.772 66.0528 231.527 67.1751 241.564 67.2687C252.92 67.3749 264.274 67.5052 275.629 67.6066C283.496 67.6775 291.365 67.7317 299.232 67.7395C299.575 67.7395 299.916 67.743 300.258 67.743C301.124 67.743 301.531 67.0402 301.489 66.3701C301.449 65.7624 301.043 65.1833 300.258 65.1827Z" fill="#462626"/>
<path d="M199.407 31.859C207.591 32.6794 214.514 34.4118 222.394 37.5363C229.313 40.2815 241.012 45.6976 248.461 43.9839C251.433 36.4766 232.646 27.4415 227.673 24.3997C219.245 19.2474 207.984 11.3113 197.657 11.2424C190.748 11.1962 178.937 18.3495 178.289 25.981C177.567 34.5106 193.906 31.3066 199.407 31.859Z" fill="#F29ABA"/>
<path d="M194.911 117.689C186.953 121.293 178.427 123.45 170.473 126.872C163.107 130.042 163.416 133.363 170.959 135.442C196.386 142.452 216.672 126.258 236.144 112.448C243.652 107.124 257.467 97.015 255.504 90.2111C242.042 79.9796 210.834 110.475 194.911 117.689Z" fill="#F29ABA"/>
</svg>
