<svg width="271" height="263" viewBox="0 0 271 263" fill="none" xmlns="http://www.w3.org/2000/svg">
<path opacity="0.1" d="M151.603 262.685C217.292 262.685 270.544 244.763 270.544 222.655C270.544 200.547 217.292 182.625 151.603 182.625C85.9137 182.625 32.6621 200.547 32.6621 222.655C32.6621 244.763 85.9137 262.685 151.603 262.685Z" fill="#686868"/>
<path d="M121.525 0.125125C121.516 0.0837167 121.507 0.0414083 121.498 0C115.124 0.74805 108.91 2.83827 103.38 6.09603C103.054 6.28776 102.7 6.52451 102.626 6.89539C102.568 7.18074 102.694 7.46789 102.818 7.73165C106.019 14.5721 109.235 21.4054 112.464 28.2315C112.855 29.0587 113.345 29.9724 114.225 30.2227C114.732 30.3667 115.272 30.256 115.787 30.1443C120.921 29.0335 130.439 29.2802 127.68 21.2893C125.821 14.1337 123.106 7.42019 121.525 0.125125Z" fill="#734626"/>
<path d="M228.97 204.537C233.627 201.501 237.056 196.895 239.76 192.038C255.503 163.765 256.405 121.751 246.741 91.5118C236.023 57.9792 209.163 29.1599 175.281 19.6045C141.768 10.1544 100.325 17.7771 76.6914 44.6583C46.5371 78.9552 55.7127 130.343 84.3294 162.232C100.829 180.618 122.69 193.643 145.842 202.259C169.455 211.049 205.938 219.545 228.97 204.537Z" fill="#F49206"/>
<mask id="mask0_4350_26343" style="mask-type:luminance" maskUnits="userSpaceOnUse" x="58" y="15" width="196" height="198">
<path d="M228.968 204.537C233.625 201.501 237.054 196.895 239.758 192.038C255.501 163.765 256.403 121.751 246.739 91.5118C236.021 57.9792 209.161 29.1599 175.279 19.6045C141.766 10.1544 100.323 17.7771 76.6894 44.6583C46.5352 78.9552 55.7107 130.343 84.3275 162.232C100.827 180.618 122.688 193.643 145.84 202.259C169.453 211.049 205.936 219.545 228.968 204.537Z" fill="white"/>
</mask>
<g mask="url(#mask0_4350_26343)">
<path d="M123.753 -7.1467C105.923 -6.21591 88.1947 -0.781526 72.9213 8.90982C30.1942 36.0206 19.3336 96.42 39.5606 140.73C59.2935 183.954 103.772 214.127 149.235 223.781C170.463 228.289 194.666 229.353 211.662 215.996C217.531 211.383 222.114 205.326 225.9 198.906C238.602 177.362 242.669 151.552 241.155 126.577C237.299 62.9729 196.968 -10.9707 123.753 -7.1467Z" fill="#FCA01A"/>
<path opacity="0.46" d="M173.993 197.369C84.497 219.766 -10.1903 93.4507 76.8076 24.5761C94.2901 10.7349 116.463 3.00329 138.27 4.25724C176.603 6.46268 211.134 34.912 223.775 72.1353C233.41 100.512 231.722 135.176 217.393 162.171C207.039 181.678 191.641 192.952 173.993 197.369Z" fill="#FD8D0D"/>
<path opacity="0.33" d="M158.216 149.84C125.069 159.142 85.277 143.225 67.4021 113.564C42.9271 72.9505 72.1262 7.80539 119.372 2.58254C153.578 -1.19912 189.029 28.6725 201.724 59.6891C216.618 96.0789 195.841 139.282 158.216 149.84Z" fill="#FCAF3F"/>
</g>
<mask id="mask1_4350_26343" style="mask-type:luminance" maskUnits="userSpaceOnUse" x="58" y="15" width="196" height="198">
<path d="M228.968 204.537C233.625 201.501 237.054 196.895 239.758 192.038C255.501 163.765 256.403 121.751 246.739 91.5118C236.021 57.9792 209.161 29.1599 175.279 19.6045C141.766 10.1544 100.323 17.7771 76.6894 44.6583C46.5352 78.9552 55.7107 130.343 84.3275 162.232C100.827 180.618 122.688 193.643 145.84 202.259C169.453 211.049 205.936 219.545 228.968 204.537Z" fill="white"/>
</mask>
<g mask="url(#mask1_4350_26343)">
<path opacity="0.1" d="M106.567 80.9406C98.5229 95.8574 86.6288 108.103 75.5566 120.756C64.9632 132.861 52.4858 145.955 50.8673 162.68C47.624 146.989 43.5795 131.542 43.7307 115.59C44.0989 76.9051 53.4697 36.2682 89.9504 16.4813C95.5694 13.4333 101.854 10.9002 108.196 11.7059C110.897 12.0488 115.473 36.2394 115.934 39.1695C118.288 54.1422 113.615 67.869 106.567 80.9406Z" fill="black"/>
</g>
<mask id="mask2_4350_26343" style="mask-type:luminance" maskUnits="userSpaceOnUse" x="58" y="15" width="196" height="198">
<path d="M228.968 204.537C233.625 201.501 237.054 196.895 239.758 192.038C255.501 163.765 256.403 121.751 246.739 91.5118C236.021 57.9792 209.161 29.1599 175.279 19.6045C141.766 10.1544 100.323 17.7771 76.6894 44.6583C46.5352 78.9552 55.7107 130.343 84.3275 162.232C100.827 180.618 122.688 193.643 145.84 202.259C169.453 211.049 205.936 219.545 228.968 204.537Z" fill="white"/>
</mask>
<g mask="url(#mask2_4350_26343)">
<path opacity="0.2" d="M204.618 204.133C203.592 200.858 202.453 197.68 201.222 194.583C200.452 193.804 199.636 193.076 198.818 192.355C197.984 191.603 197.152 190.858 196.267 190.173C194.602 188.805 192.9 187.498 191.166 186.249C189.506 188.209 187.911 190.238 186.369 192.321V192.319L190.88 174.447C184.26 164.284 176.021 155.514 165.934 148.317C165.475 147.99 165.013 147.673 164.551 147.353C161.97 151.362 159.494 155.454 157.139 159.63L157.485 142.831C145.068 135.522 131.609 130.765 117.983 128.682C117.907 128.861 117.823 129.035 117.749 129.215C115.842 133.841 114.213 138.659 112.773 143.587C112.338 145.084 111.921 146.59 111.512 148.103L109.584 127.741C95.3503 126.722 81.1329 128.643 67.9155 133.649C65.9234 138.581 64.2482 143.693 62.8763 148.918C62.3749 150.826 61.9194 152.75 61.4946 154.685L57.9199 138.135C46.5129 144.101 36.1329 152.614 27.5037 163.784L27.799 190.611L21.5103 178.76C19.8864 179.562 18.2652 180.375 16.6449 181.196C15.6556 183.188 14.7212 185.214 13.8498 187.272L13.8489 187.275C13.5068 188.084 13.1711 188.897 12.8506 189.718C8.53874 200.727 9.06805 209.726 12.7021 217.093C13.6104 218.934 14.7131 220.674 15.9823 222.318C16.3001 222.73 16.6278 223.134 16.9653 223.533C17.6405 224.332 18.357 225.106 19.1087 225.858C20.2375 226.985 21.4482 228.061 22.7292 229.088C23.4097 229.632 24.1146 230.16 24.8329 230.677C25.4684 231.135 26.113 231.586 26.7755 232.024C27.2463 232.334 27.7234 232.64 28.2068 232.94C31.938 235.257 36.0402 237.269 40.3133 239.025C41.0236 239.316 41.7374 239.604 42.4566 239.882C44.699 240.748 46.9791 241.545 49.2701 242.281C49.9705 242.507 50.6717 242.723 51.3729 242.938C54.6874 243.948 58.0073 244.833 61.2506 245.61C61.8123 245.744 62.3713 245.876 62.9276 246.005C64.4859 246.364 66.0207 246.697 67.5276 247.008C70.4108 247.605 73.1807 248.121 75.7741 248.567C76.587 248.707 77.3819 248.841 78.1578 248.968C79.6161 249.207 81.0078 249.424 82.3148 249.622C91.4481 251.003 100.783 251.763 110.144 251.807C114.156 251.826 118.173 251.714 122.181 251.462C124.853 251.295 127.521 251.065 130.182 250.773C135.502 250.187 140.791 249.345 146.014 248.231C146.929 248.035 147.85 247.831 148.773 247.622C148.963 247.579 149.152 247.537 149.342 247.493C150.259 247.282 151.179 247.065 152.101 246.839C152.227 246.808 152.354 246.776 152.481 246.745C153.376 246.524 154.273 246.295 155.171 246.059C155.265 246.033 155.36 246.01 155.455 245.985C156.413 245.73 157.374 245.465 158.334 245.191C158.469 245.152 158.604 245.113 158.739 245.074C160.722 244.502 162.705 243.887 164.68 243.222C164.761 243.194 164.843 243.167 164.925 243.139C165.932 242.798 166.935 242.444 167.936 242.076C167.957 242.068 167.98 242.06 168.001 242.052C170.047 241.298 172.075 240.484 174.077 239.606C174.117 239.589 174.156 239.572 174.195 239.554C176.209 238.668 178.193 237.716 180.137 236.691C183.077 235.142 185.922 233.424 188.636 231.514C188.65 231.505 188.664 231.495 188.677 231.485C194.047 227.703 198.904 223.174 202.926 217.692C204.119 216.065 205.261 214.303 205.676 212.253C206.224 209.556 205.44 206.756 204.618 204.133ZM22.6383 209.17C22.4213 209.224 22.2062 209.278 21.9892 209.332C22.2017 209.207 22.4177 209.09 22.6302 208.966L22.6383 209.17Z" fill="black"/>
</g>
<path d="M82.5962 92.8698C71.6158 105.779 57.4281 115.274 43.9596 125.337C31.0726 134.965 16.1377 145.167 11.0652 161.185C11.1678 145.162 10.4359 129.212 13.9124 113.643C22.3453 75.887 39.9898 38.1001 79.7975 26.3618C85.9296 24.5533 92.6035 23.3876 98.6383 25.4994C101.208 26.3987 100.635 51.0114 100.474 53.973C99.6519 69.1078 92.2182 81.5572 82.5962 92.8698Z" fill="#487220"/>
<path d="M14.1317 113.653C22.5646 75.8954 40.209 38.1094 80.0168 26.3711C85.5196 24.7481 91.4572 23.6516 96.9789 24.9668C74.5563 48.8927 26.9232 102.645 11.2844 161.195C11.3861 145.172 10.6543 129.221 14.1317 113.653Z" fill="#3A5E14"/>
<path d="M106.847 16.3346C101.731 21.7483 97.6888 25.7964 92.6721 31.2137C87.6455 36.6067 82.7098 42.0834 77.8957 47.6654C68.2655 58.8276 59.1134 70.4084 50.6013 82.4511C46.347 88.4733 42.2917 94.6359 38.4191 100.911C36.4648 104.039 34.6258 107.235 32.7705 110.422C30.9882 113.65 29.1815 116.867 27.5144 120.157C20.7153 133.246 15.064 146.962 11.0645 161.189C14.8326 146.899 20.2706 133.066 26.8743 119.834C28.4929 116.508 30.2518 113.253 31.9873 109.987C33.7958 106.76 35.5899 103.524 37.4983 100.356C41.2817 93.9977 45.2515 87.7486 49.4221 81.6355C57.7685 69.4119 66.7676 57.6376 76.2555 46.2755C80.9986 40.5936 85.865 35.0142 90.8231 29.5195C95.757 24.0167 100.445 18.6373 105.39 13.2344L106.847 16.3346Z" fill="#5D8D2A"/>
<path d="M86.2949 36.375C88.1421 38.972 89.5941 41.8472 90.8084 44.8034C91.9859 47.7758 92.9113 50.84 93.68 53.9366C94.3912 57.0458 94.9664 60.1839 95.3219 63.348C95.6829 66.5094 95.8918 69.6925 95.7594 72.8782C94.5379 66.6364 93.3784 60.4647 91.9292 54.3543C91.2072 51.3 90.3745 48.2817 89.4888 45.2715C88.5418 42.2802 87.4886 39.3321 86.2949 36.375Z" fill="#5D8D2A"/>
<path d="M74.0762 50.5391C75.3922 54.0939 76.6813 57.6316 77.8479 61.2332C79.0263 64.8294 80.0255 68.5076 80.7285 72.2586C81.4045 76.0124 81.7781 79.8291 81.7628 83.6378C81.7628 87.4456 81.4297 91.2416 80.7609 94.9711C80.6826 91.1786 80.6205 87.4231 80.3585 83.6882C80.0894 79.9561 79.651 76.2491 78.9587 72.5818C78.3061 68.9072 77.3996 65.2741 76.5022 61.6167C75.5957 57.9647 74.6721 54.2856 74.0762 50.5391Z" fill="#5D8D2A"/>
<path d="M59.1853 69.3281C60.1233 73.0171 60.8668 76.742 61.4241 80.5093C61.9894 84.2738 62.3233 88.0897 62.344 91.9218C62.3359 95.752 62.0245 99.5832 61.3835 103.346C60.7561 107.111 59.8568 110.817 58.6875 114.439C59.125 110.656 59.6318 106.911 59.991 103.163C60.3411 99.4158 60.568 95.6728 60.5455 91.9254C60.5608 88.1779 60.3096 84.4278 60.0342 80.6641C59.7434 76.9022 59.3878 73.1296 59.1853 69.3281Z" fill="#5D8D2A"/>
<path d="M41.7178 94.5391C42.2066 97.4962 42.4775 100.475 42.5874 103.466C42.7089 106.457 42.6198 109.464 42.3452 112.458C42.0382 115.449 41.544 118.425 40.787 121.33C40.0452 124.238 39.1028 127.084 37.9199 129.839C38.3826 126.876 38.9371 123.961 39.4115 121.044C39.8787 118.126 40.2847 115.213 40.5547 112.283C40.859 109.356 41.0219 106.412 41.1876 103.454C41.3433 100.496 41.4621 97.5259 41.7178 94.5391Z" fill="#5D8D2A"/>
<path d="M81.6242 41.6705C78.9633 41.4211 76.3519 41.1583 73.7386 41.0017C71.1263 40.8495 68.5185 40.7982 65.9152 40.8774C63.311 40.9279 60.7112 41.125 58.1133 41.404C55.5127 41.6912 52.931 42.1143 50.3105 42.6265C52.6879 41.404 55.2651 40.5732 57.8856 40.0178C60.5078 39.4444 63.1876 39.1617 65.8711 39.0789C68.5545 39.033 71.2451 39.1662 73.8899 39.61C76.5337 40.0358 79.1388 40.6965 81.6242 41.6705Z" fill="#5D8D2A"/>
<path d="M66.408 59.9648L57.4287 61.0108C54.4572 61.3943 51.4992 61.8075 48.5673 62.3593C45.6291 62.8778 42.7189 63.5295 39.8176 64.2533C36.9172 64.9869 34.0375 65.8268 31.1191 66.6694C33.7432 65.1372 36.5382 63.9094 39.4134 62.9084C42.2859 61.8948 45.2511 61.1494 48.2451 60.5895C51.2463 60.062 54.2772 59.7173 57.3162 59.6164C60.3525 59.503 63.3933 59.5912 66.408 59.9648Z" fill="#5D8D2A"/>
<path d="M50.9098 80.7456C48.1327 81.4064 45.3529 81.8889 42.6164 82.5172C39.8816 83.1428 37.1676 83.791 34.5463 84.683C31.9133 85.5391 29.3909 86.6571 26.9551 87.9912C24.5318 89.3514 22.1985 90.9429 19.7617 92.4291C21.7232 90.3641 23.8386 88.4404 26.2142 86.7976C28.5925 85.1601 31.2408 83.8981 33.9765 82.9763C36.7238 82.0797 39.5432 81.4892 42.3778 81.1381C45.2089 80.7619 48.0625 80.6637 50.9098 80.7456Z" fill="#5D8D2A"/>
<path d="M33.9504 107.414C32.0528 108.711 30.1408 109.913 28.245 111.13C26.3537 112.352 24.4688 113.571 22.6279 114.845C20.7699 116.094 18.9561 117.402 17.1836 118.758C15.4291 120.143 13.6846 121.524 12.2578 123.317C13.0428 121.125 14.6343 119.312 16.2582 117.701C17.9028 116.076 19.7284 114.665 21.6152 113.358C23.5227 112.081 25.4923 110.901 27.5582 109.91C29.6151 108.907 31.7386 108.035 33.9504 107.414Z" fill="#5D8D2A"/>
<path d="M104.925 138.617L106.953 158.978L155.291 153.707L154.925 170.505L190.402 185.322L185.659 203.193L184.588 233.25L131.855 253.323L63.9961 249.556L13.9865 232.407L12.3203 189.637L18.933 201.488L18.6225 174.66L50.6032 149.012L54.3614 165.561L104.925 138.617Z" fill="#FFC701"/>
<path d="M48.5991 158.163C47.9941 161.479 47.5125 164.805 47.1327 168.133C39.6306 171.018 32.3949 174.488 25.5175 178.488C23.2113 179.815 20.9473 181.203 18.7149 182.635L18.623 174.672C27.696 163.503 38.6097 154.988 50.6038 149.023C49.8305 152.055 49.1572 155.105 48.5991 158.163Z" fill="#FFEB01"/>
<path d="M187.474 189.382C187.465 189.376 187.457 189.369 187.449 189.362C179.939 183.454 171.635 178.631 163.165 174.427C161.047 173.366 158.912 172.365 156.777 171.36L154.926 170.519C157.402 166.343 160.005 162.252 162.719 158.242C163.204 158.562 163.691 158.879 164.172 159.205C174.778 166.402 183.441 175.173 190.402 185.336C189.402 186.671 188.419 188.015 187.474 189.382Z" fill="#FFEB01"/>
<path d="M46.4207 176.039C46.1938 179.482 46.0678 182.925 46.0336 186.359C45.9724 192.806 46.2253 199.213 46.6862 205.591C37.1335 208.535 27.9283 212.342 19.111 216.861L18.7617 186.689C27.8634 182.6 37.0507 178.92 46.4207 176.039Z" fill="#FFEB01"/>
<path d="M141.664 207.235C140.305 206.834 138.936 206.455 137.566 206.078C141.372 196.386 145.772 186.959 150.741 177.875L153.562 178.948C155.714 179.773 157.869 180.594 159.991 181.467C168.526 184.876 176.845 188.668 184.71 193.323C184.742 193.342 184.774 193.363 184.805 193.382C179.723 201.374 175.595 209.871 172.491 218.648C162.494 214.182 152.21 210.381 141.664 207.235Z" fill="#FFEB01"/>
<path d="M101.124 152.586C100.665 154.652 100.244 156.717 99.8384 158.78C92.9845 158.742 86.1377 159.171 79.3611 160.037C74.6181 160.623 69.866 161.508 65.1914 162.565C61.5412 163.438 57.9251 164.432 54.3613 165.576C54.8087 163.641 55.2876 161.717 55.8142 159.809C57.2563 154.583 59.018 149.471 61.1127 144.54C75.0097 139.532 89.959 137.612 104.924 138.631C103.41 143.257 102.165 147.922 101.124 152.586Z" fill="#FFEB01"/>
<path d="M3.21489 200.599C4.41213 197.691 5.75521 194.853 7.2054 192.077C8.90854 191.256 10.6144 190.443 12.3211 189.641L17.3396 217.759C15.8228 218.557 14.3159 219.372 12.8234 220.211C14.4113 219.837 15.9948 219.461 17.5764 219.085L19.2453 228.438L19.1328 218.716C28.5721 216.47 37.9178 214.258 47.2697 212.534C48.2077 222.395 49.5733 232.188 51.0262 241.938C50.433 231.98 49.9415 221.996 49.8911 212.051C51.6617 211.743 53.4333 211.454 55.2066 211.188C67.9973 209.212 80.8114 208.435 93.6074 208.943C93.4985 211.131 93.4031 213.317 93.3266 215.503C92.9431 226.029 92.9161 236.541 92.9476 247.046C93.7379 236.57 94.5868 226.099 95.7868 215.686C96.0379 213.481 96.3125 211.28 96.596 209.081C96.8868 209.097 97.1776 209.103 97.4692 209.121C108.816 209.794 120.153 211.296 131.491 213.245C128.424 225.14 126.237 237.222 124.975 249.365C127.312 237.246 130.579 225.354 134.678 213.798C136.4 214.107 138.122 214.424 139.844 214.751C150.4 216.725 160.946 219.064 171.614 221.248C170.16 225.677 168.949 230.165 168.023 234.693C169.695 230.225 171.642 225.889 173.815 221.692C176.708 222.277 179.608 222.851 182.522 223.397C179.986 222.125 177.423 220.912 174.848 219.729C179.279 211.544 184.626 203.952 190.704 197.127C192.527 198.376 194.316 199.683 196.068 201.05C196.998 201.735 197.874 202.481 198.75 203.232C199.61 203.953 200.468 204.682 201.278 205.46C202.572 208.557 203.769 211.735 204.848 215.01C205.712 217.634 206.537 220.434 205.963 223.131C205.527 225.18 204.325 226.942 203.07 228.57C188.839 247.019 164.723 254.747 143.231 259.108C121.262 263.564 98.2046 263.656 76.2555 260.499C48.3977 256.494 -14.921 244.635 3.21489 200.599Z" fill="#FFEB01"/>
<path d="M94.2148 199.105C80.542 198.64 66.7809 200.193 53.6401 203.597C52.3987 203.918 51.17 204.275 49.9395 204.625C50.0574 198.597 50.3688 192.591 50.9585 186.621C51.368 182.473 51.9207 178.349 52.6202 174.262C52.9623 174.171 53.3034 174.074 53.6455 173.986C55.8482 173.425 58.0474 172.866 60.2708 172.417C62.4763 171.893 64.7123 171.521 66.9313 171.088C71.4079 170.386 75.852 169.693 80.3863 169.338C84.9025 168.947 89.4232 168.629 93.9466 168.603C95.3094 168.555 96.6723 168.558 98.0343 168.569C97.1458 173.637 96.3159 178.798 95.7064 183.927C95.0826 188.983 94.5956 194.043 94.2148 199.105Z" fill="#FFEB01"/>
<path d="M148.086 167.642C144.306 166.172 140.461 164.857 136.55 163.788C127.262 161.185 117.693 159.634 108.095 159.048C107.715 159.024 107.334 159.012 106.953 158.991C107.383 157.479 107.822 155.972 108.279 154.475C109.792 149.547 111.504 144.729 113.51 140.103C113.589 139.923 113.677 139.749 113.757 139.57C128.083 141.652 142.235 146.41 155.291 153.719C152.745 158.292 150.336 162.933 148.086 167.642Z" fill="#FFEB01"/>
<path d="M98.0565 199.275C98.0331 199.273 98.0097 199.272 97.9863 199.271C98.7443 194.392 99.595 189.535 100.579 184.713C101.6 179.591 102.818 174.58 104.127 169.503C104.195 169.238 104.265 168.976 104.334 168.711C105.388 168.754 106.442 168.805 107.493 168.885C109.749 168.98 111.99 169.219 114.237 169.408C116.472 169.682 118.717 169.908 120.94 170.268C125.407 170.867 129.818 171.785 134.197 172.813C137.653 173.599 141.046 174.605 144.417 175.691C140.246 185.275 136.684 195.093 133.749 205.067C122.116 202.079 110.176 200.002 98.0565 199.275Z" fill="#FFEB01"/>
<path d="M143.229 259.111C160.484 255.61 179.425 249.933 193.59 238.286C171.334 243.621 148.456 246.354 125.568 246.441C125.367 247.416 125.162 248.39 124.973 249.368C125.075 248.393 125.192 247.419 125.306 246.444C114.558 246.475 103.809 245.92 93.1224 244.784C93.0648 245.539 93.0035 246.294 92.9468 247.05C92.9441 246.288 92.9459 245.526 92.9441 244.765C86.8499 244.113 80.7746 243.277 74.7326 242.244C66.6462 240.86 58.5401 239.097 50.723 236.589C50.8211 238.373 50.9183 240.158 51.0245 241.941C50.7509 240.106 50.4862 238.269 50.2207 236.431C42.1703 233.81 34.4378 230.382 27.3696 225.726C24.4701 223.817 21.7164 221.68 19.1383 219.35L19.2436 228.441L17.5747 219.087C15.9931 219.464 14.4097 219.84 12.8218 220.213C14.3143 219.374 15.8212 218.56 17.338 217.761L17.3164 217.641C15.8356 216.199 14.4169 214.693 13.081 213.117C9.0239 208.325 6.22794 203.438 4.26464 198.156C3.90457 198.966 3.5517 199.781 3.21323 200.602C-14.9236 244.638 48.3951 256.498 76.2521 260.505C98.2039 263.661 121.26 263.569 143.229 259.111Z" fill="#FFA904"/>
</svg>
