<svg width="210" height="297" viewBox="0 0 210 297" fill="none" xmlns="http://www.w3.org/2000/svg">
<path d="M25.0391 235.575C25.6282 234.257 26.5528 233.152 27.3593 231.976C36.2477 219.01 45.1486 206.053 54.0527 193.098C62.161 181.301 70.274 169.508 78.3907 157.716C85.9612 146.718 93.5429 135.728 101.113 124.73C108.963 113.324 116.805 101.913 124.65 90.5039C132.613 78.924 140.576 67.3435 148.539 55.7634C152.52 49.9733 156.503 44.1839 160.483 38.393C160.63 38.1791 160.761 37.9537 160.899 37.7334L160.887 37.7266C161.637 37.8824 162.178 38.4895 162.917 38.6683C162.871 39.2539 162.662 39.7285 162.104 40.0206C161.128 40.5307 160.499 41.3662 159.941 42.2924C159.768 42.5776 159.686 42.8926 159.497 43.1697C158.437 44.7185 157.412 46.2906 156.361 47.8451C156.144 48.1652 155.841 48.4261 155.624 48.746C154.161 50.9056 152.681 53.0551 151.267 55.2464C150.477 56.4694 149.483 57.5453 148.735 58.7828C147.759 60.3963 146.698 61.9609 145.612 63.4865C144.268 65.3745 142.944 67.2787 141.69 69.2212C140.228 71.4866 138.601 73.6356 137.063 75.842C135.854 77.5767 134.836 79.4405 133.473 81.0848C132.46 82.3057 131.784 83.7994 130.744 85.0275C130.195 85.6766 129.894 86.4853 129.363 87.156C128.593 88.1294 127.814 89.1127 127.19 90.1799C126.315 91.676 125.287 93.063 124.351 94.5137C123.366 96.0413 122.112 97.3757 121.185 98.9338C120.301 100.421 119.218 101.768 118.322 103.253C117.51 104.6 116.458 105.816 115.553 107.127C113.994 109.384 112.588 111.74 110.946 113.95C109.146 116.371 107.605 118.981 105.815 121.427C104.497 123.23 103.168 125.043 101.961 126.943C100.703 128.923 99.2394 130.781 97.9329 132.744C96.0989 135.5 94.0951 138.144 92.2759 140.909C90.7734 143.193 89.0921 145.351 87.635 147.663C87.0819 148.541 86.3378 149.306 85.8535 150.197C84.676 152.365 83.0434 154.209 81.7419 156.287C80.6342 158.056 79.5126 159.837 78.1458 161.431C77.4648 162.225 77.2126 163.279 76.4743 164.033C75.5754 164.952 75.074 166.148 74.3299 167.176C73.3278 168.56 72.2539 169.901 71.3555 171.35C70.3745 172.932 69.2476 174.413 68.2404 175.977C67.2987 177.438 66.2629 178.871 65.2268 180.286C64.4956 181.285 63.9267 182.418 63.1921 183.388C61.2066 186.01 59.4013 188.746 57.585 191.48C57.356 191.824 57.0932 192.146 56.8443 192.477C56.2384 193.283 55.4905 194.018 55.0554 194.907C54.2412 196.57 52.9668 197.91 52.0476 199.507C51.2762 200.848 50.2349 202.071 49.3314 203.364C47.6133 205.821 45.9547 208.32 44.2255 210.771C43.007 212.497 41.9074 214.343 40.6586 216.033C39.417 217.714 38.2328 219.454 37.0623 221.168C35.702 223.16 34.2476 225.102 32.9921 227.175C32.1638 228.543 31.1202 229.779 30.1904 231.086C29.5715 231.956 28.9642 232.822 28.2529 233.634C27.6533 234.318 26.8228 235.014 26.9877 236.229C26.5913 236.229 26.2065 236.229 25.8215 236.229C25.7235 236.223 25.6255 236.217 25.5275 236.212C25.4469 235.937 25.037 235.914 25.0391 235.575Z" fill="#FBC855"/>
<path d="M25.0394 235.58C25.0374 235.919 25.4472 235.941 25.5278 236.217C25.8157 236.896 26.4411 236.867 26.9749 236.783C28.5865 236.528 30.0679 235.918 31.3727 234.918C31.6378 234.715 31.8891 234.494 32.1467 234.281C31.9935 234.689 31.7525 234.993 31.5431 235.318C30.1412 237.491 30.8131 240.362 33.0345 241.508C34.291 242.156 35.6677 242.325 37.1369 242.299C36.9126 242.063 36.6089 242.244 36.4643 242.015C37.8357 241.945 39.1771 241.724 40.459 241.213C40.9589 241.013 41.452 240.797 41.9481 240.588C41.9637 241.073 41.6632 241.409 41.3593 241.714C40.7851 242.289 40.3995 242.977 40.0595 243.7C39.7504 243.667 39.5988 243.87 39.4403 244.089C36.0276 248.799 32.5621 253.467 28.9006 257.99C26.1246 261.42 23.4723 264.949 20.7188 268.397C20.3004 268.921 20.007 269.634 19.2557 269.845C18.6696 269.646 18.0895 269.444 17.4706 269.34C15.4581 269.003 13.5565 269.532 11.6464 270.022C11.438 270.065 11.2297 270.108 11.0215 270.15C12.4937 266.516 13.959 262.879 15.4393 259.249C18.6253 251.435 21.8468 243.635 24.9133 235.772C24.9403 235.702 24.9967 235.644 25.0394 235.58ZM22.6948 256.68C25.0163 252.417 27.44 248.208 29.5312 243.823C27.1071 248.007 24.6826 252.191 22.5449 256.531C22.2182 257.026 21.9284 257.537 21.8934 258.16C22.1605 257.667 22.4276 257.174 22.6948 256.68ZM21.9972 261.609C25.1749 256.757 28.3353 251.894 31.1001 246.79C27.9106 251.635 24.6998 256.467 21.9972 261.609ZM26.2521 241.327C23.4194 247.668 20.5538 254.001 18.0808 260.5C20.8531 254.132 23.8472 247.858 26.2521 241.327ZM32.6598 249.601C30.1573 252.625 27.9083 255.832 25.7437 259.099C28.285 256.103 30.534 252.896 32.6598 249.601Z" fill="#F6C08A"/>
<path d="M185.269 55.0781C181.518 60.6745 177.782 66.2818 174.009 71.8645C169.7 78.243 165.356 84.5984 161.03 90.9658C156.573 97.5246 152.125 104.089 147.664 110.645C144.139 115.825 140.602 120.996 137.069 126.17C131.485 134.348 125.906 142.529 120.314 150.7C115.046 158.399 109.764 166.089 104.486 173.781C98.8978 181.924 93.3126 190.069 87.7161 198.206C81.325 207.498 74.925 216.785 68.5245 226.07C63.9069 232.77 59.2826 239.464 54.6596 246.16C54.6025 246.243 54.5245 246.311 54.4562 246.386C54.3007 245.907 54.3267 245.536 54.7559 245.13C55.1355 244.772 55.0877 244.102 55.5005 243.68C55.6258 243.552 55.5944 243.231 55.3379 243.084C55.659 242.395 56.1616 241.826 56.5855 241.205C60.9557 234.806 65.3207 228.403 69.7075 222.016C73.6083 216.336 77.5413 210.678 81.4488 205.003C87.1997 196.65 92.945 188.293 98.6846 179.933C103.689 172.643 108.685 165.349 113.679 158.052C119.906 148.952 126.131 139.852 132.348 130.745C136.879 124.108 141.392 117.459 145.918 110.819C150.985 103.384 156.064 95.9571 161.126 88.5183C163.496 85.0353 165.825 81.5246 168.193 78.0402C173.31 70.5127 178.493 63.0309 183.489 55.4216C183.838 54.8897 184.008 54.2337 184.547 53.8281C184.619 53.8783 184.69 53.9286 184.762 53.979C184.784 54.3706 185.27 54.506 185.273 54.9075C185.272 54.9644 185.271 55.0212 185.269 55.0781Z" fill="#F0BD37"/>
<path d="M0.21875 294.498C0.652014 293.836 1.36255 293.874 1.96712 293.748C4.4512 293.229 6.96388 292.936 9.49938 292.773C11.2578 292.66 13.0174 292.574 14.7747 292.461C21.5831 292.026 28.3973 292.183 35.2093 292.188C38.0098 292.191 40.8152 292.306 43.6091 292.503C46.9597 292.738 50.3264 292.883 53.6287 293.579C54.3559 293.732 55.079 293.937 55.7017 294.446C55.3884 295.082 54.8128 295.239 54.2775 295.362C52.2843 295.822 50.2566 296.052 48.2204 296.245C45.0469 296.547 41.8597 296.601 38.684 296.847C38.4768 296.863 38.2675 296.855 38.0593 296.857C33.8723 296.909 29.6837 297.056 25.499 296.979C22.7707 296.929 20.0403 296.93 17.3134 296.841C14.5693 296.753 11.8204 296.631 9.08956 296.363C6.42089 296.1 3.71596 295.999 1.12967 295.158C0.777367 295.044 0.438352 294.923 0.21875 294.498Z" fill="#E6E6E5"/>
<path d="M50.0808 252.356C49.2843 253.522 48.0699 254.221 46.9985 255.071C40.1589 260.498 33.3044 265.906 26.448 271.311C25.0206 272.436 23.565 273.526 22.1224 274.632C22.0066 274.178 22.2216 273.68 21.9431 273.246C21.8898 272.882 21.8365 272.518 21.7832 272.154C22.6827 271.666 23.379 270.921 24.1427 270.265C26.4255 268.306 28.7595 266.403 30.8669 264.248C31.4269 263.909 31.8666 263.442 32.2719 262.937C32.6103 262.623 32.9485 262.309 33.298 261.984C33.107 261.835 32.8571 261.772 33.021 261.501C34.4127 260.221 35.8072 258.945 37.1953 257.661C38.1084 256.817 39.0087 255.958 39.9209 255.113C41.9151 253.264 43.9275 251.435 45.8396 249.5C46.8125 248.943 47.9217 248.842 48.9774 248.562C49.4084 248.568 49.8308 248.597 50.2622 248.676C50.8925 248.792 51.0116 249.092 50.8048 249.631C50.606 249.768 50.6814 250.03 50.6635 250.181C50.5738 250.94 49.9774 251.557 50.0808 252.356Z" fill="#E5B37A"/>
<path d="M184.761 53.9756C184.689 53.9254 184.618 53.8751 184.546 53.8249C184.267 53.5472 183.988 53.2693 183.709 52.9915C183.399 52.6449 183.088 52.298 182.778 51.9512C183.452 51.3865 183.745 50.5361 184.322 49.899C184.502 49.6691 184.837 50.1005 184.987 49.7424C185.1 49.7458 185.123 50.1236 185.292 49.8341C185.434 49.5894 185.663 49.5262 185.891 49.4382C186.168 48.9985 185.742 48.7983 185.544 48.5831C184.847 47.8283 184.102 47.117 183.376 46.3891C183.631 45.9479 183.871 46.3124 184.04 46.4451C184.661 46.9359 185.251 47.467 185.856 47.9857C185.95 47.8844 186.042 47.7842 186.135 47.6839C186.709 48.1822 187.284 48.6806 187.858 49.1789C186.958 47.6975 185.769 46.4951 184.505 45.3613C184.309 45.1634 184.129 44.9443 183.913 44.7713C182.914 43.9735 181.905 43.1886 180.9 42.3989C181.131 42.343 181.362 42.2872 181.592 42.2312C182.49 42.7494 183.224 43.4776 184.017 44.1296C184.919 44.9766 185.821 45.8236 186.648 46.6009C186.806 46.479 187.009 46.3224 187.255 46.1329C187.029 45.7203 187.03 45.2436 187.151 44.76C187.429 44.4158 188.223 44.4158 187.885 43.6604C188.026 43.4716 188.235 43.5043 188.43 43.494C188.995 43.9752 189.495 44.5329 190.138 44.9215C190.268 44.998 190.397 45.0746 190.611 45.2009C190.431 44.8377 190.289 44.5504 190.146 44.2631C190.299 43.6511 190.026 43.1673 189.7 42.6839C189.36 42.1804 188.877 41.769 188.702 41.1577C189.003 41.2578 189.346 41.1599 189.614 41.4205C189.89 41.0096 190.148 40.6617 190.367 40.2912C190.562 39.963 190.715 39.6099 190.886 39.2679C190.938 39.0591 190.99 38.8503 191.043 38.6416C191.089 38.2068 190.816 37.9255 190.573 37.6179C189.784 36.6194 188.658 35.952 187.924 34.9017C188.218 34.6063 188.333 34.953 188.462 35.0814C189.989 36.5983 191.758 37.8001 193.524 39.0058C193.641 39.0858 193.753 39.1284 193.856 38.9886C194.036 38.736 193.668 38.6377 193.699 38.427C193.602 37.6932 193.209 37.1027 192.78 36.5297C192.877 36.0943 192.438 35.8673 192.337 35.4853C192.839 35.1935 193.066 35.6002 193.326 35.89C193.453 35.6064 193.325 35.4239 193.27 35.2309C193.863 34.9803 194.084 34.5681 193.659 34.032C192.97 33.1636 192.269 32.2915 191.361 31.6383C191.003 31.3813 190.818 31.1119 190.894 30.6781C191.248 30.573 191.332 31.1947 191.723 30.9861C192.07 31.3019 192.416 31.618 192.762 31.9339C193.032 33.2988 194.358 33.7535 195.062 34.8077C195.205 34.5971 195.177 34.4272 195.346 34.4156C195.496 34.2599 195.531 34.9958 195.73 34.4651C195.861 34.1039 195.76 33.8296 195.454 33.5935C195.145 33.3548 194.893 33.0686 195.087 32.5744C195.539 32.8429 195.921 33.3432 196.529 33.0256C196.677 33.2879 196.893 33.4809 197.195 33.3679C197.357 33.3071 197.146 33.1649 197.134 33.053C197.814 33.229 198.214 32.9201 198.561 32.3499C198.76 32.0225 198.977 31.7021 199.151 31.3585C199.634 30.4034 199.631 30.4017 198.718 30.1874C199.001 30.0223 198.783 29.8272 198.731 29.6645C198.17 27.9198 196.997 26.609 195.659 25.4313C194.192 24.1401 192.503 23.1587 190.877 22.0904C190.865 22.0529 190.866 22.0158 190.881 21.9793C191.031 21.6607 191.324 21.8026 191.563 21.7692C193.789 22.9183 195.685 24.5066 197.469 26.2397C198.379 27.1242 198.554 27.135 199.473 26.232C199.599 26.1076 199.694 25.9513 199.804 25.8099C199.906 25.8758 200.008 25.9418 200.11 26.0077C200.529 26.5756 200.947 27.1436 201.365 27.7114C201.495 27.928 201.513 28.228 201.818 28.3132C201.813 28.486 201.808 28.6591 201.804 28.8319C201.721 29.0184 201.593 29.1978 201.564 29.3924C201.265 31.3668 200.104 32.7726 198.621 33.9933C198.384 34.1882 198.194 34.1141 197.941 34.0839C198.203 34.6974 198.152 35.2865 197.848 35.7784C196.543 37.8962 195.194 39.9878 193.861 42.0888C192.85 42.5782 192.442 43.6164 191.788 44.4227C191.508 44.7677 191.057 45.1054 191.083 45.5959C191.116 46.2266 190.762 46.6597 190.389 47.0034C189.831 47.5173 189.492 48.1997 188.922 48.6975C188.654 48.9313 188.626 49.29 188.642 49.6835C188.695 51.0103 188.146 52.0744 187.21 53.0347C186.497 53.7663 185.64 53.8331 184.761 53.9756Z" fill="#B4B5B5"/>
<path d="M21.9436 273.255C22.2222 273.688 22.0071 274.186 22.1229 274.641C21.847 275.081 21.4191 275.353 21.0099 275.646C20.142 275.591 19.9361 276.747 19.0751 276.704C18.3767 277.869 17.1779 278.529 16.2152 279.412C15.3451 280.209 14.4381 281.02 13.3767 281.636C12.4459 282.176 11.7099 283.025 10.8845 283.732C10.2027 284.316 9.6458 285.056 8.82022 285.469L8.80412 285.454C8.88196 285.351 8.95057 285.239 9.0392 285.146C12.4534 281.582 15.8407 277.992 19.3453 274.515C19.5111 274.351 19.6579 274.167 19.8136 273.992C19.6431 273.975 19.5513 274.023 19.4828 274.094C16.523 277.154 13.2132 279.851 10.3427 283.011C8.37273 285.179 6.21892 287.181 4.14732 289.257C4.11418 289.069 4.08729 288.883 4.26344 288.742C4.53009 288.499 4.83332 288.285 5.05729 288.007C6.79332 285.854 8.49027 283.671 10.0619 281.393C10.1797 281.293 10.3227 281.212 10.4114 281.09C11.6352 279.417 12.8388 277.729 14.0731 276.063C15.4015 274.271 16.6504 272.424 17.8891 270.57C18.093 270.264 18.3359 270.013 18.7203 270.193C19.3051 270.466 19.8897 270.725 20.4016 271.158C21.0937 271.743 21.3613 272.608 21.9436 273.255Z" fill="#2F3030"/>
<path d="M173.869 17.4314C173.915 17.3683 173.961 17.3051 174.007 17.2418C174.74 17.0275 175.474 17.1072 176.209 17.2337C177.755 17.7057 179.209 18.4023 180.675 19.0771C180.151 18.5652 179.48 18.3131 178.864 17.9686C178.934 17.8367 179.106 17.7596 179.064 17.4897C178.357 17.315 177.641 17.0513 177.012 16.6014C176.773 16.4305 176.376 16.3831 176.4 15.9936C176.424 15.6141 176.713 15.5066 177.066 15.4983C177.175 15.4958 177.304 15.3976 177.384 15.3078C178.252 14.3281 179.329 14.4848 180.425 14.7379C179.902 14.7743 179.353 14.6336 178.863 14.9295C178.899 15.3981 178.668 15.9286 179.308 16.1354C179.458 16.1888 179.607 16.2423 179.756 16.2957C179.777 16.3396 179.786 16.409 179.819 16.4239C182.274 17.5194 184.609 18.8156 186.711 20.5079C186.289 20.809 185.993 20.4502 185.626 20.2801C185.434 20.5712 185.136 20.682 184.807 20.7617C184.523 20.8305 184.123 20.8109 184.088 21.2189C184.056 21.5857 184.214 21.9041 184.505 22.1687C185.122 22.729 185.1 23.1617 184.465 23.714C184.21 23.5926 183.948 23.4832 183.7 23.3477C182.642 22.7694 181.588 22.1834 180.533 21.6001C180.495 21.5505 180.457 21.501 180.419 21.4516C180.498 21.3623 180.576 21.2733 180.658 21.1807C178.828 19.5838 176.748 18.4878 174.437 17.8095C174.228 17.7479 174.057 17.5602 173.869 17.4314Z" fill="#F7F6F5"/>
<path d="M11.0204 270.144C11.2287 270.101 11.4371 270.059 11.6454 270.016C11.8105 270.209 12.0404 270.093 12.2363 270.14C11.3813 272.79 10.3075 275.354 9.08072 277.85C7.17542 281.725 4.99472 285.453 2.89405 289.224C2.17882 290.327 1.465 291.431 0.746959 292.533C0.623638 292.722 0.534387 292.958 0.251953 292.971C1.27884 290.789 2.30667 288.607 3.33216 286.424C5.76278 281.249 8.19184 276.074 10.6237 270.901C10.745 270.643 10.8879 270.396 11.0204 270.144Z" fill="#737372"/>
<path d="M180.425 14.7412C179.329 14.4882 178.252 14.3314 177.384 15.3111C177.304 15.401 177.175 15.4991 177.066 15.5016C176.713 15.5099 176.424 15.6175 176.4 15.9969C176.376 16.3866 176.773 16.4338 177.012 16.6048C177.641 17.0546 178.357 17.3182 179.064 17.4931C179.106 17.763 178.934 17.84 178.864 17.972C178.043 17.6445 177.248 17.245 176.378 17.0501C175.798 16.767 175.175 16.7713 174.512 16.8457C175.187 14.9118 175.995 13.1367 177.295 11.6229C177.69 11.2725 178.096 11.9907 178.492 11.6118C178.593 11.8714 178.827 11.7631 179.009 11.797C179.724 12.1418 180.52 12.2894 181.202 12.7114C180.786 12.9707 181.009 13.0537 181.305 13.194C182.301 13.6651 183.368 14.0215 184.221 14.9441C182.907 14.6629 181.664 14.7567 180.425 14.7412Z" fill="#E6E7E8"/>
<path d="M179.01 11.7929C178.827 11.759 178.594 11.8673 178.492 11.6077C180.599 8.39431 182.777 5.2247 184.78 1.9485C185.734 0.38909 186.943 -0.200004 188.665 0.0588292C193.558 0.79469 197.814 2.93006 201.643 5.99479C201.551 6.09607 201.459 6.1972 201.367 6.29848C201.307 6.44697 201.202 6.55075 201.054 6.6103C201.054 6.33896 200.853 6.2369 200.666 6.09185C200.08 5.63733 199.361 5.43821 198.742 5.05058C198.313 4.53307 197.685 4.31379 197.129 3.99384C194.554 2.51274 191.856 1.31032 188.927 0.755927C188.013 0.582903 186.943 0.299844 186.195 1.28782C185.863 1.44115 185.723 1.76719 185.554 2.04853C183.807 4.95196 181.726 7.63297 179.953 10.5183C179.43 10.7888 179.355 11.3906 179.01 11.7929Z" fill="#464444"/>
<path d="M201.367 6.30369C201.46 6.20241 201.552 6.10128 201.644 6C204.7 8.22399 207.282 10.8612 208.85 14.3631C209.453 15.7098 209.384 16.9981 208.53 18.2717C206.342 21.5375 204.25 24.8678 201.928 28.0441C201.872 28.1213 201.855 28.2271 201.82 28.3196C201.515 28.2345 201.497 27.9345 201.367 27.7179C202.053 27.4 202.299 26.7073 202.7 26.1486C203.609 24.8818 204.538 23.6266 205.277 22.2471C205.496 22.1395 205.631 21.957 205.759 21.7539C206.535 20.5282 207.255 19.2594 208.119 18.099C209.293 16.5241 208.745 15.1351 207.743 14.0382C206.78 12.9827 205.75 11.9596 205.02 10.7504C204.36 9.65914 202.866 9.09802 202.952 7.53627C202.956 7.46641 202.825 7.37763 202.743 7.31652C202.287 6.97563 201.826 6.64052 201.367 6.30369Z" fill="#313232"/>
<path d="M50.0804 252.363C49.9769 251.564 50.5733 250.947 50.6631 250.188C50.6809 250.037 50.6054 249.775 50.8047 249.638C51.6256 248.621 52.0571 247.381 52.7197 246.274C52.8749 246.107 53.0404 245.948 53.1834 245.771C53.9044 244.878 54.6196 243.981 55.3369 243.086C55.5934 243.232 55.6248 243.554 55.4995 243.682C55.0865 244.104 55.1343 244.774 54.7548 245.132C54.3256 245.537 54.2997 245.908 54.4552 246.388C53.0671 248.431 51.699 250.489 50.0804 252.363Z" fill="#ECB529"/>
<path d="M193.863 42.085C195.196 39.9839 196.544 37.8924 197.85 35.7746C198.153 35.2827 198.205 34.6936 197.943 34.0801C198.195 34.1103 198.385 34.1844 198.622 33.9895C200.105 32.7688 201.267 31.363 201.565 29.3886C201.594 29.1942 201.723 29.0146 201.805 28.8281C202.141 30.4135 201.498 31.7215 200.454 32.7809C199.386 33.865 198.578 35.017 197.87 36.4016C196.509 39.0662 194.729 41.5187 193.095 44.0414C192.616 44.7815 192.128 45.5058 191.761 46.3148C191.265 47.4092 190.592 48.3897 189.655 49.166C189.465 48.8652 189.698 48.7125 189.859 48.5066C191.418 46.5071 192.407 44.1508 193.863 42.085Z" fill="#888A8A"/>
<path d="M173.869 17.4297C174.057 17.5586 174.228 17.7464 174.436 17.8073C176.748 18.4857 178.829 19.5816 180.658 21.1785C180.576 21.2709 180.498 21.3602 180.419 21.4496C179.069 20.3011 177.532 19.4691 175.905 18.792C174.621 17.6363 173.608 17.7743 172.784 19.2157C172.72 19.3275 172.622 19.4263 172.584 19.5454C172.359 20.2476 171.7 20.7934 171.832 21.6237C171.829 21.6746 171.828 21.7256 171.826 21.7765C171.248 22.0446 170.829 22.4755 170.489 23.0108C169.549 24.4926 168.656 26.0109 167.619 27.4221C166.801 28.5346 166.039 29.6558 165.525 30.9389C165.423 31.1925 165.337 31.4304 165.596 31.6406C165.596 31.6774 165.596 31.7143 165.596 31.751C165.286 31.8238 164.976 31.8967 164.666 31.9695C164.656 31.9076 164.645 31.8456 164.635 31.7837C165.213 31.0919 165.364 30.1989 165.751 29.4171C166.469 28.9935 166.644 28.1584 167.147 27.5723C168.057 26.2205 168.972 24.8719 169.873 23.5141C170.082 23.1987 170.413 22.9424 170.414 22.5119C170.675 22.2467 170.886 21.9469 171.034 21.6041C171.219 21.7903 171.326 21.602 171.381 21.4936C171.862 20.5387 172.326 19.5755 172.795 18.6149C173.153 18.2198 173.511 17.8248 173.869 17.4297Z" fill="#BDB9B4"/>
<path d="M193.862 42.0938C192.407 44.1597 191.418 46.5159 189.858 48.5155C189.698 48.7213 189.465 48.8739 189.655 49.1749C189.335 49.4647 189.185 49.8525 189.041 50.2431C189.019 50.2299 188.999 50.2095 188.975 50.2057C188.953 50.2023 188.909 50.2149 188.909 50.2234C188.839 51.0802 188.353 51.7908 188.083 52.5766C188.029 52.6782 187.975 52.7798 187.92 52.8814C187.5 52.9225 187.362 53.2886 187.116 53.5463C186.584 54.1037 186.204 54.8853 185.273 54.9093C185.27 54.5077 184.783 54.3724 184.762 53.9807C185.641 53.8381 186.497 53.7712 187.21 53.0399C188.147 52.0796 188.696 51.0155 188.642 49.6887C188.626 49.2951 188.655 48.9366 188.923 48.7027C189.493 48.2049 189.832 47.5225 190.39 47.0086C190.763 46.6649 191.116 46.2318 191.083 45.6011C191.058 45.1107 191.509 44.773 191.789 44.4279C192.443 43.6213 192.851 42.583 193.862 42.0938Z" fill="#A5A6A4"/>
<path d="M8.81884 285.466C9.64426 285.053 10.2012 284.313 10.8829 283.729C11.7084 283.022 12.4444 282.173 13.3751 281.633C14.4364 281.017 15.3434 280.206 16.2137 279.408C17.1764 278.525 18.3752 277.865 19.0735 276.701C19.9347 276.743 20.1406 275.588 21.0084 275.643C18.4844 277.837 15.9719 280.046 13.4323 282.222C11.8604 283.57 10.3686 285.011 8.70818 286.255C8.28898 285.928 9.02031 285.762 8.81884 285.466Z" fill="#424342"/>
<path d="M0.25276 292.97C0.535194 292.957 0.62444 292.722 0.747761 292.532C1.46565 291.431 2.17963 290.327 2.8947 289.223C3.04506 289.385 3.16697 289.484 3.37579 289.253C3.64838 288.95 3.97473 288.696 4.27795 288.422C4.27311 288.526 4.26811 288.631 4.2631 288.736C4.08695 288.876 4.114 289.062 4.14682 289.25C4.26389 289.756 4.55335 289.239 4.73732 289.349C4.71231 289.472 4.58399 289.615 4.8014 289.694C3.2434 291.12 1.68541 292.547 0.0583242 294.037C-0.13158 293.511 0.198367 293.274 0.25276 292.97ZM3.66385 289.889C3.23762 290.167 2.85093 290.479 2.52239 291.011C2.96034 290.58 3.31202 290.235 3.66385 289.889Z" fill="#272626"/>
<path d="M164.634 31.7891C164.645 31.851 164.655 31.913 164.665 31.9746C163.98 32.8727 163.252 33.7425 162.62 34.6775C161.965 35.6464 161.136 36.5275 160.886 37.7303C160.886 37.7303 160.898 37.7369 160.899 37.7372C160.46 37.5189 160.247 37.1806 160.532 36.7361C161.699 34.9221 162.699 32.9658 164.634 31.7891Z" fill="#A7AAAA"/>
<path d="M177.295 11.6172C175.995 13.131 175.187 14.9061 174.512 16.84C175.176 16.7656 175.799 16.7612 176.379 17.0444C176.322 17.1068 176.266 17.1691 176.209 17.2313C175.475 17.105 174.741 17.0253 174.008 17.2395C174.425 16.0394 174.707 14.788 175.295 13.6524C175.748 12.7755 176.21 11.8834 177.295 11.6172Z" fill="#9EA09F"/>
<path d="M4.80217 289.7C4.58476 289.621 4.71308 289.478 4.73809 289.355C5.06022 289.059 5.38892 288.771 5.70324 288.467C6.73982 287.465 7.77124 286.458 8.8047 285.453L8.8208 285.469C9.02243 285.765 8.2911 285.93 8.71014 286.257C7.40738 287.405 6.10477 288.552 4.80217 289.7Z" fill="#2F3030"/>
<path d="M170.414 22.5156C170.414 22.9461 170.082 23.2024 169.873 23.5178C168.972 24.8754 168.057 26.224 167.148 27.5758C167.143 27.4625 167.139 27.3494 167.135 27.2362C168.307 25.7179 169.073 23.9165 170.414 22.5156Z" fill="#959695"/>
<path d="M185.274 54.9028C186.204 54.8791 186.585 54.0973 187.117 53.5399C187.363 53.2822 187.501 52.9161 187.921 52.875C187.509 53.8358 186.722 54.4982 186.033 55.2378C185.692 55.604 185.507 55.209 185.27 55.0729C185.271 55.0163 185.273 54.9596 185.274 54.9028Z" fill="#898884"/>
<path d="M172.795 18.6172C172.325 19.5778 171.861 20.5409 171.38 21.4959C171.326 21.6042 171.218 21.7926 171.033 21.6064C171.418 20.7965 171.705 19.937 172.224 19.195C172.379 18.974 172.462 18.6686 172.795 18.6172Z" fill="#969798"/>
<path d="M188.084 52.5746C188.354 51.7887 188.84 51.0782 188.909 50.2214C188.91 50.2131 188.954 50.2003 188.976 50.2037C188.999 50.2074 189.02 50.2279 189.042 50.2411C189.011 51.1374 188.869 51.9879 188.084 52.5746Z" fill="#888A8A"/>
<path d="M167.135 27.2266C167.14 27.3397 167.144 27.4529 167.148 27.5662C166.645 28.1525 166.47 28.9876 165.752 29.4112C166.09 28.605 166.625 27.9233 167.135 27.2266Z" fill="#8C8E8D"/>
<path d="M25.8223 236.225C26.2071 236.225 26.592 236.225 26.9884 236.225C26.8235 235.01 27.6539 234.314 28.2537 233.63C28.965 232.818 29.5722 231.952 30.1912 231.082C31.121 229.775 32.1646 228.539 32.9928 227.171C34.2484 225.098 35.7026 223.156 37.063 221.164C38.2336 219.45 39.4177 217.709 40.6594 216.029C41.9082 214.339 43.0079 212.493 44.2263 210.767C45.9554 208.316 47.6142 205.817 49.3321 203.36C50.2357 202.067 51.2768 200.843 52.0483 199.503C52.9674 197.906 54.2418 196.566 55.0562 194.903C55.4911 194.014 56.2392 193.278 56.845 192.473C57.094 192.142 57.3569 191.82 57.5857 191.475C59.4021 188.742 61.2073 186.005 63.1928 183.384C63.9274 182.414 64.4962 181.28 65.2275 180.282C66.2638 178.866 67.2994 177.434 68.2411 175.973C69.2485 174.409 70.3754 172.928 71.3562 171.346C72.2546 169.897 73.3287 168.556 74.3306 167.172C75.0747 166.143 75.5762 164.947 76.475 164.029C77.2134 163.275 77.4654 162.221 78.1465 161.427C79.5134 159.833 80.635 158.052 81.7427 156.283C83.0442 154.205 84.6767 152.361 85.8543 150.193C86.3385 149.302 87.0826 148.537 87.6358 147.659C89.0928 145.347 90.7741 143.189 92.2767 140.905C94.0958 138.14 96.0996 135.496 97.9336 132.74C99.2401 130.777 100.704 128.919 101.962 126.939C103.169 125.039 104.498 123.225 105.816 121.423C107.605 118.977 109.147 116.367 110.947 113.946C112.589 111.736 113.995 109.38 115.554 107.123C116.459 105.812 117.51 104.596 118.323 103.249C119.219 101.764 120.302 100.417 121.186 98.9296C122.113 97.3713 123.366 96.0371 124.352 94.5094C125.288 93.0588 126.316 91.6718 127.191 90.1757C127.815 89.1083 128.594 88.125 129.364 87.1518C129.894 86.4809 130.196 85.6722 130.745 85.0233C131.785 83.7952 132.461 82.3015 133.473 81.0806C134.836 79.4362 135.855 77.5723 137.064 75.8378C138.602 73.6314 140.229 71.4824 141.691 69.217C142.945 67.2745 144.269 65.3703 145.613 63.4823C146.699 61.9568 147.76 60.3921 148.736 58.7786C149.484 57.541 150.478 56.4652 151.268 55.2422C152.682 53.0509 154.161 50.9014 155.625 48.7418C155.841 48.4219 156.145 48.161 156.362 47.8409C157.413 46.2863 158.438 44.7143 159.498 43.1655C159.687 42.8884 159.769 42.5734 159.941 42.2882C160.5 41.362 161.129 40.5265 162.104 40.0164C162.663 39.7242 162.871 39.2499 162.918 38.6641C163.396 38.8547 163.873 39.0456 164.35 39.2364C164.575 39.5 165.007 39.4095 165.223 39.7683C165.084 39.9653 164.935 40.1706 164.792 40.3805C161.898 44.6361 159.022 48.9041 156.108 53.1457C150.954 60.6484 145.769 68.1302 140.611 75.6304C136.589 81.4787 132.595 87.3462 128.576 93.1968C124.925 98.5131 121.252 103.814 117.598 109.129C111.63 117.808 105.672 126.493 99.7072 135.174C95.1274 141.84 90.5478 148.505 85.9617 155.167C81.7891 161.228 77.6101 167.284 73.4294 173.34C69.6172 178.861 65.791 184.373 61.9851 189.899C56.3205 198.124 50.6652 206.355 45.0118 214.588C41.0512 220.355 37.117 226.141 33.1365 231.894C31.6107 234.1 29.7523 235.913 26.9704 236.46C26.5377 236.544 26.1499 236.577 25.8223 236.225Z" fill="#FED967"/>
<path d="M25.8228 236.23C26.1504 236.582 26.5381 236.549 26.9712 236.464C29.753 235.918 31.6114 234.105 33.1372 231.899C37.1177 226.145 41.0519 220.36 45.0126 214.592C50.6659 206.36 56.3212 198.128 61.9858 189.904C65.7917 184.378 69.6178 178.866 73.4301 173.344C77.6108 167.289 81.7898 161.232 85.9624 155.172C90.5485 148.51 95.128 141.844 99.7079 135.178C105.672 126.497 111.631 117.812 117.598 109.134C121.252 103.819 124.926 98.5178 128.577 93.2014C132.596 87.3508 136.59 81.4833 140.611 75.635C145.77 68.1348 150.955 60.653 156.109 53.1503C159.023 48.9086 161.899 44.6407 164.793 40.3851C164.936 40.1754 165.085 39.9698 165.223 39.7729C165.008 39.414 164.575 39.5045 164.351 39.2412C164.591 39.0436 164.961 39.1529 165.174 38.9012C165.49 38.5269 165.84 38.6316 166.2 38.8112C165.718 39.2854 165.449 39.9017 165.064 40.5614C166.011 39.7013 166.774 40.2702 167.555 40.7321C167.822 40.8898 168.114 41.0042 168.385 41.1552C168.783 41.3773 169.237 41.5299 169.472 41.972C168.744 41.604 168.017 41.2357 167.29 40.8676C166.926 40.6174 166.542 40.4089 166.091 40.2718C165.446 41.3164 164.845 42.3815 164.158 43.3873C159.765 49.8124 155.356 56.2257 150.948 62.6401C141.778 75.984 132.604 89.3248 123.436 102.67C117.614 111.144 111.809 119.631 105.98 128.101C97.1983 140.859 88.399 153.604 79.6132 166.36C74.3268 174.034 69.0545 181.718 63.7706 189.395C56.8929 199.386 50.0226 209.383 43.1243 219.361C39.7059 224.305 36.4579 229.37 32.7585 234.118C32.3995 234.579 32.1947 235.113 32.231 235.715C31.9968 236.311 32.0955 236.937 32.0667 237.552C31.9534 239.968 34.0789 241.94 36.4658 242.01C36.6103 242.24 36.914 242.059 37.1383 242.295C35.6691 242.321 34.2924 242.152 33.0359 241.504C30.8146 240.358 30.1426 237.486 31.5445 235.314C31.7539 234.989 31.995 234.685 32.1481 234.277C31.8906 234.49 31.6392 234.711 31.3741 234.914C30.0693 235.914 28.5878 236.524 26.9763 236.778C26.4426 236.863 25.8172 236.892 25.5293 236.212C25.6268 236.218 25.7248 236.224 25.8228 236.23Z" fill="#FDFAEC"/>
<path d="M166.199 38.8077C165.838 38.6281 165.489 38.5236 165.172 38.8978C164.96 39.1494 164.589 39.0401 164.35 39.2377C163.872 39.0467 163.395 38.8559 162.917 38.6652C162.178 38.4865 161.637 37.8795 160.887 37.7236C161.136 36.5209 161.966 35.6398 162.62 34.6709C163.252 33.7359 163.98 32.8661 164.666 31.968C164.976 31.8955 165.286 31.8227 165.596 31.75C166.023 31.8527 166.456 31.9337 166.875 32.0618C168.058 32.4238 169.236 32.805 170.416 33.1787C170.471 33.1789 170.525 33.1789 170.58 33.1791C170.808 33.5317 171.305 33.3804 171.614 33.7098C171.141 34.0704 170.674 34.0042 170.207 33.8563C169.182 33.5315 168.16 33.1958 167.137 32.8646C166.981 32.5324 166.843 32.1779 166.365 32.2458C165.901 32.3116 165.635 32.6459 165.454 33.0134C164.96 34.019 164.658 35.0414 165.574 35.9603C164.844 36.9287 164.845 36.9282 165.545 37.862C165.573 37.899 165.566 37.962 165.575 38.0129C165.414 37.9937 165.278 37.7788 165.051 37.9796C165.847 38.3706 166.724 38.5058 167.457 38.9734C166.985 39.3232 166.614 38.8923 166.199 38.8077Z" fill="#E7E7E6"/>
<path d="M167.288 40.8672C168.016 41.2353 168.743 41.6034 169.47 41.9714C170.048 42.3223 170.627 42.6732 171.205 43.0241C172.722 44.0706 174.141 45.2567 175.73 46.2005C175.84 46.3046 175.95 46.4086 176.06 46.5129C175.58 47.1911 175.091 47.8627 174.623 48.5487C170.814 54.1275 167.01 59.7099 163.202 65.2892C159.511 70.6971 155.821 76.1054 152.122 81.508C148.38 86.9746 144.629 92.4354 140.88 97.8973C136.764 103.895 132.644 109.89 128.527 115.887C124.88 121.198 121.237 126.512 117.586 131.821C113.789 137.344 109.983 142.861 106.184 148.383C102.165 154.227 98.1537 160.076 94.1319 165.917C90.4489 171.267 86.7525 176.607 83.0686 181.955C78.0584 189.229 73.0575 196.51 68.0466 203.783C62.2544 212.19 56.4614 220.597 50.6571 228.995C48.0881 232.713 45.4901 236.41 42.9052 240.116C42.443 239.979 42.3768 240.652 41.9477 240.583C41.4516 240.792 40.9585 241.008 40.4587 241.208C39.1767 241.719 37.8353 241.94 36.4639 242.01C34.0772 241.939 31.9516 239.967 32.0649 237.551C32.0936 236.937 31.9952 236.311 32.2293 235.715C32.3326 236.721 32.0496 237.766 32.4234 238.734C32.7449 239.567 33.099 240.432 34.1258 240.86C34.1258 239.578 34.1457 238.416 34.1176 237.255C34.1033 236.665 34.2439 236.147 34.4885 235.61C34.9048 234.696 35.652 234.03 36.176 233.226C37.7647 230.786 39.6056 228.533 41.2305 226.121C42.1944 224.69 43.2474 223.303 44.298 221.927C45.4584 220.408 46.4773 218.789 47.5483 217.217C49.1049 214.932 50.5492 212.563 52.1016 210.269C53.129 208.75 54.1194 207.205 55.199 205.725C56.1121 204.472 57.1884 203.335 57.9643 201.986C58.5249 201.011 59.4968 200.299 59.8927 199.274C60.3117 198.19 61.1514 197.457 61.74 196.526C62.8308 194.8 64.0701 193.169 65.2052 191.468C65.819 190.548 66.4521 189.625 67.1495 188.766C67.9051 187.836 68.6925 186.952 69.0059 185.757C69.0369 185.639 69.1155 185.506 69.2127 185.438C70.1008 184.823 70.5059 183.812 71.0758 182.977C72.2399 181.271 73.5466 179.665 74.628 177.899C76.2356 175.273 78.0024 172.75 79.7822 170.239C80.8308 168.76 81.8017 167.215 82.8758 165.772C84.3923 163.734 85.6583 161.535 87.1863 159.505C88.4075 157.882 89.6821 156.281 90.7498 154.531C91.6635 153.033 92.593 151.541 93.6362 150.118C94.6865 148.685 95.8123 147.308 96.7561 145.781C97.3799 144.771 98.1382 143.802 98.8022 142.794C99.7211 141.399 100.675 140.024 101.581 138.621C102.667 136.939 103.852 135.291 105.087 133.697C106.372 132.038 107.442 130.242 108.559 128.474C109.636 126.768 110.935 125.213 111.987 123.487C112.404 122.803 112.808 122.097 113.32 121.486C114.516 120.056 115.397 118.41 116.548 116.946C117.584 115.629 118.42 114.156 119.357 112.759C120.048 111.729 120.755 110.71 121.463 109.69C122.471 108.237 123.607 106.878 124.555 105.377C125.063 104.572 125.712 103.82 126.151 103.003C127.073 101.288 128.375 99.8487 129.373 98.1862C130.262 96.7065 131.266 95.2423 132.368 93.8615C133.862 91.9897 135.033 89.8694 136.45 87.9254C136.794 87.4523 137.196 87.0065 137.465 86.4605C138.014 85.3494 138.818 84.3918 139.463 83.3324C140.159 82.1882 141.04 81.1585 141.818 80.0621C143.208 78.1004 144.437 76.0328 145.862 74.0884C147.002 72.5326 148.03 70.8713 149.169 69.3221C150.255 67.8441 151.076 66.2034 152.243 64.7788C153.204 63.6053 153.942 62.2508 154.802 60.9924C155.196 60.4156 155.675 59.8966 156.065 59.3173C157.086 57.7993 158.071 56.2573 159.087 54.7352C159.748 53.7446 160.507 52.8124 161.091 51.7801C161.638 50.8132 162.382 49.9935 162.916 49.0132C163.578 47.796 164.575 46.7544 165.114 45.4735C165.774 43.9036 166.877 42.5484 167.288 40.8672Z" fill="#F9B71A"/>
<path d="M48.9761 248.57C47.9204 248.849 46.8112 248.95 45.8384 249.507C45.7475 249.508 45.6566 249.508 45.5658 249.509C45.3723 249.574 45.1531 249.601 44.9893 249.711C43.4365 250.751 42.0983 252.038 40.8171 253.388C40.7908 253.415 40.8383 253.513 40.8513 253.578C40.8069 253.642 40.772 253.715 40.7169 253.767C38.1282 256.196 35.5469 258.634 32.9433 261.047C31.8447 262.066 30.6988 263.033 29.5746 264.024C29.1277 264.329 28.8482 265 28.3303 265.02C27.507 265.051 27.183 265.59 26.8296 266.118C26.095 267.215 25.0387 268.029 24.2768 269.097C23.614 269.789 22.9754 270.504 22.1941 271.076C21.9334 271.267 21.6376 271.48 21.6158 271.868C21.0531 270.931 20.1776 270.359 19.2539 269.844C20.0052 269.633 20.2986 268.92 20.717 268.396C23.4706 264.948 26.1228 261.419 28.8989 257.989C32.5604 253.466 36.026 248.798 39.4385 244.088C39.597 243.869 39.7486 243.665 40.0578 243.699C40.2589 244.08 40.6112 244.172 41.001 244.193C41.055 244.306 41.1259 244.414 41.1603 244.534C41.8307 246.852 43.7718 248.001 46.1119 247.454C46.5394 247.354 46.9614 247.231 47.386 247.119C47.8671 246.987 48.3007 246.7 48.816 246.68C48.6619 247.073 48.1883 247.227 48.0595 247.69C48.3828 247.959 48.517 248.423 48.9761 248.57ZM29.882 262.63C29.523 262.984 29.1638 263.338 28.8048 263.693C28.862 263.742 28.9192 263.791 28.9762 263.84C29.336 263.438 29.696 263.035 30.0558 262.633C33.6921 258.572 37.5651 254.719 40.9146 250.405C39.5953 251.621 38.5037 253.042 37.298 254.359C35.5805 256.235 33.7882 258.044 32.0932 259.939C31.3217 260.802 30.4977 261.634 29.882 262.63ZM25.6592 265.978C30.1261 260.172 35.2597 254.865 39.0989 248.563C34.441 254.227 29.9652 260.03 25.6592 265.978Z" fill="#D49462"/>
<path d="M19.2559 269.846C20.1796 270.361 21.055 270.932 21.6177 271.869C21.6113 271.92 21.6241 271.965 21.6563 272.005C21.6988 272.058 21.7415 272.11 21.784 272.163C21.8373 272.527 21.8906 272.891 21.9439 273.255C21.3615 272.609 21.0939 271.743 20.402 271.158C19.8901 270.725 19.3056 270.466 18.7207 270.193C18.3363 270.014 18.0936 270.264 17.8895 270.57C16.6508 272.424 15.4021 274.271 14.0736 276.063C12.8391 277.729 11.6356 279.417 10.4118 281.091C10.3231 281.212 10.18 281.293 10.0621 281.393C9.95678 281.341 9.85144 281.289 9.74609 281.237C12.3963 277.455 15.1875 273.775 17.9956 270.048C15.9923 269.572 14.1076 269.516 12.2375 270.146C12.0417 270.1 11.8118 270.216 11.6467 270.022C13.5568 269.532 15.4582 269.004 17.4708 269.341C18.0897 269.445 18.6697 269.646 19.2559 269.846Z" fill="#191716"/>
<path d="M21.9961 261.608C24.6987 256.467 27.9095 251.634 31.099 246.789C28.3342 251.893 25.1738 256.756 21.9961 261.608Z" fill="#E3782F"/>
<path d="M26.2514 241.32C23.8466 247.851 20.8524 254.125 18.0801 260.493C20.5529 253.994 23.4187 247.661 26.2514 241.32Z" fill="#B64A10"/>
<path d="M22.5449 256.528C24.6826 252.188 27.1072 248.005 29.5312 243.82C27.4401 248.205 25.0162 252.415 22.6948 256.678C22.645 256.628 22.5949 256.578 22.5449 256.528Z" fill="#D9732D"/>
<path d="M32.6603 249.594C30.5344 252.889 28.2854 256.096 25.7441 259.092C27.9087 255.825 30.1577 252.618 32.6603 249.594Z" fill="#E07C36"/>
<path d="M41.0019 244.185C40.612 244.165 40.2598 244.073 40.0586 243.691C40.3984 242.968 40.7841 242.28 41.3584 241.705C41.6622 241.401 41.9628 241.065 41.9472 240.58C42.3762 240.649 42.4425 239.975 42.9045 240.112C42.4875 240.743 42.0706 241.374 41.6538 242.005C41.1325 242.64 40.6203 243.279 41.0019 244.185Z" fill="#E1B07F"/>
<path d="M22.544 256.523C22.5941 256.573 22.6441 256.623 22.6941 256.673C22.4268 257.166 22.1597 257.66 21.8926 258.153C21.9276 257.53 22.2174 257.019 22.544 256.523Z" fill="#D18753"/>
<path d="M55.3368 243.081C54.6196 243.976 53.9043 244.873 53.1833 245.766C53.0403 245.943 52.8746 246.102 52.7196 246.269C52.748 245.717 52.7288 245.171 52.5781 244.636C52.6086 244.486 52.595 244.306 52.676 244.192C54.7705 241.254 56.7535 238.241 58.7876 235.262C61.7439 230.932 64.7431 226.632 67.7234 222.318C70.2605 218.646 72.8059 214.98 75.331 211.301C79.4137 205.351 83.4772 199.388 87.5601 193.439C89.9677 189.93 92.3996 186.439 94.8163 182.936C97.4986 179.049 100.183 175.163 102.854 171.268C107.507 164.482 112.149 157.688 116.798 150.9C119.29 147.26 121.79 143.625 124.283 139.985C128.067 134.461 131.846 128.933 135.631 123.409C138.198 119.662 140.779 115.925 143.342 112.176C147.649 105.875 151.952 99.571 156.246 93.2615C158.773 89.5498 161.269 85.8175 163.798 82.1078C167.235 77.0668 170.695 72.0419 174.135 67.0032C177.325 62.3317 180.407 57.5869 183.709 52.9922C183.988 53.2701 184.267 53.548 184.546 53.8257C184.008 54.2312 183.838 54.8872 183.489 55.4191C178.493 63.0284 173.309 70.5101 168.193 78.0377C165.825 81.5219 163.495 85.0326 161.125 88.5157C156.063 95.9545 150.984 103.381 145.917 110.816C141.391 117.457 136.878 124.106 132.347 130.743C126.131 139.849 119.905 148.95 113.678 158.05C108.685 165.346 103.688 172.641 98.684 179.93C92.9443 188.291 87.199 196.648 81.4481 205C77.5406 210.675 73.6077 216.333 69.7069 222.013C65.32 228.401 60.955 234.804 56.5849 241.203C56.1607 241.823 55.658 242.392 55.3368 243.081Z" fill="#C94E02"/>
<path d="M52.5803 244.633C52.731 245.168 52.7503 245.714 52.7218 246.266C52.0591 247.374 51.6275 248.613 50.8067 249.63C51.0131 249.091 50.894 248.791 50.2637 248.676C49.8323 248.596 49.4098 248.568 48.9789 248.562C48.5198 248.416 48.3856 247.952 48.0625 247.682C48.1914 247.219 48.6649 247.065 48.8191 246.673C50.0727 245.993 51.3265 245.313 52.5803 244.633Z" fill="#C7895C"/>
<path d="M29.5762 264.024C30.7006 263.033 31.8466 262.066 32.9451 261.048C35.5487 258.634 38.13 256.197 40.7186 253.767C40.7738 253.715 40.8087 253.642 40.8531 253.579C42.3681 252.157 43.8948 250.749 45.5675 249.509C45.6585 249.509 45.7493 249.508 45.8401 249.508C43.9279 251.443 41.9156 253.272 39.9214 255.12C39.0092 255.966 38.1089 256.824 37.1958 257.669C35.8079 258.952 34.4133 260.229 33.0217 261.509C31.8203 262.269 30.895 263.362 29.7653 264.209C29.7023 264.147 29.6393 264.086 29.5762 264.024Z" fill="#CC5D2A"/>
<path d="M29.7666 264.201C30.8961 263.354 31.8216 262.261 33.0229 261.5C32.859 261.771 33.1087 261.834 33.2997 261.983C32.9504 262.308 32.612 262.622 32.2736 262.936C31.6229 263.078 31.3672 263.73 30.8461 264.039C29.1803 265.467 27.5315 266.915 25.8434 268.316C24.4125 269.503 23.1538 270.884 21.6574 271.995C21.6252 271.955 21.6124 271.91 21.6188 271.859C21.6407 271.472 21.9364 271.259 22.1971 271.068C22.9784 270.496 23.6171 269.781 24.2798 269.088C26.1088 267.458 27.9377 265.829 29.7666 264.201Z" fill="#E6A378"/>
<path d="M21.6562 272.002C23.1527 270.892 24.4115 269.511 25.8423 268.323C27.5303 266.923 29.1791 265.475 30.845 264.047C30.8525 264.116 30.86 264.185 30.8676 264.254C28.7604 266.409 26.4262 268.312 24.1435 270.272C23.3798 270.927 22.6835 271.673 21.7839 272.161C21.7414 272.108 21.6988 272.055 21.6562 272.002Z" fill="#CC6B34"/>
<path d="M30.8664 264.248C30.8589 264.179 30.8513 264.11 30.8438 264.041C31.3647 263.732 31.6206 263.079 32.2712 262.938C31.866 263.442 31.4264 263.91 30.8664 264.248Z" fill="#C96936"/>
<path d="M52.5789 244.632C51.325 245.312 50.0714 245.992 48.8175 246.672C48.3022 246.692 47.8686 246.979 47.3877 247.111C47.2689 247.072 47.152 247.008 47.0305 246.998C44.4719 246.781 42.7493 245.53 42.0399 243.001C41.9441 242.659 41.7843 242.335 41.6543 242.004C42.0711 241.373 42.488 240.742 42.905 240.111C45.4901 236.405 48.0881 232.708 50.657 228.991C56.4614 220.592 62.2545 212.185 68.0465 203.778C73.0575 196.505 78.0583 189.225 83.0685 181.951C86.7526 176.602 90.449 171.262 94.1319 165.913C98.1538 160.071 102.165 154.222 106.184 148.379C109.983 142.856 113.789 137.339 117.586 131.816C121.237 126.507 124.88 121.193 128.527 115.882C132.644 109.885 136.764 103.89 140.88 97.8925C144.629 92.4306 148.38 86.9698 152.122 81.5032C155.821 76.1006 159.511 70.6923 163.202 65.2844C167.01 59.7052 170.814 54.1227 174.623 48.5439C175.091 47.8581 175.58 47.1865 176.059 46.5078C176.746 47.0061 177.414 47.532 178.122 47.9981C179.836 49.1271 181.156 50.7143 182.779 51.9483C183.089 52.2951 183.399 52.642 183.709 52.9886C180.407 57.5832 177.325 62.3282 174.136 66.9995C170.696 72.0382 167.235 77.0629 163.799 82.104C161.27 85.8138 158.773 89.546 156.247 93.2578C151.952 99.5673 147.65 105.871 143.343 112.172C140.78 115.922 138.198 119.659 135.631 123.405C131.846 128.929 128.068 134.457 124.284 139.981C121.791 143.621 119.291 147.256 116.798 150.896C112.149 157.684 107.507 164.478 102.854 171.264C100.184 175.159 97.4992 179.045 94.8169 182.932C92.4004 186.435 89.9685 189.927 87.5607 193.435C83.4778 199.384 79.4144 205.347 75.3316 211.297C72.8065 214.977 70.2611 218.643 67.724 222.315C64.7437 226.628 61.7445 230.928 58.7882 235.258C56.7541 238.237 54.7713 241.251 52.6766 244.189C52.5958 244.302 52.6092 244.483 52.5789 244.632Z" fill="#D07A06"/>
<path d="M201.365 6.30469C201.824 6.64167 202.285 6.97662 202.741 7.31736C202.823 7.37863 202.953 7.46725 202.949 7.53711C202.863 9.09886 204.358 9.65998 205.018 10.7513C205.748 11.9602 206.777 12.9835 207.741 14.039C208.742 15.1361 209.29 16.5251 208.117 18.0999C207.252 19.2602 206.533 20.5289 205.757 21.7548C205.628 21.9578 205.494 22.1405 205.275 22.2479C205.908 20.8156 206.849 19.5514 207.511 18.13C207.806 17.4941 208.196 16.9193 208.086 16.1732C208.053 15.9489 207.989 15.7674 207.747 15.7097C207.524 15.6564 207.341 15.7171 207.2 15.9079C206.878 16.3456 206.534 16.7684 206.229 17.2172C204.917 19.1463 203.582 21.0616 202.323 23.0249C201.649 24.0752 200.735 24.936 200.11 26.0152C200.008 25.9493 199.906 25.8833 199.803 25.8173C197.756 23.2328 195.209 21.221 192.476 19.4231C192.446 19.3839 192.427 19.3398 192.42 19.291C192.533 19.1902 192.67 19.1066 192.755 18.9858C193.659 17.6944 194.575 16.4103 195.449 15.0988C197.329 12.2793 199.186 9.44476 201.052 6.61635C201.201 6.55696 201.305 6.45302 201.365 6.30469Z" fill="#3A3A39"/>
<path d="M182.781 51.9515C181.159 50.7176 179.838 49.1302 178.124 48.0013C177.416 47.5352 176.748 47.0093 176.062 46.511C175.952 46.4072 175.842 46.3031 175.732 46.1988C176.479 45.4272 176.82 44.4219 177.292 43.4922C178.767 44.3912 180.127 45.455 181.528 46.4599C181.405 46.5425 181.439 46.6429 181.529 46.7071C182.289 47.2501 182.789 48.0646 183.503 48.6356C183.95 48.9927 184.158 49.4085 184.325 49.8991C183.747 50.5363 183.454 51.3867 182.781 51.9515Z" fill="#7F7D79"/>
<path d="M200.111 26.0115C200.736 24.9322 201.651 24.0715 202.325 23.0212C203.584 21.0579 204.918 19.1426 206.231 17.2135C206.536 16.7646 206.879 16.3417 207.202 15.9042C207.342 15.7133 207.526 15.6527 207.749 15.706C207.99 15.7637 208.055 15.9453 208.088 16.1694C208.198 16.9156 207.808 17.4905 207.512 18.1263C206.851 19.5477 205.91 20.8118 205.276 22.2442C204.537 23.6237 203.609 24.8789 202.699 26.1457C202.298 26.7042 202.052 27.3971 201.367 27.715C200.948 27.1473 200.53 26.5793 200.111 26.0115Z" fill="#474948"/>
<path d="M192.476 19.4141C195.209 21.212 197.756 23.2237 199.803 25.8083C199.694 25.9497 199.598 26.106 199.472 26.2305C198.554 27.1334 198.378 27.1226 197.468 26.2381C195.684 24.5051 193.789 22.9167 191.562 21.7676C191.252 21.5616 191.216 21.3428 191.444 21.0224C191.813 20.5039 192.134 19.9519 192.476 19.4141Z" fill="#7F7D7D"/>
<path d="M190.147 44.2651C190.29 44.5524 190.432 44.8397 190.612 45.2029C190.398 45.0768 190.268 45 190.138 44.9234C190.156 44.6824 189.964 44.5566 189.837 44.4027C187.673 41.7828 185.118 39.6044 182.294 37.7313C178.194 34.9501 174.374 31.7517 169.961 29.4352C170.483 29.3131 170.861 29.7584 171.344 29.7859C175.129 31.7012 178.752 33.8902 182.286 36.2316C182.443 36.3638 182.59 36.5101 182.757 36.6263C185.729 38.681 188.343 41.0811 190.147 44.2651Z" fill="#2D2B2A"/>
<path d="M192.477 19.422C192.136 19.9599 191.814 20.5121 191.446 21.0302C191.217 21.3506 191.254 21.5694 191.563 21.7754C191.325 21.8089 191.033 21.667 190.882 21.9855C190.262 21.6734 189.637 21.3688 189.022 21.0479C186.32 19.6394 183.809 17.8764 180.975 16.7138C180.579 16.5514 180.228 16.2446 179.757 16.2996C179.607 16.2462 179.458 16.1927 179.309 16.1394C179.461 15.6325 179.791 15.9773 179.994 16.0381C181.938 16.6199 183.697 17.6061 185.445 18.6083C186.354 19.1294 186.557 19.0736 187.18 18.2921C187.624 17.7362 187.892 17.0947 188.234 16.4888C188.322 16.5391 188.415 16.5836 188.5 16.6407C189.807 17.5228 191.114 18.4066 192.421 19.29C192.429 19.3387 192.447 19.3826 192.477 19.422Z" fill="#E7E6E7"/>
<path d="M191.044 38.6368C190.991 38.8456 190.939 39.0544 190.886 39.2632C190.756 39.0019 190.626 38.7404 190.474 38.4345C190.26 39.9142 189.933 40.5055 189.091 40.9471C189.001 40.8677 188.898 40.7887 188.808 40.6971C187.479 39.3453 186.114 38.0353 184.643 36.8325C183.599 35.9781 183.547 35.3231 184.273 34.0312C185.771 34.5128 186.389 35.9676 187.422 36.9522C188.035 37.5364 188.661 37.9525 189.446 38.1226C189.801 38.1993 190.262 38.1554 190.119 37.54C190.614 37.7487 190.597 38.3883 191.044 38.6368Z" fill="#817B76"/>
<path d="M190.12 37.5447C190.263 38.1602 189.801 38.2039 189.447 38.1272C188.661 37.957 188.036 37.5411 187.423 36.9568C186.39 35.9723 185.771 34.5175 184.274 34.0359C183.548 35.3276 183.6 35.9828 184.644 36.8371C186.114 38.0401 187.479 39.3499 188.808 40.7018C188.898 40.7934 189.001 40.8723 189.092 40.9517C189.933 40.5101 190.261 39.9189 190.474 38.4392C190.626 38.7449 190.757 39.0064 190.887 39.2679C190.715 39.6099 190.563 39.9629 190.368 40.2912C190.149 40.6614 189.891 41.0095 189.615 41.4204C189.347 41.1599 189.004 41.2577 188.703 41.1577C187.711 39.9562 186.567 38.9104 185.309 38.0017C184.333 37.2971 183.512 36.3587 182.32 35.9714C182.329 35.5925 182.714 35.4079 182.789 35.0629C183.309 34.4543 183.756 33.8005 184.037 33.0442C184.13 32.9382 184.223 32.8324 184.316 32.7266C186.463 34.0775 188.312 35.7854 190.12 37.5447Z" fill="#8F8883"/>
<path d="M190.895 30.6837C190.818 31.1174 191.004 31.3869 191.361 31.6438C192.27 32.297 192.97 33.1693 193.659 34.0376C194.084 34.5737 193.863 34.9858 193.271 35.2362C192.994 35.1798 192.688 35.2942 192.437 35.0996C191.128 34.0812 189.911 32.9778 188.799 31.7312C187.977 30.8092 187.65 29.7671 187.393 28.6155C187.664 28.5819 187.906 28.6454 188.099 28.4844C189.031 29.2176 189.963 29.9506 190.895 30.6837Z" fill="#7E7773"/>
<path d="M184.018 44.1304C183.225 43.4784 182.491 42.75 181.593 42.2319C181.103 41.8144 180.614 41.3971 180.125 40.9797C180.18 40.4019 180.356 39.9047 180.766 39.4446C181.117 39.0502 181.322 38.5127 180.862 37.9999C180.868 37.9544 180.879 37.9102 180.896 37.8672C180.942 37.8878 180.989 37.9031 181.039 37.9133C181.39 38.1399 181.719 38.3588 181.757 38.8514C181.883 40.4744 183.043 41.2026 184.357 41.7778C185.024 42.0696 185.608 42.547 185.826 43.1831C186.056 43.8507 186.468 44.3508 186.831 44.9068C186.46 45.3722 186.193 45.6944 185.485 45.1764C185.012 44.8299 184.683 44.2156 184.018 44.1304Z" fill="#807A76"/>
<path d="M183.376 46.3886C184.103 47.1165 184.847 47.8277 185.544 48.5826C185.743 48.7977 186.169 48.9981 185.891 49.4377C183.834 47.5038 181.634 45.7476 179.327 44.1224C177.698 42.5627 175.76 41.4308 173.873 40.2362C173.23 39.8292 172.628 39.3259 171.878 39.0968C171.699 38.6091 171.089 38.6707 170.805 38.2607C170.961 38.1768 171.175 38.1754 171.206 37.9609C173.539 38.9994 175.754 40.2529 177.894 41.6415C178.55 42.1865 179.185 42.7595 179.868 43.2683C180.469 43.7161 180.95 44.32 181.653 44.6323C181.526 44.8058 181.646 44.916 181.762 45.0151C182.298 45.4752 182.838 45.9311 183.376 46.3886Z" fill="#433F3A"/>
<path d="M180.533 21.5938C181.588 22.1769 182.642 22.763 183.7 23.3413C183.948 23.4769 184.21 23.5863 184.465 23.7077C185.706 24.3917 186.893 25.1766 188.224 25.6894C189.319 26.3837 190.414 27.0782 191.51 27.7724C191.753 27.96 191.995 28.1474 192.238 28.335C193.871 29.9064 195.503 31.4779 197.135 33.0493C197.146 33.161 197.358 33.3034 197.196 33.3642C196.894 33.4772 196.677 33.2844 196.53 33.0219C195.658 32.3913 194.785 31.7604 193.912 31.1298C191.898 29.3656 189.803 27.7065 187.598 26.1857C186.577 25.4079 185.459 24.7831 184.368 24.1141C183.064 23.3137 181.631 22.7082 180.533 21.5938Z" fill="#403633"/>
<path d="M186.831 44.9075C186.468 44.3515 186.056 43.8514 185.826 43.1838C185.608 42.5475 185.024 42.0703 184.357 41.7785C183.043 41.2033 181.883 40.4751 181.757 38.8521C181.719 38.3594 181.39 38.1406 181.039 37.9137C181.494 37.7883 181.721 38.2091 182.068 38.3372C182.353 38.4424 182.499 38.897 182.911 38.6781C183.882 39.3634 184.898 39.9925 185.706 40.8848C185.368 41.1102 185.598 41.256 185.784 41.3978C186.613 42.0328 187.226 42.8687 187.886 43.6616C188.224 44.417 187.43 44.4172 187.152 44.7612C187.045 44.8098 186.938 44.8587 186.831 44.9075Z" fill="#746F6B"/>
<path d="M197.135 33.0574C195.503 31.486 193.871 29.9145 192.238 28.3431C192.593 28.2359 192.839 28.3637 193.134 28.5967C194.034 29.3079 194.777 30.1774 195.615 30.9481C195.781 31.1004 195.921 31.3642 196.192 31.2601C196.47 31.1533 196.504 30.8654 196.512 30.6029C196.522 30.2653 196.509 29.927 196.506 29.5889C196.51 29.5369 196.514 29.4848 196.517 29.4326C196.572 29.1724 196.626 28.9122 196.681 28.6518C197.149 28.9122 197.617 29.1727 198.085 29.4331C198.353 29.6382 198.558 29.8962 198.719 30.1916C199.632 30.4059 199.635 30.4076 199.152 31.3628C198.978 31.7063 198.761 32.0268 198.562 32.3542C198.215 32.9245 197.815 33.2334 197.135 33.0574Z" fill="#C3C1C0"/>
<path d="M198.718 30.1909C198.557 29.8956 198.352 29.6376 198.084 29.4324C197.951 29.2756 197.82 29.1163 197.684 28.9625C195.562 26.5771 193.019 24.6936 190.424 22.872C190.476 22.555 190.575 22.2651 190.877 22.0938C192.503 23.1621 194.192 24.1436 195.659 25.4347C196.997 26.6124 198.17 27.923 198.731 29.6679C198.784 29.8308 199.001 30.0258 198.718 30.1909Z" fill="#36302D"/>
<path d="M190.895 30.6788C189.963 29.9458 189.032 29.2126 188.1 28.4795C187.766 28.2618 187.52 27.9139 187.09 27.7815C186.891 28.3156 186.728 28.8445 186.377 29.2798C186.035 29.0779 185.789 28.7856 185.561 28.4641C184.964 27.6227 184.146 27.1969 183.098 27.3412C183.165 26.4012 183.991 25.8187 184.694 26.1486C184.974 26.2804 185.117 26.2638 185.266 26.0234C186.645 26.8046 187.859 27.8229 189.15 28.7298C190.008 29.482 190.866 30.2343 191.724 30.9866C191.333 31.1954 191.249 30.5736 190.895 30.6788Z" fill="#E3DFDE"/>
<path d="M186.378 29.2795C186.729 28.8442 186.892 28.3153 187.091 27.7812C187.52 27.9136 187.767 28.2616 188.1 28.4793C187.907 28.6403 187.665 28.5768 187.394 28.6104C187.651 29.7619 187.979 30.8039 188.801 31.7261C189.912 32.9726 191.13 34.0759 192.439 35.0945C192.689 35.2893 192.996 35.1747 193.272 35.2311C193.327 35.4243 193.454 35.6069 193.328 35.8904C193.067 35.6006 192.841 35.1941 192.338 35.4857C192.44 35.8677 192.878 36.0947 192.782 36.5295C192.052 35.7754 191.323 35.022 190.593 34.2685C190.297 33.8396 189.903 33.5117 189.503 33.1856C188.292 32.1969 187.087 31.2009 185.879 30.2078C186.05 29.901 186.302 29.6376 186.378 29.2795Z" fill="#8E8783"/>
<path d="M190.118 37.5406C188.311 35.7813 186.461 34.0734 184.315 32.7223C183.286 32.1051 182.363 31.318 181.263 30.8124C181.058 30.6281 180.852 30.4439 180.578 30.3645C179.05 29.1803 177.346 28.304 175.594 27.5111C175.645 27.4683 175.696 27.4256 175.747 27.3828C175.986 27.4761 176.226 27.5651 176.463 27.6637C179.309 28.8503 181.812 30.6487 184.472 32.1676C185.644 33.0507 186.843 33.8987 187.924 34.8976C188.658 35.9479 189.785 36.6153 190.574 37.6137C190.817 37.9212 191.09 38.2025 191.043 38.6375C190.596 38.3887 190.613 37.7491 190.118 37.5406Z" fill="#403F3F"/>
<path d="M190.88 22.0924C190.578 22.2637 190.479 22.5537 190.426 22.8707C190.048 22.6554 189.654 22.4636 189.295 22.2201C188.44 21.6399 187.638 20.98 186.712 20.5077C184.611 18.8154 182.275 17.5193 179.82 16.4237C179.787 16.4089 179.778 16.3395 179.758 16.2956C180.229 16.2406 180.58 16.5474 180.976 16.7098C183.81 17.8723 186.321 19.6352 189.023 21.0438C189.639 21.3647 190.263 21.6693 190.883 21.9815C190.868 22.0179 190.867 22.0549 190.88 22.0924Z" fill="#353230"/>
<path d="M179.329 44.1224C181.636 45.7476 183.836 47.5038 185.893 49.4377C185.665 49.5257 185.436 49.5889 185.294 49.8336C185.125 50.1231 185.101 49.7453 184.989 49.7419C183.978 48.4971 182.837 47.3897 181.528 46.4593C180.127 45.4544 178.766 44.3905 177.291 43.4916L177.298 43.5018C177.298 43.1663 177.523 43.1807 177.756 43.2082C178.308 43.4646 178.696 44.005 179.329 44.1224Z" fill="#C8C4C2"/>
<path d="M191.725 30.9897C190.867 30.2374 190.009 29.4851 189.15 28.7327C189.261 28.5067 189.371 28.2807 189.482 28.0547C190.765 28.937 191.835 30.0563 192.925 31.1535C193.853 32.2649 194.967 33.2188 195.731 34.4686C195.533 34.9994 195.497 34.2634 195.347 34.4191C194.486 33.5918 193.625 32.7646 192.764 31.9373C192.417 31.6216 192.071 31.3056 191.725 30.9897Z" fill="#403B37"/>
<path d="M187.927 34.9041C186.846 33.9052 185.647 33.0573 184.475 32.174C184.476 32.0227 184.496 31.8785 184.623 31.7734C184.981 32.0019 185.354 32.2109 185.695 32.4623C186.917 33.3619 188.128 34.2758 189.343 35.1844C190.848 36.4532 192.354 37.7221 193.859 38.9909C193.756 39.1306 193.645 39.0881 193.527 39.0081C191.761 37.8024 189.992 36.6008 188.465 35.0837C188.336 34.9554 188.221 34.6087 187.927 34.9041Z" fill="#E4E2E0"/>
<path d="M182.321 35.9766C183.513 36.3639 184.334 37.3025 185.31 38.0071C186.568 38.9156 187.711 39.9616 188.704 41.1631C188.878 41.7744 189.361 42.1857 189.702 42.6892C190.028 43.1726 190.301 43.6562 190.148 44.2684C188.344 41.0845 185.73 38.6843 182.758 36.6294C182.59 36.5135 182.444 36.367 182.287 36.2348C182.298 36.1487 182.31 36.0625 182.321 35.9766Z" fill="#D2CECD"/>
<path d="M183.377 46.3857C182.839 45.9282 182.299 45.4724 181.763 45.0119C181.647 44.9127 181.528 44.8025 181.655 44.6292C181.714 44.2195 181.348 44.1389 181.123 43.9597C180.866 43.7561 180.755 43.5616 181.057 43.3125C182.08 44.1067 183.103 44.9008 184.126 45.695C184.796 46.3568 185.467 47.0187 186.137 47.6805C186.044 47.7808 185.952 47.881 185.858 47.9823C185.253 47.4635 184.663 46.9323 184.041 46.4416C183.873 46.3089 183.633 45.9444 183.377 46.3857Z" fill="#D1CDCC"/>
<path d="M185.705 40.8807C184.897 39.9882 183.881 39.3593 182.91 38.6741C182.649 38.4759 182.389 38.2777 182.129 38.0795C182.184 37.9618 182.238 37.8443 182.293 37.7266C185.118 39.5997 187.673 41.778 189.837 44.3979C189.964 44.5517 190.155 44.6775 190.138 44.9187C189.496 44.5301 188.995 43.9725 188.43 43.4912C187.566 42.5747 186.757 41.6006 185.705 40.8807Z" fill="#E4E0DE"/>
<path d="M184.125 45.701C183.102 44.9068 182.079 44.1127 181.056 43.3185C180.475 42.6741 179.67 42.3265 179.016 41.7797C179.188 41.5834 179.47 41.8726 179.635 41.6406C180.124 41.7829 180.462 42.1752 180.901 42.4015C181.906 43.191 182.915 43.9759 183.913 44.7738C184.13 44.9468 184.309 45.166 184.506 45.3639C184.209 45.2848 184.315 45.6599 184.125 45.701Z" fill="#474441"/>
<path d="M193.857 38.991C192.351 37.7222 190.845 36.4533 189.34 35.1845C189.531 34.9807 189.629 34.7543 189.508 34.4062C190.131 34.9134 190.612 35.4924 191.154 36.0069C191.615 36.4441 191.946 37.0441 192.607 37.2495C192.971 37.6429 193.335 38.0362 193.699 38.4296C193.668 38.6401 194.037 38.7386 193.857 38.991Z" fill="#25231F"/>
<path d="M195.73 34.4669C194.966 33.2169 193.852 32.263 192.924 31.1517C193.09 31.0633 193.25 31.0245 193.38 31.2111C193.608 31.5387 193.741 31.2032 193.912 31.1353C194.784 31.766 195.657 32.3968 196.53 33.0275C195.922 33.3449 195.539 32.8446 195.088 32.5762C194.893 33.0703 195.146 33.3567 195.455 33.5953C195.761 33.8313 195.861 34.1056 195.73 34.4669Z" fill="#C8C2C4"/>
<path d="M193.7 38.4326C193.336 38.0392 192.972 37.6459 192.608 37.2525C191.985 36.5748 191.362 35.8971 190.738 35.2192C190.938 34.9072 190.666 34.7691 190.504 34.5959C190.349 34.431 190.281 34.3034 190.593 34.2734C191.322 35.027 192.052 35.7803 192.781 36.5345C193.21 37.1084 193.603 37.6989 193.7 38.4326Z" fill="#DFD7D7"/>
<path d="M184.125 45.6996C184.315 45.6585 184.21 45.2834 184.506 45.3625C185.77 46.4964 186.959 47.6987 187.859 49.1801C187.284 48.6818 186.71 48.1834 186.136 47.6851C185.465 47.0233 184.795 46.3615 184.125 45.6996Z" fill="#2C2723"/>
<path d="M186.831 44.9093C186.938 44.8605 187.045 44.8116 187.152 44.763C187.031 45.2466 187.03 45.7235 187.256 46.1361C187.01 46.3255 186.807 46.4822 186.649 46.6041C185.822 45.8268 184.92 44.9798 184.018 44.1328C184.682 44.2182 185.011 44.8324 185.485 45.1789C186.193 45.6969 186.46 45.3748 186.831 44.9093Z" fill="#9E9A9A"/>
<path d="M180.902 42.405C180.464 42.1785 180.125 41.7862 179.636 41.6441C179.239 41.4098 178.977 41.0355 178.666 40.7126C178.896 40.7021 179.123 40.6808 179.309 40.5234C179.581 40.6774 179.854 40.8314 180.126 40.9853C180.615 41.4026 181.104 41.8199 181.594 42.2374C181.363 42.2931 181.133 42.349 180.902 42.405Z" fill="#CDC4BE"/>
<path d="M181.526 46.4609C182.835 47.3914 183.976 48.4988 184.986 49.7435C184.837 50.1016 184.501 49.6702 184.321 49.9002C184.155 49.4095 183.947 48.9938 183.5 48.6366C182.786 48.0657 182.286 47.2512 181.526 46.7082C181.436 46.644 181.402 46.5436 181.526 46.4609Z" fill="#6E6B68"/>
<path d="M192.764 31.9375C193.625 32.7648 194.486 33.5919 195.347 34.4192C195.178 34.4308 195.207 34.6007 195.064 34.8114C194.359 33.7571 193.033 33.3025 192.764 31.9375Z" fill="#D4CFCB"/>
<path d="M185.706 40.8828C186.758 41.6027 187.567 42.5769 188.431 43.4933C188.236 43.5037 188.027 43.471 187.886 43.6598C187.226 42.8667 186.613 42.0308 185.783 41.3959C185.598 41.2539 185.368 41.1082 185.706 40.8828Z" fill="#938E8C"/>
<path d="M8.80555 285.45C7.7721 286.455 6.74067 287.462 5.70409 288.464C5.38977 288.767 5.06107 289.056 4.73894 289.351C4.55482 289.242 4.26551 289.759 4.14844 289.252C6.22035 287.177 8.37417 285.175 10.3442 283.007C13.2146 279.847 16.5244 277.15 19.4843 274.089C19.5527 274.019 19.6445 273.971 19.815 273.988C19.6593 274.163 19.5126 274.346 19.3467 274.511C15.8423 277.988 12.4548 281.578 9.04063 285.142C8.952 285.235 8.88355 285.347 8.80555 285.45Z" fill="#0C0C0B"/>
<path d="M9.74394 281.234C9.84929 281.287 9.95448 281.339 10.06 281.391C8.48838 283.669 6.79144 285.852 5.05557 288.005C4.83159 288.283 4.52837 288.497 4.26172 288.74C4.26656 288.636 4.27141 288.531 4.27641 288.427C6.23047 286.129 7.93524 283.642 9.74394 281.234Z" fill="#0C0C0B"/>
<path d="M188.234 16.48C187.892 17.0859 187.625 17.7274 187.181 18.2833C186.558 19.0648 186.354 19.1206 185.445 18.5995C183.698 17.5973 181.939 16.6111 179.995 16.0293C179.791 15.9685 179.462 15.6237 179.309 16.1306C178.669 15.9238 178.9 15.3934 178.864 14.9246C179.354 14.6287 179.903 14.7696 180.426 14.733C181.665 14.7485 182.908 14.6547 184.222 14.9359C183.369 14.0134 182.302 13.6569 181.306 13.1858C181.01 13.0456 180.787 12.9626 181.203 12.7031C183.746 13.5918 186.003 15.0126 188.234 16.48Z" fill="#FBFCFC"/>
<path d="M186.71 20.5091C187.637 20.9816 188.438 21.6415 189.293 22.2216C189.652 22.4651 190.046 22.6569 190.425 22.8721C193.02 24.6938 195.563 26.577 197.684 28.9626C197.821 29.1163 197.951 29.2757 198.085 29.4325C197.617 29.1721 197.149 28.9115 196.681 28.6511C196.097 27.9922 195.502 27.3437 194.792 26.8135C194.211 26.2791 193.661 25.7058 192.927 25.3694C191.816 24.316 190.544 23.4935 189.192 22.6131C189.206 23.0381 189.744 23.0898 189.469 23.4624C189.134 24.011 189.246 24.7538 188.708 25.2136C188.449 25.2768 188.44 25.5908 188.224 25.6967C186.893 25.1841 185.706 24.399 184.466 23.715C185.1 23.1626 185.122 22.7302 184.505 22.1698C184.214 21.9052 184.057 21.5868 184.088 21.22C184.123 20.812 184.523 20.8316 184.807 20.7628C185.136 20.6831 185.434 20.5724 185.627 20.2812C185.993 20.4516 186.288 20.8103 186.71 20.5091Z" fill="#ECE9E8"/>
<path d="M180.535 21.5941C181.633 22.7085 183.065 23.314 184.37 24.1141C185.46 24.7832 186.579 25.4079 187.599 26.1857C187.547 26.2979 187.494 26.4101 187.442 26.5225C184.884 25.0091 182.343 23.4655 179.759 21.9978C178.808 21.4572 177.831 20.8893 176.68 20.8321C176.375 20.7007 176.101 20.4761 175.738 20.5175C175.629 20.2969 175.572 20.0195 175.401 19.8673C175.002 19.5089 174.91 19.1203 175.11 18.6406C175.375 18.6897 175.641 18.7389 175.906 18.7882C177.534 19.4651 179.07 20.2972 180.421 21.4457C180.459 21.4951 180.497 21.5447 180.535 21.5941Z" fill="#F7F6F4"/>
<path d="M176.209 17.226C176.265 17.1636 176.322 17.1013 176.378 17.0391C177.249 17.234 178.043 17.6335 178.864 17.9609C179.48 18.3054 180.151 18.5575 180.675 19.0694C179.209 18.3948 177.755 17.698 176.209 17.226Z" fill="#4D4D48"/>
<path d="M9.74532 281.235C7.93662 283.642 6.23185 286.13 4.27763 288.427C3.97441 288.702 3.64821 288.955 3.37562 289.258C3.16681 289.489 3.04474 289.389 2.89453 289.228C4.99536 285.458 7.1759 281.73 9.0812 277.854C10.3082 275.359 11.3819 272.794 12.2367 270.144C14.1069 269.514 15.9915 269.569 17.9948 270.046C15.1866 273.773 12.3955 277.452 9.74532 281.235Z" fill="#3D3D3B"/>
<path d="M188.232 16.4792C186 15.0118 183.744 13.5912 181.201 12.7025C180.519 12.2805 179.722 12.1329 179.008 11.7881C179.353 11.3858 179.428 10.7841 179.951 10.5135C180.456 10.4827 180.265 11.0023 180.494 11.214C180.763 10.9458 180.872 10.4832 181.364 10.5144C181.284 10.6426 181.204 10.7708 181.092 10.9488C183.315 11.7086 185.255 12.9526 187.245 14.0587C189.353 10.8769 191.411 7.77138 193.521 4.58661C191.567 3.37294 189.637 2.48344 187.453 2.22976C187.056 2.18366 186.845 2.41873 186.65 2.72649C185.983 3.7787 185.323 4.83669 184.614 5.85968C183.596 7.3264 182.714 8.89034 181.519 10.2322C181.422 9.30969 182.154 8.75748 182.514 8.04335C183.121 6.84312 183.945 5.7734 184.755 4.71134C185.531 3.69258 185.877 2.4414 186.673 1.44811C187.157 1.25695 187.649 1.07862 188.177 1.16145C190.567 1.53595 192.85 2.26087 195.037 3.29089C196.273 3.87295 197.506 4.46048 198.74 5.04567C199.359 5.43329 200.078 5.63257 200.664 6.08694C200.851 6.23183 201.052 6.33405 201.052 6.60538C199.185 9.43379 197.328 12.2683 195.449 15.0878C194.574 16.3993 193.659 17.6835 192.754 18.9748C192.67 19.0956 192.532 19.1793 192.419 19.2801C191.112 18.3967 189.805 17.5129 188.497 16.6308C188.413 16.574 188.321 16.5295 188.232 16.4792Z" fill="#545252"/>
<path d="M181.366 10.5205C180.874 10.4894 180.765 10.9518 180.497 11.2201C180.267 11.0081 180.459 10.4886 179.953 10.5195C181.726 7.63422 183.808 4.9532 185.554 2.04977C185.723 1.76843 185.864 1.44224 186.196 1.28906C186.356 1.34424 186.516 1.39925 186.675 1.45427C185.879 2.44756 185.534 3.6989 184.757 4.7175C183.947 5.77956 183.123 6.84928 182.517 8.04951C182.156 8.76364 181.425 9.31585 181.521 10.238C181.47 10.3318 181.418 10.4262 181.366 10.5205Z" fill="#676666"/>
<path d="M186.675 1.44989C186.515 1.39487 186.355 1.33985 186.195 1.28468C186.944 0.296706 188.013 0.579766 188.927 0.75279C191.856 1.30719 194.554 2.5096 197.129 3.9907C197.685 4.31065 198.313 4.52994 198.742 5.04745C197.508 4.46241 196.275 3.87473 195.039 3.29267C192.852 2.26265 190.569 1.53773 188.179 1.16323C187.651 1.08039 187.158 1.25858 186.675 1.44989Z" fill="#7E7C7B"/>
<path d="M165.597 31.6378C165.338 31.4275 165.424 31.1897 165.525 30.9359C166.039 29.6528 166.801 28.5317 167.619 27.4192C168.657 26.0079 169.55 24.4896 170.49 23.0079C170.829 22.4724 171.248 22.0416 171.827 21.7734C172.444 21.8808 173.062 21.988 173.68 22.0954C174.875 22.415 175.941 23.0956 177.164 23.3339C177.454 23.4909 177.958 23.3133 178.02 23.8611C177.697 24.0457 177.419 23.9387 177.143 23.8021C176.213 23.3117 175.24 22.9827 174.171 23.0184C173.614 22.843 173.062 22.6459 172.498 22.4968C171.496 22.2319 171.31 22.3389 170.888 23.3311C170.228 24.2831 169.569 25.2353 168.931 26.1559C168.99 26.4484 169.345 26.4674 169.326 26.7508C169.268 26.7879 169.209 26.8249 169.151 26.8621C169.163 26.8787 169.172 26.9045 169.188 26.9105C169.986 27.2128 170.775 27.547 171.588 27.8036C172.275 28.0204 172.899 28.5154 173.687 28.338C174.244 28.3568 174.593 28.8474 175.108 28.9612C175.092 29.2779 174.862 29.2708 174.638 29.2715C173.381 28.8212 172.069 28.5172 170.887 27.8662C170.309 27.3984 169.611 27.3832 168.921 27.3612C168.376 27.3438 168.016 27.5468 167.838 28.1314C167.666 28.6913 167.409 29.2304 167.065 29.7269C166.646 30.3302 165.904 30.7372 165.893 31.5955C165.794 31.6097 165.696 31.6238 165.597 31.6378Z" fill="#E7E7E6"/>
<path d="M175.904 18.7968C175.639 18.7476 175.374 18.6985 175.108 18.6494C174.715 18.4279 174.365 18.3246 174.326 18.9655C174.307 19.2913 174.049 19.4461 173.867 19.6574C173.389 20.2115 172.537 20.3357 172.189 21.1854C173.256 21.7363 174.537 21.6482 175.582 22.2423C175.995 22.4248 176.448 22.5483 176.677 22.9967C175.754 22.5965 174.841 22.1704 173.853 21.9419C173.181 21.8303 172.529 21.5793 171.832 21.6285C171.7 20.7982 172.359 20.2526 172.584 19.5502C172.622 19.4312 172.72 19.3324 172.784 19.2205C173.608 17.7791 174.621 17.6413 175.904 18.7968Z" fill="#ECEAE7"/>
<path d="M165.596 31.6358C165.694 31.6217 165.793 31.6077 165.892 31.5938C167.449 31.9798 169.015 32.3393 170.415 33.1749C169.235 32.8012 168.058 32.42 166.874 32.058C166.455 31.93 166.022 31.8488 165.596 31.7461C165.596 31.7093 165.596 31.6725 165.596 31.6358Z" fill="#7C7C76"/>
<path d="M171.832 21.6235C172.53 21.5743 173.181 21.8253 173.854 21.9369C173.796 21.9907 173.738 22.0446 173.68 22.0983C173.062 21.991 172.444 21.8836 171.826 21.7764C171.828 21.7254 171.83 21.6745 171.832 21.6235Z" fill="#969798"/>
<path d="M3.66295 289.891C3.31127 290.236 2.95959 290.582 2.52148 291.012C2.85003 290.48 3.23671 290.169 3.66295 289.891Z" fill="#0C0C0B"/>
<path d="M167.288 40.8616C166.877 42.5428 165.774 43.8979 165.114 45.4678C164.575 46.7485 163.578 47.7902 162.916 49.0075C162.382 49.9878 161.638 50.8074 161.091 51.7743C160.507 52.8067 159.748 53.739 159.087 54.7295C158.071 56.2515 157.086 57.7936 156.065 59.3116C155.675 59.891 155.196 60.41 154.802 60.9866C153.942 62.245 153.204 63.5995 152.243 64.773C151.076 66.1977 150.255 67.8384 149.169 69.3163C148.03 70.8656 147.003 72.5269 145.862 74.0827C144.437 76.0271 143.208 78.0946 141.818 80.0563C141.04 81.1528 140.159 82.1825 139.463 83.3266C138.818 84.386 138.014 85.3435 137.465 86.4548C137.196 87.0007 136.794 87.4465 136.45 87.9196C135.033 89.8637 133.862 91.9839 132.368 93.8557C131.266 95.2365 130.262 96.7007 129.373 98.1804C128.375 99.843 127.073 101.283 126.151 102.997C125.712 103.815 125.063 104.567 124.555 105.371C123.607 106.872 122.471 108.232 121.463 109.685C120.755 110.704 120.048 111.723 119.357 112.754C118.42 114.15 117.584 115.624 116.548 116.941C115.397 118.405 114.517 120.051 113.32 121.48C112.808 122.091 112.404 122.797 111.987 123.482C110.935 125.207 109.636 126.762 108.559 128.468C107.442 130.236 106.372 132.033 105.087 133.691C103.852 135.285 102.667 136.933 101.581 138.616C100.675 140.019 99.7211 141.393 98.8022 142.788C98.1384 143.796 97.3799 144.765 96.7561 145.775C95.8125 147.303 94.6865 148.679 93.6362 150.112C92.5929 151.535 91.6633 153.028 90.7498 154.525C89.6819 156.275 88.4073 157.877 87.1863 159.499C85.6583 161.53 84.3923 163.728 82.8758 165.766C81.8018 167.209 80.8308 168.754 79.7822 170.233C78.0023 172.744 76.2356 175.267 74.6281 177.893C73.5468 179.659 72.2399 181.265 71.0758 182.971C70.506 183.807 70.1007 184.817 69.2127 185.433C69.1155 185.5 69.0367 185.634 69.0059 185.751C68.6926 186.946 67.9051 187.83 67.1496 188.76C66.4521 189.619 65.819 190.542 65.2052 191.462C64.0701 193.164 62.8308 194.794 61.74 196.52C61.1514 197.452 60.3118 198.184 59.8927 199.268C59.4968 200.293 58.5249 201.005 57.9643 201.98C57.1882 203.33 56.1121 204.466 55.199 205.719C54.1195 207.199 53.129 208.745 52.1016 210.263C50.5492 212.557 49.1049 214.926 47.5483 217.211C46.4773 218.784 45.4584 220.402 44.298 221.922C43.2474 223.298 42.1944 224.685 41.2305 226.115C39.6057 228.527 37.7647 230.781 36.176 233.22C35.652 234.025 34.905 234.69 34.4885 235.604C34.2439 236.141 34.1034 236.659 34.1176 237.25C34.1456 238.41 34.1259 239.572 34.1259 240.854C33.0988 240.427 32.745 239.561 32.4234 238.728C32.0497 237.76 32.3326 236.715 32.2293 235.709C32.1931 235.107 32.3978 234.573 32.7568 234.112C36.4563 229.364 39.7042 224.299 43.1227 219.355C50.0208 209.377 56.8913 199.38 63.769 189.389C69.0528 181.712 74.3251 174.028 79.6115 166.353C88.3973 153.598 97.1967 140.853 105.978 128.094C111.808 119.625 117.612 111.138 123.434 102.664C132.602 89.3187 141.776 75.9778 150.946 62.6339C155.354 56.2193 159.764 49.806 164.156 43.3812C164.844 42.3754 165.444 41.3103 166.09 40.2656C166.541 40.4029 166.925 40.6114 167.288 40.8616Z" fill="#F7AC0D"/>
<path d="M171.207 43.0181C170.629 42.6672 170.05 42.3163 169.472 41.9654C169.238 41.5232 168.783 41.3708 168.385 41.1487C168.114 40.9977 167.822 40.8832 167.556 40.7256C166.774 40.2637 166.011 39.6948 165.064 40.5549C165.449 39.8952 165.718 39.2789 166.201 38.8047C166.616 38.8892 166.986 39.3202 167.459 38.9699C169.091 39.7773 170.693 40.6457 172.472 41.2734C172.075 41.9882 171.861 42.6576 171.207 43.0181Z" fill="#FBFAF9"/>
<path d="M167.137 32.8615C168.16 33.1927 169.182 33.5284 170.207 33.8532C170.674 34.0011 171.141 34.0674 171.615 33.7068C171.306 33.3773 170.808 33.5284 170.58 33.176C170.586 33.0806 170.632 32.9271 170.591 32.8989C169.97 32.4665 170.272 32.0398 170.583 31.6094C170.959 31.8829 171.416 31.9346 171.843 32.0675C172.422 32.3127 172.902 32.7687 173.549 32.8671L173.539 32.8588C174.223 33.5292 175.15 33.8404 175.879 34.4437C175.949 34.6794 176.164 34.7177 176.353 34.7905C176.294 35.0091 176.544 35.2323 176.346 35.4476C175.669 36.1851 175.421 37.0727 175.487 38.043C175.132 38.1526 174.926 37.8381 174.64 37.8661C174.089 37.5317 173.571 37.1449 173.038 36.7928C171.74 35.9358 170.322 35.2785 168.859 34.736C168.585 34.5142 168.263 34.4362 167.92 34.4261C167.726 33.764 167.081 33.773 166.6 33.5378C166.329 33.4053 165.799 33.4582 165.959 32.9682C166.09 32.5669 166.507 32.6943 166.836 32.7919C166.935 32.8212 167.037 32.8387 167.137 32.8615Z" fill="#FBFAF9"/>
<path d="M171.205 43.0255C171.859 42.6651 172.073 41.9956 172.47 41.2807C170.691 40.6532 169.089 39.7846 167.457 38.9772C166.724 38.5098 165.847 38.3745 165.051 37.9836C165.278 37.7827 165.414 37.9976 165.575 38.017C166 38.0136 166.376 38.1619 166.758 38.3423C168.537 39.1824 170.327 39.9969 172.108 40.8312C172.464 40.9978 172.71 41.0125 172.76 40.5402C172.919 40.6402 173.078 40.7402 173.237 40.8401C173.632 41.3839 174.193 41.6884 174.799 41.9275L174.803 41.9306C175.634 42.4555 176.465 42.9803 177.296 43.5053L177.29 43.4952C176.818 44.4247 176.477 45.4302 175.73 46.2017C174.141 45.2581 172.722 44.0719 171.205 43.0255Z" fill="#D9D8D9"/>
<path d="M172.76 40.5411C172.71 41.0136 172.464 40.9989 172.108 40.8321C170.327 39.9978 168.536 39.1833 166.758 38.3432C166.376 38.1628 166 38.0145 165.574 38.0179C165.565 37.9668 165.572 37.9037 165.544 37.8668C164.844 36.933 164.844 36.9335 165.574 35.9651C164.657 35.0462 164.959 34.0238 165.454 33.0182C165.634 32.6507 165.901 32.3164 166.365 32.2506C166.843 32.1828 166.98 32.5373 167.136 32.8694C167.036 32.8466 166.934 32.8291 166.836 32.7998C166.506 32.702 166.09 32.5746 165.959 32.9761C165.798 33.466 166.328 33.4132 166.6 33.5457C167.081 33.7809 167.725 33.7717 167.919 34.434C167.846 34.5695 167.717 34.5892 167.583 34.5998C167.426 34.5729 167.232 34.667 167.127 34.4635C166.693 33.968 166.23 33.602 165.573 34.1242C165.411 34.1498 165.27 34.1728 165.34 34.4088C165.528 35.0382 165.714 35.6629 166.368 35.9865C166.158 36.0351 165.884 35.9037 165.692 36.3519C166.455 36.9379 167.393 37.2685 168.265 37.7097C168.492 37.6319 168.667 37.6931 168.888 37.8132C169.575 38.1859 170.297 38.4962 171.005 38.8307C171.095 38.9473 171.185 39.0639 171.274 39.1794C171.096 39.3235 170.93 38.9723 170.752 39.2324C171.401 39.7044 172.168 39.9926 172.76 40.5411Z" fill="#EAE8E5"/>
<path d="M170.582 31.6172C170.272 32.0478 169.969 32.4745 170.591 32.9069C170.632 32.9352 170.585 33.0888 170.58 33.184C170.525 33.1838 170.471 33.1838 170.416 33.1837C169.016 32.3481 167.45 31.9886 165.893 31.6025C165.904 30.7443 166.646 30.3371 167.065 29.734C167.409 29.2374 167.666 28.6983 167.838 28.1385C168.016 27.5539 168.376 27.3507 168.921 27.3682C169.611 27.3903 170.309 27.4053 170.887 27.8731C170.286 27.9186 169.72 27.7111 169.136 27.6364C168.805 27.5941 168.388 27.6396 168.29 28.0011C168.174 28.4345 168.631 28.4178 168.898 28.5267C169.75 28.8753 170.629 29.1741 171.344 29.7882C170.861 29.7607 170.483 29.3154 169.961 29.4375C169.588 29.286 169.246 28.9817 168.724 29.2254C168.999 29.5108 168.527 29.6882 168.607 29.9397C169.079 30.482 169.864 30.4178 170.271 30.9753C169.882 30.9938 169.556 30.6438 169.106 30.7407C169.546 31.1946 170.251 31.0855 170.582 31.6172Z" fill="#ECEAE7"/>
<path d="M41.6535 242.008C41.7836 242.34 41.9433 242.663 42.0391 243.005C42.7485 245.534 44.471 246.785 47.0298 247.002C47.1512 247.013 47.268 247.076 47.3869 247.115C46.9622 247.227 46.5401 247.35 46.1126 247.45C43.7725 247.997 41.8314 246.848 41.161 244.529C41.1266 244.41 41.0557 244.302 41.0017 244.189C40.6201 243.283 41.1323 242.644 41.6535 242.008Z" fill="#C74B03"/>
<path d="M25.6602 265.969C29.9662 260.022 34.442 254.218 39.0998 248.555C35.2606 254.856 30.1271 260.164 25.6602 265.969Z" fill="#C0602C"/>
<path d="M29.8848 262.624C30.5004 261.628 31.3246 260.796 32.0958 259.933C33.7909 258.038 35.5832 256.229 37.3006 254.353C38.5064 253.036 39.5979 251.615 40.9172 250.398C37.5677 254.713 33.6947 258.566 30.0586 262.627C30.0007 262.626 29.9428 262.625 29.8848 262.624Z" fill="#B75922"/>
<path d="M29.7641 264.209C27.9352 265.838 26.1062 267.466 24.2773 269.096C25.0393 268.028 26.0956 267.215 26.8302 266.118C27.1837 265.59 27.5076 265.051 28.3308 265.02C28.8487 265 29.1281 264.329 29.5751 264.023C29.6381 264.085 29.7011 264.147 29.7641 264.209Z" fill="#C86935"/>
<path d="M45.5671 249.508C43.8944 250.747 42.3677 252.155 40.8526 253.577C40.8395 253.512 40.792 253.414 40.8184 253.387C42.0998 252.037 43.4378 250.75 44.9907 249.71C45.1546 249.6 45.3738 249.573 45.5671 249.508Z" fill="#EEB48B"/>
<path d="M29.884 262.625C29.942 262.626 30 262.627 30.0578 262.628C29.6979 263.031 29.3381 263.433 28.9781 263.835C28.9209 263.786 28.8638 263.737 28.8066 263.688C29.1658 263.333 29.5248 262.979 29.884 262.625Z" fill="#BB6229"/>
<path d="M171.344 29.7861C170.628 29.172 169.75 28.873 168.897 28.5246C168.631 28.4157 168.174 28.4324 168.29 27.999C168.387 27.6375 168.805 27.592 169.136 27.6343C169.72 27.7091 170.286 27.9165 170.887 27.871C172.069 28.522 173.381 28.826 174.638 29.2763C175.136 29.5636 175.649 29.8074 176.43 29.8935C175.884 29.5104 175.496 29.2383 175.107 28.966C174.593 28.8522 174.243 28.3616 173.687 28.3429C173.381 28.1781 173.074 28.0135 172.768 27.8488C172.595 27.5024 172.233 27.3924 171.807 27.1092C172.501 27.1186 171.725 26.2725 172.46 26.3056C172.648 26.4152 172.846 26.4857 173.068 26.4597C173.91 26.8124 174.753 27.165 175.595 27.5177C177.346 28.3107 179.051 29.1869 180.578 30.3712C180.327 30.5722 180.034 30.7389 179.831 30.9806C179.234 31.6886 179.428 32.633 180.176 33.1857C181.04 33.8234 182.102 34.1852 182.789 35.0655C182.714 35.4103 182.329 35.595 182.32 35.9739C182.309 36.0599 182.298 36.146 182.286 36.2319C178.752 33.8904 175.129 31.7014 171.344 29.7861Z" fill="#F8F7F6"/>
<path d="M170.271 30.9741C169.864 30.4164 169.079 30.4808 168.607 29.9384C168.527 29.6869 168.998 29.5095 168.724 29.2241C169.246 28.9805 169.588 29.2848 169.961 29.4362C174.374 31.7528 178.194 34.9511 182.294 37.7323C182.239 37.85 182.184 37.9676 182.129 38.0853C180.086 36.846 178.177 35.3931 176.063 34.2662C175.27 33.7118 174.47 33.1696 173.538 32.8656L173.548 32.8739C173.226 32.3342 172.56 32.3167 172.131 31.94C171.598 31.4503 170.895 31.2882 170.271 30.9741Z" fill="#FAF9F9"/>
<path d="M182.791 35.0693C182.103 34.189 181.041 33.8272 180.178 33.1895C179.429 32.6368 179.236 31.6926 179.832 30.9844C180.036 30.7428 180.328 30.576 180.58 30.375C180.854 30.4544 181.06 30.6385 181.265 30.8228C181.175 30.8494 181.085 30.8761 180.862 30.9417C181.679 31.3247 182.184 31.9041 182.729 32.4378C183.095 32.7967 183.509 33.0449 184.038 33.0504C183.757 33.807 183.311 34.4608 182.791 35.0693Z" fill="#E8E5E1"/>
<path d="M184.038 33.0479C183.508 33.0424 183.094 32.7941 182.728 32.4354C182.184 31.9016 181.678 31.3222 180.861 30.9393C181.084 30.8736 181.175 30.8469 181.265 30.8203C182.364 31.3259 183.287 32.1131 184.317 32.7303C184.224 32.8361 184.131 32.9419 184.038 33.0479Z" fill="#D0CDCB"/>
<path d="M176.064 34.2656C178.178 35.3925 180.087 36.8454 182.13 38.0847C182.39 38.2828 182.651 38.481 182.911 38.6792C182.499 38.898 182.353 38.4435 182.068 38.3383C181.721 38.2102 181.495 37.7894 181.039 37.9148C180.99 37.9051 180.942 37.8898 180.896 37.8691C179.769 36.848 178.42 36.1545 177.157 35.3352C176.889 35.1558 176.621 34.9763 176.353 34.7967C176.164 34.7239 175.949 34.6854 175.879 34.4499C175.94 34.3885 176.002 34.3271 176.064 34.2656Z" fill="#4C4E4F"/>
<path d="M180.125 40.9799C179.853 40.8259 179.581 40.672 179.309 40.5182C179.791 39.6882 180.273 38.8582 180.755 38.0281C180.794 38.0299 180.83 38.0205 180.863 38C181.322 38.5128 181.117 39.0503 180.766 39.4447C180.357 39.9048 180.18 40.402 180.125 40.9799Z" fill="#9D958F"/>
<path d="M180.862 37.9948C180.829 38.0152 180.793 38.0246 180.755 38.0227C179.254 37.526 178.14 36.5149 177.156 35.3281C178.42 36.1474 179.768 36.8409 180.895 37.8621C180.879 37.9052 180.868 37.9493 180.862 37.9948Z" fill="#C9C8C7"/>
<path d="M166.368 35.9872C165.715 35.6638 165.529 35.039 165.341 34.4096C165.27 34.1736 165.412 34.1506 165.574 34.125C165.941 34.2296 166.309 34.334 166.677 34.4385C168.455 35.5547 170.455 36.2222 172.192 37.4831C173.995 38.7923 176.048 39.7799 177.951 40.9775C178.228 41.1518 178.526 41.3243 178.702 41.6257C178.433 41.6327 178.164 41.6399 177.895 41.6469C175.754 40.2584 173.54 39.0048 171.207 37.9664C169.736 37.2505 168.231 36.6236 166.667 36.1397C166.567 36.0889 166.468 36.0381 166.368 35.9872Z" fill="#F6F6F5"/>
<path d="M172.76 40.5357C172.168 39.9873 171.401 39.699 170.752 39.2267C170.93 38.9666 171.096 39.3178 171.275 39.1737C171.186 39.0582 171.096 38.9416 171.006 38.825C171.338 38.7811 171.571 39.0587 171.879 39.096C172.628 39.3252 173.23 39.8285 173.873 40.2355C175.76 41.4301 177.698 42.562 179.328 44.1217C178.694 44.0043 178.307 43.4638 177.754 43.2073C177.039 42.426 175.921 42.4466 175.097 41.878C175.038 41.8374 174.903 41.9077 174.803 41.9265L174.799 41.9233C174.396 41.3918 173.824 41.1031 173.237 40.8358C173.078 40.7356 172.919 40.6357 172.76 40.5357Z" fill="#827C79"/>
<path d="M171.881 39.103C171.574 39.0656 171.341 38.788 171.008 38.832C170.3 38.4975 169.578 38.1874 168.891 37.8144C168.67 37.6944 168.495 37.6331 168.267 37.7111C168.401 37.3046 168.04 37.2378 167.822 37.1119C167.314 36.8193 166.785 36.5639 166.127 36.2214C166.421 36.1777 166.545 36.1591 166.669 36.1406C168.233 36.6244 169.739 37.2514 171.209 37.9673C171.178 38.1817 170.964 38.1832 170.807 38.2671C171.092 38.6769 171.702 38.6153 171.881 39.103Z" fill="#7F766C"/>
<path d="M177.895 41.6463C178.164 41.6392 178.433 41.632 178.702 41.625C178.806 41.6772 178.911 41.7294 179.016 41.7815C179.67 42.3284 180.475 42.676 181.055 43.3202C180.754 43.5694 180.864 43.7637 181.121 43.9675C181.347 44.1464 181.713 44.2271 181.653 44.6369C180.95 44.3246 180.468 43.7207 179.868 43.2729C179.185 42.7643 178.55 42.1914 177.895 41.6463Z" fill="#C4C0BC"/>
<path d="M187.441 26.5243C187.494 26.4121 187.546 26.2999 187.599 26.1875C189.804 27.7083 191.899 29.3674 193.913 31.1316C193.742 31.1994 193.61 31.535 193.382 31.2074C193.252 31.0208 193.092 31.0595 192.925 31.148C191.835 30.0508 190.766 28.9315 189.482 28.0492C188.875 27.4426 188.127 27.0251 187.441 26.5243Z" fill="#E2DEDC"/>
<path d="M196.506 29.5833C196.509 29.9214 196.521 30.2596 196.512 30.5972C196.504 30.8596 196.469 31.1477 196.192 31.2545C195.92 31.3586 195.781 31.0947 195.615 30.9425C194.776 30.1718 194.034 29.3023 193.133 28.5911C192.838 28.3581 192.592 28.2302 192.238 28.3374C191.995 28.1499 191.752 27.9625 191.509 27.7748C191.456 27.4768 191.43 27.1689 191.197 26.9379C191.362 26.9312 191.488 27.0054 191.617 27.1056C193.101 28.2629 194.522 29.5152 196.304 30.2329C196.436 30.0314 196.278 29.7469 196.506 29.5833Z" fill="#9C9593"/>
<path d="M191.199 26.9402C191.431 27.1711 191.458 27.479 191.511 27.7769C190.415 27.0828 189.32 26.3883 188.225 25.6941C188.441 25.5881 188.449 25.2741 188.709 25.2109C189.539 25.7874 190.369 26.3638 191.199 26.9402Z" fill="#B3AAA7"/>
<path d="M194.792 26.8096C195.502 27.3396 196.096 27.9883 196.681 28.6472C196.626 28.9075 196.572 29.1677 196.517 29.428C196.266 29.4838 196.021 29.5593 195.826 29.2848C195.375 28.6508 194.725 28.2803 194 28.0847C193.475 27.9433 193.147 27.4692 192.713 27.3249C191.965 27.076 191.333 26.6804 190.747 26.2121C189.883 25.5211 189.63 24.5001 189.468 23.4587C189.744 23.0861 189.206 23.0342 189.191 22.6094C190.544 23.4898 191.815 24.3121 192.926 25.3657C193.512 25.9797 194.098 26.5938 194.791 27.3209C194.792 27.0119 194.792 26.9108 194.792 26.8096Z" fill="#7E7671"/>
<path d="M189.47 23.4609C189.632 24.5024 189.885 25.5235 190.749 26.2143C191.335 26.6826 191.967 27.0782 192.715 27.3272C193.149 27.4714 193.477 27.9455 194.002 28.0869C194.727 28.2825 195.377 28.6529 195.828 29.287C196.023 29.5615 196.268 29.486 196.519 29.4302C196.515 29.4822 196.512 29.5343 196.508 29.5865C196.28 29.7503 196.438 30.0346 196.306 30.2361C194.524 29.5183 193.103 28.2659 191.619 27.1088C191.491 27.0086 191.365 26.9344 191.199 26.9411C190.369 26.3648 189.539 25.7884 188.709 25.212C189.248 24.7523 189.136 24.0094 189.47 23.4609Z" fill="#8A827E"/>
<path d="M186.379 29.2752C186.303 29.6333 186.051 29.8966 185.88 30.2034C185.641 30.3326 185.708 30.8624 185.241 30.6931C184.626 30.3721 184.012 30.0509 183.398 29.7299C183.205 29.6064 183.019 29.472 182.819 29.361C180.143 27.8715 177.465 26.3852 174.787 24.8982C174.997 24.7958 175.186 24.7012 175.442 24.8395C177.168 25.7736 179.059 26.3652 180.747 27.3852C181.039 27.5618 181.377 27.7303 181.842 27.602C181.761 26.3958 181.617 25.1525 182.763 24.3047C183.598 24.8761 184.433 25.4476 185.267 26.019C185.119 26.2594 184.976 26.2759 184.696 26.1442C183.993 25.8144 183.167 26.3968 183.1 27.3367C184.148 27.1925 184.966 27.6181 185.563 28.4596C185.791 28.781 186.037 29.0732 186.379 29.2752Z" fill="#EDEBE9"/>
<path d="M185.265 26.0229C184.43 25.4515 183.595 24.88 182.76 24.3086C180.858 22.93 178.766 21.8863 176.678 20.8359C177.829 20.893 178.805 21.461 179.757 22.0016C182.341 23.4693 184.882 25.0129 187.44 26.5264C188.126 27.0271 188.874 27.4448 189.481 28.0514C189.37 28.2774 189.26 28.5034 189.149 28.7294C187.857 27.8224 186.644 26.8041 185.265 26.0229Z" fill="#302E2D"/>
<path d="M185.24 30.7006C185.707 30.8699 185.64 30.3402 185.879 30.2109C187.087 31.2041 188.292 32.2 189.503 33.1888C189.903 33.5148 190.297 33.8427 190.593 34.2716C190.281 34.3016 190.349 34.429 190.504 34.5941C190.666 34.7671 190.938 34.9054 190.739 35.2174C189.266 33.7988 187.695 32.5006 186.065 31.2667C185.704 30.9937 185.462 31.024 185.145 31.2197C185.299 31.0693 185.255 30.8824 185.24 30.7006Z" fill="#CBC6C3"/>
<path d="M173.069 26.4523C172.847 26.4783 172.649 26.4078 172.461 26.2982C172.294 26.077 172.024 26.0495 171.798 25.9378C171.411 25.7468 171.143 25.3838 171.248 24.9912C171.375 24.5123 171.236 24.0883 171.203 23.6406L171.201 23.6416C171.613 23.7769 172.063 23.793 172.437 24.045C173.409 24.5745 174.395 25.0803 175.35 25.6378C178.432 27.4357 181.244 29.6538 184.338 31.4356C184.468 31.5108 184.61 31.5843 184.622 31.766C184.495 31.8711 184.475 32.0155 184.474 32.1666C181.814 30.6479 179.311 28.8493 176.465 27.6628C176.228 27.5642 175.987 27.4754 175.749 27.382C174.898 26.9501 174.056 26.4923 173.069 26.4523Z" fill="#F7F7F7"/>
<path d="M173.068 26.4609C174.055 26.5008 174.897 26.9588 175.747 27.3906C175.697 27.4334 175.645 27.4761 175.594 27.5189C174.752 27.1663 173.911 26.8137 173.068 26.4609Z" fill="#686865"/>
<path d="M174.805 41.9281C174.904 41.9093 175.04 41.839 175.099 41.8796C175.922 42.4484 177.041 42.4276 177.755 43.209C177.522 43.1816 177.298 43.1674 177.298 43.5026C176.466 42.9779 175.636 42.4531 174.805 41.9281Z" fill="#948F8F"/>
<path d="M184.62 31.7676C184.609 31.586 184.466 31.5124 184.336 31.4372C181.242 29.6554 178.43 27.4373 175.348 25.6394C174.393 25.0819 173.407 24.5761 172.436 24.0469C172.598 24.0617 172.76 24.0761 172.921 24.0906C173.542 24.3599 174.163 24.6292 174.784 24.8986C177.462 26.3856 180.14 27.8719 182.816 29.3614C183.016 29.4724 183.202 29.6068 183.395 29.7303C183.293 29.9592 182.933 29.9266 182.865 30.2099C183.507 30.5887 184.128 30.9383 184.73 31.3192C184.943 31.4546 185.047 31.4131 185.143 31.2128C185.46 31.0171 185.702 30.9868 186.063 31.2598C187.693 32.4935 189.265 33.7919 190.737 35.2104C191.36 35.8882 191.983 36.5659 192.606 37.2436C191.945 37.0382 191.614 36.4382 191.153 36.001C190.611 35.4865 190.13 34.9077 189.508 34.4003C189.628 34.7486 189.53 34.9747 189.339 35.1786C188.124 34.27 186.913 33.3561 185.692 32.4564C185.351 32.2051 184.978 31.9961 184.62 31.7676Z" fill="#38312D"/>
<path d="M179.015 41.7811C178.91 41.7289 178.806 41.6767 178.701 41.6246C178.525 41.3233 178.227 41.1507 177.95 40.9765C176.048 39.7789 173.995 38.7914 172.191 37.4821C170.454 36.2212 168.454 35.5536 166.676 34.4375C166.826 34.4461 166.977 34.4547 167.127 34.4633C167.232 34.6668 167.425 34.5727 167.583 34.5996C167.952 34.7545 168.322 34.9095 168.691 35.0644C170.813 36.2148 172.936 37.3652 175.058 38.5157C176.26 39.2473 177.462 39.9788 178.664 40.7104C178.976 41.0334 179.238 41.4077 179.634 41.642C179.47 41.8739 179.188 41.5848 179.015 41.7811Z" fill="#373532"/>
<path d="M178.666 40.7089C177.464 39.9773 176.262 39.2458 175.06 38.5142C175.168 38.4762 175.455 38.5134 175.164 38.2974C174.983 38.163 174.733 38.1161 174.641 37.8724C174.926 37.8444 175.132 38.159 175.488 38.0493C175.422 37.079 175.67 36.1915 176.347 35.454C176.545 35.2384 176.295 35.0154 176.354 34.7969C176.622 34.9763 176.89 35.1559 177.158 35.3353C178.141 36.5221 179.256 37.5332 180.756 38.0299C180.274 38.8599 179.792 39.69 179.31 40.52C179.123 40.677 178.896 40.6985 178.666 40.7089Z" fill="#EDEBE8"/>
<path d="M194.793 26.8114C194.793 26.9125 194.793 27.0138 194.793 27.3223C194.099 26.5952 193.513 25.9813 192.928 25.3672C193.662 25.7037 194.212 26.277 194.793 26.8114Z" fill="#575553"/>
<path d="M174.784 24.9088C174.163 24.6395 173.542 24.3702 172.921 24.1009C172.473 23.4669 171.919 23.2426 171.199 23.6534L171.201 23.6525C171.096 23.5485 170.991 23.4444 170.887 23.3405C171.309 22.3483 171.495 22.2412 172.497 22.5062C173.061 22.6553 173.613 22.8522 174.17 23.0277C174.923 23.3231 175.674 23.6279 176.433 23.9086C176.669 23.9962 176.933 24.0421 177.142 23.8114C177.418 23.948 177.696 24.0552 178.019 23.8705C177.957 23.3227 177.453 23.5002 177.163 23.3433C177.001 23.2283 176.839 23.1134 176.677 22.9983C176.447 22.5499 175.994 22.4266 175.582 22.2439C175.366 21.647 174.874 21.0927 175.299 20.3594C175.451 20.418 175.594 20.4729 175.736 20.5277C176.099 20.4863 176.373 20.7109 176.677 20.8423C178.766 21.8928 180.858 22.9366 182.759 24.315C181.613 25.1628 181.758 26.4062 181.839 27.6123C181.373 27.7406 181.035 27.5722 180.743 27.3955C179.056 26.3755 177.165 25.7839 175.439 24.8499C175.183 24.7119 174.994 24.8064 174.784 24.9088Z" fill="#F8F7F7"/>
<path d="M175.737 20.5236C175.595 20.4688 175.452 20.4139 175.3 20.3553C174.875 21.0887 175.367 21.6429 175.583 22.2398C174.537 21.6457 173.256 21.7339 172.189 21.1829C172.537 20.3331 173.39 20.2088 173.868 19.6549C174.05 19.4434 174.307 19.2889 174.327 18.963C174.365 18.3223 174.716 18.4255 175.109 18.6469C174.909 19.1266 175.001 19.5152 175.4 19.8736C175.57 20.0257 175.628 20.3031 175.737 20.5236Z" fill="#EBEAE8"/>
<path d="M181.367 10.5247C181.419 10.4304 181.471 10.3362 181.522 10.2423C182.717 8.90089 183.599 7.33695 184.617 5.87008C185.327 4.84709 185.987 3.78894 186.654 2.73689C186.849 2.42913 187.06 2.19406 187.457 2.24017C189.64 2.494 191.57 3.38335 193.524 4.59701C191.414 7.78178 189.356 10.8873 187.248 14.0691C185.259 12.963 183.319 11.7188 181.096 10.9592C181.207 10.781 181.287 10.6529 181.367 10.5247Z" fill="#71706F"/>
<path d="M170.887 23.3359C170.992 23.4399 171.096 23.544 171.201 23.6479C171.234 24.0956 171.374 24.5196 171.246 24.9985C171.141 25.3911 171.41 25.7539 171.796 25.9451C172.023 26.057 172.292 26.0845 172.46 26.3055C171.724 26.2723 172.5 27.1184 171.807 27.109C172.233 27.3922 172.595 27.5021 172.767 27.8486C171.634 27.4424 170.525 26.9546 169.325 26.7555C169.344 26.4721 168.989 26.453 168.93 26.1606C169.568 25.2401 170.227 24.2881 170.887 23.3359Z" fill="#ECEAE7"/>
<path d="M169.326 26.7578C170.525 26.9569 171.634 27.4447 172.768 27.851C173.074 28.0156 173.38 28.1803 173.687 28.3449C172.898 28.5223 172.274 28.0274 171.587 27.8105C170.774 27.5538 169.986 27.2197 169.187 26.9174C169.171 26.9113 169.162 26.8855 169.15 26.8689C169.209 26.8319 169.267 26.7949 169.326 26.7578Z" fill="#A09E99"/>
<path d="M177.144 23.8019C176.935 24.0326 176.671 23.9867 176.435 23.8991C175.676 23.6184 174.925 23.3136 174.172 23.0182C175.241 22.9828 176.213 23.3118 177.144 23.8019Z" fill="#ECEAE7"/>
<path d="M176.677 23.0002C176.839 23.1152 177.001 23.2301 177.163 23.3451C175.94 23.1068 174.874 22.4261 173.68 22.1066C173.738 22.0528 173.795 21.9991 173.853 21.9453C174.841 22.1738 175.754 22.6001 176.677 23.0002Z" fill="#A2A09C"/>
<path d="M175.108 28.9609C175.496 29.2332 175.885 29.5053 176.431 29.8884C175.65 29.8025 175.137 29.5585 174.639 29.2712C174.863 29.2706 175.093 29.2778 175.108 28.9609Z" fill="#ECEAE7"/>
<path d="M174.641 37.8646C174.734 38.1084 174.983 38.1553 175.164 38.2896C175.456 38.5054 175.169 38.4684 175.06 38.5064C172.938 37.356 170.816 36.2056 168.693 35.0551C168.749 34.9482 168.804 34.8413 168.86 34.7344C170.324 35.2769 171.742 35.9341 173.039 36.7911C173.572 37.1433 174.09 37.5303 174.641 37.8646Z" fill="#DCD9D3"/>
<path d="M170.271 30.9704C170.895 31.2845 171.598 31.4468 172.131 31.9361C172.02 31.9477 171.9 31.9418 171.843 32.0705C171.415 31.9375 170.958 31.886 170.582 31.6124C170.251 31.0807 169.546 31.1898 169.105 30.7358C169.556 30.6388 169.882 30.9886 170.271 30.9704Z" fill="#C3C2BE"/>
<path d="M176.062 34.26C176.001 34.3214 175.939 34.3828 175.878 34.4443C175.148 33.8409 174.221 33.5297 173.537 32.8594C174.469 33.1634 175.269 33.7056 176.062 34.26Z" fill="#6D6F70"/>
<path d="M168.857 34.7474C168.801 34.8544 168.746 34.9613 168.69 35.0682C168.321 34.9133 167.952 34.7582 167.582 34.6033C167.716 34.5927 167.845 34.573 167.918 34.4375C168.262 34.4477 168.583 34.5257 168.857 34.7474Z" fill="#E7E7E6"/>
<path d="M171.844 32.0719C171.901 31.9431 172.021 31.9491 172.132 31.9375C172.562 32.3142 173.228 32.3318 173.55 32.8716C172.902 32.7732 172.422 32.3173 171.844 32.0719Z" fill="#8C8C8A"/>
<path d="M173.238 40.8359C173.825 41.1032 174.397 41.3917 174.8 41.9235C174.194 41.6842 173.633 41.3797 173.238 40.8359Z" fill="#948F8F"/>
<path d="M166.666 36.1371C166.542 36.1557 166.417 36.1741 166.124 36.2179C166.782 36.5603 167.311 36.8159 167.818 37.1083C168.037 37.2343 168.397 37.301 168.264 37.7076C167.393 37.2663 166.455 36.9358 165.691 36.3498C165.883 35.9015 166.157 36.033 166.367 35.9844C166.467 36.0353 166.567 36.0861 166.666 36.1371Z" fill="#E7E7E6"/>
<path d="M167.129 34.4609C166.978 34.4523 166.828 34.4437 166.677 34.4351C166.31 34.3306 165.942 34.2261 165.574 34.1216C166.231 33.5995 166.694 33.9654 167.129 34.4609Z" fill="#E7E7E6"/>
<path d="M185.145 31.2169C185.049 31.4173 184.946 31.4587 184.732 31.3233C184.13 30.9424 183.509 30.5926 182.867 30.2141C182.936 29.9307 183.295 29.9634 183.397 29.7344C184.011 30.0554 184.626 30.3766 185.24 30.6977C185.256 30.8794 185.3 31.0664 185.145 31.2169Z" fill="#26211C"/>
<path d="M171.201 23.6452C171.921 23.2344 172.475 23.4585 172.923 24.0927C172.761 24.0781 172.6 24.0637 172.437 24.0489C172.063 23.7966 171.613 23.7805 171.201 23.6452Z" fill="#ECEAE7"/>
</svg>
