<svg width="287" height="244" viewBox="0 0 287 244" fill="none" xmlns="http://www.w3.org/2000/svg">
<path d="M155.876 47.5859L282.129 188.058C282.129 188.058 131.903 241.553 130.255 242.141L3.9668 101.68L155.876 47.5859Z" fill="#3091D3"/>
<path d="M131.469 239.829C131.469 239.829 133.774 230.791 134.964 215.572C136.156 200.352 135.195 192.477 135.195 192.477L282.498 140.023C280.849 140.61 274.15 151.213 272.959 166.433C271.768 181.653 278.974 187.304 278.147 187.598L131.469 239.829Z" fill="url(#paint0_linear_4350_26437)"/>
<path d="M277.481 147.906L135.434 198.489C135.434 198.524 135.435 198.563 135.436 198.599L277.423 148.036C277.443 147.994 277.462 147.95 277.481 147.906Z" fill="#D7D7D7"/>
<path d="M277.481 147.906L135.434 198.489C135.434 198.524 135.435 198.563 135.436 198.599L277.423 148.036C277.443 147.994 277.462 147.95 277.481 147.906Z" fill="#D7D7D7"/>
<path d="M277.155 148.672L135.447 199.134C135.449 199.171 135.449 199.207 135.45 199.243L277.099 148.804C277.117 148.758 277.136 148.717 277.155 148.672Z" fill="#D7D7D7"/>
<path d="M277.155 148.672L135.447 199.134C135.449 199.171 135.449 199.207 135.45 199.243L277.099 148.804C277.117 148.758 277.136 148.717 277.155 148.672Z" fill="#D7D7D7"/>
<path d="M276.633 149.961L135.463 200.232C135.463 200.268 135.463 200.305 135.464 200.342L276.585 150.089C276.601 150.046 276.617 150.003 276.633 149.961Z" fill="#D7D7D7"/>
<path d="M276.633 149.961L135.463 200.232C135.463 200.268 135.463 200.305 135.464 200.342L276.585 150.089C276.601 150.046 276.617 150.003 276.633 149.961Z" fill="#D7D7D7"/>
<path d="M276.181 151.172L135.469 201.278C135.469 201.315 135.469 201.352 135.469 201.388L276.136 151.298C276.15 151.255 276.167 151.213 276.181 151.172Z" fill="#D7D7D7"/>
<path d="M276.181 151.172L135.469 201.278C135.469 201.315 135.469 201.352 135.469 201.388L276.136 151.298C276.15 151.255 276.167 151.213 276.181 151.172Z" fill="#D7D7D7"/>
<path d="M275.858 152.086L135.468 202.077C135.468 202.115 135.468 202.152 135.467 202.189L275.816 152.212C275.829 152.17 275.844 152.128 275.858 152.086Z" fill="#D7D7D7"/>
<path d="M275.858 152.086L135.468 202.077C135.468 202.115 135.468 202.152 135.467 202.189L275.816 152.212C275.829 152.17 275.844 152.128 275.858 152.086Z" fill="#D7D7D7"/>
<path d="M275.508 153.148L135.462 203.017C135.462 203.054 135.461 203.092 135.461 203.128L275.468 153.272C275.48 153.23 275.494 153.188 275.508 153.148Z" fill="#D7D7D7"/>
<path d="M275.508 153.148L135.462 203.017C135.462 203.054 135.461 203.092 135.461 203.128L275.468 153.272C275.48 153.23 275.494 153.188 275.508 153.148Z" fill="#D7D7D7"/>
<path d="M275.213 154.094L135.451 203.862C135.45 203.899 135.45 203.936 135.449 203.974L275.176 154.217C275.188 154.176 275.201 154.134 275.213 154.094Z" fill="#D7D7D7"/>
<path d="M275.213 154.094L135.451 203.862C135.45 203.899 135.45 203.936 135.449 203.974L275.176 154.217C275.188 154.176 275.201 154.134 275.213 154.094Z" fill="#D7D7D7"/>
<path d="M274.819 155.469L135.426 205.106C135.425 205.143 135.425 205.18 135.424 205.218L274.786 155.592C274.798 155.551 274.808 155.51 274.819 155.469Z" fill="#D7D7D7"/>
<path d="M274.819 155.469L135.426 205.106C135.425 205.143 135.425 205.18 135.424 205.218L274.786 155.592C274.798 155.551 274.808 155.51 274.819 155.469Z" fill="#D7D7D7"/>
<path d="M274.606 156.266L135.41 205.832C135.409 205.869 135.407 205.908 135.406 205.944L274.575 156.387C274.585 156.347 274.595 156.306 274.606 156.266Z" fill="#D7D7D7"/>
<path d="M274.606 156.266L135.41 205.832C135.409 205.869 135.407 205.908 135.406 205.944L274.575 156.387C274.585 156.347 274.595 156.306 274.606 156.266Z" fill="#D7D7D7"/>
<path d="M274.277 157.586L135.371 207.051C135.37 207.087 135.368 207.126 135.367 207.163L274.251 157.707C274.26 157.667 274.269 157.626 274.277 157.586Z" fill="#D7D7D7"/>
<path d="M274.277 157.586L135.371 207.051C135.37 207.087 135.368 207.126 135.367 207.163L274.251 157.707C274.26 157.667 274.269 157.626 274.277 157.586Z" fill="#D7D7D7"/>
<path d="M274.101 158.367L135.345 207.778C135.344 207.815 135.343 207.852 135.342 207.89L274.075 158.488C274.082 158.447 274.092 158.408 274.101 158.367Z" fill="#D7D7D7"/>
<path d="M274.101 158.367L135.345 207.778C135.344 207.815 135.343 207.852 135.342 207.89L274.075 158.488C274.082 158.447 274.092 158.408 274.101 158.367Z" fill="#D7D7D7"/>
<path d="M273.852 159.539L135.298 208.879C135.296 208.916 135.295 208.954 135.293 208.992L273.828 159.659C273.836 159.619 273.844 159.58 273.852 159.539Z" fill="#D7D7D7"/>
<path d="M273.852 159.539L135.298 208.879C135.296 208.916 135.295 208.954 135.293 208.992L273.828 159.659C273.836 159.619 273.844 159.58 273.852 159.539Z" fill="#D7D7D7"/>
<path d="M273.678 160.461L135.257 209.752C135.256 209.789 135.254 209.826 135.252 209.864L273.657 160.579C273.664 160.539 273.671 160.5 273.678 160.461Z" fill="#D7D7D7"/>
<path d="M273.678 160.461L135.257 209.752C135.256 209.789 135.254 209.826 135.252 209.864L273.657 160.579C273.664 160.539 273.671 160.5 273.678 160.461Z" fill="#D7D7D7"/>
<path d="M273.521 161.352L135.216 210.602C135.213 210.638 135.212 210.678 135.209 210.715L273.502 161.469C273.509 161.43 273.515 161.391 273.521 161.352Z" fill="#D7D7D7"/>
<path d="M273.521 161.352L135.216 210.602C135.213 210.638 135.212 210.678 135.209 210.715L273.502 161.469C273.509 161.43 273.515 161.391 273.521 161.352Z" fill="#D7D7D7"/>
<path d="M273.369 162.289L135.164 211.502C135.162 211.541 135.161 211.578 135.158 211.616L273.35 162.405C273.356 162.366 273.364 162.328 273.369 162.289Z" fill="#D7D7D7"/>
<path d="M273.369 162.289L135.164 211.502C135.162 211.541 135.161 211.578 135.158 211.616L273.35 162.405C273.356 162.366 273.364 162.328 273.369 162.289Z" fill="#D7D7D7"/>
<path d="M273.214 163.375L135.099 212.557C135.097 212.596 135.095 212.633 135.092 212.67L273.199 163.491C273.204 163.452 273.209 163.414 273.214 163.375Z" fill="#D7D7D7"/>
<path d="M273.214 163.375L135.099 212.557C135.097 212.596 135.095 212.633 135.092 212.67L273.199 163.491C273.204 163.452 273.209 163.414 273.214 163.375Z" fill="#D7D7D7"/>
<path d="M273.103 164.258L135.043 213.422C135.041 213.459 135.038 213.497 135.035 213.535L273.09 164.374C273.095 164.335 273.1 164.297 273.103 164.258Z" fill="#D7D7D7"/>
<path d="M273.103 164.258L135.043 213.422C135.041 213.459 135.038 213.497 135.035 213.535L273.09 164.374C273.095 164.335 273.1 164.297 273.103 164.258Z" fill="#D7D7D7"/>
<path d="M272.97 165.477L134.959 214.621C134.955 214.66 134.953 214.698 134.949 214.736L272.96 165.591C272.965 165.552 272.967 165.514 272.97 165.477Z" fill="#D7D7D7"/>
<path d="M272.97 165.477L134.959 214.621C134.955 214.66 134.953 214.698 134.949 214.736L272.96 165.591C272.965 165.552 272.967 165.514 272.97 165.477Z" fill="#D7D7D7"/>
<path d="M272.887 166.43L134.89 215.57C134.887 215.608 134.885 215.646 134.881 215.684L272.878 166.544C272.881 166.507 272.884 166.468 272.887 166.43Z" fill="#D7D7D7"/>
<path d="M272.887 166.43L134.89 215.57C134.887 215.608 134.885 215.646 134.881 215.684L272.878 166.544C272.881 166.507 272.884 166.468 272.887 166.43Z" fill="#D7D7D7"/>
<path d="M272.813 167.5L134.802 216.645C134.799 216.685 134.796 216.722 134.793 216.76L272.805 167.614C272.808 167.577 272.811 167.538 272.813 167.5Z" fill="#D7D7D7"/>
<path d="M272.813 167.5L134.802 216.645C134.799 216.685 134.796 216.722 134.793 216.76L272.805 167.614C272.808 167.577 272.811 167.538 272.813 167.5Z" fill="#D7D7D7"/>
<path d="M272.767 168.484L134.719 217.643C134.716 217.682 134.711 217.719 134.709 217.756L272.764 168.597C272.765 168.559 272.766 168.522 272.767 168.484Z" fill="#D7D7D7"/>
<path d="M272.767 168.484L134.719 217.643C134.716 217.682 134.711 217.719 134.709 217.756L272.764 168.597C272.765 168.559 272.766 168.522 272.767 168.484Z" fill="#D7D7D7"/>
<path d="M272.744 169.156L134.656 218.33C134.653 218.367 134.65 218.406 134.646 218.444L272.74 169.269C272.742 169.233 272.743 169.194 272.744 169.156Z" fill="#D7D7D7"/>
<path d="M272.744 169.156L134.656 218.33C134.653 218.367 134.65 218.406 134.646 218.444L272.74 169.269C272.742 169.233 272.743 169.194 272.744 169.156Z" fill="#D7D7D7"/>
<path d="M272.74 169.992L134.579 219.192C134.575 219.23 134.572 219.269 134.568 219.307L272.74 170.104C272.74 170.067 272.741 170.03 272.74 169.992Z" fill="#D7D7D7"/>
<path d="M272.74 169.992L134.579 219.192C134.575 219.23 134.572 219.269 134.568 219.307L272.74 170.104C272.74 170.067 272.741 170.03 272.74 169.992Z" fill="#D7D7D7"/>
<path d="M272.763 171.297L134.445 220.552C134.441 220.59 134.437 220.629 134.434 220.666L272.766 171.407C272.765 171.371 272.764 171.334 272.763 171.297Z" fill="#D7D7D7"/>
<path d="M272.763 171.297L134.445 220.552C134.441 220.59 134.437 220.629 134.434 220.666L272.766 171.407C272.765 171.371 272.764 171.334 272.763 171.297Z" fill="#D7D7D7"/>
<path d="M272.798 172.156L134.352 221.457C134.348 221.496 134.344 221.534 134.34 221.572L272.808 172.265C272.805 172.228 272.802 172.191 272.798 172.156Z" fill="#D7D7D7"/>
<path d="M272.798 172.156L134.352 221.457C134.348 221.496 134.344 221.534 134.34 221.572L272.808 172.265C272.805 172.228 272.802 172.191 272.798 172.156Z" fill="#D7D7D7"/>
<path d="M272.86 173.047L134.251 222.406C134.247 222.443 134.242 222.482 134.238 222.52L272.869 173.154C272.866 173.118 272.863 173.084 272.86 173.047Z" fill="#D7D7D7"/>
<path d="M272.86 173.047L134.251 222.406C134.247 222.443 134.242 222.482 134.238 222.52L272.869 173.154C272.866 173.118 272.863 173.084 272.86 173.047Z" fill="#D7D7D7"/>
<path d="M272.951 173.984L134.137 223.415C134.132 223.455 134.128 223.492 134.123 223.531L272.963 174.091C272.958 174.056 272.955 174.02 272.951 173.984Z" fill="#D7D7D7"/>
<path d="M272.951 173.984L134.137 223.415C134.132 223.455 134.128 223.492 134.123 223.531L272.963 174.091C272.958 174.056 272.955 174.02 272.951 173.984Z" fill="#D7D7D7"/>
<path d="M273.064 174.883L134.02 224.396C134.015 224.435 134.011 224.473 134.006 224.511L273.078 174.988C273.073 174.954 273.069 174.918 273.064 174.883Z" fill="#D7D7D7"/>
<path d="M273.064 174.883L134.02 224.396C134.015 224.435 134.011 224.473 134.006 224.511L273.078 174.988C273.073 174.954 273.069 174.918 273.064 174.883Z" fill="#D7D7D7"/>
<path d="M273.189 175.703L133.911 225.301C133.906 225.34 133.902 225.378 133.896 225.417L273.207 175.808C273.201 175.774 273.195 175.739 273.189 175.703Z" fill="#D7D7D7"/>
<path d="M273.189 175.703L133.911 225.301C133.906 225.34 133.902 225.378 133.896 225.417L273.207 175.808C273.201 175.774 273.195 175.739 273.189 175.703Z" fill="#D7D7D7"/>
<path d="M273.316 176.445L133.806 226.124C133.801 226.163 133.796 226.202 133.791 226.24L273.337 176.548C273.331 176.513 273.324 176.48 273.316 176.445Z" fill="#D7D7D7"/>
<path d="M273.316 176.445L133.806 226.124C133.801 226.163 133.796 226.202 133.791 226.24L273.337 176.548C273.331 176.513 273.324 176.48 273.316 176.445Z" fill="#D7D7D7"/>
<path d="M273.484 177.258L133.687 227.039C133.682 227.079 133.677 227.116 133.672 227.155L273.505 177.361C273.499 177.326 273.491 177.292 273.484 177.258Z" fill="#D7D7D7"/>
<path d="M273.484 177.258L133.687 227.039C133.682 227.079 133.677 227.116 133.672 227.155L273.505 177.361C273.499 177.326 273.491 177.292 273.484 177.258Z" fill="#D7D7D7"/>
<path d="M273.751 178.383L133.509 228.322C133.504 228.362 133.499 228.4 133.492 228.439L273.777 178.483C273.769 178.45 273.759 178.417 273.751 178.383Z" fill="#D7D7D7"/>
<path d="M273.751 178.383L133.509 228.322C133.504 228.362 133.499 228.4 133.492 228.439L273.777 178.483C273.769 178.45 273.759 178.417 273.751 178.383Z" fill="#D7D7D7"/>
<path d="M273.915 178.984L133.411 229.016C133.406 229.055 133.401 229.094 133.395 229.133L273.943 179.085C273.933 179.052 273.924 179.016 273.915 178.984Z" fill="#D7D7D7"/>
<path d="M273.915 178.984L133.411 229.016C133.406 229.055 133.401 229.094 133.395 229.133L273.943 179.085C273.933 179.052 273.924 179.016 273.915 178.984Z" fill="#D7D7D7"/>
<path d="M274.262 180.109L133.213 230.337C133.207 230.376 133.201 230.415 133.195 230.454L274.295 180.208C274.283 180.175 274.272 180.144 274.262 180.109Z" fill="#D7D7D7"/>
<path d="M274.262 180.109L133.213 230.337C133.207 230.376 133.201 230.415 133.195 230.454L274.295 180.208C274.283 180.175 274.272 180.144 274.262 180.109Z" fill="#D7D7D7"/>
<path d="M274.522 180.852L133.076 231.22C133.069 231.26 133.063 231.297 133.057 231.337L274.558 180.949C274.547 180.915 274.534 180.884 274.522 180.852Z" fill="#D7D7D7"/>
<path d="M274.522 180.852L133.076 231.22C133.069 231.26 133.063 231.297 133.057 231.337L274.558 180.949C274.547 180.915 274.534 180.884 274.522 180.852Z" fill="#D7D7D7"/>
<path d="M274.814 181.625L132.924 232.152C132.917 232.192 132.91 232.23 132.904 232.27L274.854 181.721C274.84 181.69 274.828 181.658 274.814 181.625Z" fill="#D7D7D7"/>
<path d="M274.814 181.625L132.924 232.152C132.917 232.192 132.91 232.23 132.904 232.27L274.854 181.721C274.84 181.69 274.828 181.658 274.814 181.625Z" fill="#D7D7D7"/>
<path d="M132.707 233.437L275.261 182.674C275.247 182.643 275.233 182.61 275.217 182.578L132.728 233.319C132.721 233.358 132.714 233.398 132.707 233.437Z" fill="#D7D7D7"/>
<path d="M132.707 233.437L275.261 182.674C275.247 182.643 275.233 182.61 275.217 182.578L132.728 233.319C132.721 233.358 132.714 233.398 132.707 233.437Z" fill="#D7D7D7"/>
<path d="M132.553 234.322L275.6 183.383C275.584 183.353 275.57 183.32 275.554 183.289L132.573 234.204C132.567 234.244 132.559 234.283 132.553 234.322Z" fill="#D7D7D7"/>
<path d="M132.553 234.322L275.6 183.383C275.584 183.353 275.57 183.32 275.554 183.289L132.573 234.204C132.567 234.244 132.559 234.283 132.553 234.322Z" fill="#D7D7D7"/>
<path d="M132.387 235.229L275.968 184.101C275.951 184.069 275.935 184.04 275.917 184.008L132.409 235.111C132.401 235.152 132.394 235.189 132.387 235.229Z" fill="#D7D7D7"/>
<path d="M132.387 235.229L275.968 184.101C275.951 184.069 275.935 184.04 275.917 184.008L132.409 235.111C132.401 235.152 132.394 235.189 132.387 235.229Z" fill="#D7D7D7"/>
<path d="M132.17 236.374L276.466 184.991C276.449 184.961 276.432 184.929 276.413 184.898L132.193 236.255C132.185 236.294 132.177 236.337 132.17 236.374Z" fill="#D7D7D7"/>
<path d="M132.17 236.374L276.466 184.991C276.449 184.961 276.432 184.929 276.413 184.898L132.193 236.255C132.185 236.294 132.177 236.337 132.17 236.374Z" fill="#D7D7D7"/>
<path d="M131.928 237.562L277.024 185.895C277.005 185.864 276.986 185.836 276.966 185.805L131.953 237.443C131.944 237.485 131.936 237.524 131.928 237.562Z" fill="#D7D7D7"/>
<path d="M131.928 237.562L277.024 185.895C277.005 185.864 276.986 185.836 276.966 185.805L131.953 237.443C131.944 237.485 131.936 237.524 131.928 237.562Z" fill="#D7D7D7"/>
<path d="M131.744 238.437L277.455 186.551C277.435 186.521 277.414 186.491 277.395 186.461L131.771 238.317C131.762 238.357 131.753 238.398 131.744 238.437Z" fill="#D7D7D7"/>
<path d="M131.744 238.437L277.455 186.551C277.435 186.521 277.414 186.491 277.395 186.461L131.771 238.317C131.762 238.357 131.753 238.398 131.744 238.437Z" fill="#D7D7D7"/>
<path d="M131.559 239.268L277.864 187.168C277.845 187.139 277.827 187.11 277.806 187.078L131.587 239.146C131.576 239.189 131.568 239.227 131.559 239.268Z" fill="#D7D7D7"/>
<path d="M131.559 239.268L277.864 187.168C277.845 187.139 277.827 187.11 277.806 187.078L131.587 239.146C131.576 239.189 131.568 239.227 131.559 239.268Z" fill="#D7D7D7"/>
<path d="M135.534 193.953C133.855 194.703 129.862 204.321 128.681 219.398C127.49 234.617 129.872 240.409 130.62 240.142C130.65 240.131 130.919 240.035 131.403 239.863C131.403 239.863 134.111 232.26 135.302 217.04C136.483 201.963 135.551 194.099 135.534 193.953Z" fill="#B4B4B4"/>
<path d="M135.175 195.203C133.499 195.952 129.504 205.571 128.324 220.648C127.132 235.868 129.516 241.658 130.263 241.392C130.293 241.382 130.562 241.285 131.047 241.113C131.047 241.113 133.754 233.51 134.946 218.291C136.125 203.213 135.193 195.349 135.175 195.203Z" fill="#B4B4B4"/>
<path d="M134.439 196.197L135.494 197.374C135.491 197.318 135.487 197.261 135.483 197.206L134.5 196.109C134.481 196.138 134.46 196.166 134.439 196.197Z" fill="#969696"/>
<path d="M133.906 197.082L135.576 198.948C135.574 198.893 135.572 198.837 135.57 198.783L133.959 196.984C133.941 197.015 133.924 197.049 133.906 197.082Z" fill="#969696"/>
<path d="M133.537 197.804L135.621 200.133C135.619 200.079 135.618 200.024 135.616 199.97L133.586 197.703C133.57 197.736 133.554 197.769 133.537 197.804Z" fill="#969696"/>
<path d="M133.141 198.683L135.66 201.497C135.659 201.444 135.658 201.389 135.656 201.337L133.186 198.578C133.171 198.612 133.155 198.647 133.141 198.683Z" fill="#969696"/>
<path d="M132.805 199.491L135.678 202.701C135.677 202.646 135.676 202.595 135.676 202.542L132.848 199.383C132.833 199.418 132.819 199.454 132.805 199.491Z" fill="#969696"/>
<path d="M132.344 200.721L135.684 204.455C135.684 204.402 135.684 204.35 135.684 204.299L132.383 200.609C132.37 200.646 132.357 200.686 132.344 200.721Z" fill="#969696"/>
<path d="M132.09 201.457L135.678 205.468C135.679 205.416 135.68 205.365 135.681 205.313L132.128 201.344C132.115 201.383 132.103 201.42 132.09 201.457Z" fill="#969696"/>
<path d="M131.686 202.717L135.656 207.154C135.657 207.102 135.657 207.051 135.659 207.001L131.721 202.602C131.709 202.639 131.698 202.679 131.686 202.717Z" fill="#969696"/>
<path d="M131.459 203.468L135.633 208.131C135.635 208.081 135.635 208.03 135.638 207.981L131.494 203.352C131.482 203.391 131.47 203.427 131.459 203.468Z" fill="#969696"/>
<path d="M131.127 204.636L135.585 209.618C135.587 209.569 135.589 209.517 135.592 209.467L131.16 204.516C131.15 204.554 131.138 204.596 131.127 204.636Z" fill="#969696"/>
<path d="M130.883 205.575L135.543 210.782C135.545 210.734 135.547 210.682 135.55 210.634L130.913 205.453C130.902 205.494 130.892 205.534 130.883 205.575Z" fill="#969696"/>
<path d="M130.656 206.491L135.496 211.899C135.499 211.85 135.5 211.801 135.502 211.751L130.685 206.367C130.676 206.408 130.666 206.45 130.656 206.491Z" fill="#969696"/>
<path d="M130.422 207.492L135.436 213.095C135.439 213.045 135.441 212.996 135.443 212.947L130.449 207.367C130.44 207.408 130.431 207.45 130.422 207.492Z" fill="#969696"/>
<path d="M130.166 208.659L135.358 214.46C135.361 214.41 135.364 214.362 135.367 214.313L130.193 208.531C130.185 208.573 130.176 208.616 130.166 208.659Z" fill="#969696"/>
<path d="M129.994 209.5C129.985 209.542 129.977 209.587 129.969 209.629L135.289 215.573C135.292 215.524 135.294 215.477 135.297 215.427L129.994 209.5Z" fill="#969696"/>
<path d="M129.713 210.99L135.184 217.104C135.188 217.056 135.192 217.008 135.196 216.959L129.736 210.859C129.729 210.903 129.721 210.945 129.713 210.99Z" fill="#969696"/>
<path d="M129.523 212.07L135.095 218.294C135.099 218.247 135.102 218.2 135.105 218.151L129.545 211.938C129.537 211.981 129.53 212.026 129.523 212.07Z" fill="#969696"/>
<path d="M129.32 213.337L134.982 219.663C134.986 219.615 134.99 219.567 134.994 219.519L129.341 213.203C129.334 213.246 129.327 213.292 129.32 213.337Z" fill="#969696"/>
<path d="M129.146 214.504L134.869 220.897C134.873 220.851 134.878 220.803 134.882 220.755L129.166 214.367C129.16 214.413 129.153 214.457 129.146 214.504Z" fill="#969696"/>
<path d="M129.035 215.323L134.788 221.75C134.793 221.704 134.798 221.657 134.802 221.61L129.054 215.188C129.048 215.233 129.042 215.276 129.035 215.323Z" fill="#969696"/>
<path d="M128.904 216.356L134.678 222.807C134.684 222.76 134.689 222.715 134.693 222.667L128.921 216.219C128.916 216.264 128.91 216.31 128.904 216.356Z" fill="#969696"/>
<path d="M128.717 218.008L134.494 224.461C134.499 224.416 134.504 224.369 134.509 224.322L128.732 217.867C128.728 217.915 128.722 217.961 128.717 218.008Z" fill="#969696"/>
<path d="M128.607 219.108L134.361 225.537C134.367 225.491 134.372 225.446 134.378 225.4L128.621 218.969C128.617 219.014 128.612 219.061 128.607 219.108Z" fill="#969696"/>
<path d="M128.506 220.283L134.216 226.663C134.221 226.618 134.228 226.573 134.234 226.528L128.518 220.141C128.514 220.188 128.51 220.235 128.506 220.283Z" fill="#969696"/>
<path d="M128.408 221.542L134.05 227.847C134.057 227.802 134.063 227.756 134.069 227.712L128.42 221.398C128.416 221.446 128.412 221.495 128.408 221.542Z" fill="#969696"/>
<path d="M128.326 222.779L133.881 228.986C133.888 228.942 133.894 228.897 133.901 228.855L128.334 222.633C128.332 222.683 128.329 222.732 128.326 222.779Z" fill="#969696"/>
<path d="M128.264 223.93L133.72 230.025C133.727 229.981 133.734 229.938 133.741 229.894L128.271 223.781C128.268 223.832 128.267 223.88 128.264 223.93Z" fill="#969696"/>
<path d="M128.215 224.985L133.563 230.962C133.571 230.92 133.578 230.876 133.585 230.831L128.22 224.836C128.218 224.886 128.217 224.934 128.215 224.985Z" fill="#969696"/>
<path d="M128.174 226.176L133.383 231.997C133.39 231.954 133.399 231.909 133.406 231.866L128.177 226.023C128.176 226.077 128.175 226.125 128.174 226.176Z" fill="#969696"/>
<path d="M128.145 227.865L133.118 233.422C133.126 233.379 133.134 233.338 133.143 233.295L128.146 227.711C128.146 227.763 128.146 227.814 128.145 227.865Z" fill="#969696"/>
<path d="M128.141 228.79L132.968 234.181C132.976 234.139 132.985 234.098 132.994 234.055L128.141 228.633C128.141 228.685 128.142 228.737 128.141 228.79Z" fill="#969696"/>
<path d="M128.167 230.585L132.666 235.611C132.674 235.569 132.684 235.529 132.693 235.486L128.162 230.422C128.163 230.479 128.165 230.529 128.167 230.585Z" fill="#969696"/>
<path d="M128.214 231.821L132.454 236.556C132.463 236.516 132.472 236.474 132.482 236.433L128.207 231.656C128.21 231.712 128.212 231.765 128.214 231.821Z" fill="#969696"/>
<path d="M128.29 233.137L132.222 237.531C132.232 237.489 132.242 237.45 132.252 237.408L128.279 232.969C128.283 233.024 128.286 233.082 128.29 233.137Z" fill="#969696"/>
<path d="M128.436 234.855L131.915 238.741C131.925 238.701 131.936 238.662 131.947 238.62L128.42 234.68C128.425 234.737 128.431 234.796 128.436 234.855Z" fill="#969696"/>
<path d="M128.604 236.215L131.667 239.637C131.679 239.598 131.69 239.559 131.701 239.519L128.58 236.031C128.588 236.091 128.596 236.155 128.604 236.215Z" fill="#969696"/>
<path d="M128.85 237.685L131.405 240.54C131.416 240.501 131.427 240.464 131.44 240.424L128.811 237.484C128.823 237.553 128.836 237.618 128.85 237.685Z" fill="#969696"/>
<path d="M129.359 239.762L130.775 241.345C130.809 241.333 130.844 241.32 130.882 241.307L129.285 239.523C129.309 239.606 129.334 239.684 129.359 239.762Z" fill="#969696"/>
<path d="M135.372 195.291C135.515 196.666 136.193 204.412 135.118 218.156C133.927 233.375 131.293 239.893 131.293 239.893C131.422 239.849 131.593 239.787 131.814 239.708C131.814 239.708 134.448 233.19 135.638 217.971C136.818 202.893 135.887 195.029 135.869 194.883C135.721 194.95 135.554 195.089 135.372 195.291Z" fill="#8C8C8C"/>
<path d="M130.918 244.004C130.918 244.004 127.14 238.005 128.35 221.893C129.56 205.78 133.619 197.017 135.268 196.43C136.916 195.843 286.275 142.656 286.275 142.656L286.182 144.517C286.182 144.517 138.193 197.216 136.581 197.789C134.968 198.364 131.45 209.886 130.572 221.101C129.381 236.321 132.03 241.515 132.03 241.515L282.13 188.064L282.12 190.161L130.918 244.004Z" fill="#2F709B"/>
<path d="M7.44619 53.7656C5.91681 54.3099 1.49346 63.2052 0.347244 78.6795C-0.798146 94.1538 1.12553 98.4416 2.69859 100.229C4.27247 102.015 130.917 243.996 130.917 243.996C130.917 243.996 127.176 237.111 128.368 221.892C129.559 206.672 133.618 197.009 135.268 196.423L7.44619 53.7656Z" fill="url(#paint1_linear_4350_26437)"/>
<path d="M9.99061 53.5481C8.29889 54.1501 7.44727 53.769 7.44727 53.769L135.241 196.435C135.242 196.435 135.269 196.426 135.269 196.426C135.269 196.426 136.099 196.815 137.812 196.204C139.523 195.595 139.949 194.758 139.949 194.758L12.1281 52.1016C12.1281 52.1016 11.6827 52.9449 9.99061 53.5481Z" fill="url(#paint2_linear_4350_26437)"/>
<path d="M158.439 0L12.127 52.1012L139.948 194.758L286.261 142.655L158.439 0Z" fill="url(#paint3_linear_4350_26437)"/>
<defs>
<linearGradient id="paint0_linear_4350_26437" x1="124.196" y1="219.408" x2="289.77" y2="160.444" gradientUnits="userSpaceOnUse">
<stop stop-color="#E5E5E5"/>
<stop offset="1" stop-color="#F7F7F7"/>
</linearGradient>
<linearGradient id="paint1_linear_4350_26437" x1="38.5326" y1="96.0045" x2="217.061" y2="403.455" gradientUnits="userSpaceOnUse">
<stop stop-color="#0F78C9"/>
<stop offset="1" stop-color="#C7E6F6"/>
</linearGradient>
<linearGradient id="paint2_linear_4350_26437" x1="71.9795" y1="125.862" x2="75.4684" y2="122.73" gradientUnits="userSpaceOnUse">
<stop stop-color="#72BFE7"/>
<stop offset="1" stop-color="#117BCA"/>
</linearGradient>
<linearGradient id="paint3_linear_4350_26437" x1="96.4002" y1="144.767" x2="201.59" y2="50.3465" gradientUnits="userSpaceOnUse">
<stop stop-color="#72BFE7"/>
<stop offset="1" stop-color="#117BCA"/>
</linearGradient>
</defs>
</svg>
