<svg width="364" height="364" viewBox="0 0 364 364" fill="none" xmlns="http://www.w3.org/2000/svg">
<g clip-path="url(#clip0_4410_45715)">
<path d="M162.298 691.834C162.298 691.834 163.588 693.899 160.935 694.941C158.283 695.982 147.38 695.877 140.889 694.843C134.398 693.809 128.597 691.834 128.597 691.834C124.935 688.83 122.213 685.937 118.738 690.305C113.288 686.649 113.72 682.452 113.627 681.217C113.658 679.859 115.641 677.884 115.641 677.884C115.641 677.884 113.781 679.859 111.683 662.576C109.584 645.292 105.88 599.615 103.041 582.702C100.202 565.789 98.5967 553.691 93.782 539.987C91.9303 537.148 92.7943 533.444 93.9056 522.58C95.0168 511.717 98.8437 482.829 100.202 468.755C101.56 454.681 108.103 409.127 112.67 399.375C112.794 398.263 114.769 397.276 113.781 394.93C112.794 392.585 113.658 386.906 112.917 385.054C112.177 383.202 110.695 380.239 109.954 378.017C109.214 375.795 111.189 373.82 112.794 370.24C114.399 366.66 119.337 354.191 122.67 350.24C123.781 349.129 126.126 341.352 126.867 337.648C130.077 338.759 155.632 344.562 185.878 339.5C197.976 337.648 206.865 336.784 216 334.932C225.135 333.08 239.086 328.142 243.16 327.648C244.024 330.364 249.332 343.327 250.567 360.116C250.937 368.388 252.789 381.227 250.567 402.09C248.345 422.954 245.876 443.571 246.122 472.952C246.369 502.334 247.48 518.136 241.184 544.308C242.542 549.123 243.53 550.851 243.283 556.777C243.036 562.702 242.789 587.887 241.184 609.985C239.579 632.083 236.028 657.761 234.162 669.489C233.53 673.193 233.682 676.279 230.273 681.217C233.16 682.698 233.024 686.155 232.104 689.488C230.814 691.711 229.869 693.475 227.996 695.371C226.493 696.649 225.34 696.278 222.83 696.278C220.32 696.278 220.149 695.827 214.091 694.739C208.033 693.65 195.151 691.193 190.205 696.328C188.84 696.031 188.84 692.452 188.099 690.723C187.359 688.995 185.013 686.155 188.223 683.316C187.235 680.106 188.506 677.143 189.907 675.044C190.815 673.563 190.111 673.069 189.907 668.748C189.704 664.428 189.617 643.194 189.907 631.589C190.198 619.985 189.828 576.899 191.926 561.715C192.173 560.11 193.778 559.246 192.42 554.801C191.062 550.357 191.309 545.666 189.087 532.827C186.865 519.988 178.1 468.384 175.754 449.99C173.655 457.644 168.841 472.582 160.446 492.087C156.866 501.223 152.668 513.815 152.174 525.419C154.397 526.53 152.174 528.753 148.965 534.308C147.977 535.789 149.211 538.629 150.446 541.221C151.187 543.073 146.372 546.654 147.36 549.493C148.348 552.332 150.816 553.32 150.94 560.357C151.063 567.393 150.322 568.998 152.545 577.517C154.767 586.035 155.631 608.627 156.619 624.429C157.606 640.231 159.829 659.119 159.582 673.439C160.693 676.649 161.804 677.637 163.038 678.995C164.273 680.353 163.656 682.822 162.298 684.55C163.163 685.538 163.78 688.007 162.298 691.834Z" fill="#954C51"/>
<path d="M243.16 327.648C239.086 328.142 225.136 333.08 216 334.932C206.865 336.784 197.976 337.648 185.878 339.5C179.356 340.592 173.053 341.177 167.145 341.414C166.506 342.769 166.294 343.889 166.294 343.889C166.294 343.889 166.295 348.285 165.244 351.991C167.359 351.559 169.672 349.164 174.177 348.9C178.682 348.637 177.221 349.611 183.917 346.689C190.613 343.767 196.091 343.036 199.5 343.402C202.909 343.767 204.614 343.656 210.457 341.276C216.301 338.897 224.945 336.462 231.276 334.392C228.598 335.853 223.363 336.838 222.267 341.276C221.171 345.715 221.536 354.237 229.085 371.89C231.154 378.587 232.25 383.456 230.546 391.37C228.841 399.283 221.171 443.964 225.311 475.619C229.45 507.273 235.781 531.259 225.189 555.668C226.466 555.703 233.983 551.005 241.24 544.502C241.221 544.437 241.203 544.374 241.185 544.308C247.481 518.136 246.37 502.334 246.123 472.952C245.876 443.571 248.345 422.954 250.567 402.091C252.789 381.227 250.938 368.388 250.567 360.117C249.333 343.327 244.024 330.364 243.16 327.648Z" fill="#804249"/>
<path d="M123.743 349.806C123.743 349.806 124.298 348.618 125.328 345.29C125.955 343.473 126.072 342.177 125.986 341.273C124.964 345.023 123.485 349.422 122.671 350.237C119.337 354.188 114.399 366.657 112.794 370.237C111.189 373.817 109.214 375.792 109.955 378.014C110.696 380.236 112.177 383.199 112.918 385.051C113.659 386.903 112.794 392.581 113.782 394.927C114.77 397.273 112.794 398.26 112.671 399.371C108.103 409.124 101.56 454.678 100.202 468.752C98.8442 482.826 95.0172 511.713 93.9062 522.577C93.4895 526.651 93.1077 529.718 92.8906 532.11C93.9525 530.402 94.2496 526.028 94.9078 520.523C95.7792 513.235 98.8687 490.42 99.8987 481.389C100.929 472.357 102.75 452.236 105.285 437.501C107.82 422.766 110.989 409.774 111.623 405.893C112.257 402.011 112.653 400.585 113.762 398.604C114.871 396.624 114.554 395.594 114.237 394.564C113.921 393.535 113.287 391.815 113.762 389.415C114.237 387.015 113.683 386.009 113.049 384.028C112.415 382.048 111.781 380.859 111.227 379.116C110.672 377.374 110.751 375.552 112.336 373.333C113.92 371.115 116.455 364.461 118.119 360.975C119.783 357.49 122.714 350.915 123.743 350.598C125.962 350.915 128.734 350.915 128.734 350.915C128.734 350.915 128.972 350.677 128.734 350.201C126.674 350.36 123.743 349.806 123.743 349.806Z" fill="#412029"/>
<path d="M121.868 359.787C122.454 358.502 123.026 357.212 123.58 355.914C124.121 354.61 124.663 353.307 125.156 351.984C124.58 353.273 124.003 354.559 123.403 355.835C122.813 357.115 122.211 358.39 121.593 359.657C120.359 362.19 119.098 364.711 117.723 367.168C116.371 369.637 114.922 372.057 113.267 374.327C112.436 375.457 111.55 376.555 110.514 377.499C110.331 377.666 110.14 377.826 109.945 377.98C109.949 377.99 109.951 378 109.954 378.011C109.969 378.053 109.985 378.098 110 378.141C110.22 377.983 110.435 377.819 110.643 377.645C111.721 376.716 112.643 375.628 113.512 374.511C114.382 373.393 115.161 372.209 115.916 371.013C116.669 369.816 117.382 368.595 118.07 367.36C119.421 364.878 120.691 362.353 121.868 359.787Z" fill="#412029"/>
<path d="M167.907 400.065C166.172 391.741 166.214 380.979 166.809 367.38C167.374 354.48 168.795 345.465 168.81 345.375L169.087 345.419C169.072 345.509 167.654 354.51 167.089 367.392C166.495 380.97 166.453 391.712 168.181 400.008L167.907 400.065Z" fill="#412029"/>
<path d="M166.302 400.206L166.293 399.925C166.36 399.923 173.017 399.677 173.378 396.877C173.569 395.578 173.822 388.72 174.115 380.779C174.558 368.763 175.388 349.963 176.036 345.055H176.211C175.565 349.95 174.838 368.779 174.395 380.789C174.09 389.066 173.849 395.604 173.656 396.916C173.264 399.948 166.586 400.197 166.302 400.206Z" fill="#412029"/>
<path d="M166.456 402.458L166.42 402.179C166.442 402.177 168.663 401.886 171.124 401.138C175.256 399.562 175.381 397.696 175.61 394.309C175.626 394.064 175.643 393.812 175.662 393.551C175.756 375.583 177.908 345.101 177.928 344.836L178.197 344.805C178.178 345.07 176.036 375.593 175.942 393.562C175.923 393.832 175.906 394.083 175.889 394.328C175.661 397.715 175.523 399.76 171.215 401.403C168.721 402.162 166.478 402.454 166.456 402.458Z" fill="#412029"/>
<path d="M165.94 345.171C165.94 345.171 161.403 383.781 165.477 398.688C165.94 400.91 166.125 403.687 166.218 405.447C166.311 407.206 167.236 408.78 169.644 409.798C170.57 410.446 172.947 430.778 175.755 449.982C178.563 469.187 189.926 531.091 195.062 544.516C193.902 538.868 188.995 516.092 186.495 506.369C183.995 496.646 180.679 471.371 179.606 466.926C178.533 462.482 176.31 444.612 175.292 439.705C174.273 434.798 171.125 416.557 171.773 412.761C171.681 410.724 171.681 409.706 169.829 408.595C167.977 407.484 167.144 408.039 166.681 403.41C166.218 398.78 165.662 395.725 165.107 392.669C164.551 389.614 165.2 356.652 166.681 345.171C166.033 344.523 165.94 345.171 165.94 345.171Z" fill="#412029"/>
<path d="M241.125 544.308C247.421 518.136 246.31 502.334 246.064 472.952C245.817 443.571 248.286 422.954 250.508 402.09C252.73 381.227 251.096 368.268 250.726 359.997C249.644 345.288 244.768 332.166 243.16 327.648L241.488 327.96C241.488 327.96 247.688 342.4 248.866 358.375C250.045 374.35 252.009 385.029 248.735 409.806C245.462 434.583 244.283 457.629 244.676 473.866C245.069 490.102 244.152 515.898 242.188 529.123C240.224 542.348 239.438 547.455 235.51 553.347C238.129 551.907 240.355 548.502 240.617 547.193C241.926 549.943 241.403 556.621 241.01 562.644C240.617 568.667 241.534 584.511 239.962 602.843C238.391 621.175 235.518 653.256 228.902 674.075C227.523 676.956 225.812 681.539 224.18 682.848C229.487 678.527 230.024 672.373 231.261 668.314C231.947 666.064 235.229 652.912 238.175 639.829C239.33 630.188 240.417 619.738 241.125 609.985C242.73 587.887 242.977 562.702 243.224 556.777C243.471 550.851 242.483 549.123 241.125 544.308Z" fill="#412029"/>
<path d="M224.18 339.711C224.18 339.711 226.567 349.038 230.627 358.474C234.687 367.91 246.057 390.219 247.964 394.902C245.331 391.94 239.515 378.114 236.772 372.957C234.029 367.8 225.852 351.451 224.18 339.711Z" fill="#412029"/>
<path d="M170.754 133.235C170.754 133.235 168.995 141.661 168.903 143.883C168.81 146.105 171.588 153.79 173.995 158.327C176.402 162.864 176.958 167.031 177.143 169.253C177.328 171.475 179.18 166.846 181.217 163.327C183.254 159.809 184.458 153.26 185.476 151.534C186.494 149.809 194.365 143.42 198.716 139.995C203.068 136.569 212.605 125.273 212.42 123.514C212.235 121.754 211.962 98.6837 212.422 93.9617C211.957 93.7764 210.753 93.4922 210.753 93.4922L170.754 133.235Z" fill="#F4CFB8"/>
<path d="M181.492 144.012C186.337 142.866 196.421 131.689 204.445 120.943C212.47 110.196 208.624 107.33 208.624 107.33C208.624 107.33 206.422 104.352 203.624 101.359L170.754 133.24C170.754 133.24 168.995 141.666 168.903 143.888C168.856 144.998 169.526 147.471 170.508 150.234C172.394 153.686 174.667 156.771 177.124 158.158C180.113 154.219 179.227 149.313 178.94 148.448C178.654 147.583 179.083 145.301 181.492 144.012Z" fill="#E9AD9A"/>
<path d="M126.879 328.91C126.879 328.91 127.37 327.865 125.237 327.223C123.103 326.58 122.461 323.608 119.569 321.359C118.364 319.994 119.409 315.094 119.971 310.515C120.533 305.937 121.256 300.957 119.891 296.619C119.328 293.888 119.891 293.647 119.489 292.281C119.087 290.916 118.686 286.498 117.963 285.614C113.786 285.775 93.5441 285.052 95.0703 282.16C92.0982 280.955 90.2508 280.313 88.7246 273.164C87.1985 266.015 85.1904 257.741 87.9213 249.789C88.7246 246.898 89.6884 244.327 88.7246 243.363C87.1182 242.319 83.8247 241.676 85.9132 239.186C87.1985 237.74 90.0098 237.258 89.4475 233.644C88.8049 229.467 88.2427 224.406 93.3834 216.454C95.7931 212.036 101.255 197.257 103.183 190.268C105.111 183.28 108.083 173.561 110.734 168.339C112.501 164.885 113.143 162.235 116.035 159.986C118.043 158.299 118.284 157.656 120.132 155.969C121.979 154.282 127.281 149.704 157.804 140.065C162.222 138.378 162.141 138.539 166.318 131.711C168.246 132.274 171.218 132.997 171.218 132.997C171.218 132.997 171.459 137.977 169.853 141.19C169.692 143.118 171.62 144.724 172.182 146.893C172.745 149.062 172.263 150.989 175.556 156.291C177.162 158.7 176.68 163.922 178.046 166.09C179.171 164.564 180.777 161.592 181.741 158.7C182.705 155.809 182.544 154.524 182.946 152.114C183.348 149.704 185.918 147.696 189.934 144.724C193.951 141.752 196.681 139.503 199.493 136.691C202.304 133.88 211.22 123.358 211.943 122.153C212.024 120.787 211.943 115.727 211.943 115.727C211.943 115.727 215.076 117.172 216.361 120.064C217.646 122.956 218.851 127.615 219.815 129.462C220.377 131.149 220.939 131.711 223.43 133.077C225.92 134.442 237.406 139.824 244.153 142.475C250.901 145.125 259.737 148.499 264.395 151.552C269.054 154.604 272.026 157.496 274.757 160.146C277.488 162.797 280.219 172.918 279.818 184.646C279.416 196.373 273.713 208.743 273.954 215.41C274.195 222.077 275.4 229.869 271.223 238.303C269.777 241.194 268.572 241.516 264.074 251.315C259.576 261.115 254.836 270.272 252.587 273.967C250.338 277.662 248.732 279.991 247.125 282.803C247.286 285.132 246.001 286.096 246.643 288.185C247.286 290.273 249.696 301.679 250.419 305.213C251.141 308.828 250.74 311.318 248.732 313.728C246.965 316.218 244.743 318.539 243.35 319.672C241.957 320.805 194.352 330.35 192.906 330.353C191.46 330.355 160.347 333.93 160.347 333.93C160.347 333.93 167.041 333.73 159.571 333.93C152.101 334.131 126.879 328.91 126.879 328.91Z" fill="#8ECCE2"/>
<path d="M167.701 151.848C169.646 155.181 175.849 163.051 177.053 167.773C177.312 167.439 177.646 166.541 177.953 165.584C176.704 163.328 177.125 158.299 175.557 155.947C172.264 150.645 172.746 148.717 172.183 146.549C171.621 144.38 169.693 142.773 169.854 140.846C171.46 137.633 171.219 132.652 171.219 132.652C171.219 132.652 168.247 131.93 166.319 131.367C162.843 137.049 162.314 137.892 159.688 138.986C156.527 145.173 150.74 156.544 150.943 156.477C151.22 156.384 159.831 152.496 163.072 149.255C164.461 147.589 165.757 148.515 167.701 151.848Z" fill="#7CBDD5"/>
<path d="M198.254 144.811C201.217 148.052 206.217 151.385 211.495 152.681C212.236 151.363 217.741 136.415 220.511 130.589C220.22 130.184 220.016 129.724 219.814 129.118C218.85 127.271 217.646 122.612 216.36 119.72C215.075 116.829 211.942 115.383 211.942 115.383C211.942 115.383 212.023 120.443 211.942 121.809C211.22 123.014 202.304 133.536 199.492 136.348C196.681 139.159 193.95 141.408 189.934 144.38C185.917 147.352 183.347 149.36 182.945 151.77C182.544 154.18 182.704 155.465 181.74 158.357C181.407 159.356 180.997 160.363 180.557 161.319C181.503 160.522 182.627 159.405 183.162 158.236C184.18 156.014 184.458 154.625 184.736 152.866C185.014 151.107 186.68 149.07 189.18 147.311C191.68 145.552 195.291 141.57 198.254 144.811Z" fill="#7CBDD5"/>
<path d="M167.7 151.848C165.756 148.514 164.459 147.589 163.071 149.255C159.83 152.496 151.219 156.384 150.941 156.477C150.941 156.477 154.991 156.911 157.307 155.44C159.624 153.969 162.966 150.928 164.444 151.725C165.713 152.408 169.094 156.398 171.903 158.155C170.204 155.615 168.548 153.301 167.7 151.848Z" fill="#76B0CF"/>
<path d="M175.556 155.95C172.263 150.649 172.745 148.721 172.183 146.552C171.62 144.383 170.068 142.852 169.853 141.191C171.459 137.978 171.218 132.656 171.218 132.656C171.218 132.656 170.645 132.516 169.84 132.312C169.487 133.551 168.964 135.864 169.089 138.354C169.275 142.036 169.83 144.135 170.941 146.419C172.052 148.703 171.682 149.629 172.484 151.604C173.287 153.579 174.089 154.937 175.262 157.344C176.073 159.009 176.564 161.323 177.125 162.612C176.763 160.279 176.602 157.519 175.556 155.95Z" fill="#578FA8"/>
<path d="M211.496 152.685C206.218 151.389 201.218 148.056 198.255 144.815C195.293 141.575 191.682 145.556 189.182 147.315C186.682 149.075 185.015 151.111 184.737 152.871C184.459 154.63 184.182 156.019 183.163 158.241C182.799 159.036 182.162 159.804 181.494 160.466C182.524 159.784 183.653 158.861 184.303 157.777C185.716 155.422 188.26 150.511 190.898 149.575C193.535 148.639 197.021 146.849 199.941 151.465C202.862 156.081 212.282 155.704 212.282 155.704L220.512 130.594C217.742 136.419 212.237 151.368 211.496 152.685Z" fill="#76B0CF"/>
<path d="M264.073 250.974C268.572 241.175 269.776 240.853 271.222 237.961C275.399 229.527 274.194 221.736 273.953 215.069C273.712 208.402 279.415 196.032 279.817 184.304C280.218 172.577 277.487 162.456 274.756 159.805C272.911 158.014 270.953 156.112 268.441 154.125C268.716 156.538 269.548 160.426 270.854 164.451C271.73 168.656 273.307 170.583 271.905 171.809C270.503 173.035 255.731 191.605 251.643 196.16C255.613 199.839 258.241 204.919 257.365 211.401C256.664 217.533 256.314 219.284 254.211 219.635C252.109 219.985 240.372 219.109 235.291 220.511C230.211 222.788 228.459 225.942 228.985 225.766C229.51 225.591 243.525 225.591 246.328 226.993C248.78 228.394 253.686 229.795 255.087 232.599C256.488 235.401 256.488 237.854 254.562 239.081C256.313 243.986 260.518 253.095 255.613 258.001C253.686 259.402 249.131 253.621 245.452 248.541C247.028 253.621 249.442 261.855 244.731 276.22C243.174 282.001 241.072 286.031 234.765 285.855C228.459 285.68 222.677 281.826 222.677 281.826L223.345 288.559C223.345 288.559 216.196 287.432 211.466 287.082C209.013 286.556 209.539 283.578 207.611 279.724C199.378 279.899 166.443 267.286 156.808 261.68C147.172 256.6 142.059 253.446 138.484 252.045C134.91 250.643 132.282 250.643 130.18 251.694C127.902 252.57 128.839 253.271 128.839 253.271C128.839 253.271 155.581 272.191 159.436 273.242C154.355 274.994 154.881 275.344 148.749 276.921C142.618 278.498 106.88 284.804 104.077 277.622C102.767 279.399 98.9596 281.026 95.0285 281.917C94.0047 284.727 113.832 285.432 117.962 285.273C118.685 286.157 119.086 290.575 119.488 291.94C119.808 293.03 119.516 293.407 119.671 294.902C124.893 292.832 139.047 287.203 141.041 286.206C143.494 284.98 148.041 284.454 150.935 284.279C153.83 284.104 158.677 283.929 161.421 279.549C163.465 277.272 168.235 278.147 169.616 275.345C172.75 278.323 175.76 278.323 178.196 279.724C180.633 281.126 182.21 284.98 189.217 288.659C196.225 292.338 227.974 308.104 234.065 312.834C233.539 314.586 222.677 314.236 214.619 314.061C208.137 313.71 208.13 321.769 173.097 323.871C163.71 324.349 143.186 327.624 126.766 327.802C127.039 328.22 126.878 328.569 126.878 328.569C126.878 328.569 131.438 329.513 137.254 330.582C153.617 331.873 174.793 329.729 187.641 325.323C194.123 323.17 214.269 321.243 221.977 320.017C218.123 321.418 216.546 322.746 214.444 325.323C214.867 325.418 215.313 325.504 215.776 325.584C228.773 322.921 242.607 319.935 243.349 319.332C244.743 318.198 246.964 315.878 248.731 313.388C250.739 310.978 251.141 308.488 250.418 304.873C249.695 301.339 247.285 289.933 246.643 287.844C246 285.756 247.285 284.792 247.125 282.463C248.731 279.651 250.338 277.322 252.587 273.627C254.836 269.931 259.575 260.774 264.073 250.974Z" fill="#7CBDD5"/>
<path d="M229.211 185.961C229.211 185.961 230.023 201.058 225.964 208.362C222.718 213.719 217.361 218.854 211.842 224.484C208.433 227.68 203.401 228.978 198.693 230.764C193.986 232.549 185.051 234.173 180.184 235.958C180.188 233.199 180.374 226.056 177.522 222.81C176.454 224.595 174.669 229.79 176.454 239.692C177.59 241.802 196.009 242.939 199.38 243.426C200.154 239.692 202.427 240.017 204.213 240.179C205.998 240.342 210.056 239.854 210.056 239.854L215.738 236.121L224.991 222.485C224.991 222.485 229.698 214.531 231.484 210.148C232.782 206.577 232.782 205.928 231.484 201.869C230.185 197.811 229.211 185.961 229.211 185.961Z" fill="#7CBDD5"/>
<path d="M109.955 181.969C109.955 181.969 110.943 191.968 115.757 196.783C119.338 200.857 121.313 201.845 121.683 204.19C121.683 207.77 121.066 221.72 120.942 226.288C121.066 228.881 121.93 230.733 119.831 233.695C117.733 236.658 118.103 237.769 118.597 239.127C119.091 240.362 125.881 235.917 128.843 235.177C132.3 234.189 129.09 232.831 126.992 229.251C124.893 225.671 122.054 217.894 122.424 209.499C122.918 204.808 123.579 202.709 120.162 198.388C116.745 195.302 112.918 194.191 109.955 181.969Z" fill="#7CBDD5"/>
<path d="M118.941 241.06C118.941 241.06 115.454 242.312 112.294 239.344C109.134 236.375 105.538 236.484 103.686 234.195C103.903 236.593 107.826 238.663 108.807 240.624C107.717 241.387 107.173 240.822 105.211 241.322C106.737 242.15 110.224 243.022 111.313 244.329C107.282 244.547 105.865 244.765 103.686 246.4C107.282 246.073 115.018 246.509 116.217 247.816C114.909 250.214 115.127 250.541 113.711 251.304C115.89 251.63 119.268 252.938 122.646 255.88C127.223 257.951 126.925 255.123 132.958 256.155C134.415 252.066 128.531 246.743 126.787 245.428C125.043 244.112 118.941 241.06 118.941 241.06Z" fill="#76B0CF"/>
<path d="M166.744 155.555C167.036 156.464 167.307 157.379 167.591 158.29L168.408 161.033C168.954 162.861 169.479 164.695 170.009 166.527L171.577 172.03L172.365 174.781L172.759 176.156C172.897 176.613 173.033 177.07 173.164 177.53C172.813 176.641 172.498 175.74 172.179 174.839C171.876 173.934 171.576 173.028 171.285 172.119C170.699 170.301 170.158 168.471 169.628 166.637C169.106 164.801 168.592 162.963 168.115 161.115L167.405 158.342C167.183 157.413 166.95 156.487 166.744 155.555Z" fill="#76B0CF"/>
<path d="M169.953 155.047C169.953 155.047 171.15 158.282 173.019 160.223C174.313 162.092 176.254 166.262 176.326 167.7C175.894 164.896 175.823 163.746 174.313 161.374C172.803 159.001 170.842 157.275 169.953 155.047Z" fill="#76B0CF"/>
<path d="M181.493 160.461C181.493 160.461 175.916 170.72 174.536 175.805C173.155 180.89 173.01 182.27 172.647 184.304C172.284 186.338 171.339 189.171 170.613 193.893C169.887 198.615 167.925 207.769 167.199 212.781C166.472 217.793 166.036 225.879 166.182 239.343C164.874 239.441 165.382 237.988 165.382 235.01C165.382 232.032 165.455 219.028 166.109 215.251C166.763 211.473 168.616 201.012 169.07 197.961C169.523 194.91 170.395 189.462 171.121 186.992C171.848 184.522 172.531 181.108 173.097 178.492C173.664 175.877 175.623 169.98 178.045 165.746C179.766 162.923 181.493 160.461 181.493 160.461Z" fill="#76B0CF"/>
<path d="M190.896 149.57C190.893 150.358 190.82 151.143 190.723 151.924C190.623 152.706 190.491 153.483 190.331 154.254C190.162 155.023 189.983 155.792 189.758 156.547C189.544 157.306 189.292 158.054 189.029 158.797L189.028 158.8L189.026 158.805C188.119 160.591 187.261 162.402 186.533 164.265C185.803 166.127 185.226 168.044 184.751 169.987C183.802 173.877 183.065 177.819 182.312 181.755L181.215 187.666C180.857 189.64 180.481 191.607 180.178 193.585C179.871 195.563 179.611 197.547 179.393 199.537L178.78 205.52C178.671 206.518 178.541 207.517 178.353 208.51C178.263 209.005 178.137 209.505 178.034 209.983C177.935 210.47 177.845 210.96 177.765 211.454C177.443 213.426 177.196 215.415 176.978 217.405C176.555 221.386 176.255 225.384 176.143 229.386C176.094 231.387 176.1 233.39 176.202 235.387C176.321 237.38 176.509 239.386 177.047 241.305C177.184 241.782 177.358 242.253 177.523 242.726L178.031 244.14C178.375 245.081 178.727 246.019 179.094 246.951C179.83 248.814 180.597 250.669 181.493 252.462C180.571 250.682 179.776 248.838 179.012 246.984C178.631 246.057 178.264 245.123 177.907 244.187L177.378 242.778C177.206 242.307 177.025 241.841 176.878 241.356C176.298 239.418 176.107 237.402 175.966 235.401C175.847 233.396 175.825 231.387 175.857 229.38C175.929 225.366 176.208 221.358 176.629 217.367C176.842 215.372 177.083 213.379 177.402 211.394C177.481 210.897 177.571 210.402 177.67 209.907C177.777 209.405 177.896 208.932 177.984 208.44C178.166 207.463 178.292 206.472 178.398 205.478C178.612 203.489 178.773 201.488 179.003 199.494C179.227 197.5 179.493 195.509 179.807 193.526C180.116 191.542 180.498 189.571 180.861 187.601L181.974 181.69C182.729 177.752 183.518 173.817 184.496 169.923C184.989 167.977 185.586 166.052 186.335 164.186C187.077 162.317 187.972 160.517 188.904 158.741L188.901 158.749C189.173 158.013 189.436 157.272 189.66 156.518C189.895 155.768 190.084 155.005 190.264 154.24C190.435 153.472 190.579 152.699 190.69 151.92C190.797 151.141 190.882 150.357 190.896 149.57Z" fill="#76B0CF"/>
<path d="M189.019 156.134C188.743 157.244 188.11 158.042 187.605 157.916C187.101 157.79 186.916 156.789 187.193 155.678C187.47 154.568 188.103 153.77 188.607 153.896C189.111 154.022 189.296 155.023 189.019 156.134Z" fill="#C7BBC1" stroke="#578FA8" stroke-width="1.279" stroke-miterlimit="10"/>
<path d="M177.951 182.735C178.959 182.735 179.776 181.918 179.776 180.91C179.776 179.903 178.959 179.086 177.951 179.086C176.944 179.086 176.127 179.903 176.127 180.91C176.127 181.918 176.944 182.735 177.951 182.735Z" fill="#C7BBC1" stroke="#578FA8" stroke-width="1.279" stroke-miterlimit="10"/>
<path d="M173.729 207.055C174.736 207.055 175.553 206.238 175.553 205.231C175.553 204.223 174.736 203.406 173.729 203.406C172.721 203.406 171.904 204.223 171.904 205.231C171.904 206.238 172.721 207.055 173.729 207.055Z" fill="#C7BBC1" stroke="#578FA8" stroke-width="1.279" stroke-miterlimit="10"/>
<path d="M170.895 233.907C171.903 233.907 172.719 233.09 172.719 232.082C172.719 231.075 171.903 230.258 170.895 230.258C169.887 230.258 169.07 231.075 169.07 232.082C169.07 233.09 169.887 233.907 170.895 233.907Z" fill="#C7BBC1" stroke="#578FA8" stroke-width="1.279" stroke-miterlimit="10"/>
<path d="M167.978 289.823C168.14 288.828 167.464 287.891 166.47 287.729C165.475 287.568 164.538 288.243 164.376 289.238C164.215 290.233 164.89 291.17 165.885 291.331C166.88 291.493 167.817 290.817 167.978 289.823Z" fill="#C7BBC1" stroke="#578FA8" stroke-width="1.279" stroke-miterlimit="10"/>
<path d="M167.11 317.579C168.117 317.579 168.934 316.762 168.934 315.754C168.934 314.747 168.117 313.93 167.11 313.93C166.102 313.93 165.285 314.747 165.285 315.754C165.285 316.762 166.102 317.579 167.11 317.579Z" fill="#C7BBC1" stroke="#578FA8" stroke-width="1.279" stroke-miterlimit="10"/>
<path d="M117.888 167.694C117.888 167.694 116.869 174.715 118.814 183.326C119.647 187.492 120.295 192.215 120.665 195.177C120.851 197.862 122.147 201.751 122.332 204.251C122.61 203.047 122.239 199.899 121.591 196.196C120.943 192.492 121.5 182.832 122.425 177.523C123.35 172.215 125.48 165.086 125.758 161.938C123.813 165.549 122.528 171.474 121.689 176.845C120.85 182.215 120.454 186.68 120.665 191.752C120.295 184.252 119.462 181.567 118.814 178.326C118.166 175.085 117.703 171.691 117.888 167.694Z" fill="#7CBDD5"/>
<path d="M270.473 158.156C270.473 158.156 255.903 150.879 241.078 175.289C241.078 175.289 248.619 166.087 253.219 163.148C257.82 160.208 264.211 157.013 270.473 159.186C272.262 159.314 270.473 158.156 270.473 158.156Z" fill="#7CBDD5"/>
<path d="M247.728 158.023C247.728 158.023 239.457 165.154 235.877 175.292C233.284 182.467 232.79 187.899 233.531 199.133C233.407 205.059 233.531 206.787 231.926 208.886C230.321 210.985 227.729 218.886 227.729 218.886C227.729 218.886 231.555 211.479 232.543 209.38C233.531 207.281 234.395 207.281 234.272 199.38C236.247 195.553 240.691 188.023 240.444 185.306C238.839 187.282 236 194.195 234.025 197.898C233.901 193.578 233.115 186.563 236.123 177.529C239.132 168.495 242.296 164.567 247.728 158.023Z" fill="#7CBDD5"/>
<path d="M115.997 248.008C115.997 248.008 110.485 247.104 108.135 251.442C105.876 254.695 103.888 257.678 102.351 262.467C100.815 267.257 99.9114 272.679 100.815 277.921C100.815 272.679 101.628 265.901 103.074 262.558C104.52 259.214 105.762 257.098 106.779 254.515C107.796 251.931 109.762 248.46 115.997 248.008Z" fill="#76B0CF"/>
<path d="M117.62 246.178C117.62 246.178 110.222 243.1 105.092 244.511C100.86 245.408 97.9102 248.871 97.1406 250.153C97.1406 250.153 107.039 241.478 118.814 248.486L117.62 246.178Z" fill="#76B0CF"/>
<path d="M109.856 241.341C109.856 241.341 107.154 234.906 99.6897 236.45C103.808 236.708 106.21 237.737 108.226 240.311C103.679 239.668 98.6602 238.895 95.1855 243.657C98.4027 241.341 101.62 240.054 109.856 241.341Z" fill="#76B0CF"/>
<path d="M118.814 284.709C118.814 284.709 122.677 284.851 127.168 284.14C131.659 283.428 139.628 283.713 149.874 279.728C142.759 281.436 138.347 282.301 133.367 282.224C138.347 281.436 149.304 279.586 152.577 278.59C156.419 276.882 158.583 276.029 160.347 275.032C162.111 274.036 164.877 273.325 167.763 273.04C168.457 272.78 169.208 272.459 169.954 272.12C172.465 270.978 174.918 269.625 174.918 269.625C174.918 269.625 176.626 270.194 176.128 270.337C176.128 270.337 170.968 272.525 168.52 273.275C166.821 273.675 164.173 273.975 162.824 274.524C161.475 275.074 158.177 276.872 155.579 278.121C152.981 279.37 147.335 281.119 145.087 281.819C142.839 282.518 135.844 283.817 128.599 284.467C125.352 284.866 120.021 285.451 118.814 284.709Z" fill="#76B0CF"/>
<path d="M160.985 274.703C160.907 276.984 160.835 279.264 160.803 281.544C160.755 283.824 160.73 286.104 160.741 288.383C160.761 290.663 160.77 292.941 160.843 295.218C160.922 297.495 160.996 299.777 161.11 302.052C161.293 306.607 161.584 311.157 162.01 315.693C162.224 317.961 162.482 320.225 162.856 322.471C163.036 323.594 163.245 324.714 163.524 325.817C163.661 326.368 163.822 326.914 164.012 327.45C164.207 327.982 164.42 328.514 164.737 328.991C164.07 328.056 163.702 326.948 163.371 325.859C163.048 324.761 162.794 323.644 162.568 322.523C162.134 320.276 161.824 318.01 161.553 315.742C161.28 313.473 161.098 311.195 160.927 308.917C160.76 306.639 160.624 304.36 160.515 302.079C160.346 297.516 160.19 292.949 160.285 288.38C160.329 286.097 160.404 283.815 160.513 281.534C160.643 279.255 160.773 276.976 160.985 274.703Z" fill="#76B0CF"/>
<path d="M169.617 272.633C170.061 274.955 170.35 277.305 170.577 279.661C170.68 280.84 170.754 282.022 170.807 283.205C170.854 284.39 170.877 285.57 170.906 286.752C171.014 291.476 171.057 296.201 171.305 300.912C171.419 303.27 171.562 305.615 171.914 307.946C172.231 310.309 172.301 312.689 172.265 315.055L172.215 318.598C172.205 319.779 172.23 320.946 172.4 322.111C172.549 323.279 172.726 324.446 173.016 325.586C173.163 326.155 173.335 326.719 173.579 327.253C173.821 327.781 174.139 328.307 174.653 328.612C174.123 328.334 173.769 327.814 173.497 327.292C173.229 326.761 173.034 326.196 172.864 325.628C172.527 324.489 172.305 323.321 172.11 322.153C171.907 320.982 171.856 319.78 171.839 318.6L171.807 315.055C171.79 313.876 171.762 312.698 171.707 311.524C171.645 310.35 171.543 309.18 171.376 308.021C171.005 305.679 170.839 303.301 170.71 300.941C170.605 298.576 170.549 296.212 170.51 293.848C170.476 291.484 170.442 289.12 170.45 286.757C170.447 285.577 170.451 284.394 170.432 283.217C170.407 282.038 170.357 280.86 170.287 279.683C170.159 277.327 169.929 274.976 169.617 272.633Z" fill="#76B0CF"/>
<path d="M245.992 282.069C244.456 284.561 243.215 286.478 239.764 288.135C236.313 289.792 231.425 288.587 228.358 288.587C225.29 288.587 223.998 288.587 223.998 288.587C225.183 289.688 232.698 288.904 234.876 289.418C237.56 289.387 240.052 289.737 243.335 287.149C244.362 286.341 245.699 285.054 247.129 283.472C247.14 283.259 247.141 283.037 247.125 282.797C248.731 279.985 250.338 277.656 252.587 273.961C253.841 271.9 255.87 268.14 258.2 263.518C259.814 258.862 261.355 254.253 262.673 251.492C261.235 253.697 258.934 257.914 257.497 261.94C255.196 268.554 247.528 279.577 245.992 282.069Z" fill="#76B0CF"/>
<path d="M116.498 248.146C116.498 248.146 116.498 243.887 116.498 241.757C116.591 240.183 118.813 237.22 121.22 235.183C123.627 233.146 127.979 232.498 133.812 231.757C137.053 231.48 139.09 233.146 141.497 233.887C143.905 234.628 157.237 238.393 175.478 239.936C182.607 240.091 195.662 240.739 200.014 241.942C198.903 244.535 200.569 253.886 201.68 257.96C202.791 262.034 203.902 265.831 205.199 269.719C206.495 273.608 207.513 277.034 208.625 281.015C204.643 281.941 193.625 282.312 171.218 271.201C162.885 266.664 153.626 262.312 149.645 259.998C145.664 257.683 139.645 253.609 137.053 253.053C134.183 253.609 133.072 252.961 132.053 252.961C130.479 253.701 130.572 254.072 129.183 253.794C127.794 253.516 125.942 253.609 123.257 251.85C121.498 250.368 117.979 250.275 116.498 248.146Z" fill="#F4CFB8"/>
<path d="M208.625 281.018C207.586 277.295 206.625 274.053 205.445 270.469C200.748 270.69 191.372 270.142 182.549 267.87C164.805 262.963 147.608 255.371 142.053 252.501C136.497 249.63 131.59 248.982 129.461 248.612C127.331 248.242 126.961 248.519 126.313 249.445C125.827 250.146 123.992 250.878 122.543 251.368C122.802 251.513 123.043 251.672 123.257 251.853C125.942 253.612 127.794 253.519 129.183 253.797C130.572 254.075 130.479 253.704 132.053 252.964C133.072 252.964 134.183 253.612 137.053 253.056C139.646 253.612 145.664 257.686 149.645 260C153.626 262.315 162.885 266.667 171.218 271.204C193.625 282.314 204.643 281.944 208.625 281.018Z" fill="#E9AD9A"/>
<path d="M128.199 233.625C130.451 233.079 134.136 232.124 137.208 233.011C138.435 233.475 139.758 233.664 140.881 233.674C138.729 232.871 136.773 231.504 133.812 231.757C127.979 232.498 123.627 233.146 121.22 235.183C120.219 236.03 119.252 237.037 118.455 238.038C119.104 237.99 119.912 237.807 120.759 237.311C122.738 236.151 125.946 234.171 128.199 233.625Z" fill="#E9AD9A"/>
<path d="M210.291 239.904C210.291 239.904 217.883 228.701 219.18 226.108C220.198 224.349 220.383 222.775 222.605 222.219C224.087 221.849 224.827 221.664 224.827 221.664C224.827 221.664 229.179 217.683 233.623 214.905C236.123 213.331 237.049 212.775 237.049 212.775C237.049 212.775 238.716 212.127 240.383 213.053C242.049 213.979 244.827 215.646 247.234 214.812C249.086 213.886 251.03 212.59 251.216 214.349C251.401 216.109 251.956 218.146 247.142 219.349C248.716 220.09 250.475 221.757 252.234 222.868C253.993 223.979 257.049 225.332 254.826 226.229C252.604 227.127 251.03 227.404 247.049 225.83C244.456 224.812 242.79 223.892 240.29 224.491C242.327 224.627 245.568 225.83 248.067 227.312C250.382 228.608 250.845 230.09 252.049 231.293C253.252 232.219 251.864 233.515 250.012 233.515C248.16 233.515 246.864 232.157 244.364 231.632C241.864 231.108 241.401 230.645 239.456 230.923C240.66 231.571 243.438 232.311 245.197 232.774C246.956 233.237 246.956 234.533 248.53 235.274C249.178 236.848 248.53 238.299 245.938 238.037C243.345 237.774 242.882 237.034 239.086 236.848C235.29 236.663 232.79 236.941 231.308 236.941C229.364 238.608 227.605 240.922 223.716 241.848C221.494 242.404 219.457 241.293 218.253 241.015C217.05 240.737 214.828 240.645 213.994 240.83C213.902 239.719 212.884 240.274 210.291 239.904Z" fill="#F4CFB8"/>
<path d="M226.445 221.165C228.514 221.073 232.836 219.786 234.491 219.372C236.146 218.959 238.307 218.499 239.594 218.407C240.79 218.315 244.56 218.867 245.709 219.326C245.983 219.395 246.617 219.444 247.318 219.439C247.259 219.409 247.2 219.378 247.142 219.35C247.629 219.229 248.059 219.098 248.442 218.96C247.287 219.028 245.679 218.984 244.237 218.453C241.617 217.487 240.927 217.35 239.916 217.028C238.904 216.706 238.215 216.982 235.548 218.361C234.123 219.097 228.606 220.568 226.445 221.165Z" fill="#E9AD9A"/>
<path d="M249.6 225.478C247.233 223.849 244.246 222.568 241.802 222.724C239.358 222.879 233.228 225.013 229.154 225.168C227.253 225.245 224.693 224.935 223.49 225.827C224.344 226.138 226.904 226.021 229.154 225.789C231.404 225.556 235.012 225.207 236.952 224.974C238.822 224.75 241.352 224.589 242.677 224.962C241.795 224.705 240.974 224.537 240.29 224.491C242.79 223.893 244.456 224.812 247.049 225.831C250.086 227.031 251.722 227.153 253.313 226.746C252.187 226.618 250.774 226.287 249.6 225.478Z" fill="#E9AD9A"/>
<path d="M242.852 225.016C243.026 225.073 243.309 225.165 243.676 225.284C243.397 225.187 243.122 225.097 242.852 225.016Z" fill="#E9AD9A"/>
<path d="M248.761 232.076C247.563 230.953 247.083 231.051 245.147 230.277C243.727 229.831 243.399 229.316 240.92 229.41C238.441 229.503 234.792 230.489 231.938 230.558C229.272 230.579 227.027 230.162 225.764 230.604C225.951 231.047 226.559 231.234 228.103 231.234C229.646 231.234 237.01 231.121 239.456 230.92C241.4 230.643 241.863 231.106 244.363 231.63C246.863 232.155 248.16 233.513 250.011 233.513C250.235 233.513 250.451 233.493 250.657 233.459C250.187 233.245 249.565 232.836 248.761 232.076Z" fill="#E9AD9A"/>
<path d="M243.677 236.834C241.117 235.562 240.646 235.602 237.443 235.602C234.24 235.602 231.935 236.238 229.471 236.238C228 236.595 228.517 237.867 225.456 239.219C222.936 240.331 222.813 241.28 220.674 241.759C221.594 241.991 222.633 242.117 223.717 241.846C227.605 240.92 229.365 238.605 231.309 236.939C232.79 236.939 235.29 236.661 239.086 236.846C242.882 237.031 243.345 237.772 245.938 238.034C246.134 238.054 246.316 238.061 246.49 238.062C245.725 237.774 244.76 237.372 243.677 236.834Z" fill="#E9AD9A"/>
<path d="M245.382 216.111C246.817 216.945 248.573 217.176 249.269 215.88C249.123 215.418 248.224 215.052 247.286 214.789C247.268 214.798 247.251 214.807 247.234 214.815C246.391 215.107 245.504 215.088 244.634 214.906C244.563 215.252 244.671 215.699 245.382 216.111Z" fill="#E9AD9A"/>
<path d="M248.411 216.424C249.614 216.37 250.521 214.708 250.966 213.688C250.353 213.031 248.762 214.046 247.234 214.81C246.828 214.95 246.412 215.015 245.992 215.029C246.456 215.638 247.298 216.473 248.411 216.424Z" fill="#EAC6BD"/>
<path d="M250.817 221.875C250.757 222.39 250.776 223.089 251.163 223.651C251.863 224.67 252.511 226.173 253.854 225.144C253.843 224.568 253.679 224.045 253.435 223.58C253.018 223.335 252.598 223.095 252.234 222.865C251.76 222.565 251.287 222.226 250.817 221.875Z" fill="#E9AD9A"/>
<path d="M252.233 222.867C251.945 222.685 251.656 222.487 251.369 222.281C251.302 222.806 251.362 223.55 252.017 224.163C252.916 225.004 253.75 225.682 255.464 225.826C256.214 224.957 253.746 223.822 252.233 222.867Z" fill="#EAC6BD"/>
<path d="M251.349 232.314C251.633 232.138 251.843 231.707 251.97 231.212C251.055 230.262 250.553 229.15 249.233 228.094C248.963 228.767 248.601 229.965 249.064 230.697C249.689 231.759 250.556 232.5 251.349 232.314Z" fill="#E9AD9A"/>
<path d="M252.049 231.295C251.176 230.422 250.689 229.403 249.606 228.414C249.355 228.803 249.11 229.474 249.403 230.353C249.775 231.406 250.929 232.354 252.12 232.804C252.596 232.356 252.675 231.777 252.049 231.295Z" fill="#EAC6BD"/>
<path d="M246.136 233.195C245.766 233.321 245.355 233.591 245.101 234.17C244.551 235.422 245.124 236.022 245.997 236.436C246.87 236.85 247.935 236.754 248.119 236.43C248.196 236.293 248.26 235.723 248.199 235.092C247.248 234.521 246.94 233.729 246.136 233.195Z" fill="#E9AD9A"/>
<path d="M248.532 235.273C247.552 234.812 247.182 234.135 246.618 233.579C246.026 233.563 245.265 233.797 245.242 235.1C245.271 235.965 247.015 236.762 248.619 237.05C248.842 236.553 248.8 235.924 248.532 235.273Z" fill="#EAC6BD"/>
<path d="M221.227 278.12C219.481 272.983 216.399 262.812 214.755 252.847C213.111 242.882 214.241 240.724 214.241 240.724C214.241 240.724 213.83 239.286 211.771 239.552C208.889 240.024 205.817 239.388 203.043 239.449C200.27 239.51 199.242 240.724 199.345 245.347C199.447 249.97 202.324 261.477 203.762 265.791C205.201 270.106 207.049 277.105 208.135 281.111C209.22 285.118 209.056 286.462 211.419 287.489C215.528 287.284 221.227 288.701 223.563 289.42C224.872 286.749 222.974 283.256 221.227 278.12ZM222.467 288.138C220.707 287.073 214.55 286.147 212.745 286.054C210.939 285.962 210.569 286.054 209.921 284.341C209.041 281.332 207.652 276.286 206.078 271.61C204.504 266.934 202.467 259.435 201.078 253.74C199.69 248.046 199.736 243.509 200.384 241.657C201.032 239.806 203.949 240.222 203.949 240.222C208.763 241.056 212.884 240.176 213.3 240.5C212.097 246.194 213.486 250.268 214.828 256.935C216.171 263.601 221.772 282.906 222.467 284.712C223.161 286.517 222.883 287.86 222.467 288.138Z" fill="#76B0CF"/>
<path d="M201.868 240.938C201.868 240.938 199.466 245.318 201.868 249.77C201.444 247.65 201.021 245.389 201.868 240.938Z" fill="#76B0CF"/>
<path d="M211.126 240.938C211.126 240.938 209.289 250.618 213.458 260.58C212.751 257.613 211.055 250.335 211.126 240.938Z" fill="#76B0CF"/>
<path d="M214.896 265.664C215.223 266.828 215.546 267.992 215.854 269.157L216.792 272.65C217.106 273.813 217.426 274.974 217.757 276.133C218.096 277.289 218.431 278.446 218.801 279.597C217.776 277.403 217.049 275.082 216.409 272.754C215.786 270.418 215.252 268.057 214.896 265.664Z" fill="#76B0CF"/>
<path d="M211.867 121.924C213.036 120.913 214.763 119.181 215.254 117.971C213.811 116.246 211.943 115.383 211.943 115.383C211.943 115.383 212.023 120.443 211.943 121.809C211.924 121.84 211.897 121.881 211.867 121.924Z" fill="#578FA8"/>
<path d="M208.994 79.792C208.994 79.792 209.375 76.0657 211.469 74.0983C213.563 72.1311 216.81 71.4679 218.46 72.3562C220.11 73.2446 222.067 76.129 221.813 80.0636C221.56 83.9982 220.29 86.6 218.767 88.2499C217.244 89.8998 216.823 89.9613 214.579 92.819C213.056 94.7862 210.771 94.4689 210.264 93.7709C209.756 93.0728 208.36 86.9451 208.994 79.792Z" fill="#F4CFB8"/>
<path d="M212.422 92.9483C210.264 93.0764 209.545 88.875 209.545 88.875C209.545 88.875 209.437 89.2923 209.303 89.9067C209.625 92.0313 210.036 93.4565 210.265 93.7719C210.773 94.4699 213.057 94.7872 214.58 92.82C214.69 92.6798 214.795 92.548 214.897 92.4208C214.206 92.6826 213.37 92.8922 212.422 92.9483Z" fill="#E98E73"/>
<path d="M212.422 85.8574C212.422 85.8574 210.663 88.4852 212.099 88.0912C213.536 87.6969 215.113 86.5802 216.295 85.8574C217.478 85.1347 218.529 83.1638 217.018 81.6527C215.507 80.1415 214.39 79.1246 213.142 79.7975C211.894 80.4701 212.288 81.39 212.879 82.244C213.47 83.0979 214.265 84.6748 212.422 85.8574Z" fill="#DD7563"/>
<path d="M212.879 79.219C212.879 79.219 214.989 74.8566 217.767 74.6859C220.546 74.5152 221.026 77.905 220.829 78.562C220.566 79.219 220.237 79.219 219.318 77.5765C218.398 75.9339 217.609 75.4103 216.493 76.3619C215.375 77.3138 212.879 79.219 212.879 79.219Z" fill="#E98E73"/>
<path d="M156.443 53.9035C156.443 53.9035 155.539 58.7956 155.703 61.4293C155.868 64.0628 156.196 69.1286 156.443 70.363C155.455 72.585 155.208 73.5651 155.702 74.6799C156.196 75.7946 157.266 77.9342 157.266 80.6502C157.266 83.3661 156.689 84.8266 156.772 88.1288C156.854 91.431 158.077 98.4938 159.076 101.356C160.075 104.218 179.511 101.994 186.94 105.883C194.37 109.772 207.341 93.2994 207.544 89.5608C207.747 85.8221 212.915 66.3305 208.833 61.0635C204.751 55.7965 206.891 51.4348 203.764 47.0729C200.636 42.7112 200.374 43.2079 196.11 44.4394C191.846 45.6709 189.691 46.9907 181.708 48.6367C173.725 50.2827 171.548 49.9267 164.557 48.2785C157.567 46.6304 157.512 48.9746 157.018 50.6163C156.525 52.2575 156.443 53.9035 156.443 53.9035Z" fill="#F9D0B5"/>
<path d="M157.559 51.6846C157.559 51.6846 158.273 53.6902 161.101 54.1406C163.929 54.591 166.954 53.819 169.463 54.7841C171.973 55.7494 172.577 55.3632 174.752 54.5266C176.927 53.69 179.437 54.3335 184.52 53.1109C189.604 51.8883 197.574 50.3789 199.445 47.9483C199.843 46.4839 196.746 45.0208 196.103 45.0441C195.459 45.0673 173.298 44.4515 170.641 44.4375C167.983 44.4243 158.009 47.5553 157.559 51.6846Z" fill="#EFB69B"/>
<path d="M177.69 72.7165C177.69 72.7165 174.926 75.5441 175.818 76.3592C176.709 77.1743 178.301 78.2568 178.874 78.1294C179.448 78.0019 180.021 76.6113 182.059 75.2369C184.096 73.8625 186.198 73.9706 186.707 73.9166C187.217 73.8627 188.49 71.8248 188.299 70.4874C188.108 69.1505 177.69 72.7165 177.69 72.7165Z" fill="#EFB69B"/>
<path d="M175.877 70.8639C175.877 70.8639 174.396 70.6136 174.704 72.035C175.013 73.4563 175.674 74.1972 177.689 73.8269C179.704 73.4565 184.913 71.9752 188.018 71.296C191.124 70.6171 193.531 70.514 195.444 71.831C195.321 70.9257 192.482 67.7159 189.673 67.8394C186.864 67.9629 178.717 70.185 175.877 70.8639Z" fill="#1C1826"/>
<path d="M160.342 77.5605C162.762 76.4143 167.332 76.1089 168.899 79.7958C168.899 79.7958 169.085 74.8222 166.401 73.3573C163.717 71.8927 158.915 72.6197 158.196 74.6443C157.349 76.4778 158.52 77.1734 157.489 78.1311C157.323 78.2851 157.178 78.4162 157.051 78.5332C157.143 78.9984 157.211 79.4903 157.243 80.0063C157.598 79.9676 157.953 79.6723 158.349 79.7961C158.941 79.9805 157.922 78.7068 160.342 77.5605Z" fill="#EFB69B"/>
<path d="M166.402 71.4166C166.402 71.4166 157.669 67.8982 155.446 70.2438C154.335 71.9722 155.2 73.0215 156.311 72.7129C157.422 72.4043 160.301 72.9597 162.842 73.5153C165.384 74.071 166.557 74.3795 167.236 74.1325C167.298 73.5153 167.42 72.219 166.402 71.4166Z" fill="#1C1826"/>
<path d="M160.598 80.4277C160.598 80.4277 160.711 82.5928 164.443 82.2107C168.176 81.8286 168.217 80.0078 168.217 80.0078C168.217 80.0078 164.546 82.0835 160.598 80.4277Z" fill="#EFB69B"/>
<path d="M180.084 79.5828C179.942 79.4121 187.408 80.1143 189.223 79.2188C189.127 79.9788 187.121 81.8255 184.653 81.5709C182.185 81.3162 181.294 81.0337 180.084 79.5828Z" fill="#EFB69B"/>
<path d="M207.085 80.4062C207.085 80.4062 193.012 89.3606 189.223 103.71C192.439 103.413 198.478 100.61 200.234 99.1139C201.991 97.6182 207.662 89.9406 208.106 88.8759C208.55 87.8112 207.085 80.4062 207.085 80.4062Z" fill="#EFB69B"/>
<path d="M157.023 91.1719C157.448 94.6878 158.325 99.2074 159.075 101.357C159.291 101.974 160.362 102.354 161.984 102.61C161.052 96.8103 158.317 92.7985 157.023 91.1719Z" fill="#EFB69B"/>
<path d="M180.054 78.3894C179.973 78.2926 180.418 76.9152 182.164 76.2433C183.688 75.6454 187.174 75.324 191.105 76.8074C191.105 77.2029 191.241 77.8677 189.232 78.8826C187.603 79.5831 181.661 80.3179 180.054 78.3894Z" fill="#FCF5F3"/>
<path d="M184.186 75.804C183.715 76.29 183.424 76.9516 183.424 77.682C183.424 78.444 183.741 79.131 184.248 79.6221C185.767 79.6351 187.334 79.4202 188.386 79.1532C188.662 78.7298 188.824 78.2253 188.824 77.6823C188.824 77.0475 188.604 76.4649 188.237 76.0039C186.696 75.7181 185.307 75.6916 184.186 75.804Z" fill="#57545D"/>
<path d="M158.494 79.1837C158.494 79.1837 159.947 77.0754 163.51 77.1178C165.59 77.1317 167.471 77.4157 168.497 79.7959C166.929 80.2952 163.611 80.1241 161.751 80.751C160.434 80.9104 159.577 80.8937 158.494 79.1837Z" fill="#FCF5F3"/>
<path d="M166.351 78.5185C166.351 78.1384 166.262 77.7798 166.109 77.4581C165.32 77.1848 164.436 77.1241 163.511 77.1178C162.849 77.11 162.26 77.1767 161.739 77.2903C161.531 77.6523 161.41 78.071 161.41 78.5185C161.41 79.3649 161.836 80.1114 162.486 80.5566C163.44 80.3559 164.6 80.2752 165.696 80.1899C166.101 79.7498 166.351 79.1639 166.351 78.5185Z" fill="#57545D"/>
<path d="M157.977 78.0222C158.302 77.5927 158.69 77.213 159.098 76.8566C159.511 76.5049 159.961 76.195 160.436 75.9247C160.912 75.6555 161.425 75.4469 161.955 75.2969C162.485 75.1384 163.042 75.0853 163.596 75.0781H163.602L163.609 75.0788C164.429 75.1547 165.256 75.3199 166.016 75.667C166.393 75.8434 166.755 76.0611 167.064 76.339C167.374 76.6154 167.641 76.9327 167.853 77.2813C167.58 76.979 167.29 76.6961 166.959 76.4729C166.632 76.2457 166.276 76.0691 165.906 75.9293C165.537 75.7864 165.15 75.6953 164.761 75.6174C164.372 75.5387 163.974 75.5037 163.578 75.4648L163.592 75.4654C163.334 75.4867 163.074 75.4728 162.819 75.5241C162.691 75.5435 162.562 75.5563 162.434 75.5805L162.055 75.6698C161.556 75.811 161.058 75.9773 160.591 76.2209C160.119 76.451 159.665 76.7235 159.228 77.0251C158.789 77.325 158.372 77.6588 157.977 78.0222Z" fill="#7D5343"/>
<path d="M179.396 76.052C179.889 75.1284 180.664 74.3351 181.61 73.8253C182.081 73.5665 182.597 73.3917 183.125 73.2797C183.657 73.1836 184.202 73.1695 184.735 73.206C185.801 73.2997 186.83 73.5757 187.819 73.9328C188.807 74.294 189.762 74.7396 190.662 75.2765C189.694 74.8783 188.71 74.534 187.721 74.227C187.223 74.0854 186.727 73.9375 186.221 73.8373C185.719 73.7216 185.211 73.6457 184.703 73.6018C184.195 73.5596 183.69 73.5724 183.191 73.649C182.694 73.7338 182.21 73.8882 181.75 74.1006C181.291 74.3168 180.858 74.5954 180.464 74.9264C180.065 75.2523 179.707 75.6309 179.396 76.052Z" fill="#7D5343"/>
<path d="M167.513 78.3042C167.513 78.3042 166.186 77.0697 161.896 77.7177C159.396 78.2734 159.55 78.6128 158.841 79.2609C158.902 79.8165 159.89 80.9275 161.865 80.8658C160.538 81.1743 158.686 80.7418 158.1 79.1989C158.47 78.4584 159.828 76.8844 162.637 76.6991C164.674 76.5452 167.112 77.0388 167.513 78.3042Z" fill="#1A1520"/>
<path d="M179.674 77.6482C179.674 77.6482 181.093 75.4261 185.26 75.3026C188.593 75.21 190.075 76.2664 192.328 76.6641C191.34 77.5558 189.674 79.3457 187.297 79.6234C188.439 79.2222 190.322 78.1362 190.908 77.4601C191.093 76.969 185.137 74.5926 179.674 77.6482Z" fill="#1A1520"/>
<path d="M186.123 79.3167C187.026 79.3167 187.758 78.5847 187.758 77.6818C187.758 76.7788 187.026 76.0469 186.123 76.0469C185.22 76.0469 184.488 76.7788 184.488 77.6818C184.488 78.5847 185.22 79.3167 186.123 79.3167Z" fill="#181421"/>
<path d="M165.28 78.5179C165.28 79.2914 164.653 79.9186 163.879 79.9186C163.106 79.9186 162.479 79.2914 162.479 78.5179C162.479 77.7444 163.106 77.1172 163.879 77.1172C164.653 77.1172 165.28 77.7444 165.28 78.5179Z" fill="#181421"/>
<path d="M167.853 75.2969C168.71 77.0666 169.02 79.0742 168.951 81.0408C168.94 81.5349 168.879 82.0255 168.816 82.5156C168.725 83.001 168.647 83.4892 168.511 83.9659C168.4 84.4506 168.235 84.9106 168.09 85.3801L167.64 86.7797C167.331 87.7098 167.013 88.6381 166.687 89.5621C166.524 90.0243 166.367 90.4849 166.223 90.9515C166.085 91.4228 165.912 91.8799 165.863 92.3511C165.808 92.8226 165.856 93.306 166.031 93.7486C166.202 94.1924 166.495 94.5858 166.843 94.9192C167.54 95.5944 168.422 96.0541 169.313 96.4547C168.398 96.1118 167.497 95.6781 166.748 95.0194C166.38 94.6871 166.063 94.2829 165.867 93.8158C165.668 93.35 165.603 92.8315 165.649 92.3296C165.666 92.205 165.679 92.0793 165.699 91.9551L165.784 91.5881C165.85 91.3499 165.921 91.1164 165.991 90.8806C166.132 90.41 166.287 89.9423 166.446 89.4789C166.765 88.5525 167.072 87.6239 167.374 86.6923L167.836 85.2979C167.984 84.8325 168.154 84.3704 168.265 83.8998C168.403 83.4342 168.484 82.9547 168.578 82.4782C168.64 81.9965 168.712 81.5159 168.737 81.0299C168.799 80.06 168.76 79.0823 168.615 78.1183C168.475 77.1545 168.238 76.1981 167.853 75.2969Z" fill="#1E1A28"/>
<path d="M165.752 93.4969C165.752 93.4969 166.472 93.2644 167.881 94.1019C169.179 94.8276 171.276 93.8968 172.684 93.4969C174.091 93.097 176.715 92.6753 177.831 94.2539C178.166 94.6601 179.339 94.2693 178.222 89.8594C179.115 91.7574 179.45 94.3809 178.055 95.0509C176.659 95.7207 175.495 96.4623 175.495 96.4623C175.495 96.4623 171.139 97.5072 170.215 97.2838C169.291 97.0605 166.289 95.0133 165.752 93.4969Z" fill="#DD846A"/>
<path d="M172.109 95.5529C172.109 95.5529 174.012 93.9898 176.591 94.6039C176.38 95.0506 176.126 94.4378 174.817 95.0069C173.507 95.576 172.975 96.0553 172.109 95.5529Z" fill="#1E1A28"/>
<path d="M223.838 53.2707C223.529 48.8881 222.048 44.8141 218.653 41.9747C217.48 40.6166 213.468 36.8514 210.937 37.6539C210.258 34.5058 207.393 28.9505 195.06 26.4814C188.283 25.4321 177.173 26.7282 171.432 26.4814C172.728 26.79 174.889 27.0988 175.815 27.0988C173.469 27.5309 169.271 28.6419 162.358 29.5061C156.185 30 154.396 28.148 156.865 25C154.21 26.111 148.593 31.7282 147.976 39.0119C147.359 46.2957 153.099 48.8263 154.581 49.0116C155.074 50.2462 155.136 51.3572 155.753 51.8511C155.938 53.0856 153.47 54.6905 155.815 63.0235C155.445 59.6902 156 57.3447 156.247 56.7275C156.494 56.1103 158.037 52.9623 158.963 50.1229C161.556 50.4932 168.839 52.2832 170.568 53.3944C171.432 54.1351 172.296 54.5672 173.469 53.7648C174.642 52.9623 177.728 53.0241 182.913 51.9748C188.098 50.9255 192.913 49.7527 197.604 47.9008C199.456 47.1601 200.999 52.592 201.493 53.95C201.678 55.4932 201.493 61.2956 201.493 62.9005C201.801 64.135 205.505 67.098 206.122 70.4311C206.739 73.7644 206.554 79.9987 206.184 84.1344C206.06 87.1589 205.875 89.2577 205.32 90.2454C205.32 89.2579 205.381 88.0849 205.381 88.0849C205.381 88.0849 205.073 88.9491 204.394 91.3564C204.147 90.6157 204.147 90.6157 204.147 90.6157C204.147 90.6157 200.999 96.1093 201.122 95.1834C201.246 94.2574 201.369 93.9488 201.369 93.9488C201.369 93.9488 200.258 95.1834 199.517 97.1586C199.888 95.5537 199.888 95.0599 199.888 95.0599C199.888 95.0599 197.234 98.64 194.271 100.183C194.024 99.8128 191.863 101.664 191.061 102.282C190.999 101.85 191.246 101.664 191.184 101.479C191.123 101.294 189.765 103.208 189.271 102.652C188.777 102.097 184.148 98.8868 180.259 97.7758C177.728 96.9733 174.457 95.5537 173.222 95.5537C172.111 95.6772 172.235 97.4672 168.778 96.2944C166.926 96.9118 166.617 97.6525 165.259 98.3932C163.901 99.1338 162.544 99.9363 161.185 102.344C159.827 101.726 157.914 95.924 157.42 93.7638C157.42 93.7638 157.482 97.6525 157.235 98.2699C157.852 97.9613 157.976 98.6402 157.235 100.554C157.791 100.183 158.161 100.122 158.161 100.122C158.161 100.122 158.122 101.877 158.065 104.17C157.764 104.26 157.328 104.295 156.891 103.992C157.059 104.53 157.583 104.823 158.045 104.957C158.005 106.506 157.958 108.222 157.908 109.778C157.681 110.491 157.407 111.466 156.891 111.945C157.266 111.907 157.594 111.358 157.875 110.788C157.85 111.535 157.824 112.22 157.798 112.803C157.123 113.821 156.891 114.837 156.891 114.837C157.253 114.35 157.533 114 157.753 113.746C157.744 113.889 157.737 114.02 157.729 114.133C157.548 115.448 157.618 116.761 157.843 117.963C157.496 118.484 157.1 119.338 156.891 120.68C157.272 120.172 157.693 119.457 158.063 118.929C158.18 119.365 158.315 119.78 158.467 120.167C158.374 120.746 158.341 121.546 158.498 122.608C158.645 122.277 159.027 122.074 159.399 121.949C159.418 121.977 159.437 122.007 159.457 122.034C159.709 123.043 159.732 123.737 159.939 124.471C159.893 125.68 160.166 127.708 162.072 129.536C161.445 128.491 161.071 127.366 160.934 126.405C162.133 128.194 164.338 132.515 169.951 133.947C175.753 135.429 178.345 133.947 179.395 133.515C180.444 133.083 182.481 132.339 184.765 132.31C187.049 132.281 190.567 129.873 191.925 128.639C193.283 127.404 196.863 123.577 197.48 123.886C197.807 124.376 194.947 127.117 193.69 127.846C195.468 127.066 196.51 126.4 198.406 124.503C200.443 122.466 201.431 121.108 201.431 121.108C201.431 121.108 200.629 123.269 200.196 123.824C201.493 122.405 202.11 121.108 202.48 120.182C202.851 119.256 203.591 117.528 203.9 117.898C203.962 118.454 203.159 119.75 203.159 119.75C203.159 119.75 203.9 119.256 205.258 117.651C206.307 116.355 207.357 115.614 207.912 114.75C208.468 113.886 209.579 113.516 210.134 107.713C210.69 101.911 210.999 95.4917 210.69 93.7633C210.134 92.1584 209.888 89.8746 210.134 87.5908C210.196 86.171 209.826 86.1094 209.641 84.8749C209.455 83.6403 210.999 82.344 209.949 79.9367C209.764 78.8874 210.505 76.4183 212.665 74.3196C214.826 72.2208 219.64 71.5419 220.936 75.6776C221.183 72.9617 221.122 69.6284 221.986 67.4681C222.356 68.3941 222.097 71.491 221.615 72.0975C222.726 70.6779 222.603 69.8137 222.973 65.6779C223.344 61.542 224.146 57.6533 223.838 53.2707Z" fill="#1E1A28"/>
<path d="M170.991 100.32C170.991 100.32 168.073 102.936 165.759 103.339C165.406 104.647 164.4 109.426 163.746 110.232C164.249 109.98 164.702 109.577 164.702 109.577C164.702 109.577 164.734 110.936 164.441 111.841C164.954 112.294 165.708 112.395 166.513 111.841C167.318 111.288 169.381 109.678 169.884 107.967C171.343 108.118 174.311 108.118 175.318 107.716C175.318 108.672 175.606 109.98 177.122 111.187C178.638 112.294 180.721 112.447 181.491 112.22C181.355 112.596 181.053 112.848 181.053 112.848C181.053 112.848 182.914 112.948 184.172 112.244C184.122 112.646 184.172 113.049 184.172 113.049C184.172 113.049 186.838 112.747 186.939 112.345C185.178 110.634 183.267 106.257 182.16 103.44C179.544 103.288 173.657 102.081 170.991 100.32Z" fill="#F4CFB8"/>
<path d="M149.65 38.1406C149.65 38.1406 152.863 43.0673 157.308 45.0486C161.753 47.0299 169.032 49.9364 170.213 51.9566C168.071 51.5817 166.144 50.0823 162.984 49.0113C159.825 47.9403 151.578 44.6202 149.65 38.1406Z" fill="#623637"/>
<path d="M155.115 26.625C155.115 26.625 153.133 28.5528 152.919 30.0522C151.687 30.9091 149.897 33.3929 150.616 36.853C151.336 40.3131 154.686 41.4583 155.864 41.7797C153.401 39.8519 151.848 36.2104 152.437 33.6937C152.544 35.7822 153.776 38.7274 157.417 41.3513C159.988 43.2791 167.859 47.1883 169.734 50.4548C169.68 49.3303 169.091 47.9379 167.056 46.278C165.021 44.6178 160.255 42.1011 159.131 40.334C161.701 40.7089 170.858 43.4935 172.947 46.278C175.036 49.0626 174.928 51.0439 174.875 51.6865C175.624 50.4013 175.357 47.0813 172.572 44.0824C169.787 41.0836 166.307 39.3165 163.308 37.8171C160.309 36.3176 152.276 33.3188 155.115 26.625Z" fill="#623637"/>
<path d="M155.328 29.0859C155.328 29.0859 156.613 34.1731 162.557 35.0836C168.501 35.9939 177.712 38.2967 181.835 43.4373C184.299 46.5432 183.174 50.1846 181.835 51.0949C182.906 51.0414 184.674 50.2381 185.048 48.0426C185.423 45.8471 183.71 39.9031 177.337 37.0647C170.965 34.2266 165.61 32.1381 160.63 31.9776C157.952 31.9241 156.292 30.05 155.328 29.0859Z" fill="#623637"/>
<path d="M193.69 127.844C193.558 127.901 193.423 127.96 193.283 128.019C193.382 128.003 193.522 127.941 193.69 127.844Z" stroke="#F4CFB8" stroke-width="1.2891" stroke-miterlimit="10"/>
<path d="M193.69 127.844C193.558 127.901 193.423 127.96 193.283 128.019C193.382 128.003 193.522 127.941 193.69 127.844Z" stroke="#F4CFB8" stroke-width="1.2891" stroke-miterlimit="10"/>
<path d="M194.687 29.4061C188.819 26.6389 180.592 27.9073 176.529 26.4375C174.6 26.5062 172.852 26.5397 171.433 26.4786C172.729 26.7872 174.89 27.096 175.816 27.096C173.47 27.5281 169.272 28.6391 162.359 29.5033C160.661 29.6392 159.297 29.5966 158.26 29.3992C158.879 30.0261 160.423 30.9488 164.271 31.7621C170.858 33.1543 176.802 34.6538 180.55 37.2777C180.282 36.2067 177.873 34.1181 174.552 32.9669C177.819 33.9039 185.102 36.046 188.583 40.0891C192.063 44.1322 193.134 47.3987 190.35 49.4336C189.746 49.9594 189.298 50.3458 188.986 50.6133C190.66 50.1929 192.303 49.7328 193.924 49.2107C194.877 48.1035 196.561 45.5564 195.33 42.4186C193.67 38.188 189.493 33.69 181.3 31.2802C184.727 32.0835 191.699 33.7435 195.764 40.9729C196.89 43.5637 196.608 46.6922 195.176 48.7929C195.99 48.5122 196.8 48.2155 197.605 47.8976C197.796 47.8213 197.983 47.8137 198.166 47.8572C199.966 46.5687 201.706 44.7715 202.291 43.1684C203.255 40.0088 203.416 34.3863 194.687 29.4061ZM180.207 29.5409C180.207 29.5409 199.699 30.6096 199.443 42.4503C198.802 40.2276 195.596 31.8493 180.207 29.5409Z" fill="#623637"/>
<path d="M207.349 70.7474C206.593 67.7222 202.717 63.1848 202.738 61.6723C203.232 57.9854 203.19 55.9058 202.15 53.448C200.255 49.1359 199.096 48.0068 198.411 47.9531C199.894 48.6964 201.074 52.7978 201.494 53.9532C201.679 55.4963 201.494 61.2987 201.494 62.9036C201.802 64.1382 205.506 67.1011 206.123 70.4342C206.74 73.7675 206.555 80.0018 206.185 84.1376C206.061 87.1621 205.876 89.2608 205.321 90.2486C205.321 89.261 205.382 88.088 205.382 88.088C205.382 88.088 205.074 88.9522 204.395 91.3596C204.148 90.6189 204.148 90.6189 204.148 90.6189C204.148 90.6189 201 96.1125 201.123 95.1865C201.247 94.2606 201.37 93.952 201.37 93.952C201.37 93.952 200.259 95.1865 199.518 97.1618C199.889 95.5569 199.889 95.063 199.889 95.063C199.889 95.063 197.235 98.6431 194.272 100.186C194.025 99.8159 191.864 101.668 191.062 102.285C191 101.853 191.247 101.668 191.185 101.483C191.141 101.349 190.422 102.305 189.839 102.64C189.832 102.787 189.827 102.933 189.826 103.078C190.454 104.496 191.278 103.834 192.035 104.78C198.085 102.511 201.488 97.9731 202.339 95.9881C202.622 96.6499 202.738 97.8788 202.738 97.8788C202.738 97.8788 203.095 96.2717 203.473 94.4756C203.851 92.6796 205.553 92.6796 206.026 93.1521C206.309 93.0575 206.498 90.9779 206.498 90.9779C206.498 90.9779 206.593 92.396 207.254 92.3014C207.822 89.5601 208.105 73.773 208.105 73.773C208.105 73.773 208.105 73.7725 207.349 70.7474Z" fill="#623637"/>
<path d="M167.91 98.0777C167.86 97.5797 166.814 98.3765 166.416 98.7749C166.57 98.3387 166.498 97.9598 166.249 97.7578C165.968 97.9701 165.663 98.1853 165.268 98.4009C163.91 99.1415 162.552 99.944 161.194 102.351C161.185 102.347 161.175 102.34 161.166 102.335C161.007 102.736 160.729 103.157 160.242 103.505C158.848 104.501 158.35 104.401 158.35 104.401C158.35 104.401 159.598 104.8 161.364 103.505C160.291 105.098 159.07 105.643 158.549 105.795C159.246 106.492 160.292 106.691 162.682 105.098C161.885 105.945 161.138 106.642 160.292 106.94C162.482 106.691 164.076 104.65 164.773 103.654C164.026 103.953 164.275 103.156 164.773 102.659C165.271 102.161 165.818 101.385 166.167 100.329C166.515 99.2727 167.013 98.7251 167.461 98.3765C166.963 99.4221 166.963 99.7415 166.914 100.329C167.511 99.1233 168.711 97.9781 168.908 97.8287C169.105 97.6793 168.358 97.7789 167.91 98.0777Z" fill="#623637"/>
<path d="M204.133 104.115C200.105 106.893 196.772 106.662 193.284 105.643C189.797 104.624 186.448 101.662 183.902 100.088C182.684 99.3349 181.033 98.3707 179.641 97.5691C178.534 97.1955 177.336 96.7423 176.251 96.3594C175.896 96.5821 175.543 96.8824 175.615 97.1712C175.384 97.0785 174.412 96.9396 174.408 97.4952C174.126 97.4952 173.254 97.2175 173.208 97.4952C173.162 97.7729 173.162 98.3285 173.162 98.3285C173.162 98.3285 172.421 97.9119 172.005 98.0045C171.866 98.4212 171.773 98.7915 172.421 99.8562C173.579 101.199 176.912 101.94 176.912 101.94C176.912 101.94 176.773 101.43 176.542 99.9952C176.31 98.5601 179.134 102.588 179.134 102.588C179.134 102.588 178.856 102.125 178.579 101.014C179.551 102.356 180.556 102.958 180.556 102.958C180.556 102.958 180.338 102.588 180.291 102.032C181.078 102.727 181.773 103.19 181.773 103.19C181.773 103.19 181.402 102.356 181.078 101.153C181.958 101.893 185.199 107.958 191.448 108.652C198.022 109.393 202.559 105.967 204.133 104.115Z" fill="#623637"/>
<path d="M170.032 109.016C170.032 109.016 167.918 112.127 166.402 112.526C167.758 112.486 169.792 110.611 170.032 109.016Z" fill="#623637"/>
<path d="M170.91 109.5C170.91 109.5 169.075 111.215 168.477 112.531C169.872 111.654 170.83 110.058 170.91 109.5Z" fill="#623637"/>
<path d="M171.903 109.297C171.903 109.297 170.748 111.77 169.691 112.528C171.028 111.969 172.699 110.254 171.903 109.297Z" fill="#623637"/>
<path d="M172.703 109.297C172.703 109.297 172.384 111.77 174.338 112.528C174.418 111.65 174.099 110.174 172.703 109.297Z" fill="#623637"/>
<path d="M175.535 111.016C175.535 111.016 175.016 113.249 177.688 114.885C177.409 114.206 176.372 111.853 175.535 111.016Z" fill="#623637"/>
<path d="M177.211 111.852C177.211 111.852 178.049 112.33 179.085 114.005C180.123 115.68 180.601 115.282 180.721 116C180.84 116.718 182.555 115.642 177.211 111.852Z" fill="#623637"/>
<path d="M170.992 100.32C170.992 100.32 168.074 102.936 165.76 103.339C165.57 104.042 165.192 105.748 164.781 107.3C165.207 106.844 165.792 106.187 166.143 105.66C166.743 104.759 167.849 104.073 168.476 104.073C169.103 104.073 172.706 104.159 173.821 103.859C174.936 103.558 176.652 103.859 178.068 104.545C179.483 105.231 180.856 104.588 181.328 105.317C181.72 105.923 182.5 107.267 184.081 107.853C183.335 106.324 182.664 104.721 182.161 103.44C179.545 103.288 173.658 102.081 170.992 100.32Z" fill="#1E1A28"/>
<path d="M181.307 111.724C180.082 111.76 177.725 110.054 176.954 109.496C176.183 108.938 176.319 107.969 177.122 107.561C178.062 107.243 179.142 106.064 179.142 106.064C179.142 106.064 178.042 106.835 176.591 107.198C174.233 107.696 170.061 107.561 168.701 107.561C167.341 107.561 167.023 106.699 166.401 105.883C166.64 106.88 167.296 107.515 168.475 107.852C168.475 108.778 168.338 109.782 166.978 111.012C166.104 111.802 165.1 111.78 164.493 111.663C164.477 111.724 164.46 111.784 164.441 111.841C164.954 112.294 165.708 112.394 166.513 111.841C167.318 111.287 169.381 109.678 169.884 107.967C171.343 108.118 174.312 108.118 175.318 107.715C175.318 108.671 175.606 109.979 177.122 111.187C178.245 112.007 179.679 112.302 180.66 112.308C180.966 112.073 181.197 111.864 181.307 111.724Z" fill="#1E1A28"/>
<path d="M244.415 318.908C244.151 318.459 243.777 317.973 243.458 317.589C243.361 317.586 243.263 317.585 243.161 317.586C240.753 318.234 235.476 319.994 229.272 321.197C223.069 322.401 208.347 325.642 204.644 325.92C200.94 326.197 200.945 326.568 195.063 327.308C189.181 328.049 169.143 330.191 158.218 330.746C150.162 331.024 137.701 330.827 127.239 327.493C126.96 327.411 126.639 327.346 126.299 327.308C126.048 328.746 125.582 331.823 125.754 333.984C125.985 336.89 126.4 339.043 126.4 339.043C129.61 340.154 155.38 345.997 185.693 341.356C197.943 339.481 207.761 337.409 216.556 335.61C225.689 333.742 238.407 329.808 242.481 329.314C242.559 329.56 243.072 329.128 243.498 328.633C244.893 327.492 244.961 319.839 244.415 318.908Z" fill="#4A2F41"/>
<path d="M168.806 337.138C169.254 337.138 169.617 336.775 169.617 336.327C169.617 335.879 169.254 335.516 168.806 335.516C168.357 335.516 167.994 335.879 167.994 336.327C167.994 336.775 168.357 337.138 168.806 337.138Z" fill="#31202D"/>
<path d="M160.579 331.963C160.579 331.963 160.172 330.171 161.393 330.008C162.208 329.845 162.452 330.823 162.289 332.615C162.126 334.406 163.348 340.108 164.081 341.818C164.566 343.097 163.721 343.444 166.49 343.118C169.26 342.792 176.772 342.785 177.52 342.372C178.035 341.412 177.357 337.339 177.032 335.547C176.706 333.755 175.419 330.262 175.737 329.361C176.054 328.461 177.556 329.306 177.742 330.838C177.928 332.37 178.565 335.506 179.312 338.805C180.059 342.103 181.348 344.506 177.928 344.832C174.507 345.158 169.213 346.135 165.955 346.217C162.697 346.298 162.941 344.832 162.127 341.167C161.312 337.501 160.579 331.963 160.579 331.963Z" fill="#C7BBC1"/>
<path d="M169.336 335.73L177.52 334.812V335.79L169.485 336.916C169.126 336.966 168.805 336.687 168.805 336.324C168.805 336.02 169.033 335.764 169.336 335.73Z" fill="#C7BBC1"/>
<path d="M137.36 329.247C137.36 329.247 136.557 339.555 137.051 345.789C137.977 345.851 139.212 345.789 139.212 345.789C139.212 345.789 139.088 331.345 140.076 329.555C139.582 329.123 137.977 329.185 137.36 329.247Z" fill="#954C51"/>
<path d="M199.977 325.854C199.977 325.854 201.938 336.025 200.921 341.764C201.793 342.127 204.699 341.328 205.207 340.456C205.715 339.584 204.699 326.218 204.19 325.419C203.609 325.273 202.083 325.201 199.977 325.854Z" fill="#954C51"/>
<path d="M238.914 318.229C238.914 318.229 240.149 325.638 238.914 332.322C239.931 332.685 242.11 331.45 242.256 330.941C242.401 330.433 242.183 319.12 241.529 317.585C241.094 317.357 239.41 317.495 238.914 318.229Z" fill="#954C51"/>
<path d="M160.578 331.962C160.578 331.962 159.545 329.766 161.835 329.565C164.126 329.363 171.134 328.832 173.162 328.036C175.19 327.239 177.083 328.177 177.484 329.999C177.804 331.304 176.45 329.973 174.039 329.856C171.628 329.739 163.418 330.401 161.736 331.962C161.383 332.638 160.578 331.962 160.578 331.962Z" fill="#C7BBC1"/>
</g>
<defs>
<clipPath id="clip0_4410_45715">
<rect width="364" height="364" rx="48" fill="white"/>
</clipPath>
</defs>
</svg>
