<svg width="275" height="172" viewBox="0 0 275 172" fill="none" xmlns="http://www.w3.org/2000/svg">
<path d="M233.423 120.74C233.115 120.74 232.805 120.729 232.491 120.708L232.773 116.484C239.987 116.967 245.839 109.047 250.195 92.9584C251.092 89.6525 251.9 86.0544 252.817 81.2954C254.581 72.1455 257.036 65.3195 260.778 59.1615C264.976 52.2528 269.317 45.1097 270.595 37.08C271.154 33.5694 269.049 18.6598 265.12 17.4256C264.509 17.235 261.131 16.9554 254.628 30.3377C254.026 32.1469 248.79 46.5518 233.155 50.5506L232.105 46.4495C246.104 42.8686 250.594 29.0542 250.637 28.9159L250.752 28.623C256.53 16.6905 261.5 11.8503 266.389 13.3853C274.008 15.7804 275.313 34.3795 274.776 37.7471C273.366 46.5979 268.806 54.1034 264.395 61.3613C260.927 67.0694 258.638 73.4649 256.974 82.0977C256.036 86.9629 255.206 90.6555 254.282 94.0669C249.49 111.771 242.473 120.74 233.423 120.74Z" fill="#F1F2F2"/>
<path d="M41.4147 119.119C29.8712 119.119 24.7444 104.994 22.5211 98.8679C20.4588 93.1872 17.5755 87.048 14.5234 80.5486C5.84691 62.0722 -3.98732 41.1296 1.66919 22.4938C3.63072 16.0311 6.32734 12.7518 9.91294 12.4714C14.5047 12.1144 19.273 17.0014 24.1147 26.9997L24.1843 27.145L24.2319 27.2973C24.2741 27.4316 28.7635 41.246 42.7614 44.8261L41.7123 48.9289C26.0778 44.9285 20.8416 30.5267 20.2401 28.7143C15.8124 19.6136 12.0916 16.5593 10.2434 16.6928C8.68806 16.8147 7.03977 19.3762 5.72036 23.7234C0.53647 40.8023 10.0028 60.9621 18.3559 78.748C21.4501 85.3372 24.3725 91.5608 26.5004 97.4228C29.7392 106.344 34.1318 115.39 42.0959 114.86L42.3763 119.086C42.0521 119.108 41.7303 119.119 41.4147 119.119Z" fill="#F1F2F2"/>
<path d="M223.7 53.9645C204.944 48.1252 177.866 27.224 177.866 27.224C158.898 12.8183 136.759 13.8065 122.932 16.5304C112.599 18.5646 104.407 24.0555 95.6427 29.5753C74.9587 42.6038 60.4202 48.2611 51.2305 50.6913L51.443 52.4326C51.443 52.4326 53.3592 55.5206 54.3919 61.2146C60.7257 60.4256 67.0376 59.5545 73.3456 58.482C90.1948 55.6135 106.093 49.0196 123.117 46.926C139.351 44.9286 156.535 45.0723 172.027 50.91C172.027 50.91 208.159 61.4333 222.468 62.1137C223.085 57.3142 223.699 54.7245 223.699 54.7245V53.9645H223.7Z" fill="#89D1F5"/>
<path d="M222.472 62.1002C222.47 62.108 222.47 62.1135 222.469 62.1198C208.159 61.4394 172.028 50.9161 172.028 50.9161C156.536 45.0784 139.352 44.9354 123.117 46.9321C106.094 49.0257 90.1946 55.6196 73.3461 58.488C67.0381 59.5606 60.7262 60.4316 54.3924 61.2206C55.326 66.3655 55.5306 73.6429 52.9473 82.7123C67.5373 81.832 82.2461 81.6913 96.7369 83.7193C112.063 85.8628 126.585 94.0253 142.046 94.4667C153.265 94.787 178.611 87.9689 189.686 86.4675C205.08 84.3817 206.171 84.2341 221.221 83.2678C221.211 74.1686 221.843 66.9834 222.472 62.1002Z" fill="#89D1F5"/>
<path d="M189.686 86.4608C178.61 87.9623 153.265 94.7804 142.046 94.4601C126.585 94.0195 112.062 85.8562 96.7365 83.7127C82.2465 81.6847 67.5369 81.8253 52.9469 82.7057C52.8305 83.1158 52.7157 83.5252 52.5876 83.9431C52.5876 83.9431 50.5791 89.4996 48.9473 96.8521C64.8442 96.3576 80.9208 112.099 96.7365 114.313C112.062 116.456 126.585 124.619 142.046 125.06C153.265 125.381 178.611 118.561 189.686 117.061C205.25 114.953 206.188 100.04 221.722 97.2661C221.371 92.2041 221.224 87.5225 221.221 83.2611C206.171 84.2267 205.08 84.3751 189.686 86.4608Z" fill="#89D1F5"/>
<path d="M189.687 117.064C178.611 118.564 153.266 125.384 142.047 125.063C126.586 124.623 112.063 116.46 96.7375 114.316C80.9218 112.102 64.8452 96.3614 48.9483 96.8551C47.9741 101.246 47.1351 106.277 46.9375 111.147C61.9853 118.487 74.7396 134.433 87.6204 142.77C103.896 153.301 123.913 157.382 143.093 157.382C166.362 157.382 188.344 147.846 206.719 134.064C212.655 129.614 218.378 124.768 224.641 120.919C223.127 112.348 222.218 104.429 221.722 97.2684C206.189 100.043 205.251 114.956 189.687 117.064Z" fill="#89D1F5"/>
<path d="M226.754 131.498C225.945 127.873 225.245 124.346 224.64 120.92C218.376 124.77 212.653 129.615 206.718 134.066C188.343 147.847 166.361 157.384 143.091 157.384C123.912 157.384 103.894 153.302 87.6191 142.772C74.7383 134.434 61.984 118.488 46.9362 111.148C46.7659 115.361 47.0753 119.453 48.1947 122.906L48.1197 125.495C62.6558 133.071 75.0766 148.404 87.6191 156.521C103.895 167.054 123.912 171.134 143.091 171.134C166.361 171.134 188.343 161.598 206.718 147.816C213.43 142.783 219.869 137.244 227.128 133.215L226.754 131.498Z" fill="white"/>
<path d="M236.304 54.7275C221.409 60.8379 177.866 27.2278 177.866 27.2278C158.898 12.8221 136.76 13.8103 122.933 16.5342C112.6 18.5684 104.407 24.0593 95.6434 29.5791C55.908 54.6088 38.8393 52.4364 38.8393 52.4364L37.1191 38.3048C37.1191 38.3048 55.908 39.7133 95.6434 14.6836C104.407 9.16383 112.599 3.67061 122.933 1.63877C136.76 -1.08285 158.898 -2.07341 177.866 12.3323C177.866 12.3323 221.408 45.9424 236.304 39.8321V54.7275Z" fill="white"/>
<path d="M236.301 54.7274V39.8319C233.153 41.1224 228.723 40.6358 223.697 39.0703V53.9674V54.7274C223.697 54.7274 216.44 85.2816 226.752 131.498L227.125 133.214C230.743 131.205 234.563 129.57 238.723 128.562C229.355 83.9942 236.301 54.7274 236.301 54.7274Z" fill="white"/>
<path d="M51.442 52.4423L51.26 50.694L49.7711 36.3594C41.2617 38.6209 37.1183 38.3107 37.1183 38.3107L38.8385 52.4423C38.8385 52.4423 46.0933 64.0911 39.9829 83.9533C39.9829 83.9533 31.6759 106.934 35.1294 121.261C39.6657 121.815 43.9786 123.342 48.1196 125.501L48.1946 122.912C43.6115 108.779 52.5864 83.9541 52.5864 83.9541C58.6968 64.0912 51.442 52.4423 51.442 52.4423Z" fill="white"/>
<path d="M145.674 45.8737C145.388 43.7739 119.808 40.3672 119.474 38.3057C119.06 35.738 143.881 34.5248 143.396 32.018C143.118 30.5791 173.433 28.384 172.138 27.7356C157.276 20.305 141.754 24.1867 141.34 22.4384C140.739 19.8855 140.098 17.3733 139.424 14.8985C133.271 14.8892 127.623 15.611 122.934 16.5359C112.6 18.5701 104.408 24.0609 95.6439 29.5807C74.9599 42.6092 60.4214 48.2665 51.2316 50.6967L51.4441 52.438C51.4441 52.438 53.3603 55.526 54.3931 61.22C55.3266 66.3648 55.5312 73.6423 52.9479 82.7117C52.8315 83.1219 52.7167 83.5312 52.5885 83.9491C52.5885 83.9491 50.5801 89.5056 48.9483 96.858C47.9741 101.249 47.1351 106.28 46.9375 111.15C61.9853 118.49 74.7396 134.436 87.6204 142.773C102.401 152.336 120.269 156.581 137.792 157.28C138.254 155.749 101.755 149.323 102.189 147.761C102.638 146.147 140.019 149.397 140.437 147.749C140.755 146.495 127.816 145.229 128.117 143.954C128.336 143.022 157.711 140.05 157.921 139.107C159.087 133.874 144.188 130.524 145.037 125.006C145.482 122.109 133.78 116.642 134.134 113.676C134.787 108.195 147.384 105.135 147.709 99.4469C147.808 97.6955 162.376 95.2754 162.444 93.5068C162.491 92.2843 148.047 91.7171 148.077 90.486C148.139 88.0909 148.171 85.6802 148.171 83.2539C148.171 80.7986 127.614 77.3325 127.551 74.9046C127.288 64.5775 146.995 55.5502 145.674 45.8737Z" fill="#65B3E3"/>
<path d="M104.455 59.2427C120.085 61.7432 136.077 62.4284 151.838 60.8246C167.233 59.2591 181.403 57.6022 196.912 59.7044C204.526 60.7371 214.854 61.3768 222.096 65.3179C222.218 64.1555 222.344 63.0798 222.47 62.1003C222.469 62.1081 222.468 62.1135 222.467 62.1198C208.158 61.4393 172.026 50.9161 172.026 50.9161C156.534 45.0784 139.35 44.9354 123.115 46.9321C106.092 49.0256 90.1928 55.6196 73.3443 58.4881C67.0363 59.5606 60.7244 60.4316 54.3906 61.2206C54.4992 61.8198 54.5969 62.4502 54.6828 63.108C70.8172 59.1044 88.1515 56.6351 104.455 59.2427Z" fill="#2291C9"/>
<path d="M188.904 93.1288C193.841 92.4148 198.483 91.9781 203.027 89.7627C204.387 89.0987 205.378 87.6707 206.685 86.8895C209.649 85.1209 213.312 84.3976 216.836 83.5469C205.781 84.2835 203.429 84.5999 189.685 86.4622C181.831 87.527 166.802 91.2633 154.721 93.235C161.126 93.3467 170.246 93.5037 170.246 93.5037C176.46 93.1475 182.688 93.1288 188.904 93.1288Z" fill="#2291C9"/>
<path d="M139.766 139.012C150.984 139.417 178.609 122.731 189.684 120.842C200.501 118.998 204.252 109.367 210.748 102.492C204.254 107.954 200.498 115.598 189.684 117.063C178.608 118.563 153.263 125.382 142.044 125.062C126.582 124.621 112.06 116.458 96.7345 114.315C87.4776 113.019 78.1308 107.092 68.7832 102.495C78.1308 108.285 87.4776 115.752 96.7345 117.382C112.06 120.083 124.305 138.457 139.766 139.012Z" fill="#2291C9"/>
<path d="M86.4073 85.6661C89.5601 86.6199 92.7637 87.4011 95.9861 88.083C99.1944 88.7619 102.455 88.9509 105.697 89.3235C112.772 90.1336 119.371 93.0505 126.39 94.1207C133.324 95.1785 140.42 95.6112 147.423 95.0956C151.433 94.8011 155.38 94.1067 159.322 93.3317C159.211 93.3271 159.101 93.3177 158.991 93.3122C157.521 93.288 156.062 93.2614 154.721 93.2388C154.727 93.2372 154.733 93.2357 154.739 93.2357C149.779 94.0458 145.313 94.5582 142.046 94.4652C127.074 94.0379 112.981 86.3699 98.1851 83.9373C97.7023 83.8654 97.2203 83.785 96.7368 83.7178C95.8939 83.5991 95.0494 83.4905 94.205 83.3866C93.9277 83.353 93.6496 83.3225 93.3723 83.2889C92.8051 83.2233 92.238 83.1577 91.6701 83.0983C91.3389 83.0632 91.0068 83.0296 90.6756 82.9976C90.1577 82.9444 89.6398 82.8952 89.1227 82.8491C88.7743 82.8171 88.4243 82.7866 88.0751 82.7577C87.5705 82.7148 87.065 82.6757 86.5588 82.6374C86.2073 82.6117 85.8558 82.5843 85.5035 82.5593C84.9762 82.5226 84.4481 82.4906 83.9216 82.4601C83.5966 82.4406 83.2716 82.4187 82.9467 82.4007C82.1522 82.3562 81.357 82.3187 80.5617 82.2851C80.1227 82.2672 79.6845 82.2531 79.2455 82.2374C78.8517 82.2234 78.458 82.2086 78.0635 82.1961C77.5792 82.182 77.0941 82.1703 76.6098 82.1593C76.2692 82.1515 75.9286 82.1445 75.588 82.1383C75.0732 82.1289 74.5584 82.1219 74.0428 82.1156C73.7491 82.1125 73.4554 82.1109 73.1609 82.1078C72.6039 82.1047 72.0461 82.1016 71.4892 82.1016C71.2931 82.1016 71.0962 82.1015 70.9001 82.1031C67.1833 82.1125 63.4649 82.2054 59.752 82.3625C67.2169 83.0069 85.4449 84.6716 86.4073 85.6661Z" fill="#2291C9"/>
<path opacity="0.2" d="M151.839 55.9733C136.078 57.577 120.263 53.5461 104.456 54.3914C96.5712 54.8124 88.4977 56.5107 80.4609 58.6066C88.5321 57.9051 96.6126 57.9824 104.456 59.237C120.086 61.7375 136.078 62.4227 151.839 60.8189C164.174 59.5651 175.724 58.2574 187.805 58.866C175.781 56.8732 163.805 54.7554 151.839 55.9733Z" fill="#231F20"/>
<path opacity="0.2" d="M121.767 90.4875C113.946 88.0878 106.167 85.2513 98.1837 83.9389C97.701 83.8671 97.219 83.7866 96.7354 83.7194C95.8925 83.6007 95.0481 83.4921 94.2036 83.3882C93.9263 83.3546 93.6482 83.3241 93.3709 83.2905C92.8038 83.2249 92.2366 83.1593 91.6687 83.1C91.3375 83.0648 91.0055 83.0312 90.6743 82.9992C90.1564 82.9461 89.6385 82.8968 89.1213 82.8507C88.7729 82.8187 88.4229 82.7882 88.0738 82.7593C87.8058 82.7367 87.5363 82.7164 87.2676 82.6953L97.5533 86.0903C97.5533 86.0903 111.169 90.2821 121.767 90.4875Z" fill="#231F20"/>
<path opacity="0.2" d="M193.583 89.0012C198.283 88.4121 201.153 86.8623 204.434 84.5625C200.701 84.9687 196.661 85.5147 189.685 86.4608C184.799 87.1232 177.136 88.8191 169.133 90.4807C174.944 90.4807 182.63 90.4807 182.635 90.4807C186.234 90.4807 190.018 89.448 193.583 89.0012Z" fill="#231F20"/>
<path opacity="0.2" d="M189.685 117.063C178.61 118.563 153.265 125.383 142.045 125.063C126.584 124.622 112.062 116.459 96.7363 114.315C93.867 113.914 90.9884 113.065 88.1035 111.952C91.868 113.595 95.6247 114.882 99.3657 115.405C114.692 117.549 126.584 129.468 142.045 129.91C153.265 130.23 178.611 118.756 189.685 117.254C200.02 115.855 203.911 108.812 209.904 103.423C210.18 103.109 210.462 102.798 210.75 102.492C204.256 107.954 200.5 115.599 189.685 117.063Z" fill="#231F20"/>
<path d="M43.0645 42.1612C51.4324 40.8105 68.7339 35.9852 95.6392 19.0368C104.402 13.5154 112.595 8.02374 122.929 5.99033C136.756 3.26871 158.893 2.27815 177.862 16.6838C177.862 16.6838 215.238 46.2709 232.295 44.9281" stroke="#BCBEC0" stroke-width="0.6742" stroke-miterlimit="10" stroke-dasharray="3.1 3.1"/>
<path d="M48.5 46.8441C58.021 44.4748 73.6117 38.7245 95.6409 24.8493C104.404 19.3279 112.596 13.8362 122.931 11.8028C136.757 9.0812 158.895 8.09069 177.864 22.4964C177.864 22.4964 210.189 47.4479 228.663 50.4461" stroke="#BCBEC0" stroke-width="0.6742" stroke-miterlimit="10" stroke-dasharray="3.1 3.1"/>
<path d="M234.162 122.634C226.572 81.4147 232.908 54.7227 232.908 54.7227L232.892 46.7188" stroke="#BCBEC0" stroke-width="0.6742" stroke-miterlimit="10" stroke-dasharray="3.1 3.1"/>
<path d="M229.561 122.631C222.518 82.5174 228.656 56.6659 228.656 56.6659L228.678 51.5625" stroke="#BCBEC0" stroke-width="0.6742" stroke-miterlimit="10" stroke-dasharray="3.1 3.1"/>
<path d="M41.5056 42.5078L42.7133 52.428C42.7133 52.428 49.9681 64.0769 43.8578 83.9391C43.8578 83.9391 36.6444 103.894 38.4559 118.207" stroke="#BCBEC0" stroke-width="0.6742" stroke-miterlimit="10" stroke-dasharray="3.1 3.1"/>
<path d="M47.0426 48.1719L47.5597 52.4238C47.5597 52.4238 54.8145 64.0727 48.7041 83.9349C48.7041 83.9349 43.8187 100.126 43.0664 113.897" stroke="#BCBEC0" stroke-width="0.6742" stroke-miterlimit="10" stroke-dasharray="3.1 3.1"/>
<path d="M234.624 125.07L227.125 128.847C219.866 132.876 213.427 138.416 206.715 143.448C188.34 157.23 166.358 166.766 143.088 166.766C123.909 166.766 103.891 162.686 87.6162 152.154C75.0744 144.035 62.6529 128.703 48.1167 121.126L39.1973 117.352" stroke="#BCBEC0" stroke-width="0.6742" stroke-miterlimit="10" stroke-dasharray="3.1 3.1"/>
<path d="M227.126 123.999C219.867 128.028 213.428 133.567 206.716 138.6C188.341 152.382 166.359 161.918 143.089 161.918C123.91 161.918 103.892 157.838 87.6173 147.305C75.0755 139.187 62.654 123.855 48.1179 116.279L42.998 113.836" stroke="#BCBEC0" stroke-width="0.6742" stroke-miterlimit="10" stroke-dasharray="3.1 3.1"/>
</svg>
