<svg width="364" height="364" viewBox="0 0 364 364" fill="none" xmlns="http://www.w3.org/2000/svg">
<g clip-path="url(#clip0_4350_22416)">
<path d="M312.293 152.534C314.77 145.007 316.504 161.909 319.795 153.069C323.085 144.22 322.568 157.469 327.202 149.258C327.651 148.47 328.063 147.647 328.445 146.807C328.836 145.507 329.168 144.233 329.422 143.002C331.177 134.482 331.434 122.921 327.85 117.676C327.515 117.185 327.151 116.759 326.76 116.395C325.735 115.652 324.632 115.44 323.481 115.764C320.79 116.522 318.006 120.079 315.643 125.781C314.539 128.445 313.288 132.263 311.989 136.525C311.548 139.446 311.05 142.533 310.194 146.355C308.064 155.87 309.826 160.058 312.293 152.534ZM321.598 119.291C325.211 114.884 328.833 125.832 328.771 131.789C328.709 137.747 324.668 137.981 324.613 130.107C324.558 122.234 322.701 126.509 319.629 135.543C316.557 144.577 311.767 131.284 321.598 119.291Z" fill="#F1EDD1"/>
<path d="M236.492 232.986C227.611 224.493 251.338 227.911 238.285 219.715C233.399 216.656 231.13 213.909 230.203 211.684C228.431 209.743 227.089 207.581 226.268 205.273C224.418 200.076 225.186 194.367 228.488 188.761C235.187 177.391 248.299 181.427 259.868 184.989C262.25 185.722 264.499 186.415 266.67 186.971C269.871 187.792 272.999 188.852 275.981 190.099C280.014 189.498 281.99 187.684 274.861 183.272C261.01 174.698 273.254 174.754 266.314 165.022C259.363 155.282 265.344 152.492 272.571 132.005C279.798 111.518 275.463 141.477 280.705 126.727C282.206 122.508 283.781 117.63 285.269 112.812C286.445 107.151 287.451 101.455 288.233 95.7174C288.932 90.0848 290.702 76.302 284.322 73.7074C278.961 71.6839 273.685 74.7244 270.936 79.3929C269.592 81.5707 268.677 84.0178 268.019 86.4853C264.816 98.3169 264.238 110.657 263.202 122.82C262.397 132.192 261.964 141.755 258.891 150.73C257.944 153.392 256.846 156.084 255.014 158.276C253.426 160.087 251.977 160.493 250.05 158.727C247.167 155.764 248.013 148.824 248.458 144.983C248.704 143.111 249.018 141.25 249.368 139.396C251.983 126.49 254.168 113.409 255.741 100.342C256.05 97.7473 256.394 94.5056 256.592 91.9108C256.914 88.2171 256.859 84.3521 255.355 80.9055C253.737 77.1913 250.518 75.2799 246.505 76.5351C243.755 77.2646 241.745 79.3841 240.444 81.8389C238.673 85.1507 237.66 88.8051 236.732 92.4302C233.167 106.994 230.781 126.325 228.099 141.349C228.037 141.745 227.975 142.145 227.913 142.538C227.911 142.553 227.909 142.568 227.906 142.582C227.909 142.566 227.912 142.55 227.914 142.534C226.763 150.052 225.72 157.592 224.209 165.05C223.946 166.287 223.63 167.536 223.25 168.744C222.375 171.58 221.142 174.337 219.514 176.825C218.577 178.235 217.554 179.576 216.258 180.734C216.243 180.752 216.23 180.771 216.216 180.789C214.873 183.021 213.145 185.291 210.79 187.519C210.235 188.043 209.747 188.563 209.318 189.082C207.766 191.674 206.85 194.293 206.398 197.112C206.311 200.167 206.91 203.497 207.018 207.446C207.254 215.759 211.129 223.2 207.62 228.307C205.871 230.867 205.359 234.833 205.291 238.156C207.62 238.448 210.154 239.445 212.628 240.506C215.421 241.704 220.645 243.667 226.789 245.891C235.233 245.534 243.529 239.72 236.492 232.986ZM265.905 115.306C267.146 102.333 268.502 91.1535 273.337 83.0233C281.33 69.5803 288.65 82.9416 284.069 100.349C279.487 117.757 276.056 118.164 276.463 112.411C276.869 106.658 277.199 101.123 272.272 119.215C267.345 137.306 264.663 128.28 265.905 115.306ZM254.913 169.03C254.73 177.79 253.649 176.245 263.919 179.585C274.188 182.925 267.17 184.161 258.469 180.692C249.768 177.223 245.983 172.904 239.571 177.72C233.159 182.536 234.968 178.938 237.503 174.707C240.038 170.476 238.404 170.445 234.248 173.712C230.091 176.98 234.509 167.117 236.262 161.43C238.769 153.295 242.752 151.631 243.127 160.036C243.501 168.44 255.096 160.27 254.913 169.03ZM230.631 131.77C232.876 117.775 234.544 97.3547 239.607 85.1497C243.474 75.8257 253.205 77.7532 252.946 87.2559C252.687 96.7588 252.397 98.9076 250.405 110.125C248.413 121.343 245.767 101.163 245.332 113.336C244.897 125.51 239.593 115.502 237.584 132.448C235.574 149.394 228.385 145.765 230.631 131.77ZM217.238 223.449C221.205 234.031 208.361 237.004 210.712 225.32C213.064 213.635 213.328 206.797 212.013 215.424C210.697 224.051 208.937 219.562 210.037 213.644C211.137 207.727 210.425 208.67 209.697 204.021C207.895 192.522 211.358 192.779 219.3 183.533C227.243 174.287 228.383 185.808 222.603 193.766C216.824 201.725 216.621 206.093 221.705 215.315C226.788 224.538 213.271 212.866 217.238 223.449Z" fill="#F1EDD1"/>
<path d="M198.496 198.666C197.122 188.771 204.049 192.508 207.307 180.277C210.573 168.045 214.476 171.978 213.924 157.067C213.712 151.228 214.347 148.474 215.248 146.804C214.819 144.118 214.383 141.628 214.007 139.478C213.81 138.351 213.629 137.319 213.475 136.401C211.87 126.876 206.719 125.562 206.034 125.43C201.228 127.662 200.349 133.065 198.991 141.446C198.229 146.145 197.281 151.992 195.358 158.608C190.861 174.078 193.108 194.13 196.399 207.536C198.168 210.018 199.485 205.844 198.496 198.666ZM194.085 174.182C194.08 166.55 198.714 157.158 199.686 149.419C200.659 141.679 200.532 139.091 202.382 133.525C205.087 125.388 210.309 128.35 211.648 140.759C212.988 153.168 211.34 157.137 209.471 151.066C207.602 144.994 207.06 151.101 207.556 158.997C208.052 166.892 201.615 157.568 199.445 173.729C197.276 189.89 194.091 181.813 194.085 174.182Z" fill="#F1EDD1"/>
<path d="M285.581 157.313C289.835 150.783 289.153 163.828 293.326 155.17C297.508 146.51 300.667 141.502 297.803 149.174C294.938 156.845 297.436 159.004 302.511 149.366C305.463 143.748 309.208 129.197 311.808 118.043C312.224 115.045 312.547 112.035 312.786 109.023C312.997 105.966 313.115 102.893 312.879 99.8357C312.798 98.8187 312.671 97.8034 312.449 96.8089C312.216 95.8309 311.923 94.8186 311.279 94.0283C310.003 92.4282 308.063 91.4202 306.03 91.2179C305.013 91.1191 303.98 91.2145 302.99 91.4753C302.994 91.4888 302.998 91.5025 302.998 91.5025C299.834 92.4681 297.498 95.104 296.071 97.9953C295.187 99.7413 294.654 101.629 294.122 103.52C293.46 105.941 292.824 108.705 292.28 111.17C290.37 120.121 288.375 130.549 286.694 139.535C285.466 146.235 284.369 153.073 281.898 159.446C281.77 161.893 282.921 161.404 285.581 157.313ZM289.933 132.052C292.397 120.769 296.067 102.153 299.034 97.6735C304.293 89.734 311.982 94.3165 311.466 104.901C310.951 115.486 308.589 104.153 308.46 111.57C308.331 118.986 305.504 116.108 302.648 130.378C299.792 144.649 297.858 131.251 294.322 140.682C290.786 150.113 287.469 143.336 289.933 132.052Z" fill="#F1EDD1"/>
<path d="M304.342 91.2188C304.281 91.2255 304.22 91.2323 304.158 91.2404C304.219 91.2321 304.281 91.2257 304.342 91.2188Z" fill="#F1EDD1"/>
<path d="M302.988 91.4742C302.989 91.4753 302.989 91.4764 302.989 91.4777C303.233 91.4091 303.48 91.3514 303.729 91.3047C303.484 91.3501 303.238 91.4052 302.992 91.4731C302.991 91.4732 302.99 91.4736 302.988 91.4742Z" fill="#F1EDD1"/>
<path d="M304.057 91.25C303.955 91.2649 303.853 91.2816 303.75 91.3002C303.852 91.2812 303.955 91.265 304.057 91.25Z" fill="#F1EDD1"/>
<path d="M309.353 133.317C309.351 133.324 309.349 133.332 309.348 133.339H309.347C309.137 134.149 308.924 134.959 308.709 135.77C309.376 136.803 310.385 136.791 311.873 134.986C313.025 131.267 314.131 127.96 315.122 125.568C317.553 119.704 320.467 116.03 323.327 115.225C323.683 115.125 324.034 115.07 324.38 115.058C324.217 115.015 324.051 114.977 323.882 114.948C316.627 113.709 312.586 120.897 312.311 121.405C311.406 125.243 310.409 129.259 309.353 133.317Z" fill="#DB6914"/>
<path d="M289.394 123.032C290.535 116.424 291.785 109.84 293.6 103.378C294.03 101.941 294.506 100.379 295.117 99.0054C296.595 95.6116 299.266 92.3791 302.982 91.4545C302.982 91.4545 302.985 91.466 302.988 91.4782C302.99 91.4778 302.991 91.4772 302.992 91.4769C303.238 91.409 303.484 91.3539 303.729 91.3085C303.736 91.3074 303.743 91.306 303.749 91.3049C303.852 91.2864 303.954 91.2697 304.056 91.2549C304.09 91.2498 304.124 91.2445 304.158 91.24C304.219 91.232 304.281 91.2252 304.342 91.2185C305.924 91.0387 307.557 91.2974 308.972 92.0437C309.889 92.5111 310.704 93.1764 311.36 93.968C312.026 94.768 312.337 95.7916 312.585 96.7835C312.821 97.7851 312.96 98.8053 313.054 99.827C313.326 102.893 313.242 105.979 313.065 109.048C312.783 113.2 312.344 117.347 311.72 121.464C312.571 117.862 313.343 114.415 314.004 111.245C315.793 102.666 315.338 96.112 312.689 92.2917C311.339 90.3449 309.447 89.1721 307.066 88.8059C299.711 87.6745 295.054 90.7374 292.409 98.444C290.989 102.579 289.27 112.193 287.586 121.809C288.139 122.438 288.759 122.856 289.394 123.032Z" fill="#DB6914"/>
<path d="M263.401 114.226C264.05 105.781 264.899 97.361 266.771 89.0827C266.947 88.2445 267.248 87.1538 267.476 86.3326C267.673 85.5721 267.942 84.6935 268.191 83.9467C269.486 80.2499 271.481 76.594 274.821 74.3701C277.938 72.2549 282.631 71.6795 285.84 73.8869C287.436 75.071 288.29 76.9533 288.79 78.811C290.143 84.3832 289.487 90.1799 288.792 95.7935C287.823 102.481 286.6 109.129 285.147 115.726C285.332 117.021 285.635 118.172 286.024 119.163C287.398 113.207 288.744 106.91 289.817 101.324C291.006 95.1402 291.774 90.277 292.04 87.2603C292.5 82.021 291.07 77.2407 288.115 74.1453C286.028 71.9579 283.357 70.8183 280.592 70.9293C274.381 71.1843 267.524 73.6133 263.75 89.6947C261.531 99.1533 259.92 111.221 258.672 122.083C260.013 121.544 261.653 119.015 263.401 114.226Z" fill="#DB6914"/>
<path d="M235.054 97.8499C236.035 93.2332 237.059 88.592 238.815 84.1954C239.892 81.5627 241.321 78.9002 243.736 77.2635C248.521 74.2957 253.473 75.4001 255.798 80.7101C258.105 86.0308 257.029 92.013 256.472 97.5825C256.217 99.7168 255.942 101.851 255.653 103.984C254.947 111.781 255.268 117.331 256.264 120.122C258.703 107.714 261.171 95.091 261.382 90.8347C261.639 85.6522 259.939 78.854 255.563 75.3487C252.696 73.0528 249.115 72.4766 244.92 73.6365C240.478 74.8646 237.576 78.0317 235.511 83.906C233.574 89.4182 232.528 96.771 231.203 106.08C230.617 110.206 229.967 114.774 229.164 119.647C229.405 121.864 229.812 124.135 230.511 124.933C231.871 115.83 233.302 106.701 235.054 97.8499Z" fill="#DB6914"/>
<path d="M241.448 217.722C243.41 217.812 244.333 217.545 244.667 217.127C243.963 216.861 243.123 216.545 242.102 216.168C235.517 213.73 230.703 209.421 228.897 204.345C227.333 199.951 228.023 195.055 230.892 190.185C232.758 187.017 235.377 185.129 238.897 184.414C244.68 183.238 251.984 185.488 259.048 187.663C259.567 187.822 260.078 187.979 260.585 188.135C261.099 187.469 260.697 186.519 260.055 185.642C259.938 185.606 259.822 185.57 259.704 185.534C253.932 183.757 247.768 181.859 242.252 181.859C236.902 181.859 232.16 183.644 228.973 189.054C225.758 194.511 225.006 200.057 226.798 205.092C228.704 210.445 233.493 215.004 240.04 217.747C240.459 217.709 240.925 217.698 241.448 217.722Z" fill="#DB6914"/>
<path d="M248.199 208.44C238.702 201.913 249.445 202.009 257.782 194.317C260.702 191.629 260.421 189.629 258.819 188.176C251.842 186.028 244.633 183.817 239.008 184.96C235.653 185.642 233.157 187.443 231.376 190.466C228.594 195.187 227.92 199.919 229.426 204.151C231.177 209.07 235.868 213.255 242.297 215.635C243.968 216.253 245.157 216.705 246.054 217.047C251.964 216.909 255.078 213.155 248.199 208.44Z" fill="#DB6914"/>
<path d="M198.2 257.947C196.313 269.681 187.537 277.917 205.253 281.038C222.97 284.158 202.494 271.519 213.915 277.19C225.337 282.871 230.375 279.029 220.744 269.179C211.111 259.32 228.296 261.647 228.757 252.281C228.86 250.191 227.788 248.145 226.067 246.231C220.143 244.083 215.127 242.194 212.407 241.027C211.514 240.645 210.613 240.27 209.719 239.935C209.163 239.904 208.286 239.752 206.978 239.442C198.768 237.474 200.085 246.204 198.2 257.947Z" fill="#DB6914"/>
<path d="M207.873 124.774C207.528 124.863 207.201 124.966 206.887 125.078C208.657 125.702 212.632 128.01 214.029 136.304C214.183 137.221 214.364 138.252 214.561 139.377C214.907 141.357 215.304 143.625 215.699 146.067C217.035 144.142 218.664 143.691 218.919 139.279C219.243 133.857 216.173 128.639 214.117 125.792C214.107 125.786 214.098 125.779 214.089 125.773C212.158 124.545 210.067 124.209 207.873 124.774Z" fill="#DB6914"/>
<path d="M272.272 119.22C277.199 101.128 276.87 106.663 276.463 112.416C276.057 118.169 279.488 117.762 284.069 100.354C288.65 82.9465 281.33 69.585 273.337 83.0282C268.503 91.1584 267.147 102.338 265.905 115.311C264.664 128.285 267.345 137.311 272.272 119.22Z" fill="#FFFBE1"/>
<path d="M294.321 140.687C297.857 131.256 299.791 144.654 302.647 130.383C305.503 116.112 308.329 118.991 308.458 111.574C308.587 104.158 310.95 115.49 311.465 104.906C311.981 94.3213 304.291 89.7388 299.033 97.6783C296.066 102.158 292.396 120.774 289.932 132.057C287.468 143.341 290.785 150.118 294.321 140.687Z" fill="#FFFBE1"/>
<path d="M319.628 135.544C322.7 126.511 324.557 122.235 324.612 130.109C324.667 137.982 328.708 137.748 328.77 131.791C328.832 125.834 325.21 114.886 321.597 119.293C311.766 131.285 316.556 144.578 319.628 135.544Z" fill="#FFFBE1"/>
<path d="M237.584 132.448C239.594 115.502 244.898 125.51 245.333 113.337C245.768 101.163 248.413 121.343 250.405 110.125C252.397 98.9077 252.687 96.7588 252.946 87.2561C253.205 77.7534 243.474 75.8259 239.607 85.1499C234.544 97.3548 232.877 117.775 230.631 131.77C228.385 145.765 235.574 149.394 237.584 132.448Z" fill="#FFFBE1"/>
<path d="M199.444 173.731C201.613 157.571 208.051 166.894 207.555 158.999C207.059 151.103 207.6 144.996 209.47 151.068C211.339 157.14 212.986 153.171 211.647 140.762C210.308 128.353 205.086 125.391 202.381 133.527C200.531 139.093 200.657 141.682 199.685 149.421C198.713 157.161 194.078 166.553 194.084 174.184C194.09 181.816 197.275 189.892 199.444 173.731Z" fill="#FFFBE1"/>
<path d="M222.604 193.771C228.383 185.812 227.243 174.292 219.301 183.538C211.358 192.784 207.895 192.527 209.697 204.026C210.425 208.675 211.137 207.731 210.037 213.649C208.937 219.566 210.697 224.055 212.013 215.428C213.329 206.801 213.064 213.64 210.713 225.324C208.361 237.009 221.206 234.036 217.238 223.453C213.271 212.871 226.789 224.542 221.705 215.32C216.621 206.097 216.824 201.73 222.604 193.771Z" fill="#FFFBE1"/>
<path d="M243.128 160.042C242.753 151.637 238.77 153.302 236.263 161.437C234.51 167.123 230.092 176.986 234.249 173.719C238.405 170.452 240.039 170.483 237.504 174.714C234.969 178.945 233.16 182.542 239.572 177.726C245.984 172.91 249.769 177.23 258.47 180.699C267.171 184.167 274.189 182.931 263.92 179.592C253.65 176.252 254.731 177.797 254.914 169.037C255.097 160.276 243.502 168.447 243.128 160.042Z" fill="#FFFBE1"/>
<path d="M266.554 252.688C261.556 245.978 274.092 250.881 268.376 244.232C262.66 237.582 273.413 240.39 273.981 233.375C274.058 232.497 273.853 231.641 273.435 230.824C271.274 230.013 269.122 229.027 266.93 228.021C263.692 226.536 260.344 225 256.772 223.964C248.432 221.547 248.371 221.524 245.189 220.308C244.267 219.955 243.004 219.473 241.133 218.78C236.672 217.129 232.927 214.671 230.202 211.688C231.129 213.912 233.398 216.659 238.284 219.718C251.338 227.914 227.61 224.496 236.491 232.99C243.529 239.724 235.232 245.538 226.789 245.894C234.249 248.593 243.064 251.677 250.534 254.242C252.573 254.942 254.813 255.643 257.184 256.385C259.367 257.068 261.615 257.771 263.832 258.513C266.759 257.614 268.956 255.918 266.554 252.688Z" fill="#E6E0C3"/>
<path d="M272.572 132.006C265.345 152.493 259.364 155.283 266.315 165.023C273.255 174.755 261.011 174.698 274.862 183.273C281.991 187.685 280.016 189.499 275.982 190.1C283.793 193.365 290.591 197.93 295.042 202.959C295.033 202.383 294.844 201.693 294.408 200.865C291.44 195.271 301.131 201.958 296.326 196.196C291.522 190.443 292.38 187.469 300.334 191.49C308.286 195.503 310.925 187.517 305.509 182.534C300.1 177.539 300.216 176.425 311.596 173.392C313.983 172.748 315.832 171.889 317.267 170.913C321.257 163.904 326.03 154.83 328.445 146.805C328.064 147.646 327.651 148.468 327.202 149.257C322.568 157.468 323.085 144.219 319.795 153.068C316.504 161.908 314.77 145.006 312.293 152.532C309.826 160.056 308.065 155.868 310.194 146.353C311.05 142.531 311.548 139.444 311.989 136.523C311.014 139.723 310.011 143.174 309.023 146.575C308.288 149.105 307.594 151.495 306.917 153.762L306.876 153.75C306.901 153.757 306.917 153.762 306.917 153.762C305.484 158.332 304.147 162.979 301.91 167.238C300.962 168.961 299.287 172.06 297.473 172.881C295.568 173.456 296.279 169.704 296.588 168.77C297.6 165.361 299.238 162.18 300.991 159.094C301.103 158.892 301.205 158.712 301.292 158.558C302.307 155.902 303.266 153.226 304.076 150.499C305.32 146.31 306.462 142.091 307.568 137.863C307.568 137.863 307.696 137.898 307.822 137.932L307.568 137.863C307.995 136.277 308.415 134.689 308.827 133.107C310.128 128.157 311.103 123.118 311.808 118.043C309.208 129.197 305.463 143.748 302.511 149.366C297.437 159.005 294.938 156.845 297.803 149.174C300.667 141.503 297.508 146.51 293.326 155.17C289.154 163.828 289.835 150.783 285.581 157.313C282.921 161.404 281.77 161.894 281.898 159.446C281.513 160.439 281.096 161.421 280.639 162.39C279.788 164.071 278.388 166.879 276.503 167.401C276.053 167.504 275.573 167.353 275.239 167.062C274.583 166.524 274.283 165.707 273.986 164.942C273.455 163.494 273.303 161.929 273.387 160.398C273.449 159.241 273.636 158.027 273.855 156.887C274.662 152.957 275.838 149.118 276.937 145.264C280.094 134.548 282.999 123.746 285.27 112.812C283.782 117.631 282.208 122.509 280.706 126.728C275.465 141.478 279.8 111.519 272.572 132.006Z" fill="#E6E0C3"/>
<path d="M311.594 173.393C300.214 176.426 300.099 177.541 305.507 182.535C310.923 187.518 308.284 195.504 300.332 191.492C292.378 187.47 291.521 190.444 296.324 196.197C301.13 201.959 291.439 195.272 294.407 200.867C294.842 201.694 295.032 202.385 295.04 202.96C296.014 204.061 296.879 205.182 297.614 206.318C300.487 210.76 300.858 216.66 298.607 222.101C296.412 227.404 292.039 231.229 286.908 232.333C286.835 232.349 286.761 232.364 286.687 232.379H286.687C285.366 232.648 284.078 232.769 282.815 232.769C279.573 232.769 276.494 231.971 273.434 230.823C273.853 231.64 274.057 232.496 273.981 233.373C273.413 240.388 262.659 237.581 268.376 244.23C274.092 250.88 261.556 245.976 266.553 252.686C268.956 255.917 266.759 257.612 263.832 258.512C269.704 260.477 275.363 262.713 279.042 265.563C279.459 264.428 280.638 260.583 279.791 255.318C279.195 251.615 281.443 249.266 284.553 246.014C287.034 243.421 290.122 240.193 292.819 235.175C294.855 231.386 297.101 228.135 299.083 225.266C302.976 219.63 306.052 215.178 304.919 210.375C303.147 202.861 304.256 200.528 309.607 195.24C312.155 192.723 311.964 190.262 311.743 187.413C311.517 184.493 311.26 181.185 313.722 177.006C314.746 175.268 315.964 173.201 317.266 170.914C315.83 171.89 313.981 172.749 311.594 173.393Z" fill="#DBD5B6"/>
<path d="M230.545 295.988C242.253 299.057 250.142 294.911 239.178 283.965C228.212 273.01 244.467 272.347 245.878 260.975C246.372 257.014 244.701 254.102 242.31 251.989C236.807 250.071 231.107 248.055 226.066 246.227C227.787 248.141 228.859 250.187 228.755 252.277C228.295 261.643 211.109 259.316 220.742 269.175C230.373 279.025 225.336 282.866 213.914 277.186C202.493 271.515 222.969 284.154 205.252 281.034C187.536 277.913 196.311 269.677 198.199 257.943C200.084 246.2 198.766 237.47 206.977 239.438C208.285 239.748 209.162 239.9 209.718 239.931C206.571 238.751 203.506 238.065 201.153 239.249C199.295 240.183 198.018 242.209 197.25 245.441C195.071 254.598 192.36 265.994 189.558 272.13C187.156 277.389 187.562 281.07 196.568 285.454C200.719 287.474 211.591 291.526 223.248 295.522C225.713 295.262 228.236 295.381 230.545 295.988Z" fill="#CF6212"/>
<path d="M258.881 188.199C258.86 188.193 258.839 188.186 258.818 188.18C260.421 189.633 260.702 191.633 257.781 194.321C249.445 202.013 238.702 201.917 248.199 208.444C255.077 213.159 251.963 216.913 246.053 217.051C246.168 217.095 246.279 217.138 246.385 217.178C249.447 218.348 249.505 218.37 257.705 220.747C261.038 221.713 264.107 223.05 267.066 224.398C270.051 223.906 272.464 222.575 269.678 219.342C264.487 213.316 277.996 218.99 272.579 212.878C267.154 206.776 275.023 207.902 276.56 199.959C277.082 197.272 275.901 194.906 274.125 192.957C271.466 191.879 268.684 190.955 265.836 190.225C263.583 189.647 261.299 188.944 258.881 188.199Z" fill="#CF6212"/>
<path d="M254.668 300.049C250.994 293.592 264.951 294.933 260.469 286.277C255.985 277.612 262.282 281.182 266.884 271.042C269.924 264.331 264.86 260.219 261.083 258.206C259.718 257.767 258.355 257.341 257.016 256.922C254.641 256.179 252.397 255.477 250.351 254.774C247.792 253.896 245.076 252.956 242.31 251.992C244.701 254.105 246.372 257.017 245.878 260.978C244.467 272.35 228.212 273.013 239.178 283.968C250.142 294.914 242.253 299.06 230.545 295.991C228.236 295.384 225.712 295.265 223.248 295.525C234.62 299.423 246.736 303.266 254.092 305.121C255.456 304.217 256.161 302.67 254.668 300.049Z" fill="#C55D10"/>
<path d="M276.561 199.955C275.023 207.898 267.155 206.772 272.579 212.874C277.997 218.986 264.488 213.312 269.679 219.338C272.464 222.571 270.052 223.902 267.066 224.394C267.488 224.587 267.908 224.779 268.326 224.971L268.367 224.99C272.856 227.049 276.909 228.906 281.073 229.327C285.321 228.434 287.596 225.862 284.636 221.814C280.698 216.445 284.009 217.281 289.171 208.963C290.608 206.642 290.63 204.462 289.913 202.523C285.807 198.797 280.299 195.456 274.125 192.953C275.902 194.902 277.082 197.268 276.561 199.955Z" fill="#C55D10"/>
<path d="M261.083 258.203C264.86 260.217 269.925 264.329 266.884 271.039C262.282 281.18 255.985 277.609 260.469 286.274C264.951 294.93 250.994 293.59 254.668 300.047C256.161 302.668 255.456 304.214 254.092 305.118C254.661 305.262 255.204 305.395 255.713 305.513C262.375 307.066 266.285 307.023 268.786 305.368C271.6 303.507 272.809 299.449 273.847 293.505C274.777 288.186 277.16 284.124 279.263 280.54C281.997 275.881 283.972 272.515 281.431 268.798C278.253 264.148 269.628 260.946 261.083 258.203Z" fill="#BB570E"/>
<path d="M289.171 208.963C284.009 217.282 280.697 216.445 284.635 221.814C287.596 225.862 285.32 228.435 281.072 229.328C282.753 229.498 284.451 229.435 286.203 229.056C290.257 228.184 293.735 225.105 295.509 220.819C297.312 216.462 297.04 211.604 294.799 208.139C293.552 206.211 291.895 204.323 289.913 202.523C290.63 204.462 290.608 206.643 289.171 208.963Z" fill="#BB570E"/>
<path d="M297.142 206.627C291.84 198.43 279.824 190.931 266.529 187.522C264.454 186.99 262.312 186.335 260.054 185.641C260.696 186.518 261.098 187.468 260.584 188.133C262.435 188.699 264.218 189.229 265.976 189.68C278.758 192.958 290.257 200.085 295.272 207.837C297.611 211.454 297.901 216.512 296.029 221.037C294.185 225.493 290.556 228.697 286.322 229.608C285.123 229.868 283.95 229.986 282.795 229.986C277.902 229.986 273.303 227.876 268.132 225.505L268.093 225.487C264.761 223.958 261.316 222.379 257.548 221.287C249.326 218.904 249.267 218.881 246.188 217.705C245.761 217.542 245.262 217.351 244.667 217.126C244.333 217.543 243.41 217.81 241.447 217.721C240.925 217.696 240.458 217.708 240.039 217.746C240.462 217.923 240.891 218.093 241.328 218.255C243.202 218.949 244.466 219.432 245.39 219.785C248.551 220.992 248.611 221.016 256.928 223.426C260.541 224.474 263.908 226.018 267.164 227.512C273.585 230.457 279.651 233.238 286.575 231.832C286.646 231.817 286.718 231.802 286.79 231.787C291.74 230.722 295.963 227.022 298.087 221.889C300.268 216.619 299.915 210.914 297.142 206.627Z" fill="#BB570E"/>
<path d="M210.791 187.519C213.146 185.292 214.874 183.021 216.216 180.789C215.861 181.225 215.49 181.637 215.1 182.023C214.295 182.819 213.549 183.604 212.88 184.356C211.433 185.947 210.26 187.51 209.318 189.082C209.748 188.564 210.236 188.043 210.791 187.519Z" fill="#E6E0C3"/>
<path d="M207.018 207.451C206.91 203.501 206.312 200.172 206.399 197.117C205.919 200.11 205.962 203.327 206.325 206.975C206.838 211.472 207.369 216.066 207.418 220.59C207.433 222.41 207.423 224.241 207.164 226.046C207.581 222.425 207.305 218.762 207.023 215.141C206.568 209.726 205.383 204.245 205.832 198.791C206.203 193.042 208.682 188.243 212.46 183.986C213.128 183.234 213.874 182.45 214.676 181.655C218.92 174.588 217.155 158.756 215.247 146.805C214.346 148.475 213.712 151.229 213.924 157.067C214.476 171.979 210.573 168.045 207.307 180.278C204.049 192.508 197.121 188.772 198.495 198.666C199.484 205.844 198.168 210.019 196.398 207.537C197.168 210.673 197.995 213.446 198.806 215.711C202.502 226.005 201.885 236.17 201.688 238.426C202.798 238.055 204.013 238 205.291 238.16C205.36 234.838 205.871 230.872 207.62 228.311C211.129 223.205 207.255 215.764 207.018 207.451Z" fill="#E6E0C3"/>
<path d="M218.919 139.284C218.665 143.695 217.036 144.147 215.7 146.072C217.502 157.219 219.27 172.029 216.087 180.042C220.844 173.821 222.442 162.661 224.406 147.708C222.29 136.473 218.638 128.695 214.117 125.797C216.174 128.644 219.243 133.862 218.919 139.284Z" fill="#C55D10"/>
<path d="M228.099 141.352C228.028 141.748 227.957 142.143 227.886 142.533C228.776 136.733 229.628 130.839 230.511 124.935C229.813 124.137 229.405 121.866 229.164 119.648C228.966 120.851 228.76 122.07 228.542 123.308C227.09 131.55 226.069 139.339 225.168 146.211C223.339 160.165 221.92 170.984 218.172 177.844C218.497 177.421 218.809 176.989 219.104 176.555C220.274 174.823 221.246 172.941 222.037 171.004C222.665 169.468 223.184 167.813 223.607 166.214C225.417 158.415 226.568 150.476 227.906 142.586C227.908 142.571 227.911 142.556 227.913 142.541C227.974 142.148 228.037 141.749 228.099 141.352Z" fill="#C55D10"/>
<path d="M255.654 103.984C254.044 115.857 251.927 127.707 249.544 139.432C248.839 143.126 248.259 146.867 248.19 150.632C248.169 152.501 248.261 154.406 248.825 156.196C249.234 157.519 250.032 158.781 251.317 159.371C251.723 159.557 252.165 159.729 252.618 159.65C253.528 159.494 254.249 158.805 254.844 158.13C259.445 152.335 261.147 141.361 261.844 134.058C262.504 127.471 262.891 120.842 263.4 114.228C261.652 119.017 260.012 121.546 258.671 122.085C258.222 125.997 257.819 129.753 257.453 133.174C257.147 136.031 256.858 138.731 256.593 141.036C255.763 148.238 254.012 153.403 252.412 153.404C252.394 153.404 252.376 153.403 252.357 153.401C251.247 153.319 251.088 151.052 251.149 149.165C251.269 145.534 253.613 133.607 256.096 120.98C256.152 120.694 256.208 120.408 256.265 120.122C255.269 117.331 254.948 111.781 255.654 103.984Z" fill="#C55D10"/>
<path d="M280.373 134.481C278.383 141.752 275.956 148.907 274.174 156.231C273.517 159.171 273.031 162.368 274.19 165.243C274.429 165.896 274.734 166.562 275.274 167.018C276.896 168.151 278.375 165.731 279.114 164.555C281.67 159.977 282.984 154.824 284.253 149.763C285.066 146.481 285.855 142.833 286.514 139.501C287.573 134.032 288.446 128.521 289.395 123.025C288.76 122.85 288.14 122.431 287.587 121.803C287.491 122.349 287.396 122.895 287.3 123.439C285.756 132.267 284.297 140.606 283.168 144.286C282.752 145.638 282.305 147.155 281.831 148.76C278.852 158.855 277.416 163.084 276.253 163.085C276.251 163.085 276.249 163.085 276.247 163.085C275.741 163.078 275.565 162.416 275.508 162.199C274.688 159.107 276.695 152.611 279.236 144.388C280.006 141.896 280.802 139.32 281.604 136.579C282.874 132.233 284.467 125.918 286.024 119.164C285.636 118.172 285.332 117.021 285.148 115.727C283.76 122.028 282.163 128.283 280.373 134.481Z" fill="#C55D10"/>
<path d="M308.708 135.769C308.51 136.517 308.311 137.265 308.11 138.012C306.515 143.622 304.981 149.262 302.992 154.747C301.993 157.49 300.867 160.181 299.757 162.875C298.675 165.571 297.482 168.265 296.995 171.147C297.435 168.257 298.588 165.537 299.626 162.823C300.175 161.437 300.722 160.05 301.254 158.658C299.337 162.129 296.502 167.595 296.404 171.152C296.415 173.914 298.111 172.39 299.104 171.12C300.082 169.878 300.875 168.492 301.596 167.079C302.311 165.662 302.94 164.2 303.495 162.712C304.59 159.725 305.48 156.658 306.377 153.604C307.053 151.338 307.747 148.95 308.482 146.421C309.614 142.524 310.764 138.564 311.873 134.984C310.385 136.789 309.376 136.801 308.708 135.769Z" fill="#C55D10"/>
<path d="M301.285 158.581C301.287 158.575 301.29 158.569 301.292 158.562C301.204 158.716 301.103 158.896 300.99 159.098C301.088 158.926 301.186 158.753 301.285 158.581Z" fill="#C55D10"/>
<path d="M238.898 184.409C235.377 185.124 232.759 187.012 230.892 190.18C228.023 195.05 227.333 199.946 228.897 204.34C230.704 209.416 235.517 213.725 242.103 216.163C243.123 216.541 243.963 216.856 244.668 217.122C245.263 217.348 245.762 217.538 246.189 217.701C249.269 218.877 249.327 218.9 257.549 221.283C261.318 222.375 264.762 223.955 268.094 225.483L268.133 225.501C273.304 227.873 277.903 229.983 282.796 229.983C283.951 229.983 285.124 229.865 286.323 229.605C290.557 228.694 294.186 225.49 296.03 221.034C297.903 216.509 297.613 211.451 295.273 207.833C290.259 200.081 278.759 192.954 265.977 189.676C264.219 189.225 262.436 188.695 260.585 188.13C260.078 187.974 259.567 187.817 259.048 187.657C251.984 185.483 244.68 183.234 238.898 184.409ZM274.126 192.953C280.3 195.456 285.808 198.797 289.914 202.523C291.897 204.322 293.554 206.211 294.801 208.139C297.041 211.603 297.313 216.462 295.51 220.819C293.737 225.104 290.258 228.183 286.205 229.055C284.452 229.435 282.754 229.498 281.074 229.328C276.91 228.906 272.857 227.049 268.368 224.99L268.327 224.971C267.909 224.779 267.489 224.587 267.067 224.395C264.108 223.047 261.039 221.709 257.706 220.743C249.507 218.366 249.448 218.344 246.387 217.175C246.281 217.134 246.17 217.092 246.055 217.048C245.159 216.706 243.969 216.254 242.298 215.635C235.869 213.256 231.178 209.07 229.427 204.152C227.921 199.92 228.595 195.187 231.377 190.466C233.158 187.443 235.654 185.642 239.009 184.96C244.634 183.818 251.843 186.028 258.82 188.176C258.841 188.182 258.862 188.189 258.883 188.196C261.301 188.94 263.585 189.644 265.838 190.221C268.686 190.952 271.467 191.875 274.126 192.953Z" fill="#1E0C02"/>
<path d="M275.981 190.105C272.999 188.858 269.871 187.799 266.669 186.978C264.498 186.421 262.249 185.728 259.868 184.995C248.299 181.433 235.186 177.397 228.487 188.768C225.185 194.373 224.418 200.083 226.267 205.28C227.089 207.588 228.43 209.75 230.202 211.69C232.927 214.673 236.673 217.132 241.134 218.783C243.004 219.475 244.267 219.958 245.189 220.31C248.372 221.526 248.433 221.55 256.772 223.967C260.345 225.002 263.693 226.538 266.931 228.024C269.123 229.029 271.274 230.015 273.435 230.826C276.495 231.975 279.574 232.773 282.816 232.773C284.079 232.773 285.367 232.652 286.688 232.383H286.688C286.761 232.368 286.835 232.353 286.909 232.337C292.039 231.233 296.413 227.408 298.607 222.105C300.858 216.664 300.488 210.764 297.615 206.322C296.88 205.186 296.015 204.064 295.041 202.964C290.59 197.935 283.792 193.371 275.981 190.105ZM286.79 231.787C286.718 231.803 286.646 231.818 286.575 231.832C279.651 233.238 273.585 230.457 267.165 227.512C263.908 226.019 260.541 224.474 256.929 223.427C248.611 221.016 248.551 220.993 245.39 219.785C244.466 219.432 243.202 218.949 241.329 218.256C240.891 218.094 240.462 217.924 240.039 217.747C233.492 215.003 228.703 210.445 226.797 205.091C225.005 200.056 225.757 194.51 228.972 189.054C232.159 183.643 236.901 181.859 242.251 181.859C247.767 181.859 253.931 183.756 259.702 185.533C259.821 185.569 259.937 185.605 260.054 185.641C262.312 186.336 264.453 186.99 266.529 187.523C279.824 190.932 291.84 198.431 297.142 206.628C299.915 210.915 300.268 216.62 298.087 221.89C295.963 227.022 291.74 230.722 286.79 231.787Z" fill="#1E0C02"/>
<path d="M323.978 114.39C318.162 113.397 314.328 117.503 312.695 119.767C313.379 116.819 314.006 113.99 314.556 111.354C316.377 102.62 315.892 95.9154 313.153 91.965C311.711 89.8866 309.693 88.6344 307.153 88.2439C303.392 87.6654 300.352 88.1445 297.86 89.7081C295.246 91.3487 293.289 94.1443 291.878 98.2552C290.363 102.668 288.525 113.178 286.747 123.343C285.205 132.153 283.75 140.475 282.63 144.121C282.214 145.476 281.766 146.994 281.292 148.601C280.314 151.915 279.302 155.343 278.37 158.036C276.914 162.238 276.351 162.511 276.266 162.525C276.265 162.525 276.161 162.468 276.052 162.055C275.273 159.119 277.259 152.692 279.774 144.554C280.544 142.06 281.341 139.482 282.144 136.737C284.539 128.545 288.076 113.367 290.37 101.431C291.562 95.2284 292.334 90.3456 292.6 87.3099C293.075 81.9096 291.589 76.9699 288.522 73.7574C286.321 71.4514 283.496 70.2471 280.569 70.3676C276.432 70.5377 273.297 71.7304 270.703 74.121C267.375 77.1876 264.922 82.2399 263.203 89.5667C260.177 102.465 258.28 120.179 256.895 133.112C256.589 135.969 256.3 138.667 256.035 140.97C255.067 149.371 253.163 152.889 252.399 152.839C252.076 152.815 251.626 151.821 251.712 149.181C251.83 145.597 254.171 133.691 256.649 121.087C259.145 108.388 261.727 95.2564 261.945 90.8612C262.209 85.536 260.448 78.5377 255.916 74.9083C252.901 72.4931 249.151 71.8822 244.772 73.0931C240.134 74.3752 237.115 77.652 234.983 83.7182C233.027 89.2826 231.977 96.6596 230.649 106C229.918 111.139 229.089 116.964 227.989 123.207C226.547 131.394 225.531 139.128 224.634 145.965C222.443 135.431 218.832 128.123 214.392 125.298C212.324 123.983 210.084 123.623 207.733 124.229C200.926 125.986 199.936 132.099 198.436 141.353C197.677 146.036 196.732 151.865 194.819 158.447C191.646 169.362 191.991 181.696 192.839 190.121C193.767 199.343 195.8 208.978 198.278 215.897C202.131 226.628 201.246 237.218 201.102 238.652C201.035 238.683 200.968 238.712 200.902 238.746C198.887 239.759 197.514 241.906 196.704 245.31C194.531 254.443 191.827 265.81 189.048 271.896C186.145 278.251 188.049 281.931 196.323 285.959C204.856 290.113 241.716 302.827 255.587 306.06C258.852 306.821 261.48 307.203 263.623 307.203C265.96 307.203 267.719 306.749 269.098 305.837C272.08 303.864 273.339 299.693 274.403 293.601C275.315 288.382 277.671 284.367 279.75 280.824C282.482 276.168 284.64 272.491 281.897 268.48C281.281 267.578 280.471 266.732 279.506 265.932C279.88 264.995 281.274 260.98 280.348 255.227C279.797 251.8 281.851 249.652 284.961 246.402C287.466 243.783 290.583 240.525 293.316 235.44C295.337 231.678 297.574 228.441 299.547 225.584C303.52 219.833 306.658 215.29 305.468 210.244C303.76 203.001 304.833 200.749 310.004 195.639C312.737 192.938 312.537 190.356 312.306 187.367C312.086 184.531 311.836 181.316 314.208 177.29C318.897 169.333 327.623 154.52 329.973 143.114C331.811 134.192 332.01 122.767 328.314 117.357C327.171 115.684 325.712 114.686 323.978 114.39ZM311.745 187.411C311.965 190.26 312.156 192.721 309.609 195.239C304.258 200.526 303.148 202.859 304.92 210.373C306.053 215.176 302.978 219.628 299.084 225.265C297.102 228.133 294.856 231.385 292.82 235.174C290.123 240.192 287.035 243.419 284.554 246.013C281.444 249.265 279.197 251.614 279.793 255.317C280.64 260.581 279.46 264.426 279.044 265.561C275.365 262.711 269.706 260.475 263.833 258.51C261.616 257.768 259.369 257.065 257.186 256.382C254.814 255.64 252.574 254.94 250.535 254.239C243.066 251.674 234.25 248.591 226.791 245.891C220.647 243.667 215.422 241.704 212.629 240.506C210.156 239.446 207.621 238.448 205.292 238.156C204.014 237.996 202.799 238.051 201.689 238.422C201.886 236.166 202.503 226.001 198.807 215.707C197.996 213.442 197.169 210.669 196.399 207.533C193.109 194.127 190.862 174.075 195.359 158.605C197.282 151.989 198.23 146.141 198.991 141.443C200.349 133.061 201.229 127.658 206.034 125.426C206.72 125.559 211.871 126.872 213.475 136.397C213.63 137.315 213.811 138.348 214.008 139.474C214.384 141.624 214.82 144.115 215.248 146.801C217.156 158.752 218.921 174.584 214.677 181.651C213.875 182.446 213.129 183.23 212.461 183.982C208.683 188.24 206.204 193.038 205.833 198.787C205.384 204.241 206.57 209.722 207.024 215.137C207.306 218.758 207.582 222.421 207.165 226.042C207.425 224.237 207.435 222.406 207.419 220.586C207.37 216.062 206.839 211.468 206.326 206.971C205.963 203.323 205.921 200.106 206.4 197.113C206.851 194.294 207.768 191.674 209.319 189.083C210.261 187.51 211.433 185.947 212.881 184.357C213.549 183.604 214.296 182.819 215.1 182.023C215.49 181.637 215.862 181.226 216.217 180.79C216.231 180.772 216.245 180.753 216.259 180.735C217.556 179.577 218.579 178.236 219.515 176.826C221.143 174.338 222.376 171.581 223.252 168.745C223.631 167.537 223.948 166.288 224.211 165.051C225.721 157.593 226.764 150.053 227.916 142.535C227.913 142.551 227.91 142.567 227.908 142.583C226.57 150.474 225.419 158.413 223.608 166.212C223.186 167.811 222.667 169.465 222.038 171.001C221.248 172.939 220.276 174.82 219.106 176.552C218.811 176.987 218.499 177.418 218.174 177.842C221.922 170.982 223.341 160.163 225.17 146.209C226.071 139.337 227.092 131.548 228.544 123.305C228.761 122.068 228.968 120.848 229.166 119.646C229.969 114.773 230.619 110.205 231.206 106.079C232.53 96.7704 233.576 89.4176 235.513 83.9053C237.578 78.0311 240.48 74.8639 244.922 73.6357C249.117 72.4759 252.698 73.0521 255.565 75.348C259.941 78.8533 261.641 85.6515 261.384 90.834C261.173 95.0904 258.705 107.713 256.266 120.121C256.209 120.407 256.153 120.693 256.097 120.979C253.615 133.606 251.27 145.533 251.151 149.164C251.089 151.051 251.248 153.318 252.358 153.4C252.377 153.402 252.395 153.403 252.413 153.403C254.013 153.402 255.764 148.237 256.594 141.035C256.859 138.73 257.148 136.03 257.454 133.173C257.82 129.752 258.223 125.996 258.672 122.084C259.92 111.222 261.531 99.1545 263.751 89.6957C267.524 73.6144 274.382 71.1853 280.593 70.9303C283.358 70.8193 286.028 71.9589 288.116 74.1463C291.07 77.2417 292.5 82.0221 292.04 87.2614C291.775 90.2781 291.007 95.1411 289.818 101.325C288.744 106.911 287.398 113.208 286.025 119.165C284.467 125.919 282.875 132.235 281.604 136.579C280.802 139.321 280.006 141.897 279.237 144.389C276.696 152.612 274.689 159.108 275.508 162.199C275.566 162.417 275.741 163.079 276.247 163.086C276.249 163.086 276.251 163.086 276.254 163.086C277.416 163.085 278.852 158.856 281.832 148.761C282.305 147.155 282.753 145.639 283.168 144.287C284.298 140.607 285.757 132.268 287.301 123.44C287.396 122.895 287.492 122.349 287.587 121.803C289.271 112.188 290.99 102.574 292.41 98.4384C295.055 90.7316 299.712 87.669 307.067 88.8004C309.449 89.1666 311.341 90.3394 312.69 92.2862C315.34 96.1065 315.794 102.661 314.005 111.239C313.344 114.409 312.572 117.857 311.721 121.459C312.346 117.341 312.784 113.194 313.066 109.042C313.243 105.974 313.327 102.888 313.055 99.8214C312.961 98.7997 312.822 97.7796 312.586 96.7779C312.338 95.7861 312.028 94.7625 311.361 93.9624C310.705 93.1706 309.89 92.5054 308.973 92.0381C307.558 91.2921 305.925 91.0331 304.343 91.2129C304.282 91.2199 304.22 91.2262 304.159 91.2345C304.125 91.239 304.091 91.2442 304.057 91.2493C303.955 91.2645 303.853 91.2806 303.751 91.2994C303.744 91.3005 303.737 91.3018 303.731 91.3029C303.481 91.3496 303.234 91.4074 302.991 91.476C302.99 91.4747 302.99 91.4737 302.99 91.4724C302.986 91.4602 302.983 91.4488 302.983 91.4488C299.267 92.3734 296.596 95.6059 295.119 98.9996C294.508 100.373 294.032 101.935 293.601 103.373C291.786 109.834 290.536 116.419 289.395 123.026C288.447 128.521 287.574 134.032 286.515 139.501C285.855 142.834 285.067 146.481 284.254 149.764C282.985 154.824 281.67 159.978 279.114 164.556C278.376 165.732 276.896 168.152 275.274 167.018C274.734 166.562 274.429 165.897 274.19 165.243C273.032 162.368 273.518 159.171 274.174 156.232C275.956 148.907 278.383 141.752 280.373 134.482C282.164 128.283 283.761 122.028 285.148 115.728C286.601 109.13 287.824 102.482 288.793 95.7947C289.488 90.1811 290.144 84.3844 288.791 78.8122C288.291 76.9543 287.436 75.072 285.84 73.8881C282.632 71.6807 277.938 72.2561 274.822 74.3713C271.482 76.5951 269.487 80.2511 268.191 83.9479C267.942 84.6945 267.674 85.5731 267.477 86.3338C267.249 87.1551 266.947 88.2457 266.772 89.0839C264.9 97.3622 264.051 105.783 263.401 114.227C262.893 120.841 262.506 127.47 261.845 134.057C261.149 141.36 259.447 152.334 254.845 158.129C254.251 158.804 253.53 159.493 252.62 159.649C252.166 159.728 251.725 159.556 251.319 159.37C250.034 158.78 249.236 157.518 248.827 156.196C248.263 154.405 248.171 152.5 248.192 150.632C248.26 146.866 248.841 143.126 249.546 139.431C251.929 127.706 254.046 115.857 255.655 103.984C255.945 101.85 256.22 99.7162 256.474 97.5819C257.031 92.0122 258.107 86.0302 255.8 80.7096C253.475 75.3996 248.524 74.2952 243.738 77.2629C241.323 78.8996 239.894 81.5621 238.818 84.1948C237.061 88.5915 236.037 93.2329 235.057 97.8493C233.304 106.701 231.873 115.83 230.513 124.933C229.631 130.837 228.778 136.731 227.889 142.53C227.96 142.141 228.03 141.746 228.101 141.35C230.783 126.326 233.169 106.996 236.733 92.4313C237.662 88.8062 238.674 85.1518 240.446 81.84C241.747 79.3852 243.757 77.2657 246.507 76.5362C250.52 75.2811 253.738 77.1924 255.357 80.9066C256.861 84.3532 256.916 88.2184 256.593 91.9119C256.396 94.5068 256.052 97.7484 255.743 100.343C254.169 113.41 251.985 126.491 249.37 139.397C249.02 141.251 248.706 143.112 248.46 144.984C248.015 148.825 247.169 155.765 250.051 158.728C251.979 160.494 253.428 160.088 255.016 158.277C256.848 156.085 257.945 153.393 258.893 150.731C261.966 141.757 262.399 132.193 263.204 122.821C264.24 110.658 264.818 98.3179 268.021 86.4864C268.678 84.0189 269.593 81.5719 270.938 79.3941C273.687 74.7255 278.963 71.685 284.323 73.7085C290.703 76.3031 288.934 90.0859 288.235 95.7186C287.453 101.456 286.447 107.152 285.271 112.813C283 123.746 280.095 134.549 276.937 145.265C275.839 149.118 274.663 152.957 273.855 156.887C273.637 158.027 273.45 159.241 273.388 160.398C273.304 161.929 273.456 163.495 273.987 164.942C274.284 165.708 274.583 166.524 275.24 167.062C275.573 167.353 276.054 167.504 276.504 167.401C278.389 166.879 279.789 164.071 280.639 162.39C281.097 161.422 281.514 160.439 281.899 159.446C284.37 153.073 285.467 146.236 286.694 139.535C288.376 130.549 290.371 120.121 292.281 111.17C292.825 108.706 293.46 105.941 294.123 103.521C294.654 101.63 295.187 99.7417 296.072 97.9957C297.499 95.1045 299.835 92.4686 302.998 91.503C302.998 91.503 302.995 91.4895 302.991 91.4758C303.98 91.215 305.014 91.1196 306.031 91.2184C308.063 91.4207 310.004 92.4287 311.28 94.0288C311.924 94.8191 312.217 95.8314 312.45 96.8094C312.672 97.8039 312.799 98.8193 312.88 99.8363C313.116 102.894 312.997 105.967 312.787 109.023C312.547 112.036 312.225 115.046 311.809 118.043C311.104 123.118 310.129 128.157 308.827 133.107C308.416 134.689 307.996 136.277 307.569 137.863L307.823 137.932C307.696 137.898 307.569 137.863 307.569 137.863C306.462 142.09 305.321 146.31 304.077 150.499C303.267 153.226 302.307 155.902 301.293 158.558C301.291 158.565 301.288 158.571 301.286 158.577C301.187 158.749 301.089 158.921 300.991 159.094C299.238 162.18 297.601 165.361 296.589 168.77C296.28 169.704 295.569 173.456 297.474 172.881C299.288 172.06 300.963 168.961 301.91 167.238C304.148 162.979 305.485 158.332 306.918 153.762C306.918 153.762 306.902 153.757 306.877 153.75L306.918 153.762C307.595 151.495 308.289 149.105 309.024 146.575C310.012 143.173 311.014 139.723 311.99 136.523C313.288 132.262 314.539 128.444 315.643 125.779C318.007 120.078 320.79 116.52 323.481 115.762C324.632 115.438 325.736 115.651 326.76 116.393C327.151 116.757 327.515 117.184 327.85 117.674C331.434 122.92 331.177 134.48 329.422 143.001C329.169 144.232 328.836 145.505 328.445 146.805C326.031 154.83 321.257 163.904 317.268 170.912C315.966 173.199 314.748 175.266 313.724 177.005C311.262 181.183 311.518 184.492 311.745 187.411ZM279.265 280.539C277.162 284.123 274.778 288.185 273.849 293.504C272.81 299.449 271.601 303.507 268.788 305.368C266.286 307.022 262.377 307.066 255.715 305.513C255.206 305.394 254.662 305.261 254.094 305.118C246.738 303.263 234.623 299.419 223.25 295.521C211.593 291.526 200.721 287.474 196.57 285.454C187.564 281.07 187.158 277.389 189.56 272.13C192.362 265.994 195.073 254.598 197.251 245.44C198.02 242.208 199.297 240.183 201.155 239.248C203.508 238.064 206.572 238.751 209.72 239.931C210.614 240.266 211.514 240.64 212.407 241.023C215.127 242.19 220.143 244.079 226.068 246.227C231.109 248.055 236.808 250.071 242.312 251.989C245.078 252.953 247.794 253.893 250.353 254.771C252.399 255.474 254.643 256.176 257.018 256.919C258.357 257.338 259.72 257.764 261.085 258.202C269.629 260.945 278.254 264.147 281.433 268.797C283.974 272.514 281.999 275.88 279.265 280.539ZM214.117 125.792C218.638 128.69 222.291 136.468 224.406 147.703C222.442 162.656 220.844 173.816 216.087 180.038C219.27 172.025 217.503 157.214 215.7 146.067C215.305 143.625 214.908 141.357 214.562 139.377C214.365 138.252 214.184 137.221 214.03 136.303C212.633 128.01 208.658 125.702 206.888 125.078C207.202 124.966 207.528 124.863 207.874 124.774C210.068 124.209 212.159 124.545 214.09 125.773C214.099 125.779 214.108 125.786 214.117 125.792ZM323.883 114.944C324.052 114.973 324.218 115.011 324.381 115.055C324.035 115.066 323.683 115.121 323.328 115.221C320.467 116.027 317.554 119.7 315.123 125.564C314.131 127.956 313.026 131.263 311.874 134.982C310.765 138.561 309.615 142.522 308.483 146.418C307.748 148.947 307.054 151.336 306.378 153.601C305.481 156.656 304.591 159.722 303.496 162.71C302.941 164.198 302.312 165.659 301.597 167.077C300.876 168.489 300.082 169.875 299.106 171.118C298.112 172.388 296.416 173.911 296.405 171.15C296.503 167.592 299.338 162.127 301.255 158.655C300.723 160.047 300.177 161.434 299.627 162.82C298.589 165.534 297.436 168.254 296.996 171.144C297.483 168.263 298.676 165.569 299.758 162.873C300.868 160.178 301.994 157.487 302.993 154.744C304.982 149.259 306.516 143.619 308.111 138.01C308.312 137.262 308.511 136.514 308.71 135.766C308.924 134.955 309.137 134.145 309.348 133.336H309.348C309.35 133.328 309.352 133.32 309.354 133.313C310.41 129.255 311.407 125.239 312.312 121.401C312.587 120.893 316.627 113.705 323.883 114.944Z" fill="#1E0C02"/>
<path d="M151.076 144.488C150.524 159.4 154.426 155.466 157.693 167.699C160.95 179.929 167.878 176.193 166.504 186.087C165.515 193.265 166.832 197.44 168.601 194.958C171.892 181.552 174.139 161.5 169.641 146.03C167.718 139.414 166.771 133.567 166.009 128.868C164.651 120.487 163.772 115.084 158.967 112.852C158.279 112.989 153.124 114.329 151.525 123.822C151.37 124.74 151.19 125.773 150.992 126.899C150.616 129.049 150.18 131.54 149.752 134.226C150.653 135.896 151.287 138.649 151.076 144.488ZM153.351 128.181C154.691 115.772 159.913 112.81 162.618 120.947C164.468 126.513 164.341 129.101 165.313 136.84C166.286 144.58 170.92 153.972 170.915 161.604C170.909 169.235 167.724 177.311 165.554 161.151C163.385 144.99 156.948 154.314 157.444 146.419C157.939 138.523 157.398 132.416 155.529 138.488C153.659 144.559 152.012 140.59 153.351 128.181Z" fill="#F1EDD1"/>
<path d="M60.5859 78.6328C61.0676 78.6848 61.545 78.7753 62.0113 78.9039C62.0117 78.9026 62.0119 78.9017 62.0122 78.9004C62.0107 78.9 62.0094 78.8996 62.0081 78.8993C61.533 78.7678 61.0577 78.6806 60.5859 78.6328Z" fill="#F1EDD1"/>
<path d="M45.2054 140.499C48.4966 149.339 50.231 132.438 52.7073 139.964C55.1744 147.488 56.9361 143.3 54.8071 133.785C53.9508 129.963 53.4531 126.876 53.0118 123.955C51.7131 119.693 50.4623 115.875 49.358 113.211C46.9947 107.509 44.2113 103.952 41.5205 103.194C40.369 102.87 39.266 103.082 38.2409 103.825C37.85 104.188 37.486 104.615 37.151 105.106C33.5673 110.352 33.824 121.911 35.5791 130.432C35.8326 131.663 36.1655 132.937 36.5564 134.237C36.9376 135.077 37.3501 135.9 37.7988 136.689C42.4325 144.9 41.9159 131.651 45.2054 140.499ZM36.2296 119.22C36.1675 113.263 39.7896 102.315 43.4024 106.722C53.2334 118.714 48.4433 132.007 45.3715 122.973C42.2997 113.94 40.4421 109.665 40.3876 117.538C40.333 125.412 36.2915 125.178 36.2296 119.22Z" fill="#F1EDD1"/>
<path d="M136.858 128.514C136.925 129 136.992 129.486 137.057 129.967C134.394 114.551 131.883 94.9126 128.268 79.8595C127.339 76.2342 126.327 72.58 124.555 69.2682C123.254 66.8165 121.244 64.6913 118.494 63.9644C114.483 62.7171 111.276 64.6017 109.644 68.3348C108.14 71.782 108.085 75.6466 108.408 79.3401C108.605 81.9286 108.952 85.1755 109.258 87.7716C110.831 100.836 113.018 113.922 115.631 126.825C115.982 128.679 116.295 130.541 116.541 132.412C116.78 134.284 116.967 136.166 116.995 138.057C117.02 139.947 116.931 141.866 116.363 143.684C115.95 145.041 115.104 146.374 113.771 146.985C110.165 148.962 106.979 140.695 106.108 138.159C103.036 129.184 102.603 119.622 101.798 110.25C100.715 97.6263 100.152 84.7893 96.5943 72.5626C95.9032 70.3501 94.9814 68.1661 93.6899 66.2356C91.6861 63.163 88.4508 60.7319 84.7068 60.5331C82.9139 60.4362 80.9934 60.7264 79.5089 61.7873C74.5846 65.5362 76.0696 77.5769 76.7664 83.1471C77.5841 88.8402 78.5562 94.5143 79.703 100.152C81.1987 105 82.7836 109.912 84.2943 114.157C89.5359 128.907 85.2009 98.9478 92.4281 119.435C99.6551 139.922 105.637 142.712 98.6853 152.451C91.745 162.183 103.989 162.127 90.1379 170.702C83.0096 175.114 84.9851 176.927 89.0187 177.528C92.0007 176.282 95.1281 175.222 98.3298 174.401C100.497 173.845 102.748 173.152 105.131 172.419C116.7 168.857 129.813 164.82 136.512 176.191C139.814 181.797 140.582 187.506 138.732 192.703C137.91 195.011 136.569 197.173 134.796 199.114C133.869 201.339 131.6 204.085 126.714 207.144C113.661 215.34 137.388 211.922 128.507 220.415C121.47 227.15 129.766 232.964 138.209 233.32C144.354 231.096 149.578 229.133 152.371 227.935C154.845 226.874 157.379 225.877 159.708 225.585C159.64 222.262 159.128 218.296 157.379 215.736C153.87 210.63 157.745 203.188 157.981 194.875C158.09 190.899 158.696 187.552 158.599 184.48C158.173 181.796 157.297 179.148 155.699 176.532C155.265 176.006 154.771 175.479 154.209 174.948C151.854 172.721 150.126 170.45 148.783 168.218C148.768 168.198 148.753 168.178 148.737 168.158C145.375 165.065 143.093 160.476 141.749 156.173C141.369 154.965 141.053 153.717 140.79 152.479C139.279 145.021 138.236 137.481 137.085 129.963C137.087 129.978 137.09 129.994 137.092 130.009C137.09 129.995 137.088 129.981 137.086 129.968C137.01 129.487 136.934 129 136.858 128.514ZM92.7273 106.644C87.8002 88.5528 88.1298 94.0878 88.5361 99.8408C88.9424 105.594 85.5117 105.187 80.9304 87.7791C76.349 70.3715 83.669 57.01 91.6623 70.4532C96.4966 78.5834 97.8526 89.7627 99.0942 102.736C100.336 115.71 97.6542 124.736 92.7273 106.644ZM130.751 161.142C126.595 157.875 124.961 157.906 127.496 162.137C130.031 166.368 131.84 169.965 125.428 165.149C119.016 160.333 115.231 164.653 106.53 168.122C97.8294 171.59 90.8111 170.354 101.08 167.015C111.35 163.675 110.269 165.22 110.086 156.46C109.903 147.699 121.498 155.87 121.872 147.465C122.247 139.06 126.23 140.725 128.737 148.86C130.49 154.547 134.907 164.409 130.751 161.142ZM127.416 119.878C125.406 102.932 120.102 112.94 119.667 100.766C119.232 88.5927 116.586 108.773 114.594 97.5552C112.602 86.3374 112.312 84.1885 112.053 74.6858C111.794 65.1831 121.525 63.2556 125.392 72.5796C130.455 84.7846 132.123 105.205 134.368 119.2C136.614 133.195 129.425 136.824 127.416 119.878ZM145.699 170.963C153.641 180.209 157.104 179.952 155.303 191.451C154.575 196.1 153.862 195.156 154.962 201.074C156.062 206.992 154.302 211.48 152.987 202.854C151.671 194.226 151.935 201.065 154.287 212.749C156.639 224.434 143.794 221.461 147.761 210.878C151.728 200.296 138.211 211.967 143.295 202.745C148.379 193.523 148.176 189.155 142.396 181.196C136.617 173.238 137.756 161.717 145.699 170.963Z" fill="#F1EDD1"/>
<path d="M67.1983 136.604C64.334 128.933 67.4927 133.94 71.6747 142.6C75.8475 151.258 75.1661 138.213 79.4201 144.743C82.08 148.834 83.2309 149.323 83.1026 146.875C80.6319 140.502 79.5345 133.665 78.3073 126.965C76.6267 117.982 74.6302 107.547 72.7207 98.5994C72.1775 96.1382 71.5417 93.3726 70.8787 90.9501C70.3474 89.0597 69.8141 87.1701 68.9295 85.425C67.5026 82.5342 65.1665 79.897 62.003 78.9323C62.003 78.9323 62.0068 78.9188 62.0105 78.9051C61.0211 78.6441 59.9874 78.5489 58.9704 78.6475C56.9381 78.8502 54.998 79.8576 53.7215 81.4579C53.0779 82.2484 52.7848 83.2607 52.5517 84.2387C51.738 88.2497 51.9675 92.3918 52.2152 96.4527C52.4542 99.4648 52.7767 102.475 53.193 105.473C55.7929 116.627 59.5376 131.177 62.49 136.796C67.5645 146.434 70.0625 144.275 67.1983 136.604ZM56.541 98.9999C56.412 91.5833 54.0493 102.916 53.534 92.3314C53.0186 81.7469 60.7082 77.1644 65.9666 85.1039C68.9336 89.5834 72.6033 108.199 75.0673 119.483C77.5314 130.766 74.2147 137.543 70.6785 128.112C67.1422 118.681 65.2082 132.079 62.3522 117.809C59.4962 103.538 56.6702 106.416 56.541 98.9999Z" fill="#F1EDD1"/>
<path d="M40.6191 102.48C40.9658 102.492 41.3172 102.546 41.6731 102.646C44.5332 103.452 47.4471 107.125 49.8777 112.989C50.8692 115.381 51.9753 118.688 53.1267 122.407C54.6145 124.212 55.6238 124.224 56.291 123.192C56.0761 122.38 55.8633 121.57 55.6527 120.761C55.651 120.754 55.6493 120.748 55.6476 120.741C54.5915 116.683 53.5941 112.665 52.6887 108.827C52.4148 108.321 48.3749 101.132 41.1179 102.369C40.9486 102.398 40.7826 102.436 40.6191 102.48Z" fill="#DB6914"/>
<path d="M77.4128 109.23C75.7287 99.6149 74.0097 90.001 72.5901 85.8655C69.9453 78.1589 65.2874 75.0972 57.9329 76.2275C55.5515 76.5936 53.6594 77.7665 52.3096 79.7133C49.6604 83.5338 49.2059 90.0876 50.995 98.6665C51.6561 101.836 52.4279 105.284 53.2791 108.885C52.6544 104.768 52.2156 100.621 51.9336 96.4692C51.757 93.4008 51.6734 90.3147 51.9455 87.2485C52.0394 86.2268 52.1781 85.2065 52.414 84.205C52.6623 83.213 52.9726 82.1896 53.6391 81.3895C54.9443 79.79 56.9168 78.7904 58.9666 78.6108C59.5056 78.5646 60.0477 78.5742 60.5845 78.6321C61.0563 78.68 61.5316 78.7671 62.0067 78.8986C62.0082 78.899 62.0095 78.8993 62.0108 78.8997C62.0142 78.8877 62.0174 78.8763 62.0174 78.8763C65.7338 79.8016 68.4038 83.0333 69.8819 86.4271C70.4926 87.8 70.9686 89.363 71.3995 90.8001C73.2145 97.2616 74.4644 103.846 75.6051 110.454C76.24 110.278 76.8595 109.859 77.4128 109.23Z" fill="#DB6914"/>
<path d="M109.35 91.4582C109.058 89.3117 108.783 87.1631 108.527 85.0125C107.97 79.4439 106.894 73.4602 109.201 68.1401C110.9 64.2047 114.397 62.1476 118.635 63.4852C119.562 63.7496 120.453 64.16 121.263 64.6933C123.678 66.3303 125.107 68.9927 126.183 71.6252C127.251 74.2582 128.018 77.0034 128.702 79.7537C130.054 85.253 131.044 90.8338 131.972 96.4149C132.801 101.512 133.664 106.925 134.497 112.352C135.19 111.545 135.595 109.284 135.834 107.076C135.032 102.204 134.382 97.6355 133.795 93.5098C132.471 84.2008 131.425 76.8478 129.487 71.3357C127.422 65.4615 124.521 62.2942 120.079 61.0661C115.883 59.9064 112.302 60.4824 109.436 62.7783C105.06 66.2837 103.36 73.0818 103.617 78.2643C103.828 82.5208 106.296 95.1435 108.735 107.552C109.728 104.766 110.051 99.2315 109.35 91.4582Z" fill="#DB6914"/>
<path d="M77.0871 88.8186C76.4582 85.0962 75.8741 81.3552 75.6037 77.5831C75.3561 73.8018 75.2617 69.9511 76.2114 66.2408C76.9933 63.2511 78.6238 60.7883 81.8526 60.1619C86.8035 59.0451 91.5561 61.7915 94.1784 65.9105C95.3627 67.693 96.2492 69.6869 96.9199 71.7158C97.2667 72.7351 97.6087 74.0843 97.9003 75.1321C100.03 83.8131 100.9 92.7156 101.586 101.615C103.34 106.43 104.985 108.972 106.329 109.513C105.082 98.6504 103.47 86.5831 101.251 77.1246C97.4777 61.0431 90.6199 58.6143 84.4091 58.3593C81.6456 58.2458 78.9741 59.3879 76.8862 61.5751C73.9318 64.6705 72.5014 69.4508 72.9617 74.6903C73.2268 77.7068 73.9952 82.5698 75.1837 88.7536C76.2576 94.3401 77.6036 100.637 78.9769 106.593C79.3641 105.606 79.6663 104.46 79.8512 103.172C78.7871 98.419 77.8489 93.638 77.0871 88.8186Z" fill="#DB6914"/>
<path d="M104.416 175.557C104.923 175.401 105.434 175.244 105.953 175.084C113.018 172.91 120.322 170.661 126.104 171.836C129.624 172.551 132.243 174.439 134.109 177.607C136.978 182.477 137.668 187.373 136.104 191.767C134.298 196.843 129.484 201.152 122.899 203.589C121.872 203.969 121.034 204.284 120.333 204.549C120.667 204.966 121.59 205.234 123.553 205.144C124.076 205.119 124.542 205.131 124.961 205.17C131.508 202.426 136.297 197.867 138.203 192.514C139.995 187.479 139.243 181.933 136.028 176.476C132.841 171.066 128.099 169.281 122.749 169.281C117.232 169.281 111.07 171.179 105.297 172.956C105.179 172.992 105.063 173.028 104.945 173.064C104.304 173.941 103.902 174.891 104.416 175.557Z" fill="#DB6914"/>
<path d="M135.574 191.581C137.081 187.349 136.407 182.616 133.625 177.895C131.844 174.872 129.347 173.071 125.992 172.39C124.932 172.174 123.816 172.078 122.655 172.078C117.659 172.078 111.845 173.862 106.182 175.605C104.579 177.059 104.298 179.058 107.219 181.747C115.555 189.438 126.299 189.343 116.802 195.87C109.923 200.585 113.037 204.339 118.947 204.477C119.836 204.138 121.018 203.689 122.704 203.065C129.132 200.685 133.824 196.499 135.574 191.581Z" fill="#DB6914"/>
<path d="M136.243 239.703C136.704 249.069 153.889 246.742 144.256 256.601C134.625 266.451 139.662 270.292 151.085 264.612C162.505 258.941 142.03 271.58 159.746 268.46C177.463 265.339 168.687 257.103 166.8 245.369C164.914 233.626 166.232 224.896 158.022 226.864C156.714 227.174 155.836 227.326 155.28 227.357C154.386 227.692 153.486 228.066 152.593 228.449C149.873 229.616 144.857 231.505 138.933 233.653C137.212 235.567 136.14 237.613 136.243 239.703Z" fill="#DB6914"/>
<path d="M146.082 126.709C146.337 131.12 147.966 131.572 149.302 133.497C149.697 131.054 150.094 128.787 150.441 126.807C150.637 125.682 150.818 124.65 150.972 123.733C152.37 115.44 156.344 113.132 158.115 112.508C157.8 112.396 157.474 112.293 157.128 112.204C154.935 111.638 152.843 111.974 150.912 113.203C150.903 113.209 150.894 113.216 150.885 113.222C148.828 116.068 145.758 121.287 146.082 126.709Z" fill="#DB6914"/>
<path d="M91.6637 70.45C83.6704 57.007 76.3504 70.3683 80.9318 87.7759C85.5132 105.184 88.944 105.591 88.5375 99.8376C88.1312 94.0846 87.8016 88.5496 92.7287 106.641C97.6559 124.733 100.337 115.707 99.0959 102.733C97.8541 89.7595 96.4981 78.5802 91.6637 70.45Z" fill="#FFFBE1"/>
<path d="M70.6788 128.109C74.2151 137.54 77.5316 130.762 75.0676 119.479C72.6035 108.196 68.9339 89.5799 65.9669 85.1002C60.7083 77.1607 53.019 81.7432 53.5344 92.3277C54.0498 102.912 56.4123 91.5796 56.5413 98.9962C56.6703 106.413 59.4965 103.534 62.3525 117.805C65.2085 132.075 67.1426 118.678 70.6788 128.109Z" fill="#FFFBE1"/>
<path d="M40.3873 117.538C40.4419 109.665 42.2994 113.94 45.3712 122.974C48.443 132.008 53.2331 118.715 43.4021 106.723C39.7894 102.316 36.1672 113.263 36.2293 119.221C36.2912 125.178 40.3327 125.412 40.3873 117.538Z" fill="#FFFBE1"/>
<path d="M125.393 72.5796C121.526 63.2556 111.795 65.1831 112.054 74.6858C112.313 84.1884 112.603 86.3374 114.595 97.5551C116.587 108.773 119.233 88.5926 119.668 100.766C120.103 112.94 125.407 102.932 127.417 119.878C129.426 136.823 136.615 133.195 134.369 119.2C132.124 105.205 130.456 84.7845 125.393 72.5796Z" fill="#FFFBE1"/>
<path d="M155.53 138.49C157.4 132.418 157.941 138.525 157.445 146.421C156.95 154.317 163.387 144.993 165.556 161.153C167.725 177.314 170.911 169.238 170.916 161.606C170.922 153.974 166.287 144.582 165.315 136.843C164.343 129.103 164.47 126.515 162.619 120.949C159.914 112.813 154.692 115.775 153.353 128.184C152.014 140.593 153.661 144.562 155.53 138.49Z" fill="#FFFBE1"/>
<path d="M143.296 202.742C138.212 211.964 151.729 200.292 147.762 210.875C143.795 221.458 156.639 224.431 154.288 212.746C151.936 201.061 151.672 194.223 152.987 202.85C154.303 211.477 156.063 206.988 154.963 201.071C153.863 195.153 154.575 196.097 155.303 191.447C157.105 179.949 153.642 180.206 145.7 170.96C137.757 161.714 136.617 173.234 142.397 181.193C148.177 189.151 148.38 193.519 143.296 202.742Z" fill="#FFFBE1"/>
<path d="M121.873 147.464C121.499 155.869 109.905 147.698 110.088 156.459C110.271 165.219 111.351 163.674 101.081 167.013C90.8122 170.353 97.8304 171.589 106.531 168.12C115.232 164.652 119.017 160.332 125.429 165.148C131.842 169.964 130.032 166.367 127.497 162.136C124.962 157.905 126.596 157.874 130.752 161.141C134.909 164.408 130.491 154.545 128.738 148.859C126.231 140.724 122.248 139.059 121.873 147.464Z" fill="#FFFBE1"/>
<path d="M128.507 220.411C137.388 211.918 113.661 215.336 126.714 207.14C131.6 204.081 133.869 201.334 134.796 199.109C132.072 202.093 128.327 204.551 123.865 206.202C122.03 206.882 120.818 207.345 119.843 207.717L119.81 207.73C116.628 208.945 116.567 208.969 108.227 211.386C104.655 212.422 101.307 213.957 98.069 215.442C95.8767 216.448 93.7252 217.434 91.5642 218.245C91.1459 219.063 90.9414 219.919 91.0177 220.796C91.5858 227.811 102.339 225.004 96.623 231.653C90.9067 238.303 103.443 233.399 98.4453 240.109C96.0425 243.34 98.2396 245.035 101.166 245.935C103.384 245.193 105.631 244.489 107.814 243.807C110.186 243.065 112.426 242.364 114.465 241.664C121.934 239.099 130.75 236.015 138.209 233.315C129.766 232.96 121.47 227.146 128.507 220.411Z" fill="#E6E0C3"/>
<path d="M59.4915 169.958C54.0755 174.942 56.7146 182.928 64.6666 178.915C72.6204 174.893 73.4778 177.867 68.6745 183.62C63.8692 189.383 73.5601 182.696 70.592 188.29C70.1568 189.118 69.9671 189.808 69.9585 190.384C74.4091 185.355 81.2077 180.79 89.0188 177.524C84.9849 176.923 83.0096 175.11 90.138 170.698C103.99 162.123 91.745 162.179 98.6853 152.447C105.637 142.708 99.6551 139.918 92.4281 119.431C85.2009 98.9438 89.5359 128.903 84.2943 114.153C82.7838 109.908 81.1987 104.996 79.703 100.148C80.4333 103.739 81.234 107.316 82.1124 110.873C84.3562 120.023 87.0476 129.062 89.6154 138.129C90.2405 140.4 90.8591 142.686 91.271 145.009C91.7051 147.38 91.8622 149.886 91.08 152.202C90.7561 153.017 90.4661 153.91 89.7618 154.487C87.5671 156.197 85.1311 151.381 84.362 149.814C83.9045 148.846 83.4873 147.864 83.1024 146.871C83.2306 149.318 82.08 148.829 79.4199 144.738C75.1659 138.208 75.8471 151.253 71.6745 142.595C67.4925 133.935 64.3338 128.928 67.1981 136.599C70.0623 144.27 67.5643 146.43 62.4898 136.791C59.5374 131.173 55.7926 116.622 53.1928 105.468C53.8963 110.535 54.8696 115.566 56.1682 120.508C56.5818 122.098 57.0035 123.694 57.4331 125.288C58.9351 130.914 60.3746 136.566 62.2726 142.075C62.7255 143.384 63.2083 144.682 63.7042 145.976C63.8025 146.148 63.9183 146.354 64.0483 146.587C66.0815 150.181 69.5945 156.859 68.6332 159.795C68.1963 160.901 67.0678 160.169 66.5004 159.611C65.0576 158.199 64.0396 156.42 63.0915 154.663C61.5941 151.829 60.5085 148.797 59.5231 145.757C59.0278 144.237 58.5525 142.713 58.0841 141.187C57.4072 138.92 56.7131 136.53 55.9781 134C54.99 130.599 53.9876 127.148 53.0122 123.948C53.4536 126.869 53.9512 129.956 54.8075 133.778C56.9366 143.293 55.1748 147.481 52.7077 139.957C50.2314 132.431 48.4972 149.333 45.2058 140.493C41.9163 131.644 42.4329 144.893 37.799 136.682C37.3501 135.893 36.9378 135.071 36.5566 134.23C38.9709 142.255 43.7448 151.329 47.7341 158.338C49.1696 159.314 51.0185 160.173 53.4056 160.817C64.7848 163.849 64.9001 164.964 59.4915 169.958Z" fill="#E6E0C3"/>
<path d="M89.7635 154.493C89.7635 154.493 89.7538 154.481 89.7441 154.469C89.7538 154.481 89.7635 154.493 89.7635 154.493Z" fill="#E6E0C3"/>
<path d="M101.168 245.941C98.2409 245.042 96.0436 243.346 98.4466 240.116C103.444 233.406 90.9079 238.309 96.6243 231.66C102.341 225.01 91.5871 227.818 91.0189 220.803C90.9426 219.925 91.1472 219.069 91.5655 218.252C88.5053 219.401 85.4262 220.198 82.1849 220.198C80.9215 220.198 79.6341 220.077 78.3128 219.809C78.2393 219.794 78.1656 219.778 78.0919 219.763C72.961 218.659 68.5878 214.833 66.3933 209.53C64.1419 204.09 64.5128 198.19 67.3855 193.747C68.1203 192.612 68.9856 191.49 69.9595 190.39C69.9681 189.814 70.1579 189.124 70.5931 188.296C73.5612 182.702 63.8703 189.389 68.6755 183.627C73.4791 177.874 72.6216 174.9 64.6677 178.921C56.7158 182.934 54.0767 174.948 59.4925 169.965C64.9011 164.97 64.7858 163.856 53.4059 160.823C51.0188 160.179 49.1699 159.32 47.7344 158.344C49.036 160.63 50.2536 162.697 51.2778 164.436C53.7394 168.614 53.4831 171.923 53.2568 174.842C53.0359 177.691 52.8453 180.152 55.3928 182.67C60.7437 187.958 61.8535 190.291 60.0811 197.804C58.9482 202.607 62.0236 207.059 65.9172 212.696C67.8989 215.564 70.1449 218.816 72.1814 222.605C74.8784 227.623 77.9661 230.851 80.4469 233.444C83.5572 236.696 85.8044 239.045 85.2085 242.748C84.3614 248.012 85.5409 251.857 85.9577 252.992C89.6367 250.142 95.2958 247.906 101.168 245.941Z" fill="#DBD5B6"/>
<path d="M119.122 248.405C120.532 259.776 136.788 260.44 125.822 271.395C114.858 282.34 122.747 286.486 134.455 283.417C136.764 282.811 139.287 282.692 141.751 282.951C153.409 278.955 164.281 274.904 168.432 272.884C177.438 268.499 177.844 264.819 175.442 259.56C172.64 253.424 169.929 242.028 167.751 232.87C166.982 229.638 165.705 227.613 163.847 226.678C162.986 226.245 162.03 226.062 161.01 226.062C159.241 226.062 157.278 226.612 155.282 227.361C155.838 227.329 156.715 227.178 158.023 226.867C166.234 224.9 164.916 233.63 166.801 245.373C168.689 257.107 177.465 265.343 159.748 268.463C142.031 271.584 162.507 258.945 151.086 264.616C139.664 270.296 134.627 266.455 144.258 256.605C153.891 246.746 136.705 249.073 136.245 239.707C136.141 237.617 137.214 235.571 138.934 233.657C133.893 235.485 128.194 237.5 122.69 239.419C120.298 241.532 118.628 244.444 119.122 248.405Z" fill="#CF6212"/>
<path d="M116.8 195.866C126.297 189.339 115.554 189.435 107.217 181.743C104.297 179.055 104.578 177.055 106.181 175.602C106.16 175.608 106.139 175.615 106.118 175.621C103.699 176.366 101.416 177.069 99.1623 177.647C96.3146 178.378 93.533 179.301 90.8739 180.379C89.0977 182.328 87.917 184.694 88.4386 187.381C89.9761 195.324 97.8446 194.199 92.4198 200.3C87.0024 206.412 100.512 200.738 95.3206 206.764C92.5351 209.997 94.9475 211.328 97.9327 211.821C100.893 210.472 103.961 209.135 107.294 208.169C115.496 205.791 115.554 205.769 118.613 204.601C118.719 204.56 118.83 204.518 118.946 204.474C113.036 204.335 109.921 200.581 116.8 195.866Z" fill="#CF6212"/>
<path d="M98.1161 258.464C102.718 268.604 109.015 265.034 104.531 273.699C100.049 282.355 114.006 281.014 110.332 287.471C108.839 290.092 109.544 291.639 110.908 292.543C118.264 290.688 130.379 286.844 141.752 282.946C139.288 282.687 136.764 282.806 134.455 283.412C122.747 286.481 114.858 282.336 125.822 271.39C136.788 260.435 120.533 259.771 119.122 248.4C118.628 244.439 120.299 241.527 122.69 239.414C119.924 240.378 117.208 241.318 114.649 242.196C112.603 242.899 110.359 243.601 107.984 244.344C106.645 244.763 105.282 245.189 103.917 245.627C100.14 247.641 95.0754 251.753 98.1161 258.464Z" fill="#C55D10"/>
<path d="M95.3205 206.768C100.511 200.742 87.0023 206.416 92.4197 200.304C97.8445 194.202 89.976 195.328 88.4385 187.385C87.9169 184.698 89.0974 182.332 90.8738 180.383C84.6998 182.886 79.1923 186.226 75.0859 189.953C74.3685 191.892 74.3908 194.072 75.8276 196.393C80.9901 204.711 84.3013 203.874 80.3635 209.243C77.4026 213.292 79.6785 215.864 83.9271 216.757C88.0909 216.336 92.1433 214.478 96.6319 212.419L96.6707 212.402C97.0894 212.21 97.5098 212.017 97.9324 211.824C94.9474 211.332 92.535 210.001 95.3205 206.768Z" fill="#C55D10"/>
<path d="M85.7359 267.969C87.8391 271.553 90.2227 275.616 91.1522 280.935C92.1907 286.879 93.3997 290.937 96.2132 292.798C98.7146 294.453 102.624 294.496 109.286 292.943C109.795 292.824 110.339 292.691 110.907 292.548C109.543 291.644 108.838 290.098 110.331 287.476C114.006 281.02 100.048 282.36 104.53 273.704C109.014 265.039 102.718 268.61 98.1154 258.469C95.0747 251.758 100.14 247.646 103.916 245.633C95.3719 248.375 86.7469 251.577 83.568 256.228C81.027 259.945 83.0021 263.311 85.7359 267.969Z" fill="#BB570E"/>
<path d="M80.3644 209.244C84.3021 203.875 80.9908 204.711 75.8286 196.393C74.3918 194.073 74.3694 191.892 75.0868 189.953C73.1042 191.752 71.4471 193.641 70.2002 195.569C67.9594 199.033 67.6875 203.892 69.4907 208.249C71.2641 212.534 74.7426 215.613 78.7958 216.485C80.5487 216.865 82.2473 216.928 83.928 216.758C79.6794 215.865 77.4036 213.292 80.3644 209.244Z" fill="#BB570E"/>
<path d="M119.61 207.206L119.644 207.193C120.619 206.821 121.833 206.357 123.671 205.677C124.108 205.515 124.538 205.345 124.961 205.168C124.542 205.13 124.075 205.118 123.553 205.143C121.59 205.232 120.667 204.965 120.333 204.547C119.736 204.773 119.239 204.963 118.815 205.125C115.735 206.302 115.676 206.325 107.452 208.708C103.683 209.801 100.239 211.38 96.9089 212.908L96.8678 212.927C91.6977 215.298 87.0974 217.408 82.2051 217.408C81.0494 217.408 79.8775 217.29 78.6777 217.03C74.4441 216.12 70.8154 212.915 68.9714 208.459C67.0986 203.934 67.3887 198.876 69.7285 195.259C74.7428 187.507 86.242 180.38 99.0241 177.102C100.782 176.651 102.565 176.121 104.416 175.555C103.902 174.89 104.304 173.94 104.946 173.062C102.687 173.758 100.544 174.412 98.4707 174.944C85.1761 178.353 73.1597 185.852 67.8578 194.049C65.0854 198.336 64.7322 204.041 66.913 209.311C69.0368 214.443 73.2599 218.143 78.2099 219.208C78.2813 219.224 78.3531 219.239 78.4246 219.253L78.4249 219.253C79.7005 219.512 80.9479 219.629 82.1727 219.629C87.5971 219.63 92.5969 217.336 97.8347 214.934C101.092 213.44 104.459 211.895 108.072 210.848C116.389 208.437 116.449 208.414 119.61 207.206Z" fill="#BB570E"/>
<path d="M154.209 174.949C154.772 175.48 155.265 176.008 155.699 176.533C155.606 176.383 155.512 176.232 155.415 176.081C154.444 174.56 153.319 173.14 152.119 171.786L152.27 171.653L152.119 171.786C151.45 171.033 150.703 170.248 149.9 169.453C149.51 169.067 149.138 168.655 148.783 168.219C150.126 170.451 151.854 172.722 154.209 174.949Z" fill="#E6E0C3"/>
<path d="M157.982 194.872C157.746 203.185 153.871 210.627 157.38 215.734C159.129 218.294 159.64 222.26 159.709 225.582C160.987 225.422 162.202 225.477 163.312 225.848C163.115 223.591 162.498 213.427 166.194 203.133C167.005 200.868 167.832 198.095 168.602 194.959C166.833 197.441 165.516 193.266 166.505 186.088C167.879 176.194 160.951 179.93 157.694 167.699C154.427 155.467 150.525 159.401 151.077 144.489C151.288 138.65 150.654 135.897 149.753 134.227C147.846 146.178 146.081 162.01 150.324 169.077C151.125 169.87 151.871 170.655 152.541 171.409C158.021 177.616 159.763 183.49 159.159 191.695C158.922 195.276 158.267 198.989 157.977 202.563C157.695 206.184 157.419 209.847 157.836 213.468C157.372 209.85 157.601 206.179 157.837 202.552C158.33 196.323 159.526 190.314 158.599 184.477C158.696 187.549 158.091 190.897 157.982 194.872Z" fill="#E6E0C3"/>
<path d="M140.594 135.13C142.558 150.083 144.156 161.243 148.913 167.465C145.73 159.452 147.498 144.641 149.3 133.494C147.965 131.569 146.335 131.118 146.081 126.706C145.757 121.284 148.826 116.066 150.883 113.219C146.362 116.117 142.71 123.895 140.594 135.13Z" fill="#C55D10"/>
<path d="M136.86 128.509C136.936 128.996 137.012 129.483 137.087 129.963C137.089 129.977 137.091 129.991 137.093 130.005C138.432 137.896 139.583 145.836 141.393 153.636C141.716 154.85 142.084 156.068 142.506 157.251C143.379 159.598 144.49 161.906 145.896 163.977C146.178 164.402 146.499 164.84 146.826 165.262C143.079 158.402 141.66 147.584 139.832 133.633C138.931 126.761 137.91 118.972 136.458 110.729C136.24 109.492 136.033 108.272 135.835 107.07C135.596 109.278 135.19 111.539 134.498 112.346C135.338 117.822 136.147 123.311 136.86 128.509Z" fill="#C55D10"/>
<path d="M101.586 101.612C101.807 104.482 102.01 107.352 102.229 110.214C102.832 117.713 103.192 125.281 104.858 132.636C105.642 136.279 108.484 146.214 112.382 147.075C112.836 147.153 113.277 146.981 113.683 146.795C114.099 146.599 114.481 146.333 114.807 146.009C116.128 144.664 116.514 142.69 116.71 140.871C117.224 134.429 115.576 127.617 114.345 121.311C112.428 111.408 110.708 101.453 109.35 91.4531C110.051 99.2265 109.729 104.761 108.736 107.547C108.792 107.833 108.848 108.119 108.904 108.405C111.387 121.032 113.732 132.959 113.851 136.589C113.913 138.477 113.753 140.744 112.643 140.826C112.625 140.828 112.607 140.828 112.588 140.828C110.988 140.829 109.237 135.663 108.408 128.46C108.142 126.155 107.853 123.456 107.547 120.598C107.181 117.178 106.778 113.421 106.329 109.51C104.985 108.969 103.34 106.427 101.586 101.612Z" fill="#C55D10"/>
<path d="M89.7267 154.447C90.2668 153.991 90.5723 153.325 90.8106 152.672C91.7903 150.252 91.5938 147.555 91.1117 145.042C90.6762 142.729 90.0357 140.46 89.3869 138.198C85.9221 126.606 82.4948 114.978 79.8505 103.172C79.6656 104.46 79.3633 105.606 78.9762 106.593C80.5335 113.347 82.1262 119.663 83.3968 124.008C84.1986 126.75 84.9947 129.326 85.7646 131.818C88.3056 140.041 90.3124 146.536 89.4928 149.628C89.4353 149.845 89.2598 150.507 88.7539 150.514C88.7517 150.514 88.7496 150.514 88.7472 150.514C87.5847 150.514 86.1488 146.285 83.1694 136.189C82.6958 134.584 82.2482 133.068 81.8331 131.716C80.7032 128.035 79.2445 119.697 77.7 110.869C77.6048 110.324 77.5092 109.778 77.4135 109.232C76.8602 109.861 76.2407 110.279 75.6055 110.455C76.554 115.95 77.4272 121.461 78.4862 126.93C79.1453 130.262 79.9335 133.906 80.7473 137.192C82.0163 142.254 83.3301 147.406 85.8863 151.985C86.6447 153.2 88.1119 155.566 89.7267 154.447C89.7267 154.447 89.7355 154.458 89.7443 154.469C89.7355 154.458 89.7267 154.447 89.7267 154.447Z" fill="#C55D10"/>
<path d="M53.127 122.414C54.2355 125.993 55.3861 129.954 56.5181 133.851C57.2527 136.38 57.9466 138.768 58.6229 141.033C59.9825 145.602 61.2423 150.242 63.404 154.509C64.1251 155.921 64.9185 157.308 65.8953 158.55C66.8808 159.809 68.5852 161.352 68.5953 158.582C68.498 155.024 65.6591 149.552 63.7402 146.078C64.2757 147.472 64.8264 148.862 65.3733 150.253C66.4115 152.967 67.5645 155.687 68.0045 158.577C67.518 155.695 66.3243 153.001 65.2428 150.305C62.9639 144.936 60.9022 139.467 59.3077 133.85C58.4741 131.056 57.6716 128.252 56.8899 125.442C56.6885 124.694 56.4892 123.947 56.291 123.199C55.6241 124.231 54.6148 124.219 53.127 122.414Z" fill="#C55D10"/>
<path d="M63.7128 145.996C63.8189 146.181 63.9321 146.381 64.0491 146.588C63.9192 146.354 63.8035 146.149 63.7051 145.977C63.7077 145.983 63.7103 145.99 63.7128 145.996Z" fill="#C55D10"/>
<path d="M56.9238 125.431L57.1613 125.367L56.9238 125.431Z" fill="#C55D10"/>
<path d="M58.3741 141.102L58.3594 141.106L58.3741 141.102Z" fill="#C55D10"/>
<path d="M136.103 191.769C137.667 187.375 136.977 182.479 134.108 177.61C132.241 174.441 129.622 172.553 126.102 171.838C120.32 170.664 113.016 172.912 105.951 175.087C105.433 175.247 104.921 175.404 104.414 175.559C102.563 176.125 100.781 176.655 99.0223 177.106C86.2402 180.384 74.741 187.511 69.7267 195.263C67.3869 198.88 67.097 203.938 68.9696 208.463C70.8137 212.92 74.4423 216.124 78.6759 217.034C79.8757 217.294 81.0476 217.412 82.2033 217.412C87.0956 217.412 91.6959 215.302 96.866 212.931L96.9071 212.912C100.238 211.384 103.682 209.805 107.45 208.713C115.674 206.329 115.733 206.306 118.813 205.129C119.237 204.967 119.734 204.778 120.331 204.552C121.032 204.287 121.87 203.972 122.897 203.592C129.483 201.154 134.296 196.845 136.103 191.769ZM118.946 204.477C118.83 204.521 118.719 204.564 118.612 204.604C115.554 205.773 115.495 205.795 107.294 208.172C103.961 209.138 100.893 210.475 97.9325 211.824C97.5099 212.017 97.0895 212.209 96.6708 212.401L96.632 212.419C92.1435 214.478 88.0908 216.336 83.9272 216.757C82.2466 216.927 80.5479 216.864 78.795 216.484C74.7418 215.613 71.2633 212.534 69.4899 208.248C67.6867 203.891 67.9586 199.033 70.1994 195.568C71.4463 193.64 73.1034 191.752 75.086 189.952C79.1925 186.226 84.6997 182.885 90.8739 180.382C93.533 179.305 96.3146 178.381 99.1623 177.651C101.416 177.073 103.699 176.369 106.118 175.624C106.139 175.618 106.16 175.611 106.181 175.605C111.843 173.862 117.657 172.078 122.654 172.078C123.814 172.078 124.931 172.174 125.991 172.389C129.346 173.071 131.842 174.872 133.623 177.895C136.405 182.616 137.079 187.349 135.573 191.581C133.822 196.499 129.131 200.685 122.702 203.064C121.016 203.688 119.834 204.138 118.946 204.477Z" fill="#1E0C02"/>
<path d="M108.228 211.388C116.568 208.971 116.628 208.948 119.811 207.732L119.844 207.719C120.818 207.347 122.031 206.884 123.866 206.205C128.327 204.554 132.073 202.095 134.797 199.112C136.569 197.172 137.911 195.01 138.732 192.702C140.582 187.505 139.815 181.795 136.512 176.19C129.813 164.818 116.701 168.856 105.132 172.417C102.749 173.151 100.498 173.844 98.3306 174.4C95.1288 175.221 92.0013 176.28 89.0195 177.527C81.2084 180.793 74.4099 185.357 69.9592 190.386C68.9853 191.486 68.1198 192.608 67.3852 193.744C64.5125 198.186 64.1416 204.086 66.3929 209.526C68.5874 214.83 72.9607 218.655 78.0916 219.759C78.1653 219.775 78.2392 219.79 78.3125 219.805C79.6338 220.074 80.9212 220.195 82.1846 220.195C85.4259 220.195 88.505 219.397 91.5652 218.248C93.7261 217.437 95.8775 216.451 98.0699 215.445C101.307 213.96 104.655 212.424 108.228 211.388ZM82.1724 219.63C80.9476 219.63 79.7002 219.513 78.4246 219.254L78.4242 219.254C78.3528 219.239 78.281 219.224 78.2096 219.209C73.2597 218.144 69.0365 214.444 66.9127 209.311C64.7319 204.042 65.0851 198.336 67.8575 194.049C73.1596 185.853 85.1759 178.354 98.4704 174.945C100.543 174.412 102.686 173.758 104.945 173.063C105.063 173.027 105.179 172.991 105.297 172.955C111.07 171.178 117.232 169.28 122.749 169.28C128.099 169.28 132.841 171.065 136.028 176.475C139.243 181.932 139.995 187.478 138.203 192.513C136.297 197.866 131.508 202.424 124.961 205.168C124.538 205.346 124.109 205.516 123.671 205.677C121.833 206.357 120.619 206.821 119.644 207.194L119.61 207.206C116.449 208.414 116.389 208.437 108.071 210.848C104.459 211.895 101.092 213.44 97.8344 214.934C92.5966 217.337 87.5967 219.63 82.1724 219.63Z" fill="#1E0C02"/>
<path d="M95.9031 293.266C97.2822 294.179 99.0413 294.633 101.379 294.633C103.521 294.633 106.149 294.251 109.414 293.49C123.285 290.256 160.145 277.542 168.678 273.389C176.952 269.361 178.856 265.681 175.954 259.326C173.175 253.24 170.47 241.873 168.298 232.74C167.488 229.336 166.115 227.189 164.099 226.175C164.033 226.142 163.966 226.112 163.899 226.082C163.755 224.648 162.869 214.062 166.724 203.326C169.202 196.408 171.235 186.772 172.163 177.551C173.011 169.126 173.356 156.792 170.183 145.877C168.269 139.294 167.325 133.466 166.566 128.782C165.066 119.529 164.075 113.415 157.268 111.658C154.917 111.053 152.677 111.412 150.61 112.728C146.17 115.553 142.558 122.861 140.367 133.395C139.471 126.558 138.454 118.824 137.012 110.636C135.912 104.393 135.084 98.5684 134.353 93.429C133.024 84.0891 131.975 76.7121 130.019 71.1476C127.887 65.0816 124.868 61.8047 120.23 60.5226C115.85 59.3113 112.101 59.9226 109.085 62.3377C104.554 65.9672 102.792 72.9654 103.056 78.2906C103.274 82.686 105.856 95.8177 108.353 108.517C110.831 121.121 113.172 133.026 113.289 136.611C113.376 139.251 112.926 140.245 112.602 140.269C112.596 140.269 112.59 140.269 112.584 140.269C111.812 140.269 109.927 136.734 108.967 128.399C108.702 126.096 108.413 123.398 108.107 120.542C106.722 107.608 104.825 89.8948 101.798 76.9963C100.079 69.6696 97.626 64.6172 94.2985 61.5506C91.7042 59.1598 88.5692 57.9673 84.4322 57.7972C81.502 57.6772 78.6805 58.8806 76.4794 61.1869C73.4132 64.3993 71.9269 69.3392 72.4015 74.7396C72.6683 77.775 73.4393 82.6577 74.6314 88.86C76.9257 100.797 80.4623 115.975 82.8578 124.166C83.6607 126.912 84.4573 129.49 85.228 131.984C87.7423 140.121 89.7282 146.549 88.95 149.484C88.8452 149.88 88.7457 149.948 88.7479 149.952C88.647 149.938 88.0829 149.653 86.6322 145.465C85.6994 142.772 84.688 139.345 83.7098 136.03C83.2356 134.423 82.7878 132.906 82.3718 131.551C81.252 127.904 79.7963 119.582 78.255 110.772C76.477 100.607 74.6383 90.0967 73.1239 85.6845C71.713 81.5736 69.756 78.7779 67.1415 77.1373C64.6495 75.5737 61.6099 75.0945 57.849 75.6731C55.309 76.0637 53.2903 77.3158 51.849 79.3942C49.1097 83.3447 48.6246 90.0493 50.4462 98.7831C50.9961 101.42 51.6227 104.248 52.3071 107.197C50.6743 104.934 46.8403 100.828 41.0239 101.819C39.2893 102.115 37.8304 103.113 36.6872 104.786C32.991 110.196 33.1911 121.621 35.0288 130.543C37.3782 141.95 46.105 156.762 50.7932 164.719C53.1651 168.745 52.9159 171.96 52.6962 174.797C52.4646 177.786 52.2643 180.367 54.9975 183.068C60.1688 188.178 61.242 190.431 59.5337 197.673C58.3433 202.72 61.4815 207.262 65.4546 213.013C67.4278 215.87 69.6645 219.107 71.686 222.869C74.4192 227.954 77.5362 231.213 80.0406 233.831C83.1503 237.082 85.2047 239.23 84.6533 242.656C83.7274 248.41 85.1213 252.424 85.4952 253.362C84.5303 254.161 83.7203 255.007 83.104 255.909C80.3618 259.92 82.5194 263.597 85.2512 268.253C87.3302 271.796 89.6867 275.811 90.5985 281.03C91.6626 287.122 92.9213 291.294 95.9031 293.266ZM85.2083 242.746C85.8042 239.043 83.557 236.694 80.4467 233.443C77.9657 230.849 74.878 227.621 72.1812 222.603C70.1447 218.814 67.8987 215.563 65.917 212.694C62.0233 207.058 58.948 202.606 60.0808 197.803C61.8533 190.289 60.7433 187.956 55.3926 182.668C52.845 180.151 53.0359 177.69 53.2566 174.841C53.4829 171.921 53.7394 168.613 51.2775 164.434C50.2534 162.696 49.0356 160.629 47.7342 158.342C43.7449 151.333 38.971 142.26 36.5567 134.234C36.1658 132.935 35.833 131.661 35.5795 130.43C33.8243 121.909 33.5676 110.349 37.1513 105.104C37.4865 104.613 37.8505 104.186 38.2412 103.823C39.2663 103.08 40.3693 102.867 41.5208 103.192C44.2116 103.95 46.995 107.507 49.3583 113.209C50.4627 115.873 51.7135 119.691 53.0121 123.953C53.9875 127.153 54.9898 130.604 55.978 134.005C56.713 136.535 57.4071 138.924 58.084 141.191C58.5523 142.717 59.0278 144.242 59.523 145.761C60.5085 148.801 61.594 151.833 63.0913 154.667C64.0395 156.424 65.0575 158.203 66.5003 159.616C67.0677 160.174 68.1962 160.906 68.6331 159.799C69.5946 156.864 66.0816 150.186 64.0482 146.592C63.9312 146.385 63.8177 146.186 63.7118 146C63.7093 145.994 63.7067 145.987 63.7043 145.981C63.2082 144.687 62.7255 143.388 62.2727 142.079C60.3745 136.571 58.9352 130.919 57.4332 125.293C57.0036 123.699 56.5819 122.103 56.1683 120.512C54.8697 115.57 53.8965 110.54 53.1928 105.473C52.7766 102.475 52.4543 99.4648 52.215 96.4526C51.9673 92.3917 51.7378 88.2497 52.5516 84.2387C52.7847 83.2607 53.0777 82.2484 53.7214 81.4579C54.9979 79.8576 56.938 78.8501 58.9703 78.6474C59.9873 78.5488 61.021 78.6441 62.0104 78.9051C62.0067 78.9186 62.0029 78.9322 62.0029 78.9322C65.1664 79.8969 67.5025 82.5339 68.9293 85.425C69.814 87.1702 70.347 89.0597 70.8786 90.9501C71.5416 93.3726 72.1774 96.1382 72.7206 98.5993C74.6301 107.547 76.6266 117.982 78.3072 126.964C79.5344 133.665 80.6318 140.502 83.1025 146.875C83.4874 147.868 83.9048 148.851 84.3621 149.819C85.1314 151.385 87.5672 156.202 89.7619 154.491C89.7619 154.491 89.7531 154.48 89.7443 154.469C89.7355 154.459 89.7267 154.447 89.7267 154.447C88.1119 155.566 86.6449 153.2 85.8865 151.985C83.3303 147.407 82.0165 142.254 80.7475 137.193C79.9335 133.906 79.1455 130.262 78.4864 126.93C77.4274 121.461 76.5544 115.95 75.6057 110.455C74.4651 103.848 73.215 97.2632 71.4 90.8016C70.9692 89.3644 70.4931 87.8014 69.8824 86.4285C68.4045 83.0347 65.7345 79.803 62.0179 78.8777C62.0179 78.8777 62.0147 78.8891 62.0113 78.9011C62.011 78.9024 62.0108 78.9034 62.0104 78.9047C61.5439 78.7759 61.0667 78.6853 60.585 78.6336C60.0482 78.5756 59.506 78.5662 58.9671 78.6122C56.9175 78.7918 54.9448 79.7916 53.6397 81.3909C52.9731 82.191 52.663 83.2144 52.4145 84.2064C52.1787 85.2079 52.0399 86.2282 51.946 87.2499C51.6739 90.3161 51.7577 93.4022 51.9342 96.4706C52.2162 100.623 52.6549 104.769 53.2797 108.887C52.4284 105.285 51.6567 101.838 50.9955 98.6679C49.2064 90.0891 49.6609 83.5352 52.3101 79.7147C53.6599 77.7679 55.552 76.5951 57.9334 76.2289C65.2879 75.0988 69.9456 78.1605 72.5907 85.8669C74.0102 90.0026 75.7292 99.6163 77.4133 109.232C77.509 109.778 77.6046 110.324 77.6998 110.869C79.2441 119.697 80.7029 128.035 81.8329 131.716C82.248 133.068 82.6954 134.584 83.1692 136.189C86.1486 146.285 87.5845 150.514 88.747 150.514C88.7492 150.514 88.7515 150.514 88.7537 150.514C89.2596 150.507 89.4351 149.845 89.4927 149.628C90.3124 146.536 88.3054 140.041 85.7644 131.818C84.9945 129.326 84.1984 126.749 83.3967 124.008C82.126 119.663 80.5333 113.347 78.976 106.593C77.6025 100.637 76.2565 94.3401 75.1828 88.7535C73.9943 82.5699 73.2259 77.7067 72.9608 74.6902C72.5003 69.4507 73.9307 64.6704 76.8853 61.575C78.9732 59.3878 81.6447 58.2456 84.4082 58.3592C90.619 58.6142 97.4768 61.0431 101.25 77.1246C103.469 86.5832 105.081 98.6505 106.328 109.513C106.778 113.424 107.18 117.181 107.547 120.601C107.853 123.459 108.142 126.158 108.407 128.463C109.237 135.666 110.987 140.832 112.588 140.831C112.606 140.831 112.624 140.831 112.642 140.829C113.753 140.747 113.912 138.48 113.85 136.592C113.731 132.962 111.386 121.035 108.904 108.408C108.848 108.122 108.791 107.836 108.735 107.55C106.296 95.1418 103.828 82.5191 103.617 78.2627C103.36 73.0802 105.059 66.282 109.436 62.7767C112.303 60.4807 115.883 59.9049 120.079 61.0644C124.521 62.2927 127.423 65.4598 129.487 71.334C131.425 76.8459 132.471 84.1989 133.795 93.5081C134.382 97.6339 135.032 102.202 135.835 107.075C136.033 108.277 136.239 109.496 136.457 110.734C137.909 118.976 138.93 126.765 139.831 133.637C141.659 147.589 143.078 158.406 146.825 165.266C146.498 164.844 146.177 164.406 145.895 163.981C144.489 161.911 143.378 159.603 142.505 157.256C142.084 156.073 141.715 154.854 141.392 153.64C139.582 145.84 138.431 137.9 137.093 130.009C137.09 129.994 137.087 129.978 137.085 129.963C138.236 137.481 139.279 145.021 140.79 152.479C141.053 153.717 141.369 154.965 141.749 156.173C143.093 160.476 145.376 165.065 148.738 168.158C148.753 168.178 148.768 168.198 148.784 168.218C149.139 168.654 149.51 169.066 149.9 169.452C150.704 170.247 151.45 171.032 152.12 171.785C153.319 173.139 154.445 174.559 155.416 176.08C155.513 176.231 155.607 176.381 155.699 176.532C157.298 179.148 158.173 181.796 158.599 184.48C159.525 190.317 158.33 196.326 157.837 202.554C157.601 206.182 157.372 209.853 157.836 213.47C157.418 209.85 157.695 206.187 157.977 202.566C158.267 198.992 158.922 195.279 159.159 191.698C159.762 183.493 158.021 177.619 152.54 171.411C151.871 170.658 151.125 169.873 150.324 169.079C146.08 162.013 147.845 146.181 149.753 134.229C150.181 131.544 150.617 129.053 150.993 126.903C151.19 125.776 151.371 124.744 151.526 123.826C153.125 114.333 158.28 112.992 158.967 112.855C163.772 115.087 164.651 120.49 166.01 128.872C166.771 133.57 167.719 139.418 169.642 146.034C174.139 161.504 171.892 181.555 168.602 194.961C167.832 198.098 167.005 200.871 166.194 203.136C162.498 213.43 163.115 223.594 163.312 225.85C162.202 225.479 160.986 225.425 159.708 225.585C157.379 225.877 154.845 226.874 152.372 227.935C149.579 229.133 144.354 231.096 138.21 233.32C130.75 236.019 121.934 239.103 114.465 241.668C112.427 242.368 110.186 243.069 107.815 243.811C105.632 244.494 103.384 245.197 101.167 245.939C95.295 247.904 89.6357 250.14 85.9572 252.99C85.5409 251.856 84.3612 248.011 85.2083 242.746ZM52.689 108.831C53.5945 112.669 54.592 116.687 55.648 120.745C55.6497 120.752 55.6512 120.759 55.6528 120.765C55.8634 121.574 56.0764 122.385 56.2913 123.196C56.4895 123.944 56.6888 124.692 56.8902 125.439C57.6719 128.249 58.4743 131.053 59.308 133.848C60.9025 139.464 62.9642 144.934 65.2431 150.302C66.3244 152.998 67.5182 155.692 68.0048 158.574C67.5647 155.684 66.4118 152.964 65.3736 150.25C64.8267 148.859 64.276 147.469 63.7405 146.075C65.6593 149.55 68.4983 155.021 68.5956 158.579C68.5855 161.349 66.8809 159.806 65.8956 158.547C64.9185 157.305 64.1254 155.919 63.4043 154.507C61.2426 150.239 59.9828 145.599 58.6232 141.031C57.9469 138.766 57.253 136.377 56.5183 133.848C55.3864 129.951 54.2357 125.991 53.1272 122.411C51.9756 118.693 50.8697 115.385 49.8782 112.993C47.4475 107.129 44.5337 103.456 41.6736 102.651C41.3177 102.55 40.9662 102.496 40.6197 102.484C40.7832 102.441 40.9491 102.403 41.1184 102.374C48.3754 101.136 52.4151 108.325 52.689 108.831ZM150.911 113.203C152.842 111.974 154.934 111.638 157.127 112.203C157.473 112.292 157.799 112.395 158.114 112.507C156.343 113.132 152.369 115.439 150.971 123.733C150.817 124.65 150.636 125.681 150.44 126.806C150.093 128.787 149.696 131.054 149.301 133.497C147.499 144.643 145.731 159.454 148.913 167.467C144.157 161.245 142.559 150.085 140.594 135.132C142.71 123.897 146.363 116.12 150.884 113.221C150.893 113.215 150.902 113.209 150.911 113.203ZM103.916 245.632C105.282 245.194 106.645 244.767 107.983 244.348C110.359 243.605 112.603 242.903 114.649 242.201C117.207 241.322 119.924 240.383 122.69 239.419C128.193 237.5 133.893 235.485 138.934 233.656C144.858 231.508 149.874 229.619 152.594 228.453C153.487 228.07 154.388 227.695 155.282 227.36C157.278 226.612 159.241 226.062 161.01 226.062C162.03 226.062 162.986 226.245 163.847 226.678C165.705 227.613 166.982 229.638 167.75 232.87C169.929 242.027 172.64 253.424 175.442 259.56C177.844 264.818 177.438 268.499 168.432 272.883C164.281 274.904 153.409 278.955 141.751 282.951C130.379 286.849 118.263 290.693 110.908 292.547C110.339 292.691 109.796 292.824 109.286 292.942C102.625 294.495 98.715 294.452 96.2136 292.797C93.4002 290.936 92.1912 286.879 91.1526 280.934C90.2234 275.615 87.8395 271.553 85.7363 267.969C83.0025 263.31 81.0274 259.944 83.5682 256.227C86.7471 251.576 95.3721 248.374 103.916 245.632Z" fill="#1E0C02"/>
<path d="M91.0798 152.208C91.862 149.892 91.7049 147.387 91.2709 145.016C90.8589 142.693 90.2404 140.406 89.6152 138.136C87.0474 129.069 84.356 120.029 82.1122 110.879C81.2338 107.322 80.4334 103.746 79.7029 100.155C78.5561 94.5167 77.5839 88.8426 76.7662 83.1495C76.0695 77.5793 74.5845 65.5386 79.5088 61.7897C80.9934 60.7288 82.9138 60.4388 84.7067 60.5355C88.4507 60.7343 91.686 63.1654 93.6898 66.238C94.9811 68.1685 95.903 70.3525 96.5942 72.565C100.152 84.7917 100.715 97.6287 101.798 110.252C102.602 119.624 103.036 129.187 106.108 138.162C106.979 140.698 110.165 148.964 113.771 146.988C115.104 146.377 115.95 145.043 116.363 143.687C116.931 141.868 117.02 139.949 116.995 138.059C116.967 136.168 116.78 134.286 116.541 132.414C116.295 130.543 115.981 128.681 115.631 126.828C113.017 113.924 110.831 100.838 109.258 87.774C108.952 85.1781 108.605 81.931 108.408 79.3425C108.085 75.649 108.14 71.7842 109.644 68.3372C111.276 64.6041 114.483 62.7195 118.494 63.9668C121.244 64.6935 123.254 66.8189 124.555 69.2706C126.327 72.5824 127.339 76.2366 128.267 79.8619C131.882 94.915 134.394 114.554 137.057 129.97C136.992 129.489 136.925 129.002 136.858 128.516C136.146 123.317 135.337 117.829 134.497 112.353C133.664 106.925 132.801 101.513 131.972 96.4154C131.044 90.8342 130.054 85.2535 128.701 79.7541C128.017 77.0038 127.251 74.2587 126.183 71.6256C125.106 68.9931 123.677 66.3308 121.262 64.6937C120.453 64.1603 119.561 63.7499 118.634 63.4857C114.397 62.1479 110.899 64.2049 109.201 68.1405C106.894 73.4608 107.969 79.4443 108.526 85.0129C108.782 87.1635 109.058 89.3119 109.349 91.4586C110.707 101.459 112.427 111.414 114.344 121.317C115.575 127.622 117.223 134.435 116.709 140.877C116.513 142.696 116.127 144.669 114.806 146.015C114.48 146.339 114.098 146.605 113.682 146.801C113.276 146.986 112.834 147.159 112.381 147.08C108.483 146.22 105.641 136.285 104.857 132.641C103.191 125.286 102.831 117.719 102.228 110.219C102.009 107.357 101.806 104.487 101.585 101.617C100.898 92.718 100.029 83.8155 97.8992 75.1345C97.6076 74.0867 97.2656 72.7373 96.9187 71.7182C96.248 69.6893 95.3615 67.6954 94.1773 65.9129C91.5549 61.7939 86.8024 59.0475 81.8514 60.1643C78.6227 60.7909 76.9922 63.2535 76.2103 66.2432C75.2606 69.9535 75.3549 73.8042 75.6026 77.5855C75.8732 81.3576 76.4572 85.0986 77.0859 88.821C77.8477 93.6404 78.7858 98.4216 79.8502 103.174C82.4945 114.98 85.9219 126.609 89.3867 138.2C90.0354 140.462 90.6759 142.732 91.1115 145.044C91.5935 147.557 91.7902 150.254 90.8104 152.674C90.5719 153.327 90.2664 153.993 89.7264 154.449C89.7264 154.449 89.7352 154.46 89.744 154.471C89.7529 154.482 89.7617 154.493 89.7617 154.493C90.4659 153.916 90.7558 153.023 91.0798 152.208Z" fill="#1E0C02"/>
</g>
<defs>
<clipPath id="clip0_4350_22416">
<rect width="364" height="364" rx="48" fill="white"/>
</clipPath>
</defs>
</svg>
