<svg width="229" height="289" viewBox="0 0 229 289" fill="none" xmlns="http://www.w3.org/2000/svg">
<path d="M147.427 234.718C156.861 253.404 176.021 282.891 201.39 273.089C211.713 269.102 221.892 258.098 225.954 248.068C237.964 218.427 198.803 194.155 176.462 183.198C166.884 178.5 156.201 174.629 148.743 166.674C144.336 161.975 139.321 155.68 134.48 149.148L111.494 166.576C116.606 173.774 121.788 180.943 125.876 188.783C133.705 203.782 139.802 219.619 147.427 234.718ZM156.334 221.23C154.025 213.368 158.114 205.548 165.36 202.385C174.16 198.545 184.547 202.418 191.964 207.702C203.488 215.916 218.964 235.208 207.354 249.377C204.848 252.437 199.952 255.314 195.985 255.84C186.2 257.141 177.685 251.421 171.447 244.564C165.624 238.162 158.799 229.646 156.334 221.23Z" fill="#E94A2C"/>
<path opacity="0.3" d="M133.642 204.868C133.902 205.107 134.176 205.335 134.435 205.578C140.147 210.883 145.733 217.369 149.225 224.377C152.168 230.281 154.396 236.29 158.025 241.861C161.647 247.418 165.776 252.704 170.554 257.32C174.39 261.033 178.587 264.678 183.828 266.166C188.035 267.364 192.494 267.518 196.764 266.515C217.263 261.696 227.167 238.811 216.688 220.875C213.634 215.638 209.185 209.857 204.478 205.991C198.777 201.313 192.676 196.98 186.27 193.314C173.156 185.81 158.474 180.589 146.441 171.292C139.728 166.11 134.546 159.59 129.742 152.74L134.479 149.148C139.32 155.68 144.336 161.976 148.743 166.674C156.201 174.629 166.884 178.5 176.462 183.198C198.803 194.155 237.964 218.427 225.954 248.068C221.892 258.098 211.713 269.102 201.39 273.089C176.021 282.891 156.861 253.404 147.427 234.718C142.486 224.935 138.179 214.843 133.642 204.868Z" fill="#E94A2C"/>
<path d="M131.329 151.559L26.6658 13.5391C26.6658 13.5391 11.4978 26.1473 23.2482 48.9995L96.4417 145.516L107.213 153.73L114.934 163.944L131.329 151.559Z" fill="#B9B8B8"/>
<path opacity="0.3" d="M98.8886 147.38C103.585 148.85 107.97 150.891 111.377 154.725C112.993 156.549 115.143 160.077 118.067 159.379C119.328 159.077 120.454 158.054 121.407 157.24C122.738 156.113 124.354 154.955 125.306 153.457C127.304 150.327 124.432 147.522 122.578 145.076C117.652 138.58 112.729 132.084 107.833 125.568C97.8247 112.257 87.6647 99.089 77.3412 86.0132C67.0177 72.9356 56.4835 60.0177 46.3566 46.7848C38.6169 36.68 32.2747 25.6193 25.0801 15.1459C26.0106 14.0857 26.6663 13.5391 26.6663 13.5391L131.33 151.559L114.935 163.944L107.214 153.73L98.8886 147.38Z" fill="#B9B8B8"/>
<path opacity="0.3" d="M117.625 167.992C120.873 172.503 124.987 176.529 127.978 181.192C130.425 185.012 132.104 188.978 134.662 192.792C137.831 197.516 142.012 201.855 144.9 206.787C146.042 208.74 149.574 219.874 150.879 213.379C152.017 207.673 153.355 202.678 158.626 198.958C160.902 197.351 163.093 197.042 165.872 196.705C168.078 196.434 174.768 197.323 175.973 195.033C177.845 191.478 165.246 188.921 162.907 187.975C155.293 184.899 149.952 179.529 144.351 173.608C141.478 170.565 138.606 167.744 135.651 164.836C133.472 162.686 131.418 158.468 127.871 159.345C126.503 159.684 117.232 167.451 117.625 167.992Z" fill="white"/>
<path opacity="0.3" d="M210.954 219.566C211.999 221.892 213.816 223.696 214.82 226.061C215.662 228.046 216.344 230.079 216.892 232.164C218.835 239.54 215.232 248.192 210.179 253.585C206.421 257.596 202.803 260.003 197.84 262.518C193.062 264.943 187.598 263.208 182.816 261.308C181.53 260.797 180.689 259.831 179.513 259.175C178.123 258.404 176.355 258.283 175.64 256.617C174.421 253.776 178.324 254.408 180.062 254.925C184.718 256.308 189.388 258.065 194.278 257.82C198.774 257.596 201.25 257.194 204.842 254.189C207.645 251.845 209.891 249.505 211.748 246.394C213.416 243.605 214.461 240.376 214.52 237.116C214.554 235.483 214.402 233.272 213.931 231.63C213.397 229.787 212.089 228.353 211.288 226.613C210.291 224.435 209.375 222.206 208.419 220.005C207.244 217.333 205.161 215.229 203.214 213.111C202.291 212.106 199.119 209.68 201.272 208.968C203.177 208.338 205.798 211.061 206.836 212.201C208.778 214.344 209.782 216.968 210.954 219.566Z" fill="white"/>
<path d="M91.7863 190.931C94.3069 182.458 98.0246 174.433 101.672 166.393L75.7882 153.664C72.2816 160.999 68.5525 168.135 65.1277 173.584C59.3193 182.817 49.574 188.652 41.0673 195.089C21.2214 210.104 -12.5953 241.395 4.83763 268.204C10.7389 277.276 22.834 286.137 33.7243 288.085C60.4981 292.872 73.6831 260.276 79.3876 240.133C83.9948 223.858 86.9601 207.15 91.7863 190.931ZM57.6805 254.376C52.8656 262.296 45.5964 269.535 35.7404 270.122C31.7484 270.36 26.3919 268.47 23.3487 265.945C9.25569 254.246 20.7687 232.358 30.5136 222.098C36.7892 215.498 46.2488 209.717 55.6194 211.812C63.3329 213.536 68.834 220.434 68.0667 228.591C67.2515 237.323 62.1807 246.983 57.6805 254.376Z" fill="#E94A2C"/>
<path opacity="0.3" d="M87.2297 208.206C87.0148 208.488 86.7961 208.766 86.5849 209.051C81.9923 215.349 77.737 222.779 75.6501 230.324C73.8858 236.681 72.8442 243.003 70.3381 249.165C67.8438 255.311 64.8039 261.286 60.9934 266.73C57.9315 271.102 54.5029 275.483 49.6397 277.944C45.7402 279.92 41.3921 280.921 37.011 280.75C15.9752 279.927 1.886 259.346 8.75426 239.746C10.7598 234.021 14.0142 227.497 17.9023 222.806C22.6098 217.128 27.7735 211.708 33.3594 206.893C44.8059 197.026 58.2206 189.102 68.2656 177.682C73.8664 171.315 77.7104 163.928 81.1204 156.289L75.7863 153.664C72.2797 160.999 68.5506 168.135 65.1257 173.584C59.3173 182.817 49.572 188.652 41.0653 195.089C21.2195 210.104 -12.5973 241.395 4.83568 268.204C10.7369 277.276 22.832 286.137 33.7223 288.085C60.4962 292.872 73.6811 260.276 79.3857 240.133C82.3704 229.588 84.6722 218.863 87.2297 208.206Z" fill="#E94A2C"/>
<path d="M79.3418 155.438L155.782 0C155.782 0 173.074 9.48775 165.894 34.1576L112.439 142.854L103.428 152.971L97.7935 164.472L79.3418 155.438Z" fill="#B9B8B8"/>
<path opacity="0.3" d="M110.397 145.15C106.064 147.491 102.142 150.33 99.5289 154.743C98.2911 156.839 96.8527 160.715 93.8502 160.587C92.5564 160.532 91.2554 159.736 90.1655 159.123C88.6496 158.269 86.8332 157.442 85.6136 156.156C83.0557 153.457 85.3393 150.16 86.6959 147.404C90.2915 140.091 93.8871 132.774 97.4564 125.444C104.744 110.468 112.206 95.6063 119.849 80.8051C127.492 65.9985 135.369 51.3105 142.79 36.3909C148.458 24.9947 152.579 12.9274 157.639 1.277C156.527 0.413098 155.782 0 155.782 0L79.3418 155.438L97.7938 164.472L103.428 152.971L110.397 145.15Z" fill="#B9B8B8"/>
<path opacity="0.3" d="M95.9255 168.957C93.5974 174.008 90.3244 178.743 88.2786 183.888C86.6033 188.104 85.7135 192.317 83.9305 196.548C81.7139 201.791 78.437 206.847 76.5464 212.237C75.794 214.374 74.4485 225.976 71.9317 219.845C69.7223 214.467 67.4612 209.815 61.5789 207.168C59.0363 206.025 56.8234 206.141 54.032 206.334C51.8154 206.491 45.4173 208.643 43.7975 206.621C41.288 203.487 53.1681 198.575 55.2809 197.202C62.1644 192.732 66.3899 186.443 70.7566 179.563C72.9991 176.025 75.2824 172.71 77.6253 169.292C79.3603 166.768 80.5685 162.234 84.2196 162.42C85.6245 162.495 96.2036 168.351 95.9255 168.957Z" fill="white"/>
<path opacity="0.3" d="M14.1397 237.372C13.5539 239.856 12.1159 241.97 11.5822 244.483C11.1337 246.594 10.848 248.718 10.7073 250.872C10.207 258.482 15.3928 266.286 21.3793 270.618C25.8346 273.842 29.8452 275.514 35.1903 277.04C40.3463 278.51 45.3765 275.763 49.7135 272.986C50.8738 272.239 51.5186 271.131 52.5491 270.264C53.7687 269.241 55.4775 268.789 55.8666 267.013C56.519 263.992 52.8051 265.358 51.2002 266.195C46.8928 268.44 42.6414 271.053 37.7965 271.746C33.3408 272.382 30.835 272.46 26.7354 270.193C23.5403 268.429 20.8862 266.561 18.4657 263.856C16.2974 261.44 14.6589 258.471 13.9803 255.279C13.6394 253.685 13.3652 251.483 13.5098 249.783C13.6802 247.873 14.6997 246.214 15.152 244.351C15.7154 242.027 16.1859 239.662 16.7124 237.321C17.3465 234.474 18.9956 232.011 20.5009 229.559C21.216 228.399 23.8701 225.413 21.6204 225.124C19.6263 224.868 17.5725 228.041 16.7759 229.359C15.2741 231.834 14.7845 234.599 14.1397 237.372Z" fill="white"/>
<path d="M12.5607 231.331C12.5607 231.331 12.2232 232.037 11.7173 233.296C11.1649 234.532 10.559 236.378 9.88982 238.566C9.59349 239.676 9.24313 240.863 9.00043 242.142C8.67974 243.407 8.54811 244.769 8.33318 246.159C8.17949 247.551 8.12739 249.004 8.11066 250.459C8.18674 251.916 8.16808 253.404 8.5036 254.844C8.63332 255.569 8.68163 256.312 8.87221 257.018C9.08182 257.72 9.29294 258.417 9.50064 259.112C9.82323 260.534 10.5772 261.772 11.0927 263.06C11.3338 263.718 11.7245 264.28 12.0806 264.849C12.4362 265.422 12.7813 265.983 13.1187 266.528C13.7285 267.673 14.6312 268.524 15.3133 269.432C16.0566 270.288 16.6253 271.196 17.3389 271.801C18.01 272.455 18.5939 273.026 19.0755 273.497C20.0391 274.45 20.5766 275.031 20.5766 275.031L20.6024 275.059C20.7173 275.183 20.7097 275.376 20.5857 275.491C20.4838 275.584 20.3354 275.596 20.2205 275.528C20.2205 275.528 19.5476 275.127 18.393 274.36C17.8148 273.971 17.1122 273.498 16.308 272.955C15.4536 272.462 14.7012 271.652 13.8152 270.835C12.97 269.977 11.8934 269.178 11.1281 267.999C10.7092 267.439 10.2756 266.865 9.83429 266.278C9.37856 265.696 8.94299 265.082 8.62573 264.378C8.27385 263.692 7.91778 262.997 7.55829 262.291C7.38407 261.935 7.18015 261.589 7.03217 261.216L6.66509 260.063C6.42239 259.291 6.1778 258.51 5.9332 257.728C5.71257 256.939 5.63836 256.114 5.48467 255.306C5.16209 253.684 5.21231 252.04 5.17541 250.429C5.11796 249.621 5.29411 248.836 5.35878 248.053C5.46986 247.277 5.48318 246.495 5.67757 245.759C5.97961 244.271 6.29649 242.84 6.76934 241.539C7.15127 240.21 7.6941 239.02 8.16657 237.921C9.16019 235.74 10.2276 234.055 10.9949 232.904C11.7656 231.751 12.3031 231.164 12.3031 231.164C12.3587 231.099 12.4572 231.091 12.5218 231.145C12.5736 231.19 12.5865 231.269 12.5607 231.331Z" fill="white"/>
<path d="M152.778 49.5151C152.778 49.5151 152.47 50.4064 151.875 51.9357C151.258 53.4554 150.442 55.6591 149.341 58.2425C148.261 60.8353 146.951 63.836 145.494 67.0257C144.053 70.223 142.428 73.5904 140.812 76.9616C139.146 80.3088 137.489 83.6598 135.852 86.7605C134.231 89.8684 132.67 92.747 131.289 95.1934C129.927 97.6474 128.691 99.6433 127.874 101.065C127.032 102.474 126.519 103.263 126.519 103.263C126.426 103.406 126.235 103.445 126.093 103.352C125.972 103.274 125.924 103.124 125.97 102.992C125.97 102.992 126.282 102.105 126.884 100.578C127.511 99.0632 128.335 96.8652 129.449 94.2872C130.543 91.7019 131.868 88.7086 133.341 85.5264C134.796 82.3367 136.44 78.9785 138.073 75.6145C139.756 72.2765 141.429 68.9331 143.084 65.84C144.721 62.7393 146.296 59.8687 147.69 57.4295C149.065 54.9812 150.312 52.9906 151.137 51.5747C151.986 50.1679 152.503 49.3824 152.503 49.3824C152.549 49.3101 152.646 49.2915 152.716 49.3379C152.778 49.3759 152.8 49.4501 152.778 49.5151Z" fill="white"/>
<path d="M108.136 135.917C106.88 138.467 103.796 139.522 101.242 138.267C98.6878 137.011 97.6352 133.925 98.8917 131.373C100.144 128.819 103.236 127.766 105.786 129.023C108.34 130.277 109.393 133.365 108.136 135.917Z" fill="#535252"/>
<path d="M107.999 135.423C106.909 137.639 104.233 138.553 102.013 137.463C99.7961 136.373 98.8881 133.694 99.9742 131.479C101.064 129.26 103.744 128.346 105.961 129.436C108.177 130.528 109.089 133.208 107.999 135.423Z" fill="#B9B8B8"/>
<path opacity="0.4" d="M102.998 130.79C102.483 131.194 101.761 131.903 101.564 132.545C101.141 133.948 102.201 135.154 103.262 135.849C104.211 136.474 105.908 136.513 106.42 135.273C106.89 134.13 106.386 132.671 105.919 131.605C105.693 131.088 105.422 130.317 104.796 130.204C104.251 130.106 103.414 130.462 102.998 130.79Z" fill="white"/>
</svg>
