<svg width="209" height="203" viewBox="0 0 209 203" fill="none" xmlns="http://www.w3.org/2000/svg">
<path d="M57.18 202.515C40.4455 202.515 24.6122 195.231 13.7396 182.53C3.81232 170.934 -1.00516 156.165 0.175027 140.946C1.35521 125.726 8.39167 111.877 19.988 101.95C30.3346 93.092 43.5237 88.2142 57.1255 88.2142C64.1753 88.2142 71.0768 89.4887 77.6408 92.0025C77.7591 92.0067 77.8677 92.0201 77.9652 92.0324L78.0833 92.0463C78.7416 92.1136 79.341 92.1465 79.9156 92.1465C82.5673 92.1465 84.6043 91.4228 86.3264 89.8687C88.7122 87.716 184.062 6.08009 188.351 2.51816C189.999 1.14957 191.914 0.484375 194.205 0.484375C195.152 0.484375 196.153 0.597958 197.259 0.831268C197.453 0.800267 197.653 0.784499 197.855 0.784499C198.558 0.784499 199.191 0.965695 199.804 1.14101C199.89 1.16587 199.976 1.19045 200.063 1.21451C202.224 1.54296 204.065 2.40591 205.535 3.77959L205.564 3.80631L206.775 5.17945L206.791 5.19976C208.132 6.93128 208.396 10.39 208.383 10.7939C208.232 15.5688 207.893 19.7863 207.348 23.6866C207.139 25.1864 206.166 31.3882 205.67 32.7972C205.537 33.4771 204.99 35.4694 204.368 37.5361L204.263 37.8854L203.931 38.0359C203.701 38.1401 203.489 38.2657 203.365 38.3721L201.302 40.1349C201.042 40.3569 200.699 40.8759 200.596 41.2025L199.164 45.7723C198.925 46.5323 198.152 47.1951 197.364 47.3143L188.533 48.65C188.533 48.65 188.333 48.5899 188.321 48.5867C188.025 48.6917 187.677 48.7935 187.283 48.7935C187.202 48.7935 187.121 48.789 187.04 48.7802C187.004 48.7909 186.968 48.8013 186.931 48.8117C186.846 48.8358 186.717 48.8724 186.679 48.8954C186.624 48.9411 186.558 48.9937 186.492 49.0461L186.395 49.1239L186.33 49.1583C186.126 49.2674 186.014 49.3534 185.966 49.3948L185.1 50.1346C184.836 50.3487 184.636 50.5189 184.456 50.6841L183.903 51.1576C183.643 51.3797 183.3 51.8987 183.198 52.2253L183.131 52.4394L183.116 52.4741C183.023 52.6951 182.949 52.9306 182.897 53.1746L182.889 53.2104L180.939 59.4296C180.701 60.1897 179.927 60.8527 179.14 60.9719L171.632 62.1072C171.293 62.1585 170.726 62.4175 170.466 62.6404L168.403 64.4031C168.143 64.6255 167.8 65.144 167.698 65.4708L164.374 76.0719C164.257 76.4436 164.032 77.0957 163.888 77.3688C163.562 77.9865 162.552 78.1834 162.25 78.2291L159.009 78.7193C158.67 78.7706 158.103 79.0295 157.842 79.2524L155.779 81.0149C155.519 81.2373 155.177 81.756 155.074 82.0826L153.452 87.2577C153.213 88.0177 152.44 88.6805 151.652 88.7997L149.667 89.1001L149.296 89.0841C149.035 89.072 148.789 89.0606 148.547 89.0606C148.359 89.0606 148.195 89.0675 148.046 89.0819L142.804 89.9564C142.621 90.0232 142.43 90.1015 142.21 90.2001L142.119 90.241L142.021 90.2584C141.675 90.3193 141.131 90.5705 140.879 90.7857L138.816 92.5484C138.556 92.7708 138.214 93.2895 138.111 93.6161L134.859 103.99L134.701 104.135C134.55 104.275 134.39 104.413 134.226 104.548C132.716 105.783 131.211 107.088 129.756 108.349C129.144 108.88 128.531 109.411 127.916 109.939C126.6 111.069 126.496 111.349 127.108 112.837C127.933 113.584 128.495 114.486 129.04 115.361C129.142 115.525 129.244 115.688 129.347 115.85C131.025 118.481 130.877 120.928 128.893 123.33C127.222 125.353 124.849 125.996 122.748 126.359C121.893 126.506 121.031 126.579 120.198 126.649C119.207 126.733 118.271 126.812 117.343 127.006C114.78 127.541 113.118 129.205 112.655 131.693C115.134 141.788 114.817 152.375 111.737 162.322C108.555 172.6 102.533 181.749 94.3204 188.779C83.9722 197.637 70.7826 202.515 57.18 202.515ZM30.0933 151.317C24.8506 156.108 24.3613 164.082 28.9828 169.48C31.4718 172.388 35.096 174.055 38.9265 174.055C41.8879 174.055 44.7897 173.035 47.1006 171.184C52.3433 166.392 52.8324 158.419 48.2108 153.02C45.7221 150.113 42.0979 148.446 38.2674 148.446C35.3063 148.446 32.4042 149.465 30.0933 151.317Z" fill="url(#paint0_linear_4350_27029)"/>
<path d="M81.0883 108.341C81.2997 108.44 81.5114 108.54 81.723 108.639C83.5085 109.258 85.1471 108.587 86.7893 108.035C87.3334 107.853 87.8375 107.551 88.3597 107.304C90.553 106.532 92.4615 105.237 94.3336 103.918C105.625 95.9588 115.655 86.4674 126.151 77.5484C152.79 54.9119 179.316 32.1427 205.888 9.42738C207.262 8.25254 207.355 7.19556 206.201 5.7035C205.812 5.26147 205.423 4.8197 205.033 4.37767C203.595 3.03206 201.873 2.29578 199.942 2.00902C199.076 1.76903 198.218 1.46008 197.294 1.65571C196.811 2.10015 196.341 2.56063 195.842 2.98662C190.085 7.90298 184.324 12.8145 178.564 17.7271C175.441 20.3962 172.318 23.0655 169.195 25.7345C165.348 29.0252 161.501 32.3158 157.654 35.6065C153.551 39.1342 149.455 42.6713 145.341 46.1873C140.699 50.1549 136.041 54.1035 131.39 58.0604C125.813 62.8271 120.235 67.5936 114.658 72.36C109.472 76.7942 104.287 81.2287 99.101 85.6629C97.5555 87.062 96.0218 88.4744 94.4618 89.8569C92.2725 91.7977 90.1126 93.7636 88.1127 95.9067C86.5453 97.5864 85.0479 99.3155 83.7199 101.19C83.19 101.928 82.6603 102.666 82.1303 103.404C81.7401 104.398 81.3112 105.379 80.9742 106.391C80.7617 107.029 80.5685 107.721 81.0883 108.341Z" fill="url(#paint1_linear_4350_27029)"/>
<path d="M207.212 8.29688C180.64 31.0119 152.79 54.913 126.151 77.5494C115.655 86.4684 105.625 95.9598 94.3332 103.919C92.4611 105.238 90.5527 106.533 88.3593 107.305C87.8371 107.552 87.3331 107.854 86.789 108.036C85.4939 108.471 84.2012 108.978 82.8369 108.87C82.8369 108.87 82.1 108.771 81.7224 108.64C81.5107 108.541 81.2994 108.441 81.0877 108.342C80.922 109.125 81.4028 109.476 82.0257 109.707C82.6164 109.927 82.9315 110 83.5082 109.974L83.776 109.969C84.5954 109.932 85.403 109.704 86.2023 109.436C87.3697 109.044 90.0716 107.839 90.2945 107.717C95.3709 104.933 99.8797 101.352 104.336 97.7021C106.178 96.194 107.963 94.618 109.774 93.0727C109.863 93.1794 109.919 93.2462 109.942 93.2729C109.919 93.2459 109.863 93.1794 109.774 93.0727C115.183 88.4477 120.593 83.8226 126.002 79.1976C131.3 74.6693 136.598 70.141 141.896 65.6127C142.151 65.8756 142.151 65.8759 141.896 65.6127C144.852 63.0853 147.807 60.5579 150.763 58.0305C154.834 54.5501 158.905 51.0694 162.976 47.589C165.541 45.3959 168.107 43.2026 170.672 41.0095C173.571 38.5302 176.471 36.0509 179.371 33.5716C182.049 31.2837 184.727 28.996 187.405 26.7081C193.814 21.222 201.07 15.0086 207.483 9.52837" fill="#FCF3B4"/>
<path d="M153.415 73.6641C147.894 78.3835 142.373 83.1026 136.852 87.8217L153.415 73.6641Z" fill="#8F9193"/>
<path d="M17.7157 178.911C36.3447 200.702 69.1116 203.265 90.9028 184.636C102.333 174.864 108.469 161.203 109.035 147.276L63.1661 93.6217C49.3206 92.0153 34.8708 95.9524 23.4408 105.724C1.6499 124.353 -0.913302 157.12 17.7157 178.911ZM28.3069 169.894C23.4165 164.174 23.9878 155.629 29.5175 150.601C35.3444 145.92 43.8743 146.684 48.7644 152.405C53.6549 158.125 53.0835 166.67 47.5538 171.698C41.7272 176.379 33.1973 175.615 28.3069 169.894Z" fill="url(#paint2_linear_4350_27029)"/>
<path d="M26.4884 171.449C32.3318 178.284 42.6095 179.088 49.4447 173.245C56.28 167.401 57.0839 157.123 51.2404 150.288C45.397 143.453 35.119 142.649 28.284 148.492C21.4491 154.336 20.6452 164.614 26.4884 171.449ZM28.3073 169.894C23.4169 164.173 23.9883 155.628 29.518 150.6C35.3448 145.92 43.8747 146.684 48.7649 152.405C53.6553 158.125 53.0839 166.67 47.5542 171.698C41.7276 176.378 33.1977 175.614 28.3073 169.894Z" fill="url(#paint3_linear_4350_27029)"/>
<path d="M107.627 147.37L62.0258 94.5175C48.5109 92.9495 33.8877 97.201 22.5918 106.467C22.8716 106.218 23.1528 105.969 23.4393 105.724C34.8693 95.9527 49.3191 92.0152 63.1646 93.6217L109.034 147.276C108.468 161.203 102.331 174.864 90.9012 184.636C90.6147 184.881 90.3253 185.12 90.0353 185.358C100.945 175.64 107.075 160.964 107.627 147.37Z" fill="#D18400"/>
<path d="M48.2313 152.949C43.3408 147.228 34.8113 146.464 28.9844 151.145C29.0907 151.048 29.1955 150.95 29.3056 150.856C35.1362 145.871 43.9034 146.557 48.8879 152.388C53.8724 158.218 53.1867 166.985 47.356 171.97C47.2459 172.064 47.1329 172.152 47.0206 172.242C52.5503 167.214 53.1217 158.669 48.2313 152.949Z" fill="#D18400"/>
<path d="M134.126 103.649L137.346 93.3779C137.494 92.9075 137.921 92.2608 138.295 91.9406L140.358 90.1781C140.733 89.8579 141.438 89.5356 141.926 89.4619L151.532 88.0091C152.02 87.9353 152.539 87.4904 152.687 87.02L154.309 81.8449C154.457 81.3746 154.884 80.7278 155.258 80.4077L157.321 78.6449C157.696 78.3247 158.401 78.0024 158.889 77.9286L162.13 77.4385C162.617 77.3647 163.089 77.1662 163.178 76.997C163.268 76.8278 163.461 76.3046 163.609 75.8342L166.932 65.2331C167.08 64.7628 167.507 64.116 167.882 63.7959L169.945 62.0331C170.319 61.7129 171.025 61.3906 171.512 61.3168L179.02 60.1815C179.507 60.1078 180.026 59.6628 180.174 59.1925L182.433 51.9882C182.58 51.5178 183.007 50.871 183.382 50.5509L185.445 48.7881C185.82 48.4679 186.525 48.1456 187.012 48.0719L197.245 46.5245C197.733 46.4507 198.252 46.0057 198.399 45.5354L199.832 40.9656C199.98 40.4953 200.407 39.8485 200.782 39.5284L202.844 37.7656C203.031 37.606 203.3 37.4459 203.583 37.3163C203.613 37.2324 203.646 37.1549 203.674 37.0678C204.629 34.077 205.474 30.0508 205.614 29.3359C203.196 31.3809 109.636 111.024 103.96 116.034C101.744 117.99 99.6254 120.108 98.1026 122.708C97.7718 123.273 97.4409 123.845 97.3768 124.519C97.0588 125.395 97.1502 126.116 98.1299 126.498C98.6323 126.646 99.146 126.658 99.6313 126.481C101.1 125.944 102.634 125.688 104.158 125.382C105.29 125.554 106.466 125.408 107.538 126.021C108.101 126.343 108.618 126.677 108.857 127.269C109.104 127.882 109.47 127.944 109.792 127.467C110.31 126.7 111.261 126.418 111.711 125.592C112.061 124.951 112.858 124.931 113.384 124.471C116.358 121.863 119.388 119.318 122.397 116.749C123.755 115.59 125.108 114.425 126.464 113.263C125.643 111.301 125.794 110.676 127.427 109.28C129.535 107.478 131.614 105.64 133.763 103.889C133.874 103.799 133.997 103.722 134.126 103.649Z" fill="url(#paint4_linear_4350_27029)"/>
<defs>
<linearGradient id="paint0_linear_4350_27029" x1="216.545" y1="17.3445" x2="12.5959" y2="181.152" gradientUnits="userSpaceOnUse">
<stop stop-color="#FFE0B0"/>
<stop offset="0.3918" stop-color="#FCCE37"/>
<stop offset="0.7265" stop-color="#FAB41C"/>
<stop offset="1" stop-color="#D99B00"/>
</linearGradient>
<linearGradient id="paint1_linear_4350_27029" x1="146.495" y1="60.3563" x2="138.951" y2="51.532" gradientUnits="userSpaceOnUse">
<stop stop-color="#FCDA4E"/>
<stop offset="1" stop-color="#E38400"/>
</linearGradient>
<linearGradient id="paint2_linear_4350_27029" x1="22.2488" y1="117.619" x2="95.0649" y2="192.565" gradientUnits="userSpaceOnUse">
<stop stop-color="#F9E786"/>
<stop offset="0.25" stop-color="#F9E566"/>
<stop offset="0.4114" stop-color="#F9E786"/>
<stop offset="0.7456" stop-color="#F2C555"/>
<stop offset="1" stop-color="#F9D64C"/>
</linearGradient>
<linearGradient id="paint3_linear_4350_27029" x1="28.6315" y1="153" x2="54.4525" y2="172.854" gradientUnits="userSpaceOnUse">
<stop stop-color="#FFB012"/>
<stop offset="0.4082" stop-color="#E3B602"/>
<stop offset="1" stop-color="#FFB012"/>
</linearGradient>
<linearGradient id="paint4_linear_4350_27029" x1="158.544" y1="85.8974" x2="150.377" y2="76.3354" gradientUnits="userSpaceOnUse">
<stop stop-color="#FCE890"/>
<stop offset="0.1289" stop-color="#FAE287"/>
<stop offset="0.3374" stop-color="#F6D16F"/>
<stop offset="0.5995" stop-color="#F0B648"/>
<stop offset="0.902" stop-color="#E69113"/>
<stop offset="1" stop-color="#E38400"/>
</linearGradient>
</defs>
</svg>
