<svg width="300" height="167" viewBox="0 0 300 167" fill="none" xmlns="http://www.w3.org/2000/svg">
<path d="M124.095 110.531C120.768 111.188 117.412 111.691 114.117 112.517C105.391 114.706 96.9713 117.688 89.1046 122.105C88.4419 122.477 87.8606 122.445 87.1867 122.281C80.9558 120.763 74.6374 119.913 68.2185 119.973C56.6059 120.082 46.0919 123.418 36.9587 130.744C36.766 130.899 36.6222 131.159 36.3131 131.124C35.5614 130.696 35.8336 130.02 35.947 129.427C36.6699 125.647 37.3578 121.861 38.0637 118.078C39.1945 112.017 40.4084 105.973 41.6014 99.9241C41.8874 98.4738 42.4144 97.1343 43.1036 95.8406C47.8125 87.0015 52.0984 77.949 56.6265 69.0186C57.9277 66.4521 59.1993 63.8705 60.5031 61.3055C60.8999 60.5249 61.2252 59.6302 62.2298 59.3665C62.243 59.363 62.4188 59.355 62.2927 59.3122C61.4721 59.0333 61.897 58.5115 62.1155 58.1565C63.5857 55.7674 64.681 53.184 65.971 50.7037C69.2122 44.4722 72.5289 38.281 75.7819 32.0561C76.6 30.4906 77.8977 29.3642 79.1417 28.1835C79.3601 27.9763 79.6575 27.6823 80.0007 28.0661C80.3278 29.0148 80.2095 29.9947 80.1432 30.9542C79.9449 33.8207 79.8735 36.6936 79.703 39.5592C79.4769 43.3575 79.4215 47.1641 79.107 50.9576C78.9621 52.7048 78.9565 54.4636 78.8925 56.2128C78.7399 60.3893 78.5441 64.5653 78.3543 68.7389C78.1068 74.1788 77.9482 79.6251 77.5254 85.0566C77.4665 85.8137 77.5799 86.5411 77.7542 87.2737C79.5806 94.9513 82.0243 102.445 84.4482 109.947C85.5501 113.357 86.7049 116.751 87.6847 120.201C87.7825 120.545 87.8439 120.916 88.0921 121.201C88.1847 121.323 88.2389 121.083 88.1404 121.195C88.1054 121.235 88.068 121.221 88.0398 121.147C87.1331 118.772 86.5505 116.299 85.865 113.86C83.4396 105.228 80.9446 96.6164 78.5503 87.9762C78.3908 87.4006 78.2074 86.8292 78.207 86.2217C78.9329 81.8807 79.1047 77.4844 79.5137 73.1119C80.0035 67.8751 80.3712 62.6281 80.7806 57.385C80.9924 54.6718 81.1806 51.9549 81.3319 49.2355C81.5327 45.6246 81.667 42.01 81.9048 38.4002C82.0297 36.5049 82.1864 34.6059 82.2054 32.7025C82.2239 30.8536 82.3793 30.7437 84.1412 31.2925C84.2369 31.3223 84.3343 31.3485 84.541 31.38C84.0727 31.2896 83.7414 31.1184 83.3799 31.0427C82.7807 30.9173 82.5096 30.5175 82.462 29.9312C82.3614 28.6937 82.4632 27.4706 82.7007 26.2544C82.818 25.6536 83.2249 25.3764 83.7722 25.2539C84.3572 25.123 84.9544 25.0888 85.5501 25.0625C86.0437 25.0835 86.3425 25.4128 86.6307 25.7573C87.7456 27.0901 88.8005 28.4714 89.9063 29.8111C96.2424 37.8271 102.622 45.8094 108.894 53.8762C109.466 54.6116 109.918 55.4361 110.522 56.1509C111.547 57.4778 112.655 58.6925 114.138 59.5574C114.932 60.0202 115.949 60.3584 116.121 61.5022C116.085 64.8998 115.674 68.2771 115.625 71.6724C115.618 72.1606 115.518 72.6387 115.199 73.0386C114.667 73.4594 114.114 73.164 113.593 73.0411C110.723 72.3644 107.839 71.7716 104.91 71.4109C102.396 71.1013 99.8835 70.7704 97.3419 70.8001C97.1178 70.8027 96.8916 70.8192 96.6699 70.7957C96.2851 70.7549 95.676 70.964 95.6079 70.4636C95.5267 69.8669 96.2111 69.8933 96.6025 69.8017C97.7574 69.5315 98.9248 69.3102 100.095 69.1099C102.5 68.6981 104.915 68.3516 106.722 68.1547C101.144 68.6479 95.1199 70.1524 89.6423 71.2942C91.3778 70.7442 93.7379 70.7196 96.1521 70.7589C101.06 70.8389 105.895 71.4079 110.682 72.4125C112.197 72.7303 113.786 72.8525 115.17 73.667C115.387 73.9962 115.396 74.3717 115.405 74.746C115.447 76.5237 115.063 76.822 113.342 76.5886C109.622 76.0841 105.912 75.5114 102.191 75.0145C99.1065 74.6027 96.0285 74.5066 92.9431 74.6422C90.9708 74.729 89.03 75.1579 87.1907 75.9367C90.0065 74.8215 92.9384 74.5578 95.9448 74.5872C102.078 74.6473 108.055 75.9474 114.1 76.7046C114.88 76.8022 115.163 77.0979 115.172 77.7961C115.191 79.2907 115.266 80.7887 115.135 82.279C114.881 85.1524 114.874 88.0193 115.153 90.892C115.274 92.1368 115.617 93.309 116.066 94.4625C117.354 97.7753 118.822 101.006 120.457 104.162C120.711 104.652 121.044 105.129 120.991 105.729C120.129 106.485 119.01 106.283 118.021 106.424C112.315 107.236 106.727 108.398 101.636 111.27C101.62 111.279 101.575 111.235 101.655 111.283C103.427 110.239 105.378 109.428 107.395 108.761C110.763 107.648 114.222 106.961 117.727 106.48C118.825 106.33 119.914 106.106 121.027 106.075C121.997 106.774 122.352 107.887 122.873 108.879C123.2 109.501 123.521 110.103 124.095 110.531Z" fill="#4F4445"/>
<path d="M209.339 134.251C205.654 131.333 201.881 128.542 197.896 126.041C187.427 119.47 176.25 114.548 164.241 111.558C163.735 111.432 163.218 111.357 162.706 111.258C162.11 110.675 162.306 109.936 162.35 109.252C162.74 103.173 162.645 97.1123 161.71 91.0801C161.196 87.7655 160.549 84.4722 160.117 81.1464C160.54 79.9897 160.804 78.7991 160.862 77.5612C160.878 77.2273 161.042 76.9149 161.191 76.6134C161.339 76.3135 161.5 75.8976 161.877 75.9893C162.292 76.09 162.134 76.533 162.129 76.8539C162.113 77.8164 161.777 78.757 161.899 79.8015C163.492 77.4796 162.818 74.7205 163.712 72.3158C163.229 72.9031 163.246 73.6567 162.905 74.2797C162.713 74.6313 162.544 75.1353 162.058 75.0183C161.632 74.9158 161.646 74.4015 161.708 74.0569C162.059 72.1195 162.59 70.3946 164.664 69.7031C166.858 68.9716 169.019 68.14 171.158 67.2587C172.292 66.4244 173.013 65.2172 173.88 64.1548C179.946 56.7199 186.036 49.304 192.066 41.8397C192.436 41.3822 192.758 40.8483 193.391 40.6771C195.748 39.6459 198.215 39.3322 200.763 39.5063C201.468 39.5544 202.169 39.5794 202.807 39.9321C203.033 40.0992 203.171 40.3287 203.274 40.5834C205.78 50.0951 208.081 59.6447 209.219 69.4442C210.038 76.4987 210.995 83.538 211.987 90.5705C212.524 94.3817 212.381 98.1747 212.055 101.974C211.749 105.546 211.546 109.125 211.249 112.697C211.017 115.485 210.801 118.275 210.611 121.064C210.442 123.555 210.221 126.043 210.08 128.536C209.986 130.208 209.889 131.883 209.632 133.543C209.591 133.807 209.539 134.057 209.339 134.251Z" fill="#4E4344"/>
<path d="M255.515 144.902C248.497 139.517 240.754 135.599 232.133 133.532C225.851 132.026 219.52 131.561 213.171 133.178C212.019 133.471 210.902 133.903 209.769 134.271C209.474 133.915 209.526 133.488 209.58 133.089C210.059 129.548 210.226 125.978 210.549 122.423C210.894 118.633 211.196 114.84 211.553 111.051C211.974 106.59 212.461 102.132 212.755 97.6624C212.953 94.6336 212.193 91.6468 211.834 88.6449C210.721 79.3339 209.521 70.0337 208.491 60.7122C207.981 56.0954 206.794 51.6069 205.465 47.1592C204.92 45.3333 204.442 43.4869 203.924 41.6526C203.812 41.2586 203.666 40.8665 203.788 40.4462C204.109 39.9129 204.559 40.1835 204.962 40.2803C205.426 40.3915 205.87 40.5735 206.327 40.7073C207.159 41.1166 207.496 41.9534 207.928 42.6743C212.789 50.7907 218.131 58.5847 223.465 66.3949C229.756 75.6066 235.49 85.186 241.144 94.8056C241.596 95.5742 241.962 96.3923 242.387 96.968C239.232 91.1842 235.561 85.4999 232.023 79.736C227.786 72.8316 223.407 66.019 218.805 59.3489C214.835 53.5954 211.173 47.6396 207.405 41.7539C206.68 40.621 205.838 39.5648 205.193 38.3819C204.95 37.9371 204.552 37.5238 204.782 36.9391C205.405 36.7514 205.639 37.2541 205.919 37.6151C213.006 46.7814 219.963 56.0461 226.656 65.5037C230.413 70.8123 233.873 76.326 237.443 81.763C239.433 84.7935 241.506 87.769 243.483 90.8084C243.808 91.3091 244.121 91.8154 244.41 92.3374C239.427 83.2364 233.936 74.4409 228.101 65.872C223.853 59.6323 219.109 53.7428 214.512 47.7528C212.555 45.2033 210.698 42.5778 208.707 40.0535C208.591 39.9068 208.493 39.7455 208.418 39.5737C208.328 39.3657 208.241 39.1316 208.463 38.9663C208.638 38.8361 208.82 38.9629 208.976 39.0633C209.293 39.2678 209.542 39.5494 209.807 39.8133C213.059 43.0635 216.329 46.2977 219.557 49.5718C222.604 52.6618 225.946 55.4228 229.176 58.309C234.953 63.4719 240.434 68.8929 245.025 75.1854C248.548 80.0153 252.388 84.6091 256.02 89.3598C256.383 89.835 256.749 90.3092 256.985 90.8679C258.419 93.6592 260.116 96.3006 261.605 99.059C261.985 99.7623 262.873 100.495 262.418 101.228C262.064 101.797 261.043 101.345 260.317 101.324C257.63 101.247 254.953 101.347 252.297 101.803C255.336 101.318 258.385 101.204 261.457 101.41C262.541 101.482 263.225 101.88 263.76 102.844C265.626 106.207 267.484 109.574 269.297 112.966C269.508 113.36 269.806 113.779 269.517 114.218C269.201 114.696 268.68 114.447 268.275 114.371C262.158 113.222 255.966 112.564 249.832 111.531C249.281 111.438 248.709 111.562 248.164 111.39C247.651 111.196 247.65 110.681 247.518 110.279C246.743 107.914 245.915 105.568 245.184 103.626C246.318 107.036 247.619 110.816 248.756 114.667C251.52 124.031 253.53 133.558 255.531 143.095C255.653 143.677 256.03 144.307 255.515 144.902Z" fill="#4F4545"/>
<path d="M204.833 36.8869C204.981 37.7668 205.539 38.4528 205.997 39.1626C210.201 45.68 214.306 52.2668 218.695 58.6584C225.858 69.0896 232.316 79.9619 239.071 90.6476C240.426 92.7898 241.601 95.0452 242.852 97.2523C242.953 97.4311 243.143 97.6054 242.984 97.9101C242.373 97.6594 242.165 97.0674 241.884 96.5833C239.434 92.3549 236.913 88.1697 234.369 83.9972C229.028 75.2392 223.512 66.6053 217.491 58.2882C213.709 53.0646 210.573 47.4021 207.133 41.9458C206.915 41.6013 206.657 41.2827 206.418 40.9521C204.971 39.1535 203.971 37.0693 202.781 35.3638C203.169 36.5178 203.494 37.9198 203.873 39.3061C203.962 39.6306 204.006 39.9653 203.795 40.2728C203.599 40.5258 203.332 40.5586 203.042 40.5148C202.963 40.3661 202.884 40.2175 202.805 40.0688C202.444 39.7515 202.365 39.315 202.269 38.8737C201.803 36.7306 201.178 34.6286 200.594 32.3201C199.572 33.3341 198.832 34.4322 197.974 35.4195C196.656 36.9356 195.429 38.5279 194.181 40.102C193.895 40.4623 193.565 40.7375 193.175 40.9593C188.853 46.2758 184.534 51.595 180.208 56.9078C177.503 60.2293 174.789 63.5429 172.071 66.8536C171.884 67.0806 171.633 67.2542 171.412 67.4527C170.499 67.6893 169.604 67.6891 168.74 67.2631C168.497 66.8052 168.096 66.5815 167.611 66.4289C165.297 65.6998 163.018 64.873 160.773 63.9504C160.186 63.7088 159.567 63.5053 158.92 63.6885C158.238 63.8817 157.847 63.5871 157.613 62.9842C157.31 62.2041 157.059 62.4637 156.518 62.8749C154.651 64.2964 153.706 66.3916 152.363 68.198C151.248 69.6966 149.857 70.9592 148.434 72.1696C147.943 72.5871 147.528 73.0423 147.208 73.6043C146.218 75.3393 144.884 76.0287 142.927 75.7202C141.885 75.556 140.924 75.5982 140.019 76.1676C139.327 76.6027 138.632 76.3434 137.966 76.1245C133.889 74.7834 130.41 72.5874 127.917 69.0075C127.573 68.5143 127.246 68.0141 126.638 67.807C125.746 66.4199 125.606 64.7692 125.045 63.2656C125.016 61.567 124.566 60.9663 123.004 60.3893C121.658 59.8921 120.222 59.6347 118.968 58.8898C117.339 57.6952 115.344 57.54 113.497 56.9676C113.177 56.8684 112.84 56.8926 112.524 57.0378C112.327 57.1142 112.13 57.1901 111.917 57.2117C111.275 57.0822 110.849 56.6087 110.365 56.2272C109.095 54.5791 107.842 52.9183 106.553 51.2852C102.422 46.0506 98.2747 40.8289 94.1408 35.5965C92.6634 33.7265 91.2065 31.8402 89.7402 29.9613C90.2435 29.6624 90.4869 30.0853 90.7727 30.3481C91.2398 30.7776 91.6761 31.2448 92.1987 31.6065C92.6608 31.9262 92.8602 31.7818 92.8394 31.2135C92.8075 30.3362 92.2801 29.6911 91.8842 28.9771C91.6273 28.5137 90.9217 27.9356 91.3887 27.5377C91.9815 27.0326 92.4959 27.8049 92.9474 28.2048C93.6173 28.7983 94.2286 29.4698 95.1757 29.623C95.8588 30.1882 96.6144 30.6814 97.0609 31.4868C98.0938 32.9909 99.5243 34.0996 100.86 35.3014C101.003 35.4304 101.211 35.3883 101.395 35.3544C101.545 35.5041 101.694 35.6538 101.844 35.8035C103.987 37.8891 105.853 40.2226 107.814 42.4705C110.391 45.4246 112.87 48.4625 115.437 51.4256C115.838 51.8884 116.287 52.0965 116.891 52.1138C119.295 52.1825 121.657 51.8131 124.014 51.4275C125.029 51.2614 125.158 50.9225 124.989 49.4789C123.04 46.9731 122.437 44.1631 123.096 41.0711C123.174 40.7086 123.323 40.3451 122.936 40.0608C123.166 39.7333 123.474 39.4761 123.672 39.1131C124.464 37.6589 124.475 37.6648 123.326 36.6973C123.38 36.14 123.868 36.0142 124.251 35.8575C125.238 35.4544 126.038 34.8382 126.671 33.9907C127.762 32.8637 128.873 31.7612 130.257 30.9832C130.869 30.639 131.124 30.0889 131.147 29.4077C131.211 27.5423 130.947 25.6978 130.792 23.8465C130.598 22.6054 130.404 21.3646 130.132 20.1378C129.507 16.7849 128.346 13.5915 127.223 10.3876C126.669 9.17915 126.21 7.92664 125.519 6.77997C125.335 6.47496 125.13 6.1269 125.404 5.75C128.226 8.62732 130.192 12.0446 131.69 15.7517C132.061 16.6709 132.371 17.6147 132.709 18.5472C133.982 21.5334 134.65 24.6871 135.281 27.8503C135.551 29.2004 135.642 29.3422 137.051 29.2794C140.249 29.1368 143.391 29.3927 146.413 30.5004C150.431 31.9729 153.535 34.6465 156.094 38.0114C156.569 38.9214 157.294 39.7081 157.478 40.7657C157.512 40.8767 157.533 40.9903 157.547 41.1051C157.629 42.2895 157.559 43.5032 158.225 44.574C157.849 44.7244 157.562 44.8594 157.506 45.389C157.258 47.7098 156.369 49.8018 155.054 51.7198C154.743 52.3776 154.496 53.0848 153.745 53.4019C153.409 53.4419 153.078 53.4973 152.773 53.6531C149.301 55.4245 145.593 55.4809 141.834 55.1514C137.988 54.8143 134.212 54.1189 130.538 52.9126C130.128 52.7781 129.699 52.6811 129.479 52.5078C132.398 54.3341 135.769 55.2966 139.316 55.7809C144.034 56.4251 148.701 56.2096 153.334 55.1308C153.918 54.9949 154.487 54.8133 155.041 54.5901C155.752 54.4336 156.185 54.9788 156.711 55.2728C157.382 55.6475 158.036 56.0529 158.692 56.4538C161.209 58.0558 163.858 59.4431 166.335 61.1119C166.927 61.5113 167.325 61.2072 167.675 60.781C168.553 59.7126 169.55 58.7574 170.484 57.7434C174.399 53.4943 178.433 49.3573 182.307 45.0711C183.006 44.2986 183.747 43.5647 184.539 42.8851C184.712 42.8563 184.888 42.8947 185.059 42.8639C185.166 42.8445 185.374 42.887 185.293 42.6672C185.264 42.5869 185.114 42.58 185.032 42.514C184.985 42.4192 184.995 42.332 185.062 42.2516C185.585 41.7929 186.107 41.3342 186.63 40.8755C187.197 41.0365 187.917 40.8678 188.076 41.7911C188.149 42.2109 188.552 41.9124 188.801 41.7891C192.006 40.1987 194.394 37.6812 196.585 34.9374C197.147 34.2338 197.686 33.5383 197.775 32.5854C197.823 32.079 198.141 31.7089 198.603 31.4591C199.229 31.1207 199.918 31.2503 200.575 31.1493C201.446 31.0155 201.471 31.906 201.929 32.2293C203.106 33.0596 203.207 34.7229 204.577 35.4037C205.091 35.6589 205.157 36.318 204.833 36.8869Z" fill="#1C1313"/>
<path d="M34.756 132.502C34.5231 133.063 34.1952 132.614 33.9487 132.547C30.9148 131.712 27.8547 131.113 24.6854 131.089C22.1754 131.069 19.9148 131.723 17.7981 133.056C12.6876 136.273 8.30004 140.278 4.57481 145.02C4.39233 145.252 4.1904 145.47 3.99751 145.694C3.62999 145.269 3.84751 144.848 4.01838 144.437C7.27429 136.601 10.2635 128.653 13.7821 120.929C17.3058 113.194 21.4182 105.776 26.1293 98.6945C26.516 98.1133 26.9948 97.7386 27.6683 97.4856C29.4154 96.8292 31.1726 96.2028 32.9282 95.5711C33.0734 95.5327 32.8562 95.3814 32.9386 95.5062C32.9554 95.5317 32.9312 95.5573 32.8648 95.5798C31.2394 96.1326 29.6308 96.7314 28.0219 97.3297C27.8043 97.4106 27.5496 97.6782 27.318 97.3947C27.1256 97.1591 27.2574 96.8826 27.3848 96.6586C28.0873 95.4231 28.8065 94.1951 29.713 93.0951C30.2713 92.4177 31.1483 92.308 31.9069 92.0482C34.3398 91.215 36.8567 90.7037 38.1524 90.4673C36.6746 90.7606 33.9644 91.2621 31.3646 92.225C31.1019 92.3223 30.8009 92.6014 30.5506 92.3159C30.3161 92.0486 30.5627 91.7453 30.7009 91.497C31.5562 89.9595 32.5871 88.5321 33.5395 87.0564C39.277 78.1669 44.9013 69.2039 50.7698 60.3994C55.0875 53.9217 59.9787 47.8681 64.7008 41.69C66.1086 39.8481 67.3956 37.9159 68.8729 36.1274C69.1594 35.7806 69.4042 35.2439 70.0333 35.5864C70.1439 36.1574 69.7999 36.5912 69.571 37.0494C67.5509 41.0945 65.4719 45.1104 63.4397 49.1487C56.1828 63.5696 49.0188 78.0375 41.7181 92.436C40.2711 95.29 39.4888 98.2845 38.7739 101.335C37.4863 106.828 36.2007 112.322 34.8565 117.802C34.2497 120.276 34.2688 122.758 34.5336 125.258C34.6522 126.378 34.6344 127.5 34.5902 128.617C34.5385 129.921 34.8006 131.204 34.756 132.502Z" fill="#4F4445"/>
<path d="M126.755 67.6507C127.501 67.5264 127.691 68.1636 127.986 68.598C130.627 72.4811 134.338 74.7932 138.792 76.0476C139.273 76.1831 139.611 76.1315 140.026 75.8354C140.779 75.297 141.659 75.1628 142.575 75.3529C144.785 75.8119 145.986 75.2574 147.063 73.2422C147.353 72.6978 147.792 72.318 148.25 71.9273C150.357 70.1289 152.32 68.2022 153.643 65.7185C154.129 64.8059 154.559 63.8756 155.664 63.4456C156.086 63.2811 156.376 62.7064 156.662 62.2761C157.097 61.6223 157.414 61.775 157.66 62.3844C157.957 63.1229 158.111 63.8902 159.265 63.2797C159.63 63.0865 160.347 63.4342 160.853 63.6516C163.216 64.6683 165.652 65.477 168.088 66.2901C168.632 66.4715 168.628 66.4816 168.704 66.9828C168.224 67.431 167.656 67.2689 167.108 67.2016C164.809 66.9193 162.513 66.6059 160.205 66.3995C158.981 66.2899 158.933 66.3153 158.96 67.5836C159.023 70.5413 159.494 73.4578 159.932 76.3753C160.158 77.8735 160.477 79.3595 160.411 80.8877C160.94 84.1828 161.431 87.4843 162.005 90.7715C162.828 95.4862 162.904 100.237 162.911 105.004C162.915 107.093 162.521 109.161 162.707 111.25C162.507 112.03 162.523 112.839 162.249 113.624C162.008 114.31 162.323 115.029 162.706 115.659C162.326 116.133 161.882 116.15 161.468 115.749C161.162 115.454 160.798 115.487 160.444 115.426C160.156 113.933 159.338 112.648 158.804 111.252C158.258 110.77 157.956 110.138 157.688 109.478C157.182 108.232 156.72 106.966 156.143 105.748C155.953 105.346 155.711 105.049 155.201 105.143C154.73 105.23 154.353 105.412 154.224 105.931C154.033 106.699 154.039 107.484 153.975 108.266C153.851 109.778 153.969 111.32 153.475 112.791C153.094 114.486 153.168 116.237 152.709 117.987C152.052 116.17 151.398 114.352 150.738 112.536C150.588 112.123 150.501 111.67 150.086 111.408C149.578 110.544 149.373 109.549 148.899 108.669C148.635 108.181 148.436 107.656 148.12 107.197C147.872 106.838 147.64 106.342 147.145 106.39C146.655 106.438 146.717 107.011 146.54 107.356C146.093 108.228 146.21 109.345 145.373 110.048C145.002 110.879 144.305 111.88 144.38 112.529C144.535 113.876 143.72 114.645 143.303 115.651C142.95 115.704 142.824 115.488 142.761 115.195C142.76 115.087 142.779 114.982 142.813 114.88C142.928 114.602 143.147 114.395 143.316 114.154C143.883 113.342 143.841 113.091 142.935 112.645C142.562 112.461 142.376 112.202 142.245 111.852C141.941 111.031 141.638 110.21 141.334 109.39C140.97 109.032 140.839 108.558 140.721 108.09C139.441 102.994 137.282 98.2373 135.089 93.4942C134.298 91.8858 133.509 90.2774 132.755 88.6504C131.333 85.5821 130.453 82.3436 129.573 79.0998C128.651 75.736 127.712 72.3777 126.771 69.0197C126.645 68.5695 126.372 68.1112 126.755 67.6507Z" fill="#180F0F"/>
<path d="M287.856 150.914C284.193 148.508 280.322 146.533 276.098 145.311C269.574 143.423 263.022 143.248 256.444 145.04C255.854 144.055 256.114 142.93 255.979 141.88C255.716 139.837 255.372 137.817 254.873 135.825C253.103 128.76 250.999 121.79 248.854 114.832C248.558 113.874 248.232 112.916 248.129 111.906C248.201 111.275 248.599 111.286 249.106 111.348C251.473 111.637 253.821 112.053 256.18 112.388C259.493 112.859 262.805 113.336 266.11 113.86C267.25 114.04 268.37 114.327 269.523 114.439C270.123 114.497 270.352 115.032 270.614 115.477C272.358 118.439 274.023 121.445 275.658 124.468C276.956 126.866 278.271 129.255 279.499 131.689C279.6 131.889 279.714 132.085 279.793 132.294C279.933 132.664 280.271 133.061 279.928 133.432C279.642 133.741 279.246 133.547 278.876 133.457C277.355 133.09 275.819 132.815 274.554 132.936C275.996 132.832 277.683 133.184 279.377 133.603C280.386 133.852 280.993 134.405 281.43 135.31C283.199 138.977 284.892 142.68 286.574 146.387C287.037 147.407 287.482 148.436 287.964 149.447C288.194 149.928 288.553 150.476 287.856 150.914Z" fill="#4F4545"/>
<path d="M204.832 36.8872C204.777 36.0391 204.541 35.3278 203.585 35.0934C203.422 35.0535 203.161 34.8592 203.17 34.7556C203.3 33.2565 201.711 32.8495 201.202 31.6984C200.908 31.0329 199.641 31.4617 198.82 31.6442C198.394 31.739 198.084 32.0418 198.063 32.5076C197.981 34.2854 196.642 35.3281 195.645 36.5365C194.748 37.6248 193.652 38.5485 192.664 39.5644C191.904 40.3465 191.121 41.0023 189.987 41.2689C189.189 41.4566 188.788 42.6019 187.639 42.3859C187.709 41.8795 188.14 41.0514 186.966 41.2799C186.883 41.2961 186.743 41.0173 186.629 40.8756C187.843 39.5729 189.057 38.2701 190.272 36.9673C190.675 36.6121 191.112 36.2878 191.366 35.7932C193.848 33.1053 196.331 30.4175 198.813 27.7296C199.628 27.1718 200.474 27.4012 201.319 27.6295C202.381 28.2353 203.106 29.2176 203.852 30.122C206.809 33.703 210.015 37.0481 213.39 40.2205C218.204 44.7464 222.975 49.3195 227.918 53.7098C232.329 57.6271 236.706 61.5817 241.184 65.4226C242.541 66.5864 243.412 68.1289 244.425 69.556C250.183 77.6617 256.148 85.6137 262.161 93.5308C267.087 100.018 272.057 106.473 276.845 113.065C277.762 114.329 278.719 115.565 279.553 116.888C282.671 121.066 285.752 125.273 288.933 129.404C289.84 130.582 290.519 131.809 290.997 133.202C294.025 142.028 296.821 150.927 299.445 159.882C300.034 161.893 300.131 163.846 299.084 165.743C298.822 166.218 298.512 166.627 297.91 166.662C297.371 166.693 296.852 166.663 296.537 166.126C296.186 165.528 296.578 165.138 296.943 164.759C298.535 163.105 298.582 162.883 297.71 160.825C294.574 152.943 292.114 144.824 289.278 136.837C288.383 134.315 287.014 132.054 285.641 129.783C279.978 120.42 272.926 112.077 266.321 103.406C263.741 100.02 261.095 96.6837 258.431 93.3624C257.775 92.5447 257.268 91.6268 256.674 90.7676C253.375 86.2062 249.787 81.8683 246.351 77.4124C244.531 75.0515 242.723 72.6806 240.853 70.3593C238.342 67.2419 235.486 64.4519 232.512 61.7784C228.629 58.2875 224.686 54.8593 220.905 51.2608C217.006 47.5509 213.274 43.6669 209.462 39.8667C209.186 39.592 208.972 39.2268 208.456 39.1832C221.74 56.3852 234.941 73.639 244.895 93.0806C244.077 92.3602 243.568 91.4114 242.979 90.5268C237.688 82.5768 232.47 74.5783 227.11 66.6752C222.508 59.8887 217.456 53.4224 212.621 46.8012C210.358 43.7019 207.768 40.8574 205.627 37.6676C205.424 37.3658 205.1 37.1454 204.832 36.8872Z" fill="#1C1212"/>
<path d="M34.756 132.504C34.3599 131.884 34.3637 131.157 34.3383 130.481C34.2146 127.2 34.1518 123.917 34.0836 120.634C34.0578 119.389 34.4715 118.214 34.7553 117.023C36.3921 110.15 38.0514 103.282 39.6758 96.4059C40.0076 95.0013 40.7407 93.7956 41.3727 92.5338C47.7123 79.8765 54.0401 67.2133 60.3892 54.5608C63.57 48.2222 66.7878 41.9021 69.9888 35.5737C70.4614 33.7439 71.502 32.1764 72.3548 30.5265C73.4126 28.4801 74.5569 26.4783 75.5052 24.6155C74.116 26.5337 72.5149 28.5513 70.9265 30.5738C66.4922 36.2202 62.2587 42.0199 57.8303 47.6693C49.4735 58.33 41.9116 69.5569 34.1948 80.6741C27.1168 90.871 20.1432 101.139 13.1499 111.394C11.8529 113.296 11.4573 115.448 10.8642 117.552C8.08583 127.411 5.11195 137.214 2.49892 147.119C2.37498 147.589 2.16186 148.029 2.02374 148.494C1.31617 150.031 1.6273 151.653 2.89436 152.803C3.37357 153.239 3.66115 153.717 3.54946 154.371C3.47113 154.83 3.29501 155.262 2.79286 155.38C2.32147 155.491 1.96747 155.182 1.79189 154.814C0.893685 152.931 0.283672 150.955 0 148.883C0.52973 146.369 1.21853 143.897 1.97417 141.444C4.67001 132.693 7.3349 123.933 9.94341 115.157C10.6298 112.847 11.5689 110.709 12.9279 108.687C20.7689 97.0225 28.6928 85.4149 36.7124 73.8731C43.7717 63.7134 50.8123 53.5418 58.3334 43.7089C64.2374 35.9901 70.0844 28.227 75.9695 20.4932C77.1227 18.9777 78.3488 17.5148 79.4031 15.9245C79.6587 15.539 79.9624 15.2222 80.4462 15.1426C81.3659 15.0333 82.0062 15.4394 82.522 16.182C84.6224 19.2056 87.0917 21.8913 89.8954 24.2834C91.628 25.7617 93.0095 27.6156 94.8313 29.0083C95.0372 29.1656 95.1892 29.3951 95.131 29.692C94.1873 30.0986 93.8012 29.2068 93.2212 28.8278C92.645 28.4514 92.3056 27.746 91.4587 27.5344C91.6329 28.4755 92.2761 29.1176 92.7319 29.7988C93.1784 30.4663 93.082 31.1611 93.1776 31.8245C93.2672 32.4464 92.6973 32.1993 92.3926 32.0651C91.6634 31.744 91.1898 31.0936 90.6181 30.5742C90.3455 30.3265 90.1655 29.98 89.7397 29.9631C88.4613 28.3956 87.1827 26.8281 85.9041 25.2607C84.9768 24.8844 84.5448 24.0158 83.9515 23.3052C83.4545 22.71 83.0331 22.0474 82.3764 21.4185C82.1165 22.1645 82.0502 22.8386 82.042 23.4857C81.9987 26.8868 81.7183 30.2757 81.5229 33.6674C81.3254 37.0963 81.1705 40.5279 80.9432 43.9558C80.7332 47.1221 80.5863 50.2944 80.4334 53.465C80.2392 57.4932 80.0262 61.5201 79.8059 65.5469C79.6467 68.4554 79.4979 71.3641 79.3159 74.2716C79.0808 78.0297 78.8552 81.7875 78.4512 85.532C78.4232 85.7917 78.3352 86.0446 78.5038 86.286C79.2411 89.6698 80.2988 92.9672 81.2224 96.3001C83.2792 103.723 85.3958 111.128 87.4697 118.546C87.7672 119.61 88.2214 120.638 88.291 121.889C87.5858 121.194 87.4496 120.35 87.1979 119.572C85.2832 113.654 83.3887 107.729 81.4708 101.812C79.8517 96.8174 78.544 91.7365 77.2507 86.6515C77.0047 85.684 77.3182 84.7287 77.3598 83.7671C77.5432 79.5221 77.6278 75.272 77.8621 71.0301C78.1394 66.0078 78.3227 60.9824 78.5476 55.9584C78.6909 52.7584 78.8373 49.5579 78.9967 46.3589C79.2321 41.6342 79.4579 36.9094 79.6823 32.1844C79.7494 30.772 79.8305 29.3588 79.8618 27.9438C79.5053 25.6988 80.187 23.486 80.0024 21.4259C76.9771 27.0464 73.8834 32.8438 70.8173 38.6553C67.452 45.0338 64.033 51.3835 60.67 57.7631C56.1224 66.3898 51.5429 75.0002 47.0873 83.6746C44.9885 87.7606 42.8044 91.8083 41.0509 96.0681C39.9729 98.6868 39.5585 101.464 38.9203 104.187C38.0504 107.898 37.2604 111.628 36.3845 115.338C35.8164 117.745 35.679 120.205 35.4765 122.664C35.213 125.862 35.4266 129.082 34.9731 132.267C34.9006 132.346 34.8283 132.425 34.756 132.504Z" fill="#1C1213"/>
<path d="M2.02539 148.488C2.02807 146.976 2.56201 145.563 2.95929 144.146C5.37878 135.513 7.87509 126.902 10.3435 118.284C10.5789 117.462 10.8696 116.647 11.0128 115.808C11.5972 112.384 13.9089 109.898 15.7058 107.145C17.9655 103.684 20.3289 100.29 22.6785 96.8879C30.0426 86.2258 37.4449 75.59 44.7857 64.9119C49.4678 58.101 54.4965 51.5513 59.5307 45.0029C63.0443 40.4324 66.5146 35.8286 70.0158 31.2485C71.868 28.8256 73.743 26.4202 75.6142 24.0118C75.7464 23.8417 75.9318 23.713 76.2593 23.6641C75.7384 24.7121 75.2352 25.7695 74.6932 26.8066C73.2246 29.6166 71.7404 32.4186 70.258 35.2215C70.1909 35.3485 70.0805 35.4527 69.9904 35.5675C68.9207 36.0101 68.4573 37.0499 67.8541 37.8932C63.6756 43.735 59.0813 49.2605 54.8547 55.0647C51.3007 59.9452 48.0534 65.0303 44.7801 70.0983C40.2716 77.0789 35.766 84.0613 31.2649 91.0467C31.0298 91.4117 30.8493 91.8119 30.5854 92.3036C33.6488 91.1452 36.7129 90.4941 39.8727 90.2518C38.4804 90.5682 37.0895 90.8913 35.6953 91.1993C34.0228 91.5688 32.3705 91.9999 30.7769 92.6413C29.9045 92.9923 29.527 93.7793 29.0652 94.4958C28.4843 95.3972 27.9131 96.3049 27.1866 97.4475C29.4897 96.6131 31.4758 95.7245 33.6734 95.4623C32.5895 95.8559 31.5285 96.3376 30.4172 96.6249C27.9825 97.2543 26.2334 98.592 24.9912 100.838C22.5402 105.269 19.6751 109.463 17.4365 114.022C14.6409 119.715 12.011 125.48 9.64618 131.366C7.86854 135.791 6.04574 140.198 4.22942 144.608C4.08302 144.963 3.98558 145.309 3.9991 145.689C3.34117 146.622 2.68332 147.555 2.02539 148.488Z" fill="#402F32"/>
<path d="M80.572 15.3319C79.4692 15.6543 79.1975 16.7657 78.6108 17.5283C72.2258 25.8283 65.8538 34.1393 59.5838 42.5262C54.4732 49.3621 49.3126 56.1603 44.4766 63.2024C35.672 76.0236 26.6746 88.7121 18.0599 101.664C15.9936 104.771 13.8316 107.815 11.8134 110.952C10.631 112.79 10.3211 114.995 9.68103 117.049C7.78638 123.129 5.98836 129.24 4.15449 135.34C2.83587 139.726 1.52112 144.113 0.200132 148.498C0.159033 148.634 0.0678345 148.755 0 148.884C0.550337 145.268 1.05992 141.646 1.65997 138.038C2.71396 131.702 3.83497 125.377 4.89638 119.042C5.04902 118.131 5.38643 117.349 5.88747 116.584C20.6625 94.0161 35.4063 71.4275 50.2106 48.8787C52.5111 45.3748 55.4546 42.3563 58.2339 39.2292C64.5916 32.0763 71.0064 24.9741 77.3967 17.8502C79.0117 16.0498 78.8893 15.6593 76.6175 14.7114C74.9314 14.0079 73.3256 14.3388 71.7058 14.8828C71.0114 15.116 70.8772 15.9192 70.3045 16.281C69.4915 15.0104 69.5161 14.6171 70.4932 13.6528C70.7044 13.4445 70.8929 13.2893 70.9293 12.9322C71.108 11.1808 71.6392 10.605 73.3477 10.2233C73.8939 10.1012 74.4505 10.0256 75.0023 9.92871C76.8174 9.46072 77.7981 10.7165 78.8112 11.8245C79.7183 12.8165 80.291 14.0091 80.572 15.3319Z" fill="#4E4243"/>
<path d="M256.675 90.7656C258.109 92.1795 259.2 93.8728 260.445 95.4382C264.377 100.384 268.23 105.392 272.123 110.368C277.675 117.463 283.063 124.672 287.611 132.467C289.295 135.354 290.146 138.584 291.256 141.704C293.326 147.527 295.114 153.449 297.392 159.2C297.596 159.715 297.826 160.239 297.711 160.823C295.664 158.228 293.603 155.643 291.065 153.497C290.017 152.612 288.927 151.776 287.856 150.918C288.157 150.521 287.985 150.114 287.819 149.755C285.758 145.29 283.56 140.884 281.664 136.351C280.796 134.276 279.277 133.746 277.393 133.381C275.953 133.103 274.502 133.246 273.066 133C275.325 132.443 277.547 132.859 280.061 133.506C279.35 132.081 278.797 130.886 278.169 129.732C276.173 126.067 274.152 122.414 272.133 118.761C271.485 117.587 270.806 116.429 270.157 115.256C269.898 114.788 269.541 114.608 269.001 114.529C265.775 114.053 262.567 113.439 259.332 113.036C255.872 112.604 252.447 111.957 248.995 111.486C248.625 111.435 248.413 111.473 248.36 111.867C247.89 111.763 247.959 111.492 248.147 111.184C250.873 111.192 253.517 111.861 256.201 112.2C259.509 112.619 262.803 113.156 266.102 113.656C267.018 113.795 267.928 113.981 268.84 114.148C269.013 114.18 269.203 114.34 269.355 114.154C269.525 113.945 269.393 113.729 269.286 113.535C267.474 110.24 265.538 107.006 263.894 103.629C263.007 101.805 261.758 101.468 259.958 101.503C257.042 101.558 254.133 101.6 251.244 102.045C254.87 100.967 258.571 100.903 262.485 101.366C261.799 99.668 260.725 98.4014 260.036 96.9312C259.041 94.8082 257.476 92.9953 256.675 90.7656Z" fill="#403033"/>
<path d="M127.422 10.2205C128.657 13.4346 129.82 16.6701 130.378 20.087C130.266 20.298 130.068 20.4024 129.863 20.4937C129.591 20.6148 129.32 20.7577 129.035 20.8261C124.015 22.0315 122.271 25.8362 121.449 30.3719C121.369 30.812 121.303 31.2528 121.144 31.6742C120.959 32.1728 120.626 32.5731 120.289 32.9706C119.373 34.0511 118.773 34.0519 117.678 33.1109C115.775 31.4754 115.098 29.2581 114.669 26.9253C114.374 25.3253 114.088 23.7185 114.182 22.0759C114.199 21.7807 114.205 21.4768 113.994 21.227C114.182 14.5542 114.72 7.95168 117.968 1.91207C118.197 1.48798 118.24 0.860307 118.907 0.78125C119.693 0.974795 120.276 1.49744 120.835 2.02847C123.294 4.36572 125.425 6.96706 127.102 9.92639C127.178 10.0597 127.281 10.1605 127.422 10.2205Z" fill="#675B5D"/>
<path d="M34.9746 132.264C34.6474 131.751 34.7109 131.17 34.7719 130.625C35.1123 127.584 34.9648 124.522 35.2016 121.478C35.4616 118.134 36.1584 114.874 36.9446 111.619C37.9912 107.286 38.912 102.923 39.8892 98.574C40.3176 96.6672 41.1331 94.8961 41.9884 93.1668C44.6356 87.8143 47.3384 82.4886 50.083 77.1852C53.136 71.2857 56.2462 65.4157 59.3544 59.545C62.3379 53.9099 65.3518 48.2909 68.35 42.6635C72.2964 35.2563 76.2403 27.8477 80.303 20.2188C80.303 21.4005 80.4422 22.3851 80.2717 23.3128C79.9889 24.8508 80.3213 26.4297 79.8633 27.9407C78.1458 29.4426 76.6112 31.0406 75.5382 33.1378C71.6988 40.6423 67.7167 48.0737 63.8238 55.5511C63.2317 56.6884 62.751 57.8846 61.9622 58.9103C62.4647 59.3307 62.8926 58.6413 63.4791 59.1883C63.3332 59.2396 63.1965 59.3129 63.0522 59.3343C61.5692 59.5554 61.0921 60.7565 60.5268 61.8883C56.7706 69.4102 53.005 76.9274 49.2479 84.4488C47.3808 88.1863 45.6091 91.9747 43.5339 95.6027C42.1676 97.9914 41.7621 100.629 41.2548 103.257C40.1786 108.832 39.0739 114.402 37.9955 119.976C37.3543 123.291 36.7368 126.61 36.1208 129.929C36.0453 130.336 36.0755 130.752 36.3154 131.12C35.8989 131.537 35.6214 132.117 34.9746 132.264Z" fill="#3F2F33"/>
<path d="M279.554 116.893C277.49 114.479 275.668 111.878 273.767 109.339C264.674 97.1941 255.342 85.2289 246.468 72.9207C246.118 72.4358 245.726 71.9733 245.437 71.4542C242.536 66.2504 237.738 62.8784 233.436 59.036C224.709 51.2416 216.014 43.4143 207.853 35.0211C205.641 32.7466 203.6 30.3062 201.481 27.942C200.763 26.9175 201.549 25.4719 202.998 25.2521C203.845 25.1237 204.696 25.0289 205.531 24.8339C205.931 24.7405 206.324 24.6308 206.669 24.3913C207.2 24.0224 207.34 23.6117 206.819 23.1208C206.726 22.9894 206.679 22.8419 206.665 22.6838C206.825 22.1345 206.325 21.8406 206.169 21.4134C207.992 20.6105 208.398 20.7852 208.962 22.6787C209.111 23.1784 209.447 23.5077 209.799 23.842C210.388 24.4035 210.935 24.9932 211.215 25.8045C211.095 25.8207 210.998 25.8626 210.967 25.8339C209.626 24.5531 208.257 24.4548 206.623 25.4175C205.687 25.9693 204.504 26.0995 203.439 26.4386C202.244 26.8187 202.185 26.9699 202.965 27.9078C204.255 29.457 205.533 31.0136 206.954 32.4529C214.882 40.4845 223.178 48.1295 231.421 55.8323C235.542 59.6835 239.605 63.5966 243.692 67.4837C247.478 71.084 250.119 75.5167 253.144 79.6696C260.002 89.0859 266.785 98.5579 273.579 108.021C275.496 110.69 277.347 113.406 279.228 116.101C279.395 116.341 279.645 116.546 279.554 116.893Z" fill="#FBAF79"/>
<path d="M184.658 42.9977C181.777 46.0599 178.888 49.1145 176.017 52.1864C173.248 55.15 170.484 58.1197 167.75 61.1151C167.199 61.7179 166.811 61.7783 166.092 61.3125C163.63 59.7177 161.105 58.2213 158.604 56.6873C158.427 56.2087 158.28 55.7405 158.999 55.581C162.749 54.6016 166.461 53.489 170.145 52.2837C171.141 51.9576 171.962 51.2653 172.829 50.6876C176.951 47.9406 181.088 45.2136 185.061 42.25C185.077 42.3422 185.092 42.4344 185.108 42.5265C185.056 42.7773 184.904 42.9324 184.658 42.9977Z" fill="#4F4445"/>
<path d="M203.041 40.5138C203.207 40.2456 203.481 40.291 203.734 40.2762C203.81 40.2094 203.883 40.2084 203.954 40.2832C204.706 43.0453 205.417 45.8196 206.219 48.567C207.662 53.5061 208.665 58.5164 209.14 63.6492C209.514 67.6784 210.129 71.6848 210.618 75.7036C211.026 79.0599 211.396 82.421 211.803 85.7774C212.179 88.8757 212.496 91.985 213.005 95.0618C213.331 97.0272 212.938 98.927 212.847 100.851C212.75 102.889 212.451 104.918 212.252 106.952C211.959 109.949 211.669 112.945 211.392 115.943C211.143 118.646 210.926 121.353 210.674 124.055C210.393 127.05 210.085 130.043 209.799 133.037C209.76 133.445 209.777 133.857 209.769 134.268C209.62 134.398 209.477 134.406 209.341 134.249C209.622 130.73 209.914 127.213 210.179 123.694C210.364 121.245 210.499 118.794 210.677 116.345C210.956 112.489 211.313 108.637 211.525 104.778C211.726 101.098 212.279 97.4231 211.995 93.7324C211.802 91.2176 211.391 88.7191 211.064 86.2151C210.642 82.9765 210.214 79.7386 209.775 76.5021C209.207 72.3089 208.597 68.1211 208.058 63.9242C207.064 56.1971 204.946 48.719 203.093 41.1813C203.041 40.9675 203.057 40.7367 203.041 40.5138Z" fill="#1C1212"/>
<path d="M124.989 49.4801C125.513 50.8448 125.128 51.5313 123.78 51.7551C121.432 52.1452 119.082 52.4548 116.693 52.4211C116.077 52.4124 115.688 52.2099 115.284 51.728C112.516 48.4219 109.687 45.167 106.916 41.8634C105.223 39.8455 103.302 38.0185 101.844 35.8047C102.398 35.8787 102.715 36.3241 103.109 36.6354C109.582 41.7572 116.377 46.3939 123.666 50.2875C123.994 50.4627 124.329 50.6264 124.665 50.7849C124.724 50.8129 124.809 50.7888 124.885 50.7888C125.112 50.3626 125.04 49.9205 124.989 49.4801Z" fill="#4F4444"/>
<path d="M124.098 110.531C123.588 110.547 123.27 110.406 123.024 109.856C122.47 108.622 121.778 107.45 121.143 106.253C121.69 105.757 122.424 105.821 123.047 105.778C126.975 105.506 130.908 105.238 134.845 105.682C135.437 105.748 136.035 105.698 136.631 105.716C137.852 105.754 138.348 106.079 138.553 107.293C138.718 108.267 138.943 109.005 140.12 108.973C140.299 108.969 140.443 109.142 140.439 109.363C134.958 109.271 129.531 109.947 124.098 110.531Z" fill="#443639"/>
<path d="M148.469 30.2702C149.685 25.6456 152.253 21.9047 155.937 18.906C158.341 16.9489 160.953 15.3168 163.767 14.0096C164.065 13.8714 164.346 13.697 164.634 13.5394C165.432 13.1362 166.194 12.6515 167.088 12.4688C167.549 12.5546 167.853 12.7214 167.352 13.1566C166.985 13.4763 166.522 13.6489 166.087 13.8593C163.639 15.0451 161.23 16.2981 159.098 18.0137C157.186 19.553 155.616 21.3629 154.723 23.6921C154.094 25.5236 153.92 27.412 153.998 29.3333C153.958 30.6221 154.136 31.8913 154.329 33.1594C154.406 33.6649 154.526 34.177 154.187 34.6428C153.615 34.9992 153.278 34.5499 152.964 34.2267C151.873 33.1016 150.652 32.1746 149.225 31.5082C148.741 31.2819 148.161 31.0223 148.469 30.2702Z" fill="#1C1213"/>
<path d="M160.445 115.431C160.73 115.114 161.108 114.721 161.401 115.285C161.752 115.961 162.209 115.766 162.707 115.664C163.497 117.063 163.967 118.597 164.518 120.092C164.974 121.332 165.683 122.174 166.962 122.623C168.479 123.156 169.83 124.049 171.173 124.923C172.583 125.841 172.426 128.009 170.964 128.821C170.007 129.353 169.106 129.467 168.121 128.92C167.57 128.614 166.966 128.4 166.381 128.157C164.614 127.423 163.927 126.095 164.381 124.196C164.555 123.469 164.243 122.869 163.944 122.283C163.064 120.558 162.13 118.86 161.234 117.142C160.944 116.586 160.707 116.002 160.445 115.431Z" fill="#4D4243"/>
<path d="M140.437 109.365C140.409 109.34 140.377 109.291 140.353 109.295C138.64 109.534 138.207 108.565 138.171 107.094C138.153 106.386 137.709 106.056 136.91 106.004C133.608 105.792 130.304 105.744 127.001 105.822C125.045 105.868 123.093 106.103 121.14 106.254C114.327 107.172 107.534 108.161 101.35 111.442C107.316 107.669 114.08 106.618 120.913 105.8C121.756 105.313 122.692 105.31 123.621 105.281C127.312 105.169 131.002 104.806 134.694 105.273C135.062 105.32 135.444 105.313 135.813 105.271C136.303 105.215 136.977 105.547 137.232 104.953C137.45 104.446 136.931 104.092 136.569 103.766C136.312 103.534 136.205 103.26 136.508 103.006C136.978 102.614 136.801 102.128 136.757 101.655C136.514 99.0198 135.426 96.8155 133.546 94.9367C132.068 93.4591 130.75 91.8245 129.481 90.1602C129.185 89.772 128.562 89.2316 129.046 88.8385C129.497 88.4723 129.951 89.1613 130.277 89.5281C131.838 91.2854 133.419 93.0253 134.968 94.9336C134.992 94.3303 134.593 93.7488 135.296 93.4413C136.759 95.9894 137.746 98.7519 138.864 101.453C139.928 104.023 140.751 106.676 141.335 109.399C141.035 109.388 140.736 109.376 140.437 109.365Z" fill="#3F3033"/>
<path d="M248.146 111.18C248.152 111.428 248.109 111.691 248.359 111.863C249.179 114.642 250.004 117.419 250.82 120.199C252.644 126.409 254.604 132.582 255.862 138.943C256.26 140.952 256.516 142.982 256.444 145.04C256.065 145.431 255.755 145.384 255.514 144.894C254.922 141.91 254.358 138.919 253.732 135.942C252.323 129.249 250.686 122.613 248.858 116.021C247.691 111.81 246.508 107.611 244.906 103.54C244.77 103.196 244.673 102.834 244.579 102.475C244.554 102.379 244.605 102.263 244.669 101.836C246.181 105.022 246.867 108.216 248.146 111.18Z" fill="#1E1415"/>
<path d="M142.925 115.007C142.92 115.08 142.914 115.153 142.906 115.225C142.808 116.147 142.256 116.867 141.838 117.649C141.172 118.892 140.596 120.115 140.597 121.629C140.597 122.946 140.008 124.22 139.337 125.393C138.987 125.661 138.664 125.979 138.282 126.189C136.367 127.243 133.964 125.893 133.949 123.773C133.943 122.867 135.893 120.198 136.902 120.079C139.087 119.822 140.075 118.478 140.692 116.571C141.021 115.555 141.554 114.605 141.995 113.625C142.516 113.944 143.149 114.188 142.925 115.007Z" fill="#4C4041"/>
<path d="M167.153 12.6473C166.27 12.82 165.553 13.4623 164.635 13.5358C166.119 12.2853 167.857 11.565 169.72 11.107C170.453 10.9268 170.804 11.3109 171.047 11.9551C171.71 13.7139 172.123 15.5385 172.249 17.3977C172.668 23.5548 171.45 29.4889 169.637 35.3279C169.563 35.5653 169.38 35.7689 169.249 35.9883C168.854 36.0353 168.767 36.4235 168.525 36.6391C168.249 36.8844 167.984 37.2047 167.57 36.8547C167.479 36.5441 167.602 36.2679 167.705 35.9884C169.27 31.7291 170.213 27.3598 170.479 22.8066C170.642 20.015 170.438 17.3067 169.81 14.6131C169.359 12.6791 169.245 12.6309 167.153 12.6473Z" fill="#FAAF75"/>
<path d="M206.168 21.4062C206.583 21.6743 207.338 21.7409 206.846 22.5478C206.4 23.0046 205.752 22.9302 205.219 23.1636C204.716 23.3838 204.164 23.4817 203.788 23.6861C204.74 23.4915 205.684 22.6986 206.877 22.9769C207.899 23.5439 207.951 23.7598 207.099 24.4423C205.954 25.3582 204.521 25.3026 203.171 25.5047C201.83 25.7054 201.203 26.5973 201.48 27.9348C200.609 27.6461 199.707 27.742 198.814 27.727C198.788 26.1579 197.474 25.6308 196.435 25.0137C194.882 24.0918 194.487 26.1628 193.283 26.3182C193.808 24.7867 194.675 23.4123 195.914 22.2678C196.575 21.6572 197.152 21.817 197.562 22.5313C198.081 23.4342 198.53 24.3771 199.006 25.3045C199.344 25.9636 199.686 26.0346 200.266 25.4834C201.291 24.5082 202.386 23.6035 203.475 22.6979C204.259 22.0464 205.15 21.5862 206.168 21.4062Z" fill="#4F4342"/>
<path d="M113.994 21.2266C114.65 21.4197 114.362 21.9738 114.375 22.3573C114.455 24.8705 114.902 27.3105 115.709 29.6894C116.178 31.0725 117.03 32.1824 118.113 33.134C118.75 33.6941 119.344 33.8099 119.882 32.9918C120.209 32.4957 120.573 32.0244 120.921 31.542C121.544 31.6337 121.251 32.0913 121.234 32.3997C121.205 32.9138 121.019 33.4104 121.014 33.9319C120.999 35.2698 121.59 36.0688 122.862 36.4212C123.041 36.471 123.216 36.5216 123.344 36.6692C124.905 37.2381 124.928 37.2504 124.114 38.787C123.845 39.2951 123.834 40.1106 122.935 40.0584C119.757 38.6022 117.744 36.0196 116.24 32.998C114.967 30.4383 114.303 27.6956 114.152 24.835C113.936 24.0075 114.22 23.1484 113.995 22.3215C113.994 21.9565 113.994 21.5915 113.994 21.2266Z" fill="#180F0F"/>
<path d="M80.5709 15.3342C80.2585 15.096 80.1458 14.7514 80.0186 14.395C79.4497 12.8018 78.3674 11.6008 77.0803 10.541C76.4524 10.024 75.7453 9.9524 75 9.93118C76.5186 9.25847 77.7269 9.65793 78.6984 10.9658C79.1424 11.5635 79.6858 12.0924 80.0887 12.7142C80.6563 13.5902 81.0996 14.5421 82.3454 14.6339C82.6754 14.6582 82.8977 14.9936 83.0767 15.2877C85.0589 18.5462 87.8631 21.0983 90.4506 23.833C92.9661 26.4918 95.5349 29.1001 98.0721 31.7385C98.3438 32.0211 98.7561 32.2403 98.6753 32.7431C97.763 32.8406 97.4785 31.9902 96.9074 31.5725C96.3149 30.9466 95.7224 30.3207 95.13 29.6948C92.267 26.9356 89.4121 24.168 86.5381 21.4204C84.9369 19.8897 83.5363 18.1944 82.3076 16.3588C81.8775 15.7165 81.3623 15.3164 80.5709 15.3342Z" fill="#F9AE7A"/>
<path d="M167.824 36.9599C168.371 36.7454 168.473 35.8763 169.246 35.9956C168.181 37.8949 166.931 39.6557 165.354 41.172C163.353 43.0958 161.021 44.3227 158.224 44.5748C157.843 44.5443 157.506 44.5046 157.489 43.979C157.457 42.9631 157.146 41.9657 157.275 40.937C158.318 40.5337 159.408 41.1012 160.453 40.7817C162.77 40.2771 164.727 39.0707 166.568 37.6414C166.953 37.3421 167.315 37.0217 167.824 36.9599Z" fill="#180F0F"/>
<path d="M153.477 112.797C153.395 110.422 153.698 108.07 153.9 105.712C153.986 104.706 154.885 104.987 155.431 104.747C155.996 104.5 156.181 104.979 156.361 105.415C157.167 107.366 157.989 109.311 158.805 111.258C157.348 111.408 156.047 112.091 154.656 112.468C154.262 112.575 153.87 112.687 153.477 112.797Z" fill="#3F2F32"/>
<path d="M148.468 30.2643C148.438 30.6327 148.57 30.8847 148.933 31.0353C150.883 31.8452 152.421 33.2196 153.888 34.6877C155.136 35.3545 155.605 36.6222 156.229 37.7616C156.342 37.9684 156.333 38.2935 155.919 38.281C151.827 32.7213 146.357 29.7401 139.437 29.4839C138.317 29.4425 137.194 29.4214 136.074 29.4489C135.482 29.4634 135.189 29.2791 135.093 28.6731C134.548 25.2374 133.607 21.8933 132.709 18.5391C133.466 19.2281 133.567 20.2367 133.917 21.1125C134.806 23.3352 135.389 25.6576 135.884 27.9942C136.063 28.8366 136.439 29.0937 137.259 29.0314C140.292 28.8008 143.285 29.1059 146.252 29.7673C146.99 29.932 147.617 30.6112 148.468 30.2643Z" fill="#F7AE78"/>
<path d="M127.423 10.2206C126.871 10.3666 126.877 9.81728 126.71 9.577C124.461 6.33079 122.13 3.16291 118.908 0.781266C120.127 -0.268541 120.13 -0.271529 121.317 0.840023C122.883 2.3058 124.282 3.91234 125.404 5.74809C126.077 7.23891 126.75 8.72974 127.423 10.2206Z" fill="#F9AE75"/>
<path d="M145.373 110.046C145.727 108.961 146.076 107.875 146.438 106.792C146.812 105.672 147.167 105.535 147.87 106.43C149.014 107.887 149.852 109.523 150.086 111.406C148.519 110.938 147.054 110.118 145.373 110.046Z" fill="#403134"/>
<path d="M158.999 55.5813C158.44 55.7977 158.702 56.307 158.604 56.6877C157.423 56.1046 156.347 55.3525 155.264 54.6115C154.602 54.3891 154.175 53.9273 153.916 53.2935C153.946 52.5161 154.644 52.2219 155.054 51.7188C154.982 52.2888 155.241 52.7168 155.653 53.068C156.715 53.9754 157.781 54.88 158.999 55.5813Z" fill="#F7AC76"/>
<path d="M139.336 125.387C140.469 122.954 140.114 120.099 141.512 117.739C142 116.913 142.442 116.059 142.905 115.219C143.038 115.364 143.171 115.51 143.304 115.656C143.037 116.144 142.811 116.661 142.495 117.116C141.408 118.681 140.751 120.354 140.684 122.303C140.645 123.439 140.27 124.572 139.336 125.387Z" fill="#2D2123"/>
<path d="M96.9068 31.5625C97.7285 31.6011 97.9784 32.5037 98.6745 32.7327C99.5807 33.605 100.487 34.4769 101.393 35.3489C101.344 35.7492 101.064 35.9314 100.788 35.6718C99.4769 34.4378 98.2057 33.1611 96.9306 31.8893C96.8721 31.831 96.9124 31.6737 96.9068 31.5625Z" fill="#1C1213"/>
<path d="M142.925 115.004C142.95 114.319 142.069 114.242 141.996 113.622C142.106 113.038 142.405 112.481 142.248 111.859C142.486 112.089 142.73 112.278 143.061 112.401C144.226 112.836 144.348 113.382 143.541 114.364C143.354 114.592 143.132 114.792 142.925 115.004Z" fill="#2D2123"/>
<path d="M113.996 22.3281C114.286 23.1511 114.206 23.9973 114.154 24.8417C113.858 24.0192 113.931 23.1734 113.996 22.3281Z" fill="#675B5D"/>
<path d="M191.366 35.7891C191.268 36.4293 190.886 36.8042 190.271 36.9632C190.573 36.5132 190.92 36.1047 191.366 35.7891Z" fill="#180F0F"/>
<path d="M135.295 93.4358C134.639 94.1694 135.75 94.8071 135.349 95.717C133.273 93.3732 131.265 91.1054 129.127 88.6909C129.355 89.5638 129.4 89.6409 129.828 90.1398C131.644 92.2545 133.457 94.371 135.271 96.487C136.69 98.1413 136.714 100.239 137.139 102.219C137.285 102.9 137.332 103.303 136.473 103.23C136.589 103.643 136.943 103.547 137.126 103.73C137.551 104.154 137.806 104.702 137.68 105.238C137.542 105.826 136.925 105.527 136.516 105.566C134.762 105.732 133.028 105.358 131.278 105.341C127.814 105.308 124.364 105.567 120.912 105.794C119.05 102.139 117.265 98.4502 115.761 94.627C115.041 92.7974 114.728 90.9142 114.636 88.9753C114.463 85.3189 114.923 81.6756 114.876 78.0202C114.865 77.215 114.728 76.9174 113.797 76.8071C109.641 76.314 105.514 75.5592 101.353 75.1253C96.8352 74.6541 92.2871 74.3884 87.8756 75.9476C87.2942 76.153 86.7331 76.4157 85.9062 76.7578C86.3598 75.8909 86.9828 75.732 87.5347 75.5307C89.5746 74.7863 91.6773 74.4539 93.8593 74.3566C98.7486 74.1386 103.53 74.8995 108.318 75.6826C110.256 75.9996 112.201 76.2713 114.139 76.588C114.619 76.6665 114.799 76.4668 114.94 76.0491C115.2 75.277 115.027 74.4923 115.079 73.7156C115.713 73.2892 116.303 73.7228 116.881 73.857C117.875 74.0874 118.867 74.3284 119.433 74.4958C118.582 74.3335 117.349 73.9138 116.077 73.6502C115.712 73.5745 115.236 73.524 115.081 73.0377C115.378 70.6928 115.377 68.3282 115.557 65.977C115.68 64.3678 115.598 62.7358 115.979 61.1484C117.481 61.3488 118.465 62.2197 119.044 63.5707C120.277 66.4507 121.513 69.3289 122.465 71.2367C121.679 69.7817 120.74 67.295 119.604 64.8986C119.444 64.5612 119.22 64.1542 119.573 63.8663C120 63.5176 120.337 63.9167 120.633 64.1825C122.572 65.9263 124.331 67.7884 124.897 70.4735C125.1 71.4366 125.582 72.2815 126.209 73.0485C127.234 74.302 127.813 75.8315 128.711 77.1656C128.954 77.5265 129.325 77.9406 129.004 78.3846C128.665 78.8546 128.199 78.3703 127.836 78.3874C128.454 78.7223 129.28 78.566 129.873 79.1013C131.054 83.7668 132.635 88.2818 134.951 92.5164C135.114 92.8142 135.311 93.0794 135.295 93.4358Z" fill="#443639"/>
<path d="M78.5043 86.2906C78.1168 85.8755 78.2721 85.3583 78.3018 84.8994C78.4939 81.9345 78.735 78.9728 78.9375 76.0085C79.0211 74.7849 79.0554 73.5589 79.1401 72.3339C79.3943 68.6594 79.4161 64.9692 79.6513 61.2929C79.9317 56.9119 80.1059 52.527 80.338 48.1446C80.5543 44.0603 80.792 39.977 81.0091 35.8923C81.2301 31.7335 81.6024 27.5829 81.6654 23.4149C81.6721 22.9741 81.78 22.5312 81.8739 22.0964C81.9783 21.6127 81.5682 20.8514 82.136 20.6958C82.6467 20.5558 82.841 21.3651 83.162 21.7517C84.1105 22.8944 84.9951 24.0901 85.9047 25.2652C85.6161 25.3351 85.331 25.4327 85.0383 25.4702C83.0193 25.7287 82.9943 25.7222 82.7945 27.7213C82.7169 28.4981 82.7801 29.2887 82.7744 30.073C82.7708 30.5674 83.0128 30.7779 83.4984 30.8886C84.1479 31.0368 84.7732 31.2945 85.4038 31.5196C85.5332 31.5658 85.6401 31.6753 86.0398 31.949C84.9279 31.8982 84.2282 31.5142 83.5054 31.2855C82.8693 31.0843 82.5608 31.0717 82.5338 31.8941C82.4189 35.3876 82.2694 38.8803 82.0925 42.3713C81.8914 46.3412 81.7205 50.3148 81.4017 54.2759C81.0891 58.1595 80.8142 62.0458 80.4995 65.9284C80.14 70.3645 79.7698 74.8008 79.367 79.2328C79.153 81.5882 79.0252 83.9673 78.5043 86.2906Z" fill="#3F2F33"/>
<path d="M129.877 79.1033C128.81 79.0591 127.868 78.6516 126.913 78.1472C127.194 77.8693 127.422 78.0595 127.656 78.0838C128.071 78.1269 128.539 78.6808 128.858 78.2285C129.09 77.8993 128.56 77.5322 128.382 77.1755C126.959 74.3324 124.758 71.927 123.958 68.7131C123.452 66.6858 121.521 65.5637 120.154 64.0996C120.032 63.9692 119.853 63.8141 119.682 64.0099C119.503 64.2152 119.657 64.4291 119.748 64.6302C120.773 66.9077 121.796 69.1865 122.826 71.4619C123.039 71.9323 123.279 72.3903 123.565 72.9745C122.971 72.9206 122.907 72.506 122.759 72.2219C121.309 69.4418 120.029 66.5804 118.834 63.6848C118.277 62.3362 117.078 61.8296 115.983 61.1504C114.774 60.321 113.499 59.5711 112.379 58.635C111.587 57.9728 110.809 57.2189 110.367 56.2266C111.054 56.2316 111.422 56.8114 111.949 57.1039C112.301 57.0316 112.601 57.1659 112.901 57.3294C116.474 59.2807 120.273 60.7418 123.971 62.4213C124.406 62.6187 124.91 62.7085 125.163 63.1882C126.011 64.5645 126.065 66.2247 126.758 67.6565C127.643 70.8636 128.53 74.0702 129.411 77.2783C129.577 77.8837 129.722 78.4948 129.877 79.1033Z" fill="#3F3033"/>
<path d="M115.082 73.0415C116.806 73.5605 118.53 74.0795 120.254 74.5985C120.238 74.6709 120.222 74.7433 120.205 74.8157C118.497 74.4502 116.788 74.0848 115.08 73.7194C111.004 72.7186 106.916 71.8164 102.719 71.4401C100.533 71.2441 98.3558 71.0373 96.1571 71.0084C93.4405 70.9727 90.7523 71.1108 88.0918 71.7139C94.6732 69.6396 101.422 68.4665 108.267 67.7969C108.285 67.898 108.303 67.9991 108.321 68.1002C106.207 68.4072 104.082 68.6567 101.981 69.0376C99.8954 69.4156 97.7752 69.6642 95.7316 70.2786C95.8215 70.6186 95.9963 70.5712 96.1246 70.5688C102.493 70.4522 108.697 71.5753 114.858 73.0331C114.929 73.0499 115.007 73.0392 115.082 73.0415Z" fill="#3F3033"/>
<path d="M63.5175 80.1509C57.7894 81.4357 52.6606 83.8762 48.4004 87.992C50.3062 84.6031 58.9969 80.027 63.5175 80.1509Z" fill="#3F2F33"/>
<path d="M87.8672 104.914C88.5302 105.133 89.1718 105.158 89.1396 105.918C89.1279 106.194 88.8395 106.373 88.5657 106.307C87.9034 106.148 88.0228 105.561 87.8672 104.914Z" fill="#EAE9EA"/>
<path d="M160.411 80.8895C159.898 79.527 159.88 78.0719 159.652 76.659C159.139 73.4743 158.627 70.2865 158.598 67.0448C158.591 66.1949 158.616 65.8204 159.75 65.9951C162.715 66.4519 165.717 66.6707 168.704 66.9845C169.577 67.3085 170.494 67.3775 171.41 67.448C169.311 68.3922 167.135 69.1319 164.971 69.9061C162.91 70.6433 161.73 72.6791 162.116 74.9474C162.767 74.3478 162.824 73.5486 163.061 72.8359C163.165 72.5207 163.232 72.1914 163.355 71.8843C163.439 71.6755 163.607 71.48 163.869 71.5649C164.109 71.6427 164.202 71.8434 164.126 72.1009C163.526 74.1348 163.545 76.2895 162.992 78.3053C162.805 78.985 162.6 79.8985 161.896 80.6748C161.103 79.0641 161.993 77.6194 161.875 76.2207C161.384 76.6994 161.088 77.3528 161.089 78.1447C161.09 79.1203 160.915 80.0431 160.411 80.8895Z" fill="#3D2D30"/>
<path d="M193.174 40.961C195.611 37.9225 198.048 34.884 200.681 31.6016C201.477 34.5992 202.261 37.302 202.804 40.0705C200.098 39.7504 197.397 39.5023 194.769 40.5324C194.253 40.7346 193.768 41.0517 193.174 40.961Z" fill="#413033"/>
<path d="M202.128 108.68C202.359 108.694 202.534 108.781 202.523 108.991C202.513 109.175 202.367 109.328 202.165 109.331C201.913 109.335 201.757 109.175 201.76 108.929C201.763 108.68 201.987 108.703 202.128 108.68Z" fill="#D6D3D2"/>
<path d="M203.955 40.2838C203.882 40.2807 203.808 40.2784 203.735 40.2768C203.501 38.3617 202.728 36.5711 202.469 34.6328C203.893 36.6823 205.407 38.6579 206.419 40.9518C205.542 40.9333 204.797 40.4284 203.955 40.2838Z" fill="#3D3031"/>
<path d="M123.345 36.6608C121.297 37.1172 120.473 34.9188 120.737 33.3359C120.837 32.7392 121.17 32.1659 120.922 31.5335C121.296 29.2164 121.955 27.0041 122.969 24.8653C123.689 23.3468 124.745 22.3352 126.231 21.6847C127.59 21.0897 128.935 20.4561 130.378 20.0781C130.777 21.3147 130.97 22.5865 131.031 23.881C131.356 24.8663 131.039 25.4627 130.049 25.867C128.786 26.3833 127.831 27.3583 126.901 28.3375C126.448 28.8148 126.311 29.3757 126.44 29.9916C126.655 31.0186 126.561 32.0776 126.797 33.1022C126.881 33.4645 126.895 33.844 126.738 34.2036C126.088 35.6864 124.478 35.8445 123.345 36.6608Z" fill="#594C4F"/>
<path d="M160.653 40.9655C159.524 41.4373 158.401 41.1046 157.277 40.9354C157.273 40.8714 157.266 40.8079 157.257 40.7445C157.037 38.5513 157.754 36.7123 159.264 35.1563C158.884 35.4932 158.303 35.7054 158.149 35.0029C157.598 32.4878 156.022 30.8155 153.914 29.529C153.823 29.4738 153.764 29.3657 153.685 29.2866C153.61 27.2835 153.676 25.3016 154.57 23.4453C157.111 24.1805 159.495 25.2828 161.4 27.1199C163.152 28.809 163.311 31.1012 163.044 33.3767C162.815 35.3258 161.884 37.0653 161.145 38.8587C160.871 39.5224 160.324 40.1505 160.653 40.9655Z" fill="#594C4F"/>
<path d="M153.915 53.2897C154.364 53.7291 154.813 54.1684 155.263 54.6077C155.074 55.1275 154.56 55.1411 154.155 55.2595C151.9 55.9184 149.57 56.2725 147.246 56.3957C142.5 56.6474 137.791 56.3206 133.263 54.6702C131.662 54.0868 130.101 53.4369 128.895 52.0859C130.04 52.4233 131.184 52.767 132.331 53.097C136.135 54.1907 140.012 54.7013 143.969 54.9123C147.219 55.0856 150.252 54.6419 153.087 53.064C153.559 52.8015 153.663 53.1416 153.915 53.2897Z" fill="#180F0F"/>
<path d="M126.738 34.2131C126.253 32.5996 126.205 30.9212 126.11 29.265C126.044 28.114 127.222 27.6666 127.888 26.9629C128.467 26.3514 129.175 25.7864 130.007 25.5507C130.922 25.2915 131.134 24.7175 131.031 23.8906C131.342 25.937 131.584 27.9897 131.375 30.062C131.344 30.367 131.273 30.727 130.918 30.9118C129.316 31.7462 128.085 33.0534 126.738 34.2131Z" fill="#443639"/>
<path d="M153.682 29.2891C155.805 30.1692 157.359 31.6146 158.068 33.8399C158.597 35.4977 158.565 35.5078 160.014 34.5604C158.132 36.211 157.542 38.4144 157.254 40.7469C157 39.824 156.331 39.1269 155.917 38.2908C156.317 37.7899 155.813 37.4771 155.618 37.165C155.087 36.3136 154.47 35.5162 153.887 34.6975C154.53 33.847 153.901 32.9791 153.832 32.1505C153.753 31.1963 153.697 30.2452 153.682 29.2891Z" fill="#433538"/>
<path d="M134.084 41.4077C132.504 41.8918 130.698 41.9156 129.686 40.2778C128.959 39.5105 128.931 38.6421 129.591 37.3919C129.867 37.1603 130.143 37.2789 130.42 37.3976C130.698 37.5166 130.997 37.6464 131.225 37.339C131.485 36.9886 131.281 36.7173 131.012 36.4794C130.872 36.3556 130.737 36.2301 130.756 36.0159C130.832 35.9221 130.926 35.8557 131.038 35.8119C131.587 35.6648 132.146 35.6935 132.696 35.7443C133.982 35.8632 135.224 36.8298 135.435 37.9989C135.689 39.397 135.55 40.7321 134.084 41.4077Z" fill="black"/>
<path d="M145.821 41.3983C145.086 40.9953 144.982 40.4016 145.34 39.7007C145.66 39.0738 145.93 38.3959 146.369 37.8598C147.777 36.1378 149.556 35.6435 151.29 36.3955C153.639 37.4137 155.019 39.4322 154.795 41.5593C154.648 42.9478 153.768 43.8661 152.083 43.6361C152.035 43.4864 152.039 43.3302 152.132 43.2099C153.729 41.1404 152.035 38.4456 149.433 38.3357C149.247 38.3278 149.061 38.3282 148.876 38.328C148.205 38.2752 147.728 38.6243 147.306 39.0872C146.547 39.6884 146.435 40.7049 145.821 41.3983Z" fill="#180F0F"/>
<path d="M151.439 43.65C150.033 44.5327 148.653 44.3845 147.194 43.194C146.228 42.2856 146.132 41.185 146.901 39.8548C146.963 39.8146 147.033 39.7807 147.1 39.793C147.533 39.8714 147.929 40.4239 148.395 39.9746C148.92 39.4692 148.2 39.0618 148.213 38.5832C148.246 38.4628 148.319 38.3797 148.433 38.3299C150.794 38.1221 152.194 38.8936 152.682 40.6685C153.011 41.8627 152.49 43.1101 151.439 43.65Z" fill="black"/>
<path d="M129.254 40.2762C127.281 40.0759 126.866 37.5125 128.02 36.0378C129.257 34.4581 130.798 33.4096 132.943 33.8648C135.138 34.3307 136.418 35.7505 136.82 38.0817C136.839 38.1915 136.846 38.3043 136.847 38.4159C136.854 38.9149 136.811 39.5562 136.317 39.6477C135.776 39.7479 136.12 38.9457 135.77 38.7111C135.312 38.3315 135.381 37.7021 135.06 37.2443C134.176 35.9807 132.429 35.4611 130.802 36.0235L130.793 36.0216C130.651 36.4049 130.257 36.4925 129.982 36.7197C128.765 37.7067 129.067 39.0032 129.254 40.2762Z" fill="#180F0F"/>
<path d="M125.159 63.1851C120.69 61.297 116.172 59.5156 111.945 57.1008C112.043 56.9248 112.209 56.8884 112.39 56.8835C113.071 56.5948 113.685 56.9469 114.307 57.1097C115.942 57.5374 117.59 57.9329 119.122 58.6789C120.544 59.394 122.104 59.726 123.587 60.2719C124.903 60.7565 125.589 62.035 125.159 63.1851Z" fill="#180F0F"/>
<path d="M142.206 43.7909C142.496 43.281 142.485 42.7305 142.998 42.63C143.346 42.5618 143.649 42.5403 143.43 42.1298C143.22 41.7354 142.853 41.8246 142.587 42.0989C142.253 42.444 141.953 42.8252 141.657 43.2051C141.452 43.4685 141.31 43.788 141.08 44.0244C140.807 44.3053 140.587 44.8043 140.126 44.6891C139.631 44.5654 139.58 44.0714 139.515 43.6042C139.445 43.0936 139.252 42.6007 139.127 42.0966C139.014 41.6438 138.768 41.2647 138.28 41.4637C137.713 41.6954 138 42.1161 138.226 42.471C138.303 42.5921 138.406 42.7167 138.23 42.9179C137.365 42.5539 137.266 41.8191 137.309 41.019C137.356 40.17 138.085 40.1568 138.624 40.1009C140.081 39.9496 141.524 40.0465 142.876 40.726C143.532 41.0555 144.165 41.3579 144.035 42.2747C143.92 43.0825 143.414 43.5555 142.206 43.7909Z" fill="#504344"/>
<path d="M130.801 36.0258C132.092 34.9844 134.764 35.8996 135.482 37.6443C135.621 37.9827 135.675 38.3561 135.769 38.7133C135.682 40.6868 135.484 41.0046 134.084 41.4122C136.069 39.7271 135.592 36.8515 133.133 36.1052C132.372 35.8745 131.578 36.0657 130.801 36.0258Z" fill="#4B4445"/>
<path d="M151.438 43.6492C152.535 42.4713 152.829 41.2994 152.23 40.1035C151.612 38.8668 150.547 38.3737 149.185 38.4773C148.888 38.4999 148.589 38.5001 148.29 38.5107C148.152 38.0548 148.635 38.2322 148.762 38.0477C149.771 38.0362 150.754 38.1354 151.6 38.764C153.156 39.9202 153.713 42.0446 152.083 43.6416C151.868 43.6806 151.657 44.0208 151.438 43.6492Z" fill="#4A4446"/>
<path d="M142.928 48.7185C141.082 47.5082 139.102 47.1221 136.918 47.8055C137.06 47.1623 137.333 47.2723 137.526 47.2367C138.141 47.1238 138.806 47.1322 139.363 46.8898C140.016 46.6053 139.547 45.6792 140.112 45.1875C140.436 45.8733 139.806 46.8691 140.892 47.2637C141.639 47.5353 142.323 47.9817 143.035 48.3499C142.999 48.4727 142.963 48.5956 142.928 48.7185Z" fill="#180F0F"/>
<path d="M147.166 39.8439C146.53 40.9676 146.487 42.0865 147.193 43.1994C146.374 42.9918 146.053 42.573 145.82 41.4102C146.007 40.4361 146.353 39.5484 147.177 38.9215C147.286 38.8478 147.383 38.8617 147.467 38.9631C147.61 39.3398 147.484 39.625 147.166 39.8439Z" fill="#524C4E"/>
<path d="M119.122 58.6775C117.096 58.1136 115.071 57.5476 113.044 56.989C112.832 56.9307 112.609 56.9167 112.391 56.8821C112.619 56.5812 112.897 56.5303 113.268 56.6146C115.065 57.0238 116.83 57.5378 118.558 58.1777C118.808 58.2703 119.014 58.421 119.122 58.6775Z" fill="#1C1213"/>
<path d="M129.253 40.264C128.404 38.6563 128.617 37.4593 129.928 36.4766C130.151 36.7792 130.145 37.0727 129.893 37.3566C129.284 38.2885 129.302 39.2652 129.685 40.2679C129.539 40.5262 129.397 40.2835 129.253 40.264Z" fill="#584E50"/>
<path d="M184.658 43.0042C184.733 42.7756 184.89 42.625 185.108 42.533C185.332 42.5234 185.472 42.0353 185.718 42.3631C185.866 42.5594 185.769 42.874 185.539 43.0427C185.248 43.2563 184.94 43.2929 184.658 43.0042Z" fill="#1C1212"/>
<path d="M263.996 129.547C264.274 129.592 264.353 129.779 264.338 130.03C264.319 130.329 264.153 130.54 263.868 130.566C263.533 130.596 263.579 130.302 263.581 130.095C263.584 129.821 263.652 129.573 263.996 129.547Z" fill="#E8E6E5"/>
<path d="M72.0156 13.0506C72.6185 12.3946 73.3253 12.433 74.3148 12.3047C73.4457 12.8058 72.7916 12.9303 72.0156 13.0506Z" fill="#B4ACAD"/>
<path d="M206.876 22.976C206.23 23.1362 205.576 23.2714 204.94 23.4638C204.358 23.64 203.794 23.878 203.193 24.0071C204.262 23.1385 205.558 22.855 206.844 22.5469C206.855 22.6899 206.865 22.833 206.876 22.976Z" fill="#B18C79"/>
<path d="M160.651 40.9602C159.883 40.9911 160.033 40.6264 160.246 40.1317C160.949 38.4946 161.674 36.8679 162.306 35.1978C163.16 32.9408 162.959 30.732 162.138 28.5712C161.563 27.0568 160.109 26.3364 158.797 25.5864C157.64 24.9247 156.459 24.2677 155.154 23.9083C154.881 23.833 154.687 23.6928 154.568 23.4401C155.752 20.2694 158.156 18.1801 160.871 16.3838C162.807 15.1026 164.895 14.0911 166.986 13.0915C167.236 12.972 167.232 12.9641 167.151 12.6472C169.018 11.8873 169.492 12.1143 170.021 14.0362C171.203 18.3235 171.033 22.6577 170.388 26.9899C169.899 30.2713 169.123 33.4881 167.791 36.5469C167.729 36.6887 167.695 36.8272 167.825 36.9527C165.697 38.7605 163.492 40.4289 160.651 40.9602Z" fill="#675C5E"/>
<path d="M132.418 97.1413C130.91 95.4112 128.928 94.1665 127.533 92.3203C129.389 93.6904 131.281 95.0204 132.418 97.1413Z" fill="#3F3033"/>
<path d="M128.26 90.9141C130.521 92.4828 132.429 94.4092 134.069 96.6052C132.011 94.8325 130.417 92.5868 128.26 90.9141Z" fill="#3F3033"/>
<path d="M129.893 37.3706C129.904 37.0772 129.916 36.7839 129.927 36.4905C130.215 36.3348 130.503 36.1791 130.792 36.0234C131.038 36.345 131.657 36.2099 131.701 36.8023C131.731 37.2036 131.671 37.5668 131.331 37.7766C130.732 38.146 130.285 37.8162 129.893 37.3706Z" fill="#F4F4F5"/>
<path d="M147.425 38.9547C147.342 38.9418 147.259 38.9289 147.176 38.9159C147.541 38.3277 148.061 38.0244 148.761 38.0482C148.604 38.2024 148.447 38.3566 148.289 38.511C148.301 38.5646 148.304 38.6186 148.298 38.6731C148.081 38.9949 147.782 39.0664 147.425 38.9547Z" fill="#1C1313"/>
<path d="M147.424 38.9535C147.715 38.8596 148.006 38.7658 148.297 38.6719C148.799 38.947 149.128 39.3297 148.947 39.9343C148.846 40.2685 148.595 40.5375 148.213 40.5158C147.753 40.4898 147.224 40.5073 147.164 39.837C147.251 39.5425 147.337 39.248 147.424 38.9535Z" fill="#F5F5F5"/>
</svg>
