<svg width="130" height="299" viewBox="0 0 130 299" fill="none" xmlns="http://www.w3.org/2000/svg">
<path d="M11.8219 61.1243C12.5397 62.7329 13.2578 64.3411 13.9755 65.9497C14.2481 66.5602 15.1453 66.0314 14.8743 65.4242C14.1565 63.8157 13.4384 62.2075 12.7207 60.5989C12.4481 59.9887 11.5509 60.5175 11.8219 61.1243Z" fill="#C3F250"/>
<path d="M7.78887 63.1483C8.69624 64.5479 9.6036 65.9472 10.511 67.3465C10.8742 67.9067 11.7757 67.3855 11.4097 66.8211C10.5023 65.4218 9.59498 64.0222 8.68761 62.6228C8.32442 62.063 7.42292 62.5842 7.78887 63.1483Z" fill="#C3F250"/>
<path d="M2.93104 70.9218C4.33187 72.3371 6.14721 73.124 8.13555 73.1968C8.80539 73.2214 8.80447 72.1804 8.13555 72.1558C6.41423 72.0928 4.87728 71.4082 3.66695 70.1856C3.19529 69.709 2.45938 70.4449 2.93104 70.9218Z" fill="#C3F250"/>
<path d="M0.502845 78.0251C2.35322 78.0251 4.2039 78.0251 6.05427 78.0251C6.72412 78.0251 6.72504 76.9844 6.05427 76.9844C4.2039 76.9844 2.35322 76.9844 0.502845 76.9844C-0.167 76.9841 -0.168229 78.0251 0.502845 78.0251Z" fill="#C3F250"/>
<path d="M2.88242 87.7561C4.25929 87.0411 5.63616 86.3257 7.01303 85.6107C7.60759 85.3019 7.08187 84.4035 6.48761 84.712C5.11074 85.427 3.73387 86.1423 2.357 86.8573C1.76244 87.1661 2.28816 88.0646 2.88242 87.7561Z" fill="#C3F250"/>
<path d="M3.60524 96.1007C5.46483 94.915 7.10136 93.4579 8.47915 91.7351C8.89335 91.217 8.16143 90.4759 7.74324 90.9991C6.41983 92.6538 4.86721 94.0626 3.07983 95.202C2.51691 95.5608 3.03833 96.4624 3.60524 96.1007Z" fill="#C3F250"/>
<path d="M7.93134 100.008C8.62515 99.0821 9.31864 98.1569 10.0124 97.2314C10.4144 96.6952 9.51101 96.176 9.11371 96.706C8.4199 97.6315 7.72637 98.5567 7.03256 99.4822C6.63035 100.018 7.53373 100.538 7.93134 100.008Z" fill="#C3F250"/>
<path d="M10.4652 109.171C12.2465 107.868 13.5268 106.131 14.225 104.035C14.437 103.398 13.4322 103.125 13.2211 103.758C12.6155 105.577 11.4881 107.14 9.93981 108.272C9.40455 108.664 9.92351 109.568 10.4652 109.171Z" fill="#C3F250"/>
<path d="M14.6981 113.202C15.8473 112.039 16.9968 110.875 18.146 109.711C18.617 109.234 17.8817 108.498 17.41 108.975C16.2609 110.139 15.1113 111.302 13.9622 112.466C13.4908 112.943 14.2264 113.68 14.6981 113.202Z" fill="#C3F250"/>
<path d="M19.615 115.913C20.3036 114.292 20.9922 112.67 21.6808 111.049C21.9398 110.439 21.0433 109.908 20.7821 110.524C20.0935 112.145 19.4049 113.766 18.7163 115.388C18.4576 115.997 19.3539 116.528 19.615 115.913Z" fill="#C3F250"/>
<path d="M23.1005 118.684C23.7501 117.504 24.3999 116.323 25.0495 115.142C25.3728 114.554 24.474 114.029 24.1508 114.616C23.5012 115.797 22.8513 116.978 22.2018 118.159C21.8788 118.746 22.7773 119.272 23.1005 118.684Z" fill="#C3F250"/>
<path d="M27.9405 122.043C28.1833 120.889 28.4264 119.735 28.6691 118.581C28.8065 117.927 27.8035 117.648 27.6652 118.304C27.4225 119.458 27.1795 120.612 26.9367 121.766C26.7994 122.42 27.8026 122.699 27.9405 122.043Z" fill="#C3F250"/>
<path d="M32.9453 124.708C32.9453 123.783 32.9453 122.858 32.9453 121.932C32.9453 121.263 31.9043 121.262 31.9043 121.932C31.9043 122.858 31.9043 123.783 31.9043 124.708C31.9043 125.378 32.9453 125.379 32.9453 124.708Z" fill="#C3F250"/>
<path d="M16.4997 58.7937C16.752 61.1044 17.0039 63.4153 17.2562 65.726C17.3281 66.3848 18.3697 66.3922 18.2972 65.726C18.045 63.415 17.793 61.1044 17.5408 58.7937C17.4689 58.1349 16.4272 58.1276 16.4997 58.7937Z" fill="#C3F250"/>
<path d="M23.0602 59.2491C22.1556 61.3398 21.2513 63.4308 20.3467 65.5214C20.0834 66.1298 20.98 66.6605 21.2455 66.0468C22.1501 63.9562 23.0543 61.8652 23.9589 59.7746C24.2223 59.1662 23.3257 58.6355 23.0602 59.2491Z" fill="#C3F250"/>
<path d="M25.8214 62.8682C25.3451 64.0192 24.8691 65.17 24.3929 66.321C24.1369 66.9392 25.1439 67.209 25.3967 66.5978C25.873 65.4468 26.3489 64.2961 26.8252 63.1451C27.0809 62.5265 26.0743 62.2571 25.8214 62.8682Z" fill="#C3F250"/>
<path d="M29.4035 73.8011C30.7742 72.3966 32.145 70.9921 33.516 69.5876C33.9843 69.1079 33.249 68.3711 32.7801 68.8516C31.4094 70.2562 30.0387 71.6607 28.6676 73.0652C28.1993 73.5449 28.9346 74.2817 29.4035 73.8011Z" fill="#C3F250"/>
<path d="M30.5954 79.3419C32.0352 78.2541 33.4751 77.1664 34.9149 76.0787C35.4428 75.6798 34.9248 74.7755 34.3895 75.1799C32.9497 76.2676 31.5098 77.3554 30.0699 78.4431C29.5424 78.8419 30.0604 79.7462 30.5954 79.3419Z" fill="#C3F250"/>
<path d="M31.729 84.2514C33.5078 84.2004 35.1492 83.423 36.2766 82.0381C36.696 81.5228 35.9638 80.782 35.5407 81.3022C34.582 82.48 33.2537 83.1667 31.7293 83.2107C31.0604 83.2297 31.0576 84.2704 31.729 84.2514Z" fill="#C3F250"/>
<path d="M34.0728 91.1329C35.9232 90.2077 37.7738 89.2825 39.6242 88.3573C40.2234 88.0577 39.697 87.1596 39.0988 87.4585C37.2484 88.3837 35.3977 89.3089 33.5473 90.2341C32.9482 90.5337 33.4745 91.4321 34.0728 91.1329Z" fill="#C3F250"/>
<path d="M36.262 99.3886C37.65 98.0007 39.0376 96.6131 40.4255 95.2251C40.8997 94.751 40.164 94.0145 39.6896 94.4892C38.3017 95.8772 36.914 97.2648 35.5261 98.6527C35.052 99.1268 35.7876 99.863 36.262 99.3886Z" fill="#C3F250"/>
<path d="M39.0367 105.493C39.6534 104.201 40.5518 103.101 41.725 102.274C42.2686 101.892 41.749 100.989 41.1996 101.376C39.8817 102.304 38.8336 103.51 38.1379 104.968C37.8509 105.569 38.7482 106.098 39.0367 105.493Z" fill="#C3F250"/>
<path d="M94.3958 38.0837C95.3904 40.5292 96.8029 42.7025 98.656 44.5849C99.1268 45.063 99.8627 44.3268 99.392 43.849C97.6713 42.1012 96.3242 40.0803 95.3996 37.8071C95.1504 37.1948 94.1432 37.4624 94.3958 38.0837Z" fill="#C3F250"/>
<path d="M90.4073 43.3231C92.2853 44.6726 94.1634 46.0221 96.0411 47.372C96.5859 47.7634 97.1061 46.861 96.5665 46.4732C94.6885 45.1237 92.8104 43.7741 90.9327 42.4246C90.3876 42.0328 89.8674 42.9353 90.4073 43.3231Z" fill="#C3F250"/>
<path d="M87.1026 49.5823C89.3201 50.1053 91.3521 50.9976 93.2391 52.2727C93.7955 52.6488 94.3169 51.7473 93.7645 51.374C91.8112 50.0536 89.6738 49.1195 87.3794 48.5784C86.728 48.4248 86.4499 49.4284 87.1026 49.5823Z" fill="#C3F250"/>
<path d="M86.5497 57.2285C88.4001 57.2285 90.2508 57.2285 92.1011 57.2285C92.771 57.2285 92.7719 56.1875 92.1011 56.1875C90.2508 56.1875 88.4001 56.1875 86.5497 56.1875C85.8799 56.1878 85.8786 57.2285 86.5497 57.2285Z" fill="#C3F250"/>
<path d="M85.8478 61.4666C87.9287 61.7053 90.0098 61.9441 92.0906 62.1829C92.7549 62.2591 92.7494 61.2177 92.0906 61.1421C90.0098 60.9034 87.9287 60.6646 85.8478 60.4259C85.1835 60.3494 85.1888 61.391 85.8478 61.4666Z" fill="#C3F250"/>
<path d="M86.7292 67.0213C88.5267 66.4568 90.4072 66.8105 91.8425 68.0488C92.3473 68.4845 93.0866 67.7513 92.5784 67.3129C90.8687 65.8377 88.6161 65.338 86.4524 66.0174C85.8154 66.2174 86.0876 67.2228 86.7292 67.0213Z" fill="#C3F250"/>
<path d="M86.2868 72.4147C87.9061 73.1085 89.5251 73.8026 91.1444 74.4964C91.7534 74.7573 92.2844 73.861 91.6698 73.5977C90.0505 72.9039 88.4315 72.2097 86.8122 71.5159C86.2032 71.2547 85.6722 72.1514 86.2868 72.4147Z" fill="#C3F250"/>
<path d="M84.7378 77.9497C86.1288 79.1023 87.5197 80.2552 88.9108 81.4077C89.423 81.8321 90.1632 81.0995 89.6467 80.6718C88.2557 79.5192 86.8646 78.3664 85.4736 77.2138C84.9614 76.7895 84.2212 77.5217 84.7378 77.9497Z" fill="#C3F250"/>
<path d="M84.9214 84.8368C86.5394 85.5334 88.1575 86.2297 89.7756 86.9263C90.3843 87.1884 90.9153 86.2918 90.301 86.0275C88.683 85.3309 87.0649 84.6347 85.4468 83.9381C84.8381 83.676 84.3071 84.5723 84.9214 84.8368Z" fill="#C3F250"/>
<path d="M84.6852 89.5918C85.1442 90.2881 85.6033 90.9844 86.062 91.6806C86.4292 92.2377 87.331 91.7169 86.9608 91.1552C86.5017 90.4589 86.0427 89.7627 85.5839 89.0661C85.2167 88.5096 84.3149 89.0304 84.6852 89.5918Z" fill="#C3F250"/>
<path d="M89.7525 107.81C91.2409 108.899 92.9192 109.617 94.7343 109.944C95.3894 110.062 95.6702 109.059 95.0108 108.94C93.2705 108.627 91.7046 107.955 90.2776 106.911C89.7365 106.515 89.2167 107.418 89.7525 107.81Z" fill="#C3F250"/>
<path d="M93.7678 103.595C94.9127 104.763 96.0579 105.93 97.2027 107.098C97.6726 107.577 98.4085 106.841 97.9387 106.362C96.7938 105.194 95.6486 104.027 94.5037 102.859C94.0342 102.38 93.2983 103.116 93.7678 103.595Z" fill="#C3F250"/>
<path d="M97.0791 100.768C98.0879 102.092 99.0964 103.417 100.105 104.741C100.506 105.267 101.41 104.749 101.004 104.216C99.9951 102.891 98.9867 101.567 97.9779 100.243C97.5772 99.7169 96.6729 100.235 97.0791 100.768Z" fill="#C3F250"/>
<path d="M101.688 96.0424C103.532 96.677 105.423 96.9216 107.368 96.7762C108.032 96.7264 108.037 95.6851 107.368 95.7352C105.512 95.8741 103.724 95.6439 101.965 95.0386C101.33 94.8204 101.057 95.8255 101.688 96.0424Z" fill="#C3F250"/>
<path d="M104.358 91.0712C106.408 92.0425 108.565 92.5744 110.833 92.6543C111.503 92.6779 111.502 91.6369 110.833 91.6132C108.75 91.5401 106.767 91.0644 104.883 90.1724C104.281 89.8873 103.752 90.7845 104.358 91.0712Z" fill="#C3F250"/>
<path d="M108.628 84.8968C110.478 85.3636 112.327 85.83 114.177 86.2968C114.827 86.4605 115.104 85.457 114.454 85.2929C112.604 84.8261 110.755 84.3597 108.905 83.893C108.255 83.7292 107.978 84.7328 108.628 84.8968Z" fill="#C3F250"/>
<path d="M110.836 80.1323C113.486 79.8241 115.91 78.8976 118.055 77.3035C118.586 76.9084 118.068 76.0044 117.529 76.4048C115.542 77.8818 113.301 78.8048 110.836 79.0915C110.178 79.1677 110.171 80.2094 110.836 80.1323Z" fill="#C3F250"/>
<path d="M113.007 72.2962C115.123 71.7314 117.239 71.1667 119.356 70.6019C120.002 70.4292 119.728 69.4251 119.079 69.5981C116.963 70.1628 114.846 70.7276 112.73 71.2923C112.084 71.465 112.358 72.4695 113.007 72.2962Z" fill="#C3F250"/>
<path d="M113.6 62.9109C115.913 63.1367 118.227 63.3625 120.54 63.5884C121.207 63.6535 121.202 62.6122 120.54 62.5477C118.227 62.3218 115.913 62.096 113.6 61.8701C112.933 61.805 112.938 62.8463 113.6 62.9109Z" fill="#C3F250"/>
<path d="M114.557 57.1222C116.208 56.2567 117.858 55.3914 119.509 54.5258C120.102 54.2146 119.577 53.3158 118.984 53.6271C117.333 54.4926 115.683 55.3579 114.032 56.2235C113.439 56.5347 113.964 57.4335 114.557 57.1222Z" fill="#C3F250"/>
<path d="M114.753 50.0119C115.678 48.6239 116.603 47.2363 117.529 45.8484C117.901 45.2894 117 44.7677 116.63 45.3229C115.705 46.7109 114.779 48.0985 113.854 49.4864C113.481 50.0454 114.383 50.5671 114.753 50.0119Z" fill="#C3F250"/>
<path d="M111.318 45.7234C111.802 43.6466 112.286 41.5698 112.77 39.4929C112.922 38.8412 111.918 38.5631 111.766 39.2161C111.282 41.2929 110.798 43.3697 110.314 45.4466C110.163 46.0986 111.166 46.3767 111.318 45.7234Z" fill="#C3F250"/>
<path d="M106.414 42.9346C106.779 40.705 106.654 38.5207 106.001 36.3566C105.808 35.7169 104.803 35.9894 104.997 36.6334C105.594 38.6113 105.744 40.6178 105.41 42.6581C105.303 43.3132 106.306 43.5952 106.414 42.9346Z" fill="#C3F250"/>
<path d="M37.2839 135.6C40.4964 135.555 43.6794 135.83 46.8351 136.436C47.4896 136.562 47.7701 135.559 47.1119 135.433C43.8662 134.809 40.5892 134.514 37.2842 134.559C36.6147 134.568 36.6126 135.609 37.2839 135.6Z" fill="#C3F250"/>
<path d="M38.6687 139.807C41.4443 139.807 44.2202 139.807 46.9957 139.807C47.6656 139.807 47.6665 138.766 46.9957 138.766C44.2202 138.766 41.4443 138.766 38.6687 138.766C37.9989 138.766 37.998 139.807 38.6687 139.807Z" fill="#C3F250"/>
<path d="M40.7493 146.004C43.2756 146.316 45.7298 145.806 47.9403 144.549C48.5226 144.218 47.9986 143.319 47.4148 143.65C45.3472 144.826 43.1075 145.254 40.7493 144.964C40.0859 144.882 40.0917 145.923 40.7493 146.004Z" fill="#C3F250"/>
<path d="M43.7831 153.58C46.1832 152.369 48.6887 151.524 51.3266 151.015C51.9835 150.888 51.7054 149.884 51.0497 150.011C48.3279 150.536 45.7312 151.433 43.2577 152.681C42.6594 152.983 43.1858 153.881 43.7831 153.58Z" fill="#C3F250"/>
<path d="M47.3833 160.492C48.7955 159.122 50.5857 158.446 52.5479 158.515C53.2177 158.539 53.2168 157.498 52.5479 157.474C50.323 157.396 48.244 158.207 46.6474 159.755C46.1653 160.223 46.9018 160.958 47.3833 160.492Z" fill="#C3F250"/>
<path d="M49.081 166.15C51.3941 166.15 53.7072 166.15 56.02 166.15C56.6899 166.15 56.6908 165.109 56.02 165.109C53.7069 165.109 51.3938 165.109 49.081 165.109C48.4111 165.109 48.4099 166.15 49.081 166.15Z" fill="#C3F250"/>
<path d="M51.1591 172.408C53.4722 172.408 55.7853 172.408 58.0981 172.408C58.768 172.408 58.7689 171.367 58.0981 171.367C55.785 171.367 53.4719 171.367 51.1591 171.367C50.4892 171.367 50.488 172.408 51.1591 172.408Z" fill="#C3F250"/>
<path d="M54.6319 177.95C56.5824 178.192 58.482 177.955 60.3142 177.244C60.9321 177.005 60.6633 175.998 60.0374 176.241C58.2862 176.92 56.4952 177.141 54.6316 176.91C53.9688 176.827 53.9746 177.869 54.6319 177.95Z" fill="#C3F250"/>
<path d="M45.2166 96.9343C45.4391 98.9546 46.9001 100.656 48.9189 101.057C49.573 101.187 49.853 100.184 49.1957 100.054C47.6664 99.7495 46.4312 98.51 46.2576 96.9346C46.1848 96.2756 45.1432 96.2681 45.2166 96.9343Z" fill="#C3F250"/>
<path d="M47.8301 92.0886C47.8264 94.642 48.8797 97.0012 50.8044 98.6841C51.3068 99.1232 52.0458 98.3901 51.5403 97.9482C49.8077 96.4334 48.8677 94.3953 48.8708 92.0889C48.872 91.4188 47.831 91.4179 47.8301 92.0886Z" fill="#C3F250"/>
<path d="M51.2973 90.1549C51.7634 92.0047 52.2292 93.8541 52.6954 95.7039C52.8588 96.3531 53.863 96.0781 53.6992 95.427C53.2331 93.5776 52.7672 91.7278 52.3011 89.8784C52.1377 89.2291 51.1335 89.5041 51.2973 90.1549Z" fill="#C3F250"/>
<path d="M73.541 88.6278C73.541 90.2472 73.541 91.8662 73.541 93.4852C73.541 94.155 74.5818 94.1559 74.5818 93.4852C74.5818 91.8662 74.5818 90.2468 74.5818 88.6278C74.5818 87.958 73.541 87.9568 73.541 88.6278Z" fill="#C3F250"/>
<path d="M79.1079 87.9243C79.1749 90.3707 78.4921 92.6018 77.0809 94.6015C76.6937 95.15 77.5961 95.6705 77.9796 95.127C79.4828 92.997 80.2202 90.5293 80.1486 87.9243C80.1305 87.2556 79.0894 87.2532 79.1079 87.9243Z" fill="#C3F250"/>
<path d="M80.502 94.1668C80.4995 95.83 80.0432 97.3532 79.1417 98.7509C78.7776 99.3154 79.6782 99.8381 80.0405 99.2764C81.0342 97.7357 81.5403 95.9996 81.543 94.1668C81.5439 93.4969 80.5032 93.496 80.502 94.1668Z" fill="#C3F250"/>
<path d="M87.1115 119.607C89.6984 119.961 92.1833 119.513 94.462 118.228C95.0455 117.899 94.5216 117 93.9366 117.329C91.9215 118.465 89.6849 118.918 87.3881 118.603C86.7333 118.514 86.4497 119.516 87.1115 119.607Z" fill="#C3F250"/>
<path d="M87.241 123.814C89.5541 123.814 91.8672 123.814 94.1801 123.814C94.8499 123.814 94.8508 122.773 94.1801 122.773C91.8669 122.773 89.5538 122.773 87.241 122.773C86.5712 122.774 86.5702 123.814 87.241 123.814Z" fill="#C3F250"/>
<path d="M85.5844 130.019C88.2795 131.332 91.0977 132.268 94.0478 132.806C94.7026 132.926 94.9838 131.923 94.3247 131.803C91.4634 131.281 88.7259 130.395 86.1099 129.12C85.5101 128.828 84.9816 129.725 85.5844 130.019Z" fill="#C3F250"/>
<path d="M84.2235 138.302C86.044 139.282 87.8646 140.263 89.6851 141.244C90.2748 141.561 90.8012 140.663 90.2106 140.345C88.39 139.364 86.5694 138.384 84.7489 137.403C84.1592 137.085 83.6329 137.984 84.2235 138.302Z" fill="#C3F250"/>
<path d="M82.0041 143.803C83.8477 145.543 86.041 146.748 88.5022 147.356C89.1524 147.517 89.4299 146.514 88.7791 146.352C86.4865 145.786 84.4589 144.688 82.7403 143.067C82.2533 142.608 81.5158 143.343 82.0041 143.803Z" fill="#C3F250"/>
<path d="M79.4634 148.825C81.7366 149.75 83.7575 151.097 85.5053 152.818C85.9831 153.288 86.7196 152.552 86.2412 152.082C84.3591 150.229 82.1855 148.816 79.74 147.821C79.1199 147.569 78.8501 148.576 79.4634 148.825Z" fill="#C3F250"/>
<path d="M76.5651 153.614C78.9873 154.714 81.0854 156.271 82.8362 158.275C83.2777 158.781 84.0114 158.042 83.5721 157.539C81.7681 155.474 79.5871 153.849 77.0905 152.716C76.4852 152.441 75.9555 153.338 76.5651 153.614Z" fill="#C3F250"/>
<path d="M75.8082 162.729C77.894 164.111 79.9797 165.492 82.0658 166.874C82.6259 167.245 83.1476 166.344 82.5912 165.975C80.5054 164.594 78.4197 163.212 76.3337 161.83C75.7735 161.459 75.2515 162.36 75.8082 162.729Z" fill="#C3F250"/>
<path d="M74.0553 168.911C75.9441 168.867 77.7026 169.313 79.3382 170.258C79.9193 170.594 80.4441 169.695 79.8636 169.359C78.079 168.328 76.1159 167.822 74.0553 167.87C73.3864 167.886 73.384 168.927 74.0553 168.911Z" fill="#C3F250"/>
<path d="M73.3602 174.494C75.2105 174.494 77.0612 174.494 78.9116 174.494C79.5814 174.494 79.5823 173.453 78.9116 173.453C77.0612 173.453 75.2105 173.453 73.3602 173.453C72.6903 173.453 72.6894 174.494 73.3602 174.494Z" fill="#C3F250"/>
<path d="M72.6728 180.728C74.5231 180.728 76.3735 180.728 78.2242 180.728C78.894 180.728 78.895 179.688 78.2242 179.688C76.3738 179.688 74.5231 179.688 72.6728 179.688C72.0029 179.688 72.0017 180.728 72.6728 180.728Z" fill="#C3F250"/>
<path d="M53.9564 187.347C54.9716 190.014 56.251 192.543 57.8144 194.931C58.1798 195.489 59.0816 194.968 58.7132 194.405C57.1996 192.093 55.9438 189.653 54.9599 187.07C54.7239 186.45 53.7173 186.719 53.9564 187.347Z" fill="#C3F250"/>
<path d="M49.4108 194.468C51.2824 196.763 53.154 199.059 55.0256 201.355C55.449 201.875 56.1815 201.134 55.7615 200.619C53.8899 198.323 52.0183 196.028 50.1467 193.732C49.7233 193.212 48.9908 193.952 49.4108 194.468Z" fill="#C3F250"/>
<path d="M41.2958 203.62C44.0913 204.726 46.8871 205.832 49.6826 206.939C50.3055 207.185 50.5759 206.179 49.9595 205.935C47.1636 204.829 44.3681 203.723 41.5726 202.617C40.9495 202.37 40.6791 203.376 41.2958 203.62Z" fill="#C3F250"/>
<path d="M40.5862 209.974C43.2091 210.616 45.5047 211.892 47.427 213.79C47.9042 214.261 48.6407 213.525 48.1632 213.054C46.1226 211.04 43.6482 209.652 40.8631 208.97C40.2123 208.811 39.9348 209.814 40.5862 209.974Z" fill="#C3F250"/>
<path d="M41.4478 217.527C43.5784 217.29 45.5864 217.72 47.4217 218.836C47.9957 219.186 48.5193 218.286 47.9472 217.938C45.9739 216.738 43.7456 216.231 41.4478 216.487C40.7893 216.56 40.7819 217.601 41.4478 217.527Z" fill="#C3F250"/>
<path d="M40.7512 224.471C43.064 224.278 45.32 224.488 47.5556 225.115C48.2015 225.296 48.4774 224.292 47.8325 224.111C45.5086 223.459 43.158 223.229 40.7515 223.43C40.0884 223.485 40.0826 224.527 40.7512 224.471Z" fill="#C3F250"/>
<path d="M41.4423 231.408C43.7554 231.408 46.0685 231.408 48.3816 231.408C49.0515 231.408 49.0524 230.367 48.3816 230.367C46.0685 230.367 43.7554 230.367 41.4423 230.367C40.7725 230.367 40.7712 231.408 41.4423 231.408Z" fill="#C3F250"/>
<path d="M41.4423 238.33C43.524 238.33 45.6058 238.33 47.6876 238.33C48.3574 238.33 48.3583 237.289 47.6876 237.289C45.6058 237.289 43.524 237.289 41.4423 237.289C40.7725 237.289 40.7712 238.33 41.4423 238.33Z" fill="#C3F250"/>
<path d="M41.0575 248.044C42.9539 247.19 44.9761 247.127 46.9398 247.791C47.5759 248.007 47.8487 247.002 47.2167 246.788C44.9746 246.029 42.6839 246.176 40.5324 247.146C39.9224 247.42 40.4509 248.317 41.0575 248.044Z" fill="#C3F250"/>
<path d="M42.4079 253.538C44.5289 252.595 46.7585 252.151 49.0777 252.174C49.7476 252.181 49.7482 251.14 49.0777 251.134C46.5686 251.109 44.1744 251.621 41.8824 252.639C41.2716 252.911 41.8007 253.808 42.4079 253.538Z" fill="#C3F250"/>
<path d="M45.2069 259.844C47.0963 258.948 49.1403 258.944 51.0617 259.739C51.6799 259.995 51.9497 258.989 51.3385 258.736C49.1501 257.83 46.8121 257.935 44.6815 258.945C44.0768 259.232 44.6044 260.129 45.2069 259.844Z" fill="#C3F250"/>
<path d="M44.562 269.598C46.7968 268.192 49.2617 267.615 51.8882 267.864C52.5547 267.928 52.5504 266.886 51.8882 266.823C49.1025 266.558 46.4038 267.209 44.0366 268.699C43.4709 269.055 43.9926 269.956 44.562 269.598Z" fill="#C3F250"/>
<path d="M47.1317 275.076C48.5193 274.844 49.9069 274.611 51.2945 274.379C51.9536 274.269 51.674 273.266 51.0177 273.376C49.6301 273.608 48.2424 273.841 46.8548 274.073C46.1957 274.183 46.4753 275.186 47.1317 275.076Z" fill="#C3F250"/>
<path d="M46.9863 281.261C49.0671 281.023 51.1482 280.784 53.2291 280.545C53.8869 280.469 53.8946 279.428 53.2291 279.504C51.1482 279.743 49.0671 279.981 46.9863 280.22C46.3287 280.296 46.321 281.338 46.9863 281.261Z" fill="#C3F250"/>
<path d="M78.0992 292.348C80.6499 292.773 83.2005 293.199 85.7509 293.625C86.406 293.734 86.6877 292.731 86.0277 292.621C83.4771 292.195 80.9264 291.77 78.3761 291.344C77.7207 291.235 77.4389 292.238 78.0992 292.348Z" fill="#C3F250"/>
<path d="M77.5295 290.349C80.1622 290.595 82.75 290.353 85.2936 289.635C85.9373 289.453 85.6638 288.449 85.0167 288.632C82.5564 289.326 80.0737 289.546 77.5292 289.308C76.863 289.245 76.8674 290.286 77.5295 290.349Z" fill="#C3F250"/>
<path d="M78.2203 281.368C80.7648 281.111 83.2518 281.313 85.7195 281.992C86.3663 282.17 86.6422 281.166 85.9964 280.988C83.4454 280.286 80.8539 280.061 78.2203 280.327C77.5603 280.394 77.5532 281.435 78.2203 281.368Z" fill="#C3F250"/>
<path d="M81.523 275.532C83.8862 276.547 86.3603 276.74 88.844 276.049C89.4883 275.869 89.2145 274.865 88.5671 275.045C86.3711 275.656 84.1495 275.535 82.0481 274.633C81.4394 274.372 80.9088 275.268 81.523 275.532Z" fill="#C3F250"/>
<path d="M82.149 269.432C84.5377 270.48 87.0733 270.609 89.5367 269.723C90.1623 269.498 89.8925 268.492 89.2598 268.719C87.0736 269.505 84.8112 269.471 82.6745 268.533C82.0667 268.267 81.5363 269.163 82.149 269.432Z" fill="#C3F250"/>
<path d="M83.7756 263.987C86.4092 264.24 89.0001 264.014 91.5523 263.321C92.1982 263.146 91.9241 262.141 91.2755 262.317C88.8075 262.987 86.3198 263.191 83.7753 262.946C83.1092 262.882 83.1135 263.923 83.7756 263.987Z" fill="#C3F250"/>
<path d="M85.1629 257.76C87.9384 257.76 90.7143 257.76 93.4899 257.76C94.1597 257.76 94.1606 256.719 93.4899 256.719C90.7143 256.719 87.9384 256.719 85.1629 256.719C84.493 256.719 84.4921 257.76 85.1629 257.76Z" fill="#C3F250"/>
<path d="M87.1549 253.43C89.7022 254.209 92.3699 253.82 94.5813 252.332C95.1344 251.96 94.6139 251.058 94.0559 251.433C92.0568 252.778 89.7387 253.132 87.4315 252.426C86.7896 252.23 86.5152 253.234 87.1549 253.43Z" fill="#C3F250"/>
<path d="M87.3795 246.634C89.6927 245.94 92.0055 245.246 94.3186 244.552C94.9586 244.36 94.6858 243.355 94.0417 243.548C91.7286 244.242 89.4158 244.936 87.1027 245.63C86.463 245.823 86.7355 246.827 87.3795 246.634Z" fill="#C3F250"/>
<path d="M90.8409 238.951C91.9969 238.717 93.1532 238.484 94.3091 238.25C94.9651 238.117 94.6873 237.114 94.0322 237.246C92.8763 237.48 91.72 237.714 90.5641 237.948C89.9081 238.08 90.1858 239.084 90.8409 238.951Z" fill="#C3F250"/>
<path d="M91.4059 232.073C94.053 232.338 96.5327 231.162 98.0875 229.025C98.482 228.482 97.5796 227.962 97.1887 228.499C95.8401 230.353 93.6683 231.258 91.4056 231.032C90.7401 230.965 90.7447 232.007 91.4059 232.073Z" fill="#C3F250"/>
<path d="M92.6563 224.404C94.943 224.74 97.1799 223.959 98.6784 222.175C99.1068 221.666 98.3742 220.926 97.9425 221.439C96.6993 222.919 94.8643 223.684 92.9331 223.4C92.2777 223.304 91.995 224.307 92.6563 224.404Z" fill="#C3F250"/>
<path d="M91.1873 218.05C93.3444 219.011 95.628 219.171 97.8855 218.456C98.5219 218.254 98.2499 217.249 97.6087 217.453C95.6323 218.078 93.6135 217.998 91.7128 217.152C91.1059 216.882 90.5759 217.778 91.1873 218.05Z" fill="#C3F250"/>
<path d="M90.0239 212.638C92.1056 212.869 94.1877 213.1 96.2694 213.33C96.9343 213.404 96.9288 212.363 96.2694 212.29C94.1877 212.059 92.1059 211.828 90.0239 211.597C89.3592 211.524 89.3645 212.565 90.0239 212.638Z" fill="#C3F250"/>
<path d="M96.0495 200.72C97.4303 201.7 98.1158 203.388 97.8101 205.052C97.6897 205.707 98.6926 205.988 98.814 205.329C99.21 203.174 98.362 201.089 96.5752 199.822C96.0273 199.433 95.5071 200.336 96.0495 200.72Z" fill="#C3F250"/>
<path d="M100.558 197.715C100.847 199.324 101.134 200.933 101.423 202.542C101.541 203.2 102.544 202.921 102.426 202.265C102.138 200.656 101.85 199.047 101.562 197.438C101.444 196.78 100.441 197.059 100.558 197.715Z" fill="#C3F250"/>
<path d="M102.928 196.634C104.195 197.599 105.071 198.938 105.495 200.467C105.674 201.112 106.679 200.838 106.499 200.191C105.996 198.379 104.944 196.871 103.454 195.735C102.921 195.33 102.402 196.233 102.928 196.634Z" fill="#C3F250"/>
<path d="M104.848 195.234C107.268 193.781 110.656 195.055 111.484 197.767C111.679 198.405 112.684 198.133 112.488 197.49C111.467 194.146 107.331 192.529 104.323 194.335C103.749 194.679 104.272 195.58 104.848 195.234Z" fill="#C3F250"/>
<path d="M112.599 188.864C114.421 191.062 116.471 193.017 118.734 194.757C119.264 195.165 119.783 194.261 119.259 193.858C117.07 192.175 115.096 190.253 113.335 188.128C112.907 187.612 112.174 188.352 112.599 188.864Z" fill="#C3F250"/>
<path d="M117.488 186.952C118.874 187.65 120.259 188.349 121.645 189.047C122.241 189.348 122.769 188.451 122.17 188.149C120.785 187.45 119.399 186.751 118.014 186.053C117.417 185.752 116.889 186.65 117.488 186.952Z" fill="#C3F250"/>
<path d="M119.218 185.324C121.407 184.647 123.645 184.786 125.715 185.775C126.317 186.063 126.845 185.166 126.241 184.876C123.918 183.766 121.405 183.558 118.941 184.321C118.303 184.518 118.576 185.523 119.218 185.324Z" fill="#C3F250"/>
<path d="M121.161 179.183C123.478 179.951 125.96 179.563 127.919 178.101C128.45 177.705 127.931 176.801 127.394 177.202C125.634 178.516 123.527 178.872 121.438 178.179C120.8 177.968 120.527 178.973 121.161 179.183Z" fill="#C3F250"/>
<path d="M124.073 174.278C125.578 173.677 127.133 173.508 128.726 173.826C129.38 173.957 129.66 172.954 129.003 172.823C127.235 172.469 125.474 172.604 123.797 173.274C123.182 173.52 123.451 174.527 124.073 174.278Z" fill="#C3F250"/>
<path d="M124.29 164.709C125.526 164.138 126.837 163.951 128.186 164.095C128.851 164.166 128.846 163.125 128.186 163.055C126.647 162.89 125.166 163.163 123.765 163.81C123.158 164.091 123.686 164.988 124.29 164.709Z" fill="#C3F250"/>
<path d="M121.55 161.296C123.109 160.13 124.329 158.65 125.122 156.867C125.391 156.26 124.495 155.73 124.223 156.342C123.507 157.951 122.439 159.339 121.025 160.397C120.494 160.793 121.013 161.697 121.55 161.296Z" fill="#C3F250"/>
<path d="M116.857 158.144C117.781 155.639 118.267 153.053 118.332 150.385C118.348 149.715 117.307 149.715 117.291 150.385C117.228 152.967 116.746 155.446 115.853 157.867C115.621 158.497 116.626 158.768 116.857 158.144Z" fill="#C3F250"/>
<path d="M110.3 148.829C109.863 151.147 109.426 153.465 108.989 155.782C108.866 156.437 109.868 156.718 109.993 156.059C110.43 153.741 110.867 151.424 111.304 149.106C111.428 148.451 110.425 148.17 110.3 148.829Z" fill="#C3F250"/>
<path d="M102.07 151.327C103.016 153.167 103.961 155.007 104.906 156.847C105.212 157.443 106.111 156.917 105.805 156.321C104.86 154.481 103.914 152.641 102.969 150.801C102.663 150.205 101.764 150.731 102.07 151.327Z" fill="#C3F250"/>
<path d="M95.1675 156.156C96.585 158.345 98.5097 160.091 100.841 161.263C101.438 161.563 101.966 160.666 101.367 160.364C99.1919 159.271 97.3906 157.676 96.0666 155.631C95.7034 155.071 94.8022 155.592 95.1675 156.156Z" fill="#C3F250"/>
<path d="M91.0835 162.725C92.921 163.902 94.7584 165.079 96.5959 166.256C97.1616 166.618 97.6842 165.718 97.1213 165.357C95.2839 164.18 93.4464 163.003 91.6089 161.827C91.0432 161.464 90.5206 162.365 91.0835 162.725Z" fill="#C3F250"/>
<path d="M89.1371 167.351C90.7545 168.399 92.0527 169.793 92.997 171.472C93.3255 172.056 94.2248 171.532 93.8957 170.947C92.8645 169.114 91.4268 167.595 89.6625 166.453C89.0983 166.088 88.576 166.988 89.1371 167.351Z" fill="#C3F250"/>
<path d="M86.9734 172.141C88.35 173.311 89.7265 174.481 91.1031 175.65C91.6107 176.082 92.3506 175.349 91.839 174.914C90.4624 173.745 89.0859 172.575 87.7093 171.405C87.2017 170.973 86.4618 171.706 86.9734 172.141Z" fill="#C3F250"/>
<path d="M83.988 177.709C85.1897 179.832 86.9322 181.548 89.0748 182.714C89.6635 183.034 90.1892 182.136 89.6002 181.815C87.6054 180.73 86.0058 179.161 84.8867 177.184C84.5564 176.601 83.657 177.125 83.988 177.709Z" fill="#C3F250"/>
<path d="M55.583 86.9771C57.0475 86.3444 58.5964 86.1647 60.1724 86.3721C60.8345 86.4591 60.8281 85.4174 60.1724 85.3314C58.4007 85.0982 56.6932 85.372 55.0576 86.0784C54.4446 86.3432 54.974 87.2401 55.583 86.9771Z" fill="#C3F250"/>
<path d="M54.4891 80.1233C55.8718 80.382 57.2545 80.6411 58.6372 80.8998C59.292 81.0224 59.5725 80.0195 58.9141 79.8963C57.5314 79.6372 56.1487 79.3785 54.7659 79.1198C54.1109 78.9969 53.8303 79.9998 54.4891 80.1233Z" fill="#C3F250"/>
<path d="M51.9442 73.5658C53.8197 73.2537 55.6953 72.9415 57.5706 72.6293C58.23 72.5196 57.95 71.5164 57.2937 71.6255C55.4182 71.9376 53.5426 72.2498 51.6673 72.562C51.0082 72.672 51.2878 73.6752 51.9442 73.5658Z" fill="#C3F250"/>
<path d="M49.1497 68.7963C50.8053 68.2045 52.4608 67.6127 54.1167 67.0209C54.7429 66.7969 54.4728 65.7909 53.8399 66.0174C52.1843 66.6092 50.5287 67.2009 48.8728 67.7927C48.2469 68.0164 48.5167 69.0227 49.1497 68.7963Z" fill="#C3F250"/>
<path d="M46.4896 62.9174C48.3332 62.4292 50.1771 61.9412 52.0207 61.453C52.6678 61.2818 52.3931 60.2774 51.7438 60.4494C49.9002 60.9377 48.0566 61.4256 46.2127 61.9139C45.5659 62.085 45.8403 63.0892 46.4896 62.9174Z" fill="#C3F250"/>
<path d="M43.3991 55.7442C45.3938 56.1156 47.3684 55.9531 49.2593 55.2064C49.875 54.9634 49.6068 53.9562 48.9824 54.2026C47.2688 54.8792 45.4912 55.0783 43.6756 54.7403C43.0211 54.6186 42.7406 55.6216 43.3991 55.7442Z" fill="#C3F250"/>
<path d="M39.2727 49.4087C41.8218 50.1794 44.4852 49.79 46.6997 48.3081C47.2537 47.9372 46.7331 47.0354 46.1742 47.4093C44.1733 48.7484 41.8571 49.1027 39.5492 48.4052C38.9067 48.211 38.632 49.2152 39.2727 49.4087Z" fill="#C3F250"/>
<path d="M38.6709 41.2618C40.9843 41.0651 43.2399 41.2744 45.4753 41.9046C46.1212 42.0868 46.3968 41.0826 45.7522 40.901C43.4286 40.2456 41.0777 40.0161 38.6712 40.2211C38.0084 40.2773 38.0026 41.3186 38.6709 41.2618Z" fill="#C3F250"/>
<path d="M37.7323 35.6113C39.2004 36.7356 40.9903 37.2558 42.8324 37.1068C43.4954 37.053 43.5013 36.0117 42.8324 36.0658C41.1427 36.2025 39.6026 35.7422 38.2577 34.7123C37.7261 34.3055 37.2072 35.2091 37.7323 35.6113Z" fill="#C3F250"/>
<path d="M36.2553 27.1998C37.5993 28.706 39.3249 29.7464 41.2813 30.2408C41.9308 30.4049 42.208 29.4014 41.5581 29.2373C39.7637 28.7838 38.2227 27.8442 36.9912 26.4639C36.5444 25.9631 35.8103 26.7011 36.2553 27.1998Z" fill="#C3F250"/>
<path d="M36.3667 20.2992C38.1851 21.504 40.0035 22.7088 41.8222 23.9136C42.3824 24.2848 42.9041 23.3835 42.3477 23.0148C40.5293 21.81 38.7108 20.6052 36.8921 19.4004C36.332 19.0292 35.8102 19.9305 36.3667 20.2992Z" fill="#C3F250"/>
<path d="M36.9135 16.8298C38.6458 18.8578 40.8529 20.3081 43.3901 21.1248C44.0292 21.3307 44.303 20.3259 43.6669 20.121C41.2948 19.3574 39.2665 17.9867 37.6497 16.0936C37.2137 15.5838 36.4802 16.3228 36.9135 16.8298Z" fill="#C3F250"/>
<path d="M41.0346 10.6179C43.1047 12.4892 45.7724 13.2392 48.516 12.7448C49.1742 12.6262 48.8952 11.623 48.2392 11.7413C45.8793 12.1666 43.5478 11.4884 41.7706 9.882C41.2749 9.4337 40.5366 10.1678 41.0346 10.6179Z" fill="#C3F250"/>
<path d="M43.7881 6.98922C44.8313 8.80733 46.3116 10.293 48.1248 11.3438C48.7056 11.6803 49.2301 10.7812 48.6503 10.4451C46.9846 9.47994 45.6449 8.1335 44.6868 6.4638C44.3534 5.88307 43.4538 6.40664 43.7881 6.98922Z" fill="#C3F250"/>
<path d="M52.0273 2.56534C52.0273 4.64709 52.0273 6.72884 52.0273 8.81058C52.0273 9.48043 53.0684 9.48135 53.0684 8.81058C53.0684 6.72884 53.0684 4.64709 53.0684 2.56534C53.068 1.8955 52.0273 1.89427 52.0273 2.56534Z" fill="#C3F250"/>
<path d="M58.3612 0.495473C58.1012 2.63529 57.3693 4.61964 56.2161 6.43805C55.8563 7.00558 56.7566 7.52823 57.1149 6.96347C58.3716 4.98159 59.1192 2.82303 59.4022 0.495473C59.4827 -0.16792 58.4411 -0.162389 58.3612 0.495473Z" fill="#C3F250"/>
<path d="M63.1289 1.18242C63.1289 2.57035 63.1289 3.95797 63.1289 5.3459C63.1289 6.01575 64.17 6.01667 64.17 5.3459C64.17 3.95797 64.17 2.57035 64.17 1.18242C64.17 0.512572 63.1289 0.51165 63.1289 1.18242Z" fill="#C3F250"/>
<path d="M66.7934 9.18553C68.1813 7.7976 69.5689 6.40998 70.9569 5.02205C71.431 4.54763 70.6954 3.8114 70.221 4.28613C68.8331 5.67407 67.4454 7.06169 66.0575 8.44962C65.5831 8.92373 66.319 9.65996 66.7934 9.18553Z" fill="#C3F250"/>
<path d="M70.9094 11.4185C72.0263 10.6657 73.1433 9.9129 74.2602 9.1604C74.8127 8.78799 74.2925 7.88586 73.7348 8.26164C72.6178 9.01445 71.5009 9.76726 70.384 10.5198C69.8315 10.8922 70.3517 11.7943 70.9094 11.4185Z" fill="#C3F250"/>
<path d="M71.9772 16.2676C74.059 16.2676 76.1407 16.2676 78.2224 16.2676C78.8923 16.2676 78.8932 15.2266 78.2224 15.2266C76.1407 15.2266 74.059 15.2266 71.9772 15.2266C71.3077 15.2269 71.3065 16.2676 71.9772 16.2676Z" fill="#C3F250"/>
<path d="M73.3602 23.2051C75.2105 23.2051 77.0612 23.2051 78.9116 23.2051C79.5814 23.2051 79.5823 22.1641 78.9116 22.1641C77.0612 22.1641 75.2105 22.1641 73.3602 22.1641C72.6903 22.1641 72.6894 23.2051 73.3602 23.2051Z" fill="#C3F250"/>
<path d="M74.341 30.1041C75.748 29.2486 77.2681 28.7776 78.9138 28.7057C79.5812 28.6765 79.5846 27.6355 78.9138 27.6647C77.0905 27.7442 75.3756 28.2565 73.8156 29.205C73.2441 29.5528 73.7664 30.4531 74.341 30.1041Z" fill="#C3F250"/>
<path d="M73.6553 37.0757C75.5297 36.2015 77.4037 35.327 79.278 34.4528C79.8846 34.1698 79.3567 33.2723 78.7526 33.5541C76.8783 34.4282 75.0042 35.3027 73.1299 36.1769C72.5234 36.4596 73.0512 37.3571 73.6553 37.0757Z" fill="#C3F250"/>
<path d="M74.0588 40.5799C75.5404 40.6266 76.9723 40.3765 78.3461 39.8176C78.9585 39.5684 78.6906 38.5612 78.0693 38.8137C76.7772 39.3395 75.4535 39.5831 74.0588 39.5389C73.3889 39.518 73.3896 40.559 74.0588 40.5799Z" fill="#C3F250"/>
<path d="M72.6728 46.1113C74.5231 46.1113 76.3735 46.1113 78.2242 46.1113C78.894 46.1113 78.895 45.0703 78.2242 45.0703C76.3738 45.0703 74.5231 45.0703 72.6728 45.0703C72.0029 45.0706 72.0017 46.1113 72.6728 46.1113Z" fill="#C3F250"/>
<path d="M70.9873 50.2653C72.861 51.1408 74.7347 52.0165 76.6085 52.8919C77.2116 53.1737 77.7407 52.2767 77.1339 51.9931C75.2602 51.1177 73.3865 50.242 71.5127 49.3666C70.9096 49.0848 70.3804 49.9817 70.9873 50.2653Z" fill="#C3F250"/>
<path d="M69.2026 57.8723C71.1412 58.0702 72.9034 58.7815 74.4695 59.9344C75.0094 60.332 75.5293 59.429 74.9949 59.0357C73.2736 57.7682 71.3255 57.0479 69.2026 56.8313C68.5368 56.7634 68.5417 57.8047 69.2026 57.8723Z" fill="#C3F250"/>
<path d="M69.7991 63.3006C71.4147 63.775 73.0303 64.2498 74.6459 64.7242C75.29 64.9135 75.565 63.9093 74.9228 63.7207C73.3072 63.2462 71.6915 62.7715 70.0759 62.2971C69.4319 62.1078 69.1569 63.1119 69.7991 63.3006Z" fill="#C3F250"/>
<path d="M68.6574 69.748C70.9272 69.4087 73.1552 69.6002 75.346 70.2792C75.9873 70.478 76.2614 69.4736 75.6228 69.2757C73.2446 68.5382 70.8418 68.3766 68.3808 68.7444C67.7205 68.8431 68.0011 69.846 68.6574 69.748Z" fill="#C3F250"/>
<path d="M69.204 76.6504C70.5919 76.6504 71.9796 76.6504 73.3675 76.6504C74.0374 76.6504 74.0383 75.6094 73.3675 75.6094C71.9796 75.6094 70.5919 75.6094 69.204 75.6094C68.5342 75.6097 68.5329 76.6504 69.204 76.6504Z" fill="#C3F250"/>
<path d="M68.0816 83.5215C69.3175 82.9506 70.6283 82.7637 71.9772 82.9078C72.6424 82.9788 72.6375 81.9375 71.9772 81.8671C70.4381 81.7027 68.9577 81.9753 67.5562 82.623C66.9488 82.9035 67.4769 83.8008 68.0816 83.5215Z" fill="#C3F250"/>
<path d="M67.9579 87.7705C68.8831 87.5391 69.8083 87.3077 70.7335 87.0763C71.3831 86.9138 71.1077 85.9096 70.4566 86.0725C69.5315 86.3039 68.6063 86.5352 67.6811 86.7666C67.0318 86.9292 67.3068 87.933 67.9579 87.7705Z" fill="#C3F250"/>
<path d="M61.0293 101.947C61.0293 101.947 60.4369 80.6477 52.7373 66.6931C45.0378 52.7385 33.7844 24.8293 47.4068 10.14C61.0293 -4.54899 77.0205 9.40562 76.4284 32.1736C75.8363 54.9416 69.9134 74.0374 69.3212 82.8511C68.7291 91.6648 71.6903 103.416 71.6903 103.416L61.0293 101.947Z" fill="#8FCB3A"/>
<path d="M45.6059 33.0908C45.6059 33.0908 44.9121 11.5792 58.0964 8.80368C71.281 6.02812 71.9748 28.9273 71.9748 28.9273C71.9748 28.9273 67.8113 14.3551 59.4843 15.0489C51.1573 15.7427 45.6059 33.0908 45.6059 33.0908Z" fill="#C3F250"/>
<path d="M79.0703 109.82C79.0703 109.82 89.3457 91.0911 88.351 76.9454C87.3564 62.7997 90.1486 39.3748 104.024 39.9235C117.9 40.4723 121.231 71.004 108.254 89.9026C95.2772 108.801 81.1508 114.856 81.1508 114.856L79.0703 109.82Z" fill="#8FCB3A"/>
<path d="M92.1044 77.5036C92.1044 77.5036 89.3285 35.1743 109.452 47.6651C109.452 47.6651 95.5738 42.8075 92.1044 77.5036Z" fill="#C3F250"/>
<path d="M48.8663 119.775C48.8663 119.775 43.0316 114.513 38.2579 96.0955C33.4838 77.6782 29.2404 56.6297 11.7363 66.4961C-5.76791 76.3625 13.3276 108.593 24.997 115.171C36.6665 121.748 45.6839 130.299 45.6839 130.299L48.8663 119.775Z" fill="#8FCB3A"/>
<path d="M8.12518 84.4991C8.12518 84.4991 5.51217 67.203 20.5376 68.5866C32.3244 69.6722 30.99 94.8768 30.99 94.8768C30.99 94.8768 26.3275 75.2037 20.5376 74.1215C9.43199 72.0459 8.12518 84.4991 8.12518 84.4991Z" fill="#C3F250"/>
<path d="M62.8862 189.229C62.8862 189.229 55.6696 168.349 49.0548 153.435C42.4399 138.52 33.4194 100.488 59.8795 92.2847C86.3396 84.0816 89.3466 120.623 88.7452 129.571C88.1439 138.52 77.3192 163.875 75.5152 173.569C73.7112 183.264 75.5152 191.467 75.5152 191.467L62.8862 189.229Z" fill="#8FCB3A"/>
<path d="M45.6798 130.304C45.6798 130.304 44.2181 99.0251 64.342 96.9434C84.4656 94.8617 83.7718 126.088 83.7718 126.088C83.7718 126.088 78.2204 102.495 65.0358 103.883C51.8513 105.271 45.6798 130.304 45.6798 130.304Z" fill="#C3F250"/>
<path d="M57.2176 298.802C53.2763 290.356 38.1679 229.827 46.7075 207.305C55.2471 184.782 71.6435 184.13 80.2087 188.301C93.4885 194.769 94.0032 215.75 92.6896 230.531C91.3757 245.311 78.7341 297.928 76.1063 298.632C73.4786 299.336 57.2176 298.802 57.2176 298.802Z" fill="#8FCB3A"/>
<path d="M83.9648 203.439C84.3044 201.56 89.1801 168.719 100.646 158.095C112.112 147.472 128.21 155.235 124.814 174.02C121.419 192.805 106.314 197.156 98.1124 201.453C89.9111 205.749 85.4621 215.692 85.4621 215.692L83.9648 203.439Z" fill="#8FCB3A"/>
<path d="M47.6877 223.931C47.6877 223.931 46.9939 192.705 70.5872 192.011C94.1805 191.317 89.3232 224.625 89.3232 224.625C89.3232 224.625 84.4659 201.032 69.8934 199.644C55.3208 198.256 47.6877 223.931 47.6877 223.931Z" fill="#C3F250"/>
<path d="M92.7969 182.992C92.7969 182.992 96.2665 163.562 108.063 159.399C119.86 155.235 120.554 168.42 120.554 168.42C120.554 168.42 115.697 161.481 108.063 164.256C100.43 167.032 92.7969 182.992 92.7969 182.992Z" fill="#C3F250"/>
<path d="M47.8196 34.4873C47.8599 35.1218 47.8998 35.7563 47.9401 36.3908C47.9554 36.6327 48.0931 36.8155 48.3223 36.8926C49.5428 37.3031 50.9599 36.3054 50.9037 34.9955C50.8499 33.7468 49.4162 32.8606 48.2695 33.3028C47.6509 33.5412 47.9198 34.5482 48.5463 34.3063C49.0674 34.1054 49.7895 34.3856 49.8611 35.0038C49.9382 35.6678 49.1544 36.0756 48.5992 35.8888C48.7264 36.0559 48.8539 36.2234 48.9811 36.3905C48.9408 35.756 48.9009 35.1215 48.8606 34.487C48.8182 33.8221 47.7772 33.8172 47.8196 34.4873Z" fill="#C3F250"/>
<path d="M56.2749 21.873C55.9387 22.8194 56.2211 23.8945 56.9755 24.5564C57.1091 24.6737 57.3024 24.7545 57.4819 24.69C58.2703 24.407 58.9472 23.8158 59.2256 23.0089C59.4739 22.2893 59.2996 21.3503 58.5794 20.9718C57.3611 20.3317 55.5565 21.7455 56.5379 22.9939C56.9515 23.5203 57.6837 22.7791 57.2738 22.258C57.1343 22.0804 57.9495 21.7529 58.1575 21.936C58.4212 22.168 58.2783 22.6449 58.1397 22.8962C57.9388 23.2612 57.5962 23.5461 57.2053 23.6865C57.374 23.731 57.543 23.7756 57.7117 23.8205C57.2127 23.3829 57.0572 22.7736 57.2787 22.1498C57.5034 21.5175 56.4979 21.2452 56.2749 21.873Z" fill="#C3F250"/>
<path d="M63.0852 34.4828C63.1252 35.118 63.1654 35.7531 63.2054 36.3882C63.221 36.6343 63.359 36.8076 63.5876 36.89C64.7823 37.3208 66.2154 36.355 66.2046 35.0654C66.1939 33.7807 64.7159 32.8402 63.5424 33.3106C62.9282 33.5567 63.1964 34.564 63.8193 34.3145C64.3539 34.1003 65.1455 34.4063 65.1639 35.0654C65.1823 35.7181 64.4096 36.0828 63.8645 35.8861C63.9917 36.0533 64.1192 36.2208 64.2464 36.3879C64.2064 35.7528 64.1662 35.1177 64.1262 34.4825C64.0841 33.8176 63.0431 33.813 63.0852 34.4828Z" fill="#C3F250"/>
<path d="M52.7783 49.6339C52.487 50.6734 53.1179 51.8033 54.1349 52.1545C55.1228 52.4955 56.1008 51.944 56.4849 51.0083C56.8192 50.1935 56.6717 49.0452 55.7935 48.6412C54.8776 48.2196 53.8018 48.7352 53.47 49.6545C53.2423 50.2857 54.2477 50.5576 54.4735 49.9314C54.5906 49.6072 55.1102 49.3992 55.4079 49.6097C55.7296 49.8373 55.631 50.4156 55.4829 50.7103C54.9541 51.7633 53.4985 50.9214 53.7819 49.9108C53.9631 49.2646 52.959 48.9887 52.7783 49.6339Z" fill="#C3F250"/>
<path d="M61.8207 57.2827C61.6975 58.0035 62.0601 58.6156 62.7198 58.9208C63.3346 59.2053 64.1679 59.2077 64.6648 58.6884C64.9662 58.3732 65.0928 57.9888 64.8267 57.6112C64.6024 57.2928 64.2512 57.0827 63.8717 57.0068C63.0424 56.8405 62.2454 57.2311 61.927 58.0155C61.6754 58.6359 62.682 58.906 62.9306 58.2924C63.1036 57.8659 63.8312 57.9439 64.0244 58.2908C64.0069 58.1572 63.9894 58.0235 63.9719 57.8899C63.8035 58.3102 62.7477 58.0057 62.8242 57.5595C62.9364 56.9041 61.9335 56.6227 61.8207 57.2827Z" fill="#C3F250"/>
<path d="M61.1364 71.8635C60.7422 72.8812 61.145 73.9714 61.9937 74.6074C62.1464 74.7217 62.363 74.6827 62.5191 74.6074C63.8262 73.9766 63.8474 71.995 62.6568 71.2465C62.088 70.8889 61.5651 71.7891 62.1314 72.1453C62.7063 72.5069 62.5664 73.4324 61.994 73.7086C62.1691 73.7086 62.3443 73.7086 62.5194 73.7086C62.0241 73.3375 61.9286 72.6882 62.1406 72.1403C62.3824 71.5154 61.3764 71.2443 61.1364 71.8635Z" fill="#C3F250"/>
<path d="M104.168 57.1617C103.569 56.6332 102.579 56.7625 102.158 57.4643C101.712 58.2073 102.259 59.1134 103.051 59.2898C103.495 59.3887 103.94 59.2557 104.187 58.8664C104.407 58.521 104.579 58.1019 104.581 57.6874C104.587 56.8857 103.751 56.1572 103.048 56.7828C102.808 56.9966 102.642 57.3273 102.653 57.652C102.67 58.159 103.112 58.3477 103.552 58.2875C103.83 58.2494 103.983 57.8923 103.915 57.6471C103.833 57.3466 103.555 57.2455 103.275 57.2836C103.489 57.2461 103.628 57.3629 103.692 57.6342C103.693 57.5774 103.692 57.5832 103.687 57.6517C103.711 57.6462 103.674 57.6269 103.735 57.5596C103.699 57.5995 103.739 57.5408 103.757 57.5482C103.746 57.5436 103.52 57.5679 103.526 57.5583C103.501 57.597 103.528 57.8023 103.51 57.8733C103.457 58.0828 103.34 58.2697 103.219 58.4463C103.282 58.384 103.344 58.3219 103.406 58.2595C103.29 58.3222 103.031 58.2079 103.033 58.0524C103.035 57.8905 103.347 57.8213 103.433 57.8976C103.933 58.3391 104.672 57.6057 104.168 57.1617Z" fill="#C3F250"/>
<path d="M100.409 70.7788C99.3951 70.6722 98.4951 71.5651 98.5535 72.5729C98.5664 72.7942 98.7053 73.0225 98.9354 73.0747C100.161 73.3534 101.619 72.7705 102.116 71.5547C102.346 70.9924 102.085 70.3981 101.625 70.0319C101.127 69.6346 100.534 69.5835 99.9583 69.8278C99.3438 70.0887 99.8735 70.9856 100.484 70.7266C100.682 70.6424 100.949 70.7748 101.072 70.9312C101.27 71.1822 101.017 71.4204 100.829 71.6054C100.405 72.0223 99.7902 72.2024 99.2116 72.0712C99.3391 72.2383 99.4664 72.4058 99.5939 72.5729C99.5656 72.0865 99.9377 71.7701 100.408 71.8195C101.074 71.8896 101.069 70.8482 100.409 70.7788Z" fill="#C3F250"/>
<path d="M107.503 67.6333C107.264 68.4958 107.024 69.3586 106.785 70.2211C106.717 70.4666 106.838 70.666 107.024 70.8089C108.136 71.661 109.971 70.6089 109.803 69.2203C109.775 68.9877 109.661 68.7858 109.421 68.7185C108.205 68.3772 106.984 69.3005 106.932 70.5483C106.904 71.2182 107.945 71.217 107.973 70.5483C107.997 69.967 108.598 69.5688 109.144 69.7221C109.017 69.555 108.89 69.3875 108.762 69.2203C108.841 69.8702 108.067 70.3068 107.549 69.9101C107.629 70.1062 107.709 70.3019 107.788 70.4979C108.027 69.6354 108.267 68.7726 108.506 67.9101C108.686 67.2636 107.682 66.9877 107.503 67.6333Z" fill="#C3F250"/>
<path d="M96.9904 89.2971C95.0764 89.1668 94.8171 92.0668 96.4715 92.6937C97.3696 93.0341 98.445 92.7146 99.1204 92.0595C100.007 91.1994 100.223 89.9135 100.326 88.7382C100.347 88.4927 100.145 88.3178 99.9436 88.2364C98.7591 87.758 97.4793 88.0275 96.5228 88.8479C96.0136 89.2845 96.7526 90.018 97.2587 89.5838C97.9513 88.9898 98.8377 88.905 99.6668 89.24C99.5392 89.0728 99.412 88.9054 99.2845 88.7382C99.1828 89.9034 98.89 91.5187 97.5057 91.7648C97.0341 91.8487 96.4383 91.7092 96.3796 91.1518C96.3381 90.7551 96.5566 90.3083 96.9901 90.3378C97.659 90.3833 97.6563 89.3423 96.9904 89.2971Z" fill="#C3F250"/>
<path d="M16.1011 83.506C15.7078 84.4124 15.8489 85.5929 16.7123 86.1986C17.3794 86.6665 18.177 85.8683 18.378 85.2488C18.8146 83.9018 17.8528 82.1448 16.3085 82.4388C15.6513 82.5642 15.9297 83.5674 16.5854 83.4427C17.4549 83.2771 17.823 85.1102 16.9421 85.329C17.1108 85.3736 17.2798 85.4181 17.4485 85.463C17.0128 85.1259 16.7663 84.57 17.0002 84.0317C17.2638 83.423 16.3675 82.8924 16.1011 83.506Z" fill="#C3F250"/>
<path d="M17.7009 95.3605C16.4454 96.9626 18.2893 99.3571 20.159 98.5644C20.3188 98.4965 20.4205 98.2792 20.4168 98.1149C20.3923 97.0499 20.368 95.9849 20.3434 94.9196C20.3385 94.7026 20.1864 94.4645 19.9612 94.4178C18.4522 94.1035 17.3608 95.979 18.3486 97.146C18.7819 97.6582 19.515 96.9187 19.0845 96.4101C18.7779 96.0479 19.2308 95.327 19.6846 95.4213C19.5571 95.2542 19.4299 95.0867 19.3024 94.9196C19.327 95.9846 19.3512 97.0496 19.3758 98.1149C19.4619 97.9652 19.5476 97.8153 19.6336 97.6653C18.879 97.9852 17.9335 96.7383 18.4368 96.0964C18.8455 95.5753 18.1139 94.8335 17.7009 95.3605Z" fill="#C3F250"/>
<path d="M28.2498 100.382C28.2729 101.124 29.0712 101.444 29.6971 101.155C30.527 100.771 30.3602 99.7784 30.0391 99.0996C29.7002 98.3828 28.7341 98.3883 28.106 98.702C27.4749 99.0173 27.0029 99.6948 27.0881 100.417C27.1655 101.074 28.2074 101.082 28.1288 100.417C28.0744 99.9569 28.4609 99.524 28.9403 99.5359C29.0146 99.5378 29.16 99.6072 29.1102 99.5617C29.1962 99.6404 29.294 99.9624 29.2798 100.078C29.286 100.028 29.2168 100.274 29.2196 100.225C29.2091 100.223 29.1987 100.223 29.1882 100.223C29.1197 100.204 29.1538 100.257 29.2906 100.382C29.27 99.7142 28.229 99.7114 28.2498 100.382Z" fill="#C3F250"/>
<path d="M27.6844 109.927C28.4221 110.668 29.5983 109.793 29.4718 108.875C29.3203 107.777 27.8663 107.667 27.1236 108.204C26.8962 108.369 26.7853 108.657 26.9368 108.916C27.068 109.141 27.4198 109.268 27.6487 109.103C27.8583 108.951 28.2427 108.792 28.4489 109.029C28.451 109.032 28.4504 108.944 28.4452 109.012C28.4427 109.043 28.4252 109.073 28.4015 109.102C28.3708 109.139 28.3118 109.187 28.3032 109.179C28.3137 109.189 28.3963 109.167 28.4206 109.192C27.9471 108.716 27.2109 109.452 27.6844 109.927Z" fill="#C3F250"/>
<path d="M55.3684 125.909C55.1607 125.21 54.3483 125.056 53.7721 125.422C52.9443 125.949 53.2968 127.009 53.6664 127.703C53.7522 127.865 53.9378 127.959 54.1157 127.961C54.8983 127.97 55.7749 127.742 56.3123 127.137C56.7532 126.641 56.9302 125.806 56.4131 125.298C55.6105 124.509 53.6219 125.08 54.3114 126.377C54.6257 126.969 55.5245 126.444 55.2102 125.852C55.2034 125.839 55.1902 126.011 55.1524 126.011C55.1662 126.011 55.2959 125.967 55.3475 125.964C55.4492 125.957 55.6557 125.971 55.6966 126.06C55.7995 126.286 55.389 126.587 55.2458 126.668C54.9023 126.862 54.505 126.924 54.1154 126.92C54.2653 127.006 54.415 127.092 54.5649 127.178C54.4681 126.996 54.1879 126.567 54.3086 126.354C54.2496 126.458 54.3968 126.145 54.3836 126.273C54.398 126.27 54.4125 126.267 54.4269 126.264C54.5003 126.275 54.4795 126.249 54.3642 126.185C54.555 126.826 55.5598 126.554 55.3684 125.909Z" fill="#C3F250"/>
<path d="M62.453 113.461C62.2604 114.442 62.068 115.422 61.8754 116.402C61.8022 116.775 62.1113 117.165 62.5154 117.042C64.0084 116.591 64.7397 114.755 63.9205 113.412C63.7878 113.194 63.569 113.139 63.3327 113.173C61.77 113.401 60.7658 115.012 61.0872 116.518C61.227 117.173 62.2306 116.896 62.0911 116.241C61.8775 115.24 62.6349 114.319 63.6096 114.177C63.4136 114.097 63.2178 114.017 63.0218 113.938C63.4846 114.696 63.102 115.778 62.2389 116.039C62.4524 116.252 62.6656 116.466 62.8792 116.679C63.0719 115.699 63.2642 114.718 63.4569 113.738C63.5853 113.084 62.5824 112.803 62.453 113.461Z" fill="#C3F250"/>
<path d="M72.1336 124.354C73.4441 126.059 75.7444 123.126 74.0989 122.296C73.1065 121.796 71.7901 122.723 71.516 123.677C71.1863 124.824 72.0206 126.04 73.1679 126.248C73.4346 126.296 73.7416 126.178 73.8079 125.884C74.071 124.724 73.1805 123.566 71.968 123.606C71.3 123.628 71.297 124.669 71.968 124.647C72.4787 124.63 72.9224 125.087 72.8044 125.608C73.0176 125.487 73.2312 125.365 73.4444 125.244C72.3214 125.04 72.1407 123.448 73.3649 123.243C74.0793 123.124 73.1489 123.98 73.0321 123.829C72.6299 123.304 71.7253 123.822 72.1336 124.354Z" fill="#C3F250"/>
<path d="M74.9271 140.726C75.9389 140.503 76.6444 139.598 76.7673 138.589C76.8251 138.114 76.7508 137.624 76.5139 137.204C76.1577 136.571 75.3785 136.764 74.7474 136.756C74.1703 136.749 73.361 136.534 73.0168 137.113C72.7612 137.543 72.6807 138.054 72.7424 138.546C72.8678 139.545 73.5662 140.436 74.567 140.664C75.2193 140.812 75.4977 139.808 74.8438 139.66C73.9165 139.45 73.4682 138.314 73.9915 137.524C73.8416 137.61 73.6919 137.696 73.542 137.782C74.3455 137.792 75.1493 137.802 75.9531 137.812C75.8031 137.726 75.6535 137.641 75.5039 137.555C76.0474 138.353 75.5985 139.513 74.6506 139.722C73.9967 139.867 74.2732 140.87 74.9271 140.726Z" fill="#C3F250"/>
<path d="M56.4048 143.136C55.6864 143.873 55.8256 145.131 56.6122 145.769C57.0851 146.152 57.6229 146.224 58.0844 145.789C58.4909 145.407 58.7026 144.834 58.678 144.28C58.6531 143.715 58.3971 143.129 57.8072 142.987C57.2679 142.858 56.6617 143.034 56.2801 143.439C55.3663 144.41 56.1691 145.918 57.4136 145.981C58.0831 146.015 58.0813 144.974 57.4136 144.94C57.1585 144.927 56.9054 144.677 56.9183 144.411C56.9346 144.074 57.2338 144.068 57.4692 143.984C57.4812 143.98 57.6591 144.021 57.5463 143.964C57.4643 143.922 57.5697 144 57.5906 144.073C57.6284 144.205 57.6514 144.323 57.637 144.463C57.6072 144.754 57.4581 144.999 57.2065 145.147C57.3402 145.129 57.4738 145.112 57.6075 145.094C57.0793 145.012 56.7327 144.29 57.1404 143.873C57.609 143.393 56.8737 142.656 56.4048 143.136Z" fill="#C3F250"/>
<path d="M66.035 157.842C66.7644 157.388 67.1307 156.527 66.9635 155.682C66.8668 155.194 66.6418 154.888 66.1496 154.767C65.6303 154.64 65.0661 154.649 64.5558 154.812C63.692 155.087 63.5971 156.118 63.9572 156.842C64.3136 157.56 65.0717 157.997 65.8672 157.815C66.5199 157.666 66.2436 156.662 65.5904 156.811C65.1894 156.903 64.8333 156.459 64.7933 156.092C64.7838 156.004 64.7948 155.924 64.8207 155.84C64.8581 155.782 64.8397 155.781 64.7653 155.836C64.8538 155.805 64.9439 155.78 65.0351 155.759C65.4146 155.679 65.7778 155.729 66.1407 155.854C66.0368 155.774 65.9333 155.694 65.8297 155.615C66.0912 156.064 65.9554 156.665 65.5095 156.943C64.9423 157.297 65.4644 158.197 66.035 157.842Z" fill="#C3F250"/>
<path d="M61.032 169.416C61.5316 170.382 62.0312 171.348 62.5308 172.315C62.729 172.698 63.2114 172.602 63.4296 172.315C64.0392 171.513 64.344 170.507 64.2626 169.499C64.199 168.711 63.9685 167.679 62.9564 167.962C61.6947 168.314 61.5202 170.475 62.8734 170.81C63.5236 170.971 63.8011 169.968 63.1503 169.807C62.7803 169.715 62.9982 168.885 63.3562 168.986C63.2348 168.864 63.1137 168.743 62.9926 168.622C63.4148 169.73 63.2483 170.846 62.5308 171.789C62.8304 171.789 63.13 171.789 63.4296 171.789C62.9299 170.823 62.4303 169.857 61.9307 168.89C61.6232 168.295 60.7244 168.821 61.032 169.416Z" fill="#C3F250"/>
<path d="M93.8588 191.669C93.3137 192.304 93.019 193.044 93.004 193.883C93.0009 194.051 93.102 194.259 93.2618 194.332C94.1817 194.755 95.2415 194.544 95.9734 193.846C96.6291 193.221 96.894 192.101 96.2361 191.374C95.2074 190.238 92.5559 191.136 93.1428 192.832C93.3607 193.461 94.3664 193.19 94.1464 192.555C93.9353 191.945 95.0879 191.698 95.4431 192.049C95.7571 192.359 95.499 192.866 95.2375 193.11C94.8657 193.456 94.2711 193.656 93.7872 193.433C93.8732 193.583 93.9589 193.732 94.045 193.882C94.0548 193.331 94.2337 192.826 94.595 192.405C95.0289 191.9 94.296 191.16 93.8588 191.669Z" fill="#C3F250"/>
<path d="M101.296 177.431C101.334 178.339 101.371 179.246 101.409 180.153C101.422 180.479 101.732 180.759 102.067 180.654C102.922 180.389 103.587 179.685 103.69 178.777C103.799 177.812 102.812 177.465 101.98 177.527C100.072 177.668 99.3681 180.026 100.728 181.296C101.218 181.752 101.955 181.018 101.464 180.56C100.357 179.526 101.701 177.963 102.918 178.837C102.832 178.687 102.746 178.537 102.66 178.388C102.682 178.987 102.373 179.471 101.791 179.651C102.01 179.818 102.23 179.985 102.449 180.153C102.412 179.246 102.375 178.339 102.337 177.431C102.31 176.764 101.269 176.761 101.296 177.431Z" fill="#C3F250"/>
<path d="M103.553 188.369C103.98 188.636 104.407 188.902 104.834 189.169C105.032 189.292 105.302 189.245 105.465 189.087C106.107 188.467 105.651 187.229 104.736 187.234C103.827 187.24 103.371 188.491 104.031 189.096C104.524 189.548 105.262 188.814 104.767 188.36C104.721 188.316 104.714 188.31 104.744 188.343C104.761 188.388 104.761 188.38 104.743 188.32C104.754 188.37 104.758 188.363 104.755 188.298C104.752 188.347 104.757 188.34 104.771 188.277C104.755 188.324 104.765 188.235 104.775 188.275C104.766 188.238 104.843 188.248 104.736 188.275C104.714 188.274 104.695 188.267 104.678 188.254C104.732 188.285 104.739 188.289 104.7 188.266C104.695 188.259 104.691 188.251 104.687 188.244C104.715 188.299 104.722 188.306 104.71 188.265C104.723 188.299 104.733 188.334 104.74 188.37C104.732 188.321 104.73 188.329 104.732 188.393C104.728 188.343 104.809 188.274 104.729 188.351C104.939 188.324 105.149 188.297 105.359 188.27C104.932 188.003 104.505 187.737 104.078 187.471C103.509 187.115 102.986 188.015 103.553 188.369Z" fill="#C3F250"/>
<path d="M112.114 171.016C110.465 171.862 111.561 174.821 113.344 174.485C114.4 174.286 114.502 172.355 113.77 171.731C113.011 171.084 111.656 171.619 111.857 172.681C111.982 173.339 112.986 173.061 112.861 172.404C112.931 172.773 112.769 172.356 112.95 172.493C113.07 172.584 113.06 172.463 113.153 172.625C113.327 172.927 113.07 173.481 112.967 173.77C113.088 173.649 113.21 173.527 113.331 173.406C112.57 173.699 111.919 172.284 112.639 171.914C113.235 171.608 112.709 170.71 112.114 171.016Z" fill="#C3F250"/>
<path d="M52.8018 224.042C53.232 225.102 53.9845 225.96 55.0283 226.45C55.2572 226.558 55.4671 226.529 55.6588 226.369C56.6141 225.57 57.2855 223.374 55.6806 222.829C54.6003 222.462 53.0471 223.584 53.7805 224.746C54.1373 225.311 55.0384 224.789 54.6792 224.221C54.4912 223.923 55.2084 223.69 55.4345 223.87C56.0168 224.331 55.2965 225.321 54.9229 225.633C55.1331 225.606 55.3432 225.578 55.5534 225.551C54.7696 225.183 54.1342 224.575 53.8051 223.765C53.5571 223.152 52.5499 223.42 52.8018 224.042Z" fill="#C3F250"/>
<path d="M64.8914 209.211C63.792 210.463 64.6871 212.608 66.3672 212.669C66.6493 212.679 66.8865 212.422 66.8877 212.148C66.8914 211.254 66.8951 210.36 66.8988 209.465C66.8997 209.247 66.7375 209.012 66.5169 208.964C65.686 208.782 63.8019 208.482 63.5929 209.645C63.4362 210.518 64.2916 211.288 65.1308 211.078C65.7803 210.916 65.505 209.912 64.8539 210.074C64.6631 210.122 64.5869 209.857 64.6717 209.732C64.5682 209.812 64.4643 209.892 64.3608 209.971C64.99 209.831 65.6104 209.829 66.24 209.967C66.1125 209.8 65.9853 209.632 65.8578 209.465C65.8541 210.36 65.8504 211.254 65.8467 212.148C66.0203 211.975 66.1936 211.801 66.3672 211.628C65.6258 211.601 65.1274 210.517 65.6276 209.947C66.068 209.446 65.3345 208.707 64.8914 209.211Z" fill="#C3F250"/>
<path d="M78.3108 219.949C76.9287 219.91 76.1246 221.603 76.748 222.762C77.5042 224.169 79.5454 223.757 80.3292 222.614C81.2965 221.205 80.3523 219.182 78.8654 218.57C77.7881 218.127 75.589 218.99 76.5019 220.403C76.8642 220.964 77.7654 220.443 77.4006 219.878C77.2516 219.647 77.7872 219.491 77.9629 219.469C78.3658 219.417 78.7136 219.625 79.0015 219.89C79.5952 220.436 79.9688 221.404 79.412 222.103C79.0439 222.565 78.1061 222.911 77.6944 222.31C77.3668 221.833 77.7048 220.973 78.3111 220.991C78.9809 221.01 78.9803 219.969 78.3108 219.949Z" fill="#C3F250"/>
<path d="M67.3523 230.256C66.326 230.939 66.6707 232.449 67.6598 233.008C68.7642 233.632 69.8719 232.645 69.7978 231.491C69.7238 230.339 68.672 229.354 67.4992 229.795C66.3183 230.239 65.8086 231.809 66.4652 232.87C66.8173 233.439 67.7179 232.916 67.3639 232.345C67.0696 231.869 67.2232 231.193 67.6807 230.866C68.1469 230.533 68.597 230.86 68.7255 231.346C68.8109 231.669 68.7131 232.322 68.2267 232.134C67.9391 232.023 67.5311 231.386 67.8777 231.155C68.4326 230.785 67.9118 229.883 67.3523 230.256Z" fill="#C3F250"/>
<path d="M57.7368 249.107C58.1166 249.672 58.8251 249.926 59.4701 249.664C60.1289 249.395 60.249 248.648 60.0711 248.018C59.7187 246.772 58.3292 246.021 57.1315 246.543C56.9766 246.61 56.8635 246.828 56.8737 246.992C56.9271 247.844 57.2286 248.588 57.7703 249.245C58.1965 249.763 58.9293 249.022 58.5062 248.509C58.1504 248.077 57.9494 247.549 57.9144 246.992C57.8284 247.142 57.7426 247.292 57.6566 247.442C58.1384 247.232 58.6964 247.617 58.9401 248.015C59.0826 248.248 59.0802 248.431 59.0863 248.692C59.0903 248.862 59.0215 248.712 59.0986 248.695C59.0571 248.704 59.0138 248.734 58.9692 248.728C58.834 248.712 58.7191 248.706 58.6352 248.582C58.2637 248.029 57.3616 248.549 57.7368 249.107Z" fill="#C3F250"/>
<path d="M70.1911 254.231C69.5766 255.234 69.5944 256.513 70.2651 257.485C70.3853 257.659 70.6311 257.812 70.8529 257.724C71.6045 257.427 72.1591 256.846 72.3874 256.062C72.5792 255.403 72.5847 254.16 71.733 254.011C70.2197 253.746 68.974 255.768 69.8952 256.996C70.2925 257.526 71.1965 257.007 70.7939 256.471C70.3718 255.908 70.8981 254.872 71.6448 255.054C71.5409 254.974 71.4374 254.894 71.3338 254.814C71.6528 255.503 71.2859 256.441 70.5764 256.721C70.7725 256.801 70.9682 256.881 71.1642 256.96C70.6938 256.279 70.6545 255.467 71.0902 254.757C71.4408 254.184 70.5408 253.66 70.1911 254.231Z" fill="#C3F250"/>
<path d="M78.6168 240.981C78.0462 241.696 77.841 242.589 78.159 243.464C78.3068 243.871 78.8728 243.999 79.1103 243.589C79.7715 242.448 79.5706 240.985 78.6048 240.08C78.4386 239.925 78.1749 239.876 77.974 239.999C77.0095 240.589 76.442 241.555 76.3685 242.679C76.3249 243.348 77.3659 243.346 77.4092 242.679C77.4584 241.928 77.8603 241.289 78.4994 240.898C78.2893 240.871 78.0791 240.843 77.8686 240.816C78.4985 241.406 78.6466 242.312 78.2112 243.063C78.5283 243.105 78.8454 243.146 79.1625 243.188C78.98 242.686 79.0092 242.147 79.3527 241.717C79.7666 241.198 79.0347 240.457 78.6168 240.981Z" fill="#C3F250"/>
<path d="M60.3322 278.758C60.2418 279.853 60.9873 281.245 62.1699 281.438C63.2684 281.618 63.6823 279.791 63.4629 279.03C63.27 278.36 62.7823 278.256 62.1358 278.215C61.6371 278.184 60.7789 278.176 60.5027 278.669C60.2154 279.182 60.2584 280.027 60.3405 280.581C60.4428 281.274 60.7162 281.914 61.1344 282.473C61.5308 283.003 62.4351 282.485 62.0332 281.947C61.3818 281.076 61.1741 280.058 61.4798 279.008C61.3588 279.129 61.2374 279.25 61.1163 279.371C61.6553 279.227 62.1454 279.222 62.6877 279.362C62.5838 279.283 62.4803 279.203 62.3767 279.123C62.621 279.598 62.4889 280.18 62.0455 280.487C62.1791 280.47 62.3128 280.452 62.4465 280.435C61.7047 280.197 61.3102 279.517 61.3729 278.758C61.4282 278.09 60.3872 278.094 60.3322 278.758Z" fill="#C3F250"/>
<path d="M68.763 283.726C69.0073 284.416 69.2519 285.105 69.4962 285.794C69.7184 286.421 70.7247 286.151 70.4997 285.518C70.2555 284.828 70.0109 284.139 69.7666 283.45C69.5444 282.823 68.5381 283.093 68.763 283.726Z" fill="#C3F250"/>
</svg>
