<svg width="255" height="273" viewBox="0 0 255 273" fill="none" xmlns="http://www.w3.org/2000/svg">
<path d="M163.118 37.257C200.709 27.1484 240.274 47.8452 251.348 82.152C262.43 116.494 241.083 153.957 203.801 167.113C166.518 180.257 127.168 161.653 115.776 124.242C104.388 86.8656 125.526 47.3305 163.118 37.257ZM199.57 153.756C229.107 143.588 245.993 113.775 237.193 86.3423C228.396 58.9316 197.117 42.7295 167.385 50.9745C137.654 59.22 120.901 90.3444 129.891 119.656C138.885 149.01 170.031 163.903 199.57 153.756Z" fill="#C31388"/>
<path d="M163.708 39.1696C200.225 29.2994 238.644 49.3619 249.407 82.7284C260.17 116.128 239.425 152.534 203.221 165.277C166.992 177.989 128.775 159.901 117.714 123.605C106.66 87.3645 127.211 48.9843 163.708 39.1696ZM129.892 119.656C138.886 149.01 170.032 163.903 199.571 153.756C229.108 143.588 245.994 113.775 237.194 86.3422C228.397 58.9315 197.118 42.7294 167.386 50.9744C137.656 59.2199 120.903 90.3443 129.892 119.656Z" fill="#FED8F1"/>
<path d="M164.527 41.8244C199.517 32.3133 236.354 51.5009 246.675 83.5507C256.997 115.609 237.111 150.536 202.411 162.704C167.686 174.845 131.029 157.452 120.44 122.732C109.85 88.0422 129.556 51.303 164.527 41.8244ZM129.893 119.66C138.887 149.015 170.033 163.907 199.572 153.76C229.109 143.592 245.995 113.779 237.195 86.3462C228.398 58.9355 197.119 42.7335 167.387 50.9785C137.656 59.224 120.903 90.3483 129.893 119.66Z" fill="#FFE7FD"/>
<path d="M175.518 77.1111C190.232 72.7824 205.732 80.6548 210.118 94.4878C214.502 108.326 206.15 123.278 191.484 128.07C176.817 132.866 161.348 125.316 156.916 111.005C152.483 96.7001 160.806 81.4347 175.518 77.1111ZM189.819 122.785C201.433 119.027 208.043 107.172 204.568 96.1794C201.092 85.191 188.833 78.9884 177.189 82.4514C165.544 85.9202 158.954 97.976 162.459 109.252C165.963 120.541 178.205 126.54 189.819 122.785Z" fill="#C31388"/>
<path d="M176.071 78.8905C189.771 74.8417 204.199 82.1566 208.283 95.0512C212.367 107.95 204.583 121.876 190.933 126.325C177.271 130.771 162.872 123.735 158.747 110.427C154.625 97.1302 162.376 82.9268 176.071 78.8905ZM163.332 108.98C166.693 119.794 178.422 125.549 189.557 121.956C200.692 118.36 207.026 106.991 203.693 96.4498C200.362 85.9108 188.611 79.9711 177.45 83.2951C166.289 86.625 159.972 98.1775 163.332 108.98Z" fill="#FED8F1"/>
<path d="M176.07 78.8894C189.77 74.8434 204.199 82.1558 208.285 95.055C212.37 107.95 204.584 121.872 190.936 126.326C177.277 130.777 162.871 123.734 158.748 110.43C154.624 97.1303 162.378 82.9299 176.07 78.8894ZM162.46 109.255C165.964 120.544 178.205 126.543 189.819 122.788C201.434 119.03 208.043 107.175 204.568 96.1822C201.092 85.1938 188.834 78.9912 177.189 82.4542C165.544 85.9232 158.955 97.9788 162.46 109.255Z" fill="#FFE7FD"/>
<path d="M173.411 70.361C192.012 64.9699 211.6 74.9686 217.131 92.3675C222.661 109.775 212.106 128.61 193.583 134.745C175.062 140.882 155.522 131.397 149.913 113.236C144.305 95.0839 154.814 75.7428 173.411 70.361ZM191.48 128.077C206.149 123.279 214.505 108.334 210.118 94.4943C205.732 80.6605 190.24 72.7915 175.523 77.1171C160.808 81.4478 152.484 96.7166 156.916 111.011C161.349 125.323 176.811 132.87 191.48 128.077Z" fill="#C31388"/>
<path d="M174.029 72.3477C191.495 67.2596 209.887 76.6289 215.081 92.9876C220.278 109.353 210.356 127.05 192.968 132.792C175.566 138.528 157.223 129.611 151.96 112.58C146.697 95.5665 156.572 77.418 174.029 72.3477ZM157.365 110.867C161.725 124.934 176.921 132.356 191.346 127.647C205.768 122.934 213.981 108.238 209.669 94.6285C205.356 81.0241 190.128 73.291 175.657 77.547C161.191 81.8093 153.005 96.8171 157.365 110.867Z" fill="#FED8F1"/>
<path d="M174.421 73.6077C191.157 68.7219 208.79 77.69 213.773 93.3888C218.753 109.083 209.243 126.05 192.579 131.546C175.903 137.037 158.31 128.474 153.268 112.168C148.224 95.8687 157.69 78.4868 174.421 73.6077ZM157.801 110.728C162.089 124.555 177.031 131.857 191.215 127.23C205.396 122.599 213.475 108.146 209.232 94.7602C204.99 81.3793 190.013 73.7769 175.789 77.9661C161.563 82.1615 153.516 96.9147 157.801 110.728Z" fill="#FFE7FD"/>
<path d="M178.504 86.6797C187.717 83.9134 197.423 88.8076 200.175 97.529C202.928 106.253 197.7 115.656 188.506 118.603C179.312 121.553 169.618 116.785 166.847 107.876C164.076 98.9697 169.29 89.4438 178.504 86.6797ZM187.462 115.286C194.74 112.966 198.881 105.517 196.699 98.5957C194.518 91.6774 186.838 87.8158 179.55 90.0185C172.26 92.2252 168.128 99.7559 170.321 106.785C172.514 113.821 180.181 117.604 187.462 115.286Z" fill="#C31388"/>
<path d="M178.852 87.7874C187.428 85.2026 196.467 89.7543 199.028 97.8799C201.592 106.008 196.718 114.766 188.162 117.504C179.6 120.242 170.573 115.801 167.996 107.512C165.418 99.2294 170.277 90.3642 178.852 87.7874ZM170.868 106.612C172.97 113.354 180.323 116.981 187.3 114.762C194.279 112.54 198.244 105.398 196.154 98.7618C194.062 92.1274 186.705 88.4271 179.715 90.5418C172.726 92.6603 168.769 99.8751 170.868 106.612Z" fill="#FED8F1"/>
<path d="M179.043 88.4063C187.263 85.9285 195.928 90.2864 198.385 98.0811C200.842 105.872 196.171 114.266 187.971 116.891C179.763 119.515 171.112 115.253 168.639 107.314C166.167 99.3757 170.829 90.8815 179.043 88.4063ZM170.868 106.613C172.97 113.355 180.323 116.981 187.299 114.762C194.279 112.541 198.244 105.398 196.154 98.7626C194.062 92.1282 186.705 88.4279 179.715 90.5426C172.726 92.6611 168.769 99.8759 170.868 106.613Z" fill="#FFE7FD"/>
<path d="M179.713 90.5409C186.701 88.4258 194.063 92.1258 196.153 98.7605C198.242 105.396 194.277 112.54 187.3 114.759C180.324 116.981 172.97 113.352 170.868 106.61C168.768 99.8696 172.724 92.656 179.713 90.5409Z" fill="#FFE7FD"/>
<path d="M177.186 82.4534C188.828 78.9888 201.094 85.1937 204.569 96.1813C208.044 107.173 201.438 119.033 189.823 122.787C178.209 126.544 165.965 120.542 162.46 109.254C158.956 97.9697 165.545 85.915 177.186 82.4534ZM188.504 118.599C197.7 115.65 202.93 106.249 200.176 97.5251C197.423 88.8025 187.722 83.9113 178.508 86.6755C169.293 89.4449 164.079 98.9715 166.848 107.872C169.624 116.781 179.306 121.547 188.504 118.599Z" fill="#C31388"/>
<path d="M177.449 83.301C188.609 79.9718 200.367 85.9105 203.695 96.4485C207.026 106.99 200.687 118.356 189.56 121.952C178.426 125.544 166.691 119.789 163.333 108.977C159.974 98.1739 166.296 86.6199 177.449 83.301ZM167.068 107.802C169.805 116.592 179.363 121.296 188.438 118.388C197.512 115.478 202.675 106.201 199.956 97.5918C197.241 88.9832 187.666 84.1572 178.574 86.8866C169.481 89.621 164.334 99.0204 167.068 107.802Z" fill="#FED8F1"/>
<path d="M177.699 84.1081C188.392 80.9142 199.664 86.6009 202.858 96.7107C206.052 106.816 199.975 117.714 189.31 121.157C178.639 124.598 167.384 119.075 164.168 108.719C160.95 98.3667 167.01 87.2997 177.699 84.1081ZM167.068 107.805C169.804 116.595 179.362 121.299 188.437 118.391C197.511 115.481 202.674 106.204 199.955 97.5944C197.24 88.9858 187.666 84.1598 178.573 86.8892C169.48 89.6236 164.333 99.023 167.068 107.805Z" fill="#FFE7FD"/>
<path d="M170.747 61.8084C194.257 55.1204 219.018 67.8413 225.992 89.6952C232.97 111.563 219.621 135.276 196.232 143.154C172.844 151.032 148.165 139.134 141.066 116.062C133.97 93.0031 147.235 68.4815 170.747 61.8084ZM193.577 134.745C212.102 128.603 222.663 109.774 217.13 92.3666C211.598 74.9684 192.018 64.9726 173.416 70.3595C154.815 75.7517 144.305 95.0958 149.913 113.235C155.522 131.397 175.053 140.877 193.577 134.745Z" fill="#C31388"/>
<path d="M171.258 63.4549C193.835 57.0055 217.6 69.1954 224.301 90.2025C231.003 111.222 218.176 133.998 195.724 141.543C173.255 149.077 149.566 137.645 142.754 115.514C135.942 93.4102 148.693 69.8778 171.258 63.4549ZM150.299 113.108C155.841 131.057 175.147 140.432 193.461 134.373C211.775 128.306 222.215 109.692 216.743 92.4798C211.273 75.2779 191.919 65.3998 173.531 70.7287C155.145 76.0635 144.756 95.1818 150.299 113.108Z" fill="#FED8F1"/>
<path d="M171.764 65.0875C193.398 58.8891 216.19 70.5548 222.611 90.7187C229.035 110.88 216.743 132.721 195.223 139.939C173.689 147.147 150.968 136.162 144.444 114.98C137.918 93.8095 150.141 71.2739 171.764 65.0875ZM150.3 113.108C155.843 131.057 175.148 140.432 193.462 134.373C211.776 128.306 222.216 109.691 216.744 92.4796C211.274 75.2778 191.92 65.3996 173.533 70.7286C155.146 76.0633 144.758 95.1816 150.3 113.108Z" fill="#FFE7FD"/>
<path d="M167.377 50.9764C197.102 42.7251 228.399 58.9335 237.191 86.3419C245.987 113.772 229.108 143.596 199.576 153.752C170.044 163.905 138.882 149.008 129.891 119.655C120.906 90.3225 137.648 59.2059 167.377 50.9764ZM196.225 143.151C219.616 135.264 232.973 111.56 225.991 89.691C219.014 67.8351 194.267 55.1217 170.752 61.8037C147.24 68.4899 133.964 93.0155 141.066 116.057C148.17 139.13 172.828 151.024 196.225 143.151Z" fill="#C31388"/>
<path d="M167.845 52.4865C196.72 44.4377 227.113 60.1542 235.656 86.8037C244.199 113.474 227.793 142.452 199.117 152.295C170.422 162.12 140.155 147.642 131.426 119.156C122.701 90.7093 138.982 60.4958 167.845 52.4865ZM141.067 116.058C148.172 139.131 172.83 151.025 196.226 143.152C219.618 135.265 232.975 111.56 225.993 89.6917C219.015 67.8358 194.269 55.1224 170.753 61.8043C147.241 68.4905 133.966 93.0161 141.067 116.058Z" fill="#FED8F1"/>
<path d="M168.491 54.5781C196.16 46.8341 225.301 61.8692 233.494 87.4581C241.687 113.048 225.961 140.84 198.475 150.249C170.969 159.641 141.944 145.726 133.584 118.468C125.226 91.2292 140.836 62.302 168.491 54.5781ZM141.067 116.058C148.172 139.131 172.829 151.025 196.226 143.151C219.618 135.265 232.974 111.56 225.992 89.6915C219.015 67.8356 194.268 55.1222 170.753 61.8042C147.241 68.4903 133.966 93.016 141.067 116.058Z" fill="#FFE7FD"/>
<path d="M187.218 93.1181C190.945 96.0462 194.293 100.016 195.09 102.057C196.931 106.774 196.837 112.266 190.774 113.226C186.329 113.929 185.583 106.725 183.787 104.186C181.695 101.234 174.391 97.3444 175.716 92.9315C177.368 87.4612 182.586 89.4867 187.218 93.1181Z" fill="#C31388"/>
<path d="M187.232 94.3757C190.561 96.9493 193.549 100.442 194.262 102.234C195.911 106.38 195.833 111.208 190.424 112.04C186.462 112.651 185.785 106.324 184.183 104.092C182.315 101.497 175.795 98.078 176.973 94.206C178.438 89.4053 183.1 91.1831 187.232 94.3757Z" fill="#FED8F1"/>
<path d="M186.843 96.6476C189.148 98.4256 191.213 100.845 191.708 102.088C192.847 104.962 192.793 108.307 189.052 108.876C186.309 109.293 185.841 104.916 184.734 103.372C183.441 101.575 178.932 99.2157 179.746 96.5398C180.761 93.2213 183.981 94.4397 186.843 96.6476Z" fill="#FFE7FD"/>
<path d="M186.876 98.4849C188.194 99.5262 189.376 100.948 189.658 101.679C190.309 103.37 190.274 105.341 188.129 105.675C186.556 105.92 186.293 103.348 185.66 102.441C184.92 101.386 182.339 100.008 182.809 98.4344C183.393 96.4833 185.237 97.1911 186.876 98.4849Z" fill="#FED8F1"/>
<path d="M177.188 110.75C174.92 108.92 172.894 106.418 172.424 105.138C171.33 102.18 171.437 98.7517 175.182 98.2555C177.926 97.8909 178.321 102.347 179.401 103.932C180.66 105.782 185.12 108.213 184.26 110.911C183.194 114.264 180.001 113.025 177.188 110.75Z" fill="#C31388"/>
<path d="M176.98 109.657C175.18 108.203 173.572 106.217 173.198 105.201C172.328 102.853 172.418 100.133 175.387 99.7358C177.567 99.4441 177.879 102.984 178.737 104.243C179.739 105.71 183.277 107.645 182.596 109.788C181.75 112.452 179.215 111.464 176.98 109.657Z" fill="#FED8F1"/>
<path d="M177.214 108.383C175.97 107.376 174.854 106.003 174.596 105.301C173.996 103.678 174.056 101.797 176.112 101.52C177.619 101.316 177.834 103.767 178.43 104.637C179.122 105.652 181.57 106.994 181.099 108.477C180.512 110.32 178.761 109.633 177.214 108.383Z" fill="#FFE7FD"/>
<path d="M177.507 106.774C176.965 106.334 176.481 105.737 176.368 105.432C176.108 104.726 176.134 103.908 177.028 103.787C177.683 103.697 177.778 104.764 178.037 105.143C178.339 105.585 179.405 106.169 179.199 106.816C178.944 107.619 178.184 107.318 177.507 106.774Z" fill="#FED8F1"/>
<path opacity="0.06" d="M163.118 37.257C200.709 27.1484 240.274 47.8452 251.348 82.152C262.43 116.494 241.083 153.957 203.801 167.113C166.518 180.257 127.168 161.653 115.776 124.242C104.388 86.8656 125.526 47.3305 163.118 37.257Z" fill="url(#paint0_linear_4352_28301)"/>
<path d="M178.384 98.434C217.898 106.107 247.716 143.894 245.349 181.506C242.977 219.154 208.62 244.875 168.256 240.234C127.894 235.58 97.4948 199.877 100.726 159.176C103.946 118.509 138.883 90.7279 178.384 98.434ZM169.253 225.627C201.137 229.546 228.381 209.03 230.326 178.981C232.265 148.952 208.632 119.231 177.286 113.4C145.94 107.569 118.33 129.389 115.859 161.307C113.377 193.269 137.375 221.688 169.253 225.627Z" fill="#C31388"/>
<path d="M178.226 100.52C216.63 107.926 245.596 144.585 243.287 181.163C240.967 217.772 207.58 242.767 168.394 238.228C129.196 233.65 99.6792 198.955 102.805 159.463C105.918 120.027 139.862 93.071 178.226 100.52ZM115.86 161.309C113.378 193.271 137.376 221.69 169.254 225.629C201.138 229.548 228.382 209.032 230.327 178.983C232.265 148.954 208.633 119.233 177.286 113.401C145.94 107.571 118.33 129.391 115.86 161.309Z" fill="#FED8F1"/>
<path d="M178.006 103.41C214.825 110.455 242.617 145.559 240.382 180.685C238.146 215.82 206.131 239.807 168.59 235.414C131.035 230.984 102.741 197.664 105.724 159.883C108.693 122.131 141.219 96.3428 178.006 103.41ZM115.858 161.31C113.376 193.272 137.374 221.69 169.252 225.63C201.136 229.549 228.38 209.033 230.325 178.983C232.263 148.955 208.631 119.234 177.285 113.402C145.939 107.572 118.329 129.391 115.858 161.31Z" fill="#FFE7FD"/>
<path d="M175.194 141.914C190.801 144.564 202.57 159.144 201.54 174.273C200.507 189.407 186.955 199.749 171.219 197.56C155.482 195.374 143.621 181.114 144.786 165.51C145.948 149.912 159.591 139.259 175.194 141.914ZM171.623 191.785C184.07 193.553 194.803 185.347 195.632 173.329C196.457 161.315 187.14 149.806 174.775 147.744C162.407 145.687 151.618 154.093 150.712 166.394C149.8 178.706 159.177 190.014 171.623 191.785Z" fill="#C31388"/>
<path d="M175.052 143.859C189.59 146.31 200.551 159.869 199.586 173.97C198.621 188.075 185.993 197.706 171.353 195.657C156.702 193.601 145.664 180.319 146.745 165.807C147.823 151.308 160.524 141.4 175.052 143.859ZM151.644 166.541C150.775 178.337 159.757 189.178 171.687 190.882C183.617 192.585 193.906 184.713 194.7 173.189C195.494 161.667 186.56 150.64 174.708 148.669C162.853 146.702 152.51 154.756 151.644 166.541Z" fill="#FED8F1"/>
<path d="M175.05 143.85C189.587 146.303 200.55 159.861 199.586 173.967C198.623 188.068 185.995 197.695 171.355 195.652C156.705 193.601 145.663 180.31 146.743 165.803C147.821 151.3 160.523 141.396 175.05 143.85ZM150.712 166.394C149.8 178.705 159.177 190.014 171.623 191.785C184.07 193.553 194.803 185.347 195.631 173.329C196.457 161.315 187.139 149.806 174.775 147.744C162.407 145.687 151.617 154.093 150.712 166.394Z" fill="#FFE7FD"/>
<path d="M175.729 134.542C195.428 137.969 210.282 156.442 209.002 175.478C207.717 194.521 190.612 207.534 170.707 204.848C150.805 202.164 135.802 184.201 137.296 164.406C138.786 144.621 156.037 131.107 175.729 134.542ZM171.215 197.56C186.954 199.745 200.509 189.411 201.539 174.275C202.569 159.145 190.806 144.572 175.197 141.917C159.589 139.268 145.944 149.923 144.785 165.512C143.62 181.116 155.476 195.37 171.215 197.56Z" fill="#C31388"/>
<path d="M175.569 136.707C194.075 139.901 208.03 157.228 206.82 175.123C205.61 193.026 189.535 205.251 170.857 202.712C152.167 200.161 138.089 183.287 139.486 164.722C140.878 146.175 157.078 133.5 175.569 136.707ZM145.265 165.579C144.123 180.918 155.774 194.932 171.248 197.089C186.722 199.242 200.046 189.078 201.062 174.194C202.075 159.315 190.511 144.992 175.163 142.385C159.817 139.784 146.401 150.256 145.265 165.579Z" fill="#FED8F1"/>
<path d="M175.466 138.088C193.204 141.139 206.589 157.737 205.425 174.909C204.261 192.076 188.852 203.797 170.953 201.359C153.046 198.909 139.547 182.713 140.882 164.939C142.214 147.169 157.737 135.034 175.466 138.088ZM145.731 165.654C144.61 180.733 156.064 194.516 171.279 196.641C186.493 198.76 199.598 188.765 200.595 174.125C201.592 159.491 190.218 145.407 175.129 142.849C160.036 140.296 146.848 150.59 145.731 165.654Z" fill="#FFE7FD"/>
<path d="M174.438 152.35C184.23 153.956 191.614 163.052 190.953 172.585C190.291 182.12 181.791 188.636 171.948 187.209C162.105 185.786 154.685 176.815 155.399 167.096C156.112 157.379 164.645 150.741 174.438 152.35ZM172.203 183.585C179.989 184.727 186.722 179.564 187.249 172.001C187.775 164.44 181.93 157.253 174.177 155.996C166.422 154.742 159.666 159.985 159.11 167.656C158.55 175.334 164.414 182.44 172.203 183.585Z" fill="#C31388"/>
<path d="M174.351 153.567C183.471 155.053 190.349 163.518 189.73 172.398C189.113 181.282 181.191 187.348 172.034 186.016C162.87 184.682 155.961 176.327 156.626 167.285C157.289 158.248 165.236 152.073 174.351 153.567ZM159.694 167.75C159.158 175.108 164.782 181.922 172.244 183.02C179.71 184.118 186.16 179.166 186.668 171.915C187.173 164.664 181.573 157.778 174.137 156.575C166.7 155.375 160.23 160.399 159.694 167.75Z" fill="#FED8F1"/>
<path d="M174.3 154.243C183.041 155.667 189.637 163.777 189.043 172.295C188.45 180.81 180.859 186.625 172.082 185.349C163.297 184.07 156.679 176.056 157.311 167.393C157.945 158.733 165.565 152.819 174.3 154.243ZM159.693 167.752C159.157 175.11 164.781 181.924 172.243 183.023C179.709 184.12 186.159 179.168 186.667 171.917C187.172 164.666 181.572 157.781 174.136 156.577C166.699 155.377 160.229 160.401 159.693 167.752Z" fill="#FFE7FD"/>
<path d="M174.135 156.577C181.569 157.779 187.174 164.667 186.666 171.917C186.159 179.167 179.708 184.121 172.245 183.023C164.783 181.926 159.158 175.109 159.693 167.752C160.23 160.397 166.699 155.373 174.135 156.577Z" fill="#FFE7FD"/>
<path d="M174.772 147.749C187.134 149.808 196.457 161.322 195.631 173.335C194.804 185.353 184.071 193.565 171.626 191.792C159.18 190.022 149.801 178.711 150.711 166.4C151.621 154.092 162.41 145.687 174.772 147.749ZM171.946 187.217C181.791 188.641 190.291 182.129 190.953 172.593C191.614 163.059 184.234 153.968 174.441 152.359C164.645 150.754 156.113 157.393 155.4 167.104C154.69 176.825 162.098 185.789 171.946 187.217Z" fill="#C31388"/>
<path d="M174.703 148.665C186.557 150.631 195.498 161.66 194.701 173.179C193.905 184.703 183.613 192.571 171.69 190.871C159.761 189.166 150.773 178.322 151.644 166.529C152.512 154.744 162.859 146.692 174.703 148.665ZM155.635 167.13C154.933 176.72 162.247 185.568 171.962 186.977C181.677 188.384 190.068 181.958 190.718 172.547C191.373 163.138 184.089 154.167 174.424 152.581C164.758 150.999 156.336 157.548 155.635 167.13Z" fill="#FED8F1"/>
<path d="M174.638 149.548C185.998 151.429 194.572 161.995 193.808 173.047C193.047 184.095 183.179 191.638 171.752 190.006C160.32 188.371 151.701 177.966 152.536 166.671C153.368 155.378 163.283 147.667 174.638 149.548ZM155.635 167.136C154.933 176.726 162.247 185.574 171.962 186.983C181.676 188.389 190.067 181.964 190.718 172.552C191.372 163.144 184.089 154.173 174.424 152.586C164.757 151.005 156.336 157.554 155.635 167.136Z" fill="#FFE7FD"/>
<path d="M176.411 125.208C201.262 129.66 220.009 153.088 218.426 177.011C216.84 200.948 195.249 217.303 170.066 214.035C144.885 210.768 125.906 188.158 127.829 163.022C129.75 137.902 151.566 120.741 176.411 125.208ZM170.703 204.843C190.611 207.524 207.72 194.519 209.002 175.475C210.282 156.439 195.433 137.973 175.735 134.541C156.036 131.114 138.783 144.63 137.297 164.404C135.804 184.199 150.799 202.154 170.703 204.843Z" fill="#C31388"/>
<path d="M176.276 127.01C200.15 131.26 218.151 153.728 216.626 176.722C215.097 199.728 194.353 215.435 170.187 212.282C146.008 209.11 127.794 187.395 129.636 163.285C131.468 139.2 152.423 122.741 176.276 127.01ZM137.709 164.468C136.232 184.03 151.053 201.782 170.73 204.445C190.41 207.1 207.322 194.243 208.589 175.411C209.854 156.59 195.176 138.34 175.704 134.951C156.23 131.568 139.177 144.926 137.709 164.468Z" fill="#FED8F1"/>
<path d="M176.144 128.787C199.027 132.841 216.3 154.365 214.826 176.431C213.355 198.497 193.471 213.562 170.313 210.527C147.145 207.475 129.684 186.629 131.442 163.55C133.195 140.482 153.274 124.726 176.144 128.787ZM137.71 164.464C136.233 184.026 151.054 201.778 170.731 204.441C190.411 207.096 207.323 194.239 208.59 175.408C209.855 156.586 195.177 138.336 175.705 134.947C156.231 131.564 139.178 144.922 137.71 164.464Z" fill="#FFE7FD"/>
<path d="M177.277 113.393C208.62 119.216 232.267 148.952 230.324 178.975C228.376 209.021 201.135 229.55 169.261 225.623C137.387 221.691 113.375 193.261 115.86 161.302C118.342 129.366 145.939 107.548 177.277 113.393ZM170.059 214.032C195.247 217.293 216.843 200.949 218.425 177.009C220.006 153.083 201.269 129.669 176.416 125.209C151.565 120.755 129.738 137.914 127.829 163.021C125.912 188.159 144.871 210.757 170.059 214.032Z" fill="#C31388"/>
<path d="M177.154 115.04C207.612 120.664 230.586 149.519 228.691 178.708C226.788 207.918 200.315 227.863 169.371 224.03C138.415 220.173 115.097 192.55 117.505 161.534C119.902 130.557 146.721 109.384 177.154 115.04ZM127.829 163.023C125.912 188.161 144.871 210.758 170.059 214.034C195.247 217.295 216.843 200.951 218.425 177.011C220.006 153.085 201.27 129.67 176.416 125.21C151.565 120.756 129.738 137.916 127.829 163.023Z" fill="#FED8F1"/>
<path d="M176.983 117.325C206.182 122.685 228.221 150.318 226.392 178.341C224.563 206.366 199.181 225.498 169.531 221.8C139.868 218.078 117.518 191.559 119.815 161.877C122.106 132.214 147.806 111.953 176.983 117.325ZM127.83 163.027C125.913 188.165 144.872 210.763 170.06 214.038C195.248 217.299 216.844 200.955 218.426 177.015C220.007 153.089 201.271 129.675 176.417 125.215C151.566 120.761 129.739 137.92 127.83 163.027Z" fill="#FFE7FD"/>
<path d="M180.297 162.458C182.738 166.945 184.428 172.246 184.419 174.547C184.396 179.866 182.243 185.029 176.122 183.156C171.635 181.782 173.632 174.609 172.88 171.377C172.001 167.618 166.522 160.577 169.439 157.001C173.063 152.573 177.261 156.889 180.297 162.458Z" fill="#C31388"/>
<path d="M179.837 163.666C182.032 167.634 183.56 172.317 183.564 174.344C183.573 179.032 181.685 183.574 176.234 181.88C172.239 180.64 173.973 174.33 173.289 171.479C172.49 168.161 167.579 161.926 170.154 158.795C173.349 154.916 177.11 158.742 179.837 163.666Z" fill="#FED8F1"/>
<path d="M178.615 165.634C180.137 168.378 181.191 171.621 181.194 173.026C181.197 176.274 179.889 179.42 176.121 178.243C173.358 177.379 174.557 173.014 174.085 171.042C173.532 168.745 170.134 164.437 171.913 162.274C174.124 159.593 176.726 162.227 178.615 165.634Z" fill="#FFE7FD"/>
<path d="M177.959 167.393C178.82 168.986 179.41 170.877 179.403 171.7C179.386 173.602 178.612 175.454 176.448 174.786C174.862 174.296 175.579 171.737 175.317 170.586C175.011 169.246 173.076 166.755 174.114 165.479C175.402 163.897 176.888 165.415 177.959 167.393Z" fill="#FED8F1"/>
<path d="M164.14 174.575C162.673 171.799 161.688 168.497 161.722 167.067C161.793 163.76 163.184 160.559 166.928 161.807C169.672 162.722 168.373 167.128 168.804 169.126C169.305 171.458 172.629 175.811 170.798 177.974C168.527 180.664 165.958 178.024 164.14 174.575Z" fill="#C31388"/>
<path d="M164.358 173.442C163.194 171.237 162.412 168.616 162.438 167.481C162.494 164.855 163.601 162.317 166.572 163.304C168.752 164.028 167.719 167.527 168.062 169.115C168.462 170.966 171.096 174.424 169.645 176.145C167.84 178.282 165.803 176.181 164.358 173.442Z" fill="#FED8F1"/>
<path d="M165.058 172.343C164.255 170.817 163.71 169.003 163.729 168.219C163.769 166.404 164.532 164.649 166.589 165.33C168.098 165.828 167.382 168.251 167.621 169.349C167.897 170.63 169.719 173.025 168.715 174.215C167.465 175.693 166.058 174.239 165.058 172.343Z" fill="#FFE7FD"/>
<path d="M165.942 170.953C165.592 170.288 165.356 169.499 165.363 169.158C165.382 168.369 165.713 167.606 166.608 167.901C167.265 168.117 166.955 169.172 167.058 169.65C167.179 170.208 167.972 171.251 167.533 171.77C166.989 172.414 166.381 171.78 165.942 170.953Z" fill="#FED8F1"/>
<path opacity="0.06" d="M178.384 98.434C217.898 106.107 247.716 143.894 245.349 181.506C242.977 219.154 208.62 244.875 168.256 240.234C127.894 235.58 97.4948 199.877 100.726 159.176C103.946 118.509 138.883 90.7279 178.384 98.434Z" fill="url(#paint1_linear_4352_28301)"/>
<path d="M32.0016 209.513C30.5926 206.611 29.0291 204.276 28.9697 202.845C30.023 204.646 36.8852 211.966 38.3658 212.127C41.4222 205.348 27.5035 195.721 23.5258 191.398C45.4252 200.727 48.5184 212.103 86.5952 216.781C89.0177 217.078 85.6437 219.081 85.0404 219.44C82.4907 220.954 79.7498 222.203 77.0622 223.507C75.429 224.299 73.7857 225.037 72.6165 226.38C71.6534 227.487 71.0216 228.813 70.5201 230.163C69.5732 232.711 69.2056 235.649 67.5808 237.905C66.6178 239.242 65.1642 240.02 63.3757 240.09C67.8862 237.23 68.0639 233.713 65.2715 229.214C59.3976 235.831 61.3737 247.056 60.9214 255.369C61.1924 249.917 60.0665 244.438 60.337 238.986C58.5912 238.639 52.4516 247.732 52.4516 247.732C54.5501 242.606 56.8159 237.06 57.2873 231.47C57.3403 230.841 57.3373 230.136 56.8785 229.638C56.3846 230.77 54.688 233.723 54.505 234.213C54.3956 234.505 54.217 235.97 54.3054 236.23C54.2393 235.789 53.5408 232.388 53.9312 232.264C53.0005 232.559 42.6131 235.699 43.2142 236.717C42.739 235.912 46.3892 233.993 46.8757 233.668C48.6479 232.484 52.0567 230.565 51.8873 228.166C51.7412 226.097 49.4963 223.514 47.1103 224.156C44.9876 224.728 43.4472 226.738 42.3409 228.37C41.2607 229.964 39.9919 231.995 39.8996 233.975C39.5764 240.913 44.0164 248.065 44.3922 254.84C44.6703 259.855 42.6405 269.217 35.7243 272.995C38.4793 271.49 40.2608 267.458 41.4678 264.675C45.9824 254.266 39.9264 242.553 37.6048 232.304C35.4756 233.878 31.5615 236.288 30.3398 238.55C31.733 235.97 33.849 233.741 35.6099 231.389C37.1936 229.273 39.3741 226.675 39.2176 223.885C39.1091 221.951 38.4527 220.599 36.6373 219.467C34.6866 218.251 32.4831 217.432 30.4903 216.276C31.3807 216.793 42.651 220.63 42.3324 218.692C42.0416 216.815 38.445 215.358 36.9091 214.577C35.2486 213.732 33.4906 213.054 31.9133 212.062C30.2881 211.04 28.9965 209.598 27.9246 208.089C25.7321 205.003 24.7176 201.451 23.0254 198.16C24.2526 200.497 29.8222 210.577 32.0016 209.513Z" fill="url(#paint2_linear_4352_28301)"/>
<path d="M104.312 82.8294C105.024 78.9822 107.449 74.3226 108.794 70.4633C111.476 62.7675 114.505 55.2335 117.713 47.7315C121.346 39.2321 124.642 30.1158 128.796 21.8854C131.416 16.6936 133.999 11.2461 137.284 6.50779C138.547 4.6862 140.916 0.666366 142.837 0.0961603C146.108 -0.874722 143.482 5.7587 143.049 8.62812C142.392 12.9791 141.389 17.1177 140.219 21.4496C138.59 27.478 136.678 33.4918 134.555 39.4241C131.43 48.1586 129.131 57.3939 125.546 65.9718C122.652 72.896 109.47 98.0964 104.312 82.8294Z" fill="#4A9901"/>
<path d="M117.083 76.7865C121.541 71.1066 114.432 79.1078 117.09 72.2608C118.851 67.7255 128.842 44.705 131.132 40.4234C133.426 36.1364 135.54 31.7533 137.958 27.5419C139.844 24.2585 142.096 18.7823 145.204 17.0656C150.018 14.4076 147.574 22.5055 146.774 25.9171C145.356 31.9653 143.486 37.924 141.819 43.8994C138.599 55.4434 135.477 68.2488 130.473 79.283C128.177 84.3455 124.914 92.7807 120.345 88.8734C118.842 87.5887 113.174 80.0397 117.083 76.7865Z" fill="url(#paint3_linear_4352_28301)"/>
<path d="M95.6445 77.9917C102.633 64.7142 106.747 50.4408 114.337 37.3782C116.102 34.3399 125.339 18.2096 128.374 21.2356C130.389 23.2437 126.887 32.8149 126.047 35.5756C123.978 42.3686 122.85 49.3164 121.015 56.1472C118.376 65.9706 114.333 81.2684 106.428 88.0081C97.5539 95.5742 96.4454 80.8948 95.6445 77.9917Z" fill="url(#paint4_linear_4352_28301)"/>
<path opacity="0.21" d="M114.337 37.3762C116.102 34.3376 125.339 18.2075 128.374 21.2338C128.554 21.4133 128.643 21.7156 128.74 22.0052C128.76 21.9658 128.777 21.924 128.797 21.8853C131.418 16.6938 134 11.2459 137.285 6.5075C138.548 4.68623 140.918 0.666078 142.838 0.0961946C146.109 -0.874849 143.484 5.75825 143.05 8.62848C142.393 12.979 141.391 17.118 140.22 21.4495C139.846 22.8335 139.407 24.2111 139.005 25.5921C140.678 22.401 142.642 18.4801 145.207 17.0638C150.019 14.4062 147.576 22.5039 146.776 25.9153C145.358 31.9637 143.488 37.9219 141.821 43.8979C138.601 55.442 135.479 68.2472 130.475 79.2813C128.179 84.3433 124.917 92.7789 120.347 88.8714C119.459 88.1131 117.129 85.1682 116.168 82.2129C113.088 86.1099 109.846 88.6178 107.253 87.1475C106.971 87.4198 106.72 87.7564 106.428 88.0055C97.5536 95.5722 96.4451 80.893 95.6445 77.9897C102.632 64.7122 106.747 50.4387 114.337 37.3762Z" fill="url(#paint5_linear_4352_28301)"/>
<path d="M10.3895 176.045C14.0964 182.272 18.4115 187.964 23.2969 193.105C24.5178 194.474 25.8032 195.794 27.1511 197.065C29.6187 199.406 32.1873 201.602 34.8949 203.669C35.4927 204.163 36.141 204.641 36.8017 205.087C40.4247 207.737 44.2378 210.129 48.2397 212.264C48.6341 212.494 49.0786 212.706 49.5233 212.919C50.7557 213.591 52.0514 214.214 53.3602 214.805C53.7287 214.987 54.1351 215.185 54.5036 215.367C54.9989 215.563 55.4817 215.79 55.9771 215.986C56.4344 216.167 56.8789 216.379 57.3488 216.528C57.9079 216.786 58.479 217.012 59.0512 217.238C60.5369 217.825 61.998 218.366 63.4583 218.906C64.1569 219.145 64.8174 219.37 65.5285 219.577C70.7232 221.26 76.0051 222.498 81.2989 223.261C82.2001 223.433 83.1648 223.556 84.092 223.663C88.8516 224.216 93.6623 224.418 98.4841 224.257C100.223 224.205 101.973 224.122 103.725 223.928C110.094 223.418 116.462 222.243 122.727 220.437C147.051 213.401 166.919 194.674 169.504 170.853C171.231 154.887 166.333 138.63 158.709 123.361C154.909 115.695 150.399 108.266 145.725 100.919C141.764 94.7761 137.809 85.6087 130.87 81.4271C130.591 81.2428 130.273 81.0434 129.942 80.8761C129.574 80.6938 129.218 80.4792 128.888 80.3117L128.85 80.2965C126.779 79.1826 125.381 78.3719 123.753 76.9163C123.766 76.8843 123.766 76.8844 123.69 76.8544C123.397 76.5914 123.104 76.3283 122.825 76.033C122.482 76.0085 122.063 75.9531 121.619 75.8517C121.174 75.7497 120.692 75.6326 120.159 75.5328C119.727 75.3991 119.244 75.2823 118.736 75.1186C118.661 75.0886 118.572 75.0903 118.457 75.0452C117.949 74.8811 117.352 74.7193 116.806 74.5405C116.412 74.4219 115.993 74.2561 115.6 74.1377L115.371 74.0472C115.04 73.8796 114.672 73.6973 114.329 73.5617C112.932 72.8618 111.648 72.2067 110.606 71.6105C110.466 71.5183 110.314 71.4581 110.175 71.3662C109.717 71.0744 109.336 70.8134 109.03 70.5819C106.975 70.6555 105.502 70.4795 103.852 70.0856C103.394 70.0156 102.874 69.884 102.353 69.752C101.795 69.6052 101.198 69.4433 100.524 69.2512C99.6865 69.0305 98.8361 68.8418 97.9857 68.7644C97.0712 68.6247 96.1576 68.5958 95.2184 68.6306C88.4167 68.6743 81.1389 71.5943 75.3049 73.091C66.8703 75.2581 58.4998 77.5978 50.4866 80.5959C34.4849 86.5282 19.7962 95.0458 10.1433 107.879C-4.25476 127.032 -2.55495 154.282 10.3895 176.045Z" fill="url(#paint6_linear_4352_28301)"/>
<path d="M35.8081 175.607C36.9919 188.219 41.602 200.635 48.2404 212.265C48.6348 212.495 49.0793 212.707 49.524 212.92C47.2166 208.28 45.1113 203.572 43.666 198.756C42.1601 194.987 41.4024 191.106 40.4038 187.279C39.7731 183.412 39.0026 179.564 38.8922 175.718C37.651 160.352 41.2335 145.378 48.1823 132.14C54.8648 118.686 64.952 106.984 76.3237 96.4914C82.0603 91.2278 88.1909 86.3046 94.6655 81.7386C99.7462 78.1359 105.004 74.6397 110.607 71.6116C110.467 71.5193 110.314 71.4591 110.175 71.3672C96.775 77.2933 84.915 85.453 74.0472 94.4472C61.9769 104.702 51.6874 116.692 44.4725 130.379C37.6263 144.137 33.9055 159.684 35.8081 175.607Z" fill="url(#paint7_linear_4352_28301)"/>
<path d="M53.1155 180.527C52.0928 188.133 51.641 195.854 52.0019 203.637C52.2898 207.369 52.7172 211.081 53.3602 214.806C53.7286 214.988 54.1351 215.186 54.5035 215.368C53.4363 203.799 54.0948 192.32 56.1502 181.209C58.9589 166.409 63.812 152.122 70.5194 138.715C76.8335 125.079 84.964 112.308 93.8692 100.029C98.3219 93.8886 103.055 87.9331 108.067 82.1622C110.459 79.453 112.876 76.68 115.371 74.048C115.04 73.8804 114.672 73.6982 114.329 73.5625C105.742 81.0216 98.3634 89.6599 91.2765 98.3394C81.7231 110.363 73.5166 123.326 66.797 136.986C60.2935 150.769 55.3399 165.311 53.1155 180.527Z" fill="url(#paint8_linear_4352_28301)"/>
<path d="M11.6564 164.032C13.8367 174.122 17.9204 183.856 23.2974 193.105C24.5183 194.474 25.8038 195.794 27.1516 197.065C25.5333 194.136 24.0543 191.19 22.6892 188.177C18.9402 180.273 16.1928 172.063 14.7524 163.889C13.4388 155.73 13.1283 147.486 14.7602 139.677C16.3025 131.871 19.4331 124.507 23.8215 117.861C32.4578 104.368 45.9237 93.9271 60.6629 85.3921C72.2342 78.7429 84.8613 73.3233 97.9859 68.7644C97.0715 68.6247 96.1578 68.5958 95.2186 68.6306C82.4605 72.2641 70.2127 77.0582 58.8047 83.071C43.3917 91.1919 29.6097 101.988 20.3011 115.843C11.1458 129.759 7.94914 147.1 11.6564 164.032Z" fill="url(#paint9_linear_4352_28301)"/>
<path d="M21.7011 166.707C22.6588 174.875 25.0001 182.998 28.2794 190.864C30.2187 195.211 32.3984 199.505 34.8954 203.667C35.4932 204.161 36.1415 204.639 36.8022 205.085C30.3018 192.66 25.7665 179.72 24.8357 166.802C23.5048 150.993 27.7587 135.657 36.2439 122.768C44.3994 109.602 56.4303 98.7786 69.6956 89.4023C76.3095 84.7071 83.4063 80.461 90.7575 76.5739C95.0162 74.2704 99.3637 72.0752 103.852 70.0836C103.394 70.0136 102.874 69.8819 102.353 69.75C89.991 74.3884 78.4053 80.2936 67.6597 87.1952C53.734 96.2359 41.4496 107.366 32.7112 120.782C24.1383 134.227 19.7721 150.293 21.7011 166.707Z" fill="url(#paint10_linear_4352_28301)"/>
<path d="M124.689 108.333C125.922 125.615 124.197 142.8 118.18 158.473C115.242 166.356 111.325 173.815 106.583 180.799C101.865 187.832 95.8515 194.019 89.6849 200.035C81.8082 207.148 72.9515 213.394 63.459 218.908C64.1576 219.147 64.8181 219.371 65.5291 219.578C66.9997 218.867 68.3941 218.126 69.7753 217.306L75.6561 213.908C77.5822 212.713 79.419 211.409 81.2815 210.152C85.1086 207.714 88.4648 204.795 92.0117 202.062C98.6735 196.242 104.737 189.816 109.785 182.73C114.756 175.613 118.875 167.975 122.004 159.947C127.893 143.707 129.666 126.061 127.735 108.429C126.402 97.4183 124.093 86.3176 120.159 75.5345C119.727 75.4008 119.245 75.284 118.737 75.1203C118.661 75.0903 118.572 75.092 118.457 75.0469C118.521 75.22 118.547 75.3779 118.572 75.5353C119.263 77.8016 119.865 80.0695 120.428 82.3226C122.656 90.9547 124.06 99.6677 124.689 108.333Z" fill="url(#paint11_linear_4352_28301)"/>
<path d="M129.942 80.8769C129.574 80.6946 129.218 80.4799 128.888 80.3125C131.626 84.4212 134.212 88.5807 136.544 92.8244C141.208 101.09 145.199 109.608 148.126 118.257C154.054 135.476 155.961 153.616 150.821 169.857C146.189 186.262 134.697 199.956 120.509 210.665C113.694 215.761 106.28 220.251 98.4844 224.258C100.223 224.206 101.974 224.123 103.725 223.929C110.342 220.675 116.691 216.982 122.684 212.854C137.584 202.352 149.633 188.139 154.72 171.139C159.732 154.109 157.759 135.242 151.018 117.739C146.179 105.011 139.272 92.8324 130.87 81.4277C130.591 81.2435 130.273 81.0442 129.942 80.8769Z" fill="url(#paint12_linear_4352_28301)"/>
<path d="M134.659 161.476C130.243 178.003 120.391 192.678 107.296 204.52C100.863 210.542 93.5278 215.838 85.7467 220.589C84.2892 221.49 82.832 222.39 81.2988 223.261C82.2 223.433 83.1648 223.555 84.0919 223.663C93.319 218.82 101.948 213.148 109.662 206.563C123.454 194.847 133.75 179.721 138.545 162.68C143.087 145.611 142.346 127.084 137.229 109.262C134.068 98.1948 129.551 87.3286 123.753 76.9162C123.765 76.8842 123.765 76.8842 123.689 76.8542C123.397 76.5913 123.104 76.3282 122.824 76.0329C122.482 76.0084 122.063 75.953 121.619 75.8516C122.906 78.3903 124.105 80.9313 125.202 83.5064C129.054 92.0417 132.12 100.784 134.247 109.561C138.603 127.08 139.355 145.022 134.659 161.476Z" fill="url(#paint13_linear_4352_28301)"/>
<path d="M55.9785 215.985C56.4358 216.165 56.8804 216.378 57.3502 216.527C59.262 214.588 61.1102 212.586 62.8952 210.523C68.3116 204.174 73.2837 197.501 77.8233 190.583C86.7635 176.655 93.4671 161.476 98.6973 145.898C103.636 130.168 107.114 114.119 111.38 98.3077C113.482 90.6479 115.761 82.9844 118.573 75.5322L118.737 75.1172C118.662 75.0872 118.573 75.0889 118.458 75.0438C117.95 74.8797 117.353 74.7179 116.807 74.5391C113.525 81.9535 110.839 89.6409 108.408 97.3547C103.457 113.006 100.03 129.149 94.8619 144.566C89.9229 160.075 83.3589 175.015 75.066 189.087C69.5297 198.527 63.0529 207.448 55.9785 215.985Z" fill="url(#paint14_linear_4352_28301)"/>
<path d="M135.906 85.7684C133.691 82.217 131.782 78.1396 132.856 73.5768C131.263 75.2727 131.249 76.8943 129.621 77.8331C129.309 76.9196 129.008 75.9837 128.63 75.0845C127.963 76.1789 126.441 76.9977 125.091 76.9759C124.952 75.8763 125.241 74.5754 124.8 73.5844C124.014 73.8771 121.938 75.4506 120.906 74.8524C120.013 74.3341 120.933 69.6103 120.905 68.8543C119.969 69.2029 117.618 73.9713 116.368 73.5221C115.318 73.1447 114.847 72.2173 114.374 71.2322C113.86 71.4529 113.542 71.2985 112.907 71.1985C111.608 70.9938 111.878 67.073 111.563 66.2667C111.135 67.0551 110.349 69.6392 109.458 69.7881C107.045 69.8046 105.28 66.2607 105.715 66.4474C102.25 69.2176 102.155 63.9538 102.051 61.7734C96.0732 68.0159 91.5859 68.9063 91.5859 68.9063C94.8494 71.4792 105.075 72.915 108.91 74.552C113.022 76.3073 117.262 78.0697 121.284 80.0291C125.228 81.9503 130.913 83.9879 135.906 85.7684Z" fill="url(#paint15_linear_4352_28301)"/>
<path opacity="0.21" d="M10.143 107.886C19.7959 95.0523 34.4846 86.5346 50.4863 80.6023C58.4994 77.6045 66.87 75.2643 75.3044 73.0977C80.1187 71.8626 85.9147 69.6816 91.6163 68.9242C91.6081 68.9177 91.5946 68.9124 91.5865 68.9059C91.5865 68.9059 96.0735 68.0159 102.052 61.7734C102.155 63.9536 102.251 69.2179 105.715 66.4469C105.28 66.2609 107.045 69.8046 109.459 69.7879C110.349 69.6391 111.136 67.055 111.564 66.2669C111.878 67.0729 111.608 70.9935 112.908 71.1982C113.542 71.2985 113.86 71.4531 114.374 71.2324C114.848 72.2175 115.318 73.1448 116.369 73.5223C117.619 73.971 119.97 69.2026 120.906 68.854C120.933 69.6102 120.013 74.3343 120.907 74.8517C121.938 75.4508 124.014 73.8768 124.801 73.5844C125.241 74.5749 124.952 75.8762 125.091 76.9754C126.441 76.9969 127.964 76.1786 128.631 75.0842C129.008 75.9836 129.31 76.9191 129.621 77.8329C131.249 76.894 131.263 75.2721 132.856 73.5761C131.782 78.1394 133.692 82.2163 135.906 85.7682C135.895 85.7643 135.883 85.7595 135.871 85.756C139.927 90.3491 142.831 96.437 145.725 100.925C150.399 108.272 154.909 115.702 158.709 123.368C166.333 138.636 171.231 154.894 169.504 170.859C166.919 194.681 147.051 213.407 122.727 220.443C116.462 222.25 110.094 223.425 103.725 223.935C101.974 224.129 100.223 224.212 98.4843 224.263C93.6625 224.425 88.8516 224.223 84.092 223.67C83.165 223.562 82.2001 223.44 81.2991 223.268C76.0053 222.505 70.7234 221.267 65.5288 219.583C64.8178 219.376 64.1572 219.152 63.4586 218.912C61.9984 218.372 60.5371 217.832 59.0514 217.245C58.4792 217.019 57.908 216.793 57.349 216.535C56.8791 216.387 56.4344 216.174 55.9772 215.993C55.4819 215.797 54.9991 215.569 54.5037 215.374C54.1353 215.191 53.7287 214.994 53.3604 214.811C52.0515 214.221 50.7557 213.598 49.5235 212.926C49.0788 212.714 48.6344 212.5 48.24 212.271C44.2381 210.136 40.4251 207.743 36.8019 205.094C36.1413 204.648 35.4932 204.17 34.8953 203.675C32.1876 201.609 29.6191 199.412 27.1513 197.072C25.8038 195.801 24.5183 194.481 23.2973 193.112C18.4117 187.971 14.0967 182.278 10.3896 176.052C-2.55475 154.288 -4.25489 127.039 10.143 107.886Z" fill="url(#paint16_radial_4352_28301)"/>
<path opacity="0.21" d="M10.143 107.886C19.7959 95.0523 34.4846 86.5346 50.4863 80.6023C58.4994 77.6045 66.87 75.2643 75.3044 73.0977C80.1187 71.8626 85.9147 69.6816 91.6163 68.9242C91.6081 68.9177 91.5946 68.9124 91.5865 68.9059C91.5865 68.9059 96.0735 68.0159 102.052 61.7734C102.155 63.9536 102.251 69.2179 105.715 66.4469C105.28 66.2609 107.045 69.8046 109.459 69.7879C110.349 69.6391 111.136 67.055 111.564 66.2669C111.878 67.0729 111.608 70.9935 112.908 71.1982C113.542 71.2985 113.86 71.4531 114.374 71.2324C114.848 72.2175 115.318 73.1448 116.369 73.5223C117.619 73.971 119.97 69.2026 120.906 68.854C120.933 69.6102 120.013 74.3343 120.907 74.8517C121.938 75.4508 124.014 73.8768 124.801 73.5844C125.241 74.5749 124.952 75.8762 125.091 76.9754C126.441 76.9969 127.964 76.1786 128.631 75.0842C129.008 75.9836 129.31 76.9191 129.621 77.8329C131.249 76.894 131.263 75.2721 132.856 73.5761C131.782 78.1394 133.692 82.2163 135.906 85.7682C135.895 85.7643 135.883 85.7595 135.871 85.756C139.927 90.3491 142.831 96.437 145.725 100.925C150.399 108.272 154.909 115.702 158.709 123.368C166.333 138.636 171.231 154.894 169.504 170.859C166.919 194.681 147.051 213.407 122.727 220.443C116.462 222.25 110.094 223.425 103.725 223.935C101.974 224.129 100.223 224.212 98.4843 224.263C93.6625 224.425 88.8516 224.223 84.092 223.67C83.165 223.562 82.2001 223.44 81.2991 223.268C76.0053 222.505 70.7234 221.267 65.5288 219.583C64.8178 219.376 64.1572 219.152 63.4586 218.912C61.9984 218.372 60.5371 217.832 59.0514 217.245C58.4792 217.019 57.908 216.793 57.349 216.535C56.8791 216.387 56.4344 216.174 55.9772 215.993C55.4819 215.797 54.9991 215.569 54.5037 215.374C54.1353 215.191 53.7287 214.994 53.3604 214.811C52.0515 214.221 50.7557 213.598 49.5235 212.926C49.0788 212.714 48.6344 212.5 48.24 212.271C44.2381 210.136 40.4251 207.743 36.8019 205.094C36.1413 204.648 35.4932 204.17 34.8953 203.675C32.1876 201.609 29.6191 199.412 27.1513 197.072C25.8038 195.801 24.5183 194.481 23.2973 193.112C18.4117 187.971 14.0967 182.278 10.3896 176.052C-2.55475 154.288 -4.25489 127.039 10.143 107.886Z" fill="url(#paint17_linear_4352_28301)"/>
<path opacity="0.29" d="M134.698 105.949C138.953 110.447 142.443 116.426 144.734 120.974C155.622 142.588 156.66 175.372 134.574 190.379C127.756 195.012 115.902 196.641 110.047 190.411C104.119 184.104 103.73 175.289 104.533 166.609C105.814 152.759 108.14 138.862 108.675 125.003C108.954 117.751 109.176 106.825 115.411 102.144C122.489 96.8295 129.226 100.164 134.698 105.949Z" fill="#E582BC"/>
<path opacity="0.14" d="M41.5649 119.631C43.1638 127.851 40.8161 136.341 39.1355 144.225C37.5481 151.67 37.4994 160.981 31.9181 166.785C27.9336 170.929 22.1301 168.201 18.8676 163.705C15.5617 159.148 14.5735 153.536 14.0525 148.133C13.2925 140.252 13.3488 132.233 15.5559 124.741C17.0936 119.522 19.9125 114.371 24.8458 111.724C31.4971 108.154 40.0933 112.187 41.5649 119.631Z" fill="#E582BC"/>
<defs>
<linearGradient id="paint0_linear_4352_28301" x1="227.184" y1="51.968" x2="144.723" y2="145.075" gradientUnits="userSpaceOnUse">
<stop stop-color="white"/>
<stop offset="0.1056" stop-color="#FDFAFD"/>
<stop offset="0.2292" stop-color="#F9ECF8"/>
<stop offset="0.362" stop-color="#F1D4F0"/>
<stop offset="0.5013" stop-color="#E6B3E5"/>
<stop offset="0.6456" stop-color="#D889D6"/>
<stop offset="0.7941" stop-color="#C655C4"/>
<stop offset="0.9433" stop-color="#B219AF"/>
<stop offset="1" stop-color="#AA00A6"/>
</linearGradient>
<linearGradient id="paint1_linear_4352_28301" x1="233.385" y1="140.911" x2="120.748" y2="192.979" gradientUnits="userSpaceOnUse">
<stop stop-color="white"/>
<stop offset="0.1056" stop-color="#FDFAFD"/>
<stop offset="0.2292" stop-color="#F9ECF8"/>
<stop offset="0.362" stop-color="#F1D4F0"/>
<stop offset="0.5013" stop-color="#E6B3E5"/>
<stop offset="0.6456" stop-color="#D889D6"/>
<stop offset="0.7941" stop-color="#C655C4"/>
<stop offset="0.9433" stop-color="#B219AF"/>
<stop offset="1" stop-color="#AA00A6"/>
</linearGradient>
<linearGradient id="paint2_linear_4352_28301" x1="47.4444" y1="266.453" x2="56.9365" y2="209.819" gradientUnits="userSpaceOnUse">
<stop stop-color="#B35543"/>
<stop offset="0.348" stop-color="#B4503E"/>
<stop offset="0.7847" stop-color="#B5432E"/>
<stop offset="0.8949" stop-color="#B63F29"/>
</linearGradient>
<linearGradient id="paint3_linear_4352_28301" x1="103.971" y1="75.4661" x2="147.324" y2="44.1092" gradientUnits="userSpaceOnUse">
<stop stop-color="#449400"/>
<stop offset="0.2055" stop-color="#499900"/>
<stop offset="0.4425" stop-color="#57A701"/>
<stop offset="0.6949" stop-color="#6EBE02"/>
<stop offset="0.9567" stop-color="#8EDE04"/>
<stop offset="1" stop-color="#94E404"/>
</linearGradient>
<linearGradient id="paint4_linear_4352_28301" x1="100.93" y1="65.7874" x2="144.159" y2="34.5211" gradientUnits="userSpaceOnUse">
<stop stop-color="#449400"/>
<stop offset="0.2055" stop-color="#499900"/>
<stop offset="0.4425" stop-color="#57A701"/>
<stop offset="0.6949" stop-color="#6EBE02"/>
<stop offset="0.9567" stop-color="#8EDE04"/>
<stop offset="1" stop-color="#94E404"/>
</linearGradient>
<linearGradient id="paint5_linear_4352_28301" x1="168.856" y1="19.5831" x2="109.677" y2="61.6377" gradientUnits="userSpaceOnUse">
<stop offset="0.141" stop-color="white"/>
<stop offset="0.2134" stop-color="#FCFEFB"/>
<stop offset="0.2783" stop-color="#F1F9F1"/>
<stop offset="0.3405" stop-color="#E0F2DE"/>
<stop offset="0.4009" stop-color="#C7E8C4"/>
<stop offset="0.4601" stop-color="#A8DBA3"/>
<stop offset="0.5183" stop-color="#81CA7A"/>
<stop offset="0.5747" stop-color="#54B84B"/>
<stop offset="0.6231" stop-color="#27A51C"/>
<stop offset="0.8949" stop-color="#159C08"/>
<stop offset="0.9174" stop-color="#149607"/>
<stop offset="0.9468" stop-color="#118605"/>
<stop offset="0.9798" stop-color="#0C6B02"/>
<stop offset="1" stop-color="#085700"/>
</linearGradient>
<linearGradient id="paint6_linear_4352_28301" x1="168.79" y1="177.4" x2="6.18811" y2="113.146" gradientUnits="userSpaceOnUse">
<stop stop-color="#D64488"/>
<stop offset="0.2382" stop-color="#D34086"/>
<stop offset="0.4911" stop-color="#CC337E"/>
<stop offset="0.7499" stop-color="#BF1E73"/>
<stop offset="1" stop-color="#AF0263"/>
</linearGradient>
<linearGradient id="paint7_linear_4352_28301" x1="159.384" y1="173.573" x2="18.39" y2="117.857" gradientUnits="userSpaceOnUse">
<stop stop-color="#CB2779"/>
<stop offset="0.5396" stop-color="#BD1B76"/>
<stop offset="1" stop-color="#AE0E72"/>
</linearGradient>
<linearGradient id="paint8_linear_4352_28301" x1="159.207" y1="174.02" x2="18.2123" y2="118.304" gradientUnits="userSpaceOnUse">
<stop stop-color="#CB2779"/>
<stop offset="0.5396" stop-color="#BD1B76"/>
<stop offset="1" stop-color="#AE0E72"/>
</linearGradient>
<linearGradient id="paint9_linear_4352_28301" x1="160.204" y1="171.496" x2="19.2097" y2="115.781" gradientUnits="userSpaceOnUse">
<stop stop-color="#CB2779"/>
<stop offset="0.5396" stop-color="#BD1B76"/>
<stop offset="1" stop-color="#AE0E72"/>
</linearGradient>
<linearGradient id="paint10_linear_4352_28301" x1="159.655" y1="172.883" x2="18.6612" y2="117.168" gradientUnits="userSpaceOnUse">
<stop stop-color="#CB2779"/>
<stop offset="0.5396" stop-color="#BD1B76"/>
<stop offset="1" stop-color="#AE0E72"/>
</linearGradient>
<linearGradient id="paint11_linear_4352_28301" x1="159.264" y1="173.876" x2="18.2705" y2="118.161" gradientUnits="userSpaceOnUse">
<stop stop-color="#CB2779"/>
<stop offset="0.5396" stop-color="#BD1B76"/>
<stop offset="1" stop-color="#AE0E72"/>
</linearGradient>
<linearGradient id="paint12_linear_4352_28301" x1="160.487" y1="170.779" x2="19.4942" y2="115.064" gradientUnits="userSpaceOnUse">
<stop stop-color="#CB2779"/>
<stop offset="0.5396" stop-color="#BD1B76"/>
<stop offset="1" stop-color="#AE0E72"/>
</linearGradient>
<linearGradient id="paint13_linear_4352_28301" x1="159.818" y1="172.47" x2="18.8247" y2="116.755" gradientUnits="userSpaceOnUse">
<stop stop-color="#CB2779"/>
<stop offset="0.5396" stop-color="#BD1B76"/>
<stop offset="1" stop-color="#AE0E72"/>
</linearGradient>
<linearGradient id="paint14_linear_4352_28301" x1="159.231" y1="173.96" x2="18.2355" y2="118.245" gradientUnits="userSpaceOnUse">
<stop stop-color="#CB2779"/>
<stop offset="0.5396" stop-color="#BD1B76"/>
<stop offset="1" stop-color="#AE0E72"/>
</linearGradient>
<linearGradient id="paint15_linear_4352_28301" x1="193.58" y1="101.339" x2="44.8386" y2="46.4169" gradientUnits="userSpaceOnUse">
<stop stop-color="#CB2779"/>
<stop offset="0.5396" stop-color="#BD1B76"/>
<stop offset="1" stop-color="#AE0E72"/>
</linearGradient>
<radialGradient id="paint16_radial_4352_28301" cx="0" cy="0" r="1" gradientUnits="userSpaceOnUse" gradientTransform="translate(88.5875 142.5) rotate(-158.438) scale(83.9679 83.9679)">
<stop offset="0.141" stop-color="white"/>
<stop offset="0.2141" stop-color="#FEFBFD"/>
<stop offset="0.2797" stop-color="#FBF1F6"/>
<stop offset="0.3425" stop-color="#F5DEEB"/>
<stop offset="0.4036" stop-color="#EDC4DB"/>
<stop offset="0.4633" stop-color="#E3A3C6"/>
<stop offset="0.5222" stop-color="#D67AAD"/>
<stop offset="0.5791" stop-color="#C84B8F"/>
<stop offset="0.6231" stop-color="#BB2175"/>
<stop offset="0.8949" stop-color="#B40C68"/>
<stop offset="0.9694" stop-color="#B10665"/>
<stop offset="1" stop-color="#AF0263"/>
</radialGradient>
<linearGradient id="paint17_linear_4352_28301" x1="169.888" y1="174.627" x2="7.28659" y2="110.373" gradientUnits="userSpaceOnUse">
<stop offset="0.141" stop-color="white"/>
<stop offset="0.2141" stop-color="#FEFBFD"/>
<stop offset="0.2797" stop-color="#FBF1F6"/>
<stop offset="0.3425" stop-color="#F5DEEB"/>
<stop offset="0.4036" stop-color="#EDC4DB"/>
<stop offset="0.4633" stop-color="#E3A3C6"/>
<stop offset="0.5222" stop-color="#D67AAD"/>
<stop offset="0.5791" stop-color="#C84B8F"/>
<stop offset="0.6231" stop-color="#BB2175"/>
<stop offset="0.8949" stop-color="#B40C68"/>
<stop offset="0.9694" stop-color="#B10665"/>
<stop offset="1" stop-color="#AF0263"/>
</linearGradient>
</defs>
</svg>
