<svg width="288" height="316" viewBox="0 0 288 316" fill="none" xmlns="http://www.w3.org/2000/svg">
<path opacity="0.25" d="M150.63 315.658C226.073 315.658 287.232 308.351 287.232 299.337C287.232 290.323 226.073 283.016 150.63 283.016C75.1863 283.016 14.0273 290.323 14.0273 299.337C14.0273 308.351 75.1863 315.658 150.63 315.658Z" fill="black"/>
<path d="M103.36 62.6612C101.58 66.1272 98.9909 68.6228 95.4891 70.1388C93.2262 71.1182 92.0812 72.5806 92.4211 75.0762C91.294 75.2999 91.701 76.1897 91.6384 76.8785C89.4246 85.1612 85.3771 92.357 78.9729 98.1264C78.0604 98.9492 78.4944 99.7007 78.6464 100.532C77.1303 101.619 68.9147 105.251 65.6232 105.099C61.4639 105.899 57.3629 105.479 53.311 104.432C46.4235 102.652 41.2805 98.4215 37.3538 92.6791C34.5542 88.5825 31.902 84.3785 29.6525 79.942C28.8476 78.3498 27.9755 76.8025 26.7545 75.4875C26.987 74.8391 26.5532 74.365 26.3341 73.8239C25.1176 70.8141 23.9145 67.7997 22.707 64.7854C23.9056 62.9831 25.8331 62.102 27.6667 61.3104C38.2615 56.7307 48.0917 51.1583 54.8403 41.373C56.7903 38.542 58.9413 35.8005 59.4824 32.2495C59.6165 31.9409 59.7553 31.6367 59.8894 31.3281C60.7123 32.3792 60.5199 33.676 60.7749 34.8658C62.0539 40.7602 64.3214 45.9526 70.6229 48.1306C70.936 48.3094 71.2311 48.5868 71.5664 48.6495C74.6837 49.2577 77.2106 50.8141 79.147 53.3185C80.69 55.3221 82.1837 57.3614 83.7802 59.3203C84.3526 60.0179 84.9475 61.1226 86.1102 60.5994C87.3043 60.0583 87.0583 58.9044 86.8705 57.8535C86.6647 56.6862 86.4188 55.5144 86.3026 54.3338C85.7704 49.0431 87.4608 46.6548 93.4582 44.1369C101.679 43.5691 108.052 53.502 103.36 62.6612Z" fill="#FEAF8D"/>
<path d="M107.683 76.8704C115.036 75.3778 122.372 76.0292 129.656 77.2593C136.356 78.3907 142.825 80.366 148.867 83.5681C148.883 84.0349 149.048 84.4164 149.434 84.711C155.116 89.0449 160.498 93.6817 164.533 99.6774C162.396 105.027 159.913 110.241 158.219 115.765C157.236 117.124 157.131 118.805 156.666 120.334C156.166 121.981 155.479 121.818 154.309 121.153C151.422 119.511 148.485 117.959 145.598 116.319C142.464 114.54 139.365 112.702 136.251 110.89C135.893 109.801 134.746 109.785 133.997 109.228C133.123 108.579 131.802 108.33 131.507 107.144C129.848 100.474 128.12 93.8149 129.08 86.8064C129.225 85.7464 129.877 84.6323 129.289 83.0564C125.41 91.5469 128.413 99.4964 130.074 108.059C128.916 106.832 128.307 106.094 127.601 105.466C126.958 104.894 126.843 103.741 125.401 103.529C128.023 108.46 131.127 112.612 135.014 116.179C137.103 118.421 139.193 120.663 141.282 122.905C142.635 124.935 144.021 126.944 145.336 128.998C149.169 134.984 152.336 141.316 155.061 147.874C152.922 150.294 150.718 152.659 148.666 155.15C147.047 157.116 145.236 158.358 142.575 157.753C141.51 155.862 142.918 154.345 143.393 152.713C143.948 150.809 145.077 149.069 145.148 146.454C143.368 149.136 142.372 151.591 141.56 154.112C141.113 155.503 140.459 155.831 139.108 155.243C138.052 154.783 137.022 154.313 135.791 154.139C133.461 153.81 131.182 153.661 128.599 154.413C129.533 151.448 131.785 150.302 133.693 148.849C134.126 148.519 134.595 148.218 134.44 147.618C134.268 146.955 133.643 147.078 133.141 147.052C129.921 146.882 126.794 147.341 123.756 148.429C112.698 152.391 106.77 161.278 101.894 171.178C99.0223 171.193 96.1227 171.492 93.3643 170.345C94.0284 170.335 94.6923 170.33 95.3558 170.312C96.1985 170.289 96.6811 170.118 96.0301 169.15C93.4951 165.383 91.0477 161.555 88.451 157.831C87.8217 156.928 87.433 155.55 85.913 155.56C85.8819 154.45 85.2846 153.617 84.6235 152.789C79.3407 146.172 74.3335 139.37 70.1012 132.01C67.911 128.201 66.2899 124.135 64.3438 120.219C64.3438 119.784 64.3438 119.349 64.3438 118.184C65.0661 119.595 65.8101 119.948 66.7186 119.731C69.016 119.181 71.3677 118.775 73.5859 117.994C78.6955 116.195 83.4402 113.574 88.2815 111.169C93.7325 108.461 99.0247 105.607 102.907 100.695C108.559 93.5444 111.494 85.8958 107.683 76.8704Z" fill="#EFEFE8"/>
<path d="M198.79 117.797C197.39 113.705 194.224 111.08 190.659 108.969C185.431 105.879 180.131 102.914 174.769 100.056C172.381 98.7813 169.617 98.1284 167.658 96.08C167.028 96.0754 166.361 96.0264 166.308 96.9341C168.271 96.6569 167.479 97.7661 167.072 98.5486C165.427 101.711 164.398 105.069 163.593 108.531C162.636 112.668 163.356 116.559 164.93 120.378C165.042 120.66 165.225 120.879 164.975 121.161C167.153 122.243 169.308 123.365 171.509 124.399C172.998 125.092 173.387 125.816 172.184 127.221C169.255 130.642 166.433 134.157 163.566 137.632C160.753 140.038 158.995 143.379 156.294 145.866C155.641 146.469 155.829 147.44 155.06 147.874C152.922 150.293 150.717 152.659 148.664 155.15C147.045 157.114 145.234 158.357 142.573 157.749C140.498 156.805 138.463 155.897 136.097 155.669C132.251 155.298 128.288 153.576 125.14 157.355C124.63 157.968 123.36 157.458 123.355 158.674C125.185 158.084 126.875 158.719 128.454 159.471C131.508 160.92 131.906 164.072 129.379 166.331C128.575 167.051 127.613 167.601 126.401 168.451C128.959 169.301 131.262 169.609 133.575 169.873C135.927 170.142 138.279 170.419 140.641 170.602C143.056 170.79 144.813 171.979 146.146 173.916C146.177 175.016 146.312 176.098 145.918 177.194C145.292 178.929 146.974 179.779 147.542 181.063C148.373 180.812 148.208 179.726 148.892 179.395C152.725 177.543 155.529 174.318 158.789 171.742C162.814 168.567 166.187 164.573 169.898 160.991C171.026 159.909 171.884 158.513 173.369 157.816C180.341 150.714 187.363 143.652 193.655 135.933C196.164 132.856 198.794 129.752 199.389 125.571C200.444 122.887 199.644 120.297 198.79 117.797ZM147.113 174.229C148.056 174.488 148.781 174.51 149.416 174.26C148.781 174.515 148.056 174.488 147.113 174.229ZM172.274 150.315C172.081 150.517 171.858 150.678 171.612 150.816C171.858 150.673 172.077 150.508 172.274 150.315C172.417 150.168 172.546 150.002 172.667 149.814C172.551 150.002 172.421 150.172 172.274 150.315Z" fill="#FEAF8D"/>
<path d="M260.227 291.526C258.925 294.164 257.79 296.901 255.258 298.704C249.99 302.456 240.469 302.671 234.265 298.493C230.285 295.814 227.915 292.031 226.698 287.46C229.708 287.411 232.687 287.679 235.62 288.39C237.078 288.408 238.536 288.431 239.999 288.449C242.114 288.762 244.23 289.075 246.35 289.392C248.331 289.316 250.312 289.2 252.293 289.178C254.485 289.16 255.285 288.109 254.896 285.998C254.78 285.354 254.784 284.683 254.731 284.021C253.255 278.9 250.075 274.781 246.761 270.783C242.298 265.398 237.624 260.206 232.485 255.443C228.25 251.516 223.698 248.131 218.089 246.414C216.989 246.118 215.969 246.024 215.021 246.118C214.113 246.203 213.268 246.463 212.485 246.883C212.481 246.883 212.481 246.883 212.477 246.883C214.024 243.001 220.164 242.97 222.28 243.48C226.055 244.388 229.212 246.414 232.11 248.9C240.67 256.239 248.125 264.616 254.896 273.592C256.658 275.922 258.523 278.31 259.279 281.271C259.015 282.662 260.151 283.637 260.33 284.974C260.629 287.201 260.361 289.343 260.227 291.526Z" fill="#E5E1D7"/>
<path d="M43.6517 288.488C42.5661 286.787 42.9935 284.84 42.7617 283C42.9471 275.213 46.8112 268.806 50.6412 262.443C60.1151 246.704 70.4844 231.555 81.1897 216.634C81.3579 216.399 81.5872 216.208 81.7883 215.997C81.9752 216.087 82.2117 216.3 82.3415 216.248C85.4638 214.992 88.327 213.252 91.1608 211.461C91.3839 211.473 91.6183 211.444 91.8284 211.503C98.3294 213.308 104.917 214.642 111.665 215.04C112.916 215.114 113.432 215.933 113.944 216.846C113.96 217.587 113.976 218.327 113.992 219.068C113.987 220.333 113.99 221.599 113.974 222.864C113.962 223.833 113.622 224.034 112.748 223.484C110.738 222.22 108.527 221.319 106.549 219.969C104.961 218.885 103.3 217.831 101.155 217.731C103.253 219.26 105.351 220.788 107.449 222.317C104.863 222.203 103.454 219.543 100.747 219.446C102.162 224.778 106.754 227.742 109.441 232.071C108.095 232.488 105.879 232.042 107.112 234.641C107.208 234.844 106.818 235.269 106.669 235.597C104.865 239.557 101.995 242.818 99.4323 246.243C95.2625 251.816 91.4314 257.617 87.4204 263.295C85.2128 266.42 82.9929 269.557 81.0793 272.863C79.735 275.185 77.4597 277.366 78.7365 280.558C79.1139 281.501 78.2625 281.981 77.7199 282.328C74.9801 284.078 72.1786 285.698 68.9931 286.588C62.5172 288.397 55.9572 288.979 49.2578 288.438C47.9195 288.329 46.6302 288.018 45.3056 287.883C44.5746 287.808 43.9925 287.693 43.6517 288.488Z" fill="#BB6241"/>
<path d="M70.6217 48.134C64.3197 45.9551 62.0557 40.7634 60.777 34.8682C60.5186 33.6768 60.7125 32.3801 59.8883 31.3313C61.0624 29.3732 62.0938 27.3578 62.4824 25.014C60.0226 26.414 58.4221 28.6748 56.481 30.5086C50.1779 36.4621 43.2214 41.3695 35.4755 45.2287C29.235 48.3379 22.7647 50.7314 15.9496 52.2548C12.8795 52.9411 9.87937 53.7406 6.73704 52.7944C6.22857 52.6412 5.7035 52.6082 5.30592 53.0896C4.45117 53.0337 3.76899 52.5533 3.07625 52.1358C-0.897249 49.7415 -1.037 46.538 2.7477 43.9142C4.83309 42.4683 7.15744 41.4463 9.43803 40.3499C10.1572 40.0042 11.0036 39.8268 11.5406 39.0446C9.77375 37.7927 7.76286 36.9313 6.15294 35.4687C5.32365 34.7152 4.50549 33.9687 3.9129 32.9989C2.00895 29.8834 3.19658 27.027 6.77457 26.3258C10.783 25.5402 14.8113 24.8573 18.8261 24.1046C19.6155 23.9565 20.3833 23.6942 21.1914 23.4765C20.9709 22.1035 19.877 21.413 19.2586 20.4257C17.4397 17.5221 17.7809 14.8555 20.4466 12.729C25.1902 8.94483 30.8392 7.27003 36.6556 6.27194C44.6411 4.90174 52.5211 5.11015 60.2657 9.5014C59.2382 7.74399 58.3555 6.43358 57.68 5.02396C56.9891 3.58208 56.5444 1.90879 57.9382 0.698146C59.4411 -0.607367 61.0607 0.129317 62.4071 1.18531C65.5044 3.61414 67.1241 7.03617 68.6246 10.6553C71.2332 8.50369 74.2754 7.27098 77.7308 7.11047C78.868 7.05767 79.9729 7.22986 81.0196 7.62008C82.1567 8.04387 82.8316 8.93502 82.8766 10.1643C82.9226 11.4204 82.3044 12.2971 81.0868 12.682C80.1198 12.9877 79.1393 13.2505 78.1389 13.5398C78.5391 14.3206 79.5499 14.0456 79.9938 14.6855C79.3613 14.744 79.1404 15.0569 79.6889 15.4698C80.3584 15.9739 80.9487 16.5952 81.0127 17.3675C81.3799 21.7921 81.6483 26.2507 80.3578 30.5669C79.4437 33.6247 79.0323 36.9772 75.7878 38.8909C74.7361 39.5112 73.1258 40.5312 73.3814 41.8852C73.9242 44.7614 72.2498 46.373 70.6217 48.134Z" fill="#5E3F37"/>
<path d="M90.7422 203.939C91.9149 201.228 93.0878 198.517 94.261 195.807C94.6278 197.255 95.826 196.532 96.6696 196.722C97.3476 196.875 98.3621 196.363 98.6377 197.298C99.345 199.696 101.537 199.882 103.334 200.492C105.642 201.274 108.035 201.921 110.442 202.271C113.804 202.76 117.173 203.395 120.636 203.092C115.077 201.325 109.518 199.557 103.959 197.79C104.008 197.598 104.056 197.406 104.105 197.214C110.387 197.051 116.681 196.943 122.919 197.866C127.648 198.567 132.357 198.559 137.099 198.28C133.747 198.175 130.54 197.35 127.037 196.807C130.9 194.817 135.069 195.323 138.461 192.405C141.619 189.688 145.485 187.805 148.101 184.34C149.546 182.426 151.48 180.923 153.697 180.007C158.427 178.053 163.269 176.431 168.33 175.489C169.665 175.241 169.944 175.597 169.88 176.747C169.848 177.342 169.936 177.955 169.822 178.531C168.486 185.295 166.549 191.906 164.767 198.559C164.374 200.023 163.405 200.402 162.233 200.647C159.044 201.314 155.846 201.939 152.647 202.555C150.215 203.023 147.776 203.454 145.34 203.901C149.85 204.039 154.265 203.624 158.652 202.904C160.072 202.671 161.937 201.273 162.782 202.453C163.621 203.622 162.433 205.498 161.824 206.989C159.99 207.417 158.156 207.846 156.322 208.274C150.119 209.04 143.885 209.416 137.649 209.763C131.557 209.764 125.466 209.765 119.374 209.766C118.71 209.712 118.048 209.645 117.383 209.606C109.318 209.128 101.38 207.967 93.7355 205.222C92.9249 204.358 91.8308 204.154 90.7422 203.939Z" fill="#EFEEE7"/>
<path d="M102.905 100.693C99.0234 105.608 93.7327 108.461 88.2812 111.172C83.4422 113.573 78.6971 116.194 73.5852 117.996C71.367 118.775 69.0146 119.182 66.7202 119.732C65.8123 119.951 65.0654 119.598 64.3455 118.184V120.219C63.764 120.586 63.9966 121.078 64.0592 121.601C64.5288 125.577 65.6602 129.419 66.5906 133.287C68.3707 140.715 70.2399 148.095 69.7301 155.845C69.6407 157.192 69.4393 158.028 67.8965 157.844C65.155 157.826 63.2365 155.693 60.7319 155.063C59.5825 153.596 57.9903 153.224 56.2327 153.278C56.3579 152.361 55.9106 151.695 55.2488 151.163C51.9169 148.47 51.7202 145.085 52.9276 141.301C55.8972 131.995 58.3347 122.509 62.087 113.466C63.2454 110.671 64.6808 107.987 65.6246 105.098C68.9161 105.25 77.1319 101.619 78.6479 100.532C79.9805 101.941 80.7721 104.011 83.1291 104.15C87.3151 105.55 91.1389 103.922 94.4796 101.967C100.168 98.6356 103.317 93.1303 104.471 86.7438C105.276 82.276 103.424 77.6606 98.3303 78.2017C101.38 77.2983 104.48 76.7123 107.682 76.8691C111.492 85.8941 108.558 93.5463 102.905 100.693Z" fill="#C9C2B2"/>
<path d="M252.294 289.172C250.312 289.195 248.331 289.311 246.35 289.387C244.23 289.069 242.115 288.756 239.999 288.443C240.344 288.363 240.8 288.39 241.01 288.175C241.229 287.947 240.898 287.625 240.63 287.598C239.118 287.459 239.583 286.373 239.588 285.501C238.398 286.435 237.575 285.912 236.904 284.816C235.867 283.336 234.927 281.833 235.71 279.915C234.355 281.064 233.228 282.428 232.128 283.819C231.332 284.821 230.37 286.073 229.069 284.942C227.794 283.837 228.877 282.67 229.7 281.699C231.081 280.067 232.472 278.448 233.863 276.82C232.173 275.684 230.777 276.395 229.297 277.379C228.42 277.965 227.53 279.262 226.426 278.707C225.169 278.068 225.889 276.547 225.809 275.42C225.715 274.087 225.768 272.741 225.791 271.404C225.804 270.572 225.58 269.865 225.174 269.105C223.895 266.713 221.989 264.95 219.615 263.886C214.928 261.789 210.129 259.955 205.375 258.009C205.294 257.991 205.214 257.983 205.129 257.983C206.082 255 207.468 252.249 209.342 249.722C210.281 248.457 211.318 247.491 212.486 246.878C213.268 246.458 214.114 246.198 215.022 246.113C215.97 246.019 216.989 246.113 218.09 246.408C223.698 248.126 228.251 251.511 232.486 255.438C237.625 260.201 242.298 265.393 246.761 270.778C250.075 274.776 253.255 278.895 254.731 284.016C254.785 284.678 254.78 285.349 254.896 285.992C255.286 288.103 254.485 289.154 252.294 289.172Z" fill="#3E5358"/>
<path d="M161.825 206.988C162.434 205.496 163.621 203.621 162.783 202.451C161.937 201.272 160.073 202.669 158.652 202.903C154.266 203.623 149.851 204.037 145.341 203.9C147.777 203.452 150.216 203.022 152.647 202.553C155.847 201.937 159.045 201.313 162.233 200.646C163.406 200.4 164.375 200.022 164.768 198.557C166.55 191.905 168.486 185.293 169.823 178.529C169.937 177.954 169.848 177.34 169.881 176.746C169.945 175.595 169.666 175.239 168.331 175.488C163.269 176.43 158.428 178.052 153.698 180.006C151.481 180.922 149.546 182.425 148.102 184.338C145.485 187.804 141.62 189.687 138.461 192.404C135.07 195.322 130.901 194.815 127.038 196.805C130.541 197.349 133.748 198.174 137.1 198.279C132.358 198.558 127.649 198.565 122.919 197.865C116.682 196.942 110.387 197.049 104.105 197.213C104.057 197.405 104.009 197.597 103.96 197.789C109.519 199.556 115.078 201.323 120.637 203.09C117.173 203.394 113.804 202.758 110.443 202.269C108.035 201.919 105.643 201.273 103.335 200.49C101.537 199.881 99.3457 199.695 98.6384 197.296C98.3629 196.362 97.3484 196.874 96.6704 196.721C95.8267 196.53 94.6284 197.253 94.2617 195.806C94.9645 194.218 95.7117 192.647 96.0768 190.933C97.0461 191.896 98.3106 192.608 99.5601 192.605C103.956 192.595 108.332 192.624 112.655 193.547C113.827 193.705 114.999 193.863 116.172 194.021C117.478 195.21 119.144 195.205 120.745 195.356C125.766 195.831 130.425 194.217 135.014 192.581C138.035 191.504 141.029 190.145 143.059 187.413C145.087 185.676 147.471 184.19 147.539 181.069C148.373 180.817 148.208 179.728 148.89 179.398C152.724 177.547 155.528 174.322 158.791 171.746C162.814 168.571 166.186 164.576 169.899 160.997C171.025 159.912 171.885 158.519 173.369 157.82C172.741 158.689 172.477 159.507 172.794 160.689C175.315 170.08 177.077 179.634 178.235 189.278C178.729 193.391 179.198 197.561 178.75 201.739C173.391 204.401 167.696 205.978 161.825 206.988Z" fill="#C9C1B2"/>
<path d="M177.421 223.087C176.844 228.392 175.4 233.507 174.071 238.653C172.389 245.166 170.179 251.511 168.124 257.907C166.725 258.625 167.435 260.045 167.061 261.104C166.033 263.233 164.991 265.354 163.98 267.491C162.023 271.629 160.385 275.925 156.238 278.61C153.789 280.195 151.139 281.617 149.418 284.156C149.168 284.524 148.508 284.472 148.181 284.18C146.939 283.072 145.628 282.128 146.02 279.977C146.505 277.311 147.656 274.879 148.708 272.515C151.36 266.553 153.585 260.423 156.187 254.447C157.746 250.864 159.271 247.264 160.682 243.621C161.901 240.474 162.696 237.145 164.107 234.095C166.564 228.781 168.145 223.19 169.774 217.617C170.766 214.222 170.565 214.161 173.493 215.895C175.756 217.236 177.664 218.785 177.045 221.858C176.957 222.293 177.051 222.752 177.421 223.087Z" fill="#B45C3E"/>
<path d="M177.42 223.093C177.051 222.759 176.957 222.3 177.044 221.865C177.663 218.792 175.756 217.243 173.492 215.902C170.564 214.167 170.766 214.229 169.773 217.624C168.144 223.197 166.564 228.788 164.106 234.102C162.695 237.152 161.901 240.481 160.682 243.628C159.271 247.27 157.746 250.871 156.186 254.454C153.585 260.43 151.36 266.56 148.707 272.521C147.655 274.886 146.505 277.317 146.019 279.983C145.628 282.134 146.938 283.078 148.18 284.187C148.508 284.479 149.168 284.531 149.417 284.163C151.138 281.624 153.788 280.201 156.237 278.617C160.385 275.932 162.023 271.636 163.98 267.498C164.99 265.361 166.032 263.239 167.061 261.111C167.165 262.845 168.476 262.41 169.509 262.474C169.838 262.603 170.593 262.257 170.385 263.001C169.656 265.624 170.088 268.433 168.94 271.001C167.947 273.221 167.079 275.51 166.358 277.832C166.022 278.911 164.515 280.172 165.42 280.956C166.489 281.881 168.073 280.775 169.384 280.348C175.354 278.406 181.317 276.442 187.274 274.462C191.18 273.164 195.072 271.825 198.97 270.505C199.721 271.743 200.558 272.954 200.281 274.528C199.761 274.198 199.864 273.662 199.83 273.17C198.828 271.719 197.491 272.191 196.236 272.62C191.349 274.293 186.492 276.053 181.599 277.708C175.212 279.867 168.846 282.106 162.385 284.02C158.329 285.222 154.33 287.013 149.86 286.191C145.841 285.45 143.298 282.354 144.876 278.575C147.131 273.177 149.014 267.634 151.379 262.274C153.021 258.554 154.158 254.608 155.854 250.917C158.851 244.393 160.98 237.532 163.872 230.974C164.232 230.157 164.052 229.453 163.171 229.177C161.942 228.791 160.957 228.021 159.87 227.395C156.145 225.247 153.195 222.375 151.072 218.645C151.524 218.726 151.977 219.344 152.427 218.641C155.435 222.036 158.729 225.07 162.603 227.507C164.114 228.457 164.854 228.409 165.391 226.76C166.444 223.528 167.608 220.334 168.307 216.987C168.578 215.691 168.554 215.423 167.072 215.425C162.843 215.43 158.608 215.783 154.37 215.141C153.219 214.967 151.523 214.15 150.63 215.951C149.282 214.915 148.833 213.33 148.08 211.911C146.995 209.868 147.016 209.782 149.379 209.681C151.769 209.579 154.155 209.396 156.541 209.216C156.922 209.187 157.537 209.18 157.334 208.543C157.277 208.365 156.677 208.36 156.326 208.276C158.16 207.847 159.994 207.419 161.828 206.991C167.699 205.982 173.394 204.404 178.752 201.742C178.949 206.923 179.082 212.072 178.075 217.236C177.709 219.111 177.562 221.13 177.42 223.093Z" fill="#9D462A"/>
<path d="M5.30469 53.0911C5.70226 52.61 6.22733 52.643 6.73581 52.796C9.87794 53.7422 12.8782 52.9427 15.9483 52.2564C22.7635 50.7328 29.2337 48.3393 35.4743 45.2303C43.2202 41.3711 50.1767 36.4639 56.4798 30.5102C58.4211 28.6766 60.0216 26.4158 62.4811 25.0156C62.0926 27.3596 61.0613 29.3748 59.8871 31.3329C59.7522 31.6396 59.6174 31.946 59.4822 32.252C55.3202 37.4795 51.7466 43.1853 46.52 47.5353C40.1882 52.805 33.5581 57.4226 25.2674 59.0874C20.8358 59.9774 20.8511 60.0604 22.4291 64.4498C22.4755 64.5788 22.6113 64.6757 22.7056 64.7878C23.9136 67.8018 25.1175 70.8176 26.3334 73.8283C26.5507 74.366 26.9873 74.8403 26.7517 75.4891C21.5855 74.0318 19.4581 69.8284 17.6575 65.2685C16.1894 66.4312 14.9171 67.7047 13.2813 68.4538C10.4387 69.7559 8.60147 68.6532 8.41872 65.5307C8.18277 61.5012 9.75045 58.0063 11.9088 54.5662C9.62691 53.8887 7.30615 54.1524 5.30469 53.0911Z" fill="#4D332E"/>
<path d="M70.6211 48.1361C72.2489 46.3751 73.9234 44.7635 73.3807 41.8871C73.1254 40.5332 74.7355 39.5132 75.7871 38.8929C79.0317 36.9791 79.443 33.6265 80.3572 30.5689C81.6476 26.2525 81.3792 21.7941 81.012 17.3694C80.9479 16.5971 80.3577 15.9758 79.6882 15.4717C79.1397 15.0589 79.3606 14.7458 79.9932 14.6875C87.9355 19.459 90.9746 27.1657 92.4802 35.7343C92.9678 38.5087 93.1407 41.3383 93.4576 44.1421C87.4615 46.6567 85.7684 49.0475 86.301 54.3384C86.4198 55.519 86.6628 56.688 86.8715 57.8583C87.059 58.9084 87.3038 60.0608 86.1083 60.6023C84.9465 61.1283 84.3522 60.0208 83.782 59.322C82.1853 57.3649 80.6914 55.324 79.1465 53.3242C77.2086 50.8158 74.6834 49.263 71.5658 48.6552C71.2299 48.5899 70.9351 48.3144 70.6211 48.1361Z" fill="#52352F"/>
<path d="M173.37 157.819C171.886 158.518 171.026 159.911 169.9 160.996C166.187 164.575 162.816 168.57 158.792 171.745C155.529 174.321 152.725 177.546 148.891 179.397C148.209 179.727 148.374 180.816 147.54 181.068C146.975 179.783 145.293 178.931 145.918 177.197C146.313 176.103 146.177 175.019 146.147 173.921C149.003 174.962 150.077 174.53 151.7 171.803C152.728 170.077 154.039 168.567 155.417 167.106C160.02 162.231 197.666 120.641 198.015 120.508C199.355 121.957 199.482 123.736 199.388 125.576C198.796 129.755 196.167 132.858 193.658 135.935C187.363 143.655 180.343 150.719 173.37 157.819Z" fill="#F79370"/>
<path d="M198.968 270.499C195.07 271.819 191.178 273.158 187.272 274.456C181.315 276.436 175.352 278.399 169.382 280.342C168.071 280.769 166.487 281.875 165.418 280.95C164.513 280.166 166.02 278.905 166.356 277.826C167.077 275.505 167.945 273.215 168.938 270.995C170.086 268.427 169.654 265.618 170.383 262.995C170.59 262.25 169.836 262.597 169.506 262.468C169.523 262.195 169.54 261.923 169.557 261.651C170.851 262.685 172.118 261.68 173.372 261.546C177.936 261.057 182.408 259.911 187.006 259.606C187.704 259.559 188.376 259.118 189.061 258.859C194.359 261.041 197.045 265.445 198.968 270.499Z" fill="#BA6042"/>
<path d="M116.173 194.017C115.001 193.859 113.829 193.701 112.657 193.544C112.226 192.392 111.256 192.162 110.203 191.697C107.559 190.53 104.865 190.949 102.191 190.917C97.5761 190.862 93.0593 189.307 88.4 190.061C80.2627 189.99 72.1473 189.643 64.1101 188.228C62.2079 187.894 60.5291 187.077 58.9375 186.033C59.1476 183.796 59.9852 183.099 62.177 183.245C67.8164 183.622 73.404 184.638 79.0272 184.931C82.1304 185.093 85.315 185.304 88.477 184.912C90.2004 184.698 91.9989 184.927 93.7473 185.11C98.955 185.658 104.153 186.297 109.359 186.861C110.291 186.962 111.043 187.425 111.833 187.816C113.116 188.449 114.238 188.334 115.621 187.807C117.515 187.085 119.601 186.804 121.631 186.525C122.918 186.348 124.072 186.268 124.872 185.002C125.312 184.306 126.245 184.68 126.968 184.649C128.481 186.152 130.45 185.829 132.301 185.982C132.977 188.11 132.303 189.231 129.966 189.222C129.315 189.22 128.669 189.5 128.012 189.552C123.633 189.902 119.727 191.488 116.173 194.017Z" fill="#F79877"/>
<path d="M98.3298 78.2054C103.425 77.6631 105.277 82.2773 104.47 86.7472C103.317 93.1305 100.166 98.636 94.4794 101.968C91.1381 103.925 87.315 105.554 83.1289 104.153C83.6057 104.086 83.8682 103.768 84.167 103.41C86.3493 100.789 88.1965 97.9346 89.9043 95.0014C92.3229 90.8478 93.9978 86.4249 93.3422 81.512C93.1285 79.9103 93.1562 78.0686 91.6391 76.881C91.7004 76.1926 91.2937 75.3003 92.4246 75.0781C94.2384 76.4123 95.5362 78.7212 98.3298 78.2054Z" fill="#E48263"/>
<path d="M189.543 258.385C193.586 255.516 197.945 255.584 202.448 256.999C203.356 257.285 204.061 258.122 205.125 257.989C205.209 257.987 205.292 257.995 205.373 258.013C205.441 260.217 207.168 261.03 208.715 261.994C209.032 263.349 209.931 264.402 210.581 265.584C209.753 266.257 210.438 266.936 210.601 267.586C211.103 269.577 211.641 271.557 211.455 273.643C210.382 275.487 208.449 275.862 206.651 276.528C203.576 277.666 203.536 277.689 202.552 274.96C200.863 267.358 198.349 260.402 189.543 258.385Z" fill="#B86142"/>
<path d="M62.171 207.926C63.3601 208.819 64.4367 209.481 65.3341 210.333C66.8489 211.77 66.9004 213.19 65.302 214.5C61.2798 217.794 57.1504 220.958 53.0646 224.175C51.9875 225.024 50.9591 224.88 50.1351 223.871C49.2464 222.782 49.3327 221.618 50.4334 220.726C53.2012 218.482 56.0099 216.287 58.8195 214.095C60.8806 212.487 60.887 212.511 58.8289 211.112C58.2767 210.736 57.7352 210.33 57.2524 209.87C55.5838 208.283 55.6298 207.193 57.6468 206.025C60.9879 204.09 64.4169 202.306 67.8097 200.46C68.7229 199.964 69.5659 200.042 70.1446 200.945C70.7174 201.838 70.4961 202.708 69.6357 203.275C67.9 204.42 66.1139 205.488 64.3473 206.585C63.667 207.008 62.9835 207.426 62.171 207.926Z" fill="#F03624"/>
<path d="M156.323 208.271C156.674 208.355 157.273 208.36 157.33 208.538C157.534 209.175 156.919 209.182 156.537 209.211C154.152 209.39 151.765 209.574 149.376 209.676C147.013 209.777 146.992 209.863 148.077 211.906C148.83 213.325 149.279 214.91 150.627 215.946C150.809 217.122 151.835 217.732 152.424 218.636C151.974 219.339 151.521 218.721 151.069 218.639C150.083 218.121 149.931 216.796 148.861 216.359C147.09 213.755 146.739 210.315 141.717 210.671C136.47 211.043 131.042 210.854 125.707 210.541C123.573 210.415 122.936 211.421 122.924 213.254C122.909 215.487 122.911 217.72 122.905 219.954C121.777 219.802 122.06 218.915 122.04 218.226C122 216.891 122.007 215.554 122.004 214.218C122.002 213.605 121.921 213.084 121.315 212.7C119.398 211.485 116.184 212.564 115.335 214.655C114.495 216.72 115.645 218.745 115.302 220.788C114.822 223.647 115.745 225.831 118.448 227.119C118.75 227.897 119.524 228.068 120.147 228.427C121.997 229.496 123.765 230.636 124.261 232.938C124.246 233.075 124.234 233.212 124.222 233.35C119.232 229.959 114.241 226.568 109.251 223.177C110.441 222.945 111.002 223.721 111.765 224.105C112.651 224.551 114.038 225.041 114.297 223.616C114.562 222.164 114.841 220.527 113.989 219.068C113.973 218.328 113.957 217.587 113.941 216.846C113.951 216.402 113.995 215.955 113.964 215.513C113.854 213.974 114.447 212.282 113.677 210.928C113 209.738 111.446 210.792 110.401 210.414C106.987 209.177 103.3 209.125 99.8956 207.901C97.3102 206.971 95.1619 207.573 93.3101 209.564C92.6621 210.261 91.879 210.833 91.1576 211.461C88.3238 213.253 85.4608 214.992 82.3383 216.248C82.2086 216.3 81.9721 216.087 81.7852 215.997C82.0524 215.664 82.3198 215.33 82.5873 214.996C82.8832 214.984 83.2523 215.083 83.4643 214.944C87.0021 212.615 90.5247 210.263 94.0402 207.901C95.2579 207.083 95.2456 206.47 93.7226 206.067C92.8611 205.838 92.9473 205.49 93.736 205.219C101.381 207.963 109.319 209.125 117.384 209.603C118.048 209.642 118.711 209.709 119.374 209.763C120.006 210.339 120.786 210.111 121.503 210.114C126.102 210.137 130.702 210.143 135.301 210.119C136.089 210.115 136.946 210.38 137.65 209.759C143.886 209.412 150.12 209.037 156.323 208.271Z" fill="#843925"/>
<path d="M167.659 96.083C167.028 96.0817 166.364 96.0289 166.309 96.9383C165.717 97.8523 165.125 98.7659 164.533 99.6795C160.498 93.684 155.116 89.047 149.434 84.7132C149.048 84.4187 148.883 84.0371 148.867 83.5703C154.702 85.8343 160.511 88.1649 165.974 91.245C168.901 92.8954 168.869 92.996 167.659 96.083Z" fill="#E2DED4"/>
<path d="M189.545 258.383C198.351 260.4 200.865 267.356 202.554 274.959C202.595 277.766 202.514 280.568 202.069 283.347C201.529 286.713 199.575 289.358 197.625 292.004C196.705 291.979 195.744 292.191 194.929 291.544C195.412 290.785 196.479 291.111 197.02 290.134C199.73 285.244 201.407 280.192 200.28 274.524C200.557 272.95 199.72 271.739 198.969 270.501C197.046 265.447 194.36 261.043 189.062 258.862C189.223 258.702 189.384 258.543 189.545 258.383Z" fill="#833622"/>
<path d="M57.0122 193.653C58.3254 193.59 59.0768 194.25 59.2154 195.437C59.3407 196.509 58.7858 197.316 57.6455 197.523C53.8474 198.212 50.0527 198.927 46.2407 199.53C45.0113 199.724 44.0157 199.101 43.7867 197.801C43.5793 196.623 44.3831 195.959 45.4097 195.761C49.2691 195.016 53.1435 194.349 57.0122 193.653Z" fill="#F03624"/>
<path d="M93.7386 205.221C92.9498 205.493 92.8636 205.841 93.7252 206.069C95.2482 206.472 95.2604 207.085 94.0428 207.903C90.527 210.265 87.0045 212.617 83.4669 214.946C83.2549 215.086 82.8858 214.987 82.5898 214.998C84.9553 211.051 88.1746 207.733 90.7449 203.938C91.8337 204.153 92.9278 204.357 93.7386 205.221Z" fill="#AA5737"/>
<path d="M74.1191 213.952C72.8015 216.712 71.8496 219.865 70.002 222.584C69.5009 223.321 68.6418 223.485 67.8127 222.949C67.0711 222.47 66.5547 221.808 66.922 220.901C68.0911 218.01 69.2891 215.127 70.9305 212.463C71.3534 211.776 72.0061 211.437 72.8466 211.831C73.6549 212.211 74.143 212.798 74.1191 213.952Z" fill="#F03624"/>
<path d="M96.0391 190.289C98.1818 190.591 99.9946 190.709 102.192 190.922C104.865 190.954 107.559 190.535 110.204 191.702C111.257 192.167 112.227 192.396 112.657 193.549C108.335 192.625 103.959 192.596 99.5624 192.607C98.313 192.61 97.0483 191.897 96.079 190.934C96.0855 190.731 96.0391 190.414 96.0391 190.289Z" fill="#CBAD97"/>
<path d="M169.557 261.649C169.54 261.922 169.522 262.194 169.506 262.466C168.473 262.403 167.162 262.837 167.059 261.103C167.433 260.044 166.722 258.624 168.121 257.906C168.882 259.045 169.418 260.271 169.557 261.649Z" fill="#4D473A"/>
<path d="M67.8957 157.845C69.4399 158.025 69.6406 157.189 69.7293 155.844C70.2392 148.096 68.373 140.716 66.5892 133.288C65.6598 129.419 64.5295 125.578 64.0597 121.601C63.9978 121.077 63.7645 120.583 64.3441 120.219C66.2903 124.135 67.9115 128.201 70.1016 132.009C74.3338 139.37 79.3411 146.172 84.6238 152.788C85.2849 153.616 85.8822 154.45 85.9128 155.56C85.2287 157.426 84.2949 159.105 82.0077 159.107C79.5498 159.108 78.1796 160.097 78.1589 162.662C78.1574 162.849 77.9463 163.033 77.8326 163.219C77.8077 162.407 77.7664 161.594 77.7625 160.781C77.7583 159.958 77.3741 159.521 76.5477 159.582C74.1873 159.756 72.0668 158.245 69.6585 158.642C69.0137 158.749 68.3743 158.357 67.8957 157.845Z" fill="#B7A794"/>
<path d="M121.605 158.74C119.5 159.19 117.738 160.15 116.073 161.599C114.835 162.677 113.455 163.764 112.657 165.048C111.619 166.717 109.426 167.195 108.957 169.425C108.442 171.874 103.544 172.963 101.895 171.177C106.771 161.277 112.698 152.39 123.756 148.428C126.794 147.34 129.921 146.881 133.141 147.051C133.643 147.078 134.268 146.954 134.44 147.618C134.595 148.218 134.126 148.518 133.693 148.848C131.785 150.301 129.533 151.447 128.599 154.412C131.182 153.66 133.461 153.809 135.791 154.138C137.022 154.312 138.052 154.782 139.108 155.242C140.459 155.83 141.113 155.502 141.56 154.111C142.372 151.59 143.368 149.136 145.148 146.453C145.077 149.068 143.948 150.809 143.393 152.712C142.918 154.344 141.51 155.861 142.575 157.752C140.499 156.804 138.465 155.898 136.097 155.669C132.254 155.297 128.289 153.578 125.141 157.354C124.63 157.967 123.36 157.458 123.357 158.677C122.773 158.697 122.189 158.718 121.605 158.74Z" fill="#CAC0B2"/>
<path d="M163.569 137.637C160.753 140.042 158.996 143.383 156.294 145.873C155.642 146.474 155.828 147.443 155.061 147.879C152.335 141.32 149.168 134.988 145.335 129.002C144.02 126.948 142.635 124.938 141.281 122.908C141.97 123.113 142.627 122.481 143.397 123.022C146.91 125.489 150.831 127.187 154.826 128.681C156.477 129.298 158.151 130.202 160.048 129.611C161.222 132.287 162.395 134.962 163.569 137.637Z" fill="#C8C0B1"/>
<path d="M160.048 129.607C158.151 130.198 156.477 129.294 154.826 128.676C150.831 127.183 146.91 125.485 143.397 123.017C142.627 122.476 141.97 123.109 141.281 122.904C139.192 120.662 137.102 118.42 135.013 116.178C135.112 115.428 135.296 114.871 134.611 114.044C133.395 112.578 131.661 111.399 131.336 109.188C133.692 113.005 137.306 114.97 141.259 116.454C139.652 114.923 137.559 114.028 136.184 112.237C135.853 111.806 134.822 111.265 136.25 110.889C139.364 112.702 142.464 114.539 145.597 116.319C148.484 117.958 151.421 119.511 154.308 121.152C155.478 121.817 156.165 121.98 156.665 120.333C157.13 118.804 157.235 117.123 158.219 115.764C158.108 117.308 157.992 118.84 160.259 118.832C160.466 118.831 160.674 119.205 160.881 119.405C158.998 119.936 157.571 122.537 158.189 124.222C158.842 126.005 159.431 127.811 160.048 129.607Z" fill="#BDAF9D"/>
<path d="M160.878 119.412C160.671 119.212 160.464 118.838 160.257 118.839C157.99 118.846 158.106 117.315 158.216 115.77C159.91 110.247 162.393 105.033 164.53 99.6832C165.122 98.7696 165.714 97.856 166.306 96.9421C168.269 96.6641 167.48 97.7755 167.073 98.5565C165.428 101.719 164.395 105.077 163.593 108.541C162.636 112.674 163.357 116.568 164.927 120.387C165.042 120.667 165.225 120.888 164.972 121.166C163.491 120.852 162.171 120.163 160.878 119.412Z" fill="#E18866"/>
<path d="M136.247 110.888C134.82 111.264 135.851 111.806 136.182 112.236C137.557 114.027 139.65 114.922 141.257 116.453C137.304 114.969 133.69 113.005 131.334 109.187C131.659 111.398 133.393 112.577 134.609 114.043C135.294 114.87 135.11 115.428 135.011 116.177C131.124 112.61 128.02 108.458 125.398 103.528C126.84 103.739 126.955 104.893 127.598 105.464C128.304 106.093 128.913 106.83 130.071 108.057C128.41 99.4949 125.407 91.5452 129.286 83.0547C129.874 84.6308 129.222 85.7447 129.077 86.8047C128.117 93.813 129.845 100.472 131.504 107.143C131.799 108.328 133.121 108.577 133.994 109.226C134.743 109.784 135.89 109.799 136.247 110.888Z" fill="#CBC4B7"/>
<path d="M148.864 216.359C149.933 216.797 150.086 218.122 151.072 218.64C153.195 222.371 156.145 225.243 159.869 227.39C160.957 228.017 161.942 228.786 163.171 229.172C164.052 229.449 164.232 230.152 163.871 230.97C160.98 237.528 158.851 244.389 155.854 250.912C154.157 254.604 153.02 258.55 151.379 262.27C149.013 267.629 147.131 273.173 144.876 278.571C143.297 282.35 145.841 285.446 149.86 286.186C154.329 287.009 158.328 285.217 162.385 284.016C168.846 282.102 175.212 279.863 181.598 277.703C186.492 276.049 191.349 274.288 196.236 272.616C197.49 272.186 198.828 271.714 199.83 273.166C198.695 273.478 197.536 273.723 196.427 274.111C188.842 276.765 181.319 279.608 173.675 282.079C166.034 284.549 158.281 286.67 150.569 288.918C145.593 290.369 140.508 291.331 135.405 292.204C126.833 293.669 118.226 294.347 109.545 293.337C109.372 293.061 109.199 292.785 109.026 292.509C108.919 288.354 109.428 284.258 110.228 280.193C111.692 272.752 114.348 265.65 116.522 258.414C117.019 256.763 116.154 257.123 115.336 257.04C116.812 256.775 117.473 255.809 117.888 254.424C118.985 250.759 120.277 247.151 121.335 243.475C121.815 241.809 122.943 240.262 122.509 238.379C123.655 236.899 123.913 235.115 124.225 233.35C124.237 233.213 124.249 233.076 124.263 232.939C125.556 230.923 125.548 228.407 126.801 226.36C127.14 225.807 126.69 225.396 126.048 225.336C123.604 224.533 122.938 222.764 123.363 220.399C123.388 220.256 123.362 220.104 123.36 219.956C123.364 219.141 123.37 218.326 123.371 217.511C123.371 216.795 123.712 216.268 124.435 216.454C127.504 217.243 130.66 216.425 133.713 216.961C138.602 217.82 143.411 216.59 148.262 216.633C148.462 216.635 148.664 216.455 148.864 216.359Z" fill="#BA6140"/>
<path d="M124.226 233.353C123.913 235.118 123.656 236.901 122.509 238.381C117.767 245.008 113.024 251.635 108.111 258.503C110.765 258.216 112.95 257.092 115.336 257.042C116.155 257.126 117.019 256.765 116.523 258.416C114.348 265.652 111.693 272.755 110.228 280.195C109.428 284.261 108.92 288.356 109.026 292.511C95.9012 295.743 82.8534 299.353 69.4199 301.138C63.8563 301.877 58.248 302.027 52.9995 299.499C48.2878 297.229 45.0495 293.62 43.6523 288.492C43.9928 287.696 44.575 287.811 45.3056 287.886C46.6302 288.022 47.9193 288.333 49.2578 288.441C55.9572 288.983 62.5174 288.4 68.9931 286.591C72.1786 285.702 74.9801 284.081 77.72 282.331C78.2626 281.984 79.1141 281.505 78.7365 280.561C77.4595 277.369 79.735 275.188 81.0794 272.866C82.9931 269.56 85.2128 266.424 87.4204 263.299C91.4315 257.62 95.2625 251.82 99.4324 246.247C101.995 242.821 104.865 239.56 106.669 235.601C106.818 235.272 107.208 234.847 107.112 234.645C105.879 232.045 108.095 232.491 109.441 232.074C106.754 227.745 102.162 224.782 100.747 219.449C103.454 219.546 104.864 222.206 107.449 222.32C105.351 220.791 103.253 219.263 101.155 217.734C103.3 217.835 104.961 218.888 106.549 219.973C108.527 221.323 110.738 222.223 112.748 223.487C113.622 224.037 113.962 223.836 113.974 222.867C113.99 221.602 113.987 220.337 113.992 219.071C114.844 220.53 114.565 222.167 114.3 223.619C114.041 225.044 112.654 224.554 111.768 224.108C111.005 223.723 110.444 222.948 109.254 223.18C114.245 226.571 119.235 229.962 124.226 233.353ZM80.1613 278.327C80.461 278.135 80.7472 278.041 80.8957 277.843C83.5184 274.347 86.2567 270.928 88.702 267.312C92.1513 262.21 95.7473 257.218 99.3569 252.231C102.264 248.215 105.385 244.33 107.6 239.853C107.861 239.327 108.611 238.603 107.776 238.124C107.176 237.78 106.825 238.624 106.441 239.047C102.592 243.293 99.8143 248.318 96.4707 252.93C91.0361 260.427 86.1026 268.287 80.9609 275.996C80.5222 276.654 79.9138 277.257 80.1613 278.327Z" fill="#9B442D"/>
<path d="M109.543 293.335C118.224 294.344 126.831 293.667 135.403 292.201C140.506 291.329 145.591 290.367 150.567 288.916C158.278 286.668 166.032 284.547 173.673 282.077C181.317 279.606 188.84 276.763 196.425 274.109C197.534 273.721 198.692 273.476 199.828 273.164C199.861 273.655 199.758 274.192 200.278 274.521C201.405 280.189 199.728 285.242 197.018 290.132C196.477 291.108 195.41 290.783 194.927 291.542C178.485 296.183 162.074 300.95 145.396 304.692C139.385 306.041 133.368 307.418 127.113 307.193C118.571 306.885 111.75 301.585 109.543 293.335Z" fill="#9F462E"/>
<path d="M241.006 288.181C240.796 288.396 240.34 288.369 239.996 288.449C238.533 288.432 237.075 288.409 235.617 288.391C232.683 287.68 229.705 287.412 226.695 287.461C226.427 287.018 226.163 286.571 225.894 286.128C225.089 283.852 224.284 281.571 223.484 279.29C223.47 278.288 223.457 277.282 223.444 276.272C224.79 272.412 223.734 269.214 220.3 266.831C216.789 264.389 212.661 263.4 208.712 261.996C207.169 261.03 205.443 260.22 205.371 258.016C210.125 259.961 214.924 261.795 219.611 263.892C221.986 264.957 223.891 266.719 225.17 269.112C225.577 269.872 225.801 270.579 225.787 271.41C225.765 272.747 225.711 274.094 225.805 275.426C225.885 276.553 225.165 278.074 226.422 278.714C227.527 279.268 228.417 277.971 229.293 277.385C230.774 276.401 232.169 275.69 233.86 276.826C232.469 278.454 231.078 280.073 229.696 281.705C228.873 282.676 227.791 283.843 229.065 284.948C230.367 286.079 231.328 284.827 232.124 283.825C233.224 282.434 234.351 281.07 235.706 279.921C234.924 281.84 235.863 283.342 236.9 284.823C237.571 285.918 238.394 286.442 239.584 285.507C239.579 286.379 239.114 287.466 240.626 287.604C240.895 287.631 241.226 287.953 241.006 288.181Z" fill="#394042"/>
<path d="M197.625 292.003C199.575 289.358 201.529 286.713 202.068 283.346C202.514 280.567 202.594 277.766 202.554 274.958C203.537 277.687 203.578 277.664 206.653 276.526C208.451 275.86 210.383 275.485 211.457 273.641C211.408 276.478 211.905 279.342 211.044 282.14C210.833 282.868 210.622 283.596 210.412 284.324C207.875 289.758 203.374 291.919 197.625 292.003Z" fill="#9F462E"/>
<path d="M91.6375 76.8828C93.1546 78.0704 93.1269 79.9122 93.3406 81.5138C93.9961 86.4267 92.3213 90.8497 89.9027 95.0033C88.1949 97.9362 86.3475 100.791 84.1654 103.412C83.8666 103.77 83.6041 104.087 83.1273 104.155C80.7722 104.017 79.978 101.944 78.6453 100.538C78.4943 99.7044 78.0624 98.9532 78.9735 98.132C85.3753 92.3613 89.4261 85.164 91.6375 76.8828Z" fill="#D05E40"/>
<path d="M22.7092 64.7858C22.615 64.674 22.4791 64.577 22.4327 64.4478C20.8546 60.0586 20.8393 59.9755 25.271 59.0854C33.5616 57.4205 40.1918 52.8031 46.5236 47.5333C51.7501 43.1833 55.3238 37.4775 59.4857 32.25C58.9431 35.8022 56.7928 38.5441 54.8421 41.3727C48.0935 51.1588 38.2633 56.7336 27.6709 61.3104C25.8336 62.1044 23.9081 62.9824 22.7092 64.7858Z" fill="#E4866A"/>
<path d="M94.3203 60.4052C94.535 58.4958 93.6797 57.4571 91.5154 57.6307C90.884 57.6812 90.3655 57.5516 90.2972 56.7101C90.1614 55.0359 91.7382 52.1651 93.4041 51.651C95.3475 51.0514 97.3663 50.773 98.9083 52.6734C99.095 52.9037 99.3451 53.1008 99.4711 53.3595C100.367 55.1994 98.7561 61.0125 97.0181 62.0221C96.3405 62.4157 95.6628 63.0264 94.7732 62.8097C94.3117 62.6975 94.3279 62.6309 94.3203 60.4052Z" fill="#E16C4A"/>
<path d="M62.4462 71.952C61.9698 71.8445 61.2923 71.7815 60.6882 71.5377C59.1347 70.91 58.8793 69.5781 60.2852 68.7107C62.8274 67.1423 65.6393 66.1904 68.6526 66.0089C69.4723 65.9595 70.3779 66.0925 70.7342 66.9804C71.1273 67.96 70.5141 68.732 69.8259 69.3023C67.7514 71.0211 65.2704 71.6901 62.4462 71.952Z" fill="#432F21"/>
<path d="M43.4196 80.1455C43.6427 79.7109 44.0289 79.151 44.229 78.531C44.7441 76.9366 43.886 75.8864 42.3187 76.4087C39.4847 77.353 36.951 78.8997 34.879 81.0953C34.3155 81.6924 33.8364 82.4726 34.2891 83.3153C34.7885 84.2451 35.7739 84.27 36.653 84.1076C39.3023 83.6186 41.4072 82.1441 43.4196 80.1455Z" fill="#432F21"/>
<path d="M32.0079 76.459C31.2705 76.4332 30.5321 76.4541 29.8729 76.0079C29.2302 75.5727 28.6336 75.035 28.7239 74.2435C28.8171 73.4272 29.6847 73.7333 30.1883 73.6222C33.595 72.8716 36.3403 71.5227 36.7415 67.5049C36.8746 66.1714 37.7303 66.4609 38.4306 67.1616C39.1652 67.8964 39.3067 68.8485 39.2173 69.8402C38.9025 73.3252 35.5142 76.4309 32.0079 76.459Z" fill="#432F21"/>
<path d="M64.8164 62.8177C65.2809 62.2443 65.7813 61.7009 65.8775 60.9107C65.9712 60.1403 65.9569 59.3372 65.3005 58.8859C64.6236 58.4204 64.2851 59.2757 63.8707 59.5827C61.0683 61.66 58.2487 62.846 54.9543 60.5114C53.861 59.7366 53.5177 60.5722 53.5866 61.5604C53.6588 62.5968 54.2842 63.3286 55.091 63.9119C57.9267 65.9623 62.4937 65.4447 64.8164 62.8177Z" fill="#432F21"/>
<path d="M76.8516 73.1855C76.8658 75.2042 75.8973 76.4063 74.2846 76.372C72.3744 76.3315 70.1528 73.9318 70.1602 71.8076C70.1658 70.1605 70.524 68.5812 72.5354 68.378C74.536 68.1761 76.835 70.8305 76.8516 73.1855Z" fill="#F77C63"/>
<path d="M43.7657 89.7949C43.7798 91.8135 42.8114 93.0157 41.1986 92.9814C39.2884 92.9408 37.0669 90.5412 37.0742 88.417C37.0799 86.7699 37.4381 85.1905 39.4495 84.9874C41.45 84.7856 43.7491 87.44 43.7657 89.7949Z" fill="#F77C63"/>
<path d="M55.3495 84.0541C55.3414 87.0546 52.1626 89.7587 49.2685 89.172C47.3864 88.7905 46.3552 87.7473 46.3259 85.6466C46.2886 82.9639 46.871 80.3987 47.3623 77.8047C48.2529 79.4408 47.5899 81.0694 47.3774 82.7167C47.0119 85.5508 47.6533 86.0685 50.3264 85.4791C52.0344 85.1027 53.5068 83.9254 55.3495 84.0541Z" fill="#EA714F"/>
<path d="M64.0899 90.5913C64.8607 90.5913 65.0103 90.5779 65.1568 90.5934C66.3797 90.7226 68.3987 90.5876 68.2546 91.9221C68.099 93.3638 66.3377 92.3285 65.2898 92.1929C62.0479 91.7737 57.6589 93.9967 56.1365 96.8743C55.8911 97.338 55.8898 98.2692 55.0341 97.8741C54.2414 97.508 54.5541 96.7051 54.8029 96.114C55.8558 93.612 57.9595 92.2512 60.3486 91.3069C61.7276 90.7614 63.2129 90.5591 64.0899 90.5913Z" fill="#432F21"/>
<path d="M55.3513 84.0559C53.5089 83.9272 52.0364 85.1045 50.3283 85.4811C47.6552 86.0705 47.0137 85.5526 47.3793 82.7187C47.5916 81.0714 48.2546 79.4428 47.3642 77.8067C47.8449 77.2339 48.1365 77.5179 48.1938 78.0643C48.2712 78.8014 48.2913 79.5582 48.2176 80.2947C48.0744 81.7249 48.602 82.224 50.0895 82.2704C51.9695 82.3288 53.97 82.3777 55.3513 84.0559Z" fill="#F99475"/>
<path d="M91.1602 211.465C91.8816 210.836 92.6646 210.264 93.3127 209.567C95.1642 207.576 97.3128 206.974 99.8981 207.904C103.303 209.129 106.99 209.181 110.404 210.417C111.449 210.796 113.003 209.742 113.68 210.932C114.45 212.285 113.857 213.977 113.966 215.517C113.997 215.958 113.953 216.405 113.944 216.85C113.432 215.937 112.916 215.117 111.665 215.043C104.916 214.645 98.329 213.312 91.828 211.506C91.6177 211.448 91.3833 211.477 91.1602 211.465Z" fill="#A54A33"/>
<path d="M121.605 158.74C122.19 158.719 122.773 158.698 123.358 158.677C125.188 158.087 126.877 158.723 128.455 159.471C131.51 160.921 131.91 164.074 129.382 166.333C128.576 167.053 127.615 167.601 126.404 168.454C128.961 169.302 131.266 169.608 133.575 169.872C135.929 170.142 138.283 170.421 140.644 170.604C143.06 170.791 144.815 171.982 146.149 173.919C146.179 175.018 146.314 176.101 145.92 177.196C145.295 178.929 146.976 179.781 147.542 181.066C147.473 184.187 145.089 185.673 143.061 187.41C142.819 186.028 141.739 185.997 140.696 185.989C137.898 185.967 135.1 185.982 132.302 185.983C130.452 185.83 128.482 186.153 126.969 184.65C130.979 184.629 134.962 185.181 138.984 185.122C141.056 185.092 142.853 184.418 144.494 183.475C145.176 183.083 145.503 181.562 145.47 180.572C145.434 179.491 144.237 179.745 143.467 179.754C138.425 179.807 133.426 179.533 128.487 178.1C128.927 177.164 129.701 177.493 130.268 177.531C133.226 177.729 136.189 177.927 139.13 178.293C140.954 178.52 142.474 177.817 144.042 177.168C144.922 176.804 144.895 175.965 144.764 175.247C144.517 173.893 143.603 173.024 142.324 172.629C139.892 171.879 137.337 171.997 134.841 171.696C130.91 171.223 127.078 170.424 123.446 168.822C122.656 168.473 121.513 168.075 121.779 167.032C122.036 166.024 122.989 165.377 124.175 165.372C124.845 165.37 125.527 165.429 126.182 165.325C127.284 165.149 128.412 164.957 128.663 163.528C128.908 162.132 128.547 160.991 127.309 160.271C126.214 159.634 125.026 159.217 123.733 159.128C123.016 159.078 122.224 159.352 121.605 158.74Z" fill="#D96C4A"/>
<path d="M183.365 119.7C179.531 120.56 176.445 122.672 173.559 125.692C174.126 121.824 178.773 119.068 183.365 119.7Z" fill="#DF855E"/>
<path d="M77.8326 163.218C77.5306 164.688 77.2287 166.159 76.9269 167.629C73.2367 167.194 69.5431 166.865 65.8572 167.635C64.1354 167.994 62.4289 168.426 60.3438 168.912C61.3002 167.794 62.3401 167.385 63.3054 167.084C64.817 166.612 64.904 165.916 64.2209 164.654C62.8045 162.036 61.613 159.311 60.7015 156.47C60.5491 155.996 60.1631 155.519 60.734 155.062C63.2371 155.69 65.1556 157.824 67.8956 157.843C68.3745 158.356 69.0139 158.747 69.6585 158.641C72.0668 158.244 74.1872 159.755 76.5476 159.581C77.3741 159.52 77.7583 159.957 77.7624 160.78C77.7666 161.593 77.8077 162.405 77.8326 163.218Z" fill="#E78465"/>
<path d="M137.651 209.758C136.947 210.378 136.09 210.113 135.302 210.117C130.703 210.142 126.103 210.136 121.504 210.113C120.787 210.109 120.007 210.338 119.375 209.762C125.467 209.76 131.559 209.759 137.651 209.758Z" fill="#9D462A"/>
<path d="M232.429 287.534C231.238 288.466 230.418 287.947 229.746 286.848C229.912 285.649 230.478 284.788 231.386 283.896C232.956 282.354 234.205 280.482 235.57 278.734C236.266 277.844 237.036 277.16 238.149 278.02C239.281 278.895 238.786 279.868 238.09 280.721C236.223 283.009 234.319 285.265 232.429 287.534Z" fill="#E0DED9"/>
<path d="M232.72 278.476C231.363 279.629 230.237 280.993 229.135 282.381C228.34 283.384 227.379 284.635 226.079 283.506C224.804 282.4 225.884 281.234 226.707 280.262C227.844 278.921 228.988 277.586 230.13 276.249C230.48 275.841 230.893 275.497 231.305 275.153C232.062 274.521 232.514 273.003 233.869 274.252C235.548 275.801 234.021 276.842 233.088 277.933C232.947 278.098 232.842 278.294 232.72 278.476Z" fill="#DADAD6"/>
<path d="M132.3 185.982C135.098 185.982 137.896 185.967 140.694 185.988C141.737 185.996 142.817 186.027 143.059 187.409C141.028 190.141 138.035 191.5 135.014 192.577C130.425 194.213 125.767 195.827 120.745 195.353C119.144 195.202 117.478 195.207 116.172 194.017C119.725 191.487 123.632 189.902 128.011 189.552C128.667 189.5 129.314 189.22 129.964 189.223C132.301 189.231 132.976 188.11 132.3 185.982Z" fill="#EC7F5C"/>
<path d="M152.426 218.64C151.837 217.737 150.811 217.126 150.629 215.951C151.522 214.149 153.218 214.966 154.369 215.14C158.607 215.782 162.842 215.429 167.071 215.424C168.553 215.423 168.577 215.69 168.306 216.986C167.607 220.333 166.443 223.527 165.39 226.759C164.853 228.408 164.113 228.457 162.602 227.506C158.728 225.07 155.434 222.035 152.426 218.64Z" fill="#B85F3E"/>
<path d="M208.715 261.992C212.663 263.399 216.789 264.386 220.303 266.826C223.735 269.209 224.789 272.406 223.446 276.27C221.602 277.426 219.514 277.914 217.475 278.582C215.318 279.289 214.579 278.661 214.031 276.498C213.096 272.806 212.876 268.852 210.581 265.582C209.932 264.4 209.033 263.347 208.715 261.992Z" fill="#FDAA8D"/>
<path d="M210.58 265.586C212.876 268.856 213.095 272.81 214.03 276.501C214.578 278.665 215.317 279.293 217.474 278.586C219.513 277.918 221.602 277.429 223.446 276.274C223.458 277.28 223.471 278.287 223.483 279.292C223.126 279.089 222.901 278.753 222.328 278.924C218.578 280.037 214.806 281.079 211.042 282.144C211.903 279.346 211.406 276.482 211.455 273.645C211.64 271.559 211.103 269.579 210.601 267.588C210.438 266.938 209.753 266.258 210.58 265.586Z" fill="#E38264"/>
<path d="M148.862 216.36C148.661 216.455 148.46 216.635 148.26 216.633C143.409 216.59 138.599 217.819 133.71 216.961C130.658 216.425 127.502 217.243 124.432 216.454C123.71 216.268 123.369 216.795 123.369 217.511C123.368 218.326 123.362 219.141 123.358 219.956C123.207 219.956 123.057 219.955 122.906 219.955C122.912 217.721 122.91 215.488 122.925 213.255C122.937 211.422 123.573 210.416 125.708 210.542C131.043 210.855 136.471 211.044 141.718 210.672C146.74 210.316 147.091 213.756 148.862 216.36Z" fill="#9D462A"/>
<path d="M122.908 219.958C123.059 219.959 123.209 219.959 123.36 219.96C123.362 220.108 123.388 220.26 123.362 220.403C122.938 222.768 123.604 224.536 126.047 225.34C123.328 225.139 120.932 226.312 118.451 227.123C115.748 225.835 114.824 223.652 115.305 220.793C115.648 218.75 114.498 216.725 115.337 214.66C116.187 212.569 119.4 211.49 121.318 212.704C121.924 213.089 122.005 213.609 122.006 214.223C122.01 215.559 122.003 216.896 122.042 218.231C122.063 218.92 121.779 219.807 122.908 219.958Z" fill="#B15A3D"/>
<path d="M118.449 227.119C120.93 226.307 123.327 225.134 126.046 225.335C126.688 225.395 127.138 225.806 126.799 226.359C125.546 228.406 125.554 230.922 124.261 232.938C123.766 230.636 121.998 229.496 120.147 228.428C119.525 228.068 118.751 227.897 118.449 227.119Z" fill="#9B442D"/>
<path d="M80.1588 278.322C79.9114 277.253 80.5198 276.649 80.9583 275.992C86.1 268.282 91.0335 260.422 96.4681 252.925C99.8117 248.313 102.59 243.288 106.439 239.042C106.822 238.619 107.174 237.775 107.773 238.12C108.608 238.599 107.858 239.322 107.597 239.849C105.383 244.326 102.262 248.21 99.3543 252.226C95.7446 257.213 92.1489 262.205 88.6993 267.307C86.2541 270.924 83.5158 274.343 80.893 277.838C80.7448 278.036 80.4585 278.13 80.1588 278.322Z" fill="#B66040"/>
<path d="M108.956 169.426C109.426 167.196 111.619 166.718 112.656 165.049C113.455 163.765 114.834 162.678 116.072 161.6C117.737 160.151 119.499 159.191 121.605 158.74C122.224 159.352 123.015 159.078 123.732 159.128C125.025 159.217 126.213 159.634 127.308 160.271C128.546 160.991 128.907 162.132 128.662 163.528C128.411 164.957 127.283 165.149 126.181 165.325C125.526 165.43 124.844 165.37 124.174 165.372C122.988 165.377 122.036 166.024 121.779 167.032C121.513 168.076 122.656 168.473 123.446 168.822C127.077 170.424 130.91 171.223 134.84 171.696C137.336 171.997 139.892 171.879 142.324 172.63C143.602 173.024 144.517 173.893 144.763 175.247C144.894 175.965 144.921 176.804 144.042 177.168C142.473 177.817 140.954 178.52 139.129 178.293C136.189 177.927 133.226 177.73 130.268 177.531C129.701 177.493 128.926 177.164 128.486 178.1C133.425 179.533 138.425 179.807 143.467 179.754C144.236 179.746 145.433 179.491 145.469 180.573C145.503 181.563 145.175 183.083 144.493 183.475C142.852 184.418 141.055 185.092 138.983 185.122C134.961 185.182 130.978 184.629 126.968 184.65C126.246 184.681 125.312 184.307 124.873 185.003C124.073 186.269 122.919 186.349 121.632 186.526C119.602 186.805 117.515 187.086 115.621 187.808C114.238 188.335 113.117 188.45 111.833 187.817C111.043 187.426 110.292 186.963 109.36 186.862C104.154 186.298 98.9556 185.659 93.7478 185.111C91.9995 184.927 90.2008 184.699 88.4775 184.913C85.3156 185.305 82.131 185.094 79.0277 184.932C73.4045 184.639 67.8169 183.623 62.1775 183.246C59.9857 183.1 59.1482 183.797 58.9381 186.034C54.0031 183.094 52.5876 178.33 52.8356 173.1C53.144 166.599 54.5568 160.218 55.9091 153.854C55.9528 153.648 56.123 153.469 56.2344 153.278C57.9913 153.226 59.581 153.594 60.7338 155.064C60.1628 155.521 60.5489 155.997 60.7013 156.472C61.6128 159.313 62.8042 162.037 64.2206 164.655C64.904 165.918 64.8168 166.614 63.3052 167.086C62.3401 167.387 61.2999 167.796 60.3435 168.914C62.4287 168.428 64.1352 167.996 65.857 167.637C69.5429 166.867 73.2365 167.196 76.9269 167.631C82.3188 169.061 108.441 171.875 108.956 169.426Z" fill="#FEAF8D"/>
</svg>
