<svg width="144" height="253" viewBox="0 0 144 253" fill="none" xmlns="http://www.w3.org/2000/svg">
<path d="M21.319 138.24C22.1483 135.981 21.4514 133.647 19.7624 133.027C18.0735 132.407 16.032 133.736 15.2027 135.995C14.3734 138.254 15.0703 140.589 16.7593 141.208C18.4482 141.828 20.4897 140.5 21.319 138.24Z" fill="#3A3944"/>
<path d="M10.3875 203.836C10.8428 201.2 9.07472 198.694 6.4383 198.238C3.80188 197.783 1.29551 199.551 0.840139 202.187C0.384772 204.824 2.15285 207.33 4.78927 207.785C7.42569 208.241 9.93209 206.473 10.3875 203.836Z" fill="#3A3944"/>
<path d="M21.1441 201.149C23.1809 199.414 23.4258 196.357 21.691 194.32C19.9562 192.283 16.8987 192.038 14.8619 193.773C12.825 195.508 12.5802 198.565 14.3149 200.602C16.0497 202.639 19.1072 202.884 21.1441 201.149Z" fill="#3A3944"/>
<path d="M13.3758 199.696L22.7709 195.48L11.4283 167.555L3.58008 178.657L13.3758 199.696Z" fill="#3A3944"/>
<path d="M128.314 253.005H15.648C7.00581 253.005 0 245.999 0 237.356V15.648C0 11.4663 1.64036 7.66751 4.31279 4.86036C7.16324 1.86614 11.1877 0 15.6481 0H128.314C136.956 0 143.962 7.00591 143.962 15.648V237.356C143.962 245.999 136.956 253.005 128.314 253.005Z" fill="#2C424F"/>
<path d="M124.031 247.075H18.6129C9.97066 247.075 2.96484 240.069 2.96484 231.427V15.6481C2.96484 11.0179 4.97595 6.85725 8.1723 3.9922C10.9418 1.50981 14.601 0 18.613 0H124.032C132.674 0 139.68 7.00591 139.68 15.648V231.427C139.68 240.069 132.674 247.075 124.031 247.075Z" fill="#67737C"/>
<path d="M135.727 70.169H6.25977V25.2014C6.25977 20.6423 8.5464 16.6174 12.0354 14.2108C14.1855 12.7277 16.7922 11.8594 19.6018 11.8594H122.385C129.754 11.8594 135.727 17.8328 135.727 25.2014V70.169Z" fill="#141318"/>
<path d="M14.4941 64.8953V29.0737C14.4941 26.0258 15.8998 23.2775 18.1515 21.3395C20.2365 19.5451 23.0469 18.4453 26.1387 18.4453H115.845C122.276 18.4453 127.49 23.2038 127.49 29.0737V64.8953H14.4941Z" fill="#C1C4B3"/>
<path d="M127.49 60.6953H14.4941V64.5662H127.49V60.6953Z" fill="#FDFFFC"/>
<path d="M121.451 90.1165H107.121C103.641 90.1165 100.82 87.2957 100.82 83.8161C100.82 81.9981 101.59 80.3601 102.822 79.2101C103.948 78.1589 105.459 77.5156 107.121 77.5156H121.451C124.931 77.5156 127.751 80.3364 127.751 83.816C127.752 87.2957 124.931 90.1165 121.451 90.1165Z" fill="#2C424F"/>
<path d="M120.213 88.3776H107.343C104.825 88.3776 102.783 86.336 102.783 83.8177C102.783 82.5585 103.294 81.4185 104.119 80.5934C104.944 79.7682 106.084 79.2578 107.343 79.2578H120.213C122.731 79.2578 124.773 81.2994 124.773 83.8177C124.773 86.336 122.731 88.3776 120.213 88.3776Z" fill="#141318"/>
<path d="M126.352 89.594H117.347C115.807 89.594 114.547 88.334 114.547 86.7938V80.5345C114.547 79.8545 114.793 79.229 115.2 78.7426C115.714 78.1274 116.487 77.7344 117.347 77.7344H126.352C127.892 77.7344 129.152 78.9944 129.152 80.5345V86.7938C129.152 88.3339 127.892 89.594 126.352 89.594Z" fill="#FDFFFC"/>
<path d="M38.7222 122.558H19.9994C18.4594 122.558 17.1992 121.298 17.1992 119.757V101.035C17.1992 99.4945 18.4593 98.2344 19.9994 98.2344H38.7222C40.2623 98.2344 41.5224 99.4944 41.5224 101.035V119.757C41.5224 120.467 41.2549 121.117 40.8157 121.612C40.3017 122.191 39.5527 122.558 38.7222 122.558Z" fill="#3C4E64"/>
<path d="M38.7222 121.128H19.9994C18.4594 121.128 17.1992 119.868 17.1992 118.328V99.6049C17.1992 98.6971 17.6371 97.8864 18.3122 97.374C18.7822 97.0171 19.3672 96.8047 19.9994 96.8047H38.7222C40.2623 96.8047 41.5224 98.0647 41.5224 99.6049V118.328C41.5224 119.868 40.2623 121.128 38.7222 121.128Z" fill="#DC4437"/>
<path d="M66.7242 122.558H48.0014C46.4613 122.558 45.2012 121.298 45.2012 119.757V101.035C45.2012 99.4945 46.4612 98.2344 48.0014 98.2344H66.7242C68.2643 98.2344 69.5244 99.4944 69.5244 101.035V119.757C69.5244 120.573 69.1712 121.31 68.6103 121.822C68.1117 122.279 67.4489 122.558 66.7242 122.558Z" fill="#3C4E64"/>
<path d="M66.7242 121.128H48.0014C46.4613 121.128 45.2012 119.868 45.2012 118.328V99.6048C45.2012 98.8935 45.47 98.242 45.911 97.7467C46.4248 97.1696 47.1726 96.8047 48.0014 96.8047H66.7242C68.2643 96.8047 69.5244 98.0647 69.5244 99.6049V118.328C69.5243 119.868 68.2643 121.128 66.7242 121.128Z" fill="#8A96A2"/>
<path d="M94.7261 122.558H76.0034C74.4633 122.558 73.2031 121.298 73.2031 119.757V101.035C73.2031 99.4945 74.4632 98.2344 76.0034 98.2344H94.7261C96.2662 98.2344 97.5264 99.4944 97.5264 101.035V119.757C97.5264 120.679 97.0749 121.501 96.3822 122.012C95.9176 122.355 95.3444 122.558 94.7261 122.558Z" fill="#3C4E64"/>
<path d="M94.7261 121.128H76.0034C74.4633 121.128 73.2031 119.868 73.2031 118.328V99.6049C73.2031 98.6971 73.641 97.8864 74.3161 97.374C74.7862 97.0171 75.3711 96.8047 76.0034 96.8047H94.7261C96.2662 96.8047 97.5264 98.0647 97.5264 99.6049V118.328C97.5264 119.868 96.2663 121.128 94.7261 121.128Z" fill="#8A96A2"/>
<path d="M122.728 122.558H104.005C102.465 122.558 101.205 121.298 101.205 119.757V101.035C101.205 99.4945 102.465 98.2344 104.005 98.2344H122.728C124.268 98.2344 125.528 99.4944 125.528 101.035V119.757C125.528 120.618 125.135 121.391 124.519 121.906C124.032 122.312 123.407 122.558 122.728 122.558Z" fill="#3C4E64"/>
<path d="M122.728 121.128H104.005C102.465 121.128 101.205 119.868 101.205 118.328V99.6049C101.205 98.6971 101.643 97.8864 102.318 97.374C102.788 97.0171 103.373 96.8047 104.005 96.8047H122.728C124.268 96.8047 125.528 98.0647 125.528 99.6049V118.328C125.528 119.868 124.268 121.128 122.728 121.128Z" fill="#8A96A2"/>
<path d="M68.4163 149.972H46.3092C45.6998 149.972 45.2012 149.473 45.2012 148.864V126.756C45.2012 126.147 45.6998 125.648 46.3092 125.648H68.4163C69.0257 125.648 69.5243 126.147 69.5243 126.756V148.864C69.5243 149.473 69.0257 149.972 68.4163 149.972Z" fill="#3C4E64"/>
<path d="M68.4163 148.542H46.3092C45.6998 148.542 45.2012 148.043 45.2012 147.434V125.327C45.2012 124.717 45.6998 124.219 46.3092 124.219H68.4163C69.0257 124.219 69.5243 124.717 69.5243 125.327V147.434C69.5243 148.043 69.0257 148.542 68.4163 148.542Z" fill="#8A96A2"/>
<path d="M96.4182 149.972H74.3112C73.7017 149.972 73.2031 149.473 73.2031 148.864V126.756C73.2031 126.147 73.7017 125.648 74.3112 125.648H96.4182C97.0276 125.648 97.5263 126.147 97.5263 126.756V148.864C97.5263 149.473 97.0276 149.972 96.4182 149.972Z" fill="#3C4E64"/>
<path d="M96.4182 148.542H74.3112C73.7017 148.542 73.2031 148.043 73.2031 147.434V125.327C73.2031 124.717 73.7017 124.219 74.3112 124.219H96.4182C97.0276 124.219 97.5263 124.717 97.5263 125.327V147.434C97.5263 148.043 97.0276 148.542 96.4182 148.542Z" fill="#8A96A2"/>
<path d="M124.42 149.972H102.313C101.704 149.972 101.205 149.473 101.205 148.864V126.756C101.205 126.147 101.704 125.648 102.313 125.648H124.42C125.03 125.648 125.528 126.147 125.528 126.756V148.864C125.528 149.473 125.03 149.972 124.42 149.972Z" fill="#3C4E64"/>
<path d="M124.42 148.542H102.313C101.704 148.542 101.205 148.043 101.205 147.434V125.327C101.205 124.717 101.704 124.219 102.313 124.219H124.42C125.03 124.219 125.528 124.717 125.528 125.327V147.434C125.528 148.043 125.03 148.542 124.42 148.542Z" fill="#8A96A2"/>
<path d="M40.4143 177.401H18.3073C17.6978 177.401 17.1992 176.903 17.1992 176.293V154.186C17.1992 153.577 17.6978 153.078 18.3073 153.078H40.4143C41.0237 153.078 41.5223 153.577 41.5223 154.186V176.293C41.5223 176.903 41.0237 177.401 40.4143 177.401Z" fill="#3C4E64"/>
<path d="M40.4143 175.972H18.3073C17.6978 175.972 17.1992 175.473 17.1992 174.864V152.756C17.1992 152.147 17.6978 151.648 18.3073 151.648H40.4143C41.0237 151.648 41.5223 152.147 41.5223 152.756V174.864C41.5223 175.473 41.0237 175.972 40.4143 175.972Z" fill="#8A96A2"/>
<path d="M68.4163 177.401H46.3092C45.6998 177.401 45.2012 176.903 45.2012 176.293V154.186C45.2012 153.577 45.6998 153.078 46.3092 153.078H68.4163C69.0257 153.078 69.5243 153.577 69.5243 154.186V176.293C69.5243 176.903 69.0257 177.401 68.4163 177.401Z" fill="#3C4E64"/>
<path d="M68.4163 175.972H46.3092C45.6998 175.972 45.2012 175.473 45.2012 174.864V152.756C45.2012 152.147 45.6998 151.648 46.3092 151.648H68.4163C69.0257 151.648 69.5243 152.147 69.5243 152.756V174.864C69.5243 175.473 69.0257 175.972 68.4163 175.972Z" fill="#8A96A2"/>
<path d="M96.4182 177.401H74.3112C73.7017 177.401 73.2031 176.903 73.2031 176.293V154.186C73.2031 153.577 73.7017 153.078 74.3112 153.078H96.4182C97.0276 153.078 97.5263 153.577 97.5263 154.186V176.293C97.5263 176.903 97.0276 177.401 96.4182 177.401Z" fill="#3C4E64"/>
<path d="M96.4182 175.972H74.3112C73.7017 175.972 73.2031 175.473 73.2031 174.864V152.756C73.2031 152.147 73.7017 151.648 74.3112 151.648H96.4182C97.0276 151.648 97.5263 152.147 97.5263 152.756V174.864C97.5263 175.473 97.0276 175.972 96.4182 175.972Z" fill="#8A96A2"/>
<path d="M124.42 177.401H102.313C101.704 177.401 101.205 176.903 101.205 176.293V154.186C101.205 153.577 101.704 153.078 102.313 153.078H124.42C125.03 153.078 125.528 153.577 125.528 154.186V176.293C125.528 176.903 125.03 177.401 124.42 177.401Z" fill="#3C4E64"/>
<path d="M124.42 175.972H102.313C101.704 175.972 101.205 175.473 101.205 174.864V152.756C101.205 152.147 101.704 151.648 102.313 151.648H124.42C125.03 151.648 125.528 152.147 125.528 152.756V174.864C125.528 175.473 125.03 175.972 124.42 175.972Z" fill="#8A96A2"/>
<path d="M40.4143 204.823H18.3073C17.6978 204.823 17.1992 204.325 17.1992 203.715V181.608C17.1992 180.999 17.6978 180.5 18.3073 180.5H40.4143C41.0237 180.5 41.5223 180.999 41.5223 181.608V203.715C41.5223 204.325 41.0237 204.823 40.4143 204.823Z" fill="#3C4E64"/>
<path d="M40.4143 203.393H18.3073C17.6978 203.393 17.1992 202.895 17.1992 202.285V180.178C17.1992 179.569 17.6978 179.07 18.3073 179.07H40.4143C41.0237 179.07 41.5223 179.569 41.5223 180.178V202.285C41.5223 202.895 41.0237 203.393 40.4143 203.393Z" fill="#8A96A2"/>
<path d="M68.4163 204.823H46.3092C45.6998 204.823 45.2012 204.325 45.2012 203.715V181.608C45.2012 180.999 45.6998 180.5 46.3092 180.5H68.4163C69.0257 180.5 69.5243 180.999 69.5243 181.608V203.715C69.5243 204.325 69.0257 204.823 68.4163 204.823Z" fill="#3C4E64"/>
<path d="M68.4163 203.393H46.3092C45.6998 203.393 45.2012 202.895 45.2012 202.285V180.178C45.2012 179.569 45.6998 179.07 46.3092 179.07H68.4163C69.0257 179.07 69.5243 179.569 69.5243 180.178V202.285C69.5243 202.895 69.0257 203.393 68.4163 203.393Z" fill="#8A96A2"/>
<path d="M38.7632 149.948H20.0404C18.5004 149.948 17.2402 148.688 17.2402 147.148V128.425C17.2402 126.885 18.5004 125.625 20.0404 125.625H38.7632C40.3033 125.625 41.5635 126.885 41.5635 128.425V147.148C41.5635 147.963 41.2103 148.7 40.6494 149.213C40.1508 149.669 39.488 149.948 38.7632 149.948Z" fill="#3C4E64"/>
<path d="M38.7632 148.518H20.0404C18.5004 148.518 17.2402 147.258 17.2402 145.718V126.995C17.2402 126.284 17.509 125.633 17.95 125.137C18.4639 124.56 19.2116 124.195 20.0404 124.195H38.7632C40.3033 124.195 41.5635 125.455 41.5635 126.995V145.718C41.5635 147.258 40.3033 148.518 38.7632 148.518Z" fill="#8A96A2"/>
<path d="M96.4182 204.823H74.3112C73.7017 204.823 73.2031 204.325 73.2031 203.715V181.608C73.2031 180.999 73.7017 180.5 74.3112 180.5H96.4182C97.0276 180.5 97.5263 180.999 97.5263 181.608V203.715C97.5263 204.325 97.0276 204.823 96.4182 204.823Z" fill="#3C4E64"/>
<path d="M96.4182 203.393H74.3112C73.7017 203.393 73.2031 202.895 73.2031 202.285V180.178C73.2031 179.569 73.7017 179.07 74.3112 179.07H96.4182C97.0276 179.07 97.5263 179.569 97.5263 180.178V202.285C97.5263 202.895 97.0276 203.393 96.4182 203.393Z" fill="#8A96A2"/>
<path d="M124.42 204.823H102.313C101.704 204.823 101.205 204.325 101.205 203.715V181.608C101.205 180.999 101.704 180.5 102.313 180.5H124.42C125.03 180.5 125.528 180.999 125.528 181.608V203.715C125.528 204.325 125.03 204.823 124.42 204.823Z" fill="#3C4E64"/>
<path d="M124.42 203.393H102.313C101.704 203.393 101.205 202.895 101.205 202.285V180.178C101.205 179.569 101.704 179.07 102.313 179.07H124.42C125.03 179.07 125.528 179.569 125.528 180.178V202.285C125.528 202.895 125.03 203.393 124.42 203.393Z" fill="#8A96A2"/>
<path d="M94.7261 232.253H76.0034C74.4633 232.253 73.2031 230.993 73.2031 229.453V210.73C73.2031 209.19 74.4632 207.93 76.0034 207.93H94.7261C96.2662 207.93 97.5264 209.19 97.5264 210.73V229.453C97.5264 230.223 97.2113 230.923 96.7038 231.43C96.1962 231.938 95.4962 232.253 94.7261 232.253Z" fill="#3C4E64"/>
<path d="M94.7261 230.823H76.0034C74.4633 230.823 73.2031 229.563 73.2031 228.023V209.3C73.2031 208.348 73.6846 207.503 74.416 206.997C74.8679 206.684 75.4152 206.5 76.0034 206.5H94.7261C96.2662 206.5 97.5264 207.76 97.5264 209.3V228.023C97.5264 229.563 96.2663 230.823 94.7261 230.823Z" fill="#8A96A2"/>
<path d="M122.728 232.253H104.005C102.465 232.253 101.205 230.993 101.205 229.453V210.73C101.205 209.19 102.465 207.93 104.005 207.93H122.728C124.268 207.93 125.528 209.19 125.528 210.73V229.453C125.528 230.223 125.213 230.923 124.706 231.43C124.198 231.938 123.498 232.253 122.728 232.253Z" fill="#3C4E64"/>
<path d="M122.728 230.823H104.005C102.465 230.823 101.205 229.563 101.205 228.023V209.3C101.205 208.316 101.72 207.446 102.494 206.946C102.931 206.664 103.45 206.5 104.005 206.5H122.728C124.268 206.5 125.528 207.76 125.528 209.3V228.023C125.528 229.563 124.268 230.823 122.728 230.823Z" fill="#8A96A2"/>
<path d="M66.7105 232.253H19.9311C18.391 232.253 17.1309 230.993 17.1309 229.453V210.73C17.1309 209.19 18.3909 207.93 19.9311 207.93H66.7105C68.2506 207.93 69.5108 209.19 69.5108 210.73V229.453C69.5108 230.195 69.2181 230.872 68.7423 231.375C68.2311 231.915 67.5083 232.253 66.7105 232.253Z" fill="#3C4E64"/>
<path d="M66.7105 230.823H19.9311C18.391 230.823 17.1309 229.563 17.1309 228.023V209.3C17.1309 208.376 17.5841 207.554 18.2792 207.043C18.7432 206.702 19.3146 206.5 19.9311 206.5H66.7105C68.2506 206.5 69.5108 207.76 69.5108 209.3V228.023C69.5108 229.563 68.2506 230.823 66.7105 230.823Z" fill="#8A96A2"/>
<path d="M26.7129 111.945L26.2911 110.837H22.6997L22.2779 111.969C22.1132 112.412 21.9725 112.71 21.8561 112.864C21.7394 113.019 21.5487 113.096 21.2834 113.096C21.0585 113.096 20.8596 113.014 20.6868 112.849C20.5141 112.685 20.4277 112.498 20.4277 112.289C20.4277 112.168 20.4478 112.044 20.4881 111.915C20.5282 111.787 20.5946 111.608 20.6868 111.379L22.9467 105.642C23.011 105.477 23.0882 105.28 23.1786 105.049C23.2691 104.818 23.3655 104.626 23.4679 104.473C23.5703 104.32 23.7049 104.197 23.8716 104.102C24.0382 104.008 24.2442 103.961 24.4892 103.961C24.7382 103.961 24.9464 104.008 25.1129 104.102C25.2798 104.197 25.4142 104.319 25.5167 104.467C25.6192 104.616 25.7054 104.775 25.7758 104.946C25.846 105.117 25.9356 105.345 26.0441 105.63L28.352 111.331C28.5327 111.765 28.6232 112.08 28.6232 112.277C28.6232 112.482 28.5377 112.669 28.3671 112.84C28.1962 113.011 27.9904 113.096 27.7493 113.096C27.6086 113.096 27.4881 113.071 27.3879 113.021C27.2874 112.971 27.2031 112.903 27.1347 112.816C27.0663 112.73 26.9932 112.597 26.9148 112.418C26.8364 112.24 26.7691 112.082 26.7129 111.945ZM23.1695 109.493H25.8091L24.4774 105.847L23.1695 109.493Z" fill="white"/>
<path d="M37.1553 110.156C37.1553 110.437 37.086 110.741 36.9474 111.069C36.8089 111.396 36.5908 111.717 36.2937 112.033C35.9963 112.348 35.6167 112.604 35.1547 112.801C34.6926 112.998 34.1543 113.096 33.5397 113.096C33.0737 113.096 32.6499 113.052 32.2682 112.964C31.8864 112.875 31.5401 112.738 31.2288 112.551C30.9173 112.364 30.6311 112.118 30.3702 111.813C30.137 111.535 29.9381 111.225 29.7736 110.882C29.6088 110.538 29.4851 110.172 29.4028 109.782C29.3206 109.392 29.2793 108.978 29.2793 108.541C29.2793 107.829 29.3827 107.193 29.5896 106.63C29.7966 106.068 30.0928 105.587 30.4786 105.187C30.8642 104.787 31.3161 104.483 31.8343 104.274C32.3525 104.065 32.9048 103.961 33.4914 103.961C34.2064 103.961 34.8432 104.104 35.4017 104.389C35.96 104.674 36.388 105.027 36.6851 105.446C36.9825 105.866 37.1311 106.263 37.1311 106.637C37.1311 106.841 37.0589 107.022 36.9142 107.179C36.7697 107.335 36.5949 107.414 36.3901 107.414C36.1611 107.414 35.9893 107.36 35.8749 107.251C35.7603 107.143 35.6328 106.956 35.4922 106.691C35.2591 106.253 34.985 105.925 34.6696 105.708C34.3542 105.491 33.9654 105.383 33.5035 105.383C32.7684 105.383 32.183 105.662 31.7471 106.221C31.3112 106.779 31.0934 107.572 31.0934 108.601C31.0934 109.288 31.1898 109.859 31.3826 110.315C31.5754 110.771 31.8486 111.112 32.202 111.337C32.5555 111.562 32.9693 111.674 33.4435 111.674C33.9577 111.674 34.3927 111.547 34.7482 111.291C35.1037 111.036 35.3719 110.662 35.5526 110.167C35.629 109.935 35.7233 109.745 35.8359 109.598C35.9483 109.451 36.1292 109.378 36.3783 109.378C36.5911 109.378 36.7739 109.453 36.9266 109.601C37.079 109.75 37.1553 109.935 37.1553 110.156Z" fill="white"/>
<path d="M29.3551 195.766V187.934C27.8974 189.053 26.9161 189.612 26.4114 189.612C26.1703 189.612 25.9565 189.516 25.7701 189.324C25.5835 189.132 25.4902 188.909 25.4902 188.657C25.4902 188.364 25.5821 188.149 25.7658 188.011C25.9494 187.873 26.2737 187.696 26.7384 187.478C27.4327 187.151 27.9878 186.806 28.4039 186.445C28.8198 186.083 29.1885 185.679 29.51 185.231C29.8311 184.784 30.0405 184.508 30.1383 184.405C30.2358 184.302 30.4193 184.25 30.6891 184.25C30.9934 184.25 31.2371 184.368 31.4208 184.603C31.6043 184.838 31.696 185.162 31.696 185.575V195.431C31.696 196.584 31.303 197.161 30.517 197.161C30.1669 197.161 29.8855 197.043 29.6734 196.808C29.461 196.573 29.3551 196.226 29.3551 195.766Z" fill="white"/>
<path d="M33.691 218.267C33.691 219.208 33.6336 220.017 33.5187 220.694C33.4038 221.371 33.1917 221.985 32.8818 222.536C32.4914 223.213 31.9867 223.735 31.3668 224.102C30.7472 224.469 30.0586 224.653 29.301 224.653C28.4287 224.653 27.6471 224.406 26.9557 223.913C26.2641 223.419 25.7434 222.737 25.3933 221.864C25.2154 221.388 25.0847 220.862 25.0018 220.285C24.9184 219.708 24.877 219.084 24.877 218.413C24.877 217.547 24.9228 216.766 25.0146 216.072C25.1065 215.378 25.25 214.781 25.4451 214.281C25.7835 213.455 26.2757 212.825 26.9213 212.392C27.5666 211.959 28.3371 211.742 29.2322 211.742C29.8231 211.742 30.3598 211.838 30.8418 212.03C31.3239 212.223 31.7469 212.504 32.1115 212.874C32.4757 213.244 32.7842 213.702 33.0367 214.247C33.4726 215.194 33.691 216.534 33.691 218.267ZM31.3324 218.094C31.3324 217.044 31.2693 216.185 31.1431 215.516C31.0168 214.848 30.8045 214.343 30.5061 214.002C30.2079 213.66 29.7947 213.49 29.2667 213.49C28.5092 213.49 27.9828 213.871 27.6872 214.634C27.3917 215.397 27.244 216.574 27.244 218.163C27.244 219.242 27.3072 220.126 27.4334 220.814C27.5596 221.503 27.7718 222.024 28.0703 222.376C28.3686 222.729 28.7731 222.906 29.284 222.906C29.8118 222.906 30.2249 222.722 30.5235 222.355C30.8217 221.988 31.0312 221.463 31.1517 220.78C31.2722 220.097 31.3324 219.202 31.3324 218.094Z" fill="white"/>
<path d="M30.552 168.517V166.916H26.2312C25.6858 166.916 25.2771 166.792 25.0045 166.546C24.7319 166.299 24.5957 165.963 24.5957 165.539C24.5957 165.43 24.6157 165.319 24.6561 165.207C24.6962 165.095 24.7564 164.978 24.8368 164.854C24.917 164.731 25.0004 164.612 25.0863 164.497C25.1724 164.383 25.2786 164.242 25.4049 164.075L29.9666 157.973C30.2648 157.571 30.5103 157.28 30.7026 157.099C30.8947 156.919 31.1258 156.828 31.3953 156.828C32.2676 156.828 32.7038 157.327 32.7038 158.326V164.988H33.0739C33.5156 164.988 33.8702 165.048 34.1367 165.168C34.4036 165.289 34.5371 165.553 34.5371 165.96C34.5371 166.293 34.428 166.536 34.2101 166.688C33.9918 166.84 33.6647 166.916 33.2288 166.916H32.7038V168.517C32.7038 168.958 32.606 169.287 32.411 169.502C32.2158 169.717 31.955 169.825 31.6277 169.825C31.3064 169.825 31.0469 169.714 30.8489 169.494C30.6509 169.273 30.552 168.947 30.552 168.517ZM26.8509 164.988H30.5521V159.987L26.8509 164.988Z" fill="white"/>
<path d="M27.1251 130.43H32.8574C33.4084 130.43 33.8072 130.516 34.054 130.688C34.3005 130.86 34.4241 131.144 34.4241 131.54C34.4241 131.781 34.2791 132.1 33.9893 132.495C33.6996 132.891 33.3697 133.329 32.9996 133.808C32.6295 134.287 32.2478 134.883 31.8547 135.594C31.4616 136.306 31.1016 137.175 30.7746 138.202C30.6369 138.655 30.5392 139.032 30.4819 139.33C30.4245 139.628 30.3614 140.015 30.2925 140.492C30.2238 140.968 30.1634 141.332 30.1118 141.585C29.9913 142.17 29.8204 142.576 29.5996 142.803C29.3785 143.029 29.0845 143.143 28.7175 143.143C28.3672 143.143 28.086 143.021 27.8739 142.777C27.6615 142.533 27.5555 142.173 27.5555 141.697C27.5555 141.33 27.6328 140.83 27.7877 140.199C27.9427 139.568 28.1952 138.812 28.5452 137.931C28.8952 137.05 29.3327 136.147 29.8577 135.22C30.3828 134.293 31.007 133.371 31.7298 132.453H27.125C26.6431 132.453 26.2828 132.365 26.0448 132.19C25.8067 132.015 25.6875 131.741 25.6875 131.368C25.6875 130.972 25.8137 130.717 26.0663 130.602C26.3189 130.487 26.6716 130.43 27.1251 130.43Z" fill="white"/>
<path d="M56.3164 194.914H60.8095C61.2571 194.914 61.5984 195.006 61.8338 195.19C62.069 195.373 62.1865 195.623 62.1865 195.939C62.1865 196.22 62.0934 196.458 61.9069 196.653C61.7203 196.848 61.4378 196.946 61.059 196.946H54.7242C54.2937 196.946 53.9581 196.827 53.7172 196.589C53.4761 196.35 53.3555 196.071 53.3555 195.749C53.3555 195.543 53.4329 195.269 53.5879 194.927C53.7428 194.586 53.9119 194.318 54.0956 194.122C54.8587 193.331 55.5474 192.652 56.1613 192.087C56.7755 191.522 57.2143 191.15 57.4782 190.972C57.9488 190.639 58.3403 190.305 58.6531 189.969C58.9658 189.634 59.2041 189.289 59.3676 188.936C59.5312 188.583 59.613 188.238 59.613 187.899C59.613 187.532 59.5253 187.204 59.3505 186.914C59.1752 186.624 58.9374 186.399 58.6361 186.238C58.3348 186.078 58.0062 185.997 57.6505 185.997C56.8986 185.997 56.3078 186.327 55.8773 186.987C55.8199 187.073 55.7237 187.308 55.589 187.693C55.4541 188.077 55.3019 188.373 55.1328 188.58C54.9634 188.786 54.7153 188.889 54.3883 188.889C54.1011 188.889 53.8632 188.795 53.6738 188.605C53.4845 188.416 53.3896 188.158 53.3896 187.83C53.3896 187.435 53.4786 187.022 53.6565 186.591C53.8342 186.161 54.0997 185.771 54.4527 185.421C54.8057 185.071 55.2533 184.788 55.7954 184.573C56.3378 184.358 56.9731 184.25 57.7021 184.25C58.5798 184.25 59.3287 184.388 59.9485 184.663C60.35 184.847 60.703 185.099 61.0073 185.421C61.3113 185.742 61.548 186.113 61.7174 186.535C61.8864 186.957 61.9712 187.395 61.9712 187.848C61.9712 188.559 61.7948 189.206 61.4418 189.789C61.0888 190.371 60.7288 190.827 60.3617 191.157C59.9943 191.487 59.3788 192.005 58.5154 192.711C57.6517 193.417 57.0592 193.965 56.7379 194.355C56.6005 194.51 56.4597 194.696 56.3164 194.914Z" fill="white"/>
<path d="M60.54 159.109H56.4516L55.961 161.897C56.7756 161.462 57.5274 161.243 58.216 161.243C58.7668 161.243 59.2818 161.347 59.761 161.553C60.2401 161.76 60.6605 162.045 61.0219 162.409C61.3836 162.774 61.6675 163.206 61.874 163.705C62.0806 164.204 62.1838 164.741 62.1838 165.314C62.1838 166.146 61.9974 166.904 61.6244 167.587C61.2513 168.27 60.7133 168.812 60.0105 169.214C59.3074 169.615 58.4969 169.816 57.579 169.816C56.5517 169.816 55.7184 169.627 55.0785 169.248C54.4386 168.869 53.9853 168.435 53.7185 167.944C53.4517 167.453 53.3184 167.024 53.3184 166.657C53.3184 166.433 53.4115 166.221 53.5982 166.02C53.7847 165.819 54.0185 165.719 54.2996 165.719C54.7816 165.719 55.1403 165.998 55.3754 166.554C55.6049 167.065 55.9149 167.462 56.3052 167.746C56.6953 168.03 57.1315 168.172 57.6134 168.172C58.0553 168.172 58.4424 168.058 58.7754 167.828C59.1081 167.598 59.3649 167.283 59.5456 166.881C59.7266 166.48 59.8168 166.023 59.8168 165.513C59.8168 164.961 59.7193 164.491 59.5242 164.101C59.3291 163.711 59.0679 163.419 58.741 163.227C58.414 163.035 58.0494 162.939 57.6478 162.939C57.1541 162.939 56.8012 162.999 56.589 163.12C56.3767 163.24 56.0711 163.451 55.6723 163.752C55.2735 164.054 54.9451 164.204 54.687 164.204C54.4058 164.204 54.156 164.102 53.9381 163.899C53.7198 163.695 53.6109 163.464 53.6109 163.206C53.6109 163.177 53.6424 162.982 53.7057 162.62L54.4288 158.497C54.509 158.004 54.6581 157.645 54.8764 157.422C55.0942 157.198 55.45 157.086 55.9435 157.086H60.4881C61.3834 157.086 61.8309 157.427 61.8309 158.11C61.8309 158.408 61.7218 158.65 61.5037 158.833C61.2859 159.017 60.9645 159.109 60.54 159.109Z" fill="white"/>
<path d="M53.5606 133.507C53.5606 132.934 53.7166 132.393 54.0295 131.885C54.3422 131.377 54.8014 130.971 55.4068 130.667C56.0121 130.363 56.7194 130.211 57.5284 130.211C58.2111 130.211 58.8109 130.3 59.3273 130.478C59.8439 130.656 60.2741 130.901 60.6185 131.214C60.9628 131.526 61.218 131.879 61.3846 132.272C61.551 132.665 61.6341 133.083 61.6341 133.525C61.6341 134.087 61.4892 134.589 61.1993 135.031C60.9096 135.473 60.4778 135.835 59.9039 136.116C60.3916 136.305 60.7961 136.553 61.1176 136.86C61.439 137.167 61.6814 137.523 61.8448 137.928C62.0084 138.332 62.0902 138.781 62.0902 139.275C62.0902 139.998 61.915 140.653 61.5652 141.241C61.215 141.83 60.7016 142.29 60.0245 142.623C59.3472 142.956 58.5497 143.122 57.6315 143.122C56.679 143.122 55.8641 142.956 55.1871 142.623C54.5101 142.29 53.9994 141.833 53.655 141.25C53.3107 140.668 53.1387 140.015 53.1387 139.292C53.1387 137.748 53.8672 136.69 55.3249 136.116C54.1485 135.565 53.5606 134.695 53.5606 133.507ZM59.7317 139.206C59.7317 138.758 59.6399 138.368 59.4565 138.035C59.2728 137.702 59.0144 137.447 58.6817 137.269C58.349 137.091 57.9759 137.002 57.5628 137.002C56.9777 137.002 56.487 137.197 56.091 137.588C55.6951 137.978 55.4972 138.523 55.4972 139.223C55.4972 139.671 55.5903 140.065 55.777 140.406C55.9635 140.748 56.2173 141.012 56.5386 141.198C56.86 141.385 57.2186 141.478 57.6146 141.478C58.0161 141.478 58.3776 141.383 58.6991 141.194C59.0205 141.005 59.2729 140.738 59.4566 140.393C59.6399 140.049 59.7317 139.653 59.7317 139.206ZM57.5801 131.855C57.0408 131.855 56.6059 132.023 56.2759 132.359C55.946 132.694 55.7812 133.126 55.7812 133.654C55.7812 134.142 55.9502 134.548 56.2889 134.872C56.6275 135.196 57.0635 135.358 57.5972 135.358C57.867 135.358 58.1121 135.315 58.3332 135.229C58.554 135.143 58.7434 135.024 58.9014 134.872C59.0591 134.72 59.1809 134.539 59.2671 134.33C59.3533 134.12 59.3961 133.889 59.3961 133.637C59.3961 133.298 59.32 132.994 59.168 132.724C59.016 132.455 58.8023 132.242 58.527 132.087C58.2514 131.932 57.9358 131.855 57.5801 131.855Z" fill="white"/>
<path d="M85.2123 189.335C85.7401 189.335 86.1947 189.18 86.5764 188.87C86.9582 188.56 87.1488 188.115 87.1488 187.536C87.1488 187.094 86.9968 186.714 86.6926 186.395C86.3883 186.077 85.9782 185.918 85.4618 185.918C85.1118 185.918 84.8233 185.966 84.5968 186.064C84.37 186.161 84.1907 186.291 84.0588 186.451C83.9268 186.612 83.802 186.818 83.6843 187.071C83.5668 187.324 83.4592 187.562 83.3616 187.785C83.3042 187.906 83.2009 188.001 83.0517 188.069C82.9024 188.138 82.7304 188.173 82.5354 188.173C82.3056 188.173 82.0948 188.08 81.9028 187.893C81.7104 187.706 81.6142 187.458 81.6142 187.148C81.6142 186.85 81.7047 186.536 81.8854 186.206C82.0661 185.876 82.33 185.562 82.6773 185.263C83.0244 184.965 83.4562 184.725 83.9728 184.545C84.4892 184.364 85.0657 184.273 85.7028 184.273C86.2593 184.273 86.767 184.35 87.2262 184.502C87.6851 184.654 88.0839 184.873 88.4226 185.16C88.7612 185.447 89.0165 185.78 89.1888 186.158C89.3608 186.537 89.4469 186.945 89.4469 187.381C89.4469 187.955 89.3221 188.447 89.0725 188.857C88.823 189.267 88.4657 189.667 88.0008 190.057C88.4484 190.299 88.8258 190.574 89.1327 190.884C89.4396 191.194 89.6708 191.537 89.8257 191.912C89.9806 192.288 90.0581 192.694 90.0581 193.13C90.0581 193.652 89.9533 194.157 89.7439 194.645C89.5345 195.133 89.2259 195.567 88.8187 195.949C88.411 196.331 87.9277 196.629 87.3682 196.844C86.8088 197.059 86.1903 197.167 85.5135 197.167C84.8249 197.167 84.208 197.044 83.6629 196.797C83.1176 196.55 82.6686 196.242 82.3159 195.872C81.9629 195.502 81.696 195.119 81.5153 194.722C81.3346 194.327 81.2441 194 81.2441 193.741C81.2441 193.408 81.3517 193.14 81.5671 192.937C81.7822 192.733 82.0504 192.631 82.3717 192.631C82.5323 192.631 82.6873 192.678 82.8365 192.773C82.9855 192.868 83.083 192.981 83.1291 193.113C83.4274 193.91 83.7473 194.503 84.0887 194.89C84.43 195.278 84.9108 195.471 85.5305 195.471C85.8862 195.471 86.229 195.384 86.5592 195.209C86.8889 195.034 87.1617 194.774 87.3768 194.43C87.592 194.086 87.6995 193.687 87.6995 193.233C87.6995 192.562 87.5159 192.036 87.1487 191.654C86.7814 191.273 86.2707 191.082 85.6167 191.082C85.5018 191.082 85.3241 191.093 85.083 191.116C84.8419 191.139 84.6871 191.151 84.6182 191.151C84.3025 191.151 84.0587 191.072 83.8866 190.914C83.7143 190.756 83.6285 190.537 83.6285 190.255C83.6285 189.98 83.7317 189.758 83.9382 189.588C84.1448 189.419 84.4518 189.335 84.8592 189.335H85.2123V189.335Z" fill="white"/>
<path d="M86.1207 225.825C85.765 225.825 85.458 225.71 85.1999 225.481C84.9417 225.252 84.8125 224.93 84.8125 224.517C84.8125 224.167 84.9358 223.866 85.1826 223.613C85.4294 223.361 85.7336 223.234 86.0951 223.234C86.4565 223.234 86.7651 223.359 87.0203 223.609C87.2758 223.859 87.4034 224.161 87.4034 224.517C87.4034 224.924 87.2758 225.244 87.0203 225.477C86.765 225.709 86.4651 225.825 86.1207 225.825Z" fill="white"/>
<path d="M116.95 217.935H108.119V215.68H116.95V217.935ZM116.95 221.756H108.119V219.501H116.95V221.756Z" fill="white"/>
<path d="M113.636 195.464H111.416V192.185H108.119V189.93H111.416V186.633H113.636V189.93H116.95V192.185H113.636V195.464Z" fill="white"/>
<path d="M115.169 165.41H111.505C110.949 165.41 110.525 165.314 110.236 165.122C109.946 164.93 109.801 164.682 109.801 164.377C109.801 164.067 109.942 163.817 110.224 163.624C110.506 163.432 110.933 163.336 111.505 163.336H115.169C115.741 163.336 116.168 163.432 116.451 163.624C116.733 163.817 116.874 164.067 116.874 164.377C116.874 164.682 116.735 164.93 116.456 165.122C116.178 165.314 115.749 165.41 115.169 165.41Z" fill="white"/>
<path d="M63.5763 116.256H61.8539V113.713H59.2969V111.963H61.8539V109.406H63.5763V111.963H66.1467V113.713H63.5763V116.256Z" fill="white"/>
<path d="M54.7182 107.09H51.0542C50.4975 107.09 50.0743 106.994 49.7844 106.802C49.4946 106.609 49.3496 106.361 49.3496 106.057C49.3496 105.747 49.4904 105.496 49.7728 105.304C50.0549 105.112 50.4819 105.016 51.0542 105.016H54.7182C55.2901 105.016 55.7172 105.112 55.9996 105.304C56.2815 105.496 56.4227 105.747 56.4227 106.057C56.4227 106.361 56.2835 106.609 56.0053 106.802C55.727 106.994 55.2979 107.09 54.7182 107.09Z" fill="white"/>
<path d="M114.695 140.191L112.991 137.686L111.244 140.191C110.991 140.541 110.777 140.791 110.602 140.94C110.427 141.089 110.205 141.163 109.935 141.163C109.637 141.163 109.383 141.07 109.174 140.884C108.964 140.697 108.859 140.483 108.859 140.243C108.859 139.996 109.02 139.643 109.342 139.184L111.467 136.137L109.582 133.598C109.255 133.179 109.092 132.814 109.092 132.505C109.092 132.264 109.189 132.054 109.384 131.876C109.579 131.698 109.835 131.609 110.151 131.609C110.426 131.609 110.654 131.687 110.835 131.842C111.016 131.997 111.226 132.241 111.467 132.573L112.991 134.656L114.471 132.573C114.718 132.229 114.932 131.983 115.113 131.833C115.293 131.684 115.518 131.609 115.788 131.609C116.098 131.609 116.355 131.697 116.559 131.872C116.762 132.047 116.864 132.258 116.864 132.505C116.864 132.682 116.823 132.853 116.739 133.017C116.656 133.18 116.528 133.374 116.356 133.598L114.471 136.137L116.597 139.184C116.93 139.66 117.097 140.019 117.097 140.26C117.097 140.506 116.993 140.719 116.787 140.896C116.58 141.074 116.325 141.163 116.021 141.163C115.751 141.163 115.523 141.086 115.336 140.931C115.15 140.776 114.936 140.529 114.695 140.191Z" fill="white"/>
<path d="M116.95 108.56V110.816H108.119V108.56H116.95ZM112.543 107.467C112.342 107.467 112.149 107.408 111.962 107.291C111.776 107.173 111.623 107.018 111.506 106.826C111.388 106.634 111.329 106.443 111.329 106.254C111.329 105.869 111.45 105.569 111.691 105.354C111.932 105.139 112.216 105.031 112.543 105.031C112.865 105.031 113.147 105.14 113.391 105.358C113.635 105.577 113.757 105.875 113.757 106.254C113.757 106.581 113.636 106.865 113.395 107.106C113.154 107.347 112.87 107.467 112.543 107.467ZM112.543 114.327C112.342 114.327 112.147 114.266 111.958 114.142C111.769 114.019 111.616 113.864 111.502 113.677C111.387 113.491 111.329 113.3 111.329 113.105C111.329 112.726 111.45 112.429 111.691 112.214C111.932 111.999 112.216 111.891 112.543 111.891C112.865 111.891 113.147 112 113.391 112.218C113.635 112.436 113.757 112.732 113.757 113.105C113.757 113.432 113.638 113.718 113.4 113.961C113.161 114.205 112.876 114.327 112.543 114.327Z" fill="white"/>
<path d="M78.75 105.961C78.75 105.387 78.956 104.9 79.3678 104.498C79.7795 104.096 80.2797 103.895 80.8683 103.895C81.4565 103.895 81.9583 104.096 82.373 104.498C82.7879 104.9 82.9953 105.387 82.9953 105.961C82.9953 106.535 82.7879 107.024 82.373 107.428C81.9583 107.833 81.4564 108.035 80.8683 108.035C80.2797 108.035 79.7795 107.833 79.3678 107.428C78.956 107.024 78.75 106.535 78.75 105.961ZM89.1559 102.113L80.7535 116.918L79.3944 116.186L87.7966 101.391L89.1559 102.113ZM79.9858 105.97C79.9858 106.205 80.0724 106.407 80.246 106.576C80.4194 106.746 80.627 106.83 80.8683 106.83C81.1094 106.83 81.3168 106.746 81.4904 106.576C81.6638 106.407 81.7509 106.205 81.7509 105.97C81.7509 105.734 81.6638 105.532 81.4904 105.363C81.3167 105.194 81.1094 105.109 80.8683 105.109C80.627 105.109 80.4194 105.194 80.246 105.363C80.0724 105.532 79.9858 105.734 79.9858 105.97ZM85.034 113.174C85.034 112.6 85.24 112.112 85.652 111.711C86.0638 111.309 86.564 111.108 87.1524 111.108C87.7406 111.108 88.2424 111.309 88.6572 111.711C89.0721 112.112 89.2795 112.6 89.2795 113.174C89.2795 113.748 89.0721 114.237 88.6572 114.641C88.2424 115.046 87.7406 115.248 87.1524 115.248C86.5641 115.248 86.0639 115.046 85.652 114.641C85.24 114.237 85.034 113.748 85.034 113.174ZM86.2698 113.182C86.2698 113.418 86.3564 113.62 86.53 113.789C86.7037 113.959 86.911 114.043 87.1523 114.043C87.3934 114.043 87.6008 113.959 87.7744 113.789C87.9481 113.62 88.0349 113.418 88.0349 113.182C88.0349 112.947 87.9481 112.745 87.7744 112.576C87.6008 112.407 87.3934 112.322 87.1523 112.322C86.911 112.322 86.7037 112.407 86.53 112.576C86.3564 112.745 86.2698 112.947 86.2698 113.182Z" fill="white"/>
<path d="M62.8005 102.113L54.3982 116.918L53.0391 116.186L61.4412 101.391L62.8005 102.113Z" fill="white"/>
<path d="M83.5776 162.776C83.9677 162.312 84.3923 161.967 84.8514 161.743C85.3103 161.52 85.824 161.408 86.3921 161.408C86.9372 161.408 87.4408 161.51 87.9028 161.713C88.3647 161.917 88.7692 162.207 89.1165 162.583C89.4636 162.959 89.7317 163.402 89.9211 163.912C90.1105 164.423 90.2052 164.957 90.2052 165.514C90.2052 166.323 90.0202 167.057 89.6501 167.717C89.2798 168.377 88.7634 168.892 88.1008 169.262C87.4379 169.632 86.6877 169.817 85.85 169.817C84.8859 169.817 84.0539 169.582 83.3539 169.111C82.6539 168.641 82.1188 167.945 81.7487 167.024C81.3786 166.103 81.1934 164.977 81.1934 163.646C81.1934 162.561 81.3055 161.591 81.5293 160.736C81.7531 159.881 82.0744 159.173 82.4932 158.61C82.912 158.048 83.4197 157.624 84.0166 157.336C84.6133 157.05 85.2934 156.906 86.0566 156.906C86.791 156.906 87.4379 157.05 87.9974 157.336C88.5571 157.624 88.9787 157.979 89.2628 158.404C89.5468 158.829 89.689 159.236 89.689 159.626C89.689 159.861 89.5998 160.075 89.4221 160.267C89.2442 160.46 89.0174 160.556 88.7421 160.556C88.501 160.556 88.2773 160.48 88.0708 160.328C87.8641 160.176 87.7121 159.965 87.6146 159.695C87.4825 159.351 87.273 159.074 86.9862 158.864C86.6993 158.655 86.3666 158.55 85.9878 158.55C85.6835 158.55 85.381 158.638 85.0798 158.813C84.7785 158.988 84.5246 159.224 84.318 159.523C83.8989 160.131 83.6521 161.216 83.5776 162.776ZM85.9015 168.121C86.481 168.121 86.9602 167.885 87.339 167.411C87.7177 166.938 87.907 166.317 87.907 165.548C87.907 165.026 87.8179 164.577 87.6402 164.201C87.4622 163.825 87.2184 163.538 86.9085 163.34C86.5988 163.142 86.2572 163.043 85.8844 163.043C85.5284 163.043 85.1884 163.138 84.8644 163.327C84.5401 163.517 84.279 163.791 84.0812 164.149C83.8832 164.508 83.7843 164.928 83.7843 165.41C83.7843 166.185 83.985 166.83 84.3868 167.347C84.7883 167.863 85.2933 168.121 85.9015 168.121Z" fill="white"/>
<path d="M87.5616 137.267C87.1828 137.715 86.7597 138.052 86.292 138.279C85.8242 138.505 85.3064 138.618 84.7384 138.618C84.1989 138.618 83.6953 138.514 83.2277 138.304C82.7601 138.095 82.3554 137.802 82.0142 137.426C81.6727 137.05 81.4102 136.612 81.2267 136.109C81.0428 135.607 80.9512 135.081 80.9512 134.53C80.9512 133.939 81.0544 133.378 81.2611 132.847C81.4675 132.317 81.7631 131.856 82.1475 131.466C82.5319 131.076 82.9895 130.772 83.5205 130.554C84.0509 130.335 84.6377 130.227 85.2806 130.227C86.0208 130.227 86.6804 130.361 87.2602 130.631C87.8397 130.901 88.3276 131.292 88.7234 131.806C89.1194 132.32 89.4234 132.967 89.6358 133.747C89.848 134.527 89.9542 135.411 89.9542 136.398C89.9542 137.5 89.8422 138.471 89.6185 139.311C89.3948 140.152 89.0691 140.858 88.6416 141.429C88.214 142 87.702 142.424 87.1052 142.703C86.5084 142.981 85.8314 143.12 85.0738 143.12C84.328 143.12 83.6794 142.978 83.1287 142.694C82.5779 142.41 82.1588 142.057 81.8719 141.635C81.5849 141.213 81.4417 140.808 81.4417 140.417C81.4417 140.176 81.5305 139.961 81.7085 139.772C81.8863 139.583 82.113 139.488 82.3885 139.488C82.6408 139.488 82.8675 139.558 83.0685 139.699C83.2692 139.839 83.4212 140.05 83.5244 140.331C83.6506 140.676 83.8603 140.953 84.1529 141.162C84.4455 141.371 84.7754 141.476 85.1425 141.476C85.4698 141.476 85.7795 141.393 86.0723 141.227C86.3649 141.06 86.6144 140.825 86.8211 140.521C87.2346 139.907 87.4812 138.822 87.5616 137.267ZM87.3636 134.633C87.3636 134.243 87.3105 133.883 87.2045 133.553C87.0982 133.223 86.9491 132.938 86.7568 132.697C86.5647 132.456 86.3353 132.266 86.0684 132.129C85.8016 131.991 85.5103 131.922 85.1947 131.922C84.6494 131.922 84.1877 132.156 83.809 132.624C83.4302 133.091 83.2409 133.71 83.2409 134.479C83.2409 135.242 83.4303 135.85 83.809 136.303C84.1878 136.757 84.6667 136.983 85.2465 136.983C85.6022 136.983 85.9422 136.89 86.2665 136.703C86.5905 136.517 86.8544 136.246 87.0581 135.89C87.2618 135.534 87.3636 135.115 87.3636 134.633Z" fill="white"/>
</svg>
