<svg width="279" height="171" viewBox="0 0 279 171" fill="none" xmlns="http://www.w3.org/2000/svg">
<path d="M169.562 24.3032C177.685 23.3072 185.821 22.4081 193.928 21.2943C209.464 19.1599 224.739 15.6877 239.971 12.0227C244.96 10.8223 249.564 8.84366 253.702 5.73282C256.575 3.57304 259.696 1.8017 263.13 0.594677C267.416 -0.911259 270.911 0.61719 274.157 3.22605C275.779 4.52972 275.829 6.49716 276.06 8.34729C276.175 9.27087 276.037 10.2347 276.597 11.0675C276.537 11.1225 276.479 11.1801 276.423 11.2401C276.212 17.3668 275.543 23.4288 273.867 29.3485C273.636 30.1652 273.532 31.0296 272.989 31.7306C271.103 32.3174 271.305 30.8083 271.32 29.8655C271.354 27.752 271.963 25.7059 272.413 23.6493C273.474 18.8022 273.77 13.9352 273.015 9.01445C272.772 7.42957 272.103 6.11781 270.566 4.54031C270.887 9.03608 270.079 12.7844 268.913 16.5188C267.873 19.8492 266.052 22.54 263.518 24.8543C262.485 25.7977 261.415 26.7379 260.67 27.9471C260.254 28.6216 259.897 29.402 260.626 30.0772C261.301 30.7025 262.093 30.5149 262.792 30.0727C263.78 29.4475 264.571 28.5472 265.621 27.9999C266.501 27.5417 267.407 27.3093 268.266 27.9583C269.14 28.6188 269.225 29.6033 268.849 30.5106C265.133 39.4764 266.11 48.9276 265.931 58.2582C265.754 67.3205 262.929 75.2469 256.088 81.5098C253.9 83.5132 251.877 85.6965 249.78 87.7974C247.284 90.1585 244.943 92.6785 242.447 95.0387C241.225 96.194 239.985 97.4741 238.013 97.0539C237.862 95.5515 239.014 94.7263 239.969 94.1416C245.393 90.8201 247.927 85.4473 250.363 79.9738C250.552 79.5504 250.7 79.106 250.964 78.7158C251.937 77.5968 252.9 76.4694 253.86 75.3393C254.589 74.4801 255.158 73.5136 255.158 72.3928C255.158 65.1826 257.041 58.381 259.419 51.6542C260.318 49.1119 260.056 48.8457 257.347 48.286C255.729 47.9517 254.902 46.8939 254.617 45.4357C253.966 42.1025 253.029 38.8858 254.142 35.3208C255.369 31.3889 255.284 27.1483 255.603 23.0395C255.799 20.5212 254.325 18.2332 253.037 16.1173C252.196 14.7344 251.077 15.7336 250.313 16.488C248.211 18.5649 245.685 19.6102 242.779 19.8509C242.312 19.8896 241.847 19.9318 241.377 19.8943C238.603 19.6726 238.133 18.7306 239.619 16.3623C239.778 16.1087 240.012 15.8792 239.758 15.2712C233.41 16.8821 226.905 18.0086 220.499 19.6104C215.032 20.9309 209.411 21.1967 203.875 22.0425C203.184 22.1481 202.488 22.2097 201.816 22.4202C195.385 23.6003 188.929 24.6449 182.469 25.6289C178.484 26.236 174.406 26.1045 170.372 25.62C169.803 25.3653 169.423 24.9927 169.562 24.3032Z" fill="#9BABC6"/>
<path d="M169.561 24.3043C169.711 24.5881 169.862 24.8718 170.013 25.1557C169.236 25.9937 168.193 25.9087 167.204 25.9195C164.427 25.95 161.65 25.9619 158.874 25.9265C155.412 25.851 151.948 25.6375 148.498 26.1318C143.643 26.983 138.688 26.9052 133.827 27.71C123.906 27.5245 114.047 28.7329 104.162 29.0643C90.8567 29.5104 77.7187 27.4403 64.7603 24.405C53.3103 21.7818 42.0648 18.456 31.0261 14.4311C27.2891 12.9961 23.5439 11.5851 19.6298 10.6874C17.3182 10.1457 15.0912 9.25287 12.6326 9.37147C10.9794 9.45121 9.42055 9.66261 8.04404 10.6404C3.21154 14.296 1.54631 19.8379 3.49861 25.5371C5.16089 30.3897 7.20583 35.0923 9.02791 39.884C11.6881 47.0028 12.9056 54.4545 14.1345 61.9038C14.2494 62.6007 14.2854 63.2953 14.1382 63.9922C13.88 64.7139 13.8609 65.5495 13.1697 66.0696C12.4899 62.0167 11.7987 57.9656 11.1327 53.9103C9.92277 46.5428 7.09218 39.6866 4.56618 32.7243C3.16242 28.8551 1.79407 24.9828 1.2626 20.8153C0.414188 14.1633 5.76192 6.86511 12.3939 6.58086C15.6564 6.44102 18.8162 7.718 21.8811 8.85338C29.5596 11.6978 37.1357 14.8355 44.8831 17.4733C55.9548 21.2429 67.3568 23.7208 78.9636 25.2218C89.1874 26.5439 99.4861 27.6669 109.751 26.9141C119.767 26.1796 129.823 26.2006 139.823 24.8756C149.667 23.5711 159.64 24.2203 169.561 24.3043Z" fill="#B4BFD0"/>
<path d="M13.1706 66.0744C13.3407 65.4403 12.9869 64.6751 13.6486 64.1641C14.248 64.6519 14.3339 65.3612 14.4174 66.049C14.8564 69.66 15.3605 73.2664 15.3169 76.9182C15.2199 80.7362 15.297 84.5532 15.3548 88.3698C15.1909 90.2213 15.3052 92.0779 15.2786 93.932C15.2889 94.3577 15.2818 94.7835 15.2871 95.2095C15.37 96.2082 15.3038 97.2065 15.2873 98.2056C15.21 104.484 15.369 110.761 15.3259 117.035C14.8617 119.968 14.1703 122.821 12.2724 125.225C11.3666 125.497 10.8615 125.003 10.4766 124.28C12.9445 114.673 12.9759 104.86 12.7698 95.0556C12.5666 85.3862 13.6029 75.7416 13.1706 66.0744Z" fill="#93A3BF"/>
<path d="M10.477 124.273C10.9249 124.571 11.3728 124.869 11.8207 125.167C12.5404 126.748 11.527 128.126 11.3095 129.599C10.6713 131.726 11.3808 133.944 10.8788 136.079C10.2544 138.258 8.62429 139.783 7.30051 141.502C5.92079 143.293 4.47802 145.034 3.42141 147.051C1.3288 151.047 1.81465 154.33 4.72427 157.813C8.33684 162.138 12.8983 164.144 18.483 163.975C19.3397 163.95 20.1982 163.965 21.0579 163.928C25.0453 163.769 29.0758 164.553 33.0122 163.256C33.6501 163.046 34.6185 162.924 34.7812 164.094C29.7927 165.102 24.9124 166.424 19.7155 166.572C13.0422 166.761 7.8266 164.32 3.35223 159.691C2.9251 159.249 2.42232 158.88 1.9548 158.478C-1.24403 153.588 -0.251274 149.019 3.01102 144.622C3.15022 144.434 3.25552 144.219 3.40682 144.043C6.89703 139.976 9.63483 135.697 9.11153 129.905C8.94669 128.084 9.98776 126.154 10.477 124.273Z" fill="#69749D"/>
<path d="M233.368 163.181C227.59 162.008 221.808 160.855 216.036 159.658C208.213 158.035 200.327 156.919 192.332 157.626C183.19 158.435 174.049 157.892 164.909 157.951C153.791 158.022 142.665 157.772 131.556 158.115C118.53 158.518 105.524 159.436 92.479 159.593C87.8817 159.648 83.2682 159.851 78.6636 159.843C66.1773 159.823 53.6815 159.55 41.3743 162.258C40.633 162.509 40.2028 162.427 40.5586 161.498C43.5888 159.692 47.0787 159.495 50.4034 158.778C56.3227 157.503 62.3552 157.752 68.3619 157.79C80.2434 157.866 92.1317 158.047 104.003 157.693C110.448 157.502 116.913 157.099 123.351 156.505C126.376 156.226 129.43 156.149 132.456 156.049C139.707 155.808 146.954 155.171 154.217 155.458C162.58 155.1 170.917 156.107 179.283 155.938C185.215 155.819 191.128 155.494 197.043 155.064C200.862 154.787 204.726 154.738 208.462 155.721C217.532 158.109 226.742 159.802 235.951 161.513C236.78 161.667 237.615 161.803 237.986 161.977C234.744 160.986 230.905 160.669 227.216 159.673C226.38 159.447 225.524 159.347 224.928 158.629C224.766 157.566 225.645 157.416 226.235 157.503C231.427 158.269 236.715 158.661 241.534 161.048C242.057 161.848 242.742 162.369 243.659 162.762C250.405 165.647 257.411 167.342 264.754 167.597C265.543 167.625 266.306 167.432 267.082 167.38C268.13 167.308 269.748 166.872 269.895 168.142C270.053 169.498 268.403 169.426 267.353 169.446C265.857 169.475 264.409 169.78 262.941 169.979C262.361 170.058 261.919 170.327 261.524 170.722C255.164 171.105 249.486 168.763 243.83 166.311C240.469 164.855 236.995 163.758 233.368 163.181Z" fill="#59648F"/>
<path d="M261.525 170.725C262.255 168.308 264.456 169.304 266.005 168.854C267.135 168.527 268.447 169.142 269.777 168.311C269.236 167.767 268.688 167.838 268.226 167.895C259.234 169.014 250.943 166.421 242.776 163.134C241.919 162.789 241.209 162.415 241.355 161.324C242.583 160.813 243.644 161.495 244.735 161.833C249.886 163.431 255.021 165.073 260.427 165.619C262.297 165.808 264.158 166.004 266.019 165.596C268.36 165.292 270.519 164.533 272.494 163.197C275.235 161.343 275.841 158.715 275.399 155.659C274.672 151.035 272.252 147.019 270.731 142.68C269.28 138.543 267.876 134.41 267.337 130.036C267.224 129.119 266.891 128.181 267.623 127.353C268.146 127.065 268.635 127.154 269.103 127.483C271.059 137.301 275.129 146.433 278.296 155.859C280.903 163.621 276.016 170.478 267.8 170.749C265.708 170.818 263.615 171.176 261.525 170.725Z" fill="#4A588B"/>
<path d="M269.105 127.476C268.623 127.487 268.142 127.498 267.66 127.509C266.949 127.024 266.705 126.264 266.609 125.49C265.915 119.899 264.35 114.474 263.522 108.901C262.736 103.604 263.883 98.4731 264.346 93.2786C264.429 92.3477 264.592 91.4196 264.718 90.4905C265.781 82.6179 267.078 74.7812 268.384 66.9462C268.65 65.3514 268.609 63.6526 269.764 62.316C271.681 62.1008 271.75 63.2029 271.394 64.6073C270.537 70.2194 269.652 75.8274 268.838 81.4456C268.536 83.5238 268.227 85.6257 268.222 87.7175C268.205 94.9819 267.325 102.2 267.158 109.452C267.038 114.677 267.276 119.872 268.857 124.924C269.106 125.722 269.03 126.622 269.105 127.476Z" fill="#585E8D"/>
<path d="M271.393 64.6051C271.462 63.496 270.958 62.7311 269.978 62.2517C269.223 61.5099 269.181 60.5245 269.311 59.6171C270.157 53.7181 269.284 47.7327 270.257 41.8412C270.652 39.4505 270.993 37.0506 271.457 34.6717C271.668 33.5925 271.956 32.5343 272.768 31.7152C273.41 28.6105 273.942 25.4775 274.724 22.4084C275.661 18.7298 275.204 14.8567 276.423 11.2344C277.685 18.8111 275.755 26.0876 274.12 33.3381C272.527 40.4027 272.095 47.5025 272.296 54.6926C272.388 58.0259 272.248 61.3516 271.393 64.6051Z" fill="#6D759E"/>
<path d="M158.731 25.1844C162.492 25.1752 166.253 25.1661 170.014 25.1566C177.994 25.6842 185.824 24.6373 193.62 23.0377C196.346 22.4783 199.143 22.2639 201.907 21.892C202.799 21.4608 203.777 21.5853 204.153 22.4003C204.63 23.4366 203.652 24.1049 202.891 24.6013C200.089 26.4271 196.834 26.4677 193.667 26.7703C192.043 26.9255 190.393 26.7374 188.761 26.833C187.678 26.8963 186.248 26.4513 185.823 28.0058C185.435 29.4211 186.924 31.5618 188.503 31.8788C190.333 32.2464 192.188 32.4555 194.069 32.4947C201.017 32.6395 207.921 32.2109 214.781 31.0995C220.674 31.2248 220.47 31.4565 221.991 36.7856C224.155 44.3654 221.007 50.5857 217.722 56.8242C215.608 60.8392 212.326 64.0863 209.85 67.8822C209.244 68.8126 208.404 69.5274 207.417 70.0444C202.492 72.6243 198.446 76.5455 193.541 79.1498C190.54 80.7431 187.901 82.9894 184.305 83.4857C181.44 83.8812 178.938 85.6008 176.184 86.4942C175.486 86.7206 175.057 87.3129 174.649 87.8951C174.237 88.4826 173.749 89.0881 173.051 89.2154C168.684 90.0119 165.207 92.918 160.976 94.1578C157.122 95.2869 153.669 97.6192 149.883 99.0823C149.233 99.333 148.632 99.7418 147.949 99.9138C140.056 101.905 132.731 105.513 125.009 107.986C116.151 110.822 107.256 113.463 98.0823 115.198C89.896 116.746 81.6963 117.742 73.3914 117.27C66.3022 116.868 59.1697 116.494 52.4002 113.938C50.0592 113.054 47.5151 112.838 45.2142 111.793C42.5103 110.564 39.7508 109.455 37.579 107.305C36.9178 106.651 36.064 106.217 35.2362 105.761C29.6786 102.703 25.2817 98.4075 21.8417 93.1013C20.4709 90.987 20.6248 88.9287 22.1809 87.0309C23.2693 85.7037 23.2101 84.5352 22.176 83.2521C20.6431 81.35 20.2911 78.9682 19.751 76.7062C18.6796 72.2199 17.8912 67.6858 17.6732 63.0522C17.5329 60.0729 16.5306 57.2314 15.7198 54.375C15.3866 53.2012 14.6273 52.3151 13.5421 51.7271C13.1833 51.4146 12.8543 51.0411 12.798 50.5767C12.3634 46.9948 10.6298 43.7964 9.79625 40.3344C9.33571 38.0228 8.26089 35.9153 7.5782 33.6772C7.32145 32.8357 7.00582 31.9807 7.81889 31.2964C8.64454 30.6016 9.60001 30.7258 10.4604 31.2049C12.2825 32.2194 13.7734 33.6355 14.5429 35.584C17.8739 44.0176 21.2611 52.4438 20.4273 61.8236C19.9507 67.186 21.7328 71.7885 25.2389 75.8177C27.7492 78.7024 30.066 81.7827 32.6418 84.5758C35.6052 87.7891 38.841 90.8049 42.896 92.8651C46.0075 94.446 48.6991 96.8348 52.1893 97.7383C59.8506 99.7215 67.3272 102.075 75.4733 102.228C82.8781 102.368 89.6925 100.905 96.5115 98.5477C99.5901 97.4835 102.869 97.1684 105.836 95.5865C110.998 92.8352 116.511 90.7991 121.768 88.2488C124.166 87.0853 126.163 85.0937 128.54 83.7421C129.77 83.0427 130.946 82.3142 132.327 81.9543C134.499 81.3882 136.354 80.2848 137.838 78.5845C138.199 78.1708 138.57 77.5604 139.069 77.5486C142.03 77.478 143.897 75.1943 146.336 74.0857C146.835 73.8588 147.38 73.6884 147.778 73.3142C151.635 69.6828 156.832 68.903 161.464 66.9435C162.853 66.3558 164.142 65.742 165.314 64.8141C168.43 62.3479 171.451 59.7835 175.129 58.0743C176.675 57.3557 178.557 56.3994 178.206 53.9332C178.084 53.0727 178.974 52.5354 179.697 52.3103C183.266 51.1989 184.478 48.1128 185.782 45.1345C186.371 43.788 186.691 42.3626 187.57 41.0979C188.536 39.7083 187.345 37.5415 185.358 36.6428C182.873 35.5189 180.174 35.4295 177.549 35.2793C172.393 34.9844 167.266 34.4841 162.175 33.6683C155.536 32.6047 148.852 32 142.16 31.4459C140.902 31.3418 139.675 31.1238 138.498 30.6898C137.947 30.4866 137.128 30.3546 137.216 29.5649C137.294 28.8571 138.074 28.7592 138.648 28.5472C138.867 28.4663 139.101 28.4058 139.335 28.403C142.529 28.3638 145.425 27.113 148.401 26.181C148.899 26.0502 149.403 25.9675 149.918 25.9534C152.838 25.4949 155.838 25.9536 158.731 25.1844Z" fill="#D4E2EC"/>
<path d="M265.29 90.4348C265.312 93.8671 264.672 97.2562 264.221 100.621C263.572 105.463 264.214 110.082 265.302 114.698C266.302 118.939 266.835 123.254 267.658 127.52C268.144 134.11 270.375 140.23 272.81 146.278C274.053 149.367 275.544 152.358 276.072 155.691C273.982 157.76 271.138 158.61 268.751 160.205C267.389 161.115 266.005 161.971 264.948 163.253C263.953 164.462 263.577 165.45 265.729 165.632C265.954 165.651 266.133 165.848 266.265 166.048C263.043 167.196 259.791 166.343 256.686 165.77C251.457 164.806 246.338 163.25 241.355 161.328C236.59 159.657 231.581 159.069 226.669 158.056C226.095 157.938 225.409 157.869 224.949 158.468C223.785 159.485 222.557 158.81 221.387 158.542C215.375 157.167 209.392 155.698 203.229 155.057C198.908 154.607 194.668 155.68 190.373 155.427C189.438 155.372 188.49 155.485 187.563 155.328C186.728 155.187 185.649 155.088 185.592 154.049C185.541 153.132 186.564 152.976 187.289 152.731C187.733 152.581 188.198 152.494 188.661 152.422C194.532 151.504 200.436 150.743 206.355 150.38C213.6 149.935 220.625 151.685 227.598 153.444C229.262 153.864 230.868 154.573 232.585 154.737C237.367 155.193 241.831 154.738 244.802 150.207C245.613 148.97 247.04 148.242 247.735 146.884C248.375 145.761 249.505 145.156 250.435 144.333C254.255 140.949 257.985 137.481 259.08 132.171C259.78 128.772 259.173 128.059 255.745 128.228C254.36 128.297 253.309 128.2 253.824 126.376C255.868 122.762 257.346 118.878 259.173 115.16C259.932 113.616 260.32 111.943 260.461 110.196C260.787 106.152 261.358 102.144 262.122 98.1505C262.748 94.8733 261.153 93.2562 257.793 93.5111C255.522 93.6834 253.371 94.4708 251.192 95.0978C248.19 95.9617 246.877 94.7209 247.462 91.6198C247.744 90.1257 248.438 88.826 249.324 87.6146C252.032 84.8346 254.76 82.0751 257.441 79.2698C261.586 74.9328 263.931 69.7251 264.815 63.8218C265.078 62.0617 265.431 60.3126 265.29 58.5177C265.739 57.7446 265.751 56.8877 265.763 56.0322C265.779 54.9333 265.912 53.8414 266.333 52.8312C266.708 51.933 267.027 50.6205 268.302 50.9505C269.372 51.2273 269.21 52.4595 269.151 53.3775C268.663 60.8415 267.915 68.2799 266.637 75.6521C265.971 79.4909 265.622 83.3666 265.098 87.221C264.957 88.2635 264.786 89.3922 265.29 90.4348Z" fill="#6979A9"/>
<path d="M220.696 19.0704C225.242 17.4844 230.046 16.9998 234.685 15.8132C236.341 15.3896 237.999 14.9753 239.657 14.5573C240.187 14.4237 240.786 14.2163 241.148 14.7729C241.522 15.3459 241.034 15.7632 240.71 16.2079C240.147 16.9822 238.59 17.5795 239.255 18.5578C239.892 19.4943 241.391 19.3234 242.652 19.2202C245.578 18.9807 248.021 17.9599 250.088 15.798C252.105 13.69 252.86 14.1211 254.306 16.7108C256.681 20.963 256.194 25.3051 255.583 29.805C255.196 32.646 254.691 35.4415 254.171 38.2527C253.67 40.9602 254.87 43.7434 255.59 46.4314C255.891 47.5569 256.98 47.7063 258.08 47.7327C260.561 47.7919 261.09 48.5207 260.366 50.934C259.651 53.3148 258.948 55.7152 257.993 58.0042C256.398 61.8285 256.004 65.9219 256.05 69.8831C256.098 74.1246 253.893 76.6357 251.21 79.1628C250.54 79.6068 250.541 81.235 249.116 80.3513C248.94 79.7891 249.12 79.2718 249.331 78.7634C252.371 71.4509 254.079 63.7342 256.202 56.1435C256.688 54.4063 256.711 52.5899 257.173 50.8452C257.497 49.6215 256.895 49.1071 255.657 49.2C254.486 49.2878 253.332 49.4666 252.181 49.7006C251.797 49.75 251.414 49.7583 251.027 49.7316C248.158 49.0514 247.235 47.856 247.303 45.0118C247.326 44.0619 247.658 43.1768 247.75 42.2484C249.417 36.8515 250.953 31.3999 253.935 26.519C254.753 25.047 255.412 23.5796 253.851 22.1526C250.739 20.3886 247.549 20.9827 244.352 21.8152C240.225 22.9296 236.417 24.8416 232.523 26.5386C229.255 27.6298 226.071 28.979 222.704 29.7712C222.473 29.8325 222.238 29.8609 221.999 29.8682C219.82 29.624 217.695 29.1756 215.769 28.0647C213.831 26.9471 213.775 25.6532 215.609 24.3353C216.307 23.8339 217.065 23.3602 217.882 23.1601C220.087 22.6207 221.31 21.5031 220.696 19.0704Z" fill="#AEBFD3"/>
<path d="M265.29 90.425C263.877 90.8815 264.363 89.7373 264.388 89.2296C264.619 84.5822 265.292 79.9859 265.968 75.3844C266.891 69.1027 268.135 62.8436 268.064 56.4587C268.045 54.7297 269.17 53.0325 268.185 51.0661C266.685 52.5019 266.505 54.2819 266.261 55.9869C266.126 56.9328 266.089 57.8474 265.29 58.508C265.49 51.3668 264.758 44.1864 266.222 37.0982C266.681 34.8806 267.263 32.705 268.184 30.633C268.552 29.8045 268.878 28.9491 268.025 28.2987C267.199 27.668 266.41 28.0974 265.702 28.6869C265.046 29.2334 264.319 29.7043 263.713 30.2994C262.468 31.5205 261.053 31.8372 259.795 30.615C258.537 29.3932 259.597 28.1563 260.354 27.1146C260.899 26.3653 261.621 25.7306 262.326 25.1153C268.709 19.543 270.31 12.2597 269.845 4.22749C269.837 4.083 269.89 3.93491 269.917 3.78906C272.071 4.32742 273.384 6.62518 273.791 9.39504C274.752 15.9337 273.436 22.2143 272.113 28.5286C271.889 29.5978 271.028 30.9777 272.768 31.7192C270.985 39.7918 270.219 47.9486 270.361 56.2259C270.395 58.1985 269.954 60.2312 269.978 62.2553C268.604 69.956 267.191 77.6486 266.17 85.4097C265.951 87.0793 266.004 88.8301 265.29 90.425Z" fill="#828EB2"/>
<path d="M220.695 19.0625C222.511 21.864 222.444 22.0019 219.067 23.3059C217.989 23.7224 216.914 24.1875 215.921 24.7736C214.214 25.7819 214.28 26.5288 215.946 27.5132C217.857 28.6428 220.018 28.8799 222.103 29.3986C221.991 30.6643 220.883 30.6225 220.065 30.8935C218.446 31.4292 216.691 31.228 215.062 31.7461C208.214 32.891 201.319 33.2516 194.381 33.2004C192.258 33.1848 190.211 32.7411 188.116 32.6171C186.583 32.5264 184.095 28.5257 184.703 27.1756C185.119 26.2525 186.213 26.162 187.129 26.1384C189.316 26.0823 191.516 26.2572 193.69 26.0793C196.693 25.8334 199.767 25.7463 202.491 24.172C203.094 23.8232 203.965 23.3442 203.851 22.7095C203.693 21.8326 202.668 21.9349 201.907 21.883C204.152 20.9369 206.6 20.9251 208.938 20.67C212.876 20.2403 216.77 19.549 220.695 19.0625Z" fill="#C7D8E5"/>
<path d="M249.325 87.6016C248.859 89.2412 248.228 90.8553 247.969 92.5269C247.641 94.6488 248.445 95.2248 250.478 94.6458C252.494 94.0718 254.503 93.4746 256.534 92.959C257.831 92.6295 259.127 92.6823 260.437 93.1092C262.135 93.6624 262.984 94.6505 262.974 96.5186C262.966 97.7898 262.776 99.0314 262.43 100.189C261.045 104.822 262.125 109.879 260.14 114.34C258.289 118.5 256.897 122.913 254.043 126.581C253.952 126.491 253.862 126.401 253.77 126.312C253.335 125.49 253.497 124.644 253.703 123.812C254.559 120.35 255.09 116.811 256.16 113.401C256.221 112.191 256.558 111.035 256.834 109.867C257.405 108.434 256.903 107.086 256.489 105.735C256.109 104.714 255.363 103.991 254.535 103.335C253.039 102.265 251.423 102.029 249.683 102.621C248.324 102.944 247.031 103.663 245.56 103.312C244.412 102.572 244.673 101.475 244.766 100.379C244.936 98.3776 244.359 97.9753 242.479 98.7513C240.819 99.4366 239.385 100.548 237.77 101.315C236.959 101.699 235.99 102.44 235.211 101.564C234.336 100.583 234.936 99.4931 235.599 98.5929C236.206 97.7687 236.966 97.0996 238.067 97.0009C241.01 96.2347 242.747 93.8757 244.789 91.9165C246.294 90.4714 247.812 89.0394 249.325 87.6016Z" fill="#8395B9"/>
<path d="M238.066 97.0078C237.386 98.1346 235.806 98.432 235.452 99.8752C235.321 100.411 235.05 100.982 235.535 101.392C235.958 101.75 236.425 101.339 236.811 101.137C238.599 100.199 240.358 99.2089 242.145 98.2695C243.019 97.8099 243.895 97.1098 244.941 97.8975C245.974 98.6758 245.656 99.7268 245.342 100.656C245.038 101.558 245.149 102.326 245.569 103.113C245.645 104.266 244.627 104.411 243.94 104.774C241.69 105.963 239.393 107.062 237.14 108.248C234.66 109.586 232.021 110.522 229.296 111.191C226.91 111.777 226.177 111.342 225.752 108.916C225.515 107.561 224.779 107.099 223.584 106.925C222.869 106.821 222.138 106.548 222.039 105.733C221.944 104.953 222.551 104.452 223.159 104.092C225.034 102.986 226.968 101.972 228.54 100.427C231.162 98.4925 234.199 97.2285 236.842 95.3237C237.522 94.9858 238.151 94.5642 238.766 94.1206C241.117 92.4374 242.428 89.9122 244.003 87.6103C245.668 85.1778 247.09 82.568 249.331 80.5738C249.957 80.1038 250.583 79.634 251.209 79.1641C248.812 84.9055 246.575 90.7274 240.782 94.1506C239.694 94.7937 238.962 96.0398 238.066 97.0078Z" fill="#9DB3CD"/>
<path d="M248.391 146.751C244.958 154.303 237.628 157.379 229.372 154.728C221.997 152.359 214.425 150.767 206.696 151.076C200.047 151.341 193.403 152.246 186.828 153.431C186.476 153.495 186.162 153.771 185.441 154.156C188.965 155.173 192.23 155.012 195.291 154.591C200.508 153.872 205.529 154.625 210.571 155.533C215.383 156.4 220.158 157.475 224.95 158.459C230.194 159.745 235.508 160.775 240.815 162.553C240.073 163.309 239.501 162.745 239.007 162.654C227.701 160.577 216.398 158.502 205.201 155.859C202.605 155.247 199.729 155.499 197.02 155.756C188.382 156.572 179.721 156.893 171.073 156.521C165.535 156.282 160.001 156.249 154.465 156.106C150.346 155.644 146.198 155.744 142.092 155.973C137.971 156.203 133.834 156.292 129.718 156.471C119.682 156.907 109.657 157.604 99.6074 157.83C91.0965 158.021 82.5894 157.933 74.0811 158.009C70.1797 158.043 66.285 157.772 62.3818 157.738C55.3843 157.677 48.5686 158.7 41.8765 160.657C40.976 160.92 40.0461 161.044 39.1357 161.347C39.6284 161.368 40.0915 161.406 40.4428 161.777C40.6398 162.159 41.0034 162.216 41.3761 162.254C39.178 162.868 36.9799 163.481 34.7816 164.094C33.5567 163.032 32.3406 164.007 31.2952 164.333C27.7527 165.438 24.2209 164.203 20.7054 164.571C19.7711 163.864 18.6212 164.005 17.5665 163.81C12.4373 162.862 7.82368 160.958 4.32826 156.896C4.07327 156.6 3.79437 156.32 3.57424 155.999C3.05166 155.235 2.17944 154.341 2.86173 153.498C3.68466 152.481 4.58415 153.498 5.27461 154.009C7.73569 155.831 10.3775 156.319 13.4435 155.98C19.2592 155.338 24.3805 152.912 29.4293 150.28C31.9069 148.989 33.191 146.816 32.726 143.864C32.6169 143.172 32.4745 142.473 32.5277 141.766C32.7216 139.193 34.1723 138.495 36.4397 139.874C37.2427 140.758 37.7336 141.836 38.3156 142.861C38.7798 143.587 39.4559 144.241 39.6178 145.077C40.1753 147.958 42.7721 149.244 44.3707 151.302C44.8752 151.951 45.7446 151.987 46.5496 151.902C47.7167 151.778 48.8912 151.74 50.0575 151.637C58.5732 150.882 67.0516 152.634 75.5373 152.083C80.9901 151.729 86.469 152.087 91.8949 151.33C93.6342 151.087 95.2913 151.737 97.0232 151.709C101.403 151.638 105.786 151.746 110.165 151.642C123.776 151.32 137.37 152.307 150.979 152.139C155.615 152.081 160.167 151.508 164.71 150.626C172.292 149.155 179.765 146.849 187.636 147.427C199.803 148.321 212 148.291 224.187 148.55C229.76 149.28 235.354 149.631 240.964 149.18C242.677 149.042 244.266 148.289 245.789 147.466C246.594 147.031 247.357 146.378 248.391 146.751Z" fill="#7888AF"/>
<path d="M148.405 26.5913C145.051 28.4957 141.235 28.7653 137.129 29.5079C140.472 31.0384 143.632 31.0572 146.688 31.2237C152.753 31.5542 158.711 32.6423 164.72 33.3516C168.341 33.779 171.958 34.2995 175.593 34.5301C178.929 34.7416 182.23 34.9098 185.455 35.9462C188.505 36.9265 189.503 39.7865 187.457 42.2331C186.596 43.2623 186.793 44.5812 186.323 45.737C184.991 49.014 183.336 51.8239 179.705 52.9764C178.844 53.2496 177.744 53.7957 179.16 54.8759C179.636 55.239 179.777 55.7713 179.199 55.9536C177.754 56.4098 177.225 58.0418 175.964 58.5101C171.798 60.0564 168.527 62.8836 165.333 65.7734C163.556 67.3803 161.277 67.5928 159.264 68.4052C157.062 69.2938 154.884 70.357 152.563 70.9789C151.42 71.285 150.495 71.967 149.496 72.5863C146.382 74.5166 143.899 77.6755 139.805 77.7851C139.077 77.8047 138.81 78.4031 138.412 78.894C136.864 80.8071 134.819 81.8002 132.471 82.6002C129.286 83.6852 126.3 85.3457 123.867 87.8049C123.493 88.1828 123.056 88.5947 122.571 88.7511C118.064 90.2031 114.076 92.8817 109.532 94.237C108.553 94.5292 107.919 95.3544 106.941 95.7478C98.579 99.1105 90.0228 101.881 81.0726 102.939C77.1057 103.407 72.9779 102.888 68.9632 102.45C66.1326 102.141 63.1935 102.103 60.5093 100.933C54.5522 98.3372 48.0018 97.524 42.4318 93.4837C38.9633 90.9678 35.4961 88.4395 32.5694 85.4317C28.6309 81.3841 25.1584 76.8387 21.8444 72.2482C20.3764 70.2148 19.7638 67.5224 19.8035 64.9048C19.8854 59.52 19.7057 54.1634 18.8542 48.8339C18.5858 47.1538 17.5001 45.8657 16.9828 44.313C16.0485 41.5087 15.1043 38.7054 14.0626 35.94C13.3167 33.96 11.7596 32.6381 9.9889 31.5785C9.35374 31.1984 8.63925 31.1104 8.02484 31.6555C7.36603 32.2401 7.94421 32.7913 8.12893 33.3495C8.88478 35.6333 9.63792 37.9178 10.392 40.2021C9.64746 40.5568 9.17767 39.6583 8.48344 39.7837C6.18174 34.4474 3.73029 29.1558 2.38872 23.474C1.07696 17.9181 3.41092 13.6742 7.58358 10.2062C8.33358 11.8602 9.42949 12.4324 11.2435 11.6888C12.8887 11.0143 14.6745 10.863 16.4655 10.9264C17.6279 10.9676 18.7836 10.9163 19.7772 10.1797C23.7038 10.9057 27.406 12.3061 31.0352 13.9257C31.1423 14.5392 31.0477 15.0874 30.5407 15.4927C30.5573 15.1742 30.4856 15.8501 30.3202 15.586C30.3099 15.5694 29.7576 15.6851 30.2079 15.8762C33.5899 17.3114 37.1354 18.2672 40.6435 19.3219C44.5247 20.4888 48.4727 21.4261 52.2606 22.9071C58.4068 25.3101 64.8904 26.2833 71.3687 27.2623C69.0353 26.8091 66.5997 26.8074 64.4088 25.7296C64.1753 25.0821 64.2817 24.4256 64.3752 23.7695C69.9406 24.766 75.4959 25.8244 81.0754 26.7355C84.3605 27.272 87.6746 27.6863 90.9918 27.9615C100.234 28.7286 109.43 28.2068 118.649 27.2028C123.661 26.657 128.778 27.0723 133.847 27.0541C135.977 27.598 138.134 27.4439 140.248 27.0859C142.46 26.7114 144.723 26.7705 146.906 26.1871C147.422 26.0493 147.993 26.132 148.405 26.5913Z" fill="#E0E9F1"/>
<path d="M8.48242 39.7835C9.62077 37.6324 9.61719 40.6901 10.391 40.2019C11.5386 43.9424 13.0752 47.5695 13.6793 51.4687C14.2373 52.0641 14.4632 52.8087 14.6039 53.5829C16.3929 63.4272 17.5909 73.322 17.1358 83.3572C17.1074 83.9829 17.0943 84.6189 16.7521 85.1672C16.451 85.6498 16.0407 86.0325 15.4091 85.8654C14.8207 85.7097 14.8847 85.1841 14.8611 84.7281C14.7241 82.0907 15.1263 79.4387 14.6482 76.8105C14.3145 72.5927 13.981 68.3749 13.6471 64.1572C12.8503 56.8727 11.5189 49.6971 9.29424 42.7015C8.98844 41.7399 8.75128 40.7566 8.48242 39.7835Z" fill="#E7EEF7"/>
<path d="M64.3764 23.7658C64.4535 24.2387 66.1668 24.7211 64.3682 25.1832C63.6223 25.8927 62.7794 25.5827 61.9344 25.4417C56.2872 24.4994 51.0053 22.2797 45.5241 20.7565C41.4695 19.6296 37.4245 18.4572 33.4377 17.105C32.3679 16.7422 31.099 16.5952 30.5801 15.3118C30.5947 14.8033 30.4976 14.2581 31.0365 13.9219C42.0413 17.5707 53.1111 20.9994 64.3764 23.7658Z" fill="#E7EEF7"/>
<path d="M19.778 10.1821C19.8768 11.3571 19.2105 11.6391 18.1968 11.5754C15.3137 11.3942 12.5399 11.8224 9.7845 12.7548C7.35371 13.5773 7.60132 11.6863 7.58433 10.2083C9.98604 8.18956 12.8295 8.59306 15.5775 8.90976C17.0075 9.0746 18.3797 9.74182 19.778 10.1821Z" fill="#E7EEF7"/>
<path d="M148.408 26.5902C144.335 26.8678 140.386 28.1961 136.257 28.0023C135.335 27.959 134.347 28.1452 133.85 27.0528C138.694 26.5809 143.538 26.1091 148.382 25.6373C149.215 25.4184 150.192 24.9828 149.814 26.5879C149.345 26.5888 148.876 26.5895 148.408 26.5902Z" fill="#E7EEF7"/>
<path d="M149.813 26.5914C149.767 25.6252 149.054 25.6628 148.381 25.6409C151.794 24.6441 155.284 25.3961 158.732 25.1843C155.91 26.6144 152.766 26.0014 149.813 26.5914Z" fill="#E0E9F1"/>
<path d="M14.6484 76.8113C15.5744 79.0541 14.8343 81.4052 15.1044 83.6884C15.1779 84.309 14.6911 85.361 15.6657 85.4257C16.557 85.4849 16.4703 84.4742 16.4904 83.792C16.7579 74.7012 15.9298 65.6945 14.4284 56.7374C14.1352 54.9887 13.927 53.2258 13.6797 51.4695C14.9599 51.2897 15.5032 52.1183 15.9112 53.114C17.1569 56.1547 18.1046 59.3551 18.2801 62.5751C18.6044 68.5232 19.801 74.2677 21.217 80.0073C21.5699 81.4379 22.3997 82.5425 23.2399 83.6399C24.1564 84.837 24.2433 85.8074 23.0916 86.9043C21.1992 88.7068 21.0719 90.6504 22.4149 92.9698C24.3151 96.252 26.9942 98.7043 29.9372 100.96C30.3593 101.283 30.6787 101.743 31.0366 102.148C31.5521 102.73 31.9473 103.621 32.5879 103.86C37.8552 105.819 41.649 110.401 47.1935 111.884C54.6965 113.892 62.1087 115.93 69.994 116.393C78.4295 116.887 86.7534 116.622 95.0117 115.21C103.116 113.824 111.056 111.641 118.955 109.3C123.641 107.911 128.274 106.298 132.798 104.572C136.75 103.065 140.734 101.538 144.719 100.121C149.138 98.55 153.551 97.0496 157.641 94.7279C159.288 93.7933 161.12 93.3576 162.881 92.7234C164.842 92.0165 166.993 91.6923 168.452 89.931C168.714 89.6145 169.268 89.4677 169.714 89.3866C171.833 89.001 173.617 88.5757 175.043 86.3945C175.974 84.9696 178.669 84.9705 180.495 84.0737C182.37 83.1525 184.401 82.6007 186.517 82.3248C188.883 82.0163 190.672 80.243 192.463 78.9932C195.274 77.0314 198.656 75.9738 201.086 73.4713C202.859 71.6449 205.035 70.4464 207.32 69.4107C209.25 68.5355 209.873 66.5246 211.086 65.0343C215.357 59.7895 219.102 54.2151 221.157 47.6892C222.171 44.468 222.721 41.2095 221.459 37.8682C221.085 36.8778 221.196 35.7153 220.936 34.6684C220.429 32.6205 219.294 31.3464 216.935 31.7389C216.326 31.8402 215.686 31.7538 215.06 31.7535C217.245 30.4827 219.974 30.8474 222.102 29.4061C222.255 29.3991 222.408 29.3979 222.561 29.4023C223.115 28.9891 223.78 29.2848 224.375 29.1169C225.973 28.665 226.431 29.3946 226.876 30.9158C227.744 33.88 228.019 37.0481 229.656 39.7719C230.038 40.4078 230.081 41.0981 229.975 41.8109C229.583 44.4335 229.598 47.1045 229.01 49.705C228.728 50.955 228.886 52.1918 229.288 53.3988C229.88 55.177 229.965 56.898 228.921 58.5788C228.238 59.6771 228.195 60.9862 228.15 62.2131C228.016 65.8959 226.468 68.7848 224.13 71.6284C222.206 73.9693 220.476 76.6622 219.671 79.7386C216.246 84.9673 212.121 89.4649 206.452 92.3415C206.033 92.5542 205.593 92.7497 205.258 93.0769C201.927 96.325 197.671 97.7222 193.431 99.3C189.057 100.928 184.618 102.387 180.304 104.187C177.203 105.48 173.86 106.046 170.639 106.972C164.415 108.763 158.213 110.648 151.896 112.133C141.632 114.546 131.444 117.25 121.119 119.447C111.62 121.468 102.092 123.083 92.4421 124.002C89.4164 124.29 86.3657 124.575 83.317 124.392C77.782 124.059 72.2865 125.251 66.7085 124.491C62.2133 123.878 57.7668 123.105 53.3229 122.227C44.0513 120.394 35.7431 116.452 27.8692 111.307C24.9227 109.381 22.7787 107.034 21.1577 104.022C20.2941 102.418 20.0481 100.608 19.2877 98.9775C18.8182 97.881 18.6328 96.7315 18.6434 95.5465C18.6439 93.1334 18.8489 90.7559 19.2659 88.3579C19.7375 85.6447 18.7533 83.012 18.0028 80.39C17.4108 82.8805 17.6669 85.4005 17.6494 87.8999C17.6356 89.8679 17.4419 91.7901 16.7354 93.6263C16.3877 94.5302 16.0928 95.6633 14.6561 95.1139C14.6573 94.797 14.6584 94.4801 14.6595 94.1632C14.9767 92.2947 15.0026 90.427 14.6465 88.56C14.6472 84.6439 14.6477 80.7276 14.6484 76.8113Z" fill="#C7DBE9"/>
<path d="M229.142 100.756C227.468 102.28 225.623 103.542 223.567 104.501C223.015 104.759 222.308 105.086 222.458 105.806C222.586 106.428 223.298 106.406 223.843 106.382C225.752 106.298 226.503 107.184 226.355 109.083C226.234 110.639 227.023 111.073 228.563 110.742C231.545 110.1 234.287 108.819 237.126 107.794C239.534 107.217 240.123 107.577 240.123 110.012C240.122 114.997 238.033 119.276 235.147 123.15C231.415 128.158 225.967 130.616 220.186 132.212C215.105 133.616 209.818 133.512 204.571 133.328C202.858 133.269 201.529 132.596 200.887 130.936C200.352 129.551 199.329 129.096 197.938 129.145C193.263 129.31 188.585 129.245 183.914 129.669C175.668 130.418 167.416 131.08 159.223 132.333C148.95 133.906 138.654 135.321 128.365 136.785C120.087 137.963 111.741 138.421 103.411 139.077C94.917 139.745 86.4092 140.023 77.9132 140.124C73.0213 140.182 68.0811 140.121 63.1685 139.775C59.2102 139.496 55.2542 139.214 51.2736 139.117C47.0533 139.013 42.705 138.243 38.7551 136.455C35.8891 135.158 34.2901 132.386 32.3169 130.084C31.9671 129.677 31.6951 129.186 31.3811 128.739C31.0807 128.312 30.8157 127.653 30.1697 127.866C29.616 128.048 29.547 128.713 29.4398 129.236C29.3301 129.771 29.3688 130.326 29.3582 130.87C29.3816 131.571 29.3471 132.275 29.174 132.957C28.406 135.982 25.7281 136.783 23.5332 134.585C22.0238 133.073 20.9659 131.259 20.5507 129.121C20.3724 128.202 20.2034 127.285 20.1066 126.352C19.7337 122.754 19.2739 122.427 16.0643 123.394C15.5216 122.923 15.5883 122.3 15.7046 121.704C16.0014 120.181 15.6359 118.846 14.6654 117.657C14.6624 111.084 14.6593 104.511 14.6562 97.9385C15.3753 97.9105 15.4722 98.468 15.6327 98.9691C15.7876 99.7479 15.6972 100.54 15.7646 101.325C14.8299 106.999 16.5979 111.964 19.6816 116.627C20.9964 118.615 21.6502 120.904 21.8194 123.264C21.9722 125.394 23.3683 125.881 25.0644 126.311C26.7063 126.727 27.2466 125.751 27.9003 124.582C29.0787 122.477 30.8332 122.241 32.0427 124.342C35.1299 129.705 40.2352 131.194 45.7378 132.178C58.161 134.398 70.7065 135.128 83.2831 134.728C91.1534 134.478 98.9965 133.469 106.844 132.693C116.012 131.786 125.203 131.144 134.317 129.708C137.249 129.246 140.168 128.695 143.109 128.286C150.531 127.252 157.944 126.196 165.312 124.779C172.897 123.32 180.677 123.277 188.312 122.126C193.267 121.38 198.27 121.34 203.239 120.836C205.905 120.566 206.4 120.994 206.25 123.602C206.195 124.55 206.608 124.884 207.376 125.037C211.733 125.903 221.131 124.947 224.819 119.429C225.777 117.994 226.901 116.698 227.925 115.321C228.377 114.714 228.834 113.899 228.237 113.172C227.715 112.536 226.906 112.822 226.261 113.048C223.751 113.93 221.373 115.126 218.948 116.21C217.362 116.919 215.759 117.535 213.974 117.24C211.868 116.893 210.97 115.783 211.256 113.694C211.425 112.46 211.385 111.374 210.439 110.448C209.134 109.172 209.789 108.209 211.02 107.445C212.617 106.456 214.362 105.748 216.08 105.007C219.376 103.584 222.805 102.486 226.056 100.939C227.013 100.483 228.064 99.9362 229.142 100.756Z" fill="#B1CADD"/>
<path d="M15.0987 98.8712C15.0837 98.4959 15.0056 98.1506 14.6543 97.9353C14.6556 96.995 14.6565 96.0547 14.6578 95.1143C17.1236 94.0575 16.6584 91.6352 16.8834 89.7448C17.2026 87.0625 16.9783 84.314 16.9602 81.594C16.9529 80.4885 17.0181 79.4286 18.1841 78.3438C19.2788 82.0761 20.6635 85.557 19.7608 89.351C19.2653 91.4331 19.3483 93.5031 19.3123 95.5896C17.6227 94.7803 17.8731 93.4506 18.158 92.0504C17.7923 93.6249 17.4455 95.2624 16.9118 96.8404C16.6059 97.7445 16.5095 98.9189 15.0987 98.8712Z" fill="#C2D7E6"/>
<path d="M14.6638 117.656C16.5431 118.12 16.5356 119.61 16.4556 121.074C16.4151 121.816 16.1758 122.547 16.0264 123.283C15.3798 126.597 13.3057 129.263 11.9341 132.248C11.7845 132.573 11.387 132.832 10.9554 132.649C10.6229 132.509 10.6193 132.16 10.6427 131.86C10.7078 131.023 10.439 130.16 10.835 129.349C11.1635 127.957 11.4919 126.564 11.8206 125.171C13.2909 122.864 14.0865 120.301 14.6638 117.656Z" fill="#B3CADE"/>
<path d="M14.6465 88.5625C15.3455 90.4289 15.3311 92.2968 14.6591 94.1659C14.6552 92.2979 14.6508 90.4302 14.6465 88.5625Z" fill="#C2D7E6"/>
<path d="M36.2063 140.188C35.4383 140.038 34.7407 138.824 33.9563 139.725C33.3385 140.435 32.8317 141.332 33.1222 142.506C34.4027 147.679 32.1337 149.797 27.9778 151.775C26.7843 152.343 25.4646 152.698 24.3668 153.405C20.0629 156.178 15.057 156.134 10.2858 156.904C8.887 157.129 7.33049 156.099 6.01568 155.251C5.11598 154.671 4.26199 154.021 3.23303 153.292C2.91553 154.438 3.54467 155.015 4.0416 155.646C7.5004 160.039 12.1764 162.225 17.5567 163.206C18.6764 163.41 20.1197 163.065 20.7057 164.573C16.2336 164.616 11.7006 164.706 7.9691 161.712C4.39034 158.841 0.95487 155.69 1.51791 150.49C1.89392 147.017 4.2812 144.455 6.2593 141.763C7.5923 139.948 9.00657 138.194 10.3844 136.412C11.4158 137.937 13.1594 138.251 14.6848 138.936C14.8708 139.072 15.0389 139.23 15.1873 139.406C17.8213 142.541 18.2627 142.586 21.4925 140.036C23.0935 138.73 24.819 137.814 26.9551 137.599C28.9045 137.403 30.1803 135.548 30.1502 133.357C30.1396 132.579 29.9256 131.804 30.0615 131.024C30.2079 130.184 30.443 129.423 31.5747 129.961C33.4643 131.479 33.9446 133.858 35.1474 135.797C35.6622 136.924 36.2584 138.02 36.5141 139.251C36.546 139.607 36.4784 139.932 36.2063 140.188Z" fill="#8CA1C1"/>
<path d="M31.5142 130.33C29.733 130.221 30.606 131.631 30.6517 132.186C30.9884 136.266 29.8847 137.755 25.8724 138.315C24.171 138.552 22.9724 139.709 21.6499 140.638C21.1319 140.102 21.4418 139.461 21.421 138.86C21.3571 137.028 20.0474 135.429 18.3951 135.256C16.5438 135.062 15.7589 136.254 15.2891 137.791C15.1318 138.305 15.0981 138.875 14.6192 139.24C12.9694 138.654 10.5718 139.187 10.3852 136.411C10.6276 134.062 9.82619 131.646 10.836 129.346C10.8358 130.32 10.8358 131.294 10.8358 132.269C12.8811 129.338 14.1285 126.13 16.0272 123.279C17.1081 123.004 17.5098 120.972 18.8186 121.784C20.151 122.61 20.6736 124.183 20.7277 125.834C20.8126 128.424 21.3296 130.876 22.9794 133.008C23.9453 134.256 24.8722 135.78 26.6361 135.242C28.4111 134.7 28.8712 133.04 28.7016 131.261C29.0675 130.749 29.0505 130.095 29.3428 129.554C29.6627 128.963 29.8722 128.117 30.7983 128.511C31.5549 128.833 32.0709 129.412 31.5142 130.33Z" fill="#9FB4D0"/>
<path d="M40.443 161.779C39.1547 161.662 37.9362 162.723 36.1914 161.813C40.074 160.322 43.7554 159.333 47.4937 158.494C54.3938 156.944 61.4207 156.659 68.3941 157.173C77.0579 157.811 85.7123 157.623 94.3541 157.452C103.376 157.272 112.421 157.075 121.42 156.486C131.856 155.804 142.281 155.681 152.721 155.69C153.327 155.691 153.989 155.537 154.466 156.108C147.045 155.876 139.612 156.148 132.243 156.742C107.702 158.717 83.1303 158.559 58.5497 158.543C52.3716 158.539 46.4012 160.258 40.443 161.779Z" fill="#92A0C4"/>
<path d="M266.264 166.045C265.258 165.735 263.66 166.615 263.294 165.519C262.921 164.401 264.011 163.237 264.94 162.372C268.177 159.358 272.175 157.607 276.071 155.688C276.356 161.762 272.682 165.643 266.264 166.045Z" fill="#8C96C1"/>
<path d="M248.391 146.749C242.649 150.973 236.146 150.384 229.654 149.62C227.919 149.416 226.089 150.137 224.445 149.099C226.584 147.509 229.107 147.503 231.568 147.56C234.997 147.639 238.146 146.888 241.251 145.432C248.147 142.2 251.171 136.372 252.505 129.314C252.874 128.323 252.561 126.957 254.008 126.555C254.008 126.555 254.041 126.581 254.042 126.582C253.957 127.647 254.311 127.781 255.409 127.635C259.659 127.071 260.4 127.941 259.673 132.147C258.712 137.7 254.776 141.187 250.948 144.743C250.157 145.478 249.246 146.084 248.391 146.749Z" fill="#8395B9"/>
<path d="M15.0969 98.8677C16.8232 97.1135 16.6998 94.6751 17.4136 92.5481C17.5537 92.1308 17.4436 91.6283 18.0773 91.1874C18.6358 92.6566 18.3186 94.34 19.3105 95.586C19.1637 96.7243 19.5101 97.792 19.7811 98.8705C20.3819 101.275 21.0986 103.649 21.5906 106.081C22.2842 109.51 24.7723 111.687 27.4283 113.411C31.5416 116.081 35.8773 118.509 40.71 119.658C48.9596 121.621 56.8361 125.032 65.3973 125.803C73.2152 126.506 80.9571 126.436 88.6962 124.917C91.8903 124.291 95.1899 124.306 98.4679 124.196C102.978 124.045 107.477 123.4 111.977 122.921C118.915 122.182 125.501 119.765 132.341 118.691C138.554 117.715 144.543 115.972 150.44 114.009C153.932 112.847 157.446 111.94 161.007 111.153C167.075 109.812 172.925 107.685 179.151 106.827C183.506 106.228 187.881 105.224 192.15 103.98C193.635 103.547 195.164 103.926 196.715 103.322C202.467 101.081 207.518 97.8036 212.083 93.7088C212.725 93.1322 213.423 92.634 214.124 92.1353C215.828 90.9224 217.069 89.3548 217.733 87.3564C217.956 86.6876 218.055 85.861 218.566 85.4393C221.217 83.2506 221.996 79.7372 224.412 77.3752C225.537 76.275 226.237 74.7649 226.327 73.1833C226.437 71.2581 227.047 69.5193 227.747 67.7776C229.568 62.4549 232.645 57.6861 234.524 52.3866C236.005 48.2085 236.512 43.903 236.415 39.4928C236.338 35.9738 234.922 32.6617 234.895 29.1356C234.888 28.3075 234.35 27.7138 233.608 27.3027C233.109 27.0264 232.317 26.9948 232.421 26.1051C236.179 24.1521 239.955 22.2434 244.165 21.4219C246.884 21.4977 246.862 21.566 247.028 24.1676C247.512 31.7636 246.587 39.275 245.925 46.8148C245.577 50.7842 245.652 54.7896 244.398 58.6311C242.222 65.2955 240.432 72.1012 236.947 78.2795C235.722 80.4499 235.181 82.9283 234.1 85.1967C232.751 88.0287 231.413 90.8263 229.512 93.3373C228.099 95.204 226.752 97.0982 225.773 99.2679C224.945 101.101 223.344 102.243 221.467 103.048C215.938 105.419 210.378 107.713 204.772 109.895C202.839 110.647 201.204 111.745 199.824 113.331C197.76 115.702 194.759 115.898 191.926 116.41C181.621 118.273 171.107 118.77 160.871 121.069C152.852 122.87 144.675 123.794 136.647 125.508C130.218 126.88 123.736 127.927 117.243 128.877C108.667 130.132 100.043 130.962 91.3832 131.537C84.968 131.963 78.5609 132.054 72.1634 131.87C60.3361 131.53 48.5964 130.416 37.4639 125.907C35.8645 125.259 34.2985 124.546 32.8746 123.565C31.3685 122.527 29.7392 121.876 27.9298 121.533C24.1227 120.811 21.5943 118.323 19.603 115.183C18.8313 113.966 18.9364 112.607 19.2328 111.308C19.8292 108.693 19.4047 106.179 18.7047 103.67C17.8843 100.73 17.8848 100.729 15.0918 101.206C15.0936 100.427 15.0952 99.6472 15.0969 98.8677Z" fill="#C1D7E5"/>
<path d="M15.093 101.216C15.4041 100.985 15.734 100.775 16.0233 100.519C17.6248 99.1035 18.2275 99.2574 18.7877 101.352C19.7297 104.874 20.7331 108.334 19.8399 112.116C18.974 115.782 22.1648 117.43 24.3367 119.365C25.4344 120.343 26.9487 121.002 28.6373 120.993C29.7981 120.988 30.9502 121.454 31.9162 122.132C38.0915 126.46 45.2666 127.919 52.4494 129.401C56.3422 130.204 60.2941 130.554 64.2323 130.8C72.68 131.326 81.1428 131.76 89.6018 130.837C92.0746 130.567 94.5705 130.653 97.0573 130.48C101.947 130.139 106.766 129.243 111.646 128.946C116.393 128.657 121.02 127.613 125.684 126.839C136.118 125.107 146.506 123.102 156.923 121.267C161.797 120.408 166.667 119.355 171.559 118.521C175.222 117.896 178.979 117.807 182.632 117.14C187.282 116.29 192.013 115.965 196.616 114.744C198.617 114.214 199.34 112.589 200.635 111.466C202.957 109.452 205.888 108.8 208.623 107.725C212.902 106.043 217.349 104.786 221.4 102.535C223.587 101.319 225.015 99.6779 226.005 97.2546C226.947 94.9491 228.809 93.0146 230.294 90.9368C232.568 87.7555 233.889 84.1252 235.257 80.5153C235.339 80.2995 235.299 80.0179 235.421 79.8404C238.342 75.6179 239.682 70.6712 241.423 65.9653C243.154 61.2851 244.901 56.4717 245.061 51.3806C245.167 48.0273 245.709 44.7257 245.91 41.4084C246.28 35.3204 246.791 29.2226 246.533 23.1015C246.457 21.2873 244.671 22.3709 244.167 21.4314C247.674 20.1696 251.156 19.4907 254.493 21.9085C255.363 23.4701 255.107 25.0318 254.493 26.5935C251.734 31.4717 250.056 36.7761 248.391 42.0852C247.454 43.3601 247.338 44.8211 247.457 46.3241C247.639 48.6223 248.684 49.3952 251.21 49.1286C251.521 49.1287 251.832 49.1289 252.144 49.129C252.729 49.5102 253.639 49.3911 253.904 50.2692C254.329 53.5088 252.788 56.374 251.871 59.2703C249.527 66.6742 247.761 74.3085 244.167 81.2679C242.303 84.8772 240.964 88.6914 239.441 92.4333C238.919 93.7138 238.074 94.674 237.127 95.6005C234.799 97.8382 231.635 98.7807 229.14 100.759C225.208 101.55 221.769 103.652 218.028 104.964C215.69 105.783 213.479 106.974 211.236 108.049C210.174 108.557 209.375 109.125 211.029 110.054C212.43 110.841 212.402 112.132 211.977 113.539C211.374 115.539 211.971 116.416 214.039 116.693C215.741 116.922 217.248 116.276 218.755 115.588C221.166 114.488 223.596 113.429 226.034 112.389C227.134 111.92 228.678 111.488 229.285 112.438C229.875 113.362 229.435 115.187 228.53 115.848C226.507 117.327 225.776 119.712 223.994 121.379C221.094 124.092 217.765 125.219 213.96 125.683C211.468 125.987 209.064 126.144 206.557 125.703C204.868 125.407 204.75 124.863 205.516 123.611C206.629 121.791 205.875 121.243 204.033 121.411C196.926 122.061 189.776 122.29 182.742 123.651C180.677 124.051 178.56 123.88 176.465 124.07C168.34 124.803 160.424 126.799 152.377 127.817C142.444 129.074 132.614 131.029 122.672 132.057C117.979 132.541 113.233 132.927 108.498 133.209C103.008 133.537 97.5588 134.556 92.0686 134.88C86.8616 135.188 81.6511 135.52 76.4181 135.555C67.8318 135.612 59.3207 134.561 50.8041 133.893C45.5705 133.482 40.1863 132.314 35.478 129.405C33.8527 128.401 32.9602 126.917 32.0648 125.361C31.5236 124.42 30.9696 123.274 29.6959 123.418C28.6065 123.541 28.4483 124.695 28.1944 125.581C27.7007 127.302 26.8112 127.481 25.0456 127.107C22.3495 126.537 21.0749 125.515 21.032 122.534C21.0005 120.35 20.1361 118.116 18.6829 116.27C17.4359 114.686 17.6644 112.144 15.3412 111.193C15.0621 111.079 15.1024 110.038 15.0975 109.426C15.0757 106.69 15.0911 103.953 15.093 101.216Z" fill="#B3CADE"/>
<path d="M232.422 26.1094C235.032 26.8311 235.823 28.2014 235.625 31.1593C235.487 33.2234 236.495 35.5926 236.82 37.8968C237.594 43.3846 236.434 48.4677 234.722 53.618C233.176 58.2687 230.058 62.1862 228.869 66.9658C228.783 67.3099 228.433 67.5882 228.206 67.8972C227.059 72.2538 223.467 74.991 221.126 78.5571C220.719 79.177 220.259 79.8917 219.287 79.6315C219.456 77.8784 220.478 76.5152 221.198 74.9836C222.876 71.4194 226.297 69.0018 227.355 65.0528C227.626 64.0413 227.004 63.1953 227.351 62.3361C228.005 60.7169 227.367 58.762 228.9 57.3187C229.524 56.7306 229.405 55.4071 228.982 54.62C227.339 51.5593 228.822 48.5193 228.891 45.484C228.946 43.1139 229.513 40.9952 228.316 38.4353C227.232 36.1144 226.232 33.3268 226.223 30.5277C226.22 29.6434 225.871 29.4258 225.144 29.4176C224.284 29.408 223.423 29.4077 222.563 29.4033C225.849 28.3053 229.136 27.2073 232.422 26.1094Z" fill="#C7D8E5"/>
<path d="M253.554 50.0625C253.083 49.7497 252.613 49.437 252.143 49.1243C253.586 48.8777 255.021 48.5446 256.474 48.4102C257.767 48.2907 258.34 49.0948 258.088 50.3156C256.175 59.5649 253.633 68.643 250.563 77.5732C250.212 78.5938 249.745 79.5743 249.331 80.5735C245.935 85.2981 243.505 90.7313 238.997 94.6391C238.399 93.7898 239.081 93.1342 239.412 92.506C244.522 82.7996 247.892 72.4493 250.86 61.94C251.745 58.8042 252.889 55.7408 253.566 52.5443C253.74 51.7244 254.068 50.8864 253.554 50.0625Z" fill="#AFC3D5"/>
<path d="M251.209 49.1215C250.116 49.8821 248.987 49.8843 248.059 48.9589C246.549 47.4542 246.854 45.5335 247.173 43.6942C247.288 43.0295 247.667 42.3766 248.39 42.0781C248.234 43.1459 247.976 44.2103 247.941 45.2819C247.857 47.9155 248.527 48.6507 251.209 49.1215Z" fill="#AFC3D5"/>
<path d="M254.492 26.5913C254.492 25.0296 254.492 23.4679 254.492 21.9062C256.028 23.468 255.47 25.0297 254.492 26.5913Z" fill="#B1CADD"/>
<path d="M31.5152 130.326C31.5127 129.568 31.0878 129.101 30.5105 128.73C29.8776 129.615 29.2901 130.436 28.7025 131.257C28.5554 129.912 28.8804 128.626 29.1865 127.335C29.3 126.856 29.4498 126.404 29.9745 126.291C30.5405 126.17 30.7816 126.621 31.0414 127.019C32.3204 128.978 33.8991 130.719 35.2791 132.58C37.4812 135.549 40.3859 136.785 43.7844 137.267C45.8696 137.563 47.9448 137.844 49.9287 138.574C51.2814 139.071 52.4905 138.144 53.8374 138.269C58.0913 138.662 62.3537 139.108 66.6194 139.192C72.519 139.309 78.4209 139.405 84.3288 139.282C92.4258 139.113 100.48 138.361 108.554 137.951C114.544 137.648 120.48 136.968 126.427 136.37C131.128 135.897 135.784 134.98 140.465 134.3C146.528 133.421 152.591 132.545 158.663 131.735C164.581 130.945 170.494 129.884 176.44 129.612C181.225 129.394 185.93 128.324 190.802 128.712C193.355 128.915 196.066 128.547 198.704 128.408C200.195 128.329 201.095 128.751 201.372 130.258C201.722 132.168 202.977 132.673 204.778 132.691C209.771 132.742 214.72 132.488 219.676 131.756C229.729 130.27 239.509 119.642 239.521 110.103C239.523 108.205 238.934 107.519 237.126 107.786C239.941 106.226 242.757 104.666 245.572 103.106C246.981 102.787 248.39 102.468 249.8 102.148C250.689 102.559 250.766 103.32 250.591 104.131C249.389 109.7 248.699 115.372 246.94 120.834C245.415 125.57 242.809 129.622 239.46 133.157C236.938 135.82 233.501 137.122 230 138.097C226.675 139.023 223.273 139.592 219.833 139.763C213.739 140.066 207.64 140.234 201.564 139.415C200.679 139.295 199.797 139.072 199.381 138.237C198.655 136.779 197.411 136.676 196.024 136.654C184.745 136.479 173.562 137.558 162.352 138.713C149.912 139.996 137.515 141.629 125.077 142.927C105.429 144.977 85.7611 145.201 66.0578 145.127C61.8179 145.111 57.6341 144.61 53.4478 144.061C51.852 143.851 50.3681 143.409 49.562 141.823C48.7724 140.873 47.8196 141.728 46.9562 141.601C45.8874 141.567 45.061 140.95 44.1778 140.46C43.2202 139.928 42.1736 139.237 41.1102 139.532C38.3964 140.283 36.8086 138.96 35.4885 136.896C35.2798 136.569 35.0327 136.264 34.7917 135.958C33.6996 134.08 32.6074 132.203 31.5152 130.326Z" fill="#A4BCD3"/>
<path d="M49.8006 140.668C50.3472 142.839 52.0159 143.244 53.9443 143.486C68.1021 145.259 82.329 144.51 96.5025 144.242C105.777 144.067 115.088 143.273 124.364 142.243C131.137 141.491 137.964 140.915 144.726 140.069C151.722 139.194 158.755 138.603 165.727 137.495C169.246 136.935 172.823 136.714 176.383 136.448C183.387 135.925 190.407 135.872 197.427 135.975C198.603 135.993 200.1 135.754 199.761 137.854C199.659 138.485 200.341 138.709 200.919 138.753C207.522 139.255 214.111 139.541 220.74 138.901C225.262 138.464 229.649 137.751 233.863 135.972C239.331 133.664 242.463 129.18 244.846 124.136C247.526 118.464 248.535 112.295 249.298 106.117C249.461 104.798 250.928 103.627 249.797 102.156C251.745 101.229 253.461 101.59 254.972 103.089C255.943 105.882 255.346 108.661 254.639 111.345C253.245 116.642 251.235 121.743 249.213 126.83C248.72 128.07 248.235 129.295 248.088 130.636C247.946 131.93 247.288 132.975 246.449 133.943C241.009 140.224 233.985 143.372 225.835 143.641C214.749 144.007 203.684 143.799 192.764 141.213C188.825 140.28 184.655 140.759 180.604 141.009C167.198 141.839 153.893 143.747 140.525 144.935C130.58 145.818 120.617 146.608 110.628 147.11C98.6844 147.711 86.7379 147.966 74.7931 148.083C67.2357 148.157 59.6318 148.004 52.1187 146.937C49.873 146.618 47.3515 146.136 46.9629 143.085C47.1249 141.363 48.7388 141.34 49.8006 140.668Z" fill="#9DB3CD"/>
<path d="M47.4747 142.523C47.1713 145.35 49.6246 145.617 51.2803 146.106C52.8541 146.57 54.6086 146.746 56.3429 146.795C62.3301 146.964 68.352 147.878 74.2865 147.459C82.1565 146.902 90.014 147.59 97.8886 146.91C103.29 146.443 108.785 146.424 114.236 146.226C119.583 146.032 124.905 145.227 130.251 144.98C134.684 144.775 139.093 144.396 143.497 143.925C148.509 143.389 153.513 142.773 158.521 142.204C161.759 141.835 164.991 141.338 168.241 141.164C175.079 140.797 181.895 140.095 188.764 140.102C192.117 140.106 195.223 141.036 198.413 141.635C206.129 143.086 213.908 142.973 221.698 143.031C225.628 143.06 229.427 142.594 233.246 141.651C238.841 140.271 243.056 136.896 246.576 132.657C248.179 130.727 247.808 127.803 248.908 125.443C251.112 120.71 252.744 115.726 254.118 110.697C254.783 108.264 254.71 105.629 254.971 103.086C255.821 103.691 256.729 104.249 256.844 105.439C257.355 106.811 256.812 108.3 257.316 109.673C257.15 110.923 256.985 112.173 256.82 113.423C255.995 114.024 255.689 114.983 255.563 115.859C254.81 121.073 252.15 125.697 251.029 130.798C250.711 132.245 249.552 133.343 248.788 134.608C247.383 136.189 245.961 137.752 244.254 139.029C238.997 144.233 232.508 145.804 225.346 145.617C216.283 145.381 207.284 144.723 198.263 143.627C190.953 142.738 183.501 142.628 176.047 143.01C161.59 143.752 147.316 146.183 132.882 147.142C123.615 147.757 114.36 148.683 105.084 149.269C104.694 149.294 104.304 149.336 103.913 149.335C90.8593 149.3 77.8157 150.191 64.7604 149.796C61.1718 149.688 57.579 149.463 53.9999 149.201C50.2095 148.924 47.0141 147.465 45.873 143.34C46.0961 142.459 46.5822 142.092 47.4747 142.523Z" fill="#96AEC9"/>
<path d="M248.391 134.545C251.353 129.403 252.337 123.502 254.676 118.118C255.036 117.291 254.943 116.279 255.189 115.389C255.428 114.525 255.527 113.45 256.82 113.422C255.622 117.744 254.529 122.089 254.009 126.557C253.329 127.377 253.413 128.448 253.085 129.383C251.983 131.524 251.193 133.949 248.391 134.545Z" fill="#95AAC6"/>
<path d="M257.317 109.671C255.24 108.474 257.342 106.811 256.845 105.438C257.27 106.819 258.386 108.123 257.317 109.671Z" fill="#95AAC6"/>
<path d="M253.554 50.0625C254.804 51.803 253.908 53.6744 253.396 55.2014C250.879 62.7112 249.052 70.4216 246.673 77.9487C244.843 83.7422 241.608 89.0923 238.998 94.6393C238.355 94.9203 237.944 95.6544 237.127 95.5957C240.379 88.1571 243.956 80.839 246.769 73.238C248.698 68.0247 250.485 62.7013 251.763 57.2441C252.325 54.8452 253.565 52.6112 253.554 50.0625Z" fill="#B1CADD"/>
<path d="M248.391 134.537C250.463 133.278 251.477 131.056 253.086 129.375C251.464 140.138 244.361 147.491 233.211 148.086C230.248 148.243 227.344 148.551 224.446 149.093C220.538 149.091 216.627 148.975 212.724 149.111C206.163 149.339 199.56 149.121 193.103 148.437C183.408 147.411 174.239 149.336 164.97 151.318C160.785 152.213 156.563 152.834 152.269 152.833C147.11 152.832 141.937 153.09 136.797 152.79C123.296 152.002 109.789 152.675 96.2913 152.332C89.9982 152.172 83.7436 152.493 77.4675 152.78C70.4689 153.1 63.4726 152.46 56.4782 152.012C53.3323 151.81 50.1319 152.358 46.9636 152.646C45.3016 152.797 43.6319 153.198 43.1338 150.879C43.0738 150.6 42.8479 150.226 42.6084 150.136C39.0854 148.807 39.3624 144.999 37.6055 142.527C37.719 142.41 37.8899 142.258 37.9967 142.312C40.804 143.721 43.2512 142.129 45.7989 141.388C46.202 141.288 46.6687 141.473 47.0141 141.114C47.9433 140.961 48.8164 140.467 49.8016 140.656C49.4013 141.745 48.0563 141.651 47.4758 142.514C47.0075 142.673 46.5392 142.831 46.0709 142.989C45.3197 144.164 45.6824 144.743 46.7092 145.81C49.6253 148.841 53.3189 149.788 57.1366 150.7C58.8701 151.115 60.5644 150.721 62.2742 150.717C69.5489 150.698 76.8232 150.742 84.0986 150.66C90.808 150.584 97.5273 150.552 104.217 150.187C113.184 149.697 122.154 149.166 131.118 148.573C140.949 147.924 150.787 147.108 160.525 145.835C170.823 144.489 181.127 144.963 191.411 144.271C200.489 143.66 209.489 145.197 218.495 146.24C224.603 146.948 230.651 146.8 236.4 144.022C239.475 142.536 241.938 140.271 244.634 138.293C245.699 136.854 246.95 135.601 248.391 134.537Z" fill="#8CA1C1"/>
<path d="M46.0741 141.588C43.3665 142.941 40.7023 144.683 37.6043 142.531C37.1379 141.748 36.6715 140.965 36.2051 140.182C36.2072 139.867 36.2095 139.55 36.2117 139.234C39.6199 139.513 43.1738 139.181 46.0741 141.588Z" fill="#96AEC9"/>
<path d="M26.237 20.0916C29.7306 19.7909 33.0049 22.2024 36.7166 22.7994C41.3292 23.5412 45.8953 24.362 50.2664 26.0932C52.9427 27.1532 55.6134 28.4162 58.4086 28.9497C65.0702 30.2213 70.315 34.1046 75.7856 37.6456C79.5641 40.0913 83.8585 40.8781 88.2442 41.1117C96.0879 41.5296 103.542 39.6733 110.834 36.98C114.127 35.764 117.534 34.9475 120.965 34.2275C121.041 34.2115 121.127 34.1543 121.19 34.1745C123.746 34.9949 126.38 34.4547 128.963 34.6589C130.487 34.7795 129.947 36.5023 129.987 37.3534C130.069 39.1024 130.452 39.8295 132.382 39.8038C134.099 39.7809 135.322 42.6901 134.319 44.1316C133.281 45.6225 132.482 47.0529 132.831 49.0281C133.07 50.3815 131.144 51.5162 129.515 50.8214C127.397 49.9182 126.912 50.7192 126.742 52.6406C126.616 54.0696 125.597 54.9537 124.301 55.5506C122.842 56.2222 121.991 57.2712 122.99 58.8731C123.736 60.0685 122.973 60.2351 122.133 60.355C120.222 60.6275 119.129 61.5139 118.776 63.5788C118.135 67.3241 116.6 67.8397 113.472 65.6221C113.24 65.4575 112.879 65.2673 112.658 65.3376C112.216 65.4777 112.146 66.0221 112.33 66.3154C114.1 69.1503 111.803 70.4195 110 70.9735C104.16 72.7675 99.8649 76.8979 95.0346 80.2176C93.2727 81.4283 91.4605 82.1367 89.3045 82.5474C84.6649 83.4312 80.0434 84.3492 75.3649 85.048C73.1062 85.3853 71.0507 84.3161 68.8839 84.7879C64.6737 85.7046 60.8579 83.3152 56.7521 83.3439C56.4692 83.3459 56.1044 83.206 55.9131 83.0038C53.0444 79.974 48.6885 79.1097 45.8141 76.168C43.2785 73.573 39.22 72.9882 37.3714 69.5665C32.4662 67.8027 31.5275 63.0516 29.4689 59.1282C28.6539 57.5752 28.1964 56.0258 28.1743 54.2314C28.1506 52.3127 27.6914 50.5898 25.0693 50.4038C23.1566 50.2681 21.172 47.3544 21.4112 45.4746C21.4906 44.8516 21.4994 44.33 20.9921 44.0369C18.3342 42.5013 18.3773 40.0245 18.1005 37.3454C17.8038 34.4737 16.6473 31.6624 15.6584 28.8992C14.802 26.5067 15.8554 23.5766 18.3804 22.9724C20.2617 22.5222 21.8345 21.7316 23.3355 20.6124C24.0456 20.083 24.8975 19.9136 26.237 20.0916Z" fill="#E7EEF7"/>
<path d="M30.5817 15.3102C35.1335 17.4106 40.0107 18.5264 44.7801 19.9579C50.6647 21.7242 56.4838 23.7339 62.5251 24.9435C63.1317 25.0649 63.7547 25.104 64.37 25.1814C67.28 26.4248 70.5513 26.2287 73.6476 27.3881C69.429 29.1035 32.5447 19.0328 28.1172 15.0776C29.0035 14.5029 29.7479 15.3909 30.5817 15.3102Z" fill="#A8B9CB"/>
<path d="M219.287 79.625C221.826 75.9459 225.685 73.2521 227.301 68.8877C227.474 68.42 227.765 68.0964 228.206 67.8906C226.903 70.5355 227.486 73.6645 225.989 76.2988C225.515 77.1339 225.06 77.8872 224.328 78.4808C224.208 78.5781 223.979 78.612 223.938 78.7253C222.759 81.947 219.695 84.0157 218.529 87.122C217.598 89.6038 216.06 91.2518 214.209 92.9665C210.646 96.2666 206.459 98.6239 202.544 101.396C200.176 103.073 197.455 104.177 194.877 104.55C189.719 105.296 184.688 106.44 179.616 107.535C177.88 107.91 176.039 108.421 174.169 108.272C173.636 108.23 172.995 108.202 172.562 108.447C168.892 110.529 164.559 110.322 160.766 111.925C159.353 112.523 157.827 112.27 156.421 112.714C152.02 114.101 147.614 115.476 143.243 116.954C137.48 118.904 131.363 119.162 125.527 120.851C118.53 122.876 111.323 123.779 104.027 124.326C97.2696 124.833 90.4023 124.708 83.7715 126.18C76.5239 127.788 69.3611 126.842 62.2552 125.942C58.0361 125.408 53.7328 124.674 49.6646 122.86C46.1733 121.304 42.2503 120.742 38.576 119.562C33.0042 117.771 27.899 115.152 23.632 110.997C21.8324 109.245 21.0155 107.222 20.7068 104.84C20.448 102.843 20.0946 100.858 19.7832 98.8683C21.0738 101.408 21.7086 104.2 23.4218 106.617C25.7332 109.877 29.3923 111.002 32.3919 113.152C41.2945 119.537 51.7938 121.214 62.1669 123.275C68.3413 124.503 74.5524 123.808 80.761 123.788C90.411 123.757 99.9301 122.723 109.423 121.052C118.223 119.504 126.93 117.587 135.594 115.427C144.19 113.283 152.889 111.505 161.395 109.056C167.423 107.321 173.548 105.835 179.462 103.806C185.42 101.761 191.393 99.6476 197.211 97.2437C199.734 96.2015 202.831 95.4815 204.5 92.7797C204.619 92.5865 204.806 92.3634 205.006 92.3018C208.838 91.1241 211.3 88.134 214.15 85.6028C216.159 83.8191 217.461 81.5147 219.287 79.625Z" fill="#C2D7E6"/>
<path d="M14.618 139.239C14.4462 137.312 14.989 135.613 16.7786 134.754C18.1213 134.11 19.4798 134.623 20.6148 135.617C22.2376 137.038 22.4372 138.731 21.6489 140.638C18.3166 143.394 16.6694 143.067 14.618 139.239Z" fill="#B9CDE0"/>
<path d="M46.0761 141.593C44.8983 141.653 43.8225 141.57 42.8973 140.61C42.1208 139.804 40.9681 139.37 39.9134 139.837C38.4651 140.479 37.3782 139.839 36.2136 139.239C35.5784 138.216 35.0771 137.135 34.791 135.961C35.435 136.52 36.1467 137.019 36.7088 137.651C37.8334 138.916 38.9552 139.593 40.795 138.938C42.1685 138.448 43.5167 139.32 44.7115 140.058C45.4444 140.51 46.1192 141.041 47.0148 141.122C46.8109 141.496 46.46 141.577 46.0761 141.593Z" fill="#9FB4D0"/>
<path d="M244.635 138.305C239.535 143.386 233.793 147.101 226.264 147.239C221.183 147.332 216.205 146.432 211.182 146.007C203.712 145.374 196.236 144.151 188.646 145.245C185.121 145.754 181.464 145.348 177.866 145.344C172.491 145.337 167.181 145.869 161.842 146.577C157.71 147.126 153.488 147.264 149.311 147.682C142.825 148.331 136.335 148.943 129.842 149.514C127.209 149.745 124.541 149.889 121.926 149.934C113.664 150.078 105.446 150.928 97.1799 151.088C85.7568 151.31 74.3326 151.25 62.9157 151.537C59.3753 151.625 56.0213 151.094 52.6356 150.412C51.0971 150.102 49.6999 149.424 48.6224 148.161C47.7648 147.156 46.8364 146.183 45.4643 145.832C44.8712 145.681 44.0782 145.589 43.9678 144.908C43.8349 144.089 44.6346 143.774 45.2368 143.427C45.5073 143.272 45.7928 143.142 46.0715 143.001C47.6649 146.845 50.7348 148.39 54.7028 148.638C64.1395 149.226 73.5909 149.265 83.0303 149.041C90.2053 148.87 97.3942 148.907 104.552 148.541C113.694 148.074 122.831 147.366 131.955 146.443C137.813 145.851 143.711 145.385 149.587 144.845C154.526 144.391 159.438 143.646 164.37 143.097C166.221 142.891 168.111 142.618 169.934 142.616C174.775 142.61 179.581 141.647 184.418 142.077C191.064 142.668 197.796 142.144 204.371 143.809C206.135 144.256 208.091 144.335 209.922 144.333C215.23 144.33 220.502 144.964 225.816 144.939C232.349 144.908 238.34 143.721 243.212 139.02C243.617 138.629 244.039 138.301 244.635 138.305Z" fill="#95AAC6"/>
</svg>
