<svg width="307" height="170" viewBox="0 0 307 170" fill="none" xmlns="http://www.w3.org/2000/svg">
<path d="M41.5918 83.6272C41.5918 83.6272 51.4723 67.6821 54.8069 57.736C56.1606 53.9279 60.8124 52.9544 64.5647 52.8183C67.3858 52.7184 71.4561 52.9297 73.641 54.2675C77.0482 56.3662 81.4909 62.1424 81.9043 77.9941C60.6712 86.0984 41.5918 83.6272 41.5918 83.6272Z" fill="url(#paint0_linear_4412_61791)"/>
<path d="M192.996 34.9704C196.249 43.487 195.831 51.5595 180.763 57.3059C165.694 63.057 150.844 60.8129 147.591 52.2905C144.344 43.7799 153.924 32.2104 168.992 26.4581C184.061 20.7095 189.748 26.4516 192.996 34.9704Z" fill="url(#paint1_linear_4412_61791)"/>
<path d="M185.369 38.3586C187.277 43.3623 186.982 48.1175 184.71 48.9828C182.434 49.8561 179.041 46.4992 177.133 41.4996C175.225 36.498 175.52 31.7385 177.796 30.8706C180.072 30.0044 183.461 33.3591 185.369 38.3586Z" fill="url(#paint2_linear_4412_61791)"/>
<path d="M126.813 30.9784C130.374 29.1771 136.185 26.2879 141.064 24.1539C143.862 22.8808 145.724 22.6206 147.982 22.6172C155.9 22.6103 180.722 31.0496 205.089 38.794C166.685 52.0272 130.697 66.7718 130.697 66.7718L124.514 34.4716C124.514 34.4716 124.033 32.4388 126.813 30.9784Z" fill="url(#paint3_linear_4412_61791)"/>
<path d="M138.871 25.6781C141.669 24.4025 143.531 24.139 145.794 24.1346C153.585 24.1288 177.757 32.306 201.756 39.9526C202.864 39.5708 203.977 39.1801 205.09 38.794C180.723 31.0498 155.901 22.6105 147.983 22.6172C145.726 22.6206 143.863 22.8807 141.065 24.1539C136.186 26.2879 130.376 29.1771 126.814 30.9784C126.101 31.3531 125.601 31.7674 125.256 32.1752C128.845 30.3626 134.26 27.6869 138.871 25.6781Z" fill="url(#paint4_linear_4412_61791)"/>
<path d="M304.622 14.3292C301.987 9.28342 291.961 9.214 278.888 7.80575C278.674 7.70145 278.306 7.56952 277.82 7.42888L263.592 2.38187C259.626 1.34139 255.106 0.600018 250.463 1.0781C241.686 2.89284 226.037 1.19621 164.005 38.7104C161.584 40.1731 138.593 50.1534 125.982 55.3561C111.523 61.0006 101.588 64.9019 101.588 64.9019L50.5319 80.8081L39.2568 84.3221L24.1384 90.7252C24.1384 90.7252 19.6684 93.6767 20.5953 99.8618C21.5265 106.052 26.5826 105.589 26.5826 105.589C60.7578 109.736 82.427 111.265 102.547 109.433C114.163 108.369 128.127 107.252 142.432 104.426C148.115 103.299 186.929 91.2792 188.291 90.8976C195.096 88.9739 200.866 87.1918 206.29 85.3645C261.253 66.5847 287.355 44.8738 294.651 37.2917C306.812 24.6607 306.321 17.5807 304.622 14.3292Z" fill="url(#paint5_linear_4412_61791)"/>
<path d="M304.623 14.3314L305.445 13.8998C304.673 12.4189 303.364 11.3379 301.734 10.544C296.841 8.19649 288.773 7.95336 278.988 6.88145L278.888 7.808L279.301 6.97213C278.983 6.81767 278.597 6.69048 278.084 6.53948L277.82 7.43095L278.129 6.55183L263.865 1.49683L263.828 1.48538C259.799 0.430368 255.17 -0.341723 250.368 0.153438L250.319 0.159072L250.273 0.166886C245.644 1.13013 238.576 1.11196 223.226 6.97776C210.41 11.8703 191.753 20.8455 163.525 37.9183C163.03 38.2193 161.108 39.1414 158.432 40.3522C150.373 44.0115 135.073 50.6007 125.629 54.496L125.983 55.358L125.647 54.4893C111.183 60.1314 101.248 64.0382 101.248 64.0382L101.589 64.9036L101.312 64.0109L50.26 79.9196L38.9347 83.4481L23.6985 89.9046L23.6256 89.9523C23.562 89.9941 22.3491 90.7994 21.2454 92.4644C20.1415 94.1111 19.1692 96.6641 19.6779 100.005C19.7961 100.81 19.9825 101.52 20.2233 102.152C21.1002 104.478 22.7445 105.646 24.1119 106.127C25.4838 106.625 26.5831 106.522 26.6694 106.517L26.5831 105.59L26.4741 106.513C60.6629 110.669 82.3999 112.203 102.634 110.36C114.24 109.302 128.246 108.179 142.614 105.338C144.118 105.041 147.589 104.083 152.063 102.786C165.446 98.9126 187.565 92.0679 188.542 91.7953C195.365 89.8688 201.148 88.0768 206.59 86.2474C211.219 84.6665 215.635 83.0651 219.864 81.4513C265.955 63.8628 288.514 45.0034 295.32 37.9396C301.012 32.0249 304.01 27.273 305.418 23.4685C306.822 19.6593 306.608 16.7725 305.84 14.7802C305.723 14.4635 305.586 14.1751 305.45 13.8989L304.623 14.3314L303.796 14.7584C303.905 14.9719 304.01 15.1978 304.105 15.4442C304.691 16.9956 304.946 19.3443 303.669 22.8218C302.392 26.2925 299.553 30.8589 293.979 36.6535C287.419 43.4665 265.055 62.221 219.2 79.7152C214.994 81.319 210.596 82.9133 205.99 84.4888C200.584 86.3104 194.833 88.0832 188.037 90.0046C187.315 90.2047 177.303 93.2983 166.714 96.4942C161.426 98.0932 155.997 99.7068 151.545 100.998C147.102 102.286 143.591 103.251 142.255 103.517C128.014 106.327 114.086 107.449 102.465 108.504C82.4589 110.33 60.8537 108.815 26.6967 104.67L26.5968 104.657L26.5012 104.665L26.5241 104.938L26.5059 104.665H26.5012L26.5241 104.938L26.5059 104.665C26.4741 104.67 25.6108 104.721 24.657 104.346C23.6986 103.962 22.6445 103.239 21.9631 101.49C21.7723 100.995 21.6177 100.412 21.5179 99.7261C21.0953 96.8791 21.8948 94.8595 22.7945 93.4891C23.2486 92.8077 23.7257 92.3 24.0846 91.9707C24.2661 91.8061 24.4162 91.682 24.516 91.6036L24.6296 91.5219L24.6523 91.507L24.1389 90.7269L24.5025 91.5887L39.5752 85.1971L50.8097 81.7002L101.898 65.7802L101.929 65.7689C101.934 65.7679 104.41 64.7922 108.702 63.1125C112.991 61.433 119.092 59.0469 126.324 56.227L126.329 56.2201L126.338 56.2166C132.652 53.6134 141.556 49.8169 149.188 46.4849C153.004 44.8244 156.502 43.273 159.205 42.0464C161.917 40.811 163.77 39.9388 164.488 39.5094C192.653 22.4762 211.224 13.5499 223.889 8.71618C239.112 2.91743 245.708 3.00939 250.65 1.9929L250.464 1.0798L250.56 2.00671C255.043 1.53862 259.454 2.25874 263.357 3.2854L263.593 2.38376L263.279 3.26051L277.535 8.31552L277.558 8.32096C278.017 8.45725 278.371 8.5879 278.48 8.64132L278.625 8.71618L278.789 8.73436C285.348 9.44194 291.122 9.81209 295.501 10.6196C297.691 11.0263 299.526 11.5418 300.921 12.221C302.32 12.9003 303.251 13.7236 303.796 14.7613L304.623 14.3314Z" fill="#BDBDBD"/>
<path d="M101.732 86.7421C102.918 89.8414 101.364 93.311 98.2612 94.4932C95.163 95.6766 91.6878 94.1252 90.5067 91.0249C89.3258 87.9256 90.8792 84.4538 93.9819 83.2691C97.0799 82.0903 100.551 83.6452 101.732 86.7421Z" fill="url(#paint6_linear_4412_61791)"/>
<path d="M102.17 87.4355C103.297 90.385 101.82 93.6874 98.8679 94.8119C95.9242 95.9363 92.617 94.4601 91.4902 91.5095C90.3683 88.5634 91.8491 85.2586 94.793 84.1367C97.7456 83.0074 101.048 84.4885 102.17 87.4355Z" fill="url(#paint7_linear_4412_61791)"/>
<path d="M127.418 80.6623C128.604 83.7592 127.045 87.2312 123.952 88.4123C120.844 89.5981 117.374 88.0409 116.193 84.9427C115.007 81.8387 116.561 78.367 119.668 77.1848C122.762 76.0037 126.237 77.5549 127.418 80.6623Z" fill="url(#paint8_linear_4412_61791)"/>
<path d="M127.853 81.3587C128.975 84.3069 127.499 87.6071 124.551 88.7337C121.598 89.8605 118.3 88.3816 117.173 85.4313C116.046 82.4829 117.523 79.1839 120.475 78.0561C123.424 76.9318 126.726 78.4115 127.853 81.3587Z" fill="url(#paint9_linear_4412_61791)"/>
<path d="M152.754 72.4287C153.94 75.529 152.377 79.0033 149.283 80.1866C146.181 81.3699 142.71 79.8152 141.524 76.7125C140.343 73.6156 141.897 70.1436 145 68.958C148.093 67.7769 151.573 69.3307 152.754 72.4287Z" fill="url(#paint10_linear_4412_61791)"/>
<path d="M153.184 73.133C154.311 76.0845 152.834 79.3871 149.886 80.5059C146.934 81.6325 143.636 80.1537 142.509 77.2065C141.382 74.2574 142.859 70.9592 145.811 69.8304C148.76 68.7036 152.058 70.1871 153.184 73.133Z" fill="url(#paint11_linear_4412_61791)"/>
<path d="M177.51 64.1078C178.691 67.2027 177.137 70.6744 174.039 71.8592C170.936 73.0427 167.466 71.4878 166.285 68.3909C165.099 65.2858 166.653 61.8149 169.755 60.6306C172.854 59.448 176.324 61.0018 177.51 64.1078Z" fill="url(#paint12_linear_4412_61791)"/>
<path d="M177.948 64.8032C179.075 67.7547 177.594 71.0541 174.646 72.1807C171.697 73.3025 168.395 71.8263 167.268 68.8783C166.141 65.9298 167.623 62.6307 170.571 61.5006C173.519 60.3786 176.821 61.8548 177.948 64.8032Z" fill="url(#paint13_linear_4412_61791)"/>
<path d="M202.447 54.2603C203.633 57.3596 202.079 60.8305 198.981 62.0148C195.883 63.1971 192.407 61.6434 191.222 58.5453C190.041 55.4413 191.594 51.9706 194.692 50.7864C197.795 49.6042 201.266 51.16 202.447 54.2603Z" fill="url(#paint14_linear_4412_61791)"/>
<path d="M202.883 54.9524C204.009 57.9009 202.533 61.2033 199.58 62.3301C196.637 63.4519 193.334 61.9757 192.212 59.0275C191.086 56.0792 192.562 52.7799 195.505 51.65C198.458 50.5256 201.761 52.0044 202.883 54.9524Z" fill="url(#paint15_linear_4412_61791)"/>
<path d="M226.259 42.4162C227.445 45.5143 225.891 48.9861 222.788 50.1696C219.69 51.3505 216.215 49.798 215.034 46.6987C213.848 43.5984 215.407 40.1253 218.505 38.9442C221.608 37.7598 225.078 39.3124 226.259 42.4162Z" fill="url(#paint16_linear_4412_61791)"/>
<path d="M226.692 43.1137C227.818 46.0633 226.342 49.3657 223.394 50.4901C220.445 51.612 217.143 50.1379 216.016 47.1875C214.894 44.2405 216.371 40.9367 219.319 39.8159C222.267 38.6882 225.57 40.1668 226.692 43.1137Z" fill="url(#paint17_linear_4412_61791)"/>
<path d="M264.311 2.67969C264.311 2.67969 264.147 3.43251 264.002 3.80156C261.939 9.06554 258.001 12.8998 256.193 15.1801C255.394 16.1842 255.861 17.0268 256.52 17.6263C257.515 18.5294 260.854 21.0948 262.671 22.5223C263.938 23.5206 264.847 22.6973 265.174 22.4122C273.655 15.1074 274.673 6.37622 274.673 6.37622L264.311 2.67969Z" fill="url(#paint18_linear_4412_61791)"/>
<path d="M24.1382 90.7266C24.1382 90.7266 6.09434 71.5652 1.78326 67.4653C-2.52328 63.3699 2.32385 61.6529 2.32385 61.6529L12.0317 58.6296C12.0317 58.6296 22.7527 55.7335 29.0671 58.1719C34.6227 60.3184 61.3843 73.1779 68.5619 75.949C70.3472 76.4712 71.7466 78.3087 68.6891 79.6762C57.6865 82.9959 24.1382 90.7266 24.1382 90.7266Z" fill="url(#paint19_linear_4412_61791)"/>
<path d="M265.047 2.875C265.047 2.875 264.879 3.62783 264.734 3.99688C262.672 9.26649 258.728 13.095 256.92 15.3801C256.121 16.3839 256.593 17.2243 257.247 17.824C258.242 18.7245 261.586 21.2879 263.398 22.7176C264.67 23.7159 265.574 22.8924 265.897 22.6075C274.383 15.3073 275.405 6.57154 275.405 6.57154L265.047 2.875Z" fill="url(#paint20_linear_4412_61791)"/>
<path d="M210.845 69.8464C178.928 82.0266 145.284 92.1059 121.389 96.8691C97.6942 101.591 57.441 104.567 57.0321 104.599L56.8457 101.992C57.25 101.962 97.3399 98.9962 120.881 94.3048C180.809 82.3559 299.679 37.4326 301.428 11.4219C301.428 11.4219 302.673 12.0579 303.813 13.1572C300.206 29.8837 257.359 52.099 210.845 69.8464Z" fill="url(#paint21_linear_4412_61791)"/>
<path d="M194.105 105.696C197.235 114.265 196.704 122.324 181.558 127.861C166.408 133.398 151.589 130.946 148.464 122.376C145.334 113.816 155.078 102.382 170.228 96.8489C185.374 91.3147 190.98 97.1342 194.105 105.696Z" fill="url(#paint22_linear_4412_61791)"/>
<path d="M170.228 96.8503C155.078 102.383 145.334 113.818 148.464 122.377C151.589 130.947 166.408 133.399 181.558 127.863C181.83 127.763 182.058 127.658 182.321 127.556C172.799 108.992 183.366 95.3617 183.366 95.3617L183.616 94.9598C180.25 94.294 175.907 94.7733 170.228 96.8503Z" fill="url(#paint23_linear_4412_61791)"/>
<path d="M193.183 106.518C195.019 111.549 194.66 116.3 192.374 117.138C190.09 117.971 186.746 114.576 184.906 109.542C183.071 104.516 183.434 99.7585 185.719 98.9226C188.009 98.0889 191.348 101.489 193.183 106.518Z" fill="url(#paint24_linear_4412_61791)"/>
<path d="M128.04 92.1801C129.88 91.1033 132.251 89.8735 136.594 87.6726C143.563 84.1485 151.844 81.1368 160.939 77.8977C175.58 72.6826 192.429 69.3346 199.975 70.1979C200.265 70.2284 200.815 70.3203 200.815 70.3203C200.815 70.3203 201.46 73.6571 200.87 74.3859C148.364 138.279 142.041 153.661 131.12 159.435C123.756 163.314 110.469 166.885 102.351 168.843C98.2305 169.842 96.713 168.656 99.1752 163.514C102.651 153.833 111.472 132.143 123.525 96.9273C123.752 96.2766 125.446 93.5112 128.04 92.1801Z" fill="url(#paint25_linear_4412_61791)"/>
<path d="M200.898 70.3438C200.898 70.3438 200.234 71.148 199.898 71.5499C146.266 136.706 139.925 152.287 128.913 158.102C121.549 161.986 108.266 165.552 100.143 167.519C99.326 167.714 98.6444 167.796 98.0449 167.805C98.3084 169.227 99.8348 169.445 102.351 168.836C110.469 166.879 123.757 163.308 131.121 159.428C142.11 153.618 148.443 138.087 201.847 73.1864C203.001 71.1333 200.898 70.3438 200.898 70.3438Z" fill="url(#paint26_linear_4412_61791)"/>
<path d="M32.4743 98.8366C32.4743 98.8366 50.1502 93.0447 75.3218 101.326C62.8608 114.438 47.8563 127.974 30.1529 132.331C25.0787 133.579 14.7123 133.188 12.1273 131.861C4.96786 128.015 16.1387 122.784 32.4743 98.8366Z" fill="url(#paint27_linear_4412_61791)"/>
<defs>
<linearGradient id="paint0_linear_4412_61791" x1="39.1336" y1="75.7365" x2="79.7056" y2="63.098" gradientUnits="userSpaceOnUse">
<stop stop-color="#17BEF0"/>
<stop offset="0.7394" stop-color="#0073B3"/>
<stop offset="1" stop-color="#0467A0"/>
</linearGradient>
<linearGradient id="paint1_linear_4412_61791" x1="170.236" y1="41.6627" x2="166.799" y2="18.1213" gradientUnits="userSpaceOnUse">
<stop stop-color="#8B8D8F"/>
<stop offset="0.26" stop-color="#B4B5B6"/>
<stop offset="0.5199" stop-color="#D5D6D6"/>
<stop offset="0.7352" stop-color="#EAEAEA"/>
<stop offset="0.8788" stop-color="#F1F1F1"/>
<stop offset="1" stop-color="#F1F1F1"/>
</linearGradient>
<linearGradient id="paint2_linear_4412_61791" x1="189.954" y1="31.686" x2="178.244" y2="42.7772" gradientUnits="userSpaceOnUse">
<stop stop-color="#17BEF0"/>
<stop offset="0.7394" stop-color="#0073B3"/>
<stop offset="1" stop-color="#0467A0"/>
</linearGradient>
<linearGradient id="paint3_linear_4412_61791" x1="125.08" y1="48.7397" x2="200.836" y2="25.1409" gradientUnits="userSpaceOnUse">
<stop stop-color="#17BEF0"/>
<stop offset="0.7394" stop-color="#0073B3"/>
<stop offset="1" stop-color="#0467A0"/>
</linearGradient>
<linearGradient id="paint4_linear_4412_61791" x1="175.541" y1="13.146" x2="139.086" y2="91.6856" gradientUnits="userSpaceOnUse">
<stop stop-color="#17BEF0"/>
<stop offset="0.7394" stop-color="#0073B3"/>
<stop offset="1" stop-color="#0467A0"/>
</linearGradient>
<linearGradient id="paint5_linear_4412_61791" x1="171.774" y1="99.3897" x2="158.215" y2="35.9311" gradientUnits="userSpaceOnUse">
<stop stop-color="#8B8D8F"/>
<stop offset="0.2491" stop-color="#B5B7B9"/>
<stop offset="0.4885" stop-color="#D7D8DA"/>
<stop offset="0.6863" stop-color="#ECEDEE"/>
<stop offset="0.8182" stop-color="#F3F4F5"/>
<stop offset="1" stop-color="#F3F4F5"/>
</linearGradient>
<linearGradient id="paint6_linear_4412_61791" x1="91.5176" y1="83.5214" x2="103.181" y2="97.1134" gradientUnits="userSpaceOnUse">
<stop stop-color="#4E4D50"/>
<stop offset="0.4043" stop-color="#8B8B8D"/>
<stop offset="0.8064" stop-color="#C2C2C4"/>
<stop offset="1" stop-color="#D7D8D9"/>
</linearGradient>
<linearGradient id="paint7_linear_4412_61791" x1="98.8677" y1="94.8118" x2="94.7941" y2="84.1361" gradientUnits="userSpaceOnUse">
<stop stop-color="#231F20"/>
<stop offset="0.2774" stop-color="#434142"/>
<stop offset="0.7641" stop-color="#777879"/>
<stop offset="1" stop-color="#8B8D8F"/>
</linearGradient>
<linearGradient id="paint8_linear_4412_61791" x1="117.201" y1="77.4347" x2="128.878" y2="91.0429" gradientUnits="userSpaceOnUse">
<stop stop-color="#4E4D50"/>
<stop offset="0.4043" stop-color="#8B8B8D"/>
<stop offset="0.8064" stop-color="#C2C2C4"/>
<stop offset="1" stop-color="#D7D8D9"/>
</linearGradient>
<linearGradient id="paint9_linear_4412_61791" x1="124.55" y1="88.7339" x2="120.476" y2="78.0559" gradientUnits="userSpaceOnUse">
<stop stop-color="#231F20"/>
<stop offset="0.2774" stop-color="#434142"/>
<stop offset="0.7641" stop-color="#777879"/>
<stop offset="1" stop-color="#8B8D8F"/>
</linearGradient>
<linearGradient id="paint10_linear_4412_61791" x1="142.537" y1="69.2079" x2="154.212" y2="82.8131" gradientUnits="userSpaceOnUse">
<stop stop-color="#4E4D50"/>
<stop offset="0.4043" stop-color="#8B8B8D"/>
<stop offset="0.8064" stop-color="#C2C2C4"/>
<stop offset="1" stop-color="#D7D8D9"/>
</linearGradient>
<linearGradient id="paint11_linear_4412_61791" x1="149.883" y1="80.5071" x2="145.81" y2="69.8312" gradientUnits="userSpaceOnUse">
<stop stop-color="#231F20"/>
<stop offset="0.2774" stop-color="#434142"/>
<stop offset="0.7641" stop-color="#777879"/>
<stop offset="1" stop-color="#8B8D8F"/>
</linearGradient>
<linearGradient id="paint12_linear_4412_61791" x1="167.291" y1="60.8808" x2="178.967" y2="74.4872" gradientUnits="userSpaceOnUse">
<stop stop-color="#4E4D50"/>
<stop offset="0.4043" stop-color="#8B8B8D"/>
<stop offset="0.8064" stop-color="#C2C2C4"/>
<stop offset="1" stop-color="#D7D8D9"/>
</linearGradient>
<linearGradient id="paint13_linear_4412_61791" x1="174.646" y1="72.1806" x2="170.57" y2="61.5006" gradientUnits="userSpaceOnUse">
<stop stop-color="#231F20"/>
<stop offset="0.2774" stop-color="#434142"/>
<stop offset="0.7641" stop-color="#777879"/>
<stop offset="1" stop-color="#8B8D8F"/>
</linearGradient>
<linearGradient id="paint14_linear_4412_61791" x1="192.232" y1="51.0369" x2="203.901" y2="64.635" gradientUnits="userSpaceOnUse">
<stop stop-color="#4E4D50"/>
<stop offset="0.4043" stop-color="#8B8B8D"/>
<stop offset="0.8064" stop-color="#C2C2C4"/>
<stop offset="1" stop-color="#D7D8D9"/>
</linearGradient>
<linearGradient id="paint15_linear_4412_61791" x1="199.584" y1="62.3284" x2="195.509" y2="51.6484" gradientUnits="userSpaceOnUse">
<stop stop-color="#231F20"/>
<stop offset="0.2774" stop-color="#434142"/>
<stop offset="0.7641" stop-color="#777879"/>
<stop offset="1" stop-color="#8B8D8F"/>
</linearGradient>
<linearGradient id="paint16_linear_4412_61791" x1="216.038" y1="39.1855" x2="227.713" y2="52.7911" gradientUnits="userSpaceOnUse">
<stop stop-color="#4E4D50"/>
<stop offset="0.4043" stop-color="#8B8B8D"/>
<stop offset="0.8064" stop-color="#C2C2C4"/>
<stop offset="1" stop-color="#D7D8D9"/>
</linearGradient>
<linearGradient id="paint17_linear_4412_61791" x1="223.392" y1="50.4909" x2="219.319" y2="39.8161" gradientUnits="userSpaceOnUse">
<stop stop-color="#231F20"/>
<stop offset="0.2774" stop-color="#434142"/>
<stop offset="0.7641" stop-color="#777879"/>
<stop offset="1" stop-color="#8B8D8F"/>
</linearGradient>
<linearGradient id="paint18_linear_4412_61791" x1="262.269" y1="7.72048" x2="267.528" y2="14.5529" gradientUnits="userSpaceOnUse">
<stop stop-color="#4E4D50"/>
<stop offset="0.2799" stop-color="#717073"/>
<stop offset="0.7575" stop-color="#A7A7AA"/>
<stop offset="0.989" stop-color="#BCBDBF"/>
<stop offset="1" stop-color="#BCBDBF"/>
</linearGradient>
<linearGradient id="paint19_linear_4412_61791" x1="4.8308" y1="80.2207" x2="65.4124" y2="61.349" gradientUnits="userSpaceOnUse">
<stop stop-color="#17BEF0"/>
<stop offset="0.7394" stop-color="#0073B3"/>
<stop offset="1" stop-color="#0467A0"/>
</linearGradient>
<linearGradient id="paint20_linear_4412_61791" x1="270.587" y1="17.2208" x2="263.281" y2="8.6431" gradientUnits="userSpaceOnUse">
<stop stop-color="#231F20"/>
<stop offset="0.2774" stop-color="#434142"/>
<stop offset="0.7641" stop-color="#777879"/>
<stop offset="1" stop-color="#8B8D8F"/>
</linearGradient>
<linearGradient id="paint21_linear_4412_61791" x1="194.904" y1="17.5491" x2="166.307" y2="96.4193" gradientUnits="userSpaceOnUse">
<stop stop-color="#17BEF0"/>
<stop offset="0.7394" stop-color="#0073B3"/>
<stop offset="1" stop-color="#0467A0"/>
</linearGradient>
<linearGradient id="paint22_linear_4412_61791" x1="175.182" y1="138.077" x2="168.622" y2="95.5183" gradientUnits="userSpaceOnUse">
<stop stop-color="#8B8D8F"/>
<stop offset="0.26" stop-color="#B4B5B6"/>
<stop offset="0.5199" stop-color="#D5D6D6"/>
<stop offset="0.7352" stop-color="#EAEAEA"/>
<stop offset="0.8788" stop-color="#F1F1F1"/>
<stop offset="1" stop-color="#F1F1F1"/>
</linearGradient>
<linearGradient id="paint23_linear_4412_61791" x1="168.83" y1="139.457" x2="163.014" y2="78.6571" gradientUnits="userSpaceOnUse">
<stop stop-color="#8B8D8F"/>
<stop offset="0.26" stop-color="#B4B5B6"/>
<stop offset="0.5199" stop-color="#D5D6D6"/>
<stop offset="0.7352" stop-color="#EAEAEA"/>
<stop offset="0.8788" stop-color="#F1F1F1"/>
<stop offset="1" stop-color="#F1F1F1"/>
</linearGradient>
<linearGradient id="paint24_linear_4412_61791" x1="180.05" y1="112.337" x2="205.461" y2="100.173" gradientUnits="userSpaceOnUse">
<stop stop-color="#8B8D8F"/>
<stop offset="0.26" stop-color="#B4B5B6"/>
<stop offset="0.5199" stop-color="#D5D6D6"/>
<stop offset="0.7352" stop-color="#EAEAEA"/>
<stop offset="0.8788" stop-color="#F1F1F1"/>
<stop offset="1" stop-color="#F1F1F1"/>
</linearGradient>
<linearGradient id="paint25_linear_4412_61791" x1="88.6449" y1="136.166" x2="209.699" y2="100.333" gradientUnits="userSpaceOnUse">
<stop stop-color="#17BEF0"/>
<stop offset="0.7394" stop-color="#0073B3"/>
<stop offset="1" stop-color="#0467A0"/>
</linearGradient>
<linearGradient id="paint26_linear_4412_61791" x1="176.045" y1="139.046" x2="108.796" y2="89.0716" gradientUnits="userSpaceOnUse">
<stop stop-color="#17BEF0"/>
<stop offset="0.7394" stop-color="#0073B3"/>
<stop offset="1" stop-color="#0467A0"/>
</linearGradient>
<linearGradient id="paint27_linear_4412_61791" x1="7.892" y1="122.931" x2="75.4922" y2="101.873" gradientUnits="userSpaceOnUse">
<stop stop-color="#17BEF0"/>
<stop offset="0.7394" stop-color="#0073B3"/>
<stop offset="1" stop-color="#0467A0"/>
</linearGradient>
</defs>
</svg>
