<svg width="140" height="140" viewBox="0 0 140 140" fill="none" xmlns="http://www.w3.org/2000/svg">
<path d="M123.642 15.6604C122.011 14.2027 106.939 1.73103 69.9861 1.42578C33.0028 1.73726 17.952 14.24 16.3728 15.6541C-5.13145 33.7199 0.635605 94.1468 0.88463 96.7072C2.61262 115.739 13.3359 128.254 33.6436 134.969C49.815 140.314 66.7761 140.071 69.9891 139.953C70.3809 139.953 71.2342 139.99 72.4702 139.99C78.0672 139.99 92.5745 139.498 106.356 134.944C126.673 128.229 137.387 115.714 139.112 96.7072C139.37 94.1717 145.134 33.7386 123.642 15.6604Z" fill="#DC6D2E"/>
<path d="M123.369 14.1123C122.093 12.9723 107.067 0.301343 69.9894 -0.00390625C32.9393 0.301343 17.9128 12.9723 16.6373 14.1123C-4.23833 31.661 1.21896 89.9886 1.57731 93.5768C3.24457 111.935 13.7704 124.102 33.7684 130.68C50.2951 136.15 67.7816 135.745 70.0137 135.664C70.4024 135.664 71.2527 135.701 72.4827 135.701C78.3074 135.701 92.6082 135.184 106.256 130.668C126.245 124.064 136.771 111.923 138.447 93.5643C138.787 89.9886 144.247 31.661 123.369 14.1123Z" fill="#FFFDF9"/>
<path d="M122.002 20.7251C122.002 20.7251 107.665 7.49349 70.0043 7.17578C32.3468 7.49349 18.0036 20.7251 18.0036 20.7251C-0.676316 36.3427 5.01178 92.2033 5.01178 92.2033C8.12763 127.089 58.376 128.914 70.0013 128.497C81.6265 128.914 131.875 127.114 134.991 92.2033C134.994 92.2033 140.682 36.3427 122.002 20.7251Z" fill="#C86228"/>
<path d="M118.473 23.5982C118.473 23.5982 104.2 11.1951 68.0215 10.9023C31.8521 11.1951 18.5688 23.5982 18.5688 23.5982C1.20079 38.2377 8.73228 90.5786 8.73228 90.5786C13.0113 123.296 61.3495 124.985 72.507 124.598C83.6919 124.985 131.896 123.296 133.597 90.5786C133.597 90.5786 136.995 38.2377 118.473 23.5982Z" fill="#FF7F36"/>
<path d="M66.9279 96.5573C20.2909 61.4764 20.4255 74.0729 66.9279 39.0413C70.614 36.3462 75.6096 39.1759 75.6096 43.9562V91.6424C75.6096 96.4227 70.614 99.2523 66.9279 96.5573Z" fill="white"/>
<path d="M86.9996 84.9934C83.9726 84.9172 83.2103 89.7423 86.0264 90.7378L99.5512 96.1773C102.991 97.563 104.82 91.841 101.497 90.6212C100.802 90.4912 87.4435 84.6705 86.9996 84.9934Z" fill="white"/>
<path d="M100.134 39.2265C99.623 38.6615 86.6858 47.0651 86.0266 47.2983C82.9414 49.0158 85.5064 54.4059 88.7441 52.4687L101.497 44.7781C103.919 43.4597 102.959 39.1502 100.134 39.2265Z" fill="white"/>
<path d="M104.08 65.7153H86.9997C85.4661 65.7153 84.2284 67.0426 84.2284 68.6794C84.2284 70.3206 85.4661 71.648 86.9997 71.648H104.08C107.668 71.7063 107.677 65.657 104.08 65.7153Z" fill="white"/>
<path d="M60.0317 11.1992C29.8996 13.0681 18.5842 23.6085 18.5842 23.6085C1.21617 38.248 8.74766 90.5952 8.74766 90.5952C8.89719 91.7397 9.10061 92.8517 9.35504 93.9155C8.77499 40.2353 30.7135 20.6619 60.0317 11.1992Z" fill="#FFA26E"/>
<path d="M24.0833 27.6762C21.9818 23.8014 17.6542 25.4149 14.4108 31.2769C11.1674 37.139 10.2442 45.0381 12.3518 48.9129C14.4594 52.7877 15.5557 46.6889 18.7961 40.8144C22.0364 34.9399 26.1818 31.551 24.0833 27.6762Z" fill="white"/>
<path d="M11.6207 50.4332C10.4059 49.4614 9.06059 50.1528 8.43803 52.6883C7.81546 55.2237 8.15863 58.65 9.34909 59.628C10.5396 60.6061 12.0276 59.3352 12.6502 56.7936C13.2728 54.2519 12.8203 51.4112 11.6207 50.4332Z" fill="white"/>
<path d="M131.505 51.832C131.416 54.9262 131.213 58.0022 130.897 61.0331C127.63 92.7666 112.57 115.355 92.5536 123.279C110.344 120.526 132.446 112.545 133.588 90.5862C133.597 90.5862 134.891 70.5706 131.505 51.832Z" fill="#DC6D2E"/>
<path d="M121.881 104.771C123.818 107.637 127.39 105.469 129.856 99.9309C132.321 94.3928 132.753 87.5776 130.815 84.712C128.878 81.8464 128.082 86.637 125.628 92.1875C123.174 97.7381 119.943 101.899 121.881 104.771Z" fill="white"/>
</svg>
