<svg width="268" height="240" viewBox="0 0 268 240" fill="none" xmlns="http://www.w3.org/2000/svg">
<path d="M261.115 0.687914C252.812 -1.19019 238.97 1.37264 238.97 1.37264C181.708 23.0246 145.38 93.8878 139.785 105.412C138.951 103.352 138.261 101.807 138.022 101.201C137.269 99.2904 141.656 100.594 140.903 92.4327C140.588 89.0144 138.831 87.2487 137.123 86.3723C137.356 85.8822 137.527 85.4991 137.527 85.4991C146.135 59.4882 152.196 44.6732 153.939 45.0561C155.682 45.4389 158.164 45.1752 159.533 42.6757C160.902 40.1763 160.174 37.9926 158.681 37.8402C156.967 37.6653 154.397 40.815 154.397 40.815C148.766 47.2917 139.972 73.699 136.61 85.0442C136.503 85.4063 136.411 85.7245 136.328 86.0209C135.229 85.6135 134.252 85.5443 133.836 85.6017C133.383 85.5394 132.33 85.6829 131.198 86.1794C131.105 85.8437 130.998 85.4705 130.872 85.0444C127.51 73.6993 118.716 47.2919 113.085 40.8152C113.085 40.8152 110.514 37.6653 108.801 37.8403C107.308 37.9928 106.58 40.1766 107.949 42.6759C109.318 45.1753 111.8 45.4392 113.543 45.0563C115.286 44.6735 121.347 59.4883 129.955 85.4993C129.955 85.4993 130.171 85.9824 130.448 86.5589C128.96 87.4203 127.528 88.9439 127.299 91.492C126.565 99.655 130.403 99.2907 129.65 101.201C129.424 101.772 128.797 103.181 128.027 105.067C121.903 92.5357 85.7224 22.8169 29.0101 1.37279C29.0101 1.37279 15.1683 -1.19005 6.86518 0.688062C-4.35537 3.22596 0.913285 27.2248 3.68813 34.6496C6.46298 42.0746 13.2546 73.6679 12.1747 77.3087C7.60514 92.7164 7.0671 111.02 19.7839 124.188C26.2217 130.854 51.6929 131.348 76.6526 129.982C60.4233 132.049 45.3983 134.581 39.8238 137.321C30.1733 142.064 23.2767 144.956 23.5841 159.47C23.7851 168.958 22.2694 168.799 21.4305 173.617C20.5916 178.436 16.9036 180.629 20.6328 185.031C24.362 189.433 27.5743 191.75 26.7161 196.269C25.8578 200.789 25.2938 209.881 28.7344 209.793C32.1748 209.706 36.1105 217.318 37.0675 220.292C38.0246 223.265 40.5685 227.098 46.5336 230.544C52.4989 233.99 59.2451 231.719 62.0942 234.345C64.9434 236.971 67.2585 239.91 75.9261 239.389C84.5938 238.868 82.1662 237.014 89.5258 231.103C102.633 220.574 102.788 195.27 110.664 184.395C118.391 173.728 125.603 162.17 127.845 152.793C127.9 152.565 127.937 152.343 127.986 152.117C130.497 155.744 130.572 156.34 130.465 160.66C130.407 163.026 128.855 166.247 127.304 172.714C125.754 179.18 125.052 184.451 126.402 190.819C127.018 193.726 129.886 204.766 133.836 205.255C138.315 203.261 140.384 193.09 141.103 190.203C142.016 186.539 143.526 180.074 141.975 173.607C140.425 167.14 137.87 167.008 139.171 160.66C140.121 156.024 140.013 155.79 140.521 154.226C143.114 163.332 149.977 174.263 157.315 184.395C165.192 195.27 165.346 220.574 178.454 231.103C185.813 237.014 183.386 238.868 192.053 239.389C200.721 239.91 203.036 236.971 205.885 234.345C208.735 231.719 215.481 233.99 221.446 230.544C227.411 227.098 229.955 223.265 230.912 220.292C231.869 217.318 235.805 209.706 239.245 209.794C242.686 209.881 242.122 200.789 241.263 196.27C240.405 191.75 243.618 189.434 247.347 185.031C251.076 180.629 247.388 178.436 246.549 173.617C245.71 168.799 244.195 168.958 244.395 159.47C244.703 144.956 237.806 142.064 228.156 137.321C222.581 134.581 207.556 132.049 191.327 129.982C216.287 131.349 241.758 130.854 248.196 124.188C260.913 111.02 260.375 92.7166 255.805 77.3088C254.725 73.6681 261.517 42.0747 264.291 34.6498C267.067 27.2245 272.336 3.22581 261.115 0.687914Z" fill="#F9BD16"/>
<path d="M261.115 0.687914C252.812 -1.19019 238.97 1.37264 238.97 1.37264C181.708 23.0246 145.38 93.8878 139.785 105.412C138.951 103.352 138.261 101.807 138.022 101.201C137.269 99.2904 141.656 100.594 140.903 92.4327C140.588 89.0144 138.831 87.2487 137.123 86.3723C137.356 85.8822 137.527 85.4991 137.527 85.4991C146.135 59.4882 152.196 44.6732 153.939 45.0561C155.682 45.4389 158.164 45.1752 159.533 42.6757C160.902 40.1763 160.174 37.9926 158.681 37.8402C156.967 37.6653 154.397 40.815 154.397 40.815C148.766 47.2917 139.972 73.699 136.61 85.0442C136.503 85.4063 136.411 85.7245 136.328 86.0209C135.229 85.6135 134.252 85.5443 133.836 85.6017C133.383 85.5394 132.33 85.6829 131.198 86.1794C131.105 85.8437 130.998 85.4705 130.872 85.0444C127.51 73.6993 118.716 47.2919 113.085 40.8152C113.085 40.8152 110.514 37.6653 108.801 37.8403C107.308 37.9928 106.58 40.1766 107.949 42.6759C109.318 45.1753 111.8 45.4392 113.543 45.0563C115.286 44.6735 121.347 59.4883 129.955 85.4993C129.955 85.4993 130.171 85.9824 130.448 86.5589C128.96 87.4203 127.528 88.9439 127.299 91.492C126.565 99.655 130.403 99.2907 129.65 101.201C129.424 101.772 128.797 103.181 128.027 105.067C121.903 92.5357 85.7224 22.8169 29.0101 1.37279C29.0101 1.37279 15.1683 -1.19005 6.86518 0.688062C-4.35537 3.22596 0.913285 27.2248 3.68813 34.6496C6.46298 42.0746 13.2546 73.6679 12.1747 77.3087C7.60514 92.7164 7.0671 111.02 19.7839 124.188C26.2217 130.854 51.6929 131.348 76.6526 129.982C60.4233 132.049 45.3983 134.581 39.8238 137.321C30.1733 142.064 23.2767 144.956 23.5841 159.47C23.7851 168.958 22.2694 168.799 21.4305 173.617C20.5916 178.436 16.9036 180.629 20.6328 185.031C24.362 189.433 27.5743 191.75 26.7161 196.269C25.8578 200.789 25.2938 209.881 28.7344 209.793C32.1748 209.706 36.1105 217.318 37.0675 220.292C38.0246 223.265 40.5685 227.098 46.5336 230.544C52.4989 233.99 59.2451 231.719 62.0942 234.345C64.9434 236.971 67.2585 239.91 75.9261 239.389C84.5938 238.868 82.1662 237.014 89.5258 231.103C102.633 220.574 102.788 195.27 110.664 184.395C118.391 173.728 125.603 162.17 127.845 152.793C127.9 152.565 127.937 152.343 127.986 152.117C130.497 155.744 130.572 156.34 130.465 160.66C130.407 163.026 128.855 166.247 127.304 172.714C125.754 179.18 125.052 184.451 126.402 190.819C127.018 193.726 129.886 204.766 133.836 205.255C138.315 203.261 140.384 193.09 141.103 190.203C142.016 186.539 143.526 180.074 141.975 173.607C140.425 167.14 137.87 167.008 139.171 160.66C140.121 156.024 140.013 155.79 140.521 154.226C143.114 163.332 149.977 174.263 157.315 184.395C165.192 195.27 165.346 220.574 178.454 231.103C185.813 237.014 183.386 238.868 192.053 239.389C200.721 239.91 203.036 236.971 205.885 234.345C208.735 231.719 215.481 233.99 221.446 230.544C227.411 227.098 229.955 223.265 230.912 220.292C231.869 217.318 235.805 209.706 239.245 209.794C242.686 209.881 242.122 200.789 241.263 196.27C240.405 191.75 243.618 189.434 247.347 185.031C251.076 180.629 247.388 178.436 246.549 173.617C245.71 168.799 244.195 168.958 244.395 159.47C244.703 144.956 237.806 142.064 228.156 137.321C222.581 134.581 207.556 132.049 191.327 129.982C216.287 131.349 241.758 130.854 248.196 124.188C260.913 111.02 260.375 92.7166 255.805 77.3088C254.725 73.6681 261.517 42.0747 264.291 34.6498C267.067 27.2245 272.336 3.22581 261.115 0.687914ZM204.27 181.951C204.412 184.074 204.577 186.593 203.844 188.466C202.197 191.91 195.788 189.648 192.967 188.381C189.653 186.88 186.901 184.98 184.469 182.285C181.952 179.631 179.253 176.698 176.672 174.106C173.006 170.504 169.274 166.966 164.766 164.333C163.162 163.472 161.551 162.646 159.935 161.835C159.71 160.648 154.757 156.527 152.274 155.534C149.249 154.324 163.368 158.358 165.17 158.251C166.973 158.145 157.72 155.332 155.551 154.371C153.383 153.409 161.754 153.517 163.973 154.371C166.192 155.224 158.325 151.903 155.722 150.875C154.043 150.213 165.09 149.918 173.148 149.793C176.586 149.929 180.019 150.148 183.439 150.499C188.51 151.095 193.784 151.797 198.415 153.981C200.615 156.948 203.729 162.343 203.205 166.793C202.8 172.12 203.957 177.124 204.27 181.951ZM226.3 190.406C226.878 195.22 228.821 200.905 226.763 202.281C226.367 202.546 225.933 202.769 225.482 202.987C222.943 201.635 216.458 198.086 212.595 195.111C210.248 193.304 208.712 191.06 207.742 189.213C208.51 186.791 208.258 184.04 208.065 181.606C207.655 177.535 206.703 173.665 206.343 169.684C215.867 175.614 223.13 184.207 226.377 188.444C226.258 189.068 226.217 189.717 226.3 190.406ZM172.91 183.821C170.798 178.641 170.945 175.409 171.386 173.661C175.915 178.168 180.008 183.258 184.558 187.651C185.506 188.436 186.67 189.272 187.97 190.075C189.735 192.995 196.814 204.765 199.432 210.279C201.622 214.891 200.857 220.73 200.345 223.336C199.926 223.656 199.471 224.011 198.921 224.398C196.564 226.052 194.9 225.457 191.933 222.863C191.212 222.231 190.6 221.755 190.044 221.399V221.398C189.931 218.552 176.391 192.358 172.91 183.821ZM211.705 198.345C214.86 200.584 218.097 208.812 219.406 212.436C218.877 214.202 218.184 215.6 216.593 217.078C213.906 219.574 208.69 221.743 205.298 221.684C202.85 219.946 205.765 215.9 203.539 210.21C201.706 205.525 193.663 195.373 190.738 191.614C195.253 193.858 200.605 195.232 204.501 193.212C205.983 194.271 208.858 196.324 211.705 198.345ZM27.125 66.1805C27.125 66.1805 23.9122 62.5498 28.4605 62.5498C33.0087 62.5498 41.0591 69.4075 38.4458 66.1805C35.8324 62.9532 27.741 57.7091 31.6859 58.9192C35.6308 60.1294 45.6967 67.4684 42.9834 64.0007C40.2701 60.5329 31.9695 51.8565 35.02 53.0699C38.0707 54.2835 40.6318 56.9454 46.8045 60.6514C52.9771 64.3574 59.4316 68.8025 62.457 73.6433C65.4827 78.4841 69.8544 81.9131 65.0465 79.291C60.2383 76.6689 52.0081 73.0383 53.2994 74.4502C54.591 75.8621 61.4487 78.4842 57.818 78.4842C54.1874 78.4842 41.4924 72.8367 44.1084 75.257C45.9349 76.9467 47.763 78.7305 49.25 79.6215C50.8272 79.9383 51.7333 80.1497 50.9602 80.1974C50.4731 80.2275 49.893 80.0066 49.25 79.6215C47.5357 79.2772 45.027 78.8077 42.9835 78.2824C39.06 77.2739 37.2904 76.4671 34.0403 76.4671C30.7901 76.4671 30.3225 77.2739 28.0352 75.862C25.7477 74.4501 29.3051 72.0296 29.14 69.8109C28.9745 67.5924 27.125 66.1805 27.125 66.1805ZM51.0272 37.4148C54.9266 40.8336 56.4812 49.1704 55.7711 48.2292C55.061 47.2879 51.8339 41.7747 53.1786 45.0019C54.5233 48.2292 58.2882 56.2081 57.2126 54.9079C56.1369 53.608 52.3718 47.5124 53.9854 51.1651C55.5989 54.818 60.3053 60.7345 58.0194 59.7933C55.7334 58.852 48.1372 46.2121 48.7081 48.7669C49.2791 51.3217 54.5233 56.9693 51.1617 54.0111C47.8084 51.0603 34.9835 36.6416 35.7074 40.0883C35.525 39.6975 35.4194 39.3519 35.4252 39.0719C35.4363 38.5366 35.8641 37.9589 36.6306 37.4093C36.9801 37.2971 47.1945 34.0547 51.0272 37.4148ZM82.8285 64.9703C87.871 71.223 90.4931 71.6264 97.1493 80.5011C103.805 89.3759 114.495 102.688 108.445 97.6457C102.393 92.6031 87.0643 78.6092 92.7118 84.9002C98.3595 91.1914 104.814 95.2537 107.839 99.9794C110.865 104.705 98.5613 99.461 102.999 102.285C107.436 105.109 108.243 106.933 112.882 111.467C117.521 116 118.933 116.8 121.757 121.544C122.471 122.744 123.146 123.845 123.701 124.778C123.782 125.615 123.892 126.423 124.023 127.203C123.831 127.06 123.62 126.896 123.37 126.69C119.941 123.866 111.268 115.193 103.402 108.537C95.5356 101.881 77.5843 88.7709 74.3571 83.7284C72.4609 80.7656 68.2181 75.4782 65.2539 71.8182C64.5871 70.8177 63.9034 69.8262 63.2117 68.8649H63.2118C63.2118 68.8649 62.8471 67.6141 62.3449 65.6804C62.2284 63.2059 61.5695 59.328 60.4395 57.3029C59.8249 54.0684 59.3677 50.7583 59.4273 48.2581C59.5303 43.9276 60.7721 40.0614 61.4221 37.6191C61.4342 37.6237 61.4461 37.6279 61.4583 37.6323C62.1481 38.0059 73.1952 44.071 79.2249 52.6662C85.4509 61.541 97.5527 74.0465 95.5358 73.8448C93.5187 73.6433 77.786 58.7176 82.8285 64.9703ZM35.0197 117.39C31.7867 115.149 33.412 113.983 34.0398 109.799C34.4208 107.26 33.405 105.809 32.5466 105.056C35.4717 106.468 40.1757 108.514 39.8014 106.872C39.2611 104.503 31.0373 100.47 34.0398 100.873C37.0424 101.276 44.8895 105.371 42.9831 103.929C41.0764 102.487 31.7199 98.0115 37.6084 99.0387C43.4969 100.066 62.4566 104.302 57.8176 101.68C53.1784 99.0576 47.9871 96.4354 46.5488 94.2168C45.1104 91.9981 39.4213 89.7794 46.804 90.9896C54.187 92.1998 56.0023 93.6117 61.2464 94.6202C66.4906 95.6288 67.9025 95.7928 74.1552 99.0387C80.4079 102.285 87.6691 105.211 92.1065 109.799C96.5439 114.387 111.671 127.918 107.839 125.691C104.007 123.463 94.9304 120.841 99.5694 123.262C104.208 125.682 108.646 127.094 113.285 130.119C116.061 131.93 120.143 135.785 123.273 138.664C122.106 138.145 120.874 137.644 119.739 137.245C116.517 136.113 101.99 130.523 96.7457 128.103C91.5014 125.682 87.4675 125.682 82.2232 123.785C76.979 121.889 73.7518 124.069 67.4978 122.858C61.2438 121.648 57.6158 120.64 57.8176 121.54C58.0194 122.441 65.8856 124.27 62.4566 123.665C59.0277 123.06 51.7665 124.069 45.3121 121.544C38.8577 119.019 38.2528 119.631 35.0197 117.39ZM239.945 75.8621C237.658 77.2741 237.19 76.4673 233.94 76.4673C230.69 76.4673 228.921 77.2741 224.997 78.2826C222.953 78.8079 220.445 79.2772 218.73 79.6216C218.087 80.0069 217.507 80.2277 217.02 80.1975C216.247 80.1497 217.153 79.9385 218.73 79.6216C220.217 78.7307 222.046 76.9468 223.872 75.2571C226.488 72.8368 213.793 78.4844 210.162 78.4844C206.532 78.4844 213.39 75.8623 214.681 74.4504C215.972 73.0384 207.742 76.6691 202.934 79.2911C198.126 81.9132 202.498 78.4844 205.523 73.6434C208.549 68.8027 215.003 64.3576 221.176 60.6515C227.349 56.9455 229.91 54.2835 232.96 53.0701C236.011 51.8565 227.71 60.5329 224.997 64.0008C222.284 67.4686 232.349 60.1297 236.294 58.9194C240.239 57.7092 232.148 62.9534 229.534 66.1806C226.921 69.4078 234.972 62.55 239.52 62.55C244.068 62.55 240.855 66.1806 240.855 66.1806C240.855 66.1806 239.005 67.5925 238.841 69.8112C238.675 72.0298 242.233 74.4502 239.945 75.8621ZM210.768 54.9079C209.692 56.2081 213.457 48.2292 214.802 45.0019C216.146 41.7747 212.919 47.2879 212.209 48.2292C211.499 49.1704 213.054 40.8336 216.953 37.4148C220.785 34.0554 230.996 37.296 231.349 37.4095C232.116 37.9591 232.544 38.5368 232.555 39.072C232.561 39.3522 232.455 39.6975 232.273 40.0883C232.996 36.6426 220.172 51.0604 216.819 54.0112C213.457 56.9694 218.701 51.3219 219.272 48.767C219.843 46.2122 212.247 58.852 209.961 59.7934C207.675 60.7347 212.381 54.8181 213.995 51.1652C215.608 47.5122 211.843 53.6078 210.768 54.9079ZM206.522 37.6325C206.534 37.628 206.546 37.6239 206.558 37.6193C207.208 40.0615 208.45 43.9276 208.553 48.2583C208.613 50.7584 208.155 54.0687 207.541 57.3032C206.411 59.3283 205.752 63.2058 205.635 65.6803C205.133 67.6141 204.768 68.8649 204.768 68.8649C204.077 69.8264 203.393 70.8178 202.726 71.8185C199.762 75.4787 195.519 80.7656 193.623 83.7285C190.396 88.7711 172.444 101.881 164.578 108.538C156.712 115.194 148.039 123.867 144.61 126.691C144.145 127.074 143.792 127.336 143.522 127.508C143.65 126.853 143.767 126.183 143.861 125.489C144.476 124.429 145.317 123.067 146.223 121.544C149.047 116.801 150.459 116.001 155.098 111.467C159.737 106.934 160.544 105.109 164.982 102.285C169.419 99.4613 157.115 104.705 160.141 99.9799C163.166 95.2542 169.621 91.1917 175.268 84.9007C180.916 78.6095 165.587 92.6036 159.536 97.6461C153.485 102.689 164.175 89.3764 170.831 80.5016C177.487 71.6268 180.109 71.2234 185.152 64.9707C190.194 58.7181 174.462 73.6439 172.445 73.8455C170.427 74.0473 182.53 61.5418 188.755 52.667C194.785 44.0712 205.832 38.006 206.522 37.6325ZM210.162 121.54C210.364 120.64 206.736 121.648 200.482 122.858C194.228 124.068 191.001 121.889 185.757 123.785C180.513 125.682 176.479 125.682 171.234 128.102C165.99 130.523 151.462 136.113 148.241 137.245C147.106 137.644 145.874 138.145 144.707 138.664C147.837 135.785 151.919 131.93 154.695 130.119C159.334 127.094 163.771 125.682 168.411 123.262C173.05 120.841 163.973 123.463 160.141 125.691C156.308 127.918 171.436 114.387 175.873 109.799C180.311 105.211 187.572 102.285 193.825 99.0387C200.077 95.7927 201.489 95.6286 206.733 94.6202C211.978 93.6117 213.793 92.1998 221.176 90.9896C228.559 89.7793 222.869 91.9981 221.431 94.2168C219.993 96.4355 214.801 99.0576 210.162 101.68C205.523 104.302 224.483 100.066 230.372 99.0387C236.26 98.0115 226.903 102.486 224.997 103.929C223.09 105.371 230.937 101.276 233.94 100.873C236.943 100.47 228.719 104.504 228.179 106.872C227.804 108.514 232.508 106.468 235.434 105.056C234.575 105.809 233.559 107.26 233.94 109.799C234.568 113.983 236.193 115.149 232.96 117.39C229.727 119.631 229.122 119.019 222.668 121.544C216.213 124.068 208.952 123.06 205.523 123.665C202.094 124.27 209.961 122.441 210.162 121.54ZM75.7693 130.743C77.8733 130.856 79.968 131.029 82.0458 131.285C90.5549 133.371 106.116 137.326 105.822 138.283C105.419 139.599 90.2915 134.608 95.334 136.599C100.377 138.591 115.907 142.239 111.47 142.23C107.033 142.221 99.9986 141.231 102.81 142.23C105.621 143.23 115.313 145.692 109.559 145.671C103.805 145.65 91.7613 147.467 94.4553 147.366C97.1493 147.264 101.753 147.072 101.065 147.37C100.704 147.526 96.8159 148.16 93.1994 148.729C90.2698 148.87 87.3426 149.073 84.4202 149.373C79.2006 150.019 73.8327 150.649 69.0424 153.013C65.8191 149.75 61.8059 147.438 58.1295 144.728C57.0231 143.964 55.915 143.208 54.8062 142.454C55.8832 142.03 56.9936 141.544 58.1374 140.955C63.7353 138.074 71.2616 133.526 75.7693 130.743ZM40.2563 150.027C42.1753 145.672 46.637 145.233 52.441 143.307C56.2836 145.099 60.0502 147.058 63.6776 149.236C65.4823 150.414 67.3777 151.579 68.8285 153.15C67.9689 153.925 67.1563 154.763 66.4051 155.654C60.3031 155.938 46.1907 157.473 38.8836 158.297C38.8708 155.549 39.0047 152.868 40.2563 150.027ZM64.8867 157.665C62.8944 160.64 61.6537 164.086 61.7769 167.806C61.7728 167.906 61.7621 168.004 61.7572 168.104C57.0974 171.046 43.1639 179.976 39.2911 183.97C37.9594 182.257 36.4294 180.662 35.6584 178.927C34.0385 175.283 37.0367 173.252 38.3833 167.013C38.7075 165.51 38.8364 164.078 38.8837 162.687C45.3624 160.149 60.4156 158.203 64.8867 157.665ZM77.9358 221.399C77.3801 221.755 76.7682 222.231 76.0465 222.863C73.0802 225.457 71.4158 226.052 69.0592 224.398C68.5089 224.011 68.0542 223.656 67.6351 223.336C67.1228 220.73 66.3571 214.891 68.5473 210.279C71.1663 204.765 78.2458 192.993 80.0102 190.074C81.3085 189.272 82.4719 188.437 83.4225 187.651C87.9724 183.257 92.0651 178.167 96.5944 173.661C97.0349 175.409 97.182 178.64 95.0699 183.821C91.5891 192.358 78.0493 218.552 77.9356 221.398C77.9358 221.398 77.9358 221.398 77.9358 221.399ZM41.6028 188.444C44.8515 184.206 52.1179 175.608 61.6466 169.678C61.2746 173.669 60.3338 177.527 59.9147 181.606C59.7238 184.039 59.4706 186.791 60.2386 189.213C59.2687 191.06 57.7318 193.304 55.3854 195.111C51.522 198.086 45.0367 201.635 42.4979 202.987C42.047 202.769 41.6129 202.546 41.2173 202.281C39.159 200.905 41.1026 195.22 41.6806 190.406C41.7633 189.717 41.7218 189.068 41.6028 188.444ZM64.4409 210.21C62.2146 215.9 65.1303 219.946 62.6817 221.684C59.2895 221.743 54.0744 219.574 51.3875 217.078C49.7956 215.6 49.1036 214.201 48.574 212.435C49.8826 208.812 53.1204 200.584 56.2747 198.344C59.1234 196.323 61.9998 194.269 63.4803 193.21C67.3826 195.231 72.7274 193.86 77.2411 191.614C74.3153 195.375 66.2738 205.525 64.4409 210.21ZM83.0162 220.765C84.2787 216.353 87.7114 204.517 89.5964 199.593C91.7466 193.975 99.6128 174.033 100.884 169.746C102.12 168.725 103.397 167.761 104.74 166.887C106.627 165.708 108.659 164.593 110.669 163.49C107.948 165.505 105.876 167.233 107.436 166.792C110.865 165.82 118.11 161.334 118.118 161.661C118.126 161.988 115.706 164.336 110.865 169.011C106.024 173.687 106.05 173.722 102.81 179.654C99.5696 185.587 94.3253 200.912 92.5102 205.755C90.695 210.598 88.8356 215.815 88.0728 217.971C87.8589 218.576 87.6884 219.243 87.5943 219.849C86.1013 221.366 85.0754 221.137 83.0162 220.765ZM103.214 164.333C98.7057 166.966 94.9746 170.503 91.3086 174.106C88.7237 176.702 86.0308 179.622 83.5106 182.285C81.0778 184.98 78.3285 186.878 75.0129 188.381C72.2238 189.636 65.7671 191.915 64.1367 188.466C63.4014 186.597 63.5659 184.074 63.7105 181.951C64.0234 177.124 65.1799 172.119 64.7751 166.792C64.2493 162.336 67.3701 156.956 69.565 153.98C75.2985 151.378 84.2986 150.199 93.9735 149.779C102.077 149.897 113.997 150.188 112.258 150.875C109.655 151.903 101.788 155.224 104.007 154.37C106.226 153.516 114.597 153.409 112.429 154.37C110.26 155.332 101.007 158.145 102.81 158.251C104.612 158.357 118.731 154.323 115.706 155.534C113.223 156.527 108.27 160.648 108.045 161.835C106.429 162.646 104.818 163.472 103.214 164.333ZM180.386 219.849C180.292 219.243 180.121 218.576 179.907 217.971C179.144 215.815 177.285 210.598 175.47 205.755C173.655 200.912 168.41 185.587 165.17 179.654C161.931 173.722 161.956 173.687 157.115 169.011C152.274 164.336 149.854 161.988 149.862 161.661C149.87 161.334 157.115 165.82 160.544 166.792C162.104 167.233 160.031 165.505 157.311 163.49C159.321 164.593 161.353 165.708 163.24 166.887C164.583 167.761 165.86 168.725 167.096 169.746C168.367 174.034 176.233 193.976 178.384 199.593C180.268 204.517 183.701 216.353 184.964 220.766C182.905 221.137 181.879 221.366 180.386 219.849ZM229.597 167.013C230.944 173.253 233.942 175.283 232.322 178.928C231.551 180.662 230.021 182.257 228.689 183.97C224.82 179.98 210.91 171.063 206.236 168.112C206.218 167.704 206.195 167.297 206.192 166.886C206.123 163.476 204.921 160.376 203.094 157.665C207.565 158.203 222.618 160.149 229.097 162.688C229.144 164.078 229.273 165.51 229.597 167.013ZM227.724 150.027C228.975 152.868 229.109 155.549 229.096 158.297C221.787 157.473 207.668 155.937 201.569 155.654C200.825 154.774 200.021 153.944 199.176 153.169C202.317 149.963 206.566 147.911 210.49 145.796C212.162 144.941 213.855 144.116 215.557 143.313C221.352 145.234 225.807 145.676 227.724 150.027ZM192.211 130.743C196.718 133.526 204.245 138.074 209.843 140.955C210.988 141.545 212.099 142.031 213.177 142.455C210.106 144.546 207.045 146.648 204.032 148.833C202.259 150.124 200.471 151.386 198.953 152.986C193.159 150.317 184.094 149.099 174.346 148.66C170.859 148.11 167.262 147.52 166.915 147.37C166.227 147.072 170.831 147.264 173.525 147.366C176.219 147.468 164.175 145.65 158.421 145.671C152.668 145.692 162.359 143.23 165.17 142.23C167.981 141.231 160.947 142.221 156.51 142.23C152.073 142.239 167.603 138.591 172.646 136.599C177.689 134.608 162.561 139.599 162.158 138.283C161.864 137.326 177.425 133.371 185.934 131.285C188.012 131.029 190.107 130.856 192.211 130.743Z" fill="#E88623"/>
<path d="M261.115 0.687914C252.812 -1.19019 238.97 1.37264 238.97 1.37264C181.708 23.0246 145.38 93.8878 139.785 105.412C138.951 103.352 138.261 101.807 138.022 101.201C137.269 99.2904 141.656 100.594 140.903 92.4327C140.588 89.0144 138.831 87.2487 137.123 86.3723C137.356 85.8822 137.527 85.4991 137.527 85.4991C146.135 59.4881 152.196 44.6732 153.939 45.0561C155.682 45.4389 158.164 45.1752 159.533 42.6757C160.902 40.1763 160.174 37.9926 158.681 37.8402C156.967 37.6653 154.397 40.815 154.397 40.815C148.766 47.2917 139.972 73.699 136.61 85.0442C136.503 85.4063 136.411 85.7245 136.328 86.0208C135.229 85.6134 134.252 85.5443 133.836 85.6017C133.383 85.5394 132.33 85.6829 131.198 86.1794C131.105 85.8437 130.998 85.4705 130.872 85.0444C127.51 73.6993 118.716 47.2919 113.085 40.8151C113.085 40.8151 110.514 37.6653 108.801 37.8403C107.308 37.9928 106.58 40.1766 107.949 42.6759C109.318 45.1753 111.8 45.4392 113.543 45.0563C115.286 44.6735 121.347 59.4883 129.955 85.4993C129.955 85.4993 130.171 85.9824 130.448 86.5589C128.96 87.4203 127.528 88.9439 127.299 91.492C126.565 99.655 130.403 99.2907 129.65 101.201C129.424 101.772 128.797 103.181 128.027 105.067C121.903 92.5357 85.7224 22.8169 29.0101 1.37279C29.0101 1.37279 15.1683 -1.19005 6.86518 0.688062C-4.35537 3.22596 0.913285 27.2248 3.68813 34.6496C6.46298 42.0746 13.2546 73.6679 12.1747 77.3086C7.60514 92.7164 7.0671 111.02 19.7839 124.188C26.2217 130.854 51.6929 131.348 76.6526 129.982C60.4233 132.049 45.3983 134.581 39.8238 137.321C30.1733 142.064 23.2767 144.956 23.5841 159.47C23.7851 168.958 22.2694 168.799 21.4305 173.617C20.5916 178.436 16.9036 180.629 20.6328 185.031C24.362 189.433 27.5743 191.75 26.7161 196.269C25.8578 200.789 25.2938 209.881 28.7344 209.793C32.1748 209.706 36.1105 217.318 37.0675 220.291C38.0246 223.265 40.5685 227.098 46.5336 230.544C52.4989 233.99 59.2451 231.719 62.0942 234.345C64.9434 236.971 67.2585 239.91 75.9261 239.389C84.5938 238.868 82.1662 237.014 89.5258 231.103C102.633 220.574 102.788 195.27 110.664 184.395C118.391 173.728 125.603 162.17 127.845 152.793C121.153 155.654 114.554 158.566 108.044 161.835C106.429 162.646 104.818 163.472 103.213 164.333C98.7056 166.966 94.9744 170.503 91.3085 174.106C88.7235 176.702 86.0306 179.622 83.5104 182.285C81.0776 184.98 78.3283 186.878 75.0127 188.381C72.2236 189.636 65.767 191.915 64.1365 188.466C63.4013 186.597 63.5658 184.074 63.7104 181.951C64.0232 177.124 65.1798 172.119 64.7749 166.792C64.2492 162.336 67.37 156.956 69.5649 153.98C75.2984 151.378 84.2985 150.199 93.9733 149.779C105.484 149.28 117.942 149.858 127.015 150.415C127.242 150.936 127.465 151.369 127.668 151.659C127.781 151.821 127.882 151.967 127.986 152.117C130.497 155.744 130.572 156.34 130.465 160.659C130.407 163.026 128.855 166.247 127.304 172.714C125.754 179.18 125.051 184.451 126.401 190.819C127.018 193.726 129.886 204.765 133.836 205.255C138.315 203.261 140.384 193.09 141.103 190.203C142.016 186.539 143.526 180.074 141.975 173.607C140.425 167.14 137.87 167.008 139.171 160.659C140.121 156.023 140.013 155.79 140.521 154.226C143.114 163.332 149.976 174.263 157.315 184.395C165.191 195.27 165.346 220.574 178.454 231.103C185.813 237.014 183.386 238.868 192.053 239.389C200.721 239.91 203.036 236.971 205.885 234.345C208.734 231.719 215.481 233.99 221.446 230.544C227.411 227.098 229.955 223.265 230.912 220.291C231.869 217.318 235.805 209.706 239.245 209.793C242.686 209.881 242.122 200.789 241.263 196.269C240.405 191.75 243.617 189.433 247.347 185.031C251.076 180.629 247.388 178.436 246.549 173.617C245.71 168.799 244.194 168.957 244.395 159.47C244.703 144.956 237.806 142.064 228.156 137.321C222.581 134.581 207.556 132.049 191.327 129.982C216.287 131.348 241.758 130.854 248.196 124.188C260.912 111.02 260.374 92.7164 255.805 77.3086C254.725 73.6679 261.516 42.0746 264.291 34.6496C267.067 27.2245 272.336 3.22581 261.115 0.687914ZM210.045 47.7688C209.943 46.5711 210.446 39.8638 210.728 36.2844C220.571 33.6715 228.452 35.332 231.349 37.4095C232.116 37.9591 232.544 38.5368 232.555 39.072C232.561 39.3522 232.455 39.6975 232.273 40.0882C230.061 44.8224 214.936 57.1238 208.81 63.8027C208.304 64.3545 207.792 64.9531 207.278 65.5808C207.967 61.6953 210.164 49.1593 210.045 47.7688ZM209.845 65.5161C217.086 59.0318 235.629 44.7767 235.629 44.7767C240.525 40.9807 241.968 52.799 242.052 54.6852C242.136 56.5717 242.813 57.8995 244.426 64.4263C246.039 70.9531 248.237 72.1217 250.041 75.2613C251.845 78.4008 247.398 81.996 240.945 81.0355C234.491 80.0749 198.353 83.6803 198.353 83.6803C198.353 83.6803 202.604 72.0005 209.845 65.5161ZM193.165 45.1633C197.737 41.6467 202.258 39.2334 206.522 37.6325C206.534 37.628 206.546 37.6238 206.558 37.6192C207.208 40.0615 208.45 43.9276 208.553 48.2582C208.613 50.7584 208.156 54.0687 207.541 57.3032C206.945 60.437 206.203 63.4954 205.635 65.6803C205.133 67.6141 204.769 68.8649 204.769 68.8649C204.077 69.8264 203.393 70.8178 202.726 71.8185C198.235 78.5568 194.526 85.6304 194.526 85.6304C194.526 85.6304 157.303 118.212 142.217 133.401C142.552 131.626 143.1 129.668 143.522 127.508C143.65 126.853 143.767 126.182 143.861 125.489C144.025 124.286 144.127 123.027 144.111 121.702C144.066 118.024 142.726 113.364 141.306 109.389C149.797 96.7298 176.437 58.0309 193.165 45.1633ZM204.27 181.951C204.412 184.074 204.577 186.593 203.844 188.466C202.197 191.91 195.788 189.648 192.967 188.381C189.653 186.88 186.901 184.98 184.469 182.285C181.952 179.631 179.253 176.698 176.672 174.106C173.006 170.504 169.274 166.966 164.766 164.333C163.162 163.472 161.551 162.646 159.935 161.835C153.674 158.691 147.331 155.876 140.9 153.12C141.042 152.718 141.212 152.242 141.421 151.66C141.58 151.215 141.729 150.773 141.871 150.332C145.328 150.118 148.791 149.951 152.253 149.828C159.208 149.607 166.189 149.516 173.148 149.792C176.586 149.929 180.019 150.148 183.439 150.499C188.51 151.095 193.785 151.797 198.415 153.981C200.615 156.948 203.729 162.343 203.205 166.793C202.8 172.12 203.957 177.124 204.27 181.951ZM226.3 190.406C226.878 195.22 228.821 200.905 226.763 202.281C226.367 202.546 225.933 202.769 225.482 202.987C222.943 201.635 216.458 198.086 212.595 195.111C210.248 193.304 208.712 191.06 207.742 189.213C208.51 186.791 208.258 184.04 208.065 181.606C207.655 177.535 206.703 173.665 206.343 169.684C215.867 175.614 223.13 184.207 226.377 188.444C226.258 189.068 226.217 189.717 226.3 190.406ZM172.91 183.821C170.798 178.641 170.945 175.409 171.386 173.661C175.915 178.168 180.008 183.258 184.558 187.651C185.506 188.436 186.67 189.272 187.97 190.075C189.735 192.995 196.814 204.765 199.432 210.279C201.622 214.891 200.857 220.73 200.345 223.336C199.926 223.656 199.471 224.011 198.921 224.397C196.564 226.052 194.9 225.457 191.933 222.862C191.212 222.231 190.6 221.755 190.044 221.399V221.398C189.931 218.552 176.391 192.358 172.91 183.821ZM211.705 198.345C214.86 200.584 218.097 208.812 219.406 212.436C218.877 214.202 218.184 215.6 216.593 217.078C213.906 219.574 208.69 221.743 205.298 221.684C202.85 219.946 205.765 215.9 203.539 210.21C201.706 205.525 193.663 195.373 190.738 191.614C195.253 193.858 200.605 195.232 204.501 193.212C205.983 194.271 208.858 196.324 211.705 198.345ZM126.474 109.09C125.014 113.129 123.607 117.931 123.561 121.702C123.548 122.773 123.606 123.793 123.701 124.778C123.782 125.615 123.892 126.423 124.023 127.203C124.363 129.243 124.819 131.095 125.162 132.798C109.713 117.368 73.454 85.6304 73.454 85.6304C73.454 85.6304 69.7447 78.5565 65.2539 71.8182C64.5871 70.8177 63.9034 69.8262 63.2117 68.8649H63.2118C63.2118 68.8649 62.8471 67.614 62.3449 65.6804C61.7774 63.4954 61.0352 60.437 60.4395 57.3029C59.8249 54.0684 59.3677 50.7583 59.4273 48.2581C59.5303 43.9276 60.7721 40.0614 61.4221 37.6191C61.4342 37.6237 61.4461 37.6279 61.4583 37.6323C65.722 39.2332 70.2435 41.6466 74.8151 45.1632C91.413 57.9312 117.771 96.1315 126.474 109.09ZM36.6305 37.4095C39.5273 35.3321 47.4095 33.6715 57.2516 36.2844C57.5345 39.8638 58.0373 46.5709 57.9352 47.7688C57.8164 49.1594 60.0128 61.6954 60.7025 65.5808C60.1883 64.9531 59.6762 64.3545 59.1701 63.8027C53.0439 57.124 37.9196 44.8229 35.7073 40.0886C35.5248 39.6978 35.4193 39.3521 35.425 39.0721C35.4362 38.5366 35.8641 37.9591 36.6305 37.4095ZM27.0353 81.0355C20.5816 81.996 16.135 78.4008 17.9389 75.2613C19.7429 72.1217 21.9407 70.9531 23.5539 64.4263C25.1672 57.8995 25.8445 56.5717 25.9281 54.6852C26.0118 52.7988 27.4547 40.9807 32.3509 44.7767C32.3509 44.7767 50.894 59.0318 58.1349 65.5161C65.3759 72.0005 69.6265 83.6803 69.6265 83.6803C69.6265 83.6803 33.489 80.0749 27.0353 81.0355ZM55.0854 126.279C44.678 126.706 33.9414 123.296 30.6572 120.246C27.3731 117.195 31.8765 111.748 31.4991 104.371C31.1216 96.9936 27.2644 95.1588 33.7625 89.9592C40.2606 84.7596 66.0948 86.2851 72.7403 88.7129C77.9303 90.6088 111.248 123.2 125.596 137.387C125.563 137.791 125.512 138.188 125.419 138.575C125.147 139.706 125.084 141.005 125.158 142.341C112.122 134.83 94.3264 130.545 79.6577 128.316C68.494 126.619 59.1431 126.112 55.0854 126.279ZM41.6028 188.444C44.8515 184.206 52.1179 175.608 61.6466 169.678C61.2746 173.669 60.3338 177.527 59.9147 181.606C59.7238 184.039 59.4706 186.791 60.2386 189.213C59.2687 191.06 57.7318 193.304 55.3854 195.111C51.522 198.086 45.0367 201.635 42.4979 202.987C42.047 202.769 41.6129 202.546 41.2173 202.281C39.159 200.905 41.1026 195.22 41.6806 190.406C41.7633 189.717 41.7218 189.068 41.6028 188.444ZM104.74 166.887C106.627 165.708 108.659 164.593 110.669 163.49C110.842 163.395 111.015 163.299 111.188 163.205C114.54 161.372 122.044 157.406 127.315 154.627C122.461 159.986 114.408 168.789 109.762 173.392C102.794 180.295 92.4665 212.968 89.5955 217.257C88.8027 218.441 88.1653 219.269 87.5943 219.849C86.1013 221.366 85.0754 221.137 83.0162 220.765C84.2787 216.352 87.7114 204.517 89.5964 199.593C91.7466 193.975 99.6128 174.033 100.884 169.746C102.12 168.725 103.397 167.761 104.74 166.887ZM83.4225 187.651C87.9724 183.257 92.0651 178.167 96.5944 173.661C97.0349 175.409 97.182 178.64 95.0699 183.821C91.5891 192.358 78.0493 218.552 77.9356 221.398C77.9356 221.398 77.9356 221.398 77.9356 221.399C77.3799 221.755 76.7681 222.231 76.0464 222.862C73.08 225.457 71.4157 226.051 69.0591 224.397C68.5087 224.011 68.0541 223.655 67.635 223.336C67.1226 220.73 66.357 214.891 68.5472 210.279C71.1661 204.764 78.2456 192.993 80.01 190.074C81.3085 189.272 82.4719 188.437 83.4225 187.651ZM77.2411 191.615C74.3153 195.375 66.2738 205.525 64.4409 210.21C62.2146 215.9 65.1303 219.946 62.6817 221.684C59.2895 221.743 54.0744 219.574 51.3875 217.078C49.7956 215.6 49.1036 214.201 48.574 212.435C49.8826 208.812 53.1204 200.584 56.2747 198.344C59.1234 196.323 61.9998 194.269 63.4803 193.21C67.3826 195.231 72.7274 193.86 77.2411 191.615ZM61.7768 167.806C61.7726 167.906 61.7619 168.004 61.757 168.104C57.0972 171.046 43.1637 179.976 39.291 183.97C37.9592 182.257 36.4293 180.662 35.6583 178.927C34.0384 175.283 37.0365 173.252 38.3831 167.013C38.7074 165.51 38.8362 164.078 38.8836 162.687C45.3625 160.149 60.4158 158.202 64.8867 157.664C62.8943 160.64 61.6535 164.086 61.7768 167.806ZM66.4051 155.654C60.3031 155.938 46.1907 157.473 38.8836 158.297C38.8708 155.549 39.0046 152.868 40.2562 150.027C42.1751 145.672 46.6368 145.233 52.4409 143.307C56.2835 145.099 60.0501 147.058 63.6774 149.236C65.4822 150.414 67.3775 151.579 68.8284 153.15C67.9689 153.925 67.1563 154.763 66.4051 155.654ZM115.767 148.697C108.248 148.458 100.715 148.367 93.1992 148.729C90.2697 148.87 87.3425 149.073 84.4201 149.373C79.2004 150.019 73.8326 150.65 69.0423 153.013C65.8189 149.75 61.8057 147.438 58.1294 144.728C57.023 143.964 55.9148 143.208 54.8061 142.454C55.8831 142.03 56.9935 141.544 58.1372 140.955C63.7352 138.074 71.2614 133.526 75.7692 130.743C77.8731 130.856 79.9678 131.029 82.0456 131.285C84.0217 131.528 85.9839 131.837 87.922 132.24C106.328 136.063 119.021 142.364 125.743 146.377C125.977 147.414 126.257 148.384 126.552 149.224C122.958 148.998 119.365 148.824 115.767 148.697ZM180.386 219.849C179.815 219.269 179.178 218.441 178.385 217.257C175.514 212.968 165.186 180.295 158.218 173.392C153.571 168.789 145.517 159.984 140.663 154.626C145.922 157.398 153.462 161.387 156.792 163.205C156.964 163.3 157.138 163.395 157.311 163.49C159.321 164.593 161.353 165.708 163.24 166.887C164.583 167.761 165.86 168.725 167.096 169.746C168.367 174.034 176.233 193.976 178.384 199.593C180.268 204.518 183.701 216.353 184.964 220.766C182.905 221.137 181.879 221.366 180.386 219.849ZM229.597 167.013C230.944 173.253 233.942 175.283 232.322 178.928C231.551 180.662 230.021 182.257 228.689 183.97C224.82 179.98 210.91 171.063 206.236 168.112C206.218 167.704 206.195 167.297 206.192 166.886C206.123 163.476 204.921 160.376 203.094 157.665C207.565 158.203 222.618 160.149 229.097 162.688C229.144 164.078 229.273 165.51 229.597 167.013ZM227.724 150.027C228.975 152.868 229.109 155.549 229.096 158.297C221.787 157.473 207.668 155.937 201.569 155.654C200.825 154.774 200.021 153.944 199.176 153.169C202.317 149.963 206.566 147.911 210.49 145.796C212.162 144.941 213.855 144.116 215.557 143.313C221.352 145.234 225.807 145.676 227.724 150.027ZM192.211 130.743C196.718 133.526 204.245 138.074 209.843 140.955C210.988 141.545 212.099 142.031 213.177 142.455C210.106 144.546 207.045 146.648 204.032 148.833C202.259 150.124 200.471 151.386 198.953 152.986C193.159 150.317 184.094 149.099 174.346 148.66C163.245 148.16 151.271 148.669 142.218 149.206C142.534 148.111 142.785 147.027 142.95 145.955C149.839 141.933 162.288 135.931 180.058 132.24C181.996 131.837 183.958 131.528 185.934 131.285C188.012 131.029 190.107 130.856 192.211 130.743ZM212.895 126.279C208.837 126.112 199.486 126.619 188.323 128.316H188.322C173.766 130.528 156.13 134.766 143.122 142.17C143.03 140.951 142.784 139.751 142.332 138.575C142.222 138.287 142.141 137.992 142.077 137.691C156.247 123.674 190.012 90.6226 195.24 88.7127C201.885 86.285 227.72 84.7595 234.218 89.9591C240.716 95.1587 236.858 96.9934 236.481 104.371C236.104 111.748 240.607 117.195 237.323 120.246C234.039 123.296 223.302 126.706 212.895 126.279Z" fill="#17140D"/>
<path d="M189.59 42.1765C192.413 40.1595 196.649 35.5205 200.885 33.1C205.12 30.6797 208.348 29.4694 211.171 26.2422C213.995 23.0149 210.163 20.5945 210.163 20.5945C210.163 20.5945 209.961 19.5861 206.331 22.8132C202.7 26.0404 197.052 30.6795 194.43 34.3102C191.808 37.9409 186.766 44.1936 189.59 42.1765Z" fill="#F2EADD"/>
<path d="M209.154 31.5073C211.171 31.6886 213.447 27.2512 217.957 24.6292C222.466 22.0071 226.097 21.4019 228.517 17.7713C230.938 14.1407 228.483 9.48879 226.904 11.1152C226.904 11.1152 207.137 31.3259 209.154 31.5073Z" fill="#F2EADD"/>
<path d="M219.271 29.0713C220.247 29.4747 222.869 26.6508 226.096 24.8355C229.323 23.0202 232.752 20.5997 235.172 18.5828C237.593 16.5659 238.803 16.7675 239.61 14.7506C240.416 12.7335 238.48 8.98502 237.593 9.90982C237.089 10.4344 218.296 28.6679 219.271 29.0713Z" fill="#F2EADD"/>
<path d="M226.3 30.2771C228.317 29.8737 230.737 27.655 234.368 26.2431C237.999 24.8312 243.444 24.4278 246.268 22.6125C249.092 20.7972 250.302 21.2005 251.714 18.3767C253.126 15.5529 250.819 12.416 249.899 12.9309C249.899 12.9309 235.982 20.5954 231.141 25.4363C226.3 30.2771 224.283 30.6805 226.3 30.2771Z" fill="#F2EADD"/>
<path d="M234.368 33.2975C236.788 33.4993 239.41 31.1136 242.839 30.3904C246.268 29.667 249.379 29.8687 252.16 28.2551C254.941 26.6414 254.739 27.8638 256.353 25.5382C257.967 23.2126 260.387 16.9599 257.16 17.7667C257.16 17.7667 249.697 22.8092 245.058 25.6329C240.419 28.4567 231.947 33.0957 234.368 33.2975Z" fill="#F2EADD"/>
<path d="M237.795 38.9506C239.812 39.5557 242.792 38.3454 246.345 37.942C249.897 37.5387 252.116 37.1353 254.94 36.1267C257.763 35.1182 257.764 34.6795 259.377 33.6888C260.991 32.6979 262.078 27.5611 260.386 28.2605C260.386 28.2605 235.778 38.3456 237.795 38.9506Z" fill="#F2EADD"/>
<path d="M258.749 37.9375C258.749 37.9375 239.812 44.997 242.837 44.997C245.863 44.997 251.712 43.9884 254.939 43.3833C258.166 42.7783 262.558 39.7528 258.749 37.9375Z" fill="#F2EADD"/>
<path d="M254.334 47.4219C254.334 47.4219 243.644 48.2286 244.249 50.6491C244.855 53.0696 245.616 54.6833 246.344 54.8849C247.073 55.0866 252.317 53.8765 254.334 53.8765C256.351 53.8765 257.562 52.2855 256.957 51.1647C256.351 50.0441 254.334 47.4219 254.334 47.4219Z" fill="#F2EADD"/>
<path d="M253.125 63.5529C254.537 62.3426 254.897 57.147 253.125 57.3002C252.489 57.3551 246.826 57.3002 246.345 59.3171C245.863 61.334 245.213 62.3426 246.345 62.7461C247.477 63.1494 251.713 64.763 253.125 63.5529Z" fill="#F2EADD"/>
<path d="M242.605 92.8059C245.461 92.8059 247.68 94.8228 248.487 91.9991C249.293 89.1753 245.214 84.9639 244.226 84.9395C243.444 84.9204 240.62 84.5363 241.024 86.9566C241.427 89.3769 239.75 92.8059 242.605 92.8059Z" fill="#F2EADD"/>
<path d="M249.458 102.689C249.292 101.277 248.053 95.9154 246.345 96.0332C245.824 96.0691 241.571 95.8315 240.893 97.6468C240.216 99.4621 239.151 100.269 240.893 101.681C242.636 103.093 243.755 103.294 245.717 103.698C247.679 104.101 249.623 104.101 249.458 102.689Z" fill="#F2EADD"/>
<path d="M242.642 115.394C244.655 115.596 246.672 117.008 247.479 114.587C248.285 112.167 246.562 107.188 245.718 107.125C245.718 107.125 241.088 106.721 239.947 107.125C238.806 107.528 240.564 110.352 240.895 111.965C241.226 113.579 240.63 115.192 242.642 115.394Z" fill="#F2EADD"/>
<path d="M240.894 118.018C240.216 119.43 239.685 121.245 238.841 122.456C237.998 123.666 234.334 124.472 237.678 124.876C241.023 125.279 240.973 126.489 242.511 124.876C244.049 123.262 244.226 118.018 244.226 118.018C244.226 118.018 241.572 116.606 240.894 118.018Z" fill="#F2EADD"/>
<path d="M252.158 84.9113C252.158 84.9113 248.634 84.7429 249.467 86.3564C250.3 87.97 248.173 90.9956 250.749 91.6006C253.326 92.2057 255.141 93.4159 255.746 91.6006C256.351 89.7853 253.461 84.8525 252.158 84.9113Z" fill="#F2EADD"/>
<path d="M252.585 96.0265C252.585 96.0265 250.029 96.4318 250.669 98.2471C251.31 100.062 250.589 102.281 252.159 102.281C253.73 102.281 255.71 101.099 255.829 99.9759C255.949 98.8521 254.533 94.7706 252.585 96.0265Z" fill="#F2EADD"/>
<path d="M252.16 106.949C251.284 106.88 249.039 106.523 249.469 108.338C249.899 110.154 247.924 112.171 250.021 112.574C252.117 112.978 254.109 112.583 254.324 111.469C254.538 110.355 253.695 107.069 252.16 106.949Z" fill="#F2EADD"/>
<path d="M249.468 115.992C249.468 115.992 246.422 116.61 246.344 118.224C246.267 119.837 243.351 121.639 245.716 121.545C248.082 121.451 252.092 116.349 249.468 115.992Z" fill="#F2EADD"/>
<path d="M233.561 147.06C235.376 145.85 237.82 146.359 236.296 144.289C234.771 142.22 230.737 141.211 230.737 141.211C230.737 141.211 228.518 141.614 229.325 143.631C230.132 145.649 231.746 148.271 233.561 147.06Z" fill="#F2EADD"/>
<path d="M234.971 150.291C235.576 153.115 234.876 154.728 237.243 154.325C239.61 153.922 240.562 153.72 240.893 152.106C241.224 150.493 240.863 147.245 239.564 147.371C239.564 147.371 234.366 147.467 234.971 150.291Z" fill="#F2EADD"/>
<path d="M236.773 158.765C237.19 161.589 236.819 163.606 238.82 163.808C240.821 164.01 241.829 163.404 242.233 161.589C242.636 159.774 240.893 156.547 240.893 156.547C240.893 156.547 236.356 155.942 236.773 158.765Z" fill="#F2EADD"/>
<path d="M237.967 168.843C237.998 171.869 238.063 173.483 239.947 173.684C241.831 173.886 243.205 173.079 243.627 172.272C244.049 171.466 243.29 167.215 242.295 167.028C242.295 167.028 237.936 165.818 237.967 168.843Z" fill="#F2EADD"/>
<path d="M239.518 177.922C238.6 180.141 238.059 182.36 239.944 182.561C241.827 182.763 244.326 183.771 244.791 181.351C245.256 178.931 244.606 176.645 243.624 176.51C243.624 176.51 240.436 175.703 239.518 177.922Z" fill="#F2EADD"/>
<path d="M236.295 186.593C234.77 188.408 231.555 190.627 232.961 191.635C234.367 192.644 236.926 193.854 237.966 192.846C239.006 191.837 240.26 187.601 240.26 187.601C240.26 187.601 237.82 184.778 236.295 186.593Z" fill="#F2EADD"/>
<path d="M237.965 196.678C237.965 196.678 235.679 194.661 234.922 196.678C234.164 198.695 233.864 200.712 234.922 201.72C235.979 202.729 238.356 203.132 238.68 201.72C239.005 200.308 238.927 197.314 237.965 196.678Z" fill="#F2EADD"/>
<path d="M232.613 204.953C230.736 206.97 227.559 209.995 229.148 210.802C230.736 211.609 231.958 211.609 232.961 210.802C233.963 209.995 236.774 205.76 236.774 205.76C236.774 205.76 234.49 202.936 232.613 204.953Z" fill="#F2EADD"/>
<path d="M225.894 214.837C224.079 217.459 220.246 220.888 222.465 221.493C224.684 222.098 225.894 222.905 226.903 221.493C227.911 220.081 229.146 214.837 229.146 214.837C229.146 214.837 227.709 212.215 225.894 214.837Z" fill="#F2EADD"/>
<path d="M217.223 225.73C215.004 226.536 210.97 229.36 213.189 229.562C215.407 229.764 222.534 228.957 221.795 225.73C221.645 225.074 219.441 224.923 217.223 225.73Z" fill="#F2EADD"/>
<path d="M201.691 229.581C201.287 231.627 201.085 233.182 201.691 234.392C202.296 235.603 203.909 232.981 206.733 231.548C209.557 230.115 206.733 227.375 206.733 227.375C206.733 227.375 202.094 227.535 201.691 229.581Z" fill="#F2EADD"/>
<path d="M190.396 231.552C188.783 232.741 189.791 234.598 189.59 236.414C189.388 238.229 193.825 237.019 196.447 236.414C199.069 235.809 197.254 231.552 197.254 231.552C197.254 231.552 192.01 230.363 190.396 231.552Z" fill="#F2EADD"/>
<path d="M201.309 226.127C198.92 224.396 195.659 226.484 195.841 227.379C195.924 227.785 196.057 231.026 197.865 229.585C199.674 228.144 203.697 227.858 201.309 226.127Z" fill="#F2EADD"/>
<path d="M214.196 224.316C214.398 222.299 212.119 222.254 210.939 222.277C209.759 222.299 207.989 223.307 207.989 223.307C207.54 223.912 207.339 228.031 209.154 227.383C210.969 226.736 213.995 226.333 214.196 224.316Z" fill="#F2EADD"/>
<path d="M221.714 211.409C220.923 212.693 221.923 214.927 223.103 213.672C224.282 212.417 226.097 211.953 226.299 210.471C226.501 208.988 224.491 206.898 224.491 206.898C224.491 206.898 222.505 210.124 221.714 211.409Z" fill="#F2EADD"/>
<path d="M217.195 220.281C217.423 221.693 217.585 223.659 218.513 222.273C219.44 220.886 222.13 217.054 221.794 216.449C221.457 215.843 219.844 216.449 219.844 216.449C219.844 216.449 216.966 218.869 217.195 220.281Z" fill="#F2EADD"/>
<path d="M228.715 202.641C230.13 203.139 232.673 203.744 232.612 201.727C232.55 199.71 232.433 194.974 231.138 195.788C231.138 195.788 229.171 196.483 229.146 198.097C229.121 199.71 227.301 202.143 228.715 202.641Z" fill="#F2EADD"/>
<path d="M236.294 182.947C236.585 180.954 237.523 177.73 234.922 178.331C234.922 178.331 232.271 180.348 232.612 181.962C232.954 183.576 236.003 184.94 236.294 182.947Z" fill="#F2EADD"/>
<path d="M234.922 165.423C233.559 166.028 232.959 167.843 232.959 167.843C232.959 167.843 232.897 172.885 234.236 172.684C235.576 172.482 236.608 171.07 236.293 169.456C235.979 167.843 236.285 164.817 234.922 165.423Z" fill="#F2EADD"/>
<path d="M231.342 161.589C232.552 162.194 234.513 162.564 234.239 161.225C233.964 159.887 233.573 154.047 232.962 154.389C232.351 154.732 230.374 155.708 230.398 157.555C230.398 157.555 230.132 160.984 231.342 161.589Z" fill="#F2EADD"/>
<path d="M219.501 141.218C221.456 142.025 223.871 143.033 223.871 141.218C223.871 139.402 223.871 139.402 223.871 139.402C223.871 139.402 220.117 135.718 219.501 137.99C218.885 140.263 217.546 140.411 219.501 141.218Z" fill="#F2EADD"/>
<path d="M228.717 147.366C230.132 145.29 226.314 143.227 226.314 143.227C226.314 143.227 224.039 143.832 225.472 145.243C226.905 146.656 227.303 149.442 228.717 147.366Z" fill="#F2EADD"/>
<path d="M212.542 138.186C213.994 137.581 215.457 135.622 214.209 135.362C214.209 135.362 210.162 134.354 210.162 135.362C210.162 136.371 211.09 138.791 212.542 138.186Z" fill="#F2EADD"/>
<path d="M67.0962 33.0999C71.3318 35.5203 75.5676 40.1593 78.3915 42.1764C81.2153 44.1933 76.1728 37.9407 73.5507 34.3102C70.9286 30.6796 65.2809 26.0404 61.6503 22.8132C58.0197 19.586 57.8181 20.5945 57.8181 20.5945C57.8181 20.5945 53.9857 23.015 56.8095 26.2422C59.6334 29.4694 62.8606 30.6796 67.0962 33.0999Z" fill="#F2EADD"/>
<path d="M50.0233 24.6292C54.533 27.2512 56.8089 31.6886 58.8259 31.5073C60.8428 31.3259 41.0762 11.1152 41.0762 11.1152C39.4971 9.48879 37.0422 14.1407 39.4627 17.7713C41.883 21.4019 45.5136 22.0071 50.0233 24.6292Z" fill="#F2EADD"/>
<path d="M32.8074 18.583C35.2279 20.5999 38.6567 23.0204 41.8839 24.8357C45.1112 26.651 47.7332 29.4748 48.7087 29.0714C49.6842 28.668 30.8907 10.4345 30.3871 9.90981C29.4994 8.98501 27.5632 12.7337 28.3702 14.7506C29.1768 16.7677 30.3871 16.5659 32.8074 18.583Z" fill="#F2EADD"/>
<path d="M21.7126 22.6125C24.5364 24.4278 29.9824 24.8312 33.613 26.2431C37.2434 27.655 39.6639 29.8737 41.681 30.2771C43.6979 30.6805 41.681 30.2771 36.8402 25.4363C31.9994 20.5955 18.082 12.9309 18.082 12.9309C17.1621 12.416 14.8547 15.553 16.2667 18.3767C17.6784 21.2005 18.8889 20.797 21.7126 22.6125Z" fill="#F2EADD"/>
<path d="M15.8225 28.2551C18.6034 29.8687 21.7148 29.667 25.1437 30.3904C28.5727 31.1137 31.1948 33.4993 33.6152 33.2975C36.0355 33.0957 27.5642 28.4567 22.9251 25.6329C18.286 22.809 10.8232 17.7667 10.8232 17.7667C7.59593 16.9599 10.0164 23.2126 11.6299 25.5382C13.2433 27.8638 13.0417 26.6416 15.8225 28.2551Z" fill="#F2EADD"/>
<path d="M8.60291 33.6888C10.2165 34.6795 10.2165 35.1183 13.0403 36.1267C15.8641 37.1353 18.0828 37.5387 21.6354 37.942C25.188 38.3454 28.1679 39.5556 30.1848 38.9506C32.2017 38.3454 7.59437 28.2605 7.59437 28.2605C5.90215 27.5611 6.98937 32.698 8.60291 33.6888Z" fill="#F2EADD"/>
<path d="M25.1423 44.997C28.1679 44.997 9.23081 37.9375 9.23081 37.9375C5.42144 39.7528 9.8131 42.7783 13.0402 43.3833C16.2676 43.9884 22.1169 44.997 25.1423 44.997Z" fill="#F2EADD"/>
<path d="M21.6356 54.8849C22.3646 54.6833 23.1256 53.0696 23.7306 50.6491C24.3357 48.2288 13.6457 47.4219 13.6457 47.4219C13.6457 47.4219 11.6286 50.0441 11.0235 51.1647C10.4184 52.2855 11.6286 53.8765 13.6457 53.8765C15.6626 53.8765 20.9068 55.0865 21.6356 54.8849Z" fill="#F2EADD"/>
<path d="M21.6358 59.3171C21.1544 57.3002 15.4914 57.3551 14.856 57.3002C13.0839 57.1471 13.4441 62.3427 14.856 63.5529C16.2679 64.763 20.5037 63.1493 21.6358 62.7461C22.7681 62.3426 22.1172 61.3342 21.6358 59.3171Z" fill="#F2EADD"/>
<path d="M23.756 84.9395C22.7683 84.9639 18.6888 89.1753 19.4955 91.9991C20.3025 94.823 22.521 92.8059 25.3769 92.8059C28.2327 92.8059 26.5552 89.3769 26.9585 86.9566C27.3618 84.5363 24.5378 84.9204 23.756 84.9395Z" fill="#F2EADD"/>
<path d="M22.2628 103.698C24.2247 103.294 25.3434 103.093 27.0861 101.681C28.8289 100.269 27.7637 99.4621 27.0861 97.6468C26.4085 95.8315 22.1553 96.0691 21.6347 96.0332C19.9266 95.9156 18.6871 101.277 18.5216 102.689C18.3559 104.101 20.3008 104.101 22.2628 103.698Z" fill="#F2EADD"/>
<path d="M25.3388 115.394C27.3513 115.193 26.7554 113.579 27.0863 111.965C27.4172 110.352 29.1758 107.528 28.0344 107.125C26.8928 106.721 22.2629 107.125 22.2629 107.125C21.419 107.188 19.6958 112.167 20.5027 114.587C21.3093 117.008 23.3264 115.596 25.3388 115.394Z" fill="#F2EADD"/>
<path d="M29.1403 122.456C28.2969 121.245 27.7651 119.43 27.0875 118.018C26.4099 116.606 23.7559 118.018 23.7559 118.018C23.7559 118.018 23.9328 123.262 25.4705 124.876C27.0082 126.49 26.9584 125.279 30.3031 124.876C33.6478 124.472 29.9839 123.666 29.1403 122.456Z" fill="#F2EADD"/>
<path d="M17.2315 91.6006C19.808 90.9956 17.6804 87.97 18.5134 86.3564C19.3464 84.7429 15.8221 84.9113 15.8221 84.9113C14.5196 84.8525 11.6294 89.7854 12.2346 91.6006C12.8396 93.4161 14.6549 92.2057 17.2315 91.6006Z" fill="#F2EADD"/>
<path d="M17.3113 98.2471C17.9515 96.4318 15.3957 96.0265 15.3957 96.0265C13.4473 94.7706 12.0319 98.8521 12.1516 99.9759C12.271 101.099 14.2508 102.281 15.8214 102.281C17.3919 102.281 16.6711 100.062 17.3113 98.2471Z" fill="#F2EADD"/>
<path d="M18.5125 108.338C18.942 106.523 16.6973 106.88 15.8212 106.949C14.2862 107.069 13.4438 110.355 13.6579 111.47C13.872 112.584 15.8643 112.978 17.9606 112.574C20.0572 112.171 18.083 110.154 18.5125 108.338Z" fill="#F2EADD"/>
<path d="M18.5129 115.992C15.8887 116.349 19.8985 121.451 22.2639 121.545C24.6293 121.639 21.7138 119.837 21.6358 118.224C21.558 116.61 18.5129 115.992 18.5129 115.992Z" fill="#F2EADD"/>
<path d="M34.4188 147.06C36.2341 148.271 37.8478 145.648 38.6544 143.631C39.4613 141.614 37.2425 141.211 37.2425 141.211C37.2425 141.211 33.2085 142.219 31.6839 144.289C30.1596 146.359 32.6036 145.85 34.4188 147.06Z" fill="#F2EADD"/>
<path d="M30.736 154.325C33.103 154.728 32.403 153.115 33.0082 150.291C33.6133 147.467 28.4149 147.371 28.4149 147.371C27.1162 147.245 26.7553 150.493 27.0863 152.106C27.4172 153.72 28.369 153.922 30.736 154.325Z" fill="#F2EADD"/>
<path d="M29.1609 163.808C31.1619 163.606 30.7903 161.589 31.2074 158.765C31.6244 155.942 27.0874 156.547 27.0874 156.547C27.0874 156.547 25.3447 159.774 25.7481 161.589C26.1513 163.404 27.1599 164.01 29.1609 163.808Z" fill="#F2EADD"/>
<path d="M28.036 173.684C29.92 173.482 29.9841 171.869 30.0155 168.843C30.0468 165.818 25.6879 167.028 25.6879 167.028C24.6929 167.215 23.9332 171.465 24.3556 172.272C24.778 173.079 26.1519 173.886 28.036 173.684Z" fill="#F2EADD"/>
<path d="M28.4601 177.922C27.5426 175.703 24.3542 176.51 24.3542 176.51C23.3718 176.644 22.7216 178.931 23.1867 181.351C23.6518 183.771 26.1506 182.763 28.0346 182.561C29.9186 182.36 29.3778 180.141 28.4601 177.922Z" fill="#F2EADD"/>
<path d="M35.0201 191.635C36.4262 190.627 33.2106 188.408 31.686 186.593C30.1615 184.778 27.7207 187.602 27.7207 187.602C27.7207 187.602 28.9748 191.837 30.0148 192.846C31.055 193.854 33.6141 192.644 35.0201 191.635Z" fill="#F2EADD"/>
<path d="M33.0581 196.678C32.3003 194.661 30.0149 196.678 30.0149 196.678C29.0532 197.314 28.9751 200.308 29.2992 201.72C29.6231 203.132 32.0005 202.729 33.0581 201.72C34.1157 200.712 33.816 198.695 33.0581 196.678Z" fill="#F2EADD"/>
<path d="M35.3657 204.953C33.4887 202.936 31.2051 205.76 31.2051 205.76C31.2051 205.76 34.0154 209.995 35.0182 210.802C36.0209 211.609 37.2426 211.609 38.8311 210.802C40.4197 209.995 37.2426 206.97 35.3657 204.953Z" fill="#F2EADD"/>
<path d="M42.0844 214.837C40.2692 212.215 38.832 214.837 38.832 214.837C38.832 214.837 40.0674 220.081 41.0758 221.493C42.0844 222.905 43.2945 222.098 45.5132 221.493C47.7319 220.888 43.8995 217.459 42.0844 214.837Z" fill="#F2EADD"/>
<path d="M50.7585 225.729C48.5398 224.923 46.3367 225.074 46.1864 225.729C45.4466 228.957 52.5738 229.763 54.7926 229.562C57.011 229.36 52.9771 226.536 50.7585 225.729Z" fill="#F2EADD"/>
<path d="M61.2453 227.375C61.2453 227.375 58.4214 230.115 61.2453 231.548C64.0691 232.98 65.6827 235.603 66.2878 234.392C66.893 233.182 66.6912 231.626 66.2878 229.581C65.8843 227.535 61.2453 227.375 61.2453 227.375Z" fill="#F2EADD"/>
<path d="M77.5851 231.552C75.9716 230.363 70.7273 231.552 70.7273 231.552C70.7273 231.552 68.912 235.809 71.534 236.414C74.1563 237.019 78.5936 238.229 78.3919 236.414C78.1901 234.599 79.1988 232.741 77.5851 231.552Z" fill="#F2EADD"/>
<path d="M72.1382 227.379C72.3202 226.484 69.0592 224.396 66.6708 226.127C64.2825 227.858 68.3058 228.144 70.1142 229.585C71.9226 231.026 72.0557 227.785 72.1382 227.379Z" fill="#F2EADD"/>
<path d="M59.9919 223.307C59.9919 223.307 58.2213 222.299 57.0415 222.277C55.8615 222.254 53.5824 222.299 53.784 224.316C53.9856 226.333 57.0113 226.736 58.8266 227.383C60.6419 228.031 60.4401 223.912 59.9919 223.307Z" fill="#F2EADD"/>
<path d="M44.8785 213.672C46.0578 214.927 47.0577 212.693 46.267 211.409C45.4763 210.124 43.4901 206.898 43.4901 206.898C43.4901 206.898 41.4806 208.988 41.6822 210.471C41.884 211.953 43.6993 212.417 44.8785 213.672Z" fill="#F2EADD"/>
<path d="M50.7844 220.281C51.013 218.869 48.1353 216.449 48.1353 216.449C48.1353 216.449 46.5216 215.843 46.1852 216.449C45.8488 217.054 48.5385 220.886 49.4662 222.273C50.3941 223.659 50.5558 221.693 50.7844 220.281Z" fill="#F2EADD"/>
<path d="M39.2648 202.641C40.6791 202.143 38.8587 199.71 38.8338 198.097C38.8087 196.483 36.8418 195.788 36.8418 195.788C35.547 194.974 35.4299 199.71 35.3683 201.727C35.3067 203.744 37.8504 203.139 39.2648 202.641Z" fill="#F2EADD"/>
<path d="M31.6859 182.947C31.9767 184.94 35.0258 183.576 35.3676 181.962C35.7094 180.349 33.0577 178.331 33.0577 178.331C30.4572 177.73 31.3952 180.954 31.6859 182.947Z" fill="#F2EADD"/>
<path d="M31.6857 169.456C31.3714 171.07 32.4035 172.482 33.743 172.684C35.0825 172.885 35.0198 167.843 35.0198 167.843C35.0198 167.843 34.4205 166.028 33.0575 165.423C31.6948 164.817 32.0002 167.843 31.6857 169.456Z" fill="#F2EADD"/>
<path d="M36.6389 161.589C37.8491 160.984 37.5836 157.555 37.5836 157.555C37.6078 155.708 35.6304 154.732 35.0196 154.389C34.4088 154.047 34.0169 159.887 33.7428 161.225C33.4684 162.564 35.4286 162.194 36.6389 161.589Z" fill="#F2EADD"/>
<path d="M48.4768 141.218C50.4321 140.411 49.0926 140.263 48.4768 137.99C47.8611 135.718 44.1074 139.402 44.1074 139.402C44.1074 139.402 44.1074 139.402 44.1074 141.218C44.1073 143.033 46.5216 142.025 48.4768 141.218Z" fill="#F2EADD"/>
<path d="M42.5092 145.243C43.942 143.832 41.6671 143.227 41.6671 143.227C41.6671 143.227 37.8491 145.29 39.2635 147.366C40.6778 149.442 41.0763 146.655 42.5092 145.243Z" fill="#F2EADD"/>
<path d="M55.4375 138.186C56.8901 138.791 57.8174 136.371 57.8174 135.362C57.8174 134.354 53.7708 135.362 53.7708 135.362C52.5224 135.622 53.9851 137.581 55.4375 138.186Z" fill="#F2EADD"/>
<path d="M133.835 169.994C136.037 170.964 140.071 173.183 140.172 172.275C140.273 171.367 137.146 169.451 136.541 168.443C135.936 167.434 131.935 164.839 131.297 165.518C131.297 165.518 129.29 167.233 130.092 168.745C130.894 170.258 131.633 169.024 133.835 169.994Z" fill="#4C3B1A"/>
<path d="M141.585 179.651C140.577 179.936 133.92 181.146 132.307 180.642C130.693 180.138 128.777 179.835 130.996 179.129C133.214 178.423 136.209 178.121 137.889 177.616C139.568 177.112 139.972 176.103 138.459 176.305C136.946 176.507 131.904 176.305 131.298 176.204C130.693 176.104 131.5 175.498 133.215 175.196C134.929 174.893 140.375 175.902 138.56 174.692C136.744 173.482 128.575 173.078 128.575 173.078C128.374 173.482 127.769 176.003 127.567 177.818C127.365 179.633 125.247 182.961 126.558 183.97C127.869 184.978 130.189 185.079 131.5 185.483C132.811 185.886 137.955 186.693 136.442 187.298C134.929 187.903 133.315 188.004 131.904 188.407C130.492 188.811 128.374 189.113 127.769 189.92C127.164 190.727 127.769 191.634 128.273 193.147C128.777 194.66 129.014 196.274 129.904 196.274C130.794 196.274 134.324 195.669 132.912 196.274C131.5 196.879 129.518 197.181 129.904 197.988C130.29 198.795 130.342 200.308 131.425 201.518C132.509 202.728 135.332 199.773 134.425 200.898C133.517 202.022 132.206 202.207 132.811 203.123C133.416 204.039 133.719 204.443 134.425 203.535C135.131 202.627 135.938 201.114 136.24 200.409C136.543 199.703 137.047 199.512 136.341 199.405C135.635 199.299 133.315 199.31 132.609 199.405C131.903 199.501 131.5 199.098 132.206 198.694C132.912 198.291 136.643 197.383 137.248 196.778C137.854 196.173 138.932 194.862 137.889 195.164C136.845 195.467 133.966 194.559 132.229 194.458C130.491 194.358 128.383 193.45 130.093 193.551C131.802 193.652 136.341 192.946 137.349 192.845C138.358 192.744 138.559 193.248 138.862 192.038C139.165 190.828 140.577 189.013 138.862 190.021C137.148 191.03 132.004 191.736 131.601 191.433C131.197 191.131 130.698 190.525 132.914 190.122C135.131 189.719 137.45 188.508 138.761 188.004C140.072 187.5 140.173 188.307 140.778 185.987C141.383 183.667 142.593 179.366 141.585 179.651Z" fill="#382213"/>
<path d="M132.206 155.627C133.719 155.829 139.366 155.325 137.248 156.232C135.131 157.14 132.307 157.039 132.509 157.947C132.71 158.855 131.803 159.157 133.416 159.56C135.03 159.964 136.139 161.275 137.047 160.771C137.954 160.266 137.891 158.504 138.528 157.116C139.165 155.728 140.879 154.014 139.568 153.913C138.257 153.812 134.122 153.711 136.139 152.904C138.156 152.098 139.165 153.005 139.669 151.997C140.173 150.988 140.375 148.971 141.182 147.559C141.988 146.147 142.36 143.953 141.972 142.831C141.585 141.71 142.593 138.987 140.778 138.785C138.963 138.584 135.192 140.995 131.399 141.609C127.607 142.223 125.348 143.122 127.063 143.324C128.777 143.525 137.349 142.618 135.534 143.727C133.719 144.836 129.886 145.744 130.492 146.248C131.097 146.753 135.597 145.744 134.053 146.753C132.509 147.761 131.5 147.86 130.593 148.567C129.685 149.274 130.693 153.348 130.693 153.348C130.895 153.812 130.693 155.426 132.206 155.627Z" fill="#4C3B1A"/>
<path d="M127.968 139.534C129.078 139.898 130.008 138.664 131.661 138.777C133.313 138.89 138.316 138.533 137.731 138.157C137.146 137.78 128.674 136.248 127.968 136.712C127.572 136.972 126.859 139.171 127.968 139.534Z" fill="#4C3B1A"/>
<path d="M130.49 104.764C129.482 105.127 130.087 105.713 131.196 105.814C132.306 105.915 136.037 105.108 137.887 104.764C139.738 104.421 136.743 101.78 136.743 101.78C136.229 101.285 131.499 104.402 130.49 104.764Z" fill="#4C3B1A"/>
<path d="M134.725 108.13C136.339 108.332 137.515 109.542 138.49 108.836C139.465 108.13 138.49 106.617 138.49 106.617C137.751 106.718 133.112 107.928 134.725 108.13Z" fill="#4C3B1A"/>
<path d="M133.835 111.663C135.129 112.47 139.164 113.116 138.609 113.449C138.054 113.781 135.157 114.386 136.656 114.588C138.155 114.79 138.887 114.689 138.924 115.697C138.962 116.706 138.357 116.907 136.138 117.714C133.919 118.521 131.005 118.709 131.302 119.724C131.6 120.74 137.273 121.042 138.924 121.446C140.575 121.849 141.382 123.362 142.088 121.042C142.794 118.723 140.071 111.663 140.071 111.663C139.768 111.663 132.541 110.856 133.835 111.663Z" fill="#4C3B1A"/>
<path d="M131.663 99.5591C132.431 100.366 134.929 99.4583 136.744 98.7524C138.56 98.0464 138.761 96.4329 138.926 94.8192C139.09 93.2056 138.563 88.5303 138.492 88.8691C138.214 90.1929 135.232 92.4997 134.614 93.609C133.997 94.7184 136.442 93.4072 136.745 93.7098C137.047 94.0124 136.543 94.8192 134.614 95.7268C132.685 96.6343 131.803 96.6343 130.693 97.2395C129.584 97.8448 130.895 98.7524 131.663 99.5591Z" fill="#4C3B1A"/>
<path d="M186.564 86.3463C190.598 82.9173 190.598 81.7071 192.817 80.196C195.036 78.6848 196.044 74.8493 198.666 71.2188C201.288 67.5882 202.499 63.9576 204.314 59.3184C206.129 54.6794 204.314 50.2419 204.314 50.2419C204.717 44.9977 197.456 46.2941 194.229 52.9502C191.002 59.6063 182.329 74.2441 181.925 77.157C181.522 80.07 187.169 74.6476 185.152 77.157C183.135 79.6664 175.067 90.1785 172.042 92.5492C169.016 94.9198 174.664 91.187 176.883 90.3803C179.101 89.5733 168.411 102.079 166.999 103.924C165.588 105.77 182.53 89.7751 186.564 86.3463Z" fill="#F8D118"/>
<path d="M219.235 118.758C226.291 119.103 223.877 118.212 225.521 115.98C227.165 113.748 227.71 112.967 227.013 109.792C226.317 106.616 223.25 107.687 222.869 106.939C222.264 105.751 218.432 104.294 213.591 104.899C208.75 105.505 196.043 109.135 190.597 111.46C185.151 113.784 177.285 117.607 172.444 119.717C167.603 121.828 176.881 118.413 180.714 118.758C184.546 119.103 169.015 125.674 165.788 127.49C162.561 129.305 172.646 123.658 180.512 121.536C188.378 119.415 190.597 119.825 201.892 118.758C213.187 117.691 212.179 118.413 219.235 118.758Z" fill="#F8D118"/>
<path d="M166.915 144.295C168.66 146.355 176.277 145.654 178.899 145.675C181.521 145.695 185.757 147.671 191.203 148.116C196.649 148.561 196.044 148.881 198.941 148.116C201.838 147.351 205.322 145.452 207.682 143.233C210.042 141.015 203.708 140.813 197.866 138.287C192.024 135.76 193.623 136.981 187.169 137.249C180.714 137.517 168.612 141.217 168.612 141.217C168.612 141.217 165.171 142.234 166.915 144.295Z" fill="#F8D118"/>
<path d="M174.866 165.334C176.883 168.483 167.604 160.976 165.171 161.658C162.738 162.339 167.201 161.984 171.033 165.334C174.866 168.684 178.9 169.851 182.127 173.714C185.354 177.578 191.002 183.566 193.664 184.978C196.326 186.39 196.649 186.995 198.941 186.402C201.233 185.81 201.087 181.146 200.794 176.364C200.502 171.582 198.666 171.464 195.835 169.007C193.004 166.551 186.968 163.195 186.018 162.128C185.069 161.061 196.044 166.422 197.866 166.788C199.688 167.154 191.808 162.186 187.305 160.16C182.803 158.135 182.328 158.555 175.269 155.53C168.209 152.504 165.171 153.513 165.171 153.513C167.608 153.243 172.849 162.186 174.866 165.334Z" fill="#F8D118"/>
<path d="M186.018 205.757C188.783 212.818 189.993 217.434 192.01 219.463C194.027 221.491 194.622 223.105 196.241 221.491C197.859 219.878 197.043 215.642 196.241 212.818C195.439 209.995 194.834 210.656 192.817 206.896C190.8 203.137 185.556 189.456 174.059 179.656C174.059 179.656 174.431 180.217 177.371 186.634C180.311 193.052 183.253 198.695 186.018 205.757Z" fill="#F8D118"/>
<path d="M91.0974 90.3803C93.3161 91.1871 98.9636 94.9198 95.9382 92.5493C92.9126 90.1785 84.8446 79.6665 82.8276 77.1571C80.8107 74.6477 86.4582 80.07 86.0549 77.1571C85.6516 74.2442 76.9783 59.6064 73.7513 52.9503C70.524 46.2942 63.2628 44.9976 63.6662 50.2419C63.6662 50.2419 61.8509 54.6793 63.6662 59.3185C65.4815 63.9576 66.6918 67.5882 69.3139 71.2189C71.9359 74.8495 72.9443 78.6848 75.1632 80.1961C77.382 81.7072 77.382 82.9175 81.4159 86.3463C85.4499 89.7752 102.393 105.77 100.981 103.925C99.5688 102.079 88.8787 89.5734 91.0974 90.3803Z" fill="#F8D118"/>
<path d="M87.2658 118.758C91.098 118.413 100.376 121.828 95.5355 119.717C90.6948 117.606 82.8284 113.784 77.3826 111.46C71.9367 109.135 59.2296 105.505 54.3888 104.899C49.548 104.294 45.7156 105.751 45.1106 106.939C44.7292 107.687 41.6629 106.616 40.9663 109.792C40.2699 112.967 40.8141 113.748 42.4581 115.98C44.1021 118.212 41.6889 119.103 48.7448 118.758C55.8007 118.413 54.7922 117.691 66.0874 118.758C77.3826 119.825 79.6013 119.415 87.4677 121.536C95.3341 123.658 105.419 129.305 102.192 127.49C98.9644 125.675 83.4335 119.103 87.2658 118.758Z" fill="#F8D118"/>
<path d="M99.3686 141.217C99.3686 141.217 87.2666 137.517 80.8122 137.249C74.3577 136.981 75.9575 135.76 70.1151 138.287C64.2728 140.813 57.9395 141.015 60.2992 143.233C62.6593 145.452 66.1435 147.351 69.0404 148.116C71.9374 148.881 71.3323 148.561 76.7782 148.116C82.2241 147.671 86.4599 145.695 89.0819 145.675C91.704 145.654 99.3208 146.355 101.066 144.295C102.81 142.234 99.3686 141.217 99.3686 141.217Z" fill="#F8D118"/>
<path d="M70.115 166.788C71.9373 166.422 82.9125 161.061 81.9632 162.128C81.0137 163.195 74.9775 166.551 72.1462 169.007C69.3152 171.464 67.4797 171.582 67.1873 176.364C66.8948 181.146 66.7485 185.81 69.0403 186.402C71.3322 186.995 71.6555 186.39 74.3177 184.978C76.9797 183.566 82.6274 177.578 85.8545 173.714C89.0818 169.851 93.1157 168.684 96.9481 165.334C100.78 161.984 105.243 162.339 102.81 161.658C100.377 160.976 91.0986 168.483 93.1157 165.334C95.1326 162.186 100.373 153.243 102.81 153.513C102.81 153.513 99.7718 152.504 92.7122 155.53C85.6527 158.555 85.1786 158.135 80.6756 160.16C76.1729 162.186 68.2927 167.154 70.115 166.788Z" fill="#F8D118"/>
<path d="M71.7388 212.818C70.9366 215.642 70.1205 219.878 71.7388 221.491C73.3571 223.105 73.9527 221.491 75.9698 219.463C77.9867 217.434 79.1971 212.818 81.9617 205.757C84.7263 198.695 87.6683 193.052 90.6084 186.634C93.5483 180.217 93.9211 179.656 93.9211 179.656C82.4243 189.456 77.18 203.137 75.1629 206.896C73.1458 210.656 72.5408 209.995 71.7388 212.818Z" fill="#F8D118"/>
</svg>
