<svg width="266" height="234" viewBox="0 0 266 234" fill="none" xmlns="http://www.w3.org/2000/svg">
<path d="M68.449 0.0329483C69.9247 -0.111801 71.1445 0.216864 72.3499 1.0887C76.235 3.8988 78.331 10.2365 78.9865 14.7638C80.5241 14.0164 82.1168 13.4155 83.7647 12.9612C88.3335 11.6518 97.4648 9.95967 101.639 12.403C104.002 13.7864 105.185 16.6005 105.777 19.1541C107.224 25.392 105.897 33.5583 103.067 39.3026C102.325 40.8091 101.274 42.178 100.39 43.6054C110.017 51.0973 119.378 46.8906 130.044 46.7338C149.432 46.4485 168.045 54.4989 181.895 67.9538C182.351 68.3884 182.802 68.8278 183.249 69.272C183.695 69.7164 184.137 70.1655 184.574 70.619C185.011 71.0729 185.443 71.5313 185.869 71.9943C186.297 72.4573 186.719 72.9249 187.136 73.3968C187.552 73.8691 187.964 74.3456 188.371 74.8265C188.778 75.3074 189.179 75.7926 189.576 76.2821C189.972 76.7718 190.363 77.2656 190.749 77.7636C191.135 78.2613 191.515 78.7633 191.89 79.2695C192.265 79.7754 192.634 80.2855 192.998 80.7996C193.362 81.3137 193.721 81.8315 194.074 82.3533C194.426 82.8748 194.774 83.4002 195.115 83.9294C195.457 84.4586 195.793 84.9914 196.123 85.5278C196.453 86.064 196.778 86.6039 197.096 87.1474C197.415 87.6906 197.728 88.2373 198.035 88.7874C198.341 89.3373 198.642 89.8906 198.937 90.4471C199.232 91.0037 199.521 91.5633 199.804 92.126C200.087 92.6888 200.364 93.2544 200.635 93.823C200.906 94.3916 201.171 94.963 201.429 95.5373C201.688 96.1117 201.94 96.6888 202.187 97.2686C202.433 97.8483 202.673 98.4306 202.906 99.0154C203.14 99.6003 203.368 100.188 203.589 100.778C203.81 101.367 204.025 101.959 204.233 102.554C204.441 103.148 204.643 103.744 204.839 104.343C205.035 104.942 205.224 105.543 205.407 106.146C205.589 106.748 205.766 107.353 205.936 107.959C206.105 108.566 206.268 109.174 206.425 109.784C206.582 110.394 206.732 111.006 206.876 111.619C207.019 112.232 207.156 112.847 207.287 113.464C207.417 114.08 207.541 114.697 207.658 115.316C207.775 115.935 207.885 116.555 207.989 117.176C208.093 117.797 208.19 118.42 208.281 119.043C208.371 119.666 208.455 120.291 208.532 120.916C208.943 124.356 209.034 127.784 209.083 131.244C223.151 132.907 237.969 138.184 248.862 147.435C258.113 155.292 264.723 165.855 265.673 178.181C266.586 190.024 261.951 201.707 254.321 210.637C242.723 224.21 227.245 230.335 209.969 232.801C204.903 233.524 199.839 234.013 194.716 234C184.801 233.974 174.604 232.594 164.906 230.639C148.11 227.252 130.281 221.087 113.041 222.468C107.582 222.905 102.193 224.342 98.091 228.138C96.6233 229.495 95.4101 231.016 94.1106 232.522C93.6092 233.104 92.9915 233.893 92.1485 233.871C91.6025 233.857 91.1229 233.535 90.7896 233.122C90.4016 232.641 90.3406 232.139 90.433 231.541C90.9105 228.447 95.3454 223.971 97.7021 222.141C116.067 207.881 150.497 217.354 171.769 220.014C177.372 220.714 183.024 221.479 188.674 221.59C204.375 221.898 222.949 218.065 235.558 208.214C242.74 202.603 248.317 194.623 249.423 185.401C250.307 178.026 248.063 170.83 243.466 165.034C236.462 156.203 225.086 150.473 214.215 148.077C211.709 147.524 209.163 147.259 206.616 146.965C205.735 148.899 204.757 150.783 203.681 152.617C203.416 153.023 203.143 153.424 202.861 153.819C194.139 166.16 179.942 170.648 165.756 173.075C165.57 174.735 165.007 176.031 163.761 177.192C161.883 178.941 159.289 179.669 156.833 180.144C152.725 180.938 148.432 180.928 144.264 181.135C140.41 181.346 136.564 181.658 132.725 182.07C129.629 182.385 126.572 182.815 123.5 183.302C121 183.698 118.218 184.415 115.685 184.286C115.056 184.254 114.098 184.226 113.691 183.654C113.306 183.114 113.466 182.419 113.57 181.819C112.7 182.127 111.794 182.431 110.892 182.626C109.643 182.896 107.996 183.016 106.903 182.236C106.509 181.956 106.29 181.611 106.214 181.127C106.031 179.969 106.959 178.914 107.611 178.077C106.819 178.035 105.921 178.014 105.267 177.503C104.937 177.245 104.686 176.787 104.682 176.359C104.673 175.421 105.406 174.717 106.026 174.095C107.675 172.441 109.773 171.402 111.98 170.694C117.33 168.978 127.021 168.52 132.721 168.493C130.519 167.694 128.376 166.743 126.166 165.959C117.609 162.921 108.736 160.053 100.84 155.505C99.0782 159.013 96.2359 162.533 93.5032 165.317C92.5122 166.327 91.3099 167.163 90.4188 168.262C88.6929 170.392 88.6938 172.436 86.04 174.297C83.6732 175.956 80.8366 175.806 78.2398 176.82C76.7966 177.383 75.643 178.527 74.1494 178.984C73.338 179.232 71.9746 179.36 71.2282 178.855C70.8601 178.606 70.6543 178.305 70.6057 177.857C70.5173 177.041 70.9456 176.563 71.4292 175.968C69.8306 176.753 68.1732 177.626 66.4341 178.049C65.484 178.279 64.3706 178.397 63.5141 177.821C63.0486 177.508 62.6877 176.992 62.6039 176.432C62.4226 175.223 63.3716 174.019 64.0246 173.087C63.2434 173.18 62.2743 173.333 61.5357 172.995C61.2053 172.844 60.9584 172.663 60.8593 172.297C60.6685 171.59 61.0401 170.821 61.4537 170.272C64.5678 166.136 71.8559 164.624 76.6725 164.012C79.0368 157.706 80.3314 151.494 80.3578 144.743C78.8295 148.127 77.2369 151.385 74.976 154.36C74.0529 155.575 72.9335 156.626 72.0067 157.832C71.1553 158.941 70.626 160.129 69.5032 161.031C67.5114 162.632 65.1094 163.132 62.7904 164.039C61.37 164.594 59.9794 165.304 58.494 165.669C57.6339 165.881 56.7416 165.982 55.8589 165.865C55.2869 165.789 54.5098 165.594 54.1802 165.071C53.9926 164.772 54.0277 164.523 54.089 164.2C54.1388 163.936 54.1768 163.766 54.1244 163.496C52.8185 163.633 51.6471 164.404 50.3481 164.639C49.398 164.811 48.4263 164.702 47.6385 164.102C47.3153 163.856 47.1028 163.519 47.0711 163.105C46.9704 161.787 48.5374 160.443 49.368 159.604C48.0192 159.846 46.2249 160.26 45.0252 159.396C44.6559 159.131 44.4444 158.758 44.3862 158.305C44.2846 157.512 44.5854 156.799 45.1018 156.209C48.1735 152.698 57.4025 151.572 61.8866 151.259C62.3613 149.669 62.6019 147.961 62.9072 146.327C65.5803 132.029 63.4472 116.937 59.1957 103.171C58.6597 101.435 58.2735 99.5519 57.6031 97.8709C56.3982 94.8505 46.2747 88.0464 42.9572 86.5799C40.1255 86.867 37.2913 87.1271 34.4547 87.3602C35.5873 92.6721 36.4436 98.0102 35.1697 103.4C33.9257 108.663 30.4006 115.035 25.6817 117.934C25.9885 117.62 26.2875 117.297 26.5788 116.968C26.8701 116.638 27.1533 116.302 27.4282 115.959C27.7032 115.616 27.9697 115.266 28.2278 114.91C28.4857 114.554 28.7349 114.192 28.9753 113.824C29.2158 113.455 29.4472 113.082 29.6696 112.702C29.892 112.323 30.105 111.938 30.3086 111.549C30.5124 111.159 30.7066 110.764 30.8912 110.365C31.0758 109.966 31.2506 109.563 31.4156 109.155C34.1981 102.402 34.5432 94.0854 31.677 87.2831C30.2516 87.4299 28.824 87.5488 27.394 87.64C27.4726 93.588 27.0694 99.2753 24.735 104.838C22.4966 110.173 19.3232 114.433 13.8662 116.67C15.1094 115.707 16.3321 114.763 17.4213 113.621C24.3433 106.362 25.2891 97.1536 25.0603 87.6554C23.173 87.6057 21.2526 87.3452 19.3886 87.0536C18.7902 90.1748 17.8355 93.0171 16.1473 95.7288C12.0522 102.306 7.49153 105.77 0 107.527C1.07828 107.044 2.12952 106.509 3.1537 105.921C4.17788 105.332 5.16978 104.694 6.12938 104.005C11.7667 99.9446 16.16 93.4376 17.3024 86.5418C16.6312 86.3351 15.9675 86.1065 15.3115 85.8559C10.4556 84.0173 3.5869 78.9764 1.42129 74.1C0.679667 72.43 0.517234 70.5528 1.20063 68.8362C2.15244 66.4452 6.09237 62.4582 7.85255 60.1875C18.8008 46.0648 30.2576 31.3748 47.1918 24.142C47.958 20.091 49.3652 16.1426 51.766 12.7582C55.3682 7.67951 62.1351 1.12643 68.449 0.0329483Z" fill="black"/>
<path d="M26.2891 79.625C27.0328 79.8981 27.7855 80.5518 28.3562 81.097C29.18 81.8839 30.719 83.5772 30.7475 84.7674L27.2999 85.0466C27.1116 83.2044 26.7415 81.4182 26.2891 79.625Z" fill="#878686"/>
<path d="M6.85018 66.622C7.33211 66.6059 7.78162 66.6234 8.24129 66.786C9.16323 67.1124 9.8666 67.7638 10.2414 68.667C10.753 69.8998 10.6917 71.4216 10.1663 72.6382C9.57023 74.0183 8.60663 74.7675 7.24265 75.3107C6.77676 75.3599 6.34618 75.3841 5.89058 75.2479C5.7852 75.2155 5.68171 75.1778 5.58019 75.1348C5.47867 75.0918 5.37964 75.0436 5.28303 74.9903C5.18649 74.937 5.09289 74.879 5.00231 74.8162C4.91173 74.7532 4.82461 74.6857 4.74097 74.6138C4.65733 74.542 4.57762 74.4661 4.50184 74.3859C4.42606 74.3059 4.35454 74.2222 4.2874 74.1347C4.2202 74.0471 4.15772 73.9565 4.09988 73.8626C4.04205 73.7688 3.98919 73.6722 3.94132 73.5728C3.36782 72.4005 3.29525 70.8801 3.7576 69.6612C4.3271 68.1595 5.41671 67.2393 6.85018 66.622Z" fill="#F67A75"/>
<path d="M59.4879 153.464C61.1055 153.341 62.5026 153.368 64.0149 154.009C65.2275 154.523 67.951 156.039 68.3309 157.35C68.444 157.74 68.4127 158.019 68.2284 158.38C67.2386 160.319 60.8568 161.979 58.6408 162.535C59.4792 161.666 62.3308 159.145 62.6039 158.115L62.4252 157.9C60.206 157.598 56.362 159.849 54.1607 160.543L53.919 160.618C52.8056 160.966 51.6825 161.246 50.549 161.52C53.5831 158.822 57.1171 157.101 61.0341 156.099C60.2999 155.788 59.578 155.488 58.7781 155.393C55.5521 155.009 51.2318 156.721 47.8887 157.151C51.0712 155.085 55.7536 153.938 59.4879 153.464Z" fill="#878686"/>
<path d="M76.2919 166.264C76.4395 166.248 76.5872 166.234 76.7352 166.221C80.5564 165.884 83.8619 166.693 86.8323 169.168C84.3324 173.355 82.1833 172.659 78.1335 174.159C76.5804 174.735 75.1237 175.614 73.5846 176.249C75.2656 173.725 77.1299 172.136 79.6124 170.462C76.4557 170.789 74.1399 171.82 71.3231 173.212C69.338 174.174 67.6616 174.992 65.4091 175.087C68.6417 171.031 73.1595 170.029 77.7162 168.18C75.3479 168.194 73.0372 168.226 70.7138 168.758C68.9048 169.172 67.1592 169.797 65.3299 170.14L65.0605 170.189L65.159 170.127C68.3532 168.15 72.5907 166.837 76.2919 166.264Z" fill="#878686"/>
<path d="M208.988 134.352C213.368 135.029 217.824 135.932 222.076 137.187L222.025 137.384C221.703 138.669 221.643 139.948 221.191 141.214C220.624 142.801 219.641 144.404 219.243 146.018C215.454 144.969 211.595 144.214 207.662 144.011C208.256 140.778 208.638 137.615 208.988 134.352Z" fill="#878686"/>
<path d="M106.93 105.461C108.056 106.901 108.615 109.088 109.163 110.821C111.779 119.104 112.219 126.432 111.17 135.01C110.358 141.656 107.786 148.122 112.424 154.001C115.061 157.343 119.547 158.75 123.333 160.32C124.679 160.878 126.402 161.805 127.844 161.963C128.108 161.992 128.001 162.004 128.236 161.905L130.9 164.807C127.76 163.703 124.677 162.471 121.557 161.316C118.129 160.046 114.672 158.849 111.311 157.407C108.255 156.096 105.323 154.563 102.309 153.17C108.195 140.153 111.275 128.712 109.062 114.383C108.8 112.695 108.435 111.03 107.968 109.387C107.618 108.139 107.16 106.864 106.949 105.585C106.942 105.544 106.937 105.502 106.93 105.461Z" fill="#5E5D5D"/>
<path d="M101.457 95.9609C102.518 97.5745 103.211 99.6101 103.885 101.417C104.642 103.447 105.36 105.482 105.845 107.597C107.834 116.283 107.415 126.061 105.628 134.744C105.475 135.488 105.307 136.23 105.126 136.968C104.945 137.706 104.751 138.44 104.543 139.171C104.335 139.902 104.113 140.629 103.878 141.352C103.643 142.075 103.395 142.793 103.134 143.506C102.872 144.22 102.597 144.928 102.31 145.632C102.022 146.335 101.722 147.033 101.408 147.726C101.095 148.418 100.768 149.104 100.43 149.784C100.091 150.465 99.7396 151.138 99.3759 151.806C99.0121 152.473 98.6362 153.133 98.2482 153.787C97.86 154.44 97.46 155.086 97.0482 155.725C96.6362 156.363 96.2125 156.994 95.7772 157.617C95.3419 158.24 94.8953 158.855 94.4373 159.462C93.9795 160.068 93.5105 160.666 93.0304 161.255C92.5503 161.844 92.0595 162.424 91.5582 162.996C91.0566 163.566 90.5447 164.128 90.0226 164.68C89.5003 165.232 88.968 165.775 88.4257 166.307C87.8587 165.961 87.3406 165.644 86.6973 165.453C88.9276 162.329 91.2631 159.359 93.2339 156.049C96.7345 150.17 99.2325 144.093 101.163 137.532C103.78 128.639 104.986 121.016 104.176 111.742C103.917 108.79 103.607 105.779 103.04 102.867C102.729 101.271 101.427 97.5698 101.448 96.2132C101.449 96.129 101.454 96.045 101.457 95.9609Z" fill="#5E5D5D"/>
<path d="M83.643 48.8729C82.5702 48.988 81.4293 49.0139 80.3583 48.8729C78.4166 48.617 76.6044 47.8356 75.4021 46.2277C73.0514 43.0846 72.7535 38.0467 73.2915 34.3084C73.8867 30.1725 76.1652 26.5741 79.5126 24.0984C83.4254 21.2049 89.5818 19.6857 94.3903 20.4436C95.8631 20.6756 97.0127 21.1718 97.909 22.389C96.6748 22.4647 95.4343 22.414 94.2026 22.5148C90.3051 22.834 87.4438 24.6387 84.8801 27.5227C81.4295 31.4038 79.789 36.7954 80.126 41.9476C80.2342 43.6041 80.5813 46.527 81.897 47.6743C82.4318 48.1407 83.1283 48.3925 83.643 48.8729Z" fill="#FD8501"/>
<path d="M68.4451 2.7613C69.2628 2.72161 70.0071 3.02408 70.6639 3.49585C74.0594 5.93491 75.4946 12.4621 76.2208 16.3354C74.2975 17.6608 72.4485 19.0274 70.7238 20.6093C66.1176 19.5035 61.3566 20.2996 56.773 21.1016C54.4559 21.5969 52.2408 22.2764 49.998 23.0283C50.6313 19.5027 51.8732 16.4825 53.9545 13.5599C56.9667 9.32958 63.1467 3.63661 68.4451 2.7613Z" fill="#5E5D5D"/>
<path d="M83.6422 48.8666C83.1276 48.3863 82.431 48.1344 81.8962 47.6681C80.5806 46.5208 80.2334 43.5979 80.1252 41.9414C79.7882 36.7892 81.4288 31.3976 84.8793 27.5165C87.443 24.6325 90.3043 22.8277 94.2018 22.5086C95.4334 22.4078 96.674 22.4585 97.9082 22.3828C100.009 26.7518 99.6544 34.1459 98.0849 38.6464C96.64 42.7897 94.1589 45.2904 90.2139 47.165C89.6995 47.4096 89.1747 47.6293 88.6395 47.8238C88.1041 48.0184 87.5608 48.1871 87.0095 48.3299C86.458 48.4727 85.9011 48.5889 85.3387 48.6787C84.7761 48.7683 84.2106 48.831 83.6422 48.8666Z" fill="#FFA803"/>
<path d="M61.8203 101.969C61.8998 102.023 61.9846 102.069 62.0587 102.131C62.7497 102.702 63.4667 103.844 64.0188 104.581C69.5986 112.032 73.7909 120.739 77.0797 129.415C77.8456 131.436 78.8018 133.742 79.1083 135.877C79.2977 137.198 79.0229 138.611 78.7471 139.901C77.8206 144.234 76.2039 147.886 73.5832 151.446C72.5671 152.697 71.5842 153.89 70.2962 154.869C68.4204 153.66 67.021 151.95 64.9558 150.99C68.2834 137.478 67.1718 123.352 64.1165 109.904C63.521 107.283 62.4102 104.792 61.8622 102.174L61.8203 101.969Z" fill="#5E5D5D"/>
<path d="M97.909 46.1484C100.072 47.3015 102.222 48.4919 104.526 49.346C111.357 51.8785 118.525 50.8265 125.566 50.1208C128.759 49.8007 131.923 49.5319 135.132 49.7607C141.305 50.2011 147.624 51.3872 153.459 53.4708C177.294 61.9815 195.704 83.7684 202.954 107.642C206.384 118.932 208.018 138.111 202.252 148.769C197.097 158.294 187.092 164.498 176.927 167.463C175.783 167.802 174.632 168.112 173.473 168.393C174.41 167.172 176.116 166.113 177.314 165.108C178.679 163.954 179.972 162.726 181.194 161.424C190.618 151.386 195.097 137.73 194.654 124.077C194.037 105.05 185.704 85.728 171.746 72.7123C161.336 63.0061 147.289 55.5165 132.823 54.9664C127.575 54.767 122.441 55.5608 117.219 55.7407C110.818 55.9614 105.965 54.5687 100.68 50.967C99.1455 49.921 97.6502 48.8494 96.2891 47.5798L97.909 46.1484Z" fill="#5E5D5D"/>
<path d="M222.076 137.195C237.15 141.959 250.803 149.66 258.363 164.177C258.506 164.447 258.646 164.719 258.782 164.993C258.919 165.267 259.051 165.542 259.181 165.819C259.31 166.096 259.436 166.375 259.558 166.655C259.68 166.935 259.799 167.217 259.915 167.5C260.03 167.783 260.142 168.068 260.25 168.354C260.358 168.64 260.462 168.927 260.563 169.215C260.664 169.504 260.762 169.794 260.855 170.085C260.949 170.376 261.039 170.668 261.126 170.961C261.212 171.255 261.295 171.549 261.374 171.845C261.453 172.14 261.528 172.436 261.6 172.733C261.671 173.031 261.739 173.329 261.803 173.628C261.867 173.927 261.928 174.226 261.985 174.527C262.041 174.827 262.094 175.128 262.143 175.43C262.192 175.732 262.238 176.034 262.279 176.337C262.321 176.64 262.358 176.944 262.392 177.248C262.426 177.551 262.457 177.856 262.483 178.16C262.509 178.465 262.532 178.77 262.55 179.075C262.569 179.38 262.584 179.686 262.595 179.991C262.606 180.297 262.613 180.602 262.617 180.908C262.62 181.214 262.62 181.519 262.616 181.825C262.611 182.131 262.603 182.437 262.591 182.742C262.58 183.048 262.564 183.353 262.544 183.658C262.525 183.963 262.501 184.268 262.474 184.573C262.447 184.877 262.416 185.181 262.381 185.485C262.347 185.789 262.308 186.092 262.266 186.395C262.223 186.698 262.177 187 262.127 187.302C262.077 187.603 262.023 187.904 261.966 188.204C261.909 188.505 261.847 188.804 261.782 189.103C261.717 189.402 261.649 189.7 261.576 189.997C261.504 190.294 261.428 190.59 261.348 190.885C261.268 191.18 261.185 191.475 261.097 191.768C261.01 192.061 260.919 192.353 260.825 192.643C256.598 205.983 246.186 216.231 233.979 222.529C226.223 226.532 217.668 228.51 209.074 229.687C204.948 230.252 200.775 230.745 196.61 230.864C186.482 231.153 175.973 229.645 166.067 227.63C150.514 224.467 132.985 218.904 117.182 219.196C114.28 219.25 111.417 219.652 108.547 220.054L108.746 219.979C117.866 216.63 130.458 217.372 139.93 218.545C170.084 222.281 195.442 230.189 225.26 217.985C235.097 213.959 244.84 206 249.437 196.298C252.955 188.874 253.951 180.097 251.131 172.259C247.399 161.885 238.104 154.029 228.315 149.472C225.45 148.139 222.32 146.768 219.244 146.026C219.641 144.412 220.625 142.809 221.192 141.222C221.644 139.956 221.703 138.677 222.025 137.392L222.076 137.195Z" fill="#C5C2BC"/>
<path d="M68.8496 22.9014C67.69 24.329 66.6275 25.8433 65.7756 27.4762C64.5558 29.8148 63.4191 33.4245 64.257 36.0504L64.4248 36.1074C65.372 34.0189 65.6618 31.6572 66.6422 29.5233C69.5614 23.168 76.2437 18.4501 82.6539 16.0916C83.2221 15.8779 83.7958 15.6801 84.3751 15.4984C84.9544 15.3169 85.5383 15.1515 86.1268 15.0022C86.7153 14.8531 87.3075 14.7205 87.9033 14.6041C88.4991 14.4881 89.0977 14.3886 89.6991 14.3057C90.3006 14.2227 90.9039 14.1568 91.5089 14.1077C92.1141 14.0583 92.7201 14.026 93.3269 14.0107C93.9339 13.9951 94.5407 13.9966 95.1474 14.015C95.7543 14.0332 96.3602 14.0684 96.9651 14.1206C97.9198 14.1986 98.9905 14.2277 99.8592 14.6669C101.265 15.3784 101.97 17.1184 102.447 18.5342C104.028 23.2204 103.201 31.4561 101.023 35.8867C101.818 32.1101 101.85 24.6052 99.6664 21.2597C98.6354 19.6798 96.9677 18.7999 95.1656 18.4067C90.0825 17.2983 83.3672 18.9651 79.0716 21.7931C75.0169 24.4624 72.3289 28.0689 71.3857 32.8708C70.4859 37.4518 71.293 43.1239 73.9782 47.0153C75.5854 49.345 77.7706 50.294 80.4684 50.7815C86.0924 51.7982 91.5795 50.8455 96.2884 47.5849C97.6496 48.8545 99.1448 49.9261 100.68 50.9721C105.964 54.5737 110.817 55.9665 117.218 55.7457C122.44 55.5659 127.574 54.772 132.822 54.9715C147.289 55.5215 161.336 63.0112 171.745 72.7174C185.704 85.7331 194.037 105.055 194.653 124.082C195.096 137.735 190.618 151.391 181.194 161.429C179.971 162.731 178.678 163.959 177.314 165.113C176.115 166.118 174.41 167.177 173.472 168.398C170.681 169.141 167.726 169.75 164.85 170.035C162.547 165.168 158.909 162.224 154.379 159.495C157.126 162.873 161.308 167.465 162.183 171.767C162.376 172.716 162.353 173.695 161.772 174.506C160.616 176.119 157.927 176.84 156.077 177.218C150.571 178.343 144.655 178.064 139.053 178.523C134.15 178.924 129.193 179.454 124.331 180.199C121.754 180.594 119.2 181.137 116.625 181.549C119.388 178.416 125.295 176.337 129.201 175.1C125.435 174.772 121.923 174.963 118.443 176.565C114.99 178.154 113.74 179.137 109.874 179.935C112.651 175.284 119.002 174.672 123.767 173.369C120.264 172.96 116.945 172.687 113.544 173.829C111.878 174.389 110.199 175.095 108.478 175.452L108.272 175.493C108.924 175.064 109.602 174.683 110.306 174.348C111.011 174.014 111.735 173.729 112.479 173.495C118.717 171.478 130.005 170.662 136.575 171.133C140.661 171.426 144.169 172.313 148.425 172.407C141.486 170.327 136.522 167.603 131.977 161.85C124.105 151.886 120.39 138.392 121.917 125.795C123.331 114.137 129.401 101.348 138.716 94.0478C144.226 89.7289 151.153 87.023 158.214 87.9334C168.829 89.3023 177.868 96.3075 184.227 104.58C183.651 103.287 182.93 102.084 182.138 100.912C176.998 93.3052 168.74 86.8863 159.576 85.157C152.185 83.7624 144.652 86.1279 138.545 90.2939C128.788 96.9497 121.737 109.73 119.562 121.215C116.829 135.645 120.002 149.809 128.237 161.903C128.002 162.002 128.109 161.99 127.845 161.961C126.403 161.802 124.68 160.876 123.334 160.318C119.548 158.747 115.062 157.341 112.425 153.999C107.787 148.12 110.359 141.654 111.171 135.007C112.22 126.43 111.78 119.102 109.164 110.818C108.616 109.086 108.057 106.899 106.931 105.459C105.257 101.578 103.112 97.9876 100.888 94.4029C101.059 94.9288 101.266 95.4469 101.456 95.9662C101.453 96.0502 101.449 96.1343 101.447 96.2183C101.427 97.5749 102.729 101.276 103.04 102.872C103.606 105.784 103.917 108.795 104.175 111.747C104.985 121.021 103.78 128.644 101.163 137.537C99.2319 144.098 96.7339 150.175 93.2333 156.055C91.2625 159.364 88.927 162.334 86.6967 165.458C84.3356 164.241 82.2983 163.744 79.6531 163.602C83.7417 153.415 84.0037 144.978 81.4751 134.417C77.1055 116.167 64.6471 96.224 48.4368 86.2663C55.8343 84.9559 62.8136 85.0675 68.4726 79.2139C71.6313 75.947 72.9038 72.0395 72.8468 67.5467C72.299 70.2181 71.5639 72.7352 69.9276 74.9618C65.7794 80.6068 59.0332 81.8827 52.5479 82.9005C51.3217 81.0774 50.1171 79.2108 48.6932 77.5333C45.0228 73.2089 39.841 69.8643 34.308 68.5424C29.5888 67.4149 22.2028 67.5349 17.9613 70.1277C21.5393 69.2792 25.1217 68.7657 28.8059 68.8909C36.394 69.1483 42.8414 72.3967 48.0439 77.8635C49.5769 79.4745 50.8885 81.2843 52.4045 82.9155C50.4786 83.1472 48.5418 83.3104 46.6108 83.4955C43.9538 80.766 41.4359 78.5019 38.1276 76.5671C32.6945 73.3894 24.7354 71.6475 18.5523 73.2855C20.7314 73.4203 22.9118 73.3696 25.0903 73.5734C32.624 74.278 40.9323 77.6471 45.8455 83.5994C41.7358 83.6705 37.6642 84.0778 33.5787 84.4897C32.4361 82.5076 31.2295 80.5688 29.3574 79.1936C26.6029 77.1701 23.0228 76.4914 19.6817 77.015C20.9436 77.3037 22.2002 77.5872 23.439 77.966C24.1474 80.254 24.66 82.5345 24.8537 84.9244C17.74 84.0111 13.067 82.9283 7.75586 77.8124C8.42485 77.5769 9.08736 77.3329 9.69465 76.9593C9.79931 76.8952 9.90221 76.8285 10.0034 76.7593C10.1047 76.6898 10.204 76.6179 10.3015 76.5434C10.399 76.4691 10.4946 76.3923 10.5881 76.3128C10.6817 76.2336 10.7731 76.1519 10.8625 76.0679C10.9519 75.9838 11.039 75.8975 11.124 75.8088C11.2089 75.7204 11.2916 75.6298 11.3719 75.5371C11.4522 75.4443 11.5301 75.3495 11.6055 75.2527C11.681 75.1561 11.7539 75.0574 11.8242 74.9569C11.8946 74.8564 11.9624 74.7541 12.0275 74.65C12.0926 74.5462 12.155 74.4407 12.2147 74.3334C12.2745 74.2262 12.3314 74.1175 12.3855 74.0076C12.4396 73.8974 12.4909 73.7859 12.5393 73.6731C12.5877 73.5604 12.6332 73.4466 12.6757 73.3314C12.7183 73.2165 12.7578 73.1004 12.7944 72.9831C12.8311 72.8661 12.8647 72.7482 12.8952 72.6294C12.9257 72.5106 12.9532 72.3911 12.9776 72.2708C13.3673 70.4093 13.0583 68.0921 11.969 66.5104C11.0083 65.1156 9.74082 64.6157 8.14243 64.3595C15.6152 55.2787 22.4135 45.6839 31.3252 37.9065C41.6618 28.886 54.7931 21.9556 68.8496 22.9014Z" fill="#878686"/>
<path d="M38.8556 48.4558L38.6725 48.3571C38.5505 46.652 39.7732 44.2184 40.8525 42.9401C42.1132 41.4468 44.1896 40.6602 46.0953 40.5485C48.9641 40.3805 51.4495 41.4463 53.5567 43.3595C55.2523 44.8991 56.3913 46.9343 56.4465 49.2687C56.4647 50.0404 56.3472 51.588 55.8038 52.2014L55.6757 51.9878C55.9287 50.1414 55.7186 48.5989 54.7518 46.9649C53.3815 44.6487 50.9277 43.0866 48.3453 42.4523C46.2441 41.9365 43.9847 42.1592 42.1403 43.3457C40.2993 44.5298 39.2995 46.3736 38.8556 48.4558Z" fill="black"/>
<path d="M38.857 48.4524C39.3008 46.3702 40.3008 44.5264 42.1417 43.3422C43.9861 42.1558 46.2456 41.933 48.3467 42.4488C50.9292 43.0832 53.3829 44.6452 54.7532 46.9613C55.72 48.5954 55.9301 50.1378 55.6771 51.9843C54.7653 54.2181 53.2343 56.5377 50.9161 57.498C50.3848 57.7178 49.9513 57.8298 49.3788 57.7783C50.0328 57.4763 50.7144 57.1229 51.2756 56.6704C52.7119 55.5127 53.6759 53.8456 53.8693 52.0038C54.0616 50.1709 53.4905 48.4643 52.3492 47.0358C51.1328 45.5132 49.4637 44.4378 47.4949 44.2438C47.3812 44.2315 47.2671 44.2222 47.1527 44.2156C47.0385 44.2089 46.9242 44.2051 46.8099 44.2043C46.6953 44.2036 46.5808 44.2058 46.4665 44.211C46.3521 44.2159 46.238 44.2238 46.124 44.2345C46.0102 44.2453 45.8966 44.2589 45.7832 44.2754C45.67 44.2919 45.5573 44.3113 45.445 44.3336C45.3327 44.3558 45.2211 44.3809 45.11 44.4087C44.9991 44.4365 44.8888 44.4672 44.7793 44.5008C44.6699 44.5342 44.5614 44.5703 44.4538 44.6093C44.3461 44.6483 44.2395 44.6899 44.134 44.7342C44.0285 44.7786 43.9241 44.8255 43.8211 44.875C43.7179 44.9247 43.616 44.9769 43.5154 45.0316C43.4149 45.0865 43.3159 45.1437 43.2184 45.2034C43.1208 45.263 43.0247 45.3252 42.9303 45.3899C42.8357 45.4546 42.7429 45.5216 42.6519 45.5908C42.5607 45.6601 42.4715 45.7316 42.384 45.8055C40.8858 47.0742 39.7889 49.0381 39.6585 51.0074C39.5304 52.9416 40.301 54.5169 41.551 55.9218C41.4606 56.0048 41.5291 55.9567 41.3066 55.9791C41.0835 55.8016 40.8737 55.6277 40.6875 55.4107C38.9975 53.4419 38.6944 50.9389 38.857 48.4524Z" fill="#FEFEFE"/>
<path d="M41.5509 55.9208C40.3008 54.5158 39.5303 52.9406 39.6584 51.0064C39.7888 49.037 40.8857 47.0732 42.3839 45.8044C42.4714 45.7305 42.5607 45.659 42.6518 45.5897C42.7428 45.5204 42.8355 45.4535 42.9302 45.3889C43.0246 45.3242 43.1206 45.262 43.2183 45.2023C43.3158 45.1426 43.4148 45.0853 43.5153 45.0305C43.6159 44.9758 43.7178 44.9236 43.821 44.8739C43.924 44.8244 44.0283 44.7775 44.1339 44.7332C44.2394 44.6888 44.346 44.6472 44.4536 44.6082C44.5613 44.5693 44.6698 44.5331 44.7792 44.4997C44.8887 44.4661 44.999 44.4354 45.1099 44.4076C45.2209 44.3798 45.3326 44.3548 45.4449 44.3325C45.5571 44.3102 45.6699 44.2909 45.7831 44.2743C45.8966 44.2578 46.0101 44.2442 46.1239 44.2335C46.2379 44.2227 46.3521 44.2149 46.4664 44.2099C46.5807 44.2047 46.6952 44.2025 46.8098 44.2033C46.9241 44.2041 47.0384 44.2078 47.1526 44.2145C47.267 44.221 47.381 44.2305 47.4948 44.2428C49.4636 44.4368 51.1327 45.5121 52.3491 47.0347C53.4903 48.4632 54.0614 50.1698 53.8692 52.0027C53.6757 53.8445 52.7118 55.5117 51.2755 56.6693C50.7143 57.1218 50.0326 57.4753 49.3787 57.7772C48.8223 57.9698 48.2714 58.1523 47.6857 58.2315C45.3154 58.5515 43.3323 57.3251 41.5509 55.9208Z" fill="black"/>
<path d="M44.0277 47.6185C44.2637 47.6191 44.5786 47.6015 44.806 47.6786C45.2228 47.82 45.5521 48.157 45.7386 48.5499C45.9611 49.0182 45.955 49.546 45.7443 50.0181C45.5155 50.5308 45.1511 50.6531 44.6615 50.82C44.1426 50.7547 43.5522 50.6767 43.1625 50.2921C42.8905 50.0242 42.7535 49.6857 42.7886 49.3037C42.8592 48.5283 43.4406 48.0425 44.0277 47.6185Z" fill="#FEFEFE"/>
</svg>
