<svg width="267" height="240" viewBox="0 0 267 240" fill="none" xmlns="http://www.w3.org/2000/svg">
<path d="M266.265 191.583L266.26 49.8209L125.455 47.2266V239.987L125.501 240.005L266.265 191.583Z" fill="#BA865A"/>
<path d="M0.00201856 44.9141L0 186.671L125.455 239.986V47.2265L0.00201856 44.9141Z" fill="#D09565"/>
<path d="M41.4615 50.0703L39.6309 61.7662V127.052L45.0657 124.792L47.0679 131.525L53.5551 128.828L55.558 135.561L62.0444 132.864L64.0473 139.598L70.5351 136.901L72.536 143.634L79.0224 140.937L81.0253 147.67L81.3961 147.516L81.54 58.9768L41.4615 50.0703Z" fill="#DBB693"/>
<path d="M0 44.9138L144.157 0L266.265 49.8266L125.501 98.2491L0 44.9138Z" fill="#DEAC7A"/>
<path d="M179.39 14.3672L39.6309 61.7461L82.1698 79.8242L218.6 30.3669L179.39 14.3672Z" fill="#F3DEB4"/>
<path opacity="0.52" d="M0 44.9138L144.157 0L266.265 49.8266L145.11 5.0675L0 44.9138Z" fill="#DEAC7A"/>
<path opacity="0.7" d="M28.3284 92.2786C28.0128 86.7893 27.2035 81.2414 25.5154 75.9539C23.7291 70.3562 20.9343 65.0042 17.0651 60.7972C13.8552 57.193 8.7971 55.1618 7.26648 61.6207C5.74731 70.589 5.98481 79.9658 5.70358 89.0714C5.53672 108.421 5.34901 127.771 5.79171 147.064C5.90003 149.164 6.06554 151.316 6.55332 153.235C7.4293 157.337 10.6157 159.881 13.9359 156.947C15.8251 155.349 17.127 153.017 18.2351 150.8C20.3187 146.523 22.0559 142.024 23.4694 137.427C27.7989 122.934 28.8814 107.456 28.3365 92.4132L28.3284 92.2786Z" fill="#D09565"/>
<path opacity="0.7" d="M13.8549 163.363C10.4257 161.11 7.04622 165.179 6.17024 168.22C5.14355 171.786 5.64411 176.994 7.717 180.105C8.45775 181.217 9.63783 182.196 10.974 182.118C15.7011 181.839 16.4876 173.818 16.5777 170.284C16.641 167.786 16.1048 164.842 13.8549 163.363Z" fill="#D09565"/>
</svg>
