<svg width="165" height="265" viewBox="0 0 165 265" fill="none" xmlns="http://www.w3.org/2000/svg">
<path d="M92.7874 212.382L59.4414 259.878C34.8691 267.122 9.72557 256.395 1.68164 232.54L15.3741 178.383C23.8061 197.129 61.0222 218.07 92.7874 212.382Z" fill="#FBE291"/>
<path d="M44.1889 137.428C42.3572 146.56 50.195 150.412 56.0203 145.121L71.6388 153.014C65.1498 173.151 79.1832 177.673 85.6722 157.537C95.3067 160.675 104.585 161.49 113.588 160.513C118.632 165.923 123.299 166.566 127.498 161.309L134.966 160.84L106.04 207.215C72.2861 223.135 20.7953 202.487 10.793 166.784L22.8308 116.117C28.1454 124.935 35.3296 131.977 44.1889 137.428Z" fill="#FBE291"/>
<path d="M46.5162 122.157L44.6123 139.398C36.4756 132.478 29.371 125.566 24.8191 118.672C18.8198 109.599 17.243 100.563 23.5793 91.5938C24.4024 94.5225 25.4395 97.2777 26.6629 99.8643L26.6628 99.8698C31.07 109.203 37.9586 116.394 46.5162 122.157Z" fill="#FBE291"/>
<path d="M56.0176 145.114C63.6697 130.705 79.6169 139.174 71.9648 153.583L56.0176 145.114Z" fill="#FBE291"/>
<path d="M114.184 160.763C107.375 162.125 96.5298 160.464 86.3066 157.369C88.402 140.157 112.068 143.292 114.184 160.763Z" fill="#FBE291"/>
<path d="M157.023 142.07C158.003 154.09 142.451 159.703 128.113 161.274C130.572 156.846 132.285 153.523 132.871 148.433C140.862 147.826 148.918 145.569 157.023 142.07Z" fill="#FBE291"/>
<path d="M160.473 121.268C162.008 126.507 161.118 132.668 157.139 139.299C151.41 144.25 144.95 146.973 137.738 147.412C136.11 147.515 134.451 147.496 132.749 147.365C129.562 165.571 117.852 169.812 112.273 156.274C111.8 155.133 111.373 153.871 111 152.476C99.6532 141.729 91.3173 144.745 85.122 157.518C80.3024 170.338 72.5003 171.788 70.6173 165.226C69.8718 162.61 70.0654 158.717 71.7602 153.765C71.8891 153.395 72.0181 153.02 72.1638 152.64C78.3083 137.79 64.2099 132.142 54.7693 145.444C51.1882 150.057 45.6264 147.679 44.2432 142.315C43.8544 140.82 43.7973 139.093 44.1924 137.225C47.1504 130.586 48.4111 124.188 43.0499 118.75C40.0405 116.408 37.2659 113.971 34.7988 111.412C34.668 111.282 34.5373 111.146 34.4066 111.01C30.0729 106.43 26.7232 101.468 24.7877 95.9488C24.2864 94.5355 23.8857 93.0852 23.5801 91.5977C27.8896 76.9419 37.3999 71.9219 50.9787 74.4411C52.749 52.3906 63.4925 38.5522 92.6952 41.6138C93.6047 24.7366 101.855 16.0804 123.837 22.811C130.121 17.31 134.515 11.0305 132.784 2.21875C143.581 2.41709 152.535 7.75952 157.895 15.3615C167.572 29.0865 165.552 50.1835 141.593 61.7145C159.91 74.2552 163.172 95.4825 148.544 108.378C154.65 111.354 158.875 115.816 160.473 121.268Z" fill="#FFF3F3"/>
<path d="M82.3633 73.2604C82.3108 73.2594 82.2572 73.2555 82.2037 73.2485C81.4446 73.1471 80.9111 72.4495 81.0123 71.6901L82.3826 61.4146C82.4833 60.6552 83.1792 60.1244 83.941 60.2226C84.7001 60.3241 85.2337 61.0217 85.1324 61.7811L83.7621 72.0566C83.6684 72.7628 83.0585 73.2732 82.3633 73.2604Z" fill="#EF5E8C"/>
<path d="M117.251 93.4401C117.237 93.4398 117.223 93.4393 117.21 93.4388C116.445 93.4023 115.854 92.7522 115.89 91.987L116.385 81.6325C116.422 80.8674 117.084 80.2937 117.837 80.313C118.602 80.3495 119.193 80.9996 119.156 81.7648L118.662 92.1193C118.626 92.8706 117.998 93.4538 117.251 93.4401Z" fill="#6B184E"/>
<path d="M90.6638 92.7621C90.1377 92.7525 89.6405 92.4428 89.4169 91.9293C89.1105 91.2272 89.4313 90.4095 90.1339 90.1032L99.6362 85.9597C100.339 85.6534 101.157 85.9749 101.462 86.6769C101.768 87.379 101.448 88.1967 100.745 88.503L91.2427 92.6465C91.0542 92.7286 90.8567 92.7657 90.6638 92.7621Z" fill="#4AC1BF"/>
<path d="M107.598 41.6543C107.584 41.6106 107.571 41.5653 107.561 41.519C107.419 40.8625 107.836 40.2151 108.493 40.0732L117.379 38.1529C118.035 38.0105 118.68 38.4271 118.825 39.0849C118.967 39.7414 118.55 40.3888 117.893 40.5307L109.007 42.4511C108.397 42.5834 107.794 42.2317 107.598 41.6543Z" fill="#EF5E8C"/>
<path d="M133.729 33.8328C133.738 33.8243 133.746 33.8155 133.755 33.8072C134.235 33.3378 135.006 33.3468 135.475 33.8272L141.828 40.3303C142.297 40.811 142.27 41.5787 141.808 42.0507C141.327 42.5201 140.557 42.5111 140.087 42.0307L133.735 35.5276C133.274 35.0556 133.274 34.3043 133.729 33.8328Z" fill="#4AC1BF"/>
<path d="M130.009 47.0959C130.431 46.9096 130.941 46.9726 131.308 47.2987C131.811 47.7444 131.857 48.5132 131.411 49.0161L125.379 55.8169C124.932 56.3197 124.163 56.3655 123.661 55.9195C123.159 55.4738 123.112 54.705 123.558 54.2021L129.591 47.4013C129.711 47.2665 129.854 47.1642 130.009 47.0959Z" fill="#6B184E"/>
<path d="M1.68164 232.542C5.17115 242.891 11.8751 250.767 20.3577 255.773C13.7281 250.801 8.51694 243.846 5.58542 235.145L18.5661 183.808C17.2563 181.997 16.1852 180.179 15.3747 178.383L1.68164 232.542Z" fill="white"/>
<path d="M36.2379 113.65L34.797 111.42L32.9297 108.539C33.3968 109.397 33.8977 110.222 34.4048 111.019C34.9982 111.94 35.6149 112.817 36.2379 113.65Z" fill="white"/>
<path d="M22.6925 93.9688L26.1354 101.114C22.2626 102.868 21.5683 111.969 24.8 119.737C19.0922 111.107 17.391 102.507 22.6925 93.9688Z" fill="white"/>
<path d="M157.875 16.4161C157.869 16.4215 157.869 16.4271 157.869 16.4271C151.464 11.8862 144.989 8.81472 138.414 8.11672C137.487 17.4568 133.976 23.4029 126.736 24.4575C118.882 23.9248 112.135 24.4114 107.048 26.4269C109.632 31.6746 103.539 36.4522 99.1034 32.9131C97.1436 36.2737 96.3898 40.7497 97.0987 46.579C89.6861 43.4459 80.4207 44.4911 72.4177 48.4178C75.2357 54.8409 66.0222 62.1307 60.4288 57.8489C54.8632 64.7507 52.4261 73.8467 56.3673 83.7812L52.5589 79.6154C46.4809 78.1496 40.3518 78.8584 35.7797 82.4319C42.0512 87.259 36.7877 97.3519 29.2123 94.9261C28.9778 100.438 30.6077 105.375 32.9113 109.585L27.5468 101.3C26.5327 98.5012 24.7527 93.5844 23.9844 91.2949C28.4744 77.6858 37.8056 73.0565 50.9585 75.4958C52.7287 53.4453 63.4722 39.6069 92.6751 42.6685C93.5845 25.7913 101.835 17.1351 123.817 23.8657C130.1 18.3647 134.495 12.0852 132.764 3.27344C143.56 3.47167 152.514 8.81422 157.875 16.4161Z" fill="white"/>
<path d="M14.6987 169.386L16.5986 161.387C22.7101 160.402 26.543 145.048 21.2596 141.765L26.1693 121.096C24.9831 119.503 23.8703 117.846 22.8309 116.117L10.7949 166.783C12.4303 172.624 15.1721 178.058 18.7721 182.997L18.5684 183.809C22.5678 189.36 28.7714 194.863 36.3103 199.585C35.0447 198.691 33.8239 197.775 32.6589 196.838C34.3178 198.073 36.039 199.242 37.8114 200.346C26.7342 192.472 18.1884 181.843 14.6987 169.386Z" fill="white"/>
<g opacity="0.19">
<path d="M97.8652 125.886C96.5322 129.357 88.4036 132.748 81.064 129.93C73.7244 127.113 69.9532 119.153 71.286 115.681C72.619 112.209 77.3176 117.79 84.6572 120.608C91.9968 123.426 99.1981 122.414 97.8652 125.886Z" fill="white"/>
</g>
<path d="M72.1537 154.88C72.1282 154.88 72.1026 154.88 72.0765 154.878C71.8958 154.87 71.7117 154.832 71.5432 154.767C65.7045 152.494 60.079 149.855 54.8228 146.924C54.0199 146.476 53.7321 145.462 54.1799 144.659C54.6278 143.856 55.6424 143.568 56.4444 144.016C61.5562 146.867 67.029 149.435 72.712 151.649C73.3808 151.89 73.8464 152.544 73.8125 153.291C73.7719 154.184 73.0377 154.88 72.1537 154.88Z" fill="#6B184E"/>
<path d="M96.5082 147.736C96.4852 147.736 96.4508 147.736 96.4276 147.735C95.5088 147.697 94.7953 146.921 94.8335 146.002C94.8713 145.092 95.6212 144.374 96.5415 144.407C97.4451 144.426 98.1724 145.164 98.1724 146.072C98.172 146.991 97.4276 147.736 96.5082 147.736Z" fill="#6B184E"/>
<path d="M126.612 163.662C125.757 163.662 125.029 163.006 124.955 162.138C124.878 161.222 125.557 160.416 126.473 160.339C141.874 159.028 152.653 153.846 155.309 146.477C155.697 145.405 155.923 144.273 155.988 143.088C150.578 146.646 142.49 149.107 132.767 150.11C131.849 150.205 131.034 149.539 130.94 148.625C130.845 147.71 131.51 146.892 132.425 146.798C143.165 145.69 151.669 142.789 156.37 138.629C156.825 138.225 157.464 138.103 158.037 138.31C158.609 138.516 159.024 139.018 159.117 139.619C159.561 142.454 159.333 145.142 158.44 147.607C155.286 156.36 143.737 162.21 126.755 163.656C126.708 163.66 126.659 163.662 126.612 163.662Z" fill="#6B184E"/>
<path d="M115.245 163.93L115.24 163.929C105.449 163.628 94.8713 161.965 84.6747 159.12C83.7892 158.873 83.2717 157.955 83.5187 157.069C83.7657 156.183 84.6846 155.667 85.5695 155.913C95.5119 158.687 105.816 160.309 115.366 160.603L115.321 162.267L115.245 163.93Z" fill="#6B184E"/>
<path d="M105.65 149.385C105.635 149.385 105.619 149.385 105.604 149.384C105.189 149.376 104.777 149.213 104.46 148.897C103.81 148.247 103.81 147.193 104.46 146.543C104.882 146.122 105.485 145.968 106.04 146.102C106.799 146.285 107.348 146.986 107.311 147.796C107.271 148.688 106.534 149.385 105.65 149.385Z" fill="#6B184E"/>
<path d="M44.7815 140.311C44.4485 140.311 44.1122 140.212 43.8199 140.004C23.7752 125.784 13.6007 108.883 17.8987 96.9478C18.7926 94.4732 20.3331 92.2583 22.4777 90.3627C22.9344 89.9592 23.5743 89.838 24.1455 90.0441C24.7175 90.2506 25.1316 90.753 25.2248 91.3542C26.6441 100.477 35.0095 111.826 47.6017 121.714C48.325 122.282 48.4507 123.328 47.8831 124.051C47.3149 124.774 46.2678 124.9 45.546 124.332C33.6938 115.026 25.3781 104.323 22.6569 95.0548C21.9595 96.0011 21.4154 97.0113 21.0304 98.0775C17.3118 108.404 27.2437 124.163 45.7458 137.289C46.4957 137.821 46.6725 138.86 46.1407 139.61C45.8162 140.067 45.3026 140.311 44.7815 140.311Z" fill="#6B184E"/>
<path d="M157.473 141.549C157.197 141.549 156.918 141.481 156.661 141.337C155.859 140.888 155.573 139.873 156.021 139.071C159.456 132.937 160.356 125.668 158.372 120.1C156.709 115.435 153.19 112.014 147.913 109.933C147.058 109.595 146.639 108.628 146.976 107.773C147.314 106.918 148.28 106.498 149.135 106.835C155.258 109.25 159.536 113.451 161.508 118.982C163.805 125.429 162.816 133.75 158.927 140.698C158.622 141.242 158.056 141.549 157.473 141.549Z" fill="#6B184E"/>
<path d="M23.5848 93.2737C23.4935 93.2737 23.4011 93.2661 23.3078 93.2504C22.4012 93.0986 21.7893 92.2404 21.9411 91.3336C23.0352 84.8023 26.9955 78.9351 32.8066 75.2364C38.5716 71.5667 45.5618 70.4811 51.9942 72.2569C52.7172 72.4387 53.2543 73.0925 53.2543 73.8714C53.2543 74.7907 52.5118 75.5359 51.5925 75.5359H51.5866C51.4358 75.5359 51.2861 75.5155 51.1406 75.4753C45.6079 73.9366 39.5763 74.8734 34.594 78.0449C29.578 81.2378 26.1629 86.2817 25.2244 91.8836C25.0885 92.6971 24.3833 93.2734 23.5848 93.2737Z" fill="#6B184E"/>
<path d="M142.425 60.2833C145.939 62.3428 148.953 65.0781 151.47 68.1864C153.984 71.2999 155.994 74.8235 157.344 78.6161C158.69 82.4032 159.35 86.4925 159.034 90.5681C158.879 92.6023 158.48 94.6244 157.842 96.5669C157.213 98.5139 156.305 100.372 155.317 102.082C153.346 105.553 150.749 108.764 147.527 111.283C144.306 113.798 140.477 115.525 136.535 116.356C132.588 117.209 128.569 117.258 124.672 116.865C120.769 116.45 116.967 115.573 113.302 114.357C113.01 114.26 112.852 113.944 112.948 113.652C113.034 113.395 113.288 113.242 113.546 113.274L113.551 113.275C117.337 113.747 121.096 114.16 124.829 114.185C128.555 114.23 132.251 113.91 135.755 113.023C139.253 112.134 142.561 110.673 145.403 108.517C148.264 106.386 150.608 103.567 152.435 100.415C153.355 98.8175 154.13 97.222 154.678 95.5301C155.233 93.8427 155.579 92.0889 155.714 90.3137C155.99 86.7599 155.417 83.1375 154.207 79.7305C152.994 76.3208 151.166 73.1073 148.878 70.2761C146.591 67.4486 143.845 64.9735 140.757 63.1648L140.742 63.1559C139.949 62.6914 139.682 61.6716 140.147 60.8783C140.611 60.0851 141.631 59.8185 142.424 60.2832L142.425 60.2833Z" fill="#6B184E"/>
<path d="M65.1261 92.9983C61.9367 91.2073 58.9678 88.9608 56.3873 86.2359C55.7351 85.5617 55.1234 84.8429 54.5444 84.0941C53.962 83.3483 53.407 82.5721 52.9005 81.7611C51.8932 80.1346 51.0468 78.3806 50.4479 76.5268C49.8807 74.6658 49.5128 72.7274 49.4414 70.7777C49.3737 68.8278 49.5603 66.8838 49.935 64.9977C50.3176 63.1117 50.9073 61.2917 51.6167 59.5365C52.3254 57.7801 53.1919 56.0812 54.2058 54.4728C56.2267 51.2487 58.8721 48.4186 61.9086 46.1452C64.9486 43.8705 68.3649 42.1455 71.9366 40.9639C75.5106 39.7799 79.2417 39.125 82.9957 38.9853C86.7484 38.8568 90.5404 39.2279 94.2116 40.3139C95.0933 40.5747 95.5965 41.5009 95.3357 42.3823C95.0749 43.2638 94.1487 43.7673 93.2673 43.5065L93.2663 43.5063L93.2567 43.5034C90.0181 42.5431 86.5511 42.1924 83.1156 42.3124C79.6759 42.4402 76.2454 43.0429 72.9843 44.1243C69.7234 45.2028 66.6319 46.7694 63.9046 48.8101C61.1798 50.8516 58.8272 53.3695 57.0223 56.2483C55.2171 59.1143 53.8965 62.3558 53.2622 65.6469C52.6558 68.9471 52.8374 72.3101 53.8307 75.4632C54.8072 78.6239 56.4993 81.5984 58.6132 84.3333C60.7149 87.0849 63.2055 89.6043 65.7879 92.1074C66.0106 92.3217 66.0172 92.6759 65.8031 92.8985C65.623 93.0854 65.3423 93.1188 65.1261 92.9983Z" fill="#6B184E"/>
<path d="M113.972 59.0922C112.005 58.8975 110.036 58.5104 108.114 57.875C106.192 57.2418 104.325 56.3459 102.609 55.24C101.741 54.7005 100.931 54.0859 100.137 53.4676C99.7367 53.1588 99.3545 52.8395 98.9659 52.5203C98.5841 52.1748 98.1925 51.8399 97.8266 51.4738C97.0806 50.7593 96.3724 49.9958 95.7277 49.1769C95.0789 48.3624 94.4648 47.5109 93.9435 46.5981C91.7903 42.9974 90.7246 38.6525 91.196 34.3906C91.641 30.1365 93.7142 26.0292 96.9522 23.2044C98.5588 21.7858 100.418 20.6726 102.388 19.9046C104.357 19.1246 106.425 18.6788 108.492 18.4711C112.639 18.0839 116.767 18.6621 120.63 19.8452C121.599 20.1382 122.548 20.4903 123.472 20.8498C124.355 21.2004 125.196 21.5068 126.082 21.7882C127.827 22.3584 129.611 22.7506 131.388 22.9028C132.276 22.9686 133.162 22.9655 134.035 22.8839C134.909 22.798 135.762 22.604 136.59 22.3255C138.239 21.7468 139.736 20.7029 140.971 19.304L140.973 19.3018C141.177 19.0705 141.53 19.0483 141.761 19.2524C141.959 19.4275 142.003 19.7125 141.883 19.936C140.917 21.7268 139.371 23.306 137.464 24.2921C135.563 25.2902 133.405 25.7168 131.314 25.7497C129.212 25.7973 127.156 25.4636 125.176 24.9769C124.197 24.7287 123.201 24.4107 122.266 24.0925C121.375 23.7715 120.494 23.4804 119.606 23.2191C117.835 22.6761 116.032 22.2649 114.223 22.0075C113.318 21.8695 112.41 21.802 111.503 21.7523C110.597 21.7305 109.692 21.743 108.796 21.8174C105.218 22.0976 101.756 23.3968 99.1549 25.701C97.8544 26.8468 96.7758 28.2316 95.9918 29.7724C95.2073 31.3135 94.7333 33.0093 94.5627 34.7379C94.3898 36.469 94.557 38.2321 94.9818 39.9305C95.4068 41.6304 96.0838 43.2776 96.9933 44.8041C97.8911 46.3368 98.9854 47.7699 100.232 49.0819C100.537 49.4161 100.871 49.7248 101.193 50.0447C101.532 50.3663 101.87 50.6959 102.216 51.006C102.901 51.6392 103.612 52.2303 104.331 52.8024C105.774 53.9438 107.322 54.9323 108.982 55.7826C110.641 56.6349 112.406 57.3386 114.216 58.0093L114.222 58.0113C114.511 58.1186 114.659 58.4402 114.551 58.73C114.461 58.9736 114.219 59.1168 113.972 59.0922Z" fill="#6B184E"/>
<path d="M123.036 21.362C124.686 20.4483 126.18 19.2822 127.428 17.8936C128.676 16.5072 129.676 14.9018 130.377 13.1683C131.791 9.69889 131.984 5.74221 131.04 2.07739L131.038 2.06954C130.809 1.18387 131.342 0.280483 132.228 0.0520731C132.395 0.00912681 132.57 -0.00615802 132.734 0.00218986C136.961 0.238948 141.221 0.99297 145.216 2.60572C149.21 4.19021 152.923 6.58926 155.947 9.68934C158.978 12.7803 161.317 16.5321 162.795 20.578C164.289 24.6232 164.946 28.9418 164.848 33.2331C164.744 37.526 163.832 41.8059 162.14 45.7818C160.428 49.742 157.898 53.4036 154.629 56.2766C151.362 59.1431 147.433 61.234 143.293 62.323C139.153 63.4277 134.852 63.59 130.737 63.0037C130.432 62.9602 130.22 62.6778 130.263 62.3729C130.301 62.1089 130.518 61.9144 130.773 61.8955L130.782 61.8948C134.824 61.5909 138.775 60.9649 142.445 59.6102C146.105 58.2661 149.484 56.2975 152.288 53.6819C155.095 51.0784 157.362 47.8986 158.918 44.3734C160.498 40.8604 161.38 37.0114 161.496 33.1347C161.63 29.2585 161.001 25.3584 159.671 21.7309C158.346 18.1002 156.259 14.7637 153.567 12.0177C150.879 9.2646 147.583 7.12856 143.985 5.69896C140.388 4.24432 136.491 3.54893 132.57 3.32766L134.265 1.25276C135.374 5.55825 135.161 10.243 133.463 14.4181C132.62 16.5023 131.411 18.4461 129.903 20.12C128.397 21.7971 126.598 23.1967 124.645 24.2771C123.84 24.7221 122.827 24.4306 122.382 23.6259C121.937 22.8214 122.229 21.8085 123.033 21.3636L123.036 21.362Z" fill="#6B184E"/>
<path d="M75.1176 100.329C76.5663 100.815 77.8478 101.463 79.1139 102.113C80.3711 102.774 81.5838 103.473 82.7915 104.181L86.4308 106.293C87.6511 107.004 88.8835 107.71 90.1312 108.519L90.1366 108.522C90.4037 108.695 90.4799 109.052 90.3065 109.319C90.1947 109.492 90.0051 109.584 89.8137 109.582C88.2812 109.557 86.7856 109.258 85.3412 108.819C83.8949 108.38 82.5048 107.78 81.1794 107.071C79.8525 106.365 78.5972 105.532 77.4517 104.565C76.3148 103.587 75.2583 102.511 74.429 101.199C74.2554 100.925 74.3372 100.562 74.612 100.388C74.7666 100.29 74.9493 100.273 75.1106 100.327L75.1176 100.329Z" fill="#6B184E"/>
<path d="M80.9984 214.676C68.9385 214.676 55.8479 211.496 43.3808 205.227C24.1219 195.543 11.3313 180.816 9.16555 165.833C9.13508 165.623 9.14544 165.409 9.19552 165.202L21.2112 115.725C21.4283 114.832 22.3275 114.283 23.2218 114.501C24.1151 114.718 24.6636 115.618 24.4466 116.511L12.508 165.671C14.6531 179.472 26.7263 193.126 44.8762 202.253C66.0626 212.906 88.9945 214.311 104.861 205.957L133.552 159.96C134.039 159.18 135.066 158.942 135.845 159.428C136.625 159.915 136.863 160.942 136.377 161.722L107.45 208.097C107.298 208.342 107.084 208.543 106.829 208.681C99.4062 212.692 90.5237 214.676 80.9984 214.676Z" fill="#6B184E"/>
<path d="M44.5776 264.129C37.1792 264.129 29.6645 262.389 22.7204 258.954C11.567 253.437 3.3127 244.308 0.0749289 233.907C-0.015389 233.616 -0.0242426 233.305 0.0493796 233.009L13.7579 177.981C13.9804 177.089 14.8865 176.546 15.7754 176.769C16.6677 176.991 17.2108 177.894 16.9884 178.786L3.39437 233.356C6.45784 242.71 14.0149 250.934 24.1968 255.969C35.1286 261.377 47.5568 262.286 58.3821 258.49L91.8259 210.854C92.3538 210.102 93.3925 209.921 94.1449 210.449C94.8972 210.977 95.0789 212.015 94.5505 212.768L60.8033 260.835C60.6079 261.114 60.3318 261.326 60.0121 261.442C55.097 263.238 49.8663 264.128 44.5776 264.129Z" fill="#6B184E"/>
<path d="M74.7799 171.896C72.9112 171.896 71.213 171.091 69.9853 169.585C67.1821 166.147 67.3471 160.076 70.438 152.926C70.4488 152.901 70.4602 152.876 70.4724 152.851C73.9415 145.803 72.3077 141.627 69.6219 140.069C66.971 138.531 62.6532 139.121 59.8701 143.242C59.8564 143.262 59.8422 143.282 59.8274 143.302C53.8572 151.35 48.5916 149.612 47.1202 148.887C43.5844 147.146 41.948 142.592 43.2135 138.04L43.2902 137.657C44.5474 131.381 46.6517 120.879 42.5363 114.714C42.0256 113.95 42.2319 112.916 42.9965 112.406C43.7607 111.894 44.7949 112.101 45.3051 112.866C50.1871 120.179 47.9134 131.529 46.5545 138.311L46.4656 138.755C46.4567 138.799 46.4465 138.841 46.4346 138.884C45.5884 141.862 46.5151 144.878 48.5906 145.9C50.9547 147.063 54.1444 145.362 57.1327 141.346C61.0478 135.581 67.3461 134.9 71.2925 137.189C75.0907 139.393 77.9376 145.191 73.478 154.284C70.5019 161.188 71.0539 165.628 72.5655 167.481C73.3047 168.387 74.3222 168.735 75.5092 168.488C77.8596 167.998 81.3023 164.934 83.27 157.91C83.9826 155.362 85.0179 153.036 86.3473 150.999C89.6642 145.914 95.2077 143.452 101.18 144.416C107.477 145.432 112.415 149.949 114.066 156.205C115.252 160.697 117.908 163.329 121.01 163.073C125.197 162.728 130.19 157.152 131.26 145.727C131.345 144.812 132.149 144.139 133.072 144.225C133.988 144.311 134.66 145.122 134.575 146.038C133.319 159.443 126.995 165.92 121.284 166.391C116.471 166.788 112.473 163.211 110.848 157.055C109.536 152.09 105.629 148.506 100.65 147.703C96.0169 146.958 91.7125 148.868 89.1357 152.817C87.9919 154.571 87.0971 156.586 86.4764 158.807C84.4649 165.987 80.6191 170.824 76.1889 171.747C75.7119 171.847 75.2405 171.896 74.7799 171.896Z" fill="#6B184E"/>
<g opacity="0.3">
<path d="M82.3713 227.211L83.6212 227.145L59.4442 259.872C40.698 264.029 24.4775 261.805 12.2324 249.532C21.0206 255.733 31.9205 257.695 41.7887 257.339C46.4514 257.171 50.7055 254.629 53.1669 250.665L56.0427 246.034C60.3231 239.142 57.0969 230.141 49.4732 227.364C30.4858 220.448 15.2816 203.718 13.7663 184.748L16.5399 179.688C32.4279 202.723 57.7042 213.798 92.789 212.378L82.3713 227.211Z" fill="#6B184E"/>
</g>
<g opacity="0.3">
<path d="M84.7819 212.516C82.7461 212.767 80.7111 212.968 78.7383 213.109L78.9741 212.653C80.9216 212.689 82.8593 212.641 84.7819 212.516Z" fill="#6B184E"/>
</g>
<g opacity="0.3">
<path d="M109.691 201.359L109.461 201.771C109.45 201.777 109.433 201.788 109.422 201.793L109.691 201.359Z" fill="#6B184E"/>
</g>
<g opacity="0.3">
<path d="M108.251 202.38C108.643 202.187 109.035 201.989 109.422 201.785L106.037 207.212C99.4752 210.311 92.2457 212.02 84.7832 212.51C82.8605 212.636 80.9228 212.684 78.9754 212.648C49.8199 212.146 15.1881 193.622 11.9844 165.297C14.0939 194.59 64.0658 208.458 75.3369 207.092C79.1617 206.629 82.8434 205.415 84.6211 201.996L91.9625 187.861C94.6163 182.751 91.367 176.591 85.6587 175.84C84.1233 175.637 82.6007 175.376 81.0922 175.058C74.7263 185.037 63.7169 181.022 65.2382 169.506C60.1288 166.976 55.275 163.823 50.7409 160.188C44.8801 165.935 39.8953 159.644 41.0383 151.202L41.0384 151.196C32.8622 142.499 26.2181 132.271 21.6225 121.708L22.6933 116.289C28.4416 124.83 35.3681 132.067 43.388 138.097C42.2518 146.174 49.6918 151.133 54.1143 145.437C54.1713 145.355 54.2339 145.273 54.2909 145.191C59.6248 148.186 65.3327 150.766 71.3919 152.953C64.7723 171.001 77.6171 175.71 84.4669 157.51C84.5534 157.334 84.6343 157.164 84.7262 156.993C94.1565 159.359 104.295 160.944 115.084 161.813C118.109 164.866 121.747 164.972 124.947 162.394C127.254 162.486 129.59 162.546 131.953 162.578L108.251 202.38Z" fill="#6B184E"/>
</g>
<g opacity="0.3">
<path d="M161.156 125.243C161.181 125.704 161.189 126.165 161.18 126.636C161.108 130.548 159.831 134.814 157.14 139.299C156.999 139.424 156.853 139.544 156.706 139.663C152.115 143.358 144.516 145.561 137.356 146.484C137.468 146.763 137.595 147.071 137.739 147.412C136.111 147.515 134.452 147.496 132.75 147.365C129.563 165.571 117.853 169.812 112.274 156.274C111.801 155.133 111.375 153.871 111.001 152.476C99.6543 141.729 91.3184 144.745 85.1231 157.518C78.3782 175.448 65.809 171.143 71.7613 153.765L71.9701 153.58C68.7831 165.737 76.3446 166.508 80.4624 154.735C86.0358 137.743 96.3725 134.87 109.446 139.844C120.92 144.217 132.865 133.853 129.831 121.954C128.9 118.29 119.596 114.504 116.444 114.446L119.169 114.265C137.797 107.797 149.573 75.1088 131.337 62.6306C158.153 50.8967 155.931 13.5827 133.137 5.11677C133.099 4.18372 132.978 3.21577 132.785 2.21875C163.072 2.77504 178.83 43.7952 141.594 61.7145C159.911 74.2552 163.173 95.4825 148.545 108.378C154.651 111.354 158.87 115.816 160.468 121.262L160.474 121.268C160.521 121.424 160.562 121.586 160.604 121.747C160.661 121.948 160.708 122.149 160.754 122.355C160.789 122.522 160.825 122.689 160.861 122.862C160.876 122.951 160.891 123.035 160.912 123.124C160.936 123.291 160.966 123.458 160.985 123.63C161.07 124.159 161.121 124.698 161.156 125.243Z" fill="#6B184E"/>
</g>
<g opacity="0.3">
<path d="M133.425 147.415C133.185 147.477 132.951 147.534 132.711 147.591C132.723 147.519 132.736 147.447 132.748 147.375C132.975 147.39 133.197 147.405 133.425 147.415Z" fill="#6B184E"/>
</g>
<g opacity="0.3">
<path d="M157.023 142.07C158.003 154.09 142.451 159.703 128.113 161.274C130.572 156.846 132.285 153.523 132.871 148.433C140.862 147.826 148.918 145.569 157.023 142.07Z" fill="#6B184E"/>
</g>
<g opacity="0.3">
<path d="M137.355 146.492C144.515 145.569 152.115 143.367 156.706 139.672C151.086 144.392 144.766 146.995 137.738 147.421C137.594 147.08 137.467 146.772 137.355 146.492Z" fill="#6B184E"/>
</g>
<g opacity="0.3">
<path d="M73.5916 144.656C72.6356 136.269 62.2432 134.924 54.7684 145.453C51.1872 150.066 45.6254 147.689 44.2422 142.324C44.911 138.846 45.4245 136.274 45.4245 136.274C47.1426 144.253 52.7302 140.699 59.252 133.709C62.1166 130.637 66.6483 129.571 70.4735 131.312C74.2765 133.047 75.0459 137.384 73.5916 144.656Z" fill="#6B184E"/>
</g>
<g opacity="0.3">
<path d="M73.5918 144.656C73.6735 145.346 73.6876 146.09 73.6287 146.877C73.3557 146.633 73.1973 146.497 73.1973 146.497C73.3476 145.862 73.4755 145.248 73.5918 144.656Z" fill="#6B184E"/>
</g>
<g opacity="0.3">
<path d="M56.0176 145.114C63.6697 130.705 79.6169 139.174 71.9648 153.583L56.0176 145.114Z" fill="#6B184E"/>
</g>
<g opacity="0.3">
<path d="M114.184 160.763C107.375 162.125 96.5298 160.464 86.3066 157.369C88.402 140.157 112.068 143.292 114.184 160.763Z" fill="#6B184E"/>
</g>
<g opacity="0.3">
<path d="M47.0836 120.781C45.8923 110.827 40.8222 105.94 36.8124 113.411C38.6932 121.003 38.0946 126.43 30.9824 126.17C30.9824 126.17 44.5319 138.395 44.7205 138.423C44.9091 138.451 47.0836 120.781 47.0836 120.781Z" fill="#6B184E"/>
</g>
</svg>
