<svg width="280" height="280" viewBox="0 0 280 280" fill="none" xmlns="http://www.w3.org/2000/svg">
<g clip-path="url(#clip0_4352_111474)">
<path d="M270.437 73.8134C270.437 73.8134 262.748 74.7746 257.942 81.022C257.942 81.022 260.345 74.2941 260.345 72.8522C260.345 71.4105 257.942 71.4105 257.942 71.4105C257.942 71.4105 257.942 69.0077 257.462 68.527C256.981 68.0464 255.539 68.0464 255.539 68.0464C255.539 68.0464 254.578 76.2163 253.617 78.6191C253.617 78.6191 253.617 66.6047 252.656 65.163C251.695 63.7213 248.331 63.2407 248.811 64.2019C249.254 65.0868 251.733 71.2677 251.374 74.1178C251.374 74.1178 248.811 70.4494 247.37 69.9688C245.928 69.4881 245.928 71.8911 245.928 71.8911C245.928 71.8911 252.175 75.2552 246.889 84.3861C241.603 93.517 209.404 140.613 197.39 147.822C197.39 147.822 187.778 125.716 170.478 116.585C170.478 116.585 184.848 88.5466 179.128 68.527C173.361 48.343 147.891 24.7947 108.964 32.4839C59.0218 42.349 33.0329 80.0609 31.1106 111.779C29.1882 143.497 58.5034 158.395 63.7898 159.836C63.7898 159.836 68.5956 176.657 58.5035 184.826C48.4115 192.996 33.5135 195.399 24.3826 190.593L23.6305 193.052L31.1107 195.88C31.1107 195.88 17.6546 193.957 17.6546 194.438C17.6546 194.918 17.6546 196.809 17.6546 196.809L28.2273 197.802L16.2129 200.685L16.6935 204.049C16.6935 204.049 27.7468 200.685 31.1107 200.685L24.3826 207.894L27.266 208.855L34.9553 200.685C34.9553 200.685 57.5423 203.088 68.5956 188.671C79.6489 174.254 73.4014 161.759 73.4014 161.759C73.4014 161.759 94.0661 164.642 106.561 159.836C106.561 159.836 112.809 170.89 117.614 172.812C117.614 172.812 103.197 198.763 106.561 218.947C109.925 239.131 126.265 253.548 151.735 247.782C177.206 242.015 192.104 218.947 199.312 197.802C206.521 176.656 201.235 159.836 201.235 159.836C201.235 159.836 226.705 134.846 237.278 120.429C247.85 106.012 258.904 84.8664 258.904 84.8664C258.904 84.8664 265.151 75.7355 271.879 76.2161L270.437 73.8134ZM187.778 155.511C161.827 180.021 132.993 168.487 132.993 168.487C134.915 164.162 164.711 124.274 164.711 124.274C185.375 133.405 187.778 155.511 187.778 155.511ZM149.813 119.949L154.619 120.91C154.619 120.91 129.148 155.511 123.381 164.162C123.381 164.162 118.575 158.74 118.575 154.483C118.575 154.483 142.604 139.652 149.813 119.949ZM118.575 142.055C118.575 142.055 126.265 124.274 138.279 121.39C138.279 121.39 128.187 137.73 118.575 142.055ZM62.1748 147.736C62.1748 147.736 47.4501 136.769 43.6056 126.677C39.761 116.585 32.5523 86.7889 76.2848 55.5516C120.017 24.3142 162.308 48.8234 169.517 68.0466C176.725 87.2695 160.386 112.156 160.386 112.156L153.658 110.818C156.06 102.648 156.541 80.0608 132.993 71.4105C111.863 63.6485 87.0178 75.8696 70.5179 95.4392C49.8531 119.949 62.0759 147.945 62.1748 147.736ZM104.158 149.744C89.7408 157.434 71.479 152.147 71.479 152.147C70.9984 149.264 60.5999 118.577 84.9351 97.3616C103.678 81.022 124.342 78.6191 132.993 84.8666C146.29 94.4704 140.682 110.337 140.682 110.337C104.639 115.623 104.158 149.744 104.158 149.744ZM181.05 213.18C168.075 231.923 156.541 241.361 136.597 236.882C116.653 232.403 111.367 197.802 126.265 177.137C126.265 177.137 138.76 185.787 159.424 180.021C180.089 174.254 190.181 166.564 190.181 166.564C190.181 166.564 194.026 194.438 181.05 213.18Z" fill="#D18C32"/>
<path d="M154.621 120.906C154.621 120.906 154.312 121.326 153.756 122.082C154.328 121.386 154.661 120.946 154.621 120.906Z" fill="#C27F29"/>
<path d="M68.8712 133.09C65.6102 132.392 60.7088 130.372 58.6256 124.555C57.7081 137.863 62.1172 147.865 62.1764 147.739C62.1764 147.739 69.3179 151.43 71.4805 152.151C71.2515 150.775 68.7676 143.072 68.8712 133.09Z" fill="#C27F29"/>
<path d="M62.1764 147.736C62.1764 147.736 62.0233 147.622 61.7539 147.414C61.8992 147.553 62.0405 147.664 62.1764 147.736Z" fill="#C27F29"/>
<path d="M64.1734 175.519C65.655 175.177 67.3078 175.104 68.8657 175.712C71.1577 176.607 72.6526 178.316 73.5602 179.736C77.2468 169.455 73.4026 161.758 73.4026 161.758C68.8372 161.037 63.791 159.836 63.791 159.836C63.791 159.836 66.0818 167.862 64.1734 175.519Z" fill="#C27F29"/>
<path d="M90.9961 153.62C93.7615 157.693 92.5186 160.781 91.1831 162.53C96.4698 162.303 102.05 161.57 106.563 159.834C104.881 156.71 104.16 149.742 104.16 149.742C99.9169 152.005 95.3421 153.139 90.9961 153.62Z" fill="#C27F29"/>
<path d="M124.493 138.086C122.562 139.753 120.559 141.161 118.575 142.054C118.575 142.054 115.932 150.809 118.575 154.481C118.575 154.481 123.05 151.719 128.715 146.997C126.774 144.909 124.489 141.683 124.493 138.086Z" fill="#C27F29"/>
<path d="M131.94 152.023C128.197 157.227 125.008 161.725 123.383 164.163C126.096 166.943 129.221 168.597 132.994 168.488C133.554 167.229 136.476 162.956 140.335 157.533C135.281 156.774 133.196 154.136 131.94 152.023Z" fill="#C27F29"/>
<path d="M126.267 177.145C123.143 176.425 117.616 172.82 117.616 172.82C117.616 172.82 115.189 177.191 112.559 183.739C115.675 184.417 118.373 186.193 120.559 188.204C121.939 184.274 123.832 180.523 126.267 177.145Z" fill="#C27F29"/>
<path d="M126.268 177.141C126.268 177.141 126.44 177.258 126.762 177.451C126.615 177.292 126.452 177.183 126.268 177.141Z" fill="#C27F29"/>
<path d="M138.28 121.389C139 119.227 140.923 110.576 140.682 110.336C133.382 111.407 127.541 113.661 122.867 116.574C126.258 119.603 126.859 125.574 126.899 129.047C129.989 125.559 133.837 122.455 138.28 121.389Z" fill="#C27F29"/>
<path d="M137.664 122.351C137.978 121.967 138.197 121.638 138.279 121.391C138.279 121.391 138.06 121.745 137.664 122.351Z" fill="#C27F29"/>
<path d="M149.814 119.961L147.402 125.316C148.329 123.578 149.144 121.791 149.814 119.961Z" fill="#C27F29"/>
<path d="M149.814 119.944L152.717 120.524C154.326 117.714 155.829 114.618 156.884 111.454L153.659 110.812L149.814 119.944Z" fill="#C27F29"/>
<path d="M144.426 134.814C147.206 134.145 151.831 133.609 156.205 135.733C161.046 129.176 164.711 124.269 164.711 124.269C165.49 123.45 154.856 120.163 154.619 120.905C154.602 120.959 154.327 121.385 153.755 122.081C152.179 124.225 148.615 129.079 144.426 134.814Z" fill="#C27F29"/>
<path d="M160.387 112.159C160.387 112.159 168.797 113.944 170.479 116.587C170.479 116.587 173.192 111.292 175.791 103.663C172.305 102.725 168.816 101.426 166.734 99.6875C163.737 107.056 160.387 112.159 160.387 112.159Z" fill="#C27F29"/>
<path d="M171.082 116.912C170.883 116.802 170.684 116.692 170.482 116.586C170.61 116.786 170.819 116.884 171.082 116.912Z" fill="#C27F29"/>
<path d="M184.498 144.411C187.243 150.58 187.781 155.516 187.781 155.516C191.385 154.314 197.393 147.826 197.393 147.826C197.393 147.826 195.528 143.539 191.964 137.961C190.286 140.94 187.421 142.998 184.498 144.411Z" fill="#C27F29"/>
<path d="M190.486 182.757C193.879 180.134 198.3 178.324 202.85 180.919C203.911 168.371 201.233 159.836 201.233 159.836C201.233 159.836 193.304 165.363 190.18 166.564C190.18 166.564 191.134 173.489 190.486 182.757Z" fill="#C27F29"/>
<path d="M154.621 120.906C154.621 120.906 154.312 121.326 153.756 122.082C154.328 121.386 154.661 120.946 154.621 120.906Z" fill="#B07325"/>
<path d="M69.4196 142.798C65.354 142.798 61.8523 141.023 59.4199 138.25C60.4971 144.133 62.1414 147.808 62.1774 147.731C62.1774 147.731 69.3189 151.422 71.4815 152.142C71.3349 151.263 70.2666 147.792 69.5423 142.794C69.5015 142.795 69.4606 142.798 69.4196 142.798Z" fill="#B07325"/>
<path d="M62.1784 147.729C62.1784 147.729 62.0252 147.614 61.7559 147.406C61.9012 147.545 62.0424 147.656 62.1784 147.729Z" fill="#B07325"/>
<path d="M69.2056 167.772C71.356 167.772 73.3485 168.268 75.1087 169.146C74.8229 164.606 73.4045 161.758 73.4045 161.758C68.8391 161.037 63.793 159.836 63.793 159.836C63.793 159.836 64.8799 163.645 64.9323 168.519C66.3054 168.038 67.7487 167.772 69.2056 167.772Z" fill="#B07325"/>
<path d="M100.818 157.53C100.88 158.915 100.687 160.261 100.287 161.534C102.502 161.119 104.634 160.569 106.565 159.826C104.883 156.703 104.162 149.734 104.162 149.734C102.608 150.563 101.008 151.238 99.3926 151.787C100.227 153.543 100.727 155.493 100.818 157.53Z" fill="#B07325"/>
<path d="M121.337 150.646C120.69 148.238 120.69 145.83 121.337 143.422C121.794 142.34 122.251 141.259 122.707 140.177C122.937 139.742 123.198 139.33 123.482 138.938C121.868 140.234 120.217 141.326 118.579 142.064C118.579 142.064 115.936 150.819 118.579 154.491C118.579 154.491 119.876 153.688 121.946 152.221C121.742 151.694 121.546 151.164 121.337 150.646Z" fill="#B07325"/>
<path d="M129.05 160.736C128.199 160.179 127.493 159.663 126.866 159.133C125.398 161.212 124.195 162.945 123.383 164.164C126.096 166.943 129.221 168.598 132.994 168.489C133.335 167.721 134.558 165.829 136.333 163.243C133.76 162.933 131.229 162.16 129.05 160.736Z" fill="#B07325"/>
<path d="M126.269 177.13C123.145 176.409 117.618 172.805 117.618 172.805C117.618 172.805 115.191 177.176 112.561 183.723C115.677 184.401 118.375 186.177 120.561 188.189C121.941 184.259 123.833 180.507 126.269 177.13Z" fill="#B07325"/>
<path d="M126.266 177.133C126.266 177.133 126.438 177.251 126.76 177.443C126.613 177.284 126.45 177.175 126.266 177.133Z" fill="#B07325"/>
<path d="M140.684 110.328C136.834 110.893 133.394 111.789 130.312 112.935C131.648 115.051 132.456 117.548 132.574 120.194C132.639 121.645 132.422 123.051 131.982 124.377C133.913 122.996 136.02 121.924 138.281 121.381C139.002 119.219 140.924 110.568 140.684 110.328Z" fill="#B07325"/>
<path d="M137.666 122.351C137.98 121.967 138.199 121.638 138.281 121.391C138.281 121.391 138.062 121.745 137.666 122.351Z" fill="#B07325"/>
<path d="M149.814 119.945L147.402 125.301C148.329 123.563 149.144 121.775 149.814 119.945Z" fill="#B07325"/>
<path d="M149.816 119.944L152.719 120.524C154.328 117.714 155.831 114.618 156.886 111.454L153.661 110.812L149.816 119.944Z" fill="#B07325"/>
<path d="M151.176 126.139C154.871 126.139 158.099 127.607 160.483 129.956C163.049 126.498 164.713 124.269 164.713 124.269C165.492 123.45 154.858 120.163 154.621 120.905C154.604 120.959 154.329 121.385 153.756 122.081C153.086 122.993 152.054 124.398 150.77 126.15C150.905 126.145 151.04 126.139 151.176 126.139Z" fill="#B07325"/>
<path d="M172.634 111.255C168.865 111.255 165.581 109.729 163.184 107.297C161.584 110.332 160.389 112.152 160.389 112.152C160.389 112.152 168.799 113.937 170.481 116.581C170.481 116.581 171.51 114.571 172.907 111.248C172.816 111.249 172.725 111.255 172.634 111.255Z" fill="#B07325"/>
<path d="M171.08 116.912C170.881 116.802 170.682 116.692 170.48 116.586C170.608 116.786 170.817 116.884 171.08 116.912Z" fill="#B07325"/>
<path d="M186.373 149.377C187.509 153.021 187.78 155.503 187.78 155.503C191.385 154.302 197.392 147.814 197.392 147.814C197.392 147.814 196.808 146.471 195.67 144.312C193.356 147.084 189.958 148.999 186.373 149.377Z" fill="#B07325"/>
<path d="M191.78 173.468C193.011 172.143 194.468 171.206 196.153 170.659C197.772 169.808 199.517 169.418 201.387 169.488H201.602C202.034 169.49 202.459 169.517 202.881 169.556C202.386 163.5 201.237 159.836 201.237 159.836C201.237 159.836 193.307 165.363 190.184 166.564C190.184 166.564 190.619 169.726 190.701 174.633C191.028 174.225 191.384 173.835 191.78 173.468Z" fill="#B07325"/>
<path d="M43.8544 143.116C42.9947 143.116 42.1274 142.853 41.3799 142.307C40.0502 141.336 38.6013 138.936 37.0736 135.175C35.9359 132.374 34.3691 127.784 33.3671 121.822C31.7363 112.117 31.3873 97.1847 38.9856 81.1539C45.5925 67.2148 59.1808 54.2242 77.2473 44.5748C93.464 35.9135 111.31 31.1067 124.988 31.7157C132.795 32.0636 144.623 33.9497 156.636 40.9598C163.9 45.198 167.841 49.3529 168.005 49.5276C169.593 51.2181 169.51 53.8762 167.82 55.4645C166.129 57.0528 163.471 56.9699 161.883 55.2792C161.858 55.2532 158.434 51.6887 152.124 48.0529C146.357 44.7304 136.903 40.6548 124.614 40.1073C118.717 39.8447 111.636 40.7796 104.136 42.811C96.4958 44.8803 88.5662 48.0523 81.2046 51.9841C73.3485 56.18 66.3986 61.051 60.548 66.4616C54.283 72.2555 49.5821 78.4092 46.5759 84.7516C43.7897 90.6298 41.9903 96.8304 41.2277 103.181C40.5966 108.437 40.6693 113.797 41.444 119.112C42.8582 128.814 46.0409 134.841 46.7602 135.88C48.2627 137.313 48.5067 139.672 47.2487 141.394C46.4266 142.519 45.1493 143.116 43.8544 143.116ZM46.8277 135.972C46.8279 135.972 46.8279 135.972 46.8279 135.972C46.8279 135.972 46.8279 135.972 46.8277 135.972Z" fill="#E09636"/>
<path d="M64.2592 123.895C62.243 123.895 60.4638 122.439 60.1213 120.385C59.416 116.153 62.6418 110.384 63.7018 108.488C66.2385 103.951 69.9012 98.9009 74.0151 94.2674C78.7437 88.942 84.0158 84.2132 89.2616 80.5924C95.6022 76.2158 101.926 73.3899 108.057 72.1931C114.834 70.8704 121.26 70.7668 127.159 71.8851C132.257 72.8515 136.843 74.6928 140.792 77.3575C145.981 80.8587 149.72 85.706 150.55 90.0077C150.99 92.2852 149.5 94.4879 147.223 94.9278C146.954 94.9798 146.686 95.0047 146.422 95.0047C144.449 95.0048 142.691 93.6089 142.303 91.6003C142.027 90.1722 140.146 87.0549 136.093 84.3204C133.096 82.2979 129.564 80.8906 125.594 80.1379C120.749 79.2193 115.39 79.3199 109.666 80.4374C104.77 81.3932 99.609 83.7033 94.3274 87.3034C89.7053 90.454 85.0143 94.6109 80.7615 99.3247C77.065 103.422 73.7431 107.898 71.4074 111.93C68.9314 116.204 68.4117 118.501 68.4165 119.065C68.7605 121.33 67.222 123.459 64.9544 123.837C64.721 123.876 64.4885 123.895 64.2592 123.895Z" fill="#E09636"/>
<path d="M143.14 179.989C136.561 179.989 130.796 178.946 125.963 176.876C120.76 174.647 116.601 171.237 113.602 166.74C108.839 159.597 108.03 151.215 108.19 145.441C108.389 138.265 110.096 132.31 111.498 129.391C112.501 127.3 115.011 126.419 117.101 127.422C119.193 128.426 120.074 130.935 119.07 133.026C117.98 135.297 116.738 140.223 116.587 145.674C116.461 150.229 117.053 156.774 120.591 162.08C125.2 168.991 133.816 172.163 146.203 171.506C155.068 171.036 164.086 168.796 173.009 164.848C180.218 161.658 187.38 157.354 194.296 152.055C206.105 143.008 213.073 134.207 213.142 134.119C214.575 132.295 217.216 131.977 219.04 133.41C220.864 134.843 221.181 137.484 219.748 139.308C219.44 139.7 212.047 149.038 199.405 158.723C191.961 164.426 184.224 169.071 176.408 172.529C166.548 176.892 156.536 179.37 146.648 179.894C145.454 179.958 144.285 179.989 143.14 179.989Z" fill="#E09636"/>
<path d="M142.91 248.05C133.735 248.051 127.047 244.639 122.646 241.216C112.319 233.183 107.966 220.315 108.173 213.744C108.246 211.426 110.187 209.612 112.503 209.678C114.822 209.752 116.642 211.69 116.569 214.009C116.446 217.912 119.707 228.287 127.803 234.586C134.485 239.783 142.824 240.995 152.587 238.186C158.734 236.417 164.456 233.086 169.592 228.283C173.801 224.349 177.637 219.422 180.993 213.639C186.816 203.608 189.18 194.406 189.203 194.314C189.771 192.067 192.052 190.703 194.301 191.269C196.549 191.834 197.914 194.112 197.35 196.36C197.247 196.774 194.737 206.624 188.378 217.649C184.607 224.186 180.251 229.796 175.431 234.324C169.29 240.092 162.385 244.108 154.909 246.258C150.517 247.522 146.521 248.05 142.91 248.05Z" fill="#E09636"/>
<path d="M31.1094 200.676L34.9541 200.195" stroke="#875008" stroke-width="1.26" stroke-miterlimit="10" stroke-linecap="round" stroke-linejoin="round"/>
<path d="M40.6512 192.641C37.3586 194.435 35.0049 196.326 27.291 198.024" stroke="#875008" stroke-width="1.26" stroke-miterlimit="10" stroke-linecap="round" stroke-linejoin="round"/>
<path d="M46.1132 191.367C41.6837 193.951 36.4465 198.909 27.291 201.236" stroke="#875008" stroke-width="1.26" stroke-miterlimit="10" stroke-linecap="round" stroke-linejoin="round"/>
<path d="M54.3177 187.727C50.3361 189.625 51.0253 198.023 46.1152 200.312" stroke="#875008" stroke-width="1.26" stroke-miterlimit="10" stroke-linecap="round" stroke-linejoin="round"/>
<path d="M61.1626 182.062C58.5044 184.828 60.1683 194.496 57.6543 197.111" stroke="#875008" stroke-width="1.26" stroke-miterlimit="10" stroke-linecap="round" stroke-linejoin="round"/>
<path d="M65.2324 172.812C65.2324 176.657 69.8614 185.657 68.2678 189.086" stroke="#875008" stroke-width="1.26" stroke-miterlimit="10" stroke-linecap="round" stroke-linejoin="round"/>
<path d="M63.791 159.828C63.791 159.828 70.5191 162.231 73.4026 161.75" stroke="#875008" stroke-width="1.26" stroke-miterlimit="10" stroke-linecap="round" stroke-linejoin="round"/>
<path d="M65.2324 161.828C65.2324 163.687 75.4674 171.891 74.6751 175.719" stroke="#875008" stroke-width="1.26" stroke-miterlimit="10" stroke-linecap="round" stroke-linejoin="round"/>
<path d="M62.1758 147.734C64.7519 149.743 72.0165 152.289 72.0165 152.289" stroke="#875008" stroke-width="1.26" stroke-miterlimit="10" stroke-linecap="round" stroke-linejoin="round"/>
<path d="M69.975 146.582C69.0764 143.482 59.5004 137.367 58.5215 129.852" stroke="#875008" stroke-width="1.26" stroke-miterlimit="10" stroke-linecap="round" stroke-linejoin="round"/>
<path d="M68.6015 134.256C68.1157 130.039 59.0921 124.111 59.9996 115.781" stroke="#875008" stroke-width="1.26" stroke-miterlimit="10" stroke-linecap="round" stroke-linejoin="round"/>
<path d="M69.9743 122.667C70.0369 118.492 62.4946 110.151 66.0255 101.586" stroke="#875008" stroke-width="1.26" stroke-miterlimit="10" stroke-linecap="round" stroke-linejoin="round"/>
<path d="M73.4014 112.425C74.3625 107.448 69.7873 98.1745 74.7181 90.7969" stroke="#875008" stroke-width="1.26" stroke-miterlimit="10" stroke-linecap="round" stroke-linejoin="round"/>
<path d="M78.207 103.123C81.0905 99.7593 79.3301 87.4527 84.2952 82.3125" stroke="#875008" stroke-width="1.26" stroke-miterlimit="10" stroke-linecap="round" stroke-linejoin="round"/>
<path d="M87.5508 94.1738C89.7425 91.1092 90.4769 78.7778 94.4349 75.8125" stroke="#875008" stroke-width="1.26" stroke-miterlimit="10" stroke-linecap="round" stroke-linejoin="round"/>
<path d="M97.4297 87.7511C100.313 85.8287 100.95 73.3626 106.398 70.9453" stroke="#875008" stroke-width="1.26" stroke-miterlimit="10" stroke-linecap="round" stroke-linejoin="round"/>
<path d="M109.867 82.3058C113.291 81.0103 116.603 69.5942 120.714 69.0547" stroke="#875008" stroke-width="1.26" stroke-miterlimit="10" stroke-linecap="round" stroke-linejoin="round"/>
<path d="M120.016 81.0185C124.341 80.0574 128.956 70.917 133.617 71.6425" stroke="#875008" stroke-width="1.26" stroke-miterlimit="10" stroke-linecap="round" stroke-linejoin="round"/>
<path d="M130.592 82.939C133.475 82.939 140.166 76.5718 146.432 79.9958" stroke="#875008" stroke-width="1.26" stroke-miterlimit="10" stroke-linecap="round" stroke-linejoin="round"/>
<path d="M136.6 87.7394C138.762 86.7783 149.189 85.9355 153.587 93.0849" stroke="#875008" stroke-width="1.26" stroke-miterlimit="10" stroke-linecap="round" stroke-linejoin="round"/>
<path d="M140.771 95.3281C143.085 98.3119 153.812 102.335 154.215 107.532" stroke="#875008" stroke-width="1.26" stroke-miterlimit="10" stroke-linecap="round" stroke-linejoin="round"/>
<path d="M153.657 110.812C153.657 110.812 150.293 118.502 149.812 119.943" stroke="#875008" stroke-width="1.26" stroke-miterlimit="10" stroke-linecap="round" stroke-linejoin="round"/>
<path d="M160.385 112.203C160.385 112.203 168.555 114.177 170.477 116.58" stroke="#875008" stroke-width="1.26" stroke-miterlimit="10" stroke-linecap="round" stroke-linejoin="round"/>
<path d="M154.619 120.519C155.1 120.423 163.75 122.512 164.952 124.111" stroke="#875008" stroke-width="1.26" stroke-miterlimit="10" stroke-linecap="round" stroke-linejoin="round"/>
<path d="M140.682 110.328C140.682 110.328 139.721 119.459 138.279 121.381" stroke="#875008" stroke-width="1.26" stroke-miterlimit="10" stroke-linecap="round" stroke-linejoin="round"/>
<path d="M141.856 104.203C141.642 108.401 150.048 117.219 148.248 123.623" stroke="#875008" stroke-width="1.26" stroke-miterlimit="10" stroke-linecap="round" stroke-linejoin="round"/>
<path d="M139.513 117.805C139.241 120.426 142.201 130.693 138.799 137.333" stroke="#875008" stroke-width="1.26" stroke-miterlimit="10" stroke-linecap="round" stroke-linejoin="round"/>
<path d="M132.219 129.852C130.109 133.39 128.924 145.896 127.113 148.293" stroke="#875008" stroke-width="1.26" stroke-miterlimit="10" stroke-linecap="round" stroke-linejoin="round"/>
<path d="M118.576 142.047C117.134 145.411 117.615 152.484 118.576 154.474" stroke="#875008" stroke-width="1.26" stroke-miterlimit="10" stroke-linecap="round" stroke-linejoin="round"/>
<path d="M104.16 149.742C103.679 152.145 105.602 158.393 106.563 159.834" stroke="#875008" stroke-width="1.26" stroke-miterlimit="10" stroke-linecap="round" stroke-linejoin="round"/>
<path d="M124.327 138.227C122.421 143.011 120.55 150.97 118.121 152.998" stroke="#875008" stroke-width="1.26" stroke-miterlimit="10" stroke-linecap="round" stroke-linejoin="round"/>
<path d="M104.638 156.469C103.197 158.872 103.515 160.377 101.914 160.826" stroke="#875008" stroke-width="1.26" stroke-miterlimit="10" stroke-linecap="round" stroke-linejoin="round"/>
<path d="M99.2125 151.859C95.5094 153.587 92.0871 161.548 87.5508 162.613" stroke="#875008" stroke-width="1.26" stroke-miterlimit="10" stroke-linecap="round" stroke-linejoin="round"/>
<path d="M86.2635 153.906C82.534 155.498 78.5644 161.79 69.9766 161.528" stroke="#875008" stroke-width="1.26" stroke-miterlimit="10" stroke-linecap="round" stroke-linejoin="round"/>
<path d="M74.7189 152.876C71.9605 152.62 62.5711 157.996 57.6543 157.231" stroke="#875008" stroke-width="1.26" stroke-miterlimit="10" stroke-linecap="round" stroke-linejoin="round"/>
<path d="M65.7327 149.737C63.3092 148.295 55.0277 152.794 48.1152 150.304" stroke="#875008" stroke-width="1.26" stroke-miterlimit="10" stroke-linecap="round" stroke-linejoin="round"/>
<path d="M55.9101 142.466C52.2536 140.605 45.3828 145.891 40.6484 142.047" stroke="#875008" stroke-width="1.26" stroke-miterlimit="10" stroke-linecap="round" stroke-linejoin="round"/>
<path d="M49.3284 135.689C46.0093 133.883 38.1387 138.166 34.1445 131.219" stroke="#875008" stroke-width="1.26" stroke-miterlimit="10" stroke-linecap="round" stroke-linejoin="round"/>
<path d="M43.8212 127.216C41.2014 124.752 33.0317 122.934 31.1094 116.875" stroke="#875008" stroke-width="1.26" stroke-miterlimit="10" stroke-linecap="round" stroke-linejoin="round"/>
<path d="M41.3579 118.561C39.7589 114.658 32.217 110.475 32.3836 102.234" stroke="#875008" stroke-width="1.26" stroke-miterlimit="10" stroke-linecap="round" stroke-linejoin="round"/>
<path d="M40.6519 105.711C40.7233 100.718 34.066 96.8731 36.914 87.7422" stroke="#875008" stroke-width="1.26" stroke-miterlimit="10" stroke-linecap="round" stroke-linejoin="round"/>
<path d="M43.5953 94.1701C45.0474 90.1442 40.0469 83.3756 42.3069 77.1484" stroke="#875008" stroke-width="1.26" stroke-miterlimit="10" stroke-linecap="round" stroke-linejoin="round"/>
<path d="M48.2827 82.9387C49.8541 79.5746 45.9195 72.1598 49.3285 66.9766" stroke="#875008" stroke-width="1.26" stroke-miterlimit="10" stroke-linecap="round" stroke-linejoin="round"/>
<path d="M55.4727 74.2683C58.5023 70.9289 56.907 60.1496 60.3477 55.6875" stroke="#875008" stroke-width="1.26" stroke-miterlimit="10" stroke-linecap="round" stroke-linejoin="round"/>
<path d="M64.248 65.2116C68.115 61.7948 64.6267 52.5958 69.9752 48.3047" stroke="#875008" stroke-width="1.26" stroke-miterlimit="10" stroke-linecap="round" stroke-linejoin="round"/>
<path d="M73.5527 56.7571C77.727 53.6239 77.4487 44.1921 82.3935 41.2188" stroke="#875008" stroke-width="1.26" stroke-miterlimit="10" stroke-linecap="round" stroke-linejoin="round"/>
<path d="M84.293 49.9224C86.8552 47.3768 89.5927 38.2432 93.7505 36.5625" stroke="#875008" stroke-width="1.26" stroke-miterlimit="10" stroke-linecap="round" stroke-linejoin="round"/>
<path d="M96.5 44.7818C100.794 42.0998 100.796 34.508 105.36 33.2578" stroke="#875008" stroke-width="1.26" stroke-miterlimit="10" stroke-linecap="round" stroke-linejoin="round"/>
<path d="M107.504 41.2183C111.365 39.6867 114.729 31.1355 120.016 31.0859" stroke="#875008" stroke-width="1.26" stroke-miterlimit="10" stroke-linecap="round" stroke-linejoin="round"/>
<path d="M118.576 40.6222C122.421 39.6944 128.479 31.6568 134.341 31.8309" stroke="#875008" stroke-width="1.26" stroke-miterlimit="10" stroke-linecap="round" stroke-linejoin="round"/>
<path d="M129.82 40.6156C133.952 41.1295 140.366 34.5408 147.492 36.1532" stroke="#875008" stroke-width="1.26" stroke-miterlimit="10" stroke-linecap="round" stroke-linejoin="round"/>
<path d="M141.852 43.708C146.448 44.0212 151.573 39.3952 157.181 41.2277" stroke="#875008" stroke-width="1.26" stroke-miterlimit="10" stroke-linecap="round" stroke-linejoin="round"/>
<path d="M152.695 49.2979C158.462 50.259 162.715 46.8951 166.836 49.2979" stroke="#875008" stroke-width="1.26" stroke-miterlimit="10" stroke-linecap="round" stroke-linejoin="round"/>
<path d="M162.281 57.375C166.153 60.3559 172.749 58.3154 177.381 63.6609" stroke="#875008" stroke-width="1.26" stroke-miterlimit="10" stroke-linecap="round" stroke-linejoin="round"/>
<path d="M169.338 67.5938C170.959 69.485 180.726 73.5901 179.928 78.9865" stroke="#875008" stroke-width="1.26" stroke-miterlimit="10" stroke-linecap="round" stroke-linejoin="round"/>
<path d="M171.92 80.0625C171.44 84.8683 178.422 94.5876 177.093 99.5798" stroke="#875008" stroke-width="1.26" stroke-miterlimit="10" stroke-linecap="round" stroke-linejoin="round"/>
<path d="M167.678 97.2422C165.67 102.172 170.475 111.251 170.475 114.401" stroke="#875008" stroke-width="1.26" stroke-miterlimit="10" stroke-linecap="round" stroke-linejoin="round"/>
<path d="M159.547 122.547L160.027 129.854" stroke="#875008" stroke-width="1.26" stroke-miterlimit="10" stroke-linecap="round" stroke-linejoin="round"/>
<path d="M151.734 125.461C149.812 128.6 153.773 138.692 151.552 142.056" stroke="#875008" stroke-width="1.26" stroke-miterlimit="10" stroke-linecap="round" stroke-linejoin="round"/>
<path d="M143.34 137.328C140.201 140.605 144.944 149.12 141.852 154.474" stroke="#875008" stroke-width="1.26" stroke-miterlimit="10" stroke-linecap="round" stroke-linejoin="round"/>
<path d="M134.005 149.742C132.511 153.587 135.691 164.137 135.062 165.109" stroke="#875008" stroke-width="1.26" stroke-miterlimit="10" stroke-linecap="round" stroke-linejoin="round"/>
<path d="M123.379 164.156C124.34 165.598 130.107 169.443 132.99 168.481" stroke="#875008" stroke-width="1.26" stroke-miterlimit="10" stroke-linecap="round" stroke-linejoin="round"/>
<path d="M117.613 172.812C119.536 174.254 125.303 177.138 126.264 177.138" stroke="#875008" stroke-width="1.26" stroke-miterlimit="10" stroke-linecap="round" stroke-linejoin="round"/>
<path d="M114.498 179.172C113.29 182.423 119.312 188.833 119.425 191.875" stroke="#875008" stroke-width="1.26" stroke-miterlimit="10" stroke-linecap="round" stroke-linejoin="round"/>
<path d="M108.928 194.227C108.001 197.802 117.336 205.003 117.714 208.611" stroke="#875008" stroke-width="1.26" stroke-miterlimit="10" stroke-linecap="round" stroke-linejoin="round"/>
<path d="M106.074 213.867C106.56 217.5 118.437 219.841 121.389 223.236" stroke="#875008" stroke-width="1.26" stroke-miterlimit="10" stroke-linecap="round" stroke-linejoin="round"/>
<path d="M110.885 230C114.249 233.845 126.04 231.319 129.035 233.303" stroke="#875008" stroke-width="1.26" stroke-miterlimit="10" stroke-linecap="round" stroke-linejoin="round"/>
<path d="M122.42 243.454C127.226 244.895 136.678 237.793 140.122 237.98" stroke="#875008" stroke-width="1.26" stroke-miterlimit="10" stroke-linecap="round" stroke-linejoin="round"/>
<path d="M138.76 247.776C144.527 247.295 151.832 237.535 154.907 236.648" stroke="#875008" stroke-width="1.26" stroke-miterlimit="10" stroke-linecap="round" stroke-linejoin="round"/>
<path d="M159.713 245.299C164.712 241.537 165.269 232.154 167.634 229.156" stroke="#875008" stroke-width="1.26" stroke-miterlimit="10" stroke-linecap="round" stroke-linejoin="round"/>
<path d="M174.322 235.77C177.686 231.445 174.002 222.317 177.046 218.711" stroke="#875008" stroke-width="1.26" stroke-miterlimit="10" stroke-linecap="round" stroke-linejoin="round"/>
<path d="M183.146 227.221C185.376 223.256 183.767 209.37 185.292 205.5" stroke="#875008" stroke-width="1.26" stroke-miterlimit="10" stroke-linecap="round" stroke-linejoin="round"/>
<path d="M193.017 212.588C194.507 207.41 189.22 197.318 189.701 192.031" stroke="#875008" stroke-width="1.26" stroke-miterlimit="10" stroke-linecap="round" stroke-linejoin="round"/>
<path d="M198.831 197.313C199.793 193.468 193.065 182.896 192.584 177.609" stroke="#875008" stroke-width="1.26" stroke-miterlimit="10" stroke-linecap="round" stroke-linejoin="round"/>
<path d="M190.713 166.556C190.713 166.556 198.35 162.712 201.234 159.828" stroke="#875008" stroke-width="1.26" stroke-miterlimit="10" stroke-linecap="round" stroke-linejoin="round"/>
<path d="M187.777 155.497C187.777 155.016 195.864 150.619 197.828 147.531" stroke="#875008" stroke-width="1.26" stroke-miterlimit="10" stroke-linecap="round" stroke-linejoin="round"/>
<path d="M202.906 180.284C202.677 175.692 193.252 169.388 191.477 168.695" stroke="#875008" stroke-width="1.26" stroke-miterlimit="10" stroke-linecap="round" stroke-linejoin="round"/>
<path d="M195.162 147.732C192.584 144.933 184.984 145.528 184.219 143.789" stroke="#875008" stroke-width="1.26" stroke-miterlimit="10" stroke-linecap="round" stroke-linejoin="round"/>
<path d="M191.475 136.718C188.258 134.358 179.663 135.545 177.713 133.75" stroke="#875008" stroke-width="1.26" stroke-miterlimit="10" stroke-linecap="round" stroke-linejoin="round"/>
<path d="M182.12 125.451C178.165 123.784 171.033 126.157 168.832 125.451" stroke="#875008" stroke-width="1.26" stroke-miterlimit="10" stroke-linecap="round" stroke-linejoin="round"/>
<path d="M167.193 115.38C163.272 114.659 157.36 119.945 153.588 119.945" stroke="#875008" stroke-width="1.26" stroke-miterlimit="10" stroke-linecap="round" stroke-linejoin="round"/>
<path d="M139.622 114.391C136.837 117.06 135.378 121.801 135.146 122.314" stroke="#875008" stroke-width="1.26" stroke-miterlimit="10" stroke-linecap="round" stroke-linejoin="round"/>
<path d="M126.266 115.312C121.941 118.504 121.461 132.666 121.941 133.755" stroke="#875008" stroke-width="1.26" stroke-miterlimit="10" stroke-linecap="round" stroke-linejoin="round"/>
<path d="M112.185 126.586C109.927 132.918 117.616 143.03 117.616 145.903" stroke="#875008" stroke-width="1.26" stroke-miterlimit="10" stroke-linecap="round" stroke-linejoin="round"/>
<path d="M105.323 145.609C105.121 149.737 116.543 157.906 119.963 159.829" stroke="#875008" stroke-width="1.26" stroke-miterlimit="10" stroke-linecap="round" stroke-linejoin="round"/>
<path d="M112.641 168.047C117.615 171.362 124.899 167.415 129.667 168.187" stroke="#875008" stroke-width="1.26" stroke-miterlimit="10" stroke-linecap="round" stroke-linejoin="round"/>
<path d="M129.666 178.912C135.876 179.059 140.681 171.026 144.045 171.198" stroke="#875008" stroke-width="1.26" stroke-miterlimit="10" stroke-linecap="round" stroke-linejoin="round"/>
<path d="M144.84 181.991C152.216 180.014 153.962 171.543 158.376 170.492" stroke="#875008" stroke-width="1.26" stroke-miterlimit="10" stroke-linecap="round" stroke-linejoin="round"/>
<path d="M163.617 177.612C169.034 174.729 169.996 167.645 174.321 165.18" stroke="#875008" stroke-width="1.26" stroke-miterlimit="10" stroke-linecap="round" stroke-linejoin="round"/>
<path d="M180.893 171.391C187.298 167.035 190.662 154.547 192.584 152.141" stroke="#875008" stroke-width="1.26" stroke-miterlimit="10" stroke-linecap="round" stroke-linejoin="round"/>
<path d="M197.191 161.774C202.197 157.913 204.653 143.448 207.029 138.906" stroke="#875008" stroke-width="1.26" stroke-miterlimit="10" stroke-linecap="round" stroke-linejoin="round"/>
<path d="M213.594 147.311C218.535 141.575 216.715 128.887 219.307 123.938" stroke="#875008" stroke-width="1.26" stroke-miterlimit="10" stroke-linecap="round" stroke-linejoin="round"/>
<path d="M225.311 133.756C228.146 129.078 227.209 115.319 229.84 109.703" stroke="#875008" stroke-width="1.26" stroke-miterlimit="10" stroke-linecap="round" stroke-linejoin="round"/>
<path d="M237.758 118.502C240.161 113.215 236.836 101.88 240.181 94.8125" stroke="#875008" stroke-width="1.26" stroke-miterlimit="10" stroke-linecap="round" stroke-linejoin="round"/>
<path d="M247 105.743C245.926 99.2729 252.378 80.797 251.075 73.6953" stroke="#875008" stroke-width="1.26" stroke-miterlimit="10" stroke-linecap="round" stroke-linejoin="round"/>
<path d="M257.459 81.0156C256.979 81.9767 251.212 92.0689 251.692 95.9134" stroke="#875008" stroke-width="1.26" stroke-miterlimit="10" stroke-linecap="round" stroke-linejoin="round"/>
<path d="M257.463 72.0312C257.463 72.8542 248.813 92.0772 249.774 99.7664" stroke="#875008" stroke-width="1.26" stroke-miterlimit="10" stroke-linecap="round" stroke-linejoin="round"/>
<path d="M253.581 77.7031C253.618 78.6063 250.203 84.5843 250.203 84.5843" stroke="#875008" stroke-width="1.26" stroke-miterlimit="10" stroke-linecap="round" stroke-linejoin="round"/>
</g>
<defs>
<clipPath id="clip0_4352_111474">
<rect width="280" height="280" fill="white"/>
</clipPath>
</defs>
</svg>
