<svg width="245" height="259" viewBox="0 0 245 259" fill="none" xmlns="http://www.w3.org/2000/svg">
<path d="M157.214 181.931C179.852 188.771 207.396 163.888 218.735 126.356C230.074 88.8233 220.914 52.8525 198.276 46.0133C187.776 42.8414 176.222 46.4964 165.718 55.0686C172.791 69.9251 173.881 91.3484 167.271 113.226C161.028 133.892 149.289 150.417 136.111 159.312C140.313 170.743 147.528 179.005 157.214 181.931Z" fill="#C21D17"/>
<path d="M206.501 13.0858C187.085 7.22031 165.281 16.9244 147.1 36.8068C133.775 51.3795 122.395 71.4196 115.329 94.8083C107.591 120.423 106.388 145.556 110.665 166.172C115.623 190.062 127.942 207.885 146.003 213.341C179.65 223.506 220.469 186.918 237.175 131.619C253.881 76.3198 240.148 23.2508 206.501 13.0858ZM220.893 126.997C208.958 166.505 179.964 192.697 156.134 185.498C145.71 182.349 138.001 173.332 133.626 160.877C127.998 144.858 127.883 123.153 134.598 100.927C140.886 80.1148 151.908 63.0014 164.414 52.5144C175.648 43.0939 188.081 39.0197 199.357 42.4265C223.187 49.6255 232.829 87.4889 220.893 126.997Z" fill="#D8C295"/>
<path d="M199.354 42.4089C188.077 39.002 175.645 43.0763 164.411 52.4968C151.904 62.9838 140.882 80.0973 134.595 100.909C127.88 123.135 127.995 144.841 133.622 160.859C137.998 173.314 145.707 182.331 156.131 185.48C179.961 192.679 208.954 166.488 220.89 126.979C232.826 87.4714 223.184 49.608 199.354 42.4089ZM218.733 126.328C207.394 163.861 179.85 188.743 157.212 181.904C147.526 178.977 140.311 170.716 136.109 159.284C130.491 143.996 130.265 123.036 136.752 101.561C142.832 81.4358 153.572 64.9514 165.716 55.0406C176.22 46.4685 187.774 42.8133 198.273 45.9853C220.912 52.8245 230.072 88.7953 218.733 126.328Z" fill="#857752"/>
<path d="M137.439 158.367C153.494 164.233 169.549 170.099 185.603 175.965C188.318 174.132 190.982 171.969 193.563 169.507C177.303 163.713 161.043 157.919 144.784 152.125C142.413 154.467 139.956 156.557 137.439 158.367Z" fill="#376F42"/>
<path d="M163.238 124.306C180.063 129.505 196.888 134.705 213.713 139.905C214.391 138.375 215.041 136.813 215.663 135.224C198.784 130.097 181.905 124.97 165.026 119.844C164.458 121.357 163.864 122.847 163.238 124.306Z" fill="white"/>
<path d="M136.115 159.296C136.683 160.839 137.307 162.323 137.983 163.746C151.954 168.928 165.926 174.11 179.897 179.292C181.817 178.348 183.724 177.237 185.608 175.965C169.553 170.099 153.499 164.233 137.444 158.367C137.003 158.685 136.56 158.995 136.115 159.296Z" fill="white"/>
<path d="M167.62 112.023C167.505 112.421 167.393 112.817 167.273 113.215C166.589 115.478 165.836 117.689 165.025 119.848C181.904 124.975 198.783 130.102 215.662 135.228C216.7 132.576 217.655 129.843 218.521 127.039C201.554 122.034 184.587 117.029 167.62 112.023Z" fill="#376F42"/>
<path d="M223.251 86.6594C205.849 82.4708 188.447 78.2823 171.045 74.0938C171.26 75.8028 171.419 77.5474 171.524 79.3221C188.868 83.4967 206.212 87.6712 223.556 91.846C223.504 90.0877 223.402 88.3576 223.251 86.6594Z" fill="white"/>
<path d="M221.912 77.5231C204.363 73.2992 186.814 69.0755 169.266 64.8516C170.043 67.7864 170.642 70.8718 171.045 74.0844C188.447 78.2729 205.849 82.4614 223.251 86.6501C222.971 83.489 222.523 80.4373 221.912 77.5231Z" fill="#376F42"/>
<path d="M121.807 194.337C121.451 193.805 121.092 193.249 120.735 192.671C120.261 191.904 119.824 191.152 119.42 190.422C119.426 190.442 120.118 192.876 120.123 192.896C120.127 192.906 120.637 194.702 120.64 194.712C120.942 196.084 121.207 197.614 121.392 199.284C121.575 200.94 121.675 202.722 121.646 204.606C128.019 206.851 134.393 209.096 140.767 211.34C140.767 211.339 140.768 211.337 140.768 211.335C133.222 207.823 126.855 201.97 121.807 194.337Z" fill="#AA9057"/>
<path d="M153.364 1.81911C153.288 1.79565 153.215 1.76894 153.139 1.74635C150.785 1.03497 148.397 0.553086 145.987 0.275379L145.907 0.258542C145.906 0.261148 145.906 0.263428 145.905 0.265926C113.901 -3.35805 77.9964 30.4101 63.0053 80.0316C60.7201 87.5956 47.4908 125.313 63.3418 163.146C63.8168 164.28 64.2878 165.337 64.7475 166.331L64.7438 166.327C64.7438 166.327 71.9393 182.937 69.9248 194.962C69.389 197.376 68.4042 200.551 66.4359 203.869C65.8371 204.878 63.9841 207.862 59.9925 211.439C53.8477 216.945 47.5512 219.452 44.6659 220.572C26.6218 227.575 2.57093 234.646 0 235.398C15.3266 243.093 30.6531 250.787 45.9796 258.482C62.5573 252.351 79.135 246.22 95.7127 240.09C99.6815 238.446 102.756 236.658 104.909 235.257C106.603 234.155 108.358 233.001 110.398 231.128C111.957 229.697 114.287 227.291 116.357 223.95C119.676 218.591 120.591 213.623 121.048 211.001C121.437 208.772 121.615 206.635 121.647 204.612C121.705 200.843 121.246 197.484 120.641 194.718C120.234 193.288 119.828 191.858 119.421 190.427C118.085 187.991 116.433 184.69 114.856 180.647C114.088 178.678 112.238 173.715 110.666 166.175C109.592 161.023 108.419 153.481 108.244 143.634C107.974 128.337 110.234 111.679 115.33 94.8116C119.14 82.2009 124.205 70.566 130.152 60.2343C135.235 51.4044 140.961 43.5256 147.101 36.8101C155.578 27.5402 164.843 20.4853 174.286 16.1868C183.813 11.8499 193.522 10.32 202.787 12.1621L153.364 1.81911Z" fill="#ECD39A"/>
</svg>
