<svg width="239" height="325" viewBox="0 0 239 325" fill="none" xmlns="http://www.w3.org/2000/svg">
<path opacity="0.4" d="M34.5476 120.383C20.0547 124.689 15.1944 141.062 22.3315 153.84C22.4646 154.078 22.8331 153.875 22.7483 153.63C20.5087 147.132 19.8726 139.909 22.2138 133.352C24.3596 127.344 29.5674 123.931 34.7186 120.723C34.9105 120.603 34.7487 120.324 34.5476 120.383Z" fill="white"/>
<path opacity="0.4" d="M22.8877 165.836C19.5868 170.814 13.7141 173.453 8.15946 170.455C7.95 170.342 7.80429 170.635 7.9486 170.784C12.741 175.743 20.8814 171.473 23.0524 165.941C23.0909 165.843 22.9529 165.738 22.8877 165.836Z" fill="white"/>
<path opacity="0.4" d="M10.696 177.011C10.7857 176.923 10.6533 176.804 10.558 176.857C7.06091 178.813 1.74027 181.98 0.624999 186.199C-0.691325 191.181 2.37566 194.355 6.55582 196.754C6.7919 196.89 7.09664 196.547 6.91099 196.335C3.85942 192.858 0.192765 189.977 2.72874 184.948C4.43527 181.566 8.06689 179.572 10.696 177.011Z" fill="white"/>
<path opacity="0.4" d="M17.2095 234.474C14.1243 232.536 10.7715 231.161 8.37072 228.306C5.01511 224.313 7.85022 220.194 9.98197 216.559C10.0639 216.418 9.85658 216.235 9.73258 216.347C5.43474 220.213 3.56989 225.108 7.55038 230.035C9.61139 232.586 12.8087 233.935 15.5716 235.533C20.3157 238.277 22.8825 243.783 23.0464 249.126C23.0562 249.45 23.5025 249.43 23.5775 249.151C25.071 243.606 21.9746 237.469 17.2095 234.474Z" fill="white"/>
<path opacity="0.4" d="M200.483 14.0709C194.233 16.1163 188.377 16.8746 182.033 14.8123C176.854 13.1289 172.3 9.67567 167.497 7.18204C167.324 7.09225 167.145 7.36231 167.309 7.47454C172.651 11.1066 177.551 15.1757 183.865 17.0001C189.56 18.6457 195.692 17.588 200.751 14.6047C201.054 14.4265 200.797 13.9678 200.483 14.0709Z" fill="white"/>
<path opacity="0.4" d="M149.6 27.5465C147.798 20.8175 143.553 15.1471 138.64 10.3436C133.57 5.38857 126.961 0.263123 119.54 0.653827C119.381 0.662245 119.363 0.926689 119.527 0.936509C126.848 1.37561 132.9 6.21066 137.964 11.1404C142.907 15.953 146.195 21.4867 148.816 27.8229C149.022 28.3223 149.738 28.0628 149.6 27.5465Z" fill="white"/>
<path opacity="0.4" d="M171.281 24.2868C168.403 17.715 163.607 11.8558 158.216 7.18488C158.013 7.00882 157.75 7.32096 157.946 7.50194C163.318 12.4632 166.945 18.3869 170.612 24.6249C170.828 24.9938 171.453 24.6789 171.281 24.2868Z" fill="white"/>
<path opacity="0.4" d="M89.7168 15.4236C89.8387 15.0455 89.3077 14.7685 89.1409 15.155C86.9699 20.192 85.613 25.3764 85.262 30.8652C84.9145 36.3056 86.2666 41.7565 87.8309 46.9234C87.9108 47.1878 88.2779 47.0398 88.2239 46.7859C87.026 41.1568 85.9044 35.5698 86.371 29.7913C86.7696 24.8636 88.2071 20.1051 89.7168 15.4236Z" fill="white"/>
<path opacity="0.4" d="M82.6026 17.3853C72.9498 30.9127 67.7777 48.7953 70.3396 65.3423C70.3739 65.5633 70.706 65.5422 70.6885 65.3143C69.4093 48.0293 74.5435 32.5176 83.2324 17.79C83.4489 17.4232 82.8492 17.0395 82.6026 17.3853Z" fill="white"/>
<path opacity="0.4" d="M68.4084 23.2768C61.216 30.3074 55.3328 38.757 51.5351 48.0848C49.6598 52.6905 48.6174 57.5964 47.8461 62.4939C46.9536 68.1644 47.5371 73.6749 47.7487 79.3692C47.7543 79.52 47.975 79.4962 47.9778 79.351C48.0996 73.7471 47.8489 68.2078 48.7014 62.6461C49.5 57.4344 50.8836 52.3089 52.9194 47.4486C56.6589 38.5185 62.6647 30.9794 68.8841 23.6816C69.1489 23.3701 68.6915 23.0005 68.4084 23.2768Z" fill="white"/>
<path opacity="0.4" d="M171.414 107.914C170.562 106.924 169.377 106.351 168.137 106.985C167.58 107.269 167.735 108.159 168.25 108.381C168.899 108.662 169.254 108.92 169.594 109.511C169.973 110.169 170.216 111.017 171.014 111.503C171.445 111.764 171.996 111.463 172.203 111.068C172.746 110.03 172.107 108.719 171.414 107.914Z" fill="white"/>
<path opacity="0.4" d="M187.828 78.4839C183.736 75.091 179.628 80.3042 178.245 83.7889C178.125 84.0899 178.519 84.3746 178.738 84.1053C179.743 82.8637 180.796 81.5892 181.986 80.5209C183.643 79.0331 185.255 79.1433 187.267 79.6757C187.94 79.8538 188.328 78.8978 187.828 78.4839Z" fill="white"/>
<path opacity="0.4" d="M146.503 77.0414C141.457 75.3158 135.5 78.7683 134.543 84.1484C134.41 84.8961 135.476 85.2286 135.801 84.5454C137.708 80.5297 141.543 76.885 146.366 77.477C146.612 77.5064 146.762 77.1291 146.503 77.0414Z" fill="white"/>
<path opacity="0.4" d="M176.775 73.1353C175.35 71.2687 174.423 68.5885 173.967 66.2899C173.95 66.205 173.827 66.1882 173.81 66.2829C173.322 68.8481 174.454 71.7485 176.545 73.3422C176.68 73.4446 176.887 73.2812 176.775 73.1353Z" fill="white"/>
<path opacity="0.4" d="M159.78 67.7394C159.722 67.6026 159.528 67.6447 159.53 67.792C159.563 70.508 157.9 72.9623 156.47 75.1235C156.409 75.2161 156.505 75.3494 156.608 75.2771C158.797 73.7473 160.943 70.487 159.78 67.7394Z" fill="white"/>
<path opacity="0.4" d="M95.5649 88.0647C92.6745 83.3131 86.5573 86.6008 84.1509 90.143C82.8388 92.0748 82.1152 94.4127 81.7866 96.7086C81.2885 100.181 82.0766 103.474 83.2654 106.695C83.2865 106.753 83.3663 106.731 83.3663 106.674C83.3565 104.026 82.635 101.399 82.6223 98.721C82.6118 96.5164 83.2374 94.2767 84.1516 92.2902C84.9888 90.4692 86.2778 88.9085 87.9668 87.8304C88.9581 87.1984 90.1028 86.9269 91.2566 86.8105C93.0373 86.6309 93.8255 87.4839 95.1383 88.4491C95.401 88.6434 95.7387 88.3509 95.5649 88.0647Z" fill="white"/>
<path opacity="0.4" d="M97.7898 91.0012C97.5369 90.2675 96.994 89.7281 96.4791 89.1691C96.3446 89.0232 96.0714 89.2133 96.1569 89.3907C96.4735 90.0473 96.9338 90.6183 97.2616 91.2685C97.4171 91.5771 97.897 91.3113 97.7898 91.0012Z" fill="white"/>
<path opacity="0.4" d="M106.787 185.312C100.774 182.947 95.1463 181.401 90.2488 177.288C90.0043 177.083 89.6456 177.326 89.8572 177.562C93.8222 181.984 100.162 185.428 106.658 185.88C107.066 185.909 107.152 185.455 106.787 185.312Z" fill="white"/>
<path opacity="0.4" d="M171.793 216.51C167.019 210.455 162.32 204.359 157.351 198.467C152.605 192.839 148.367 187.165 142.507 182.598C142.211 182.368 141.858 182.786 142.131 183.041C153.058 193.253 160.332 206.839 171.39 216.873C171.616 217.079 171.986 216.755 171.793 216.51Z" fill="white"/>
<path opacity="0.4" d="M67.7631 272.803C60.6848 259.063 55.4083 244.852 52.3574 229.672C50.8176 222.01 49.9783 214.158 50.5598 206.35C51.109 198.974 53.6394 192.458 56.0514 185.568C56.1452 185.3 55.7761 184.997 55.5946 185.274C47.242 198.016 47.4157 214.109 50.2621 228.532C53.3059 243.955 58.698 259.871 67.3112 273.111C67.5081 273.416 67.92 273.108 67.7631 272.803Z" fill="white"/>
<path opacity="0.4" d="M70.1609 277.106C69.7189 276.475 69.0022 275.933 68.8292 275.154C68.7717 274.895 68.3682 274.951 68.3332 275.194C68.1854 276.219 68.8572 276.859 69.4639 277.581C69.8071 277.989 70.479 277.559 70.1609 277.106Z" fill="white"/>
<path opacity="0.4" d="M95.2162 210.38C95.0831 210.432 95.0775 210.664 95.2401 210.676C100.093 211.029 102.358 214.788 103.965 218.97C104.138 219.418 104.868 219.293 104.805 218.791C104.268 214.521 100.153 208.49 95.2162 210.38Z" fill="white"/>
<path opacity="0.4" d="M112.634 185.778C112.705 185.533 112.353 185.469 112.241 185.653C107.952 192.702 108.588 203.174 109.71 211.015C109.76 211.364 110.235 211.314 110.245 210.972C110.355 207.078 110.071 203.18 110.138 199.284C110.217 194.559 111.326 190.279 112.634 185.778Z" fill="white"/>
<path opacity="0.4" d="M127.167 185.311C121.649 190.635 119.662 197.68 119.132 205.188C119.094 205.726 119.877 205.893 119.973 205.338C121.245 197.956 122.459 191.396 127.35 185.467C127.451 185.345 127.277 185.205 127.167 185.311Z" fill="white"/>
<path opacity="0.4" d="M135.273 193.087C131.013 197.107 129.242 203.505 128.659 209.176C128.612 209.63 129.262 209.754 129.359 209.301C130.592 203.565 131.76 198 135.589 193.357C135.764 193.145 135.463 192.907 135.273 193.087Z" fill="white"/>
<path opacity="0.4" d="M142.768 204.48C138 207.943 134.032 214.108 132.777 219.938C132.699 220.302 133.234 220.459 133.388 220.131C136.081 214.409 138.646 209.418 143.086 204.836C143.277 204.639 142.985 204.322 142.768 204.48Z" fill="white"/>
<path opacity="0.4" d="M107.384 243.494C101.581 253.162 97.9324 265.934 87.1784 271.399C86.6719 271.657 87.1202 272.358 87.5994 272.234C92.7113 270.904 95.8861 266.249 98.5797 262.027C102.322 256.161 104.929 249.985 107.901 243.734C108.062 243.396 107.569 243.185 107.384 243.494Z" fill="white"/>
<path opacity="0.4" d="M108.766 239.806C108.449 239.832 108.286 240.093 108.275 240.385C108.264 240.649 108.2 240.942 108.14 241.199C108.041 241.624 108.65 241.913 108.914 241.564C109.217 241.163 109.324 240.797 109.344 240.298C109.356 240.005 109.031 239.784 108.766 239.806Z" fill="white"/>
<path opacity="0.4" d="M208.118 155.113C204.174 160.095 201.667 165.873 200.299 172.072C200.208 172.484 200.878 172.708 201.014 172.298C202.955 166.428 204.537 160.291 208.26 155.234C208.329 155.138 208.193 155.018 208.118 155.113Z" fill="white"/>
<path opacity="0.4" d="M221.269 158.631C217.664 161.318 214.541 164.961 212.599 169.033C212.471 169.299 212.874 169.576 213.046 169.32C215.598 165.531 218.467 162.317 221.654 159.06C221.883 158.824 221.529 158.437 221.269 158.631Z" fill="white"/>
<path opacity="0.4" d="M229.692 166.982C225.868 168.976 222.965 172.136 220.776 175.82C220.585 176.142 221.099 176.461 221.325 176.172C223.875 172.906 226.308 169.493 229.877 167.254C230.061 167.138 229.875 166.887 229.692 166.982Z" fill="white"/>
<path opacity="0.4" d="M232.816 177.433C230.565 178.484 228.488 179.792 226.978 181.799C226.668 182.211 227.216 182.658 227.579 182.31C229.3 180.662 230.962 179.059 233.007 177.811C233.212 177.686 233.037 177.329 232.816 177.433Z" fill="white"/>
<path opacity="0.4" d="M191.225 174.65C191.103 174.525 190.895 174.716 190.999 174.852C193.666 178.364 194.693 183.318 194.056 187.639C194.028 187.828 194.318 187.937 194.387 187.743C196.063 183.05 194.652 178.129 191.225 174.65Z" fill="white"/>
<path opacity="0.4" d="M197.643 186.908C197.385 186.941 197.346 187.335 197.621 187.375C198.957 187.568 200.246 188.04 201.294 188.905C202.403 189.82 202.709 191.079 203.201 192.354C203.332 192.69 203.882 192.688 203.929 192.294C204.33 188.994 200.59 186.518 197.643 186.908Z" fill="white"/>
<path opacity="0.4" d="M189.912 113.212C189.881 112.974 189.527 113.001 189.541 113.242C190.212 125.203 181.651 135.395 174.29 143.784C174.118 143.98 174.394 144.304 174.602 144.132C183.274 136.958 191.468 125.104 189.912 113.212Z" fill="white"/>
<g opacity="0.4">
<path d="M43.678 298.424C45.5694 290.864 48.5145 282.919 47.8126 275.032C47.7712 274.573 47.0069 274.506 46.9831 274.992C46.5936 282.942 42.9284 290.292 41.3052 298.003C39.4256 306.928 37.2799 315.774 36.5926 324.906C35.9783 333.068 36.7461 341.575 38.3083 349.592C39.1412 353.867 40.2131 358.029 40.5654 362.385C40.9528 367.173 40.763 372.009 41.032 376.808C41.0579 377.266 41.8145 377.319 41.8453 376.847C42.403 368.39 42.7686 360.341 41.2246 351.953C39.5391 342.796 38.5437 333.369 39.2631 324.056C39.923 315.506 41.5987 306.735 43.678 298.424Z" fill="white"/>
<path d="M80.5294 196.592C78.5728 189.059 75.0518 181.56 66.8281 179.618C66.5017 179.541 66.3728 180.02 66.6565 180.162C73.8665 183.775 76.5825 191.301 78.4593 198.632C80.7129 207.438 81.6762 216.326 80.907 225.392C80.8425 226.15 81.8786 226.343 82.0713 225.599C84.5365 216.07 82.9631 205.961 80.5294 196.592Z" fill="white"/>
</g>
</svg>
