<svg width="291" height="207" viewBox="0 0 291 207" fill="none" xmlns="http://www.w3.org/2000/svg">
<path d="M63.2568 105.752C62.1957 105.752 61.1827 105.738 60.2458 105.709C28.755 104.74 17.8549 100.558 8.75654 93.1821C2.70722 88.2776 0 79.964 0 73.9002C0 67.9491 2.28397 60.5504 5.81851 55.0514C8.20509 51.3389 13.73 44.3501 23.9208 39.2543C30.3062 36.0622 38.445 33.4448 44.3873 31.5332C45.689 31.1146 46.8823 30.7309 47.9227 30.3838L48.4748 30.2001C53.854 28.4088 58.1031 26.9937 63.1698 23.865C67.4157 21.2427 72.2578 17.7436 76.9405 14.3602C80.7242 11.6263 84.2983 9.04345 87.0758 7.28941C92.8763 3.62552 97.8111 1.40753 100.495 0.55435C101.588 0.207263 103.092 0 104.519 0C105.29 0 106.044 0.0581372 106.759 0.172089C107.946 0.362492 110.238 0.878763 112.257 2.20258C114.866 3.91243 118.149 6.30077 120.396 9.6167C121.635 11.4428 122.643 13.0899 123.462 14.6265C124.575 14.8698 125.839 14.9928 127.231 14.9928C132.214 14.9928 137.792 13.4535 141.482 12.435L142.431 12.1739C145.061 11.4568 148.607 10.2196 152.36 8.91002C158.644 6.71762 165.141 4.4505 169.446 3.83569C171.624 3.52407 174.915 3.11041 178.323 3.11041C185.483 3.11041 190.672 4.96184 193.747 8.61323C199.179 15.0649 201.922 25.3804 203.705 33.6465C205.669 42.7542 205.852 54.0837 205.659 61.9841C205.492 68.8189 203.604 72.6493 199.142 75.206C188.217 81.4669 163.686 91.115 130.509 97.7007C105.873 102.592 79.4757 105.752 63.2603 105.752C63.2588 105.752 63.2579 105.752 63.2568 105.752Z" fill="#221B31"/>
<path d="M201.915 34.0328C200.105 25.6367 197.45 15.8523 192.346 9.79137C187.243 3.73159 176.399 4.68855 169.701 5.64581C163.002 6.60218 149.926 12.0251 142.909 13.9384C138.089 15.2526 128.76 18.0694 122.216 16.1985C121.407 14.5959 120.343 12.7974 118.882 10.6428C116.788 7.55333 113.662 5.31034 111.253 3.73159C109.697 2.71184 107.845 2.1979 106.469 1.97755C104.296 1.63047 102.133 1.95139 101.046 2.29644C98.897 2.98015 94.1087 5.00744 88.0489 8.83529C81.9886 12.6628 71.955 20.5862 64.1272 25.4208C58.7049 28.7692 54.2396 30.2047 48.4978 32.1186C42.7567 34.0328 32.3906 37.0627 24.7355 40.8897C15.8051 45.355 10.2232 51.5753 7.35261 56.0406C3.7643 61.6236 1.82422 68.7991 1.82422 73.9013C1.82422 79.0047 4.09889 87.0566 9.90431 91.7641C17.7722 98.1425 27.3639 102.87 60.2994 103.884C74.1209 104.309 101.764 101.545 130.151 95.9097C164.019 89.1871 188.154 79.3966 198.23 73.622C201.915 71.5104 203.669 68.4796 203.829 61.9408C204.06 52.5011 203.669 42.1658 201.915 34.0328Z" fill="#ACE0F4"/>
<path d="M193.901 11.8641C188.283 8.61996 179.844 9.41181 174.271 10.2086C167.573 11.165 154.496 16.5878 147.478 18.5012C142.659 19.8154 133.33 22.6319 126.786 20.7613C126.163 19.5273 125.387 18.1753 124.396 16.6361C123.645 16.5358 122.915 16.3925 122.218 16.1934C121.409 14.5908 120.344 12.7923 118.883 10.6377C118.793 10.5039 118.691 10.3807 118.596 10.2502C117.634 9.50977 116.682 8.85745 115.823 8.29409C114.267 7.27434 112.415 6.7604 111.039 6.54005C108.866 6.19297 106.703 6.51389 105.616 6.85894C103.467 7.54236 98.6787 9.56994 92.6189 13.3978C86.5589 17.2253 76.525 25.1487 68.6975 29.9833C63.2753 33.3317 58.8099 34.7672 53.0682 36.6811C47.327 38.5953 36.9609 41.6249 29.3058 45.4522C20.3754 49.9175 14.7935 56.1378 11.9229 60.6031C8.33461 66.1858 6.39453 73.3613 6.39453 78.4638C6.39453 82.4077 7.76195 88.1076 11.0587 92.6688C18.7533 98.5841 28.9534 102.913 60.3015 103.878C74.123 104.303 101.766 101.54 130.153 95.9042C164.021 89.1817 188.156 79.3911 198.233 73.6165C201.917 71.5049 203.671 68.4742 203.831 61.9353C204.062 52.496 203.671 42.1607 201.917 34.0277C200.302 26.531 198.006 17.9352 193.901 11.8641Z" fill="#71CFEC"/>
<path d="M203.869 54.2812C203.663 54.2824 203.456 54.3327 203.268 54.4368C198.342 57.1623 194.279 59.2605 191.191 60.6715C181.085 65.2918 158.41 74.4373 137.519 79.4119C119.399 83.7249 86.4969 88.1871 62.7987 88.1871C59.8927 88.1871 57.1439 88.1202 54.6268 87.9903C28.7789 86.6478 18.9207 81.8096 12.0705 74.9594C10.2915 73.1801 8.99237 71.1228 8.03221 69.0249C6.96014 72.3905 6.39648 75.7259 6.39648 78.464C6.39648 81.1538 7.03426 84.6601 8.48453 88.0653C8.6947 88.2516 8.90022 88.4429 9.1194 88.6208C16.7129 94.7765 25.8017 99.9581 60.2653 101.019C61.1976 101.048 62.2066 101.062 63.2624 101.062C79.4432 101.062 105.797 97.9072 130.399 93.0224C163.508 86.4493 187.97 76.8309 198.859 70.5914C200.968 69.3827 202.46 67.9083 203.458 65.9398C203.67 64.7694 203.797 63.4503 203.834 61.9355C203.894 59.4277 203.909 56.8571 203.869 54.2812Z" fill="#3EB8E0"/>
<path d="M138.893 18.2553C135.401 19.1245 131.24 19.9527 127.231 19.9529C125.058 19.9529 123.083 19.7027 121.357 19.2091C120.516 18.9692 119.814 18.3881 119.42 17.6082C119.138 17.0472 118.811 16.4565 118.462 15.8516L118.449 15.8888C118.449 15.8888 120.431 19.4393 121.476 23.3023C122.521 27.1659 123.669 38.1285 123.669 38.1285L143.089 37.6067L138.893 18.2553Z" fill="#71CFEC"/>
<path d="M107.938 101.151C107.701 101.151 107.467 101.09 107.26 100.971C97.9397 95.6625 76.052 80.3622 70.1904 74.6681C62.8031 67.4924 61.665 63.889 61.9083 58.526C62.1258 53.758 63.331 49.7939 68.8489 43.6396C74.6956 37.1179 97.1074 21.1071 110.606 20.2223C110.805 20.2092 111.003 20.2028 111.202 20.2028C116.152 20.2028 120.525 24.1658 124.753 27.9983C125.997 29.1262 127.173 30.1913 128.359 31.1584C133.921 35.6906 142.869 40.444 150.32 40.8475C150.693 40.8675 151.099 40.8777 151.525 40.8777C157.171 40.8774 166.777 39.1257 173.463 35.8787C181.994 31.7357 187.409 26.285 189.556 19.6766C190.275 17.4636 190.89 14.1453 191.334 10.0812C191.394 9.52971 191.781 9.06897 192.314 8.91403C192.44 8.8774 192.569 8.85938 192.696 8.85938C193.105 8.85938 193.502 9.04309 193.766 9.37332C198.904 15.7904 201.536 25.7658 203.256 33.7398C205.211 42.8039 205.392 54.0944 205.2 61.9701C205.038 68.6217 203.216 72.3408 198.913 74.8068C188.018 81.0506 163.542 90.6751 130.418 97.2497C123.122 98.6977 115.627 100.005 108.142 101.136C108.074 101.146 108.006 101.151 107.938 101.151Z" fill="#221B31"/>
<path d="M198.235 73.63C201.92 71.5185 203.673 68.4877 203.834 61.9489C204.064 52.5095 203.673 42.1742 201.92 34.0412C200.152 25.8422 197.572 16.3284 192.7 10.2422C192.347 13.4767 191.772 17.315 190.863 20.1127C188.099 28.6189 180.659 33.9214 174.065 37.124C166.622 40.7388 155.807 42.5277 150.249 42.2283C142.381 41.8021 133.238 36.9115 127.497 32.2331C122.116 27.848 116.655 21.2103 110.699 21.6022C97.7281 22.4524 75.4009 38.3998 69.8722 44.5669C64.7906 50.2345 63.4935 53.9214 63.2805 58.6007C63.068 63.2791 63.7063 66.4688 71.1481 73.6975C76.9523 79.3361 98.6645 94.5093 107.941 99.7933C115.131 98.7075 122.615 97.4145 130.155 95.918C164.024 89.1952 188.158 79.4047 198.235 73.63Z" fill="#ACE0F4"/>
<path d="M201.92 34.0293C200.559 27.7219 198.714 20.6423 195.719 14.9375C195.36 17.8052 194.832 20.9252 194.06 23.2984C191.296 31.8047 183.857 37.1075 177.262 40.3097C169.819 43.9245 159.004 45.7131 153.447 45.414C145.579 44.9881 136.436 40.097 130.695 35.4188C125.313 31.0337 119.853 24.3963 113.896 24.7879C100.925 25.6382 78.5984 41.5856 73.0698 47.7523C67.9879 53.42 66.6911 57.1068 66.4777 61.7861C66.2917 65.8831 66.7585 68.8386 71.8747 74.3638C78.5729 80.4538 99.0129 94.6954 107.941 99.7808C115.131 98.6951 122.615 97.4021 130.155 95.9056C164.024 89.183 188.158 79.3925 198.235 73.6179C201.92 71.5063 203.673 68.4755 203.834 61.9367C204.064 52.4976 203.674 42.1623 201.92 34.0293Z" fill="#71CFEC"/>
<path d="M203.87 54.2812C203.664 54.2824 203.457 54.3327 203.27 54.4368C198.343 57.1623 194.28 59.2605 191.192 60.6715C181.086 65.2918 158.411 74.4373 137.52 79.4119C125.356 82.3075 106.53 85.2679 88.2988 86.9025C93.8487 90.8164 99.6419 94.7009 104.135 97.4965C112.757 96.2637 121.687 94.7524 130.4 93.0224C163.509 86.4493 187.971 76.8309 198.859 70.5914C200.969 69.3827 202.461 67.9083 203.458 65.9398C203.67 64.7694 203.797 63.4503 203.834 61.9355C203.895 59.4277 203.911 56.8571 203.87 54.2812Z" fill="#3EB8E0"/>
<path d="M201.918 34.0412C200.15 25.8422 197.571 16.3284 192.699 10.2422C192.57 11.4183 192.411 12.675 192.219 13.9319C194.598 19.2016 196.159 25.3201 197.35 30.8433C199.105 38.9766 199.495 49.3119 199.264 58.7509C199.105 65.2901 197.35 68.3209 193.665 70.4322C183.589 76.2068 159.455 85.9976 125.586 92.7201C117.85 94.2559 110.171 95.5768 102.811 96.6797C104.75 97.9081 106.496 98.9706 107.94 99.793C115.13 98.7072 122.614 97.4142 130.154 95.9178C164.023 89.1952 188.157 79.4047 198.234 73.6301C201.919 71.5185 203.672 68.4877 203.833 61.9489C204.063 52.5095 203.672 42.1742 201.918 34.0412Z" fill="#3EB8E0"/>
<path d="M76.6752 57.745C74.8261 57.745 73.3262 56.2448 73.3262 54.3957C73.3262 52.5457 74.8261 51.0469 76.6752 51.0469C78.5249 51.0469 80.0243 52.5457 80.0243 54.3957C80.0243 56.2448 78.5249 57.745 76.6752 57.745Z" fill="#0655A0"/>
<path d="M93.4738 48.0095C91.6247 48.0095 90.125 46.5095 90.125 44.661C90.125 42.8104 91.6247 41.3125 93.4738 41.3125C95.3232 41.3125 96.8231 42.8104 96.8231 44.661C96.8231 46.5095 95.3232 48.0095 93.4738 48.0095Z" fill="#0655A0"/>
<path d="M109.475 38.2372C107.624 38.2372 106.125 36.7372 106.125 34.8881C106.125 33.0393 107.624 31.5391 109.475 31.5391C111.324 31.5391 112.823 33.0396 112.823 34.8881C112.823 36.7372 111.324 38.2372 109.475 38.2372Z" fill="#0655A0"/>
<path d="M168.134 87.4566C167.845 87.4566 167.56 87.3656 167.321 87.1897C166.965 86.9275 166.757 86.5092 166.764 86.067C166.963 71.9533 168.6 54.5391 179.576 45.0724C182.37 42.662 185.4 40.5483 188.331 38.5045C192.032 35.9226 195.86 33.2523 199.125 30.0229C199.31 29.8404 199.49 29.6532 199.672 29.4666L200.031 29.0965C200.292 28.8311 200.645 28.6875 201.007 28.6875C201.13 28.6875 201.252 28.7038 201.373 28.7369C201.852 28.8695 202.222 29.2514 202.339 29.7346C202.654 31.0305 202.963 32.3796 203.257 33.7444C205.212 42.8088 205.393 54.0993 205.201 61.9747C205.039 68.6264 203.218 72.3455 198.914 74.8114C192.02 78.7617 180.956 83.3459 168.558 87.3891C168.42 87.4345 168.277 87.4566 168.134 87.4566Z" fill="#221B31"/>
<path d="M180.471 46.1143C169.836 55.2874 168.323 72.7687 168.135 86.0909C182.192 81.5061 192.496 76.9152 198.234 73.6272C201.919 71.5156 203.673 68.4848 203.833 61.946C204.063 52.5066 203.673 42.1713 201.919 34.0383C201.639 32.7401 201.335 31.4081 201.009 30.0625C200.701 30.3744 200.401 30.6933 200.09 31.0014C194.153 36.8752 186.758 40.6931 180.471 46.1143Z" fill="#ACE0F4"/>
<path d="M201.532 32.2891C201.508 32.3132 201.485 32.3385 201.46 32.3626C195.522 38.2363 188.128 42.0546 181.842 47.4754C171.687 56.234 169.85 72.5642 169.541 85.6184C182.88 81.1894 192.689 76.795 198.234 73.6177C201.919 71.5061 203.672 68.4754 203.833 61.9365C204.063 52.4971 203.672 42.1619 201.919 34.0289C201.795 33.4556 201.665 32.8736 201.532 32.2891Z" fill="#71CFEC"/>
<path d="M203.868 54.2812C203.662 54.2824 203.455 54.3327 203.267 54.4368C198.341 57.1623 194.278 59.2605 191.19 60.6715C186.314 62.9009 178.507 66.184 169.39 69.5438C168.642 74.1885 168.324 78.8956 168.195 83.2744C182.171 78.7404 192.691 74.1245 198.857 70.5914C200.967 69.3827 202.459 67.9083 203.456 65.9398C203.668 64.7694 203.795 63.4503 203.832 61.9355C203.893 59.4277 203.908 56.8571 203.868 54.2812Z" fill="#3EB8E0"/>
<path d="M201.918 34.0383C201.639 32.7401 201.335 31.4081 201.008 30.0625C200.701 30.3744 200.401 30.6933 200.09 31.0014C199.345 31.7381 198.578 32.4418 197.793 33.1209C199.167 40.8545 199.474 50.1688 199.264 58.7481C199.105 65.2872 197.351 68.318 193.666 70.4293C188.588 73.3397 179.935 77.2704 168.267 81.3139C168.197 82.9485 168.157 84.5482 168.135 86.0909C182.192 81.5061 192.496 76.9152 198.234 73.6272C201.919 71.5156 203.673 68.4848 203.833 61.946C204.063 52.5066 203.673 42.1713 201.918 34.0383Z" fill="#3EB8E0"/>
<path d="M63.2607 105.18C62.2046 105.18 61.1962 105.165 60.2636 105.136C25.8002 104.076 16.7109 98.8943 9.11797 92.7385C3.21545 87.9529 0.574219 79.8303 0.574219 73.9025C0.574219 70.3508 1.47188 65.9727 3.03813 61.8908C3.22592 61.4019 3.6951 61.0865 4.2073 61.0865C4.27096 61.0865 4.33491 61.0926 4.40003 61.1013C4.98257 61.1923 5.42355 61.6772 5.45873 62.2664C5.6971 66.3134 6.87179 73.8799 12.0694 79.0772C18.9193 85.9273 28.7778 90.7659 54.6256 92.108C57.1427 92.238 59.8921 92.3048 62.7979 92.3048C86.496 92.3048 119.399 87.8424 137.518 83.5294C158.409 78.5548 181.085 69.4093 191.19 64.789C194.278 63.378 198.341 61.2801 203.268 58.5545C203.456 58.4496 203.666 58.3984 203.874 58.3984C204.097 58.3984 204.32 58.4569 204.517 58.5763C204.901 58.8054 205.133 59.2205 205.127 59.667C205.117 60.4263 205.103 61.1923 205.085 61.9725C204.921 68.6631 203.175 72.2351 198.857 74.7089C187.968 80.9483 163.507 90.5668 130.397 97.1399C105.795 102.025 79.4415 105.18 63.2607 105.18Z" fill="#221B31"/>
<path d="M191.71 65.9338C180.547 71.0366 157.901 79.9678 137.808 84.7529C117.713 89.5363 79.1199 94.6399 54.5599 93.3638C30.0007 92.0885 18.8372 87.6226 11.1821 79.9681C5.63367 74.4199 4.44299 66.3614 4.20636 62.3446C2.64971 66.4041 1.82617 70.593 1.82617 73.9075C1.82617 79.0109 4.10084 87.0628 9.90627 91.7702C17.7742 98.1486 27.3658 102.876 60.3013 103.89C74.1229 104.315 101.766 101.551 130.152 95.9158C164.021 89.1932 188.156 79.4027 198.232 73.6281C201.917 71.5165 203.671 68.4858 203.831 61.9469C203.85 61.1711 203.862 60.4109 203.873 59.6562C199.556 62.0452 195.209 64.3347 191.71 65.9338Z" fill="white"/>
<path d="M203.875 59.6562C202.225 60.5693 200.572 61.4664 198.963 62.3175C198.308 66.4759 196.601 68.7482 193.665 70.4305C183.589 76.2051 159.455 85.9959 125.586 92.7185C97.1993 98.3538 69.5562 101.117 55.7346 100.692C29.3115 99.8791 17.914 96.6757 10.377 92.1464C18.1643 98.3344 28.0182 102.897 60.3025 103.89C74.1241 104.315 101.767 101.551 130.154 95.9161C164.023 89.1935 188.157 79.403 198.234 73.6284C201.918 71.5168 203.672 68.486 203.832 61.9472C203.851 61.1711 203.864 60.4109 203.875 59.6562Z" fill="#E6E7E8"/>
<path d="M55.393 35.911C53.1587 35.911 51.3907 35.3192 49.4242 34.4314C48.8475 34.1695 48.2068 33.7901 47.517 33.3026C47.0984 33.007 46.8798 32.5024 46.9507 31.9948C47.021 31.487 47.369 31.0614 47.8521 30.891C47.9231 30.866 48.6181 30.6347 48.6181 30.6347C54.0259 28.8338 58.297 27.4114 63.4086 24.2548C67.6687 21.6238 72.5177 18.12 77.2069 14.7314C80.9844 12.0015 84.553 9.42338 87.3183 7.67661C91.6744 4.92492 95.1996 3.20547 97.3903 2.24764C97.5658 2.1706 97.7527 2.13281 97.9391 2.13281C98.1908 2.13281 98.4417 2.20229 98.662 2.33891C99.0452 2.57699 99.2867 2.98803 99.3079 3.43861C99.419 5.78973 98.8181 8.09056 97.5219 10.2769C96.3946 12.1797 88.6535 18.5395 81.5928 23.3624C74.0555 28.512 65.0626 33.5096 62.678 34.3657C59.7421 35.4197 57.4273 35.9107 55.3933 35.9107L55.393 35.911Z" fill="#221B31"/>
<path d="M80.8208 22.2276C88.6221 16.8983 95.4935 11.0112 96.3444 9.57489C97.7019 7.28482 98.0194 5.17613 97.9403 3.5C95.4456 4.59068 92.025 6.32146 88.0512 8.83218C81.9909 12.6597 71.9573 20.5831 64.1295 25.4176C58.7072 28.7661 54.2419 30.2016 48.5002 32.1155C48.4394 32.1356 48.3705 32.1582 48.3086 32.1803C48.8458 32.56 49.4318 32.926 49.9885 33.1791C53.2847 34.6675 55.9343 35.3282 62.2156 33.073C64.2894 32.328 73.0204 27.5566 80.8208 22.2276Z" fill="#ACE0F4"/>
<path d="M72.2754 27.676C75.0018 26.0478 77.9724 24.1778 80.82 22.2325C85.0159 19.3662 88.9405 16.3398 91.8067 13.9297C86.6301 17.3049 79.0331 23.1502 72.2754 27.676Z" fill="#71CFEC"/>
<path d="M128.36 31.1593C133.922 35.6915 142.87 40.4449 150.321 40.8484C150.694 40.8685 151.1 40.8786 151.526 40.8786C157.171 40.8783 166.778 39.1266 173.463 35.8796C181.995 31.7367 187.41 26.2859 189.556 19.6776C190.276 17.4645 190.891 14.1463 191.335 10.0821C191.373 9.73092 191.545 9.41697 191.802 9.19517C186.506 3.79817 176.172 4.71909 169.703 5.64291C163.004 6.59929 149.927 12.0222 142.911 13.9355C138.076 15.2541 128.7 18.0872 122.152 16.1811C123.566 19.9927 124.774 24.0031 125.456 28.635C126.445 29.5274 127.4 30.3768 128.36 31.1593Z" fill="#ACE0F4"/>
<path d="M128.361 31.1629C133.923 35.695 142.871 40.4484 150.322 40.8519C150.695 40.872 151.101 40.8822 151.527 40.8822C157.173 40.8819 166.779 39.1302 173.464 35.8831C181.996 31.7402 187.411 26.2894 189.557 19.6811C190.277 17.468 190.892 14.1498 191.336 10.0856C191.368 9.78909 191.498 9.52079 191.691 9.31032C186.117 5.33452 176.984 6.17259 171.074 7.01676C164.376 7.97314 151.299 13.396 144.282 15.3093C139.447 16.6279 130.071 19.4613 123.523 17.5552C124.919 21.3183 126.112 25.2775 126.799 29.8347C127.322 30.2934 127.841 30.739 128.361 31.1629Z" fill="#71CFEC"/>
<path d="M187.782 6.6C189.078 8.13892 190.213 9.91913 191.22 11.8546C191.293 11.2857 191.363 10.7049 191.429 10.1026C191.465 9.77145 191.637 9.4857 191.88 9.27873C190.704 8.05753 189.275 7.15609 187.691 6.5C187.721 6.53401 187.752 6.5654 187.782 6.6Z" fill="#3EB8E0"/>
<path d="M128.361 31.1664C133.923 35.6986 142.871 40.452 150.322 40.8555C150.695 40.8755 151.1 40.8857 151.527 40.8857C157.172 40.8854 166.779 39.1337 173.464 35.8867C181.996 31.7437 187.411 26.2929 189.557 19.6846C190.054 18.1593 190.498 16.0995 190.873 13.6423C187.977 10.7638 184.254 8.86764 179.978 8.12812C170.285 6.4546 160.871 11.0595 152.106 14.4981C146.925 16.5309 141.585 18.3451 136.042 19.0486C131.806 19.5858 127.5 19.3866 123.223 19.2593C124.168 22.1625 124.955 25.2342 125.458 28.6423C126.446 29.5347 127.401 30.3838 128.361 31.1664Z" fill="#FFDAAB"/>
<path d="M128.361 31.1649C133.922 35.6971 142.87 40.4505 150.321 40.854C150.694 40.874 151.1 40.8842 151.526 40.8842C157.172 40.8839 166.778 39.1322 173.464 35.8851C174.24 35.5081 174.981 35.1168 175.706 34.7183C169.255 37.304 161.117 38.695 156.097 38.695C155.668 38.695 155.264 38.6842 154.884 38.6639C147.411 38.2586 138.442 33.4959 132.868 28.9547C131.936 28.1925 131.007 27.3696 130.049 26.5048C129.682 23.9694 129.156 21.6232 128.526 19.3927C126.758 19.3723 124.988 19.3104 123.223 19.2578C124.168 22.161 124.955 25.2327 125.458 28.6408C126.446 29.5332 127.4 30.3823 128.361 31.1649Z" fill="#E5B58D"/>
<path d="M124.819 21.3965C124.708 21.002 124.602 20.6099 124.481 20.2122C126.157 20.2645 127.885 20.3169 129.592 20.3169C132.125 20.3169 134.211 20.2017 136.157 19.9547C142.073 19.2044 147.708 17.205 152.44 15.3483C153.528 14.9216 154.627 14.4766 155.734 14.028C162.216 11.4025 168.919 8.68712 175.754 8.68712C177.141 8.68712 178.51 8.80165 179.823 9.02839C183.583 9.67838 186.941 11.2996 189.61 13.7176C189.61 13.7176 189.828 13.9455 189.974 14.0853C190.291 14.3902 190.743 15.0155 190.743 15.0155C190.816 14.5966 190.887 14.1687 190.956 13.7228C188.049 10.7981 184.295 8.87462 179.978 8.12812C170.285 6.4546 160.871 11.0595 152.106 14.4981C146.925 16.5309 141.585 18.3451 136.042 19.0486C131.806 19.5858 127.5 19.3866 123.223 19.2593C123.433 19.9032 123.633 20.5576 123.826 21.22L124.819 21.3965Z" fill="#221B31"/>
<path d="M126.255 30.7033C125.953 30.7033 125.687 30.4838 125.636 30.1774C125.632 30.1483 125.159 27.2527 124.236 23.3293C123.319 19.4279 121.541 14.9262 121.523 14.8811C121.395 14.5596 121.553 14.1954 121.874 14.0678C122.196 13.9399 122.56 14.0983 122.687 14.4184C122.706 14.4663 124.517 19.0503 125.456 23.0426C126.39 27.0115 126.869 29.9469 126.874 29.976C126.929 30.3178 126.697 30.6399 126.356 30.6951C126.322 30.7006 126.288 30.7033 126.255 30.7033Z" fill="#221B31"/>
<path d="M76.6745 62.0323C72.4635 62.0323 69.0371 58.6059 69.0371 54.3949C69.0371 50.1842 72.4638 46.7578 76.6745 46.7578C80.8855 46.7578 84.3127 50.1842 84.3127 54.3949C84.3127 58.6059 80.8855 62.0323 76.6745 62.0323ZM76.6745 51.9853C75.3463 51.9853 74.2652 53.0667 74.2652 54.3949C74.2652 55.7228 75.3463 56.8042 76.6745 56.8042C78.0029 56.8042 79.084 55.7228 79.084 54.3949C79.084 53.0667 78.0029 51.9853 76.6745 51.9853Z" fill="#221B31"/>
<path d="M76.6764 47.6953C72.9773 47.6953 69.9785 50.6935 69.9785 54.3932C69.9785 58.0928 72.9773 61.0916 76.6764 61.0916C80.3754 61.0916 83.3748 58.0925 83.3748 54.3932C83.3748 50.6932 80.3757 47.6953 76.6764 47.6953ZM76.6764 57.7422C74.8273 57.7422 73.3273 56.242 73.3273 54.3929C73.3273 52.5429 74.8273 51.0441 76.6764 51.0441C78.526 51.0441 80.0254 52.5429 80.0254 54.3929C80.0254 56.242 78.526 57.7422 76.6764 57.7422Z" fill="white"/>
<path d="M73.8946 56.2543C73.5356 55.7208 73.3258 55.0787 73.3258 54.3874C73.3258 52.5375 74.8257 51.0386 76.6748 51.0386C77.3664 51.0386 78.0085 51.2482 78.5417 51.607C77.9402 50.7131 76.9196 50.125 75.7612 50.125C73.9121 50.125 72.4121 51.6238 72.4121 53.4738C72.4124 54.6319 73.0005 55.6525 73.8946 56.2543Z" fill="#D1D3D4"/>
<path d="M80.9342 49.2188C81.888 50.376 82.4612 51.8588 82.4612 53.476C82.4612 57.1756 79.4621 60.1747 75.7628 60.1747C74.1462 60.1747 72.6631 59.6014 71.5059 58.6474C72.7343 60.138 74.5945 61.0883 76.6764 61.0883C80.3755 61.0883 83.3748 58.0892 83.3748 54.3899C83.3746 52.3068 82.4246 50.4469 80.9342 49.2188Z" fill="#D1D3D4"/>
<path d="M93.4736 52.3066C89.2629 52.3066 85.8359 48.8808 85.8359 44.6689C85.8359 40.4571 89.2632 37.0312 93.4736 37.0312C97.6849 37.0312 101.111 40.4574 101.111 44.6689C101.111 48.8811 97.6849 52.3066 93.4736 52.3066ZM93.4736 42.2605C92.1448 42.2605 91.0643 43.341 91.0643 44.6692C91.0643 45.9971 92.1448 47.0785 93.4736 47.0785C94.8021 47.0785 95.8829 45.9971 95.8829 44.6692C95.8829 43.341 94.8024 42.2605 93.4736 42.2605Z" fill="#221B31"/>
<path d="M93.4735 37.9609C89.7745 37.9609 86.7754 40.96 86.7754 44.6591C86.7754 48.3584 89.7745 51.3566 93.4735 51.3566C97.1723 51.3566 100.171 48.3584 100.171 44.6591C100.171 40.9597 97.1723 37.9609 93.4735 37.9609ZM93.4735 48.0073C91.6244 48.0073 90.1248 46.5073 90.1248 44.6588C90.1248 42.8082 91.6244 41.3103 93.4735 41.3103C95.3229 41.3103 96.8229 42.8082 96.8229 44.6588C96.8229 46.5073 95.3229 48.0073 93.4735 48.0073Z" fill="white"/>
<path d="M90.6951 46.5343C90.3361 46.0012 90.1265 45.3591 90.1265 44.6684C90.1265 42.8178 91.6262 41.3199 93.4753 41.3199C94.1669 41.3199 94.8093 41.5295 95.3427 41.8882C94.7413 40.994 93.7204 40.4062 92.562 40.4062C90.7126 40.4062 89.2129 41.9042 89.2129 43.7544C89.2129 44.9126 89.8013 45.9332 90.6951 46.5343Z" fill="#D1D3D4"/>
<path d="M97.7324 39.5C98.6862 40.6575 99.2594 42.1407 99.2594 43.7578C99.2594 47.4574 96.2609 50.4556 92.5622 50.4556C90.945 50.4556 89.4619 49.8827 88.3047 48.9286C89.5334 50.419 91.3933 51.3693 93.4755 51.3693C97.1743 51.3693 100.173 48.3711 100.173 44.6717C100.173 42.5889 99.2228 40.7288 97.7324 39.5Z" fill="#D1D3D4"/>
<path d="M109.473 42.5172C105.262 42.5172 101.836 39.0911 101.836 34.8798C101.836 30.6686 105.262 27.2422 109.473 27.2422C113.685 27.2422 117.11 30.6686 117.11 34.8798C117.111 39.0914 113.685 42.5172 109.473 42.5172ZM109.473 32.4703C108.145 32.4703 107.064 33.5517 107.064 34.8801C107.064 36.2092 108.145 37.2891 109.473 37.2891C110.801 37.2891 111.883 36.2092 111.883 34.8801C111.883 33.5514 110.801 32.4703 109.473 32.4703Z" fill="#221B31"/>
<path d="M109.474 28.1797C105.774 28.1797 102.775 31.1793 102.775 34.8781C102.775 38.5766 105.774 41.5754 109.474 41.5754C113.172 41.5754 116.172 38.5766 116.172 34.8781C116.172 31.1793 113.172 28.1797 109.474 28.1797ZM109.474 38.2272C107.623 38.2272 106.124 36.7272 106.124 34.8781C106.124 33.0293 107.623 31.529 109.474 31.529C111.323 31.529 112.822 33.0296 112.822 34.8781C112.822 36.7272 111.323 38.2272 109.474 38.2272Z" fill="white"/>
<path d="M113.733 29.7109C114.687 30.8685 115.26 32.3519 115.26 33.9687C115.26 37.6672 112.261 40.666 108.562 40.666C106.945 40.666 105.462 40.0927 104.305 39.1387C105.533 40.6291 107.393 41.5796 109.476 41.5796C113.175 41.5796 116.174 38.5808 116.174 34.8824C116.174 32.7998 115.223 30.9397 113.733 29.7109Z" fill="#D1D3D4"/>
<path d="M106.695 36.7467C106.336 36.2133 106.127 35.5712 106.127 34.8802C106.127 33.0314 107.626 31.5311 109.476 31.5311C110.167 31.5311 110.809 31.741 111.343 32.0997C110.741 31.2058 109.721 30.6172 108.563 30.6172C106.712 30.6172 105.213 32.118 105.213 33.9665C105.213 35.1247 105.801 36.1453 106.695 36.7467Z" fill="#D1D3D4"/>
<path d="M56.2241 30.6942C55.1399 30.6942 54.662 30.2338 54.4527 29.846C54.0024 29.0166 54.4111 27.9879 55.6657 26.7899C56.6087 25.8882 57.9756 24.933 59.5142 24.099C61.7674 22.8778 63.938 22.1484 65.3208 22.1484C66.4059 22.1484 66.8833 22.6098 67.0928 22.9973C67.5431 23.8254 67.1353 24.8551 65.8795 26.053C64.9362 26.9533 63.5694 27.9094 62.0307 28.7437C59.7776 29.9646 57.6067 30.6942 56.2241 30.6942Z" fill="#221B31"/>
<path d="M66.2667 23.442C66.7149 24.2682 64.6179 26.2693 61.5836 27.9146C58.5494 29.5591 55.7273 30.2233 55.2791 29.3966C54.8308 28.571 56.9285 26.5681 59.9622 24.9222C62.9961 23.2789 65.819 22.6144 66.2667 23.442Z" fill="white"/>
<path d="M66.2659 23.438C66.1386 23.2022 65.8136 23.0915 65.3511 23.0859C65.0011 24.0702 63.1494 25.6522 60.6692 26.9969C58.4986 28.1734 56.4417 28.844 55.2798 28.8303C55.2013 29.0507 55.1961 29.2416 55.2783 29.3925C55.7266 30.2192 58.5486 29.555 61.5829 27.9106C64.6171 26.2652 66.7142 24.2641 66.2659 23.438Z" fill="#E6E7E8"/>
<path d="M70.1029 22.4589C69.2771 22.4589 68.8506 22.1008 68.6387 21.7996C68.0954 21.0299 68.38 19.959 69.4864 18.6224C70.3172 17.6174 71.5625 16.5084 72.9936 15.4997C75.3058 13.8716 77.579 12.8594 78.9281 12.8594C79.7536 12.8594 80.1804 13.2184 80.3914 13.5198C80.5533 13.7477 80.7266 14.1425 80.6283 14.7117C80.3568 16.2837 78.0784 18.3799 76.0371 19.8177C73.7253 21.4476 71.4512 22.4589 70.1029 22.4589Z" fill="#221B31"/>
<path d="M79.6217 14.058C80.1641 14.8248 78.3162 17.0611 75.495 19.048C72.6738 21.0364 69.9489 22.027 69.4065 21.2567C68.8658 20.489 70.7134 18.2559 73.5346 16.2667C76.3549 14.2783 79.0816 13.2882 79.6217 14.058Z" fill="white"/>
<path d="M79.6225 14.0541C79.4766 13.846 79.1664 13.7707 78.742 13.8047C78.4269 14.8381 76.8112 16.5608 74.5822 18.1302C72.5235 19.5811 70.5206 20.4968 69.375 20.5889C69.291 20.8633 69.2936 21.0915 69.4072 21.2526C69.9497 22.0232 72.6746 21.0322 75.4958 19.0439C78.317 17.057 80.1649 14.821 79.6225 14.0541Z" fill="#E6E7E8"/>
<path d="M82.7306 13.1246C81.7414 13.1246 81.2818 12.6996 81.0702 12.3418C79.7909 10.1793 84.8774 7.01863 85.9102 6.40701C88.1742 5.06721 90.4238 4.23438 91.7819 4.23438C92.7706 4.23438 93.231 4.66111 93.4418 5.01779C93.9226 5.82882 93.5537 6.87212 92.3456 8.11803C91.4381 9.05377 90.1087 10.0601 88.6018 10.9537C86.339 12.2924 84.0893 13.1246 82.7306 13.1246Z" fill="#221B31"/>
<path d="M92.633 5.50185C93.1121 6.30998 91.0932 8.39105 88.1238 10.1506C85.1538 11.9093 82.3576 12.6796 81.8785 11.8695C81.4009 11.0608 83.4195 8.97999 86.3895 7.22159C89.3581 5.46232 92.1545 4.69169 92.633 5.50185Z" fill="white"/>
<path d="M92.6356 5.49759C92.5016 5.27056 92.1813 5.17201 91.731 5.18015C91.3888 6.18043 89.6121 7.81121 87.213 9.23299C85.0747 10.499 83.0311 11.2487 81.8733 11.2693C81.7919 11.5068 81.7899 11.71 81.8815 11.8652C82.3605 12.6754 85.1567 11.905 88.1267 10.1464C91.0958 8.38679 93.1147 6.30572 92.6356 5.49759Z" fill="#E6E7E8"/>
<path d="M75.4844 57.1136C71.8755 57.1136 67.007 52.407 64.7855 49.4408C61.9823 45.6978 58.0373 37.6933 56.9693 33.5797C55.7798 28.9963 56.8005 25.2191 59.5103 24.1793C59.901 24.0287 60.3065 23.9531 60.7149 23.9531C63.2669 23.9531 65.2872 26.7717 67.625 30.0362L67.8622 30.3661C70.0886 33.4698 73.5888 39.9962 74.9905 42.6575L75.1905 43.0362C77.8126 48.012 81.0768 54.2023 77.4905 56.5436C76.9103 56.9212 76.2353 57.1136 75.4844 57.1136Z" fill="#221B31"/>
<path d="M76.8094 55.4994C74.0783 57.2808 68.3909 52.1649 65.7921 48.6943C63.193 45.2246 59.2414 37.3363 58.1856 33.2692C57.1815 29.399 57.8975 26.1464 59.9634 25.3537C62.205 24.4932 64.3811 27.6627 66.8482 31.1013C68.8511 33.8934 72.0673 39.7924 73.8856 43.2461C76.2411 47.7196 79.5154 53.7331 76.8094 55.4994Z" fill="white"/>
<path d="M77.2966 50.5548C77.507 51.9441 77.2876 53.0653 76.351 53.6769C73.6199 55.4583 67.9325 50.3424 65.334 46.8715C62.9 43.6221 59.28 36.4978 57.9629 32.2656C58.0251 32.5964 58.0957 32.9316 58.1844 33.2735C59.2402 37.3405 63.1919 45.2291 65.791 48.6985C68.3898 52.1691 74.0772 57.285 76.8082 55.5036C78.1282 54.642 78.0227 52.7673 77.2966 50.5548Z" fill="#D1D3D4"/>
<path d="M92.0205 47.0838C89.5427 47.0838 86.3305 44.7879 81.9105 39.858C78.3664 35.9049 74.0342 29.153 72.2107 25.3281C70.6526 22.0581 70.2398 19.3697 71.0171 17.5523C71.4543 16.53 72.2473 15.8047 73.3092 15.455C73.7377 15.3146 74.1903 15.2422 74.6537 15.2422C76.8868 15.2422 79.3963 16.8715 82.3254 20.2244C85.407 23.7511 89.17 29.0289 91.2947 32.4198C92.4147 34.2079 97.8219 43.2778 94.2911 46.2684C93.6513 46.8097 92.8871 47.0838 92.0205 47.0838Z" fill="#221B31"/>
<path d="M93.4812 45.3083C91.1519 47.2818 86.6805 43.2993 82.8433 39.0194C79.2701 35.0343 75.0469 28.365 73.342 24.7862C71.1586 20.2052 71.5467 17.3503 73.7002 16.6422C75.7405 15.9704 78.3489 17.5756 81.3814 21.0456C84.4128 24.5159 88.1203 29.7106 90.2324 33.0814C92.8304 37.2299 95.5568 43.5502 93.4812 45.3083Z" fill="white"/>
<path d="M93.6379 40.1797C93.8908 41.6526 93.7611 42.8532 93.0245 43.4773C90.6952 45.4511 86.2237 41.468 82.3869 37.1885C78.8137 33.2033 74.5905 26.534 72.8853 22.9553C72.5068 22.1611 72.2106 21.4224 71.9824 20.7344C72.1624 21.8753 72.6007 23.2268 73.3423 24.7826C75.0472 28.3613 79.2701 35.0306 82.8436 39.0157C86.6807 43.2956 91.1521 47.2781 93.4815 45.3046C94.505 44.4375 94.3591 42.4593 93.6379 40.1797Z" fill="#D1D3D4"/>
<path d="M108.384 37.1997C104.791 37.1997 100.377 32.2257 96.5218 27.5638C95.4942 26.3208 94.3657 25.0653 93.2738 23.8505C91.3088 21.6657 89.2777 19.4064 87.5803 16.962C84.0743 11.9164 83.3316 8.3348 85.4301 6.6046C86.2135 5.95984 87.1417 5.63281 88.1896 5.63281C90.7995 5.63281 94.0358 7.65604 98.3743 12.0001C100.455 14.0838 105.047 19.1015 107.544 23.1843C110.76 28.4443 113.901 34.2506 110.421 36.5884C109.818 36.9945 109.133 37.1997 108.384 37.1997Z" fill="#221B31"/>
<path d="M109.723 35.5463C106.665 37.6006 101.204 31.2571 97.4877 26.763C94.618 23.2927 91.2076 19.9861 88.6091 16.2451C86.0597 12.5754 84.5588 8.9441 86.2268 7.57029C88.8076 5.44242 93.1561 8.54557 97.4877 12.8827C99.2234 14.6216 103.947 19.7032 106.474 23.836C109.127 28.1723 112.298 33.8161 109.723 35.5463Z" fill="white"/>
<path d="M110.171 30.9806C110.329 32.1847 110.1 33.1568 109.267 33.7172C106.209 35.7713 100.748 29.428 97.0313 24.9339C94.1616 21.4636 90.7512 18.157 88.1527 14.4158C87.0114 12.7728 86.0835 11.1394 85.5527 9.71094C85.7277 11.458 86.9402 13.8399 88.6097 16.2431C91.2082 19.984 94.6186 23.2909 97.4883 26.7609C101.205 31.255 106.666 37.5985 109.724 35.5442C110.948 34.7216 110.871 33.0126 110.171 30.9806Z" fill="#D1D3D4"/>
<path d="M146.305 206.995C138.909 206.995 131.666 206.267 124.776 204.831C109.835 201.719 95.2731 190.168 92.7144 182.309C91.034 177.148 87.9055 167.541 96.0324 154.468C102.166 144.602 112.882 138.008 121.492 132.709C123.341 131.571 125.087 130.497 126.653 129.471C139.606 120.994 147.292 108.703 152.378 100.569C153.958 98.0422 155.323 95.86 156.578 94.1934C163.712 84.7168 171.769 78.5266 178.681 77.2103C182.306 76.5199 184.753 76.2385 187.128 76.2385C189.509 76.2385 191.893 76.5211 195.356 77.2132C200.98 78.3382 208.952 82.8852 211.279 84.2625C213.119 83.8142 218.399 82.3936 223.608 79.7277C229.376 76.778 234.333 72.595 237.613 69.827L237.671 69.7782C242.645 65.5817 246.085 62.9245 253.81 61.2455C255.393 60.901 257.156 60.7266 259.048 60.7266C265.723 60.7266 273.38 62.9358 277.253 65.9794C282.129 69.8101 283.551 73.1194 284.694 75.7783C286.21 79.3044 286.985 81.6899 288.576 91.2342C290.148 100.666 290.385 111.845 290.165 116.676C289.951 121.388 289.011 128.422 288.47 132.195C288.104 134.754 286.963 137.141 285.417 138.579C279.163 144.397 256.433 163.652 238.527 174.233C217.232 186.816 206.82 191.955 196.032 196.578C187.909 200.06 177.239 203.038 172.421 204.097C163.676 206.02 154.89 206.995 146.305 206.995Z" fill="#221B31"/>
<path d="M172.028 202.314C156.298 205.773 140.183 206.177 125.148 203.044C110.113 199.912 96.6443 188.48 94.4519 181.744C92.3583 175.316 90.3798 167.023 97.5841 155.434C104.789 143.845 118.848 136.766 127.654 131.002C144.881 119.726 152.758 102.305 158.037 95.2939C164.719 86.4194 172.446 80.2596 179.023 79.0064C185.601 77.7538 188.733 77.7538 194.998 79.0064C201.262 80.2596 210.972 86.2104 210.972 86.2104C210.972 86.2104 217.706 84.8014 224.441 81.3555C230.428 78.2931 235.459 74.0365 238.849 71.1755C243.861 66.9471 246.994 64.598 254.198 63.032C261.402 61.4652 271.738 63.9709 276.124 67.4171C280.509 70.8621 281.831 73.7461 283.015 76.501C284.463 79.8701 285.207 82.1389 286.774 91.5359C288.339 100.932 288.554 111.89 288.339 116.594C288.133 121.146 287.242 127.886 286.662 131.936C286.364 134.017 285.442 136.06 284.172 137.242C277.504 143.445 254.963 162.399 237.597 172.661C216.924 184.876 206.274 190.202 195.311 194.9C187.389 198.295 176.851 201.253 172.028 202.314Z" fill="#ACE0F4"/>
<path d="M283.013 76.4953C282.372 75.0037 281.686 73.473 280.499 71.8369C276.014 68.4652 265.868 66.0495 258.764 67.5943C251.559 69.1602 248.427 71.5093 243.415 75.7377C240.025 78.5985 234.994 82.8554 229.006 85.9178C222.273 89.3637 215.538 90.7727 215.538 90.7727C215.538 90.7727 205.828 84.8216 199.564 83.5687C193.299 82.3161 190.167 82.3161 183.59 83.5687C177.012 84.8216 169.285 90.9814 162.604 99.8562C157.324 106.867 149.448 124.288 132.22 135.564C123.414 141.329 109.355 148.407 102.15 159.996C94.9462 171.586 96.9246 179.878 99.0185 186.307C99.5194 187.845 100.614 189.63 102.175 191.503C107.961 196.457 116.28 201.191 125.147 203.038C140.181 206.171 156.296 205.768 172.026 202.309C176.849 201.248 187.388 198.29 195.31 194.895C206.272 190.197 216.922 184.871 237.595 172.656C254.961 162.394 277.502 143.439 284.17 137.237C285.44 136.055 286.362 134.012 286.66 131.93C287.241 127.88 288.131 121.141 288.337 116.588C288.552 111.884 288.337 100.927 286.772 91.5305C285.205 82.1333 284.461 79.8644 283.013 76.4953Z" fill="#71CFEC"/>
<path d="M288.358 116.115C288.226 116.074 288.092 116.047 287.957 116.047C287.581 116.047 287.213 116.201 286.948 116.49C283.502 120.233 280.483 123.404 277.973 125.913C269.519 134.367 261.771 140.763 251.229 147.991C243.691 153.161 223.984 166.122 203.851 174.801C184.587 183.105 160.825 188.47 143.315 188.47C119.899 188.47 105.709 177.932 101.918 174.702C100.267 173.296 98.9384 171.564 97.8658 169.729C96.1702 176.472 97.5655 181.838 99.0195 186.304C99.032 186.342 99.0492 186.382 99.0626 186.421C105.164 192.369 114.925 198.194 124.868 200.266C131.727 201.695 138.939 202.419 146.304 202.42C146.305 202.42 146.305 202.42 146.306 202.42C154.857 202.42 163.61 201.448 172.321 199.532C177.123 198.476 187.757 195.508 195.85 192.04C206.622 187.423 217.02 182.291 238.293 169.722C256.166 159.16 278.86 139.934 285.105 134.126C285.674 133.597 286.183 132.928 286.617 132.167C286.631 132.087 286.649 132.008 286.661 131.927C287.241 127.877 288.132 121.138 288.338 116.585C288.346 116.434 288.353 116.277 288.358 116.115Z" fill="#3EB8E0"/>
<path d="M215.651 186.467C215.286 186.467 214.927 186.321 214.662 186.045C209.823 181.004 200.703 171.939 193.977 167.877C188.468 164.548 181.482 161.611 175.87 159.251C171.225 157.297 167.556 155.755 165.97 154.528C160.64 150.406 159.442 144.667 162.409 137.468C166.303 128.016 181.022 109.039 188.201 102.131C192.951 97.5605 199.71 94.4893 205.022 94.4893C206.158 94.4893 207.206 94.6327 208.135 94.9155C211.749 96.0166 216.253 99.1553 220.608 102.191C222.34 103.398 224.131 104.646 225.809 105.725C229.979 108.405 233.8 109.653 237.837 109.653C240.248 109.653 242.685 109.21 245.288 108.299C255.492 104.728 263.507 100.692 268.469 96.6297C273.232 92.7295 277.615 86.838 278.664 82.9262C279.62 79.36 279.923 75.885 279.564 72.5976C279.496 71.9688 279.866 71.3749 280.461 71.1601C280.613 71.1049 280.771 71.0781 280.926 71.0781C281.376 71.0781 281.81 71.3005 282.069 71.6921C283.053 73.1778 283.674 74.5557 284.275 75.9533C285.775 79.4437 286.543 81.809 288.126 91.3039C289.692 100.701 289.928 111.837 289.709 116.649C289.495 121.343 288.558 128.359 288.019 132.124C287.666 134.583 286.578 136.869 285.106 138.239C278.862 144.048 256.168 163.273 238.295 173.834C229.633 178.951 222.437 183.03 216.295 186.306C216.092 186.414 215.871 186.467 215.651 186.467Z" fill="#221B31"/>
<path d="M283.017 76.4987C282.456 75.1949 281.86 73.8609 280.927 72.4531C281.248 75.3923 281.14 78.9934 279.988 83.2852C278.807 87.6904 274.142 93.7603 269.338 97.694C263.282 102.652 254.095 106.673 245.742 109.597C237.389 112.52 230.916 110.64 225.069 106.882C219.222 103.123 212.54 97.694 207.736 96.2309C202.935 94.7696 194.686 97.798 189.152 103.123C182.261 109.754 167.591 128.493 163.676 137.995C160.469 145.777 162.893 150.42 166.808 153.448C170.079 155.977 184.662 160.652 194.685 166.708C201.481 170.812 210.527 179.761 215.651 185.101C221.66 181.896 228.698 177.916 237.598 172.659C254.963 162.397 277.504 143.442 284.173 137.24C285.443 136.058 286.364 134.015 286.662 131.933C287.243 127.883 288.133 121.144 288.34 116.591C288.554 111.887 288.34 100.93 286.774 91.5333C285.208 82.1367 284.465 79.8678 283.017 76.4987Z" fill="#ACE0F4"/>
<path d="M284.247 79.7031C284.163 81.7377 283.853 83.9926 283.183 86.4891C282.002 90.8942 277.337 96.9642 272.533 100.898C266.478 105.856 257.29 109.877 248.937 112.801C240.584 115.723 234.111 113.844 228.264 110.085C222.417 106.327 215.735 100.898 210.931 99.4348C206.13 97.9732 197.881 101.002 192.347 106.327C185.455 112.958 170.786 131.697 166.871 141.199C164.558 146.814 165.175 150.794 167.169 153.712C171.038 156.295 184.991 160.858 194.683 166.715C200.709 170.354 208.504 177.802 213.764 183.166C214.431 183.819 215.076 184.46 215.696 185.082C221.694 181.882 228.719 177.909 237.595 172.665C254.961 162.404 277.502 143.449 284.17 137.247C285.441 136.065 286.362 134.021 286.66 131.94C287.241 127.89 288.131 121.151 288.338 116.598C288.552 111.894 288.338 100.936 286.772 91.5401C285.711 85.1777 285.028 82.0839 284.247 79.7031Z" fill="#71CFEC"/>
<path d="M288.359 116.115C288.227 116.074 288.093 116.047 287.958 116.047C287.582 116.047 287.214 116.201 286.949 116.49C283.503 120.233 280.484 123.404 277.974 125.913C269.52 134.367 261.771 140.763 251.23 147.991C243.796 153.089 224.526 165.763 204.686 174.435C208.09 177.473 211.386 180.718 214.013 183.404C220.441 180.039 228.123 175.731 238.295 169.722C256.168 159.16 278.862 139.934 285.106 134.126C285.675 133.597 286.184 132.928 286.618 132.167C286.632 132.087 286.65 132.008 286.662 131.927C287.243 127.877 288.133 121.138 288.339 116.585C288.347 116.434 288.354 116.277 288.359 116.115Z" fill="#3EB8E0"/>
<path d="M283.014 76.4987C282.453 75.1949 281.857 73.8609 280.925 72.4531C281.165 74.649 281.164 77.2144 280.669 80.1611C281.116 82.1387 281.599 84.7035 282.205 88.3357C283.771 97.7318 283.984 108.689 283.771 113.393C283.563 117.946 282.673 124.686 282.092 128.736C281.794 130.817 280.873 132.861 279.603 134.042C272.935 140.245 250.394 159.2 233.028 169.461C224.59 174.447 217.822 178.285 212.021 181.4C213.361 182.738 214.589 183.997 215.649 185.1C221.658 181.896 228.696 177.916 237.596 172.658C254.961 162.397 277.502 143.442 284.171 137.24C285.441 136.058 286.362 134.014 286.66 131.933C287.241 127.882 288.132 121.144 288.338 116.591C288.552 111.887 288.338 100.929 286.773 91.533C285.206 82.1367 284.462 79.8678 283.014 76.4987Z" fill="#3EB8E0"/>
<path d="M202.201 115.5C200.384 115.5 198.912 114.027 198.912 112.211C198.912 110.395 200.384 108.922 202.201 108.922C204.018 108.922 205.49 110.395 205.49 112.211C205.49 114.026 204.018 115.5 202.201 115.5Z" fill="#0655A0"/>
<path d="M191.239 129.274C189.421 129.274 187.949 127.801 187.949 125.984C187.949 124.169 189.422 122.695 191.239 122.695C193.054 122.695 194.528 124.169 194.528 125.984C194.528 127.801 193.054 129.274 191.239 129.274Z" fill="#0655A0"/>
<path d="M130.043 132.767C129.123 132.767 128.134 132.736 127.103 132.672C126.512 132.636 126.01 132.223 125.861 131.65C125.711 131.077 125.947 130.472 126.446 130.152C126.599 130.053 126.753 129.954 126.902 129.856C139.94 121.322 147.658 108.98 152.766 100.812C154.341 98.2942 155.701 96.1198 156.944 94.469C161.296 88.6892 166.064 84.0596 170.734 81.082C170.961 80.9378 171.216 80.8672 171.471 80.8672C171.81 80.8672 172.146 80.9931 172.408 81.2375C173.629 82.3811 174.186 83.9279 174.02 85.7104C173.445 91.8513 168.49 101.107 160.766 110.471C153.862 118.837 140.519 131.481 134.451 132.459C133.179 132.664 131.696 132.767 130.043 132.767Z" fill="#221B31"/>
<path d="M171.469 82.2422C166.945 85.1267 162.28 89.6618 158.037 95.2984C152.758 102.31 144.881 119.73 127.653 131.006C127.5 131.106 127.342 131.208 127.186 131.309C129.597 131.457 132.105 131.453 134.232 131.111C139.69 130.231 152.816 117.955 159.707 109.604C166.165 101.774 172.028 92.2711 172.655 85.5886C172.792 84.1111 172.312 83.0323 171.469 82.2422Z" fill="#ACE0F4"/>
<path d="M162.605 99.8621C158.995 104.657 154.168 114.321 145.967 123.558C150.934 119.263 156.151 113.91 159.708 109.599C164.814 103.408 169.547 96.1715 171.613 90.1094C168.534 92.7454 165.473 96.0526 162.605 99.8621Z" fill="#71CFEC"/>
<path d="M220.683 94.9803C224.129 99.3654 225.224 102.028 226.321 104.848C226.47 105.232 226.62 105.742 226.767 106.323C230.569 108.593 234.112 109.659 237.837 109.659C240.247 109.659 242.685 109.216 245.288 108.305C255.492 104.734 263.507 100.699 268.469 96.6361C273.231 92.7359 277.615 86.8444 278.664 82.9325C279.62 79.3663 279.923 75.8914 279.564 72.6039C279.51 72.1057 279.734 71.6324 280.125 71.3493C279.161 70.1107 277.897 68.8107 276.124 67.4171C271.739 63.9709 261.403 61.4652 254.198 63.032C246.994 64.5977 243.861 66.9468 238.85 71.1755C235.459 74.0362 230.428 78.2931 224.441 81.3555C217.707 84.8014 210.973 86.2104 210.973 86.2104C210.973 86.2104 217.237 90.5952 220.683 94.9803Z" fill="#ACE0F4"/>
<path d="M219.003 93.0619C220.102 94.1107 221.169 95.2328 222.051 96.3557C225.497 100.741 226.592 103.404 227.689 106.223C227.774 106.441 227.858 106.708 227.943 106.997C231.304 108.808 234.496 109.664 237.834 109.664C240.245 109.664 242.682 109.221 245.286 108.31C255.489 104.739 263.504 100.704 268.467 96.6409C273.229 92.7407 277.612 86.8492 278.661 82.9374C279.618 79.3711 279.92 75.8962 279.562 72.6088C279.507 72.1108 279.731 71.6375 280.122 71.3544C279.824 70.9727 279.498 70.5849 279.138 70.1902C278.641 69.7341 278.099 69.269 277.492 68.792C273.107 65.3461 262.771 62.8403 255.566 64.4069C248.362 65.9725 245.229 68.3216 240.218 72.5503C236.827 75.411 231.797 79.6676 225.809 82.7304C219.998 85.7033 214.192 87.1594 212.707 87.503C214.352 88.7675 216.878 90.8262 219.003 93.0619Z" fill="#71CFEC"/>
<path d="M278.446 73.3042C278.955 74.4885 279.377 75.5379 279.778 76.8073C279.858 75.3748 279.83 73.9667 279.68 72.5926C279.63 72.1342 279.837 71.7004 280.196 71.4414C279.224 70.1758 277.94 68.8456 276.123 67.4177C275.347 66.8078 274.382 66.2287 273.283 65.6953C276.316 68.5046 277.435 70.9522 278.446 73.3042Z" fill="#3EB8E0"/>
<path d="M220.681 94.9806C224.127 99.3657 225.222 102.028 226.319 104.848C226.468 105.233 226.618 105.742 226.765 106.323C230.567 108.594 234.11 109.66 237.835 109.66C240.245 109.66 242.683 109.217 245.286 108.306C255.49 104.735 263.505 100.699 268.467 96.6363C273.229 92.7361 277.612 86.8446 278.661 82.9328C279.166 81.0526 279.483 79.1988 279.623 77.3835C279.468 77.0663 279.31 76.7503 279.144 76.4407C275.959 70.5045 269.199 66.7118 262.643 65.9435C255.361 65.0915 249.15 67.6624 243.489 72.053C238.317 76.0634 233.381 79.8701 227.533 82.8799C223.199 85.1095 218.66 86.9127 214.082 88.5833C216.154 90.26 218.825 92.6193 220.681 94.9806Z" fill="#FFDAAB"/>
<path d="M232.101 80.5942C237.95 77.5844 242.885 73.7777 248.058 69.7673C249.178 68.8987 250.321 68.1046 251.488 67.3906C248.68 68.483 246.029 70.0819 243.49 72.0513C238.681 75.7797 234.068 79.323 228.744 82.2226C229.875 81.7043 230.995 81.1634 232.101 80.5942Z" fill="#0655A0"/>
<path d="M220.682 94.9796C224.128 99.3647 225.223 102.027 226.32 104.847C226.469 105.232 226.619 105.741 226.766 106.322C230.568 108.593 234.111 109.659 237.836 109.659C240.246 109.659 242.684 109.216 245.287 108.305C250.513 106.476 255.159 104.525 259.12 102.511C256.294 103.757 253.214 104.969 249.894 106.131C247.315 107.033 244.794 107.491 242.404 107.492C238.689 107.492 235.154 106.427 231.373 104.187C231.214 103.542 231.051 102.981 230.888 102.563C229.792 99.7437 228.696 97.081 225.251 92.6956C223.526 90.5015 221.104 88.3166 219.106 86.6719C217.443 87.3358 215.766 87.9684 214.084 88.582C216.155 90.259 218.826 92.6183 220.682 94.9796Z" fill="#E5B58D"/>
<path d="M214.407 88.4531C214.299 88.4927 214.192 88.5334 214.084 88.5723C214.862 89.202 215.724 89.9281 216.596 90.7141C215.914 89.9406 215.169 89.1796 214.407 88.4531Z" fill="#0655A0"/>
<path d="M217.882 90.6693C217.203 90.0359 216.525 89.4356 215.886 88.892C219.457 87.5612 223.791 85.8322 227.95 83.6918C233.953 80.6029 239.085 76.6233 244.049 72.7748C249.324 68.6836 254.506 66.6947 259.892 66.6947C260.762 66.6947 261.652 66.7476 262.537 66.8508C269.295 67.6426 275.498 71.5766 278.339 76.8727C278.496 77.1646 278.772 77.8178 278.886 78.132C279.1 78.7227 279.387 80.2041 279.387 80.2041C279.541 79.3244 279.655 78.452 279.727 77.5881C279.54 77.2006 279.346 76.8172 279.144 76.4407C275.959 70.5045 269.199 66.7118 262.643 65.9435C255.361 65.0915 249.15 67.6624 243.489 72.053C238.317 76.0634 233.381 79.8701 227.533 82.8799C223.199 85.1095 218.66 86.9127 214.082 88.5833C214.935 89.2737 215.889 90.0832 216.846 90.9571L217.882 90.6693Z" fill="#221B31"/>
<path d="M227.339 107.742C227.065 107.742 226.812 107.56 226.736 107.281C226.72 107.224 225.072 101.371 221.273 96.1289C217.464 90.872 210.064 85.6762 209.989 85.625C209.705 85.4265 209.635 85.037 209.834 84.7521C210.032 84.4684 210.422 84.3992 210.705 84.5975C211.016 84.8146 218.356 89.9671 222.288 95.3923C226.224 100.826 227.876 106.701 227.944 106.949C228.036 107.281 227.841 107.627 227.507 107.72C227.451 107.734 227.395 107.742 227.339 107.742Z" fill="#221B31"/>
<path d="M265.864 154.033C265.681 154.033 265.496 153.996 265.321 153.921C264.859 153.721 264.543 153.284 264.499 152.781C263.847 145.291 263.141 131.434 265.726 122.779C269.522 110.071 274.466 104.532 278.076 100.488C281.202 96.9883 283.437 94.2846 285.614 90.821C285.868 90.4169 286.309 90.1797 286.774 90.1797C286.864 90.1797 286.955 90.1884 287.044 90.2064C287.602 90.3186 288.033 90.7637 288.127 91.3253C289.691 100.721 289.927 111.849 289.708 116.655C289.494 121.349 288.557 128.365 288.017 132.13C287.665 134.589 286.576 136.875 285.105 138.245C281.74 141.375 274.748 147.379 266.715 153.738C266.468 153.932 266.167 154.033 265.864 154.033Z" fill="#221B31"/>
<path d="M286.663 131.939C287.244 127.889 288.134 121.15 288.34 116.597C288.555 111.896 288.34 100.948 286.777 91.5547C284.438 95.2756 282.033 98.122 279.1 101.405C275.185 105.791 270.643 111.115 267.042 123.176C264.524 131.603 265.218 145.222 265.866 152.667C274.078 146.168 280.965 140.23 284.173 137.246C285.443 136.064 286.365 134.021 286.663 131.939Z" fill="#ACE0F4"/>
<path d="M280.469 102.774C276.554 107.16 272.012 112.485 268.411 124.545C266.135 132.16 266.484 144.016 267.05 151.724C274.734 145.597 281.12 140.084 284.172 137.245C285.442 136.063 286.363 134.019 286.661 131.938C287.242 127.888 288.132 121.149 288.339 116.596C288.532 112.359 288.377 103.049 287.199 94.375C285.152 97.4139 283.008 99.9316 280.469 102.774Z" fill="#71CFEC"/>
<path d="M288.359 116.115C288.226 116.074 288.092 116.047 287.957 116.047C287.582 116.047 287.214 116.201 286.948 116.49C283.502 120.233 280.483 123.404 277.973 125.913C273.712 130.174 269.629 133.913 265.279 137.499C265.192 142.155 265.416 146.771 265.687 150.435C274.54 143.468 281.939 137.072 285.106 134.126C285.675 133.596 286.184 132.928 286.618 132.167C286.631 132.087 286.649 132.007 286.661 131.927C287.242 127.877 288.133 121.138 288.339 116.585C288.347 116.434 288.353 116.277 288.359 116.115Z" fill="#3EB8E0"/>
<path d="M283.233 96.5491C283.858 103.459 283.924 110.032 283.771 113.399C283.564 117.952 282.674 124.692 282.093 128.742C281.795 130.823 280.873 132.867 279.604 134.048C276.95 136.516 271.778 141.007 265.424 146.163C265.541 148.595 265.704 150.821 265.865 152.667C274.077 146.168 280.963 140.23 284.171 137.246C285.442 136.064 286.363 134.021 286.661 131.939C287.242 127.889 288.132 121.15 288.339 116.597C288.553 111.896 288.339 100.948 286.775 91.5547C285.629 93.3785 284.466 94.991 283.233 96.5491Z" fill="#3EB8E0"/>
<path d="M146.305 206.529C138.94 206.529 131.728 205.805 124.869 204.375C110.075 201.293 95.6697 189.902 93.1491 182.158C91.5716 177.313 90.3216 171.923 91.8448 165.342C91.9875 164.726 92.5343 164.287 93.1672 164.281C93.1715 164.281 93.1756 164.281 93.18 164.281C93.8078 164.281 94.3558 164.708 94.509 165.318C95.5558 169.486 97.6909 175.21 101.918 178.812C105.71 182.042 119.9 192.58 143.315 192.58C160.825 192.58 184.587 187.214 203.852 178.91C223.985 170.232 243.692 157.27 251.23 152.1C261.771 144.873 269.52 138.476 277.973 130.022C280.483 127.513 283.502 124.343 286.948 120.598C287.214 120.31 287.582 120.156 287.957 120.156C288.146 120.156 288.338 120.195 288.518 120.276C289.057 120.518 289.379 121.076 289.32 121.663C288.946 125.412 288.405 129.419 288.018 132.12C287.666 134.58 286.577 136.866 285.106 138.236C278.861 144.044 256.167 163.269 238.294 173.831C217.021 186.401 206.623 191.533 195.851 196.149C187.757 199.618 177.124 202.586 172.322 203.642C163.611 205.558 154.858 206.529 146.307 206.529C146.305 206.529 146.306 206.529 146.305 206.529Z" fill="#221B31"/>
<path d="M284.171 137.245C285.441 136.063 286.362 134.019 286.66 131.938C287.053 129.199 287.586 125.231 287.955 121.539C285.026 124.722 281.827 128.118 278.941 131.004C270.797 139.147 262.967 145.726 252.003 153.243C241.041 160.761 222.56 172.35 204.392 180.181C186.226 188.012 162.108 193.963 143.314 193.963C124.52 193.963 109.485 187.073 101.028 179.868C96.6319 176.122 94.3544 170.348 93.1782 165.664C91.6707 172.176 93.032 177.39 94.4503 181.746C96.643 188.482 110.112 199.914 125.147 203.046C140.181 206.179 156.296 205.775 172.026 202.316C176.849 201.255 187.388 198.297 195.31 194.902C206.273 190.204 216.922 184.879 237.595 172.663C254.961 162.402 277.502 143.447 284.171 137.245Z" fill="white"/>
<path d="M282.25 127.621C282.195 128.01 282.142 128.389 282.092 128.741C281.794 130.822 280.872 132.866 279.602 134.047C272.934 140.25 250.393 159.205 233.027 169.466C212.354 181.681 201.704 187.007 190.741 191.705C182.82 195.1 172.281 198.058 167.458 199.119C151.727 202.578 135.613 202.982 120.578 199.849C114.573 198.598 108.822 196.022 103.936 192.951C109.586 197.361 117.144 201.38 125.146 203.046C140.181 206.179 156.295 205.775 172.026 202.316C176.849 201.255 187.388 198.297 195.309 194.902C206.272 190.204 216.921 184.879 237.595 172.663C254.96 162.402 277.501 143.447 284.17 137.245C285.44 136.063 286.361 134.019 286.659 131.938C287.052 129.199 287.585 125.231 287.954 121.539C286.111 123.543 284.162 125.629 282.25 127.621Z" fill="#E6E7E8"/>
<path d="M178.553 148.231C174.407 148.231 171.035 144.859 171.035 140.714C171.035 136.569 174.408 133.195 178.553 133.195C182.698 133.195 186.07 136.569 186.07 140.714C186.07 144.859 182.698 148.231 178.553 148.231ZM178.553 138.365C177.257 138.365 176.203 139.418 176.203 140.714C176.203 142.008 177.257 143.062 178.553 143.062C179.848 143.062 180.902 142.008 180.902 140.714C180.902 139.418 179.848 138.365 178.553 138.365Z" fill="#221B31"/>
<path d="M178.553 134.133C174.92 134.133 171.975 137.078 171.975 140.711C171.975 144.344 174.92 147.289 178.553 147.289C182.185 147.289 185.131 144.344 185.131 140.711C185.131 137.078 182.185 134.133 178.553 134.133ZM178.553 143.999C176.736 143.999 175.264 142.527 175.264 140.711C175.264 138.895 176.736 137.422 178.553 137.422C180.369 137.422 181.841 138.895 181.841 140.711C181.841 142.527 180.369 143.999 178.553 143.999Z" fill="white"/>
<path d="M175.817 142.525C175.469 142.003 175.265 141.377 175.265 140.703C175.265 138.886 176.738 137.413 178.554 137.413C179.228 137.413 179.855 137.617 180.376 137.965C179.787 137.082 178.782 136.5 177.64 136.5C175.824 136.5 174.352 137.972 174.352 139.789C174.352 140.93 174.934 141.935 175.817 142.525Z" fill="#D1D3D4"/>
<path d="M182.726 135.617C183.658 136.752 184.219 138.205 184.219 139.789C184.219 143.421 181.273 146.366 177.641 146.366C176.057 146.366 174.604 145.806 173.469 144.874C174.675 146.342 176.504 147.28 178.554 147.28C182.186 147.28 185.132 144.335 185.132 140.702C185.132 138.653 184.194 136.823 182.726 135.617Z" fill="#D1D3D4"/>
<path d="M191.24 133.511C187.095 133.511 183.723 130.139 183.723 125.993C183.723 121.848 187.095 118.477 191.24 118.477C195.386 118.477 198.757 121.849 198.757 125.993C198.757 130.139 195.385 133.511 191.24 133.511ZM191.24 123.645C189.944 123.645 188.89 124.698 188.89 125.993C188.89 127.289 189.944 128.343 191.24 128.343C192.535 128.343 193.588 127.289 193.588 125.993C193.588 124.698 192.535 123.645 191.24 123.645Z" fill="#221B31"/>
<path d="M191.238 119.406C187.605 119.406 184.66 122.352 184.66 125.983C184.66 129.617 187.605 132.562 191.238 132.562C194.871 132.562 197.816 129.617 197.816 125.983C197.816 122.351 194.871 119.406 191.238 119.406ZM191.238 129.273C189.421 129.273 187.949 127.801 187.949 125.983C187.949 124.168 189.421 122.695 191.238 122.695C193.054 122.695 194.527 124.168 194.527 125.983C194.527 127.801 193.054 129.273 191.238 129.273Z" fill="white"/>
<path d="M195.411 120.906C196.343 122.041 196.903 123.494 196.903 125.077C196.903 128.711 193.959 131.656 190.326 131.656C188.743 131.656 187.29 131.096 186.154 130.163C187.361 131.632 189.19 132.569 191.24 132.569C194.873 132.569 197.817 129.624 197.817 125.99C197.817 123.943 196.88 122.113 195.411 120.906Z" fill="#D1D3D4"/>
<path d="M188.503 127.815C188.154 127.293 187.95 126.667 187.95 125.992C187.95 124.176 189.423 122.703 191.24 122.703C191.914 122.703 192.541 122.907 193.063 123.255C192.473 122.372 191.468 121.789 190.327 121.789C188.509 121.789 187.037 123.263 187.037 125.078C187.037 126.22 187.619 127.226 188.503 127.815Z" fill="#D1D3D4"/>
<path d="M202.201 119.722C198.056 119.722 194.684 116.35 194.684 112.205C194.684 108.059 198.056 104.688 202.201 104.688C206.346 104.688 209.718 108.059 209.718 112.205C209.718 116.349 206.346 119.722 202.201 119.722ZM202.201 109.856C200.906 109.856 199.851 110.909 199.851 112.204C199.851 113.5 200.906 114.553 202.201 114.553C203.496 114.553 204.55 113.5 204.55 112.204C204.55 110.909 203.496 109.856 202.201 109.856Z" fill="#221B31"/>
<path d="M202.203 105.633C198.571 105.633 195.625 108.577 195.625 112.21C195.625 115.842 198.571 118.788 202.203 118.788C205.836 118.788 208.782 115.842 208.782 112.21C208.781 108.577 205.836 105.633 202.203 105.633ZM202.203 115.499C200.387 115.499 198.914 114.026 198.914 112.21C198.914 110.394 200.387 108.921 202.203 108.921C204.02 108.921 205.492 110.394 205.492 112.21C205.492 114.026 204.02 115.499 202.203 115.499Z" fill="white"/>
<path d="M199.466 114.026C199.117 113.504 198.914 112.877 198.914 112.203C198.914 110.387 200.386 108.914 202.202 108.914C202.877 108.914 203.504 109.118 204.025 109.466C203.435 108.583 202.43 108 201.289 108C199.472 108 198 109.473 198 111.289C198 112.431 198.583 113.437 199.466 114.026Z" fill="#D1D3D4"/>
<path d="M206.375 107.117C207.306 108.252 207.867 109.704 207.867 111.288C207.867 114.921 204.922 117.866 201.289 117.866C199.705 117.866 198.253 117.305 197.117 116.372C198.323 117.841 200.153 118.779 202.202 118.779C205.835 118.779 208.781 115.834 208.781 112.201C208.781 110.152 207.843 108.323 206.375 107.117Z" fill="#D1D3D4"/>
<path d="M137.045 125.961C136.552 125.961 136.224 125.768 136.037 125.606C134.153 123.985 137.903 119.435 138.674 118.538C140.344 116.598 142.688 114.523 144.26 114.523C144.753 114.523 145.08 114.718 145.269 114.88C145.977 115.489 145.964 116.582 145.228 118.128C144.675 119.286 143.753 120.642 142.631 121.946C140.96 123.887 138.615 125.961 137.045 125.961Z" fill="#221B31"/>
<path d="M144.656 115.596C145.356 116.196 144.13 118.768 141.92 121.337C139.708 123.905 137.35 125.501 136.65 124.898C135.95 124.297 137.175 121.726 139.387 119.157C141.596 116.588 143.956 114.993 144.656 115.596Z" fill="white"/>
<path d="M144.653 115.594C144.49 115.452 144.232 115.436 143.908 115.52C143.731 116.625 142.638 118.522 141.004 120.421C139.311 122.387 137.534 123.779 136.479 124.055C136.416 124.445 136.465 124.739 136.648 124.895C137.348 125.498 139.706 123.903 141.917 121.334C144.128 118.766 145.354 116.194 144.653 115.594Z" fill="#E6E7E8"/>
<path d="M147.083 113.516C146.777 113.516 146.488 113.431 146.249 113.27C144.19 111.88 147.381 106.923 148.042 105.943C148.566 105.165 151.283 101.289 153.328 101.289C153.635 101.289 153.924 101.374 154.163 101.536C154.938 102.058 155.053 103.146 154.501 104.767C154.09 105.982 153.333 107.435 152.371 108.862C151.846 109.64 149.128 113.516 147.083 113.516Z" fill="#221B31"/>
<path d="M153.637 102.313C154.402 102.828 153.485 105.525 151.591 108.334C149.695 111.144 147.539 113.005 146.774 112.488C146.009 111.972 146.924 109.276 148.82 106.466C150.715 103.657 152.87 101.795 153.637 102.313Z" fill="white"/>
<path d="M153.637 102.318C153.475 102.209 153.251 102.211 152.982 102.299C152.899 103.431 152.044 105.396 150.677 107.425C149.18 109.645 147.523 111.266 146.515 111.598C146.483 112.033 146.561 112.35 146.774 112.493C147.539 113.01 149.695 111.149 151.59 108.339C153.485 105.529 154.401 102.833 153.637 102.318Z" fill="#E6E7E8"/>
<path d="M155.311 100.573C154.95 100.573 154.621 100.463 154.36 100.256C152.418 98.7066 155.991 94.0177 156.728 93.093C158.355 91.0506 160.655 88.8672 162.227 88.8672C162.589 88.8672 162.917 88.9782 163.179 89.1858C163.911 89.768 163.938 90.8605 163.26 92.4337C162.754 93.611 161.884 95.0011 160.812 96.3456C159.184 98.3888 156.884 100.573 155.311 100.573Z" fill="#221B31"/>
<path d="M162.592 89.9175C163.313 90.4924 162.186 93.1081 160.075 95.7586C157.963 98.4103 155.667 100.094 154.945 99.5176C154.223 98.9429 155.35 96.3269 157.462 93.6764C159.572 91.0264 161.869 89.3419 162.592 89.9175Z" fill="white"/>
<path d="M162.589 89.9219C162.425 89.7911 162.176 89.7827 161.871 89.8696C161.722 90.985 160.707 92.9059 159.159 94.8494C157.526 96.8994 155.787 98.3651 154.746 98.661C154.692 99.0668 154.749 99.3686 154.942 99.5217C155.664 100.098 157.961 98.4142 160.073 95.7628C162.184 93.1123 163.311 90.4969 162.589 89.9219Z" fill="#E6E7E8"/>
<path d="M178.443 143.716C175.58 143.716 171.18 141.827 166.085 139.642C164.952 139.155 163.8 138.66 162.651 138.183C154.551 134.81 147.484 130.265 144.586 128.11C139.602 124.406 138.436 120.352 139.867 118.42C140.664 117.343 141.931 116.797 143.634 116.797C145.239 116.797 147.226 117.263 149.891 118.264C153.631 119.669 162.237 123.652 168.83 127.737C174.462 131.229 181.316 136.179 181.979 139.93C182.149 140.896 181.938 141.79 181.366 142.516C180.741 143.312 179.758 143.716 178.443 143.716Z" fill="#221B31"/>
<path d="M180.383 141.74C178.535 144.092 170.77 140.2 163.134 137.023C155.5 133.846 148.555 129.495 145.335 127.101C140.991 123.871 139.902 120.476 140.875 119.163C142.236 117.325 145.64 118.002 149.451 119.434C153.263 120.866 161.808 124.856 168.171 128.799C173.512 132.111 182.833 138.624 180.383 141.74Z" fill="white"/>
<path d="M179.789 138.148C179.949 138.81 179.868 139.412 179.467 139.921C177.618 142.274 169.854 138.382 162.218 135.205C154.584 132.028 147.639 127.677 144.419 125.283C142.736 124.031 141.546 122.756 140.771 121.586C141.286 123.16 142.715 125.163 145.332 127.11C148.553 129.504 155.498 133.855 163.132 137.032C170.768 140.209 178.532 144.101 180.381 141.749C181.126 140.801 180.778 139.538 179.789 138.148Z" fill="#D1D3D4"/>
<path d="M189.647 128.14C186.989 128.14 183.048 126.256 178.875 124.261C177.953 123.82 177.022 123.375 176.095 122.945C174.011 121.98 172.043 121.029 170.141 120.108C166.091 118.152 162.265 116.302 157.568 114.41C156.857 114.123 156.165 113.852 155.497 113.593C151.023 111.852 147.489 110.477 147.703 107.417C147.881 104.854 150.335 103.555 154.998 103.555C156.065 103.555 157.269 103.621 158.579 103.752C163.501 104.243 175.563 108.009 182.528 112.564C187.416 115.761 192.603 120.604 193.172 124.217C193.379 125.542 192.935 126.423 192.525 126.929C191.876 127.733 190.908 128.14 189.647 128.14Z" fill="#221B31"/>
<path d="M191.553 126.147C189.648 128.502 183.043 124.789 176.622 121.813C170.2 118.838 165.032 116.072 158.037 113.252C152.983 111.216 148.78 110.002 148.952 107.51C149.144 104.775 153.756 104.534 158.455 105.004C163.153 105.474 175.056 109.18 181.842 113.617C188.189 117.767 193.536 123.693 191.553 126.147Z" fill="white"/>
<path d="M190.859 121.937C191.171 122.89 191.13 123.711 190.639 124.32C188.735 126.675 182.129 122.962 175.709 119.986C169.287 117.011 164.119 114.245 157.124 111.425C153.57 109.993 150.445 108.966 148.957 107.617C148.914 110.035 153.059 111.246 158.037 113.252C165.032 116.072 170.201 118.838 176.622 121.813C183.043 124.789 189.649 128.502 191.553 126.147C192.336 125.177 191.973 123.666 190.859 121.937Z" fill="#D1D3D4"/>
<path d="M201.14 115.859C198.74 115.859 194.874 113.626 189.673 110.472C188.802 109.944 187.975 109.442 187.23 109.006C184.879 107.63 176.6 102.968 168.749 100.77C166.544 100.152 164.635 99.7692 163.102 99.4623C159.58 98.7582 157.034 98.2475 156.831 95.5353C156.754 94.5196 157.104 93.5609 157.844 92.7638C159.391 91.0967 162.649 90.1406 166.785 90.1406C168.951 90.1406 171.189 90.4156 173.258 90.9368C179.667 92.5508 187.132 94.8592 193.915 99.7463C198.133 102.785 203.28 107.743 203.907 111.713C204.1 112.933 203.86 114.041 203.216 114.919C202.9 115.348 202.284 115.859 201.14 115.859Z" fill="#221B31"/>
<path d="M202.207 114.174C200.74 116.17 192.643 110.72 187.864 107.922C183.086 105.124 175.677 101.405 169.089 99.5604C162.041 97.5863 158.276 98.0316 158.081 95.4398C157.806 91.7838 165.952 90.3861 172.953 92.1489C179.954 93.9122 186.898 96.2325 193.183 100.759C198.917 104.89 204.46 111.108 202.207 114.174Z" fill="white"/>
<path d="M201.471 109.02C201.942 110.311 201.948 111.465 201.294 112.354C199.828 114.35 191.73 108.9 186.951 106.102C182.174 103.304 174.764 99.5853 168.176 97.7406C163 96.2906 159.601 96.1426 158.08 95.1406C158.075 95.2409 158.074 95.3429 158.082 95.4473C158.278 98.0391 162.042 97.5938 169.09 99.5679C175.678 101.413 183.087 105.131 187.865 107.93C192.644 110.728 200.741 116.177 202.208 114.181C203.157 112.889 202.719 111.038 201.471 109.02Z" fill="#D1D3D4"/>
</svg>
