<svg width="268" height="331" viewBox="0 0 268 331" fill="none" xmlns="http://www.w3.org/2000/svg">
<path d="M242.74 249.333C234.023 254.516 218.363 260.257 208.604 263.156C195.575 246.404 185.109 197.761 185.125 196.141C196.592 196.889 205.973 197.744 209.655 199.75C216.175 208.37 232.365 233.535 242.74 249.333Z" fill="#1AA7D3"/>
<path d="M88.5469 454.214C94.4025 454.839 124.107 457.473 131.214 457.91C132.355 442.93 140.104 371.656 144.611 349.122C145.729 343.536 158.763 343.164 160.252 348.997C161.172 352.599 172.454 436.439 176.466 457.91C188.239 456.843 208.725 455.539 219.153 453.902C219.153 453.902 208.165 308.102 207.01 285.735C186.979 283.473 119.159 283.495 97.6206 285.997C93.9327 309.103 91.2084 421.157 88.5469 454.214Z" fill="#224966"/>
<path d="M207.767 299.312C197.699 299.651 189.627 307.867 189.627 318.016C189.627 328.38 198.029 336.781 208.393 336.781C208.931 336.781 209.436 336.668 209.962 336.624C209.093 322.014 208.321 308.914 207.767 299.312Z" fill="#001D26"/>
<path d="M96.3487 299.305C95.7137 308.971 95.1971 322.075 94.7422 336.674C95.0996 336.695 95.4369 336.781 95.7993 336.781C106.164 336.781 114.566 328.379 114.566 318.015C114.566 307.84 106.453 299.601 96.3487 299.305Z" fill="#001D26"/>
<path opacity="0.37" d="M209.303 325.514C208.311 308.714 207.292 291.21 207.009 285.735C186.978 283.474 119.158 283.494 97.6199 285.997C96.4404 293.387 95.7357 309.834 95.041 330.875C129.083 342.068 172.653 342.65 209.303 325.514Z" fill="black"/>
<path d="M56.047 301.972C54.7033 303.381 39.8308 287.127 41.0142 285.583C61.4836 258.861 92.2678 214.097 98.0388 206.617C109.47 220.048 130.791 204.509 124.258 219.81C120.296 229.088 77.3812 279.591 56.047 301.972Z" fill="#FFC19F"/>
<path d="M65.3984 237.147C75.6147 244.196 103.954 263.241 104.652 261.854C110.808 249.592 120.969 204.106 112.618 197.258C111.057 197.383 100.696 197.885 99.509 198.519C94.1481 201.379 86.3596 212.439 65.3984 237.147Z" fill="#1AA7D3"/>
<path d="M90.7598 323.389C122.158 339.803 188.156 342.556 213.618 324.945C213.618 324.945 205.735 220.84 201.129 197.653C152.509 192.704 150.875 191.579 101.063 198.033C97.6666 227.595 94.7571 279.724 90.7598 323.389Z" fill="#1AA7D3"/>
<path d="M180.778 199.433C180.847 197.936 180.598 196.494 180.242 195.074C164.874 194.003 141.788 193.622 125.321 194.9C125.193 195.545 124.918 196.148 124.887 196.819C124.344 208.395 136.417 218.366 151.851 219.088C167.285 219.81 180.235 211.011 180.778 199.433Z" fill="#0080A8"/>
<path d="M173.806 167.31L172.779 201.326C172.557 208.641 163.082 214.29 151.614 213.944C140.146 213.598 131.029 207.386 131.25 200.071L132.278 166.055L173.806 167.31Z" fill="#FFC19F"/>
<path opacity="0.19" d="M131.447 193.575C136.853 197.3 143.806 199.796 151.604 200.16C159.71 200.541 167.138 198.558 172.967 195.11L173.667 171.945C160.726 171.372 145.545 171.209 132.107 171.725L131.447 193.575Z" fill="#601805"/>
<path d="M253.809 136.873C248.679 155.672 230.204 167.296 216.44 165.288C202.676 163.279 200.215 147.773 202.859 129.633C205.506 111.493 218.817 98.3692 232.574 100.423C251.377 103.232 258.631 119.204 253.809 136.873Z" fill="#FFC19F"/>
<path d="M237.182 140.758C236.02 148.712 229.392 154.33 222.376 153.307C215.364 152.283 210.618 145.005 211.781 137.051C212.941 129.097 219.568 123.481 226.581 124.503C233.596 125.525 238.341 132.804 237.182 140.758Z" fill="#E0956C"/>
<path d="M49.3876 135.573C54.2767 154.436 72.6051 166.293 86.3937 164.461C100.181 162.627 102.84 147.153 100.427 128.981C98.0105 110.809 84.8679 97.5174 71.0833 99.3957C52.2452 101.966 44.7921 117.843 49.3876 135.573Z" fill="#FFC19F"/>
<path d="M66.9794 139.679C68.0385 147.647 74.5939 153.35 81.62 152.416C88.6472 151.481 93.4855 144.264 92.4256 136.296C91.3664 128.329 84.8111 122.628 77.785 123.561C70.7587 124.494 65.9204 131.713 66.9794 139.679Z" fill="#E0956C"/>
<path d="M59.7695 65.4293C52.1571 131.472 98.6797 175.577 152.74 175.921C206.8 176.264 251.632 128.402 246.562 64.0109C243.747 28.259 207.513 -0.0149641 155.865 5.94184e-06C128.877 0.00795879 110.38 3.34145 93.6731 12.7027C89.8182 14.8626 61.5811 18.4051 62.4211 6.13648C51.8047 23.9941 64.4188 33.1592 69.9091 34.6732C63.8157 43.5674 61.2845 52.2946 59.7695 65.4293Z" fill="#870404"/>
<path d="M229.831 56.9038C231.076 91.9481 228.134 150.451 217.432 162.734C206.08 175.765 184.983 191.451 151.394 191.642C120.551 191.817 95.7657 176.891 86.9629 162.592C76.5485 145.67 73.4341 89.8927 75.1521 61.6537C77.1787 28.3473 115.366 20.6472 153.104 20.6095C188.408 20.5736 228.837 28.8887 229.831 56.9038Z" fill="#FFC19F"/>
<path d="M86.5352 141.395C86.1818 145.204 91.1884 148.783 97.7199 149.389C104.248 149.996 109.83 147.4 110.185 143.591C110.538 139.782 105.529 136.202 99.0009 135.596C92.4694 134.989 86.8895 137.586 86.5352 141.395Z" fill="#FF9797"/>
<path d="M191.095 145.471C191.283 149.292 196.745 152.128 203.297 151.807C209.845 151.485 215.005 148.127 214.817 144.306C214.63 140.486 209.165 137.648 202.617 137.97C196.066 138.292 190.908 141.65 191.095 145.471Z" fill="#FF9797"/>
<path d="M145.509 133.178C145.919 133.181 146.282 132.888 146.355 132.47C146.865 129.505 149.223 127.602 152.363 127.622C155.52 127.642 157.908 129.613 158.306 132.527C158.372 132.993 158.804 133.322 159.268 133.257C159.735 133.193 160.062 132.763 159.998 132.295C159.489 128.564 156.352 125.939 152.374 125.914C148.417 125.889 145.322 128.407 144.671 132.179C144.591 132.645 144.903 133.086 145.367 133.166L145.509 133.178Z" fill="#C4735B"/>
<path d="M92.7322 80.7721C93.3085 80.7473 93.8749 80.5164 94.3157 80.0843C99.9604 74.575 111.056 72.6202 120.145 75.5554C121.405 75.9694 122.774 75.2717 123.19 73.9957C123.601 72.7256 122.903 71.363 121.63 70.9499C110.785 67.4563 97.8711 69.841 90.9345 76.6273C89.98 77.562 89.9621 79.0918 90.8966 80.0464C91.3955 80.5602 92.0683 80.8021 92.7322 80.7721Z" fill="#8C2F22"/>
<path d="M209.972 82.1062C210.635 82.1301 211.306 81.8832 211.8 81.3647C212.727 80.4023 212.697 78.8723 211.733 77.9467C204.733 71.2191 191.802 68.9478 180.991 72.531C179.721 72.955 179.035 74.3236 179.456 75.5897C179.88 76.8628 181.252 77.5486 182.515 77.1235C191.576 74.1077 202.697 75.959 208.382 81.4315C208.827 81.8603 209.395 82.0853 209.972 82.1062Z" fill="#8C2F22"/>
<path d="M170.957 129C170.957 129 196.614 137.918 206.816 124.547C219.246 108.253 201.195 94.6764 189.21 96.9339C178.119 99.022 167.858 108.33 170.957 129Z" fill="#F9FEFF"/>
<path d="M209.299 103.417C204.659 97.2665 198.262 95.2051 191.255 95.7257C184.091 96.2591 176.726 101.143 174.549 106.319C178.54 100.527 185.219 98.5405 189.366 97.7611C195.968 96.51 204.505 99.6782 208.229 105.712C211.538 111.081 211.045 118.994 206.483 124.974C211.793 120.965 214.133 109.826 209.299 103.417Z" fill="#773220"/>
<path d="M177.948 111.863C175.422 117.768 178.161 124.603 184.066 127.13C189.971 129.656 196.806 126.917 199.332 121.011C201.86 115.107 199.12 108.272 193.215 105.746C187.309 103.218 180.474 105.958 177.948 111.863Z" fill="#63190D"/>
<path d="M178.937 110.029C178.235 111.667 178.996 113.563 180.634 114.264C182.272 114.965 184.169 114.205 184.869 112.567C185.57 110.929 184.811 109.032 183.172 108.332C181.534 107.63 179.638 108.39 178.937 110.029Z" fill="#FEFFFE"/>
<path d="M131.89 128.133C131.89 128.133 105.812 135.734 96.3041 121.861C84.7191 104.956 103.437 92.3151 115.292 95.1797C126.262 97.8292 136.036 107.646 131.89 128.133Z" fill="#F9FEFF"/>
<path d="M94.8994 100.625C99.8453 94.7184 106.338 92.9857 113.31 93.8625C120.437 94.7593 127.545 100.012 129.457 105.292C125.765 99.3041 119.195 96.9809 115.094 95.9917C108.564 94.4061 99.8763 97.1363 95.8511 102.973C92.2718 108.166 92.3624 116.094 96.6155 122.298C91.5152 118.024 89.7445 106.78 94.8994 100.625Z" fill="#773220"/>
<path d="M103.089 109.597C100.563 115.502 103.302 122.337 109.206 124.863C115.112 127.39 121.947 124.65 124.473 118.746C126.999 112.841 124.26 106.005 118.354 103.479C112.45 100.953 105.615 103.692 103.089 109.597Z" fill="#63190D"/>
<path d="M104.075 107.778C103.375 109.417 104.134 111.313 105.772 112.015C107.411 112.715 109.308 111.955 110.009 110.316C110.709 108.678 109.949 106.782 108.311 106.081C106.672 105.38 104.776 106.14 104.075 107.778Z" fill="#FEFFFE"/>
<path d="M213.49 22.5935C199.714 15.019 173.873 10.8246 150.652 10.3397C125.408 9.81314 99.3342 12.7873 85.3395 21.5016C76.0817 27.2646 64.4432 71.4493 68.9153 67.8879C74.0334 63.813 82.1415 60.2446 91.877 57.3592C93.1392 52.4898 100.049 40.4133 101.391 38.8198C100.863 41.3948 99.9403 50.4773 99.4993 55.3167C111.645 52.3844 125.528 50.4375 139.063 49.7586C138.838 44.6017 141.464 37.9349 141.481 37.5834C143.03 39.1481 146.1 46.4071 147.415 49.4977C149.451 49.4759 151.469 49.4847 153.459 49.5265C171.713 49.9078 185.199 51.3281 195.936 53.6144C195.511 37.6819 195.486 32.7041 195.371 33.7882C197.286 37.1932 199.669 46.9635 199.77 54.4935C203.783 55.4868 207.399 56.6136 210.742 57.8638C211.134 53.2354 212.258 45.7564 212.419 44.4883C213.83 45.3692 216.402 55.6512 217.285 60.612C222.852 63.2159 227.793 66.2099 232.88 69.5334C238.436 73.1652 224.594 28.698 213.49 22.5935Z" fill="#870404"/>
<path d="M156.51 299.405L172.16 289.068L177.963 214.938L162.314 225.274L156.51 299.405Z" fill="#D8D0C5"/>
<path d="M177.962 214.936L127.59 210.992L111.941 221.329L162.312 225.273L177.962 214.936Z" fill="#FFFAF0"/>
<path d="M162.284 225.282L111.916 221.336L106.109 295.463L156.477 299.409L162.284 225.282Z" fill="#EFE7D8"/>
<path opacity="0.55" d="M127.586 244.209C127.544 244.094 127.348 243.992 127.003 243.903C126.659 243.814 126.271 243.75 125.842 243.712C125.414 243.673 124.999 243.67 124.598 243.699C124.197 243.729 123.923 243.806 123.776 243.926C123.441 244.202 123.045 244.617 122.591 245.174C122.138 245.732 121.667 246.317 121.18 246.929C120.805 246.248 120.432 245.596 120.063 244.973C119.694 244.351 119.37 243.875 119.083 243.554C118.953 243.41 118.696 243.293 118.31 243.2C117.926 243.108 117.522 243.046 117.1 243.015C116.677 242.984 116.288 242.984 115.931 243.018C115.573 243.052 115.357 243.119 115.284 243.219C115.179 243.358 115.071 243.899 114.955 244.845C114.841 245.789 114.741 246.818 114.658 247.929C114.574 249.041 114.525 250.079 114.51 251.043C114.496 252.007 114.541 252.578 114.647 252.755C114.647 252.755 114.823 252.869 115.082 252.932C115.34 252.994 115.634 253.045 115.963 253.084C116.291 253.124 116.617 253.152 116.939 253.169C117.261 253.185 117.505 253.176 117.673 253.14C117.798 253.11 117.943 252.739 118.106 252.025C118.269 251.313 118.404 250.606 118.513 249.905C118.589 250.001 118.728 250.171 118.928 250.417C119.127 250.663 119.342 250.915 119.572 251.175C119.801 251.435 120.025 251.666 120.241 251.87C120.457 252.072 120.623 252.179 120.736 252.187C120.851 252.196 121.036 252.114 121.291 251.94C121.547 251.765 121.813 251.562 122.094 251.332C122.373 251.102 122.635 250.877 122.88 250.657C123.126 250.438 123.296 250.285 123.392 250.2C123.372 250.955 123.388 251.705 123.44 252.448C123.491 253.192 123.582 253.582 123.712 253.619C124.033 253.71 124.596 253.774 125.404 253.81C126.212 253.845 126.665 253.814 126.767 253.715C126.898 253.553 127.029 253.005 127.156 252.069C127.284 251.133 127.391 250.115 127.478 249.015C127.565 247.916 127.622 246.889 127.649 245.937C127.676 244.985 127.659 244.407 127.586 244.209ZM132.991 244.338C132.54 244.196 132.037 244.112 131.484 244.083C130.931 244.054 130.416 244.091 129.94 244.192C129.465 244.295 129.202 244.479 129.15 244.745C129.084 245.067 129.035 245.715 129.003 246.689C128.969 247.663 128.96 248.677 128.974 249.732C128.988 250.787 129.03 251.741 129.099 252.592C129.169 253.443 129.278 253.908 129.427 253.987C129.758 254.16 130.339 254.261 131.169 254.293C131.999 254.326 132.467 254.258 132.574 254.09C132.681 253.966 132.804 253.537 132.941 252.803C133.079 252.071 133.206 251.223 133.322 250.263C133.438 249.302 133.532 248.327 133.604 247.337C133.676 246.345 133.702 245.53 133.682 244.891C133.673 244.665 133.443 244.48 132.991 244.338ZM142.087 250.925C141.98 250.881 141.776 250.857 141.475 250.853C141.174 250.849 140.861 250.843 140.536 250.835C140.211 250.827 139.919 250.807 139.658 250.775C139.396 250.743 139.255 250.676 139.232 250.571C139.232 250.571 139.22 250.232 139.249 249.739C139.275 249.248 139.425 246.896 139.459 246.332C139.492 245.768 139.505 245.381 139.5 245.173C139.493 245.044 139.288 244.927 138.887 244.825C138.485 244.723 138.042 244.654 137.559 244.617C137.075 244.581 136.624 244.588 136.208 244.64C135.792 244.691 135.569 244.806 135.536 244.985C135.477 245.286 135.407 245.905 135.326 246.842C135.245 247.778 135.178 248.767 135.124 249.808C135.07 250.849 135.05 251.805 135.062 252.679C135.075 253.552 135.15 254.074 135.287 254.244C135.425 254.415 135.81 254.552 136.444 254.655C137.078 254.759 137.77 254.835 138.518 254.886C139.267 254.936 139.979 254.963 140.654 254.966C141.329 254.968 141.781 254.95 142.01 254.91C142.163 254.887 142.281 254.679 142.365 254.284C142.45 253.891 142.496 253.456 142.506 252.98C142.514 252.505 142.486 252.059 142.418 251.645C142.351 251.23 142.241 250.99 142.087 250.925ZM152.43 252.389C151.907 251.956 151.188 251.469 150.289 250.911C150.926 250.349 151.489 249.823 151.975 249.331C152.462 248.837 152.705 248.505 152.706 248.333C152.733 248.161 152.506 247.787 152.027 247.209C151.548 246.631 151.148 246.24 150.813 246.063C150.686 245.997 150.399 246.083 149.953 246.313C149.507 246.544 149.009 246.855 148.461 247.245C148.472 246.998 148.478 246.773 148.478 246.572C148.478 246.371 148.48 246.177 148.474 245.99C148.469 245.821 148.247 245.685 147.819 245.579C147.391 245.475 146.917 245.413 146.395 245.394C145.875 245.375 145.388 245.406 144.936 245.488C144.485 245.569 144.23 245.711 144.182 245.916C144.106 246.241 144.044 246.892 143.981 247.866C143.917 248.84 143.875 249.854 143.855 250.912C143.837 251.969 143.85 252.923 143.894 253.774C143.94 254.626 144.035 255.091 144.179 255.169C144.502 255.341 145.076 255.436 145.9 255.458C146.724 255.479 147.194 255.406 147.309 255.237C147.407 255.13 147.517 254.782 147.644 254.195C148.256 254.579 148.834 254.931 149.381 255.249C149.927 255.567 150.31 255.759 150.53 255.825C150.734 255.881 150.973 255.756 151.248 255.45C151.523 255.145 151.77 254.782 151.988 254.366C152.206 253.949 152.369 253.544 152.473 253.149C152.577 252.755 152.564 252.499 152.43 252.389Z" fill="#4C4435"/>
<path opacity="0.38" d="M131.377 285.428C131.419 285.123 131.486 284.829 131.502 284.514C131.749 279.419 128.351 275.115 123.914 274.899C119.477 274.684 115.681 278.639 115.434 283.733C115.406 284.327 115.438 284.905 115.503 285.473C115.051 285.299 114.579 285.17 114.077 285.145C111.172 285.004 108.687 287.594 108.525 290.928C108.429 292.939 109.246 294.674 110.522 295.8L135.355 297.744C135.649 296.864 135.965 295.989 136.012 295.02C136.199 291.139 134.347 287.623 131.377 285.428Z" fill="#4C4435"/>
<path opacity="0.38" d="M161.553 265.472C156.901 265.246 152.957 268.629 152.744 273.028C152.711 273.717 152.801 274.381 152.944 275.027C150.542 275.288 148.602 277.07 148.488 279.43C148.36 282.058 150.511 284.3 153.291 284.434C155.706 284.552 157.708 283.004 158.301 280.884C159.084 281.157 159.904 281.36 160.781 281.402C165.433 281.627 169.377 278.244 169.59 273.845C169.803 269.446 166.205 265.697 161.553 265.472Z" fill="#4C4435"/>
<path opacity="0.38" d="M174.139 238.099C174.914 237.45 175.424 236.52 175.475 235.462C175.576 233.379 173.872 231.605 171.67 231.497C169.468 231.391 167.601 232.992 167.499 235.076C167.481 235.444 167.538 235.795 167.626 236.137C166.797 236.573 166.192 237.353 166.146 238.317C166.074 239.805 167.291 241.073 168.865 241.149C169.721 241.191 170.483 240.853 171.033 240.312C171.262 241.151 172.016 241.801 172.978 241.848C174.16 241.905 175.161 241.046 175.216 239.928C175.254 239.149 174.805 238.471 174.139 238.099Z" fill="#4C4435"/>
<path opacity="0.28" d="M151.468 218.465C149.147 218.283 147.166 219.402 147.044 220.964C146.997 221.568 147.299 222.122 147.74 222.618C145.211 222.425 143.005 222.863 141.463 223.64L153.657 224.594C153.36 224.393 153.166 224.16 152.812 223.981C154.278 223.642 155.361 222.757 155.45 221.623C155.572 220.06 153.789 218.646 151.468 218.465Z" fill="#4C4435"/>
<path opacity="0.38" d="M139.406 225.927C139.236 228.098 142.705 230.14 147.154 230.487C151.602 230.836 155.347 229.359 155.517 227.188C155.592 226.232 154.785 225.365 153.66 224.603L141.466 223.648C140.303 224.235 139.479 224.995 139.406 225.927Z" fill="#4C4435"/>
<path opacity="0.28" d="M136.972 216.351C136.923 216.98 135.36 217.352 133.426 217.2C131.491 217.048 129.918 216.432 129.968 215.803C130.017 215.175 131.625 214.788 133.559 214.939C135.493 215.091 137.021 215.723 136.972 216.351Z" fill="#4C4435"/>
<path d="M133.423 217.198C133.311 217.196 133.242 217.172 133.129 217.15C132.015 216.948 131.2 216.823 131.402 215.707L136.505 160.266C136.671 159.344 137.441 158.653 138.374 158.585L149.381 157.781C150.54 157.683 151.496 158.551 151.575 159.678C151.658 160.808 150.808 161.791 149.678 161.872L140.258 162.562L135.439 216.437C135.258 217.439 134.408 217.211 133.423 217.198Z" fill="white"/>
<path d="M145.727 152.421C145.986 151.218 147.337 147.423 154.097 148.938C154.533 149.034 154.367 149.658 154.737 149.942C156.968 151.651 160.292 163.867 156.372 167.419C156.028 167.731 156.44 168.344 156.051 168.57C154.904 169.235 153.836 169.561 152.858 169.63C150.784 169.775 149.16 168.76 148.279 167.325C147.077 165.371 147.127 162.42 149.266 160.084L145.727 152.421Z" fill="#FFC19F"/>
<path d="M152.666 169.648C150.486 169.8 148.782 168.791 147.862 167.359C146.607 165.409 146.669 162.457 148.924 160.112C146.289 158.68 144.569 155.342 145.233 152.461C145.511 151.257 146.997 147.452 154.094 148.943C154.552 149.037 154.832 149.489 154.734 149.947C154.637 150.406 154.175 150.709 153.719 150.602C149.876 149.803 147.394 150.614 146.886 152.84C146.374 155.056 148.048 158.341 150.73 159.017C151.048 159.097 151.291 159.352 151.354 159.674C151.416 159.994 151.289 160.325 151.025 160.52C148.443 162.429 148.312 164.928 149.288 166.439C150.145 167.78 152.211 168.754 155.215 167.093C155.623 166.859 156.141 167.013 156.369 167.425C156.597 167.834 156.456 168.347 156.048 168.575C154.84 169.244 153.693 169.577 152.666 169.648Z" fill="#C67F75"/>
<path opacity="0.25" d="M187.684 270.549C186.421 267.181 173.823 253.237 168.361 251.381C157.853 247.813 156.726 248.659 156.376 248.941C155.151 249.903 154.597 251.196 154.811 252.586C155.199 255.172 161.324 260.183 159.593 259.579C156.843 258.622 154.004 257.63 152.021 257.188C148.483 256.421 135.792 258.349 136.087 260.843C136.413 263.598 143.244 267.594 142.087 267.658C136.041 267.983 131.696 268.406 130.782 270.938C130.53 271.613 135.74 275.55 139.52 276.075C136.693 276.05 133.893 276.561 132.425 279.117C132.425 279.117 135.604 282.787 138.48 283.724C137.645 284.099 136.936 284.736 136.342 285.722C136.342 285.722 144.848 292.575 148.308 292.575C148.308 292.575 164.23 290.913 177.507 287.924C183.232 286.631 185.916 283.618 187.15 281.319C188.841 278.164 189.045 274.14 187.684 270.549Z" fill="#601805"/>
<path d="M170.013 286.732C182.74 286.122 216.848 283.915 232.973 280.682C245.429 278.185 243.825 257.822 240.534 250.633C221.946 254.22 183.938 263.553 170.896 266.107C167.006 268.333 169.814 284.696 170.013 286.732Z" fill="#FFC19F"/>
<path d="M148.158 290.617C155.055 290.297 162.834 289.179 176.94 286.002C187.149 283.703 188.189 275.46 186.231 270.276C185.106 267.299 172.722 253.568 167.672 251.85C164.341 250.717 157.496 248.694 156.849 249.207C153.722 251.682 157.5 255.701 162.965 257.812C164.514 258.58 165.795 259.559 167.042 262.041C166.806 263.359 156.28 258.769 151.46 257.697C147.609 256.84 137.029 259.182 136.594 260.397C135.525 263.386 144.664 263.835 148.355 264.344C149.637 264.521 153.262 266.126 155.384 267.441C152.442 267.991 147 267.769 144.995 267.98C141.132 268.388 132.573 268.14 131.657 270.656C130.942 272.621 136.367 273.999 143.125 274.532C144.764 274.662 150.835 275.32 154.782 275.864C154.791 276.031 145.595 277.217 144.285 277.079C140.4 276.673 135.167 275.633 133.21 279.03C132.674 279.959 141.089 283.151 145.127 283.226C146.928 283.258 150.904 283.489 155.667 283.256C152.975 284.045 147.852 284.88 146.77 285.041C140.997 283.534 138.638 283.133 137.123 285.654C136.655 286.434 144.871 290.77 148.158 290.617Z" fill="#FFC19F"/>
<path d="M18.1875 323.983C23.0826 319.153 29.6001 311.134 43.9581 297.83C45.5985 296.311 54.459 300.336 52.5898 301.626C41.7285 309.115 26.1494 329.65 18.1875 323.983Z" fill="#E0956C"/>
<path d="M8.54297 320.516C13.4382 315.687 22.8331 301.775 39.6108 293.191C41.6801 292.132 49.7195 296.912 47.8503 298.202C36.99 305.691 15.2078 325.036 8.54297 320.516Z" fill="#E0956C"/>
<path d="M0 311.913C4.89412 307.084 35.6534 284.893 52.4311 276.308C54.5004 275.249 63.7223 288.887 62.3787 292.341C63.7145 301.016 51.7693 309.119 46.7308 326.564C45.8608 329.577 42.3094 326.254 41.7251 324.918C40.2193 321.475 41.0732 320.248 40.3167 311.009C39.8548 305.379 33.6837 303.72 29.969 304.369C14.6087 309.662 5.15001 316.036 0 311.913Z" fill="#FFC19F"/>
</svg>
