<svg width="358" height="262" viewBox="0 0 358 262" fill="none" xmlns="http://www.w3.org/2000/svg">
<g clip-path="url(#clip0_4412_66399)">
<path d="M306.816 10.6389C301.844 4.65823 141.627 160.898 141.627 160.898L60.4384 221.986L47.0394 239.33C47.0394 239.33 60.222 263.28 103.547 241.333C131.905 226.969 135.135 199.419 141.785 180.342C146.987 165.415 149.663 163.774 153.817 159.255C166.367 145.603 190.032 125.517 204.06 113.779C220.42 100.091 298.763 35.5042 305.283 26.919C309.15 21.8258 311.789 16.6196 306.816 10.6389Z" fill="#7E8183"/>
<path d="M301.54 6.85522C297.908 5.71534 293.98 6.97549 290.743 8.66748C287.187 10.5264 283.832 12.834 280.495 15.0585C273.992 19.3919 205.809 83.8806 195.388 95.6088C184.879 107.436 146.755 150.448 137.089 160.127C129.755 166.242 126.609 167.39 119.813 171.071C109.853 176.466 101.629 179.356 91.7398 184.876C82.7938 189.87 74.0905 195.447 66.4466 202.33C58.7957 209.221 52.2928 217.345 48.2015 226.901C47.0874 229.503 46.0925 232.258 46.0791 235.133C46.0652 238.194 47.3685 240.727 49.816 242.532C53.8925 245.539 59.2474 246.6 64.1858 246.635C69.2899 246.672 74.3567 245.538 79.1768 243.938C84.1157 242.299 88.8974 240.126 93.4654 237.633C102.861 232.506 111.412 225.887 118.748 218.056C126.14 210.166 132.151 201.095 136.697 191.255C141.551 180.747 139.835 174.539 146.986 165.413C172.397 132.983 271.198 55.2676 285.798 41.0708C292.02 35.0204 297.708 30.3013 304.401 22.6211C306.609 20.0867 308.677 16.7968 307.924 13.2517C307.239 10.0272 304.558 7.80216 301.54 6.85522Z" fill="#B6B8BA"/>
<path d="M47.1673 235.467C47.1673 235.467 46.4876 223.334 63.0713 206.441C76.5378 192.723 95.189 181.867 114.642 175.346C127.913 170.898 136.512 174.944 136.366 183.824C136.219 192.705 126.148 212.181 110.783 224.916C95.4182 237.65 80.075 243.245 71.7613 244.934C63.4491 246.624 47.0339 245.205 47.1673 235.467Z" fill="url(#paint0_radial_4412_66399)"/>
<path opacity="0.52" d="M69.4241 201.869C69.4241 201.869 86.8748 186.829 109.597 178.718C132.319 170.607 135.031 180.328 135.404 181.862C135.775 183.397 131.316 176.289 123.001 179.6C114.686 182.911 117.863 200.824 102.027 214.449C86.1913 228.075 51.4748 232.881 57.0036 219.476C61.7722 207.914 69.4241 201.869 69.4241 201.869Z" fill="url(#paint1_radial_4412_66399)"/>
<path opacity="0.42" d="M125.011 169.948C125.011 169.948 134.943 165.663 138.736 160.046C142.527 154.429 214.079 77.6099 238.588 54.9397C263.096 32.2696 282.757 11.7097 296.14 8.12361C296.14 8.12361 302.86 5.79312 305.414 10.9163C305.414 10.9163 297.061 10.042 289.163 17.4358C281.265 24.8295 180.09 113.794 153.849 146.253C153.849 146.253 138.089 161.843 138.761 165.362C139.434 168.881 144.165 167.349 144.165 167.349C144.165 167.349 139.828 174.729 139.009 180.091C139.009 180.091 138.014 183.786 137.494 180.497C136.973 177.209 133.126 171.937 127.499 171.814C121.873 171.691 122.287 171.273 125.011 169.948Z" fill="url(#paint2_linear_4412_66399)"/>
<path opacity="0.42" d="M306.001 13.1038C306.001 13.1038 307.369 16.5264 301.315 23.5613C295.261 30.5962 272.642 50.5534 261.785 59.8663C250.929 69.1792 182.179 126.393 164.105 145.129C164.105 145.129 186.43 122.728 204.709 106.102C222.988 89.4762 286.264 36.0746 293.484 28.0051C300.704 19.9364 305.186 15.5717 306.001 13.1038Z" fill="url(#paint3_linear_4412_66399)"/>
</g>
<defs>
<radialGradient id="paint0_radial_4412_66399" cx="0" cy="0" r="1" gradientUnits="userSpaceOnUse" gradientTransform="translate(45.3803 188.782) rotate(-15) scale(102.717 102.717)">
<stop offset="0.0552" stop-color="white"/>
<stop offset="0.1513" stop-color="#F6F6F6"/>
<stop offset="0.308" stop-color="#DEDEDE"/>
<stop offset="0.5048" stop-color="#B6B6B8"/>
<stop offset="0.5722" stop-color="#A7A7A9"/>
<stop offset="0.6421" stop-color="#A1A1A3"/>
<stop offset="0.7357" stop-color="#909092"/>
<stop offset="0.8426" stop-color="#747577"/>
<stop offset="0.9586" stop-color="#4E4E50"/>
<stop offset="1" stop-color="#3E3F41"/>
</radialGradient>
<radialGradient id="paint1_radial_4412_66399" cx="0" cy="0" r="1" gradientUnits="userSpaceOnUse" gradientTransform="translate(14.8477 153.728) rotate(-15) scale(105.737 105.737)">
<stop offset="0.0552" stop-color="white"/>
<stop offset="0.3163" stop-color="#C7C7C8"/>
<stop offset="0.4871" stop-color="#A7A7A9"/>
<stop offset="0.571" stop-color="#A1A1A3"/>
<stop offset="0.6832" stop-color="#909092"/>
<stop offset="0.8114" stop-color="#747577"/>
<stop offset="0.9504" stop-color="#4E4E50"/>
<stop offset="1" stop-color="#3E3F41"/>
</radialGradient>
<linearGradient id="paint2_linear_4412_66399" x1="148.499" y1="71.4375" x2="259.281" y2="107.791" gradientUnits="userSpaceOnUse">
<stop stop-color="#EEEEEE"/>
<stop offset="0.773" stop-color="white"/>
<stop offset="1" stop-color="white"/>
</linearGradient>
<linearGradient id="paint3_linear_4412_66399" x1="152.354" y1="101.276" x2="317.756" y2="56.9564" gradientUnits="userSpaceOnUse">
<stop stop-color="#EEEEEE"/>
<stop offset="0.773" stop-color="white"/>
<stop offset="1" stop-color="white"/>
</linearGradient>
<clipPath id="clip0_4412_66399">
<rect width="321.132" height="184.638" fill="white" transform="translate(0 83.1172) rotate(-15)"/>
</clipPath>
</defs>
</svg>
