<svg width="276" height="289" viewBox="0 0 276 289" fill="none" xmlns="http://www.w3.org/2000/svg">
<path d="M102.794 229.862C102.237 237.402 97.9551 243.65 91.2462 245.645C88.3953 246.493 85.1057 246.572 81.478 245.656C71.7449 243.2 71.4464 229.647 81.3046 226.574C84.366 225.621 87.6338 227.237 90.5175 226.429C93.4386 225.61 93.5483 223.846 95.5586 222.058C101.778 216.53 103.099 225.75 102.794 229.862ZM214.825 92.9266C218.762 95.5578 225.66 93.5526 229.86 92.472C237.954 90.392 231.093 81.2201 225.789 80.1219C224.727 79.9023 223.476 80.0231 222.148 80.3965C216.905 81.8746 207.666 88.143 214.825 92.9266ZM102.799 53.1816C103.055 45.7558 98.9514 42.3515 90.8533 43.8692C90.5965 43.9175 90.3464 43.9724 90.1028 44.0339C68.7821 49.4281 101.721 84.1764 102.799 53.1816ZM52.9546 135.942C49.2369 135.54 47.3671 137.22 47.8148 140.853C47.8279 140.967 47.8477 141.081 47.8675 141.191C49.7505 150.809 68.4749 137.618 52.9546 135.942ZM224.681 204.448C225.771 208.733 228.688 210.079 233.071 208.026C233.209 207.96 233.343 207.892 233.472 207.822C244.777 201.608 220.131 186.559 224.681 204.448ZM238.764 128.031C229.167 129.491 219.598 133.511 209.777 132.876C202.188 132.386 191.661 126.434 201.508 119.854C209.013 114.837 245.17 118.925 241.682 102.131C228.875 102.248 219.242 108.053 207.749 112.68C205.574 113.557 201.33 115.826 199.054 113.992C196.682 112.081 199.175 109.063 197.933 107.22C194.931 102.766 187.006 110.043 185.285 101.98C182.858 90.6051 209.825 85.9906 199.785 74.2072C195.762 69.4873 190.195 74.1721 188.377 78.1628C185.588 84.284 181.574 99.3421 171.523 89.8715C162.863 81.7099 176.193 62.8148 180.604 55.2923C183.811 49.8256 195.137 35.4264 192.104 28.3476C189.091 21.3105 182.516 28.822 180.016 32.7447C174.865 40.8272 174.113 50.5636 172.032 59.663C171.286 62.9268 170.215 71.1982 165.277 70.379C161.535 69.7574 162.751 63.5396 160.679 62.5578C158.755 61.6441 159.461 80.8182 150.845 79.5004C143.886 78.4352 145.659 69.507 145.578 64.1941C145.497 58.8987 144.362 51.2137 137.443 56.8693C134.412 59.3468 135.182 64.2973 136.449 67.2338C137.921 70.6469 140.059 73.8426 138.43 77.6159C137.125 80.6403 133.095 83.5526 129.525 82.0503C122.155 78.9469 127.233 66.4739 120.669 62.1098C114.652 58.108 110.745 68.9755 111.647 72.9904C112.81 78.1628 119.447 81.1696 121.38 86.1026C122.197 88.1803 122.247 90.3218 119.407 91.0487C115.135 92.1425 114.373 87.192 111.441 86.3046C107.456 85.0989 105.366 88.4988 107.587 91.141C110.747 94.9011 116.069 100.998 106.565 97.6048C99.8512 95.2064 96.3377 88.881 93.0282 83.0716C90.0655 77.8707 79.4677 64.3522 84.0456 79.2829C85.426 83.7876 99.5703 94.8396 97.0355 99.2499C95.0033 102.786 89.7779 94.3345 86.0317 94.4421C86.4553 99.8429 94.2681 103.983 91.1518 109.988C88.8189 114.477 82.8364 114.246 78.2892 114.126C69.9189 113.904 60.0541 107.994 52.2303 113.313C47.863 116.283 46.9216 122.571 51.7607 125.544C57.0058 128.766 65.4002 126.882 71.2071 126.502C77.7953 126.072 91.1035 123.607 94.2242 131.764C96.353 137.332 88.8013 139.548 88.1583 144.91C87.298 152.092 89.1788 156.623 79.6257 158.039C74.0316 158.87 67.2568 158.364 62.5143 162.105C58.7593 165.068 57.9846 167.705 62.984 168.76C69.7258 170.159 80.6725 160.736 87.2256 164.822C92.5914 168.175 82.178 175.676 79.4348 177.051C73.3403 180.104 65.9708 179.968 59.6415 182.304C50.3408 185.737 37.1885 194.707 34.3114 204.712C32.1211 212.326 39.0649 214.336 44.8674 211.406C49.6473 208.992 53.8368 203.89 57.9056 200.499C61.2853 197.681 95.0363 169.941 97.1782 175.32C98.5213 178.692 89.8592 183.809 88.808 186.682C86.8635 191.999 91.5446 191.889 91.4151 196.242C91.3142 199.671 85.9923 201.676 83.7362 203.941C80.6989 206.989 77.8063 212.344 78.3506 216.706C79.1516 223.113 92.1064 207.147 92.3808 206.745C95.1284 202.706 99.0349 195.094 103.964 199.287C107.936 202.665 107.129 206.835 112.382 208.937C115.898 210.343 119.91 208.843 120.682 213.473C121.466 218.171 110.734 226.484 115.424 230.754C120.691 235.55 123.74 213.802 128.925 222.987C132.711 229.693 128.206 244.977 127.356 251.922C126.457 259.277 121.187 282.133 128.445 287.845C135.828 293.657 140.704 275.873 141.544 271.34C143.542 260.584 140.996 251.111 137.721 240.98C135.263 233.372 132.74 223.811 136.029 215.985C137.974 211.36 140.877 210.064 143.089 215.619C147.823 214.569 145.045 205.059 151.743 207.235C158.094 209.3 159.075 228.401 160.787 234.213C163.877 244.694 167.906 254.944 173.654 264.27C178.829 272.669 188.022 285.049 199.37 284.131C208.234 283.415 212.141 274.467 211.32 266.49C209.22 246.088 189.718 245.774 175.14 239.614C167.399 236.343 160.811 222.816 166.396 214.819C170.599 208.799 178.949 215.577 184.076 217.817C185.18 211.483 180.62 207.551 175.761 204.602C172.636 202.704 170.204 203.624 169.886 198.953C168.694 181.507 187.991 203.457 190.669 205.812C195.962 210.47 206.088 223.293 209.544 209.829C210.648 205.533 207.359 202.596 204.137 200.152C199.517 196.644 184.653 191.039 188.799 183.269C193.693 174.092 205.937 186.409 212.681 185.461C222.37 184.097 216.03 173.653 210.675 170.554C205.671 167.657 194.744 169.744 198.925 162.258C200.169 160.029 204.938 158.722 204.157 155.481C203.452 152.551 198.078 152.537 196.07 151.182C182.566 142.068 211.697 137.407 216.368 137.512C228.765 137.793 264.263 160.229 270.879 139.498C276.127 123.052 246.576 126.84 238.764 128.031ZM160.864 26.9617C159.395 22.9754 155.008 24.3195 152.713 21.5873C150.187 18.5827 153.483 -1.5951 143.221 6.94427C135.231 13.5948 146.713 25.9712 147.391 33.487C147.733 37.2911 147.154 51.5761 150.705 54.0931C155.836 57.7325 155.377 44.2755 156.259 41.6618C157.567 37.7743 162.444 31.26 160.864 26.9617ZM159.913 2.87665C156.779 4.7084 157.245 4.50853 156.661 7.93702C156.104 11.2052 154.398 23.1489 160.932 17.9677C163.346 16.0525 162.87 13.0391 163.927 10.4826C164.842 8.26867 168.992 5.08837 169.023 2.79758C169.093 -2.75696 162.389 1.42926 159.913 2.87665ZM75.9585 99.8934C82.7179 96.8119 79.4106 94.7869 74.3806 91.9822C71.9511 90.627 69.2649 87.9212 66.4514 86.7329C61.0966 84.4729 54.9714 84.8089 49.2698 85.1098C49.25 92.4983 55.5837 89.7793 59.0863 93.0562C62.1741 95.9444 59.185 100.484 63.7235 102.681C66.875 104.207 73.1055 101.194 75.9585 99.8934ZM15.2029 60.3747C7.35713 63.063 20.5555 72.3425 23.11 73.6954C29.8058 77.2382 37.1336 77.9498 44.2507 80.0846L44.7994 80.6337C47.141 80.7501 49.0174 79.6387 49.092 77.4336C36.7188 72.6829 23.3778 72.6676 15.2029 60.3747ZM0.997096 70.9368C2.08562 72.2986 3.83698 73.5747 5.04401 73.9129C9.30156 75.1055 16.0917 70.6294 9.15449 68.8174C8.85602 68.7405 2.10318 67.0955 2.52016 67.0625C-0.703727 67.3327 -0.387704 69.2061 0.997096 70.9368ZM218.819 28.9231C218.643 22.7601 224.095 18.5431 223.017 12.0683C213.113 12.3297 208.043 36.138 204.299 43.3508C201.231 49.2612 197.939 49.5511 193.177 52.9269C189.571 55.4812 183.679 67.9015 191.141 68.0113C198.029 68.1124 204.071 52.6743 207.343 47.8204C210.517 43.1114 232.553 31.9606 218.819 28.9231ZM274.18 177.121C277.841 174.011 275.427 173.337 271.803 172.48C270.054 172.067 267.904 170.857 265.946 170.616C262.217 170.157 258.467 171.446 254.973 172.641C256.263 177.24 259.724 174.428 262.481 175.849C264.912 177.101 263.852 180.451 267.063 181.017C269.293 181.411 272.635 178.437 274.18 177.121ZM229.419 163.278C225.012 166.337 234.859 169.777 236.687 170.165C241.478 171.187 246.159 170.332 250.963 170.405L251.402 170.649C252.879 170.308 253.852 169.285 253.507 167.899C244.974 167.132 236.672 169.478 229.419 163.278ZM222.447 172.357C223.364 173.012 224.679 173.495 225.488 173.493C228.346 173.484 231.78 169.498 227.147 169.599C226.95 169.603 222.458 169.774 222.71 169.678C220.752 170.416 221.281 171.525 222.447 172.357ZM31.0809 229.807C27.0625 224.999 36.4138 221.823 39.9449 224.004C38.931 223.378 35.8037 235.454 31.0809 229.807ZM46.7197 224.378C42.8835 221.195 48.6488 210.596 53.0709 215.616C56.2158 219.188 51.5061 228.349 46.7197 224.378Z" fill="url(#paint0_linear_4413_88050)"/>
<defs>
<linearGradient id="paint0_linear_4413_88050" x1="138" y1="-8.8674" x2="138" y2="307.969" gradientUnits="userSpaceOnUse">
<stop offset="0.0054" stop-color="#FFA51D"/>
<stop offset="1" stop-color="#EF7F1B"/>
</linearGradient>
</defs>
</svg>
