<svg width="348" height="255" viewBox="0 0 348 255" fill="none" xmlns="http://www.w3.org/2000/svg">
<path d="M301.816 7.6389C296.844 1.65823 136.627 157.898 136.627 157.898L55.4384 218.986L42.0394 236.33C42.0394 236.33 55.222 260.28 98.547 238.333C126.905 223.969 130.135 196.419 136.785 177.342C141.987 162.415 144.663 160.774 148.817 156.255C161.367 142.603 185.032 122.517 199.06 110.779C215.42 97.0909 293.763 32.5042 300.283 23.919C304.15 18.8258 306.789 13.6196 301.816 7.6389Z" fill="#7E8183"/>
<path d="M296.54 3.85522C292.908 2.71534 288.98 3.97549 285.743 5.66748C282.187 7.52636 278.832 9.83401 275.495 12.0585C268.992 16.3919 200.809 80.8806 190.388 92.6088C179.879 104.436 141.755 147.448 132.089 157.127C124.755 163.242 121.609 164.39 114.813 168.071C104.853 173.466 96.6288 176.356 86.7398 181.876C77.7938 186.87 69.0905 192.447 61.4466 199.33C53.7957 206.221 47.2928 214.345 43.2015 223.901C42.0874 226.503 41.0925 229.258 41.0791 232.133C41.0652 235.194 42.3685 237.727 44.816 239.532C48.8925 242.539 54.2474 243.6 59.1858 243.635C64.2899 243.672 69.3567 242.538 74.1768 240.938C79.1157 239.299 83.8974 237.126 88.4654 234.633C97.8613 229.506 106.412 222.887 113.748 215.056C121.14 207.166 127.151 198.095 131.697 188.255C136.551 177.747 134.835 171.539 141.986 162.413C167.397 129.983 266.198 52.2676 280.798 38.0708C287.02 32.0204 292.708 27.3013 299.401 19.6211C301.609 17.0867 303.677 13.7968 302.924 10.2517C302.239 7.0272 299.558 4.80216 296.54 3.85522Z" fill="#B6B8BA"/>
<path d="M42.1673 232.467C42.1673 232.467 41.4876 220.334 58.0713 203.441C71.5378 189.723 90.189 178.867 109.642 172.346C122.913 167.898 131.512 171.944 131.366 180.824C131.219 189.705 121.148 209.181 105.783 221.916C90.4182 234.65 75.075 240.245 66.7613 241.934C58.4491 243.624 42.0339 242.205 42.1673 232.467Z" fill="url(#paint0_radial_4412_66400)"/>
<path opacity="0.52" d="M64.4241 198.869C64.4241 198.869 81.8748 183.829 104.597 175.718C127.319 167.607 130.031 177.328 130.404 178.862C130.775 180.397 126.316 173.289 118.001 176.6C109.686 179.911 112.863 197.824 97.0269 211.449C81.1913 225.075 46.4748 229.881 52.0036 216.476C56.7722 204.914 64.4241 198.869 64.4241 198.869Z" fill="url(#paint1_radial_4412_66400)"/>
<path opacity="0.42" d="M120.011 166.948C120.011 166.948 129.943 162.663 133.736 157.046C137.527 151.429 209.079 74.6099 233.588 51.9397C258.096 29.2696 277.757 8.70968 291.14 5.12361C291.14 5.12361 297.86 2.79312 300.414 7.9163C300.414 7.9163 292.061 7.042 284.163 14.4358C276.265 21.8295 175.09 110.794 148.849 143.253C148.849 143.253 133.089 158.843 133.761 162.362C134.434 165.881 139.165 164.349 139.165 164.349C139.165 164.349 134.828 171.729 134.009 177.091C134.009 177.091 133.014 180.786 132.494 177.497C131.973 174.209 128.126 168.937 122.499 168.814C116.873 168.691 117.287 168.273 120.011 166.948Z" fill="url(#paint2_linear_4412_66400)"/>
<path opacity="0.42" d="M301.001 10.1038C301.001 10.1038 302.369 13.5264 296.315 20.5613C290.261 27.5962 267.642 47.5534 256.785 56.8663C245.929 66.1792 177.179 123.393 159.105 142.129C159.105 142.129 181.43 119.728 199.709 103.102C217.988 86.4762 281.264 33.0746 288.484 25.0051C295.704 16.9364 300.186 12.5717 301.001 10.1038Z" fill="url(#paint3_linear_4412_66400)"/>
<defs>
<radialGradient id="paint0_radial_4412_66400" cx="0" cy="0" r="1" gradientUnits="userSpaceOnUse" gradientTransform="translate(40.3803 185.782) rotate(-15) scale(102.717 102.717)">
<stop offset="0.0552" stop-color="white"/>
<stop offset="0.1513" stop-color="#F6F6F6"/>
<stop offset="0.308" stop-color="#DEDEDE"/>
<stop offset="0.5048" stop-color="#B6B6B8"/>
<stop offset="0.5722" stop-color="#A7A7A9"/>
<stop offset="0.6421" stop-color="#A1A1A3"/>
<stop offset="0.7357" stop-color="#909092"/>
<stop offset="0.8426" stop-color="#747577"/>
<stop offset="0.9586" stop-color="#4E4E50"/>
<stop offset="1" stop-color="#3E3F41"/>
</radialGradient>
<radialGradient id="paint1_radial_4412_66400" cx="0" cy="0" r="1" gradientUnits="userSpaceOnUse" gradientTransform="translate(9.84767 150.728) rotate(-15) scale(105.737 105.737)">
<stop offset="0.0552" stop-color="white"/>
<stop offset="0.3163" stop-color="#C7C7C8"/>
<stop offset="0.4871" stop-color="#A7A7A9"/>
<stop offset="0.571" stop-color="#A1A1A3"/>
<stop offset="0.6832" stop-color="#909092"/>
<stop offset="0.8114" stop-color="#747577"/>
<stop offset="0.9504" stop-color="#4E4E50"/>
<stop offset="1" stop-color="#3E3F41"/>
</radialGradient>
<linearGradient id="paint2_linear_4412_66400" x1="143.499" y1="68.4375" x2="254.281" y2="104.791" gradientUnits="userSpaceOnUse">
<stop stop-color="#EEEEEE"/>
<stop offset="0.773" stop-color="white"/>
<stop offset="1" stop-color="white"/>
</linearGradient>
<linearGradient id="paint3_linear_4412_66400" x1="147.354" y1="98.2756" x2="312.756" y2="53.9564" gradientUnits="userSpaceOnUse">
<stop stop-color="#EEEEEE"/>
<stop offset="0.773" stop-color="white"/>
<stop offset="1" stop-color="white"/>
</linearGradient>
</defs>
</svg>
