<svg width="212" height="291" viewBox="0 0 212 291" fill="none" xmlns="http://www.w3.org/2000/svg">
<path d="M77.7057 231.919C64.6569 230.114 46.1012 214.268 43.9441 196.299C41.7869 178.33 51.7317 170.312 61.6369 170.312C71.5421 170.312 77.7064 176.605 77.7064 186.098C77.7057 195.592 77.7057 231.919 77.7057 231.919Z" fill="#A67C52"/>
<path d="M81.983 232.458C68.935 230.653 50.3793 214.807 48.2214 196.838C46.0643 178.869 56.0091 170.852 65.9143 170.852C75.8188 170.852 81.983 177.144 81.983 186.637C81.983 196.13 81.983 232.458 81.983 232.458Z" fill="#8C6239"/>
<path d="M63.8341 188.459C52.9573 169.619 47.8889 149.956 67.7234 134.4C87.5578 118.843 114.393 101.756 109.726 75.2973C105.059 48.8396 105.623 40.0303 101.947 36.355C98.2722 32.6797 110.261 29.3151 110.261 36.355C110.261 43.3948 121.004 72.9064 118.282 88.4859C115.56 104.065 99.2255 124.289 81.724 136.345C64.2232 148.401 64.0771 162.902 75.6233 177.625C87.1687 192.348 63.8341 188.459 63.8341 188.459Z" fill="#8CC63F"/>
<path opacity="0.1" d="M110.261 36.3627C110.261 32.2997 106.276 31.7116 103.605 32.6401C104.944 33.1788 105.96 34.3241 105.96 36.3627C105.96 43.4025 116.704 72.9141 113.981 88.4935C111.259 104.072 94.9248 124.296 77.4233 136.353C59.9226 148.409 59.7764 162.91 71.3226 177.633C78.0369 186.196 72.953 188.459 67.5238 188.857C73.5871 189.231 84.1779 188.542 75.6228 177.633C64.0773 162.91 64.2227 148.409 81.7235 136.353C99.225 124.296 115.559 104.073 118.281 88.4935C121.004 72.9141 110.261 43.4025 110.261 36.3627Z" fill="#1A0000"/>
<path d="M132.221 290.709C131.939 290.669 130.733 290.408 129.124 289.744C125.546 288.237 119.997 284.617 118.931 276.495V276.475C118.791 275.57 118.73 274.585 118.73 273.56C118.73 273.56 98.9873 261.034 91.0457 284.235C91.0457 284.235 88.6535 273.801 98.7056 267.99C108.758 262.2 118.73 266.14 118.73 266.14C118.73 266.14 125.042 244.97 119.855 236.506C119.533 235.963 119.152 235.461 118.73 235.038C111.593 227.901 92.3323 225.79 88.6535 227.901C84.9944 230.011 79.8477 215.898 79.8477 215.898H94.7048C98.1633 216.542 102.586 217.145 107.09 218.19C109.784 218.793 112.498 219.557 115.072 220.583C115.212 220.643 115.353 220.703 115.494 220.763C124.622 224.503 131.738 231.58 128.582 246.598C123.012 273.057 118.589 282.808 132.221 290.709Z" fill="#E3D6C8"/>
<path opacity="0.1" d="M119.495 271.744C119.495 271.744 118.953 274.216 118.932 276.468C118.792 275.563 118.731 274.578 118.731 273.553C118.731 273.553 98.9884 261.027 91.0469 284.228C92.5749 277.976 94.1834 271.924 103.632 269.612C113.082 267.28 119.495 271.744 119.495 271.744Z" fill="#1A0000"/>
<path opacity="0.1" d="M132.222 290.71C131.94 290.67 130.734 290.409 129.125 289.745C124.14 284.759 119.314 281.743 122.712 267.469C126.089 253.215 131.297 227.541 115.494 220.766C124.622 224.505 131.739 231.582 128.582 246.6C123.013 273.058 118.59 282.809 132.222 290.71Z" fill="#1A0000"/>
<path opacity="0.1" d="M119.855 236.506C119.533 235.963 119.152 235.461 118.73 235.038C111.593 227.901 92.3323 225.79 88.6535 227.901C84.9944 230.011 79.8477 215.898 79.8477 215.898H94.7048C98.1633 216.542 102.586 217.145 107.09 218.19C106.99 220.965 106.567 223.719 105.642 226.293C108.376 226.795 110.668 227.459 111.995 228.243C116.136 230.635 119.071 232.425 119.855 236.506Z" fill="#1A0000"/>
<path d="M92.2721 230.109C83.7078 235.054 76.5903 233.728 69.4537 225.344C67.2824 222.831 65.1309 219.695 62.9399 215.895C53.4103 199.409 54.1941 176.651 69.5744 171.443C74.3597 169.835 78.6217 170.015 82.2808 171.524C90.3628 174.861 95.5301 184.612 97.0171 195.609C99.1679 211.553 100.656 225.264 92.2721 230.109Z" fill="#C69C6D"/>
<path d="M189.056 47.2793C157.552 44.726 126.269 18.5493 109.984 33.5074C107.25 36.0007 103.872 37.85 100.192 38.1515C93.4574 38.6945 85.8576 48.3045 75.1213 75.2854C65.2704 100.014 23.1704 117.063 6.68434 104.317C0.351299 99.4313 -2.22174 90.163 2.24154 75.2854C16.9384 26.2699 72.7085 22.0078 95.9097 26.0884C96.7542 26.2494 97.6184 26.2692 98.4629 26.2091C99.6894 26.1286 100.876 25.8074 101.981 25.3046C103.369 24.6811 104.615 23.7766 105.66 22.6306C122.186 4.51624 143.457 -3.9683 178.942 1.78221C188.11 3.26997 195.448 6.768 200.856 11.2313C218.168 25.4854 215.555 49.4307 189.056 47.2793Z" fill="#39B54A"/>
<path d="M189.057 47.2745C157.553 44.7213 126.27 18.5446 109.985 33.5027C107.251 35.996 103.873 37.8452 100.193 38.1467C93.4586 38.6897 85.8588 48.2998 75.1225 75.2807C65.2716 100.009 23.1716 117.059 6.68555 104.312C31.5552 114.947 58.7571 86.3185 64.6072 70.8774C70.4375 55.4371 85.5163 39.4333 98.7049 34.8295C111.874 30.225 111.672 23.5502 124.118 25.0987C136.562 26.6669 222.048 47.9376 200.898 11.2866C200.878 11.2668 200.878 11.2463 200.858 11.2266C218.169 25.4807 215.556 49.426 189.057 47.2745Z" fill="#009245"/>
<path d="M193.478 14.6703C193.478 14.7508 193.378 14.8108 193.317 14.7508C191.126 12.0973 187.588 12.278 184.632 11.4138C180.209 10.1068 176.529 8.619 171.865 7.97574C164.084 6.93071 156.223 6.97025 148.443 7.95597C139.838 9.06173 133.526 11.555 125.865 15.3948C118.245 19.1943 112.475 23.9188 105.559 28.5834C105.539 28.6038 105.519 28.6038 105.498 28.6236C105.498 28.7846 105.458 28.9449 105.378 29.1059C105.096 29.5684 104.755 30.0309 104.312 30.4531C104.212 30.5739 104.111 30.6946 103.99 30.7949C102.723 32.0214 100.774 32.7649 99.0446 32.9457C97.8986 33.0862 96.934 33.0664 96.0288 32.8052C95.1441 32.9054 94.2593 32.9259 93.5158 32.7049C93.4558 32.7049 93.395 32.7247 93.335 32.7247C73.0896 30.6537 56.9658 35.9819 40.5806 47.7435C26.9493 57.535 14.123 73.2161 13.4388 90.647C13.4388 90.7677 13.258 90.7677 13.258 90.647C11.891 72.9754 23.2903 57.5752 36.5996 47.1207C44.6817 40.7474 54.0912 34.6954 63.8016 31.1974C71.0589 28.6038 83.0619 26.3118 91.144 29.3071C91.2647 29.1461 91.4257 29.0056 91.6467 28.9654C92.069 28.8651 92.511 28.7846 92.9735 28.6843C93.335 28.5036 93.7375 28.4231 94.1195 28.4633C95.2655 28.2218 96.391 27.8999 97.2355 27.2976C97.2963 27.2573 97.3358 27.2171 97.3965 27.1768C97.6783 26.8146 98.0603 26.4933 98.462 26.2116C99.6885 26.1311 100.875 25.8098 101.981 25.307C102.745 25.3671 103.408 25.629 103.951 25.9906C117.079 11.495 136.46 5.70492 155.439 4.45794C163.882 3.91565 174.337 4.55821 182.399 7.27247C185.275 8.237 193.499 10.2473 193.478 14.6703Z" fill="#009245"/>
<path opacity="0.1" d="M92.2716 230.109C83.7072 235.054 76.5897 233.728 69.4531 225.344C83.828 227.978 97.2581 209.26 91.0458 187.929C88.5327 179.284 85.296 174.338 82.2802 171.523C90.3623 174.86 95.5295 184.612 97.0166 195.609C99.1674 211.552 100.655 225.264 92.2716 230.109Z" fill="#1A0000"/>
</svg>
