<svg width="271" height="259" viewBox="0 0 271 259" fill="none" xmlns="http://www.w3.org/2000/svg">
<path d="M262.146 91.807L180.511 82.1797L214.154 86.1472L212.897 90.7433C208.732 105.986 202.127 120.383 193.266 133.533C184.543 146.478 173.857 157.892 161.505 167.457C149.023 177.122 135.167 184.643 120.32 189.81C104.962 195.156 88.8536 197.867 72.4433 197.867C69.2793 197.867 66.0701 197.763 62.9046 197.558L58.2336 197.256L64.499 165.771L48.3138 247.103C46.751 254.956 55.0989 261.04 62.0959 257.147L135.226 216.462L208.357 257.147C215.354 261.04 223.701 254.956 222.139 247.103L205.953 165.771L267.478 107.986C273.299 102.519 270.077 92.7423 262.146 91.807Z" fill="#FFC200"/>
<path d="M62.9049 197.556C66.0704 197.761 69.2796 197.865 72.4436 197.865C88.854 197.865 104.962 195.155 120.321 189.809C135.167 184.641 149.023 177.12 161.505 167.455C173.857 157.89 184.543 146.477 193.266 133.531C202.127 120.381 208.732 105.985 212.898 90.7417L214.154 86.1457L180.511 82.1781L143.7 5.33609C140.291 -1.7787 130.162 -1.7787 126.753 5.33609L89.9418 82.1781L8.30635 91.8054C0.375479 92.7407 -2.8463 102.517 2.97464 107.984L64.4993 165.77L58.2338 197.254L62.9049 197.556Z" fill="#FFD400"/>
</svg>
