<svg width="290" height="290" viewBox="0 0 290 290" fill="none" xmlns="http://www.w3.org/2000/svg">
<path d="M205.061 0H84.9392L0 84.9389V205.061L84.9392 290H205.061L290 205.061V84.9389L205.061 0Z" fill="black"/>
<path d="M88.9782 280.253L9.75 201.025V88.9786L88.9782 9.75H201.024L280.253 88.9786V201.025L201.024 280.253H88.9782Z" fill="#D33131"/>
<path d="M200.693 190.98C200.693 210.848 184.529 227.013 164.66 227.013H137.516C123.904 227.013 111.604 219.482 105.418 207.361C105.408 207.34 105.397 207.319 105.385 207.298L69.489 140.871C67.5255 136.818 68.8318 131.907 72.554 129.418C74.0005 128.44 75.7032 127.922 77.4776 127.922C80.7272 127.922 83.6282 129.584 85.2376 132.368C85.2601 132.407 85.2835 132.445 85.3078 132.483L105.079 163.381C105.798 164.505 107.172 165.019 108.451 164.645C109.731 164.27 110.611 163.097 110.611 161.763V74.5455C110.611 69.5787 114.652 65.5374 119.619 65.5374C122.001 65.5374 124.264 66.4725 125.994 68.171C127.692 69.9007 128.627 72.164 128.627 74.5455V133.506C128.627 135.164 129.972 136.508 131.63 136.508C133.288 136.508 134.633 135.164 134.633 133.506V74.5455V59.5318C134.633 54.5647 138.674 50.5234 143.641 50.5234C146.022 50.5234 148.285 51.4582 150.015 53.1567C151.714 54.8867 152.649 57.15 152.649 59.5318V74.5455V133.506C152.649 135.164 153.994 136.508 155.652 136.508C157.31 136.508 158.655 135.164 158.655 133.506V74.5455C158.655 69.5787 162.696 65.5374 167.663 65.5374C170.044 65.5374 172.307 66.4722 174.037 68.1704C175.736 69.9001 176.671 72.1637 176.671 74.5455V92.5621V133.506C176.671 135.164 178.015 136.508 179.674 136.508C181.332 136.508 182.676 135.164 182.676 133.506V92.5621C182.676 87.5951 186.718 83.5538 191.685 83.5538C194.066 83.5538 196.329 84.4892 198.059 86.1877C199.757 87.9174 200.693 90.1803 200.693 92.5621V190.98H200.693Z" fill="white"/>
</svg>
