<svg width="318" height="303" viewBox="0 0 318 303" fill="none" xmlns="http://www.w3.org/2000/svg">
<path d="M68.3506 236.726C74.8552 236.726 80.6164 239.769 84.2409 244.472C84.2431 244.475 84.245 244.478 84.2472 244.481C92.2234 241.118 97.1635 237.355 95.2564 233.651C94.4731 232.13 93.8956 228.119 93.4813 222.355C92.026 222.708 90.4917 222.892 88.9256 222.892C78.0053 222.892 69.142 214.285 69.142 203.679C69.142 193.074 78.0051 184.466 88.9256 184.466C90.1759 184.466 91.3948 184.574 92.5659 184.804C92.5677 184.805 92.5695 184.805 92.5713 184.805C92.5532 150.82 93.7705 109.181 94.2625 93.7571C83.8033 93.2537 75.4728 84.8501 75.4728 74.5683C75.4728 63.9628 84.3359 55.3554 95.2564 55.3554C98.9048 55.3554 102.325 56.3227 105.265 58.0016L105.281 53.2503C100.268 51.8768 86.3605 49.2338 80.2208 59.9666C72.3072 73.7999 69.142 81.4852 50.1496 83.0221C39.9249 83.8496 35.3382 90.7586 33.9329 93.4346C40.5541 94.2546 46.0406 96.3626 50.2546 99.7183C54.758 103.305 57.2905 108.691 57.2025 114.495L57.1114 120.508C58.6816 120.116 60.3199 119.911 62.0197 119.911C72.9401 119.911 81.8033 128.518 81.8033 139.124C81.8033 149.729 72.9401 158.337 62.0197 158.337C60.1196 158.337 58.2849 158.075 56.55 157.588L55.6887 214.461C55.6882 214.496 55.6864 214.531 55.6834 214.566C54.8009 224.851 48.3338 229.657 43.0638 231.878C39.2507 233.484 35.5608 233.981 33.5312 234.134V256.109C37.4242 255.868 42.7451 255.175 48.6469 254.132C49.5849 244.376 58.0501 236.726 68.3506 236.726Z" fill="#3C43A0"/>
<path d="M94.2617 93.7592C93.7697 109.182 92.5524 150.822 92.5705 184.807C97.5606 185.704 101.903 188.431 104.816 192.235L105.153 91.2109C102.247 92.8446 98.8643 93.7833 95.2554 93.7833C94.9224 93.7833 94.591 93.7749 94.2617 93.7592Z" fill="#273589"/>
<path d="M93.4845 222.35C93.4837 222.351 93.4829 222.351 93.4822 222.351C93.8965 228.116 94.474 232.126 95.2573 233.648C97.1644 237.352 92.2243 241.114 84.248 244.477C86.6816 247.672 88.1353 251.65 88.1353 255.935C88.1353 257.213 88.0013 258.46 87.7548 259.667H126.911V232.746C115.759 231.557 110.33 226.044 107.725 221.526C106.27 219.003 105.528 216.536 105.149 214.664C102.403 218.468 98.2849 221.274 93.4845 222.35Z" fill="#273589"/>
<path d="M48.5667 255.939C48.5667 255.34 48.5984 254.74 48.6459 254.141C48.6462 254.138 48.6466 254.135 48.6469 254.133C42.7451 255.176 37.4242 255.869 33.5312 256.11V259.672H48.9473C48.7007 258.464 48.5667 257.217 48.5667 255.939Z" fill="#273589"/>
<path d="M50.1493 83.0225C69.1415 81.4856 72.3069 73.8003 80.2203 59.967C86.36 49.2343 100.267 51.8772 105.281 53.2507L105.312 43.8281H72.9788C72.3444 49.889 69.9388 55.102 65.8162 59.3411C62.2992 62.9576 57.5445 65.8514 51.6843 67.9421C44.0801 70.655 36.6868 71.2964 33.5312 71.4479V93.3832C33.6667 93.3988 33.7985 93.4183 33.9328 93.435C35.3379 90.7592 39.9246 83.85 50.1493 83.0225Z" fill="#5E67BC"/>
<path d="M75.4727 74.5645C75.4727 84.8462 83.8032 93.2499 94.2624 93.7533C94.5917 93.7692 94.9229 93.7774 95.2563 93.7774C98.8652 93.7774 102.248 92.8387 105.154 91.2051L105.265 57.9978C102.325 56.3189 98.9046 55.3516 95.2564 55.3516C84.336 55.3516 75.4727 63.9589 75.4727 74.5645Z" fill="#8E97EF"/>
<path d="M81.8042 139.119C81.8042 128.514 72.9411 119.906 62.0206 119.906C60.3208 119.906 58.6825 120.112 57.1124 120.503L56.5508 157.584C58.2857 158.071 60.1205 158.332 62.0205 158.332C72.9411 158.332 81.8042 149.725 81.8042 139.119Z" fill="#8E97EF"/>
<path d="M92.5664 184.799C91.3952 184.568 90.1765 184.461 88.9262 184.461C78.0059 184.461 69.1426 193.068 69.1426 203.674C69.1426 214.279 78.0057 222.887 88.9262 222.887C90.4923 222.887 92.0265 222.703 93.4819 222.349C93.4826 222.349 93.4834 222.349 93.4842 222.349C92.8196 213.249 92.5824 199.77 92.5664 184.799Z" fill="#8E97EF"/>
<path d="M92.5719 184.806C92.57 184.805 92.5683 184.805 92.5664 184.805C92.5823 199.775 92.8194 213.255 93.4842 222.354C98.2846 221.278 102.402 218.472 105.148 214.668C104.762 212.76 104.753 211.468 104.753 211.365L104.817 192.233C101.904 188.429 97.5621 185.702 92.5719 184.806Z" fill="#6E7BDB"/>
<path d="M84.2413 244.473C80.617 239.77 74.8557 236.727 68.351 236.727C58.0505 236.727 49.5853 244.377 48.6474 254.133C48.6471 254.136 48.6468 254.138 48.6465 254.141C60.4535 252.051 74.571 248.562 84.2413 244.473Z" fill="#8E97EF"/>
<path d="M84.2466 244.477C84.2444 244.475 84.2425 244.472 84.2403 244.469C74.5699 248.557 60.4525 252.046 48.6457 254.137C48.5981 254.736 48.5664 255.336 48.5664 255.935C48.5664 257.213 48.7004 258.46 48.947 259.668H87.7531C87.9996 258.46 88.1336 257.213 88.1336 255.935C88.1338 251.65 86.6802 247.673 84.2466 244.477Z" fill="#6E7BDB"/>
<path d="M130.077 261.204V231.342C130.077 230.536 129.435 229.866 128.607 229.809C120.039 229.214 113.964 225.96 110.551 220.134C107.97 215.73 107.919 211.4 107.919 211.366L108.484 42.292C108.486 41.8835 108.319 41.4913 108.022 41.2019C107.725 40.9126 107.322 40.75 106.901 40.75H71.5172C70.6773 40.75 69.9836 41.3874 69.9369 42.2018C69.3201 52.9833 62.8372 60.6624 50.6681 65.0261C41.3457 68.3689 32.042 68.4165 31.949 68.4165C31.0753 68.4169 30.3672 69.1049 30.3672 69.9536V94.7655C30.3672 95.5622 30.994 96.2269 31.8113 96.2966C38.6197 96.8777 44.1501 98.8275 48.2487 102.091C52.0021 105.08 54.1124 109.583 54.0388 114.446L52.5259 214.359C51.9116 221.339 48.3353 226.269 41.8956 229.015C36.9201 231.137 32.0158 231.121 31.9673 231.122C31.5465 231.111 31.1375 231.278 30.8369 231.567C30.5363 231.855 30.3672 232.249 30.3672 232.659V261.204C30.3672 262.053 31.0757 262.741 31.9498 262.741H128.494C129.368 262.741 130.077 262.053 130.077 261.204ZM33.5326 256.105V234.13C35.5621 233.977 39.252 233.48 43.0651 231.874C48.335 229.653 54.8021 224.847 55.6847 214.562C55.6877 214.527 55.6896 214.492 55.69 214.457L56.5513 157.585L57.1129 120.504L57.204 114.491C57.292 108.687 54.7595 103.301 50.2561 99.7144C46.0421 96.3587 40.5557 94.2507 33.9344 93.4306C33.8001 93.414 33.6681 93.3944 33.5329 93.3788V71.4437C36.6885 71.2922 44.0818 70.6508 51.686 67.9379C57.5461 65.8473 62.3009 62.9535 65.8179 59.3369C69.9405 55.0978 72.346 49.8848 72.9805 43.8239H105.314L105.282 53.2465L105.267 57.9978L105.155 91.2051L104.818 192.229L104.754 211.361C104.754 211.464 104.763 212.756 105.149 214.664C105.528 216.536 106.27 219.003 107.725 221.526C110.331 226.044 115.76 231.557 126.911 232.746V259.667H87.7548H48.9487H33.5326V256.105Z" fill="#060B3D"/>
<path d="M231.109 238.876C237.441 238.876 243.051 241.861 246.57 246.443C246.571 246.444 246.572 246.445 246.572 246.446C256.621 236.054 268.96 220.046 276.879 198.369C276.879 198.368 276.878 198.368 276.878 198.368C270.284 195.413 265.689 188.935 265.689 181.413C265.689 171.233 274.08 162.965 284.516 162.771C284.517 162.771 284.517 162.771 284.518 162.771C284.953 156.979 285.042 150.93 284.716 144.621C284.213 134.916 283.118 126.042 281.587 117.939C281.585 117.938 281.583 117.936 281.581 117.934C277.493 114.501 274.911 109.442 274.911 103.8C274.911 101.412 275.372 99.1432 276.217 97.0387C276.218 97.0375 276.218 97.0362 276.219 97.035C265.556 64.8458 248.181 49.3199 241.392 44.2378C240.709 44.1153 240.05 44.0078 239.415 43.9141C240.497 46.2481 241.099 48.836 241.099 51.5607C241.099 61.8592 232.492 70.2176 221.888 70.2176C214.342 70.2176 207.81 65.9937 204.66 59.8444C204.659 59.8426 204.658 59.8407 204.657 59.839C195.705 70.3711 185.08 85.4446 177.129 104.621C177.131 104.621 177.132 104.621 177.134 104.621C177.702 104.576 178.271 104.546 178.855 104.546C189.46 104.546 198.066 112.905 198.066 123.203C198.066 133.502 189.46 141.86 178.855 141.86C174.583 141.86 170.633 140.502 167.452 138.218C167.448 138.216 167.444 138.213 167.441 138.21C167.403 138.432 167.365 138.653 167.328 138.875C157.992 195.866 191.48 242.268 200.497 253.54C204.286 255.401 208.113 256.867 211.903 257.904C211.9 257.78 211.898 257.657 211.898 257.533C211.898 247.234 220.505 238.876 231.109 238.876ZM190.382 187.383C190.382 177.453 198.383 169.329 208.461 168.759C208.193 163.642 208.056 158.388 208.056 153.054C208.056 131.804 210.231 111.808 214.181 96.7498C217.087 85.6673 222.251 72.4564 230.341 72.4564C238.431 72.4564 243.594 85.6673 246.501 96.7498C250.451 111.808 252.626 131.804 252.626 153.054C252.626 174.304 250.451 194.3 246.501 209.358C243.595 220.441 238.431 233.652 230.341 233.652C222.251 233.652 217.087 220.441 214.181 209.358C213.868 208.168 213.569 206.944 213.279 205.694C212.087 205.919 210.856 206.04 209.593 206.04C198.988 206.04 190.382 197.681 190.382 187.383Z" fill="#EA4EA7"/>
<path d="M167.33 138.875C167.367 138.652 167.405 138.432 167.443 138.21C162.715 134.806 159.646 129.347 159.646 123.203C159.646 113.473 167.328 105.474 177.131 104.621C185.081 85.4442 195.707 70.3707 204.659 59.8386C203.4 57.3473 202.679 54.5284 202.679 51.5603C202.679 50.6904 202.743 49.8364 202.862 49C200.142 50.2047 197.484 51.5887 194.901 53.1543C172.587 66.6755 157.873 91.8388 151.169 127.945C140.073 187.702 163.153 221.895 177.899 236.958C184.816 244.023 192.575 249.647 200.499 253.54C191.482 242.267 157.994 195.866 167.33 138.875Z" fill="#F25FBA"/>
<path d="M276.22 97.0314C276.299 96.8329 276.383 96.6366 276.469 96.4414C276.483 96.4107 276.496 96.3799 276.51 96.3493C276.599 96.1512 276.69 95.9547 276.786 95.7601C276.789 95.755 276.791 95.7498 276.794 95.7447C276.893 95.5438 276.996 95.345 277.102 95.1482C277.105 95.1414 277.109 95.1346 277.113 95.1279C277.22 94.9296 277.331 94.7334 277.445 94.5393C277.451 94.5293 277.457 94.5193 277.463 94.5093C277.692 94.1233 277.934 93.7459 278.19 93.3781C278.2 93.3626 278.211 93.3473 278.222 93.332C278.473 92.9733 278.736 92.6235 279.012 92.2834C279.03 92.2611 279.048 92.2385 279.066 92.2164C279.197 92.0563 279.33 91.8982 279.466 91.7425C279.493 91.7111 279.521 91.6802 279.549 91.6492C279.662 91.5207 279.778 91.3937 279.895 91.2685C279.927 91.2339 279.959 91.1991 279.991 91.1648C280.116 91.0333 280.243 90.9041 280.372 90.7762C280.432 90.7165 280.493 90.6575 280.553 90.5987C280.634 90.5202 280.716 90.4426 280.799 90.3657C280.923 90.2495 281.049 90.1351 281.177 90.0221C281.222 89.9815 281.268 89.9407 281.314 89.9007C282.632 88.7545 284.112 87.7815 285.719 87.0201C278.929 70.7364 270.581 59.6327 263.869 52.5629C256.967 48.532 249.561 45.7566 241.835 44.3148C241.686 44.2871 241.539 44.2607 241.393 44.2344C248.182 49.3163 265.557 64.8422 276.22 97.0314Z" fill="#D8449F"/>
<path d="M288.925 199.657C288.821 199.678 288.718 199.699 288.614 199.718C288.568 199.727 288.522 199.736 288.475 199.744C287.907 199.848 287.331 199.928 286.747 199.982C286.743 199.982 286.74 199.983 286.736 199.983C286.556 199.999 286.374 200.014 286.192 200.025C286.153 200.028 286.113 200.03 286.073 200.033C285.922 200.041 285.771 200.048 285.619 200.054C285.572 200.056 285.524 200.058 285.476 200.059C285.286 200.065 285.094 200.068 284.902 200.068C282.044 200.068 279.325 199.456 276.881 198.367C268.962 220.045 256.623 236.053 246.574 246.444C248.526 249.022 249.818 252.105 250.201 255.452C260.318 246.905 278.877 228.289 289.698 199.486H289.697C289.442 199.548 289.184 199.604 288.925 199.657Z" fill="#D8449F"/>
<path d="M294.664 122.447C294.641 122.448 294.618 122.449 294.595 122.449C294.438 122.453 294.28 122.455 294.123 122.455C289.33 122.455 284.953 120.755 281.588 117.938C283.119 126.04 284.215 134.914 284.717 144.62C285.043 150.928 284.954 156.977 284.519 162.769C284.642 162.754 284.779 162.754 284.901 162.754C285.059 162.754 285.216 162.756 285.373 162.76C285.423 162.761 285.472 162.763 285.521 162.765C285.629 162.768 285.737 162.772 285.845 162.777C285.9 162.779 285.956 162.783 286.011 162.786C286.113 162.791 286.216 162.797 286.318 162.805C286.372 162.808 286.427 162.813 286.482 162.817C286.585 162.825 286.689 162.834 286.792 162.844C286.843 162.849 286.893 162.854 286.944 162.859C287.054 162.87 287.163 162.883 287.272 162.896C287.314 162.901 287.358 162.906 287.4 162.911C287.523 162.927 287.645 162.943 287.766 162.961C287.795 162.965 287.824 162.969 287.852 162.973C291.443 163.51 294.706 165.012 297.349 167.2C298.117 160.082 298.36 152.556 297.95 144.62C297.538 136.666 296.727 129.271 295.605 122.4C295.409 122.415 295.211 122.426 295.012 122.434C294.896 122.44 294.78 122.444 294.664 122.447Z" fill="#D8449F"/>
<path d="M288.542 85.9437C288.633 85.9169 288.723 85.8904 288.814 85.8649C288.909 85.8384 289.004 85.8121 289.1 85.7869C289.259 85.7449 289.418 85.7052 289.579 85.6672C289.622 85.6571 289.665 85.6459 289.708 85.6359C289.925 85.586 290.143 85.5404 290.363 85.498C290.404 85.49 290.445 85.483 290.486 85.4753C290.672 85.4406 290.859 85.4085 291.047 85.3791C291.095 85.3715 291.143 85.3639 291.191 85.3568C291.641 85.2897 292.095 85.2376 292.555 85.2017C292.608 85.1974 292.662 85.1942 292.716 85.1904C292.893 85.178 293.07 85.1679 293.249 85.1601C293.311 85.1574 293.374 85.1544 293.437 85.1523C293.665 85.1445 293.893 85.1392 294.123 85.1392C294.183 85.1392 294.244 85.1409 294.304 85.1414C286.751 71.1555 276.917 60.4538 264.864 53.1506C264.534 52.9506 264.202 52.7567 263.869 52.5625C270.582 59.6322 278.929 70.736 285.719 87.0197C286.623 86.5915 287.566 86.2316 288.542 85.9437Z" fill="#C93999"/>
<path d="M306.498 118.07C306.473 118.091 306.448 118.111 306.423 118.131C306.417 118.135 306.412 118.139 306.407 118.143C304.391 119.773 302.033 121.009 299.446 121.729C299.383 121.746 299.319 121.763 299.255 121.78C299.181 121.8 299.106 121.82 299.032 121.839C298.925 121.867 298.818 121.892 298.71 121.918C298.681 121.925 298.652 121.932 298.623 121.939C297.644 122.167 296.636 122.323 295.605 122.4C296.727 129.27 297.537 136.666 297.949 144.619C298.36 152.555 298.116 160.081 297.348 167.2C297.349 167.2 297.349 167.201 297.35 167.201C298.441 168.103 299.426 169.124 300.287 170.241C300.292 170.248 300.297 170.254 300.301 170.26C300.388 170.373 300.474 170.487 300.558 170.602C300.566 170.612 300.573 170.622 300.581 170.632C300.663 170.746 300.745 170.859 300.824 170.974C300.831 170.984 300.838 170.994 300.845 171.004C301.178 171.485 301.489 171.981 301.776 172.492C301.782 172.502 301.788 172.512 301.793 172.522C301.842 172.609 301.889 172.697 301.936 172.785C301.966 172.839 301.995 172.893 302.024 172.948C302.064 173.024 302.103 173.101 302.142 173.178C302.176 173.246 302.211 173.313 302.244 173.381C302.279 173.452 302.313 173.524 302.347 173.595C302.383 173.671 302.419 173.746 302.454 173.822C302.484 173.89 302.515 173.957 302.545 174.024C302.581 174.107 302.617 174.189 302.653 174.272C302.68 174.335 302.707 174.399 302.733 174.463C302.77 174.552 302.806 174.641 302.841 174.73C302.864 174.789 302.888 174.849 302.911 174.909C302.948 175.006 302.984 175.103 303.02 175.201C303.039 175.254 303.059 175.308 303.078 175.362C303.117 175.472 303.155 175.583 303.191 175.695C303.205 175.737 303.22 175.778 303.233 175.821C303.281 175.969 303.328 176.119 303.372 176.269C303.374 176.274 303.375 176.28 303.377 176.285C303.424 176.446 303.47 176.609 303.513 176.772C303.515 176.782 303.518 176.792 303.52 176.801C303.559 176.949 303.596 177.098 303.631 177.248C303.641 177.289 303.65 177.331 303.659 177.373C303.686 177.491 303.712 177.609 303.737 177.728C303.748 177.781 303.758 177.834 303.768 177.888C303.79 177.996 303.81 178.104 303.83 178.213C303.84 178.272 303.85 178.331 303.86 178.39C303.877 178.494 303.894 178.598 303.91 178.702C303.919 178.765 303.928 178.827 303.937 178.89C303.951 178.992 303.964 179.094 303.977 179.197C303.985 179.261 303.993 179.326 304 179.391C304.011 179.493 304.021 179.595 304.031 179.697C304.037 179.762 304.043 179.827 304.049 179.893C304.057 179.997 304.065 180.102 304.071 180.208C304.076 180.27 304.08 180.333 304.084 180.396C304.09 180.511 304.095 180.626 304.099 180.741C304.101 180.795 304.104 180.848 304.105 180.902C304.11 181.071 304.112 181.24 304.112 181.41C304.112 181.56 304.11 181.709 304.107 181.857C304.105 181.907 304.103 181.955 304.102 182.004C304.098 182.104 304.095 182.204 304.09 182.303C304.087 182.361 304.084 182.418 304.081 182.475C304.075 182.566 304.069 182.657 304.063 182.748C304.058 182.808 304.054 182.867 304.049 182.927C304.041 183.016 304.033 183.105 304.024 183.195C304.019 183.253 304.013 183.312 304.007 183.37C303.996 183.466 303.985 183.562 303.973 183.658C303.967 183.708 303.961 183.758 303.955 183.807C303.937 183.945 303.917 184.082 303.896 184.219C303.886 184.282 303.874 184.346 303.864 184.409C303.851 184.487 303.838 184.565 303.824 184.642C303.811 184.714 303.797 184.785 303.783 184.857C303.77 184.925 303.757 184.993 303.743 185.061C303.728 185.136 303.712 185.212 303.695 185.287C303.682 185.348 303.668 185.41 303.654 185.471C303.636 185.551 303.617 185.63 303.598 185.709C303.585 185.762 303.572 185.814 303.558 185.867C303.537 185.953 303.515 186.04 303.492 186.125C303.49 186.132 303.488 186.138 303.487 186.144C303.425 186.374 303.358 186.603 303.287 186.829C303.282 186.846 303.277 186.863 303.272 186.88C303.24 186.979 303.208 187.077 303.175 187.175C303.164 187.207 303.153 187.24 303.142 187.272C303.109 187.369 303.076 187.465 303.041 187.561C303.03 187.592 303.019 187.622 303.007 187.653C302.971 187.752 302.934 187.852 302.896 187.95C302.888 187.97 302.88 187.991 302.872 188.011C302.645 188.594 302.388 189.163 302.104 189.717C302.102 189.721 302.099 189.726 302.097 189.731C301.339 191.205 300.386 192.567 299.271 193.787C299.265 193.794 299.259 193.8 299.252 193.807C299.172 193.895 299.09 193.983 299.007 194.07C299 194.077 298.993 194.085 298.985 194.092C298.651 194.442 298.303 194.78 297.942 195.104C297.923 195.121 297.904 195.139 297.885 195.155C297.815 195.218 297.745 195.28 297.673 195.341C297.637 195.372 297.601 195.404 297.565 195.435C297.501 195.49 297.436 195.544 297.371 195.597C297.325 195.636 297.279 195.673 297.233 195.711C297.174 195.759 297.115 195.807 297.055 195.855C296.997 195.901 296.938 195.947 296.879 195.993C296.829 196.031 296.78 196.07 296.729 196.108C296.619 196.192 296.508 196.275 296.396 196.357C296.387 196.363 296.378 196.369 296.37 196.375C296.261 196.455 296.15 196.533 296.039 196.61C296.015 196.626 295.991 196.643 295.967 196.659C295.868 196.727 295.769 196.794 295.668 196.86C295.646 196.875 295.623 196.89 295.601 196.904C295.493 196.975 295.384 197.044 295.275 197.112C295.262 197.12 295.25 197.128 295.237 197.136C293.551 198.185 291.686 198.987 289.696 199.485C278.875 228.289 260.317 246.904 250.199 255.451C250.264 256.017 250.302 256.591 250.313 257.172C261.248 253.665 272.353 246.672 281.865 236.956C296.611 221.893 319.692 187.701 308.596 127.943C307.967 124.556 307.267 121.265 306.498 118.07Z" fill="#C93999"/>
<path d="M178.857 141.861C189.461 141.861 198.068 133.502 198.068 123.204C198.068 112.905 189.461 104.547 178.857 104.547C178.273 104.547 177.704 104.577 177.135 104.622C172.955 114.696 169.512 125.92 167.453 138.219C170.634 140.502 174.584 141.861 178.857 141.861Z" fill="#FF92DB"/>
<path d="M204.66 59.8449C207.811 65.994 214.343 70.2181 221.888 70.2181C232.493 70.2181 241.1 61.8597 241.1 51.5612C241.1 48.8365 240.497 46.2485 239.416 43.9145C234.445 43.1795 231.003 43.2704 229.964 43.3244C229.909 43.3272 229.854 43.3272 229.8 43.3244C228.75 43.2699 225.253 43.1773 220.207 43.9353C217.231 46.5167 211.424 51.8827 204.66 59.8449Z" fill="#FF92DB"/>
<path d="M204.658 59.834C204.659 59.8358 204.659 59.8376 204.66 59.8395C211.424 51.8772 217.231 46.5112 220.207 43.9297C219.479 44.0391 218.719 44.1659 217.93 44.3133C212.744 45.2809 207.703 46.8509 202.861 48.9954C202.742 49.8318 202.678 50.686 202.678 51.5557C202.678 54.5238 203.399 57.3427 204.658 59.834Z" fill="#FCACE5"/>
<path d="M208.462 168.758C198.384 169.328 190.383 177.452 190.383 187.382C190.383 197.68 198.989 206.038 209.594 206.038C210.857 206.038 212.088 205.918 213.28 205.693C210.823 195.097 209.176 182.418 208.462 168.758Z" fill="#FF92DB"/>
<path d="M274.91 103.801C274.91 109.442 277.492 114.502 281.58 117.935C280.136 110.293 278.307 103.338 276.217 97.0391C275.371 99.1439 274.91 101.412 274.91 103.801Z" fill="#FF92DB"/>
<path d="M261.172 122.451C261.329 122.451 261.487 122.449 261.644 122.445C261.487 122.449 261.33 122.451 261.172 122.451Z" fill="#FF92DB"/>
<path d="M246.115 92.2161C246.246 92.0559 246.379 91.8981 246.516 91.7422C246.379 91.8979 246.246 92.0561 246.115 92.2161Z" fill="#FF92DB"/>
<path d="M247.041 91.162C247.166 91.0305 247.293 90.9015 247.422 90.7734C247.293 90.9013 247.166 91.0307 247.041 91.162Z" fill="#FF92DB"/>
<path d="M248.227 90.0198C248.272 89.9792 248.318 89.9386 248.364 89.8984C248.318 89.9384 248.272 89.9792 248.227 90.0198Z" fill="#FF92DB"/>
<path d="M245.271 93.3299C245.522 92.9712 245.786 92.6215 246.061 92.2812C245.786 92.6214 245.522 92.9712 245.271 93.3299Z" fill="#FF92DB"/>
<path d="M243.518 96.4453C243.432 96.6404 243.349 96.8366 243.269 97.0353C243.269 97.0365 243.268 97.0378 243.268 97.039C243.347 96.8394 243.432 96.6417 243.518 96.4453Z" fill="#FF92DB"/>
<path d="M261.713 122.443C261.829 122.44 261.945 122.435 262.061 122.43C261.945 122.435 261.829 122.44 261.713 122.443Z" fill="#FF92DB"/>
<path d="M295.598 122.395C293.339 108.559 289.82 96.8573 285.716 87.0364C286.62 86.6003 287.565 86.2357 288.543 85.9453C287.567 86.2332 286.623 86.5931 285.719 87.0213C284.113 87.7826 282.632 88.7556 281.315 89.9019C281.268 89.942 281.223 89.9826 281.177 90.0232C281.05 90.1363 280.924 90.2505 280.799 90.3668C280.717 90.444 280.635 90.5214 280.554 90.5999C280.493 90.6588 280.432 90.7177 280.373 90.7774C280.244 90.9054 280.117 91.0345 279.992 91.166C279.959 91.2002 279.928 91.2352 279.896 91.2696C279.778 91.3951 279.663 91.5219 279.549 91.6503C279.522 91.6816 279.494 91.7123 279.466 91.7437C279.33 91.8996 279.197 92.0574 279.066 92.2176C279.048 92.2397 279.03 92.2623 279.012 92.2845C278.737 92.6248 278.473 92.9745 278.222 93.3332C278.211 93.3485 278.201 93.3638 278.19 93.3793C277.935 93.7473 277.692 94.1245 277.464 94.5105C277.458 94.5205 277.452 94.5305 277.446 94.5405C277.331 94.7346 277.22 94.9306 277.113 95.1291C277.109 95.1358 277.106 95.1426 277.102 95.1494C276.996 95.3462 276.893 95.545 276.794 95.7458C276.792 95.751 276.789 95.7561 276.786 95.7613C276.691 95.9558 276.599 96.1525 276.51 96.3505C276.497 96.3812 276.483 96.4118 276.47 96.4426C276.383 96.6389 276.299 96.8365 276.219 97.0363C278.309 103.335 280.137 110.29 281.583 117.932C281.585 117.934 281.587 117.935 281.588 117.937C284.953 120.755 289.331 122.455 294.123 122.455C294.281 122.455 294.439 122.452 294.596 122.449C294.619 122.448 294.642 122.447 294.665 122.447C294.781 122.444 294.897 122.439 295.013 122.434C295.211 122.425 295.409 122.414 295.606 122.4C296.638 122.323 297.646 122.167 298.625 121.939C297.644 122.166 296.633 122.32 295.598 122.395Z" fill="#F478D1"/>
<path d="M273.472 118.133C273.467 118.137 273.462 118.141 273.457 118.146C273.462 118.141 273.467 118.137 273.472 118.133Z" fill="#F478D1"/>
<path d="M266.496 121.727C266.432 121.744 266.368 121.761 266.305 121.778C266.368 121.761 266.432 121.744 266.496 121.727Z" fill="#F478D1"/>
<path d="M255.863 85.8671C255.958 85.8404 256.054 85.8144 256.149 85.7891C256.054 85.8142 255.958 85.8406 255.863 85.8671Z" fill="#F478D1"/>
<path d="M258.096 85.3816C258.144 85.3741 258.192 85.3665 258.24 85.3594C258.192 85.3665 258.144 85.3742 258.096 85.3816Z" fill="#F478D1"/>
<path d="M266.082 121.836C265.975 121.863 265.867 121.889 265.76 121.915C265.867 121.889 265.975 121.863 266.082 121.836Z" fill="#F478D1"/>
<path d="M259.604 85.2065C259.657 85.2023 259.711 85.1991 259.765 85.1953C259.711 85.1989 259.657 85.2023 259.604 85.2065Z" fill="#F478D1"/>
<path d="M293.438 85.1537C293.375 85.1558 293.312 85.1588 293.25 85.1615C293.071 85.1693 292.894 85.1794 292.717 85.1918C292.663 85.1956 292.609 85.1988 292.555 85.203C292.096 85.2391 291.642 85.2911 291.192 85.3582C291.144 85.3653 291.096 85.373 291.047 85.3805C290.86 85.4098 290.673 85.442 290.487 85.4766C290.446 85.4844 290.405 85.4913 290.364 85.4994C290.144 85.5418 289.926 85.5874 289.709 85.6372C289.665 85.6471 289.623 85.6583 289.58 85.6686C289.419 85.7066 289.26 85.7463 289.101 85.7883C289.005 85.8136 288.91 85.8395 288.815 85.8663C288.724 85.8918 288.633 85.9183 288.543 85.9451C287.565 86.2355 286.62 86.6 285.717 87.0362C289.82 96.857 293.34 108.559 295.599 122.395C296.634 122.32 297.644 122.166 298.625 121.938C298.654 121.932 298.682 121.925 298.711 121.918C298.819 121.892 298.926 121.866 299.033 121.839C299.108 121.82 299.182 121.8 299.256 121.78C299.32 121.763 299.384 121.746 299.447 121.728C302.034 121.009 304.392 119.773 306.408 118.143C306.413 118.139 306.419 118.135 306.424 118.131C306.449 118.11 306.474 118.09 306.499 118.07C303.496 105.607 299.424 94.6212 294.304 85.1427C294.244 85.1423 294.184 85.1406 294.123 85.1406C293.894 85.1406 293.666 85.1459 293.438 85.1537Z" fill="#E56AC8"/>
<path d="M284.516 162.766C274.081 162.96 265.689 171.228 265.689 181.408C265.689 188.93 270.285 195.408 276.878 198.363C280.736 187.841 283.532 175.975 284.516 162.766Z" fill="#FF92DB"/>
<path d="M253.531 162.812C253.635 162.821 253.738 162.829 253.841 162.839C253.738 162.83 253.635 162.821 253.531 162.812Z" fill="#FF92DB"/>
<path d="M253.994 162.859C254.103 162.871 254.213 162.883 254.322 162.896C254.213 162.883 254.104 162.871 253.994 162.859Z" fill="#FF92DB"/>
<path d="M251.951 162.75C252.109 162.75 252.266 162.752 252.423 162.756C252.266 162.752 252.109 162.75 251.951 162.75Z" fill="#FF92DB"/>
<path d="M256.745 199.482C256.746 199.48 256.747 199.478 256.747 199.477C256.491 199.54 256.233 199.598 255.973 199.652C256.232 199.599 256.49 199.544 256.745 199.482Z" fill="#FF92DB"/>
<path d="M252.668 200.055C252.621 200.057 252.573 200.059 252.525 200.06C252.573 200.058 252.621 200.056 252.668 200.055Z" fill="#FF92DB"/>
<path d="M264.4 167.201C264.4 167.2 264.4 167.198 264.401 167.197C264.4 167.197 264.399 167.196 264.399 167.196C261.756 165.007 258.493 163.506 254.902 162.969C258.493 163.507 261.755 165.012 264.4 167.201Z" fill="#FF92DB"/>
<path d="M255.662 199.719C255.616 199.728 255.57 199.736 255.523 199.745C255.57 199.736 255.616 199.727 255.662 199.719Z" fill="#FF92DB"/>
<path d="M253.24 200.023C253.201 200.026 253.161 200.028 253.121 200.031C253.161 200.028 253.201 200.026 253.24 200.023Z" fill="#FF92DB"/>
<path d="M246.573 246.442C243.053 241.86 237.444 238.875 231.111 238.875C220.507 238.875 211.9 247.233 211.9 257.532C211.9 257.656 211.903 257.779 211.905 257.903C218.033 259.578 224.065 260.133 229.687 259.43C229.752 259.422 229.818 259.418 229.883 259.418C229.949 259.418 230.014 259.422 230.079 259.43C230.627 259.499 231.179 259.554 231.734 259.599C234.489 257.575 240.049 253.195 246.573 246.442Z" fill="#FF92DB"/>
<path d="M246.575 246.44C246.574 246.439 246.574 246.438 246.573 246.438C240.05 253.19 234.49 257.57 231.734 259.594C237.638 260.069 243.948 259.21 250.316 257.168C250.304 256.588 250.266 256.014 250.202 255.448C249.819 252.101 248.527 249.018 246.575 246.44Z" fill="#F478D1"/>
<path d="M292.69 76.5617C285.518 65.5372 276.704 56.8099 266.492 50.6223C258.988 46.0751 250.887 42.968 242.415 41.3871C235.941 40.1788 231.281 40.272 229.883 40.3393C228.485 40.272 223.825 40.1788 217.351 41.3871C208.879 42.968 200.778 46.0752 193.274 50.6223C183.063 56.8099 174.248 65.5372 167.076 76.5617C158.264 90.107 151.895 107.217 148.144 127.416C143.67 151.51 144.334 173.967 150.118 194.164C155.082 211.499 163.918 227.008 175.672 239.015C183.806 247.324 193.269 253.874 203.037 257.957C212.377 261.861 221.655 263.401 229.883 262.416C231.499 262.61 233.154 262.706 234.843 262.706C241.757 262.706 249.224 261.095 256.73 257.957C266.498 253.874 275.96 247.324 284.094 239.015C295.848 227.009 304.685 211.499 309.649 194.164C315.432 173.967 316.096 151.51 311.623 127.416C307.872 107.217 301.502 90.107 292.69 76.5617ZM281.866 236.959C272.355 246.675 261.249 253.668 250.315 257.175C243.947 259.216 237.637 260.075 231.734 259.6C231.178 259.556 230.627 259.5 230.079 259.432C230.014 259.424 229.949 259.42 229.883 259.42C229.818 259.42 229.752 259.424 229.687 259.432C224.065 260.134 218.033 259.579 211.905 257.904C208.115 256.868 204.288 255.402 200.499 253.541C192.576 249.648 184.816 244.024 177.9 236.959C163.154 221.896 140.073 187.703 151.169 127.946C157.873 91.8396 172.587 66.6763 194.901 53.1551C197.485 51.5897 200.143 50.2056 202.863 49.0008C207.704 46.8563 212.745 45.2864 217.931 44.3187C218.72 44.1713 219.481 44.0445 220.208 43.9351C225.255 43.1773 228.752 43.2697 229.801 43.3243C229.856 43.327 229.911 43.327 229.965 43.3243C231.005 43.2702 234.447 43.1794 239.417 43.9144C240.052 44.0083 240.711 44.1156 241.394 44.2381C241.54 44.2645 241.687 44.2909 241.836 44.3186C249.562 45.7604 256.969 48.5357 263.87 52.5667C264.203 52.7609 264.535 52.9548 264.865 53.1548C276.918 60.458 286.752 71.1595 294.305 85.1456C299.424 94.624 303.496 105.61 306.499 118.073C307.269 121.267 307.969 124.558 308.598 127.946C319.693 187.703 296.612 221.896 281.866 236.959Z" fill="#560738"/>
<path d="M214.181 209.355C217.088 220.438 222.251 233.649 230.342 233.649C238.432 233.649 243.595 220.438 246.502 209.355C250.451 194.297 252.626 174.301 252.626 153.051C252.626 131.801 250.451 111.804 246.502 96.7466C243.595 85.6641 238.432 72.4531 230.342 72.4531C222.251 72.4531 217.088 85.6641 214.181 96.7466C210.232 111.804 208.057 131.801 208.057 153.051C208.057 158.384 208.194 163.639 208.461 168.756C209.176 182.416 210.823 195.095 213.28 205.691C213.569 206.941 213.869 208.165 214.181 209.355ZM217.16 97.4833C220.78 83.6794 225.708 75.4381 230.342 75.4381C234.975 75.4381 239.903 83.6794 243.523 97.4833C247.411 112.307 249.553 132.042 249.553 153.051C249.553 174.06 247.411 193.794 243.523 208.618C239.903 222.422 234.975 230.664 230.342 230.664C225.708 230.664 220.78 222.422 217.16 208.618C213.272 193.794 211.13 174.06 211.13 153.051C211.13 132.042 213.272 112.307 217.16 97.4833Z" fill="#560738"/>
<path d="M285.476 200.055C285.523 200.054 285.571 200.051 285.618 200.05C285.77 200.044 285.922 200.037 286.072 200.028C286.112 200.026 286.152 200.024 286.192 200.021C286.374 200.009 286.555 199.995 286.735 199.979C286.739 199.978 286.742 199.978 286.746 199.978C287.33 199.924 287.907 199.844 288.475 199.74C288.521 199.731 288.567 199.723 288.613 199.714C288.717 199.694 288.821 199.674 288.924 199.653C289.184 199.599 289.443 199.541 289.699 199.477C293.324 189.852 296.074 179.094 297.35 167.202C294.705 165.013 291.442 163.508 287.852 162.969C287.824 162.965 287.795 162.961 287.766 162.957C287.645 162.939 287.523 162.923 287.4 162.907C287.357 162.902 287.315 162.897 287.272 162.892C287.163 162.879 287.054 162.866 286.944 162.855C286.893 162.85 286.843 162.845 286.792 162.84C286.689 162.83 286.585 162.822 286.482 162.813C286.427 162.809 286.372 162.805 286.318 162.801C286.216 162.793 286.113 162.788 286.011 162.782C285.956 162.779 285.901 162.775 285.845 162.773C285.738 162.768 285.629 162.764 285.521 162.761C285.472 162.759 285.423 162.757 285.373 162.756C285.216 162.752 285.059 162.75 284.901 162.75C284.779 162.75 284.642 162.75 284.519 162.765C284.518 162.765 284.518 162.765 284.517 162.765C283.533 175.974 280.736 187.84 276.879 198.362C276.879 198.362 276.88 198.363 276.88 198.363C279.324 199.452 282.044 200.064 284.902 200.064C285.094 200.064 285.285 200.06 285.476 200.055Z" fill="#F478D1"/>
<path d="M270.91 178.391C270.928 178.494 270.944 178.598 270.96 178.702C270.944 178.598 270.927 178.494 270.91 178.391Z" fill="#F478D1"/>
<path d="M269.396 173.594C269.432 173.669 269.468 173.745 269.503 173.821C269.468 173.745 269.433 173.669 269.396 173.594Z" fill="#F478D1"/>
<path d="M268.826 172.492C268.832 172.502 268.838 172.512 268.843 172.522C268.838 172.512 268.832 172.502 268.826 172.492Z" fill="#F478D1"/>
<path d="M269.191 173.18C269.226 173.247 269.26 173.315 269.294 173.383C269.26 173.315 269.226 173.247 269.191 173.18Z" fill="#F478D1"/>
<path d="M268.986 172.781C269.016 172.836 269.045 172.89 269.074 172.945C269.045 172.89 269.016 172.836 268.986 172.781Z" fill="#F478D1"/>
<path d="M271.154 180.898C271.159 181.067 271.161 181.237 271.161 181.407C271.162 181.237 271.159 181.067 271.154 180.898Z" fill="#F478D1"/>
<path d="M270.986 178.891C271.001 178.992 271.014 179.095 271.026 179.197C271.014 179.095 271.001 178.992 270.986 178.891Z" fill="#F478D1"/>
<path d="M270.57 176.797C270.609 176.945 270.646 177.094 270.681 177.244C270.646 177.094 270.609 176.945 270.57 176.797Z" fill="#F478D1"/>
<path d="M271.155 181.859C271.154 181.908 271.152 181.957 271.15 182.006C271.152 181.957 271.154 181.908 271.155 181.859Z" fill="#F478D1"/>
<path d="M270.426 176.281C270.473 176.443 270.518 176.605 270.562 176.769C270.519 176.605 270.473 176.443 270.426 176.281Z" fill="#F478D1"/>
<path d="M267.338 170.242C267.343 170.248 267.347 170.255 267.352 170.261C267.347 170.255 267.342 170.248 267.338 170.242Z" fill="#F478D1"/>
<path d="M271.098 179.891C271.106 179.995 271.113 180.1 271.12 180.205C271.113 180.1 271.106 179.995 271.098 179.891Z" fill="#F478D1"/>
<path d="M270.127 175.359C270.166 175.47 270.203 175.581 270.24 175.693C270.203 175.581 270.166 175.47 270.127 175.359Z" fill="#F478D1"/>
<path d="M271.049 179.391C271.06 179.492 271.07 179.595 271.079 179.697C271.07 179.595 271.06 179.493 271.049 179.391Z" fill="#F478D1"/>
<path d="M263.09 196.609C263.066 196.626 263.042 196.642 263.018 196.658C263.042 196.642 263.066 196.626 263.09 196.609Z" fill="#F478D1"/>
<path d="M264.283 195.711C264.224 195.759 264.165 195.807 264.105 195.855C264.165 195.807 264.224 195.759 264.283 195.711Z" fill="#F478D1"/>
<path d="M266.302 193.805C266.221 193.893 266.139 193.981 266.057 194.068C266.139 193.981 266.221 193.893 266.302 193.805Z" fill="#F478D1"/>
<path d="M262.325 197.109C262.313 197.117 262.3 197.125 262.287 197.133C262.3 197.125 262.313 197.117 262.325 197.109Z" fill="#F478D1"/>
<path d="M264.992 195.106C265.353 194.781 265.701 194.444 266.036 194.094C265.701 194.444 265.353 194.781 264.992 195.106Z" fill="#F478D1"/>
<path d="M269.146 189.727C268.388 191.2 267.435 192.563 266.32 193.783C267.435 192.563 268.388 191.2 269.146 189.727Z" fill="#F478D1"/>
<path d="M262.718 196.859C262.696 196.874 262.673 196.889 262.65 196.904C262.673 196.889 262.696 196.874 262.718 196.859Z" fill="#F478D1"/>
<path d="M263.444 196.359C263.436 196.366 263.428 196.371 263.42 196.378C263.428 196.371 263.436 196.365 263.444 196.359Z" fill="#F478D1"/>
<path d="M270.607 185.867C270.586 185.953 270.564 186.04 270.541 186.126C270.564 186.04 270.586 185.953 270.607 185.867Z" fill="#F478D1"/>
<path d="M269.922 188.008C269.695 188.591 269.439 189.16 269.154 189.714C269.438 189.16 269.695 188.591 269.922 188.008Z" fill="#F478D1"/>
<path d="M271.021 183.656C271.016 183.706 271.01 183.756 271.004 183.805C271.01 183.756 271.015 183.706 271.021 183.656Z" fill="#F478D1"/>
<path d="M270.945 184.219C270.935 184.282 270.924 184.346 270.914 184.409C270.924 184.346 270.935 184.283 270.945 184.219Z" fill="#F478D1"/>
<path d="M270.704 185.469C270.686 185.548 270.668 185.627 270.648 185.706C270.668 185.627 270.686 185.548 270.704 185.469Z" fill="#F478D1"/>
<path d="M270.873 184.641C270.86 184.713 270.846 184.784 270.832 184.856C270.846 184.784 270.86 184.713 270.873 184.641Z" fill="#F478D1"/>
<path d="M271.074 183.195C271.068 183.254 271.063 183.312 271.057 183.371C271.063 183.312 271.068 183.254 271.074 183.195Z" fill="#F478D1"/>
<path d="M159.645 123.199C159.645 129.344 162.714 134.803 167.441 138.207C167.445 138.209 167.448 138.212 167.452 138.215C169.511 125.916 172.954 114.692 177.134 104.617C177.133 104.617 177.131 104.617 177.13 104.618C167.327 105.47 159.645 113.469 159.645 123.199Z" fill="#FCACE5"/>
<path d="M289.699 199.482C289.699 199.484 289.698 199.485 289.697 199.487H289.698C291.687 198.989 293.552 198.187 295.238 197.138C295.251 197.13 295.264 197.122 295.277 197.114C295.386 197.046 295.494 196.977 295.602 196.906C295.624 196.892 295.647 196.877 295.67 196.862C295.77 196.796 295.87 196.729 295.968 196.661C295.992 196.645 296.016 196.628 296.04 196.612C296.151 196.535 296.262 196.457 296.372 196.377C296.38 196.371 296.389 196.365 296.397 196.359C296.509 196.277 296.62 196.194 296.731 196.11C296.781 196.072 296.83 196.033 296.88 195.995C296.939 195.949 296.998 195.903 297.056 195.857C297.116 195.809 297.175 195.761 297.234 195.713C297.281 195.675 297.327 195.637 297.373 195.599C297.437 195.546 297.502 195.491 297.566 195.437C297.602 195.406 297.639 195.374 297.675 195.343C297.746 195.282 297.817 195.22 297.887 195.157C297.906 195.14 297.924 195.123 297.943 195.106C298.304 194.782 298.652 194.444 298.987 194.094C298.994 194.087 299.001 194.079 299.008 194.072C299.091 193.985 299.173 193.897 299.254 193.809C299.26 193.802 299.266 193.796 299.272 193.789C300.387 192.569 301.34 191.206 302.098 189.733C302.101 189.728 302.103 189.723 302.105 189.719C302.39 189.165 302.646 188.596 302.873 188.013C302.881 187.993 302.889 187.972 302.897 187.952C302.935 187.853 302.972 187.754 303.009 187.655C303.02 187.624 303.031 187.594 303.042 187.563C303.077 187.467 303.111 187.371 303.144 187.274C303.155 187.242 303.165 187.209 303.176 187.177C303.209 187.079 303.242 186.981 303.273 186.882C303.278 186.865 303.283 186.848 303.288 186.831C303.359 186.605 303.426 186.376 303.488 186.146C303.49 186.14 303.492 186.134 303.493 186.127C303.516 186.042 303.538 185.955 303.56 185.869C303.573 185.816 303.587 185.764 303.6 185.711C303.619 185.632 303.637 185.553 303.655 185.473C303.669 185.412 303.683 185.35 303.697 185.289C303.713 185.214 303.729 185.138 303.744 185.063C303.758 184.995 303.772 184.927 303.785 184.859C303.799 184.787 303.812 184.716 303.825 184.644C303.839 184.567 303.852 184.489 303.865 184.411C303.876 184.348 303.887 184.284 303.897 184.221C303.918 184.084 303.938 183.947 303.956 183.809C303.963 183.76 303.968 183.71 303.974 183.66C303.986 183.564 303.998 183.468 304.008 183.372C304.014 183.313 304.02 183.255 304.026 183.197C304.034 183.107 304.043 183.018 304.05 182.929C304.055 182.869 304.06 182.81 304.064 182.75C304.071 182.659 304.077 182.568 304.082 182.477C304.085 182.42 304.089 182.363 304.091 182.305C304.096 182.206 304.1 182.106 304.103 182.006C304.105 181.957 304.107 181.908 304.108 181.859C304.112 181.711 304.114 181.562 304.114 181.412C304.114 181.242 304.111 181.073 304.106 180.904C304.105 180.85 304.102 180.797 304.1 180.743C304.096 180.628 304.092 180.513 304.085 180.398C304.082 180.335 304.077 180.272 304.073 180.21C304.066 180.104 304.059 179.999 304.05 179.895C304.045 179.829 304.038 179.764 304.032 179.699C304.022 179.597 304.012 179.494 304.001 179.393C303.994 179.328 303.986 179.263 303.978 179.199C303.966 179.096 303.953 178.994 303.938 178.892C303.93 178.829 303.921 178.767 303.911 178.704C303.896 178.6 303.879 178.496 303.861 178.392C303.851 178.333 303.842 178.274 303.831 178.215C303.812 178.106 303.791 177.998 303.77 177.89C303.759 177.836 303.749 177.783 303.738 177.73C303.714 177.611 303.687 177.493 303.661 177.375C303.651 177.333 303.642 177.291 303.632 177.25C303.597 177.1 303.56 176.951 303.521 176.803C303.519 176.794 303.517 176.784 303.514 176.774C303.471 176.611 303.426 176.449 303.378 176.287C303.377 176.282 303.375 176.276 303.373 176.271C303.329 176.121 303.283 175.971 303.235 175.823C303.221 175.78 303.207 175.739 303.193 175.697C303.156 175.586 303.118 175.474 303.079 175.364C303.06 175.31 303.04 175.256 303.021 175.203C302.985 175.105 302.95 175.008 302.912 174.911C302.89 174.851 302.866 174.791 302.842 174.732C302.807 174.643 302.771 174.554 302.734 174.465C302.708 174.401 302.681 174.337 302.654 174.274C302.619 174.191 302.583 174.108 302.546 174.026C302.516 173.959 302.486 173.892 302.455 173.824C302.42 173.748 302.384 173.673 302.348 173.597C302.314 173.526 302.281 173.454 302.246 173.383C302.212 173.315 302.177 173.248 302.143 173.18C302.104 173.103 302.065 173.026 302.025 172.95C301.997 172.895 301.967 172.841 301.938 172.787C301.89 172.699 301.843 172.611 301.795 172.524C301.789 172.514 301.783 172.504 301.777 172.493C301.491 171.982 301.179 171.486 300.846 171.006C300.839 170.996 300.833 170.986 300.826 170.976C300.746 170.861 300.664 170.748 300.582 170.634C300.574 170.624 300.567 170.614 300.56 170.604C300.475 170.489 300.39 170.375 300.303 170.262C300.298 170.256 300.293 170.25 300.289 170.243C299.428 169.126 298.443 168.105 297.351 167.203C297.351 167.204 297.351 167.206 297.351 167.207C296.075 179.099 293.325 189.857 289.699 199.482Z" fill="#E56AC8"/>
</svg>
