<svg width="289" height="289" viewBox="0 0 289 289" fill="none" xmlns="http://www.w3.org/2000/svg">
<path d="M257.776 95.399C251.462 92.9143 244.329 96.019 241.844 102.333C239.507 108.272 242.116 114.932 247.687 117.771C240.969 124.897 230.909 135.992 223.199 146.334C219.74 126.239 214.083 103.29 210.909 90.9983C214.252 89.8918 217.099 87.366 218.489 83.8326C220.974 77.5182 217.869 70.3851 211.555 67.9005C205.241 65.4158 198.107 68.5204 195.623 74.8348C193.173 81.0618 196.165 88.076 202.304 90.6521C196.82 98.6292 188.816 111.498 182.852 126.261C175.249 99.1897 159.336 72.4122 150.397 58.6794C151.983 57.3902 153.273 55.6934 154.075 53.656C156.56 47.3415 153.455 40.2085 147.141 37.7238C140.826 35.2391 133.693 38.3437 131.209 44.6582C128.865 50.6151 131.498 57.2961 137.105 60.1201C128.652 74.2808 114.551 100.301 107.67 126.552C101.667 111.6 93.5502 98.5688 88.0285 90.548C90.8641 89.2818 93.2268 86.951 94.4539 83.8326C96.9384 77.5182 93.8339 70.3851 87.5195 67.9005C81.2051 65.4158 74.072 68.5204 71.5873 74.8348C69.1027 81.1492 72.2073 88.2823 78.5217 90.767C78.8363 90.8908 79.1541 90.9902 79.4719 91.0865C76.2939 103.4 70.6551 126.288 67.2049 146.334C59.2907 135.719 48.8954 124.303 42.1859 117.208C44.3207 115.862 46.0679 113.86 47.0629 111.331C49.5476 105.017 46.443 97.8836 40.1286 95.3989C33.8141 92.9142 26.6811 96.0188 24.1964 102.333C21.7118 108.648 24.8163 115.781 31.1307 118.265C31.9286 118.579 32.7396 118.803 33.5524 118.943C31.885 128.802 30.242 145.985 34.0636 165.16C37.6909 183.36 44.8738 194.356 48.2091 199.832C44.9408 199.959 42.3049 202.665 42.3049 205.963C42.3049 209.342 45.0695 212.106 48.4481 212.106H49.3258V231.267H241.815V212.106H242.693C246.072 212.106 248.836 209.342 248.836 205.963C248.836 203.528 247.398 201.419 245.331 200.427C248.634 194.503 254.061 183.564 256.34 165.16C258.93 144.244 257.73 127.926 256.48 118.68C260.1 117.698 263.231 115.09 264.71 111.331C267.195 105.017 264.09 97.8837 257.776 95.399Z" fill="#F6BF5A"/>
<path d="M87.9258 218.164C87.9401 218.174 87.9489 218.179 87.9617 218.188C87.9688 218.19 87.976 218.192 87.9831 218.195C87.9645 218.184 87.9432 218.176 87.9258 218.164Z" fill="#F6BF5A"/>
<path d="M72.25 222.092C72.2529 222.079 72.2563 222.069 72.258 222.055C72.2556 222.068 72.2529 222.08 72.25 222.092Z" fill="#F6BF5A"/>
<path d="M70.4668 218.797C70.4754 218.801 70.4841 218.805 70.4925 218.809C70.5102 218.818 70.5266 218.829 70.5443 218.839C70.5828 218.855 70.5323 218.826 70.4668 218.797Z" fill="#F6BF5A"/>
<path d="M70.2812 218.711C70.3288 218.735 70.3651 218.753 70.3989 218.77C70.4211 218.778 70.444 218.788 70.4665 218.798C70.405 218.768 70.3419 218.742 70.2812 218.711Z" fill="#F6BF5A"/>
<path d="M87.9824 218.195C88.03 218.223 88.0778 218.25 88.1292 218.273C88.0995 218.251 88.0477 218.218 87.9935 218.199C87.9896 218.198 87.986 218.197 87.9824 218.195Z" fill="#F6BF5A"/>
<path d="M89.4043 219.305C89.4548 219.366 89.4814 219.393 89.4043 219.305V219.305Z" fill="#F6BF5A"/>
<path d="M90.2422 221.344C90.2461 221.374 90.2505 221.402 90.2554 221.421C90.2491 221.396 90.2467 221.37 90.2422 221.344Z" fill="#F6BF5A"/>
<path d="M110.786 221.898C110.777 221.903 110.769 221.913 110.761 221.923C110.76 221.926 110.759 221.93 110.758 221.933C110.767 221.919 110.776 221.904 110.786 221.898Z" fill="#F6BF5A"/>
<path d="M201.674 218.832C201.68 218.831 201.682 218.831 201.688 218.83C201.693 218.83 201.697 218.83 201.701 218.83C201.726 218.825 201.751 218.82 201.773 218.812C201.743 218.822 201.707 218.825 201.674 218.832Z" fill="#F6BF5A"/>
<path d="M202.488 218.833C202.29 218.795 202.351 218.819 202.452 218.832C202.466 218.834 202.481 218.834 202.495 218.834C202.493 218.834 202.49 218.833 202.488 218.833Z" fill="#F6BF5A"/>
<path d="M204.884 221.254C204.88 221.218 204.875 221.182 204.878 221.148C204.876 221.175 204.877 221.209 204.881 221.241C204.881 221.244 204.882 221.247 204.883 221.25C204.883 221.252 204.883 221.252 204.884 221.254Z" fill="#F6BF5A"/>
<path d="M204.883 221.258C204.884 221.266 204.883 221.273 204.884 221.281C204.898 221.38 204.92 221.447 204.883 221.258Z" fill="#F6BF5A"/>
<path d="M110.749 221.955C110.752 221.947 110.754 221.938 110.757 221.93C110.739 221.957 110.721 221.993 110.705 222.034C110.686 222.096 110.692 222.122 110.749 221.955Z" fill="#F6BF5A"/>
<path d="M202.574 218.84C202.55 218.842 202.522 218.838 202.496 218.836C202.5 218.837 202.504 218.838 202.509 218.839C202.531 218.841 202.554 218.841 202.574 218.84Z" fill="#F6BF5A"/>
<path d="M132.788 221.875C132.787 221.882 132.786 221.889 132.785 221.896C132.785 221.897 132.786 221.897 132.786 221.899C132.787 221.891 132.786 221.882 132.788 221.875Z" fill="#F6BF5A"/>
<path d="M132.791 221.923C132.79 221.915 132.788 221.907 132.786 221.898C132.783 221.915 132.783 221.933 132.781 221.95C132.782 222.066 132.833 222.155 132.791 221.923Z" fill="#F6BF5A"/>
<path d="M201.614 218.84C201.635 218.836 201.653 218.832 201.674 218.828C201.52 218.841 201.542 218.847 201.614 218.84Z" fill="#F6BF5A"/>
<path d="M132.823 222.871C132.823 222.858 132.823 222.846 132.822 222.836C132.823 222.846 132.823 222.858 132.823 222.871Z" fill="#F6BF5A"/>
<path d="M241.816 231.266H49.3262V239.749H241.816V231.266Z" fill="#E49E3E"/>
<path d="M242.693 239.75H241.815H49.3255H48.4479C45.0691 239.75 42.3047 242.514 42.3047 245.893C42.3047 249.272 45.0693 252.037 48.4479 252.037H242.693C246.071 252.037 248.836 249.272 248.836 245.893C248.836 242.514 246.071 239.75 242.693 239.75Z" fill="#F6BF5A"/>
<path d="M238.013 210.716C227.284 210.83 216.555 210.851 205.826 210.841C193.776 210.83 181.727 210.776 169.677 210.718C156.991 210.657 144.305 210.589 131.618 210.545C118.968 210.502 106.317 210.481 93.6669 210.521C81.8793 210.559 70.0915 210.646 58.3054 210.844C56.9194 210.868 55.5336 210.893 54.1477 210.919C51.9855 210.961 51.9785 214.325 54.1477 214.283C55.7329 214.253 57.3183 214.23 58.9036 214.204C59.0108 218.72 59.1181 223.236 59.2253 227.752C59.2766 229.913 62.641 229.921 62.5895 227.752C62.4817 223.217 62.374 218.682 62.2663 214.147C67.3348 214.072 72.4036 214.019 77.4727 213.978C77.3917 217.689 77.3105 221.4 77.2293 225.111C77.2165 225.7 77.2036 226.289 77.1908 226.878C77.1434 229.044 80.5076 229.043 80.555 226.878C80.6445 222.786 80.734 218.695 80.8233 214.603C80.8281 214.385 80.8328 214.168 80.8376 213.95C83.6247 213.93 86.4117 213.915 89.1989 213.902C91.6313 213.892 94.0636 213.893 96.496 213.887C96.4121 217.726 96.3281 221.565 96.2444 225.404C96.2314 225.993 96.2186 226.582 96.2057 227.171C96.1583 229.336 99.5225 229.336 99.5699 227.171C99.6594 223.079 99.7489 218.987 99.8382 214.895C99.8456 214.557 99.8529 214.219 99.8604 213.88C105.834 213.87 111.807 213.869 117.781 213.88C117.733 218.115 117.685 222.351 117.638 226.586C117.613 228.752 120.978 228.753 121.002 226.586C121.05 222.353 121.097 218.119 121.145 213.885C123.035 213.889 124.925 213.889 126.815 213.894C131.025 213.906 135.235 213.925 139.445 213.942C139.545 218.547 139.645 223.152 139.745 227.757C139.792 229.918 143.156 229.926 143.109 227.757C143.009 223.156 142.909 218.556 142.809 213.955C149.002 213.982 155.194 214.011 161.387 214.042C161.333 218.808 161.279 223.575 161.226 228.342C161.201 230.507 164.565 230.509 164.59 228.342C164.643 223.58 164.697 218.819 164.751 214.058C164.821 214.058 164.891 214.059 164.961 214.059C172.715 214.097 180.469 214.131 188.224 214.159C188.041 218.787 187.858 223.416 187.676 228.044C187.59 230.209 190.955 230.206 191.04 228.044C191.222 223.419 191.405 218.794 191.587 214.169C194.928 214.18 198.269 214.194 201.609 214.199C204.713 214.205 207.817 214.2 210.921 214.2C210.895 214.322 210.88 214.452 210.88 214.591C210.88 219.077 210.88 223.563 210.88 228.048C210.88 230.213 214.244 230.217 214.244 228.048C214.244 223.563 214.244 219.077 214.244 214.591C214.244 214.452 214.229 214.322 214.203 214.2C219.359 214.195 224.514 214.173 229.67 214.14C229.762 218.775 229.854 223.411 229.947 228.047C229.99 230.209 233.354 230.216 233.311 228.047C233.218 223.405 233.126 218.764 233.034 214.122C233.452 214.119 233.871 214.119 234.29 214.116C235.531 214.105 236.772 214.093 238.013 214.08C240.176 214.057 240.182 210.692 238.013 210.716Z" fill="#E49E3E"/>
<path d="M222.215 220.227C220.05 220.227 220.046 223.591 222.215 223.591C224.379 223.591 224.383 220.227 222.215 220.227Z" fill="#E49E3E"/>
<path d="M202.031 220.227C199.866 220.227 199.863 223.591 202.031 223.591C204.196 223.591 204.199 220.227 202.031 220.227Z" fill="#E49E3E"/>
<path d="M176.58 220.812C174.415 220.812 174.412 224.177 176.58 224.177C178.745 224.177 178.748 220.812 176.58 220.812Z" fill="#E49E3E"/>
<path d="M152.006 220.516C149.841 220.516 149.837 223.88 152.006 223.88C154.17 223.88 154.174 220.516 152.006 220.516Z" fill="#E49E3E"/>
<path d="M129.48 219.93C127.316 219.93 127.312 223.294 129.48 223.294C131.645 223.294 131.649 219.93 129.48 219.93Z" fill="#E49E3E"/>
<path d="M107.541 219.352C105.376 219.352 105.373 222.716 107.541 222.716C109.706 222.716 109.709 219.352 107.541 219.352Z" fill="#E49E3E"/>
<path d="M87.9413 219.93C85.7765 219.93 85.773 223.294 87.9413 223.294C90.106 223.294 90.1096 219.93 87.9413 219.93Z" fill="#E49E3E"/>
<path d="M70.1147 219.259C69.9623 219.095 69.7818 218.979 69.5733 218.912C69.3728 218.806 69.1568 218.758 68.9253 218.767C68.7763 218.787 68.6272 218.807 68.478 218.827C68.1931 218.907 67.9458 219.051 67.7358 219.259C67.6481 219.373 67.5605 219.486 67.4728 219.6C67.3207 219.862 67.2441 220.145 67.2432 220.449C67.2432 220.546 67.2432 220.644 67.2432 220.741C67.2345 220.973 67.2827 221.189 67.3881 221.389C67.4559 221.598 67.5718 221.778 67.7358 221.931C67.8882 222.095 68.0687 222.211 68.2772 222.279C68.4776 222.384 68.6936 222.432 68.9253 222.424C69.0744 222.403 69.2234 222.383 69.3724 222.363C69.6573 222.284 69.9048 222.139 70.1147 221.931C70.2022 221.817 70.2901 221.704 70.3777 221.59C70.5298 221.328 70.6063 221.045 70.6073 220.741C70.6073 220.644 70.6073 220.546 70.6073 220.449C70.616 220.217 70.5678 220.001 70.4624 219.801C70.3945 219.592 70.2785 219.412 70.1147 219.259Z" fill="#E49E3E"/>
<path d="M240.939 201.796C230.687 201.966 220.433 202.003 210.18 201.994C198.541 201.985 186.902 201.911 175.264 201.821C163.08 201.727 150.897 201.613 138.713 201.514C127.009 201.419 115.305 201.337 103.601 201.313C93.0892 201.29 82.5766 201.309 72.0656 201.452C70.9218 201.468 69.778 201.485 68.6342 201.504C66.4716 201.54 66.4649 204.904 68.6342 204.868C78.8861 204.699 89.1399 204.662 99.393 204.671C111.032 204.68 122.671 204.753 134.309 204.843C146.493 204.938 158.676 205.052 170.86 205.151C182.564 205.245 194.268 205.328 205.972 205.352C216.483 205.375 226.996 205.356 237.507 205.213C238.651 205.197 239.795 205.18 240.938 205.161C243.101 205.125 243.108 201.761 240.939 201.796Z" fill="#F9D993"/>
<path d="M70.6815 245.24C80.713 245.24 90.7444 245.274 100.776 245.312C112.338 245.357 123.9 245.412 135.463 245.459C147.679 245.51 159.895 245.554 172.111 245.576C183.931 245.597 195.752 245.599 207.573 245.556C218.123 245.518 228.674 245.448 239.223 245.294C240.38 245.277 241.537 245.259 242.693 245.24C244.856 245.204 244.862 241.839 242.693 241.875C232.372 242.046 222.049 242.128 211.726 242.175C200.015 242.229 188.303 242.235 176.592 242.219C164.367 242.203 152.142 242.162 139.918 242.113C128.229 242.067 116.54 242.012 104.851 241.964C94.5748 241.923 84.298 241.885 74.0214 241.877C72.9081 241.876 71.7948 241.875 70.6814 241.875C68.5169 241.875 68.5132 245.24 70.6815 245.24Z" fill="#F9D993"/>
<path d="M223.465 215.062C222.382 214.956 221.307 215.223 220.334 215.686C219.537 216.065 219.267 217.268 219.731 217.987C220.257 218.805 221.176 218.995 222.027 218.592C222.107 218.568 222.185 218.538 222.266 218.515C222.392 218.478 222.522 218.456 222.651 218.431C222.895 218.412 223.14 218.411 223.384 218.429C223.528 218.455 223.673 218.476 223.815 218.516C223.922 218.547 224.026 218.584 224.131 218.619C224.332 218.716 224.517 218.834 224.704 218.954C224.708 218.958 224.708 218.959 224.712 218.962C224.787 219.027 224.859 219.096 224.928 219.166C224.991 219.23 225.049 219.298 225.11 219.365C225.113 219.37 225.113 219.371 225.117 219.376C225.241 219.558 225.342 219.75 225.443 219.945C225.481 220.049 225.515 220.155 225.545 220.263C225.584 220.401 225.605 220.543 225.631 220.684C225.648 220.924 225.648 221.164 225.629 221.404C225.572 221.692 225.495 221.973 225.38 222.246C225.224 222.618 225.356 223.211 225.55 223.542C225.754 223.891 226.154 224.224 226.555 224.315C226.986 224.413 227.469 224.392 227.851 224.145C228.245 223.892 228.445 223.568 228.624 223.14C229.318 221.49 229.073 219.452 228.179 217.926C227.175 216.213 225.406 215.251 223.465 215.062Z" fill="#F9D993"/>
<path d="M201.673 218.83C201.653 218.833 201.634 218.838 201.613 218.841C201.638 218.839 201.669 218.834 201.7 218.828C201.696 218.828 201.691 218.828 201.687 218.828C201.681 218.829 201.678 218.829 201.673 218.83Z" fill="#F9D993"/>
<path d="M204.883 221.251C204.882 221.248 204.881 221.245 204.881 221.242C204.882 221.255 204.883 221.266 204.885 221.278C204.884 221.27 204.885 221.263 204.884 221.255C204.883 221.253 204.883 221.253 204.883 221.251Z" fill="#F9D993"/>
<path d="M202.453 218.836C202.471 218.838 202.49 218.84 202.509 218.841C202.505 218.841 202.501 218.839 202.497 218.838C202.482 218.837 202.468 218.837 202.453 218.836Z" fill="#F9D993"/>
<path d="M205.459 216.443C203.568 215.156 200.979 215.163 199.003 216.237C198.229 216.658 197.918 217.791 198.4 218.539C198.906 219.324 199.873 219.592 200.701 219.142C200.777 219.101 200.854 219.063 200.931 219.024C201.109 218.97 201.282 218.907 201.465 218.866C201.511 218.856 201.562 218.845 201.614 218.837C201.542 218.845 201.52 218.839 201.673 218.826C201.707 218.82 201.742 218.817 201.772 218.807C201.75 218.814 201.726 218.82 201.701 218.824C201.887 218.81 202.075 218.806 202.262 218.814C202.321 218.817 202.387 218.825 202.453 218.832C202.352 218.819 202.291 218.795 202.489 218.832C202.491 218.833 202.494 218.834 202.496 218.834C202.522 218.836 202.55 218.84 202.574 218.838C202.554 218.84 202.531 218.839 202.509 218.837C202.69 218.872 202.869 218.917 203.045 218.973C203.107 218.993 203.169 219.017 203.23 219.039C203.244 219.046 203.251 219.05 203.27 219.059C203.441 219.145 203.6 219.245 203.761 219.347C203.766 219.35 203.766 219.35 203.77 219.353C203.811 219.387 203.852 219.421 203.891 219.457C204.034 219.586 204.163 219.728 204.29 219.872C204.327 219.925 204.364 219.978 204.399 220.032C204.505 220.197 204.592 220.37 204.682 220.543C204.703 220.6 204.725 220.657 204.743 220.714C204.799 220.886 204.845 221.061 204.88 221.238C204.877 221.205 204.876 221.172 204.878 221.145C204.875 221.178 204.88 221.215 204.883 221.251C204.921 221.44 204.898 221.373 204.885 221.274C204.892 221.331 204.901 221.39 204.904 221.444C204.914 221.644 204.908 221.844 204.893 222.044C204.825 222.923 205.715 223.765 206.575 223.726C207.544 223.683 208.184 222.986 208.257 222.044C208.428 219.834 207.266 217.672 205.459 216.443Z" fill="#F9D993"/>
<path d="M173.912 215.981C173.091 216.289 172.44 217.132 172.737 218.05C172.997 218.853 173.925 219.556 174.806 219.225C175.022 219.144 175.24 219.075 175.464 219.022C175.556 219.001 175.648 218.985 175.74 218.967C175.744 218.966 175.745 218.966 175.749 218.966C175.977 218.946 176.207 218.941 176.437 218.951C176.532 218.955 176.627 218.964 176.722 218.971C176.725 218.972 176.725 218.972 176.727 218.973C176.935 219.02 177.142 219.06 177.346 219.122C177.447 219.153 177.547 219.189 177.647 219.223C177.65 219.224 177.65 219.224 177.653 219.225C177.837 219.317 178.02 219.408 178.195 219.517C178.282 219.571 178.364 219.63 178.448 219.686C178.462 219.699 178.471 219.707 178.493 219.726C178.649 219.863 178.797 220.01 178.935 220.166C178.973 220.208 179.227 220.485 179.035 220.276C178.842 220.067 179.11 220.394 179.144 220.445C179.257 220.62 179.36 220.801 179.452 220.988C179.459 221.002 179.466 221.019 179.473 221.037C179.466 221.014 179.46 220.996 179.452 220.966C179.48 221.064 179.527 221.162 179.56 221.259C179.626 221.456 179.681 221.658 179.725 221.861C179.74 221.93 179.746 222.026 179.766 222.105L179.769 222.134C179.784 222.342 179.787 222.55 179.778 222.758C179.776 222.808 179.736 223.083 179.749 223.047C179.741 223.087 179.734 223.122 179.731 223.135C179.554 223.994 179.98 224.993 180.906 225.204C181.746 225.395 182.786 224.951 182.975 224.029C183.467 221.638 182.745 218.984 180.871 217.348C179.004 215.716 176.265 215.098 173.912 215.981Z" fill="#F9D993"/>
<path d="M179.473 221.031C179.519 221.151 179.555 221.308 179.473 221.031V221.031Z" fill="#F9D993"/>
<path d="M153.229 215.758C152.077 215.616 150.949 215.871 149.905 216.353C149.104 216.723 148.842 217.941 149.302 218.654C149.818 219.454 150.69 219.637 151.523 219.288C151.547 219.281 151.579 219.27 151.629 219.253C151.731 219.218 151.834 219.187 151.938 219.16C152.033 219.136 152.13 219.118 152.226 219.097C152.452 219.078 152.68 219.075 152.907 219.09C152.999 219.096 153.092 219.113 153.183 219.116C153.05 219.112 152.974 219.109 152.937 219.107C152.993 219.11 153.119 219.119 153.191 219.135C153.396 219.181 153.592 219.248 153.791 219.313C153.887 219.361 153.984 219.408 154.078 219.461C154.158 219.506 154.237 219.554 154.314 219.605L154.385 219.654C154.511 219.796 154.684 219.918 154.81 220.059L154.846 220.101C154.897 220.177 154.949 220.252 154.997 220.33C155.054 220.425 155.107 220.523 155.157 220.622C155.163 220.636 155.166 220.639 155.171 220.649C155.24 220.847 155.306 221.044 155.352 221.249C155.383 221.387 155.408 221.82 155.373 221.272C155.379 221.367 155.393 221.462 155.399 221.558C155.412 221.78 155.409 222.003 155.392 222.225C155.391 222.236 155.391 222.238 155.39 222.247C155.39 222.249 155.39 222.248 155.389 222.251C155.368 222.344 155.352 222.437 155.328 222.53C155.297 222.653 155.261 222.775 155.22 222.895L155.217 222.904C155.09 223.087 155.002 223.325 154.878 223.51C154.384 224.242 154.714 225.406 155.481 225.812C156.331 226.261 157.256 225.988 157.783 225.208C158.996 223.41 159.02 221.078 158.162 219.139C157.288 217.161 155.307 216.015 153.229 215.758Z" fill="#F9D993"/>
<path d="M132.785 221.891C132.783 221.909 132.781 221.927 132.781 221.945C132.783 221.928 132.783 221.91 132.786 221.894C132.786 221.893 132.786 221.892 132.785 221.891Z" fill="#F9D993"/>
<path d="M128.73 215.598C128.271 215.648 127.879 215.753 127.541 216.091C127.249 216.382 127.029 216.861 127.048 217.28C127.085 218.11 127.793 219.064 128.73 218.962C128.95 218.938 129.171 218.925 129.392 218.928C129.484 218.93 129.576 218.934 129.668 218.941C129.691 218.942 129.701 218.943 129.718 218.944C129.898 218.978 130.077 219.011 130.254 219.06C130.36 219.09 130.466 219.123 130.571 219.16C130.638 219.183 130.93 219.234 130.68 219.194C130.439 219.156 130.708 219.21 130.781 219.246C130.881 219.295 130.979 219.347 131.075 219.402C131.147 219.443 131.365 219.547 131.506 219.644C131.479 219.633 131.483 219.653 131.589 219.746C131.659 219.806 131.727 219.869 131.793 219.933C131.872 220.01 131.949 220.089 132.022 220.172L132.131 220.297C132.211 220.393 132.18 220.352 132.04 220.173C132.161 220.224 132.323 220.594 132.382 220.7C132.429 220.784 132.47 220.871 132.516 220.955C132.523 220.968 132.525 220.97 132.531 220.981C132.602 221.178 132.667 221.376 132.718 221.58C132.744 221.683 132.765 221.787 132.784 221.891C132.786 221.884 132.786 221.877 132.787 221.87C132.785 221.877 132.787 221.886 132.785 221.894C132.787 221.902 132.789 221.91 132.79 221.918C132.832 222.15 132.781 222.061 132.78 221.945C132.762 222.135 132.819 222.377 132.815 222.561C132.813 222.657 132.807 222.753 132.8 222.849C132.79 222.98 132.794 223.012 132.8 223.001C132.759 223.18 132.678 223.422 132.662 223.475C132.631 223.583 132.591 223.687 132.556 223.794C132.55 223.805 132.548 223.809 132.541 223.825C132.166 224.619 132.293 225.676 133.144 226.126C133.892 226.521 135.044 226.372 135.445 225.522C136.5 223.29 136.443 220.512 134.944 218.475C133.53 216.552 131.148 215.335 128.73 215.598ZM132.823 222.868C132.823 222.855 132.823 222.843 132.823 222.833C132.824 222.843 132.824 222.854 132.823 222.868Z" fill="#F9D993"/>
<path d="M107.928 215.077C107.054 215.161 106.202 215.791 106.246 216.76C106.283 217.599 106.99 218.531 107.928 218.442C108.133 218.422 108.338 218.414 108.545 218.423C108.62 218.427 108.905 218.489 108.628 218.421C108.332 218.348 108.698 218.436 108.76 218.449C108.944 218.488 109.126 218.539 109.304 218.602L109.345 218.617L109.516 218.701C109.68 218.789 109.832 218.89 109.988 218.991C110.062 219.06 110.139 219.125 110.212 219.196C110.299 219.281 110.407 219.459 110.513 219.544L110.531 219.572C110.587 219.659 110.639 219.747 110.688 219.838C110.731 219.92 110.765 220.144 110.74 219.932L110.785 220.062C110.843 220.239 110.882 220.417 110.92 220.599C110.923 220.683 110.931 220.768 110.933 220.853C110.936 220.982 110.874 221.256 110.904 221.396L110.903 221.399C110.882 221.502 110.857 221.604 110.829 221.706C110.809 221.778 110.785 221.85 110.761 221.922C110.769 221.911 110.778 221.902 110.786 221.897C110.777 221.903 110.767 221.918 110.758 221.932C110.755 221.94 110.753 221.948 110.75 221.957C110.693 222.124 110.687 222.098 110.707 222.036C110.685 222.092 110.665 222.15 110.649 222.18C110.599 222.273 110.546 222.363 110.49 222.452L110.393 222.593L110.304 222.693C109.713 223.344 109.613 224.437 110.304 225.072C110.949 225.664 112.051 225.767 112.683 225.072C114.377 223.208 114.77 220.489 113.64 218.232C112.622 216.199 110.187 214.862 107.928 215.077Z" fill="#F9D993"/>
<path d="M110.76 221.922C110.736 221.953 110.716 222 110.705 222.036C110.721 221.995 110.739 221.959 110.757 221.932C110.758 221.929 110.759 221.925 110.76 221.922Z" fill="#F9D993"/>
<path d="M88.6306 214.867C87.7892 214.61 86.7593 215.174 86.5614 216.042C86.3542 216.952 86.8353 217.836 87.7362 218.111C87.8121 218.135 87.8873 218.159 87.9619 218.185C87.9491 218.177 87.9402 218.172 87.9259 218.162C87.9434 218.173 87.9646 218.182 87.9833 218.192C87.9868 218.194 87.9905 218.195 87.9942 218.196C88.0484 218.215 88.1003 218.248 88.13 218.27C88.1964 218.301 88.2638 218.331 88.325 218.365C88.4683 218.447 88.6034 218.54 88.7394 218.633L88.854 218.731C88.9878 218.851 89.1157 218.977 89.2371 219.11L89.3629 219.253C89.5265 219.527 89.7219 219.778 89.8672 220.067C89.8938 220.119 89.9186 220.173 89.944 220.226C89.9959 220.374 90.0503 220.521 90.0939 220.673C90.1396 220.831 90.1788 220.992 90.2106 221.154C90.2182 221.193 90.225 221.233 90.2307 221.273C90.2311 221.278 90.2311 221.28 90.2315 221.285C90.2499 221.593 90.2415 221.891 90.2245 222.197C90.2115 222.263 90.1991 222.33 90.1837 222.396C90.1423 222.572 90.0892 222.744 90.029 222.915C89.7358 223.745 90.3611 224.792 91.2038 224.984C92.1452 225.198 92.9592 224.698 93.273 223.809C94.5476 220.197 92.228 215.968 88.6306 214.867ZM89.4046 219.301C89.4551 219.362 89.4817 219.389 89.4046 219.301V219.301ZM90.2559 221.42C90.2512 221.401 90.2467 221.372 90.2427 221.343C90.2472 221.368 90.2497 221.395 90.2559 221.42Z" fill="#F9D993"/>
<path d="M87.9629 218.188C88.16 218.318 88.1816 218.311 88.1311 218.273C88.0796 218.249 88.0319 218.222 87.9843 218.195C87.9772 218.192 87.97 218.19 87.9629 218.188Z" fill="#F9D993"/>
<path d="M70.466 218.801C70.4435 218.791 70.4206 218.781 70.3984 218.773C70.4784 218.813 70.5235 218.834 70.5435 218.843C70.5259 218.834 70.5096 218.822 70.4917 218.813C70.4833 218.809 70.4746 218.805 70.466 218.801Z" fill="#F9D993"/>
<path d="M70.8324 215.395C69.9756 215.203 68.9718 215.654 68.7632 216.57C68.569 217.423 69.0197 218.434 69.938 218.639C70.0914 218.673 70.2428 218.714 70.3916 218.765C70.3935 218.766 70.3956 218.767 70.3977 218.767C70.3638 218.75 70.3275 218.732 70.28 218.708C70.3406 218.739 70.4038 218.765 70.4652 218.795C70.5307 218.824 70.5814 218.853 70.5427 218.837C70.6627 218.899 70.7811 218.965 70.8944 219.039L70.9942 219.107C71.1929 219.297 71.3888 219.48 71.573 219.686C71.6019 219.727 71.631 219.768 71.6587 219.81C71.7453 219.941 71.8258 220.076 71.8999 220.215C71.9824 220.369 72.1379 220.857 71.9631 220.311C72.0068 220.448 72.0645 220.58 72.1068 220.718C72.1487 220.855 72.1849 220.994 72.2146 221.135C72.2235 221.176 72.2304 221.218 72.2379 221.259C72.247 221.404 72.2571 221.547 72.2552 221.692C72.2548 221.733 72.2604 221.818 72.262 221.903C72.2558 221.92 72.2473 221.951 72.2341 222.016C72.2187 222.092 72.201 222.168 72.1811 222.244C72.1409 222.396 72.0904 222.544 72.0336 222.691C71.8853 223.074 72.0039 223.646 72.2032 223.987C72.4073 224.336 72.8075 224.668 73.2084 224.76C74.1721 224.979 74.9367 224.465 75.2776 223.585C76.554 220.287 74.2473 216.159 70.8324 215.395ZM72.2563 222.051C72.2545 222.066 72.251 222.076 72.2483 222.089C72.2511 222.076 72.2539 222.065 72.2563 222.051Z" fill="#F9D993"/>
<path d="M140.912 55.5143C138.226 54.9047 136.009 52.7019 135.579 49.9386C135.156 47.223 136.669 44.4063 139.039 43.0664C140.923 42.001 139.23 39.0936 137.341 40.1616C133.689 42.2257 131.655 46.4826 132.3 50.6146C132.913 54.546 136.165 57.8842 140.018 58.7581C142.126 59.2367 143.026 55.9939 140.912 55.5143Z" fill="#E49E3E"/>
<path d="M146.723 46.4066C146.777 46.4897 146.834 46.5697 146.885 46.6543C146.97 46.7942 147.038 47.0445 147.148 47.1682L147.149 47.1699C147.183 47.2661 147.214 47.3632 147.243 47.4611C147.3 47.6567 147.338 47.8543 147.38 48.0533C147.385 48.1278 147.393 48.2023 147.397 48.2771C147.409 48.4838 147.411 48.6908 147.402 48.8977C147.397 49.0009 147.387 49.1036 147.38 49.2066C147.297 49.5857 147.222 49.9574 147.088 50.3243L147.07 50.3699L146.968 50.5825C146.874 50.7646 146.771 50.9418 146.658 51.1124L146.481 51.3624C146.484 51.3481 146.492 51.3378 146.497 51.3246C146.492 51.3306 146.493 51.331 146.487 51.3376C146.353 51.4898 146.209 51.6341 146.057 51.7683L146.006 51.8118L145.87 51.9062C145.681 52.029 145.484 52.1344 145.281 52.2299C144.482 52.6046 144.216 53.8154 144.677 54.5313C145.208 55.3537 146.124 55.5354 146.979 55.1347C151.187 53.1616 152.072 46.699 148.678 43.5915C148.029 42.9973 146.932 42.9018 146.299 43.5915C145.705 44.2385 145.606 45.3357 146.299 45.9702C146.45 46.1085 146.585 46.2561 146.723 46.4066Z" fill="#F9D993"/>
<path d="M146.498 51.3221C146.547 51.1964 146.661 51.1336 146.498 51.3221V51.3221Z" fill="#F9D993"/>
<path d="M143.576 50.2627C145.741 50.2627 145.744 46.8984 143.576 46.8984C141.411 46.8984 141.408 50.2627 143.576 50.2627Z" fill="#F9D993"/>
<path d="M205.326 85.6937C202.64 85.0842 200.424 82.8815 199.993 80.1181C199.57 77.4026 201.083 74.5859 203.453 73.2461C205.337 72.1806 203.644 69.2733 201.755 70.3413C198.104 72.4054 196.069 76.6622 196.714 80.7943C197.327 84.7256 200.579 88.0637 204.432 88.9378C206.54 89.4161 207.44 86.1734 205.326 85.6937Z" fill="#E49E3E"/>
<path d="M210.901 81.5094C210.767 81.6617 210.623 81.8059 210.471 81.9401L210.42 81.9838L210.284 82.078C210.095 82.201 209.898 82.3063 209.695 82.4018C208.896 82.7764 208.63 83.9873 209.092 84.7033C209.622 85.5257 210.538 85.7074 211.393 85.3068C215.602 83.3336 216.486 76.8709 213.092 73.7634C212.443 73.1692 211.346 73.0737 210.713 73.7634C210.119 74.4104 210.02 75.5076 210.713 76.1422C210.864 76.2805 210.999 76.4284 211.138 76.579C211.191 76.662 211.248 76.7419 211.299 76.8263C211.384 76.9663 211.453 77.2168 211.563 77.3403L211.563 77.3418C211.597 77.438 211.628 77.5351 211.657 77.633C211.714 77.8286 211.752 78.0262 211.794 78.2252C211.8 78.2997 211.807 78.3742 211.811 78.4489C211.824 78.6557 211.825 78.8628 211.816 79.0696C211.811 79.1727 211.801 79.2751 211.795 79.3779C211.711 79.7573 211.637 80.1291 211.502 80.4962L211.484 80.5419L211.382 80.7544C211.288 80.9365 211.185 81.1137 211.072 81.2842L210.895 81.5341C210.899 81.5198 210.907 81.5096 210.912 81.4964C210.906 81.5024 210.907 81.5029 210.901 81.5094Z" fill="#F9D993"/>
<path d="M210.912 81.5018C210.961 81.3761 211.075 81.3132 210.912 81.5018V81.5018Z" fill="#F9D993"/>
<path d="M207.99 80.4422C210.155 80.4422 210.158 77.0781 207.99 77.0781C205.825 77.0781 205.822 80.4422 207.99 80.4422Z" fill="#F9D993"/>
<path d="M81.2909 85.6937C78.6048 85.0842 76.3884 82.8815 75.958 80.1181C75.5352 77.4026 77.0476 74.5859 79.4173 73.2461C81.3021 72.1806 79.6084 69.2733 77.7194 70.3413C74.0684 72.4054 72.0342 76.6622 72.6788 80.7943C73.2921 84.7256 76.5443 88.0637 80.3965 88.9378C82.5048 89.4161 83.4049 86.1734 81.2909 85.6937Z" fill="#E49E3E"/>
<path d="M86.8664 81.5094C86.732 81.6617 86.588 81.8059 86.4355 81.9401L86.385 81.9837L86.2485 82.078C86.0601 82.201 85.8633 82.3063 85.6597 82.4018C84.8607 82.7764 84.5948 83.9873 85.0563 84.7033C85.5865 85.5257 86.503 85.7074 87.3576 85.3068C91.5663 83.3336 92.451 76.8709 89.0566 73.7634C88.4075 73.1692 87.3109 73.0737 86.6778 73.7634C86.0838 74.4104 85.9847 75.5076 86.6778 76.1422C86.8288 76.2805 86.9642 76.4284 87.1024 76.579C87.1558 76.662 87.2126 76.7419 87.2639 76.8263C87.3491 76.9663 87.4174 77.2168 87.5275 77.3403L87.528 77.3418C87.5619 77.438 87.5933 77.5351 87.6217 77.633C87.6785 77.8284 87.7165 78.0258 87.7585 78.2246C87.7642 78.2994 87.7717 78.374 87.7762 78.4489C87.7883 78.6557 87.7895 78.8628 87.7805 79.0696C87.776 79.1727 87.7657 79.2751 87.7593 79.3779C87.6758 79.7573 87.6014 80.1291 87.4665 80.4962L87.449 80.5412L87.3466 80.7544C87.2529 80.9365 87.1494 81.1137 87.0362 81.2842L86.8599 81.5341C86.8629 81.5198 86.8709 81.5097 86.8761 81.4965C86.8713 81.5026 86.872 81.503 86.8664 81.5094Z" fill="#F9D993"/>
<path d="M86.875 81.502C86.924 81.3762 87.0379 81.3131 86.875 81.502V81.502Z" fill="#F9D993"/>
<path d="M83.9549 80.4422C86.1197 80.4422 86.1232 77.0781 83.9549 77.0781C81.7902 77.0781 81.7867 80.4422 83.9549 80.4422Z" fill="#F9D993"/>
<path d="M251.547 113.194C248.86 112.584 246.644 110.382 246.214 107.618C245.791 104.903 247.303 102.086 249.673 100.746C251.558 99.6807 249.864 96.7733 247.975 97.8413C244.324 99.9054 242.29 104.162 242.935 108.294C243.548 112.226 246.8 115.564 250.652 116.438C252.76 116.916 253.66 113.673 251.547 113.194Z" fill="#E49E3E"/>
<path d="M256.934 101.263C256.34 101.91 256.241 103.008 256.934 103.642C257.085 103.78 257.22 103.928 257.359 104.079C257.412 104.162 257.469 104.242 257.52 104.326C257.605 104.466 257.674 104.717 257.784 104.84L257.784 104.842C257.818 104.938 257.849 105.035 257.878 105.133C257.935 105.329 257.973 105.526 258.015 105.725C258.02 105.8 258.028 105.874 258.032 105.949C258.044 106.156 258.046 106.363 258.037 106.57C258.032 106.673 258.022 106.775 258.015 106.878C257.932 107.257 257.858 107.629 257.723 107.996L257.705 108.042L257.603 108.255C257.509 108.437 257.406 108.614 257.292 108.785L257.116 109.035C257.119 109.02 257.127 109.01 257.132 108.997C257.127 109.003 257.128 109.003 257.122 109.01C256.988 109.162 256.844 109.306 256.692 109.44L256.641 109.484L256.504 109.578C256.316 109.701 256.119 109.806 255.916 109.902C255.117 110.276 254.851 111.487 255.312 112.203C255.842 113.026 256.759 113.207 257.614 112.807C261.822 110.834 262.707 104.371 259.313 101.263C258.664 100.669 257.567 100.574 256.934 101.263Z" fill="#F9D993"/>
<path d="M257.133 109.002C257.182 108.876 257.296 108.813 257.133 109.002V109.002Z" fill="#F9D993"/>
<path d="M254.211 107.942C256.376 107.942 256.379 104.578 254.211 104.578C252.046 104.578 252.043 107.942 254.211 107.942Z" fill="#F9D993"/>
<path d="M33.9003 113.194C31.214 112.584 28.9978 110.382 28.5675 107.618C28.1447 104.903 29.6571 102.086 32.0268 100.746C33.9115 99.6807 32.2179 96.7733 30.3288 97.8413C26.6777 99.9054 24.6436 104.162 25.2882 108.294C25.9016 112.226 29.1537 115.564 33.0059 116.438C35.1142 116.916 36.0141 113.673 33.9003 113.194Z" fill="#E49E3E"/>
<path d="M39.4844 109.002C39.5333 108.876 39.6469 108.813 39.4844 109.002V109.002Z" fill="#F9D993"/>
<path d="M39.4757 109.01C39.3413 109.162 39.1975 109.306 39.0449 109.44L38.9945 109.484L38.8579 109.578C38.6694 109.701 38.4728 109.806 38.2692 109.902C37.4701 110.276 37.2041 111.487 37.6657 112.203C38.1959 113.026 39.1125 113.207 39.9671 112.807C44.1758 110.834 45.0605 104.371 41.6661 101.263C41.017 100.669 39.9202 100.574 39.2872 101.263C38.6931 101.91 38.5941 103.008 39.2872 103.642C39.4381 103.78 39.5735 103.928 39.7116 104.079C39.7651 104.162 39.822 104.242 39.8734 104.326C39.9584 104.466 40.0267 104.717 40.1368 104.84L40.1373 104.842C40.1715 104.938 40.2027 105.035 40.2312 105.133C40.2881 105.329 40.3262 105.526 40.3679 105.725C40.3736 105.8 40.3811 105.874 40.3856 105.949C40.3977 106.155 40.3989 106.363 40.3898 106.57C40.3853 106.673 40.375 106.775 40.3686 106.878C40.285 107.258 40.2107 107.629 40.0756 107.996L40.0582 108.042L39.9559 108.254C39.8622 108.436 39.7588 108.613 39.6455 108.784L39.4692 109.034C39.4722 109.02 39.4802 109.01 39.4854 108.996C39.4806 109.003 39.4816 109.003 39.4757 109.01Z" fill="#F9D993"/>
<path d="M36.5644 107.942C38.729 107.942 38.7327 104.578 36.5644 104.578C34.3996 104.578 34.396 107.942 36.5644 107.942Z" fill="#F9D993"/>
<path d="M147.479 102.929C153.896 101.703 158.103 95.5062 156.876 89.0895C155.649 82.6728 149.453 78.4657 143.036 79.6926C136.62 80.9195 132.413 87.1158 133.639 93.5325C134.866 99.9492 141.063 104.156 147.479 102.929Z" fill="#E49E3E"/>
<path d="M151.71 97.7749C155.274 94.2101 155.274 88.4305 151.71 84.8657C148.145 81.3009 142.365 81.3009 138.8 84.8657C135.236 88.4305 135.236 94.2101 138.8 97.7749C142.365 101.34 148.145 101.34 151.71 97.7749Z" fill="#009FE3"/>
<path d="M138.623 95.4455C140.017 97.7381 142.423 99.072 145.061 99.3119C146.522 99.4449 147.959 99.1233 149.281 98.5175C150.034 98.1727 150.278 97.0254 149.848 96.3581C149.347 95.5812 148.494 95.423 147.688 95.7918C147.672 95.7991 147.665 95.8024 147.652 95.8084C147.585 95.834 147.518 95.8592 147.451 95.8825C147.326 95.9257 147.199 95.9649 147.072 96.0004C146.902 96.0477 146.73 96.0876 146.556 96.1208C146.51 96.1297 146.376 96.1453 146.32 96.1527C146.055 96.1744 145.791 96.1889 145.525 96.1824C145.37 96.1786 145.216 96.1693 145.061 96.1553C145.007 96.1504 144.97 96.1475 144.945 96.1462C144.93 96.1423 144.916 96.1388 144.889 96.1328C144.585 96.0662 144.285 96.0059 143.987 95.9112C143.86 95.8709 143.736 95.825 143.611 95.7802C143.6 95.7757 143.596 95.7741 143.586 95.7701C143.518 95.7388 143.449 95.7069 143.382 95.6733C143.125 95.5454 142.877 95.4008 142.639 95.2403C142.593 95.2092 142.386 95.0425 142.385 95.0468C142.3 94.9733 142.214 94.9006 142.133 94.8227C142.021 94.7155 141.913 94.6045 141.81 94.4891C141.774 94.4496 141.716 94.38 141.681 94.3394C141.51 94.1114 141.353 93.8719 141.215 93.6233C141.129 93.4685 141.053 93.3096 140.976 93.1502C140.966 93.1291 140.961 93.1204 140.954 93.1069C140.949 93.0884 140.944 93.0697 140.933 93.0368C140.84 92.7396 140.739 92.4507 140.671 92.1458C140.642 92.0163 140.62 91.8858 140.595 91.7556C140.586 91.6757 140.579 91.5957 140.573 91.5155C140.552 91.207 140.55 90.8966 140.571 90.588C140.573 90.5579 140.589 90.4125 140.594 90.3517C140.616 90.2208 140.638 90.0898 140.667 89.9606C140.737 89.6584 140.831 89.3643 140.942 89.0748C141.237 88.3019 140.616 87.31 139.84 87.1332C138.939 86.928 138.215 87.4082 137.898 88.2356C137.01 90.5581 137.338 93.332 138.623 95.4455Z" fill="#007AC3"/>
<path d="M145.203 87.0362C145.317 87.0051 145.431 86.976 145.546 86.9518L145.612 86.9389C145.764 86.9662 146.031 86.8988 146.177 86.8986C146.278 86.8983 146.379 86.9009 146.48 86.9062L146.718 86.9255L146.811 86.9421C146.91 86.9613 147.008 86.9831 147.106 87.0076C147.318 87.0606 147.521 87.1313 147.727 87.2024C147.817 87.2482 147.908 87.2902 147.997 87.3379C148.189 87.4414 148.375 87.5566 148.553 87.6833C148.563 87.6902 148.565 87.6916 148.573 87.6975C148.58 87.7043 148.582 87.7063 148.591 87.7152C148.664 87.7846 148.742 87.8485 148.815 87.9188L149.191 88.3293L149.218 88.3678C149.285 88.4646 149.348 88.5636 149.408 88.6648L149.678 89.1855L149.7 89.2447C149.734 89.3398 149.765 89.4358 149.794 89.5325C149.856 89.7409 149.895 89.9514 149.941 90.1632C149.942 90.176 149.944 90.1888 149.945 90.2016C149.954 90.302 149.96 90.4028 149.963 90.5036C149.969 90.7038 149.964 90.9042 149.948 91.1039C149.908 91.164 149.887 91.423 149.873 91.4835C149.683 92.2851 150.124 93.2309 150.976 93.4249C151.785 93.6093 152.713 93.1818 152.917 92.3225C153.475 89.9754 152.798 87.3786 151.047 85.6867C149.303 84.0012 146.699 83.3525 144.364 83.9922C143.568 84.2104 143 85.1233 143.262 85.9338C143.525 86.7486 144.35 87.2699 145.203 87.0362Z" fill="#47C1F1"/>
<path d="M146.751 88.2266C144.72 88.2266 144.717 91.3832 146.751 91.3832C148.782 91.3831 148.786 88.2266 146.751 88.2266Z" fill="#47C1F1"/>
<path d="M144.378 190.769C157.278 190.769 167.735 174.43 167.735 154.275C167.735 134.12 157.278 117.781 144.378 117.781C131.479 117.781 121.021 134.12 121.021 154.275C121.021 174.43 131.479 190.769 144.378 190.769Z" fill="#E49E3E"/>
<path d="M148.553 138.535C148.319 138.213 148.489 138.454 148.596 138.595C148.599 138.599 148.601 138.601 148.604 138.604C148.587 138.581 148.57 138.558 148.553 138.535Z" fill="#DB3B45"/>
<path d="M148.604 138.602C148.609 138.609 148.615 138.617 148.621 138.625C148.644 138.655 148.662 138.678 148.664 138.677C148.667 138.675 148.644 138.647 148.604 138.602Z" fill="#DB3B45"/>
<path d="M143.805 171.477C143.822 171.487 143.841 171.5 143.857 171.508C143.981 171.575 144.052 171.587 144.071 171.575C144.048 171.568 144.024 171.564 144.001 171.556C143.944 171.538 143.874 171.506 143.805 171.477Z" fill="#DB3B45"/>
<path d="M142.778 170.838C142.778 170.837 142.777 170.837 142.777 170.836C142.766 170.834 142.756 170.83 142.744 170.828C142.754 170.83 142.767 170.835 142.778 170.838Z" fill="#DB3B45"/>
<path d="M142.896 170.938C143.162 171.175 143.143 171.025 142.972 170.912C142.901 170.875 142.836 170.849 142.777 170.836C142.817 170.87 142.857 170.903 142.896 170.938Z" fill="#DB3B45"/>
<path d="M144.38 181.703C153.483 181.703 160.863 169.424 160.863 154.277C160.863 139.13 153.483 126.852 144.38 126.852C135.276 126.852 127.896 139.13 127.896 154.277C127.896 169.424 135.276 181.703 144.38 181.703Z" fill="#DB3B45"/>
<path d="M137.252 157.489C137.26 157.413 137.257 157.329 137.248 157.242C137.241 157.309 137.238 157.397 137.252 157.489Z" fill="#DB3B45"/>
<path d="M143.805 171.479C143.785 171.467 143.766 171.457 143.745 171.443C143.712 171.438 143.681 171.432 143.643 171.43C143.69 171.433 143.748 171.455 143.805 171.479Z" fill="#DB3B45"/>
<path d="M137.252 157.484C137.251 157.491 137.253 157.499 137.252 157.505C137.253 157.5 137.253 157.498 137.253 157.493C137.253 157.491 137.253 157.489 137.252 157.487C137.252 157.486 137.252 157.485 137.252 157.484Z" fill="#DB3B45"/>
<path d="M137.252 157.487C137.252 157.487 137.252 157.488 137.252 157.489C137.253 157.491 137.253 157.493 137.253 157.495C137.312 157.054 137.265 157.078 137.248 157.24C137.257 157.327 137.26 157.411 137.252 157.487Z" fill="#BC0D24"/>
<path d="M144.002 171.554C144.025 171.561 144.049 171.565 144.072 171.572C144.104 171.554 143.996 171.473 143.746 171.438C143.767 171.451 143.786 171.462 143.806 171.474C143.876 171.503 143.945 171.535 144.002 171.554Z" fill="#BC0D24"/>
<path d="M132.512 162.865C133.188 165.602 134.158 168.336 135.555 170.792C136.81 172.999 138.566 175.191 140.866 176.372C143.842 177.9 147.014 177.621 149.948 176.151C151.284 175.482 151.768 173.488 150.971 172.252C150.09 170.886 148.5 170.514 147.072 171.229C147.031 171.25 146.964 171.292 146.893 171.333C146.884 171.336 146.88 171.337 146.869 171.34C146.629 171.418 146.396 171.512 146.153 171.582C145.949 171.64 145.739 171.676 145.534 171.726C145.445 171.733 145.357 171.74 145.268 171.743C145.059 171.75 144.852 171.736 144.643 171.729C144.633 171.726 144.626 171.724 144.614 171.721C144.433 171.673 144.252 171.629 144.072 171.575C144.053 171.587 143.982 171.575 143.858 171.508C143.842 171.5 143.823 171.487 143.806 171.477C143.749 171.453 143.691 171.431 143.644 171.427C143.682 171.43 143.713 171.436 143.746 171.44C143.523 171.294 143.221 171.046 142.972 170.914C143.143 171.027 143.162 171.177 142.896 170.94C142.857 170.906 142.818 170.872 142.778 170.838C142.767 170.835 142.754 170.83 142.744 170.828C142.755 170.83 142.765 170.834 142.776 170.837C142.747 170.812 142.718 170.787 142.689 170.761C142.479 170.575 142.278 170.378 142.085 170.175C141.918 170 141.764 169.815 141.603 169.634C141.575 169.603 141.552 169.578 141.532 169.555C141.52 169.538 141.511 169.524 141.496 169.504C141.165 169.032 140.846 168.555 140.557 168.056C140.28 167.578 140.024 167.088 139.786 166.59C139.67 166.35 139.562 166.106 139.453 165.862C139.389 165.693 139.318 165.526 139.253 165.358C138.796 164.167 138.417 162.946 138.099 161.711C137.772 160.441 137.511 159.155 137.308 157.86C137.289 157.739 137.271 157.618 137.253 157.497C137.252 157.501 137.252 157.504 137.252 157.509C137.253 157.502 137.251 157.494 137.252 157.488C137.239 157.396 137.241 157.308 137.248 157.241C137.225 157.019 137.163 156.778 137.143 156.588C137.072 155.922 137.016 155.255 136.978 154.587C136.903 153.268 136.891 151.945 136.969 150.627C136.988 150.307 137.012 149.988 137.042 149.669C137.052 149.557 137.064 149.445 137.077 149.333C137.181 149.168 137.174 148.668 137.207 148.497C137.258 148.224 137.316 147.954 137.38 147.684C137.722 146.235 136.928 144.528 135.389 144.178C133.93 143.845 132.25 144.616 131.884 146.168C130.608 151.572 131.194 157.53 132.512 162.865Z" fill="#BC0D24"/>
<path d="M142.971 170.914C142.919 170.879 142.852 170.851 142.775 170.836C142.776 170.836 142.776 170.837 142.777 170.837C142.836 170.85 142.901 170.876 142.971 170.914Z" fill="#BC0D24"/>
<path d="M148.596 138.594C148.605 138.606 148.612 138.615 148.62 138.626C148.615 138.618 148.609 138.61 148.603 138.603C148.601 138.599 148.599 138.597 148.596 138.594Z" fill="#EAA5B2"/>
<path d="M143.044 135.054C143.472 135.123 143.894 135.215 144.309 135.341C144.474 135.39 144.634 135.45 144.797 135.505C144.884 135.545 144.978 135.58 145.054 135.617C145.437 135.805 145.808 136.018 146.164 136.252C146.268 136.32 146.368 136.392 146.468 136.464C146.546 136.542 146.695 136.634 146.76 136.69C146.916 136.823 148.274 138.232 148.597 138.593C148.49 138.452 148.32 138.211 148.554 138.533C148.57 138.556 148.588 138.579 148.605 138.602C148.645 138.648 148.668 138.676 148.665 138.677C148.663 138.678 148.645 138.655 148.622 138.625C148.653 138.668 148.685 138.711 148.716 138.754C148.842 138.928 148.965 139.104 149.085 139.282C149.362 139.694 149.623 140.117 149.87 140.548C150.103 140.956 150.324 141.372 150.532 141.794C150.63 141.992 150.725 142.191 150.817 142.391C150.87 142.505 150.922 142.62 150.973 142.736C151.018 142.837 151.166 143.346 151.054 142.917C150.941 142.486 151.149 143.165 151.193 143.278C151.283 143.513 151.37 143.748 151.454 143.985C151.621 144.455 151.775 144.929 151.917 145.407C152.176 146.275 152.394 147.155 152.569 148.044C152.637 148.385 152.689 148.728 152.746 149.07C152.756 149.151 152.78 149.252 152.785 149.304C152.809 149.519 152.832 149.733 152.851 149.948C152.926 150.801 152.955 151.661 152.903 152.516C152.894 152.666 152.878 152.816 152.866 152.965C152.803 153.277 152.738 153.583 152.641 153.886C152.188 155.307 153.173 157.059 154.632 157.392C156.189 157.746 157.652 156.922 158.138 155.401C159.236 151.961 158.503 147.806 157.567 144.424C156.407 140.236 154.371 135.922 151.119 132.949C149.286 131.273 147.036 129.959 144.559 129.557C143.093 129.319 141.42 129.936 141.053 131.548C140.741 132.919 141.47 134.798 143.044 135.054Z" fill="#EAA5B2"/>
<path d="M151.979 158.695C150.489 158.695 149.06 160.006 149.129 161.545C149.199 163.089 150.382 164.395 151.979 164.395C153.47 164.395 154.898 163.084 154.829 161.545C154.76 160.001 153.577 158.695 151.979 158.695Z" fill="#EAA5B2"/>
<path d="M212.716 164.366C213.903 152.059 208.48 141.466 200.603 140.707C192.727 139.947 185.379 149.308 184.192 161.615C183.005 173.922 188.428 184.514 196.305 185.274C204.182 186.034 211.529 176.673 212.716 164.366Z" fill="#E49E3E"/>
<path d="M197.272 173.553C197.226 173.532 197.234 173.537 197.272 173.553V173.553Z" fill="#DB3B45"/>
<path d="M200.057 146.24C194.499 145.704 189.27 152.767 188.378 162.015C187.487 171.264 191.27 179.196 196.829 179.732C202.387 180.268 207.616 173.205 208.507 163.956C209.399 154.707 205.616 146.775 200.057 146.24Z" fill="#DB3B45"/>
<path d="M195.072 176.316C196.616 177.34 198.585 177.413 200.287 176.766C201.169 176.431 201.776 175.588 201.509 174.616C201.276 173.771 200.245 173.057 199.358 173.395C199.066 173.506 198.772 173.591 198.469 173.666C198.422 173.678 198.4 173.686 198.387 173.692C198.364 173.692 198.343 173.691 198.305 173.691C198.155 173.693 197.988 173.68 197.839 173.696C197.824 173.697 197.82 173.699 197.809 173.7C197.803 173.699 197.802 173.698 197.795 173.696C197.673 173.666 197.551 173.637 197.43 173.605C197.388 173.594 197.351 173.582 197.319 173.57C197.21 173.515 197.104 173.458 196.997 173.398C196.928 173.36 196.831 173.291 196.786 173.26C196.719 173.203 196.651 173.147 196.586 173.086C196.489 172.994 196.395 172.898 196.305 172.8C196.27 172.762 196.15 172.616 196.093 172.549C196.046 172.481 195.955 172.354 195.934 172.321C195.852 172.198 195.775 172.073 195.7 171.946C195.516 171.635 195.357 171.313 195.204 170.986C195.191 170.957 195.188 170.951 195.182 170.94C195.164 170.896 195.146 170.853 195.129 170.809C195.07 170.654 195.011 170.499 194.956 170.343C194.833 169.994 194.723 169.64 194.624 169.284C194.417 168.537 194.259 167.777 194.138 167.012C194.13 166.963 194.097 166.729 194.09 166.686C194.069 166.525 194.051 166.364 194.034 166.203C193.989 165.776 193.956 165.347 193.933 164.918C193.892 164.166 193.884 163.411 193.911 162.657C193.926 162.224 193.953 161.79 193.993 161.358C194.011 161.164 194.032 160.97 194.055 160.776C194.068 160.689 194.08 160.603 194.095 160.517C194.216 159.794 194.376 159.081 194.61 158.386C195.331 156.249 191.955 155.332 191.238 157.456C190.15 160.683 190.235 164.343 190.725 167.67C191.188 170.809 192.283 174.467 195.072 176.316ZM197.272 173.552C197.226 173.531 197.234 173.536 197.272 173.552V173.552Z" fill="#BC0D24"/>
<path d="M198.919 151.22C199.108 151.27 199.291 151.332 199.477 151.392C199.507 151.401 199.522 151.405 199.54 151.41C199.554 151.42 199.564 151.427 199.588 151.442C199.875 151.614 200.166 151.772 200.447 151.955C200.449 151.957 200.45 151.958 200.453 151.959C200.521 152.016 200.588 152.073 200.654 152.133C200.763 152.229 200.869 152.33 200.971 152.433C201.11 152.572 201.242 152.717 201.37 152.866C201.396 152.896 201.47 152.992 201.516 153.05C201.921 153.609 202.271 154.204 202.568 154.827C202.781 155.275 203.004 155.858 203.23 156.631C203.436 157.333 203.595 158.049 203.711 158.771C203.716 158.801 203.741 158.991 203.75 159.052C203.768 159.201 203.785 159.351 203.799 159.5C203.829 159.833 203.849 160.166 203.858 160.5C203.873 161.042 203.846 161.579 203.797 162.117C203.786 162.146 203.733 162.515 203.703 162.64C203.662 162.811 203.385 163.563 203.635 162.973C203.266 163.842 203.375 164.846 204.262 165.365C204.996 165.795 206.283 165.612 206.654 164.738C207.854 161.912 207.424 158.412 206.556 155.549C205.541 152.195 203.435 148.804 199.849 147.848C197.672 147.268 196.744 150.64 198.919 151.22Z" fill="#EAA5B2"/>
<path d="M202.656 166.125C200.406 166.125 200.402 169.621 202.656 169.621C204.905 169.621 204.909 166.125 202.656 166.125Z" fill="#EAA5B2"/>
<path d="M238.853 154.116C233.604 153.062 228.014 158.857 226.367 167.059C224.721 175.262 227.642 182.765 232.892 183.818C238.141 184.872 243.731 179.077 245.378 170.875C247.024 162.673 244.103 155.169 238.853 154.116Z" fill="#E49E3E"/>
<path d="M239.357 169.302C239.36 169.298 239.362 169.294 239.364 169.289C239.362 169.294 239.359 169.298 239.357 169.302Z" fill="#DB3B45"/>
<path d="M239.413 169.195C239.402 169.211 239.401 169.215 239.393 169.227C239.384 169.253 239.374 169.275 239.363 169.294C239.379 169.26 239.393 169.224 239.413 169.195Z" fill="#DB3B45"/>
<path d="M239.641 168.188C239.634 168.233 239.636 168.226 239.641 168.188V168.188Z" fill="#DB3B45"/>
<path d="M238.113 157.801C234.408 157.057 230.402 161.451 229.165 167.615C227.928 173.78 229.928 179.379 233.633 180.123C237.337 180.866 241.343 176.472 242.581 170.308C243.818 164.144 241.818 158.544 238.113 157.801Z" fill="#DB3B45"/>
<path d="M235.652 176.059C235.538 176.089 235.423 176.114 235.307 176.136C235.262 176.136 235.073 176.156 235.036 176.156C234.989 176.156 234.813 176.134 234.772 176.133C234.695 176.115 234.617 176.097 234.54 176.076C234.51 176.069 234.498 176.068 234.491 176.069C234.474 176.058 234.453 176.044 234.422 176.026C234.354 175.985 234.288 175.943 234.221 175.901C234.191 175.873 234.06 175.771 234.03 175.742C233.965 175.679 233.907 175.61 233.848 175.542C233.828 175.51 233.712 175.358 233.691 175.326C233.62 175.214 233.554 175.1 233.492 174.983C233.439 174.882 233.391 174.779 233.344 174.675C233.332 174.639 233.246 174.424 233.235 174.393C233.036 173.825 232.907 173.235 232.812 172.641C232.784 172.465 232.76 172.243 232.734 171.905C232.708 171.567 232.694 171.227 232.689 170.887C232.681 170.207 232.712 169.526 232.784 168.85C232.823 168.474 232.821 168.482 232.894 168.067C232.947 167.759 233.01 167.454 233.084 167.151C233.154 166.868 233.232 166.588 233.323 166.312C233.366 166.183 233.413 166.056 233.46 165.929C233.483 165.866 233.495 165.834 233.502 165.813C233.498 165.828 233.499 165.832 233.527 165.77C233.791 165.189 233.693 164.497 233.102 164.152C232.594 163.855 231.749 163.992 231.484 164.576C230.519 166.697 230.23 169.15 230.341 171.462C230.442 173.581 230.869 176.223 232.624 177.648C233.678 178.503 234.984 178.686 236.281 178.34C237.751 177.947 237.127 175.664 235.652 176.059Z" fill="#BC0D24"/>
<path d="M239.393 169.227C239.312 169.35 239.325 169.359 239.357 169.306C239.359 169.302 239.361 169.298 239.363 169.293C239.374 169.274 239.384 169.252 239.393 169.227Z" fill="#EAA5B2"/>
<path d="M237.747 158.831C237.15 158.604 236.45 159.083 236.292 159.657C236.109 160.323 236.519 160.885 237.118 161.112C237.131 161.117 237.137 161.12 237.148 161.124C237.199 161.148 237.251 161.173 237.301 161.199C237.39 161.246 237.477 161.296 237.562 161.35C237.622 161.388 237.68 161.43 237.738 161.471C237.749 161.486 237.928 161.633 237.954 161.658C238.027 161.727 238.098 161.799 238.167 161.873C238.184 161.892 238.292 162.018 238.335 162.065C238.37 162.116 238.474 162.257 238.489 162.279C238.547 162.367 238.603 162.455 238.656 162.545C238.784 162.759 238.896 162.98 239.002 163.206C239.015 163.235 239.022 163.25 239.03 163.266C239.036 163.283 239.041 163.296 239.052 163.323C239.098 163.443 239.142 163.563 239.184 163.684C239.346 164.156 239.468 164.642 239.559 165.133C239.579 165.242 239.596 165.352 239.615 165.462C239.619 165.493 239.622 165.514 239.625 165.532C239.632 165.586 239.638 165.64 239.644 165.694C239.667 165.91 239.685 166.127 239.696 166.343C239.721 166.822 239.719 167.303 239.683 167.781C239.676 167.876 239.667 167.972 239.657 168.067C239.655 168.096 239.651 168.124 239.648 168.149C239.617 168.336 239.586 168.523 239.542 168.707C239.501 168.882 239.447 169.049 239.394 169.22C239.394 169.221 239.393 169.222 239.393 169.223C239.402 169.21 239.403 169.206 239.413 169.191C239.393 169.22 239.38 169.255 239.364 169.289C239.361 169.294 239.36 169.299 239.357 169.303C239.34 169.34 239.322 169.377 239.302 169.412C238.568 170.746 240.61 171.941 241.345 170.606C242.341 168.798 242.2 166.348 241.82 164.395C241.357 162.02 240.105 159.726 237.747 158.831ZM239.643 168.187C239.636 168.232 239.637 168.225 239.643 168.187V168.187Z" fill="#EAA5B2"/>
<path d="M238.371 171.359C236.849 171.359 236.846 173.725 238.371 173.725C239.894 173.725 239.896 171.359 238.371 171.359Z" fill="#EAA5B2"/>
<path d="M208.916 126.098C212.31 122.704 212.31 117.202 208.916 113.809C205.522 110.415 200.02 110.415 196.627 113.809C193.233 117.202 193.233 122.704 196.627 126.098C200.02 129.491 205.522 129.491 208.916 126.098Z" fill="#E49E3E"/>
<path d="M204.311 126.464C207.916 125.613 210.147 122.002 209.296 118.397C208.445 114.793 204.834 112.561 201.229 113.412C197.625 114.263 195.393 117.875 196.244 121.479C197.095 125.084 200.707 127.315 204.311 126.464Z" fill="#785BA3"/>
<path d="M205.499 125.304C206.052 125.051 206.231 124.208 205.915 123.718C205.547 123.147 204.921 123.031 204.329 123.302C204.317 123.307 204.312 123.309 204.302 123.314C204.253 123.333 204.204 123.351 204.154 123.368C204.062 123.4 203.969 123.429 203.876 123.455C203.751 123.49 203.624 123.519 203.497 123.544C203.47 123.549 203.405 123.557 203.357 123.563C203.152 123.58 202.946 123.594 202.74 123.589C202.626 123.586 202.512 123.579 202.399 123.569C202.359 123.565 202.332 123.563 202.313 123.562C202.302 123.559 202.292 123.557 202.272 123.552C202.049 123.503 201.828 123.459 201.61 123.389C201.517 123.36 201.426 123.326 201.334 123.293C201.325 123.29 201.322 123.289 201.315 123.286L201.165 123.215C200.976 123.121 200.794 123.015 200.619 122.897C200.585 122.874 200.433 122.751 200.433 122.755C200.371 122.7 200.308 122.647 200.248 122.59C200.166 122.511 200.086 122.429 200.01 122.345C199.984 122.316 199.941 122.265 199.915 122.235C199.79 122.067 199.675 121.891 199.573 121.709C199.51 121.595 199.454 121.478 199.398 121.361C199.39 121.345 199.387 121.339 199.381 121.329C199.378 121.316 199.374 121.302 199.366 121.278C199.298 121.059 199.224 120.847 199.174 120.623C199.152 120.528 199.136 120.433 199.118 120.337C199.112 120.278 199.106 120.219 199.102 120.16C199.086 119.934 199.085 119.706 199.1 119.479C199.102 119.457 199.114 119.35 199.117 119.305C199.133 119.209 199.149 119.113 199.171 119.018C199.222 118.796 199.292 118.58 199.373 118.367C199.59 117.8 199.133 117.071 198.563 116.941C197.901 116.79 197.369 117.143 197.137 117.751C196.485 119.457 196.725 121.495 197.669 123.047C198.693 124.732 200.461 125.712 202.399 125.888C203.472 125.985 204.527 125.749 205.499 125.304Z" fill="#533F85"/>
<path d="M202.503 116.859C202.587 116.837 202.671 116.815 202.755 116.797L202.804 116.788C202.915 116.808 203.111 116.759 203.219 116.758C203.293 116.758 203.367 116.76 203.441 116.764L203.616 116.778L203.684 116.79C203.757 116.804 203.829 116.82 203.901 116.838C204.057 116.877 204.206 116.929 204.357 116.981C204.423 117.015 204.49 117.046 204.555 117.081C204.697 117.157 204.833 117.242 204.964 117.335C204.971 117.34 204.973 117.341 204.979 117.345C204.984 117.35 204.985 117.352 204.992 117.358L205.156 117.508L205.433 117.809L205.453 117.838C205.502 117.909 205.548 117.982 205.592 118.056L205.79 118.439L205.806 118.482C205.831 118.552 205.854 118.622 205.875 118.693C205.921 118.847 205.949 119.001 205.983 119.157L205.986 119.185C205.993 119.259 205.997 119.333 206 119.407C206.004 119.555 206 119.703 205.988 119.85L205.986 119.872L205.934 120.127C205.794 120.715 206.118 121.41 206.743 121.553C207.338 121.688 208.02 121.374 208.17 120.743C208.579 119.019 208.082 117.111 206.796 115.868C205.515 114.63 203.602 114.153 201.887 114.623C201.302 114.784 200.884 115.454 201.077 116.05C201.271 116.648 201.877 117.031 202.503 116.859Z" fill="#BC8CBE"/>
<path d="M203.64 117.742C202.147 117.742 202.145 120.061 203.64 120.061C205.132 120.061 205.134 117.742 203.64 117.742Z" fill="#BC8CBE"/>
<path d="M248.243 144.514C252.174 143.586 254.608 139.647 253.68 135.717C252.751 131.786 248.813 129.352 244.882 130.28C240.952 131.209 238.518 135.147 239.446 139.078C240.374 143.008 244.313 145.442 248.243 144.514Z" fill="#E49E3E"/>
<path d="M247.861 142.89C250.894 142.174 252.772 139.135 252.056 136.101C251.34 133.068 248.3 131.19 245.267 131.906C242.234 132.623 240.356 135.662 241.072 138.695C241.788 141.728 244.828 143.606 247.861 142.89Z" fill="#785BA3"/>
<path d="M242.272 140.02C243.134 141.437 244.622 142.262 246.253 142.41C247.156 142.492 248.044 142.293 248.862 141.919C249.327 141.706 249.478 140.997 249.212 140.584C248.902 140.104 248.375 140.006 247.877 140.234C247.866 140.239 247.862 140.241 247.854 140.244L247.73 140.29C247.653 140.317 247.574 140.341 247.496 140.363C247.39 140.392 247.284 140.417 247.177 140.437C247.154 140.442 247.1 140.448 247.059 140.454C246.886 140.468 246.714 140.48 246.54 140.475C246.444 140.473 246.348 140.467 246.253 140.459C246.219 140.456 246.197 140.454 246.181 140.453C246.172 140.451 246.163 140.448 246.146 140.445C245.958 140.404 245.773 140.366 245.589 140.308C245.51 140.283 245.434 140.255 245.356 140.227C245.349 140.224 245.347 140.223 245.341 140.22L245.215 140.161C245.056 140.081 244.902 139.992 244.755 139.893C244.726 139.874 244.599 139.77 244.599 139.774C244.546 139.728 244.493 139.683 244.442 139.635C244.373 139.568 244.307 139.5 244.243 139.428C244.221 139.404 244.185 139.361 244.163 139.336C244.057 139.195 243.961 139.047 243.875 138.893C243.822 138.797 243.775 138.699 243.727 138.601C243.721 138.588 243.718 138.582 243.714 138.574C243.711 138.563 243.707 138.551 243.701 138.53C243.643 138.347 243.581 138.168 243.539 137.98C243.521 137.9 243.507 137.819 243.492 137.739L243.479 137.59C243.465 137.399 243.464 137.207 243.477 137.017C243.478 136.998 243.488 136.908 243.491 136.871C243.505 136.79 243.518 136.709 243.537 136.629C243.58 136.442 243.638 136.26 243.706 136.081C243.889 135.603 243.505 134.99 243.025 134.881C242.468 134.754 242.02 135.051 241.825 135.562C241.276 136.998 241.478 138.713 242.272 140.02Z" fill="#533F85"/>
<path d="M246.341 134.82C246.412 134.801 246.482 134.783 246.553 134.768L246.607 134.758C246.702 134.771 246.856 134.736 246.944 134.735C247.006 134.735 247.068 134.737 247.13 134.74L247.278 134.752L247.335 134.762C247.396 134.774 247.457 134.788 247.518 134.803C247.649 134.836 247.774 134.879 247.902 134.923L248.068 135.007C248.187 135.071 248.302 135.142 248.412 135.221C248.418 135.225 248.42 135.226 248.425 135.229C248.429 135.233 248.43 135.235 248.436 135.24L248.574 135.366L248.807 135.62L248.824 135.644C248.865 135.704 248.904 135.765 248.941 135.827L249.108 136.149L249.121 136.186L249.18 136.364C249.218 136.492 249.242 136.622 249.27 136.753L249.273 136.777C249.278 136.84 249.282 136.902 249.284 136.964C249.288 137.089 249.285 137.214 249.275 137.338L249.273 137.355L249.229 137.57C249.111 138.065 249.384 138.65 249.91 138.77C250.411 138.884 250.984 138.62 251.11 138.089C251.455 136.638 251.037 135.032 249.954 133.986C248.876 132.944 247.267 132.543 245.823 132.939C245.331 133.074 244.979 133.638 245.142 134.139C245.304 134.643 245.814 134.965 246.341 134.82Z" fill="#BC8CBE"/>
<path d="M247.298 135.562C246.042 135.562 246.04 137.514 247.298 137.514C248.554 137.514 248.556 135.562 247.298 135.562Z" fill="#BC8CBE"/>
<path d="M95.3454 185.27C103.222 184.51 108.645 173.918 107.458 161.611C106.271 149.304 98.9239 139.943 91.0472 140.703C83.1705 141.462 77.7473 152.055 78.9343 164.362C80.1212 176.669 87.4687 186.03 95.3454 185.27Z" fill="#E49E3E"/>
<path d="M103.253 162.015C102.362 152.767 97.1329 145.704 91.5744 146.24C86.016 146.775 82.2327 154.707 83.1243 163.956C84.016 173.205 89.2448 180.268 94.8032 179.732C100.362 179.196 104.145 171.264 103.253 162.015Z" fill="#DB3B45"/>
<path d="M97.022 158.384C97.2224 158.979 97.372 159.588 97.4841 160.205C97.5124 160.361 97.537 160.517 97.5621 160.673C97.5686 160.715 97.5735 160.743 97.577 160.763C97.5789 160.783 97.582 160.812 97.5868 160.856C97.6272 161.222 97.6621 161.588 97.686 161.956C97.7885 163.522 97.7378 165.101 97.546 166.659C97.5437 166.677 97.5436 166.678 97.5421 166.691C97.5313 166.768 97.5202 166.844 97.508 166.92C97.4792 167.1 97.4506 167.28 97.4184 167.459C97.3501 167.842 97.2719 168.223 97.1823 168.602C97.0109 169.325 96.797 170.037 96.5326 170.732C96.5122 170.786 96.4468 170.937 96.4248 170.989C96.371 171.107 96.317 171.225 96.2593 171.341C96.1024 171.656 95.9303 171.964 95.7382 172.26C95.6734 172.36 95.6046 172.457 95.5356 172.553C95.5033 172.595 95.4559 172.655 95.4179 172.697C95.233 172.901 95.0391 173.089 94.8323 173.27C94.7665 173.312 94.7042 173.36 94.6353 173.397C94.539 173.449 94.4432 173.501 94.3465 173.551C94.2942 173.572 94.2127 173.604 94.1422 173.621C94.0454 173.645 93.9485 173.665 93.8515 173.686C93.7976 173.691 93.6839 173.702 93.5955 173.699C93.5239 173.696 93.2959 173.676 93.2052 173.672C93.1082 173.649 92.9233 173.608 92.8734 173.595C92.6697 173.539 92.4712 173.469 92.2742 173.393C91.3915 173.058 90.3569 173.765 90.1236 174.614C89.8532 175.598 90.4587 176.428 91.3447 176.765C94.6201 178.011 97.6295 176.244 99.1727 173.312C100.817 170.187 101.311 166.413 101.226 162.922C101.181 161.092 100.981 159.197 100.394 157.455C100.092 156.561 99.1904 155.974 98.2433 156.234C97.3705 156.474 96.7189 157.486 97.022 158.384Z" fill="#BC0D24"/>
<path d="M87.996 162.974C88.2438 163.557 87.9824 162.86 87.9399 162.689C87.8994 162.526 87.8103 161.744 87.8479 162.296C87.8069 161.694 87.7566 161.104 87.7727 160.5C87.7817 160.166 87.802 159.833 87.8321 159.5C87.8468 159.338 87.8654 159.176 87.8846 159.015C87.8924 158.96 87.9085 158.842 87.9198 158.771C88.0358 158.049 88.1956 157.333 88.4011 156.631C88.5051 156.275 88.621 155.922 88.7497 155.574C88.7924 155.459 88.838 155.344 88.8833 155.23C88.8749 155.26 89.0405 154.875 89.0632 154.827C89.3586 154.207 89.7079 153.614 90.1107 153.057C90.1589 152.997 90.2464 152.884 90.2612 152.867C90.3889 152.717 90.5217 152.573 90.6601 152.433C90.7625 152.33 90.8681 152.23 90.9766 152.133C91.0427 152.074 91.1102 152.016 91.1787 151.96C91.1812 151.958 91.1819 151.957 91.1844 151.956C91.4461 151.785 91.7069 151.627 91.979 151.474C92.0279 151.446 92.0612 151.427 92.084 151.412C92.1007 151.408 92.1206 151.403 92.1544 151.392C92.3403 151.332 92.5229 151.27 92.7118 151.22C94.884 150.641 93.9625 147.267 91.7825 147.848C88.196 148.804 86.0907 152.195 85.0749 155.549C84.2075 158.413 83.7769 161.912 84.9771 164.738C85.3463 165.608 86.6281 165.799 87.369 165.365C88.2687 164.839 88.3666 163.846 87.996 162.974Z" fill="#EAA5B2"/>
<path d="M88.9759 166.125C86.726 166.125 86.7223 169.621 88.9759 169.621C91.2257 169.621 91.2295 166.125 88.9759 166.125Z" fill="#EAA5B2"/>
<path d="M65.2644 167.059C63.6183 158.857 58.0281 153.062 52.7784 154.116C47.5289 155.169 44.6077 162.673 46.254 170.875C47.9002 179.077 53.4905 184.872 58.74 183.819C63.9895 182.765 66.9107 175.261 65.2644 167.059Z" fill="#E49E3E"/>
<path d="M52.252 169.258C52.283 169.329 52.2835 169.35 52.252 169.258V169.258Z" fill="#DB3B45"/>
<path d="M62.4672 167.615C61.2301 161.451 57.224 157.057 53.5193 157.801C49.8147 158.544 47.8145 164.144 49.0516 170.308C50.2888 176.472 54.2949 180.866 57.9996 180.123C61.7042 179.379 63.7046 173.78 62.4672 167.615Z" fill="#DB3B45"/>
<path d="M55.3503 178.34C60.9589 179.838 61.6362 172.044 61.1544 168.355C60.9833 167.045 60.6966 165.783 60.1478 164.577C59.8831 163.995 59.0405 163.853 58.5293 164.152C57.9316 164.502 57.8393 165.187 58.1049 165.771C58.1328 165.832 58.1339 165.828 58.1298 165.814C58.1369 165.834 58.1486 165.866 58.1715 165.929C58.2182 166.057 58.2652 166.184 58.3079 166.313C58.3993 166.589 58.4778 166.869 58.547 167.151C58.6212 167.454 58.684 167.759 58.7376 168.067C58.8102 168.482 58.8085 168.474 58.848 168.85C58.919 169.526 58.9509 170.207 58.9423 170.888C58.9378 171.227 58.9235 171.567 58.8975 171.906C58.8717 172.244 58.848 172.465 58.8198 172.641C58.7248 173.236 58.5956 173.825 58.3962 174.394C58.3856 174.424 58.2994 174.64 58.2881 174.675C58.2411 174.779 58.193 174.882 58.1398 174.983C58.0778 175.1 58.012 175.215 57.9406 175.326C57.9198 175.358 57.8038 175.51 57.7836 175.542C57.7248 175.61 57.6665 175.679 57.6019 175.742C57.5713 175.772 57.4411 175.873 57.4104 175.901C57.3438 175.943 57.2777 175.985 57.2094 176.026C57.1785 176.045 57.1577 176.058 57.1406 176.069C57.1341 176.068 57.1216 176.069 57.0922 176.076C57.0145 176.097 56.9372 176.115 56.8598 176.133C56.8191 176.134 56.643 176.156 56.5963 176.156C56.5592 176.156 56.3703 176.137 56.3244 176.136C56.2084 176.114 56.0933 176.089 55.9793 176.059C54.5067 175.665 53.8784 177.946 55.3503 178.34Z" fill="#BC0D24"/>
<path d="M52.3293 169.412C52.2998 169.358 52.274 169.302 52.2468 169.247C52.2431 169.237 52.2418 169.234 52.2374 169.22C52.1831 169.05 52.1303 168.882 52.0891 168.708C52.047 168.53 52.0164 168.35 51.986 168.17C51.982 168.136 51.9778 168.102 51.9743 168.067C51.9658 167.972 51.9559 167.877 51.9487 167.781C51.9141 167.321 51.9108 166.858 51.9331 166.397C51.9444 166.162 51.9626 165.928 51.9876 165.694C51.9936 165.638 52.0006 165.581 52.0074 165.524C52.0082 165.519 52.0078 165.523 52.0086 165.517C52.0283 165.388 52.049 165.261 52.0725 165.133C52.1598 164.66 52.2768 164.192 52.4298 163.736C52.4764 163.597 52.5267 163.46 52.5796 163.324C52.5903 163.296 52.5969 163.278 52.6017 163.265C52.6087 163.251 52.617 163.234 52.6298 163.206C52.7357 162.981 52.8475 162.759 52.9751 162.545C53.0699 162.386 53.1741 162.232 53.2844 162.083C53.32 162.045 53.4435 161.896 53.4645 161.874C53.533 161.8 53.6041 161.727 53.6774 161.658C53.6948 161.642 53.8155 161.537 53.8635 161.494C53.9153 161.459 54.0483 161.364 54.0693 161.35C54.1543 161.297 54.2415 161.246 54.3304 161.199C54.3808 161.173 54.4321 161.148 54.4836 161.124C54.4941 161.12 54.5002 161.118 54.5134 161.113C55.1104 160.886 55.5203 160.315 55.3397 159.657C55.1826 159.085 54.485 158.603 53.8845 158.831C51.5266 159.727 50.2743 162.02 49.8118 164.395C49.4313 166.349 49.2913 168.798 50.2863 170.606C51.0207 171.94 53.0645 170.748 52.3293 169.412ZM52.2503 169.258C52.2814 169.329 52.2819 169.35 52.2503 169.258V169.258Z" fill="#EAA5B2"/>
<path d="M53.2598 171.359C51.7376 171.359 51.735 173.725 53.2598 173.725C54.7822 173.725 54.7848 171.359 53.2598 171.359Z" fill="#EAA5B2"/>
<path d="M88.8577 111.258C84.0584 111.258 80.168 115.148 80.168 119.948C80.168 124.747 84.0584 128.637 88.8577 128.637C93.6571 128.637 97.5476 124.747 97.5476 119.948C97.5476 115.148 93.657 111.258 88.8577 111.258Z" fill="#E49E3E"/>
<path d="M93.5981 124.695C96.2169 122.076 96.2169 117.83 93.5981 115.211C90.9794 112.593 86.7335 112.593 84.1147 115.211C81.496 117.83 81.496 122.076 84.1147 124.695C86.7335 127.314 90.9794 127.314 93.5981 124.695Z" fill="#785BA3"/>
<path d="M90.4672 123.207L90.3174 123.278C90.3102 123.281 90.3069 123.283 90.2985 123.286C90.2064 123.318 90.1156 123.353 90.0225 123.382C89.804 123.452 89.5836 123.496 89.3601 123.545C89.3393 123.55 89.3295 123.552 89.3165 123.555C89.3053 123.556 89.2988 123.556 89.2818 123.557C89.1519 123.566 89.0229 123.578 88.8926 123.582C88.6981 123.586 88.5066 123.571 88.3137 123.557C88.2774 123.552 88.1632 123.542 88.135 123.536C88.0078 123.512 87.8813 123.483 87.7564 123.448C87.6627 123.422 87.5697 123.393 87.4778 123.361C87.4282 123.344 87.3793 123.326 87.3303 123.307C87.3206 123.302 87.3156 123.3 87.3035 123.294C86.7531 123.043 86.0294 123.119 85.7171 123.71C85.4478 124.22 85.5444 125.027 86.133 125.297C87.9038 126.108 89.8899 126.08 91.6375 125.21C93.2808 124.391 94.4755 122.706 94.7582 120.897C94.9238 119.838 94.8817 118.754 94.4955 117.743C94.2795 117.179 93.7049 116.728 93.0692 116.933C92.5185 117.112 92.0274 117.753 92.2595 118.36C92.3408 118.572 92.4099 118.788 92.4613 119.01C92.485 119.113 92.5027 119.216 92.5195 119.32C92.5223 119.354 92.5292 119.421 92.5323 119.471C92.5471 119.698 92.5463 119.926 92.5304 120.153C92.5267 120.206 92.5215 120.26 92.5161 120.313C92.4978 120.414 92.4814 120.515 92.4589 120.616C92.4088 120.839 92.3384 121.054 92.2662 121.27C92.2575 121.296 92.2536 121.309 92.2491 121.324C92.244 121.335 92.2414 121.339 92.2346 121.354C92.179 121.471 92.1222 121.588 92.059 121.701C91.9607 121.878 91.8482 122.044 91.732 122.21L91.6221 122.337C91.5461 122.422 91.4669 122.504 91.3849 122.582C91.3232 122.641 91.2582 122.697 91.1937 122.752C91.1738 122.767 91.0836 122.841 91.0536 122.862C90.8665 122.991 90.6703 123.106 90.4672 123.207Z" fill="#533F85"/>
<path d="M88.7879 116.787C88.6129 116.781 88.7024 116.778 88.7879 116.787V116.787Z" fill="#BC8CBE"/>
<path d="M83.4624 120.743C83.6027 121.333 84.3075 121.741 84.8886 121.553C85.5039 121.354 85.8486 120.759 85.6984 120.127C85.6792 120.046 85.665 119.964 85.6473 119.883L85.6439 119.85C85.6315 119.703 85.6277 119.555 85.6325 119.407C85.6348 119.334 85.6392 119.261 85.6454 119.189C85.6924 119.131 85.7258 118.801 85.7465 118.729C85.7705 118.646 85.7967 118.563 85.8259 118.482C85.8301 118.47 85.8362 118.457 85.8428 118.443C85.8349 118.456 85.8289 118.467 85.8189 118.484C85.8937 118.357 85.9464 118.216 86.0209 118.088C86.0644 118.013 86.1105 117.94 86.1589 117.868L86.2138 117.789C86.2185 117.783 86.2168 117.786 86.2229 117.778L86.3208 117.667L86.4759 117.508L86.6406 117.358C86.6459 117.353 86.6467 117.352 86.6511 117.348C86.7798 117.26 86.9077 117.174 87.0447 117.099C87.1205 117.057 87.1986 117.021 87.2755 116.981C87.4142 116.932 87.5527 116.885 87.6953 116.847C87.767 116.829 87.8394 116.812 87.9121 116.797C87.9518 116.789 88.2535 116.714 88.0506 116.77C87.8562 116.824 88.1413 116.766 88.1915 116.764C88.2655 116.76 88.3396 116.758 88.4137 116.758C88.5621 116.759 88.7091 116.781 88.8568 116.785C88.828 116.784 88.8082 116.783 88.7875 116.783C88.8069 116.785 88.8258 116.787 88.8411 116.79C88.9382 116.809 89.0338 116.833 89.1292 116.859C89.7138 117.019 90.4164 116.661 90.5554 116.05C90.6949 115.437 90.3716 114.795 89.7456 114.623C88.0302 114.153 86.1175 114.63 84.8362 115.868C83.5498 117.111 83.0529 119.019 83.4624 120.743Z" fill="#BC8CBE"/>
<path d="M85.8438 118.446C85.8816 118.366 85.9402 118.281 85.8438 118.446V118.446Z" fill="#BC8CBE"/>
<path d="M87.9911 117.742C86.499 117.742 86.4965 120.061 87.9911 120.061C89.4831 120.061 89.4857 117.742 87.9911 117.742Z" fill="#BC8CBE"/>
<path d="M45.0626 130.109C41.0239 130.109 37.75 133.383 37.75 137.422C37.75 141.461 41.0241 144.735 45.0626 144.735C49.1014 144.735 52.3753 141.461 52.3753 137.422C52.3753 133.383 49.1014 130.109 45.0626 130.109Z" fill="#E49E3E"/>
<path d="M49.0508 141.412C51.2546 139.208 51.2546 135.635 49.0508 133.432C46.8471 131.228 43.2741 131.228 41.0703 133.432C38.8666 135.635 38.8666 139.208 41.0703 141.412C43.2741 143.616 46.8471 143.616 49.0508 141.412Z" fill="#785BA3"/>
<path d="M49.8062 135.568C49.6246 135.093 49.1411 134.713 48.606 134.886C48.1427 135.036 47.7294 135.576 47.9245 136.087C47.9928 136.266 48.0509 136.448 48.0943 136.634C48.1143 136.721 48.1293 136.808 48.1433 136.895C48.1456 136.924 48.1512 136.98 48.1541 137.022C48.1665 137.213 48.1658 137.405 48.1525 137.595L48.1403 137.731C48.1249 137.816 48.1111 137.901 48.0921 137.985C48.05 138.173 47.9908 138.353 47.9299 138.536C47.9226 138.558 47.9194 138.569 47.9156 138.581C47.9114 138.59 47.9092 138.594 47.9035 138.606C47.8566 138.705 47.8088 138.803 47.7557 138.899C47.6731 139.047 47.5784 139.187 47.4806 139.326L47.388 139.434C47.3241 139.505 47.2574 139.574 47.1884 139.64C47.1365 139.69 47.0817 139.736 47.0272 139.783C47.0102 139.796 46.9348 139.858 46.9096 139.875C46.7524 139.984 46.5872 140.081 46.4163 140.166L46.2903 140.226C46.2842 140.228 46.2816 140.229 46.2744 140.232C46.1969 140.259 46.1205 140.288 46.0422 140.313C45.8583 140.371 45.6728 140.409 45.4846 140.45C45.4672 140.454 45.4588 140.456 45.448 140.459C45.4387 140.459 45.433 140.459 45.4188 140.46C45.3096 140.468 45.2009 140.478 45.0913 140.481C44.9277 140.485 44.7667 140.471 44.6044 140.46C44.5739 140.456 44.4777 140.447 44.4539 140.443C44.3467 140.422 44.2402 140.397 44.1352 140.368C44.0562 140.346 43.978 140.322 43.9007 140.295L43.7767 140.249C43.7686 140.246 43.7641 140.244 43.754 140.239C43.2909 140.027 42.6819 140.092 42.4192 140.589C42.1924 141.018 42.2737 141.697 42.7692 141.924C44.2593 142.606 45.9306 142.583 47.4012 141.851C48.7841 141.162 49.7895 139.744 50.0274 138.222C50.1669 137.33 50.1315 136.418 49.8062 135.568Z" fill="#533F85"/>
<path d="M42.4038 137.57C42.3876 137.502 42.3757 137.433 42.3607 137.365L42.358 137.338C42.3476 137.214 42.3444 137.089 42.3483 136.964C42.3502 136.903 42.3541 136.842 42.3592 136.781C42.3989 136.732 42.4268 136.455 42.4443 136.394C42.4644 136.324 42.4866 136.255 42.5111 136.186C42.5159 136.173 42.5242 136.157 42.5319 136.141C42.5227 136.157 42.5199 136.163 42.5052 136.187C42.5681 136.081 42.6124 135.962 42.6752 135.854C42.7117 135.791 42.7506 135.73 42.7912 135.67L42.8371 135.603C42.8413 135.598 42.8399 135.6 42.845 135.594L42.9274 135.5L43.058 135.366L43.1965 135.24C43.2012 135.236 43.2017 135.235 43.2054 135.232C43.3137 135.158 43.4214 135.086 43.5366 135.022C43.6003 134.987 43.6661 134.957 43.7308 134.923C43.8474 134.882 43.9641 134.842 44.0841 134.811L44.2665 134.768C44.2998 134.762 44.5538 134.698 44.3832 134.746C44.2196 134.791 44.4594 134.742 44.5018 134.74C44.564 134.737 44.6264 134.735 44.6887 134.736C44.8137 134.736 44.9372 134.755 45.0616 134.758C45.0374 134.757 45.0208 134.757 45.0034 134.756C45.0197 134.758 45.0355 134.76 45.0483 134.762C45.1301 134.778 45.2105 134.799 45.2909 134.821C45.7827 134.955 46.3739 134.653 46.4912 134.139C46.6086 133.624 46.3365 133.083 45.8097 132.939C44.366 132.543 42.7565 132.944 41.6783 133.986C40.5958 135.032 40.1776 136.638 40.5223 138.089C40.6403 138.585 41.2333 138.928 41.7225 138.77C42.2401 138.603 42.5303 138.102 42.4038 137.57Z" fill="#BC8CBE"/>
<path d="M45.0046 134.754C44.8569 134.75 44.9327 134.748 45.0046 134.754V134.754Z" fill="#BC8CBE"/>
<path d="M42.5332 136.139C42.5629 136.08 42.5915 136.038 42.5332 136.139V136.139Z" fill="#BC8CBE"/>
<path d="M44.3331 135.562C43.0775 135.562 43.0755 137.514 44.3331 137.514C45.5888 137.514 45.5908 135.562 44.3331 135.562Z" fill="#BC8CBE"/>
<path d="M252.957 153.064C252.263 164.685 249.579 176.185 245.069 186.918C243.8 189.937 242.369 192.889 240.818 195.772C239.792 197.678 242.695 199.379 243.723 197.47C249.429 186.866 253.356 175.308 255.205 163.406C255.738 159.978 256.114 156.528 256.321 153.064C256.45 150.902 253.085 150.909 252.957 153.064Z" fill="#E49E3E"/>
<path d="M254.906 146.117C252.741 146.117 252.738 149.481 254.906 149.481C257.071 149.481 257.074 146.117 254.906 146.117Z" fill="#E49E3E"/>
<path d="M219.404 173.281C220.028 178.499 222.431 183.377 226.277 186.979C227.856 188.458 230.24 186.084 228.655 184.6C225.434 181.583 223.204 177.43 222.738 173.01C222.242 168.303 223.529 163.641 226.28 159.803C226.809 159.065 226.409 157.93 225.676 157.502C224.83 157.007 223.906 157.365 223.375 158.105C220.276 162.43 218.771 167.984 219.404 173.281Z" fill="#E49E3E"/>
<path d="M176.065 153.359C176.193 167.693 176.322 182.027 176.45 196.361C176.47 198.525 179.834 198.53 179.814 196.361C179.686 182.027 179.557 167.693 179.429 153.359C179.409 151.195 176.045 151.19 176.065 153.359Z" fill="#E49E3E"/>
<path d="M115.147 198.696C115.228 199.601 115.861 200.378 116.829 200.378C117.675 200.378 118.593 199.606 118.511 198.696C117.355 185.855 116.199 173.013 115.043 160.172C114.715 156.527 114.387 152.882 114.059 149.237C113.977 148.332 113.344 147.555 112.377 147.555C111.53 147.555 110.613 148.327 110.695 149.237C111.85 162.078 113.006 174.92 114.162 187.761C114.49 191.406 114.818 195.051 115.147 198.696Z" fill="#E49E3E"/>
<path d="M63.4032 152.429C62.6821 152.851 62.2587 153.994 62.7997 154.73C67.9582 161.748 70.4178 170.408 69.6979 179.09C69.6227 179.996 70.5248 180.772 71.38 180.772C72.3525 180.772 72.9868 179.999 73.0621 179.09C73.8244 169.897 71.1684 160.465 65.7047 153.032C65.1673 152.301 64.2456 151.936 63.4032 152.429Z" fill="#E49E3E"/>
<path d="M52.0177 199.998C52.5785 200.714 53.8086 200.586 54.3966 199.998C55.1031 199.291 54.9589 198.336 54.3966 197.619C48.0112 189.472 43.0916 180.145 39.9276 170.293C39.0206 167.469 38.2587 164.6 37.6335 161.7C37.1774 159.585 33.9335 160.48 34.3895 162.595C36.6632 173.139 40.8249 183.296 46.614 192.399C48.2836 195.025 50.0985 197.549 52.0177 199.998Z" fill="#E49E3E"/>
<path d="M35.5034 157.673C35.6524 157.653 35.8015 157.632 35.9507 157.612C36.2356 157.533 36.4829 157.388 36.6929 157.18C36.7903 157.082 36.888 156.985 36.9855 156.887C37.1494 156.735 37.2655 156.554 37.3333 156.346C37.4386 156.145 37.4869 155.929 37.4781 155.698C37.4868 155.466 37.4386 155.25 37.3333 155.05C37.2655 154.841 37.1496 154.661 36.9855 154.508C36.8719 154.421 36.7584 154.333 36.645 154.245C36.3827 154.093 36.0997 154.017 35.796 154.016C35.647 154.036 35.4978 154.056 35.3488 154.076C35.0639 154.156 34.8166 154.3 34.6066 154.508C34.5092 154.606 34.4116 154.703 34.3141 154.801C34.1501 154.953 34.0342 155.134 33.9662 155.342C33.8609 155.543 33.8126 155.759 33.8213 155.99C33.8126 156.222 33.8608 156.438 33.9662 156.639C34.034 156.847 34.1501 157.028 34.3141 157.18C34.4275 157.268 34.5411 157.355 34.6545 157.443C34.9168 157.595 35.1999 157.672 35.5034 157.673Z" fill="#E49E3E"/>
<path d="M151.811 195.986C160.03 193.347 167.058 187.389 170.884 179.633C171.839 177.698 168.938 175.992 167.979 177.935C164.535 184.916 158.344 190.357 150.916 192.742C148.863 193.401 149.741 196.65 151.811 195.986Z" fill="#E49E3E"/>
<path d="M182.218 182.164C181.509 182.578 181.058 183.74 181.614 184.465C185.932 190.1 193.43 192.774 200.322 190.843C202.403 190.259 201.519 187.012 199.427 187.599C194.119 189.087 187.908 187.19 184.519 182.767C183.968 182.047 183.071 181.665 182.218 182.164Z" fill="#E49E3E"/>
<path d="M96.4996 189.818C95.6127 190.016 95.0926 191.042 95.3248 191.887C95.5758 192.8 96.5044 193.26 97.394 193.062C103.298 191.745 108.528 187.686 111.257 182.286C111.667 181.475 111.471 180.462 110.654 179.985C109.905 179.547 108.764 179.774 108.352 180.588C105.97 185.301 101.633 188.673 96.4996 189.818Z" fill="#E49E3E"/>
<path d="M86.1052 109.659C87.0768 109.392 87.4034 108.493 87.2801 107.59C86.7471 103.682 86.214 99.7743 85.681 95.8668C85.558 94.9657 84.4042 94.4742 83.6118 94.6919C82.6402 94.9589 82.3136 95.8573 82.437 96.761C82.9701 100.669 83.5031 104.576 84.0362 108.484C84.1589 109.385 85.3128 109.876 86.1052 109.659Z" fill="#E49E3E"/>
<path d="M37.7193 118.665C36.8888 118.934 36.2476 119.84 36.5445 120.734C37.3217 123.076 38.0992 125.417 38.8765 127.758C39.1534 128.591 40.0501 129.223 40.9457 128.933C41.7762 128.664 42.4173 127.758 42.1205 126.864C41.3432 124.522 40.5658 122.181 39.7884 119.84C39.5118 119.007 38.615 118.375 37.7193 118.665Z" fill="#E49E3E"/>
<path d="M144.255 60.1188C143.418 60.1562 142.48 60.8631 142.573 61.8009C142.872 64.823 143.172 67.8452 143.472 70.8675C143.558 71.7405 144.183 72.593 145.153 72.5496C145.991 72.5121 146.929 71.8052 146.836 70.8675C146.536 67.8452 146.237 64.823 145.937 61.8009C145.851 60.9279 145.225 60.0753 144.255 60.1188Z" fill="#E49E3E"/>
<path d="M145.441 115.257C146.322 115.218 147.16 114.517 147.123 113.575C147.026 111.137 146.929 108.7 146.832 106.262C146.797 105.384 146.084 104.538 145.15 104.58C144.269 104.619 143.431 105.32 143.468 106.262C143.565 108.7 143.662 111.137 143.758 113.575C143.793 114.453 144.507 115.299 145.441 115.257Z" fill="#E49E3E"/>
<path d="M203.144 109.323C203.957 109.546 205.054 109.047 205.213 108.148C206.011 103.665 206.808 99.1829 207.605 94.7004C207.764 93.807 207.363 92.8877 206.43 92.6312C205.617 92.4077 204.521 92.9069 204.361 93.806C203.564 98.2886 202.767 102.771 201.969 107.254C201.811 108.147 202.211 109.066 203.144 109.323Z" fill="#E49E3E"/>
<path d="M251.924 118.405C251.052 118.206 250.084 118.667 249.855 119.58C249.244 122.011 248.634 124.443 248.024 126.874C247.811 127.727 248.3 128.739 249.199 128.944C250.071 129.142 251.04 128.682 251.269 127.769C251.879 125.337 252.489 122.906 253.099 120.474C253.312 119.622 252.823 118.61 251.924 118.405Z" fill="#E49E3E"/>
<path d="M227.658 146.272C228.51 146.77 229.422 146.404 229.96 145.668C234.749 139.114 239.859 132.802 245.257 126.74C246.693 125.128 244.322 122.74 242.878 124.361C237.29 130.637 232.013 137.185 227.055 143.97C226.518 144.704 226.931 145.846 227.658 146.272Z" fill="#F9D993"/>
<path d="M209.432 100.529C208.606 100.756 207.949 101.739 208.257 102.598C212.274 113.779 214.923 125.439 216.055 137.266C216.141 138.171 216.766 138.948 217.737 138.948C218.579 138.948 219.506 138.176 219.419 137.266C218.258 125.133 215.623 113.177 211.501 101.704C211.194 100.85 210.356 100.275 209.432 100.529Z" fill="#F9D993"/>
<path d="M218.924 142.755C221.088 142.755 221.092 139.391 218.924 139.391C216.759 139.391 216.755 142.755 218.924 142.755Z" fill="#F9D993"/>
<path d="M149.674 68.144C157.718 79.13 164.282 91.2058 169.031 103.97C170.375 107.582 171.574 111.245 172.636 114.95C173.232 117.027 176.479 116.144 175.88 114.056C172.062 100.739 166.414 87.9344 159.126 76.1516C157.072 72.8316 154.885 69.596 152.579 66.4462C152.043 65.7143 151.119 65.3506 150.278 65.8428C149.556 66.2651 149.135 67.4069 149.674 68.144Z" fill="#F9D993"/>
<path d="M176.213 120.81C178.378 120.81 178.381 117.445 176.213 117.445C174.048 117.445 174.044 120.81 176.213 120.81Z" fill="#F9D993"/>
<path d="M87.1509 97.5402C91.9801 105.059 96.1665 112.997 99.5783 121.258C99.9247 122.097 100.694 122.695 101.647 122.433C102.441 122.215 103.171 121.209 102.822 120.364C99.2959 111.826 95.0488 103.616 90.0556 95.8423C88.8893 94.0264 85.9761 95.7114 87.1509 97.5402Z" fill="#F9D993"/>
<path d="M103.078 127.247C105.243 127.247 105.246 123.883 103.078 123.883C100.913 123.883 100.91 127.247 103.078 127.247Z" fill="#F9D993"/>
<path d="M58.7921 143.462C59.9461 145.287 62.8586 143.601 61.697 141.764C57.244 134.721 51.8326 128.299 45.6211 122.744C44.0116 121.305 41.6244 123.676 43.2422 125.123C49.248 130.494 54.4859 136.651 58.7921 143.462Z" fill="#F9D993"/>
<path d="M63.5858 147.723C65.7505 147.723 65.7542 144.359 63.5858 144.359C61.4211 144.359 61.4175 147.723 63.5858 147.723Z" fill="#F9D993"/>
<path d="M114.304 125.708C117.444 113.408 121.858 101.449 127.517 90.0844C129.132 86.8413 130.847 83.6491 132.652 80.5079C133.732 78.6273 130.826 76.931 129.747 78.8098C123.308 90.0178 118.05 101.911 114.103 114.22C112.981 117.72 111.969 121.253 111.06 124.813C110.524 126.912 113.767 127.807 114.304 125.708Z" fill="#E49E3E"/>
<path d="M134.088 76.3486C136.252 76.3486 136.256 72.9844 134.088 72.9844C131.923 72.9844 131.92 76.3486 134.088 76.3486Z" fill="#E49E3E"/>
<path d="M73.5356 155.912C74.3854 155.912 75.2957 155.141 75.2176 154.23C74.259 143.044 74.8944 131.737 77.1919 120.745C77.8504 117.594 78.6438 114.473 79.5583 111.387C80.1747 109.307 76.929 108.419 76.3143 110.493C73.0572 121.484 71.3947 132.962 71.4182 144.427C71.4249 147.7 71.574 150.97 71.8534 154.23C71.9311 155.136 72.5711 155.912 73.5356 155.912Z" fill="#E49E3E"/>
<path d="M79.6756 107.645C81.8404 107.645 81.844 104.281 79.6756 104.281C77.511 104.281 77.5073 107.645 79.6756 107.645Z" fill="#E49E3E"/>
<path d="M183.059 142.673C185.865 132.991 189.629 123.622 194.314 114.697C195.319 112.782 192.416 111.079 191.409 112.999C186.593 122.173 182.699 131.827 179.815 141.779C179.211 143.862 182.456 144.752 183.059 142.673Z" fill="#E49E3E"/>
<path d="M194.916 109.204C195.068 109.368 195.248 109.484 195.457 109.552C195.657 109.657 195.873 109.706 196.105 109.697C196.254 109.677 196.403 109.657 196.552 109.637C196.837 109.557 197.084 109.413 197.294 109.204C197.382 109.091 197.47 108.977 197.557 108.864C197.71 108.602 197.786 108.319 197.787 108.015C197.787 107.917 197.787 107.82 197.787 107.722C197.796 107.491 197.747 107.275 197.642 107.074C197.574 106.866 197.458 106.685 197.294 106.533C197.142 106.369 196.961 106.253 196.753 106.185C196.553 106.08 196.336 106.031 196.105 106.04C195.956 106.06 195.807 106.08 195.658 106.1C195.373 106.18 195.125 106.324 194.915 106.533C194.828 106.646 194.74 106.76 194.652 106.873C194.5 107.136 194.424 107.419 194.423 107.722C194.423 107.82 194.423 107.917 194.423 108.015C194.414 108.247 194.462 108.463 194.568 108.663C194.636 108.871 194.751 109.052 194.916 109.204Z" fill="#E49E3E"/>
</svg>
