<svg width="307" height="340" viewBox="0 0 307 340" fill="none" xmlns="http://www.w3.org/2000/svg">
<path d="M150.471 179.226C149.164 179.573 148.21 179.805 147.675 179.93C140.564 181.598 133.447 177.185 131.779 170.073C130.114 162.968 134.523 155.861 141.62 154.18C152.844 151.517 184.319 142.651 193.493 125.674C196.459 120.186 198.13 113.278 195.691 105.733C192.028 94.408 186.204 82.9507 181.853 77.5263C177.695 72.3434 172.207 69.5113 176.343 64.3108C180.479 59.1103 184.085 58.3079 189.288 62.4433C195.99 67.7725 205.028 74.3529 215.454 98.0981C221.288 111.387 219.53 125.356 212.971 137.455C198.167 164.762 162.124 176.128 150.471 179.226Z" fill="#E9C699"/>
<path d="M217.969 105.711C218.572 114.743 217.575 123.908 211.549 125.919C203.155 128.72 198.204 123.729 195.827 120.071C195.237 122.065 194.431 123.941 193.493 125.675C188.76 134.433 178.093 141.027 167.332 145.73C168.609 155.292 170.06 165.329 171.28 171.928C186.024 165.45 203.68 154.595 212.97 137.457C218.287 127.651 220.447 116.616 217.969 105.711Z" fill="#D6B489"/>
<path d="M198.037 53.7743C204.432 36.8711 195.915 17.9835 179.011 11.5877C162.108 5.19183 143.221 13.7097 136.825 30.6129C130.429 47.516 138.947 66.4036 155.85 72.7994C172.753 79.1953 191.641 70.6774 198.037 53.7743Z" fill="#D6AF00"/>
<mask id="mask0_4413_79316" style="mask-type:luminance" maskUnits="userSpaceOnUse" x="134" y="9" width="67" height="66">
<path d="M198.039 53.7664C204.434 36.8633 195.917 17.9757 179.013 11.5799C162.11 5.18402 143.223 13.7019 136.827 30.6051C130.431 47.5082 138.949 66.3958 155.852 72.7916C172.755 79.1875 191.643 70.6696 198.039 53.7664Z" fill="white"/>
</mask>
<g mask="url(#mask0_4413_79316)">
<path d="M169.6 29.4609C165.869 30.6098 162.072 31.8284 158.37 33.069C157.498 36.8746 156.658 40.7736 155.881 44.5995C158.74 47.2571 161.698 49.9349 164.623 52.5175C168.353 51.3695 172.151 50.1518 175.856 48.9121C176.727 45.1047 177.568 41.2048 178.345 37.3772C175.485 34.7196 172.525 32.0418 169.6 29.4609Z" stroke="#B59400" stroke-miterlimit="10"/>
<path d="M138.627 40.3438C135.953 41.4618 133.697 42.4952 131.99 43.3981C131.641 46.5609 131.382 49.6223 131.166 52.5567C132.475 55 134.227 57.5491 136.307 60.0497C138.574 59.593 141.206 58.9969 144.15 58.2677C144.531 55.0132 145.026 51.5207 145.629 47.8994C143.062 45.2982 140.697 42.743 138.627 40.3438Z" stroke="#B59400" stroke-miterlimit="10"/>
<path d="M135.34 23.875C132.982 25.3387 131.077 26.835 129.818 28.3066C129.467 31.3521 129.227 34.3571 129.047 37.2616C129.654 39.0726 130.628 41.1412 131.989 43.402C133.696 42.4991 135.953 41.4657 138.627 40.3476C139.23 36.8313 139.948 33.2567 140.776 29.7544C138.702 27.5854 136.899 25.6244 135.34 23.875Z" stroke="#B59400" stroke-miterlimit="10"/>
<path d="M155.837 44.6641C152.202 45.8324 148.731 46.9486 145.565 47.9662C144.964 51.5848 144.471 55.0739 144.094 58.324C146.653 60.8493 149.401 63.3049 152.182 65.5621C155.372 64.8647 158.781 64.0394 162.314 63.095C163.008 59.8679 163.774 56.3092 164.577 52.5803C161.652 49.9986 158.695 47.3216 155.837 44.6641Z" stroke="#B59400" stroke-miterlimit="10"/>
<path d="M144.164 58.3125C141.22 59.0408 138.588 59.636 136.32 60.0919C136.131 63.0492 136.029 65.8046 135.977 68.3634C138.149 70.6489 140.643 72.7227 143.259 74.428C145.806 74.0833 148.5 73.7209 151.382 73.2712C151.549 71.1153 151.846 68.5089 152.258 65.5507C149.476 63.2943 146.728 60.8387 144.164 58.3125Z" stroke="#B59400" stroke-miterlimit="10"/>
<path d="M198.069 21.8984C195.8 22.3534 193.168 22.9477 190.225 23.6751C189.847 26.9261 189.352 30.416 188.75 34.0364C191.319 36.6376 193.686 39.1946 195.756 41.5956C198.431 40.4802 200.689 39.4486 202.397 38.5492C202.744 35.3864 203.003 32.3268 203.218 29.3932C201.908 26.9473 200.152 24.3982 198.069 21.8984Z" stroke="#B59400" stroke-miterlimit="10"/>
<path d="M191.125 7.57812C188.578 7.92288 185.885 8.28528 183.004 8.73408C182.838 10.8864 182.542 13.4893 182.131 16.444C184.914 18.6986 187.662 21.1534 190.226 23.6787C193.169 22.9512 195.801 22.3569 198.07 21.902C198.258 18.9464 198.359 16.1918 198.411 13.6348C196.238 11.3511 193.743 9.27988 191.125 7.57812Z" stroke="#B59400" stroke-miterlimit="10"/>
<path d="M202.405 38.5938C200.698 39.4949 198.442 40.5274 195.767 41.6437C195.165 45.1601 194.448 48.7346 193.621 52.2378C195.696 54.4077 197.499 56.3714 199.059 58.1216C201.416 56.6579 203.32 55.1625 204.578 53.6926C204.929 50.6471 205.168 47.6422 205.347 44.7386C204.741 42.9249 203.767 40.8554 202.405 38.5938Z" stroke="#B59400" stroke-miterlimit="10"/>
<path d="M162.314 63.1016C158.781 64.045 155.371 64.8703 152.182 65.5687C151.773 68.5243 151.478 71.128 151.314 73.283C154.029 74.9918 156.729 76.3682 159.261 77.3496C162.077 76.9916 165.046 76.5728 168.14 76.0314C168.862 74.3393 169.664 72.0424 170.511 69.3046C167.921 67.4767 165.153 65.3879 162.314 63.1016Z" stroke="#B59400" stroke-miterlimit="10"/>
<path d="M146.849 10.9453C143.72 12.0598 140.723 13.3234 138.045 14.7112C136.995 17.5769 136.074 20.6956 135.281 23.9095C136.836 25.658 138.635 27.6181 140.705 29.7854C143.599 28.4505 146.852 27.112 150.288 25.8202C151.237 22.2721 152.249 18.8977 153.291 15.8751C150.923 14.0094 148.78 12.3799 146.849 10.9453Z" stroke="#B59400" stroke-miterlimit="10"/>
<path d="M175.872 48.9609C172.167 50.2007 168.37 51.4183 164.64 52.5664C163.836 56.2961 163.069 59.8557 162.373 63.0846C165.212 65.3701 167.98 67.4598 170.567 69.2877C174.002 68.3786 177.497 67.339 180.91 66.1839C181.95 63.1631 182.961 59.7887 183.909 56.2397C181.414 53.9807 178.705 51.5277 175.872 48.9609Z" stroke="#B59400" stroke-miterlimit="10"/>
<path d="M180.91 66.1875C177.497 67.3426 174.002 68.3822 170.568 69.2912C169.72 72.0308 168.915 74.3295 168.191 76.0242C170.562 77.1793 172.711 78.0125 174.608 78.598C177.516 78.3167 180.552 77.9058 183.609 77.3159C184.912 75.7984 186.177 73.6673 187.372 71.1199C185.435 69.6862 183.285 68.055 180.91 66.1875Z" stroke="#B59400" stroke-miterlimit="10"/>
<path d="M159.671 3.4375C156.762 3.71966 153.725 4.13231 150.669 4.72396C149.363 6.24584 148.097 8.37964 146.9 10.9279C148.832 12.3616 150.978 13.991 153.347 15.8568C156.757 14.6991 160.251 13.6577 163.686 12.746C164.537 10.0064 165.346 7.706 166.076 6.01129C163.709 4.85798 161.565 4.02474 159.671 3.4375Z" stroke="#B59400" stroke-miterlimit="10"/>
<path d="M163.686 12.7422C160.251 13.6539 156.758 14.6952 153.347 15.853C152.305 18.8747 151.294 22.2473 150.346 25.7963C152.835 28.0527 155.539 30.5039 158.37 33.0689C162.073 31.8283 165.869 30.6097 169.6 29.4608C170.406 25.7311 171.176 22.1697 171.874 18.9408C169.036 16.6553 166.27 14.5683 163.686 12.7422Z" stroke="#B59400" stroke-miterlimit="10"/>
<path d="M150.29 25.8203C146.853 27.1121 143.6 28.4514 140.706 29.7855C139.88 33.2869 139.164 36.8597 138.562 40.3734C140.627 42.7708 142.987 45.3252 145.552 47.9264C148.717 46.908 152.189 45.7908 155.823 44.6225C156.598 40.7966 157.438 36.8985 158.31 33.0929C155.48 30.527 152.777 28.0767 150.29 25.8203Z" stroke="#B59400" stroke-miterlimit="10"/>
<path d="M188.71 34.1016C185.537 35.1217 182.06 36.2398 178.421 37.409C177.644 41.2366 176.804 45.1356 175.932 48.9421C178.765 51.5088 181.472 53.9618 183.965 56.22C187.407 54.9291 190.667 53.5915 193.572 52.2574C194.4 48.7534 195.118 45.1771 195.722 41.6598C193.648 39.2597 191.281 36.7036 188.71 34.1016Z" stroke="#B59400" stroke-miterlimit="10"/>
<path d="M193.573 52.2578C190.669 53.5919 187.409 54.9304 183.966 56.2203C183.018 59.7702 182.007 63.1446 180.967 66.1672C183.34 68.0356 185.488 69.666 187.424 71.1014C190.556 69.9896 193.559 68.7287 196.245 67.3435C197.297 64.4787 198.223 61.36 199.02 58.1434C197.457 56.3923 195.65 54.4287 193.573 52.2578Z" stroke="#B59400" stroke-miterlimit="10"/>
<path d="M175.014 4.67969C172.196 5.03767 169.223 5.45826 166.128 6.00141C165.401 7.69435 164.594 9.99216 163.744 12.73C166.329 14.556 169.095 16.6431 171.934 18.9277C175.469 17.9816 178.883 17.1545 182.077 16.4535C182.49 13.4971 182.787 10.8924 182.955 8.73921C180.24 7.03393 177.542 5.66018 175.014 4.67969Z" stroke="#B59400" stroke-miterlimit="10"/>
<path d="M182.077 16.4531C178.882 17.1532 175.469 17.9812 171.933 18.9273C171.236 22.1553 170.468 25.7149 169.662 29.4447C172.588 32.0255 175.546 34.7025 178.407 37.3609C182.045 36.1917 185.524 35.0746 188.697 34.0544C189.3 30.4331 189.796 26.9405 190.176 23.6887C187.611 21.1634 184.86 18.7086 182.077 16.4531Z" stroke="#B59400" stroke-miterlimit="10"/>
</g>
<path opacity="0.3" d="M184.951 23.731C186.67 30.1915 182.824 36.8222 176.364 38.5407C169.903 40.2592 163.273 36.4139 161.554 29.9534C159.836 23.4929 163.681 16.8623 170.141 15.1438C176.603 13.4261 183.234 17.2705 184.951 23.731Z" fill="white"/>
<path opacity="0.1" d="M174.164 67.5546C157.757 71.9183 140.947 63.0084 135.119 47.4334C135.292 48.4914 135.516 49.5513 135.797 50.6085C140.442 68.074 158.366 78.467 175.832 73.822C193.297 69.177 203.69 51.253 199.045 33.7876C198.764 32.7295 198.431 31.6987 198.056 30.6953C200.735 47.108 190.572 63.1909 174.164 67.5546Z" fill="black"/>
<path d="M35.7301 236.727C32.5523 236.914 29.2784 235.679 26.9815 233.149C23.2368 229.026 23.4193 222.881 27.4153 219.297C59.2293 190.766 98.5619 172.801 120.012 162.394C122.798 161.042 125.905 159.534 127.704 158.614C128.211 158.203 128.753 157.808 129.328 157.434C136.839 152.544 147.297 152.843 152.554 158.319C155.408 161.29 156.209 165.285 154.741 169.233C152.247 175.941 146.901 178.237 133.135 184.146C111.922 193.252 69.5554 207.037 38.2739 232.833C36.581 234.23 37.8234 236.603 35.7301 236.727Z" fill="#DBB78A"/>
<path d="M89.5734 177.508C82.538 181.219 75.0821 185.374 67.4938 189.997C70.3039 195.039 73.5231 206.797 54.9141 220.771C70.154 210.963 86.5111 203.303 101.128 197.143C97.4324 190.813 93.3958 183.938 89.5734 177.508Z" fill="#C4A57E"/>
<path d="M262.119 310.992C251.257 311.662 237.986 306.671 221.901 295.916C208.468 286.935 197.609 276.966 197.153 276.545C191.782 271.594 191.441 263.228 196.392 257.857C201.342 252.485 209.71 252.145 215.08 257.096C215.353 257.345 224.649 265.838 235.877 273.438C250.565 283.382 257.637 284.543 259.977 284.585C260.955 280.936 261.039 265.892 253.146 241.987C250.856 235.051 254.621 227.572 261.558 225.281C268.49 222.988 275.972 226.756 278.264 233.693C281.241 242.71 285.227 259.184 286.485 271.364C288.97 295.401 279.93 304.864 271.911 308.57C268.892 309.967 265.63 310.776 262.119 310.992Z" fill="#CCAD86"/>
<path d="M221.903 295.923C228.781 300.522 235.141 304.059 241.022 306.558C239.634 302.396 239.876 297.452 243.107 291.759C245.283 287.925 246.718 284.125 247.622 280.486C244.408 278.856 240.526 276.591 235.879 273.445C224.651 265.843 215.355 257.351 215.083 257.103C209.712 252.153 201.344 252.492 196.394 257.864C191.442 263.234 191.784 271.602 197.155 276.552C197.61 276.972 208.469 286.942 221.903 295.923Z" fill="#C4A57E"/>
<path d="M267.833 224.802C267.552 224.756 267.268 224.719 266.983 224.691C266.87 224.68 266.756 224.667 266.643 224.659C264.971 224.539 263.249 224.732 261.558 225.291C261.138 225.431 260.73 225.59 260.333 225.766C260.202 225.824 260.08 225.894 259.952 225.955C259.692 226.08 259.431 226.206 259.182 226.347C259.035 226.431 258.896 226.524 258.753 226.613C258.535 226.748 258.316 226.881 258.107 227.027C257.962 227.129 257.824 227.24 257.683 227.347C257.491 227.495 257.298 227.641 257.115 227.797C256.977 227.915 256.846 228.041 256.713 228.165C256.541 228.324 256.371 228.484 256.208 228.652C256.08 228.785 255.958 228.923 255.836 229.06C255.683 229.231 255.533 229.404 255.391 229.583C255.275 229.727 255.164 229.876 255.055 230.025C254.921 230.208 254.79 230.393 254.666 230.583C254.564 230.738 254.466 230.896 254.37 231.055C254.254 231.249 254.143 231.446 254.037 231.644C253.95 231.808 253.866 231.972 253.786 232.14C253.688 232.344 253.597 232.552 253.51 232.76C253.438 232.931 253.369 233.101 253.304 233.275C253.225 233.489 253.155 233.706 253.087 233.924C253.032 234.099 252.976 234.274 252.93 234.451C252.87 234.675 252.821 234.902 252.773 235.131C252.736 235.307 252.695 235.482 252.665 235.661C252.626 235.897 252.599 236.135 252.573 236.373C252.553 236.548 252.529 236.722 252.515 236.898C252.497 237.149 252.495 237.401 252.491 237.653C252.489 237.82 252.479 237.987 252.484 238.154C252.49 238.435 252.515 238.718 252.541 239.001C252.553 239.141 252.556 239.281 252.573 239.421C252.625 239.844 252.694 240.267 252.788 240.689L252.789 240.692C252.885 241.128 253.005 241.564 253.147 241.998V241.999C255.881 250.278 257.657 257.492 258.771 263.54C262.258 261.924 271.683 258.645 284.822 260.152C283.188 251.257 280.857 241.97 278.847 235.518C278.837 235.486 278.827 235.455 278.818 235.423C278.631 234.826 278.446 234.25 278.266 233.704C278.137 233.313 277.986 232.936 277.826 232.566C277.778 232.456 277.727 232.35 277.677 232.242C277.55 231.973 277.416 231.709 277.275 231.452C277.218 231.35 277.163 231.247 277.103 231.146C276.703 230.465 276.248 229.829 275.744 229.241C275.669 229.154 275.591 229.07 275.515 228.986C275.322 228.774 275.125 228.569 274.92 228.37C274.838 228.291 274.758 228.211 274.674 228.134C272.855 226.459 270.598 225.321 268.17 224.858C268.057 224.837 267.945 224.82 267.833 224.802Z" fill="#CFCFCF"/>
<path d="M149.534 225.375C149.534 225.375 136.37 281.317 218.871 302.966C218.871 302.966 244.502 290.477 243.045 269.43C243.045 269.43 221.831 247.1 215.8 225.573L149.534 225.375Z" fill="#111540"/>
<path d="M254.474 246.144C254.474 246.144 257.731 236.79 279.901 238.844C279.901 238.844 294.039 242.303 301.177 239.134C308.315 235.963 308.574 225.294 300.021 220.376C291.468 215.459 270.02 211.706 258.422 217.349C240.775 225.935 254.474 246.144 254.474 246.144Z" fill="#007ABF"/>
<path d="M286.947 219.801C297.566 222.603 302.501 225.908 305.664 226.63C304.69 224.237 302.835 221.994 300.019 220.376C291.465 215.459 270.018 211.706 258.421 217.349C255.754 218.646 253.814 220.211 252.424 221.93C263.579 223.034 265.812 214.224 286.947 219.801Z" fill="#006AA6"/>
<path d="M97.517 380C95.2201 380.262 92.8262 379.925 90.568 378.9C83.9162 375.882 80.9694 368.042 83.9876 361.391C84.656 359.918 105.258 313.389 122.386 286.617C141.928 256.074 190.995 248.548 196.525 247.791C203.74 246.786 210.432 251.862 211.424 259.1C212.415 266.336 207.354 273.003 200.12 273.998C188.419 275.637 155.686 283.654 144.668 300.875C128.552 326.064 108.232 371.977 108.077 372.321C106.083 376.713 101.987 379.49 97.517 380Z" fill="#E9C699"/>
<path d="M162.629 256.836C148.528 262.401 133.326 271.109 123.84 284.474C127.374 283.608 131.283 284.092 135.119 287.445C140.536 292.18 139.859 302.748 137.536 312.815C139.953 308.537 142.355 304.489 144.671 300.87C150.258 292.138 161.427 285.776 172.608 281.408L162.629 256.836Z" fill="#D6B489"/>
<path d="M95.8242 335.953C89.078 349.928 84.3104 360.685 83.9921 361.388L83.9913 361.389C82.2939 365.13 82.4835 369.248 84.1579 372.67C85.4602 375.333 87.6619 377.576 90.5717 378.896C92.8298 379.921 95.2246 380.257 97.5207 379.995C101.989 379.486 106.087 376.709 108.08 372.315C108.146 372.17 111.844 363.818 117.309 352.328C107.181 349.867 99.7558 341.217 95.8242 335.953Z" fill="white"/>
<path d="M179.054 244.406C179.054 244.406 143.36 253.614 128.062 273.712C128.062 273.712 151.247 291.541 158.513 306.385C158.513 306.385 180.997 296.944 204.492 284.247C227.291 271.927 247.02 259.396 221.024 225.453L179.054 244.406Z" fill="#1B2266"/>
<path d="M228.969 237.722C227.408 234.685 225.396 231.44 222.885 227.961L207.884 231.388L179.054 244.406C179.054 244.406 171.465 246.365 161.787 250.445C178.873 256.291 215.642 250.839 228.969 237.722Z" fill="#14194D"/>
<path d="M124.752 155.338C124.752 155.338 129.725 146.692 153.778 142.969C153.778 142.969 165.293 161.971 190.96 165.269C190.96 165.269 212.684 193.002 232.481 223.62C232.481 223.62 195.112 259.171 149.348 246.876C149.348 246.876 138.71 216.665 121.118 190.61C121.118 190.61 106.206 180.855 106.656 163.405L124.752 155.338Z" fill="#0089D7"/>
<path d="M195.184 170.766C192.526 167.27 190.959 165.269 190.959 165.269C165.292 161.971 153.777 142.969 153.777 142.969C153.777 142.969 154.977 175.522 195.184 170.766Z" fill="#007ABF"/>
<path d="M106.654 163.398C106.654 163.398 90.8924 169.524 65.6465 182.456C65.6465 182.456 80.0682 191.558 88.5646 211.307C88.5646 211.307 110.07 199.673 123.905 194.859C122.121 190.291 114.742 181.917 106.654 163.398Z" fill="#007ABF"/>
<path d="M111.859 190.09C114.208 196.201 88.5625 211.314 88.5625 211.314C88.5625 211.314 110.068 199.68 123.903 194.866C122.12 190.298 114.74 181.925 106.653 163.406C104.179 170.712 109.51 183.98 111.859 190.09Z" fill="#006FAD"/>
<path d="M68.2291 85.7196C67.3562 98.116 70.3832 108.667 73.1801 115.497C74.0018 117.504 76.9856 116.899 76.9865 114.73C76.99 107.127 77.7457 96.4213 81.4164 89.4124C83.0264 86.3377 82.1747 82.5542 79.3787 80.4971C74.9065 77.2073 68.6197 80.1814 68.2291 85.7196Z" fill="#412622"/>
<path d="M156.321 110.822C156.987 117.763 151.087 128.76 145.761 128.077C140.68 127.425 139.944 116.44 140.584 110.069C141.136 104.577 144.3 103.707 148.21 103.777C152.262 103.851 155.752 104.903 156.321 110.822Z" fill="#E9C699"/>
<path d="M154.188 111.444C154.593 116.246 150.061 122.545 146.143 122.149C142.359 121.766 141.514 115.311 141.884 110.823C142.213 106.823 144.741 106.208 147.868 106.297C151.087 106.39 153.829 107.192 154.188 111.444Z" fill="#D6B489"/>
<path d="M147.148 114.501C147.411 115.343 146.327 116.549 144.717 117.18C143.1 117.814 141.622 117.605 141.422 116.733C141.228 115.879 142.336 114.712 143.89 114.108C145.436 113.508 146.891 113.677 147.148 114.501Z" fill="#E9C699"/>
<path d="M128.607 129.672C128.607 129.672 140.159 139.293 143.932 150.439C147.706 161.586 131.96 177.637 120.223 165.213C108.487 152.789 122.523 130.147 122.523 130.147L128.607 129.672Z" fill="#C4A57E"/>
<path d="M143.73 117.929C143.73 117.929 140.704 104.718 139.492 89.8264C138.733 80.5029 132.748 66.8677 106.141 67.7433C79.5337 68.6188 74.208 82.6288 74.3138 91.9717C74.4408 103.312 71.9322 120.291 71.9322 120.291C70.6352 124.749 69.9016 128.879 69.8505 132.204C69.5921 149.373 87.2322 163.255 109.261 162.53C131.288 161.805 147.977 146.795 146.591 129.679C146.322 126.366 145.317 122.293 143.73 117.929Z" fill="#E9C699"/>
<path d="M141.056 103.249C140.454 99.1997 139.879 94.6014 139.49 89.8268C139.385 88.5412 139.176 87.1728 138.832 85.7734C139.368 92.2454 140.242 98.3867 141.056 103.249Z" fill="#D6B489"/>
<path d="M146.588 129.683C146.479 128.335 146.242 126.857 145.9 125.289C145.902 125.323 145.909 125.36 145.911 125.395C147.297 142.51 130.609 157.521 108.581 158.246C89.3531 158.879 73.4721 148.382 69.916 134.285C71.0446 150.48 88.1274 163.229 109.258 162.534C131.286 161.809 147.975 146.798 146.588 129.683Z" fill="#D6B489"/>
<path d="M101.348 144.184C107.356 143.047 113.232 142.03 118.694 139.967C120.058 139.455 121.398 138.883 122.665 138.222C123.933 137.567 125.139 136.805 126.094 135.9C127.03 134.975 127.606 133.914 127.146 132.721C126.713 131.498 125.526 130.447 124.363 129.477C125.806 129.963 127.285 130.652 128.302 132.131C128.801 132.87 128.995 133.902 128.822 134.841C128.658 135.793 128.162 136.575 127.649 137.257C126.59 138.621 125.252 139.579 123.895 140.408C122.526 141.233 121.09 141.884 119.626 142.443C116.695 143.547 113.608 144.189 110.542 144.458C107.473 144.732 104.382 144.712 101.348 144.184Z" fill="#CBA77D"/>
<path d="M93.3867 114.721C93.3867 114.721 91.3693 109.658 83.3534 110.242C75.7414 110.797 76.0253 114.255 76.0253 114.255C76.0253 114.255 75.4266 118.967 83.6567 119.179C92.8391 119.416 93.3867 114.721 93.3867 114.721Z" fill="white"/>
<path d="M106.799 102.941C108.76 102.378 110.618 101.988 112.543 101.647C114.455 101.315 116.378 101.074 118.304 100.93C120.234 100.805 122.169 100.79 124.087 100.911C126.006 101.07 127.904 101.384 129.723 101.917C127.836 101.7 125.956 101.718 124.098 101.88C122.239 102.083 120.407 102.414 118.601 102.846C116.798 103.298 115.023 103.839 113.28 104.46C111.554 105.08 109.792 105.787 108.216 106.552L108.188 106.565C107.221 107.034 106.055 106.63 105.586 105.663C105.117 104.696 105.521 103.53 106.488 103.061C106.587 103.012 106.698 102.971 106.799 102.941Z" fill="#412622"/>
<path d="M92.0647 106.81C90.9696 106.249 89.6602 105.731 88.3976 105.307C87.1164 104.881 85.8026 104.536 84.465 104.278C83.1266 104.016 81.766 103.894 80.3896 103.865C79.0115 103.845 77.6351 104.011 76.2578 104.303C77.5399 103.74 78.8986 103.28 80.3076 103.01C81.7131 102.748 83.1565 102.582 84.6026 102.566C86.0495 102.545 87.5026 102.62 88.9504 102.791C90.4141 102.972 91.8046 103.201 93.3283 103.615C94.2497 103.866 94.7928 104.816 94.5424 105.737C94.292 106.658 93.3424 107.201 92.421 106.951C92.3063 106.92 92.1979 106.878 92.0956 106.827L92.0647 106.81Z" fill="#412622"/>
<path d="M84.8739 114.521C84.8184 112.397 83.7576 110.701 82.5073 110.735C81.7711 110.754 81.1353 111.369 80.7447 112.302L82.2622 113.864L80.3532 114.084C80.3427 114.266 80.3365 114.451 80.3418 114.641C80.3973 116.765 81.4572 118.46 82.7092 118.427C83.9595 118.394 84.9295 116.644 84.8739 114.521Z" fill="#412622"/>
<path d="M107.58 113.378C107.58 113.378 109.016 108.121 117.046 107.8C124.673 107.495 124.779 110.964 124.779 110.964C124.779 110.964 125.903 115.579 117.75 116.715C108.652 117.982 107.58 113.378 107.58 113.378Z" fill="white"/>
<path d="M116.395 112.483C116.339 110.359 115.278 108.663 114.028 108.696C113.292 108.715 112.656 109.33 112.266 110.263L113.784 111.825L111.875 112.044C111.864 112.226 111.858 112.411 111.863 112.601C111.919 114.725 112.979 116.42 114.231 116.387C115.48 116.355 116.45 114.606 116.395 112.483Z" fill="#412622"/>
<path d="M98.5778 112.781C98.8952 114.816 98.9191 116.88 98.7577 118.927C98.6149 120.981 98.2489 123.026 97.6732 125.04C97.0833 127.049 96.2606 129.031 95.0509 130.856C93.8649 132.676 92.1826 134.343 90.0646 135.301L90.0311 132.947C90.6633 133.278 91.4595 133.623 92.2143 133.902C92.9841 134.185 93.7706 134.446 94.5774 134.653C95.3842 134.852 96.2051 135.046 97.0462 135.149C97.8901 135.296 98.7445 135.327 99.635 135.384C98.8194 135.722 97.9536 135.992 97.0639 136.136C96.1751 136.274 95.2625 136.369 94.3552 136.33C93.4461 136.309 92.53 136.237 91.6297 136.064C90.7145 135.89 89.8645 135.684 88.9131 135.317L86.543 134.401L88.8796 132.962C90.3415 132.061 91.5424 130.743 92.5344 129.202C93.5308 127.664 94.3199 125.931 95.0324 124.144C95.7325 122.347 96.3364 120.484 96.9157 118.587L98.5778 112.781Z" fill="#CBA77D"/>
<path d="M142.307 76.8187C140.807 70.4913 134.886 66.2378 128.394 66.6196C123.916 66.8832 117.986 66.7069 110.828 65.3261C96.4956 60.3152 104.257 52.6679 104.257 52.6679C97.8993 53.5187 94.7806 56.1049 93.2552 58.2784C94.2877 52.9103 99.2881 47.2434 108.581 43.7191C108.581 43.7191 80.0777 32.1736 72.1526 53.8573C72.1526 53.8573 70.979 49.6946 74.0131 45.2083C74.0131 45.2083 59.8726 49.7793 58.871 66.7924C58.267 77.0488 65.0537 88.2619 79.8713 90.4398C96.4066 92.8698 129.825 83.4837 129.825 83.4837C129.825 83.4837 135.359 90.8092 135.288 103.979C135.215 117.495 140.828 117.551 142.64 115.202C144.158 113.234 146.297 93.6475 142.307 76.8187Z" fill="#53342E"/>
<path d="M153.777 142.974C153.777 142.974 175.212 135.659 185.784 125.922C185.784 125.922 207.546 125.719 219.222 146.832C219.222 146.832 210.865 160.283 190.959 165.274C190.959 165.274 162.68 172.931 153.777 142.974Z" fill="#0093E6"/>
<path d="M38.8381 230.61C38.8381 230.61 39.7604 249.022 33.5062 249.153C31.659 249.192 32.7656 245.583 32.7656 240.735C32.7665 234.733 29.7051 227.914 29.7051 227.914L38.8381 230.61Z" fill="#DBB78A"/>
<path d="M188.256 79.5143C188.256 79.5143 160.101 81.7151 158.984 75.5606C158.124 70.8247 164.425 73.0688 169.273 73.0476C175.275 73.0212 182.68 71.6016 182.68 71.6016L188.256 79.5143Z" fill="#E9C699"/>
<path d="M37.5815 233.088C37.5815 233.088 33.2601 247 32.7381 242.048C32.0406 235.432 28.0181 240.508 25.5008 243.356C21.8636 247.472 13.2649 227.071 20.1795 223.277C27.415 219.306 31.8396 217.141 31.8396 217.141L37.5815 233.088Z" fill="#DBB78A"/>
<path d="M29.6104 238.331C29.6104 238.331 22.3881 248.067 19.9924 252.118C17.244 256.766 13.7929 257.101 13.9948 253.756C14.1967 250.411 22.9894 235.672 22.9894 235.672L29.6104 238.331Z" fill="#DBB78A"/>
<path d="M26.101 236.515C26.101 236.515 13.702 246.136 10.1645 249.239C6.10583 252.801 2.72172 252.045 3.95439 248.929C5.18706 245.813 20.8168 232.078 20.8168 232.078L26.101 236.515Z" fill="#DBB78A"/>
<path d="M24.7592 232.781C24.7592 232.781 10.6478 239.649 6.54861 241.961C1.84542 244.613 -1.3112 243.178 0.535157 240.382C2.38152 237.585 20.8134 227.766 20.8134 227.766L24.7592 232.781Z" fill="#DBB78A"/>
<path d="M26.2535 227.658C26.2535 227.658 11.3926 232.704 7.03597 234.483C2.0374 236.525 -0.91466 234.706 1.26764 232.163C3.44994 229.621 22.9672 222.188 22.9672 222.188L26.2535 227.658Z" fill="#DBB78A"/>
</svg>
