<svg width="313" height="125" viewBox="0 0 313 125" fill="none" xmlns="http://www.w3.org/2000/svg">
<path d="M99.722 94.2992C99.722 94.5672 99.5044 94.7842 99.237 94.7842H46.4615C46.1941 94.7842 45.9766 94.5672 45.9766 94.2992V79.2193C45.9766 78.9513 46.1941 78.7344 46.4615 78.7344H99.237C99.505 78.7344 99.722 78.9513 99.722 79.2193V94.2992Z" fill="#59473D"/>
<path d="M224.415 93.8415C224.415 94.1095 224.198 94.327 223.931 94.327H163.681C163.412 94.327 163.195 94.1095 163.195 93.8415V73.0396C163.195 72.7711 163.412 72.5547 163.681 72.5547H223.931C224.198 72.5547 224.415 72.7711 224.415 73.0396V93.8415Z" fill="#59473D"/>
<path d="M262.796 97.5899C262.796 98.3934 262.145 99.0454 261.341 99.0454H19.639C18.8356 99.0454 18.1836 98.3934 18.1836 97.5899V90.9236C18.1836 90.1202 18.8356 89.4688 19.639 89.4688H261.341C262.145 89.4688 262.797 90.1202 262.797 90.9236L262.796 97.5899Z" fill="#9E9693"/>
<path d="M231.025 83.2787C231.025 84.0827 230.374 84.7347 229.57 84.7347H4.46911C3.66569 84.7347 3.01367 84.0827 3.01367 83.2787V1.45602C3.01367 0.652021 3.66569 0 4.46911 0H229.57C230.374 0 231.025 0.652021 231.025 1.45602V83.2787Z" fill="#CDC1C1"/>
<path d="M226.247 2.625H7.79137C6.98737 2.625 6.33594 3.27702 6.33594 4.08043V77.2819C6.33594 78.0859 6.98737 78.7367 7.79137 78.7367H226.247C227.051 78.7367 227.703 78.0859 227.703 77.2819V4.08043C227.702 3.27702 227.051 2.625 226.247 2.625ZM225.762 76.7963H8.27574V68.9774H225.762V76.7963ZM225.762 68.0081H8.27574V55.0722H225.762V68.0081ZM225.762 54.1017H8.27574V41.1664H225.762V54.1017ZM225.762 40.1959H8.27574V27.26H225.762V40.1959ZM225.762 26.2907H8.27574V13.3548H225.762V26.2907ZM225.762 12.3843H8.27574V4.56597H225.762V12.3843Z" fill="#9F9691"/>
<path d="M234.04 84.901C234.04 85.7044 233.389 86.3559 232.585 86.3559H1.45543C0.651436 86.3559 0 85.7044 0 84.901V84.7908C0 83.9868 0.651436 83.3359 1.45543 83.3359H232.585C233.389 83.3359 234.04 83.9868 234.04 84.7908V84.901Z" fill="#9F9691"/>
<path d="M236.484 7.15625V29.0701H277.531C277.531 29.0701 265.355 7.15625 236.484 7.15625Z" fill="#FE5D62"/>
<path d="M236.484 7.15625V13.456C243.727 13.0447 262.198 13.7379 277.531 29.0701C277.531 29.0701 265.355 7.15625 236.484 7.15625Z" fill="#FF7E7C"/>
<path d="M300.139 30.5179C299.954 29.736 299.487 29.0625 298.683 29.0625H236.431C235.627 29.0625 234.977 29.7139 234.977 30.5179V82.566C234.977 82.8474 235.06 83.1084 235.198 83.3312H262.794C274.671 83.3312 284.299 92.9588 284.299 104.836C284.299 105.435 284.268 106.028 284.22 106.615H306.336C307.14 106.615 307.791 105.963 307.791 105.159V82.5654V64.573V63.0346C307.791 63.0346 302.02 38.4657 300.139 30.5179Z" fill="#FE5D62"/>
<path d="M278.334 92.0184L260.053 83.3281L243.391 90.806L237.734 106.231H282.37L278.334 92.0184Z" fill="#59473D"/>
<path d="M280.02 106.229C280.02 96.0179 270.949 87.3909 260.212 87.3909C249.475 87.3909 240.405 96.0179 240.405 106.229C240.405 107.702 235.068 107.702 235.068 106.229C235.068 93.1256 246.583 82.0547 260.213 82.0547C273.843 82.0547 285.358 93.1256 285.358 106.229C285.356 107.702 280.02 107.702 280.02 106.229Z" fill="#B6ABA5"/>
<path d="M260.211 84.7266C248.334 84.7266 237.734 94.3548 237.734 106.232V107.337C239.069 107.337 240.403 106.968 240.403 106.232C240.403 96.0208 249.475 87.3938 260.211 87.3938C270.948 87.3938 280.019 96.0208 280.019 106.232C280.019 106.969 281.353 107.337 282.688 107.337V106.232C282.688 94.3548 272.088 84.7266 260.211 84.7266Z" fill="#7E6D63"/>
<path d="M277.834 106.609C277.834 116.428 269.874 124.389 260.054 124.389C250.235 124.389 242.273 116.427 242.273 106.609C242.273 96.7875 250.235 88.8281 260.054 88.8281C269.874 88.8281 277.834 96.788 277.834 106.609Z" fill="#6F5755"/>
<path d="M271.385 106.615C271.385 112.873 266.311 117.947 260.053 117.947C253.794 117.947 248.721 112.873 248.721 106.615C248.721 100.356 253.794 95.2812 260.053 95.2812C266.311 95.2813 271.385 100.356 271.385 106.615Z" fill="#7E6D63"/>
<path d="M269.224 106.608C269.224 111.672 265.118 115.778 260.053 115.778C254.99 115.778 250.883 111.672 250.883 106.608C250.883 101.543 254.989 97.4375 260.053 97.4375C265.118 97.4381 269.224 101.543 269.224 106.608Z" fill="#B6ABA5"/>
<path d="M262.796 106.61C262.796 108.124 261.568 109.353 260.053 109.353C258.538 109.353 257.311 108.125 257.311 106.61C257.311 105.095 258.538 103.867 260.053 103.867C261.568 103.867 262.796 105.095 262.796 106.61Z" fill="#6F5755"/>
<path d="M181.317 92.0184L163.035 83.3281L146.374 90.806L140.717 106.231H185.353L181.317 92.0184Z" fill="#59473D"/>
<path d="M183.004 106.229C183.004 96.0179 173.932 87.3909 163.195 87.3909C152.458 87.3909 143.386 96.0179 143.386 106.229C143.386 107.702 138.051 107.702 138.051 106.229C138.051 93.1256 149.565 82.0547 163.195 82.0547C176.825 82.0547 188.339 93.1256 188.339 106.229C188.339 107.702 183.004 107.702 183.004 106.229Z" fill="#B6ABA5"/>
<path d="M163.193 84.7266C151.316 84.7266 140.717 94.3548 140.717 106.232V107.337C142.051 107.337 143.385 106.968 143.385 106.232C143.385 96.0208 152.457 87.3938 163.194 87.3938C173.932 87.3938 183.003 96.0208 183.003 106.232C183.003 106.969 184.336 107.337 185.67 107.337V106.232C185.67 94.3548 175.071 84.7266 163.193 84.7266Z" fill="#7E6D63"/>
<path d="M180.817 106.609C180.817 116.428 172.856 124.389 163.037 124.389C153.217 124.389 145.256 116.427 145.256 106.609C145.256 96.7875 153.217 88.8281 163.037 88.8281C172.856 88.8281 180.817 96.788 180.817 106.609Z" fill="#6F5755"/>
<path d="M174.368 106.615C174.368 112.873 169.295 117.947 163.036 117.947C156.777 117.947 151.703 112.873 151.703 106.615C151.703 100.356 156.777 95.2812 163.036 95.2812C169.295 95.2813 174.368 100.356 174.368 106.615Z" fill="#7E6D63"/>
<path d="M172.206 106.608C172.206 111.672 168.101 115.778 163.036 115.778C157.972 115.778 153.865 111.672 153.865 106.608C153.865 101.543 157.972 97.4375 163.036 97.4375C168.101 97.4381 172.206 101.543 172.206 106.608Z" fill="#B6ABA5"/>
<path d="M165.779 106.61C165.779 108.124 164.551 109.353 163.036 109.353C161.521 109.353 160.293 108.125 160.293 106.61C160.293 105.095 161.521 103.867 163.036 103.867C164.551 103.867 165.779 105.095 165.779 106.61Z" fill="#6F5755"/>
<path d="M60.3697 92.0184L42.0877 83.3281L25.4265 90.806L19.7695 106.231H64.4053L60.3697 92.0184Z" fill="#59473D"/>
<path d="M62.0541 106.229C62.0541 96.0179 52.9827 87.3909 42.2459 87.3909C31.5085 87.3909 22.4372 96.0179 22.4372 106.229C22.4372 107.702 17.1016 107.702 17.1016 106.229C17.1016 93.1256 28.6162 82.0547 42.2459 82.0547C55.8756 82.0547 67.3902 93.1256 67.3902 106.229C67.3897 107.702 62.0541 107.702 62.0541 106.229Z" fill="#B6ABA5"/>
<path d="M42.2466 84.7266C30.3694 84.7266 19.7695 94.3548 19.7695 106.232V107.337C21.1037 107.337 22.4379 106.968 22.4379 106.232C22.4379 96.0208 31.5093 87.3938 42.2466 87.3938C52.9834 87.3938 62.0548 96.0208 62.0548 106.232C62.0548 106.969 63.389 107.337 64.7226 107.337V106.232C64.7232 94.3548 54.1239 84.7266 42.2466 84.7266Z" fill="#7E6D63"/>
<path d="M59.8676 106.609C59.8676 116.428 51.9065 124.389 42.0874 124.389C32.2677 124.389 24.3066 116.427 24.3066 106.609C24.3066 96.7875 32.2677 88.8281 42.0874 88.8281C51.9065 88.8281 59.8676 96.788 59.8676 106.609Z" fill="#6F5755"/>
<path d="M53.4184 106.615C53.4184 112.873 48.345 117.947 42.0864 117.947C35.8273 117.947 30.7539 112.873 30.7539 106.615C30.7539 100.356 35.8273 95.2812 42.0864 95.2812C48.345 95.2813 53.4184 100.356 53.4184 106.615Z" fill="#7E6D63"/>
<path d="M51.2565 106.608C51.2565 111.672 47.1507 115.778 42.0866 115.778C37.0219 115.778 32.916 111.672 32.916 106.608C32.916 101.543 37.0219 97.4375 42.0866 97.4375C47.1507 97.4381 51.2565 101.543 51.2565 106.608Z" fill="#B6ABA5"/>
<path d="M44.8296 106.61C44.8296 108.124 43.6022 109.353 42.087 109.353C40.5718 109.353 39.3438 108.125 39.3438 106.61C39.3438 105.095 40.5718 103.867 42.087 103.867C43.6022 103.867 44.8296 105.095 44.8296 106.61Z" fill="#6F5755"/>
<path d="M293.518 38.3851C293.518 37.5811 292.867 36.9297 292.063 36.9297H258.463C257.659 36.9297 257.008 37.5811 257.008 38.3851V79.5143H263.594C273.135 79.5143 282.459 85.7299 285.271 94.332H298.207C299.011 94.332 299.663 93.6799 299.663 92.8765V66.5204L293.518 38.3851Z" fill="#DD484A"/>
<path d="M309.806 90.9688H303.662C302.858 90.9688 302.207 91.6202 302.207 92.4242V97.4442H282.703C281.899 97.4442 281.248 98.0951 281.248 98.8991V106.867C281.248 107.671 281.899 108.323 282.703 108.323H303.662H309.806C310.61 108.323 311.261 107.671 311.261 106.867V98.8991V92.4242C311.261 91.6202 310.61 90.9688 309.806 90.9688Z" fill="#7E6D63"/>
<path d="M309.806 90.9688H308.83V93.1986V101.167C308.83 101.971 308.179 102.622 307.374 102.622H301.231H281.248V106.867C281.248 107.671 281.899 108.323 282.703 108.323H303.662H309.806C310.61 108.323 311.261 107.671 311.261 106.867V98.8991V92.4242C311.26 91.6202 310.61 90.9688 309.806 90.9688Z" fill="#B6ABA5"/>
<path d="M252.799 59.771C252.799 60.5744 252.148 61.2264 251.343 61.2264H243.7C242.896 61.2264 242.244 60.5744 242.244 59.771V39.2679C242.244 38.4639 242.896 37.8125 243.7 37.8125H251.343C252.148 37.8125 252.799 38.4639 252.799 39.2679V59.771Z" fill="#796860"/>
<path d="M296.873 64.9056C296.873 65.7096 296.222 66.3616 295.418 66.3616C295.418 66.3616 269.15 62.8863 260.53 61.7093C259.734 61.6003 259.074 61.0573 259.074 60.2539V40.6267C259.074 39.8233 259.726 39.1719 260.53 39.1719H290.33C291.134 39.1719 291.62 39.8407 291.786 40.6267C293.062 46.6787 296.873 64.9056 296.873 64.9056Z" fill="#796860"/>
<path d="M301.661 36.9685C299.755 36.7156 298.596 36.5625 298.596 36.5625C297.792 36.5625 297.141 37.2145 297.141 38.0179C297.141 38.0179 300.952 56.2454 302.228 62.2968C302.394 63.0828 302.879 63.7522 303.683 63.7522H307.792V63.0405C307.792 63.0405 304.102 47.3277 301.661 36.9685Z" fill="#796860"/>
<path d="M252.241 57.1678C252.241 57.9718 251.59 58.6232 250.786 58.6232H244.784C243.979 58.6232 243.328 57.9718 243.328 57.1678V39.9086C243.328 39.1046 243.979 38.4531 244.784 38.4531H250.786C251.59 38.4531 252.241 39.1046 252.241 39.9086V57.1678Z" fill="#CAF7F4"/>
<path d="M296.033 63.3909C296.033 64.1352 295.431 64.7373 294.686 64.7373C294.686 64.7373 270.382 61.5213 262.407 60.4313C261.67 60.331 261.061 59.8292 261.061 59.0843V40.9173C261.061 40.173 261.663 39.5703 262.407 39.5703H289.979C290.723 39.5703 291.173 40.1887 291.326 40.9173C292.506 46.5186 296.033 63.3909 296.033 63.3909Z" fill="#CAF7F4"/>
<path d="M299.329 37.1406C298.585 37.1406 297.982 37.7439 297.982 38.4882C297.982 38.4882 301.509 55.3605 302.689 60.9612C302.843 61.6898 303.292 62.3087 304.036 62.3087H307.621C306.882 59.1606 303.902 46.4753 301.779 37.4655C300.246 37.2624 299.329 37.1406 299.329 37.1406Z" fill="#CAF7F4"/>
<path d="M266.652 65.6167C266.652 66.242 266.145 66.7485 265.52 66.7485H260.207C259.581 66.7485 259.074 66.242 259.074 65.6167C259.074 64.9908 259.581 64.4844 260.207 64.4844H265.52C266.145 64.4844 266.652 64.9908 266.652 65.6167Z" fill="#54433B"/>
<path d="M232.89 109.795C232.89 110.598 232.239 111.25 231.435 111.25H191.822C191.019 111.25 190.367 110.598 190.367 109.795V94.8929C190.367 94.0895 191.019 93.4375 191.822 93.4375H231.435C232.239 93.4375 232.89 94.0895 232.89 94.8929V109.795Z" fill="#B6ABA5"/>
<path d="M201.663 111.737C201.663 112.005 201.444 112.222 201.177 112.222H199.325C199.058 112.222 198.84 112.005 198.84 111.737V92.9537C198.84 92.6863 199.058 92.4688 199.325 92.4688H201.177C201.444 92.4688 201.663 92.6863 201.663 92.9537V111.737Z" fill="#7E6D63"/>
<path d="M224.413 111.737C224.413 112.005 224.196 112.222 223.929 112.222H222.077C221.809 112.222 221.592 112.005 221.592 111.737V92.9537C221.592 92.6863 221.809 92.4688 222.077 92.4688H223.929C224.196 92.4688 224.413 92.6863 224.413 92.9537V111.737Z" fill="#7E6D63"/>
<path d="M135.256 104.373C135.256 104.641 135.039 104.858 134.771 104.858H71.1926C70.9246 104.858 70.707 104.641 70.707 104.373V92.9537C70.707 92.6863 70.9246 92.4688 71.1926 92.4688H134.771C135.039 92.4688 135.256 92.6863 135.256 92.9537V104.373Z" fill="#B6ABA5"/>
<path d="M132.083 103.394C132.083 103.662 131.866 103.879 131.598 103.879H74.3678C74.0998 103.879 73.8828 103.662 73.8828 103.394V101.111C73.8828 100.843 74.1003 100.625 74.3678 100.625H131.598C131.866 100.625 132.083 100.843 132.083 101.111V103.394Z" fill="#7E6D63"/>
<path d="M30.7541 96.0811C30.7541 96.3491 30.5366 96.566 30.2691 96.566H12.2877C12.0203 96.566 11.8027 96.3491 11.8027 96.0811V92.7746C11.8027 92.5072 12.0203 92.2891 12.2877 92.2891H30.2691C30.5366 92.2891 30.7541 92.5072 30.7541 92.7746V96.0811Z" fill="#B6ABA5"/>
<path d="M13.2122 98.7323C13.2122 99.0009 12.9947 99.2172 12.7272 99.2172H9.6412C9.3732 99.2172 9.15625 99.0009 9.15625 98.7323V90.1256C9.15625 89.8582 9.37378 89.6406 9.6412 89.6406H12.7272C12.9947 89.6406 13.2122 89.8582 13.2122 90.1256V98.7323Z" fill="#7E6D63"/>
<path d="M298.983 29.3131H236.487C236.353 29.3131 236.244 29.2052 236.244 29.0706C236.244 28.936 236.353 28.8281 236.487 28.8281H298.983C299.117 28.8281 299.225 28.9366 299.225 29.0706C299.225 29.2046 299.117 29.3131 298.983 29.3131Z" fill="#FF7E7C"/>
<path d="M246.038 76.856C246.038 77.66 245.387 78.3114 244.583 78.3114H239.963C239.159 78.3114 238.508 77.66 238.508 76.856V76.5804C238.508 75.7764 239.159 75.125 239.963 75.125H244.583C245.387 75.125 246.038 75.7764 246.038 76.5804V76.856Z" fill="#FFF7D8"/>
<path d="M241.239 77.2487C240.435 77.2487 239.784 76.5966 239.784 75.7932V75.5183C239.784 75.3866 239.807 75.2613 239.84 75.1406C239.095 75.2039 238.508 75.8222 238.508 76.5833V76.8588C238.508 77.6628 239.159 78.3143 239.963 78.3143H244.583C245.255 78.3143 245.815 77.856 245.982 77.2365C245.941 77.2405 245.901 77.2492 245.859 77.2492H241.239V77.2487Z" fill="#FFE785"/>
<path d="M308.327 76.856C308.327 77.66 307.676 78.3114 306.872 78.3114H302.252C301.448 78.3114 300.797 77.66 300.797 76.856V76.5804C300.797 75.7764 301.448 75.125 302.252 75.125H306.872C307.676 75.125 308.327 75.7764 308.327 76.5804V76.856Z" fill="#FFF7D8"/>
<path d="M303.529 77.2487C302.724 77.2487 302.073 76.5966 302.073 75.7932V75.5183C302.073 75.3866 302.096 75.2613 302.129 75.1406C301.385 75.2039 300.797 75.8222 300.797 76.5833V76.8588C300.797 77.6628 301.448 78.3143 302.252 78.3143H306.872C307.545 78.3143 308.105 77.856 308.271 77.2365C308.23 77.2405 308.19 77.2492 308.148 77.2492H303.529V77.2487Z" fill="#FFE785"/>
<path d="M310.087 88.0054C310.087 88.8088 309.436 89.4614 308.632 89.4614H304.5C303.696 89.4614 303.045 88.8088 303.045 88.0054V81.8617C303.045 81.0577 303.696 80.4062 304.5 80.4062H308.632C309.436 80.4062 310.087 81.0577 310.087 81.8617V88.0054Z" fill="#FFF7D8"/>
<path d="M304.805 86.4026V80.4062H304.5C303.696 80.4062 303.045 81.0577 303.045 81.8617V88.0053C303.045 88.8088 303.696 89.4614 304.5 89.4614H308.632C309.436 89.4614 310.087 88.8088 310.087 88.0053V87.8574H306.261C305.457 87.8569 304.805 87.206 304.805 86.4026Z" fill="#FFE785"/>
<path d="M312.398 100.631H307.778C306.974 100.631 306.322 99.9791 306.322 99.1751V98.9002C306.322 98.0962 306.974 97.4453 307.778 97.4453H312.398C313.202 97.4459 313.202 100.631 312.398 100.631Z" fill="#FFF7D8"/>
<path d="M307.714 98.4268V98.1513C307.714 97.8931 307.788 97.6553 307.905 97.4453H307.778C306.974 97.4453 306.322 98.0962 306.322 98.9002V99.1751C306.322 99.9791 306.974 100.631 307.778 100.631H312.398C312.65 100.631 312.823 100.314 312.917 99.8823H309.169C308.366 99.8823 307.714 99.2302 307.714 98.4268Z" fill="#FFE785"/>
</svg>
