<svg width="299" height="131" viewBox="0 0 299 131" fill="none" xmlns="http://www.w3.org/2000/svg">
<path opacity="0.3" d="M298.999 126.19C298.999 128.647 295.819 130.927 292.033 130.927H6.71187C2.92579 130.927 0 128.646 0 126.19V125.812C0 123.356 2.92579 121.656 6.71187 121.656H292.033C295.819 121.656 299 123.357 299 125.812V126.19H298.999Z" fill="#1C1419"/>
<path d="M118.36 105.839C118.36 94.6286 109.756 85.5391 99.1431 85.5391C88.5293 85.5391 79.9258 94.6293 79.9258 105.839C79.9258 117.052 88.5293 126.142 99.1431 126.142C109.756 126.142 118.36 117.052 118.36 105.839Z" fill="#23262A"/>
<path d="M270.604 105.839C270.604 94.6286 262.001 85.5391 251.387 85.5391C240.773 85.5391 232.17 94.6293 232.17 105.839C232.17 117.052 240.773 126.142 251.387 126.142C262.001 126.142 270.604 117.052 270.604 105.839Z" fill="#23262A"/>
<path d="M292.92 83.2167V83.2795C292.92 83.2586 292.92 83.2383 292.92 83.2167C292.92 67.3929 277.386 58.6868 267.353 51.3534C257.319 44.0215 253.025 37.2196 234.114 17.5371C215.204 -2.14527 203.773 0.0752574 203.773 0.0752574C203.773 0.0752574 88.1873 0.0752574 73.5221 0.0752574C58.8568 0.0752574 54.4199 48.7021 54.4199 48.7021C54.4199 48.7021 54.4199 77.8378 54.4199 91.3446C54.4199 104.852 59.6298 110.063 59.6298 110.063H251.241C251.241 110.063 253.53 110.063 257.029 110.063C267.055 110.063 287.037 110.063 291.746 110.063C298.099 110.063 298.999 100.606 298.999 95.5888C298.999 90.5723 292.92 88.6409 292.92 83.2167Z" fill="#EBE7DE"/>
<path d="M266.525 50.7458C257.068 43.6359 252.495 36.6754 234.114 17.5433C233.299 16.6949 232.502 15.9009 231.716 15.1328H182.933L176.709 15.322L210.14 51.6033H267.353L266.525 50.7458Z" fill="#23262A"/>
<path opacity="0.1" d="M202.184 39.3219C194.228 31.3664 197.336 24.6846 204.133 24.6846C236.175 24.6846 246.899 51.0237 258.444 43.6715C252.806 38.0301 246.695 30.6381 234.113 17.5433C233.298 16.6949 232.502 15.9009 231.715 15.1328H182.933L176.709 15.3221L206.643 47.8074C206.818 45.7817 205.334 42.4747 202.184 39.3219Z" fill="white"/>
<path d="M240.822 83.2167C240.822 67.3929 225.288 58.6868 215.254 51.3534C205.221 44.0215 200.927 37.2196 182.016 17.5371C163.106 -2.14527 151.675 0.0752574 151.675 0.0752574C151.675 0.0752574 36.0897 0.0752574 21.4244 0.0752574C6.75987 0.0752574 2.46545 48.7021 2.46545 48.7021C2.46545 48.7021 2.46545 71.8284 2.46545 86.4253C2.46545 87.7764 0.14995 87.5837 0.14995 88.9342C0.14995 90.2846 0.14995 102.538 0.14995 102.538C0.14995 102.538 -0.379342 110.063 7.53217 110.063H199.143C199.143 110.063 201.433 110.063 204.932 110.063C214.958 110.063 234.94 110.063 239.649 110.063C246.002 110.063 246.901 100.605 246.901 95.5881C246.9 90.5723 240.822 88.6409 240.822 83.2167Z" fill="#D3D3D3"/>
<path opacity="0.8" d="M49.351 86.3203H2.46154C2.46154 86.3524 2.46154 86.3853 2.46154 86.4167C2.46154 87.7678 0.146044 87.5751 0.146044 88.9256C0.146044 90.2761 0.146044 102.529 0.146044 102.529C0.146044 102.529 -0.383259 110.054 7.52825 110.054H49.351V86.3203Z" fill="#23262A"/>
<path opacity="0.1" d="M289.258 70.7031H2.46154C2.46154 76.1253 2.46154 81.7206 2.46154 86.4298C2.46154 87.781 0.146044 87.5882 0.146044 88.9387C0.146044 90.2892 0.146044 102.543 0.146044 102.543C0.146044 102.543 -0.383259 110.067 7.52825 110.067H199.139C199.139 110.067 201.429 110.067 204.928 110.067C214.954 110.067 287.035 110.067 291.744 110.067C298.097 110.067 298.997 100.61 298.997 95.5926C298.997 90.5755 292.918 88.644 292.918 83.2198C292.918 78.4533 291.503 74.3356 289.258 70.7031Z" fill="#23262A"/>
<path opacity="0.8" d="M299 95.5802C299 91.6552 295.279 89.6176 293.66 86.3203H205.074V110.054H251.242C251.242 110.054 253.531 110.054 257.03 110.054C267.056 110.054 287.038 110.054 291.748 110.054C298.1 110.055 299 100.597 299 95.5802Z" fill="#23262A"/>
<path opacity="0.2" d="M292.574 109.994C292.711 109.974 292.846 109.953 292.976 109.924C293.049 109.908 293.12 109.888 293.191 109.87C293.311 109.838 293.427 109.804 293.542 109.765C293.612 109.742 293.68 109.716 293.748 109.69C293.862 109.645 293.972 109.596 294.081 109.545C294.142 109.515 294.204 109.487 294.263 109.456C294.382 109.393 294.498 109.324 294.612 109.252C294.655 109.225 294.699 109.2 294.741 109.173C294.897 109.068 295.047 108.955 295.191 108.836C295.199 108.829 295.206 108.823 295.212 108.816C295.348 108.703 295.48 108.58 295.606 108.453C295.644 108.414 295.679 108.374 295.716 108.334C295.81 108.234 295.904 108.131 295.993 108.023C296.033 107.976 296.07 107.927 296.109 107.879C296.193 107.772 296.276 107.662 296.357 107.549C296.391 107.499 296.426 107.449 296.46 107.399C296.543 107.275 296.623 107.148 296.702 107.018C296.727 106.975 296.753 106.935 296.778 106.891C296.875 106.724 296.967 106.555 297.055 106.379C297.06 106.371 297.065 106.364 297.068 106.356C297.262 105.97 297.437 105.562 297.595 105.141C297.604 105.12 297.611 105.099 297.618 105.077C297.688 104.89 297.753 104.701 297.817 104.509C297.827 104.477 297.837 104.444 297.847 104.414C297.908 104.225 297.965 104.033 298.02 103.84C298.027 103.814 298.035 103.789 298.042 103.763C298.101 103.547 298.158 103.33 298.211 103.111L298.212 103.109C290.788 103.109 273.094 103.109 263.671 103.109C259.954 103.109 257.521 103.109 257.521 103.109H245.203H208.318H202.168H53.9473H0.015625C0.114082 104.87 0.960398 110.056 7.53121 110.056H45.2642H59.6313H193.487H199.143H199.637H204.931H236.521H239.648H248.839H251.241C251.241 110.056 252.669 110.056 254.988 110.056C255.61 110.056 256.291 110.056 257.03 110.056C267.055 110.056 287.038 110.056 291.747 110.056C291.965 110.056 292.175 110.042 292.378 110.021C292.447 110.015 292.51 110.003 292.574 109.994Z" fill="#0A100C"/>
<path d="M69.1528 105.839C69.1528 94.6286 60.5493 85.5391 49.9361 85.5391C39.3223 85.5391 30.7188 94.6293 30.7188 105.839C30.7188 117.052 39.3223 126.142 49.9361 126.142C60.5486 126.142 69.1528 117.052 69.1528 105.839Z" fill="#23262A"/>
<path d="M61.4328 105.846C61.4328 99.1399 56.2865 93.7031 49.9384 93.7031C43.5897 93.7031 38.4434 99.1399 38.4434 105.846C38.4434 112.552 43.589 117.99 49.9384 117.99C56.2865 117.99 61.4328 112.552 61.4328 105.846Z" fill="#AFAFAF"/>
<path d="M56.8192 105.832C56.8192 101.817 53.7384 98.5625 49.9369 98.5625C46.1369 98.5625 43.0547 101.817 43.0547 105.832C43.0547 109.849 46.1376 113.103 49.9369 113.103C53.7391 113.103 56.8192 109.849 56.8192 105.832Z" fill="white"/>
<path d="M221.401 105.839C221.401 94.6286 212.798 85.5391 202.185 85.5391C191.571 85.5391 182.967 94.6293 182.967 105.839C182.967 117.052 191.57 126.142 202.185 126.142C212.798 126.142 221.401 117.052 221.401 105.839Z" fill="#23262A"/>
<path d="M213.679 105.846C213.679 99.1399 208.533 93.7031 202.185 93.7031C195.835 93.7031 190.689 99.1399 190.689 105.846C190.689 112.552 195.835 117.99 202.185 117.99C208.533 117.99 213.679 112.552 213.679 105.846Z" fill="#AFAFAF"/>
<path d="M209.067 105.832C209.067 101.817 205.987 98.5625 202.186 98.5625C198.386 98.5625 195.303 101.817 195.303 105.832C195.303 109.849 198.386 113.103 202.186 113.103C205.987 113.103 209.067 109.849 209.067 105.832Z" fill="white"/>
<path d="M204.762 105.831C204.762 104.329 203.608 103.109 202.186 103.109C200.762 103.109 199.609 104.328 199.609 105.831C199.609 107.335 200.762 108.553 202.186 108.553C203.608 108.553 204.762 107.335 204.762 105.831Z" fill="#23262A"/>
<path d="M52.5139 105.831C52.5139 104.329 51.3604 103.109 49.938 103.109C48.5156 103.109 47.3613 104.328 47.3613 105.831C47.3613 107.335 48.5149 108.553 49.938 108.553C51.3611 108.553 52.5139 107.335 52.5139 105.831Z" fill="#23262A"/>
<path d="M176.275 21.2174C170.888 16.6004 169.139 15.3281 151.548 15.3281C136.693 15.3281 136.765 16.0997 136.765 21.1162C136.765 26.134 136.765 45.241 136.765 45.241C136.765 45.241 136.496 50.4474 143.829 53.149C151.163 55.8493 171.691 57.2857 184.271 58.7004C204.492 60.9747 209.346 59.5202 202.202 49.872C195.059 40.2253 180.327 24.6907 176.275 21.2174Z" fill="#23262A"/>
<path d="M234.319 66.8906C239.088 66.8906 248.638 69.806 250.953 73.4237C253.269 77.0422 259.008 84.2171 254.811 84.2171C250.614 84.2171 245.645 83.7352 240.82 82.8666C239.039 82.5454 236.406 81.7905 234.318 79.6824C230.972 76.3055 226.08 66.8906 234.319 66.8906Z" fill="white"/>
<path d="M236.218 67.0135C235.531 66.9339 234.89 66.8906 234.318 66.8906C226.079 66.8906 230.973 76.3055 234.318 79.6831C236.406 81.7905 239.039 82.5461 240.821 82.8673C241.398 82.9706 241.976 83.0684 242.555 83.1606C242.538 76.7308 239.953 71.4769 236.218 67.0135Z" fill="#FFBF00"/>
<path opacity="0.3" d="M250.952 73.4141C250.624 72.9009 250.145 72.4016 249.559 71.9219C249.644 72.0336 249.723 72.1439 249.795 72.2564C252.11 75.8748 257.849 83.0504 253.653 83.0504C249.455 83.0504 244.486 82.5686 239.662 81.6992C238.035 81.4059 235.701 80.737 233.717 79.0185C233.92 79.2552 234.122 79.4745 234.317 79.6735C236.405 81.7809 239.038 82.5364 240.82 82.8576C245.644 83.7256 250.613 84.2081 254.81 84.2081C259.007 84.2074 253.268 77.0326 250.952 73.4141Z" fill="#080F0C"/>
<path d="M292.91 82.8481C292.904 82.3376 292.87 81.8432 292.839 81.3474C292.438 76.3115 290.444 72.0233 287.6 68.2812C286.238 68.8322 284.897 70.3621 284.441 71.8697C283.872 73.7516 281.312 84.2069 284.498 84.2069C286.778 84.2069 290.795 83.7251 292.91 82.8564C292.911 82.8536 292.91 82.8509 292.91 82.8481Z" fill="white"/>
<path d="M292.911 82.8383C292.906 82.5534 292.893 82.2727 292.878 81.9927C292.871 81.853 292.862 81.7134 292.853 81.5744C292.845 81.4508 292.833 81.3279 292.823 81.2057C292.774 80.6429 292.71 80.0878 292.622 79.5438C292.614 79.4935 292.604 79.4439 292.596 79.393C292.404 78.2436 292.129 77.1354 291.779 76.0643C291.766 76.0245 291.754 75.9854 291.741 75.9456C291.568 75.426 291.376 74.9156 291.169 74.4142C291.147 74.3619 291.125 74.3088 291.103 74.2557C290.893 73.7565 290.668 73.2649 290.426 72.7831C290.406 72.7419 290.385 72.702 290.365 72.6615C289.587 71.1267 288.659 69.675 287.613 68.298C287.609 68.2924 287.605 68.2861 287.601 68.2812C287.324 68.393 287.051 68.5543 286.783 68.7379C289.775 72.8222 291.753 77.5453 291.764 83.1721C292.18 83.0722 292.566 82.9682 292.912 82.8564C292.912 82.8536 292.912 82.8509 292.912 82.8481C292.911 82.8446 292.911 82.8411 292.911 82.8383Z" fill="#FFBF00"/>
<path opacity="0.3" d="M284.499 83.6331C283.386 83.6331 282.975 82.3566 282.934 80.6172C282.895 82.645 283.266 84.2112 284.499 84.2112C286.778 84.2112 290.796 83.7294 292.911 82.8607C292.909 82.668 292.9 82.4788 292.894 82.2882C290.775 83.154 286.773 83.6331 284.499 83.6331Z" fill="#080F0C"/>
<path d="M255.094 70.7031C258.745 70.7031 281.608 70.7031 281.608 70.7031C281.608 70.7031 283.899 71.2576 282.912 74.8879C281.926 78.5183 282.826 86.3334 272.824 86.3334C262.821 86.3334 258.428 80.6648 253.665 74.8879C251.284 71.2827 252.714 70.7031 255.094 70.7031Z" fill="#23262A"/>
<path d="M259.424 72.4297C262.197 72.4297 279.555 72.4297 279.555 72.4297C279.555 72.4297 281.296 72.922 280.546 75.6788C279.796 78.4342 280.481 84.4045 272.886 84.4045C265.292 84.4045 261.956 80.0458 258.34 75.6599C256.531 72.9234 257.616 72.4297 259.424 72.4297Z" fill="#5B5B5B"/>
<path opacity="0.2" d="M120.922 15.2188C127.65 15.2188 127.5 18.1194 127.5 22.9773C127.5 27.8367 127.5 42.599 127.5 42.599C127.5 42.599 128.798 51.0175 122.632 51.0175C116.465 51.0175 82.4556 51.0175 82.4556 51.0175C82.4556 51.0175 76.5586 50.8219 76.5586 46.3376C76.5586 41.8518 76.5586 26.3417 76.5586 22.418C76.5586 18.4937 77.1731 15.3123 81.4717 15.3123C85.7696 15.3116 85.734 15.3116 120.922 15.2188Z" fill="#1C1419"/>
<path opacity="0.2" d="M61.3986 15.2188C68.1258 15.2188 67.8765 18.1194 67.8765 22.9773C67.8765 28.1055 67.8765 27.7466 67.8765 42.599C67.8765 42.599 69.3757 51.0175 63.2092 51.0175C57.0427 51.0175 23.033 51.0175 23.033 51.0175C23.033 51.0175 17.1465 50.9665 17.1465 46.4821C17.1465 41.9964 18.5256 26.7117 19.2951 22.8642C20.603 16.3234 21.6294 15.3486 25.9281 15.3486C30.2267 15.3479 30.2623 15.3479 61.3986 15.2188Z" fill="#1C1419"/>
<path d="M117.958 17.9766C123.641 17.9766 123.451 20.4282 123.451 24.5327C123.451 28.6379 123.451 41.1106 123.451 41.1106C123.451 41.1106 124.678 48.1276 119.468 48.1276C114.259 48.1276 85.5236 48.1276 85.5236 48.1276C85.5236 48.1276 80.6133 48.0578 80.6133 44.2689C80.6133 40.4786 80.6133 27.3754 80.6133 24.06C80.6133 20.7438 81.0637 18.0562 84.6954 18.0562C88.3272 18.0555 117.958 17.9766 117.958 17.9766Z" fill="#D3D3D3"/>
<path d="M58.4385 17.9141C64.1428 17.9141 63.8244 20.3734 63.8244 24.4933C63.8244 28.6131 63.8244 41.1305 63.8244 41.1305C63.8244 41.1305 65.311 48.1182 60.0823 48.1182C54.8536 48.1182 26.016 48.1182 26.016 48.1182C26.016 48.1182 21.0254 48.1496 21.0254 44.3468C21.0254 40.5446 22.195 27.6216 22.8472 24.3592C23.9561 18.8142 24.7724 18.0055 28.4167 18.0055C32.061 18.0055 58.4385 17.9141 58.4385 17.9141Z" fill="#D3D3D3"/>
<path d="M286.694 93.8438H264.697V100.211H286.694V93.8438Z" fill="white"/>
<path d="M268.171 93.8438H264.697V100.211H268.171V93.8438Z" fill="#474FA2"/>
<path opacity="0.2" d="M246.643 93.8457H298.742C297.874 90.9785 295.023 89.096 293.66 86.3203H241.561C242.924 89.096 245.775 90.9778 246.643 93.8457Z" fill="#F2F2F2"/>
<path d="M179.6 93.9495C179.6 94.8551 178.866 95.5904 177.959 95.5904H75.3043C74.3987 95.5904 73.6641 94.8551 73.6641 93.9495V93.7574C73.6641 92.8518 74.3987 92.1172 75.3043 92.1172H177.959C178.866 92.1172 179.6 92.8518 179.6 93.7574V93.9495Z" fill="#23262A"/>
<path d="M148.92 61.1688C148.92 61.9579 148.28 62.5975 147.491 62.5975H138.77C137.981 62.5975 137.342 61.9579 137.342 61.1688V61.1318C137.342 60.3434 137.981 59.7031 138.77 59.7031H147.491C148.28 59.7031 148.92 60.3434 148.92 61.1318V61.1688Z" fill="#23262A"/>
<path d="M129.238 60.7889C129.238 60.1898 128.511 59.7031 127.792 59.7031H127.503C126.784 59.7031 126.344 60.1891 126.344 60.7889V67.3011C126.344 67.8995 126.784 68.3869 127.503 68.3869H127.792C128.511 68.3869 129.238 67.9002 129.238 67.3011V60.7889Z" fill="#23262A"/>
<path d="M2.46289 61.5078C2.46289 68.2008 2.46289 76.4203 2.46289 83.3731C4.19951 83.0302 5.93613 81.3131 5.93613 79.2427V65.6396C5.93683 63.5685 4.20021 61.8521 2.46289 61.5078Z" fill="#DF2000"/>
<path d="M5.93613 67.8047H2.46289V70.6983H5.93613V67.8047Z" fill="#FFBF00"/>
<path d="M5.93613 72.4297H2.46289V75.3234H5.93613V72.4297Z" fill="white"/>
<path opacity="0.1" d="M176.276 21.1857C170.888 16.5687 169.14 15.3125 151.548 15.3125C136.694 15.3125 136.766 16.1002 136.766 21.1159C136.766 22.8386 136.766 26.2217 136.766 29.9205C159.921 30.0755 185.193 31.3471 196.76 42.9246C189.975 34.2422 179.41 23.8713 176.276 21.1857Z" fill="white"/>
<path opacity="0.3" d="M231.705 15.1253V14.9724C214.339 -1.93159 203.776 0.0738625 203.776 0.0738625C203.776 0.0738625 180.89 0.0738625 154.193 0.0738625C152.546 -0.0923281 151.676 0.0738625 151.676 0.0738625C118.944 0.0738625 81.4607 0.0738625 73.5255 0.0738625C49.2547 0.0738625 27.2854 0.0738625 21.4261 0.0738625C15.9991 0.0738625 11.9742 6.73546 9.05469 15.1253H231.705Z" fill="white"/>
</svg>
