<svg width="216" height="277" viewBox="0 0 216 277" fill="none" xmlns="http://www.w3.org/2000/svg">
<path d="M108.86 0C83.3888 0 62.7402 20.6485 62.7402 46.1199V134.374H76.5775V46.5676C76.5775 28.7383 91.0309 14.285 108.86 14.285C126.689 14.285 141.143 28.7383 141.143 46.5676V134.374H154.98V46.1199C154.98 20.6485 134.331 0 108.86 0Z" fill="#FFCB57"/>
<path d="M62.7383 111.878V134.369H76.5756V105.422C71.7001 107.074 67.0654 109.248 62.7383 111.878Z" fill="#F48927"/>
<path d="M141.143 106.336V134.37H154.98V113.494C150.679 110.621 146.043 108.211 141.143 106.336Z" fill="#F48927"/>
<path d="M104.949 14.2891C87.1194 14.2891 72.666 28.7424 72.666 46.5717V134.378H76.579V46.5717C76.579 29.3997 89.9874 15.3614 106.905 14.3499C106.258 14.3111 105.606 14.2891 104.949 14.2891Z" fill="#F48927"/>
<path d="M108.861 0C108.205 0 107.553 0.0170954 106.904 0.0440681C131.468 1.06969 151.068 21.3041 151.068 46.1199V134.374H154.981V46.1199C154.981 20.6485 134.332 0 108.861 0Z" fill="#F48927"/>
<path d="M67.3042 44.4703C67.7299 40.827 68.843 35.2249 72.0991 29.2143C74.0875 25.5437 76.1457 23.0672 77.566 21.3765C83.4118 14.4182 89.5007 10.67 90.7329 9.92625C98.531 5.22019 106.024 3.64295 110.783 3.06107C108.737 2.99166 105.886 3.01568 102.516 3.43869C102.516 3.43869 98.8129 3.90346 95.5275 4.80474C92.5911 5.6103 78.3166 10.2503 71.1179 24.6375C67.1141 32.6398 67.0039 40.2504 67.3042 44.4703Z" fill="#FFF8EB"/>
<path d="M144.783 58.9578C146.516 52.7863 146.895 47.6599 146.895 44.0393C146.895 42.0584 146.888 40.6315 146.523 38.8803C145.204 32.543 140.566 28.4817 137.809 26.4844C140.788 30.9066 142.205 34.8436 142.937 37.503C144.033 41.4871 144.227 44.9152 144.565 50.8939C144.756 54.2685 144.788 57.0598 144.783 58.9578Z" fill="#FFF8EB"/>
<path d="M99.0645 247.993C104.748 247.993 110.432 247.993 116.116 247.993C117.321 201.326 118.526 154.658 119.731 107.991C112.843 107.96 105.953 107.929 99.0645 107.898C99.0645 154.597 99.0645 201.295 99.0645 247.993Z" fill="#BF7C2C"/>
<path d="M165.642 227.468C192.997 200.113 192.997 155.762 165.642 128.407C138.287 101.052 93.9361 101.052 66.5812 128.407C39.2263 155.762 39.2263 200.113 66.5812 227.468C93.9361 254.823 138.287 254.823 165.642 227.468Z" fill="#E57828"/>
<path d="M148.591 227.468C175.946 200.113 175.946 155.762 148.591 128.407C121.236 101.052 76.8853 101.052 49.5304 128.407C22.1755 155.762 22.1755 200.113 49.5304 227.468C76.8853 254.823 121.236 254.823 148.591 227.468Z" fill="#FFAE39"/>
<path d="M131.924 212.365C150.075 194.214 150.075 164.786 131.924 146.635C113.773 128.485 84.3454 128.485 66.1947 146.635C48.0441 164.786 48.0441 194.214 66.1947 212.365C84.3454 230.515 113.773 230.515 131.924 212.365Z" fill="#FFC050"/>
<path d="M56.5239 179.494C56.5239 154.484 76.2784 134.091 101.035 133.06C100.382 133.033 99.7271 133.016 99.068 133.016C73.3989 133.016 52.5898 153.825 52.5898 179.494C52.5898 205.163 73.3989 225.972 99.068 225.972C99.7271 225.972 100.382 225.955 101.035 225.927C76.2784 224.897 56.5239 204.504 56.5239 179.494Z" fill="#E57828"/>
<path d="M112.794 166.458C112.794 160.518 108.435 155.703 103.059 155.703C97.6826 155.703 93.3242 160.518 93.3242 166.458C93.3242 171.08 95.9633 175.02 99.6671 176.541C98.004 184.777 96.3406 193.012 94.6775 201.248H110.884C109.234 193.077 107.584 184.907 105.934 176.736C109.906 175.382 112.794 171.293 112.794 166.458Z" fill="#E57828"/>
<path d="M108.063 166.458C108.063 160.518 103.705 155.703 98.3286 155.703C92.9521 155.703 88.5938 160.518 88.5938 166.458C88.5938 171.08 91.2328 175.02 94.9366 176.541C93.2735 184.777 91.6101 193.012 89.947 201.248H106.154C104.503 193.077 102.853 184.907 101.203 176.736C105.176 175.382 108.063 171.293 108.063 166.458Z" fill="#FFF8EB"/>
<path d="M110.531 166.458C110.531 160.518 106.172 155.703 100.795 155.703C95.4186 155.703 91.0605 160.518 91.0605 166.458C91.0605 171.08 93.6996 175.02 97.4034 176.541C95.7403 184.777 94.0769 193.012 92.4138 201.248H108.62C106.97 193.077 105.32 184.907 103.67 176.736C107.643 175.382 110.531 171.293 110.531 166.458Z" fill="#994D1A"/>
<path d="M99.0656 107.898C98.4088 107.898 97.7542 107.908 97.1016 107.926C134.879 108.966 165.185 139.917 165.185 177.946C165.185 215.975 134.879 246.925 97.1016 247.965C97.7542 247.983 98.4088 247.993 99.0656 247.993C137.752 247.993 169.113 216.632 169.113 177.946C169.113 139.26 137.752 107.898 99.0656 107.898Z" fill="#FFF8EB"/>
</svg>
