<svg width="190" height="221" viewBox="0 0 190 221" fill="none" xmlns="http://www.w3.org/2000/svg">
<path d="M181.715 68.7768C183.044 65.5096 184.332 62.2259 185.454 58.8927C186.337 56.2709 187.298 53.6303 187.995 50.952C188.165 50.3042 188.318 49.6541 188.462 48.9992C189.051 45.8945 189.392 42.7451 189.409 39.5603C189.413 38.5003 189.38 37.4356 189.305 36.3732C187.861 28.8165 185.555 21.0807 181.148 14.7559C180.059 13.4274 178.867 12.1765 177.555 11.0364C171.066 5.39007 162.55 2.39611 154.167 1.01808C145.397 -0.423539 136.207 -0.390561 127.504 1.47978C123.695 2.29717 120.074 3.51973 116.463 4.96135C116.364 5.0014 116.284 5.05557 116.208 5.11446C113.735 5.8447 111.288 6.69978 108.883 7.70326C98.2895 12.1247 89.1285 19.3564 82.0688 28.3877C78.6886 32.7126 75.8548 37.4073 73.518 42.3729C70.7926 48.163 68.8445 54.3511 66.8281 60.4144C65.7563 63.6369 64.6893 66.8852 63.8789 70.1831C63.0922 73.389 62.5857 76.6539 61.9403 79.8881C60.8308 85.4426 59.0193 90.7074 55.8628 95.4421C50.6358 103.284 42.8293 108.669 35.1783 113.917C27.3813 119.267 19.3935 124.609 13.3373 131.987C7.46241 139.143 3.37074 147.743 1.39675 156.784C-0.546619 165.691 -0.55133 175.09 1.98565 183.881C4.53205 192.714 9.68372 200.641 16.9201 206.341C25.6264 213.201 36.2666 217.639 47.1636 219.481C58.1242 221.335 69.4499 220.694 80.1726 217.78C91.1473 214.798 101.47 209.573 110.082 202.115C118.932 194.45 125.718 184.58 130.005 173.707C132.29 167.912 133.871 161.882 135.206 155.807C136.514 149.859 137.423 143.868 139.289 138.052C141.053 132.547 143.453 127.236 146.433 122.282C149.641 116.949 153.512 112.08 157.274 107.135C165.181 96.7377 172.908 86.1234 178.907 74.4844C179.873 72.6117 180.815 70.7084 181.715 68.7768Z" fill="#AE7E4C"/>
<path d="M8.72044 193.406C7.27175 191.01 6.07511 188.497 5.12109 185.901C5.25536 184.492 5.18469 183.079 5.42025 181.663C5.65581 180.254 6.10572 178.879 6.58861 177.531C6.61924 177.656 6.64515 177.779 6.67813 177.901C6.75116 178.165 6.89484 178.382 7.04325 178.61C7.10685 178.709 7.2058 178.754 7.3118 178.78C7.94074 179.854 8.69217 180.862 9.45303 181.861C10.1668 182.794 10.9088 183.705 11.599 184.655C11.957 185.147 12.3009 185.651 12.6119 186.174C12.871 186.61 13.083 187.109 13.3657 187.535C11.8722 189.488 10.3529 191.422 8.78405 193.316C8.76049 193.347 8.744 193.375 8.72044 193.406Z" fill="#DAAE79"/>
<path d="M176.315 13.7417C177.71 15.0302 178.942 16.4648 180.042 17.9983C179.912 18.3893 179.78 18.7827 179.644 19.1713C179.005 18.8416 178.247 18.6272 177.677 18.4293C176.539 18.0383 175.368 17.7321 174.186 17.4989C173.041 17.2727 171.894 17.1055 170.744 16.9524C170.756 16.91 170.765 16.8652 170.768 16.8205C170.78 16.5802 170.761 16.3635 170.61 16.1633C170.537 16.0643 170.447 15.9748 170.358 15.8876C170.021 15.5484 169.729 15.1503 169.51 14.724C169.498 14.7028 169.484 14.6698 169.475 14.6533V14.651C169.764 14.0927 170.059 13.5368 170.332 12.9667C170.782 12.0268 171.199 11.0728 171.597 10.1094C173.269 11.1859 174.857 12.3943 176.315 13.7417Z" fill="#DAAE79"/>
<path d="M47.956 184.979C47.8547 184.825 47.7723 184.665 47.6686 184.515C47.5791 184.387 47.5085 184.248 47.4402 184.107C47.4166 184.05 47.4001 183.989 47.3789 183.933C51.0419 179.994 54.4881 175.877 57.6022 171.453C58.3253 170.423 59.0391 169.387 59.7528 168.35C59.8965 168.35 60.0449 168.315 60.191 168.266C61.5808 171.045 64.3203 173.052 66.6123 175.08C66.8738 175.311 67.1353 175.544 67.392 175.785C67.4038 175.796 67.4227 175.813 67.4415 175.832C67.5122 175.902 67.5828 175.975 67.6535 176.046C68.0563 176.449 68.5345 176.918 69.0103 177.382C69.9785 178.326 70.9537 179.252 72.0537 180.041C72.5578 180.404 73.1962 180.854 73.8652 181.122C72.6803 182.444 71.5073 183.772 70.386 185.143C68.5675 187.367 66.895 189.697 65.2979 192.078C65.1707 192.184 65.0506 192.297 64.9304 192.41L64.9234 192.415C64.8763 192.453 64.8268 192.491 64.7773 192.528C64.6525 192.62 64.5229 192.707 64.391 192.79C64.3792 192.797 64.3675 192.804 64.3557 192.811C64.2874 192.842 64.219 192.877 64.1531 192.917C63.1731 192.387 62.1979 191.85 61.1379 191.454C59.1686 190.719 57.2229 189.961 55.2654 189.19C53.3503 188.437 51.3622 187.834 49.5673 186.814C49.0113 186.498 48.4625 186.168 47.8995 185.867C48.0714 185.591 48.1445 185.266 47.956 184.979Z" fill="#DAAE79"/>
<path d="M15.4441 184.334C15.3711 184.35 15.2981 184.367 15.2227 184.378C15.2227 184.378 15.1874 184.383 15.1567 184.388C15.0036 184.395 14.8505 184.397 14.6974 184.385C14.6597 184.383 14.622 184.378 14.5843 184.374C14.5773 184.374 14.5749 184.374 14.5702 184.374C14.5608 184.371 14.5561 184.371 14.5419 184.369C14.5042 184.362 14.4665 184.357 14.4289 184.352C14.4194 184.352 14.4265 184.352 14.4218 184.352C14.4053 184.348 14.3865 184.343 14.3818 184.343C14.2663 184.319 14.1509 184.284 14.0378 184.246C13.8706 184.025 13.7033 183.811 13.5479 183.61C12.8035 182.652 11.9908 181.764 11.1546 180.887C10.1864 179.874 9.23478 178.826 8.36792 177.719C8.35378 177.547 8.342 177.375 8.28782 177.203C8.22186 176.991 8.16063 176.774 8.10645 176.558C8.0028 176.148 7.89208 175.738 7.82612 175.319C7.78372 175.055 7.76488 174.779 7.75781 174.501C8.68592 172.221 9.70119 169.974 10.6576 167.71C11.7953 165.015 12.8059 162.276 13.9766 159.595C14.0072 159.595 14.0355 159.593 14.0661 159.593C14.1768 159.59 14.2852 159.586 14.3959 159.576C14.5278 159.562 14.6526 159.524 14.7775 159.484C15.1355 160.368 15.5902 161.216 16.0872 162.017C17.3427 164.04 18.8951 165.873 20.5817 167.548C21.1564 168.12 21.7595 168.699 22.3766 169.265C22.975 170.421 23.1799 171.663 22.8289 172.932C22.6004 173.762 22.2659 174.551 21.9503 175.347C20.0069 178.348 17.967 181.285 15.8564 184.171C15.788 184.202 15.7197 184.235 15.6514 184.265C15.5855 184.293 15.5148 184.317 15.4465 184.345C15.5007 184.324 15.536 184.31 15.5619 184.298C15.5266 184.31 15.4771 184.326 15.4441 184.334Z" fill="#DAAE79"/>
<path d="M78.2422 50.6729C79.1444 48.6589 80.0678 46.6543 81.0501 44.678C83.0947 40.5698 85.203 36.4946 87.6269 32.5938C87.2453 33.2062 94.9151 37.7101 95.6736 38.3391C98.5403 40.7182 99.0515 43.6745 97.0398 46.8804C95.4569 49.4009 93.8739 51.9214 92.2933 54.4443C91.0095 56.4889 89.7422 58.8586 87.0003 59.007C85.8649 59.0683 85.3372 58.4393 84.7413 57.7609C84.501 57.4877 84.2513 57.2074 83.9451 56.9624C82.7249 55.9825 81.1207 55.5373 80.0418 54.3642C79.4105 53.6763 78.89 52.8731 78.5484 52.0039C78.3741 51.5563 78.2893 51.1158 78.2422 50.6729Z" fill="#DAAE79"/>
<path d="M124.154 115.559C124.037 115.896 123.917 116.231 123.815 116.572C123.806 116.605 123.803 116.636 123.796 116.666C122.4 118.591 120.908 120.44 119.349 122.289C119.212 122.452 119.081 122.621 118.946 122.784C118.788 122.859 118.633 122.939 118.475 123.015C118.112 123.191 117.735 123.338 117.352 123.467C117.342 123.469 117.333 123.474 117.326 123.476C117.347 123.469 117.323 123.476 117.281 123.491C117.297 123.486 117.319 123.479 117.326 123.476C117.293 123.488 117.257 123.498 117.227 123.509C117.248 123.502 117.264 123.495 117.281 123.491C117.271 123.493 117.269 123.495 117.255 123.498C117.156 123.528 117.059 123.557 116.96 123.585C116.833 123.62 116.708 123.656 116.584 123.696C116.513 123.719 116.445 123.743 116.374 123.766C116.313 123.752 116.124 123.846 116.063 123.863C115.95 123.896 115.837 123.929 115.726 123.964C115.495 124.039 115.295 124.145 115.085 124.268C115.052 124.287 115.024 124.325 114.991 124.355C113.159 123.634 111.42 122.539 109.731 121.66C108.355 120.944 106.982 120.202 105.682 119.357C104.824 118.801 104.073 118.115 103.303 117.458C106.685 113.272 109.922 108.975 112.883 104.486C113.055 104.325 113.199 104.137 113.26 103.925C113.26 103.923 113.26 103.918 113.262 103.916C114.647 101.793 115.952 99.6167 117.208 97.4024C117.253 97.4095 117.295 97.4236 117.34 97.4307C117.314 97.426 117.309 97.426 117.354 97.433C117.387 97.4377 117.422 97.4424 117.455 97.4472C117.592 97.4684 117.728 97.4872 117.863 97.506C118.011 97.5249 118.159 97.539 118.308 97.539C118.619 97.539 118.906 97.4872 119.182 97.3906C120.364 97.9536 121.511 98.5896 122.647 99.2492C124.687 100.439 126.731 101.435 128.99 102.147C129.81 102.406 130.8 102.801 131.674 102.672C130.929 103.751 130.187 104.832 129.455 105.92C127.608 108.662 125.752 111.524 124.515 114.617C124.154 114.857 123.924 115.26 124.154 115.559Z" fill="#DAAE79"/>
<path d="M81.2861 154.023C80.0683 153.884 78.9541 153.13 78.1037 152.289C77.3476 151.54 76.6903 150.525 76.6103 149.439C76.5678 148.876 76.6103 148.283 76.7021 147.701C80.9186 143.02 85.0833 138.295 89.3116 133.624C90.2868 132.547 92.0841 129.541 93.6106 129.539C96.303 129.537 97.886 132.952 99.2593 134.768C100.31 136.161 101.332 137.572 102.324 139.009C102.562 139.355 102.802 139.699 103.04 140.045C103.24 140.933 103.356 141.845 103.278 142.752C103.231 143.293 103.118 143.823 102.932 144.335C102.826 144.624 102.698 144.905 102.552 145.175C102.527 145.225 102.501 145.277 102.475 145.326C100.348 148.332 98.204 151.326 95.985 154.266C94.8449 155.773 93.693 157.274 92.5364 158.767C92.4469 158.753 92.3527 158.744 92.2726 158.72C91.3751 158.475 90.5059 158.129 89.6461 157.773C88.0066 157.092 86.4025 156.362 84.7347 155.75C83.6511 155.352 82.6005 154.914 81.5617 154.447C81.63 154.259 81.5758 154.056 81.2861 154.023Z" fill="#DAAE79"/>
<path d="M49.8521 149.2C49.7862 148.988 49.6566 148.778 49.5671 148.576C49.4163 148.236 49.2939 147.878 49.1832 147.525C48.9452 146.774 48.8251 145.989 48.8204 145.202C48.818 144.477 48.8769 143.721 49.0536 143.016C49.0983 142.835 49.1549 142.658 49.2161 142.484C52.6341 139.278 56.1628 136.188 59.6656 133.085C61.967 131.048 64.2165 128.965 66.4402 126.859C67.7334 127.564 69.0879 128.157 70.3646 128.888C72.0772 129.863 73.6248 131.257 75.0947 132.558C76.4138 133.724 77.554 135.026 78.72 136.341C79.0521 136.718 79.4007 137.111 79.7611 137.497C79.8553 137.865 79.9284 138.239 79.9731 138.619C80.0391 139.181 80.0085 139.792 79.8931 140.348C79.8695 140.463 79.8318 140.581 79.7917 140.698C78.1263 142.526 76.461 144.357 74.7955 146.187C72.0277 149.233 69.1515 152.18 66.4355 155.27C64.3414 157.654 62.4075 160.151 60.5489 162.712C60.5183 162.733 60.49 162.756 60.4594 162.777C60.4523 162.782 60.4523 162.782 60.4452 162.787C60.4123 162.803 60.3793 162.82 60.3463 162.836C60.2757 162.869 60.1767 162.893 60.106 162.933C60.0919 162.938 60.0754 162.94 60.0613 162.945C60.0236 162.954 59.9883 162.961 59.9506 162.971C59.8587 162.99 59.7668 163.004 59.6726 163.018C59.6679 163.018 59.6656 163.02 59.6608 163.02C59.6538 163.02 59.649 163.02 59.6373 163.02C59.5902 163.02 59.543 163.022 59.4959 163.022C59.4017 163.022 59.3098 163.015 59.2156 163.008C59.2038 163.008 59.2086 163.008 59.2039 163.008C59.1944 163.006 59.1992 163.008 59.185 163.006C59.1379 162.997 59.0931 162.987 59.046 162.978C58.8599 162.935 58.6785 162.881 58.5019 162.808C58.4948 162.806 58.443 162.782 58.4312 162.777C58.3912 162.759 58.3535 162.737 58.3134 162.716C58.2263 162.669 58.1438 162.617 58.0637 162.561C57.9153 162.457 57.7693 162.344 57.6279 162.229C57.3665 161.838 57.1074 161.442 56.8553 161.044C55.5762 159.025 54.2571 157.035 52.9804 155.013C51.9416 153.367 50.9286 151.704 49.9181 150.038C49.9393 149.958 49.9487 149.878 49.9346 149.801C49.9134 149.6 49.911 149.386 49.8521 149.2Z" fill="#DAAE79"/>
<path d="M93.5874 97.085C93.7076 96.906 93.8206 96.7222 93.9337 96.5385C94.1457 96.3736 94.313 96.1616 94.3695 95.9166C94.386 95.8506 94.3977 95.7847 94.4142 95.7164C94.744 95.1181 95.0432 94.508 95.3141 93.8837C95.5544 93.8178 95.7876 93.6976 95.9925 93.5469C96.3788 94.1452 96.8947 94.6752 97.3423 95.2217C98.7698 96.9672 100.329 98.602 101.891 100.227C103.215 101.603 104.423 103.073 105.693 104.498C106.312 105.195 106.963 105.867 107.662 106.486C107.891 106.689 108.121 106.894 108.357 107.08C107.575 108.215 106.781 109.343 105.959 110.458C101.328 116.742 96.2116 122.646 90.9704 128.424C90.8408 128.565 90.7136 128.706 90.5841 128.848C90.3061 127.533 89.8044 126.228 89.4063 125.008C88.7844 123.098 88.3722 121.124 87.6396 119.253C86.3087 115.864 84.5184 112.698 83.3477 109.247C85.324 107.004 87.2862 104.75 89.2296 102.482C90.7278 100.734 92.3013 99.0001 93.5874 97.085Z" fill="#DAAE79"/>
<path d="M85.1975 119.919C85.7582 121.314 86.2858 122.72 86.7004 124.162C87.2987 126.249 88.6979 128.465 88.3069 130.72C87.9394 132.842 85.9019 134.51 84.0598 135.393C80.7101 137.002 79.6242 134.05 77.5701 132.211C75.3441 130.218 72.8118 128.461 70.0675 127.264C69.5799 127.052 69.0664 126.84 68.7272 126.432C67.2714 124.675 71.4079 122.145 72.3807 121.142C74.0603 119.406 75.5514 117.5 77.1862 115.722C78.3098 114.499 80.3686 111.712 82.2483 111.943C82.6134 111.986 84.9196 119.229 85.1975 119.919Z" fill="#DAAE79"/>
<path d="M101.261 133.365C99.8408 131.666 98.2956 130.083 96.5454 128.689C96.3616 128.543 96.1708 128.394 96.0436 128.194C94.9365 126.472 97.0212 123.881 98.0671 122.661C99.6618 120.793 101.527 118.671 103.794 120.616C105.629 122.194 107.619 123.556 109.72 124.755C111.108 125.549 113.769 127.65 115.442 127.172C114.528 127.452 113.626 129.584 113.075 130.359C111.591 132.444 110.118 134.533 108.639 136.623C107.676 137.982 106.349 139.374 104.71 137.953C103.372 136.802 102.415 134.747 101.261 133.365Z" fill="#DAAE79"/>
<path d="M111.131 102.855H111.126C110.699 102.837 110.271 102.811 109.842 102.782C108.938 102.721 108.087 102.556 107.187 102.384C106.113 101.176 105.058 99.958 103.925 98.8014C102.478 97.3268 101.018 95.864 99.5693 94.3917C98.9804 93.7934 98.3656 93.2775 97.7202 92.7451C97.381 92.4648 96.924 92.1492 96.5801 91.7723C99.9792 86.2578 103.461 80.7929 106.928 75.3208C107.046 75.1347 107.161 74.9439 107.279 74.7578C107.347 74.7743 107.416 74.7884 107.477 74.8026C108.047 74.9156 108.61 75.0358 109.185 75.1229C110.977 75.3938 112.725 75.8767 114.473 76.3455C117.587 77.1794 120.784 77.8884 123.983 78.3878C122.211 82.1261 120.463 85.8786 118.619 89.5816C116.348 94.1491 113.851 98.5705 111.131 102.855Z" fill="#DAAE79"/>
<path d="M90.5696 63.2596C92.2515 59.7639 93.891 56.207 95.8391 52.8479C96.3361 51.9905 96.8425 51.1425 97.3608 50.2992C101.068 50.1908 104.739 50.5936 108.434 50.987C110.463 51.2037 112.5 51.2437 114.533 51.4016C115.548 51.4793 116.564 51.5759 117.569 51.729C117.76 51.7573 117.942 51.7902 118.118 51.8232C114.062 58.6356 110.173 65.5587 105.952 72.2415C105.37 73.1649 104.786 74.0883 104.204 75.0117C103.57 75.2449 102.922 75.3886 102.171 75.3486C101.043 75.2897 99.9448 74.9363 98.8966 74.5335C97.2571 73.9046 95.66 73.1437 94.0512 72.437C92.0725 71.5678 89.2764 70.2298 88.2305 68.0933C89.0172 66.4845 89.7946 64.8685 90.5696 63.2596Z" fill="#DAAE79"/>
<path d="M120.079 75.4298C117.974 75.0222 115.91 74.4498 113.811 74.007C112.089 73.6442 110.337 73.4864 108.584 73.3686C108.448 73.3592 108.304 73.3521 108.16 73.3451C111.58 67.8801 114.888 62.3562 118.148 56.7946L118.626 56.8535C118.751 56.87 118.883 56.83 119.005 56.7734C120.065 58.6296 121.528 60.288 122.932 61.8521C123.94 62.9757 124.927 64.1064 125.846 65.3054C126.753 66.4856 127.634 67.7764 128.63 68.9189C127.573 70.9588 126.564 73.0247 125.568 75.0953C125.33 75.246 125.097 75.4015 124.873 75.5734C124.642 75.7501 124.426 75.9456 124.204 76.1341C122.824 75.8891 121.436 75.6936 120.079 75.4298Z" fill="#DAAE79"/>
<path d="M127.697 64.0154C126.738 62.8895 125.718 61.8271 124.677 60.7788C123.16 59.2501 121.379 57.7142 120.086 55.9098C120.185 55.8297 120.27 55.7379 120.331 55.6295C120.437 55.4411 120.472 55.2715 120.449 55.0524C120.446 55.0359 120.446 55.0218 120.444 55.0076C120.432 54.871 120.425 54.7367 120.42 54.6001C120.416 54.4517 120.395 54.308 120.376 54.162C120.352 53.8322 120.369 53.5001 120.423 53.1726C120.453 53.0525 120.486 52.9371 120.541 52.824C120.555 52.791 120.552 52.7439 120.557 52.7039C122.39 49.5968 124.253 46.5063 126.201 43.4699C126.298 43.3545 126.375 43.2344 126.432 43.1095C127.558 41.3664 128.724 39.6492 129.918 37.9531C131.977 39.8988 134.295 41.4724 136.655 43.0506C137.802 43.8162 138.94 44.5912 140.106 45.3261C140.7 45.7007 141.291 46.0799 141.845 46.5086C142.099 46.7065 142.327 46.9279 142.551 47.1541C138.111 53.0054 133.993 59.1017 130.441 65.5371C130.335 65.556 130.232 65.5772 130.126 65.596C129.805 65.6526 129.487 65.7232 129.171 65.8057C128.691 65.2003 128.199 64.6043 127.697 64.0154Z" fill="#DAAE79"/>
<path d="M142.521 51.0817C143.92 49.1478 145.373 47.2586 146.845 45.3836C147.008 45.254 147.135 45.0938 147.22 44.9077C150.014 41.3602 152.885 37.8763 155.728 34.3664C155.787 34.3688 155.841 34.3806 155.9 34.3782C155.938 34.3759 155.978 34.3641 156.016 34.3594C156.086 34.4418 156.159 34.5243 156.228 34.6067C156.786 35.271 157.384 35.9046 157.966 36.5477C159.111 37.8174 160.301 39.0635 161.547 40.2342C162.152 40.8019 162.736 41.372 163.313 41.9515C163.624 42.8089 163.928 43.6687 164.145 44.5497C164.585 46.3399 164.451 48.46 163.81 50.2267C163.083 51.4798 162.341 52.7236 161.599 53.9674C161.156 54.5539 160.701 55.1287 160.27 55.7058C159.811 56.3229 159.309 56.933 158.626 57.3123C158.039 57.6374 157.399 57.7363 156.755 57.8612C155.695 57.4395 154.645 56.999 153.585 56.5821C151.387 55.7176 149.083 55.2606 146.754 54.919C145.825 54.7824 144.876 54.7282 143.96 54.5138C143.432 54.3914 142.912 54.2689 142.384 54.1746C142.391 53.9791 142.316 53.786 142.073 53.6164C142.026 53.5834 141.976 53.5598 141.929 53.5269C141.873 53.4868 141.821 53.4397 141.769 53.3949C141.654 53.2677 141.552 53.1288 141.468 52.9804C141.43 52.8838 141.406 52.7825 141.383 52.6812C141.762 52.1488 142.137 51.6118 142.521 51.0817Z" fill="#DAAE79"/>
<path d="M156.336 29.912C155.926 30.1782 155.49 30.4043 155 30.581C154.496 30.7624 153.942 30.8849 153.396 30.8896C153.203 30.793 153.01 30.6941 152.816 30.5975C151.401 29.8885 149.994 29.1629 148.583 28.4421C146.755 27.507 144.909 26.6307 143.005 25.8957C142.586 25.328 142.358 24.5271 142.284 23.8629C142.275 23.7851 142.27 23.7027 142.266 23.6202C143.495 22.5202 144.751 21.4437 146.032 20.3978C148.901 18.0516 151.914 15.7949 154.774 13.3828C154.8 13.3852 154.826 13.3875 154.849 13.3875C154.906 13.3993 154.962 13.4111 155.019 13.4229C155.306 13.4817 155.582 13.5665 155.853 13.6749C155.989 13.7291 156.128 13.7786 156.265 13.8304C156.442 13.8987 156.623 13.8987 156.807 13.8963C157.389 14.4287 157.975 14.954 158.55 15.4958C159.857 16.7325 161.169 18.0068 162.02 19.6134C162.102 19.7688 162.175 19.929 162.241 20.0892C162.265 20.4991 162.253 20.9019 162.218 21.3141C162.177 21.7617 162.097 22.1975 161.958 22.6238C161.921 22.7392 161.878 22.8547 161.834 22.9677C161.819 23.0007 161.775 23.1067 161.753 23.1515C160.126 25.3469 158.451 27.514 156.729 29.6458C156.599 29.7354 156.468 29.8272 156.336 29.912Z" fill="#DAAE79"/>
<path d="M147.171 30.3535C148.559 31.0955 149.946 31.8446 151.34 32.5701C152.045 32.9376 152.754 33.2839 153.472 33.6207C150.631 37.0552 147.776 40.4732 145.03 43.9453C144.773 43.9736 144.514 43.9995 144.257 44.0348C143.758 44.1008 143.268 44.1997 142.794 44.3528C142.502 44.1667 142.215 43.9924 141.958 43.8322C140.757 43.0855 139.527 42.3836 138.319 41.651C135.749 40.0916 133.127 38.5934 130.635 36.9092C130.814 36.6595 130.986 36.4027 131.167 36.153C133.358 33.1473 135.678 30.2075 138.229 27.4962C138.684 27.0133 139.157 26.5445 139.628 26.0781C142.092 27.5975 144.62 28.9896 147.171 30.3535Z" fill="#DAAE79"/>
<path d="M137.734 24.7082C135.063 27.3229 132.691 30.232 130.42 33.1954C128.71 35.4238 127.099 37.7205 125.53 40.0478C125.497 40.0596 125.457 40.0619 125.426 40.0761C125.049 40.2504 124.675 40.4247 124.303 40.6108C124.119 40.7027 123.942 40.8039 123.765 40.9076C119.236 38.6721 114.428 37.1104 109.519 35.9279C109.505 35.8148 109.453 35.7088 109.333 35.6358C109.224 35.5675 109.125 35.485 109.031 35.4002C108.84 35.1953 108.694 34.9621 108.569 34.71C108.544 34.6464 108.527 34.5805 108.506 34.5169C110.784 31.5253 113.078 28.5478 115.344 25.5515C119.047 20.6565 123.542 16.6544 128.773 13.4531C129.723 13.5591 130.637 13.8112 131.52 14.1622C131.574 14.2163 131.624 14.2752 131.683 14.3223C131.883 14.4872 132.107 14.5508 132.361 14.5296C133.353 15.0031 134.304 15.592 135.214 16.2398C136.474 17.1396 137.673 18.1054 138.86 19.0995C139.703 19.8038 140.563 20.6424 141.51 21.2713C140.217 22.3761 138.952 23.5162 137.734 24.7082Z" fill="#DAAE79"/>
<path d="M110.899 38.3601C114.467 39.7852 118.102 41.0596 121.569 42.7109C121.525 42.8216 121.513 42.9441 121.588 43.043C121.732 43.2315 121.857 43.4482 121.963 43.6649C122.085 43.9523 122.175 44.2538 122.248 44.5553C122.279 44.6802 122.304 44.8074 122.333 44.9346C122.17 45.1937 122.005 45.4528 121.843 45.7119C121.652 45.9805 121.475 46.2608 121.289 46.5081C121.237 46.5788 121.183 46.6471 121.129 46.7178C121.282 46.5175 121.098 46.7555 121.08 46.779C120.966 46.918 120.853 47.057 120.736 47.1936C120.502 47.4645 120.26 47.733 120.015 47.9945C119.895 48.1241 119.77 48.2489 119.643 48.3714C119.579 48.4326 119.515 48.4892 119.449 48.5504C119.428 48.5693 119.431 48.5693 119.424 48.5763C119.412 48.5834 119.412 48.5834 119.386 48.6022C119.115 48.8119 118.837 49.0145 118.547 49.1982C118.528 49.21 118.434 49.2642 118.415 49.2783C118.354 49.3113 118.293 49.3419 118.229 49.3725C118.09 49.4385 117.947 49.4997 117.801 49.5492C117.746 49.568 117.673 49.5869 117.61 49.6057C116.877 49.5162 116.145 49.4385 115.41 49.3819C113.245 49.217 111.073 49.1487 108.908 48.9909C105.273 48.7247 101.662 48.3737 98.1172 49.0781C99.3044 47.1889 100.539 45.328 101.832 43.5047C103.083 41.7404 104.369 40.002 105.667 38.2706C106.216 38.1882 106.774 38.1599 107.328 38.1764C108.498 38.2164 109.723 38.4732 110.899 38.3601Z" fill="#DAAE79"/>
<path d="M93.8622 75.3614C95.2803 76.2142 96.7431 76.9962 98.2201 77.7382C99.0587 78.1599 99.9726 78.6027 100.915 78.8783C100.927 78.9608 100.945 79.0409 100.957 79.1233C100.967 79.1893 100.974 79.2552 100.981 79.3235C100.986 79.3565 100.988 79.3895 100.993 79.4248C100.993 79.4319 100.995 79.4649 100.997 79.4837C100.997 79.5002 101 79.5191 101 79.5191C101.002 79.552 101.004 79.585 101.007 79.618C101.011 79.6839 101.014 79.7475 101.016 79.8135C101.021 79.9101 101.018 80.009 101.021 80.1056C99.1364 83.1584 97.299 86.2396 95.6101 89.4008C94.8728 89.7494 94.1166 90.0815 93.4617 90.5644C93.4382 90.5809 93.417 90.6045 93.3934 90.6257C92.6302 90.3454 91.8529 90.1004 91.0802 89.8742C89.1274 89.3018 87.1982 88.647 85.2266 88.1358C82.1949 87.3467 80.3034 87.0098 78.6168 84.169C78.4401 83.8722 81.4812 80.0043 81.7215 79.6415C83.0029 77.7147 84.2372 75.7525 85.3514 73.7219C85.8602 72.7962 86.3502 71.8563 86.8331 70.9141C89.151 72.4381 91.4948 73.9363 93.8622 75.3614Z" fill="#DAAE79"/>
<path d="M79.6547 88.5555C81.1151 89.2316 82.6322 89.6768 84.1586 90.1785C86.3375 90.897 89.2373 91.0713 91.044 92.6896C94.2994 95.6035 89.6 98.8306 87.659 100.922C84.5284 104.296 81.5062 107.765 78.4109 111.169C75.7114 114.135 72.9624 117.03 70.1593 119.873C69.0498 120.064 67.9851 119.541 67.0523 118.858C65.7661 117.748 64.5365 116.571 63.3422 115.36C62.2893 114.295 61.2457 113.204 60.0349 112.319C59.8842 112.147 59.7287 111.977 59.585 111.798C59.0126 111.087 58.452 110.203 58.3672 109.282C61.0738 106.324 63.7427 103.33 66.322 100.258C69.6976 96.2371 72.9082 92.0677 75.9941 87.8159C76.1119 87.7853 76.2297 87.7546 76.3474 87.724C76.5689 87.6628 76.7903 87.6039 77.0117 87.5332C77.0894 87.5097 77.1648 87.4814 77.2402 87.4531C78.0764 87.7758 78.8938 88.2022 79.6547 88.5555Z" fill="#DAAE79"/>
<path d="M61.522 116.943C63.2392 118.827 65.0718 120.596 67.0906 122.146C67.0859 122.191 67.0788 122.236 67.0741 122.28C67.0694 122.323 67.0623 122.365 67.0576 122.408C67.0552 122.419 67.0552 122.431 67.0529 122.443C67.0529 122.443 67.0529 122.443 67.0505 122.45C67.0011 122.601 66.9704 122.756 66.921 122.907C66.888 123.006 66.8456 123.1 66.8055 123.197C64.3604 125.59 61.88 127.948 59.3171 130.235C57.1405 132.176 54.9522 134.11 52.778 136.056C52.7615 136.065 52.7474 136.065 52.7332 136.075C51.3199 136.89 49.6592 136.612 48.1563 136.207C46.4202 135.738 44.7713 135.015 43.0847 134.402C41.6455 133.879 40.0884 133.656 38.6844 133.043C37.9236 132.711 37.4548 132.214 37.1934 131.597C43.5346 124.902 50.0172 118.325 56.2902 111.562C56.8131 112.288 57.5057 112.905 58.1511 113.496C59.336 114.582 60.436 115.751 61.522 116.943Z" fill="#DAAE79"/>
<path d="M41.8961 136.745C43.9195 137.579 46.0443 138.608 48.2232 139.247C48.2256 139.374 48.2209 139.501 48.2326 139.628C48.2491 139.798 48.268 139.965 48.2892 140.132C45.6391 142.603 43.048 145.133 40.5958 147.809C37.7125 150.952 35.0413 154.29 32.6739 157.837C30.5162 161.071 28.554 164.433 26.5918 167.789C26.5494 167.811 26.507 167.832 26.4669 167.853C26.5211 167.822 26.6366 167.764 26.5141 167.822C26.4717 167.844 26.4293 167.865 26.3869 167.886C26.2903 167.931 26.1937 167.971 26.0948 168.008C26.0877 168.011 26.0712 168.018 26.0524 168.025C26.1748 167.978 26.0335 168.027 26.0052 168.034C25.904 168.06 25.8027 168.082 25.7014 168.098C25.692 168.1 25.6613 168.107 25.6331 168.112C25.6236 168.112 25.6166 168.11 25.593 168.112C25.5011 168.114 25.4093 168.119 25.3151 168.114C25.2679 168.114 25.2208 168.112 25.1737 168.107C25.1737 168.107 25.136 168.105 25.1007 168.1C24.3493 167.469 23.6002 166.833 22.8959 166.141C21.4071 164.675 19.9891 163.107 18.7759 161.403C17.5345 159.663 16.2884 157.51 16.0293 155.366C16.8585 153.814 17.7418 152.292 18.6676 150.784C19.591 149.279 20.5992 147.823 21.6144 146.377C21.8358 146.061 22.0596 145.741 22.2834 145.421C26.58 142.175 30.5351 138.486 34.2922 134.625C36.9211 134.75 39.4557 135.739 41.8961 136.745Z" fill="#DAAE79"/>
<path d="M22.2454 179.164C22.3161 178.794 22.4386 178.443 22.5776 178.1C23.8025 176.307 25.0015 174.493 26.1322 172.62C27.7905 169.879 29.3805 167.094 31.0507 164.359C34.0635 166.635 36.3696 169.806 38.7134 172.715C40.042 174.364 41.4694 175.928 42.8145 177.565C43.5188 178.422 44.2491 179.247 45.0405 180.024C45.4363 180.413 45.8933 180.896 46.395 181.289C45.3703 182.389 44.3362 183.477 43.2903 184.552C41.2598 186.641 39.2034 188.702 37.1375 190.759C36.9114 190.796 36.6876 190.834 36.4615 190.865C35.7595 190.961 35.074 191.055 34.3909 191.244C34.3037 191.267 34.2189 191.307 34.1389 191.354C33.6701 190.942 33.1919 190.549 32.7231 190.179C31.3121 189.062 29.9741 187.859 28.6008 186.697C26.5397 184.959 24.528 183.15 22.415 181.47C22.3255 181.211 22.2667 180.938 22.2266 180.726C22.13 180.21 22.1465 179.68 22.2454 179.164Z" fill="#DAAE79"/>
<path d="M44.8706 175.425C43.5044 173.764 42.0486 172.193 40.6353 170.575C38.5176 168.153 36.2491 165.277 33.3235 163.734L33.3211 163.727C33.5803 163.515 33.7993 163.197 33.691 162.882C33.4954 162.312 33.3305 161.72 33.2481 161.124C33.2434 161.096 33.241 161.068 33.2387 161.042C33.2363 161.002 33.2387 160.962 33.2363 160.922C35.5236 157.447 38.0229 154.168 40.7884 151.056C42.1735 149.497 43.608 147.987 45.0732 146.508C45.0803 146.51 45.085 146.513 45.092 146.515C45.2499 146.597 45.4053 146.684 45.5631 146.765C45.6621 146.814 45.7563 146.866 45.8529 146.92C45.9942 147.002 46.1473 147.127 46.3052 147.167C46.3264 147.172 46.3476 147.172 46.3664 147.174C46.6467 147.966 46.9624 148.748 47.3534 149.532C48.4841 151.794 49.6336 154.048 50.9104 156.232C52.1518 158.352 53.4473 160.444 54.7641 162.519C55.6168 163.866 56.5544 165.466 57.6898 166.761C55.704 169.64 53.73 172.528 51.5817 175.288C50.8633 176.212 50.1095 177.107 49.3439 177.995C49.2968 178.007 49.2497 178.021 49.2002 178.03C49.1036 178.049 49 178.054 48.9034 178.078C48.8468 178.08 48.7903 178.085 48.7361 178.089C48.1826 178.118 47.6314 178.075 47.0778 178.037C46.3122 177.192 45.5938 176.304 44.8706 175.425Z" fill="#DAAE79"/>
<path d="M69.6844 173.871C68.3417 172.618 66.8553 171.494 65.4396 170.321C64.0639 169.181 62.7165 167.977 61.4492 166.705C61.4869 166.63 61.5105 166.55 61.5175 166.465C61.5293 166.335 61.5458 166.208 61.5693 166.078C61.5905 165.958 61.5835 165.841 61.5858 165.716C62.6647 164.166 63.7554 162.623 64.9025 161.125C66.8247 158.611 68.9353 156.246 71.0718 153.912C71.6537 153.646 72.252 153.37 72.8927 153.295C73.63 153.207 74.3697 153.323 75.0693 153.558C75.644 153.752 76.1976 154.119 76.7842 154.291C77.1752 154.562 77.5639 154.826 77.962 155.064C80.0796 156.331 82.3175 157.337 84.6024 158.258C86.1123 158.868 87.5539 159.643 89.0568 160.272C89.5892 160.496 90.1969 160.762 90.8235 160.964C87.0263 165.815 83.1372 170.592 79.1162 175.256C78.2988 176.205 77.4602 177.14 76.6193 178.071C76.5933 178.083 76.5698 178.097 76.5439 178.106C76.4402 178.132 76.3342 178.158 76.2282 178.174C76.2117 178.177 76.1717 178.181 76.134 178.186C76.0893 178.189 76.0398 178.193 76.0209 178.196C75.8702 178.203 75.7171 178.214 75.5663 178.222C75.0975 178.243 74.6311 178.224 74.1647 178.179C72.5441 176.907 71.1755 175.261 69.6844 173.871Z" fill="#DAAE79"/>
<path d="M96.7807 157.57C98.7287 159.205 100.368 161.165 101.897 163.205C102.837 164.458 103.772 165.716 104.679 166.995C104.773 167.127 104.865 167.259 104.957 167.391C105.27 168.95 105.739 170.481 105.902 172.071C105.991 172.941 105.986 173.864 105.807 174.724C104.542 177.767 103.204 180.78 101.621 183.644C99.9984 186.582 98.0456 189.26 95.9939 191.863C95.9538 191.861 95.9161 191.858 95.8761 191.856C95.7088 191.823 95.5487 191.776 95.3909 191.71C95.1435 191.578 94.9174 191.415 94.7101 191.225C94.4274 190.93 94.1872 190.603 93.9751 190.254C93.3274 188.457 92.5641 186.733 91.6502 185.051C89.4548 181.011 86.7129 177.315 83.9238 173.676C88.3406 168.415 92.616 163.033 96.7807 157.57Z" fill="#DAAE79"/>
<path d="M103.527 161.653C101.775 159.705 99.8289 157.894 97.6523 156.421C102.573 149.913 107.176 143.18 111.859 136.5C112.862 137.826 113.734 139.287 114.523 140.714C115.345 142.203 116.167 143.692 116.85 145.246C116.85 146.177 116.848 147.11 116.829 148.04C116.815 148.742 116.782 149.444 116.671 150.139C114.021 155.324 111.647 160.633 109.381 165.997C109.093 166.678 108.811 167.361 108.53 168.046C108.344 167.811 108.158 167.577 107.989 167.349C107.513 166.703 107.035 166.058 106.554 165.417C105.586 164.126 104.604 162.852 103.527 161.653Z" fill="#DAAE79"/>
<path d="M116.451 139.481C115.403 137.954 114.246 136.369 112.793 135.175C112.809 135.151 112.826 135.13 112.84 135.106C115.582 131.21 118.406 127.382 121.243 123.557C122.573 121.762 123.862 119.957 124.988 118.023C125.15 117.745 125.311 117.465 125.468 117.185C125.553 117.114 125.617 117.027 125.676 116.938C126.51 117.8 127.221 118.777 127.89 119.778C128.396 120.539 128.882 121.317 129.452 122.035C129.73 122.386 130.024 122.725 130.34 123.043C130.832 123.543 131.228 123.839 131.944 123.941C132.083 123.962 132.238 123.931 132.392 123.882C128.663 129.366 125.127 134.993 121.815 140.738C121.429 140.929 121.137 141.287 120.847 141.603C120.781 141.676 120.71 141.74 120.642 141.81C120.595 141.836 120.548 141.876 120.503 141.909C120.491 141.919 120.493 141.916 120.486 141.923C120.482 141.923 120.484 141.921 120.475 141.926C120.425 141.942 120.378 141.97 120.331 141.989C120.215 142.039 120.178 142.053 120.02 142.091C119.344 142.255 118.569 142.152 117.902 141.867C117.45 141.047 116.974 140.241 116.451 139.481Z" fill="#DAAE79"/>
<path d="M132.214 120.695C131.093 120.372 130.57 118.883 129.898 118.045C129.133 117.086 128.301 116.207 127.331 115.52C127.378 115.439 127.409 115.355 127.409 115.263C127.406 114.846 127.359 114.427 127.258 114.021C128.492 111.755 129.781 109.525 131.21 107.367C133.253 104.283 135.441 101.299 137.476 98.2106C137.799 97.7206 138.108 97.2212 138.426 96.7266C138.091 97.2448 144.039 102.312 144.677 102.959C144.854 103.138 145.003 103.318 145.127 103.494C146.461 105.379 145.028 107.131 143.573 108.691C140.619 111.861 138.939 116.229 135.849 119.18C135.031 119.96 133.434 121.048 132.214 120.695Z" fill="#DAAE79"/>
<path d="M137.328 94.196C136.963 94.3444 136.647 94.7049 136.822 94.9899C136.713 95.1595 136.605 95.3291 136.497 95.4987C135.34 97.3078 134.136 99.0815 132.921 100.848C132.9 100.818 132.881 100.787 132.855 100.759C132.445 100.332 131.689 100.297 131.142 100.153C128.836 99.5503 126.653 98.6717 124.525 97.6046C122.985 96.832 121.35 95.9086 119.633 95.4916C119.63 95.3998 119.609 95.3055 119.55 95.216C119.43 95.0229 119.315 94.8273 119.214 94.6248C119.19 94.5753 119.166 94.5282 119.143 94.4787C119.138 94.4669 119.117 94.4222 119.11 94.4033C119.072 94.3162 119.037 94.2267 119.004 94.1348C122.665 87.2258 125.882 80.0954 129.333 73.0781C129.953 74.0109 130.4 75.0663 130.926 76.0485C131.795 77.6739 132.98 79.1414 134.035 80.6467C135.06 82.1095 135.99 83.6312 137.064 85.0587C138.103 86.4367 139.064 87.909 140.141 89.2516C140.204 89.3294 140.284 89.3812 140.367 89.4236C139.356 91.0207 138.341 92.6084 137.328 94.196Z" fill="#DAAE79"/>
<path d="M139.219 83.9152C138.079 82.4123 137.078 80.82 135.933 79.3194C135.886 79.2558 135.836 79.1946 135.789 79.131C135.89 78.9944 135.97 78.8342 135.973 78.6646C135.973 78.6646 135.975 78.6575 135.975 78.6528C136.029 78.601 136.074 78.5468 136.14 78.5021C136.573 78.2029 137.134 78.0616 137.664 77.965C138.964 77.7247 140.305 77.8142 141.619 77.8519C142.752 77.8849 143.866 77.6423 144.995 77.5457C145.593 77.4962 146.241 77.4326 146.837 77.5198C147.065 77.5527 147.282 77.5975 147.43 77.7247C147.412 77.7082 147.44 77.7294 147.463 77.7836C147.44 77.7294 147.461 77.8095 147.485 77.899C145.598 81.072 143.664 84.2167 141.69 87.3402C141.026 86.1106 140.05 85.0106 139.219 83.9152Z" fill="#DAAE79"/>
<path d="M145.498 75.3666C144.118 75.5221 142.74 75.6964 141.361 75.8613C138.657 76.1864 135.513 76.502 133.006 75.2135C132.943 75.1805 132.872 75.1758 132.797 75.1805C132.728 75.0863 132.658 74.9945 132.589 74.9026C131.795 73.7931 131.028 72.6624 129.986 71.7791C132.761 66.2293 135.861 60.8868 139.298 55.7398C139.331 55.7257 139.366 55.7163 139.392 55.6974C140.146 55.1344 141.854 56.0955 142.601 56.3546C144.181 56.9035 145.875 57.1037 147.505 57.4618C149.413 57.8811 151.206 58.5288 153.008 59.2709C154.374 59.8338 155.848 60.6112 157.34 61.047C154.623 65.6215 151.985 70.2385 149.309 74.8413C148.85 74.872 148.386 74.9756 147.948 75.0439C147.135 75.1711 146.318 75.2748 145.498 75.3666Z" fill="#DAAE79"/>
<path d="M160.214 60.7276C160.381 60.5462 160.508 60.3436 160.565 60.1411C160.946 59.5074 161.319 58.869 161.707 58.2401C162.433 57.0646 163.137 55.8774 163.841 54.6926C163.931 54.6878 164.018 54.6761 164.117 54.6808C164.197 54.6831 164.275 54.6902 164.353 54.6973C164.364 54.6973 164.381 54.6996 164.393 54.702C164.421 54.7067 164.449 54.7114 164.477 54.7161C164.621 54.7444 164.76 54.7797 164.899 54.8245C164.991 54.8527 165.078 54.8904 165.168 54.9258C165.608 55.4982 165.855 56.3179 166.027 57.0081C166.454 58.6994 166.628 60.4379 166.725 62.1763C166.85 64.4212 167.163 66.6284 167.497 68.852C167.759 70.5905 168.006 72.3383 168.006 74.1027C168.006 75.9188 167.672 77.5819 167.182 79.3156C166.727 79.8786 166.27 80.4392 165.818 80.9998L165.811 81.0069C165.528 81.2307 165.231 81.4451 164.925 81.6429C164.845 81.6947 164.765 81.7419 164.685 81.7913C164.668 81.8008 164.671 81.8008 164.664 81.8055C164.656 81.8078 164.657 81.8078 164.635 81.8172C164.473 81.8997 164.31 81.9798 164.141 82.0481C164.122 82.0551 163.98 82.1046 163.969 82.1117C163.924 82.1258 163.879 82.1376 163.832 82.1494C163.752 82.1706 163.672 82.1918 163.592 82.2083C163.578 82.2106 163.462 82.2271 163.434 82.2318C162.899 82.2719 162.39 82.0622 162.018 81.6099C161.988 81.5723 161.948 81.5534 161.905 81.5393C161.754 81.3532 161.599 81.1742 161.453 80.9857C160.551 79.8268 159.712 78.6207 158.85 77.4311C157.349 75.3605 155.731 73.3866 153.887 71.6199C155.976 67.9805 158.054 64.3293 160.214 60.7276Z" fill="#DAAE79"/>
<path d="M163.507 38.1911C162.249 37.0345 160.999 35.8661 159.724 34.726C158.93 34.017 158.115 33.1996 157.223 32.5377C157.282 32.4647 157.343 32.3916 157.402 32.3163C161.135 27.6475 164.763 22.8892 167.778 17.7422C169.587 18.1968 171.41 18.5878 173.215 19.0637C174.296 19.3487 175.373 19.6573 176.421 20.053C177.252 20.3687 178.07 20.8963 178.929 21.1719C178.27 22.9316 177.566 24.6747 176.875 26.4061C175.504 29.8476 174.242 33.3433 172.339 36.5351C171.849 37.3549 171.337 38.1628 170.822 38.9661C170.369 39.2794 169.992 39.6728 169.58 40.0497C169.533 40.0921 169.484 40.1368 169.436 40.1792C169.427 40.1863 169.418 40.1957 169.394 40.2122C169.281 40.2947 169.173 40.3818 169.057 40.4619C168.899 40.5726 168.709 40.6857 168.515 40.7446C167.905 40.9307 167.375 40.8529 166.763 40.7493C166.527 40.7092 166.294 40.6833 166.061 40.6574C165.253 39.7835 164.388 39.0014 163.507 38.1911Z" fill="#DAAE79"/>
<path d="M162.366 5.72656C163.617 6.15999 164.856 6.62404 166.069 7.15405C167.563 7.80891 169.021 8.55563 170.427 9.38951C170.651 9.52143 165.845 19.031 163.839 18.2583C162.46 16.5482 160.821 14.9958 159.191 13.5283C155.874 10.5461 160.654 7.93847 162.366 5.72656Z" fill="#DAAE79"/>
<path d="M150.055 2.92969C153.728 3.37254 157.362 4.10984 160.882 5.21461C156.173 9.72322 150.962 13.65 145.853 17.6922C145.125 18.2693 144.4 18.8512 143.679 19.4377C143.259 19.0961 142.805 18.7876 142.383 18.4554C141.735 17.9466 141.092 17.4331 140.447 16.9196C139.114 15.8595 137.769 14.7925 136.292 13.9397C135.185 13.3014 134.016 12.7996 132.822 12.4746C132.744 12.3521 132.671 12.2272 132.608 12.0977C132.513 11.8833 132.424 11.6595 132.355 11.4381C132.739 11.2237 133.123 11.007 133.51 10.7974C136.195 9.417 138.942 8.16618 141.698 6.92713C144.378 5.77525 147.061 4.62572 149.629 3.22178C149.768 3.1464 149.916 3.04511 150.055 2.92969Z" fill="#DAAE79"/>
<path d="M142.241 2.62842C142.385 2.62371 142.526 2.53184 142.63 2.41406C143.725 2.43526 144.823 2.48237 145.921 2.55069C144.832 2.48237 142.835 3.7756 141.822 4.20667C140.347 4.83562 138.698 5.26669 137.104 5.44571C137.083 5.44807 137.038 5.45278 137.024 5.45278C136.972 5.45749 136.92 5.45985 136.868 5.46456C136.609 5.48105 136.348 5.49283 136.088 5.50696C136.077 5.49518 136.065 5.48576 136.056 5.47398C135.65 5.0806 135.245 4.69192 134.835 4.30325C134.47 3.95698 134.096 3.62248 133.719 3.29034C136.545 2.94643 139.386 2.71793 142.241 2.62842Z" fill="#DAAE79"/>
<path d="M99.9574 14.293C107.747 9.3321 116.637 6.30045 125.718 4.54082C127.638 4.16863 129.562 3.84592 131.494 3.57031C132.078 4.26521 132.655 4.96482 133.254 5.64795C133.612 6.06018 133.97 6.47241 134.325 6.88699C134.483 7.07308 134.639 7.25918 134.801 7.44056C133.883 7.8999 132.966 8.36395 132.059 8.84213C129.296 10.2955 126.524 11.8761 123.893 13.6546C122.748 14.1823 121.584 14.6699 120.392 15.0798C118.359 15.777 116.225 16.1421 114.119 16.5473C109.924 17.3576 105.667 18.0714 101.385 18.1185C100.388 18.1279 98.2449 18.4318 97.6348 17.3199C98.3674 16.3636 99.107 15.2588 99.9574 14.293Z" fill="#DAAE79"/>
<path d="M100.138 20.2466C102.546 20.2772 104.955 20.0699 107.342 19.7778C111.038 19.3255 114.894 18.8073 118.547 17.8203C117.852 18.4422 117.171 19.0806 116.526 19.7519C114.14 22.2229 112.168 25.0661 110.102 27.7986C107.879 30.7408 105.693 33.7041 103.582 36.7287C103.172 37.3152 102.774 37.9112 102.374 38.5024C102.374 38.5024 102.367 38.5048 102.362 38.5072C102.213 38.5613 102.07 38.6344 101.921 38.6909C101.886 38.705 101.848 38.7192 101.813 38.7309C101.735 38.7592 101.764 38.7498 101.903 38.7027C101.86 38.7404 101.733 38.7498 101.681 38.7616C101.544 38.7945 101.408 38.8134 101.271 38.8417C101.196 38.8581 101.123 38.8723 101.047 38.884C101.019 38.8888 100.993 38.8911 100.965 38.8958C100.329 38.9264 99.8484 38.8581 99.2383 38.6603C99.1771 38.6391 99.1088 38.6344 99.0405 38.6414C99.0051 38.6155 98.9674 38.5896 98.9321 38.5637C97.9004 37.7934 96.9322 36.9478 95.8463 36.2481C94.5601 35.4213 93.2269 34.6722 91.9384 33.8478C91.2788 33.4238 90.6286 32.9786 89.995 32.5169C89.9902 32.5027 89.9879 32.491 89.9808 32.4768C89.9172 32.3355 89.7971 32.1306 89.7052 31.961C89.5215 31.6265 89.4179 31.4003 89.2812 31.0541C89.1634 30.7572 89.0692 30.418 89.0527 30.1189C89.0527 30.1047 89.0527 30.0883 89.0527 30.0741C89.7476 28.8845 90.4449 27.695 91.1492 26.5125C92.6851 23.9331 94.3858 21.5398 96.1996 19.1842C97.1489 20.1995 98.8214 20.2301 100.138 20.2466Z" fill="#DAAE79"/>
<path d="M94.7674 18.0463C95.05 17.8155 95.3422 17.5988 95.6295 17.375C94.5648 18.6588 93.5189 19.9614 92.5413 21.3018C90.4684 24.1379 88.6664 27.1672 86.8479 30.1682C84.9657 33.2729 83.1378 36.4035 81.4159 39.6C80.801 40.7449 80.2122 41.9015 79.6256 43.0604C79.3995 43.0675 79.1757 43.091 78.9496 43.1122C78.9024 43.1169 78.853 43.1217 78.8035 43.1264C78.78 43.1287 78.7776 43.1287 78.7682 43.1287C78.7635 43.1287 78.7658 43.1287 78.7611 43.1287C78.7587 43.1287 78.7564 43.1287 78.7564 43.1287C78.754 43.1287 78.754 43.1287 78.7564 43.1287C78.6951 43.1358 78.6316 43.1429 78.5703 43.1523C78.3936 43.0369 78.217 42.9238 78.0356 42.8225C77.3619 42.4409 76.6552 42.1205 76.0098 41.6989C80.4972 32.5497 86.8267 24.4983 94.7674 18.0463Z" fill="#DAAE79"/>
<path d="M63.3105 80.8964C64.0313 77.6669 64.5589 74.3997 65.3528 71.1867C66.1678 67.8841 67.2867 64.6522 68.3891 61.4369C70.4197 55.5078 72.4431 49.5011 75.0248 43.784C75.1544 43.4943 75.2934 43.2093 75.4277 42.9219C75.8211 43.3247 76.2451 43.7039 76.6573 44.0855C76.8316 44.2481 77.0224 44.3941 77.2014 44.552C77.2933 44.632 77.3828 44.7145 77.4723 44.7969C77.4959 44.8181 77.6419 44.9642 77.5006 44.8205C77.543 44.8629 77.583 44.9029 77.6231 44.9453C77.7809 45.1102 77.9293 45.2892 78.0777 45.4636C78.1484 45.546 78.2167 45.6497 78.285 45.7486C73.1357 56.3346 68.9639 67.3894 64.5613 78.2982C64.0478 79.5726 63.5319 80.847 63.0137 82.1213C63.1126 81.7138 63.2186 81.3087 63.3105 80.8964Z" fill="#DAAE79"/>
<path d="M63.6929 85.146C64.8589 82.7668 65.9425 80.3477 66.9837 77.9096C68.9789 73.2314 70.8021 68.4802 72.7007 63.7619C73.4851 61.8138 74.2907 59.8728 75.1011 57.9318C75.8007 57.3453 76.5921 56.9566 77.6427 57.1003C78.3777 57.2016 79.115 57.4654 79.824 57.8117C80.4529 58.2781 81.0772 58.7516 81.692 59.2344C82.0454 59.5124 82.8345 60.0306 83.699 60.636C84.4551 61.484 85.0417 62.4687 85.3762 63.5735C85.6235 64.3979 85.7436 65.2506 85.7436 66.1104C85.7436 66.3224 85.7177 66.5344 85.7059 66.7464C84.0665 70.0655 82.5424 73.5847 80.5354 76.5928C78.7051 80.0508 76.5874 83.3487 74.3355 86.5476C72.3591 89.3531 70.649 92.976 67.9165 95.1432C65.4643 97.0889 62.72 94.0219 61.5046 92.0267C61.2549 91.6168 61.0287 91.1693 61.0217 90.6887C61.0005 89.1222 63.0074 86.5476 63.6929 85.146Z" fill="#DAAE79"/>
<path d="M48.6809 105.368C50.6785 103.55 52.5794 101.62 54.3108 99.5497C54.4168 99.5309 54.5275 99.4743 54.6217 99.3683C56.3107 97.4203 57.8301 95.3662 59.2199 93.2344C59.4036 93.4888 59.5873 93.7385 59.7876 93.9835C60.3293 94.6501 60.8829 95.3002 61.4789 95.9198C62.0913 96.5581 62.7156 97.18 63.3869 97.7571C63.8557 98.1599 64.3504 98.5674 64.911 98.8289C58.6852 106.263 51.795 113.127 44.9756 120.032C44.6528 119.853 44.5516 119.886 44.2053 119.603C43.9415 119.386 43.6753 119.059 43.4374 118.724C42.8579 117.907 42.4339 116.998 42.0688 116.067C41.6872 115.099 41.3574 114.114 41.1713 113.09C41.0912 112.647 40.9899 112.081 40.9805 111.592C43.6376 109.636 46.2335 107.599 48.6809 105.368Z" fill="#DAAE79"/>
<path d="M26.6686 121.802C30.5907 118.834 34.6847 116.092 38.6892 113.234C39.5255 114.77 40.0955 116.424 40.6608 118.07C40.9482 118.904 41.245 119.738 41.5583 120.563C41.7091 120.956 41.8645 121.349 42.0318 121.736C42.0577 121.795 42.0883 121.861 42.1142 121.922C42.0742 122.08 42.0389 122.237 42.0106 122.398C41.9988 122.461 41.987 122.527 41.987 122.591C41.987 122.624 41.9894 122.654 41.9894 122.685C41.9918 122.751 41.9965 122.815 42.0059 122.878C42.0224 122.916 42.0389 122.951 42.0577 122.989C40.6561 124.419 39.2569 125.851 37.8789 127.3C34.3431 131.007 30.8286 134.736 27.0832 138.225C27.0573 138.23 27.0314 138.22 27.0055 138.227C26.8524 138.267 26.6945 138.293 26.5367 138.312C26.3836 138.321 26.2281 138.321 26.075 138.307C25.936 138.281 25.8018 138.246 25.6746 138.19C25.5968 138.152 25.5214 138.112 25.4484 138.065C25.2223 137.601 24.9844 137.144 24.7276 136.694C24.1128 135.615 23.4462 134.56 22.7206 133.554C21.4698 131.815 20.1648 130.1 19.0059 128.296C21.4086 125.966 23.995 123.825 26.6686 121.802Z" fill="#DAAE79"/>
<path d="M8.69962 142.157C10.7608 138.197 13.2789 134.471 16.254 131.142C16.7722 130.56 17.3235 130.011 17.8652 129.453C18.758 131.227 19.811 132.904 20.8569 134.598C21.4929 135.63 22.1595 136.64 22.7578 137.695C23.0476 138.207 23.3255 138.727 23.5799 139.257C23.8178 139.752 23.9733 140.319 24.263 140.788C23.5752 141.382 22.878 141.966 22.1689 142.536C19.5613 144.637 16.8123 146.72 13.8207 148.246C11.1282 149.622 8.26855 150.71 5.81402 152.514C5.1945 152.969 4.62916 153.475 4.11328 154.029C5.21334 149.893 6.7539 145.893 8.69962 142.157Z" fill="#DAAE79"/>
<path d="M3.5883 180.846C1.68969 173.049 1.74857 164.755 3.44225 156.835C3.77674 156.833 4.1348 156.708 4.37272 156.435C6.33257 154.176 9.04621 152.958 11.7127 151.743C12.7469 151.272 13.7551 150.77 14.7468 150.242C14.8881 150.285 15.0294 150.329 15.1661 150.391C15.2461 150.431 15.3286 150.468 15.411 150.506C15.3451 150.475 15.2791 150.445 15.2108 150.414C15.444 150.525 15.6607 150.671 15.868 150.826C14.49 152.906 13.2816 155.097 12.1886 157.342C10.7446 160.303 9.63039 163.375 8.38664 166.418C7.09342 169.584 5.70833 172.689 4.71427 175.97C4.22902 177.574 3.86862 179.197 3.5883 180.846Z" fill="#DAAE79"/>
<path d="M9.58984 194.763C9.83718 194.707 10.0869 194.575 10.3059 194.344C13.4106 191.056 15.9217 187.228 18.6377 183.624C18.8968 183.28 19.1489 182.931 19.4033 182.583C19.6741 182.566 19.9521 182.594 20.2466 182.686C20.5622 182.785 20.8708 182.915 21.177 183.037C21.3136 183.091 21.4526 183.153 21.5916 183.212C23.1345 185.047 24.9012 186.698 26.6444 188.335C28.8869 190.441 31.2378 192.361 33.7112 194.165C30.9363 196.912 28.1543 199.651 25.3982 202.414C24.032 203.785 22.6823 205.173 21.349 206.572C16.7626 203.364 12.7039 199.458 9.58984 194.763Z" fill="#DAAE79"/>
<path d="M31.3832 212.234C28.4835 210.927 25.6615 209.412 22.9902 207.683C25.7557 204.842 28.6177 202.107 31.5057 199.398C32.7471 202.381 34.1534 205.32 35.4914 208.253C36.2569 209.93 37.0555 211.584 37.9765 213.183C38.3558 213.841 38.7562 214.521 39.1802 215.188C36.5302 214.364 33.9249 213.381 31.3832 212.234Z" fill="#DAAE79"/>
<path d="M48.9809 217.476C46.9434 217.154 44.9222 216.744 42.9223 216.244C41.9754 214.739 40.8329 213.368 39.9307 211.823C38.9885 210.212 38.124 208.551 37.2783 206.888C35.8414 204.064 34.527 200.952 32.5742 198.408C35.4033 195.765 38.2418 193.131 41.0167 190.429C42.4677 189.016 43.8976 187.586 45.2991 186.133C46.55 186.844 47.5747 187.97 48.7878 188.729C50.472 189.782 52.3353 190.542 54.1491 191.334C55.9582 192.123 57.7367 192.908 59.5882 193.602C60.521 193.953 61.3549 194.366 62.2006 194.893C62.5068 195.084 62.8059 195.256 63.1145 195.409C63.1098 195.414 63.1074 195.421 63.1027 195.426C60.5917 199.378 58.1937 203.404 55.5436 207.267C54.1562 209.291 52.9289 211.411 51.6074 213.479C50.7877 214.765 49.5157 216.006 48.9809 217.476Z" fill="#DAAE79"/>
<path d="M77.344 216.19C77.2898 216.266 77.2616 216.346 77.238 216.43C72.5834 217.505 67.818 218.143 63.0291 218.32C59.253 218.459 55.4747 218.301 51.7363 217.858C51.8682 217.248 52.3441 216.819 52.7634 216.339C53.503 215.488 54.1791 214.577 54.8151 213.646C56.0235 211.882 57.1047 210.033 58.3108 208.268C58.7725 207.595 59.3308 206.214 59.9809 205.746C60.657 205.26 61.5615 205.541 62.2093 204.989C62.3318 204.883 62.4543 204.759 62.6145 204.737C62.7794 204.716 62.9325 204.813 63.0691 204.907C65.9335 206.862 68.8191 208.805 71.8767 210.452C73.8789 211.526 75.973 212.419 78.1755 213.001C78.4982 213.086 78.8563 213.196 79.2238 213.288C78.6278 214.273 78.0295 215.257 77.344 216.19Z" fill="#DAAE79"/>
<path d="M79.0162 210.951C78.8772 210.908 78.7335 210.875 78.5945 210.83C77.6758 210.541 76.776 210.199 75.895 209.815C74.1778 209.066 72.5288 208.185 70.9153 207.231C68.0273 205.521 65.243 203.667 62.209 202.235C63.1536 200.715 64.0911 199.191 65.0357 197.674C67.1887 194.214 69.3936 190.765 71.907 187.552C74.6018 184.111 77.6853 180.971 80.545 177.666C81.3647 176.717 82.168 175.756 82.9806 174.797C85.2349 178.735 87.8496 182.469 89.8613 186.544C90.7093 188.264 91.3147 190.026 91.9555 191.825C92.2546 192.662 92.615 194.325 93.4277 195.057C92.2381 196.518 91.0462 197.978 89.8919 199.474C87.6188 202.419 85.2491 205.285 82.8581 208.138C82.5307 208.529 82.2245 208.927 81.9136 209.323C81.6686 209.346 81.4259 209.438 81.2281 209.575C80.8158 209.86 80.3918 210.126 79.9631 210.388C79.744 210.522 79.5273 210.656 79.3059 210.786C79.2093 210.837 79.1128 210.894 79.0162 210.951Z" fill="#DAAE79"/>
<path d="M86.5454 213.632C85.3205 214.087 84.0861 214.511 82.84 214.902C82.204 215.102 79.7424 215.406 79.3867 215.893C81.3631 213.09 82.9649 209.978 85.4571 207.576C86.1073 206.951 87.0024 206.205 87.9729 206.469C88.4322 206.593 88.8138 206.907 89.1789 207.211C90.5617 208.36 91.9845 209.507 93.3389 210.664C91.339 211.967 88.7879 212.798 86.5454 213.632Z" fill="#DAAE79"/>
<path d="M110.897 196.059C110.81 197.149 110.484 198.181 110.199 199.227C105.82 203.262 100.932 206.708 95.6889 209.512C95.4887 209.165 95.1142 208.916 94.8009 208.678C94.4923 208.444 94.1696 208.23 93.8563 208.006C92.6761 207.17 91.2345 206.796 90.5396 205.408C89.6681 203.674 90.4313 201.79 91.5525 200.377C92.7562 198.857 94.3486 197.715 95.6183 196.264C97.8867 193.67 100.056 190.982 101.96 188.109C102.334 187.543 102.678 186.961 103.024 186.38C103.034 186.375 103.043 186.368 103.05 186.363C103.069 186.351 103.255 186.243 103.137 186.309C103.227 186.257 103.319 186.208 103.408 186.156C103.283 186.226 103.477 186.118 103.498 186.106C103.733 185.981 103.981 185.875 104.23 185.781C104.497 185.847 104.758 185.937 104.998 186.038C105.681 186.328 106.327 186.728 106.953 187.124C107.147 187.246 107.349 187.39 107.556 187.522C107.858 188.064 108.148 188.613 108.428 189.169C109.012 190.33 109.573 191.486 110.042 192.7C110.268 193.281 110.496 194.04 110.828 194.711C110.899 195.157 110.934 195.606 110.897 196.059Z" fill="#DAAE79"/>
<path d="M114.173 191.497C114.112 191.547 114.048 191.596 113.992 191.653C113.973 191.672 113.951 191.69 113.933 191.707C113.897 191.738 113.855 191.773 113.827 191.794C113.702 191.888 113.57 191.983 113.436 192.065C113.429 192.07 113.421 192.072 113.414 192.077C113.348 192.11 113.282 192.138 113.214 192.164C113.158 192.185 113.103 192.209 113.047 192.23C113.028 192.235 113.007 192.239 112.988 192.244C112.92 192.258 112.851 192.265 112.783 192.277C112.776 192.279 112.769 192.279 112.762 192.282H112.757C112.741 192.282 112.741 192.284 112.741 192.284C112.734 192.282 112.724 192.279 112.717 192.275C112.55 191.884 112.387 191.493 112.22 191.104C111.692 189.881 110.993 188.736 110.319 187.592C109.042 185.432 107.636 183.116 105.662 181.502C107.24 178.223 108.597 174.829 109.975 171.47C111.346 168.127 112.684 164.771 114.069 161.438C115.937 163.449 117.848 165.437 119.612 167.541C120.641 168.768 121.64 170.042 122.521 171.383C122.74 171.717 122.95 172.061 123.15 172.41C123.235 173.14 123.228 173.856 122.971 174.473C122.74 175.025 122.392 175.609 122.151 176.2C121.979 176.624 121.763 177.258 121.982 177.696C121.235 178.768 120.502 179.846 119.812 180.956C117.998 183.87 116.446 186.951 114.917 190.02C114.665 190.508 114.418 191.003 114.173 191.497Z" fill="#DAAE79"/>
<path d="M119.27 188.986C118.04 190.715 116.728 192.373 115.348 193.963C117.296 190.067 119.1 186.084 121.326 182.346C122.963 179.594 124.871 177.012 126.617 174.329C127.234 173.382 127.802 172.412 128.351 171.43C126.063 177.608 123.154 183.526 119.27 188.986Z" fill="#DAAE79"/>
<path d="M132.855 155.958C132.619 156.983 132.372 158.003 132.118 159.021C131.453 160.674 130.81 162.34 130.099 163.972C129.166 166.111 128.12 168.189 126.956 170.203C126.895 170.207 126.836 170.212 126.775 170.217C126.547 170.236 126.318 170.254 126.09 170.271C125.727 170.299 125.366 170.346 125.006 170.391C124.928 170.271 124.858 170.146 124.778 170.026C123.871 168.655 122.827 167.392 121.711 166.189C119.565 163.875 117.249 161.786 114.729 159.89C114.724 159.887 114.717 159.885 114.717 159.885C115.6 157.796 116.5 155.716 117.461 153.659C119.652 148.981 122.12 144.446 124.763 140.016C126.231 141.639 127.583 143.386 129.204 144.854C130.052 145.622 131.039 146.206 132.04 146.746C132.499 146.991 132.963 147.228 133.42 147.478C133.496 147.518 133.569 147.563 133.644 147.605C133.554 147.709 133.493 147.836 133.467 147.98C133.342 148.672 133.321 149.344 133.375 150.043C133.432 150.752 133.583 151.459 133.708 152.161C133.427 153.428 133.145 154.693 132.855 155.958Z" fill="#DAAE79"/>
<path d="M154.191 108.31C150.611 113.193 147.044 118.053 144.048 123.325C141.327 128.109 139.061 133.126 137.306 138.344C136.68 140.207 136.138 142.092 135.641 143.99L135.636 143.988C135.54 143.99 135.443 144.012 135.354 144.049C135.278 144.08 135.21 144.125 135.153 144.181C135.097 144.224 135.054 144.275 135.017 144.334L135.052 144.29C135.017 144.334 134.974 144.374 134.934 144.414C134.913 144.431 134.894 144.445 134.871 144.464C134.847 144.483 134.828 144.504 134.809 144.523L134.802 144.527C134.793 144.53 134.786 144.537 134.776 144.539C134.687 144.575 134.609 144.626 134.541 144.692C134.494 144.728 134.463 144.775 134.425 144.82C134.317 144.77 134.213 144.723 134.117 144.674C133.099 144.158 132.093 143.599 131.219 142.86C129.408 141.326 127.747 139.656 125.785 138.32C129.399 132.403 133.316 126.667 137.358 121.045C144.432 111.203 151.916 101.71 159.546 92.2969C159.604 93.0177 159.708 93.7361 159.814 94.4381C160.057 96.0588 160.351 97.6747 160.509 99.3071C160.518 99.3919 160.551 99.4602 160.594 99.5191C158.478 102.464 156.335 105.389 154.191 108.31Z" fill="#DAAE79"/>
<path d="M160.71 87.243C157.059 91.6221 153.431 96.0247 149.86 100.472C149.843 100.486 149.829 100.498 149.822 100.503C149.617 100.665 149.398 100.816 149.174 100.953C149.123 100.986 149.071 101.016 149.017 101.047C148.998 101.059 148.967 101.075 148.948 101.085C148.823 101.153 148.701 101.219 148.574 101.28C148.312 101.41 148.039 101.523 147.763 101.622C147.318 101.579 146.878 101.487 146.48 101.282L146.473 101.28C146.477 101.174 146.435 101.07 146.326 100.986C145.874 100.632 145.389 100.331 144.908 100.02C144.341 99.5345 143.771 99.054 143.217 98.5522C142.522 97.9209 141.808 97.3061 141.085 96.6984C140.591 96.0954 140.141 95.3887 140.105 94.6349C140.096 94.4158 140.124 94.1991 140.169 93.9871C141.356 92.1073 142.539 90.2252 143.731 88.3478C145.834 85.0288 147.973 81.7404 149.978 78.3624C151.047 76.5628 152.093 74.7513 153.136 72.9375C154.552 74.8267 155.775 76.8549 157.061 78.8336C157.841 80.0325 158.63 81.2268 159.466 82.3882C159.902 82.9935 160.347 83.5942 160.83 84.1619C160.865 84.202 160.901 84.2467 160.934 84.2891C160.766 84.7225 160.634 85.1772 160.585 85.6318C160.531 86.1547 160.55 86.7319 160.71 87.243Z" fill="#DAAE79"/>
<path d="M165.208 92.9781C164.256 94.3679 163.29 95.7483 162.317 97.124C162.16 96.0098 161.943 94.905 161.738 93.7908C161.615 93.1218 161.514 92.4505 161.42 91.7791C161.601 91.6166 161.729 91.3999 161.759 91.1572C161.832 90.5542 161.884 89.9394 161.955 89.3317C165.95 84.4085 169.917 79.4617 173.704 74.376C176.091 71.1724 178.482 67.9805 180.962 64.8594C176.823 74.7906 171.273 84.114 165.208 92.9781Z" fill="#DAAE79"/>
<path d="M182.853 59.9872C182.707 60.3924 182.552 60.7952 182.401 61.198C179.127 64.305 176.269 67.8596 173.497 71.4118C173.113 71.9042 172.72 72.3871 172.336 72.8794C172.27 72.8582 172.201 72.8464 172.131 72.8511C172.062 72.8558 171.994 72.8535 171.926 72.8464C171.848 72.8346 171.775 72.804 171.702 72.7781C171.608 72.7263 171.523 72.6627 171.443 72.592C171.309 72.4483 171.188 72.2928 171.092 72.1209C171.019 71.989 170.807 71.9183 170.668 71.9206C170.607 71.9206 170.55 71.9348 170.493 71.9466C170.046 68.7053 169.987 65.3839 169.558 62.152C169.002 57.9614 167.203 54.0911 166.668 49.91C167.005 49.3352 167.339 48.7628 167.676 48.188C168.161 47.3612 168.658 46.5462 169.165 45.7358C169.499 45.5168 169.751 45.2011 169.714 44.8737C171.038 42.7819 172.401 40.7161 173.718 38.6172C174.635 37.1544 175.428 35.6445 176.156 34.1016C176.5 34.257 176.854 34.3937 177.219 34.4832C177.271 34.4949 177.322 34.4855 177.377 34.4879C179.108 36.8882 180.639 39.4653 181.902 42.1106C182.66 43.703 183.19 45.3095 183.685 46.9961C183.984 48.0137 184.507 49.8935 185.532 50.6378C184.867 53.8061 183.953 56.9367 182.853 59.9872Z" fill="#DAAE79"/>
<path d="M185.647 45.4053C185.136 43.7022 184.455 42.0957 183.652 40.508C182.241 37.7166 180.543 35.1137 178.465 32.8029C178.401 31.9996 178.182 31.2152 178.05 30.419C178.02 30.2306 177.994 30.0397 177.973 29.8466C178.258 29.1305 178.552 28.4215 178.83 27.6983C179.827 25.1024 180.623 22.4806 181.245 19.8047C182.29 21.5054 183.193 23.298 183.942 25.1519C186.806 32.2422 187.244 39.7048 186.18 47.0448C185.986 46.503 185.812 45.9565 185.647 45.4053Z" fill="#DAAE79"/>
<path opacity="0.37" d="M189.303 36.3678C187.859 28.811 185.553 21.0752 181.146 14.7505C180.058 13.4219 178.866 12.1711 177.554 11.031C171.064 5.3846 162.549 2.39064 154.165 1.01262C152.483 0.737016 150.785 0.532079 149.077 0.367188C150.905 0.753505 152.712 1.22934 154.481 1.82766C159.465 3.50955 164.172 6.1384 167.908 9.88144C171.841 13.82 174.482 18.8539 175.745 24.2576C177.304 30.9263 176.962 37.9319 174.835 44.4357C172.692 50.996 168.916 56.8944 164.475 62.1333C159.837 67.603 154.443 72.3989 148.792 76.7921C142.863 81.3997 136.564 85.4843 130.475 89.8704C123.262 95.0692 116.242 100.602 110.042 106.998C106.94 110.199 104.085 113.579 101.713 117.363C99.4374 120.99 97.56 124.851 95.864 128.778C92.5379 136.476 89.7748 144.391 85.8197 151.808C82.357 158.303 78.2747 164.533 73.1796 169.873C68.0373 175.261 61.8139 179.696 54.8696 182.445C47.8546 185.223 39.782 185.899 32.383 184.539C19.6675 182.205 7.32187 171.963 5.9462 158.55C5.37144 152.958 6.74239 147.347 8.89541 142.216C11.0555 137.077 13.9929 132.297 17.2319 127.767C15.8703 129.105 14.5536 130.493 13.3334 131.981C7.4585 139.138 3.36683 147.738 1.39284 156.779C-0.550525 165.685 -0.555236 175.084 1.98174 183.875C4.52814 192.709 9.67982 200.635 16.9162 206.336C25.6225 213.195 36.2627 217.633 47.1597 219.475C58.1203 221.329 69.446 220.688 80.1687 217.775C91.1434 214.792 101.466 209.568 110.078 202.11C118.928 194.445 125.714 184.575 130.001 173.701C132.286 167.907 133.867 161.876 135.202 155.801C136.51 149.853 137.419 143.863 139.285 138.047C141.049 132.542 143.449 127.23 146.429 122.276C149.638 116.943 153.508 112.074 157.27 107.13C165.177 96.7322 172.904 86.1179 178.903 74.4789C179.869 72.6062 180.811 70.7029 181.711 68.7713C183.04 65.5041 184.328 62.2204 185.45 58.8872C186.333 56.2655 187.294 53.6248 187.991 50.9465C188.161 50.2987 188.314 49.6486 188.458 48.9938C189.047 45.8891 189.388 42.7396 189.405 39.5549C189.412 38.4949 189.376 37.4325 189.303 36.3678Z" fill="#AE7E4C"/>
<path opacity="0.37" d="M181.259 60.8578C175.041 70.3838 166.808 78.056 158.127 85.2971C149.537 92.4605 140.59 99.2422 132.616 107.11C128.598 111.074 124.838 115.317 121.59 119.941C118.24 124.706 115.583 129.83 113.312 135.186C108.608 146.286 105.233 157.908 100.201 168.876C95.504 179.111 89.1627 188.868 79.9618 195.588C71.4015 201.84 60.9309 205.517 50.3567 206.125C39.9096 206.728 29.34 204.09 20.6267 198.224C12.6318 192.842 6.83467 184.962 3.27066 176.07C1.93032 172.725 0.900931 169.272 0.12594 165.757C-0.2698 171.851 0.283771 178.004 1.9798 183.883C4.5262 192.717 9.67788 200.644 16.9143 206.344C25.6205 213.204 36.2608 217.642 47.1578 219.484C58.1183 221.337 69.4441 220.697 80.1667 217.783C91.1414 214.801 101.464 209.576 110.076 202.118C118.926 194.453 125.712 184.583 129.999 173.71C132.284 167.915 133.865 161.885 135.2 155.81C136.508 149.862 137.417 143.871 139.283 138.055C141.047 132.55 143.447 127.238 146.427 122.285C149.636 116.952 153.506 112.083 157.268 107.138C165.175 96.7406 172.902 86.1263 178.901 74.4873C179.867 72.6146 180.81 70.7112 181.709 68.7797C183.038 65.5124 184.326 62.2287 185.448 58.8956C186.331 56.2738 187.292 53.6332 187.989 50.9549C188.159 50.3071 188.312 49.6569 188.456 49.0021C188.793 47.2212 189.038 45.4239 189.198 43.6172C187.601 49.7535 184.682 55.6142 181.259 60.8578Z" fill="#AE7E4C"/>
<path d="M161.917 17.9038C161.185 17.8119 160.459 17.8449 159.752 17.9744C159.675 18.0922 159.569 18.1959 159.399 18.2477C156.766 19.0933 154.959 21.2935 154.909 24.0778C154.874 26.0588 155.696 28.2637 157.343 29.3826C159.38 30.7653 161.821 29.9008 163.639 28.3885C165.088 27.1848 166.416 25.7338 166.786 23.8281C167.052 22.4501 166.652 20.9825 165.74 19.9178C164.777 18.7895 163.387 18.0899 161.917 17.9038Z" fill="#AE7E4C"/>
<path d="M139.92 8.49315C139.67 8.48137 139.423 8.45546 139.173 8.44839C130.795 8.16101 122.423 9.68272 114.654 12.8322C107.024 15.9251 100.049 20.5821 94.1273 26.2873C88.1276 32.0679 83.2044 38.9227 79.5886 46.4253C77.7395 50.2602 76.2484 54.2671 75.1271 58.3729C74.5688 60.4199 74.1024 62.4952 73.7302 64.5846C73.3486 66.7329 72.9058 68.9943 73.0259 71.1826C73.0825 72.2167 73.3157 73.6324 74.5947 72.9328C76.3308 71.9859 77.5322 69.9789 78.5168 68.3465C81.2257 63.8473 83.4895 59.0984 86.1254 54.5568C88.7142 50.1 91.7364 45.9353 95.4347 42.3313C98.8362 39.017 102.718 36.202 106.895 33.943C111.064 31.6887 115.519 29.9691 120.081 28.7065C123.601 27.7313 127.129 27.1989 130.747 26.7396C134.521 26.2614 138.323 25.7644 141.991 24.7185C145.126 23.8234 148.622 22.443 150.525 19.6304C155.1 12.8769 145.336 9.48721 139.92 8.49315Z" fill="#AE7E4C"/>
</svg>
