<svg width="327" height="327" viewBox="0 0 327 327" fill="none" xmlns="http://www.w3.org/2000/svg">
<path fill-rule="evenodd" clip-rule="evenodd" d="M163.497 17.0547C82.6448 17.0547 17.1016 82.6105 17.1016 163.478C17.1016 244.346 82.6448 309.902 163.497 309.902C244.349 309.902 309.893 244.346 309.893 163.478C309.893 82.6105 244.349 17.0547 163.497 17.0547ZM29.1794 163.478C29.1794 89.2822 89.3153 29.1343 163.497 29.1343C237.679 29.1343 297.815 89.2822 297.815 163.478C297.815 237.674 237.679 297.822 163.497 297.822C89.3153 297.822 29.1794 237.674 29.1794 163.478Z" fill="#999999"/>
<path fill-rule="evenodd" clip-rule="evenodd" d="M163.497 29.1406C89.3156 29.1406 29.1797 89.2885 29.1797 163.484C29.1797 237.68 89.3156 297.828 163.497 297.828C237.679 297.828 297.815 237.68 297.815 163.484C297.815 89.2885 237.679 29.1406 163.497 29.1406ZM41.4596 163.484C41.4596 96.0712 96.0977 41.4223 163.497 41.4223C230.897 41.4223 285.535 96.0712 285.535 163.484C285.535 230.897 230.897 285.545 163.497 285.545C96.0977 285.545 41.4596 230.897 41.4596 163.484Z" fill="black"/>
<path fill-rule="evenodd" clip-rule="evenodd" d="M107.174 153.078C100.887 154.851 33.8621 178.217 27.4216 184.384C20.9811 190.551 22.0558 197.035 23.6423 203.897C25.2294 210.758 40.7074 241.374 45.4794 248.527C50.2521 255.679 53.6807 250.971 53.6807 250.971C62.4284 237.64 109.416 178.641 110.642 171.446C111.581 165.931 113.461 151.305 107.174 153.078ZM30.0942 187.176C30.865 186.438 33.1079 185.331 34.0779 184.844C36.9663 183.392 39.9634 182.083 42.9389 180.82C51.1805 177.321 59.5912 174.107 67.9798 170.976C76.6011 167.758 85.2635 164.634 93.9514 161.601C97.0749 160.51 100.202 159.429 103.339 158.376C104.68 157.926 106.058 157.446 107.424 157.032C107.866 158.686 107.788 162.002 107.727 163.131C107.591 165.666 107.267 168.232 106.843 170.736C106.508 171.893 104.917 174.362 104.274 175.383C102.254 178.592 100.066 181.731 97.8764 184.826C91.7637 193.465 85.3881 201.952 79.0222 210.405C73.2835 218.026 67.5067 225.618 61.7806 233.248C59.5064 236.278 57.238 239.315 55.0065 242.377C53.5259 244.408 52.031 246.463 50.642 248.56C49.9806 248.177 48.9997 246.839 48.6952 246.382C46.9555 243.775 45.3719 240.797 43.8798 238.039C41.6011 233.825 39.4061 229.558 37.2685 225.271C35.0137 220.748 32.8067 216.181 30.75 211.564C29.9656 209.803 29.1971 208.027 28.4963 206.231C28.1064 205.232 27.6493 204.073 27.4073 203.027C25.9808 196.857 25.0751 191.982 30.0942 187.176Z" fill="#647B98"/>
<path fill-rule="evenodd" clip-rule="evenodd" d="M23.3186 170.463C38.2211 164.791 110.874 144.537 116.085 139.426C120.079 135.508 130.176 124.76 124.043 122.511C117.91 120.262 49.9113 99.9025 41.0782 101.123C32.2451 102.344 29.3151 108.227 26.5782 114.717C23.8418 121.206 18.4344 155.083 18.1077 163.675C17.7809 172.268 23.3186 170.463 23.3186 170.463ZM97.8988 142.782C87.8834 146.197 77.7421 149.335 67.6293 152.452C58.5127 155.262 49.3819 158.026 40.2704 160.851C36.6517 161.973 33.0341 163.104 29.4307 164.275C27.0404 165.052 24.6245 165.842 22.2701 166.727C21.9592 166.028 21.9484 164.369 21.9695 163.821C22.0885 160.689 22.5512 157.348 22.96 154.238C23.5844 149.489 24.3068 144.745 25.0884 140.019C25.9133 135.033 26.803 130.039 27.843 125.093C28.2398 123.207 28.6582 121.317 29.1432 119.452C29.413 118.414 29.7221 117.207 30.1394 116.218C32.6003 110.383 34.7236 105.902 41.6076 104.951C42.6641 104.805 45.1307 105.223 46.2021 105.396C49.3933 105.914 52.5879 106.61 55.7393 107.331C64.4682 109.327 73.1665 111.654 81.7981 114.034C90.6693 116.481 99.5178 119.029 108.335 121.663C111.505 122.611 114.672 123.568 117.83 124.554C119.18 124.975 120.578 125.394 121.928 125.86C121.316 127.458 119.309 130.1 118.598 130.979C117.002 132.953 115.235 134.842 113.423 136.621C112.473 137.363 109.738 138.43 108.618 138.88C105.1 140.297 101.487 141.558 97.8988 142.782Z" fill="black"/>
<path fill-rule="evenodd" clip-rule="evenodd" d="M46.3314 87.5242C61.7092 91.7401 132.313 118.268 139.536 117.217C145.072 116.412 159.566 113.695 155.943 108.259C152.32 102.824 109.442 46.2567 101.591 42.0295C93.7394 37.8016 87.9017 40.8215 81.8625 44.4448C75.8233 48.0681 51.4649 72.225 46.1304 78.9689C40.7959 85.7129 46.3314 87.5242 46.3314 87.5242ZM92.9396 98.5353C83.9215 95.4232 74.9182 92.2661 65.8949 89.1688C60.2178 87.2202 54.33 85.1089 48.5344 83.4666C48.852 82.8381 49.4087 82.0788 49.6604 81.7611C51.5924 79.319 53.9258 76.9088 56.0764 74.6545C59.3787 71.1935 62.7566 67.7956 66.1722 64.4467C69.7738 60.915 73.433 57.4141 77.1844 54.0413C78.6098 52.7599 80.0557 51.4876 81.5403 50.2745C82.3458 49.6165 83.2862 48.8395 84.1782 48.3038C89.4 45.1706 93.5738 42.8236 99.457 45.9915C100.388 46.514 102.077 48.2628 102.842 49.0404C105.099 51.3362 107.256 53.7737 109.365 56.2062C115.197 62.933 120.813 69.903 126.344 76.8786C132.059 84.0859 137.695 91.361 143.256 98.6884C145.254 101.322 147.244 103.963 149.21 106.62C149.912 107.568 150.641 108.534 151.336 109.508C149.842 110.275 147.355 111.01 146.386 111.267C143.972 111.908 141.47 112.384 138.997 112.747C137.727 112.751 135.023 112.02 133.809 111.709C130.145 110.771 126.498 109.659 122.889 108.531C112.853 105.394 102.879 101.966 92.9396 98.5353Z" fill="black"/>
<path fill-rule="evenodd" clip-rule="evenodd" d="M111.815 33.2448C121.956 45.5492 164.385 107.908 170.894 111.21C175.883 113.741 189.295 119.869 189.465 113.339C189.634 106.809 187.174 35.8702 183.193 27.8921C179.211 19.9135 172.7 19.0192 165.676 18.5017C158.653 17.9842 124.826 23.6967 116.58 26.136C108.334 28.5746 111.815 33.2448 111.815 33.2448ZM172.699 107.791C171.692 107.129 169.806 104.878 169.021 103.961C166.555 101.081 164.205 98.0612 161.898 95.0527C155.458 86.6556 149.242 78.0513 143.054 69.4664C137.476 61.7274 131.936 53.9611 126.345 46.2312C124.124 43.1612 121.896 40.0952 119.633 37.0565C118.132 35.0402 116.611 33.004 115.02 31.056C115.582 30.538 117.15 29.9978 117.677 29.8418C120.683 28.9526 123.996 28.3225 127.073 27.7151C131.772 26.7872 136.498 25.9544 141.226 25.1836C146.213 24.3707 151.23 23.6159 156.249 23.0193C158.162 22.7916 160.086 22.5838 162.009 22.4472C163.08 22.3709 164.322 22.2776 165.392 22.3561C171.708 22.8212 176.632 23.4001 179.735 29.6187C180.212 30.5733 180.605 33.0433 180.783 34.1141C181.313 37.303 181.675 40.5529 182 43.7692C182.901 52.678 183.478 61.6631 183.984 70.6027C184.503 79.7904 184.92 88.989 185.243 98.1858C185.36 101.492 185.465 104.799 185.542 108.107C185.574 109.521 185.625 110.979 185.615 112.407C183.905 112.339 180.761 111.282 179.7 110.889C177.319 110.009 174.964 108.938 172.699 107.791Z" fill="black"/>
<path fill-rule="evenodd" clip-rule="evenodd" d="M199.225 28.2267C199.965 44.155 196.542 119.5 199.773 126.046C202.249 131.062 209.311 144.008 213.36 138.883C217.41 133.758 257.968 75.5043 259.563 66.7316C261.159 57.9588 256.484 53.3393 251.172 48.7141C245.86 44.0895 215.361 28.3838 207.299 25.3929C199.238 22.4027 199.225 28.2267 199.225 28.2267ZM203.196 35.9645C203.203 33.4513 203.207 30.9096 203.101 28.3963C203.861 28.3189 205.44 28.8261 205.955 29.0168C208.893 30.1069 211.923 31.5893 214.75 32.9469C219.068 35.0219 223.35 37.1879 227.596 39.4051C232.076 41.7442 236.544 44.147 240.918 46.6785C242.586 47.6434 244.251 48.631 245.871 49.6739C246.774 50.2545 247.825 50.9245 248.634 51.6293C253.41 55.7871 257.004 59.2032 255.76 66.0399C255.57 67.0896 254.403 69.3018 253.904 70.2661C252.417 73.1368 250.758 75.9552 249.091 78.724C244.471 86.3947 239.546 93.9328 234.592 101.391C229.5 109.056 224.319 116.668 219.065 124.223C217.177 126.939 215.278 129.65 213.356 132.343C212.534 133.494 211.701 134.692 210.837 135.829C209.509 134.748 207.626 132.018 207.012 131.068C205.635 128.936 204.392 126.668 203.266 124.391C202.858 123.258 202.698 120.325 202.619 119.121C202.371 115.337 202.301 111.512 202.258 107.721C202.137 97.1394 202.319 86.5257 202.513 75.9449C202.687 66.4065 202.909 56.8693 203.068 47.3308C203.131 43.543 203.185 39.7529 203.196 35.9645Z" fill="black"/>
<path fill-rule="evenodd" clip-rule="evenodd" d="M271.921 76.6152C262.965 89.8082 215.059 148.063 213.72 155.238C212.695 160.737 210.586 175.333 216.9 173.659C223.214 171.985 290.598 149.671 297.134 143.606C303.67 137.541 302.697 131.041 301.218 124.155C299.739 117.269 284.742 86.4154 280.083 79.1888C275.424 71.9615 271.921 76.6152 271.921 76.6152ZM216.505 163.598C216.681 161.066 217.045 158.505 217.509 156.008C217.862 154.856 219.492 152.413 220.15 151.402C222.22 148.225 224.457 145.121 226.695 142.061C232.942 133.519 239.451 125.133 245.948 116.78C251.806 109.25 257.701 101.749 263.545 94.2102C265.867 91.216 268.183 88.2154 270.462 85.1893C271.975 83.1821 273.502 81.1498 274.923 79.0749C275.578 79.4688 276.538 80.8214 276.836 81.2831C278.535 83.917 280.072 86.9198 281.52 89.7012C283.732 93.9506 285.86 98.2508 287.93 102.571C290.114 107.129 292.248 111.731 294.233 116.379C294.989 118.151 295.73 119.939 296.402 121.746C296.776 122.751 297.215 123.917 297.441 124.966C298.77 131.158 299.6 136.046 294.506 140.772C293.724 141.498 291.464 142.57 290.487 143.043C287.575 144.449 284.558 145.71 281.564 146.927C273.268 150.297 264.808 153.378 256.371 156.377C247.7 159.46 238.99 162.447 230.256 165.344C227.116 166.386 223.972 167.417 220.82 168.421C219.472 168.85 218.087 169.309 216.714 169.701C216.297 168.041 216.426 164.727 216.505 163.598Z" fill="black"/>
<path fill-rule="evenodd" clip-rule="evenodd" d="M210.151 185.905C206.033 189.691 195.595 200.109 201.653 202.555C207.711 205 275.02 227.535 283.888 226.598C292.755 225.662 295.873 219.877 298.817 213.478C301.762 207.08 308.255 173.394 308.857 164.817C309.46 156.24 303.867 157.865 303.867 157.865C288.789 163.056 215.523 180.964 210.151 185.905ZM207.367 194.265C209.026 192.343 210.853 190.512 212.721 188.792C213.694 188.081 216.462 187.102 217.596 186.688C221.158 185.386 224.809 184.242 228.435 183.135C238.556 180.043 248.791 177.233 259 174.442C268.202 171.927 277.417 169.457 286.615 166.926C290.268 165.921 293.92 164.908 297.559 163.852C299.973 163.152 302.413 162.441 304.795 161.632C305.083 162.34 305.04 163.999 305.001 164.546C304.782 167.673 304.212 170.998 303.703 174.092C302.927 178.819 302.053 183.537 301.119 188.236C300.134 193.192 299.085 198.156 297.887 203.065C297.43 204.938 296.95 206.813 296.406 208.662C296.103 209.691 295.755 210.887 295.306 211.863C292.659 217.615 290.393 222.025 283.482 222.755C282.421 222.867 279.97 222.37 278.904 222.162C275.731 221.542 272.56 220.743 269.434 219.922C260.774 217.646 252.155 215.04 243.604 212.383C234.816 209.653 226.054 206.822 217.325 203.906C214.188 202.857 211.053 201.798 207.928 200.711C206.592 200.246 205.208 199.784 203.875 199.274C204.538 197.696 206.628 195.121 207.367 194.265Z" fill="black"/>
<path fill-rule="evenodd" clip-rule="evenodd" d="M188.084 209.913C182.534 210.617 167.993 213.069 171.516 218.57C175.04 224.07 216.878 281.411 224.651 285.781C232.423 290.151 238.315 287.239 244.42 283.726C250.524 280.213 275.319 256.505 280.776 249.86C286.233 243.215 280.732 241.303 280.732 241.303C265.432 236.807 195.324 208.994 188.084 209.913ZM188.508 213.755C189.713 213.739 192.537 214.544 193.701 214.863C197.359 215.863 200.998 217.044 204.596 218.24C214.638 221.578 224.612 225.212 234.551 228.846C243.51 232.122 252.454 235.443 261.419 238.705C264.979 240 268.544 241.287 272.122 242.534C274.495 243.361 276.897 244.193 279.307 244.912C279.132 245.657 278.137 246.984 277.789 247.408C275.8 249.831 273.41 252.212 271.204 254.44C267.834 257.846 264.39 261.186 260.909 264.477C257.236 267.949 253.507 271.388 249.687 274.698C248.231 275.96 246.755 277.212 245.24 278.404C244.397 279.068 243.421 279.842 242.491 280.377C237.002 283.536 232.601 285.819 226.544 282.414C225.614 281.89 223.903 280.067 223.155 279.28C220.926 276.937 218.803 274.451 216.729 271.971C210.986 265.101 205.466 257.988 200.032 250.872C194.447 243.558 188.941 236.177 183.513 228.746C181.562 226.075 179.619 223.396 177.7 220.701C176.879 219.549 176.019 218.37 175.226 217.182C176.681 216.279 179.876 215.39 180.975 215.119C183.439 214.512 185.989 214.076 188.508 213.755Z" fill="black"/>
<path fill-rule="evenodd" clip-rule="evenodd" d="M154.974 215.648C150.032 213.025 136.735 206.65 136.445 213.175C136.155 219.701 137.304 290.673 141.138 298.724C144.972 306.774 151.466 307.789 158.48 308.436C165.492 309.084 199.419 303.996 207.708 301.71C215.998 299.423 212.603 294.691 212.603 294.691C202.691 282.201 161.421 219.07 154.974 215.648ZM146.164 215.806C148.528 216.731 150.863 217.844 153.106 219.033C154.1 219.714 155.945 221.999 156.713 222.93C159.126 225.855 161.419 228.917 163.671 231.968C169.954 240.483 176.011 249.2 182.039 257.897C187.474 265.738 192.869 273.606 198.316 281.437C200.48 284.548 202.651 287.654 204.857 290.734C206.321 292.777 207.803 294.842 209.359 296.819C208.787 297.327 207.209 297.838 206.681 297.984C203.659 298.817 200.334 299.386 197.247 299.937C192.531 300.778 187.791 301.523 183.049 302.206C178.047 302.927 173.018 303.59 167.989 304.093C166.072 304.285 164.144 304.457 162.219 304.559C161.148 304.616 159.903 304.686 158.835 304.588C152.53 304.006 147.616 303.336 144.628 297.062C144.17 296.099 143.822 293.622 143.664 292.547C143.192 289.349 142.891 286.093 142.625 282.872C141.889 273.948 141.477 264.953 141.137 256.006C140.788 246.811 140.541 237.606 140.387 228.404C140.331 225.097 140.287 221.788 140.272 218.48C140.265 217.065 140.241 215.606 140.278 214.179C141.987 214.279 145.111 215.394 146.164 215.806Z" fill="black"/>
<path fill-rule="evenodd" clip-rule="evenodd" d="M125.482 200.619C122.908 195.651 115.595 182.846 111.646 188.049C107.696 193.252 68.2879 252.289 66.8642 261.092C65.4405 269.895 70.2057 274.421 75.6068 278.941C81.0078 283.461 111.809 298.566 119.928 301.399C128.046 304.231 127.946 298.408 127.946 298.408C126.893 282.498 128.839 207.1 125.482 200.619ZM122.021 202.341C122.451 203.467 122.669 206.395 122.772 207.598C123.093 211.376 123.239 215.199 123.356 218.989C123.684 229.566 123.71 240.181 123.723 250.764C123.736 260.303 123.701 269.844 123.729 279.383C123.741 283.172 123.76 286.962 123.824 290.751C123.866 293.264 123.912 295.805 124.067 298.316C123.308 298.408 121.719 297.931 121.201 297.751C118.241 296.719 115.182 295.296 112.33 293.993C107.972 292.004 103.649 289.921 99.36 287.788C94.835 285.537 90.3214 283.222 85.8983 280.777C84.2116 279.845 82.5278 278.89 80.8866 277.879C79.973 277.317 78.9096 276.668 78.0864 275.979C73.2301 271.915 69.5693 268.57 70.6788 261.71C70.849 260.657 71.9715 258.422 72.4525 257.448C73.8831 254.549 75.4861 251.699 77.0994 248.898C81.568 241.138 86.344 233.506 91.1514 225.952C96.0919 218.188 101.124 210.476 106.228 202.819C108.063 200.067 109.908 197.32 111.777 194.59C112.576 193.422 113.385 192.208 114.227 191.055C115.576 192.109 117.512 194.803 118.145 195.74C119.563 197.844 120.851 200.088 122.021 202.341Z" fill="black"/>
<path fill-rule="evenodd" clip-rule="evenodd" d="M110.642 171.446C111.581 165.931 113.461 151.305 107.174 153.078C100.887 154.851 33.8621 178.217 27.4216 184.384C20.9811 190.551 22.0558 197.035 23.6423 203.897C25.2294 210.758 40.7074 241.374 45.4794 248.527C50.2521 255.679 53.6807 250.971 53.6807 250.971C62.4284 237.64 109.416 178.642 110.642 171.446ZM107.727 163.131C107.591 165.666 107.267 168.232 106.843 170.736C106.508 171.893 104.917 174.362 104.274 175.383C102.254 178.592 100.066 181.731 97.8764 184.826C91.7637 193.465 85.3881 201.952 79.0222 210.405C73.2835 218.026 67.5067 225.618 61.7806 233.248C59.5064 236.278 57.238 239.315 55.0065 242.377C53.5259 244.408 52.031 246.463 50.642 248.56C49.9806 248.177 48.9997 246.839 48.6952 246.382C46.9555 243.775 45.3719 240.797 43.8798 238.039C41.6011 233.825 39.4061 229.558 37.2685 225.271C35.0137 220.748 32.8067 216.181 30.75 211.564C29.9656 209.803 29.1971 208.027 28.4963 206.231C28.1064 205.232 27.6493 204.073 27.4073 203.027C25.9808 196.858 25.0745 191.983 30.0937 187.177C30.8644 186.439 33.1073 185.332 34.0773 184.844C36.9657 183.393 39.9628 182.084 42.9383 180.821C51.18 177.321 59.5907 174.108 67.9792 170.976C76.6006 167.758 85.2629 164.635 93.9508 161.601C97.0743 160.51 100.202 159.429 103.338 158.377C104.68 157.927 106.057 157.446 107.424 157.032C107.865 158.686 107.788 162.002 107.727 163.131Z" fill="black"/>
<path fill-rule="evenodd" clip-rule="evenodd" d="M107.174 153.063C113.461 151.29 111.581 165.916 110.642 171.431C109.416 178.627 62.4281 237.625 53.6803 250.957C53.6803 250.957 50.2517 255.665 45.4791 248.512C40.707 241.36 25.2285 210.744 23.6419 203.883C22.0554 197.021 20.9807 190.537 27.4212 184.37C33.8618 178.203 100.887 154.836 107.174 153.063ZM124.043 122.507C130.176 124.756 120.079 135.504 116.085 139.422C110.874 144.532 38.2211 164.787 23.3186 170.459C23.3186 170.459 17.7809 172.264 18.1077 163.671C18.4339 155.078 23.8412 121.202 26.5782 114.712C29.3151 108.223 32.2451 102.339 41.0782 101.118C49.9113 99.8984 117.91 120.258 124.043 122.507ZM46.3296 87.5206C46.3296 87.5206 40.7941 85.7092 46.1286 78.9653C51.4631 72.2213 75.8215 48.0645 81.8607 44.4412C87.8999 40.8179 93.7376 37.798 101.589 42.0258C109.44 46.2531 152.318 102.82 155.941 108.256C159.564 113.691 145.07 116.408 139.535 117.213C132.312 118.264 61.7074 91.7365 46.3296 87.5206ZM111.817 33.2377C111.817 33.2377 108.336 28.5681 116.581 26.1289C124.826 23.6896 158.653 17.9771 165.677 18.4946C172.701 19.012 179.212 19.9069 183.194 27.885C187.176 35.8637 189.635 106.802 189.466 113.332C189.296 119.862 175.884 113.734 170.895 111.203C164.386 107.9 121.958 45.5421 111.817 33.2377ZM201.652 202.547C195.595 200.101 206.032 189.684 210.149 185.897C215.522 180.956 288.788 163.048 303.865 157.857C303.865 157.857 309.458 156.232 308.855 164.809C308.253 173.387 301.76 207.072 298.816 213.47C295.872 219.869 292.753 225.654 283.886 226.59C275.019 227.527 207.71 204.992 201.652 202.547ZM199.771 126.044C196.54 119.499 199.963 44.1531 199.223 28.2249C199.223 28.2249 199.236 22.4008 207.297 25.3917C215.359 28.3825 245.859 44.0882 251.17 48.7129C256.482 53.3375 261.157 57.9575 259.561 66.7303C257.966 75.5031 217.408 133.757 213.358 138.882C209.308 144.006 202.246 131.061 199.771 126.044ZM271.92 76.6086C271.92 76.6086 275.422 71.9549 280.082 79.1816C284.742 86.4083 299.739 117.262 301.217 124.148C302.696 131.034 303.669 137.534 297.133 143.599C290.596 149.664 223.213 171.977 216.9 173.652C210.585 175.326 212.695 160.731 213.72 155.231C215.057 148.056 262.964 89.8016 271.92 76.6086ZM136.445 213.171C136.736 206.645 150.033 213.021 154.974 215.644C161.422 219.066 202.691 282.197 212.603 294.687C212.603 294.687 215.998 299.42 207.708 301.706C199.42 303.992 165.493 309.08 158.48 308.433C151.466 307.785 144.973 306.771 141.139 298.72C137.305 290.669 136.156 219.697 136.445 213.171ZM188.082 209.908C195.323 208.99 265.431 236.802 280.729 241.298C280.729 241.298 286.231 243.21 280.774 249.856C275.317 256.501 250.521 280.209 244.417 283.721C238.313 287.234 232.421 290.146 224.648 285.776C216.876 281.406 175.038 224.065 171.514 218.565C167.991 213.065 182.532 210.613 188.082 209.908ZM111.644 188.049C115.593 182.846 122.906 195.651 125.48 200.619C128.838 207.1 126.892 282.497 127.944 298.408C127.944 298.408 128.045 304.231 119.926 301.399C111.807 298.567 81.0062 283.461 75.6051 278.941C70.2041 274.421 65.4389 269.895 66.8626 261.092C68.2863 252.289 107.695 193.253 111.644 188.049ZM163.497 6.875C77.0004 6.875 6.88086 76.9871 6.88086 163.476C6.88086 249.963 77.0004 320.076 163.497 320.076C249.994 320.076 320.114 249.963 320.114 163.476C320.114 76.9871 249.994 6.875 163.497 6.875Z" fill="#E6E6E6"/>
<path fill-rule="evenodd" clip-rule="evenodd" d="M163.5 120.516C187.243 120.516 206.491 139.751 206.491 163.48C206.491 187.208 187.243 206.444 163.5 206.444C139.756 206.444 120.508 187.208 120.508 163.48C120.508 139.751 139.756 120.516 163.5 120.516Z" fill="#B3B4B4"/>
<path fill-rule="evenodd" clip-rule="evenodd" d="M163.497 146.273C173.002 146.273 180.708 153.974 180.708 163.473C180.708 172.973 173.003 180.673 163.497 180.673C153.991 180.673 146.285 172.972 146.285 163.473C146.285 153.974 153.991 146.273 163.497 146.273Z" fill="black"/>
<path d="M163.36 123.953C165.314 123.953 167.084 124.746 168.364 126.026C169.645 127.306 170.437 129.075 170.437 131.03C170.437 132.984 169.645 134.753 168.364 136.033C167.084 137.314 165.314 138.106 163.36 138.106C161.406 138.106 159.637 137.314 158.356 136.033C157.076 134.752 156.283 132.983 156.283 131.03C156.283 129.075 157.076 127.306 158.356 126.026C159.637 124.746 161.406 123.953 163.36 123.953ZM166.243 128.147C165.506 127.409 164.486 126.953 163.36 126.953C162.234 126.953 161.215 127.409 160.477 128.147C159.739 128.885 159.283 129.904 159.283 131.03C159.283 132.156 159.739 133.176 160.477 133.913C161.215 134.651 162.234 135.108 163.36 135.108C164.486 135.108 165.506 134.651 166.243 133.913C166.981 133.176 167.438 132.156 167.438 131.03C167.438 129.904 166.981 128.885 166.243 128.147Z" fill="black"/>
<path d="M193.589 145.969C195.543 145.969 197.312 146.761 198.593 148.041C199.874 149.322 200.666 151.091 200.666 153.046C200.666 155 199.873 156.769 198.593 158.049C197.312 159.33 195.543 160.122 193.589 160.122C191.634 160.122 189.865 159.33 188.584 158.049C187.304 156.769 186.512 154.999 186.512 153.046C186.512 151.091 187.304 149.322 188.584 148.041C189.865 146.761 191.634 145.969 193.589 145.969ZM196.472 150.162C195.734 149.425 194.715 148.968 193.589 148.968C192.463 148.968 191.443 149.425 190.705 150.162C189.968 150.9 189.511 151.92 189.511 153.046C189.511 154.172 189.968 155.191 190.705 155.929C191.443 156.667 192.463 157.123 193.589 157.123C194.715 157.123 195.734 156.667 196.472 155.929C197.21 155.191 197.666 154.172 197.666 153.046C197.666 151.92 197.21 150.9 196.472 150.162Z" fill="black"/>
<path d="M182.341 181.789C184.295 181.789 186.064 182.581 187.345 183.862C188.626 185.142 189.418 186.912 189.418 188.866C189.418 190.82 188.625 192.59 187.345 193.87C186.064 195.151 184.295 195.943 182.341 195.943C180.387 195.943 178.617 195.151 177.336 193.87C176.056 192.59 175.264 190.82 175.264 188.866C175.264 186.912 176.056 185.143 177.336 183.862C178.617 182.581 180.386 181.789 182.341 181.789ZM185.224 185.983C184.486 185.245 183.467 184.789 182.341 184.789C181.215 184.789 180.195 185.246 179.457 185.983C178.72 186.721 178.263 187.74 178.263 188.866C178.263 189.992 178.72 191.012 179.457 191.749C180.195 192.487 181.215 192.944 182.341 192.944C183.467 192.944 184.486 192.487 185.224 191.749C185.962 191.012 186.418 189.992 186.418 188.866C186.418 187.74 185.962 186.721 185.224 185.983Z" fill="black"/>
<path d="M145.032 181.602C146.986 181.602 148.756 182.394 150.036 183.674C151.317 184.955 152.109 186.724 152.109 188.679C152.109 190.633 151.317 192.402 150.036 193.683C148.756 194.964 146.986 195.755 145.032 195.755C143.078 195.755 141.309 194.963 140.028 193.683C138.747 192.403 137.955 190.633 137.955 188.679C137.955 186.724 138.747 184.955 140.028 183.674C141.308 182.394 143.078 181.602 145.032 181.602ZM147.915 185.795C147.178 185.058 146.157 184.601 145.032 184.601C143.906 184.601 142.887 185.058 142.149 185.795C141.411 186.533 140.955 187.553 140.955 188.679C140.955 189.805 141.411 190.824 142.149 191.562C142.887 192.3 143.907 192.756 145.032 192.756C146.158 192.756 147.178 192.3 147.915 191.562C148.653 190.824 149.11 189.805 149.11 188.679C149.109 187.553 148.653 186.533 147.915 185.795Z" fill="black"/>
<path d="M133.409 145.969C135.363 145.969 137.132 146.761 138.413 148.041C139.694 149.322 140.486 151.091 140.486 153.046C140.486 155 139.694 156.769 138.413 158.049C137.132 159.33 135.363 160.122 133.409 160.122C131.455 160.122 129.685 159.33 128.405 158.049C127.124 156.769 126.332 154.999 126.332 153.046C126.332 151.091 127.124 149.322 128.405 148.041C129.685 146.761 131.455 145.969 133.409 145.969ZM136.292 150.162C135.555 149.425 134.535 148.968 133.409 148.968C132.283 148.968 131.263 149.425 130.526 150.162C129.788 150.9 129.331 151.92 129.331 153.046C129.331 154.172 129.788 155.191 130.526 155.929C131.263 156.667 132.283 157.123 133.409 157.123C134.535 157.123 135.555 156.667 136.292 155.929C137.03 155.191 137.487 154.172 137.487 153.046C137.487 151.92 137.031 150.9 136.292 150.162Z" fill="black"/>
<path fill-rule="evenodd" clip-rule="evenodd" d="M320.115 163.482C320.115 249.969 249.995 320.082 163.498 320.082C77.0012 320.082 6.8817 249.969 6.8817 163.482C6.8817 76.9938 77.0012 6.88113 163.498 6.88113C249.995 6.8817 320.115 76.9938 320.115 163.482ZM326.996 163.482C326.996 73.1935 253.795 0 163.498 0C73.2009 0 0 73.1935 0 163.482C0 253.77 73.2009 326.963 163.498 326.963C253.795 326.963 326.996 253.77 326.996 163.482Z" fill="black"/>
</svg>
