<svg width="213" height="302" viewBox="0 0 213 302" fill="none" xmlns="http://www.w3.org/2000/svg">
<path d="M179.79 274.302C154.493 304.699 83.2838 313.691 42.4092 281.19V281.17C38.7565 278.3 35.3618 275.068 32.251 271.495C7.31833 242.824 -2.64201 204.099 0.590928 187.055L106.311 229.011L212.052 187.055C215.283 204.098 203.858 245.395 179.79 274.302Z" fill="url(#paint0_linear_4410_58606)"/>
<path d="M106.32 236.241C164.714 236.241 212.052 214.221 212.052 187.058C212.052 159.895 164.714 137.875 106.32 137.875C47.9258 137.875 0.587891 159.895 0.587891 187.058C0.587891 214.221 47.9258 236.241 106.32 236.241Z" fill="url(#paint1_linear_4410_58606)"/>
<path d="M203.177 185.934C203.177 192.033 200.565 197.86 195.836 203.165C193.009 206.335 189.439 209.317 185.204 212.073C167.65 223.532 138.857 230.996 106.313 230.996C66.7641 230.996 32.746 219.966 17.7125 204.149C17.3968 203.823 17.0931 203.493 16.8006 203.165C12.0699 197.86 9.45898 192.034 9.45898 185.934C9.45898 161.044 52.8241 140.867 106.314 140.867C159.811 140.867 203.177 161.044 203.177 185.934Z" fill="url(#paint2_linear_4410_58606)"/>
<path d="M16.8008 203.164C36.7593 132.13 113.648 178.815 156.484 181.188C196.824 183.423 200.091 197.25 200.091 197.25C200.091 197.25 180.454 231.486 108.447 231.262C36.4393 231.036 16.8008 203.164 16.8008 203.164Z" fill="url(#paint3_linear_4410_58606)"/>
<path opacity="0.6" d="M64.9004 185.676C68.5093 169.758 130.13 194.357 146.614 208.305C163.098 222.251 114.25 223.318 89.477 211.375C64.706 199.43 64.9004 185.676 64.9004 185.676Z" fill="url(#paint4_linear_4410_58606)"/>
<path opacity="0.4" d="M73.4297 172.055C117.194 172.516 165.886 187.01 177.045 197.913C188.202 208.819 176.708 212.942 176.708 212.942C176.708 212.942 177.586 194.712 139.259 183.269C100.934 171.827 73.4297 172.055 73.4297 172.055Z" fill="url(#paint5_linear_4410_58606)"/>
<path opacity="0.6" d="M85.5113 141.914C102.497 143.856 108.021 164.946 117.45 170.274C126.877 175.605 143.733 179.507 143.733 179.507C143.733 179.507 86.2589 161.337 60.1364 168.689C34.0183 176.045 28.9168 198.303 47.9651 214.563C61.543 226.153 86.7647 230.397 86.7647 230.397C86.7647 230.397 42.6176 227.57 21.4538 207.925C0.288329 188.281 13.5702 167.419 34.5697 155.659C55.5692 143.901 85.5113 141.914 85.5113 141.914Z" fill="url(#paint6_linear_4410_58606)"/>
<path opacity="0.4" d="M73.4297 184.556C76.4966 172.234 107.497 173.562 113.963 189.732C120.43 205.895 132.017 210.394 132.017 210.394C132.017 210.394 104.074 210.652 89.4283 201.71C74.7829 192.772 73.4297 184.556 73.4297 184.556Z" fill="url(#paint7_linear_4410_58606)"/>
<path d="M132.643 163.258C133.427 171.391 133.868 179.48 132.683 187.291C132.182 190.583 131.419 193.817 130.255 196.986C129.934 197.809 129.612 198.653 129.252 199.474C123.67 212.304 113.933 216.862 104.376 216.862C100.701 216.862 97.0495 216.198 93.6755 215.055C92.7335 214.732 91.788 214.37 90.846 213.948C90.8039 213.931 90.7454 213.911 90.7049 213.889C90.6439 213.868 90.5647 213.829 90.5036 213.809C90.4434 213.769 90.4047 213.749 90.3445 213.71C90.2636 213.667 90.1828 213.65 90.1036 213.587C89.8842 213.507 89.6606 213.407 89.4403 213.288C77.214 207.283 67.1556 194.033 70.5288 180.462C74.7639 163.457 86.4896 155.289 97.1691 146.635C101.064 143.463 105.1 140.169 108.693 136.576C118.37 126.839 124.896 111.903 127.584 104.917C128.488 102.57 128.949 101.123 128.969 101.062L132.121 102.085C132.082 102.206 131.921 102.707 131.619 103.513C131.297 104.416 130.815 105.74 130.174 107.346C128.628 111.241 126.16 116.844 122.867 122.685C122.867 122.706 122.867 122.725 122.848 122.745C119.676 128.326 115.738 134.107 111.103 138.786C107.45 142.461 102.368 144.989 98.4354 148.182C88.0157 156.632 77.2536 165.368 73.1793 181.71C70.7086 191.646 75.767 201.059 83.6171 207.284C85.4848 208.772 87.5133 210.075 89.6391 211.16C89.9815 211.34 90.3221 211.502 90.6843 211.661C90.926 211.801 91.1859 211.922 91.4474 212.021C91.9283 212.243 92.4307 212.442 92.9133 212.647C93.3744 212.826 93.8562 212.987 94.3173 213.149C95.6034 213.588 96.9472 213.948 98.3124 214.213C108.853 216.376 121.059 213.309 127.404 198.674C130.633 191.262 131.135 183.094 130.775 174.824C130.594 170.847 130.214 166.851 129.851 162.918C129.128 155.388 128.025 147.239 128.747 140.05C129.411 133.545 130.736 127.441 132.179 122.263C132.2 122.205 132.221 122.143 132.239 122.083V122.022C132.64 120.597 133.045 119.253 133.464 117.988C133.464 117.968 133.464 117.968 133.464 117.968C135.613 111.324 137.64 106.963 137.862 106.505C137.88 106.485 137.88 106.462 137.88 106.462L139.708 107.286C139.648 107.448 132.922 122.626 131.116 140.633C130.416 147.621 131.923 155.493 132.643 163.258Z" fill="url(#paint8_linear_4410_58606)"/>
<path d="M138.085 106.584C138.043 106.683 135.695 112.123 132.886 120.116C132.764 120.538 132.623 120.96 132.503 121.301C132.443 121.499 132.362 121.682 132.302 121.882C132.282 121.921 132.263 121.964 132.242 122.022V122.083C132.224 122.143 132.202 122.206 132.182 122.263C130.474 127.262 128.688 133.104 127.204 139.148C125.597 145.653 124.875 151.875 124.091 158.461C123.73 161.532 123.448 164.747 123.108 168.078C122.928 169.744 122.748 171.449 122.527 173.157C122.507 173.217 122.507 173.277 122.507 173.318C122.366 174.42 122.206 175.525 122.025 176.632C121.943 177.211 121.845 177.795 121.743 178.398C121.643 178.979 121.524 179.562 121.421 180.165C121.302 180.744 121.182 181.349 121.061 181.951C120.8 183.137 120.52 184.34 120.199 185.544C120.179 185.645 120.158 185.727 120.139 185.826C120.139 185.846 120.139 185.886 120.116 185.905C119.315 189.016 118.27 192.149 116.924 195.321C111.525 208.051 104.279 212.908 98.315 214.215C97.0298 214.514 95.8056 214.634 94.6803 214.634C93.3168 214.634 92.0117 214.393 90.8478 213.95C90.8056 213.932 90.7471 213.913 90.7067 213.891C90.6258 213.85 90.526 213.831 90.4452 213.771C90.1054 213.652 89.7819 213.471 89.4421 213.291C87.1933 212.083 85.1243 210.015 83.6188 207.286C80.9089 202.387 79.9859 195.302 83.0786 186.829C89.2803 169.807 98.4174 159.666 105.805 150.009C108.495 146.495 111.285 142.884 113.954 138.968C117.329 134.01 120.34 128.227 122.849 122.747C122.869 122.727 122.869 122.708 122.869 122.687C124.475 119.214 125.861 115.881 127.005 112.95C127.005 112.95 127.005 112.93 127.026 112.89C127.047 112.848 127.065 112.788 127.105 112.709C127.186 112.487 127.267 112.268 127.368 112.046C129.415 106.684 130.579 102.972 130.618 102.891L131.622 103.515L133.188 104.499C133.188 104.518 133.146 104.597 133.088 104.779C133.028 104.941 132.927 105.18 132.826 105.481C132.406 106.566 131.683 108.452 130.658 110.881V110.902C127.646 118.248 122.166 130.498 115.623 140.092C112.91 144.066 110.121 147.701 107.411 151.234C100.104 160.77 92.5348 170.608 86.4311 187.35C82.2355 198.874 84.8043 207.628 89.6425 211.019V211.041C89.9849 211.284 90.3256 211.482 90.6878 211.663C90.9295 211.803 91.1893 211.924 91.4508 212.023C91.9713 212.225 92.5141 212.386 93.0776 212.488C99.1985 213.571 107.611 208.193 114.017 193.113C116.545 187.131 118.212 181.49 119.376 176.11C120.721 169.888 121.423 164.003 122.105 158.222C122.891 151.576 123.631 145.293 125.258 138.668C125.438 137.947 125.619 137.224 125.798 136.522C126.14 135.215 126.502 133.931 126.843 132.685C127.085 131.843 127.326 131.04 127.567 130.217C128.188 128.088 128.831 126.019 129.473 124.092C129.735 123.289 129.996 122.489 130.256 121.724C130.337 121.443 130.437 121.184 130.518 120.923C130.518 120.901 130.539 120.883 130.539 120.863L130.559 120.841V120.821C130.618 120.641 130.679 120.482 130.74 120.32C130.817 120.059 130.9 119.818 130.999 119.575C131.06 119.456 131.099 119.317 131.137 119.174C131.341 118.614 131.521 118.088 131.702 117.549C131.743 117.39 131.801 117.228 131.863 117.086C132.386 115.685 132.866 114.378 133.307 113.192C133.307 113.153 133.326 113.094 133.347 113.051C133.667 112.229 133.95 111.467 134.233 110.763C134.352 110.422 134.471 110.102 134.593 109.8C134.734 109.438 134.873 109.079 135.014 108.756C135.777 106.87 136.239 105.806 136.239 105.806L137.866 106.508L138.085 106.584Z" fill="url(#paint9_linear_4410_58606)"/>
<path d="M136.241 105.797L135.9 105.657L134.794 105.213L133.189 104.492C133.189 104.511 133.147 104.589 133.089 104.772C133.089 104.772 132.889 105.315 132.548 106.257C132.227 107.143 131.783 108.346 131.243 109.791C131.101 110.152 130.96 110.531 130.819 110.936L130.279 112.34C128.753 116.374 126.745 121.594 124.537 127.075L124.518 127.094C122.627 131.773 120.581 136.611 118.554 141.068C116.507 145.544 114.661 149.5 112.814 153.416C108.233 163.132 102.454 172.044 95.0646 190.313C94.8426 190.875 94.6233 191.439 94.4039 191.979C90.4087 202.36 89.9459 208.483 89.6431 211.011V211.152C89.4444 212.858 89.7842 213.359 90.1068 213.581C90.1868 213.644 90.2677 213.66 90.3477 213.704C90.4862 213.763 90.6281 213.823 90.8268 213.823C91.232 213.823 91.8721 213.683 92.9173 212.641C92.956 212.598 93.018 212.539 93.0782 212.479C95.1455 210.309 98.6769 204.689 104.803 190.313C111.566 174.434 114.457 163.473 117.791 154.118C119.68 148.838 121.466 143.836 123.793 137.855C126.122 131.852 128.47 125.972 130.52 120.912C130.52 120.891 130.541 120.891 130.541 120.872V120.852C130.541 120.831 130.562 120.831 130.562 120.811C130.6 120.729 130.639 120.63 130.681 120.488C134.094 112.057 136.604 106.075 136.643 105.976L136.241 105.797ZM115.902 153.456C112.57 162.773 109.139 172.427 102.392 188.247C96.811 201.357 93.4189 207.78 91.7112 210.392C92.2928 207.561 94.1406 201.638 97.9551 192.181C98.258 191.44 98.5565 190.716 98.8378 189.993C105.703 173.188 110.04 163.975 114.618 154.28C115.56 152.29 116.506 150.282 117.469 148.217C117.588 147.956 117.709 147.713 117.81 147.474C118.152 146.768 118.473 146.049 118.814 145.307C118.854 145.225 118.875 145.165 118.913 145.104C117.871 147.936 116.906 150.646 115.902 153.456Z" fill="url(#paint10_linear_4410_58606)"/>
<path opacity="0.6" d="M132.644 163.258C133.749 174.801 134.171 186.267 130.256 196.986L129.694 197.206C129.812 196.906 130.919 194.276 132.345 186.066C133.851 177.333 130.817 156.213 130.337 149.268C129.854 142.32 129.953 139.469 131.66 131.679C133.39 123.891 132.183 122.263 132.183 122.263C132.183 122.263 132.203 122.205 132.243 122.083C132.264 122.022 132.283 121.964 132.303 121.882C132.363 121.72 132.425 121.521 132.505 121.301C132.624 120.961 132.765 120.538 132.887 120.116C133.106 119.393 133.326 118.611 133.466 117.987C133.466 117.967 133.466 117.967 133.466 117.967C133.569 117.446 133.628 117.024 133.569 116.844C133.367 116.122 130.957 120.155 130.558 120.818C130.596 120.736 130.635 120.637 130.677 120.495C130.696 120.457 130.718 120.396 130.738 120.316C130.816 120.116 130.918 119.854 130.997 119.571C131.058 119.453 131.097 119.313 131.136 119.171C131.439 118.208 131.658 117.164 131.358 116.944C130.756 116.5 127.925 123.407 127.925 123.407L124.533 127.081L130.275 112.345L130.815 110.941L131.358 109.576L131.239 109.795L130.654 110.878V110.9L128.909 114.172C129.391 113.046 131.74 107.588 130.614 107.246C130.473 107.206 130.334 107.246 130.172 107.345C129.23 107.888 127.985 110.618 127.364 112.043C127.263 112.265 127.182 112.484 127.101 112.706C127.061 112.786 127.043 112.847 127.022 112.887C127.262 112.145 129.851 103.692 127.583 104.917C128.486 102.57 128.947 101.123 128.967 101.062L132.119 102.085C132.08 102.206 131.92 102.707 131.618 103.513L133.184 104.498L134.789 105.219L135.895 105.662L136.236 105.803L136.637 105.983L137.863 106.504C137.881 106.484 137.881 106.461 137.881 106.461L139.709 107.285C139.649 107.447 132.923 122.625 131.117 140.632C130.418 147.621 131.924 155.493 132.644 163.258Z" fill="url(#paint11_linear_4410_58606)"/>
<path opacity="0.6" d="M118.912 145.103C124.154 131.481 131.473 109.883 133.855 107.839C136.239 105.796 130.558 120.812 130.558 120.812C130.558 120.812 135.123 107.58 136.2 107.2C137.279 106.819 132.183 122.257 132.183 122.257C132.183 122.257 136.265 109.358 137.154 109.101C138.04 108.849 138.087 111.005 138.087 111.005L139.713 107.28C139.713 107.28 132.223 104.94 128.54 102.33C128.54 102.33 129.019 102.192 129.311 104.223C129.609 106.249 123.611 121.42 122.869 122.679C122.869 122.679 127.709 111.957 130.054 105.235C130.054 105.235 131.528 104.297 131.36 107.84C131.194 111.386 126.902 119.543 126.902 119.543L118.912 145.103Z" fill="url(#paint12_linear_4410_58606)"/>
<path opacity="0.73" d="M94.0586 149.134C107.42 137.763 112.87 133.773 118.069 125.562C123.269 117.348 126.65 107.844 126.65 107.844C126.65 107.844 122.348 124.466 114.14 133.705C105.933 142.943 94.0586 149.134 94.0586 149.134Z" fill="url(#paint13_linear_4410_58606)"/>
<path opacity="0.73" d="M99.3047 159.155C99.3047 159.155 113.221 141.657 119.117 131.958C125.012 122.258 129.312 110.75 129.312 110.75C129.312 110.75 123.712 125.656 117.025 136.525C110.339 147.391 99.3047 159.155 99.3047 159.155Z" fill="url(#paint14_linear_4410_58606)"/>
<path opacity="0.73" d="M132.122 113.172C132.122 113.172 123.84 131.591 119.421 143.787C114.999 155.985 110.877 167.232 110.877 167.232C110.877 167.232 117.308 152.479 122.633 139.037C127.96 125.598 132.122 113.172 132.122 113.172Z" fill="url(#paint15_linear_4410_58606)"/>
<path d="M188.437 11.1376C188.477 31.7767 150.152 95.8186 147.341 97.6054C146.78 97.9865 144.529 98.0683 141.839 97.6854C137.16 97.0247 131.158 94.9549 130.559 90.5589C143.788 30.2118 161.053 0.839211 161.053 0.839211C165.228 -2.31286 187.212 8.42948 188.437 11.1376Z" fill="url(#paint16_linear_4410_58606)"/>
<path d="M161.05 0.837992C158.97 6.28272 185.922 16.0968 188.428 11.1536C190.936 6.20787 162.433 -2.78379 161.05 0.837992Z" fill="#E7912E"/>
<path opacity="0.6" d="M188.438 11.134C188.477 31.773 150.153 95.8149 147.341 97.6017C146.78 97.9828 144.529 98.0646 141.84 97.6817C145.333 91.1359 150.975 80.1965 159.489 62.8489C176.19 28.8213 174.765 10.4922 174.765 10.4922C180.848 14.8504 188.438 11.134 188.438 11.134Z" fill="url(#paint17_linear_4410_58606)"/>
<path d="M149.91 93.9394L143.385 107.711C140.374 108.818 127.204 102.953 126.681 100.743C126.582 100.302 126.702 99.5011 126.961 98.5152V98.498C128.048 94.5433 131.358 87.5156 131.358 87.5156C134.953 91.731 138.485 93.658 141.517 94.4228C146.196 95.6444 149.611 94.077 149.91 93.9394Z" fill="url(#paint18_linear_4410_58606)"/>
<path opacity="0.6" d="M149.91 93.9375L143.385 107.709C140.374 108.816 127.204 102.951 126.681 100.741C126.582 100.3 126.702 99.4992 126.961 98.5133C126.823 102.049 133.85 106.385 137.662 104.236C141.457 102.068 143.363 95.7226 141.498 94.439L141.517 94.4193C146.196 95.6426 149.611 94.0751 149.91 93.9375Z" fill="url(#paint19_linear_4410_58606)"/>
<path opacity="0.7" d="M132.62 90.0276C130.051 89.3601 127.863 98.3001 129.099 101.531C130.337 104.765 139.845 103.34 140.32 98.2992C140.797 93.2597 132.62 90.0276 132.62 90.0276Z" fill="#C2B6FF"/>
<path opacity="0.7" d="M132.623 90.0312C129.103 90.4743 129.976 102.022 132.781 103.406C135.585 104.79 139.999 98.4027 140.389 96.3053C140.775 94.2105 132.623 90.0312 132.623 90.0312Z" fill="#C2B6FF"/>
<path opacity="0.3" d="M165.14 6.44248C157.885 4.50255 131.477 67.2179 136.838 81.5941C142.197 95.9686 168.283 53.4466 170.564 30.8779C172.848 8.30671 165.14 6.44248 165.14 6.44248Z" fill="#D8A26E"/>
<path opacity="0.3" d="M166.932 7.64535C156.617 6.53472 137.092 60.0451 142.417 74.7508C147.741 89.4607 166.677 45.0814 170.986 25.0471C175.298 5.01203 166.932 7.64535 166.932 7.64535Z" fill="#D8A26E"/>
<path opacity="0.73" d="M167.424 10.499C164.663 9.67824 140.4 83.8242 140.4 83.8242C140.4 83.8242 169.421 11.0951 167.424 10.499Z" fill="url(#paint20_linear_4410_58606)"/>
<path opacity="0.6" d="M188.059 15.2097C182.734 14.648 169.04 50.1501 161.431 66.1263C153.824 82.1026 151.514 91.7782 151.514 91.7782C151.514 91.7782 164.372 68.4328 174.756 49.1057C185.145 29.7777 188.059 15.2097 188.059 15.2097Z" fill="url(#paint21_linear_4410_58606)"/>
<path opacity="0.6" d="M131.398 86.797C131.398 86.797 134.074 91.8056 140.401 91.8976C146.726 91.9879 168.562 38.1481 170.986 38.6995C173.412 39.2467 149.459 86.5673 148.975 90.5031C148.496 94.4346 149.91 93.9373 149.91 93.9373C149.91 93.9373 148.45 95.7242 142.246 94.5851C136.043 93.4478 131.359 87.5128 131.359 87.5128L131.398 86.797Z" fill="url(#paint22_linear_4410_58606)"/>
<path opacity="0.73" d="M133.526 89.7812C134.759 91.9707 130.04 100.2 130.669 102.004C131.299 103.806 134.236 97.676 136.138 95.7258C138.039 93.7772 139.72 94.111 139.72 94.111C139.72 94.111 135.041 91.8588 133.526 89.7812Z" fill="url(#paint23_linear_4410_58606)"/>
<path opacity="0.6" d="M132.643 163.265C133.427 171.397 133.868 179.486 132.684 187.298L132.524 187.858C132.524 187.858 132.321 178.382 130.777 174.831C130.597 170.854 130.216 166.858 129.853 162.925C129.13 155.396 128.027 147.246 128.749 140.057C129.413 133.552 130.738 127.449 132.181 122.271C130.473 127.27 128.688 133.111 127.204 139.155C125.597 145.66 124.875 151.882 124.09 158.469C123.73 161.539 123.448 164.754 123.108 168.085C122.927 169.751 122.747 171.456 122.526 173.164C122.506 173.224 122.506 173.284 122.506 173.326C122.365 174.428 122.205 175.532 122.025 176.639C121.942 177.218 121.845 177.802 121.742 178.405C121.643 178.986 121.523 179.57 121.421 180.173C121.301 180.752 121.182 181.356 121.06 181.958C120.8 183.144 120.519 184.348 120.198 185.551C120.8 182.782 122.527 173.647 119.375 176.116C120.72 169.894 121.422 164.01 122.104 158.229C122.889 151.582 123.629 145.299 125.257 138.674C125.437 137.953 125.617 137.23 125.797 136.528C126.139 135.221 126.501 133.938 126.841 132.691C127.084 131.849 127.325 131.046 127.566 130.224C128.187 128.095 128.829 126.026 129.471 124.099C129.734 123.295 129.994 122.495 130.255 121.73C130.336 121.45 130.436 121.19 130.516 120.929C130.516 120.908 130.537 120.889 130.537 120.869L130.558 120.848V120.828C130.616 120.647 130.677 120.488 130.738 120.326C130.816 120.066 130.898 119.825 130.997 119.581C131.219 118.882 131.459 118.219 131.7 117.555C131.742 117.396 131.799 117.234 131.861 117.093C132.363 115.691 132.845 114.384 133.306 113.198C133.306 113.159 133.324 113.101 133.346 113.058C133.666 112.235 133.948 111.473 134.231 110.769C134.351 110.429 134.469 110.109 134.592 109.807C134.733 109.445 134.871 109.085 135.012 108.762C135.775 106.877 136.237 105.812 136.237 105.812L137.864 106.514L138.084 106.595L139.71 107.296C139.65 107.458 132.924 122.637 131.118 140.644C130.417 147.627 131.923 155.499 132.643 163.265Z" fill="url(#paint24_linear_4410_58606)"/>
<path opacity="0.6" d="M134.554 105.798C134.554 105.798 120.981 141.372 118.913 145.105C118.875 145.165 118.854 145.226 118.815 145.307C118.573 145.749 118.232 146.489 117.811 147.475C117.709 147.714 117.589 147.958 117.469 148.218C116.506 150.282 115.56 152.291 114.618 154.281C110.041 163.976 105.704 173.189 98.838 189.994C97.8951 190.054 96.4696 190.517 94.4023 191.981C94.6217 191.441 94.842 190.876 95.063 190.315C102.452 172.046 108.231 163.134 112.812 153.417C114.659 149.5 116.506 145.546 118.552 141.07C120.579 136.612 122.626 131.774 124.516 127.096L124.535 127.077C126.743 121.595 128.751 116.376 130.277 112.341L130.817 110.937C130.958 110.533 131.099 110.154 131.241 109.792C131.782 108.347 132.225 107.144 132.546 106.259C132.889 105.316 133.087 104.773 133.087 104.773L134.554 105.798Z" fill="url(#paint25_linear_4410_58606)"/>
<path opacity="0.73" d="M106.29 209.452C105.022 208.946 111.655 201.025 114.932 191.988C118.208 182.952 119.375 176.109 119.375 176.109C119.375 176.109 121.936 185.534 115.293 196.9C108.648 208.268 106.29 209.452 106.29 209.452Z" fill="url(#paint26_linear_4410_58606)"/>
<path opacity="0.73" d="M71.2951 189.782C71.2951 189.782 72.3067 177.945 78.1085 168.15C83.9102 158.356 86.7629 155.977 86.7629 155.977C86.7629 155.977 77.1131 163.205 72.952 174.138C68.7882 185.078 71.2951 189.782 71.2951 189.782Z" fill="url(#paint27_linear_4410_58606)"/>
<path opacity="0.73" d="M81.627 195.446C81.627 195.446 84.4822 185.118 90.2814 175.324C96.084 165.529 98.83 160.023 98.83 160.023C98.83 160.023 90.45 169.056 86.2897 179.993C82.1276 190.931 81.627 195.446 81.627 195.446Z" fill="url(#paint28_linear_4410_58606)"/>
<path opacity="0.6" d="M179.789 274.302C154.492 304.699 83.2828 313.691 42.4082 281.19V281.17C42.4082 281.17 70.7949 302.511 101.591 291.107C132.408 279.685 133.512 234.595 133.512 234.595C207.271 226.764 212.051 187.055 212.051 187.055C215.282 204.098 203.857 245.395 179.789 274.302Z" fill="url(#paint29_linear_4410_58606)"/>
<path opacity="0.62" d="M19.208 221.102C5.74455 222.635 38.8379 284.639 78.0177 293.006C117.197 301.374 133.667 255.303 131.886 245.142C130.108 234.982 95.5141 240.172 65.4653 234.067C35.4131 227.963 19.208 221.102 19.208 221.102Z" fill="#FC928F"/>
<path opacity="0.62" d="M26.2843 220.266C20.1987 222.446 35.2872 280.076 78.3985 282.358C121.506 284.641 132.159 246.094 127.847 240.009C123.539 233.92 99.1889 236.433 74.0859 233.911C48.9829 231.386 26.2843 220.266 26.2843 220.266Z" fill="#FC928F"/>
<path opacity="0.6" d="M212.052 200.492C205.447 210.848 191.5 216.057 181.611 227.78C171.722 239.504 169.946 261.311 164.872 273.482C159.801 285.656 156.451 291.413 156.451 291.413C156.451 291.413 177.713 282.79 194.118 253.283C210.52 223.777 212.052 200.492 212.052 200.492Z" fill="url(#paint30_linear_4410_58606)"/>
<path opacity="0.6" d="M108.445 301.685C145.32 295.785 150.545 247.078 158.533 241.749C166.52 236.425 165.124 265.425 163.983 274.364C162.843 283.304 176.708 276.627 176.708 276.627C176.708 276.627 169.12 286.346 152.573 293.193C136.026 300.04 108.445 301.685 108.445 301.685Z" fill="url(#paint31_linear_4410_58606)"/>
<path opacity="0.62" d="M48.9154 232.125C29.0248 237.856 57.8529 286.542 82.9602 286.161C108.065 285.78 108.397 244.335 98.5898 240.333C88.7869 236.33 48.9154 232.125 48.9154 232.125Z" fill="#FC928F"/>
<path d="M65.9954 236.053C62.4828 235.538 77.3313 269.016 78.3972 269.944C79.4605 270.873 72.0552 240.327 71.1244 238.454C70.1953 236.578 65.9954 236.053 65.9954 236.053Z" fill="url(#paint32_linear_4410_58606)"/>
<path opacity="0.62" d="M58.6178 227.08C54.5616 229.235 67.4951 233.165 71.4249 233.292C75.3572 233.421 71.9324 226.321 58.6178 227.08Z" fill="#FCBF8F"/>
<path opacity="0.62" d="M135.265 142.918C116.436 155.817 123.283 174.331 151.051 178.896C178.819 183.459 193.834 186.219 198.912 195.003C198.912 195.003 208.107 178.325 182.244 160.256C156.377 142.189 135.265 142.918 135.265 142.918Z" fill="#FC928F"/>
<path opacity="0.62" d="M154.736 151.06C125.947 167.482 145.601 180.163 167.157 181.686C188.713 183.206 197.334 193.349 197.334 193.349C197.334 193.349 211.535 179.655 188.457 163.677C165.382 147.701 154.736 151.06 154.736 151.06Z" fill="#FC928F"/>
<path d="M168.738 153.021C164.138 151.641 164.959 178.128 164.959 178.128C164.959 178.128 171.742 158.385 170.979 155.65C170.214 152.92 168.738 153.021 168.738 153.021Z" fill="url(#paint33_linear_4410_58606)"/>
<path d="M71.6603 171.969C66.9013 192.163 101.524 214.607 135.569 212.134C169.614 209.66 164.479 202.726 166.19 201.532C167.902 200.339 172.78 202.415 175.511 209.918C175.773 210.642 155.128 227.546 110.354 222.885C65.5782 218.218 54.3575 194.446 56.8291 184.365C59.3024 174.285 71.6603 171.969 71.6603 171.969Z" fill="url(#paint34_linear_4410_58606)"/>
<path opacity="0.3" d="M44.6089 189.398C38.9036 214.189 93.6777 232.762 142.115 224.138C190.55 215.517 175.781 198.424 161.323 193.351C161.323 193.351 176.536 194.578 180.847 207.026C185.158 219.473 135.201 236.463 90.0628 228.854C44.9221 221.246 40.3583 200.017 44.6089 189.398Z" fill="url(#paint35_linear_4410_58606)"/>
<path opacity="0.3" d="M61.1773 175.469C42.2623 194.117 72.8831 219.605 101.983 222.835C101.983 222.835 74.1804 221.459 57.8411 202.273C41.5018 183.084 61.1773 175.469 61.1773 175.469Z" fill="url(#paint36_linear_4410_58606)"/>
<path opacity="0.6" d="M66.2243 172.617C54.8118 180.601 53.0999 208.94 89.2377 217.498C125.373 226.057 141.161 215.754 141.161 215.754C141.161 215.754 116.624 218.64 91.5192 203.043C66.4144 187.446 66.2243 172.617 66.2243 172.617Z" fill="#FEFE90"/>
<path opacity="0.6" d="M59.7598 174.142C43.9736 184.222 49.1103 212.751 92.8539 220.549C136.599 228.348 158.47 219.219 160.182 209.9C161.895 200.579 141.164 191.386 141.164 191.386C141.164 191.386 171.213 197.916 172.737 210.281C174.257 222.64 139.262 233.861 93.4269 226.636C47.5885 219.408 42.278 193.84 45.307 183.841C48.3326 173.844 59.7598 174.142 59.7598 174.142Z" fill="#FEFE90"/>
<path opacity="0.6" d="M46.0177 175.469C31.2294 176.81 27.0433 202.486 38.8369 212.186C50.6288 221.885 75.5425 226.145 75.5425 226.145C75.5425 226.145 50.8189 218.273 45.492 202.295C40.1669 186.318 46.0177 175.469 46.0177 175.469Z" fill="#FEFE90"/>
<path opacity="0.6" d="M66.9855 181.93C56.8307 184.357 65.4654 211.789 97.9883 217.876C130.51 223.96 136.407 218.638 137.168 216.735C137.929 214.834 117.578 220.919 97.4154 206.654C77.2573 192.389 66.9855 181.93 66.9855 181.93Z" fill="#FEFE90"/>
<path opacity="0.6" d="M138.089 187.05C133.423 188.426 154.093 195.435 157.328 204.942C160.561 214.453 153.513 217.568 153.513 217.568C153.513 217.568 171.971 219.968 172.354 207.037C172.734 194.101 146.08 184.694 138.089 187.05Z" fill="#FEFE90"/>
<path opacity="0.6" d="M158.849 182.318C154.329 183.069 180.34 194.681 182.052 202.858C183.765 211.041 196.507 202.858 195.366 194.11C194.225 185.362 169.707 180.518 158.849 182.318Z" fill="#FEFE90"/>
<path opacity="0.6" d="M142.576 185.359C139.26 185.487 154.729 192.586 160.309 202.223C165.886 211.86 157.899 216.861 157.899 216.861C157.899 216.861 175.107 213.817 170.625 201.111C166.14 188.402 142.576 185.359 142.576 185.359Z" fill="#FEFE90"/>
<path opacity="0.6" d="M154.882 182.821C151.303 182.925 171.086 190.557 178.186 197.658C185.288 204.757 181.11 210.396 181.11 210.396C181.11 210.396 198.475 206.785 198.095 197.658C197.714 188.527 168.093 182.443 154.882 182.821Z" fill="#FEFE90"/>
<path d="M84.4175 200.484C77.0345 199.087 79.759 209.854 82.0723 211.724C84.3882 213.596 89.5834 206.229 89.5834 206.229C89.5834 206.229 88.6647 201.291 84.4175 200.484Z" fill="url(#paint37_linear_4410_58606)"/>
<path d="M78.4292 216.969C75.4784 217.066 78.3948 221.376 79.7901 221.755C81.1847 222.136 81.8875 217.509 78.4292 216.969Z" fill="url(#paint38_linear_4410_58606)"/>
<path d="M76.6695 225.781C73.9553 225.831 76.3744 229.31 79.6116 228.36C82.8472 227.411 76.6695 225.781 76.6695 225.781Z" fill="url(#paint39_linear_4410_58606)"/>
<path d="M146.528 194.095C144.781 194.347 152.27 197.835 152.27 197.835C152.27 197.835 157.222 192.551 146.528 194.095Z" fill="url(#paint40_linear_4410_58606)"/>
<path d="M143.922 197.816C139.75 197.465 143.922 202.057 145.063 202.219C146.204 202.378 147.725 200.488 147.725 200.488C147.725 200.488 147.345 198.1 143.922 197.816Z" fill="url(#paint41_linear_4410_58606)"/>
<path d="M166.266 187.849C162.524 188.385 173.918 193.804 173.918 193.804C173.918 193.804 187.378 184.826 166.266 187.849Z" fill="url(#paint42_linear_4410_58606)"/>
<path opacity="0.6" d="M21.0956 191.383C24.8912 184.219 20.8728 202.895 32.0118 211.691C43.1472 220.484 46.418 221.774 46.418 221.774C46.418 221.774 25.2689 213.51 20.9589 206.789C16.6488 200.068 21.0956 191.383 21.0956 191.383Z" fill="url(#paint43_linear_4410_58606)"/>
<path opacity="0.6" d="M10.7433 180.504C8.49447 191.937 19.0785 200.491 19.0785 200.491C19.0785 200.491 21.391 182.364 42.2855 171.499C63.1817 160.635 75.4958 164.381 75.4958 164.381C75.4958 164.381 71.043 151.76 51.2651 151.251C31.4838 150.743 12.5722 171.211 10.7433 180.504Z" fill="url(#paint44_linear_4410_58606)"/>
<path opacity="0.6" d="M58.9612 143.07C58.9612 143.07 5.93256 158.352 2.32196 179.274C-1.29294 200.194 31.8012 229.485 83.1532 234.428C134.504 239.374 159.498 228.528 159.498 228.528C159.498 228.528 118.111 238.08 77.2387 230.74C36.3642 223.396 5.10928 204.875 7.07416 181.176C8.61148 162.65 58.9612 143.07 58.9612 143.07Z" fill="#FEFE90"/>
<path opacity="0.6" d="M2.07318 181.928C3.56491 171.484 8.40743 171.492 8.40743 171.492C8.40743 171.492 -1.95983 195.969 31.1808 214.625C64.324 233.279 117.766 232.119 117.766 232.119C117.766 232.119 99.0863 240.886 63.1816 230.808C27.2794 220.727 -1.5985 207.606 2.07318 181.928Z" fill="#FEFE90"/>
<path opacity="0.4" d="M126.65 221.767C155.861 215.768 144.965 208.328 140.303 207.016C140.303 207.016 148.929 208.043 153.412 212.45C157.898 216.856 142.579 222.788 126.65 221.767Z" fill="url(#paint45_linear_4410_58606)"/>
<path opacity="0.6" d="M185.182 186.156C185.182 186.156 192.702 186.757 195.366 194.11C198.027 201.467 190.253 207.924 190.253 207.924C190.253 207.924 200.5 200.015 201.135 194.615C201.634 190.383 185.182 186.156 185.182 186.156Z" fill="url(#paint46_linear_4410_58606)"/>
<defs>
<linearGradient id="paint0_linear_4410_58606" x1="10.6921" y1="244.379" x2="234.894" y2="244.379" gradientUnits="userSpaceOnUse">
<stop offset="0.0053" stop-color="#CA48D6"/>
<stop offset="1" stop-color="#CC0192"/>
</linearGradient>
<linearGradient id="paint1_linear_4410_58606" x1="0.588407" y1="187.058" x2="212.052" y2="187.058" gradientUnits="userSpaceOnUse">
<stop stop-color="#FF7FD6"/>
<stop offset="1" stop-color="#FF48A0"/>
</linearGradient>
<linearGradient id="paint2_linear_4410_58606" x1="9.45735" y1="185.932" x2="203.177" y2="185.932" gradientUnits="userSpaceOnUse">
<stop stop-color="#CC0192"/>
<stop offset="0.9947" stop-color="#CA48D6"/>
</linearGradient>
<linearGradient id="paint3_linear_4410_58606" x1="104.276" y1="471.28" x2="108.804" y2="176.918" gradientUnits="userSpaceOnUse">
<stop stop-color="#F5A983"/>
<stop offset="1" stop-color="#FFDB8B"/>
</linearGradient>
<linearGradient id="paint4_linear_4410_58606" x1="64.9004" y1="200.055" x2="149.942" y2="200.055" gradientUnits="userSpaceOnUse">
<stop offset="0.0053" stop-color="#D947CA"/>
<stop offset="0.1774" stop-color="#E378D8"/>
<stop offset="0.3651" stop-color="#EDA6E6"/>
<stop offset="0.545" stop-color="#F5CAF0"/>
<stop offset="0.7125" stop-color="#FAE4F8"/>
<stop offset="0.8628" stop-color="#FEF4FC"/>
<stop offset="0.9815" stop-color="#FFF9FE"/>
</linearGradient>
<linearGradient id="paint5_linear_4410_58606" x1="73.4299" y1="192.499" x2="181.918" y2="192.499" gradientUnits="userSpaceOnUse">
<stop stop-color="#FFFFFE"/>
<stop offset="0.9947" stop-color="#F1798E"/>
</linearGradient>
<linearGradient id="paint6_linear_4410_58606" x1="10.7409" y1="186.156" x2="143.733" y2="186.156" gradientUnits="userSpaceOnUse">
<stop offset="0.0053" stop-color="#A4258E"/>
<stop offset="1" stop-color="#FFD9FE"/>
</linearGradient>
<linearGradient id="paint7_linear_4410_58606" x1="75.7819" y1="179.491" x2="132.588" y2="209.923" gradientUnits="userSpaceOnUse">
<stop offset="0.0053" stop-color="#A4258E"/>
<stop offset="0.1138" stop-color="#B342A0"/>
<stop offset="0.3356" stop-color="#CE77C1"/>
<stop offset="0.5428" stop-color="#E3A2DC"/>
<stop offset="0.7291" stop-color="#F2C0EE"/>
<stop offset="0.8877" stop-color="#FCD2FA"/>
<stop offset="1" stop-color="#FFD9FE"/>
</linearGradient>
<linearGradient id="paint8_linear_4410_58606" x1="129.656" y1="208.631" x2="91.3747" y2="116.723" gradientUnits="userSpaceOnUse">
<stop offset="0.0056" stop-color="#817BBB"/>
<stop offset="1" stop-color="#B89FD6"/>
</linearGradient>
<linearGradient id="paint9_linear_4410_58606" x1="129.387" y1="201.582" x2="94.5387" y2="117.916" gradientUnits="userSpaceOnUse">
<stop offset="0.0056" stop-color="#817BBB"/>
<stop offset="1" stop-color="#B89FD6"/>
</linearGradient>
<linearGradient id="paint10_linear_4410_58606" x1="113.112" y1="213.824" x2="113.113" y2="104.492" gradientUnits="userSpaceOnUse">
<stop offset="0.0056" stop-color="#817BBB"/>
<stop offset="1" stop-color="#B89FD6"/>
</linearGradient>
<linearGradient id="paint11_linear_4410_58606" x1="149.926" y1="188.794" x2="115.689" y2="106.596" gradientUnits="userSpaceOnUse">
<stop offset="0.746" stop-color="#F6F1F6"/>
<stop offset="0.9947" stop-color="#BB5BAA"/>
</linearGradient>
<linearGradient id="paint12_linear_4410_58606" x1="134.487" y1="138.616" x2="120.728" y2="105.583" gradientUnits="userSpaceOnUse">
<stop offset="0.5132" stop-color="#F6F1F6"/>
<stop offset="0.9947" stop-color="#BB5BAA"/>
</linearGradient>
<linearGradient id="paint13_linear_4410_58606" x1="115.272" y1="140.298" x2="105.435" y2="116.679" gradientUnits="userSpaceOnUse">
<stop stop-color="#2E2E2E"/>
<stop offset="1" stop-color="#FDD19A"/>
</linearGradient>
<linearGradient id="paint14_linear_4410_58606" x1="120.681" y1="150.252" x2="107.937" y2="119.654" gradientUnits="userSpaceOnUse">
<stop stop-color="#2E2E2E"/>
<stop offset="1" stop-color="#FDD19A"/>
</linearGradient>
<linearGradient id="paint15_linear_4410_58606" x1="129.523" y1="159.466" x2="113.476" y2="120.938" gradientUnits="userSpaceOnUse">
<stop stop-color="#2E2E2E"/>
<stop offset="1" stop-color="#FDD19A"/>
</linearGradient>
<linearGradient id="paint16_linear_4410_58606" x1="146.539" y1="135.584" x2="166.166" y2="8.49606" gradientUnits="userSpaceOnUse">
<stop stop-color="#A73909"/>
<stop offset="0.9944" stop-color="#CC7100"/>
</linearGradient>
<linearGradient id="paint17_linear_4410_58606" x1="156.269" y1="50.8243" x2="172.645" y2="57.4408" gradientUnits="userSpaceOnUse">
<stop stop-color="#FFD9FE"/>
<stop offset="0.9947" stop-color="#A4258E"/>
</linearGradient>
<linearGradient id="paint18_linear_4410_58606" x1="124.23" y1="103.087" x2="149.427" y2="92.5916" gradientUnits="userSpaceOnUse">
<stop stop-color="#B89FD6"/>
<stop offset="0.9944" stop-color="#817BBB"/>
</linearGradient>
<linearGradient id="paint19_linear_4410_58606" x1="142.724" y1="107.984" x2="137.032" y2="94.3185" gradientUnits="userSpaceOnUse">
<stop offset="0.0053" stop-color="#BB5BAA"/>
<stop offset="1" stop-color="#F5F2FF"/>
</linearGradient>
<linearGradient id="paint20_linear_4410_58606" x1="140.4" y1="47.158" x2="167.522" y2="47.158" gradientUnits="userSpaceOnUse">
<stop/>
<stop offset="0.9947" stop-color="#EC905C"/>
</linearGradient>
<linearGradient id="paint21_linear_4410_58606" x1="151.514" y1="53.4904" x2="188.06" y2="53.4904" gradientUnits="userSpaceOnUse">
<stop/>
<stop offset="1" stop-color="#6159D6"/>
</linearGradient>
<linearGradient id="paint22_linear_4410_58606" x1="151.26" y1="94.9642" x2="151.26" y2="38.6947" gradientUnits="userSpaceOnUse">
<stop offset="0.0053" stop-color="#A4258E"/>
<stop offset="1" stop-color="#FFD9FE"/>
</linearGradient>
<linearGradient id="paint23_linear_4410_58606" x1="135.166" y1="102.332" x2="135.166" y2="89.7809" gradientUnits="userSpaceOnUse">
<stop stop-color="#2E2E2E"/>
<stop offset="1" stop-color="#FDD19A"/>
</linearGradient>
<linearGradient id="paint24_linear_4410_58606" x1="145.042" y1="182.644" x2="116.469" y2="114.044" gradientUnits="userSpaceOnUse">
<stop stop-color="#EAC2FA"/>
<stop offset="0.9947" stop-color="#BB5BAA"/>
</linearGradient>
<linearGradient id="paint25_linear_4410_58606" x1="126.805" y1="178.485" x2="101.571" y2="117.9" gradientUnits="userSpaceOnUse">
<stop stop-color="#EAC2FA"/>
<stop offset="0.9947" stop-color="#BB5BAA"/>
</linearGradient>
<linearGradient id="paint26_linear_4410_58606" x1="106.131" y1="192.781" x2="119.86" y2="192.781" gradientUnits="userSpaceOnUse">
<stop stop-color="#2E2E2E"/>
<stop offset="1" stop-color="#FDD19A"/>
</linearGradient>
<linearGradient id="paint27_linear_4410_58606" x1="70.5467" y1="172.88" x2="86.7624" y2="172.88" gradientUnits="userSpaceOnUse">
<stop stop-color="#2E2E2E"/>
<stop offset="1" stop-color="#FDD19A"/>
</linearGradient>
<linearGradient id="paint28_linear_4410_58606" x1="81.6267" y1="177.735" x2="98.83" y2="177.735" gradientUnits="userSpaceOnUse">
<stop stop-color="#2E2E2E"/>
<stop offset="1" stop-color="#FDD19A"/>
</linearGradient>
<linearGradient id="paint29_linear_4410_58606" x1="50.9672" y1="244.379" x2="230.443" y2="244.379" gradientUnits="userSpaceOnUse">
<stop stop-color="#FFD9FE"/>
<stop offset="0.9947" stop-color="#A4008E"/>
</linearGradient>
<linearGradient id="paint30_linear_4410_58606" x1="156.451" y1="245.952" x2="212.052" y2="245.952" gradientUnits="userSpaceOnUse">
<stop/>
<stop offset="1" stop-color="#6159D6"/>
</linearGradient>
<linearGradient id="paint31_linear_4410_58606" x1="142.576" y1="298.638" x2="142.576" y2="234.745" gradientUnits="userSpaceOnUse">
<stop offset="0.0053" stop-color="#A4008E"/>
<stop offset="1" stop-color="#FFD9FE"/>
</linearGradient>
<linearGradient id="paint32_linear_4410_58606" x1="71.9804" y1="269.965" x2="71.9804" y2="236.047" gradientUnits="userSpaceOnUse">
<stop/>
<stop offset="0.9947" stop-color="#8690A7"/>
</linearGradient>
<linearGradient id="paint33_linear_4410_58606" x1="167.971" y1="178.128" x2="167.971" y2="152.969" gradientUnits="userSpaceOnUse">
<stop/>
<stop offset="0.9947" stop-color="#8690A7"/>
</linearGradient>
<linearGradient id="paint34_linear_4410_58606" x1="112.807" y1="406.762" x2="116.264" y2="182.069" gradientUnits="userSpaceOnUse">
<stop stop-color="#F5A983"/>
<stop offset="1" stop-color="#FFDB8B"/>
</linearGradient>
<linearGradient id="paint35_linear_4410_58606" x1="43.3553" y1="210.071" x2="181.107" y2="210.071" gradientUnits="userSpaceOnUse">
<stop offset="0.0053" stop-color="#F1798E"/>
<stop offset="1" stop-color="#FFFFFE"/>
</linearGradient>
<linearGradient id="paint36_linear_4410_58606" x1="51.3536" y1="199.151" x2="101.983" y2="199.151" gradientUnits="userSpaceOnUse">
<stop offset="0.0053" stop-color="#F1798E"/>
<stop offset="1" stop-color="#FFFFFE"/>
</linearGradient>
<linearGradient id="paint37_linear_4410_58606" x1="77.4765" y1="233.359" x2="84.8304" y2="204.071" gradientUnits="userSpaceOnUse">
<stop/>
<stop offset="0.9947" stop-color="#FFFFA7"/>
</linearGradient>
<linearGradient id="paint38_linear_4410_58606" x1="75.5874" y1="232.9" x2="82.9408" y2="203.613" gradientUnits="userSpaceOnUse">
<stop/>
<stop offset="0.9947" stop-color="#FFFFA7"/>
</linearGradient>
<linearGradient id="paint39_linear_4410_58606" x1="76.5112" y1="233.122" x2="83.8631" y2="203.841" gradientUnits="userSpaceOnUse">
<stop/>
<stop offset="0.9947" stop-color="#FFFFA7"/>
</linearGradient>
<linearGradient id="paint40_linear_4410_58606" x1="140.103" y1="200.659" x2="167.114" y2="186.963" gradientUnits="userSpaceOnUse">
<stop/>
<stop offset="0.9947" stop-color="#FFFFA7"/>
</linearGradient>
<linearGradient id="paint41_linear_4410_58606" x1="140.69" y1="201.8" x2="167.701" y2="188.105" gradientUnits="userSpaceOnUse">
<stop/>
<stop offset="0.9947" stop-color="#FFFFA7"/>
</linearGradient>
<linearGradient id="paint42_linear_4410_58606" x1="142.253" y1="204.884" x2="169.26" y2="191.191" gradientUnits="userSpaceOnUse">
<stop/>
<stop offset="0.9947" stop-color="#FFFFA7"/>
</linearGradient>
<linearGradient id="paint43_linear_4410_58606" x1="17.8227" y1="197.396" x2="50.3298" y2="214.811" gradientUnits="userSpaceOnUse">
<stop stop-color="#6159D6"/>
<stop offset="1"/>
</linearGradient>
<linearGradient id="paint44_linear_4410_58606" x1="18.4718" y1="164.702" x2="62.84" y2="188.47" gradientUnits="userSpaceOnUse">
<stop offset="0.0053" stop-color="#A4258E"/>
<stop offset="1" stop-color="#FFD9FE"/>
</linearGradient>
<linearGradient id="paint45_linear_4410_58606" x1="126.651" y1="214.45" x2="154.205" y2="214.45" gradientUnits="userSpaceOnUse">
<stop stop-color="#FFFFFE"/>
<stop offset="0.9947" stop-color="#F1798E"/>
</linearGradient>
<linearGradient id="paint46_linear_4410_58606" x1="185.182" y1="197.04" x2="201.146" y2="197.04" gradientUnits="userSpaceOnUse">
<stop stop-color="#FFD9FE"/>
<stop offset="0.9947" stop-color="#C2258E"/>
</linearGradient>
</defs>
</svg>
